<?xml version="1.0" encoding="utf-8"?>
<!-- Generator: Adobe Illustrator 16.0.0, SVG Export Plug-In . SVG Version: 6.00 Build 0)  -->
<!DOCTYPE svg PUBLIC "-//W3C//DTD SVG 1.1//EN" "http://www.w3.org/Graphics/SVG/1.1/DTD/svg11.dtd">
<svg version="1.1" id="Warstwa_1" xmlns="http://www.w3.org/2000/svg" xmlns:xlink="http://www.w3.org/1999/xlink" x="0px" y="0px"
	 width="918.885px" height="736.908px" viewBox="-54.128 -77.071 918.885 736.908"
	 enable-background="new -54.128 -77.071 918.885 736.908" xml:space="preserve">
<g>
	
		<image overflow="visible" width="919" height="737" xlink:href="parter.png"  transform="matrix(0.9999 0 0 0.9999 -54.1279 -77.0713)">
	</image>
	
		<image display="none" overflow="visible" width="919" height="737" xlink:href="pierwsze.png"  transform="matrix(0.9999 0 0 0.9999 -54.1279 -77.0713)">
	</image>
	
		<image display="none" overflow="visible" width="919" height="737" xlink:href="drugie.png"  transform="matrix(0.9999 0 0 0.9999 -54.1279 -77.0713)">
	</image>
	
		<image display="none" overflow="visible" width="919" height="737" xlink:href="trzecie.png"  transform="matrix(0.9999 0 0 0.9999 -54.1279 -77.0713)">
	</image>
</g>
<polygon opacity="0.5" fill="#FF0000" points="404.481,491.216 404.481,420.549 404.481,401.548 354.148,401.548 354.148,412.215 
	316.149,412.215 316.149,401.548 291.482,401.548 291.482,376.882 154.148,376.882 154.148,420.549 -0.185,420.549 -0.185,583.549 
	51.813,583.549 51.813,583.883 407.147,583.883 407.147,491.216 "/>
<polygon opacity="0.5" fill="#FF0000" points="585.482,364.551 585.482,376.884 486.482,376.884 486.482,400.884 459.482,400.884 
	459.482,491.551 454.815,491.551 454.815,621.884 781.149,621.884 781.149,494.884 781.149,491.551 781.149,364.551 "/>
<polygon opacity="0.5" fill="#FF0000" points="781.149,46.383 776.323,46.383 776.323,33.383 460.315,33.383 460.315,352.383 
	486.315,352.383 486.315,364.551 486.315,376.884 585.482,376.884 585.482,364.551 781.149,364.551 "/>
<polygon opacity="0.5" fill="#FF0000" points="309.815,38.883 105.815,38.883 105.815,219.883 105.815,257.133 0.315,257.133 
	0.315,420.299 154.315,420.299 154.315,377.049 291.315,377.049 291.315,352.549 309.815,352.549 "/>
</svg>
