<?xml version="1.0" encoding="utf-8"?>
<!-- Generator: Adobe Illustrator 16.0.4, SVG Export Plug-In . SVG Version: 6.00 Build 0)  -->
<!DOCTYPE svg PUBLIC "-//W3C//DTD SVG 1.1//EN" "http://www.w3.org/Graphics/SVG/1.1/DTD/svg11.dtd">
<svg version="1.1" id="Icon" xmlns="http://www.w3.org/2000/svg" xmlns:xlink="http://www.w3.org/1999/xlink" x="0px" y="0px"
	 width="130px" height="150px" viewBox="0 0 130 150" enable-background="new 0 0 130 150" xml:space="preserve">
<g>
	<path fill="#E40050" d="M38.889,76.379c0,14.397,11.712,26.112,26.113,26.112c14.397,0,26.109-11.715,26.109-26.112
		S79.399,50.266,65.002,50.266C50.601,50.266,38.889,61.981,38.889,76.379z M82.918,76.379c0,9.881-8.037,17.918-17.916,17.918
		c-9.883,0-17.92-8.037-17.92-17.918s8.037-17.919,17.92-17.919C74.881,58.46,82.918,66.498,82.918,76.379z"/>
	<path fill="#E40050" d="M125.468,75.907l-7.831-3.913c-0.358-4.179-1.219-8.268-2.563-12.229l5.725-7.389
		c2.056-2.651,2.285-6.289,0.584-9.181c-2.671-4.53-5.888-8.737-9.565-12.505c-1.58-1.613-3.706-2.469-5.868-2.469
		c-1.154,0-2.32,0.244-3.416,0.748l-8.256,3.79c-3.824-2.531-7.982-4.565-12.33-6.033l-2.254-9.131
		c-0.816-3.317-3.605-5.776-6.997-6.178c-2.61-0.305-5.197-0.462-7.693-0.462s-5.087,0.157-7.697,0.462
		c-3.392,0.401-6.181,2.86-6.997,6.178l-2.254,9.131c-4.348,1.468-8.51,3.502-12.33,6.033l-8.256-3.79
		c-1.096-0.504-2.262-0.748-3.416-0.748c-2.162,0-4.288,0.855-5.867,2.469c-3.675,3.764-6.892,7.971-9.566,12.505
		c-1.701,2.89-1.472,6.527,0.584,9.179l5.725,7.391c-1.345,3.962-2.201,8.053-2.562,12.229l-7.832,3.913
		c-3.094,1.546-4.884,4.867-4.475,8.301c0.65,5.453,1.992,10.806,3.979,15.914c1.209,3.103,4.174,5.164,7.502,5.22l9.351,0.154
		c2.051,3.101,4.42,5.965,7.089,8.571l-1.864,8.794c-0.706,3.331,0.722,6.754,3.591,8.596c4.749,3.049,9.87,5.469,15.219,7.191
		c0.825,0.268,1.674,0.396,2.512,0.396c2.396,0,4.725-1.053,6.311-2.965l5.964-7.195c1.757,0.177,3.527,0.266,5.292,0.266
		c1.761,0,3.531-0.089,5.288-0.266l5.968,7.195c1.582,1.912,3.911,2.965,6.307,2.965c0.838,0,1.683-0.128,2.512-0.396
		c5.345-1.721,10.466-4.141,15.219-7.191c2.869-1.842,4.297-5.263,3.591-8.593l-1.864-8.797c2.669-2.606,5.038-5.471,7.089-8.571
		l9.351-0.154c3.328-0.056,6.293-2.117,7.498-5.218c1.991-5.103,3.333-10.459,3.983-15.916
		C130.352,80.774,128.562,77.453,125.468,75.907z M93.32,42.218l12.632-5.802c3.21,3.289,6.022,6.959,8.371,10.941l-4.963,6.399
		c-0.516-1.016-1.06-2.022-1.65-3.007c-0.773-1.293-2.456-1.714-3.745-0.937c-1.294,0.776-1.714,2.456-0.937,3.747
		c3.273,5.457,5.3,11.46,6.022,17.846c2.741,24.29-14.79,46.282-39.078,49.022c-11.767,1.326-23.348-2.005-32.606-9.386
		c-9.26-7.382-15.088-17.926-16.417-29.693c-1.329-11.767,2.008-23.348,9.387-32.605c2.273-2.85,4.848-5.374,7.661-7.541
		c0.075-0.056,0.146-0.114,0.218-0.169c0.317-0.238,0.639-0.467,0.96-0.696c4.649-3.287,9.958-5.715,15.694-7.041l0.021-0.074
		c1.682-0.392,3.396-0.698,5.138-0.897c5.094-0.574,10.152-0.273,15.079,0.881l0.024,0.091
		C81.919,34.864,88.111,37.963,93.32,42.218z M58.261,19.557c2.211-0.26,4.46-0.406,6.741-0.406s4.526,0.146,6.737,0.406l1.92,7.784
		c-4.678-0.827-9.446-0.986-14.243-0.442c-1.035,0.119-2.059,0.278-3.079,0.456L58.261,19.557z M24.048,36.416l7.228,3.321
		c-1.86,1.717-3.602,3.586-5.213,5.601c-2.11,2.649-3.923,5.466-5.431,8.411l-4.955-6.392
		C18.025,43.375,20.838,39.705,24.048,36.416z M8.194,83.238l7.126-3.561c0.051,0.76,0.114,1.521,0.202,2.284
		c0.606,5.386,2.066,10.538,4.272,15.32l-8.121-0.133C9.96,92.748,8.773,88.088,8.194,83.238z M34.132,124.562l1.663-7.854
		c5.121,3.716,10.811,6.383,16.801,7.922l-5.156,6.221C42.702,129.324,38.239,127.195,34.132,124.562z M82.564,130.85l-5.185-6.25
		c6.186-1.584,11.858-4.307,16.817-7.916l1.671,7.878C91.761,127.197,87.298,129.326,82.564,130.85z M118.326,97.149l-8.148,0.133
		c2.535-5.449,4.087-11.402,4.494-17.608l7.134,3.564C121.227,88.088,120.04,92.748,118.326,97.149z"/>
	<path fill="#E40050" d="M27.035,76.377c0,8.567,2.932,16.962,8.256,23.643c0.54,0.679,1.337,1.029,2.138,1.029
		c0.6,0,1.198-0.194,1.702-0.593c1.179-0.939,1.373-2.66,0.433-3.84c-4.621-5.801-7.065-12.799-7.065-20.239
		c0-17.923,14.58-32.503,32.504-32.503c3.468,0,6.879,0.545,10.145,1.611c1.437,0.474,2.976-0.313,3.444-1.745
		c0.472-1.433-0.311-2.977-1.742-3.446c-3.816-1.249-7.804-1.883-11.847-1.883C44.066,38.411,27.035,55.443,27.035,76.377z"/>
	<path fill="#E40050" d="M97.503,76.377c0,17.922-14.58,32.506-32.501,32.506c-5.193,0-10.152-1.185-14.73-3.519
		c-1.345-0.683-2.991-0.151-3.678,1.194c-0.683,1.342-0.151,2.986,1.194,3.673c5.355,2.729,11.147,4.114,17.214,4.114
		c20.932,0,37.964-17.032,37.964-37.969c0-9.226-3.345-18.119-9.423-25.04c-0.996-1.133-2.722-1.243-3.857-0.249
		c-1.134,0.995-1.245,2.721-0.249,3.854C94.638,60.866,97.503,68.478,97.503,76.377z"/>
</g>
</svg>
