<?xml version="1.0" encoding="utf-8"?>
<!-- Generator: Adobe Illustrator 16.0.4, SVG Export Plug-In . SVG Version: 6.00 Build 0)  -->
<!DOCTYPE svg PUBLIC "-//W3C//DTD SVG 1.1//EN" "http://www.w3.org/Graphics/SVG/1.1/DTD/svg11.dtd">
<svg version="1.1" id="Warstwa_1" xmlns="http://www.w3.org/2000/svg" xmlns:xlink="http://www.w3.org/1999/xlink" x="0px" y="0px"
	 width="200px" height="200px" viewBox="0 0 200 200" enable-background="new 0 0 200 200" xml:space="preserve">
<g>
	<path fill="#FFFFFF" d="M144.243,170H55.755c-10.991,0-19.934-8.943-19.934-19.938V35.342c0-2.95,2.392-5.342,5.342-5.342h88.489
		c2.949,0,5.342,2.392,5.342,5.342v114.723c0,5.103,4.148,9.252,9.249,9.252c5.103,0,9.252-4.149,9.252-9.252V71.32h-10.353
		c-2.949,0-5.342-2.392-5.342-5.342s2.393-5.342,5.342-5.342h15.693c2.95,0,5.342,2.392,5.342,5.342v84.084
		C164.18,161.057,155.234,170,144.243,170z M46.505,40.684v109.38c0,5.103,4.149,9.252,9.25,9.252h70.835
		c-1.455-2.767-2.279-5.914-2.279-9.252V40.684H46.505z"/>
	<path fill="#FFFFFF" d="M76.492,70.007c-1.815,0-3.287-1.472-3.287-3.287V56.387h-12.46V66.72c0,1.815-1.472,3.287-3.287,3.287
		s-3.287-1.472-3.287-3.287V53.1c0-1.815,1.472-3.287,3.287-3.287h19.034c1.815,0,3.288,1.472,3.288,3.287v13.62
		C79.78,68.535,78.308,70.007,76.492,70.007z"/>
	<path fill="#FFFFFF" d="M114.626,97.397h-58.4c-1.815,0-3.287-1.473-3.287-3.287c0-1.816,1.472-3.288,3.287-3.288h58.4
		c1.815,0,3.287,1.472,3.287,3.288C117.913,95.925,116.441,97.397,114.626,97.397z"/>
	<path fill="#FFFFFF" d="M89.265,110.479H56.226c-1.815,0-3.287-1.472-3.287-3.287c0-1.814,1.472-3.287,3.287-3.287h33.039
		c1.815,0,3.287,1.473,3.287,3.287C92.552,109.007,91.08,110.479,89.265,110.479z"/>
	<path fill="#FFFFFF" d="M89.265,123.561H56.226c-1.815,0-3.287-1.472-3.287-3.287c0-1.814,1.472-3.287,3.287-3.287h33.039
		c1.815,0,3.287,1.473,3.287,3.287C92.552,122.089,91.08,123.561,89.265,123.561z"/>
	<g>
		<path fill="#FFFFFF" d="M114.626,56.387H90.04c-1.815,0-3.287-1.472-3.287-3.287s1.472-3.287,3.287-3.287h24.586
			c1.815,0,3.287,1.472,3.287,3.287S116.441,56.387,114.626,56.387z"/>
		<path fill="#FFFFFF" d="M114.626,69.469H90.04c-1.815,0-3.287-1.472-3.287-3.287s1.472-3.287,3.287-3.287h24.586
			c1.815,0,3.287,1.472,3.287,3.287S116.441,69.469,114.626,69.469z"/>
	</g>
</g>
</svg>
