<?xml version="1.0" encoding="utf-8"?>
<!-- Generator: Adobe Illustrator 16.0.4, SVG Export Plug-In . SVG Version: 6.00 Build 0)  -->
<!DOCTYPE svg PUBLIC "-//W3C//DTD SVG 1.1//EN" "http://www.w3.org/Graphics/SVG/1.1/DTD/svg11.dtd">
<svg version="1.1" id="Warstwa_1" xmlns="http://www.w3.org/2000/svg" xmlns:xlink="http://www.w3.org/1999/xlink" x="0px" y="0px"
	 width="99.508px" height="92px" viewBox="0 0 99.508 92" enable-background="new 0 0 99.508 92" xml:space="preserve">
<path fill="#FFFFFF" d="M91.729,36.171c-5.02-4.989-12.091-8.535-19.913-9.986l-0.191-0.036l-0.021-0.193
	c-0.738-7.022-4.779-13.553-11.378-18.388C53.566,2.688,44.913,0,35.861,0C16.087,0,0,12.666,0,28.235
	c0.058,7.887,4.2,15.417,11.362,20.658l0.131,0.097L9.041,62.746c-0.224,1.286,0.278,2.523,1.31,3.228
	c0.494,0.394,1.171,0.604,1.922,0.604c0.601,0,1.125-0.129,1.516-0.374l14.505-7.796l0.077,0.332
	c3.108,13.448,17.943,23.209,35.277,23.209c1.228,0,2.472-0.06,3.699-0.176l0.078-0.008l18.338,9.852
	C86.333,91.934,86.91,92,87.294,92c0.664,0,1.382-0.226,1.919-0.604c1.034-0.707,1.536-1.943,1.312-3.229l-2.452-13.755l0.131-0.097
	c7.289-5.394,11.304-12.71,11.304-20.601C99.508,47.388,96.745,41.157,91.729,36.171z M31.496,49.704
	c-0.579,0-1.117,0.134-1.6,0.396l-13.245,7.114l1.631-9.162c0.223-1.334-0.356-2.646-1.476-3.339
	c-6.504-4.117-10.233-10.102-10.233-16.42C6.632,16.349,19.798,6.632,35.92,6.632c16.149,0,29.288,9.718,29.288,21.662
	c0,11.944-13.139,21.661-29.288,21.661c-1.515,0-2.899-0.08-4.113-0.238C31.711,49.709,31.603,49.704,31.496,49.704z M82.764,70.134
	c-1.114,0.725-1.695,2.037-1.479,3.343l1.631,9.159l-13.244-7.112c-0.574-0.312-1.235-0.44-1.924-0.384
	c-1.493,0.13-2.834,0.237-4.101,0.237c-14.473,0-26.935-7.97-28.988-18.538l-0.061-0.311h1.262c8.516,0,16.775-2.406,23.258-6.776
	c6.389-4.307,10.678-10.247,12.076-16.725l0.055-0.253l0.254,0.053c12.653,2.638,21.49,11.228,21.49,20.888
	C92.994,60.033,89.266,66.019,82.764,70.134z"/>
</svg>
