<?xml version="1.0" encoding="utf-8"?>
<!-- Generator: Adobe Illustrator 16.0.4, SVG Export Plug-In . SVG Version: 6.00 Build 0)  -->
<!DOCTYPE svg PUBLIC "-//W3C//DTD SVG 1.1//EN" "http://www.w3.org/Graphics/SVG/1.1/DTD/svg11.dtd">
<svg version="1.1" id="Warstwa_1" xmlns="http://www.w3.org/2000/svg" xmlns:xlink="http://www.w3.org/1999/xlink" x="0px" y="0px"
	 width="200px" height="200px" viewBox="0 0 200 200" enable-background="new 0 0 200 200" xml:space="preserve">
<g>
	<path fill="#FFFFFF" d="M109.748,31.022H87.835c-2.063,0-3.735-1.672-3.735-3.735V13.735c0-2.063,1.672-3.735,3.735-3.735h21.913
		c2.062,0,3.734,1.672,3.734,3.735v13.552C113.482,29.351,111.811,31.022,109.748,31.022z M91.571,23.553h14.443v-6.082H91.571
		V23.553z"/>
	<path fill="#FFFFFF" d="M119.973,190H77.61c-7.132,0-12.935-5.801-12.935-12.934v-73.055c0-0.511,0.13-12.37,11.115-19.812
		c1.22-1.664,5.819-8.539,5.819-17.567l3-38.147l7.447,0.59l-2.988,37.852c0.012,12.844-7.502,22.047-7.822,22.433
		c-0.246,0.295-0.534,0.549-0.857,0.756c-8.148,5.232-8.244,13.812-8.244,13.896v73.053c0,3.013,2.452,5.463,5.464,5.463h42.362
		c3.014,0,5.465-2.45,5.465-5.463v-9.686h7.471v9.686C132.907,184.199,127.104,190,119.973,190z"/>
	<path fill="#FFFFFF" d="M129.171,118.677c-2.063,0-3.735-1.673-3.735-3.735v-10.928c-0.004-0.33-0.213-8.741-8.244-13.896
		c-0.322-0.207-0.611-0.461-0.856-0.756c-0.319-0.386-7.833-9.589-7.833-22.727l-2.977-37.558c-0.162-2.057,1.373-3.854,3.43-4.018
		c2.02-0.19,3.855,1.371,4.018,3.428l2.987,37.853c0.011,9.367,4.592,16.192,5.824,17.856c10.993,7.441,11.123,19.307,11.123,19.817
		v10.93C132.907,117.004,131.234,118.677,129.171,118.677z"/>
	<path fill="#FFFFFF" d="M83.049,101.848c-0.821,0-1.628-0.386-2.139-1.105c-0.831-1.176-0.553-2.804,0.62-3.639
		c0.421-0.304,9.412-6.986,9.169-21.461c-0.023-1.444,1.126-2.635,2.571-2.658c1.398,0.07,2.633,1.124,2.659,2.571
		c0.292,17.369-10.897,25.476-11.374,25.814C84.097,101.691,83.57,101.848,83.049,101.848z"/>
	<path fill="#FFFFFF" d="M129.389,170.372c-0.029,0-0.273-0.003-0.304-0.003H68.409c-1.65,0-2.988-1.336-2.988-2.988v-60.38
		c0-1.651,1.338-2.987,2.988-2.987h60.761c0.006,0,0.014,0,0.02,0c1.576,0,12.775-0.267,14.205-8.295
		c0.271-1.523,1.67-2.608,3.205-2.451c1.541,0.138,2.726,1.428,2.726,2.977v60.381c0,0.175-0.017,0.351-0.048,0.524
		C147.54,166.908,137.477,170.372,129.389,170.372z M71.397,164.393l57.992,0.004c1.27,0,12.344-0.23,13.959-8.055v-50.326
		c-4,2.83-9.306,3.978-13.961,3.978c-0.027,0-0.271-0.003-0.3-0.003h-57.69V164.393z"/>
	<path fill="#FFFFFF" d="M80.595,161.633c-1.444,0-2.615-1.171-2.615-2.615v-23.151c0-1.445,1.17-2.615,2.615-2.615
		c1.445,0,2.615,1.17,2.615,2.615v23.151C83.21,160.462,82.04,161.633,80.595,161.633z"/>
	<path fill="#FFFFFF" d="M80.595,124.014c-1.444,0-2.615-1.17-2.615-2.613v-6.459c0-1.443,1.17-2.614,2.615-2.614
		c1.445,0,2.615,1.171,2.615,2.614v6.459C83.21,122.844,82.04,124.014,80.595,124.014z"/>
</g>
</svg>
