<?xml version="1.0" encoding="utf-8"?>
<!-- Generator: Adobe Illustrator 16.0.4, SVG Export Plug-In . SVG Version: 6.00 Build 0)  -->
<!DOCTYPE svg PUBLIC "-//W3C//DTD SVG 1.1//EN" "http://www.w3.org/Graphics/SVG/1.1/DTD/svg11.dtd">
<svg version="1.1" id="Warstwa_1" xmlns="http://www.w3.org/2000/svg" xmlns:xlink="http://www.w3.org/1999/xlink" x="0px" y="0px"
	 width="200px" height="200px" viewBox="0 0 200 200" enable-background="new 0 0 200 200" xml:space="preserve">
<g>
	<path fill="#FFFFFF" d="M117.326,89.298c-0.029,0-0.059-0.001-0.089-0.002l-60.265-2.582c-1.126-0.048-2-1.001-1.951-2.126
		c0.048-1.126,1.011-1.982,2.127-1.951l50.861,2.179L83.858,72.553c-0.842-0.428-1.28-1.376-1.062-2.295
		c0.221-0.917,1.041-1.565,1.985-1.565h34.379l-9.074-6.698c-0.636-0.471-0.944-1.266-0.79-2.041
		c0.155-0.774,0.744-1.392,1.512-1.582l7.035-1.742l-12.299-9.079c-0.906-0.67-1.099-1.946-0.43-2.854
		c0.669-0.906,1.945-1.1,2.854-0.431l15.791,11.659c0.636,0.47,0.944,1.265,0.79,2.04c-0.156,0.775-0.743,1.392-1.512,1.582
		l-7.035,1.742l10.569,7.803c0.709,0.523,1.002,1.442,0.726,2.279c-0.274,0.837-1.057,1.402-1.938,1.402H93.307l24.942,12.665
		c0.856,0.435,1.293,1.407,1.05,2.336C119.062,88.675,118.25,89.298,117.326,89.298z"/>
	<path fill="#FFFFFF" d="M84.604,146.152c-0.868,0-1.74-0.221-2.529-0.672l-68.5-39.146c-1.423-0.812-2.369-2.26-2.542-3.891
		s0.449-3.244,1.671-4.338L98.494,21.3c1.636-1.463,4.027-1.717,5.933-0.628l68.499,39.145c1.424,0.812,2.369,2.26,2.543,3.891
		c0.172,1.63-0.45,3.244-1.671,4.338l-85.79,76.808C87.05,145.71,85.832,146.152,84.604,146.152z M24.779,100.987l59.164,33.811
		l77.778-69.635l-59.163-33.809L24.779,100.987z"/>
	<path fill="#FFFFFF" d="M98.104,180c-0.868,0-1.741-0.221-2.53-0.672l-68.499-39.146c-2.446-1.397-3.296-4.513-1.897-6.959
		c1.396-2.446,4.512-3.296,6.959-1.897l65.306,37.32l77.779-69.635l-8.155-4.66c-2.445-1.398-3.296-4.514-1.897-6.96
		c1.396-2.446,4.512-3.296,6.959-1.897l14.298,8.171c1.423,0.812,2.369,2.26,2.542,3.891c0.173,1.63-0.449,3.244-1.671,4.338
		L101.507,178.7C100.548,179.558,99.33,180,98.104,180z"/>
</g>
</svg>
