<?xml version="1.0" encoding="utf-8"?>
<!-- Generator: Adobe Illustrator 16.0.4, SVG Export Plug-In . SVG Version: 6.00 Build 0)  -->
<!DOCTYPE svg PUBLIC "-//W3C//DTD SVG 1.1//EN" "http://www.w3.org/Graphics/SVG/1.1/DTD/svg11.dtd">
<svg version="1.1" id="Warstwa_1" xmlns="http://www.w3.org/2000/svg" xmlns:xlink="http://www.w3.org/1999/xlink" x="0px" y="0px"
	 width="200px" height="200px" viewBox="0 0 200 200" enable-background="new 0 0 200 200" xml:space="preserve">
<g>
	<path fill="#FFFFFF" d="M168.447,180H77.469c-2.824,0-5.114-2.29-5.114-5.114V46.229c0-2.824,2.29-5.114,5.114-5.114h90.979
		c2.825,0,5.114,2.29,5.114,5.114v128.657C173.562,177.71,171.271,180,168.447,180z M82.583,169.771h80.75V51.343h-80.75V169.771z"
		/>
	<path fill="#FFFFFF" d="M155.271,65.224h-37.332c-1.131,0-2.047-0.916-2.047-2.046c0-1.129,0.916-2.045,2.047-2.045h37.332
		c1.131,0,2.047,0.916,2.047,2.045C157.318,64.308,156.402,65.224,155.271,65.224z"/>
	<path fill="#FFFFFF" d="M155.271,81.078h-37.332c-1.131,0-2.047-0.916-2.047-2.045c0-1.13,0.916-2.046,2.047-2.046h37.332
		c1.131,0,2.047,0.916,2.047,2.046C157.318,80.162,156.402,81.078,155.271,81.078z"/>
	<path fill="#FFFFFF" d="M155.271,97.443h-65.7c-1.13,0-2.046-0.916-2.046-2.045c0-1.13,0.916-2.046,2.046-2.046h65.7
		c1.131,0,2.047,0.916,2.047,2.046C157.318,96.527,156.402,97.443,155.271,97.443z"/>
	<path fill="#FFFFFF" d="M58.104,158.885H31.552c-2.825,0-5.114-2.289-5.114-5.113V25.114c0-2.824,2.289-5.114,5.114-5.114h90.979
		c2.824,0,5.113,2.29,5.113,5.114c0,2.824-2.289,5.114-5.113,5.114H36.666v118.429h21.438c2.824,0,5.114,2.29,5.114,5.114
		S60.929,158.885,58.104,158.885z"/>
	<g>
		<path fill="#FFFFFF" d="M45.784,63.646V40.57c0-0.449,0.202-0.805,0.604-1.065c0.401-0.26,0.875-0.39,1.42-0.39h6.853
			c4.757,0,7.136,2.083,7.136,6.248c0,2.888-1.007,4.77-3.019,5.645c1.207,0.474,2.117,1.142,2.735,2.006
			c0.615,0.864,0.923,2.125,0.923,3.78v0.746c0,2.627-0.64,4.539-1.918,5.733c-1.278,1.195-3.007,1.793-5.185,1.793h-7.525
			c-0.591,0-1.076-0.142-1.456-0.426C45.975,64.356,45.784,64.025,45.784,63.646z M50.363,49.197h3.978
			c0.923,0,1.626-0.271,2.111-0.816c0.485-0.544,0.729-1.29,0.729-2.236c0-0.923-0.256-1.651-0.766-2.184
			c-0.508-0.532-1.213-0.798-2.111-0.798h-3.941V49.197z M50.363,61.019h4.014c2.295,0,3.441-1.29,3.441-3.87v-0.568
			c0-1.326-0.289-2.284-0.869-2.876c-0.579-0.591-1.438-0.887-2.572-0.887h-4.014V61.019z"/>
	</g>
	<g>
		<path fill="#FFFFFF" d="M89.344,83.985c0-0.05,0.024-0.177,0.07-0.379l6.86-22.329c0.142-0.448,0.491-0.794,1.047-1.04
			c0.556-0.246,1.188-0.368,1.899-0.368c0.709,0,1.348,0.136,1.917,0.408s0.922,0.657,1.065,1.154l6.851,22.331
			c0.049,0.189,0.071,0.308,0.071,0.354c0,0.521-0.319,0.971-0.958,1.35c-0.641,0.378-1.291,0.568-1.952,0.568
			c-0.877,0-1.396-0.307-1.562-0.923l-1.352-4.722h-7.604l-1.323,4.724c-0.188,0.614-0.772,0.92-1.76,0.92
			c-0.772,0-1.512-0.196-2.215-0.588C89.696,85.054,89.344,84.567,89.344,83.985z M96.712,76.768h6.14l-3.088-10.899L96.712,76.768z
			"/>
	</g>
	<path fill="#FFFFFF" d="M62.195,76.328H43.654c-1.129,0-2.045-0.916-2.045-2.045c0-1.13,0.916-2.046,2.045-2.046h18.541
		c1.13,0,2.046,0.916,2.046,2.046C64.241,75.412,63.325,76.328,62.195,76.328z"/>
</g>
</svg>
