<?xml version="1.0" encoding="utf-8"?>
<!-- Generator: Adobe Illustrator 16.0.4, SVG Export Plug-In . SVG Version: 6.00 Build 0)  -->
<!DOCTYPE svg PUBLIC "-//W3C//DTD SVG 1.1//EN" "http://www.w3.org/Graphics/SVG/1.1/DTD/svg11.dtd">
<svg version="1.1" id="Warstwa_1" xmlns="http://www.w3.org/2000/svg" xmlns:xlink="http://www.w3.org/1999/xlink" x="0px" y="0px"
	 width="200px" height="200px" viewBox="0 0 200 200" enable-background="new 0 0 200 200" xml:space="preserve">
<g>
	<path fill="#FFFFFF" d="M91.186,196c-0.885,0-1.774-0.226-2.579-0.686l-69.835-39.909c-1.451-0.829-2.415-2.305-2.591-3.968
		c-0.176-1.661,0.458-3.307,1.703-4.422l31.277-28.001c2.139-1.915,5.428-1.734,7.343,0.406c1.916,2.14,1.734,5.428-0.406,7.343
		l-25.903,23.19l60.317,34.47l79.296-70.993l-39.001-22.287c-2.494-1.426-3.36-4.602-1.935-7.095s4.603-3.359,7.096-1.936
		l45.263,25.866c1.451,0.829,2.415,2.305,2.591,3.968c0.176,1.661-0.458,3.307-1.703,4.422l-87.463,78.306
		C93.678,195.549,92.437,196,91.186,196z"/>
	<path fill="#FFFFFF" d="M91.186,129.613c-0.885,0-1.774-0.226-2.579-0.686L18.771,89.019c-1.451-0.829-2.415-2.305-2.591-3.968
		c-0.176-1.661,0.458-3.307,1.703-4.422l87.463-78.303c1.668-1.494,4.105-1.752,6.049-0.641l69.835,39.908
		c1.451,0.829,2.415,2.305,2.591,3.968c0.176,1.661-0.458,3.307-1.703,4.422l-87.463,78.306
		C93.678,129.162,92.437,129.613,91.186,129.613z M30.194,83.567l60.317,34.47l79.295-70.993L109.49,12.576L30.194,83.567z"/>
	<path fill="#FFFFFF" d="M124.679,56.922c-0.524,0-1.057-0.133-1.545-0.412L94.655,40.234c-1.497-0.854-2.016-2.76-1.161-4.257
		c0.855-1.496,2.761-2.016,4.257-1.16l28.479,16.274c1.497,0.855,2.017,2.761,1.161,4.257
		C126.815,56.356,125.762,56.922,124.679,56.922z"/>
	<path fill="#FFFFFF" d="M136.309,45.293c-0.525,0-1.057-0.133-1.545-0.412l-28.479-16.274c-1.497-0.855-2.016-2.761-1.161-4.257
		c0.855-1.495,2.76-2.019,4.257-1.161l28.479,16.274c1.497,0.855,2.016,2.761,1.161,4.257
		C138.445,44.728,137.392,45.293,136.309,45.293z"/>
	<g>
		<path fill="#FFFFFF" d="M21.352,105.285c-1.723,0-3.12-1.396-3.12-3.12v-2.601c0-1.724,1.397-3.12,3.12-3.12s3.12,1.396,3.12,3.12
			v2.601C24.472,103.889,23.075,105.285,21.352,105.285z"/>
		<path fill="#FFFFFF" d="M21.352,123.509c-1.723,0-3.12-1.396-3.12-3.12v-5.36c0-1.724,1.397-3.12,3.12-3.12s3.12,1.396,3.12,3.12
			v5.36C24.472,122.112,23.075,123.509,21.352,123.509z"/>
		<path fill="#FFFFFF" d="M21.352,138.974c-1.723,0-3.12-1.396-3.12-3.12v-2.6c0-1.724,1.397-3.121,3.12-3.121
			s3.12,1.397,3.12,3.121v2.6C24.472,137.577,23.075,138.974,21.352,138.974z"/>
	</g>
	<g>
		<path fill="#FFFFFF" d="M90.917,143.654c-1.723,0-3.12-1.396-3.12-3.12v-2.601c0-1.724,1.397-3.12,3.12-3.12s3.12,1.396,3.12,3.12
			v2.601C94.037,142.258,92.64,143.654,90.917,143.654z"/>
		<path fill="#FFFFFF" d="M90.917,161.878c-1.723,0-3.12-1.396-3.12-3.12v-5.359c0-1.724,1.397-3.121,3.12-3.121
			s3.12,1.397,3.12,3.121v5.359C94.037,160.481,92.64,161.878,90.917,161.878z"/>
		<path fill="#FFFFFF" d="M90.917,177.344c-1.723,0-3.12-1.396-3.12-3.12v-2.601c0-1.724,1.397-3.12,3.12-3.12s3.12,1.396,3.12,3.12
			v2.601C94.037,175.947,92.64,177.344,90.917,177.344z"/>
	</g>
	<g>
		<path fill="#FFFFFF" d="M178.649,66.915c-1.723,0-3.12-1.396-3.12-3.12v-2.6c0-1.724,1.397-3.12,3.12-3.12s3.12,1.396,3.12,3.12
			v2.6C181.77,65.519,180.373,66.915,178.649,66.915z"/>
		<path fill="#FFFFFF" d="M178.649,85.14c-1.723,0-3.12-1.396-3.12-3.12v-5.36c0-1.724,1.397-3.12,3.12-3.12s3.12,1.396,3.12,3.12
			v5.36C181.77,83.743,180.373,85.14,178.649,85.14z"/>
		<path fill="#FFFFFF" d="M178.649,100.604c-1.723,0-3.12-1.396-3.12-3.12v-2.601c0-1.724,1.397-3.12,3.12-3.12
			s3.12,1.396,3.12,3.12v2.601C181.77,99.208,180.373,100.604,178.649,100.604z"/>
	</g>
</g>
</svg>
