<?xml version="1.0" encoding="utf-8"?>
<!-- Generator: Adobe Illustrator 16.0.4, SVG Export Plug-In . SVG Version: 6.00 Build 0)  -->
<!DOCTYPE svg PUBLIC "-//W3C//DTD SVG 1.1//EN" "http://www.w3.org/Graphics/SVG/1.1/DTD/svg11.dtd">
<svg version="1.1" id="Icon" xmlns="http://www.w3.org/2000/svg" xmlns:xlink="http://www.w3.org/1999/xlink" x="0px" y="0px"
	 width="200px" height="200px" viewBox="0 0 200 200" enable-background="new 0 0 200 200" xml:space="preserve">
<g>
	<path fill="#FFFFFF" d="M176.211,161.056H23.792c-2.244,0-4.064-1.818-4.064-4.064v-96.75c0-2.245,1.82-4.064,4.064-4.064h12.213
		c2.243,0,4.062,1.819,4.062,4.064c0,2.245-1.819,4.064-4.062,4.064h-8.147v88.62h144.29V64.307h-8.143
		c-2.246,0-4.064-1.819-4.064-4.064s1.818-4.064,4.064-4.064h12.205c2.242,0,4.064,1.819,4.064,4.064v96.75
		C180.273,159.237,178.453,161.056,176.211,161.056z"/>
	<g>
		<path fill="#FFFFFF" d="M100,143.482c-1.87,0-3.387-1.517-3.387-3.388V52.04c0-1.871,1.517-3.387,3.387-3.387
			c1.871,0,3.386,1.516,3.386,3.387v88.056C103.387,141.966,101.871,143.482,100,143.482z"/>
		<path fill="#FFFFFF" d="M38.711,143.482c-0.597,0-1.192-0.158-1.726-0.472c-1.028-0.612-1.661-1.718-1.661-2.916V52.04
			c0-1.236,0.674-2.375,1.759-2.968c1.704-0.935,42.064-22.671,65.313,0.574c1.324,1.322,1.324,3.466,0,4.79
			c-1.322,1.324-3.466,1.324-4.789,0c-17.232-17.228-47.872-4.023-55.507-0.316v80.564c11.814-5.276,41.593-15.687,60.295,3.017
			c1.324,1.322,1.324,3.465,0,4.79c-1.322,1.322-3.466,1.322-4.789,0c-19.689-19.688-56.891,0.372-57.266,0.575
			C39.833,143.342,39.272,143.482,38.711,143.482z"/>
		<path fill="#FFFFFF" d="M100.003,143.482c-0.867,0-1.732-0.331-2.395-0.992c-1.323-1.323-1.323-3.468,0-4.791
			c18.704-18.705,48.483-8.289,60.299-3.019V54.123c-7.648-3.7-38.311-16.886-55.512,0.312c-1.322,1.324-3.466,1.324-4.789,0
			c-1.323-1.322-1.323-3.466,0-4.79c23.246-23.249,63.607-1.511,65.314-0.574c1.08,0.593,1.758,1.734,1.758,2.968v88.056
			c0,1.194-0.631,2.303-1.66,2.912c-1.031,0.611-2.303,0.629-3.352,0.058c-0.373-0.205-37.617-20.224-57.268-0.575
			C101.736,143.151,100.871,143.482,100.003,143.482z"/>
		<path fill="#FFFFFF" d="M161.291,145.23H38.711c-1.87,0-3.387-1.517-3.387-3.387c0-1.872,1.517-3.388,3.387-3.388h122.582
			c1.871,0,3.387,1.516,3.387,3.388C164.68,143.714,163.162,145.23,161.291,145.23z"/>
	</g>
</g>
</svg>
