<?xml version="1.0" encoding="utf-8"?>
<!-- Generator: Adobe Illustrator 16.0.4, SVG Export Plug-In . SVG Version: 6.00 Build 0)  -->
<!DOCTYPE svg PUBLIC "-//W3C//DTD SVG 1.1//EN" "http://www.w3.org/Graphics/SVG/1.1/DTD/svg11.dtd">
<svg version="1.1" id="Warstwa_1" xmlns="http://www.w3.org/2000/svg" xmlns:xlink="http://www.w3.org/1999/xlink" x="0px" y="0px"
	 width="200px" height="200px" viewBox="0 0 200 200" enable-background="new 0 0 200 200" xml:space="preserve">
<g>
	<path fill="#FFFFFF" d="M172.414,157.195H97.399c-2.558,0-4.632-2.073-4.632-4.631V32.133c0-2.558,2.074-4.632,4.632-4.632h75.015
		c2.559,0,4.632,2.074,4.632,4.632v120.432C177.046,155.122,174.973,157.195,172.414,157.195z M102.031,147.932h65.751V36.765
		h-65.751V147.932z"/>
	<path fill="#FFFFFF" d="M27.587,172.5c-1.046,0-2.073-0.354-2.904-1.023c-1.093-0.879-1.729-2.207-1.729-3.608V47.438
		c0-2.176,1.515-4.059,3.64-4.525l69.812-15.304c1.37-0.302,2.803,0.035,3.896,0.916c1.093,0.879,1.729,2.207,1.729,3.609v120.431
		c0,2.177-1.516,4.06-3.64,4.524l-69.812,15.306C28.25,172.465,27.917,172.5,27.587,172.5z M32.219,51.164v110.945l60.547-13.272
		V37.891L32.219,51.164z"/>
	<path fill="#FFFFFF" d="M159.454,67.326h-9.745c-1.535,0-2.779-1.244-2.779-2.779c0-1.535,1.244-2.779,2.779-2.779h9.745
		c1.534,0,2.778,1.245,2.778,2.779C162.232,66.082,160.988,67.326,159.454,67.326z"/>
	<path fill="#FFFFFF" d="M138.921,67.326h-26.25c-1.534,0-2.778-1.244-2.778-2.779c0-1.535,1.244-2.779,2.778-2.779h26.25
		c1.536,0,2.779,1.245,2.779,2.779C141.7,66.082,140.457,67.326,138.921,67.326z"/>
	<path fill="#FFFFFF" d="M159.454,80.759H129.04c-1.535,0-2.779-1.245-2.779-2.779s1.244-2.779,2.779-2.779h30.414
		c1.534,0,2.778,1.245,2.778,2.779S160.988,80.759,159.454,80.759z"/>
	<path fill="#FFFFFF" d="M118.52,80.759h-5.849c-1.535,0-2.778-1.245-2.778-2.779s1.244-2.779,2.778-2.779h5.849
		c1.535,0,2.779,1.245,2.779,2.779S120.055,80.759,118.52,80.759z"/>
	<path fill="#FFFFFF" d="M142.318,93.822h-29.647c-1.535,0-2.778-1.245-2.778-2.779c0-1.535,1.244-2.779,2.778-2.779h29.647
		c1.535,0,2.779,1.244,2.779,2.779S143.854,93.822,142.318,93.822z"/>
	<path fill="#FFFFFF" d="M159.454,93.822h-5.851c-1.535,0-2.778-1.245-2.778-2.779c0-1.535,1.243-2.779,2.778-2.779h5.851
		c1.534,0,2.778,1.244,2.778,2.779S160.988,93.822,159.454,93.822z"/>
	<path fill="#FFFFFF" d="M57.539,112.443c-1.278,0-2.428-0.887-2.712-2.188c-0.328-1.5,0.622-2.98,2.122-3.309l27.325-5.975
		c1.5-0.328,2.981,0.623,3.309,2.123s-0.622,2.98-2.122,3.309l-27.325,5.974C57.935,112.422,57.735,112.443,57.539,112.443z"/>
	<path fill="#FFFFFF" d="M40.224,116.229c-1.278,0-2.428-0.887-2.712-2.186c-0.328-1.5,0.622-2.98,2.121-3.309l6.963-1.522
		c1.503-0.327,2.981,0.623,3.309,2.121c0.328,1.5-0.622,2.981-2.122,3.31l-6.963,1.521C40.62,116.208,40.42,116.229,40.224,116.229z
		"/>
	<path fill="#FFFFFF" d="M79.208,96.675c-1.278,0-2.428-0.887-2.712-2.187c-0.328-1.5,0.622-2.981,2.122-3.309l5.655-1.236
		c1.5-0.329,2.981,0.622,3.309,2.122s-0.622,2.981-2.122,3.309l-5.655,1.236C79.605,96.654,79.405,96.675,79.208,96.675z"/>
	<path fill="#FFFFFF" d="M40.224,105.199c-1.278,0-2.428-0.887-2.712-2.188c-0.328-1.5,0.622-2.979,2.122-3.309l27.05-5.915
		c1.499-0.327,2.981,0.622,3.309,2.122c0.328,1.499-0.622,2.98-2.122,3.309l-27.05,5.915
		C40.62,105.178,40.42,105.199,40.224,105.199z"/>
	<path fill="#FFFFFF" d="M40.224,127.736c-1.278,0-2.428-0.885-2.712-2.186c-0.328-1.5,0.622-2.98,2.122-3.309l44.64-9.76
		c1.5-0.328,2.981,0.623,3.309,2.121c0.328,1.5-0.622,2.98-2.122,3.31l-44.64,9.76C40.62,127.717,40.42,127.736,40.224,127.736z"/>
	<path fill="#FFFFFF" d="M159.454,52.503h-46.783c-1.535,0-2.778-1.245-2.778-2.779c0-1.535,1.244-2.779,2.778-2.779h46.783
		c1.534,0,2.778,1.244,2.778,2.779C162.232,51.258,160.988,52.503,159.454,52.503z"/>
	<path fill="#FFFFFF" d="M42.379,87.244c-1.535,0-2.779-1.244-2.779-2.779V59.76c0-1.3,0.901-2.426,2.169-2.711l24.706-5.559
		c0.823-0.187,1.687,0.013,2.346,0.541c0.66,0.527,1.043,1.326,1.043,2.17v12.663c0,1.535-1.245,2.779-2.779,2.779
		c-1.535,0-2.779-1.245-2.779-2.779v-9.188l-19.147,4.308v22.482C45.159,86,43.915,87.244,42.379,87.244z"/>
</g>
</svg>
