<?xml version="1.0" encoding="utf-8"?>
<!-- Generator: Adobe Illustrator 16.0.4, SVG Export Plug-In . SVG Version: 6.00 Build 0)  -->
<!DOCTYPE svg PUBLIC "-//W3C//DTD SVG 1.1//EN" "http://www.w3.org/Graphics/SVG/1.1/DTD/svg11.dtd">
<svg version="1.1" id="Icon" xmlns="http://www.w3.org/2000/svg" xmlns:xlink="http://www.w3.org/1999/xlink" x="0px" y="0px"
	 width="200px" height="200px" viewBox="0 0 200 200" enable-background="new 0 0 200 200" xml:space="preserve">
<g>
	<path fill="#FFFFFF" d="M146.175,70.31h-92.35c-5.17,0-9.363,4.193-9.363,9.365v85.961c0,5.171,4.193,9.364,9.363,9.364h92.35
		c5.171,0,9.363-4.193,9.363-9.364V79.675C155.538,74.503,151.346,70.31,146.175,70.31z M53.825,159.583h43.261v6.053H53.825
		V159.583z M103.33,165.636v-6.053h25.722c1.724,0,3.122-1.399,3.122-3.123s-1.398-3.121-3.122-3.121H103.33v-50.354
		c0-1.724-1.398-3.122-3.122-3.122c-1.726,0-3.122,1.398-3.122,3.122v50.354H53.825V79.675h43.261v10.506
		c0,1.724,1.396,3.122,3.122,3.122c1.724,0,3.122-1.398,3.122-3.122V79.675h42.845v73.664h-3.952c-1.727,0-3.123,1.397-3.123,3.121
		s1.396,3.123,3.123,3.123h3.952v6.053H103.33z"/>
	<path fill="#FFFFFF" d="M66.229,53.796c5.91,4.973,28.686,9.317,33.19,10.139c0.188,0.032,0.373,0.051,0.561,0.051
		c0.009-0.002,0.023-0.002,0.03,0c0.034,0,0.068-0.01,0.103-0.012c0.032,0.002,0.064,0.012,0.096,0.012
		c0.185,0,0.373-0.019,0.559-0.051c4.504-0.821,27.28-5.166,33.191-10.139c3.333-2.805,5.376-6.738,5.75-11.083
		c0.375-4.342-0.961-8.569-3.768-11.899C132.833,27.116,128.283,25,123.449,25c-3.829,0-7.555,1.356-10.492,3.827
		c-4.202,3.535-9.551,15.514-12.863,23.691c-3.314-8.178-8.663-20.156-12.868-23.694C84.292,26.356,80.565,25,76.736,25
		c-4.834,0-9.386,2.116-12.492,5.812c-2.804,3.332-4.145,7.56-3.77,11.901C60.85,47.058,62.894,50.991,66.229,53.796z
		 M116.977,33.606c1.811-1.525,4.11-2.363,6.473-2.363c2.984,0,5.795,1.308,7.716,3.59c1.729,2.055,2.558,4.666,2.326,7.344
		c-0.231,2.681-1.493,5.111-3.55,6.844c-2.987,2.512-15.146,5.67-24.797,7.691C108.792,47.552,113.986,36.116,116.977,33.606z
		 M69.021,34.83c1.918-2.279,4.729-3.587,7.715-3.587c2.362,0,4.66,0.838,6.473,2.36c2.987,2.515,8.185,13.948,11.833,23.108
		c-9.65-2.02-21.806-5.178-24.797-7.691c-2.058-1.732-3.318-4.163-3.55-6.844C66.462,39.499,67.291,36.888,69.021,34.83z"/>
</g>
</svg>
