<?xml version="1.0" encoding="utf-8"?>
<!-- Generator: Adobe Illustrator 16.0.4, SVG Export Plug-In . SVG Version: 6.00 Build 0)  -->
<!DOCTYPE svg PUBLIC "-//W3C//DTD SVG 1.1//EN" "http://www.w3.org/Graphics/SVG/1.1/DTD/svg11.dtd">
<svg version="1.1" id="Icon" xmlns="http://www.w3.org/2000/svg" xmlns:xlink="http://www.w3.org/1999/xlink" x="0px" y="0px"
	 width="200px" height="200px" viewBox="0 0 200 200" enable-background="new 0 0 200 200" xml:space="preserve">
<g>
	<path fill="#FFFFFF" d="M154.594,16.751H92.63c-2.759,0-5.406,1.095-7.357,3.049L38.046,67.026C36.095,68.978,35,71.624,35,74.384
		v98.462c0,5.746,4.659,10.403,10.406,10.403h109.188c5.747,0,10.406-4.657,10.406-10.403V27.157
		C165,21.411,160.341,16.751,154.594,16.751z M86.314,33.471v34.256H52.06L86.314,33.471z M154.594,172.846H45.406V74.665h44.378
		c1.916,0,3.466-1.552,3.466-3.467V27.157h61.344V172.846z"/>
	<path fill="#FFFFFF" d="M61.168,93.118c-1.916,0-3.471,1.549-3.471,3.465s1.555,3.471,3.471,3.471h74.999
		c1.916,0,3.468-1.555,3.468-3.471s-1.552-3.465-3.468-3.465H61.168z"/>
	<path fill="#FFFFFF" d="M61.168,118.584h37.498c1.916,0,3.468-1.555,3.468-3.47c0-1.916-1.552-3.47-3.468-3.47H61.168
		c-1.916,0-3.471,1.554-3.471,3.47C57.697,117.029,59.252,118.584,61.168,118.584z"/>
	<path fill="#FFFFFF" d="M117.07,111.646c-1.916,0-3.469,1.553-3.469,3.469c0,1.914,1.553,3.47,3.469,3.47h20.431
		c1.913,0,3.466-1.556,3.466-3.47c0-1.916-1.553-3.469-3.466-3.469H117.07z"/>
	<path fill="#FFFFFF" d="M61.168,137.111h74.999c1.916,0,3.468-1.553,3.468-3.467c0-1.916-1.552-3.469-3.468-3.469H61.168
		c-1.916,0-3.471,1.553-3.471,3.469C57.697,135.559,59.252,137.111,61.168,137.111z"/>
	<path fill="#FFFFFF" d="M137.501,148.708h-37.498c-1.916,0-3.471,1.552-3.471,3.467c0,1.916,1.555,3.47,3.471,3.47h37.498
		c1.913,0,3.466-1.554,3.466-3.47C140.967,150.26,139.414,148.708,137.501,148.708z"/>
	<path fill="#FFFFFF" d="M81.594,148.708H61.168c-1.916,0-3.471,1.552-3.471,3.467c0,1.916,1.555,3.47,3.471,3.47h20.426
		c1.916,0,3.471-1.554,3.471-3.47C85.064,150.26,83.51,148.708,81.594,148.708z"/>
</g>
</svg>
