<?xml version="1.0" encoding="utf-8"?>
<!-- Generator: Adobe Illustrator 16.0.4, SVG Export Plug-In . SVG Version: 6.00 Build 0)  -->
<!DOCTYPE svg PUBLIC "-//W3C//DTD SVG 1.1//EN" "http://www.w3.org/Graphics/SVG/1.1/DTD/svg11.dtd">
<svg version="1.1" id="Icon" xmlns="http://www.w3.org/2000/svg" xmlns:xlink="http://www.w3.org/1999/xlink" x="0px" y="0px"
	 width="200px" height="200px" viewBox="0 0 200 200" enable-background="new 0 0 200 200" xml:space="preserve">
<path fill="#FFFFFF" d="M162.369,153.26l-5.717-31.041c-0.287-1.56-1.039-2.994-2.16-4.113L76.177,39.79
	c-1.467-1.469-3.458-2.291-5.531-2.291c-2.075,0-4.065,0.822-5.532,2.291L39.79,65.116c-3.054,3.054-3.054,8.005,0,11.062
	l78.317,78.311c1.119,1.123,2.554,1.875,4.111,2.162l31.04,5.719c0.474,0.088,0.946,0.132,1.419,0.132
	c2.057,0,4.053-0.812,5.53-2.291C162.029,158.389,162.837,155.792,162.369,153.26z M127.654,149.7l22.047-22.046l1.688,9.164
	l-14.565,14.567L127.654,149.7z M45.322,70.646l5.71-5.711l55.366,55.37c0.511,0.51,1.176,0.766,1.844,0.766
	s1.335-0.256,1.845-0.766c1.019-1.02,1.019-2.669,0-3.688L54.719,61.248l6.098-6.097l11.49,11.49
	c0.509,0.512,1.177,0.766,1.845,0.766c0.666,0,1.333-0.254,1.842-0.766c1.019-1.019,1.019-2.668,0-3.685l-11.49-11.494l6.142-6.142
	l77.008,77.008l-6.145,6.143L85.8,72.761c-1.019-1.019-2.67-1.019-3.688,0c-1.018,1.019-1.019,2.668,0,3.688l55.712,55.712
	l-6.098,6.096l-11.834-11.833c-1.019-1.02-2.67-1.02-3.688,0s-1.019,2.668,0,3.688l11.838,11.834l-5.711,5.707L45.322,70.646z
	 M143.048,152.534l9.487-9.486l2.145,11.632L143.048,152.534z"/>
</svg>
