<?xml version="1.0" encoding="utf-8"?>
<!-- Generator: Adobe Illustrator 16.0.4, SVG Export Plug-In . SVG Version: 6.00 Build 0)  -->
<!DOCTYPE svg PUBLIC "-//W3C//DTD SVG 1.1//EN" "http://www.w3.org/Graphics/SVG/1.1/DTD/svg11.dtd">
<svg version="1.1" id="Icon" xmlns="http://www.w3.org/2000/svg" xmlns:xlink="http://www.w3.org/1999/xlink" x="0px" y="0px"
	 width="200px" height="200px" viewBox="0 0 200 200" enable-background="new 0 0 200 200" xml:space="preserve">
<g>
	<path fill="#FFFFFF" d="M146.318,38.782h-8.34v-5.845c0-1.624-1.314-2.938-2.936-2.938c-1.622,0-2.936,1.313-2.936,2.938v5.845
		h-8.147v-5.845c0-1.624-1.313-2.938-2.935-2.938c-1.623,0-2.936,1.313-2.936,2.938v5.845h-8.146v-5.845
		c0-1.624-1.315-2.938-2.936-2.938c-1.621,0-2.935,1.313-2.935,2.938v5.845h-8.147v-5.845c0-1.624-1.314-2.938-2.935-2.938
		c-1.62,0-2.936,1.313-2.936,2.938v5.845H81.91v-5.845c0-1.624-1.313-2.938-2.935-2.938c-1.621,0-2.935,1.313-2.935,2.938v5.845
		h-8.146v-5.845c0-1.624-1.316-2.938-2.935-2.938c-1.624,0-2.935,1.313-2.935,2.938v5.845h-8.342c-4.864,0-8.808,3.943-8.808,8.806
		v113.605c0,4.865,3.943,8.807,8.808,8.807h92.636c4.863,0,8.808-3.941,8.808-8.807V47.588
		C155.125,42.726,151.182,38.782,146.318,38.782z M53.682,161.193v-92.02h63.041c1.621,0,2.936-1.314,2.936-2.935
		c0-1.622-1.314-2.936-2.936-2.936H53.682V47.588h8.342v6.066c0,1.622,1.312,2.936,2.935,2.936c1.619,0,2.935-1.314,2.935-2.936
		v-6.066h8.146v6.066c0,1.622,1.314,2.936,2.935,2.936c1.622,0,2.935-1.314,2.935-2.936v-6.066h8.146v6.066
		c0,1.622,1.316,2.936,2.936,2.936c1.621,0,2.935-1.314,2.935-2.936v-6.066h8.147v6.066c0,1.622,1.314,2.936,2.935,2.936
		s2.937-1.314,2.937-2.936v-6.066h8.146v6.066c0,1.622,1.313,2.936,2.935,2.936s2.936-1.314,2.936-2.936v-6.066h8.146v6.066
		c0,1.622,1.314,2.936,2.937,2.936c1.621,0,2.935-1.314,2.935-2.936v-6.066h8.34v15.716h-13.162c-1.618,0-2.934,1.314-2.934,2.936
		c0,1.621,1.315,2.935,2.934,2.935h13.162v92.021H53.682V161.193z"/>
	<path fill="#FFFFFF" d="M131.734,88.582H95.999c-1.622,0-2.936,1.315-2.936,2.935c0,1.624,1.314,2.935,2.936,2.935h35.735
		c1.621,0,2.935-1.312,2.935-2.935C134.669,89.897,133.355,88.582,131.734,88.582z"/>
	<path fill="#FFFFFF" d="M79.499,88.582H68.266c-1.621,0-2.935,1.315-2.935,2.935c0,1.624,1.314,2.935,2.935,2.935h11.232
		c1.622,0,2.935-1.312,2.935-2.935C82.434,89.897,81.12,88.582,79.499,88.582z"/>
	<path fill="#FFFFFF" d="M131.734,103.999H95.999c-1.622,0-2.936,1.313-2.936,2.937c0,1.621,1.314,2.935,2.936,2.935h35.735
		c1.621,0,2.935-1.313,2.935-2.935C134.669,105.312,133.355,103.999,131.734,103.999z"/>
	<path fill="#FFFFFF" d="M79.499,103.999H68.266c-1.621,0-2.935,1.313-2.935,2.937c0,1.621,1.314,2.935,2.935,2.935h11.232
		c1.622,0,2.935-1.313,2.935-2.935C82.434,105.312,81.12,103.999,79.499,103.999z"/>
	<path fill="#FFFFFF" d="M131.734,120.13H95.999c-1.622,0-2.936,1.313-2.936,2.935c0,1.623,1.314,2.936,2.936,2.936h35.735
		c1.621,0,2.935-1.312,2.935-2.936C134.669,121.443,133.355,120.13,131.734,120.13z"/>
	<path fill="#FFFFFF" d="M79.499,120.13H68.266c-1.621,0-2.935,1.313-2.935,2.935c0,1.623,1.314,2.936,2.935,2.936h11.232
		c1.622,0,2.935-1.312,2.935-2.936C82.433,121.443,81.12,120.13,79.499,120.13z"/>
	<path fill="#FFFFFF" d="M131.734,137.205H95.999c-1.622,0-2.936,1.314-2.936,2.936s1.314,2.936,2.936,2.936h35.735
		c1.621,0,2.935-1.314,2.935-2.936S133.355,137.205,131.734,137.205z"/>
	<path fill="#FFFFFF" d="M79.499,137.205H68.266c-1.621,0-2.935,1.314-2.935,2.936s1.314,2.936,2.935,2.936h11.232
		c1.622,0,2.935-1.314,2.935-2.936C82.434,138.52,81.12,137.205,79.499,137.205z"/>
</g>
</svg>
