<?xml version="1.0" encoding="utf-8"?>
<!-- Generator: Adobe Illustrator 16.0.4, SVG Export Plug-In . SVG Version: 6.00 Build 0)  -->
<!DOCTYPE svg PUBLIC "-//W3C//DTD SVG 1.1//EN" "http://www.w3.org/Graphics/SVG/1.1/DTD/svg11.dtd">
<svg version="1.1" id="Warstwa_1" xmlns="http://www.w3.org/2000/svg" xmlns:xlink="http://www.w3.org/1999/xlink" x="0px" y="0px"
	 width="200px" height="200px" viewBox="0 0 200 200" enable-background="new 0 0 200 200" xml:space="preserve">
<g>
	<path fill="#FFFFFF" d="M126.634,175c-0.317,0-0.639-0.029-0.96-0.091l-86.312-16.5c-2.756-0.527-4.562-3.188-4.036-5.944
		c0.527-2.755,3.185-4.562,5.944-4.035l86.312,16.5c2.756,0.526,4.562,3.188,4.036,5.944C131.152,173.307,129.021,175,126.634,175z"
		/>
	<path fill="#FFFFFF" d="M126.626,174.999c-0.726,0-1.456-0.155-2.142-0.474c-1.894-0.881-3.055-2.83-2.93-4.914l7.34-121.288
		L52.657,35.991L45.386,153.73c-0.173,2.802-2.593,4.924-5.384,4.759c-2.801-0.173-4.93-2.583-4.758-5.384L42.86,29.768
		c0.089-1.432,0.779-2.759,1.899-3.655c1.12-0.896,2.568-1.276,3.983-1.047l86.312,13.962c2.574,0.417,4.416,2.717,4.26,5.322
		l-6.838,112.994l16.414-15.611l-4.119-0.727c-2.765-0.486-4.608-3.122-4.121-5.885c0.486-2.764,3.121-4.609,5.885-4.121
		l14.031,2.473c1.889,0.334,3.429,1.701,3.981,3.537c0.554,1.836,0.026,3.826-1.362,5.148L130.129,173.6
		C129.163,174.518,127.902,174.999,126.626,174.999z"/>
	<path fill="#FFFFFF" d="M76.396,113.677c-0.068,0-0.138-0.002-0.207-0.007c-1.68-0.113-2.95-1.566-2.837-3.245l0.986-14.688
		l-9.891-1.601l-0.947,14.12c-0.112,1.68-1.564,2.955-3.245,2.837c-1.68-0.112-2.95-1.565-2.837-3.245l1.171-17.458
		c0.057-0.855,0.473-1.648,1.144-2.182c0.672-0.534,1.537-0.76,2.384-0.623l15.935,2.579c1.553,0.251,2.659,1.643,2.554,3.213
		l-1.171,17.457C79.326,112.443,77.986,113.677,76.396,113.677z"/>
	<path fill="#FFFFFF" d="M126.634,175c-0.317,0-0.639-0.029-0.96-0.091l-86.312-16.5c-2.756-0.527-4.562-3.188-4.036-5.944
		c0.527-2.755,3.185-4.562,5.944-4.035l86.312,16.5c2.756,0.526,4.562,3.188,4.036,5.944C131.152,173.307,129.021,175,126.634,175z"
		/>
	<path fill="#FFFFFF" d="M116.4,67.651c-0.16,0-0.324-0.013-0.49-0.04L62.495,58.97c-1.662-0.269-2.791-1.833-2.522-3.496
		c0.269-1.661,1.837-2.791,3.496-2.522l53.416,8.641c1.661,0.269,2.791,1.833,2.522,3.496
		C119.165,66.586,117.87,67.651,116.4,67.651z"/>
	<path fill="#FFFFFF" d="M115.133,85.461c-0.162,0-0.326-0.013-0.49-0.04L61.226,76.78c-1.662-0.269-2.791-1.833-2.522-3.496
		c0.269-1.663,1.834-2.796,3.496-2.522l53.416,8.64c1.661,0.269,2.791,1.833,2.522,3.496
		C117.896,84.396,116.602,85.461,115.133,85.461z"/>
	<path fill="#FFFFFF" d="M113.861,102.283c-0.161,0-0.324-0.014-0.49-0.04l-25.006-4.046c-1.662-0.269-2.791-1.834-2.522-3.496
		c0.27-1.663,1.827-2.794,3.497-2.522l25.006,4.046c1.662,0.269,2.791,1.834,2.522,3.496
		C116.625,101.218,115.331,102.283,113.861,102.283z"/>
	<path fill="#FFFFFF" d="M113.775,118.324c-0.162,0-0.325-0.014-0.49-0.04l-25.007-4.045c-1.66-0.269-2.791-1.833-2.521-3.496
		c0.269-1.662,1.827-2.792,3.496-2.522l25.007,4.045c1.66,0.27,2.791,1.834,2.521,3.496
		C116.539,117.258,115.244,118.324,113.775,118.324z"/>
</g>
</svg>
