<?xml version="1.0" encoding="utf-8"?>
<!-- Generator: Adobe Illustrator 16.0.4, SVG Export Plug-In . SVG Version: 6.00 Build 0)  -->
<!DOCTYPE svg PUBLIC "-//W3C//DTD SVG 1.1//EN" "http://www.w3.org/Graphics/SVG/1.1/DTD/svg11.dtd">
<svg version="1.1" id="Icon" xmlns="http://www.w3.org/2000/svg" xmlns:xlink="http://www.w3.org/1999/xlink" x="0px" y="0px"
	 width="70px" height="70px" viewBox="0 0 70 70" enable-background="new 0 0 70 70" xml:space="preserve">
<g>
	<path fill="#E40050" d="M53.47,23.124H16.53c-2.068,0-3.746,1.678-3.746,3.746v34.385c0,2.068,1.677,3.745,3.746,3.745H53.47
		c2.068,0,3.746-1.677,3.746-3.745V26.87C57.215,24.802,55.538,23.124,53.47,23.124z M16.53,58.833h17.304v2.422H16.53V58.833z
		 M36.332,61.255v-2.422h10.289c0.689,0,1.249-0.56,1.249-1.249s-0.56-1.249-1.249-1.249H36.332V36.194
		c0-0.689-0.56-1.249-1.249-1.249c-0.69,0-1.249,0.56-1.249,1.249v20.141H16.53V26.87h17.304v4.202c0,0.689,0.559,1.249,1.249,1.249
		c0.689,0,1.249-0.56,1.249-1.249V26.87H53.47v29.465h-1.581c-0.69,0-1.249,0.56-1.249,1.249s0.558,1.249,1.249,1.249h1.581v2.422
		H36.332z"/>
	<path fill="#E40050" d="M21.492,16.519c2.363,1.989,11.474,3.727,13.276,4.056c0.075,0.013,0.149,0.02,0.224,0.02
		c0.003,0,0.009,0,0.012,0c0.014,0,0.028-0.003,0.042-0.004c0.013,0.001,0.025,0.004,0.038,0.004c0.075,0,0.149-0.007,0.224-0.02
		c1.802-0.329,10.912-2.066,13.277-4.056c1.333-1.122,2.151-2.695,2.3-4.433c0.15-1.737-0.384-3.429-1.507-4.761
		C48.133,5.847,46.313,5,44.38,5c-1.532,0-3.022,0.543-4.197,1.531c-1.681,1.414-3.82,6.205-5.145,9.477
		c-1.326-3.271-3.465-8.062-5.147-9.478C28.717,5.543,27.226,5,25.694,5c-1.933,0-3.754,0.847-4.997,2.324
		c-1.121,1.333-1.658,3.024-1.507,4.762C19.34,13.823,20.158,15.396,21.492,16.519z M41.791,8.442
		c0.724-0.609,1.645-0.944,2.589-0.944c1.194,0,2.318,0.522,3.086,1.436c0.692,0.822,1.023,1.866,0.93,2.938
		c-0.092,1.072-0.597,2.045-1.42,2.737c-1.195,1.005-6.058,2.268-9.918,3.076C38.517,14.021,40.595,9.446,41.791,8.442z
		 M22.608,8.933c0.767-0.912,1.892-1.435,3.086-1.435c0.945,0,1.864,0.335,2.589,0.943c1.195,1.006,3.274,5.579,4.733,9.243
		c-3.86-0.808-8.722-2.071-9.919-3.076c-0.823-0.692-1.328-1.665-1.42-2.737C21.585,10.8,21.917,9.756,22.608,8.933z"/>
</g>
</svg>
