<?xml version="1.0" encoding="utf-8"?>
<!-- Generator: Adobe Illustrator 16.0.4, SVG Export Plug-In . SVG Version: 6.00 Build 0)  -->
<!DOCTYPE svg PUBLIC "-//W3C//DTD SVG 1.1//EN" "http://www.w3.org/Graphics/SVG/1.1/DTD/svg11.dtd">
<svg version="1.1" id="Tryb_izolacji" xmlns="http://www.w3.org/2000/svg" xmlns:xlink="http://www.w3.org/1999/xlink" x="0px"
	 y="0px" width="360px" height="820px" viewBox="-38.268 -268.268 360 820" enable-background="new -38.268 -268.268 360 820"
	 xml:space="preserve">
<path fill="#FF0048" d="M141.733-161.082c-22.132,0-42.682,6.58-59.92,17.86v-125.046H31.962v214.281h0.136
	c-0.022,0.9-0.136,1.792-0.136,2.71c0,60.66,49.143,109.827,109.771,109.827c60.622,0,109.767-49.167,109.767-109.827
	C251.5-111.923,202.355-161.082,141.733-161.082z M141.733,8.778c-33.153,0-60.016-26.884-60.016-60.055
	c0-33.153,26.862-60.037,60.016-60.037c33.138,0,60.008,26.884,60.008,60.037C201.741-18.108,174.871,8.778,141.733,8.778z"/>
<polygon fill="#312286" points="201.72,447.736 141.824,343.953 82.144,447.335 22.37,343.776 -38.268,343.776 21.731,447.736 
	81.726,551.732 141.736,447.736 201.73,551.732 261.739,447.736 321.732,343.776 261.726,343.776 "/>
</svg>
