<?xml version="1.0" encoding="utf-8"?>
<!-- Generator: Adobe Illustrator 16.0.4, SVG Export Plug-In . SVG Version: 6.00 Build 0)  -->
<!DOCTYPE svg PUBLIC "-//W3C//DTD SVG 1.1//EN" "http://www.w3.org/Graphics/SVG/1.1/DTD/svg11.dtd">
<svg version="1.1" id="Tryb_izolacji" xmlns="http://www.w3.org/2000/svg" xmlns:xlink="http://www.w3.org/1999/xlink" x="0px"
	 y="0px" width="360px" height="820px" viewBox="0 0 360 820" enable-background="new 0 0 360 820" xml:space="preserve">
<polygon fill="#FF0048" points="179.738,716.008 240.12,820.648 300.492,820.648 240.12,716.008 179.738,611.395 119.358,716.008 
	58.986,820.648 119.358,820.648 "/>
<path fill="#312286" d="M179.743,106.751c-61.007,0-110.452,49.465-110.452,110.496c0,61.041,49.448,110.515,110.452,110.515
	c61.005,0,110.451-49.474,110.451-110.515C290.193,156.219,240.748,106.751,179.743,106.751z M179.743,277.679
	c-33.352,0-60.384-27.053-60.384-60.432c0-33.362,27.035-60.414,60.384-60.414c33.348,0,60.407,27.052,60.407,60.414
	C240.149,250.621,213.091,277.679,179.743,277.679z"/>
</svg>
