<?xml version="1.0" encoding="utf-8"?>
<!-- Generator: Adobe Illustrator 16.0.4, SVG Export Plug-In . SVG Version: 6.00 Build 0)  -->
<!DOCTYPE svg PUBLIC "-//W3C//DTD SVG 1.1//EN" "http://www.w3.org/Graphics/SVG/1.1/DTD/svg11.dtd">
<svg version="1.1" id="Tryb_izolacji" xmlns="http://www.w3.org/2000/svg" xmlns:xlink="http://www.w3.org/1999/xlink" x="0px"
	 y="0px" width="360px" height="326.818px" viewBox="0 0 360 326.818" enable-background="new 0 0 360 326.818"
	 xml:space="preserve">
<path fill="#FF0048" d="M180,107.186c-22.132,0-42.682,6.58-59.92,17.86V0H70.229v214.281h0.136c-0.022,0.9-0.136,1.792-0.136,2.71
	c0,60.66,49.143,109.827,109.771,109.827c60.623,0,109.767-49.167,109.767-109.827C289.768,156.345,240.623,107.186,180,107.186z
	 M180,277.046c-33.153,0-60.016-26.884-60.016-60.055c0-33.153,26.862-60.037,60.016-60.037c33.138,0,60.008,26.884,60.008,60.037
	C240.009,250.16,213.139,277.046,180,277.046z"/>
</svg>
