<?xml version="1.0" encoding="utf-8"?>
<!-- Generator: Adobe Illustrator 16.0.4, SVG Export Plug-In . SVG Version: 6.00 Build 0)  -->
<!DOCTYPE svg PUBLIC "-//W3C//DTD SVG 1.1//EN" "http://www.w3.org/Graphics/SVG/1.1/DTD/svg11.dtd">
<svg version="1.1" id="Warstwa_1" xmlns="http://www.w3.org/2000/svg" xmlns:xlink="http://www.w3.org/1999/xlink" x="0px" y="0px"
	 width="333.857px" height="115.167px" viewBox="0 0 333.857 115.167" enable-background="new 0 0 333.857 115.167"
	 xml:space="preserve">
<g>
	<polygon fill="#312783" points="301.781,58.861 317.823,86.641 333.857,86.641 317.823,58.861 301.781,31.086 285.743,58.861 
		269.705,86.641 285.743,86.641 	"/>
	<polygon fill="#E50051" points="227.061,58.861 211.049,31.13 195.096,58.753 179.118,31.086 162.91,31.086 178.948,58.861 
		194.985,86.645 211.024,58.861 227.062,86.645 243.103,58.861 259.138,31.086 243.101,31.086 	"/>
	<path fill="#312783" d="M114.238,28.638c-16.206,0-29.34,13.135-29.34,29.34c0,16.207,13.134,29.341,29.34,29.341
		s29.341-13.134,29.341-29.341C143.579,41.772,130.444,28.638,114.238,28.638z M114.238,74.021c-8.86,0-16.04-7.184-16.04-16.044
		c0-8.858,7.18-16.043,16.04-16.043s16.045,7.185,16.045,16.043C130.283,66.838,123.098,74.021,114.238,74.021z"/>
	<path fill="#E50051" d="M29.343,28.638c-5.916,0-11.41,1.761-16.016,4.773V0H0v57.251h0.036C0.029,57.493,0,57.731,0,57.978
		c0,16.207,13.135,29.341,29.343,29.341c16.204,0,29.341-13.134,29.341-29.341C58.684,41.772,45.547,28.638,29.343,28.638z
		 M29.343,74.021c-8.863,0-16.043-7.184-16.043-16.044c0-8.858,7.181-16.043,16.043-16.043c8.858,0,16.041,7.185,16.041,16.043
		C45.384,66.838,38.201,74.021,29.343,74.021z"/>
	<g>
		<path fill="#E50051" d="M204.774,109.348c0,0.834-0.137,1.6-0.417,2.301c-0.279,0.695-0.668,1.297-1.172,1.799
			c-0.504,0.506-1.109,0.896-1.819,1.174c-0.706,0.279-1.491,0.418-2.354,0.418h-4.343v-11.383h4.343
			c0.862,0,1.647,0.143,2.354,0.424c0.71,0.279,1.315,0.67,1.819,1.17c0.504,0.504,0.893,1.102,1.172,1.801
			C204.638,107.747,204.774,108.514,204.774,109.348z M202.612,109.348c0-0.625-0.085-1.184-0.253-1.682
			c-0.17-0.496-0.406-0.912-0.716-1.258c-0.311-0.342-0.688-0.607-1.132-0.791c-0.441-0.184-0.942-0.275-1.499-0.275h-2.21v8.012
			h2.21c0.557,0,1.058-0.092,1.499-0.275c0.444-0.182,0.821-0.445,1.132-0.791c0.31-0.344,0.546-0.764,0.716-1.258
			C202.527,110.532,202.612,109.973,202.612,109.348z"/>
		<path fill="#E50051" d="M213.346,110.592v4.447h-2.117v-11.383h3.474c0.773,0,1.438,0.082,1.994,0.24
			c0.554,0.164,1.005,0.387,1.361,0.672c0.354,0.289,0.613,0.635,0.78,1.037c0.165,0.4,0.248,0.842,0.248,1.326
			c0,0.383-0.059,0.746-0.173,1.086c-0.11,0.342-0.271,0.65-0.486,0.93c-0.213,0.275-0.475,0.521-0.787,0.73
			c-0.312,0.209-0.667,0.381-1.065,0.504c0.268,0.154,0.496,0.371,0.692,0.654l2.849,4.203h-1.906c-0.181,0-0.336-0.037-0.466-0.113
			c-0.13-0.068-0.239-0.176-0.328-0.312l-2.391-3.646c-0.091-0.137-0.19-0.232-0.296-0.289c-0.108-0.057-0.268-0.086-0.477-0.086
			H213.346z M213.346,109.073h1.324c0.396,0,0.745-0.051,1.042-0.148c0.294-0.1,0.542-0.236,0.731-0.414
			c0.191-0.176,0.335-0.385,0.429-0.625c0.095-0.242,0.142-0.508,0.142-0.797c0-0.576-0.189-1.02-0.57-1.33
			c-0.381-0.312-0.961-0.463-1.741-0.463h-1.356V109.073z"/>
		<path fill="#E50051" d="M230.487,113.333c0.408,0,0.775-0.07,1.098-0.205c0.321-0.139,0.595-0.33,0.817-0.576
			c0.224-0.246,0.396-0.545,0.512-0.898c0.119-0.352,0.177-0.742,0.177-1.178v-6.818h2.118v6.818c0,0.676-0.108,1.301-0.326,1.875
			c-0.219,0.574-0.531,1.07-0.942,1.488c-0.409,0.416-0.903,0.746-1.487,0.977c-0.583,0.232-1.238,0.352-1.966,0.352
			c-0.73,0-1.386-0.119-1.969-0.352c-0.582-0.23-1.078-0.561-1.485-0.977c-0.406-0.418-0.716-0.914-0.935-1.488
			c-0.217-0.574-0.327-1.199-0.327-1.875v-6.818h2.117v6.809c0,0.438,0.061,0.83,0.177,1.184c0.12,0.35,0.288,0.648,0.508,0.9
			c0.219,0.246,0.492,0.439,0.814,0.578C229.71,113.262,230.077,113.333,230.487,113.333z"/>
		<path fill="#E50051" d="M244.309,108.426h0.494c0.2,0,0.363-0.027,0.496-0.082s0.244-0.143,0.338-0.262l3.143-3.977
			c0.129-0.166,0.269-0.283,0.412-0.35c0.144-0.068,0.327-0.1,0.546-0.1h1.827l-3.833,4.73c-0.121,0.146-0.235,0.271-0.347,0.369
			c-0.111,0.102-0.228,0.182-0.354,0.246c0.175,0.062,0.329,0.152,0.467,0.268c0.14,0.117,0.275,0.262,0.407,0.441l3.952,5.328
			h-1.876c-0.249,0-0.438-0.035-0.561-0.109c-0.125-0.07-0.228-0.174-0.312-0.309l-3.219-4.205
			c-0.105-0.133-0.224-0.234-0.355-0.291c-0.131-0.062-0.316-0.094-0.558-0.094h-0.668v5.008h-2.118v-11.389h2.118V108.426z"/>
		<path fill="#E50051" d="M268.314,115.04h-1.637c-0.186,0-0.336-0.045-0.453-0.139c-0.119-0.09-0.204-0.207-0.257-0.344l-0.85-2.32
			h-4.715l-0.851,2.32c-0.041,0.121-0.123,0.232-0.248,0.332c-0.122,0.1-0.272,0.15-0.45,0.15h-1.646l4.473-11.383h2.162
			L268.314,115.04z M260.945,110.741h3.629l-1.385-3.785c-0.064-0.168-0.134-0.367-0.209-0.594c-0.077-0.229-0.151-0.48-0.224-0.744
			c-0.075,0.264-0.146,0.518-0.217,0.746c-0.071,0.232-0.141,0.436-0.21,0.607L260.945,110.741z"/>
		<path fill="#E50051" d="M276.341,110.592v4.447h-2.118v-11.383h3.471c0.777,0,1.441,0.082,1.996,0.24
			c0.554,0.164,1.006,0.387,1.36,0.672c0.354,0.289,0.614,0.635,0.781,1.037c0.164,0.4,0.247,0.842,0.247,1.326
			c0,0.383-0.058,0.746-0.171,1.086c-0.111,0.342-0.274,0.65-0.486,0.93c-0.214,0.275-0.476,0.521-0.788,0.73
			c-0.311,0.209-0.668,0.381-1.066,0.504c0.268,0.154,0.497,0.371,0.694,0.654l2.847,4.203h-1.903c-0.185,0-0.338-0.037-0.469-0.113
			c-0.129-0.068-0.237-0.176-0.326-0.312l-2.392-3.646c-0.092-0.137-0.189-0.232-0.296-0.289s-0.267-0.086-0.476-0.086H276.341z
			 M276.341,109.073h1.322c0.397,0,0.745-0.051,1.041-0.148c0.299-0.1,0.542-0.236,0.734-0.414c0.19-0.176,0.335-0.385,0.428-0.625
			c0.096-0.242,0.142-0.508,0.142-0.797c0-0.576-0.191-1.02-0.569-1.33c-0.382-0.312-0.962-0.463-1.745-0.463h-1.353V109.073z"/>
		<path fill="#E50051" d="M290.411,103.67c0.062,0.008,0.117,0.021,0.17,0.047c0.05,0.023,0.099,0.057,0.144,0.104
			c0.049,0.041,0.102,0.104,0.158,0.174l5.976,7.613c-0.022-0.186-0.037-0.365-0.043-0.541c-0.01-0.176-0.014-0.34-0.014-0.49v-6.92
			h1.865v11.383h-1.094c-0.168,0-0.306-0.025-0.417-0.078c-0.11-0.053-0.219-0.148-0.323-0.283l-5.95-7.582
			c0.016,0.17,0.03,0.336,0.035,0.502c0.008,0.164,0.014,0.312,0.014,0.449v6.992h-1.867v-11.383h1.11
			C290.27,103.657,290.35,103.663,290.411,103.67z"/>
		<path fill="#E50051" d="M307.969,115.04h-2.125v-11.383h2.125V115.04z"/>
		<path fill="#E50051" d="M325.088,115.04h-1.637c-0.184,0-0.334-0.045-0.452-0.139c-0.116-0.09-0.205-0.207-0.257-0.344
			l-0.848-2.32h-4.717l-0.85,2.32c-0.042,0.121-0.125,0.232-0.248,0.332c-0.121,0.1-0.275,0.15-0.451,0.15h-1.646l4.47-11.383h2.165
			L325.088,115.04z M317.722,110.741h3.627l-1.384-3.785c-0.062-0.168-0.133-0.367-0.21-0.594c-0.075-0.229-0.15-0.48-0.224-0.744
			c-0.072,0.264-0.144,0.518-0.216,0.746c-0.069,0.232-0.143,0.436-0.208,0.607L317.722,110.741z"/>
	</g>
</g>
</svg>
