<?xml version="1.0" encoding="utf-8"?>
<!-- Generator: Adobe Illustrator 16.0.4, SVG Export Plug-In . SVG Version: 6.00 Build 0)  -->
<!DOCTYPE svg PUBLIC "-//W3C//DTD SVG 1.1//EN" "http://www.w3.org/Graphics/SVG/1.1/DTD/svg11.dtd">
<svg version="1.1" id="Warstwa_1" xmlns="http://www.w3.org/2000/svg" xmlns:xlink="http://www.w3.org/1999/xlink" x="0px" y="0px"
	 width="157px" height="185.261px" viewBox="93.162 13.785 157 185.261" enable-background="new 93.162 13.785 157 185.261"
	 xml:space="preserve">
<g id="Warstwa_1_1_">
	<g>
		<g>
			<polygon fill="#FF0048" points="217.224,146.602 233.693,175.13 250.162,175.13 233.693,146.602 217.224,118.081 
				200.751,146.602 184.287,175.13 200.751,175.13 			"/>
			<polygon fill="#312286" points="159.033,146.602 142.594,118.128 126.213,146.492 109.806,118.081 93.162,118.081 
				109.63,146.602 126.097,175.132 142.57,146.602 159.037,175.132 175.509,146.602 191.977,118.081 175.505,118.081 			"/>
			<path fill="#312286" d="M217.226,43.191c-16.645,0-30.13,13.486-30.13,30.126c0,16.642,13.485,30.13,30.13,30.13
				c16.638,0,30.125-13.488,30.125-30.13C247.351,56.678,233.864,43.191,217.226,43.191z M217.226,89.793
				c-9.1,0-16.475-7.375-16.475-16.476c0-9.096,7.375-16.472,16.475-16.472c9.095,0,16.475,7.376,16.475,16.472
				C233.701,82.418,226.321,89.793,217.226,89.793z"/>
			<path fill="#FF0048" d="M142.88,43.191c-6.075,0-11.716,1.807-16.447,4.9V13.785H112.75v58.789h0.038
				c-0.006,0.247-0.038,0.493-0.038,0.744c0,16.642,13.49,30.13,30.13,30.13s30.129-13.488,30.129-30.13
				C173.009,56.678,159.52,43.191,142.88,43.191z M142.88,89.793c-9.102,0-16.475-7.375-16.475-16.476
				c0-9.096,7.373-16.472,16.475-16.472c9.095,0,16.471,7.376,16.471,16.472C159.351,82.418,151.975,89.793,142.88,89.793z"/>
		</g>
		<g>
			<path fill="#FF0048" d="M132.617,194.473c0,0.655-0.109,1.257-0.327,1.808c-0.222,0.549-0.528,1.021-0.92,1.413
				c-0.398,0.396-0.874,0.706-1.432,0.921c-0.554,0.223-1.169,0.33-1.849,0.33h-3.41v-8.941h3.41c0.68,0,1.295,0.11,1.849,0.33
				c0.559,0.219,1.034,0.526,1.432,0.92c0.394,0.396,0.7,0.867,0.92,1.414C132.507,193.214,132.617,193.82,132.617,194.473z
				 M130.918,194.473c0-0.488-0.066-0.929-0.2-1.322c-0.131-0.385-0.318-0.715-0.562-0.985c-0.244-0.271-0.539-0.476-0.889-0.621
				c-0.347-0.144-0.74-0.219-1.179-0.219h-1.735v6.295h1.735c0.438,0,0.832-0.072,1.179-0.216c0.35-0.145,0.645-0.351,0.889-0.62
				c0.244-0.271,0.431-0.6,0.562-0.988C130.852,195.403,130.918,194.964,130.918,194.473z"/>
			<path fill="#FF0048" d="M139.351,195.453v3.492h-1.664v-8.939h2.729c0.608,0,1.131,0.062,1.566,0.186
				c0.436,0.13,0.791,0.305,1.071,0.529c0.278,0.228,0.479,0.5,0.614,0.812c0.129,0.317,0.19,0.659,0.19,1.043
				c0,0.301-0.042,0.586-0.134,0.852c-0.085,0.271-0.213,0.512-0.381,0.734c-0.166,0.215-0.373,0.406-0.619,0.572
				c-0.245,0.164-0.526,0.301-0.837,0.396c0.212,0.117,0.389,0.289,0.544,0.513l2.238,3.303h-1.498
				c-0.142,0-0.266-0.028-0.366-0.088c-0.103-0.058-0.188-0.139-0.257-0.246l-1.88-2.864c-0.069-0.107-0.147-0.185-0.232-0.228
				c-0.085-0.045-0.208-0.069-0.373-0.069h-0.713L139.351,195.453L139.351,195.453z M139.351,194.257h1.04
				c0.312,0,0.586-0.041,0.819-0.116c0.233-0.082,0.426-0.187,0.576-0.325c0.148-0.138,0.261-0.303,0.335-0.49
				c0.075-0.191,0.112-0.396,0.112-0.628c0-0.45-0.149-0.802-0.448-1.044c-0.3-0.246-0.755-0.365-1.37-0.365h-1.065L139.351,194.257
				L139.351,194.257z"/>
			<path fill="#FF0048" d="M152.819,197.605c0.321,0,0.611-0.057,0.862-0.164c0.253-0.105,0.468-0.255,0.643-0.449
				c0.176-0.195,0.312-0.43,0.401-0.705c0.093-0.277,0.142-0.586,0.142-0.928v-5.354h1.662v5.354c0,0.528-0.087,1.023-0.258,1.475
				c-0.171,0.449-0.417,0.843-0.738,1.166c-0.322,0.328-0.709,0.586-1.169,0.769c-0.459,0.185-0.975,0.278-1.545,0.278
				c-0.573,0-1.089-0.096-1.546-0.278c-0.459-0.183-0.846-0.438-1.167-0.769c-0.317-0.323-0.565-0.717-0.737-1.166
				c-0.168-0.451-0.256-0.945-0.256-1.475v-5.354h1.663v5.345c0,0.347,0.05,0.655,0.142,0.931c0.095,0.277,0.227,0.51,0.398,0.707
				c0.172,0.194,0.385,0.348,0.641,0.453C152.208,197.548,152.498,197.605,152.819,197.605z"/>
			<path fill="#FF0048" d="M163.677,193.75h0.391c0.156,0,0.286-0.021,0.389-0.062c0.104-0.046,0.19-0.116,0.264-0.207l2.469-3.126
				c0.104-0.129,0.214-0.22,0.325-0.275c0.112-0.052,0.256-0.072,0.431-0.072h1.434l-3.01,3.713
				c-0.098,0.117-0.184,0.216-0.272,0.293c-0.089,0.078-0.181,0.144-0.277,0.189c0.136,0.051,0.257,0.118,0.367,0.211
				c0.106,0.092,0.214,0.211,0.317,0.35l3.104,4.184h-1.474c-0.196,0-0.346-0.027-0.439-0.083c-0.098-0.058-0.177-0.137-0.246-0.245
				l-2.527-3.303c-0.079-0.104-0.176-0.184-0.278-0.229c-0.103-0.049-0.251-0.074-0.438-0.074h-0.524v3.935h-1.664V190h1.664v3.75
				H163.677z"/>
			<path fill="#FF0048" d="M182.539,198.945h-1.285c-0.146,0-0.264-0.035-0.355-0.107c-0.095-0.071-0.158-0.164-0.202-0.271
				l-0.666-1.819h-3.704l-0.666,1.819c-0.035,0.095-0.1,0.185-0.197,0.261c-0.096,0.078-0.213,0.117-0.354,0.117h-1.295l3.516-8.939
				h1.696L182.539,198.945z M176.75,195.569h2.852l-1.087-2.973c-0.048-0.134-0.104-0.287-0.164-0.47
				c-0.062-0.18-0.121-0.375-0.175-0.584c-0.059,0.209-0.118,0.405-0.17,0.586c-0.059,0.186-0.113,0.347-0.166,0.479L176.75,195.569
				z"/>
			<path fill="#FF0048" d="M188.846,195.453v3.492h-1.666v-8.939h2.729c0.61,0,1.133,0.062,1.566,0.186
				c0.436,0.13,0.793,0.305,1.07,0.529c0.277,0.228,0.483,0.5,0.615,0.812c0.127,0.317,0.192,0.659,0.192,1.043
				c0,0.301-0.045,0.586-0.138,0.852c-0.088,0.271-0.215,0.512-0.379,0.734c-0.168,0.215-0.375,0.406-0.618,0.572
				c-0.244,0.164-0.525,0.301-0.839,0.396c0.211,0.117,0.394,0.289,0.545,0.513l2.238,3.303h-1.496
				c-0.146,0-0.267-0.028-0.369-0.088c-0.1-0.058-0.186-0.139-0.256-0.246l-1.881-2.864c-0.068-0.107-0.146-0.185-0.23-0.228
				c-0.084-0.045-0.209-0.069-0.375-0.069h-0.711L188.846,195.453L188.846,195.453z M188.846,194.257h1.038
				c0.312,0,0.586-0.041,0.82-0.116c0.231-0.082,0.424-0.187,0.574-0.325c0.148-0.138,0.262-0.303,0.338-0.49
				c0.071-0.191,0.109-0.396,0.109-0.628c0-0.45-0.148-0.802-0.447-1.044c-0.299-0.246-0.756-0.365-1.371-0.365h-1.062V194.257
				L188.846,194.257z"/>
			<path fill="#FF0048" d="M199.9,190.013c0.051,0.008,0.092,0.018,0.133,0.033c0.041,0.022,0.077,0.047,0.114,0.086
				c0.039,0.033,0.08,0.078,0.121,0.136l4.698,5.981c-0.018-0.144-0.028-0.285-0.035-0.424c-0.006-0.14-0.012-0.27-0.012-0.386
				v-5.437h1.469v8.94h-0.863c-0.128,0-0.236-0.021-0.324-0.06c-0.088-0.045-0.174-0.117-0.255-0.228l-4.678-5.954
				c0.017,0.133,0.024,0.262,0.028,0.394c0.008,0.131,0.012,0.25,0.012,0.352v5.495h-1.465v-8.939h0.873
				C199.791,190.005,199.851,190.009,199.9,190.013z"/>
			<path fill="#FF0048" d="M213.697,198.945h-1.669v-8.939h1.669V198.945z"/>
			<path fill="#FF0048" d="M227.144,198.945h-1.283c-0.146,0-0.264-0.035-0.354-0.107c-0.096-0.07-0.162-0.164-0.202-0.271
				l-0.671-1.819h-3.699l-0.67,1.819c-0.034,0.095-0.098,0.185-0.196,0.261c-0.094,0.078-0.215,0.117-0.354,0.117h-1.293
				l3.515-8.939h1.698L227.144,198.945z M221.358,195.569h2.851l-1.088-2.973c-0.047-0.134-0.104-0.287-0.164-0.47
				c-0.061-0.18-0.117-0.375-0.176-0.584c-0.058,0.209-0.115,0.405-0.17,0.586c-0.057,0.186-0.111,0.347-0.165,0.479
				L221.358,195.569z"/>
		</g>
	</g>
</g>
<g id="Warstwa_2">
</g>
</svg>
