<?xml version="1.0" encoding="utf-8"?>
<!-- Generator: Adobe Illustrator 16.0.4, SVG Export Plug-In . SVG Version: 6.00 Build 0)  -->
<!DOCTYPE svg PUBLIC "-//W3C//DTD SVG 1.1//EN" "http://www.w3.org/Graphics/SVG/1.1/DTD/svg11.dtd">
<svg version="1.1" id="Warstwa_1" xmlns="http://www.w3.org/2000/svg" xmlns:xlink="http://www.w3.org/1999/xlink" x="0px" y="0px"
	 width="216px" height="222.087px" viewBox="33.303 13.785 216 222.087" enable-background="new 33.303 13.785 216 222.087"
	 xml:space="preserve">
<g>
	<polygon fill="#FF0048" points="203.987,196.6 226.647,235.869 249.303,235.869 226.647,196.6 203.987,157.341 181.328,196.6 
		158.671,235.869 181.328,235.869 	"/>
	<polygon fill="#FFFFFF" points="123.931,196.6 101.312,157.408 78.775,196.449 56.202,157.341 33.303,157.341 55.961,196.6 
		78.617,235.873 101.279,196.6 123.935,235.873 146.596,196.6 169.251,157.341 146.591,157.341 	"/>
	<path fill="#FFFFFF" d="M203.989,54.262c-22.895,0-41.45,18.563-41.45,41.467c0,22.907,18.557,41.474,41.45,41.474
		s41.449-18.567,41.449-41.474C245.438,72.826,226.882,54.262,203.989,54.262z M203.989,118.407
		c-12.517,0-22.661-10.152-22.661-22.678c0-12.52,10.146-22.672,22.661-22.672c12.515,0,22.669,10.152,22.669,22.672
		C226.658,108.254,216.503,118.407,203.989,118.407z"/>
	<path fill="#FF0048" d="M101.706,54.262c-8.358,0-16.118,2.485-22.628,6.745V13.785H60.253v80.92h0.051
		c-0.008,0.34-0.051,0.677-0.051,1.024c0,22.907,18.558,41.474,41.453,41.474c22.893,0,41.452-18.567,41.452-41.474
		C143.158,72.826,124.599,54.262,101.706,54.262z M101.706,118.407c-12.52,0-22.664-10.152-22.664-22.678
		c0-12.52,10.144-22.672,22.664-22.672c12.514,0,22.661,10.152,22.661,22.672C124.367,108.254,114.22,118.407,101.706,118.407z"/>
</g>
<g id="Warstwa_2_1_">
</g>
</svg>
