<?xml version="1.0" encoding="utf-8"?>
<!-- Generator: Adobe Illustrator 16.0.4, SVG Export Plug-In . SVG Version: 6.00 Build 0)  -->
<!DOCTYPE svg PUBLIC "-//W3C//DTD SVG 1.1//EN" "http://www.w3.org/Graphics/SVG/1.1/DTD/svg11.dtd">
<svg version="1.1" id="Warstwa_1" xmlns="http://www.w3.org/2000/svg" xmlns:xlink="http://www.w3.org/1999/xlink" x="0px" y="0px"
	 width="130px" height="150px" viewBox="0 0 130 150" enable-background="new 0 0 130 150" xml:space="preserve">
<g>
	<path fill="#E40050" d="M63.582,110.145c0.521,0.421,1.153,0.633,1.891,0.633c0.676,0,1.307-0.212,1.891-0.634
		c0.583-0.424,0.876-0.907,0.876-1.451v-3.081c5.137-0.741,9.204-2.731,12.202-5.972c2.996-3.24,4.496-7.607,4.496-13.103
		c0-3.006-0.46-5.631-1.376-7.872c-0.917-2.239-2.276-4.097-4.081-5.569c-1.805-1.473-3.519-2.623-5.139-3.453
		c-1.62-0.829-3.654-1.703-6.101-2.625V48.325c2.459,0.185,4.792,0.8,6.995,1.845c2.203,1.046,3.55,1.569,4.04,1.569
		c1.24,0,2.233-0.601,2.978-1.799c0.744-1.199,1.117-2.352,1.117-3.459c0-2.029-1.584-3.612-4.751-4.751
		c-3.168-1.137-6.628-1.768-10.378-1.891v-2.491c0-0.554-0.293-1.045-0.876-1.477c-0.584-0.429-1.215-0.645-1.891-0.645
		c-0.738,0-1.369,0.216-1.891,0.645c-0.523,0.432-0.784,0.922-0.784,1.477v2.676c-4.981,0.553-9.149,2.213-12.5,4.98
		c-3.353,2.768-5.027,6.824-5.027,12.166c0,1.903,0.214,3.637,0.646,5.203c0.429,1.564,1.136,2.93,2.121,4.097
		c0.983,1.166,1.921,2.162,2.813,2.992c0.892,0.829,2.153,1.627,3.783,2.394c1.629,0.767,2.936,1.351,3.92,1.749
		c0.983,0.399,2.398,0.937,4.244,1.611v21.634c-2.726-0.185-5.125-0.89-7.202-2.118c-2.075-1.227-3.706-2.377-4.894-3.453
		c-1.188-1.073-2.146-1.612-2.875-1.612c-1.101,0-2.078,0.584-2.935,1.75c-0.856,1.167-1.283,2.332-1.283,3.499
		c0,2.48,1.86,4.914,5.582,7.301c3.721,2.387,8.256,3.61,13.607,3.672v2.807C62.798,109.239,63.059,109.721,63.582,110.145z
		 M67.688,77.239c2.583,1.105,4.581,2.426,5.996,3.959c1.413,1.534,2.121,3.651,2.121,6.352c0,5.094-2.707,8.132-8.117,9.113V77.239
		z M56.639,61.726c-1.492-1.256-2.236-3.083-2.236-5.477c0-4.428,2.982-7.01,8.949-7.748v16.77
		C60.368,64.167,58.13,62.985,56.639,61.726z"/>
	<path fill="#E40050" d="M65,10c-35.841,0-65,29.159-65,65C0,110.841,29.159,140,65,140c15.952,0,30.947-5.688,42.791-16.091v9.231
		c0,2.707,2.193,4.9,4.899,4.9c2.707,0,4.899-2.193,4.899-4.9v-20.578c0-2.706-2.193-4.899-4.899-4.899H92.112
		c-2.707,0-4.899,2.193-4.899,4.899s2.193,4.899,4.899,4.899h8.159c-9.883,8.25-22.203,12.738-35.272,12.738
		c-30.438,0-55.201-24.763-55.201-55.202c0-30.438,24.762-55.201,55.201-55.201c30.438,0,55.201,24.763,55.201,55.201
		c0,2.706,2.193,4.899,4.899,4.899s4.9-2.193,4.9-4.899C130,39.158,100.841,10,65,10z"/>
</g>
</svg>
