<?xml version="1.0" encoding="utf-8"?>
<!-- Generator: Adobe Illustrator 16.0.4, SVG Export Plug-In . SVG Version: 6.00 Build 0)  -->
<!DOCTYPE svg PUBLIC "-//W3C//DTD SVG 1.1//EN" "http://www.w3.org/Graphics/SVG/1.1/DTD/svg11.dtd">
<svg version="1.1" id="Warstwa_1" xmlns="http://www.w3.org/2000/svg" xmlns:xlink="http://www.w3.org/1999/xlink" x="0px" y="0px"
	 width="70px" height="70px" viewBox="0 0 70 70" enable-background="new 0 0 70 70" xml:space="preserve">
<g>
	<path fill="#E40651" d="M67.322,27.645L61.338,16.37c-0.203-0.382-0.549-0.645-0.941-0.753c-0.002,0-0.004-0.002-0.007-0.002
		l-24.93-6.73c-0.26-0.069-0.532-0.069-0.793,0l-25.055,6.73c-0.002,0-0.004,0.001-0.008,0.002
		c-0.393,0.108-0.739,0.371-0.942,0.753L2.678,27.645c-0.195,0.368-0.231,0.799-0.1,1.194c0.131,0.394,0.418,0.719,0.794,0.896
		l5.207,2.461v15.403c0,0.584,0.334,1.117,0.861,1.371l24.961,12.046c0.21,0.102,0.436,0.152,0.662,0.152
		c0.224,0,0.446-0.052,0.652-0.149c0.003-0.001,0.006-0.001,0.01-0.003L60.686,48.97c0.526-0.255,0.861-0.787,0.861-1.371V32.197
		c0-0.02-0.003-0.039-0.004-0.059l5.085-2.403c0.376-0.178,0.664-0.502,0.794-0.896C67.554,28.444,67.518,28.013,67.322,27.645
		L67.322,27.645z M35.062,11.931l19.935,5.381L35,24.723l-19.987-7.408L35.062,11.931z M10.727,18.974l22.226,8.238l-4.895,10.824
		L6.115,27.664L10.727,18.974z M11.623,46.643V33.636l16.533,7.815c0.206,0.098,0.428,0.146,0.65,0.146
		c0.178,0,0.355-0.03,0.525-0.093c0.383-0.141,0.693-0.431,0.862-0.802l3.346-7.4V57.22L11.623,46.643z M58.502,46.643L36.585,57.22
		V33.579l3.221,7.123c0.169,0.371,0.479,0.661,0.862,0.802c0.17,0.062,0.348,0.093,0.524,0.093c0.224,0,0.446-0.048,0.651-0.146
		l16.658-7.875V46.643z M41.942,38.036l-4.896-10.825l22.227-8.237l4.612,8.689L41.942,38.036z M41.942,38.036"/>
</g>
</svg>
