<?xml version="1.0" encoding="utf-8"?>
<!-- Generator: Adobe Illustrator 16.0.4, SVG Export Plug-In . SVG Version: 6.00 Build 0)  -->
<!DOCTYPE svg PUBLIC "-//W3C//DTD SVG 1.1//EN" "http://www.w3.org/Graphics/SVG/1.1/DTD/svg11.dtd">
<svg version="1.1" id="Warstwa_1" xmlns="http://www.w3.org/2000/svg" xmlns:xlink="http://www.w3.org/1999/xlink" x="0px" y="0px"
	 width="130px" height="150px" viewBox="0 0 130 150" enable-background="new 0 0 130 150" xml:space="preserve">
<g>
	<path fill="#E40050" d="M127.28,47.551l-26.257-26.26c-1.76-1.759-4.096-2.727-6.58-2.727c-2.487,0-4.825,0.968-6.581,2.727
		l-6.172,6.172c-0.868,0.867-1.546,1.89-2.015,3.041l-28.459-5.096c-1.58-0.313-3.193-0.473-4.792-0.473
		c-11.646,0-21.771,8.291-24.076,19.714l-1.332,6.604c-1.523,7.567,3.393,14.966,10.958,16.493c0.914,0.184,1.845,0.275,2.77,0.275
		c6.639,0,12.408-4.725,13.722-11.235l0.727-3.596l12.314,1.076l39.809,39.811c1.043,1.045,1.043,2.742,0,3.787
		c-1.01,1.009-2.777,1.009-3.787,0L81.112,81.45c-1.297-1.298-3.556-1.298-4.853,0c-1.337,1.336-1.337,3.515,0,4.853l16.414,16.414
		c0.506,0.507,0.784,1.179,0.784,1.893c0,0.718-0.278,1.39-0.784,1.893c-1.01,1.009-2.777,1.009-3.787,0L72.475,90.09
		c-1.295-1.293-3.56-1.298-4.855,0c-0.65,0.648-1.007,1.512-1.007,2.428c0,0.917,0.358,1.778,1.007,2.425l16.415,16.416
		c1.042,1.045,1.042,2.742,0,3.787c-1.012,1.009-2.78,1.007-3.787,0L63.831,98.731c-1.297-1.297-3.556-1.297-4.854,0
		c-0.648,0.648-1.005,1.51-1.005,2.427c0,0.918,0.356,1.779,1.005,2.426l16.412,16.414c1.045,1.045,1.045,2.744,0,3.789
		c-1.009,1.007-2.775,1.01-3.784,0L5.86,58.04c-1.3-1.299-3.562-1.295-4.857,0c-1.337,1.336-1.337,3.515,0,4.853l15.659,15.659
		l-4.244,4.244c-1.603,1.601-2.483,3.731-2.483,5.996c0,2.266,0.881,4.396,2.483,6.001l1.502,1.498
		c1.304,1.307,2.938,2.129,4.749,2.395c0.262,1.81,1.086,3.444,2.393,4.745l1.5,1.504c1.279,1.279,2.953,2.119,4.745,2.385
		c0.262,1.81,1.086,3.446,2.395,4.753l1.501,1.5c1.309,1.309,2.942,2.133,4.748,2.396c0.263,1.779,1.102,3.453,2.392,4.748
		l1.504,1.5c1.597,1.599,3.728,2.48,5.996,2.48c2.265,0,4.396-0.882,5.996-2.48l4.244-4.244l10.67,10.671
		c1.8,1.802,4.195,2.793,6.746,2.793s4.947-0.991,6.749-2.793c1.585-1.587,2.549-3.667,2.744-5.896
		c2.235-0.199,4.314-1.165,5.896-2.748c1.581-1.576,2.547-3.656,2.746-5.897c2.231-0.195,4.311-1.159,5.897-2.742
		c1.583-1.587,2.547-3.666,2.74-5.897c2.241-0.199,4.323-1.165,5.897-2.744c3.718-3.72,3.718-9.775,0-13.494l-3.699-3.7
		l24.812-24.812C130.907,57.08,130.907,51.176,127.28,47.551z M21.062,91.438c-0.612,0.609-1.679,0.605-2.288,0l-1.502-1.502
		c-0.304-0.304-0.472-0.709-0.472-1.141c0-0.435,0.168-0.84,0.472-1.144l3.958-3.958l3.791,3.786L21.062,91.438z M29.701,100.079
		c-0.612,0.613-1.675,0.609-2.284,0l-1.502-1.5c-0.629-0.631-0.629-1.657,0-2.288l3.956-3.956l3.787,3.786L29.701,100.079z
		 M38.342,108.722c-0.611,0.606-1.676,0.606-2.287,0l-1.502-1.505c-0.306-0.305-0.473-0.709-0.473-1.141
		c0-0.43,0.167-0.836,0.473-1.142l3.958-3.958l3.789,3.786L38.342,108.722z M46.983,117.361c-0.607,0.61-1.674,0.61-2.285,0
		l-1.502-1.5c-0.631-0.629-0.631-1.656,0-2.289l3.958-3.958l3.787,3.793L46.983,117.361z M97.615,80.665L65.475,48.528
		c-0.569-0.569-1.326-0.922-2.127-0.991l-16.615-1.452c-0.103-0.011-0.201-0.013-0.303-0.013c-1.629,0-3.042,1.159-3.359,2.754
		l-1.333,6.605c-0.668,3.317-3.608,5.725-6.991,5.725c-0.472,0-0.948-0.047-1.413-0.142c-1.869-0.377-3.479-1.457-4.534-3.042
		c-1.055-1.593-1.427-3.495-1.051-5.359l1.331-6.607c1.659-8.231,8.955-14.207,17.346-14.207c1.171,0,2.353,0.119,3.582,0.365
		l28.295,5.065l31.373,31.376L97.615,80.665z M122.427,55.855l-7.898,7.896L86.545,35.77c-0.459-0.462-0.714-1.076-0.714-1.729
		c0-0.652,0.255-1.267,0.714-1.727l6.172-6.17c0.461-0.461,1.074-0.715,1.727-0.715c0.648,0,1.262,0.254,1.726,0.715l26.258,26.259
		c0.459,0.459,0.714,1.072,0.714,1.725C123.141,54.777,122.886,55.393,122.427,55.855z"/>
</g>
</svg>
