<?xml version="1.0" encoding="utf-8"?>
<!-- Generator: Adobe Illustrator 16.0.4, SVG Export Plug-In . SVG Version: 6.00 Build 0)  -->
<!DOCTYPE svg PUBLIC "-//W3C//DTD SVG 1.1//EN" "http://www.w3.org/Graphics/SVG/1.1/DTD/svg11.dtd">
<svg version="1.1" id="Icon" xmlns="http://www.w3.org/2000/svg" xmlns:xlink="http://www.w3.org/1999/xlink" x="0px" y="0px"
	 width="70px" height="70px" viewBox="0 0 70 70" enable-background="new 0 0 70 70" xml:space="preserve">
<path fill="#E40050" d="M59.948,56.304l-2.286-12.416c-0.115-0.624-0.416-1.198-0.865-1.646L25.471,10.916
	C24.884,10.329,24.088,10,23.259,10c-0.83,0-1.626,0.329-2.212,0.916L10.917,21.047c-1.222,1.221-1.222,3.202,0,4.425l31.327,31.324
	c0.447,0.448,1.021,0.75,1.645,0.864l12.416,2.287C56.493,59.982,56.682,60,56.872,60c0.822,0,1.621-0.324,2.212-0.916
	C59.812,58.355,60.135,57.316,59.948,56.304z M46.063,54.88l8.817-8.817l0.675,3.665l-5.826,5.827L46.063,54.88z M13.129,23.259
	l2.284-2.284L37.56,43.122c0.204,0.203,0.47,0.306,0.737,0.306c0.267,0,0.533-0.103,0.737-0.306c0.407-0.408,0.407-1.068,0-1.476
	L16.888,19.5l2.439-2.438l4.596,4.596c0.204,0.204,0.471,0.306,0.738,0.306c0.266,0,0.534-0.102,0.737-0.306
	c0.407-0.408,0.407-1.067,0-1.474l-4.596-4.599l2.457-2.456l30.802,30.803l-2.457,2.457L29.321,24.104
	c-0.408-0.407-1.068-0.407-1.476,0c-0.407,0.407-0.407,1.067,0,1.475l22.285,22.284l-2.439,2.438l-4.732-4.733
	c-0.407-0.406-1.068-0.406-1.476,0c-0.408,0.408-0.408,1.068,0,1.475l4.734,4.734l-2.284,2.283L13.129,23.259z M52.219,56.014
	l3.795-3.795l0.857,4.652L52.219,56.014z"/>
</svg>
