<?xml version="1.0" encoding="utf-8"?>
<!-- Generator: Adobe Illustrator 16.0.4, SVG Export Plug-In . SVG Version: 6.00 Build 0)  -->
<!DOCTYPE svg PUBLIC "-//W3C//DTD SVG 1.1//EN" "http://www.w3.org/Graphics/SVG/1.1/DTD/svg11.dtd">
<svg version="1.1" id="Icon" xmlns="http://www.w3.org/2000/svg" xmlns:xlink="http://www.w3.org/1999/xlink" x="0px" y="0px"
	 width="130px" height="150px" viewBox="0 0 130 150" enable-background="new 0 0 130 150" xml:space="preserve">
<g>
	<path fill="#E40050" d="M106.482,6.525H23.518c-4.701,0-8.518,3.812-8.518,8.517v27.627c0,2.846,1.425,5.508,3.797,7.088
		l27.102,18.046C33.316,74.616,24.75,87.939,24.75,103.224c0,22.196,18.058,40.251,40.252,40.251
		c22.193,0,40.248-18.055,40.248-40.251c0-15.284-8.563-28.604-21.144-35.421l27.097-18.046c2.372-1.58,3.797-4.242,3.797-7.088
		V15.042C115,10.337,111.184,6.525,106.482,6.525z M96.731,103.224c0,17.528-14.205,31.734-31.729,31.734
		c-17.528,0-31.733-14.206-31.733-31.734c0-17.524,14.205-31.734,31.733-31.734C82.526,71.489,96.731,85.699,96.731,103.224z
		 M106.482,42.669l-16.23,10.808V37.26c0-1.567-1.271-2.838-2.84-2.838c-1.567,0-2.838,1.271-2.838,2.838v19.999l-10.24,6.82
		c-2.996-0.715-6.118-1.107-9.332-1.107s-6.336,0.393-9.336,1.107l-10.415-6.938V37.26c0-1.567-1.271-2.838-2.838-2.838
		c-1.57,0-2.841,1.271-2.841,2.838v16.1l-16.055-10.69V15.042h16.055v7.599c0,1.567,1.271,2.842,2.841,2.842
		c1.566,0,2.838-1.274,2.838-2.842v-7.599h39.323v7.599c0,1.567,1.271,2.842,2.838,2.842c1.569,0,2.84-1.274,2.84-2.842v-7.599
		h16.23V42.669z"/>
	<path fill="#E40050" d="M59.91,80.926l-4.728,9.575l-10.567,1.534c-2.14,0.31-3.916,1.81-4.585,3.866
		c-0.668,2.052-0.112,4.309,1.436,5.821l7.648,7.456l-1.804,10.524c-0.367,2.131,0.51,4.284,2.259,5.554
		c0.989,0.715,2.159,1.083,3.338,1.083c0.902,0,1.812-0.214,2.642-0.652l9.453-4.969l9.449,4.969
		c0.832,0.435,1.739,0.652,2.644,0.652c1.177,0,2.35-0.368,3.337-1.083c1.75-1.27,2.625-3.423,2.26-5.554l-1.804-10.524l7.646-7.46
		c1.548-1.509,2.104-3.766,1.436-5.817c-0.669-2.057-2.445-3.557-4.585-3.866l-10.569-1.534l-4.721-9.575
		c-0.957-1.938-2.932-3.167-5.093-3.167S60.867,78.987,59.91,80.926z M71.046,95.691l13.524,1.965l-9.784,9.538l2.309,13.466
		l-12.093-6.357l-12.095,6.357l2.307-13.466l-9.784-9.538l13.524-1.965l6.048-12.253L71.046,95.691z"/>
</g>
</svg>
