<?xml version="1.0" encoding="utf-8"?>
<!-- Generator: Adobe Illustrator 16.0.4, SVG Export Plug-In . SVG Version: 6.00 Build 0)  -->
<!DOCTYPE svg PUBLIC "-//W3C//DTD SVG 1.1//EN" "http://www.w3.org/Graphics/SVG/1.1/DTD/svg11.dtd">
<svg version="1.1" id="Warstwa_1" xmlns="http://www.w3.org/2000/svg" xmlns:xlink="http://www.w3.org/1999/xlink" x="0px" y="0px"
	 width="70px" height="70px" viewBox="0 0 70 70" enable-background="new 0 0 70 70" xml:space="preserve">
<path fill="#E40050" d="M60.383,30.632c-2.9-2.884-6.988-4.934-11.51-5.772l-0.111-0.021l-0.012-0.112
	c-0.428-4.059-2.762-7.834-6.576-10.629c-3.85-2.821-8.853-4.375-14.085-4.375c-11.43,0-20.729,7.321-20.729,16.321
	c0.034,4.559,2.427,8.912,6.568,11.94l0.076,0.057l-1.417,7.951c-0.129,0.744,0.161,1.459,0.757,1.867
	c0.286,0.227,0.677,0.35,1.111,0.35c0.347,0,0.65-0.076,0.876-0.217l8.384-4.508l0.044,0.193
	c1.796,7.773,10.372,13.416,20.391,13.416c0.709,0,1.43-0.035,2.139-0.102l0.045-0.006l10.6,5.695
	c0.33,0.184,0.664,0.221,0.887,0.221c0.383,0,0.797-0.131,1.109-0.348c0.598-0.41,0.887-1.125,0.758-1.867l-1.418-7.951l0.076-0.057
	c4.213-3.117,6.533-7.346,6.533-11.908C64.879,37.115,63.283,33.514,60.383,30.632z M25.565,38.455
	c-0.334,0-0.645,0.076-0.924,0.229l-7.656,4.111l0.942-5.295c0.129-0.771-0.206-1.53-0.853-1.931
	c-3.76-2.38-5.916-5.839-5.916-9.491c0.035-6.905,7.645-12.521,16.964-12.521c9.336,0,16.93,5.617,16.93,12.521
	S37.459,38.6,28.123,38.6c-0.875,0-1.676-0.047-2.377-0.139C25.69,38.457,25.627,38.455,25.565,38.455z M55.201,50.264
	c-0.645,0.418-0.98,1.178-0.855,1.932l0.943,5.295l-7.656-4.111c-0.332-0.182-0.715-0.254-1.111-0.223
	c-0.863,0.076-1.639,0.139-2.371,0.139c-8.366,0-15.569-4.607-16.756-10.717l-0.035-0.18h0.729c4.922,0,9.696-1.391,13.444-3.916
	c3.693-2.49,6.172-5.924,6.98-9.668l0.031-0.146l0.146,0.031c7.314,1.525,12.424,6.49,12.424,12.073
	C61.115,44.426,58.959,47.885,55.201,50.264z"/>
</svg>
