<?xml version="1.0" encoding="utf-8"?>
<!-- Generator: Adobe Illustrator 16.0.4, SVG Export Plug-In . SVG Version: 6.00 Build 0)  -->
<!DOCTYPE svg PUBLIC "-//W3C//DTD SVG 1.1//EN" "http://www.w3.org/Graphics/SVG/1.1/DTD/svg11.dtd">
<svg version="1.1" id="Warstwa_1" xmlns="http://www.w3.org/2000/svg" xmlns:xlink="http://www.w3.org/1999/xlink" x="0px" y="0px"
	 width="70px" height="70px" viewBox="0 0 70 70" enable-background="new 0 0 70 70" xml:space="preserve">
<g>
	<path fill="#E40050" d="M35,3.683C17.705,3.683,3.683,17.704,3.683,35S17.705,66.316,35,66.316
		c17.296,0,31.317-14.021,31.317-31.316S52.296,3.683,35,3.683 M54.426,54.425C49.237,59.614,42.338,62.471,35,62.471
		s-14.236-2.856-19.425-8.046C10.386,49.236,7.528,42.338,7.528,35c0-7.339,2.858-14.237,8.047-19.426
		C20.764,10.385,27.662,7.527,35,7.527s14.237,2.857,19.426,8.047c5.189,5.188,8.046,12.087,8.046,19.426
		C62.472,42.338,59.615,49.236,54.426,54.425"/>
	<path fill="#E40050" d="M46.243,28.099l-11.034,5.917V15.787c0-1.062-0.861-1.922-1.922-1.922c-1.062,0-1.923,0.86-1.923,1.922
		v20.127c0,1.018,0.56,1.939,1.462,2.407c0.396,0.206,0.824,0.307,1.252,0.307c0.499,0,0.996-0.138,1.434-0.412l12.548-6.729
		c0.936-0.501,1.288-1.667,0.786-2.603S47.179,27.597,46.243,28.099"/>
</g>
</svg>
