<?xml version="1.0" encoding="utf-8"?>
<!-- Generator: Adobe Illustrator 16.0.4, SVG Export Plug-In . SVG Version: 6.00 Build 0)  -->
<!DOCTYPE svg PUBLIC "-//W3C//DTD SVG 1.1//EN" "http://www.w3.org/Graphics/SVG/1.1/DTD/svg11.dtd">
<svg version="1.1" id="Warstwa_1" xmlns="http://www.w3.org/2000/svg" xmlns:xlink="http://www.w3.org/1999/xlink" x="0px" y="0px"
	 width="70px" height="75px" viewBox="0 0 70 75" enable-background="new 0 0 70 75" xml:space="preserve">
<g>
	<path fill="#E40050" d="M35,6.183C17.705,6.183,3.683,20.204,3.683,37.5S17.705,68.816,35,68.816
		c17.296,0,31.317-14.021,31.317-31.316S52.296,6.183,35,6.183 M54.426,56.925C49.237,62.114,42.338,64.971,35,64.971
		s-14.236-2.856-19.425-8.046C10.386,51.736,7.528,44.838,7.528,37.5c0-7.339,2.858-14.237,8.047-19.426
		c5.189-5.189,12.087-8.047,19.425-8.047s14.237,2.857,19.426,8.047c5.189,5.188,8.046,12.087,8.046,19.426
		C62.472,44.838,59.615,51.736,54.426,56.925"/>
	<path fill="#E40050" d="M46.243,30.599l-11.034,5.917V18.287c0-1.062-0.861-1.922-1.922-1.922c-1.062,0-1.923,0.86-1.923,1.922
		v20.127c0,1.018,0.56,1.939,1.462,2.407c0.396,0.206,0.824,0.307,1.252,0.307c0.499,0,0.996-0.138,1.434-0.412l12.548-6.729
		c0.936-0.501,1.288-1.667,0.786-2.603S47.179,30.097,46.243,30.599"/>
</g>
</svg>
