<?xml version="1.0" encoding="utf-8"?>
<!-- Generator: Adobe Illustrator 16.0.4, SVG Export Plug-In . SVG Version: 6.00 Build 0)  -->
<!DOCTYPE svg PUBLIC "-//W3C//DTD SVG 1.1//EN" "http://www.w3.org/Graphics/SVG/1.1/DTD/svg11.dtd">
<svg version="1.1" id="Warstwa_1" xmlns="http://www.w3.org/2000/svg" xmlns:xlink="http://www.w3.org/1999/xlink" x="0px" y="0px"
	 width="130px" height="150px" viewBox="0 0 130 150" enable-background="new 0 0 130 150" xml:space="preserve">
<path fill="#E40050" d="M64.998,115.517c-26.96,0-51.424-14.893-63.845-38.866L0.299,75l0.854-1.65
	c12.421-23.974,36.885-38.866,63.845-38.866c26.959,0,51.424,14.893,63.848,38.866l0.855,1.65l-0.855,1.65
	C116.422,100.624,91.957,115.517,64.998,115.517z M8.408,75c11.434,20.614,32.947,33.342,56.59,33.342S110.156,95.614,121.591,75
	c-11.436-20.615-32.95-33.343-56.593-33.343S19.841,54.385,8.408,75z"/>
<path fill="#E40050" d="M65,96.669c-12.71,0-23.051-10.341-23.051-23.051c0-1.98,1.606-3.587,3.587-3.587
	c1.98,0,3.587,1.606,3.587,3.587c0,8.754,7.122,15.876,15.876,15.876c8.753,0,15.875-7.122,15.875-15.876S73.753,57.741,65,57.741
	c-1.981,0-3.587-1.606-3.587-3.587c0-1.981,1.606-3.587,3.587-3.587c12.709,0,23.049,10.341,23.049,23.052
	C88.049,86.329,77.709,96.669,65,96.669z"/>
</svg>
