<?xml version="1.0" encoding="utf-8"?>
<!-- Generator: Adobe Illustrator 16.0.4, SVG Export Plug-In . SVG Version: 6.00 Build 0)  -->
<!DOCTYPE svg PUBLIC "-//W3C//DTD SVG 1.1//EN" "http://www.w3.org/Graphics/SVG/1.1/DTD/svg11.dtd">
<svg version="1.1" id="Warstwa_1" xmlns="http://www.w3.org/2000/svg" xmlns:xlink="http://www.w3.org/1999/xlink" x="0px" y="0px"
	 width="70px" height="70px" viewBox="0 0 70 70" enable-background="new 0 0 70 70" xml:space="preserve">
<g>
	<path fill="#E40050" d="M52.404,15.768c3.829,0,6.934-3.104,6.934-6.934S56.233,1.9,52.404,1.9S45.47,5.005,45.47,8.834
		S48.575,15.768,52.404,15.768 M52.404,5.382c1.902,0,3.451,1.549,3.451,3.452s-1.549,3.451-3.451,3.451
		c-1.903,0-3.452-1.548-3.452-3.451S50.501,5.382,52.404,5.382"/>
	<path fill="#E40050" d="M55.216,15.779h-5.624c-3.254,0-5.894,2.638-5.894,5.892v16.124c0,1.303,1.057,2.357,2.357,2.357h0.27
		v26.17c0,0.981,0.796,1.777,1.777,1.777h8.603c0.981,0,1.777-0.796,1.777-1.777v-26.17h0.27c1.302,0,2.356-1.055,2.356-2.357
		V21.671C61.108,18.417,58.471,15.779,55.216,15.779 M49.592,19.261h5.624c1.33,0,2.411,1.082,2.411,2.41V36.4H47.182V21.671
		C47.182,20.343,48.263,19.261,49.592,19.261 M55.001,64.617h-5.193V40.152h5.193V64.617z"/>
	<path fill="#E40050" d="M31.482,8.845c0-3.829-3.105-6.934-6.934-6.934c-3.829,0-6.935,3.104-6.935,6.934s3.105,6.935,6.935,6.935
		C28.377,15.779,31.482,12.674,31.482,8.845 M24.549,12.297c-1.903,0-3.452-1.548-3.452-3.452c0-1.902,1.549-3.452,3.452-3.452
		c1.902,0,3.451,1.55,3.451,3.452C28,10.749,26.451,12.297,24.549,12.297"/>
	<path fill="#E40050" d="M31.454,36.366c1.021-0.176,1.799-1.063,1.799-2.134V21.199c0-2.994-2.427-5.42-5.42-5.42h-3.285h-3.284
		c-2.993,0-5.42,2.426-5.42,5.42v13.033c0,1.073,0.782,1.964,1.809,2.136L9.055,54.722c-0.569,1.348,0.421,2.841,1.885,2.841h8.386
		v7.649c0,1.596,1.293,2.887,2.887,2.887h4.673c1.594,0,2.887-1.291,2.887-2.887v-7.649h8.434c1.473,0,2.468-1.501,1.896-2.857
		L31.454,36.366z M26.289,64.617h-3.481v-7.055h3.481V64.617z M21.264,19.261h6.569c1.069,0,1.938,0.869,1.938,1.938v11.597H19.325
		V21.199C19.325,20.13,20.195,19.261,21.264,19.261 M13.199,54.08l8.283-17.68h6.138l8.336,17.68H13.199z"/>
</g>
</svg>
