<?xml version="1.0" encoding="utf-8"?>
<!-- Generator: Adobe Illustrator 16.0.4, SVG Export Plug-In . SVG Version: 6.00 Build 0)  -->
<!DOCTYPE svg PUBLIC "-//W3C//DTD SVG 1.1//EN" "http://www.w3.org/Graphics/SVG/1.1/DTD/svg11.dtd">
<svg version="1.1" id="Warstwa_1" xmlns="http://www.w3.org/2000/svg" xmlns:xlink="http://www.w3.org/1999/xlink" x="0px" y="0px"
	 width="70px" height="70px" viewBox="0 0 70 70" enable-background="new 0 0 70 70" xml:space="preserve">
<path fill="#E40651" d="M63.953,49.322c-0.736-0.657-1.624-1.004-2.565-1.004c-0.143,0-0.289,0.008-0.431,0.024
	c-0.789,0.09-1.737,0.242-2.972,0.474V20.096c0-2.057-1.674-3.73-3.73-3.73H48.7v-3.298C48.7,8.619,45.08,5,40.631,5
	s-8.067,3.619-8.067,8.067v3.298h-5.556c-2.057,0-3.73,1.673-3.73,3.73v18.386c-2.342,0.424-5.636,1.402-8.286,3.663
	c-0.735,0.627-1.401,1.275-1.981,1.932c-0.627-0.7-1.513-1.099-2.456-1.099h-4.48c-0.831,0-1.505,0.676-1.505,1.507v19.01
	c0,0.401,0.157,0.779,0.441,1.065C5.294,64.844,5.672,65,6.075,65h4.48c1.821,0,3.303-1.482,3.303-3.304v-0.862
	c1.312,0.093,4.337,0.429,10.609,1.606c7.033,1.321,11.993,1.91,16.079,1.91c2.565,0,4.647-0.221,7.174-0.576
	c2.879-0.405,6.492-1.428,9.683-2.33c1.471-0.415,2.858-0.808,4.093-1.12c3.425-0.864,3.937-3.039,3.937-4.258v-3.429
	C65.431,51.389,64.878,50.148,63.953,49.322z M10.845,61.696c0,0.161-0.13,0.292-0.291,0.292H7.581V45.99h2.974
	c0.16,0,0.291,0.13,0.291,0.292V61.696z M35.576,13.067c0-2.788,2.268-5.055,5.056-5.055c2.787,0,5.055,2.267,5.055,5.055v3.298
	h-10.11V13.067z M26.291,20.096c0-0.396,0.321-0.719,0.718-0.719h5.556v2.81c0,0.831,0.676,1.506,1.506,1.506
	c0.831,0,1.505-0.676,1.505-1.506v-2.81h10.111v2.81c0,0.831,0.676,1.506,1.505,1.506c0.832,0,1.508-0.676,1.508-1.506v-2.81h5.555
	c0.396,0,0.719,0.323,0.719,0.719v29.32l-0.483,0.1c-3.258,0.672-6.628,1.367-9.201,1.527c-0.219,0.015-0.463,0.021-0.724,0.021
	c-2.342,0-5.659-0.534-6.697-1.077c-0.566-0.297-1.006-0.668-1.309-1.107h4.725c2.156,0,3.91-1.753,3.91-3.909v-2.945
	c0-2.156-1.754-3.909-3.91-3.909H27.549c-0.056-0.002-0.17-0.005-0.336-0.005c-0.206,0-0.523,0.005-0.922,0.023V20.096z
	 M62.419,56.066c0,0.251,0,0.919-1.661,1.338c-1.29,0.325-2.757,0.741-4.175,1.144c-3.095,0.874-6.602,1.866-9.284,2.244
	c-2.375,0.335-4.334,0.542-6.754,0.542c-3.91,0-8.698-0.572-15.523-1.853c-6.373-1.197-9.579-1.569-11.165-1.665V48.03
	c0.043-0.057,0.08-0.113,0.111-0.171c0.34-0.619,1.178-1.889,2.978-3.424c3.695-3.152,9.242-3.312,10.316-3.312
	c0.123,0,0.192,0.002,0.201,0.002c0.019,0.001,0.038,0.001,0.058,0.001h13.763c0.496,0,0.898,0.403,0.898,0.898v2.945
	c0,0.495-0.402,0.897-0.898,0.897H27.521c-0.831,0-1.506,0.676-1.506,1.507c0,0.829,0.676,1.505,1.506,1.505h5.768
	c0.316,1.152,1.127,2.699,3.182,3.775c1.671,0.876,5.54,1.418,8.168,1.418c0.306,0,0.588-0.009,0.838-0.023
	c2.788-0.174,6.265-0.893,9.636-1.587c2.35-0.485,4.569-0.943,6.186-1.127c0.288-0.032,0.514,0.113,0.648,0.234
	c0.292,0.259,0.473,0.668,0.473,1.067V56.066z"/>
</svg>
