<?xml version="1.0" encoding="UTF-8" standalone="no"?>
<svg width="178px" height="35px" viewBox="0 0 178 35" version="1.1" xmlns="http://www.w3.org/2000/svg" xmlns:xlink="http://www.w3.org/1999/xlink">
    <!-- Generator: Sketch 49.3 (51167) - http://www.bohemiancoding.com/sketch -->
    <title>Logo</title>
    <desc>Created with Sketch.</desc>
    <defs>
        <polygon id="path-1" points="0.61145233 0.196763636 5.15970323 0.196763636 5.15970323 5.09090909 0.61145233 5.09090909"></polygon>
        <polygon id="path-3" points="0 34.5392091 177.755011 34.5392091 177.755011 -6.36363636e-05 0 -6.36363636e-05"></polygon>
    </defs>
    <g id="Symbols" stroke="none" stroke-width="1" fill="none" fill-rule="evenodd">
        <g id="footer" transform="translate(-150.000000, -60.000000)">
            <g id="Logo-Copy" transform="translate(150.000000, 60.000000)">
                <g id="Page-1">
                    <path d="M61.5201814,33.6406 C61.6662817,33.5292364 61.7377369,33.3529636 61.7377369,33.1105091 C61.7377369,32.8655091 61.6662817,32.6847818 61.5201814,32.5683273 C61.374081,32.4518727 61.1437656,32.3939636 60.8311491,32.3939636 L59.6004609,32.3939636 L59.6004609,33.8079636 L60.8311491,33.8079636 C61.1437656,33.8079636 61.374081,33.7519636 61.5201814,33.6406 Z M59.6004609,31.7175091 L60.7163104,31.7175091 C61.3179376,31.7175091 61.6171563,31.4935091 61.6171563,31.0461455 C61.6171563,30.8234182 61.5425111,30.6566909 61.3957728,30.5440545 C61.2477584,30.4326909 61.021271,30.3766909 60.7163104,30.3766909 L59.6004609,30.3766909 L59.6004609,31.7175091 Z M62.3387262,32.4346909 C62.4892925,32.6351455 62.5639376,32.8839636 62.5639376,33.1786 C62.5639376,33.5852364 62.4197513,33.9034182 62.1313785,34.1331455 C61.8423677,34.3641455 61.4404323,34.4793273 60.925572,34.4793273 L58.7544824,34.4793273 L58.7544824,29.7059636 L60.8573068,29.7059636 C61.3504753,29.7059636 61.7377369,29.8166909 62.0203677,30.0381455 C62.3023606,30.2596 62.443357,30.5637818 62.443357,30.9526 C62.443357,31.2026909 62.3770057,31.4203273 62.2455792,31.6067818 C62.1135147,31.7913273 61.9310487,31.9275091 61.6969054,32.0121455 C61.9763462,32.0923273 62.1887978,32.2329636 62.3387262,32.4346909 Z" id="Fill-1" fill="#FEFEFE"></path>
                    <polygon id="Fill-3" fill="#FEFEFE" points="68.7381133 29.7062182 66.7941491 32.5889455 66.7941491 34.4795818 65.9283928 34.4795818 65.9283928 32.5889455 63.9863427 29.7062182 64.9733176 29.7062182 66.357762 31.8647636 67.7492244 29.7062182"></polygon>
                    <path d="M75.4980939,31.8178636 C75.7973125,31.8178636 76.024438,31.7555 76.1781943,31.6326818 C76.3345025,31.5105 76.4110616,31.3323182 76.4110616,31.0994091 C76.4110616,30.8639545 76.3351405,30.6838636 76.1826602,30.5597727 C76.0308179,30.4382273 75.8030545,30.3758636 75.4980939,30.3758636 L74.3879864,30.3758636 L74.3879864,31.8178636 L75.4980939,31.8178636 Z M73.5215921,29.7064091 L75.5982588,29.7064091 C76.113757,29.7064091 76.5144165,29.8305 76.8008753,30.0786818 C77.087972,30.3255909 77.2308824,30.6641364 77.2308824,31.0943182 C77.2308824,31.5232273 77.0860581,31.8624091 76.7976853,32.1131364 C76.5093125,32.3625909 76.109291,32.4885909 75.5982588,32.4885909 L74.3879864,32.4885909 L74.3879864,34.4797727 L73.5215921,34.4797727 L73.5215921,29.7064091 Z" id="Fill-5" fill="#FEFEFE"></path>
                    <path d="M80.0425806,32.6891727 L81.8040789,32.6891727 L80.9242867,30.6445364 L80.0425806,32.6891727 Z M82.5696703,34.4792636 L82.0930896,33.3599 L79.7542079,33.3599 L79.2699713,34.4792636 L78.3971971,34.4792636 L80.5606308,29.7059 L81.2656129,29.7059 L83.4367025,34.4792636 L82.5696703,34.4792636 Z" id="Fill-7" fill="#FEFEFE"></path>
                    <polygon id="Fill-9" fill="#FEFEFE" points="90.8772301 29.7062182 91.7104487 29.7062182 90.0178538 34.4795818 89.3122337 34.4795818 88.1089792 31.0457636 86.8929649 34.4795818 86.1854308 34.4795818 84.5004918 29.7062182 85.3802839 29.7062182 86.5765204 33.2654 87.8193305 29.7062182 88.4381835 29.7062182 89.6541978 33.2927636"></polygon>
                    <polygon id="Fill-11" fill="#FEFEFE" points="93.7469219 34.4789455 93.7469219 29.7055818 96.9464559 29.7055818 96.9464559 30.3890364 94.5935384 30.3890364 94.5935384 31.7094909 96.8048215 31.7094909 96.8048215 32.3942182 94.5935384 32.3942182 94.5935384 33.7961273 96.9464559 33.7961273 96.9464559 34.4789455"></polygon>
                    <polygon id="Fill-13" fill="#FEFEFE" points="100.232183 33.768 102.4709 33.768 102.4709 34.4788182 99.3664265 34.4788182 99.3664265 32.69 98.7475735 33.0438182 98.7475735 32.2935455 99.3664265 31.9378182 99.3664265 29.7054545 100.232183 29.7054545 100.232183 31.4350909 101.482011 30.7172727 101.482011 31.4751818 100.232183 32.1923636"></polygon>
                    <path d="M108.246968,34.3913182 C107.925419,34.2939545 107.652996,34.1526818 107.430337,33.9694091 L107.72509,33.3394091 C107.958595,33.5131364 108.20167,33.6410455 108.454315,33.7244091 C108.708237,33.8071364 108.983849,33.8478636 109.283706,33.8478636 C109.6161,33.8478636 109.873211,33.7905909 110.053125,33.6741364 C110.236229,33.5570455 110.325548,33.3960455 110.325548,33.1847727 C110.325548,33.0065909 110.241971,32.8678636 110.074817,32.7717727 C109.907025,32.6775909 109.62886,32.5859545 109.244151,32.5006818 C108.643799,32.3708636 108.206774,32.2035 107.933713,31.9979545 C107.660014,31.7924091 107.522846,31.4933182 107.522846,31.0994091 C107.522846,30.8200455 107.600043,30.5686818 107.752523,30.3485 C107.904366,30.1308636 108.120645,29.9584091 108.400724,29.8343182 C108.681441,29.7089545 109.004265,29.6453182 109.372387,29.6453182 C109.707333,29.6453182 110.027606,29.6955909 110.329376,29.7955 C110.631785,29.8973182 110.879964,30.0366818 111.073276,30.2155 L110.783627,30.8455 C110.358086,30.5063182 109.886609,30.3370455 109.372387,30.3370455 C109.062961,30.3370455 108.818609,30.4000455 108.638057,30.5279545 C108.460695,30.6552273 108.371376,30.8270455 108.371376,31.0459545 C108.371376,31.2336818 108.450487,31.3775 108.609348,31.4761364 C108.768208,31.5741364 109.040631,31.6664091 109.425978,31.7510455 C109.824724,31.8439545 110.148824,31.9457727 110.400194,32.0558636 C110.651563,32.1646818 110.842961,32.3065909 110.978215,32.4784091 C111.112832,32.6502273 111.179821,32.8659545 111.179821,33.1249545 C111.179821,33.4113182 111.103262,33.6614091 110.951419,33.8726818 C110.798939,34.0845909 110.578194,34.2475 110.293011,34.3645909 C110.005914,34.4810455 109.667778,34.5389545 109.277964,34.5389545 C108.911118,34.5389545 108.565964,34.4899545 108.246968,34.3913182" id="Fill-15" fill="#FEFEFE"></path>
                    <path d="M114.466122,32.6891727 L116.226344,32.6891727 L115.345914,30.6445364 L114.466122,32.6891727 Z M116.991297,34.4792636 L116.514717,33.3599 L114.177111,33.3599 L113.692237,34.4792636 L112.818824,34.4792636 L114.983534,29.7059 L115.689154,29.7059 L117.858968,34.4792636 L116.991297,34.4792636 Z" id="Fill-17" fill="#FEFEFE"></path>
                    <path d="M121.750724,31.8247364 C122.077376,31.8247364 122.319814,31.7630091 122.477398,31.6433727 C122.633068,31.5231 122.712179,31.3391909 122.712179,31.0948273 C122.712179,30.8523727 122.634344,30.6722818 122.479312,30.5539182 C122.324918,30.4349182 122.08248,30.3770091 121.750724,30.3770091 L120.668688,30.3770091 L120.668688,31.8247364 L121.750724,31.8247364 Z M123.759763,34.4796455 L122.846158,34.4796455 L122.234323,32.8900091 C122.179455,32.7417364 122.097154,32.6392818 121.985505,32.5813727 C121.873219,32.5247364 121.728394,32.4941909 121.549118,32.4941909 L120.68081,32.4941909 L120.68081,34.4796455 L119.82271,34.4796455 L119.82271,29.7062818 L121.870029,29.7062818 C122.413599,29.7062818 122.825742,29.8233727 123.107735,30.0613727 C123.38909,30.2987364 123.531362,30.6379182 123.531362,31.0808273 C123.531362,31.3977364 123.447785,31.6669182 123.278717,31.8883727 C123.111563,32.1085545 122.872315,32.2663727 122.563527,32.3611909 C122.846158,32.4184636 123.049677,32.6151 123.174724,32.9504636 L123.759763,34.4796455 Z" id="Fill-19" fill="#FEFEFE"></path>
                    <g id="Group-23" transform="translate(125.046595, 29.448300)">
                        <mask id="mask-2" fill="white">
                            <use xlink:href="#path-1"></use>
                        </mask>
                        <g id="Clip-22"></g>
                        <path d="M3.92391111,3.94430909 C4.17081434,3.64012727 4.29330896,3.20485455 4.29330896,2.63658182 C4.29330896,2.07467273 4.17081434,1.64258182 3.92391111,1.33967273 C3.67636989,1.03930909 3.33249176,0.887854545 2.88844875,0.887854545 C2.44504373,0.887854545 2.1005276,1.0374 1.85490036,1.33649091 C1.60672115,1.63621818 1.48422652,2.07021818 1.48422652,2.63658182 C1.48422652,3.20485455 1.60672115,3.64012727 1.85490036,3.94430909 C2.1005276,4.24912727 2.44504373,4.40058182 2.88844875,4.40058182 C3.33249176,4.40058182 3.67636989,4.24912727 3.92391111,3.94430909 M1.6820043,4.79194545 C1.34067814,4.59403636 1.07527312,4.30894545 0.890255197,3.94112727 C0.70396129,3.57267273 0.61145233,3.1374 0.61145233,2.63658182 C0.61145233,2.14085455 0.702685305,1.70812727 0.88642724,1.33967273 C1.06889319,0.971218182 1.33366022,0.689945455 1.67626237,0.492036364 C2.01886452,0.296672727 2.42271398,0.196763636 2.88844875,0.196763636 C3.35418351,0.196763636 3.75867097,0.296672727 4.10127312,0.492036364 C4.44259928,0.689945455 4.70736631,0.971218182 4.88855627,1.33967273 C5.06910824,1.70812727 5.15970323,2.14085455 5.15970323,2.63658182 C5.15970323,3.1374 5.06910824,3.57267273 4.88536631,3.94112727 C4.70098638,4.30894545 4.43940932,4.59403636 4.09744516,4.79194545 C3.75803297,4.99176364 3.35418351,5.09103636 2.88844875,5.09103636 C2.42654194,5.09103636 2.02396846,4.99176364 1.6820043,4.79194545" id="Fill-21" fill="#FEFEFE" mask="url(#mask-2)"></path>
                    </g>
                    <polygon id="Fill-24" fill="#FEFEFE" points="133.478819 34.4789455 133.478819 30.4157636 131.919564 30.4157636 131.919564 29.7055818 135.918503 29.7055818 135.918503 30.4157636 134.351593 30.4157636 134.351593 34.4789455"></polygon>
                    <path d="M138.517941,32.6891727 L140.278801,32.6891727 L139.399647,30.6445364 L138.517941,32.6891727 Z M141.044393,34.4792636 L140.567812,33.3599 L138.230206,33.3599 L137.745332,34.4792636 L136.87192,34.4792636 L139.035991,29.7059 L139.740973,29.7059 L141.912063,34.4792636 L141.044393,34.4792636 Z" id="Fill-26" fill="#FEFEFE"></path>
                    <mask id="mask-4" fill="white">
                        <use xlink:href="#path-3"></use>
                    </mask>
                    <g id="Clip-29"></g>
                    <polygon id="Fill-28" fill="#FEFEFE" mask="url(#mask-4)" points="58.914172 24.7856636 60.2112115 24.7856636 60.2112115 8.75693636 58.914172 8.75693636"></polygon>
                    <polygon id="Fill-30" fill="#FEFEFE" mask="url(#mask-4)" points="67.1194616 8.75719091 67.1194616 24.7859182 68.4184151 24.7859182 68.4184151 10.6134636 78.8106803 24.7859182 80.2818918 24.7859182 80.2818918 8.75719091 79.0065441 8.75719091 79.0065441 22.9277364 68.5906731 8.75719091"></polygon>
                    <path d="M95.8216746,16.5731364 C95.2876746,17.0637727 94.532929,17.3113182 93.5784918,17.3113182 L90.5397319,17.3113182 L90.5397319,11.6470455 L93.5784918,11.6470455 C94.532291,11.6470455 95.2863986,11.8914091 95.8203986,12.3731364 C96.3639685,12.8612273 96.6395814,13.5586818 96.6395814,14.4445 C96.6395814,15.3602273 96.3646065,16.0767727 95.8216746,16.5731364 M98.4565849,10.2992273 C97.3656172,9.35104545 95.7955168,8.86995455 93.7877534,8.86995455 L86.8872229,8.86995455 L86.8872229,24.6269545 L90.5397319,24.6269545 L90.5397319,20.0903182 L93.7877534,20.0903182 C95.7904129,20.0903182 97.3585993,19.5805909 98.448929,18.5738636 C99.5309649,17.5728636 100.080915,16.1359545 100.080915,14.3045 C100.080915,12.5831364 99.5341548,11.2359545 98.4565849,10.2992273" id="Fill-31" fill="#FEFEFE" mask="url(#mask-4)"></path>
                    <polygon id="Fill-32" fill="#FEFEFE" mask="url(#mask-4)" points="108.293669 8.86995455 104.64116 8.86995455 104.64116 24.6269545 108.293669 24.6269545 108.293669 18.3352273 115.566787 18.3352273 115.566787 24.6269545 119.220572 24.6269545 119.220572 8.86995455 115.566787 8.86995455 115.566787 15.5575 108.293669 15.5575"></polygon>
                    <path d="M136.805824,19.3516273 C136.389852,20.1394455 135.811193,20.7700818 135.087071,21.2263545 C134.360397,21.6858091 133.549508,21.9180818 132.677372,21.9180818 C131.806512,21.9180818 130.993071,21.6858091 130.258741,21.2269909 C129.528239,20.7719909 128.934906,20.1432636 128.496605,19.3586273 C128.057028,18.5733545 127.83373,17.6913545 127.83373,16.7361727 C127.83373,15.7981727 128.052562,14.9238091 128.483207,14.1391727 C128.915128,13.3513545 129.509738,12.7251727 130.252361,12.2784455 C131.741437,11.3773545 133.632447,11.3799 135.085157,12.2803545 C135.810555,12.7296273 136.389852,13.3564455 136.805824,14.1429909 C137.218605,14.9289 137.428505,15.8007182 137.428505,16.7361727 C137.428505,17.6881727 137.218605,18.5682636 136.805824,19.3516273 M137.016361,9.67317273 C135.718046,8.96935455 134.242368,8.61235455 132.631437,8.61235455 C131.019867,8.61235455 129.544827,8.96935455 128.248426,9.67317273 C126.952662,10.3750818 125.92039,11.3506273 125.178404,12.5743545 C124.438971,13.7980818 124.063831,15.1917182 124.063831,16.7132636 C124.063831,18.2513545 124.439609,19.6640818 125.180318,20.9119909 C125.921028,22.1586273 126.953938,23.1507182 128.249064,23.8596273 C129.546103,24.5704455 131.020505,24.9319 132.631437,24.9319 C134.239816,24.9319 135.714218,24.5666273 137.014447,23.8475364 C138.308935,23.1309909 139.342483,22.1395364 140.083193,20.8999 C140.823265,19.6577182 141.199042,18.2500818 141.199042,16.7132636 C141.199042,15.1923545 140.823903,13.7993545 140.083831,12.5737182 C139.343759,11.3512636 138.311487,10.3750818 137.016361,9.67317273" id="Fill-33" fill="#FEFEFE" mask="url(#mask-4)"></path>
                    <polygon id="Fill-34" fill="#FEFEFE" mask="url(#mask-4)" points="149.059816 24.6265091 152.713601 24.6265091 152.713601 11.7649636 157.636353 11.7649636 157.636353 8.86950909 144.181723 8.86950909 144.181723 11.7649636 149.059816 11.7649636"></polygon>
                    <path d="M173.362111,19.3516273 C172.948692,20.1375364 172.37067,20.7688091 171.64591,21.2263545 C170.917961,21.6851727 170.106434,21.9180818 169.235573,21.9180818 C168.364075,21.9180818 167.549996,21.6858091 166.815029,21.2276273 C166.086441,20.7732636 165.493108,20.1445364 165.052892,19.3586273 C164.613315,18.5727182 164.390656,17.6907182 164.390656,16.7361727 C164.390656,15.7988091 164.608849,14.9250818 165.039495,14.1391727 C165.469502,13.3539 166.064111,12.7277182 166.806735,12.2784455 C168.296448,11.3773545 170.186183,11.3786273 171.643358,12.2797182 C172.370032,12.7309 172.948692,13.3583545 173.362111,14.1436273 C173.774892,14.9276273 173.98543,15.8000818 173.98543,16.7361727 C173.98543,17.6881727 173.774892,18.5689 173.362111,19.3516273 M176.640118,12.5737182 C175.900685,11.3519 174.868412,10.3757182 173.572011,9.67317273 C172.273695,8.96871818 170.798656,8.61171818 169.189,8.61171818 C167.576792,8.61171818 166.101115,8.96871818 164.804075,9.67253636 C163.508312,10.3750818 162.476039,11.3512636 161.73533,12.5737182 C160.995896,13.7974455 160.620756,15.1904455 160.620756,16.7132636 C160.620756,18.2519909 160.996534,19.6653545 161.736606,20.9119909 C162.476677,22.1579909 163.509588,23.1494455 164.805351,23.8596273 C166.102391,24.5704455 167.57743,24.9312636 169.189,24.9312636 C170.796104,24.9312636 172.269867,24.5666273 173.570097,23.8481727 C174.866498,23.1303545 175.899409,22.1382636 176.63948,20.9005364 C177.379552,19.6602636 177.75533,18.2513545 177.75533,16.7132636 C177.75533,15.1904455 177.38019,13.7974455 176.640118,12.5737182" id="Fill-35" fill="#FEFEFE" mask="url(#mask-4)"></path>
                    <path d="M40.4764344,8.70653636 C38.2830151,8.70653636 36.2210222,9.55926364 34.6700616,11.1069 L24.9055814,20.8451727 C23.8503412,21.8977182 22.445481,22.4780818 20.9493878,22.4780818 C19.4526566,22.4780818 18.0477964,21.8977182 16.9919183,20.8451727 C15.9354022,19.7919909 15.3529147,18.3900818 15.3522767,16.8984455 C15.3529147,15.4080818 15.9354022,14.0061727 16.9919183,12.9517182 C18.0477964,11.8998091 19.4526566,11.3194455 20.9493878,11.3194455 C22.445481,11.3194455 23.8503412,11.8991727 24.9055814,12.9510818 L26.5158753,14.5591727 L28.3673305,12.7149909 L26.7557606,11.1062636 C25.2048,9.55926364 23.1428072,8.70717273 20.9513018,8.70717273 C18.7540545,8.70717273 16.6933376,9.55926364 15.1417391,11.1069 C13.5888645,12.6545364 12.7352301,14.7112636 12.7365061,16.8984455 C12.7365061,19.0856273 13.5901405,21.1423545 15.1417391,22.6912636 C16.6901477,24.2357182 18.7527785,25.0865364 20.9493878,25.0865364 C23.1447211,25.0865364 25.207352,24.2357182 26.7557606,22.6912636 L36.5202409,12.9517182 C37.578033,11.8972636 38.9828932,11.3162636 40.4764344,11.3162636 C41.9712516,11.3162636 43.3761118,11.8972636 44.432628,12.9510818 C45.4910581,14.0068091 46.0729075,15.4087182 46.0729075,16.8997182 C46.0722695,18.3926273 45.4891441,19.7932636 44.432628,20.8451727 C43.3773878,21.8996273 41.9731656,22.4806273 40.4777104,22.4806273 C38.9822552,22.4806273 37.577395,21.9002636 36.5208789,20.8470818 L34.9239828,19.2542636 L33.0738036,21.0997182 L34.6700616,22.6919 C36.2191082,24.2357182 38.2817391,25.0865364 40.4770724,25.0865364 C42.6730437,25.0865364 44.7356746,24.2357182 46.2840832,22.6912636 C49.4848932,19.4973545 49.4848932,14.3014455 46.2847211,11.1069 C44.7337606,9.5599 42.6698538,8.70717273 40.4764344,8.70653636" id="Fill-36" fill="#FEFEFE" mask="url(#mask-4)"></path>
                    <polygon id="Fill-37" fill="#F89F03" mask="url(#mask-4)" points="2.4921914 5.40660909 15.2979835 5.40660909 15.2979835 2.48697273 26.5100695 2.48697273 26.5100695 5.40660909 41.8008437 5.40660909 41.8008437 2.91906364 29.0014315 2.91906364 29.0014315 6.36363636e-05 12.8040695 6.36363636e-05 12.8040695 2.91906364 0.000191397849 2.91906364 0.000191397849 30.8197909 41.8008437 30.8197909 41.8008437 28.3328818 2.4921914 28.3328818"></polygon>
                </g>
            </g>
        </g>
    </g>
</svg>