<?xml version="1.0" encoding="UTF-8" standalone="no"?>
<svg width="200px" height="39px" viewBox="0 0 200 39" version="1.1" xmlns="http://www.w3.org/2000/svg" xmlns:xlink="http://www.w3.org/1999/xlink">
    <!-- Generator: Sketch 49.3 (51167) - http://www.bohemiancoding.com/sketch -->
    <title>Logo</title>
    <desc>Created with Sketch.</desc>
    <defs>
        <polygon id="path-1" points="0.68702509 0.219250909 5.79741935 0.219250909 5.79741935 5.67272727 0.68702509 5.67272727"></polygon>
        <polygon id="path-3" points="0 38.4865473 199.724731 38.4865473 199.724731 -7.09090909e-05 0 -7.09090909e-05"></polygon>
    </defs>
    <g id="Page-1" stroke="none" stroke-width="1" fill="none" fill-rule="evenodd">
        <g id="Home" transform="translate(-28.000000, -22.000000)">
            <g id="Logo-Copy" transform="translate(28.000000, 22.000000)">
                <g id="Page-1">
                    <path d="M69.1237993,37.48524 C69.287957,37.3611491 69.3682437,37.1647309 69.3682437,36.8945673 C69.3682437,36.6215673 69.287957,36.4201855 69.1237993,36.2904218 C68.9596416,36.1606582 68.7008602,36.0961309 68.3496057,36.0961309 L66.96681,36.0961309 L66.96681,37.6717309 L68.3496057,37.6717309 C68.7008602,37.6717309 68.9596416,37.6093309 69.1237993,37.48524 Z M66.96681,35.3423673 L68.2205735,35.3423673 C68.8965591,35.3423673 69.2327599,35.0927673 69.2327599,34.5942764 C69.2327599,34.3460945 69.1488889,34.1603127 68.9840143,34.0348036 C68.8177061,33.9107127 68.5632258,33.8483127 68.2205735,33.8483127 L66.96681,33.8483127 L66.96681,35.3423673 Z M70.0435125,36.1415127 C70.2126882,36.3648764 70.2965591,36.6421309 70.2965591,36.97044 C70.2965591,37.4235491 70.134552,37.7780945 69.8105376,38.0340764 C69.4858065,38.2914764 69.0341935,38.4198218 68.4556989,38.4198218 L66.0162724,38.4198218 L66.0162724,33.1009309 L68.3789964,33.1009309 C68.9331183,33.1009309 69.3682437,33.2243127 69.6858065,33.4710764 C70.0026523,33.71784 70.1610753,34.0567855 70.1610753,34.49004 C70.1610753,34.7687127 70.0865233,35.0112218 69.938853,35.2189855 C69.7904659,35.4246218 69.585448,35.5763673 69.3223656,35.6706764 C69.6363441,35.7600218 69.8750538,35.9167309 70.0435125,36.1415127 Z" id="Fill-1" fill="#FEFEFE"></path>
                    <polygon id="Fill-3" fill="#FEFEFE" points="77.2338351 33.1012145 75.0496057 36.3133964 75.0496057 38.4201055 74.0768459 38.4201055 74.0768459 36.3133964 71.894767 33.1012145 73.0037276 33.1012145 74.5592832 35.5064509 76.122724 33.1012145"></polygon>
                    <path d="M84.829319,35.4541909 C85.1655197,35.4541909 85.4207168,35.3847 85.5934767,35.2478455 C85.7691039,35.1117 85.8551254,34.9131545 85.8551254,34.6536273 C85.8551254,34.3912636 85.7698208,34.1905909 85.5984946,34.0523182 C85.4278853,33.9168818 85.1719713,33.8473909 84.829319,33.8473909 L83.5820072,33.8473909 L83.5820072,35.4541909 L84.829319,35.4541909 Z M82.6085305,33.1014273 L84.9418638,33.1014273 C85.5210753,33.1014273 85.9712545,33.2397 86.2931183,33.5162455 C86.6156989,33.7913727 86.7762724,34.1686091 86.7762724,34.6479545 C86.7762724,35.1258818 86.6135484,35.5038273 86.2895341,35.7832091 C85.9655197,36.0611727 85.5160573,36.2015727 84.9418638,36.2015727 L83.5820072,36.2015727 L83.5820072,38.4203182 L82.6085305,38.4203182 L82.6085305,33.1014273 Z" id="Fill-5" fill="#FEFEFE"></path>
                    <path d="M89.9354839,36.4250782 L91.9146953,36.4250782 L90.9261649,34.1467691 L89.9354839,36.4250782 Z M92.7749104,38.4197509 L92.2394265,37.17246 L89.6114695,37.17246 L89.0673835,38.4197509 L88.0867384,38.4197509 L90.5175627,33.10086 L91.3096774,33.10086 L93.7491039,38.4197509 L92.7749104,38.4197509 Z" id="Fill-7" fill="#FEFEFE"></path>
                    <polygon id="Fill-9" fill="#FEFEFE" points="102.109247 33.1012145 103.045448 33.1012145 101.143656 38.4201055 100.350824 38.4201055 98.998853 34.5938509 97.6325448 38.4201055 96.8375627 38.4201055 94.9443728 33.1012145 95.9329032 33.1012145 97.2769892 37.06716 98.673405 33.1012145 99.3687455 33.1012145 100.735054 37.0976509"></polygon>
                    <polygon id="Fill-11" fill="#FEFEFE" points="105.33362 38.4193964 105.33362 33.1005055 108.928602 33.1005055 108.928602 33.8620691 106.284875 33.8620691 106.284875 35.3334327 108.769462 35.3334327 108.769462 36.0964145 106.284875 36.0964145 106.284875 37.6585418 108.928602 37.6585418 108.928602 38.4193964"></polygon>
                    <polygon id="Fill-13" fill="#FEFEFE" points="112.62043 37.6272 115.135842 37.6272 115.135842 38.4192545 111.64767 38.4192545 111.64767 36.426 110.95233 36.8202545 110.95233 35.9842364 111.64767 35.5878545 111.64767 33.1003636 112.62043 33.1003636 112.62043 35.0276727 114.024731 34.2278182 114.024731 35.0723455 112.62043 35.8714909"></polygon>
                    <path d="M121.625806,38.3217545 C121.264516,38.2132636 120.958423,38.0558455 120.708244,37.8516273 L121.039427,37.1496273 C121.301792,37.3432091 121.57491,37.4857364 121.858781,37.5786273 C122.144086,37.6708091 122.453763,37.7161909 122.790681,37.7161909 C123.164158,37.7161909 123.453047,37.6523727 123.655197,37.5226091 C123.860932,37.3921364 123.96129,37.2127364 123.96129,36.9773182 C123.96129,36.7787727 123.867384,36.6241909 123.67957,36.5171182 C123.491039,36.4121727 123.178495,36.3100636 122.746237,36.2150455 C122.071685,36.0703909 121.580645,35.8839 121.273835,35.6548636 C120.966308,35.4258273 120.812186,35.0925545 120.812186,34.6536273 C120.812186,34.3423364 120.898925,34.0622455 121.070251,33.8169 C121.24086,33.5743909 121.483871,33.3822273 121.798566,33.2439545 C122.113978,33.1042636 122.476703,33.0333545 122.890323,33.0333545 C123.266667,33.0333545 123.626523,33.0893727 123.965591,33.2007 C124.305376,33.3141545 124.584229,33.4694455 124.801434,33.6687 L124.475986,34.3707 C123.997849,33.9927545 123.4681,33.8041364 122.890323,33.8041364 C122.542652,33.8041364 122.2681,33.8743364 122.065233,34.0168636 C121.86595,34.1586818 121.765591,34.3501364 121.765591,34.5940636 C121.765591,34.8032455 121.85448,34.9635 122.032975,35.0734091 C122.21147,35.1826091 122.517563,35.2854273 122.950538,35.3797364 C123.398566,35.4832636 123.762724,35.5967182 124.045161,35.7193909 C124.327599,35.8406455 124.542652,35.9987727 124.694624,36.1902273 C124.845878,36.3816818 124.921147,36.6220636 124.921147,36.9106636 C124.921147,37.2297545 124.835125,37.5084273 124.664516,37.7438455 C124.49319,37.9799727 124.245161,38.1615 123.924731,38.2919727 C123.602151,38.4217364 123.222222,38.4862636 122.784229,38.4862636 C122.372043,38.4862636 121.984229,38.4316636 121.625806,38.3217545" id="Fill-15" fill="#FEFEFE"></path>
                    <path d="M128.61362,36.4250782 L130.591398,36.4250782 L129.602151,34.1467691 L128.61362,36.4250782 Z M131.450896,38.4197509 L130.915412,37.17246 L128.288889,37.17246 L127.744086,38.4197509 L126.762724,38.4197509 L129.194982,33.10086 L129.987814,33.10086 L132.425806,38.4197509 L131.450896,38.4197509 Z" id="Fill-17" fill="#FEFEFE"></path>
                    <path d="M136.798566,35.4618491 C137.165591,35.4618491 137.437993,35.3930673 137.615054,35.2597582 C137.789964,35.12574 137.878853,34.9208127 137.878853,34.6485218 C137.878853,34.3783582 137.791398,34.1776855 137.617204,34.0457945 C137.443728,33.9131945 137.171326,33.8486673 136.798566,33.8486673 L135.582796,33.8486673 L135.582796,35.4618491 L136.798566,35.4618491 Z M139.055914,38.4201764 L138.029391,38.4201764 L137.341935,36.6488673 C137.280287,36.4836491 137.187814,36.3694855 137.062366,36.3049582 C136.936201,36.2418491 136.773477,36.2078127 136.572043,36.2078127 L135.596416,36.2078127 L135.596416,38.4201764 L134.632258,38.4201764 L134.632258,33.1012855 L136.932616,33.1012855 C137.543369,33.1012855 138.006452,33.2317582 138.323297,33.4969582 C138.639427,33.7614491 138.799283,34.1393945 138.799283,34.6329218 C138.799283,34.9860491 138.705376,35.2859945 138.515412,35.5327582 C138.327599,35.7781036 138.058781,35.9539582 137.711828,36.0596127 C138.029391,36.1234309 138.258065,36.34254 138.398566,36.7162309 L139.055914,38.4201764 Z" id="Fill-19" fill="#FEFEFE"></path>
                    <g id="Group-23" transform="translate(140.501792, 32.813820)">
                        <mask id="mask-2" fill="white">
                            <use xlink:href="#path-1"></use>
                        </mask>
                        <g id="Clip-22"></g>
                        <path d="M4.40888889,4.39508727 C4.68630824,4.05614182 4.82394265,3.57112364 4.82394265,2.93790545 C4.82394265,2.31177818 4.68630824,1.83030545 4.40888889,1.49277818 C4.13075269,1.15808727 3.74437276,0.989323636 3.24544803,0.989323636 C2.74724014,0.989323636 2.36014337,1.15596 2.08415771,1.48923273 C1.80530466,1.82321455 1.66767025,2.30681455 1.66767025,2.93790545 C1.66767025,3.57112364 1.80530466,4.05614182 2.08415771,4.39508727 C2.36014337,4.73474182 2.74724014,4.90350545 3.24544803,4.90350545 C3.74437276,4.90350545 4.13075269,4.73474182 4.40888889,4.39508727 M1.88989247,5.33959636 C1.50637993,5.11906909 1.20817204,4.80139636 1.00028674,4.39154182 C0.790967742,3.98097818 0.68702509,3.49596 0.68702509,2.93790545 C0.68702509,2.38552364 0.78953405,1.90334182 0.995985663,1.49277818 C1.20100358,1.08221455 1.49849462,0.768796364 1.88344086,0.548269091 C2.2683871,0.330578182 2.72215054,0.219250909 3.24544803,0.219250909 C3.76874552,0.219250909 4.22322581,0.330578182 4.60817204,0.548269091 C4.99168459,0.768796364 5.28917563,1.08221455 5.49275986,1.49277818 C5.69562724,1.90334182 5.79741935,2.38552364 5.79741935,2.93790545 C5.79741935,3.49596 5.69562724,3.98097818 5.48917563,4.39154182 C5.28200717,4.80139636 4.98810036,5.11906909 4.60387097,5.33959636 C4.22250896,5.56225091 3.76874552,5.67286909 3.24544803,5.67286909 C2.72645161,5.67286909 2.27412186,5.56225091 1.88989247,5.33959636" id="Fill-21" fill="#FEFEFE" mask="url(#mask-2)"></path>
                    </g>
                    <polygon id="Fill-24" fill="#FEFEFE" points="149.976201 38.4193964 149.976201 33.8918509 148.224229 33.8918509 148.224229 33.1005055 152.717419 33.1005055 152.717419 33.8918509 150.956846 33.8918509 150.956846 38.4193964"></polygon>
                    <path d="M155.638136,36.4250782 L157.616631,36.4250782 L156.628817,34.1467691 L155.638136,36.4250782 Z M158.476846,38.4197509 L157.941362,37.17246 L155.314839,37.17246 L154.770036,38.4197509 L153.788674,38.4197509 L156.220215,33.10086 L157.01233,33.10086 L159.451756,38.4197509 L158.476846,38.4197509 Z" id="Fill-26" fill="#FEFEFE"></path>
                    <mask id="mask-4" fill="white">
                        <use xlink:href="#path-3"></use>
                    </mask>
                    <g id="Clip-29"></g>
                    <polygon id="Fill-28" fill="#FEFEFE" mask="url(#mask-4)" points="66.1956989 27.6183109 67.6530466 27.6183109 67.6530466 9.75772909 66.1956989 9.75772909"></polygon>
                    <polygon id="Fill-30" fill="#FEFEFE" mask="url(#mask-4)" points="75.4151254 9.75801273 75.4151254 27.6185945 76.8746237 27.6185945 76.8746237 11.8264309 88.5513262 27.6185945 90.2043728 27.6185945 90.2043728 9.75801273 88.7713978 9.75801273 88.7713978 25.5480491 77.068172 9.75801273"></polygon>
                    <path d="M107.664803,18.4672091 C107.064803,19.0139182 106.216774,19.2897545 105.144373,19.2897545 L101.730036,19.2897545 L101.730036,12.9781364 L105.144373,12.9781364 C106.216057,12.9781364 107.063369,13.2504273 107.663369,13.7872091 C108.274122,14.3310818 108.583799,15.1082455 108.583799,16.0953 C108.583799,17.1156818 108.274839,17.9141182 107.664803,18.4672091 M110.625376,11.4762818 C109.39957,10.4197364 107.635412,9.88366364 105.379498,9.88366364 L97.6260932,9.88366364 L97.6260932,27.4414636 L101.730036,27.4414636 L101.730036,22.3863545 L105.379498,22.3863545 C107.629677,22.3863545 109.391685,21.8183727 110.616774,20.6965909 C111.832545,19.5811909 112.450466,17.9800636 112.450466,15.9393 C112.450466,14.0212091 111.836129,12.5200636 110.625376,11.4762818" id="Fill-31" fill="#FEFEFE" mask="url(#mask-4)"></path>
                    <polygon id="Fill-32" fill="#FEFEFE" mask="url(#mask-4)" points="121.67828 9.88366364 117.574337 9.88366364 117.574337 27.4414636 121.67828 27.4414636 121.67828 20.4306818 129.850323 20.4306818 129.850323 27.4414636 133.955699 27.4414636 133.955699 9.88366364 129.850323 9.88366364 129.850323 17.3355 121.67828 17.3355"></polygon>
                    <path d="M153.714409,21.5632418 C153.247025,22.4410964 152.596846,23.1438055 151.783226,23.6522236 C150.966738,24.1641873 150.055627,24.4230055 149.075699,24.4230055 C148.097204,24.4230055 147.183226,24.1641873 146.358136,23.6529327 C145.537348,23.1459327 144.870681,22.4453509 144.378208,21.5710418 C143.884301,20.6960236 143.633405,19.7132236 143.633405,18.6488782 C143.633405,17.6036782 143.879283,16.6293873 144.363154,15.7550782 C144.848459,14.8772236 145.516559,14.1794782 146.350968,13.6816964 C148.024086,12.6776236 150.148817,12.68046 151.781075,13.6838236 C152.596129,14.1844418 153.247025,14.8828964 153.714409,15.7593327 C154.178208,16.63506 154.41405,17.6065145 154.41405,18.6488782 C154.41405,19.7096782 154.178208,20.6903509 153.714409,21.5632418 M153.950968,10.7786782 C152.492186,9.99442364 150.834122,9.59662364 149.024086,9.59662364 C147.213333,9.59662364 145.555986,9.99442364 144.099355,10.7786782 C142.643441,11.5608055 141.483584,12.6478418 140.649892,14.0114236 C139.819068,15.3750055 139.397563,16.9279145 139.397563,18.6233509 C139.397563,20.3372236 139.819785,21.9114055 140.652043,23.3019327 C141.484301,24.6910418 142.644875,25.7965145 144.100072,26.5864418 C145.557419,27.3784964 147.21405,27.78126 149.024086,27.78126 C150.831254,27.78126 152.487885,27.3742418 153.948817,26.5729691 C155.403297,25.7745327 156.564588,24.6697691 157.396846,23.28846 C158.228387,21.9043145 158.650609,20.3358055 158.650609,18.6233509 C158.650609,16.9286236 158.229104,15.3764236 157.397563,14.0107145 C156.566022,12.6485509 155.406165,11.5608055 153.950968,10.7786782" id="Fill-33" fill="#FEFEFE" mask="url(#mask-4)"></path>
                    <polygon id="Fill-34" fill="#FEFEFE" mask="url(#mask-4)" points="167.482939 27.4409673 171.588315 27.4409673 171.588315 13.1095309 177.119498 13.1095309 177.119498 9.88316727 162.001935 9.88316727 162.001935 13.1095309 167.482939 13.1095309"></polygon>
                    <path d="M194.788889,21.5632418 C194.324373,22.4389691 193.67491,23.1423873 192.860573,23.6522236 C192.042652,24.1634782 191.130824,24.4230055 190.15233,24.4230055 C189.173118,24.4230055 188.258423,24.1641873 187.432616,23.6536418 C186.613978,23.1473509 185.947312,22.4467691 185.452688,21.5710418 C184.958781,20.6953145 184.708602,19.7125145 184.708602,18.6488782 C184.708602,17.6043873 184.953763,16.6308055 185.437634,15.7550782 C185.920789,14.88006 186.588889,14.1823145 187.423297,13.6816964 C189.097133,12.6776236 191.22043,12.6790418 192.857706,13.6831145 C193.674194,14.18586 194.324373,14.8850236 194.788889,15.7600418 C195.252688,16.6336418 195.489247,17.6058055 195.489247,18.6488782 C195.489247,19.7096782 195.252688,20.69106 194.788889,21.5632418 M198.472043,14.0107145 C197.641219,12.64926 196.481362,11.5615145 195.024731,10.7786782 C193.56595,9.99371455 191.908602,9.59591455 190.1,9.59591455 C188.28853,9.59591455 186.630466,9.99371455 185.173118,10.7779691 C183.717204,11.5608055 182.557348,12.6485509 181.72509,14.0107145 C180.894265,15.3742964 180.47276,16.9264964 180.47276,18.6233509 C180.47276,20.3379327 180.894982,21.9128236 181.726523,23.3019327 C182.558065,24.6903327 183.718638,25.7950964 185.174552,26.5864418 C186.6319,27.3784964 188.289247,27.7805509 190.1,27.7805509 C191.905735,27.7805509 193.561649,27.3742418 195.022581,26.5736782 C196.479211,25.7738236 197.639785,24.6683509 198.471326,23.2891691 C199.302867,21.9071509 199.72509,20.3372236 199.72509,18.6233509 C199.72509,16.9264964 199.303584,15.3742964 198.472043,14.0107145" id="Fill-35" fill="#FEFEFE" mask="url(#mask-4)"></path>
                    <path d="M45.4791398,9.70156909 C43.0146237,9.70156909 40.6977778,10.6517509 38.9551254,12.37626 L27.9837993,23.2274782 C26.7981362,24.4003145 25.2196416,25.0470055 23.538638,25.0470055 C21.8569176,25.0470055 20.2784229,24.4003145 19.092043,23.2274782 C17.9049462,22.0539327 17.2504659,20.4918055 17.2497491,18.8296964 C17.2504659,17.1690055 17.9049462,15.6068782 19.092043,14.4319145 C20.2784229,13.2597873 21.8569176,12.6130964 23.538638,12.6130964 C25.2196416,12.6130964 26.7981362,13.2590782 27.9837993,14.4312055 L29.7931183,16.2230782 L31.873405,14.1681327 L30.0626523,12.3755509 C28.32,10.6517509 26.0031541,9.70227818 23.5407885,9.70227818 C21.0719713,9.70227818 18.7565591,10.6517509 17.01319,12.37626 C15.2683871,14.1007691 14.3092473,16.3925509 14.310681,18.8296964 C14.310681,21.2668418 15.2698208,23.5586236 17.01319,25.2845509 C18.7529749,27.0055145 21.0705376,27.9535691 23.538638,27.9535691 C26.0053047,27.9535691 28.3228674,27.0055145 30.0626523,25.2845509 L41.0339785,14.4319145 C42.222509,13.2569509 43.8010036,12.6095509 45.4791398,12.6095509 C47.1587097,12.6095509 48.7372043,13.2569509 49.9243011,14.4312055 C51.1135484,15.6075873 51.7673118,17.1697145 51.7673118,18.8311145 C51.766595,20.4946418 51.1113978,22.0553509 49.9243011,23.2274782 C48.738638,24.4024418 47.1608602,25.0498418 45.4805735,25.0498418 C43.8002867,25.0498418 42.2217921,24.4031509 41.0346953,23.2296055 L39.2404301,21.4547509 L37.1615771,23.5111145 L38.9551254,25.28526 C40.6956272,27.0055145 43.01319,27.9535691 45.4798566,27.9535691 C47.9472401,27.9535691 50.2648029,27.0055145 52.0045878,25.2845509 C55.6010036,21.7256236 55.6010036,15.9358964 52.0053047,12.37626 C50.2626523,10.65246 47.9436559,9.70227818 45.4791398,9.70156909" id="Fill-36" fill="#FEFEFE" mask="url(#mask-4)"></path>
                    <polygon id="Fill-37" fill="#F89F03" mask="url(#mask-4)" points="2.80021505 6.02450727 17.1887455 6.02450727 17.1887455 2.77119818 29.786595 2.77119818 29.786595 6.02450727 46.9672401 6.02450727 46.9672401 3.25267091 32.5858781 3.25267091 32.5858781 7.09090909e-05 14.386595 7.09090909e-05 14.386595 3.25267091 0.000215053763 3.25267091 0.000215053763 34.3420527 46.9672401 34.3420527 46.9672401 31.5709255 2.80021505 31.5709255"></polygon>
                </g>
            </g>
        </g>
    </g>
</svg>