<?xml version="1.0" encoding="UTF-8" standalone="no"?>
<svg width="13px" height="13px" viewBox="0 0 13 13" version="1.1" xmlns="http://www.w3.org/2000/svg" xmlns:xlink="http://www.w3.org/1999/xlink">
    <!-- Generator: Sketch 49.3 (51167) - http://www.bohemiancoding.com/sketch -->
    <title>Group 3</title>
    <desc>Created with Sketch.</desc>
    <defs></defs>
    <g id="Page-1" stroke="none" stroke-width="1" fill="none" fill-rule="evenodd">
        <g id="Home-Copy-34" transform="translate(-1260.000000, -38.000000)" fill="#F89F03">
            <g id="Group-2" transform="translate(429.000000, 0.000000)">
                <g id="Group-3" transform="translate(830.000000, 37.000000)">
                    <path d="M13.4516129,6 L0.548387097,6 C-0.303225806,6 -1,6.50625 -1,7.125 C-1,7.74375 -0.303225806,8.25 0.548387097,8.25 L13.4516129,8.25 C14.3032258,8.25 15,7.74375 15,7.125 C15,6.50625 14.3032258,6 13.4516129,6" id="Fill-3" transform="translate(7.000000, 7.125000) rotate(-45.000000) translate(-7.000000, -7.125000) "></path>
                    <path d="M13.7167779,6.10983496 L0.81355214,6.10983496 C-0.0380607635,6.10983496 -0.734834957,6.61608496 -0.734834957,7.23483496 C-0.734834957,7.85358496 -0.0380607635,8.35983496 0.81355214,8.35983496 L13.7167779,8.35983496 C14.5683908,8.35983496 15.265165,7.85358496 15.265165,7.23483496 C15.265165,6.61608496 14.5683908,6.10983496 13.7167779,6.10983496" id="Fill-3" transform="translate(7.265165, 7.234835) rotate(45.000000) translate(-7.265165, -7.234835) "></path>
                </g>
            </g>
        </g>
    </g>
</svg>