<?xml version="1.0" encoding="utf-8"?>
<!-- Generator: Adobe Illustrator 15.1.0, SVG Export Plug-In . SVG Version: 6.00 Build 0)  -->
<!DOCTYPE svg PUBLIC "-//W3C//DTD SVG 1.1//EN" "http://www.w3.org/Graphics/SVG/1.1/DTD/svg11.dtd">
<svg version="1.1" id="Warstwa_1" xmlns="http://www.w3.org/2000/svg" xmlns:xlink="http://www.w3.org/1999/xlink" x="0px" y="0px"
	 width="255px" height="75px" viewBox="0 0 255 75" enable-background="new 0 0 255 75" xml:space="preserve">
<path fill-rule="evenodd" clip-rule="evenodd" fill="#3E3D40" d="M121.66,45.257v-2.646c0.552-0.234,1.118-0.725,1.372-1.35
	l-0.412-5.511l-0.471-2.473c-0.147,0.107-0.315,0.479-0.489,1.012v-9.654c0.258-0.364,0.573-0.66,1.02-0.66h0.533
	c1.576,0,1.042,4.661,1.436,6.003c0.336,1.145,0.573,6.384,0.386,7.052l0.496,0.774l0.341,2.916l1.059-0.042l7.71-0.492h0.799
	l0.042-2.123l0.223-6.912c0.385-0.257,1.389-1.063,1.862-1.063c0.871,0,1.692,2.94,2.431,4.018l-0.725,0.793l2.279,14.06
	c1.269,0.929,1.096,4.256,1.862,4.256c1.717,0,3.538-8.645,3.643-10.864c0.034-0.672,0.178-4.938,0.401-6.359
	c0.197-1.259,0.791-6.169-0.321-6.169l-0.741-0.015l-0.3-1.039l1.362-3.639l1.005-0.624c2.356,1.247,1.668,3.358,1.814,5.914
	c0.081,1.481-0.108,2.492-0.221,3.919c-0.06,0.745,0.041,1.648,0.017,2.407c-0.04,1.205-0.546,1.646-0.546,1.849
	c0,4.623-0.438,6.651-1.237,10.685c-0.271,1.364-0.736,2.269-1.563,4.058c-1.406,3.042-1.54,2.012-2.813,3.904l-0.76-0.556
	l-0.804,0.249c-1.871-2.792-2.237-5.954-3.516-7.712l-0.805,9.543l0.333,0.032c-0.19,0.36-0.58,1.327-1.063,1.327
	c-1.122,0-0.199-0.661-1.883-0.796l-0.02-1.594l-0.264-1.896l0.571-0.766c-0.326-0.273-0.265,0.434-0.265-0.53l-0.027-2.128
	l0.266-4.801l0.291,0.017c0.038-0.667-0.529-0.857-0.529-1.594c0-1.719,0.444-4.174-2.398-3.754l-5.841,0.83
	c-0.3,0.199-1.063,0.622-1.063,1.063c0,1.43,0.15,4.068,0.475,6.169c0.717,4.641-0.68,2.046,1.65,5.526l-0.004,1.873l0.802,0.252
	v0.8c0,0.871,0.496,1.454,0.647,2.805c0.166,1.489,0.604,2.361,0.591,3.188l-1.013,0.961l-1.032-0.9l-1.319,0.324
	c-2.265-4.28-3.189-12.267-3.189-17.278v-0.531c0-1.342-0.428-1.413-0.607-2.819L121.66,45.257z M121.66,24.636v9.654
	c-0.647,1.977-1.372,6.169-1.372,7.227v0.531c0,0.749,0.675,0.857,1.372,0.563v2.646l-2.169,1.047c0,0.971-0.888,5.669-1.195,6.514
	c-0.803,2.197-0.577,4.823-2.26,5.712l0.129-0.244l-1.577-0.833l-0.273,0.265l1.189-9.555c-1.41,0.329-1.527,1.56-2.723,2.859
	c-0.881,0.958-2.263,1.971-2.862,2.72c-0.895,1.114-4.941,4.788-6.642,4.788h-0.267c-0.931,0-2.86-0.976-3.209-1.575
	c-0.399-0.678,0.02-3.078-0.039-4.596l1.124-1.006c-0.972-2.023,1.328-2.059,1.335-4.779l1.057-1.865
	c0-2.033,2.465-6.88,2.583-9.606c0.229-5.309-0.788-5.205-4.443-7.14c-2.104,1.009-2.133-0.561-3.288,2.028
	c-0.515,1.154-2.029,3.068-2.029,3.288l-0.044,2.663l0.693,9.571l0.415,6.106c0.103,1.814-0.099,1.364,0.267,3.721
	c0.258,1.676,0.087,2.77,0.414,4.369c0.226,1.1,0.401,8.922-0.946,8.922c-0.595,0-0.583-0.211-1.063-0.531
	c-1.379,0.294-1.062,0.177-1.024-1.628l-0.663-0.765l0.092-15.949v-3.189c0-1.144,0.31-1.442,0.512-2.341l-0.809-0.325l0.278-1.004
	l-0.867-0.317l0.088-3.188h-1.063c-1.786,0-6.655,1.606-7.913,1.418l-2.083,1.488l1.382,9.005l1.97,6.164l0.027,1.313l2.326,3.728
	l-0.492,1.87c-0.712,0.17-0.5,0.266-1.062,0.266c-0.552,0,0.101-0.411-1.331-0.531c-0.141-1.705-2.659-3.991-2.659-7.178
	l-0.267,0.061l-1.586-7.179l0.297-0.089l-0.571-0.768c0.401-0.866-0.208-2.114-0.435-3.284c-0.327-1.687,0.521-3.053-1.24-2.141
	c-0.401,0.208-0.787,0.393-1.153,0.578v-2.752l1.857-0.653l-1.155-7.165L77.588,33.5v-7.837c0.239-0.092,0.492-0.104,0.703-0.891
	c2.571,0.057,2.107,2.341,2.399,4.776c0.226,1.883,0.298,4.955,0.855,6.412l0.466,3.165c2.596-0.057,8.319-2.97,10.633-1.859
	c0.336-0.178,1.063-0.366,1.063-0.798c0-1.26-1.011-5.815-1.374-7.218l0.842-1.022c1.255,0.581,0.852-0.596,1.473,0.37
	c0.517,0.805-0.477,0.557,0.991,1.505l0.225-1.303l3.706-2.611l2.908-0.618c2.553,1.351,3.799,0.704,5.236,3.802
	c1.171,2.525,0.816,4.354,0.244,7.26c-0.639,3.248-3.516,11.521-4.949,13.658c0,1.861-0.797,2.734-0.797,4.784
	c0,0.612,0.186,0.799,0.797,0.799h1.064c1.318,0,5.52-4.601,6.58-5.647c1.563-1.555,1.425-1.677,2.558-3.559
	c0.194-0.321,2.824-3.109,3.085-3.288l2.397-11.43l1.023-0.011l1.37-4.241V25.57C121.264,25.303,121.441,24.945,121.66,24.636z
	 M57.291,57.9c1.183-2.3,2.394-4.341,2.924-4.952c-0.078,0.944-0.434,2.443-0.84,3.147c-0.583,1.009-1.651,1.606-0.755,1.902
	c-0.052,0.64-0.733,1.435-1.329,2.586v4.143c0.592-0.936,1.192-1.928,1.333-2.206c1.126-2.223,3.564-6.727,4.295-8.994
	c1.189-3.686,1.305-6.869,3.152-10.14c0.877-1.555,4.013-7.086,5.574-7.45c0.086-1.034,1.083-2.306,2.126-2.393v2.393
	c0,4.949-3.189,13.472-3.189,17.012c-0.656,0.982-1.595,4.774-1.595,6.38v0.797l1.484,0.847l-0.155,0.217
	c1.315-0.882,2.03-4.254,2.495-6.278c0.49-2.137,1.544-4.816,1.749-6.756c0.257-2.459,1.444-3.24,3.028-4.041v-2.752l-1.857,0.654
	l1.809-8.518l0.048,0.003v-7.837c-0.231,0.087-0.451,0.25-0.61,1.253c-0.297,1.882-0.708,1.357-0.814,2.64
	c-0.755-0.176-0.455-0.265-1.064-0.265c-1.743,0-2.646,1.84-3.405,2.974c-0.97,1.454-1.749,2.148-2.651,3.461
	c-0.743,1.082-1.977,2.291-2.828,3.553c-0.931,1.376-1.195,2.926-2.813,3.301c-0.077-0.918-0.68-1.859-1.593-1.859h-2.394
	c-1.062,0-1.646,0.284-2.126,0.652v2.511c0.278-0.24,0.476-0.424,0.531-0.506c2.319,0,3.989-0.121,3.989,2.659
	c0,0.521-2.428,4.634-4.52,7.949V57.9L57.291,57.9z M57.291,38.689V35.67c1.616-2.137,5.583-9.509,5.583-13.025v-1.328
	c0-2.034-3.512-0.926-5.583-0.316v-2.432c1.315-0.434,2.688-0.709,3.721-0.709h1.329c1.977,0,3.457,1.36,3.457,3.191v0.798
	C65.797,26.638,60.5,33.985,57.291,38.689z M54.367,65.441c0-1.369,1.44-4.657,2.924-7.541v-3.913
	c-1.407,2.23-2.661,4.101-2.924,4.276c0,1.822-2.216,6.261-3.189,6.912l-0.54-4.516c-1.038-1.565-2.254-9.073-0.646-10.758
	c1.247-1.311,2.325-2.414,3.84-3.337c0.362-0.219,2.449-1.814,3.458-2.681v-2.511c-0.664,0.511-1.133,1.181-2.392,1.475
	c0.056-0.655,1.037-2.171,2.392-4.159V35.67l0,0c-1.167,1.543-6.781,10.048-7.973,10.368l-0.023-11.963l0.108-7.708H49.05
	c1.811-2.704,5.94-3.599,6.912-5.049c0.232,0,0.718-0.137,1.328-0.316v-2.432c-2.063,0.678-3.984,1.743-4.252,2.748l-3.935,1.702
	l-0.623-6.75l-1.291-0.535c-1.911,1.279-0.531,6.715-0.531,9.303c0,0.828-1.174-0.007-1.328,1.861l-1.076,0.219l0.979,1.457
	l1.411-0.4l0.588,14.4l-0.308,0.007v0.533l0.252,4.252c0.087,1.33-4.286,5.095-4.771,6.911h0.798v0.532l0.112,0.24l3.347-1.56
	l0.278,4.256l0.249,2.112l0.792,6.913l1.601-0.001v0.796l1.315-0.319c-0.019,1.519-0.518,1.414-0.518,2.183
	c0,0.34,1.805,0.727,2.659,0.797c0.397-0.755,2.295-2.949,2.996-3.65c0.169-0.168,0.71-0.985,1.256-1.85v-4.143
	c-0.21,0.408-0.412,0.86-0.57,1.363c-0.377,1.2-0.541,0.629-1.372,1.552C54.681,64.243,54.915,64.653,54.367,65.441z"/>
<path fill-rule="evenodd" clip-rule="evenodd" fill="#3E3D40" d="M202.56,59.566V56.21c0.329-0.337,0.568-0.595,0.611-0.655
	c0.704-1.033,1.91-2.93,1.917-4.459l-1.303,0.594c-0.055,0.489-0.583,1.345-1.226,2.266v-3.452l0.662-0.745
	c-0.189-0.089-0.413-0.14-0.662-0.165v-2.576l1.725-0.181c1.958-1.313,1.736-0.558,3.392-2.725c0.817-1.068,0.286-0.86,1.398-1.79
	c0.802-0.668,0.519-1.064,1.16-2.03c0.939-1.408,1.751-1.884,2.695-3.684c0.636-1.215,1.523-3.698,2.01-4.396l-0.287-1.857
	c0.334-0.177,1.83-1.33,1.86-1.33c2.095,0,2.104,12.123,2.212,15.17l0.498,5.512l0.479,0.584c0.753-0.505,6.171-9.249,6.803-10.742
	c0.433-1.027,1.036-1.823,1.337-2.916c0.269-0.969,0.1-3,0.346-4.172c0.243-1.162,1.609-6.639,1.646-6.82l1.3-0.603
	c0.41,0.39,1.327,1.007,1.327,1.596v3.456c0,0.94-0.798,0.803-0.798,1.328c0,0.719,0.128,0.734,0.268,1.33
	c-2.65,5.005-0.916,9.546,0.265,14.62c1.917-1.283,3.484-7.395,5.213-9.938c0.534-0.787,2.168-4.43,2.233-5.476
	c0.103-1.726,0.271-2.248,0.461-3.525c0.144-0.955-0.191-0.989,0.443-1.417c0.273-0.188,1.437-0.643,1.484-0.643
	c0.866,0,1.025,0.755,1.315,1.327l-1.315,10.369l0.071,1.861v2.125l-0.071,2.129v1.86c0,0.81,0.256,1.072,0.532,1.594
	c-0.183,0.324-0.265,0.284-0.265,0.798c0,0.71,0.383,0.787,0.797,1.062c-0.487,1.018-0.098,2.926-1.594,2.926l-0.749-0.019
	l-0.316-0.779l-1.299,0.011l-0.563-10.377c-1.229,1.414-1.991,5.733-3.719,6.645c-0.037,1.648-1.185,3.189-2.659,3.189
	c-0.748,0-0.492-0.115-0.784-0.484l-1.061,0.276l-0.274,0.015l-2.135-8.313c-1.162,0.309-1.986,2.867-2.728,3.917
	c-0.719,1.015-0.639,1.725-1.173,2.282c-0.932,0.967-1.372,0.126-1.415,2.04c-1.505,0.403-1.403,3.19-3.453,3.19
	c-0.509,0-0.185-0.529-1.065-0.529h-0.799c-0.586-2.53-1.351-4.195-1.33-7.708c0.021-3.421-0.529-4.888-0.687-8.354l-7.284,10.213
	c0.274,0.522,0.529,0.783,0.529,1.594v1.064c0,0.219-1.713,4.004-1.965,4.415c-0.889,1.451-2.521,2.399-2.633,3.728L202.56,59.566
	L202.56,59.566z M202.56,28.794c0.549-0.356,1.126-0.567,1.725-0.567c0,1.655,0.629,5.254,1.861,5.583l-0.22-1.075
	c1.555-1.161,1.975-7.431-0.576-7.431c-1.117,0-2.021,0.254-2.79,0.667V28.794z M155.909,56.006h0.265l0.803-0.118l-0.007,1.047
	l-1.061,0.222v2.898c3.288-0.945,4.489-4.707,7.18-6.568c2.864-1.981,4.546-5.187,6.905-6.918c2.427,1.777,0.497,6.444,4.785,7.442
	c1.729-1.156,3.189-3.274,3.189-6.113c0.414-0.276,0.799-0.352,0.799-1.062c0-0.514-0.084-0.477-0.265-0.798l0.568-0.768
	l-0.039-1.359l0.253,0.117l1.267-2.687c0.353,0.306,1.247,7.199,1.263,8.406c0.031,2.798,1.072,5.935,2.269,7.72l1.047-0.325
	l0.756,0.912l0.358-1.109c1.763-0.159,3.328-4.079,3.967-5.577c0.357-0.837,2.112-6.32,2.112-7.19v-1.063h0.531v0.797
	c0,3.175,1.624,3.66,3.667,4.84c2.327,1.34,4.626,0.695,6.038,0.842v-2.576l-1.457,0.152l-1.337-0.069
	c-5.724,0-4.306-6.616-2.707-9.884c1.038-2.123,3-6.801,5.501-8.421V25.97c-1.9,1.02-2.958,3.009-4.242,4.531
	c-0.575,0.683-2.209,2.855-2.587,3.525c-0.663,1.18-0.959,3.021-2.077,3.77l0.93-11.953c-0.753-0.423-1.521-1.071-2.524-1.071
	c-1.235,0-3.457,4.752-3.457,5.847v1.329c3.499-0.077,1.438-4.063,3.722-4.252l0.25,0.803l-1.319,9.298l-0.563,0.766
	c0.034,2.835-1.043,5.579-1.612,8.218c-0.47,2.155-2.399,4.682-2.87,6.701h-0.796l-0.449-1.626l-0.952-7.938l-0.461-0.006
	c0.176-0.754,0.265-0.455,0.265-1.063l-0.087-1.596c0.087-0.052-0.264-3.085-0.31-3.302c-0.287-1.33-0.742-2.024-1.728-2.546
	c-2.07,0.992-3.041,3.108-3.844,5.46c-0.361,1.062-2.271,6.316-2.271,6.767v1.063l-1.015,0.842l-1.171-2.535l-1.442-9.713
	l0.173-1.086c0-0.813,0.58-2.305,1.063-2.659c-0.321-0.479-0.529-0.467-0.529-1.063v-0.797c0.961-0.225,1.329-0.415,1.329-1.595
	v-1.33h-1.064v1.064l-1.575,1.087c-0.021,1.978-0.552,1.731-1.063,2.941c-0.381,0.904-0.055,1.639-0.39,3.052
	c-0.382,1.621-0.787,4.624,0.103,6.476c-0.729,1.091-4.089,5.028-5.317,5.316l1.734-4.834c0.129-1.925,0.661-1.7,0.661-2.874v-2.128
	c0-4.044-2.848-9.835-6.647-9.835c-1.122,0-1.843,1.282-3.189,1.595l0.317,0.779c-0.667,0.351-1.203,0.791-1.644,1.301v9.119
	c0.153-1.83,0.773-2.904,1.356-4.522c0.269-0.741,0.653-1.825,0.978-2.477c0.682-1.354,1.386-0.826,1.386-1.806v-1.329h1.859
	c0.972,0,1.224,1.255,2.128,1.859l0.41,1.897c0.12,1.514,0.65,2.307,0.65,3.685c0,2.221-1.589,6.798-2.342,8.287
	c-0.857,1.693-2.343,6.069-4.567,6.069c-0.796,0-1.386-0.398-1.858-0.909V56.006L155.909,56.006z M202.56,50.503v3.452
	c-1.096,1.568-2.528,3.321-2.528,3.778v0.796c0.272-0.07,1.692-1.458,2.528-2.319v3.356l-3.592,2.951
	c-0.375-0.187-0.44-0.267-1.064-0.267h-0.794l-0.017-0.739l-1.049-0.323c0.463-1.98,3.243-7.158,4.786-7.973l0.147-0.93
	L202.56,50.503z M155.387,57.264l-0.542-1.258h1.064v-3.434c-0.433-0.471-0.767-1.038-1.064-1.485l0.048-6.378
	c-0.048-0.144,0.332-0.58,0.481-0.798l-0.25-0.804l0.751-0.564c0.003-0.254,0.017-0.497,0.034-0.725V32.7
	c-1.884,2.179-2.032,5.63-3.193,8.818c-0.395,1.087-1.062,11.558-1.062,13.292c0,3.092,2.087,4.045,3.986,5.315
	c0.091-0.021,0.181-0.044,0.269-0.07v-2.898L155.387,57.264z"/>
<path fill-rule="evenodd" clip-rule="evenodd" fill="#3E3D40" d="M20.07,15.641l-2.385,0.094l0.006,0.624L7.318,17.063v-0.531H5.989
	c-0.859,0-1.329,0.965-1.329,1.86c0,0.961,3.625,2.127,4.784,2.127l-0.168,0.217l1.497,0.846l-0.12-0.597l-1.747-1.329l7.449-0.732
	l0.748,0.019l0.315,0.778c-0.166,0.708-0.315,0.589-0.219,1.326l1.742,24.991l0.072,2.124v3.19c0,2.494-0.015,6.452-0.319,8.455
	c-0.27,1.776-1.246,6.424-1.182,7.571l1.767,0.985c0.813-0.595,1.595-2.306,1.595-3.721v-0.266c0-6.084,0.595-13.929,0.205-19.933
	l-1.215-25.468l0.47-0.693l14.894-0.955h2.126c0.947,0,1.042,0.63,1.063,1.595l0.141,0.228l1.857-1.308L40.811,16
	c0.088-0.668-0.189-0.676-0.278-1.775L20.07,15.641z"/>
<path fill-rule="evenodd" clip-rule="evenodd" fill="#3E3D40" d="M235.118,12.545c0,1.016-0.08,0.096,0.266,0.798
	c2.491-1.668,6.307-7.177,10.366-7.177h1.33c0.655,0,1.562,0.882,1.861,1.329l0.271,0.149l-3.992,7.56
	c-1.346,0.112-1.572,0.797-1.861,0.797c-0.902,0-1.157-1.249-1.271-1.921c-0.323-1.919,0.2-1.197-1.276-1.433l-1.706,2.023
	c0.411,0.858,0.294,1.476,0.913,2.542c0.325,0.556,1.721,1.447,2.278,1.447h0.797c0.91,0,4.586-3.006,5.22-3.818
	c1.34-1.715,2.24-4.19,3.172-5.751l0.114-1.063c0-0.231-1.077-2.38-1.277-2.71c-0.431-0.717-1.696-1.146-2.443-1.542
	c-4.27,0.994-4.498,0.661-7.713,2.921C238.99,7.522,235.118,10.963,235.118,12.545z"/>
<path fill-rule="evenodd" clip-rule="evenodd" fill="#3E3D40" d="M30.153,65.446c1.535-0.129,1.03-0.803,1.619-0.803
	c0.239,0,1.869,0.675,2.127,0.798c0.479-0.415,0.797-0.317,0.797-1.063v-0.796c0-0.962-2.402-1.75-3.189-2.128l-1.048,0.323
	l-0.932,1.034L30.153,65.446z"/>
</svg>
