<?xml version="1.0" encoding="utf-8"?>
<!-- Generator: Adobe Illustrator 15.1.0, SVG Export Plug-In . SVG Version: 6.00 Build 0)  -->
<!DOCTYPE svg PUBLIC "-//W3C//DTD SVG 1.1//EN" "http://www.w3.org/Graphics/SVG/1.1/DTD/svg11.dtd">
<svg version="1.1" id="Warstwa_1" xmlns="http://www.w3.org/2000/svg" xmlns:xlink="http://www.w3.org/1999/xlink" x="0px" y="0px"
	 width="425px" height="130px" viewBox="0 0 425 130" enable-background="new 0 0 425 130" xml:space="preserve">
<path fill-rule="evenodd" clip-rule="evenodd" fill="#9C9E9F" d="M202.354,79.753v-4.408c0.919-0.391,1.862-1.203,2.285-2.249
	l-0.687-9.177l-0.784-4.117c-0.244,0.179-0.524,0.798-0.814,1.685V45.408c0.43-0.606,0.955-1.1,1.7-1.1h0.886
	c2.626,0,1.737,7.764,2.393,10c0.559,1.907,0.954,10.632,0.642,11.744l0.828,1.288l0.565,4.858l1.765-0.068l12.843-0.818h1.33
	l0.07-3.539l0.371-11.512c0.637-0.427,2.313-1.771,3.1-1.771c1.449,0,2.816,4.896,4.047,6.693l-1.203,1.319l3.795,23.419
	c2.111,1.546,1.822,7.084,3.102,7.084c2.859,0,5.893-14.396,6.068-18.093c0.053-1.12,0.293-8.225,0.664-10.59
	c0.33-2.097,1.318-10.275-0.535-10.275l-1.232-0.025l-0.496-1.729l2.266-6.061l1.676-1.039c3.924,2.076,2.775,5.595,3.018,9.849
	c0.137,2.467-0.18,4.15-0.363,6.526c-0.1,1.241,0.064,2.747,0.023,4.011c-0.064,2.006-0.904,2.741-0.904,3.078
	c0,7.699-0.734,11.079-2.064,17.793c-0.451,2.275-1.225,3.779-2.604,6.76c-2.34,5.067-2.564,3.35-4.686,6.501l-1.264-0.927
	l-1.338,0.419c-3.117-4.651-3.729-9.92-5.857-12.847l-1.34,15.897l0.555,0.049c-0.318,0.602-0.967,2.213-1.77,2.213
	c-1.869,0-0.334-1.098-3.135-1.324l-0.035-2.655l-0.436-3.157l0.949-1.276c-0.543-0.453-0.441,0.724-0.441-0.883l-0.049-3.546
	l0.443-7.993l0.488,0.029c0.063-1.113-0.883-1.431-0.883-2.657c0-2.863,0.74-6.952-3.994-6.251l-9.731,1.381
	c-0.499,0.334-1.771,1.038-1.771,1.771c0,2.382,0.251,6.776,0.791,10.275c1.194,7.728-1.133,3.404,2.75,9.203l-0.008,3.121
	l1.336,0.42v1.329c0,1.452,0.826,2.425,1.076,4.672c0.275,2.482,1.008,3.936,0.984,5.312l-1.686,1.602l-1.721-1.502l-2.195,0.54
	c-3.772-7.128-5.312-20.429-5.312-28.774v-0.885c0-2.238-0.713-2.353-1.013-4.697L202.354,79.753z M202.354,45.408v16.079
	c-1.077,3.293-2.284,10.273-2.284,12.039v0.885c0,1.245,1.125,1.428,2.284,0.935v4.408l-3.612,1.742
	c0,1.616-1.478,9.441-1.991,10.849c-1.337,3.66-0.962,8.033-3.764,9.514l0.216-0.408l-2.627-1.386l-0.457,0.442l1.982-15.913
	c-2.348,0.547-2.544,2.594-4.536,4.762c-1.469,1.594-3.768,3.282-4.768,4.528c-1.49,1.854-8.229,7.975-11.061,7.975h-0.443
	c-1.551,0-4.763-1.626-5.347-2.623c-0.663-1.129,0.035-5.128-0.064-7.656l1.87-1.673c-1.618-3.37,2.213-3.429,2.224-7.963
	l1.76-3.105c0-3.387,4.105-11.459,4.301-15.999c0.382-8.839-1.311-8.668-7.4-11.89c-3.504,1.681-3.552-0.934-5.475,3.378
	c-0.858,1.921-3.38,5.109-3.38,5.476l-0.073,4.434l1.154,15.944l0.69,10.168c0.172,3.025-0.163,2.273,0.443,6.197
	c0.431,2.791,0.147,4.612,0.69,7.278c0.375,1.829,0.668,14.858-1.577,14.858c-0.992,0-0.972-0.354-1.77-0.887
	c-2.298,0.488-1.771,0.295-1.707-2.709l-1.104-1.274l0.154-26.563v-5.313c0-1.904,0.516-2.399,0.854-3.9l-1.35-0.543l0.464-1.672
	l-1.443-0.525l0.147-5.313h-1.771c-2.975,0-11.084,2.679-13.18,2.362l-3.469,2.481l2.301,14.997l3.281,10.264l0.045,2.186
	l3.873,6.208l-0.819,3.116c-1.188,0.283-0.834,0.443-1.77,0.443c-0.917,0,0.169-0.688-2.215-0.886
	c-0.236-2.842-4.427-6.647-4.427-11.953l-0.445,0.099l-2.642-11.956l0.495-0.149l-0.95-1.274c0.668-1.443-0.346-3.522-0.725-5.472
	c-0.545-2.81,0.868-5.085-2.066-3.565c-0.668,0.346-1.311,0.654-1.92,0.962v-4.583l3.094-1.089l-1.924-11.93l-1.17-0.072V47.119
	c0.399-0.152,0.819-0.171,1.17-1.484c4.283,0.095,3.51,3.9,3.997,7.956c0.376,3.136,0.496,8.253,1.423,10.678l0.777,5.271
	c4.323-0.095,13.854-4.948,17.708-3.097c0.561-0.298,1.771-0.609,1.771-1.33c0-2.098-1.685-9.684-2.29-12.021l1.404-1.703
	c2.09,0.967,1.418-0.993,2.453,0.615c0.862,1.341-0.794,0.928,1.651,2.507l0.375-2.169l6.171-4.351l4.845-1.029
	c4.252,2.25,6.328,1.17,8.721,6.332c1.95,4.207,1.358,7.251,0.406,12.091c-1.063,5.41-5.855,19.186-8.241,22.747
	c0,3.101-1.327,4.553-1.327,7.968c0,1.022,0.308,1.33,1.327,1.33h1.771c2.197,0,9.194-7.662,10.957-9.407
	c2.605-2.584,2.374-2.79,4.261-5.923c0.325-0.538,4.704-5.181,5.14-5.479l3.991-19.035l1.704-0.02l2.28-7.063v-3.542
	C201.694,46.52,201.99,45.923,202.354,45.408z M95.149,100.81c1.969-3.829,3.985-7.229,4.87-8.248
	c-0.131,1.569-0.722,4.069-1.4,5.242c-0.972,1.681-2.75,2.676-1.257,3.169c-0.088,1.063-1.221,2.39-2.213,4.306v6.9
	c0.986-1.56,1.985-3.211,2.22-3.673c1.875-3.705,5.935-11.204,7.153-14.981c1.98-6.14,2.174-11.442,5.249-16.886
	c1.463-2.589,6.684-11.805,9.284-12.409c0.143-1.722,1.804-3.84,3.542-3.985v3.985c0,8.24-5.313,22.438-5.313,28.332
	c-1.094,1.634-2.656,7.951-2.656,10.624v1.329l2.473,1.411l-0.259,0.359c2.192-1.468,3.383-7.084,4.156-10.454
	c0.816-3.562,2.573-8.022,2.911-11.254c0.428-4.096,2.408-5.396,5.044-6.731v-4.583l-3.094,1.089l3.015-14.184l0.08,0.004V47.119
	c-0.385,0.146-0.75,0.416-1.015,2.087c-0.496,3.136-1.18,2.26-1.357,4.397c-1.256-0.293-0.757-0.442-1.771-0.442
	c-2.903,0-4.407,3.065-5.669,4.954c-1.617,2.421-2.914,3.578-4.417,5.766c-1.237,1.8-3.292,3.814-4.71,5.916
	c-1.549,2.293-1.991,4.872-4.683,5.499c-0.127-1.528-1.131-3.098-2.655-3.098H98.69c-1.768,0-2.74,0.475-3.542,1.088v4.181
	c0.464-0.399,0.793-0.705,0.885-0.844c3.86,0,6.642-0.199,6.642,4.429c0,0.869-4.043,7.719-7.526,13.241V100.81L95.149,100.81z
	 M95.149,68.815v-5.029c2.691-3.56,9.297-15.837,9.297-21.693V39.88c0-3.387-5.849-1.543-9.297-0.526v-4.05
	c2.191-0.721,4.475-1.179,6.198-1.179h2.213c3.291,0,5.756,2.263,5.756,5.313v1.329C109.316,48.744,100.494,60.978,95.149,68.815z
	 M90.279,113.367c0-2.278,2.399-7.755,4.87-12.558v-6.517c-2.343,3.714-4.433,6.83-4.87,7.122c0,3.035-3.691,10.426-5.311,11.51
	l-0.901-7.522c-1.727-2.602-3.752-15.106-1.074-17.914c2.078-2.181,3.873-4.02,6.397-5.556c0.602-0.366,4.078-3.025,5.759-4.466
	v-4.181c-1.107,0.85-1.887,1.964-3.984,2.454c0.091-1.091,1.727-3.614,3.984-6.925v-5.029l0,0
	c-1.944,2.571-11.293,16.734-13.281,17.266l-0.036-19.923l0.18-12.838h-0.587c3.017-4.504,9.893-5.995,11.511-8.411
	c0.388,0,1.197-0.228,2.213-0.526v-4.05c-3.434,1.129-6.636,2.904-7.083,4.577l-6.552,2.835l-1.037-11.242l-2.15-0.891
	c-3.183,2.13-0.885,11.185-0.885,15.495c0,1.379-1.956-0.013-2.213,3.099l-1.792,0.365l1.631,2.426l2.351-0.668l0.978,23.983
	l-0.513,0.013v0.886l0.422,7.084c0.145,2.217-7.14,8.484-7.947,11.51h1.328v0.886l0.186,0.4l5.577-2.596l0.463,7.085l0.414,3.521
	l1.318,11.512l2.667-0.002v1.328l2.191-0.532c-0.032,2.529-0.863,2.355-0.863,3.633c0,0.568,3.004,1.21,4.427,1.328
	c0.663-1.254,3.823-4.911,4.991-6.077c0.282-0.282,1.183-1.643,2.093-3.082v-6.9c-0.351,0.679-0.685,1.433-0.949,2.271
	c-0.628,1.998-0.901,1.049-2.285,2.584C90.802,111.374,91.19,112.059,90.279,113.367z"/>
<path fill-rule="evenodd" clip-rule="evenodd" fill="#9C9E9F" d="M337.09,103.584v-5.588c0.549-0.564,0.947-0.992,1.018-1.094
	c1.174-1.72,3.184-4.882,3.191-7.425l-2.168,0.989c-0.09,0.813-0.971,2.239-2.041,3.771v-5.746l1.104-1.242
	c-0.316-0.15-0.688-0.235-1.104-0.278v-4.289l2.873-0.302c3.262-2.185,2.893-0.928,5.648-4.536c1.361-1.781,0.477-1.434,2.33-2.98
	c1.336-1.112,0.863-1.775,1.932-3.381c1.564-2.349,2.916-3.142,4.488-6.137c1.061-2.023,2.535-6.158,3.348-7.321l-0.479-3.093
	c0.557-0.296,3.049-2.213,3.096-2.213c3.49,0,3.504,20.189,3.688,25.262l0.83,9.18l0.797,0.974
	c1.252-0.837,10.277-15.402,11.328-17.89c0.721-1.71,1.727-3.039,2.227-4.855c0.447-1.615,0.168-4.998,0.576-6.95
	c0.404-1.935,2.682-11.058,2.744-11.358l2.162-1.003c0.684,0.648,2.211,1.676,2.211,2.657v5.755c0,1.565-1.326,1.338-1.326,2.212
	c0,1.196,0.211,1.221,0.443,2.214c-4.412,8.335-1.525,15.899,0.441,24.35c3.193-2.139,5.801-12.318,8.68-16.555
	c0.891-1.31,3.611-7.376,3.721-9.119c0.174-2.875,0.451-3.742,0.768-5.872c0.238-1.589-0.318-1.645,0.738-2.359
	c0.459-0.311,2.391-1.069,2.475-1.069c1.441,0,1.707,1.256,2.191,2.21l-2.191,17.268l0.119,3.1v3.541l-0.119,3.543v3.099
	c0,1.35,0.424,1.786,0.885,2.657c-0.305,0.538-0.441,0.472-0.441,1.326c0,1.184,0.639,1.311,1.326,1.77
	c-0.811,1.691-0.16,4.872-2.654,4.872l-1.246-0.032l-0.525-1.297l-2.166,0.018l-0.934-17.282c-2.049,2.357-3.32,9.547-6.199,11.067
	c-0.059,2.745-1.971,5.312-4.426,5.312c-1.246,0-0.82-0.191-1.307-0.807l-1.766,0.461l-0.457,0.024l-3.555-13.845
	c-1.934,0.517-3.309,4.772-4.545,6.522c-1.195,1.689-1.063,2.875-1.953,3.802c-1.551,1.609-2.283,0.211-2.355,3.399
	c-2.506,0.669-2.336,5.312-5.752,5.312c-0.848,0-0.305-0.883-1.773-0.883h-1.328c-0.98-4.214-2.252-6.984-2.219-12.836
	c0.033-5.695-0.881-8.143-1.143-13.914l-12.133,17.011c0.459,0.868,0.885,1.304,0.885,2.653v1.771c0,0.362-2.855,6.671-3.273,7.353
	c-1.48,2.418-4.199,3.998-4.389,6.209L337.09,103.584L337.09,103.584z M337.09,52.333c0.916-0.594,1.877-0.943,2.873-0.943
	c0,2.755,1.049,8.75,3.1,9.297l-0.365-1.79c2.59-1.935,3.287-12.375-0.961-12.375c-1.859,0-3.367,0.422-4.646,1.109V52.333z
	 M259.395,97.652h0.441l1.336-0.196l-0.01,1.746l-1.768,0.368v4.827c5.477-1.577,7.477-7.84,11.959-10.942
	c4.771-3.298,7.572-8.638,11.5-11.519c4.041,2.961,0.83,10.733,7.971,12.395c2.879-1.927,5.313-5.455,5.313-10.181
	c0.689-0.462,1.328-0.587,1.328-1.771c0-0.854-0.141-0.79-0.441-1.328l0.947-1.276l-0.064-2.266l0.42,0.197l2.109-4.477
	c0.592,0.508,2.08,11.991,2.104,14.002c0.053,4.658,1.789,9.884,3.779,12.855l1.744-0.541l1.26,1.52l0.594-1.849
	c2.938-0.265,5.543-6.795,6.607-9.288c0.594-1.394,3.52-10.523,3.52-11.977v-1.771h0.885v1.328c0,5.289,2.707,6.098,6.107,8.06
	c3.875,2.233,7.705,1.16,10.055,1.401v-4.289l-2.426,0.254l-2.227-0.114c-9.531,0-7.17-11.019-4.51-16.463
	c1.729-3.536,4.998-11.328,9.162-14.026V47.63c-3.164,1.698-4.926,5.01-7.063,7.547c-0.959,1.138-3.682,4.753-4.311,5.871
	c-1.104,1.964-1.598,5.03-3.461,6.277l1.551-19.905c-1.254-0.706-2.533-1.786-4.207-1.786c-2.055,0-5.756,7.917-5.756,9.739v2.213
	c5.828-0.13,2.395-6.767,6.199-7.083l0.416,1.337l-2.197,15.484l-0.939,1.275c0.063,4.721-1.734,9.293-2.684,13.687
	c-0.779,3.589-3.996,7.797-4.779,11.16h-1.326l-0.748-2.707l-1.586-13.218l-0.766-0.014c0.291-1.256,0.441-0.756,0.441-1.77
	l-0.146-2.657c0.146-0.085-0.439-5.14-0.518-5.499c-0.477-2.216-1.234-3.372-2.877-4.24c-3.445,1.652-5.063,5.177-6.398,9.095
	c-0.604,1.768-3.785,10.521-3.785,11.271v1.77l-1.691,1.401l-1.951-4.223l-2.4-16.175l0.289-1.811c0-1.354,0.967-3.838,1.77-4.428
	c-0.535-0.8-0.883-0.778-0.883-1.771v-1.328c1.602-0.373,2.213-0.689,2.213-2.656v-2.214h-1.771v1.771l-2.623,1.811
	c-0.035,3.293-0.918,2.883-1.768,4.899c-0.637,1.505-0.092,2.73-0.65,5.082c-0.637,2.699-1.311,7.7,0.17,10.784
	c-1.215,1.818-6.809,8.378-8.854,8.855l2.887-8.05c0.213-3.205,1.1-2.832,1.1-4.788v-3.543c0-6.737-4.742-16.379-11.068-16.379
	c-1.869,0-3.07,2.134-5.313,2.656l0.525,1.296c-1.109,0.584-2.002,1.317-2.736,2.166v15.188c0.258-3.05,1.289-4.836,2.262-7.532
	c0.445-1.234,1.086-3.039,1.629-4.125c1.135-2.256,2.305-1.375,2.305-3.009v-2.213h3.098c1.617,0,2.039,2.092,3.543,3.099
	l0.686,3.158c0.199,2.522,1.084,3.842,1.084,6.138c0,3.698-2.648,11.321-3.904,13.803c-1.424,2.82-3.898,10.105-7.605,10.105
	c-1.324,0-2.309-0.66-3.096-1.512V97.652L259.395,97.652z M337.09,88.491v5.746c-1.826,2.611-4.211,5.534-4.211,6.294v1.326
	c0.455-0.119,2.818-2.43,4.211-3.861v5.588l-5.98,4.914c-0.627-0.31-0.734-0.443-1.771-0.443h-1.326l-0.025-1.229l-1.748-0.54
	c0.771-3.301,5.402-11.921,7.971-13.28l0.248-1.546L337.09,88.491z M258.527,99.749l-0.906-2.097h1.773v-5.716
	c-0.719-0.785-1.275-1.73-1.773-2.475l0.08-10.624c-0.078-0.24,0.555-0.967,0.805-1.328l-0.418-1.338l1.25-0.941
	c0.006-0.424,0.027-0.827,0.057-1.206V58.837c-3.137,3.631-3.383,9.379-5.316,14.688c-0.658,1.81-1.77,19.248-1.77,22.136
	c0,5.151,3.477,6.735,6.641,8.854c0.15-0.035,0.301-0.075,0.445-0.117V99.57L258.527,99.749z"/>
<path fill-rule="evenodd" clip-rule="evenodd" fill="#9C9E9F" d="M33.16,30.427l-3.974,0.156l0.01,1.04l-17.275,1.173v-0.885H9.708
	c-1.431,0-2.213,1.608-2.213,3.099c0,1.6,6.038,3.542,7.968,3.542l-0.28,0.362l2.494,1.41l-0.2-0.995l-2.909-2.215l12.406-1.217
	l1.246,0.031l0.525,1.297c-0.275,1.178-0.525,0.982-0.366,2.208l2.901,41.62l0.121,3.541v5.313c0,4.154-0.024,10.745-0.53,14.079
	c-0.451,2.958-2.077,10.7-1.968,12.613l2.942,1.641c1.353-0.992,2.655-3.841,2.655-6.197v-0.443c0-10.132,0.994-23.2,0.342-33.197
	l-2.024-42.417L33.6,34.83l24.804-1.591h3.542c1.577,0,1.734,1.05,1.77,2.657l0.234,0.381l3.092-2.181l0.659-3.07
	c0.148-1.112-0.316-1.126-0.463-2.957L33.16,30.427z"/>
<path fill-rule="evenodd" clip-rule="evenodd" fill="#9C9E9F" d="M391.316,25.271c0,1.692-0.135,0.161,0.443,1.328
	c4.148-2.779,10.502-11.953,17.266-11.953h2.213c1.09,0,2.602,1.468,3.1,2.213l0.453,0.249l-6.652,12.59
	c-2.236,0.186-2.613,1.328-3.098,1.328c-1.504,0-1.926-2.08-2.117-3.2c-0.539-3.195,0.334-1.995-2.129-2.385l-2.838,3.371
	c0.686,1.427,0.488,2.456,1.521,4.233c0.539,0.924,2.865,2.408,3.793,2.408h1.326c1.52,0,7.639-5.005,8.693-6.358
	c2.232-2.857,3.732-6.978,5.285-9.579l0.189-1.771c0-0.386-1.795-3.963-2.127-4.514c-0.717-1.194-2.826-1.909-4.07-2.568
	c-7.109,1.656-7.49,1.102-12.844,4.866C397.764,16.906,391.316,22.636,391.316,25.271z"/>
<path fill-rule="evenodd" clip-rule="evenodd" fill="#9C9E9F" d="M49.953,113.378c2.555-0.218,1.715-1.337,2.696-1.337
	c0.398,0,3.113,1.122,3.542,1.326c0.797-0.69,1.328-0.526,1.328-1.77v-1.327c0-1.6-4-2.912-5.312-3.542l-1.746,0.538l-1.552,1.724
	L49.953,113.378z"/>
</svg>
