<?xml version="1.0" encoding="utf-8"?>
<!-- Generator: Adobe Illustrator 15.1.0, SVG Export Plug-In . SVG Version: 6.00 Build 0)  -->
<!DOCTYPE svg PUBLIC "-//W3C//DTD SVG 1.1//EN" "http://www.w3.org/Graphics/SVG/1.1/DTD/svg11.dtd">
<svg version="1.1" id="Warstwa_1" xmlns="http://www.w3.org/2000/svg" xmlns:xlink="http://www.w3.org/1999/xlink" x="0px" y="0px"
	 width="175px" height="55px" viewBox="0 0 175 55" enable-background="new 0 0 175 55" xml:space="preserve">
<path fill-rule="evenodd" clip-rule="evenodd" fill="#9C9E9F" d="M82.665,33.698v-1.826c0.381-0.161,0.771-0.499,0.947-0.932
	l-0.285-3.802l-0.325-1.707c-0.101,0.074-0.217,0.331-0.337,0.698v-6.663c0.178-0.251,0.396-0.456,0.704-0.456h0.368
	c1.087,0,0.719,3.217,0.991,4.143c0.232,0.791,0.396,4.406,0.266,4.867l0.343,0.534l0.235,2.013l0.731-0.028l5.322-0.34h0.551
	l0.029-1.466l0.153-4.77c0.265-0.177,0.958-0.734,1.285-0.734c0.601,0,1.167,2.029,1.677,2.773l-0.499,0.547l1.572,9.703
	c0.876,0.642,0.756,2.937,1.286,2.937c1.185,0,2.441-5.966,2.514-7.497c0.022-0.464,0.122-3.408,0.276-4.389
	c0.136-0.869,0.546-4.258-0.222-4.258l-0.512-0.01l-0.206-0.717l0.939-2.511l0.694-0.431c1.626,0.86,1.15,2.318,1.251,4.081
	c0.057,1.022-0.074,1.72-0.151,2.705c-0.041,0.514,0.027,1.138,0.011,1.662c-0.027,0.831-0.376,1.136-0.376,1.275
	c0,3.19-0.304,4.591-0.854,7.373c-0.188,0.942-0.508,1.566-1.079,2.801c-0.97,2.1-1.063,1.389-1.941,2.694l-0.524-0.384
	l-0.554,0.173c-1.292-1.927-1.545-4.109-2.428-5.323l-0.555,6.587l0.229,0.021c-0.131,0.249-0.4,0.916-0.733,0.916
	c-0.774,0-0.138-0.455-1.299-0.549l-0.014-1.1l-0.182-1.309l0.394-0.528c-0.225-0.188-0.183,0.3-0.183-0.366l-0.02-1.469
	l0.184-3.313l0.201,0.012c0.026-0.461-0.365-0.593-0.365-1.101c0-1.187,0.307-2.881-1.655-2.591l-4.032,0.573
	c-0.207,0.138-0.734,0.43-0.734,0.733c0,0.987,0.104,2.809,0.328,4.258c0.495,3.202-0.469,1.411,1.139,3.813l-0.003,1.293
	l0.554,0.174v0.552c0,0.602,0.342,1.004,0.446,1.936c0.114,1.028,0.417,1.63,0.407,2.201l-0.698,0.663l-0.713-0.621l-0.91,0.223
	c-1.563-2.953-2.201-8.465-2.201-11.923v-0.367c0-0.927-0.295-0.976-0.419-1.946L82.665,33.698z M82.665,19.467v6.663
	c-0.446,1.364-0.946,4.258-0.946,4.988v0.366c0,0.517,0.466,0.592,0.946,0.388v1.826l-1.497,0.723c0,0.67-0.613,3.912-0.825,4.495
	c-0.554,1.517-0.398,3.329-1.56,3.942l0.089-0.169l-1.088-0.574l-0.189,0.183l0.821-6.594c-0.973,0.227-1.054,1.075-1.879,1.973
	c-0.608,0.661-1.562,1.36-1.976,1.877c-0.618,0.769-3.41,3.305-4.583,3.305h-0.184c-0.643,0-1.974-0.674-2.215-1.087
	c-0.275-0.468,0.014-2.125-0.027-3.172l0.775-0.694c-0.67-1.396,0.917-1.42,0.921-3.299l0.729-1.287
	c0-1.403,1.701-4.748,1.783-6.629c0.158-3.663-0.543-3.592-3.067-4.927c-1.452,0.696-1.472-0.387-2.269,1.4
	c-0.355,0.796-1.4,2.117-1.4,2.269l-0.031,1.837l0.479,6.606l0.286,4.214c0.071,1.253-0.068,0.942,0.184,2.568
	c0.178,1.156,0.061,1.911,0.286,3.016c0.155,0.758,0.277,6.157-0.653,6.157c-0.411,0-0.402-0.146-0.733-0.367
	c-0.952,0.202-0.733,0.122-0.707-1.123l-0.458-0.528l0.063-11.007v-2.201c0-0.789,0.214-0.995,0.354-1.615l-0.559-0.226l0.192-0.692
	l-0.598-0.219l0.061-2.201h-0.734c-1.232,0-4.592,1.109-5.461,0.979l-1.438,1.027l0.954,6.215l1.359,4.253l0.019,0.906l1.605,2.572
	l-0.34,1.291c-0.492,0.117-0.345,0.184-0.733,0.184c-0.381,0,0.069-0.284-0.918-0.367c-0.098-1.177-1.834-2.754-1.834-4.953
	l-0.184,0.041l-1.094-4.954l0.205-0.062l-0.394-0.529c0.277-0.598-0.144-1.459-0.3-2.267c-0.226-1.164,0.359-2.106-0.856-1.478
	c-0.277,0.144-0.543,0.271-0.796,0.399V31.01l1.282-0.451l-0.797-4.944l-0.485-0.03v-5.409c0.166-0.063,0.34-0.071,0.485-0.615
	c1.774,0.04,1.454,1.616,1.656,3.296c0.156,1.299,0.206,3.419,0.59,4.424l0.322,2.185c1.792-0.039,5.741-2.05,7.338-1.283
	c0.232-0.123,0.734-0.252,0.734-0.551c0-0.87-0.698-4.013-0.948-4.981l0.581-0.706c0.866,0.401,0.588-0.411,1.017,0.255
	c0.357,0.556-0.329,0.384,0.684,1.039l0.156-0.899l2.557-1.802l2.007-0.426c1.762,0.932,2.622,0.485,3.613,2.624
	c0.809,1.743,0.563,3.005,0.168,5.01c-0.441,2.242-2.426,7.95-3.415,9.426c0,1.284-0.55,1.887-0.55,3.302
	c0,0.423,0.127,0.551,0.55,0.551h0.734c0.91,0,3.81-3.175,4.541-3.897c1.079-1.072,0.984-1.156,1.766-2.455
	c0.134-0.223,1.949-2.146,2.129-2.27l1.654-7.888l0.706-0.008l0.945-2.927v-1.467C82.392,19.928,82.514,19.681,82.665,19.467z
	 M38.242,42.424c0.816-1.587,1.651-2.995,2.018-3.418c-0.054,0.651-0.299,1.687-0.58,2.173c-0.402,0.696-1.14,1.108-0.521,1.313
	c-0.036,0.441-0.506,0.99-0.917,1.785v2.858c0.409-0.646,0.823-1.33,0.92-1.521c0.777-1.535,2.459-4.643,2.964-6.208
	c0.821-2.543,0.901-4.741,2.175-6.997c0.606-1.073,2.77-4.891,3.847-5.142c0.059-0.713,0.747-1.591,1.467-1.651v1.651
	c0,3.416-2.201,9.297-2.201,11.74c-0.453,0.678-1.101,3.296-1.101,4.403v0.55l1.024,0.585l-0.107,0.149
	c0.908-0.608,1.401-2.936,1.722-4.333c0.338-1.475,1.066-3.323,1.207-4.662c0.177-1.697,0.997-2.236,2.09-2.789V31.01l-1.282,0.451
	l1.249-5.878l0.033,0.002v-5.409c-0.159,0.061-0.311,0.172-0.42,0.865c-0.205,1.299-0.489,0.937-0.562,1.822
	c-0.521-0.122-0.314-0.183-0.734-0.183c-1.203,0-1.827,1.27-2.35,2.053c-0.67,1.003-1.208,1.482-1.83,2.389
	c-0.513,0.747-1.364,1.581-1.952,2.452c-0.642,0.95-0.825,2.02-1.941,2.278c-0.053-0.633-0.469-1.283-1.1-1.283h-1.652
	c-0.732,0-1.135,0.196-1.467,0.45v1.732c0.192-0.165,0.329-0.292,0.366-0.349c1.6,0,2.753-0.083,2.753,1.835
	c0,0.36-1.676,3.198-3.119,5.486V42.424L38.242,42.424z M38.242,29.166v-2.083c1.115-1.475,3.853-6.563,3.853-8.989v-0.917
	c0-1.403-2.424-0.639-3.853-0.218V15.28c0.908-0.299,1.854-0.489,2.568-0.489h0.917c1.364,0,2.385,0.938,2.385,2.202v0.551
	C44.112,20.849,40.456,25.919,38.242,29.166z M36.224,47.628c0-0.944,0.994-3.214,2.018-5.204v-2.7
	c-0.971,1.539-1.836,2.83-2.018,2.951c0,1.258-1.53,4.32-2.201,4.77l-0.374-3.116c-0.716-1.079-1.555-6.261-0.445-7.424
	c0.861-0.904,1.604-1.666,2.651-2.303c0.25-0.151,1.69-1.253,2.387-1.851v-1.732c-0.458,0.353-0.782,0.814-1.651,1.018
	c0.038-0.452,0.716-1.498,1.651-2.87v-2.083l0,0c-0.806,1.065-4.68,6.935-5.503,7.155l-0.016-8.256l0.075-5.32h-0.243
	c1.25-1.866,4.1-2.484,4.77-3.485c0.161,0,0.496-0.094,0.917-0.218V15.28c-1.423,0.468-2.75,1.203-2.935,1.896l-2.715,1.175
	l-0.43-4.658l-0.891-0.369c-1.319,0.883-0.367,4.635-0.367,6.42c0,0.571-0.811-0.005-0.917,1.284l-0.743,0.151l0.676,1.005
	l0.974-0.276l0.406,9.938l-0.212,0.005v0.368l0.174,2.935c0.06,0.918-2.958,3.516-3.293,4.77h0.551v0.367l0.077,0.166l2.311-1.076
	l0.192,2.937l0.172,1.458l0.546,4.771l1.105-0.001v0.551l0.908-0.221c-0.013,1.048-0.357,0.976-0.357,1.506
	c0,0.234,1.245,0.501,1.834,0.55c0.274-0.521,1.584-2.035,2.068-2.519c0.117-0.116,0.49-0.681,0.867-1.277v-2.858
	c-0.146,0.281-0.284,0.594-0.394,0.94c-0.26,0.828-0.373,0.435-0.947,1.071C36.44,46.802,36.602,47.085,36.224,47.628z"/>
<path fill-rule="evenodd" clip-rule="evenodd" fill="#9C9E9F" d="M138.496,43.574v-2.316c0.228-0.233,0.393-0.411,0.422-0.453
	c0.486-0.712,1.318-2.021,1.322-3.076l-0.898,0.409c-0.037,0.338-0.402,0.928-0.846,1.563v-2.382l0.457-0.515
	c-0.131-0.062-0.284-0.097-0.457-0.114v-1.777l1.19-0.126c1.352-0.905,1.198-0.384,2.341-1.88c0.563-0.737,0.197-0.594,0.965-1.234
	c0.554-0.461,0.358-0.735,0.801-1.401c0.648-0.973,1.208-1.301,1.86-2.542c0.438-0.838,1.051-2.552,1.387-3.034l-0.198-1.282
	c0.23-0.123,1.263-0.917,1.283-0.917c1.446,0,1.452,8.366,1.527,10.469l0.344,3.804l0.33,0.403c0.52-0.348,4.259-6.383,4.694-7.413
	c0.299-0.709,0.716-1.259,0.923-2.012c0.186-0.669,0.069-2.071,0.239-2.88c0.167-0.802,1.11-4.582,1.136-4.707l0.896-0.416
	c0.283,0.269,0.917,0.695,0.917,1.101v2.385c0,0.648-0.551,0.554-0.551,0.917c0,0.496,0.088,0.506,0.185,0.917
	c-1.829,3.454-0.633,6.588,0.183,10.09c1.323-0.886,2.404-5.104,3.597-6.859c0.369-0.543,1.497-3.057,1.542-3.779
	c0.071-1.191,0.188-1.55,0.318-2.433c0.099-0.659-0.133-0.682,0.306-0.978c0.189-0.129,0.991-0.443,1.024-0.443
	c0.598,0,0.708,0.521,0.908,0.916l-0.908,7.156l0.05,1.284v1.467l-0.05,1.469v1.284c0,0.559,0.177,0.74,0.367,1.101
	c-0.126,0.224-0.183,0.196-0.183,0.55c0,0.49,0.264,0.543,0.55,0.733c-0.336,0.701-0.066,2.019-1.1,2.019l-0.517-0.013l-0.219-0.538
	l-0.896,0.008l-0.388-7.161c-0.849,0.976-1.375,3.956-2.567,4.586c-0.025,1.137-0.817,2.2-1.835,2.2
	c-0.517,0-0.34-0.079-0.541-0.334l-0.732,0.19l-0.189,0.011l-1.473-5.737c-0.802,0.214-1.371,1.979-1.883,2.703
	c-0.496,0.7-0.44,1.19-0.81,1.575c-0.643,0.667-0.946,0.087-0.977,1.408c-1.038,0.277-0.968,2.202-2.383,2.202
	c-0.352,0-0.127-0.366-0.735-0.366h-0.551c-0.405-1.746-0.933-2.895-0.919-5.319c0.015-2.36-0.365-3.373-0.473-5.766l-5.027,7.049
	c0.189,0.36,0.365,0.54,0.365,1.1v0.734c0,0.15-1.183,2.764-1.356,3.047c-0.613,1.001-1.739,1.656-1.817,2.572L138.496,43.574
	L138.496,43.574z M138.496,22.337c0.379-0.246,0.777-0.391,1.19-0.391c0,1.142,0.435,3.626,1.284,3.853l-0.151-0.742
	c1.073-0.802,1.362-5.128-0.397-5.128c-0.771,0-1.396,0.175-1.926,0.46V22.337z M106.301,41.116h0.184l0.553-0.081l-0.004,0.723
	l-0.732,0.152v2.001c2.27-0.653,3.099-3.249,4.955-4.534c1.978-1.367,3.138-3.579,4.766-4.773c1.675,1.227,0.344,4.447,3.303,5.137
	c1.193-0.799,2.201-2.261,2.201-4.219c0.286-0.191,0.551-0.243,0.551-0.734c0-0.354-0.058-0.327-0.183-0.55l0.393-0.529
	l-0.027-0.938l0.175,0.081l0.874-1.854c0.244,0.211,0.861,4.969,0.871,5.802c0.022,1.931,0.741,4.096,1.566,5.327l0.723-0.224
	l0.521,0.629l0.247-0.766c1.217-0.109,2.297-2.815,2.737-3.849c0.246-0.577,1.458-4.361,1.458-4.963V32.22h0.367v0.55
	c0,2.191,1.121,2.526,2.53,3.34c1.606,0.925,3.193,0.48,4.167,0.581v-1.777l-1.005,0.104l-0.924-0.048
	c-3.949,0-2.971-4.565-1.868-6.821c0.717-1.465,2.071-4.694,3.797-5.812v-1.949c-1.312,0.704-2.041,2.076-2.927,3.127
	c-0.397,0.471-1.525,1.97-1.786,2.433c-0.458,0.814-0.662,2.085-1.434,2.602l0.643-8.249c-0.521-0.292-1.051-0.739-1.743-0.739
	c-0.853,0-2.386,3.28-2.386,4.035v0.917c2.415-0.054,0.992-2.804,2.568-2.935l0.173,0.554l-0.91,6.417l-0.39,0.528
	c0.025,1.957-0.719,3.851-1.112,5.671c-0.323,1.488-1.655,3.231-1.98,4.625h-0.549l-0.311-1.122l-0.657-5.478l-0.317-0.005
	c0.121-0.521,0.183-0.313,0.183-0.733l-0.061-1.101c0.061-0.036-0.182-2.13-0.214-2.279c-0.197-0.918-0.512-1.397-1.192-1.757
	c-1.428,0.685-2.098,2.145-2.651,3.769c-0.25,0.732-1.568,4.359-1.568,4.67v0.733l-0.7,0.581l-0.809-1.75l-0.995-6.703l0.12-0.75
	c0-0.561,0.399-1.59,0.732-1.835c-0.222-0.331-0.365-0.322-0.365-0.733v-0.55c0.663-0.155,0.917-0.286,0.917-1.101v-0.918h-0.734
	v0.734l-1.087,0.75c-0.015,1.365-0.38,1.195-0.732,2.03c-0.264,0.624-0.038,1.131-0.27,2.106c-0.264,1.119-0.543,3.191,0.07,4.469
	c-0.503,0.753-2.821,3.471-3.669,3.669l1.196-3.336c0.089-1.328,0.456-1.174,0.456-1.983v-1.469c0-2.791-1.965-6.787-4.587-6.787
	c-0.774,0-1.272,0.884-2.201,1.101l0.219,0.538c-0.46,0.242-0.83,0.546-1.135,0.898v6.293c0.106-1.264,0.534-2.004,0.937-3.121
	c0.186-0.512,0.45-1.26,0.675-1.709c0.471-0.935,0.956-0.57,0.956-1.247v-0.917h1.283c0.671,0,0.845,0.867,1.469,1.284l0.283,1.309
	c0.083,1.045,0.449,1.592,0.449,2.543c0,1.532-1.098,4.691-1.617,5.719c-0.591,1.169-1.616,4.188-3.151,4.188
	c-0.549,0-0.957-0.274-1.283-0.627V41.116L106.301,41.116z M138.496,37.319v2.382c-0.757,1.082-1.745,2.292-1.745,2.607v0.55
	c0.188-0.049,1.168-1.007,1.745-1.601v2.316l-2.479,2.036c-0.259-0.128-0.304-0.184-0.734-0.184h-0.549l-0.011-0.51l-0.725-0.224
	c0.32-1.367,2.238-4.939,3.304-5.503l0.102-0.641L138.496,37.319z M105.941,41.984l-0.375-0.868h0.734v-2.369
	c-0.298-0.325-0.528-0.717-0.734-1.025l0.033-4.401c-0.033-0.1,0.229-0.401,0.333-0.551l-0.173-0.555l0.518-0.39
	c0.003-0.176,0.012-0.343,0.023-0.5v-6.293c-1.3,1.504-1.401,3.886-2.203,6.086c-0.272,0.75-0.733,7.976-0.733,9.173
	c0,2.134,1.44,2.791,2.752,3.668c0.063-0.014,0.125-0.03,0.185-0.048V41.91L105.941,41.984z"/>
<path fill-rule="evenodd" clip-rule="evenodd" fill="#9C9E9F" d="M12.555,13.259l-1.646,0.065l0.004,0.431l-7.159,0.486v-0.367
	H2.837c-0.593,0-0.917,0.666-0.917,1.284c0,0.663,2.502,1.468,3.302,1.468l-0.116,0.15l1.033,0.584l-0.083-0.412L4.851,16.03
	l5.141-0.505l0.516,0.013l0.218,0.537c-0.114,0.488-0.218,0.407-0.152,0.915l1.203,17.247l0.05,1.467v2.201
	c0,1.722-0.01,4.453-0.22,5.835c-0.186,1.226-0.86,4.434-0.815,5.226l1.219,0.68c0.561-0.41,1.101-1.591,1.101-2.567v-0.184
	c0-4.198,0.411-9.613,0.142-13.756l-0.839-17.577l0.325-0.479l10.278-0.659h1.468c0.653,0,0.719,0.435,0.733,1.101l0.097,0.158
	l1.281-0.903l0.273-1.272c0.061-0.461-0.131-0.467-0.192-1.226L12.555,13.259z"/>
<path fill-rule="evenodd" clip-rule="evenodd" fill="#9C9E9F" d="M160.966,11.123c0,0.701-0.056,0.066,0.184,0.55
	c1.72-1.151,4.353-4.953,7.154-4.953h0.918c0.451,0,1.077,0.608,1.284,0.917l0.188,0.103l-2.756,5.217
	c-0.928,0.077-1.084,0.55-1.284,0.55c-0.623,0-0.798-0.862-0.878-1.326c-0.223-1.324,0.139-0.826-0.881-0.988l-1.177,1.396
	c0.284,0.592,0.202,1.018,0.63,1.754c0.225,0.383,1.188,0.998,1.572,0.998h0.55c0.629,0,3.165-2.074,3.603-2.635
	c0.925-1.184,1.546-2.892,2.189-3.97l0.078-0.733c0-0.16-0.743-1.643-0.881-1.871c-0.297-0.495-1.171-0.791-1.687-1.064
	c-2.946,0.686-3.104,0.457-5.322,2.017C163.638,7.657,160.966,10.031,160.966,11.123z"/>
<path fill-rule="evenodd" clip-rule="evenodd" fill="#9C9E9F" d="M19.513,47.632c1.059-0.09,0.711-0.554,1.118-0.554
	c0.165,0,1.29,0.465,1.468,0.55c0.33-0.286,0.55-0.218,0.55-0.733v-0.55c0-0.663-1.658-1.207-2.201-1.468L19.724,45.1l-0.643,0.714
	L19.513,47.632z"/>
</svg>
