<?xml version="1.0" encoding="UTF-8" standalone="no"?>
<svg width="65px" height="73px" viewBox="0 0 65 73" version="1.1" xmlns="http://www.w3.org/2000/svg" xmlns:xlink="http://www.w3.org/1999/xlink">
    <!-- Generator: Sketch 50.2 (55047) - http://www.bohemiancoding.com/sketch -->
    <title>Group Copy 3</title>
    <desc>Created with Sketch.</desc>
    <defs></defs>
    <g id="Page-1" stroke="none" stroke-width="1" fill="none" fill-rule="evenodd">
        <g id="Desktop-HD-Copy-90" transform="translate(-109.000000, -881.000000)">
            <g id="Group-4-Copy-9" transform="translate(109.000000, 881.000000)">
                <g id="Group-Copy-3">
                    <g id="Group-4">
                        <g id="Group-6">
                            <g id="Group-7">
                                <g id="Group-8">
                                    <g id="Group-9">
                                        <path d="M31.8045558,24 L38.9423828,40.1889648 C39.0354873,40.4067908 47.3866347,42.1026792 63.995825,45.2766301 C64.4665241,45.3169172 62.9887491,39.5053061 59.5625,27.8417969 C59.4782386,27.6450336 50.2255905,26.3644346 31.8045558,24 Z M0.241210938,44.0361328 C0.0376031901,44.4998171 7.78934362,44.0576754 23.4964322,42.7097078 C23.7175825,42.6858879 26.486921,36.4493186 31.8044479,24 C14.245868,27.5405138 5.42415968,29.4073142 5.33932312,29.6004011 L0.241210938,44.0361328 Z M34.4785156,58.8603516 L51.2392578,62.7841797 L52.9023438,52.0341797 C52.9023438,51.6401935 54.3497013,50.6362317 57.2444164,49.022294 C57.5569456,49.0605131 57.8311187,54.8546905 58.0669356,66.4048261 C58.0669356,66.8710379 31.3012521,73.0663244 30.1547722,72.8094369 C13.7688061,69.8088296 5.57208445,68.1558792 5.56460733,67.8505859 L5.56460733,49.9572452 C5.55612367,49.6089841 12.4776368,48.6505577 26.3291466,47.0819659 C26.674568,47.0496826 31.8938499,38.003358 31.8938499,39.0866284 L34.4785156,58.8603516 Z" id="Fill-1" fill="#FFFFFF"></path>
                                        <polygon id="Path-11" fill="#FF0082" points="7.21877655 22.2070312 13.8555492 0 19.7832031 0 19.7832031 22.2070312"></polygon>
                                    </g>
                                    <polygon id="Triangle-2" fill="#FF0082" transform="translate(15.264565, 24.827845) scale(1, -1) rotate(5.000000) translate(-15.264565, -24.827845) " points="15.2645648 17.9949069 26.9781736 31.6607838 3.55095601 31.6607838"></polygon>
                                </g>
                            </g>
                        </g>
                    </g>
                </g>
            </g>
        </g>
    </g>
</svg>