<?xml version="1.0" encoding="UTF-8" standalone="no"?>
<svg width="26px" height="26px" viewBox="0 0 26 26" version="1.1" xmlns="http://www.w3.org/2000/svg" xmlns:xlink="http://www.w3.org/1999/xlink">
    <!-- Generator: Sketch 48.2 (47327) - http://www.bohemiancoding.com/sketch -->
    <title>Group 18</title>
    <desc>Created with Sketch.</desc>
    <defs>
        <rect id="path-1" x="0" y="0" width="26" height="26"></rect>
        <polygon id="path-3" points="0 0.017004878 12.9817683 0.017004878 12.9817683 14 0 14"></polygon>
    </defs>
    <g id="Page-1" stroke="none" stroke-width="1" fill="none" fill-rule="evenodd">
        <g id="Group-18">
            <rect id="Rectangle-12-Copy" fill="#0B2435" x="0" y="0" width="26" height="26"></rect>
            <rect id="Rectangle-12-Copy" fill="#0B2435" x="0" y="0" width="26" height="26"></rect>
            <g id="kosz-icon-copy-3">
                <mask id="mask-2" fill="white">
                    <use xlink:href="#path-1"></use>
                </mask>
                <use id="Mask" fill="#0B2435" xlink:href="#path-1"></use>
                <g id="kosz-icon-copy-4" mask="url(#mask-2)">
                    <g transform="translate(-3.000000, -8.000000)" id="Page-1">
                        <g transform="translate(6.000000, 11.000000)">
                            <g id="Group-3">
                                <mask id="mask-4" fill="white">
                                    <use xlink:href="#path-3"></use>
                                </mask>
                                <g id="Clip-2"></g>
                                <path d="M7.11971951,8.45088488 L10.2901341,8.45088488 C9.73360732,10.1452946 8.22643171,11.3601532 6.4618561,11.3461532 C4.3207878,11.32908 2.55044146,9.48449463 2.46730488,7.1803678 C2.37820732,4.71063122 4.21811951,2.67072878 6.49210488,2.67072878 C7.53185122,2.67072878 8.48059756,3.09735317 9.19597805,3.79646537 C9.36535854,3.96207512 9.62326585,3.9631678 9.78991951,3.79421171 L10.954339,2.61397756 C11.1364659,2.42938244 11.1371634,2.11762634 10.9556073,1.93234829 C9.82118293,0.774992195 8.29942195,0.0536165854 6.6213439,0.0182409756 C3.04209512,-0.0569492683 0.0250804878,3.10336293 0.000158536585,6.95862146 C-0.0250170732,10.8428361 2.89116829,14.0000068 6.49210488,14.0000068 C9.9549878,14.0000068 12.783978,11.0800166 12.9733976,7.40170439 C12.9784073,7.35560683 12.9817683,5.79703122 12.9817683,5.79703122 L7.11971951,5.79703122 C6.87944146,5.79703122 6.68469512,6.00675805 6.68469512,6.26551902 L6.68469512,7.98232878 C6.68469512,8.24108976 6.87944146,8.45088488 7.11971951,8.45088488" id="Fill-1" fill="#FFFFFF" mask="url(#mask-4)"></path>
                            </g>
                            <path d="M19.045224,5.95471208 L19.045224,4.38431866 C19.045224,4.17205149 18.8731725,4 18.6608414,4 L17.3391586,4 C17.1268914,4 16.9548399,4.17205149 16.9548399,4.38431866 L16.9548399,5.95471208 L15.3843826,5.95471208 C15.1721154,5.95471208 15,6.12676357 15,6.33909467 L15,7.6608414 C15,7.87310856 15.1721154,8.04516005 15.3843826,8.04516005 L16.9548399,8.04516005 L16.9548399,9.61561741 C16.9548399,9.82788457 17.1268914,10 17.3391586,10 L18.6608414,10 C18.8731725,10 19.045224,9.82788457 19.045224,9.61561741 L19.045224,8.04516005 L20.6156174,8.04516005 C20.8279485,8.04516005 21,7.87310856 21,7.6608414 L21,6.33909467 C21,6.12676357 20.8279485,5.95471208 20.6156174,5.95471208 L19.045224,5.95471208 Z" id="Fill-4" fill="#FFFFFF"></path>
                        </g>
                    </g>
                </g>
            </g>
        </g>
    </g>
</svg>