<?xml version="1.0" encoding="UTF-8" standalone="no"?>
<svg width="30px" height="32px" viewBox="0 0 30 32" version="1.1" xmlns="http://www.w3.org/2000/svg" xmlns:xlink="http://www.w3.org/1999/xlink">
    <!-- Generator: Sketch 47.1 (45422) - http://www.bohemiancoding.com/sketch -->
    <title>calendar</title>
    <desc>Created with Sketch.</desc>
    <defs></defs>
    <g id="Page-1" stroke="none" stroke-width="1" fill="none" fill-rule="evenodd">
        <g id="Desktop-HD-Copy-2" transform="translate(-1391.000000, -9.000000)" fill="#FFFFFF">
            <g id="Group-13">
                <g id="Group-9">
                    <g id="Group-11" transform="translate(1371.000000, 0.000000)">
                        <g id="calendar" transform="translate(20.000000, 9.000000)">
                            <g id="Page-1">
                                <path d="M1.07144593,30.9333154 L28.9285541,30.9333154 L28.9285541,9.06668459 L1.07144593,9.06668459 L1.07144593,30.9333154 Z M1.07144593,3.2 L4.28567572,3.2 L4.28567572,4.8 C4.28567572,5.09496035 4.52520271,5.33336917 4.82142568,5.33336917 L8.57140543,5.33336917 C8.86768239,5.33336917 9.1071014,5.09496035 9.1071014,4.8 L9.1071014,3.2 L20.8928446,3.2 L20.8928446,4.8 C20.8928446,5.09496035 21.1322636,5.33336917 21.4285406,5.33336917 L25.1785743,5.33336917 C25.4747973,5.33336917 25.7142703,5.09496035 25.7142703,4.8 L25.7142703,3.2 L28.9285541,3.2 L28.9285541,8 L1.07144593,8 L1.07144593,3.2 Z M5.35712164,1.06668459 L8.03565547,1.06668459 L8.03565547,2.66668459 L8.03565547,4.26668459 L5.35712164,4.26668459 L5.35712164,2.66668459 L5.35712164,1.06668459 Z M21.9642365,1.06668459 L24.6428244,1.06668459 L24.6428244,2.66668459 L24.6428244,4.26668459 L21.9642365,4.26668459 L21.9642365,2.66668459 L21.9642365,1.06668459 Z M29.46425,2.13331541 L25.7142703,2.13331541 L25.7142703,0.533315415 C25.7142703,0.238408816 25.4747973,0 25.1785743,0 L21.4285406,0 C21.1322636,0 20.8928446,0.238408816 20.8928446,0.533315415 L20.8928446,2.13331541 L9.1071014,2.13331541 L9.1071014,0.533315415 C9.1071014,0.238408816 8.86768239,0 8.57140543,0 L4.82142568,0 C4.52520271,0 4.28567572,0.238408816 4.28567572,0.533315415 L4.28567572,2.13331541 L0.535695966,2.13331541 C0.239472997,2.13331541 0,2.37172423 0,2.66668459 L0,8.53331541 L0,31.4666846 C0,31.7615912 0.239472997,32 0.535695966,32 L29.46425,32 C29.760473,32 30,31.7615912 30,31.4666846 L30,8.53331541 L30,2.66668459 C30,2.37172423 29.760473,2.13331541 29.46425,2.13331541 L29.46425,2.13331541 Z" id="Fill-1"></path>
                                <path d="M20.2631621,16.655167 L23.9473517,16.655167 L23.9473517,13.0344468 L20.2631621,13.0344468 L20.2631621,16.655167 Z M20.2631621,21.310334 L23.9473517,21.310334 L23.9473517,17.689666 L20.2631621,17.689666 L20.2631621,21.310334 Z M20.2631621,25.9655011 L23.9473517,25.9655011 L23.9473517,22.344833 L20.2631621,22.344833 L20.2631621,25.9655011 Z M15.5262711,25.9655011 L19.2105138,25.9655011 L19.2105138,22.344833 L15.5262711,22.344833 L15.5262711,25.9655011 Z M10.7894862,25.9655011 L14.4736758,25.9655011 L14.4736758,22.344833 L10.7894862,22.344833 L10.7894862,25.9655011 Z M6.05264833,25.9655011 L9.73683792,25.9655011 L9.73683792,22.344833 L6.05264833,22.344833 L6.05264833,25.9655011 Z M6.05264833,21.310334 L9.73683792,21.310334 L9.73683792,17.689666 L6.05264833,17.689666 L6.05264833,21.310334 Z M6.05264833,16.655167 L9.73683792,16.655167 L9.73683792,13.0344468 L6.05264833,13.0344468 L6.05264833,16.655167 Z M10.7894862,16.655167 L14.4736758,16.655167 L14.4736758,13.0344468 L10.7894862,13.0344468 L10.7894862,16.655167 Z M10.7894862,21.310334 L14.4736758,21.310334 L14.4736758,17.689666 L10.7894862,17.689666 L10.7894862,21.310334 Z M15.5262711,21.310334 L19.2105138,21.310334 L19.2105138,17.689666 L15.5262711,17.689666 L15.5262711,21.310334 Z M15.5262711,16.655167 L19.2105138,16.655167 L19.2105138,13.0344468 L15.5262711,13.0344468 L15.5262711,16.655167 Z M19.2105138,12 L15.5262711,12 L14.4736758,12 L10.7894862,12 L9.73683792,12 L5,12 L5,16.655167 L5,17.689666 L5,21.310334 L5,22.344833 L5,27 L9.73683792,27 L10.7894862,27 L14.4736758,27 L15.5262711,27 L19.2105138,27 L20.2631621,27 L25,27 L25,22.344833 L25,21.310334 L25,17.689666 L25,16.655167 L25,12 L20.2631621,12 L19.2105138,12 Z" id="Fill-3"></path>
                            </g>
                        </g>
                    </g>
                </g>
            </g>
        </g>
    </g>
</svg>