<?xml version="1.0" encoding="UTF-8" standalone="no"?>
<svg width="59px" height="58px" viewBox="0 0 59 58" version="1.1" xmlns="http://www.w3.org/2000/svg" xmlns:xlink="http://www.w3.org/1999/xlink">
    <!-- Generator: Sketch 50.2 (55047) - http://www.bohemiancoding.com/sketch -->
    <title>icon-random copy 12</title>
    <desc>Created with Sketch.</desc>
    <defs>
        <path d="M1.24683365,0.0340215264 C0.55848566,0.0340215264 0,0.595767123 0,1.28813307 L0,55.6343425 C0,56.3267084 0.55848566,56.888454 1.24683365,56.888454 L56.6630057,56.888454 C57.3514646,56.888454 57.9098394,56.3267084 57.9098394,55.6343425 L57.9098394,1.28813307 C57.9098394,0.595767123 57.3514646,0.0340215264 56.6630057,0.0340215264 L1.24683365,0.0340215264 Z M2.4936673,2.54235616 L55.416283,2.54235616 L55.416283,54.3802309 L44.055935,54.3802309 L44.055935,19.4035362 C44.055935,18.7111703 43.4973384,18.1494247 42.8088795,18.1494247 L15.1008489,18.1494247 C14.412501,18.1494247 13.8539044,18.7111703 13.8539044,19.4035362 L13.8539044,54.3802309 L2.4936673,54.3802309 L2.4936673,2.54235616 Z M16.3477935,54.3802309 L41.5620459,54.3802309 L41.5620459,20.6577593 L16.3477935,20.6577593 L16.3477935,54.3802309 Z" id="path-1"></path>
        <linearGradient x1="0%" y1="49.9999693%" x2="100.000096%" y2="49.9999693%" id="linearGradient-3">
            <stop stop-color="#FFAE08" offset="0%"></stop>
            <stop stop-color="#F68E1C" offset="100%"></stop>
        </linearGradient>
        <path d="M3.2234914,1.25734638 L3.2234914,6.55276908 L2.21520076,5.52141487 C1.73245889,5.0271546 0.942749522,5.02023875 0.452244742,5.50568689 C-0.0392581262,5.99135812 -0.0456902486,6.78556556 0.437051625,7.27982583 L3.58102868,10.4974814 C3.81569025,10.7375284 4.13607648,10.872499 4.47021415,10.872499 C4.80457361,10.872499 5.12484895,10.7375284 5.35962141,10.4974814 L8.50437476,7.27949119 C8.98667304,6.78511937 8.97979732,5.99135812 8.48884895,5.50568689 C7.99790057,5.02023875 7.2081912,5.0271546 6.72556023,5.52141487 L5.7172696,6.55276908 L5.7172696,1.25734638 C5.7172696,0.564868885 5.15878394,0.00334637965 4.47021415,0.00334637965 C3.78186616,0.00334637965 3.2234914,0.564868885 3.2234914,1.25734638" id="path-4"></path>
        <linearGradient x1="0.00015718774%" y1="49.9994869%" x2="99.9997356%" y2="49.9994869%" id="linearGradient-6">
            <stop stop-color="#FFAE08" offset="0%"></stop>
            <stop stop-color="#F68E1C" offset="100%"></stop>
        </linearGradient>
        <path d="M3.53256597,0.378252446 L0.38781262,3.59579648 C-0.0949292543,4.09050294 -0.0880535373,4.88482192 0.403892925,5.37027006 C0.894730402,5.85582975 1.68432887,5.84891389 2.16718164,5.35376125 L3.17547228,4.32307632 L3.17547228,9.61838748 C3.17547228,10.3106419 3.73395793,10.872499 4.42230593,10.872499 C5.11076482,10.872499 5.66913958,10.3106419 5.66913958,9.61838748 L5.66913958,4.32307632 L6.67754111,5.35376125 C7.16028298,5.84802153 7.94988145,5.85538356 8.44038623,5.36993542 C8.9317782,4.88437573 8.93821033,4.09005675 8.45557935,3.59579648 L5.31071511,0.378252446 C5.07649713,0.138205479 4.756,0.00334637965 4.42186233,0.00334637965 C4.08728107,0.00334637965 3.76689484,0.138205479 3.53256597,0.378252446" id="path-7"></path>
        <linearGradient x1="0.000340349057%" y1="49.9994869%" x2="100.000188%" y2="49.9994869%" id="linearGradient-9">
            <stop stop-color="#FFAE08" offset="0%"></stop>
            <stop stop-color="#F68E1C" offset="100%"></stop>
        </linearGradient>
        <path d="M4.12243595,0.0607925636 C1.88017591,0.0621311155 0.0618814532,1.88880822 0.0578891013,4.14404501 L0.0578891013,10.9025049 C0.0578891013,11.595317 0.615931166,12.156728 1.30472275,12.156728 L1.63298279,12.156728 L2.05595029,19.2638806 C2.09498662,19.9262407 2.64049713,20.443591 3.30023327,20.443591 L7.76168642,20.443591 C8.42230975,20.443591 8.96870746,19.9241213 9.006413,19.2604227 L9.40908604,12.156728 L9.73368642,12.156728 C10.422478,12.156728 10.980631,11.595317 10.980631,10.9025049 L10.980631,4.14404501 C10.9767495,1.88880822 9.15834417,0.0625772994 6.91608413,0.0607925636 L4.12243595,0.0607925636 Z M2.5517782,4.14404501 C2.55399618,3.27365166 3.25698279,2.56901566 4.12243595,2.56901566 L6.91652772,2.56901566 C7.78209178,2.56901566 8.4847457,3.27365166 8.48729637,4.14404501 L8.48729637,9.64839335 L8.23134226,9.64839335 C7.57038623,9.64839335 7.02398853,10.1669706 6.98672658,10.831227 L6.58405354,17.9353679 L4.47476099,17.9353679 L4.05223709,10.8285499 C4.01286807,10.1657436 3.46735755,9.64883953 2.80706692,9.64883953 L2.5517782,9.64883953 L2.5517782,4.14404501 Z" id="path-10"></path>
        <linearGradient x1="0.000467952037%" y1="50.0000855%" x2="99.999643%" y2="50.0000855%" id="linearGradient-12">
            <stop stop-color="#FFAE08" offset="0%"></stop>
            <stop stop-color="#F68E1C" offset="100%"></stop>
        </linearGradient>
        <path d="M3.39549522,0.0727279843 C1.54204589,0.0731741683 0.0402562141,1.58506849 0.0402562141,3.44889041 C0.0438049713,5.3136047 1.54637094,6.82360274 3.40070746,6.82460665 C5.25371319,6.82237573 6.75428298,5.31059295 6.7529522,3.44587867 C6.75173231,1.58239139 5.24872275,0.0728395303 3.39627151,0.0727279843 C3.39593881,0.0727279843 3.39582792,0.0727279843 3.39549522,0.0727279843 M3.39549522,4.31627202 C2.91929637,4.31582583 2.53403442,3.92697652 2.53403442,3.44889041 C2.5356979,2.96857339 2.92328872,2.58061644 3.40070746,2.58106262 C3.87613002,2.583182 4.26050478,2.9724775 4.259174,3.45145597 C4.25784321,3.92976517 3.87191587,4.31627202 3.39649331,4.31627202 C3.39616061,4.31627202 3.39582792,4.31627202 3.39549522,4.31627202" id="path-13"></path>
        <linearGradient x1="0.000464728173%" y1="49.9999871%" x2="100.000903%" y2="49.9999871%" id="linearGradient-15">
            <stop stop-color="#FFAE08" offset="0%"></stop>
            <stop stop-color="#F68E1C" offset="100%"></stop>
        </linearGradient>
        <path d="M4.08306692,0.0607925636 C1.84102868,0.0625772994 0.0230669216,1.88880822 0.0187418738,4.14404501 L0.0187418738,10.9025049 C0.0187418738,11.595317 0.577227533,12.156728 1.26601912,12.156728 L1.59461185,12.156728 L2.01713576,19.2638806 C2.05617208,19.9262407 2.60256979,20.443591 3.26186233,20.443591 L7.72287189,20.443591 C8.38393881,20.443591 8.93033652,19.9241213 8.96759847,19.2604227 L9.37016061,12.156728 L9.69487189,12.156728 C10.3837744,12.156728 10.9417055,11.595317 10.9417055,10.9025049 L10.9417055,4.14404501 C10.9378241,1.88880822 9.11941874,0.0621311155 6.8773805,0.0607925636 L4.08306692,0.0607925636 Z M2.51285277,4.14404501 C2.51595793,3.27365166 3.21805736,2.56901566 4.08351052,2.56901566 L6.8773805,2.56901566 C7.74283365,2.56901566 8.44582027,3.27365166 8.44792734,4.14404501 L8.44792734,9.64839335 L8.19263862,9.64839335 C7.53101721,9.64839335 6.9850631,10.1669706 6.94746845,10.831227 L6.54490631,17.9353679 L4.43639006,17.9353679 L4.01386616,10.8285499 C3.97405354,10.1657436 3.42854302,9.64883953 2.76869598,9.64883953 L2.51285277,9.64883953 L2.51285277,4.14404501 Z" id="path-16"></path>
        <linearGradient x1="-5.5535814e-05%" y1="50.0000855%" x2="100.000063%" y2="50.0000855%" id="linearGradient-18">
            <stop stop-color="#FFAE08" offset="0%"></stop>
            <stop stop-color="#F68E1C" offset="100%"></stop>
        </linearGradient>
        <path d="M3.35634799,0.0727279843 C1.50334226,0.0731741683 0.00177437859,1.58506849 0.00177437859,3.44889041 C0.00443594646,5.3136047 1.5076673,6.82360274 3.36144933,6.82460665 C5.21478776,6.82237573 6.71546845,5.31059295 6.71369407,3.44587867 C6.71291778,1.58239139 5.20946463,0.0728395303 3.35701338,0.0727279843 C3.35668069,0.0727279843 3.35668069,0.0727279843 3.35634799,0.0727279843 M3.35634799,4.31627202 C2.88092543,4.31582583 2.49555258,3.92697652 2.49555258,3.44889041 C2.49643977,2.96857339 2.88425239,2.58061644 3.36144933,2.58106262 C3.83764818,2.583182 4.22169025,2.9724775 4.21991587,3.45145597 C4.21913958,3.92976517 3.83299044,4.31627202 3.35723518,4.31627202 C3.35690249,4.31627202 3.35656979,4.31627202 3.35634799,4.31627202" id="path-19"></path>
        <linearGradient x1="0.000994002047%" y1="49.9999871%" x2="100.00008%" y2="49.9999871%" id="linearGradient-21">
            <stop stop-color="#FFAE08" offset="0%"></stop>
            <stop stop-color="#F68E1C" offset="100%"></stop>
        </linearGradient>
        <path d="M1.32645889,0.0414951076 C0.638110899,0.0414951076 0.0795143403,0.603240705 0.0795143403,1.29560665 C0.0795143403,1.9879726 0.638110899,2.54982975 1.32645889,2.54982975 L3.54310134,2.54982975 C4.23156023,2.54982975 4.78993499,1.9879726 4.78993499,1.29560665 C4.78993499,0.603240705 4.23156023,0.0414951076 3.54310134,0.0414951076 L1.32645889,0.0414951076 Z" id="path-22"></path>
        <linearGradient x1="0.00182083579%" y1="49.9988189%" x2="100.000901%" y2="49.9988189%" id="linearGradient-24">
            <stop stop-color="#FFAE08" offset="0%"></stop>
            <stop stop-color="#F68E1C" offset="100%"></stop>
        </linearGradient>
        <path d="M1.32645889,0.038148728 C0.638110899,0.038148728 0.0795143403,0.599894325 0.0795143403,1.29226027 C0.0795143403,1.98462622 0.638110899,2.54637182 1.32645889,2.54637182 L3.54310134,2.54637182 C4.23156023,2.54637182 4.78993499,1.98462622 4.78993499,1.29226027 C4.78993499,0.599894325 4.23156023,0.038148728 3.54310134,0.038148728 L1.32645889,0.038148728 Z" id="path-25"></path>
        <linearGradient x1="0.00182083579%" y1="49.9998261%" x2="100.000901%" y2="49.9998261%" id="linearGradient-27">
            <stop stop-color="#FFAE08" offset="0%"></stop>
            <stop stop-color="#F68E1C" offset="100%"></stop>
        </linearGradient>
    </defs>
    <g id="Page-1" stroke="none" stroke-width="1" fill="none" fill-rule="evenodd">
        <g id="Home-Copy-24" transform="translate(-740.000000, -5762.000000)">
            <g id="06" transform="translate(734.000000, 5756.000000)">
                <g id="6" transform="translate(6.222222, 6.222222)">
                    <g id="Group-3" transform="translate(0.000000, 0.077524)">
                        <mask id="mask-2" fill="white">
                            <use xlink:href="#path-1"></use>
                        </mask>
                        <g id="Clip-2"></g>
                        <path d="M1.24683365,0.0340215264 C0.55848566,0.0340215264 0,0.595767123 0,1.28813307 L0,55.6343425 C0,56.3267084 0.55848566,56.888454 1.24683365,56.888454 L56.6630057,56.888454 C57.3514646,56.888454 57.9098394,56.3267084 57.9098394,55.6343425 L57.9098394,1.28813307 C57.9098394,0.595767123 57.3514646,0.0340215264 56.6630057,0.0340215264 L1.24683365,0.0340215264 Z M2.4936673,2.54235616 L55.416283,2.54235616 L55.416283,54.3802309 L44.055935,54.3802309 L44.055935,19.4035362 C44.055935,18.7111703 43.4973384,18.1494247 42.8088795,18.1494247 L15.1008489,18.1494247 C14.412501,18.1494247 13.8539044,18.7111703 13.8539044,19.4035362 L13.8539044,54.3802309 L2.4936673,54.3802309 L2.4936673,2.54235616 Z M16.3477935,54.3802309 L41.5620459,54.3802309 L41.5620459,20.6577593 L16.3477935,20.6577593 L16.3477935,54.3802309 Z" id="Fill-1" fill="url(#linearGradient-3)" mask="url(#mask-2)"></path>
                    </g>
                    <g id="Group-6" transform="translate(30.718929, 4.985548)">
                        <mask id="mask-5" fill="white">
                            <use xlink:href="#path-4"></use>
                        </mask>
                        <g id="Clip-5"></g>
                        <path d="M3.2234914,1.25734638 L3.2234914,6.55276908 L2.21520076,5.52141487 C1.73245889,5.0271546 0.942749522,5.02023875 0.452244742,5.50568689 C-0.0392581262,5.99135812 -0.0456902486,6.78556556 0.437051625,7.27982583 L3.58102868,10.4974814 C3.81569025,10.7375284 4.13607648,10.872499 4.47021415,10.872499 C4.80457361,10.872499 5.12484895,10.7375284 5.35962141,10.4974814 L8.50437476,7.27949119 C8.98667304,6.78511937 8.97979732,5.99135812 8.48884895,5.50568689 C7.99790057,5.02023875 7.2081912,5.0271546 6.72556023,5.52141487 L5.7172696,6.55276908 L5.7172696,1.25734638 C5.7172696,0.564868885 5.15878394,0.00334637965 4.47021415,0.00334637965 C3.78186616,0.00334637965 3.2234914,0.564868885 3.2234914,1.25734638" id="Fill-4" fill="url(#linearGradient-6)" mask="url(#mask-5)"></path>
                    </g>
                    <g id="Group-9" transform="translate(18.298279, 4.985548)">
                        <mask id="mask-8" fill="white">
                            <use xlink:href="#path-7"></use>
                        </mask>
                        <g id="Clip-8"></g>
                        <path d="M3.53256597,0.378252446 L0.38781262,3.59579648 C-0.0949292543,4.09050294 -0.0880535373,4.88482192 0.403892925,5.37027006 C0.894730402,5.85582975 1.68432887,5.84891389 2.16718164,5.35376125 L3.17547228,4.32307632 L3.17547228,9.61838748 C3.17547228,10.3106419 3.73395793,10.872499 4.42230593,10.872499 C5.11076482,10.872499 5.66913958,10.3106419 5.66913958,9.61838748 L5.66913958,4.32307632 L6.67754111,5.35376125 C7.16028298,5.84802153 7.94988145,5.85538356 8.44038623,5.36993542 C8.9317782,4.88437573 8.93821033,4.09005675 8.45557935,3.59579648 L5.31071511,0.378252446 C5.07649713,0.138205479 4.756,0.00334637965 4.42186233,0.00334637965 C4.08728107,0.00334637965 3.76689484,0.138205479 3.53256597,0.378252446" id="Fill-7" fill="url(#linearGradient-9)" mask="url(#mask-8)"></path>
                    </g>
                    <g id="Group-12" transform="translate(17.411090, 33.987505)">
                        <mask id="mask-11" fill="white">
                            <use xlink:href="#path-10"></use>
                        </mask>
                        <g id="Clip-11"></g>
                        <path d="M4.12243595,0.0607925636 C1.88017591,0.0621311155 0.0618814532,1.88880822 0.0578891013,4.14404501 L0.0578891013,10.9025049 C0.0578891013,11.595317 0.615931166,12.156728 1.30472275,12.156728 L1.63298279,12.156728 L2.05595029,19.2638806 C2.09498662,19.9262407 2.64049713,20.443591 3.30023327,20.443591 L7.76168642,20.443591 C8.42230975,20.443591 8.96870746,19.9241213 9.006413,19.2604227 L9.40908604,12.156728 L9.73368642,12.156728 C10.422478,12.156728 10.980631,11.595317 10.980631,10.9025049 L10.980631,4.14404501 C10.9767495,1.88880822 9.15834417,0.0625772994 6.91608413,0.0607925636 L4.12243595,0.0607925636 Z M2.5517782,4.14404501 C2.55399618,3.27365166 3.25698279,2.56901566 4.12243595,2.56901566 L6.91652772,2.56901566 C7.78209178,2.56901566 8.4847457,3.27365166 8.48729637,4.14404501 L8.48729637,9.64839335 L8.23134226,9.64839335 C7.57038623,9.64839335 7.02398853,10.1669706 6.98672658,10.831227 L6.58405354,17.9353679 L4.47476099,17.9353679 L4.05223709,10.8285499 C4.01286807,10.1657436 3.46735755,9.64883953 2.80706692,9.64883953 L2.5517782,9.64883953 L2.5517782,4.14404501 Z" id="Fill-10" fill="url(#linearGradient-12)" mask="url(#mask-11)"></path>
                    </g>
                    <g id="Group-15" transform="translate(19.518164, 26.402378)">
                        <mask id="mask-14" fill="white">
                            <use xlink:href="#path-13"></use>
                        </mask>
                        <g id="Clip-14"></g>
                        <path d="M3.39549522,0.0727279843 C1.54204589,0.0731741683 0.0402562141,1.58506849 0.0402562141,3.44889041 C0.0438049713,5.3136047 1.54637094,6.82360274 3.40070746,6.82460665 C5.25371319,6.82237573 6.75428298,5.31059295 6.7529522,3.44587867 C6.75173231,1.58239139 5.24872275,0.0728395303 3.39627151,0.0727279843 C3.39593881,0.0727279843 3.39582792,0.0727279843 3.39549522,0.0727279843 M3.39549522,4.31627202 C2.91929637,4.31582583 2.53403442,3.92697652 2.53403442,3.44889041 C2.5356979,2.96857339 2.92328872,2.58061644 3.40070746,2.58106262 C3.87613002,2.583182 4.26050478,2.9724775 4.259174,3.45145597 C4.25784321,3.92976517 3.87191587,4.31627202 3.39649331,4.31627202 C3.39616061,4.31627202 3.39582792,4.31627202 3.39549522,4.31627202" id="Fill-13" fill="url(#linearGradient-15)" mask="url(#mask-14)"></path>
                    </g>
                    <g id="Group-18" transform="translate(29.499044, 33.987505)">
                        <mask id="mask-17" fill="white">
                            <use xlink:href="#path-16"></use>
                        </mask>
                        <g id="Clip-17"></g>
                        <path d="M4.08306692,0.0607925636 C1.84102868,0.0625772994 0.0230669216,1.88880822 0.0187418738,4.14404501 L0.0187418738,10.9025049 C0.0187418738,11.595317 0.577227533,12.156728 1.26601912,12.156728 L1.59461185,12.156728 L2.01713576,19.2638806 C2.05617208,19.9262407 2.60256979,20.443591 3.26186233,20.443591 L7.72287189,20.443591 C8.38393881,20.443591 8.93033652,19.9241213 8.96759847,19.2604227 L9.37016061,12.156728 L9.69487189,12.156728 C10.3837744,12.156728 10.9417055,11.595317 10.9417055,10.9025049 L10.9417055,4.14404501 C10.9378241,1.88880822 9.11941874,0.0621311155 6.8773805,0.0607925636 L4.08306692,0.0607925636 Z M2.51285277,4.14404501 C2.51595793,3.27365166 3.21805736,2.56901566 4.08351052,2.56901566 L6.8773805,2.56901566 C7.74283365,2.56901566 8.44582027,3.27365166 8.44792734,4.14404501 L8.44792734,9.64839335 L8.19263862,9.64839335 C7.53101721,9.64839335 6.9850631,10.1669706 6.94746845,10.831227 L6.54490631,17.9353679 L4.43639006,17.9353679 L4.01386616,10.8285499 C3.97405354,10.1657436 3.42854302,9.64883953 2.76869598,9.64883953 L2.51285277,9.64883953 L2.51285277,4.14404501 Z" id="Fill-16" fill="url(#linearGradient-18)" mask="url(#mask-17)"></path>
                    </g>
                    <g id="Group-21" transform="translate(31.606119, 26.402378)">
                        <mask id="mask-20" fill="white">
                            <use xlink:href="#path-19"></use>
                        </mask>
                        <g id="Clip-20"></g>
                        <path d="M3.35634799,0.0727279843 C1.50334226,0.0731741683 0.00177437859,1.58506849 0.00177437859,3.44889041 C0.00443594646,5.3136047 1.5076673,6.82360274 3.36144933,6.82460665 C5.21478776,6.82237573 6.71546845,5.31059295 6.71369407,3.44587867 C6.71291778,1.58239139 5.20946463,0.0728395303 3.35701338,0.0727279843 C3.35668069,0.0727279843 3.35668069,0.0727279843 3.35634799,0.0727279843 M3.35634799,4.31627202 C2.88092543,4.31582583 2.49555258,3.92697652 2.49555258,3.44889041 C2.49643977,2.96857339 2.88425239,2.58061644 3.36144933,2.58106262 C3.83764818,2.583182 4.22169025,2.9724775 4.21991587,3.45145597 C4.21913958,3.92976517 3.83299044,4.31627202 3.35723518,4.31627202 C3.35690249,4.31627202 3.35656979,4.31627202 3.35634799,4.31627202" id="Fill-19" fill="url(#linearGradient-21)" mask="url(#mask-20)"></path>
                    </g>
                    <g id="Group-24" transform="translate(5.877629, 34.210597)">
                        <mask id="mask-23" fill="white">
                            <use xlink:href="#path-22"></use>
                        </mask>
                        <g id="Clip-23"></g>
                        <path d="M1.32645889,0.0414951076 C0.638110899,0.0414951076 0.0795143403,0.603240705 0.0795143403,1.29560665 C0.0795143403,1.9879726 0.638110899,2.54982975 1.32645889,2.54982975 L3.54310134,2.54982975 C4.23156023,2.54982975 4.78993499,1.9879726 4.78993499,1.29560665 C4.78993499,0.603240705 4.23156023,0.0414951076 3.54310134,0.0414951076 L1.32645889,0.0414951076 Z" id="Fill-22" fill="url(#linearGradient-24)" mask="url(#mask-23)"></path>
                    </g>
                    <g id="Group-27" transform="translate(5.877629, 39.787896)">
                        <mask id="mask-26" fill="white">
                            <use xlink:href="#path-25"></use>
                        </mask>
                        <g id="Clip-26"></g>
                        <path d="M1.32645889,0.038148728 C0.638110899,0.038148728 0.0795143403,0.599894325 0.0795143403,1.29226027 C0.0795143403,1.98462622 0.638110899,2.54637182 1.32645889,2.54637182 L3.54310134,2.54637182 C4.23156023,2.54637182 4.78993499,1.98462622 4.78993499,1.29226027 C4.78993499,0.599894325 4.23156023,0.038148728 3.54310134,0.038148728 L1.32645889,0.038148728 Z" id="Fill-25" fill="url(#linearGradient-27)" mask="url(#mask-26)"></path>
                    </g>
                </g>
            </g>
        </g>
    </g>
</svg>