<?xml version="1.0" encoding="UTF-8" standalone="no"?>
<svg width="67px" height="58px" viewBox="0 0 67 58" version="1.1" xmlns="http://www.w3.org/2000/svg" xmlns:xlink="http://www.w3.org/1999/xlink">
    <!-- Generator: Sketch 50.2 (55047) - http://www.bohemiancoding.com/sketch -->
    <title>icon-random copy 11</title>
    <desc>Created with Sketch.</desc>
    <defs>
        <path d="M16.2101683,0.0499223744 C15.7238865,0.0516438356 15.267182,0.358726027 15.0890724,0.854242009 C15.0886849,0.854771689 15.0886849,0.85530137 15.0880391,0.85569863 L9.7103953,15.8637945 C9.48165558,16.5015297 9.80041879,17.2087854 10.422317,17.4430365 L10.4233503,17.4430365 L16.0544031,19.5629498 L14.8137065,23.0286484 C14.5856125,23.6661187 14.9042466,24.3724475 15.526274,24.6068311 L26.7904462,28.84679 L25.9626693,31.1569909 C25.2101918,33.2261872 25.9122975,35.5554566 27.6725988,36.8280137 L27.6725988,43.105653 L11.5281722,43.105653 C10.7466341,41.2740183 9.14726419,39.9441233 7.23739726,39.5383881 L7.23739726,36.9550046 C7.23739726,36.2756895 6.70061448,35.7249543 6.03751468,35.7249543 L1.20001174,35.7249543 C0.537299413,35.7249543 0,36.2756895 0,36.9550046 L0,56.6372648 C0,57.317242 0.537299413,57.8675799 1.20001174,57.8675799 L6.03751468,57.8675799 C6.70061448,57.8675799 7.23739726,57.317242 7.23739726,56.6372648 L7.23739726,54.054411 C9.14726419,53.6481461 10.7466341,52.3189132 11.5281722,50.486484 L27.6725988,50.486484 L27.6725988,51.7169315 C27.6725988,53.7551416 29.2839804,55.4076119 31.2718591,55.4076119 C33.2598669,55.4076119 34.8717652,53.7551416 34.8717652,51.7169315 L34.8717652,38.0893151 C35.9625088,37.5348721 36.8048806,36.573105 37.224775,35.4011872 L38.052681,33.0909863 L48.1899452,36.9045525 C48.3223327,36.9546073 48.4618239,36.9798995 48.6027358,36.9798995 C49.1058082,36.9798995 49.5560548,36.6582511 49.7296438,36.1739909 L50.1793738,34.9179863 C54.0838356,35.6711918 57.8442857,33.0366941 58.5784227,29.0341644 C58.8497847,27.555032 58.6737417,26.0265068 58.0734129,24.6531781 L65.3469746,20.8241187 C65.9367123,20.5143881 66.1698434,19.772968 65.8677417,19.1684703 C65.7307045,18.8938311 65.49809,18.6822237 65.216137,18.5752283 L65.2100665,18.5788037 L16.6299335,0.126328767 C16.495092,0.075347032 16.3570215,0.050716895 16.2212759,0.0499223744 L16.2101683,0.0499223744 Z M12.3764853,15.561347 L16.9254481,2.86265753 L61.8192681,19.9149224 L51.9538826,25.1136027 C51.8904658,25.1192968 51.8274364,25.1306849 51.7655695,25.1478995 L41.0678865,21.1204749 C40.6414051,20.9599817 40.163002,21.0595616 39.8315812,21.3785616 L36.4604149,24.6289452 L12.3764853,15.561347 Z M17.479409,22.7254064 L18.3077025,20.4152055 L36.328544,27.2000137 C36.7548963,27.3587854 37.2332994,27.2593379 37.5652368,26.9412648 L40.9323992,23.691411 L50.3727241,27.2463607 L47.8913307,34.1749772 L17.479409,22.7254064 Z M51.0227789,32.5659406 L52.8769785,27.3877854 L55.9050998,25.7889452 C56.3789824,26.9257717 56.4143718,28.2050822 56.0039061,29.3670685 C55.298184,31.3176164 53.48609,32.5889817 51.489816,32.5891142 C51.334955,32.5891142 51.179319,32.5815662 51.0227789,32.5659406 Z M31.8932407,36.0140274 L29.636454,35.1661416 C28.3926575,34.6979041 27.754227,33.2844521 28.2109315,32.0088493 L28.2109315,32.0083196 L29.039225,29.6995753 L35.1209119,31.9887215 L35.8002857,32.2437626 L34.9723796,34.5539635 C34.6155147,35.5487032 33.6970685,36.1651187 32.719726,36.1651187 C32.445135,36.1651187 32.1660235,36.1165205 31.8932407,36.0140274 Z M30.0719765,37.9488174 L31.0654638,38.318137 C31.5176477,38.4841918 31.9919178,38.5797991 32.4718708,38.6008539 L32.4718708,43.105653 L30.0719765,43.105653 L30.0719765,37.9488174 Z M2.39989432,55.4076119 L4.83801957,55.4076119 L4.83801957,38.1853196 L2.39989432,38.1853196 L2.39989432,55.4076119 Z M7.23739726,42.0860183 C8.67467319,42.6090776 9.63535421,44.0024018 9.63729159,45.5662831 L9.63729159,48.0266484 C9.63535421,49.59 8.67467319,50.9833242 7.23739726,51.5067808 L7.23739726,42.0860183 Z M12.0745127,48.0267808 L32.472,48.0267808 L32.472,45.5662831 L12.0745127,45.5662831 L12.0745127,48.0267808 Z M30.0719765,51.7169315 L30.0719765,50.486484 L32.4718708,50.486484 L32.4718708,51.7169315 C32.4718708,52.396379 31.9345714,52.9471142 31.2718591,52.9471142 C30.6092759,52.9471142 30.0719765,52.396379 30.0719765,51.7169315 Z" id="path-1"></path>
        <linearGradient x1="0%" y1="49.9999946%" x2="100.000065%" y2="49.9999946%" id="linearGradient-3">
            <stop stop-color="#FFAE08" offset="0%"></stop>
            <stop stop-color="#F68E1C" offset="100%"></stop>
        </linearGradient>
        <polygon id="path-4" points="0.128125245 2.34198174 2.38052055 3.19039726 3.20765166 0.880726027 0.954868885 0.0323105023"></polygon>
        <linearGradient x1="0.00078639433%" y1="49.9998197%" x2="100.003932%" y2="49.9998197%" id="linearGradient-6">
            <stop stop-color="#FFAE08" offset="0%"></stop>
            <stop stop-color="#F68E1C" offset="100%"></stop>
        </linearGradient>
        <polygon id="path-7" points="0.112755382 2.31655708 2.36502153 3.16417808 3.19241096 0.85503653 0.93962818 0.00675342466"></polygon>
        <linearGradient x1="0.000196695185%" y1="50.0026539%" x2="99.9991482%" y2="50.0026539%" id="linearGradient-9">
            <stop stop-color="#FFAE08" offset="0%"></stop>
            <stop stop-color="#F68E1C" offset="100%"></stop>
        </linearGradient>
        <polygon id="path-10" points="0.0972563601 2.42447945 2.34978082 3.27263014 3.17691194 0.962958904 0.924645793 0.114808219"></polygon>
        <linearGradient x1="0.00380095622%" y1="49.9980673%" x2="100.002752%" y2="49.9980673%" id="linearGradient-12">
            <stop stop-color="#FFAE08" offset="0%"></stop>
            <stop stop-color="#F68E1C" offset="100%"></stop>
        </linearGradient>
    </defs>
    <g id="Page-1" stroke="none" stroke-width="1" fill="none" fill-rule="evenodd">
        <g id="Home-Copy-24" transform="translate(-736.000000, -5595.000000)">
            <g id="04" transform="translate(734.000000, 5590.000000)">
                <g id="4" transform="translate(2.333333, 5.444444)">
                    <g id="Group-3" transform="translate(0.000000, 0.082630)">
                        <mask id="mask-2" fill="white">
                            <use xlink:href="#path-1"></use>
                        </mask>
                        <g id="Clip-2"></g>
                        <path d="M16.2101683,0.0499223744 C15.7238865,0.0516438356 15.267182,0.358726027 15.0890724,0.854242009 C15.0886849,0.854771689 15.0886849,0.85530137 15.0880391,0.85569863 L9.7103953,15.8637945 C9.48165558,16.5015297 9.80041879,17.2087854 10.422317,17.4430365 L10.4233503,17.4430365 L16.0544031,19.5629498 L14.8137065,23.0286484 C14.5856125,23.6661187 14.9042466,24.3724475 15.526274,24.6068311 L26.7904462,28.84679 L25.9626693,31.1569909 C25.2101918,33.2261872 25.9122975,35.5554566 27.6725988,36.8280137 L27.6725988,43.105653 L11.5281722,43.105653 C10.7466341,41.2740183 9.14726419,39.9441233 7.23739726,39.5383881 L7.23739726,36.9550046 C7.23739726,36.2756895 6.70061448,35.7249543 6.03751468,35.7249543 L1.20001174,35.7249543 C0.537299413,35.7249543 0,36.2756895 0,36.9550046 L0,56.6372648 C0,57.317242 0.537299413,57.8675799 1.20001174,57.8675799 L6.03751468,57.8675799 C6.70061448,57.8675799 7.23739726,57.317242 7.23739726,56.6372648 L7.23739726,54.054411 C9.14726419,53.6481461 10.7466341,52.3189132 11.5281722,50.486484 L27.6725988,50.486484 L27.6725988,51.7169315 C27.6725988,53.7551416 29.2839804,55.4076119 31.2718591,55.4076119 C33.2598669,55.4076119 34.8717652,53.7551416 34.8717652,51.7169315 L34.8717652,38.0893151 C35.9625088,37.5348721 36.8048806,36.573105 37.224775,35.4011872 L38.052681,33.0909863 L48.1899452,36.9045525 C48.3223327,36.9546073 48.4618239,36.9798995 48.6027358,36.9798995 C49.1058082,36.9798995 49.5560548,36.6582511 49.7296438,36.1739909 L50.1793738,34.9179863 C54.0838356,35.6711918 57.8442857,33.0366941 58.5784227,29.0341644 C58.8497847,27.555032 58.6737417,26.0265068 58.0734129,24.6531781 L65.3469746,20.8241187 C65.9367123,20.5143881 66.1698434,19.772968 65.8677417,19.1684703 C65.7307045,18.8938311 65.49809,18.6822237 65.216137,18.5752283 L65.2100665,18.5788037 L16.6299335,0.126328767 C16.495092,0.075347032 16.3570215,0.050716895 16.2212759,0.0499223744 L16.2101683,0.0499223744 Z M12.3764853,15.561347 L16.9254481,2.86265753 L61.8192681,19.9149224 L51.9538826,25.1136027 C51.8904658,25.1192968 51.8274364,25.1306849 51.7655695,25.1478995 L41.0678865,21.1204749 C40.6414051,20.9599817 40.163002,21.0595616 39.8315812,21.3785616 L36.4604149,24.6289452 L12.3764853,15.561347 Z M17.479409,22.7254064 L18.3077025,20.4152055 L36.328544,27.2000137 C36.7548963,27.3587854 37.2332994,27.2593379 37.5652368,26.9412648 L40.9323992,23.691411 L50.3727241,27.2463607 L47.8913307,34.1749772 L17.479409,22.7254064 Z M51.0227789,32.5659406 L52.8769785,27.3877854 L55.9050998,25.7889452 C56.3789824,26.9257717 56.4143718,28.2050822 56.0039061,29.3670685 C55.298184,31.3176164 53.48609,32.5889817 51.489816,32.5891142 C51.334955,32.5891142 51.179319,32.5815662 51.0227789,32.5659406 Z M31.8932407,36.0140274 L29.636454,35.1661416 C28.3926575,34.6979041 27.754227,33.2844521 28.2109315,32.0088493 L28.2109315,32.0083196 L29.039225,29.6995753 L35.1209119,31.9887215 L35.8002857,32.2437626 L34.9723796,34.5539635 C34.6155147,35.5487032 33.6970685,36.1651187 32.719726,36.1651187 C32.445135,36.1651187 32.1660235,36.1165205 31.8932407,36.0140274 Z M30.0719765,37.9488174 L31.0654638,38.318137 C31.5176477,38.4841918 31.9919178,38.5797991 32.4718708,38.6008539 L32.4718708,43.105653 L30.0719765,43.105653 L30.0719765,37.9488174 Z M2.39989432,55.4076119 L4.83801957,55.4076119 L4.83801957,38.1853196 L2.39989432,38.1853196 L2.39989432,55.4076119 Z M7.23739726,42.0860183 C8.67467319,42.6090776 9.63535421,44.0024018 9.63729159,45.5662831 L9.63729159,48.0266484 C9.63535421,49.59 8.67467319,50.9833242 7.23739726,51.5067808 L7.23739726,42.0860183 Z M12.0745127,48.0267808 L32.472,48.0267808 L32.472,45.5662831 L12.0745127,45.5662831 L12.0745127,48.0267808 Z M30.0719765,51.7169315 L30.0719765,50.486484 L32.4718708,50.486484 L32.4718708,51.7169315 C32.4718708,52.396379 31.9345714,52.9471142 31.2718591,52.9471142 C30.6092759,52.9471142 30.0719765,52.396379 30.0719765,51.7169315 Z" id="Fill-1" fill="url(#linearGradient-3)" mask="url(#mask-2)"></path>
                    </g>
                    <g id="Group-6" transform="translate(22.086106, 14.384000)">
                        <mask id="mask-5" fill="white">
                            <use xlink:href="#path-4"></use>
                        </mask>
                        <g id="Clip-5"></g>
                        <polygon id="Fill-4" fill="url(#linearGradient-6)" mask="url(#mask-5)" points="0.128125245 2.34198174 2.38052055 3.19039726 3.20765166 0.880726027 0.954868885 0.0323105023"></polygon>
                    </g>
                    <g id="Group-9" transform="translate(26.606654, 16.105461)">
                        <mask id="mask-8" fill="white">
                            <use xlink:href="#path-7"></use>
                        </mask>
                        <g id="Clip-8"></g>
                        <polygon id="Fill-7" fill="url(#linearGradient-9)" mask="url(#mask-8)" points="0.112755382 2.31655708 2.36502153 3.16417808 3.19241096 0.85503653 0.93962818 0.00675342466"></polygon>
                    </g>
                    <g id="Group-12" transform="translate(31.127202, 17.694502)">
                        <mask id="mask-11" fill="white">
                            <use xlink:href="#path-10"></use>
                        </mask>
                        <g id="Clip-11"></g>
                        <polygon id="Fill-10" fill="url(#linearGradient-12)" mask="url(#mask-11)" points="0.0972563601 2.42447945 2.34978082 3.27263014 3.17691194 0.962958904 0.924645793 0.114808219"></polygon>
                    </g>
                </g>
            </g>
        </g>
    </g>
</svg>