<?xml version="1.0" encoding="UTF-8" standalone="no"?>
<svg width="180px" height="90px" viewBox="0 0 180 90" version="1.1" xmlns="http://www.w3.org/2000/svg" xmlns:xlink="http://www.w3.org/1999/xlink">
    <!-- Generator: Sketch 50.2 (55047) - http://www.bohemiancoding.com/sketch -->
    <title>Mateczny-logo</title>
    <desc>Created with Sketch.</desc>
    <defs>
        <polygon id="path-1" points="0.722080402 0.250363636 14.8567839 0.250363636 14.8567839 11.9858182 0.722080402 11.9858182"></polygon>
        <polygon id="path-3" points="0 89.0909091 179.479899 89.0909091 179.479899 0.497272727 0 0.497272727"></polygon>
    </defs>
    <g id="Page-1" stroke="none" stroke-width="1" fill="none" fill-rule="evenodd">
        <g id="Home-Copy-24" transform="translate(-75.000000, -54.000000)">
            <g id="Mateczny-logo" transform="translate(75.000000, 54.000000)">
                <g id="Group">
                    <polygon id="Fill-1" fill="#FEFEFE" points="14.5482513 59.7529091 8.31699497 68.9001818 2.02061307 59.7529091 -9.04522613e-05 59.7529091 -9.04522613e-05 71.4892727 2.21598995 71.4892727 2.21598995 63.7592727 7.51287437 71.4892727 9.07317588 71.4892727 14.3610151 63.7929091 14.3610151 71.4892727 16.5626231 71.4892727 16.5626231 59.7529091"></polygon>
                    <path d="M32.352603,66.6840909 L34.7061709,62.4568182 L37.0561206,66.6840909 L32.352603,66.6840909 Z M33.7401407,59.7531818 L27.2049648,71.4886364 L29.6770251,71.4886364 L31.2291859,68.6840909 L38.1777286,68.6840909 L39.7316985,71.4886364 L42.2019497,71.4886364 L35.6685829,59.7531818 L33.7401407,59.7531818 Z" id="Fill-2" fill="#FEFEFE"></path>
                    <polygon id="Fill-3" fill="#FEFEFE" points="49.428995 61.7542727 54.5684925 61.7542727 54.5684925 71.4888182 56.7755276 71.4888182 56.7755276 61.7542727 61.9159296 61.7542727 61.9159296 59.7533636 49.428995 59.7533636"></polygon>
                    <polygon id="Fill-4" fill="#FEFEFE" points="75.2440704 66.3120909 83.1188442 66.3120909 83.1188442 64.313 75.2440704 64.313 75.2440704 61.7757273 83.5403518 61.7757273 83.5403518 59.753 72.9384422 59.753 72.9384422 71.4884545 83.6624623 71.4884545 83.6624623 69.4657273 75.2440704 69.4657273"></polygon>
                    <g id="Group-25" transform="translate(0.000000, 0.411909)">
                        <path d="M106.478412,59.8029091 C106.070472,59.6701818 105.646251,59.5529091 105.214794,59.4565455 C104.778814,59.3629091 104.314794,59.2847273 103.832683,59.2310909 C102.746352,59.1101818 101.378714,59.1192727 100.220925,59.3147273 C99.5678593,59.4229091 98.9509749,59.5901818 98.3811256,59.8101818 C97.8076583,60.032 97.275799,60.3156364 96.8027337,60.6501818 C96.3224322,60.9910909 95.9063518,61.3892727 95.5635377,61.8401818 C95.2198191,62.2947273 94.9484623,62.812 94.7612261,63.3774545 C94.5803216,63.9392727 94.4853467,64.5583636 94.4853467,65.2165455 C94.4853467,65.8774545 94.5803216,66.4956364 94.7612261,67.0592727 C94.9484623,67.6247273 95.2198191,68.1401818 95.5635377,68.5947273 C95.9063518,69.0474545 96.3224322,69.4465455 96.8027337,69.7865455 C97.275799,70.1210909 97.8076583,70.402 98.3811256,70.6247273 C98.9509749,70.8447273 99.5687638,71.012 100.226352,71.122 C100.873085,71.2301818 101.556905,71.2856364 102.257005,71.2856364 C102.819618,71.2856364 103.350573,71.2592727 103.832683,71.2047273 C104.314794,71.1492727 104.780623,71.0738182 105.214794,70.9756364 C105.653487,70.8801818 106.079518,70.762 106.481126,70.6274545 C106.876402,70.4947273 107.27801,70.3510909 107.682332,70.1929091 L108.047759,70.0492727 L108.047759,67.4829091 L107.124241,68.0565455 C106.861025,68.222 106.55801,68.3829091 106.22605,68.5356364 C105.900422,68.6865455 105.538613,68.8192727 105.148764,68.9347273 C104.762533,69.0483636 104.333789,69.1410909 103.883337,69.2092727 C103.439216,69.2765455 102.956201,69.3092727 102.450573,69.3092727 C101.427558,69.3092727 100.533889,69.2074545 99.797608,69.0029091 C99.0830352,68.8092727 98.4932864,68.5292727 98.0401206,68.1756364 C97.5932864,67.8274545 97.2730854,67.4192727 97.0587136,66.9292727 C96.8389146,66.4265455 96.7285628,65.852 96.7285628,65.2165455 C96.7285628,64.5829091 96.8389146,64.0056364 97.0587136,63.5010909 C97.2730854,63.0083636 97.5932864,62.6001818 98.0401206,62.2510909 C98.4932864,61.8983636 99.0830352,61.6183636 99.7994171,61.4192727 C100.534794,61.2138182 101.427558,61.1083636 102.450573,61.1083636 C102.952583,61.1083636 103.429266,61.1438182 103.869769,61.2101818 C104.311176,61.2783636 104.728161,61.372 105.113487,61.4856364 C105.498814,61.6010909 105.859719,61.7347273 106.18806,61.8865455 C106.521829,62.0410909 106.841126,62.2083636 107.136905,62.3829091 L108.047759,62.9229091 L108.047759,60.3783636 L107.682332,60.2347273 C107.276201,60.0783636 106.875497,59.9310909 106.478412,59.8029091" id="Fill-5" fill="#FEFEFE"></path>
                        <polygon id="Fill-7" fill="#FEFEFE" points="130.110784 60.6268182 130.110784 59.3413636 119.362342 59.3413636 119.362342 61.3640909 126.624754 61.3640909 119.139829 69.5213636 119.139829 71.0768182 130.284452 71.0768182 130.284452 69.0540909 122.380734 69.0540909"></polygon>
                        <polygon id="Fill-9" fill="#FEFEFE" points="152.637286 67.9154545 143.668945 59.3409091 141.689849 59.3409091 141.689849 71.0772727 143.907739 71.0772727 143.907739 62.5309091 152.878794 71.0772727 154.839799 71.0772727 154.839799 59.3409091 152.637286 59.3409091"></polygon>
                        <g id="Group-13" transform="translate(164.623116, 59.090909)">
                            <mask id="mask-2" fill="white">
                                <use xlink:href="#path-1"></use>
                            </mask>
                            <g id="Clip-12"></g>
                            <polygon id="Fill-11" fill="#FEFEFE" mask="url(#mask-2)" points="12.0883116 0.250363636 7.79273367 5.23854545 3.47906533 0.250363636 0.722080402 0.250363636 6.68017085 7.12945455 6.68017085 11.9858182 8.89715578 11.9858182 8.89715578 7.12945455 14.8570553 0.250363636"></polygon>
                        </g>
                        <path d="M54.4444824,86.0609091 C54.2699095,86.4518182 54.0066935,86.7818182 53.6620704,87.0490909 C53.3120201,87.32 52.868804,87.5263636 52.3396583,87.67 C51.7978492,87.8145455 51.1565427,87.8872727 50.4329246,87.8872727 C49.7102111,87.8872727 49.0689045,87.8145455 48.5234774,87.67 C47.989809,87.5263636 47.5393568,87.3181818 47.1874975,87.0481818 C46.8383518,86.7818182 46.5724221,86.4481818 46.3969447,86.06 C46.2142312,85.6645455 46.1228744,85.1981818 46.1228744,84.6736364 C46.1228744,84.1563636 46.2142312,83.6936364 46.3969447,83.2945455 C46.5724221,82.9045455 46.8401608,82.5718182 47.1874975,82.3054545 C47.5420704,82.0354545 47.9907136,81.8254545 48.5243819,81.6818182 C49.0689045,81.5345455 49.7102111,81.46 50.4329246,81.46 C51.1565427,81.46 51.7978492,81.5345455 52.3396583,81.6781818 C52.868804,81.82 53.3120201,82.0290909 53.6620704,82.3 C54.0066935,82.5636364 54.2699095,82.8963636 54.4444824,83.2854545 C54.6226734,83.6845455 54.7131256,84.15 54.7131256,84.6736364 C54.7131256,85.1981818 54.6226734,85.6645455 54.4444824,86.0609091 M54.4327236,81.3081818 C53.9225729,80.95 53.3129246,80.6818182 52.628201,80.5090909 C51.4966432,80.2309091 50.1172462,80.1836364 48.9350352,80.3672727 C48.4547337,80.4436364 47.9979497,80.5590909 47.5827739,80.7145455 C47.1585528,80.8718182 46.7705126,81.0718182 46.4231759,81.3081818 C46.0731256,81.5490909 45.7683015,81.8409091 45.5213668,82.1718182 C45.2744322,82.5009091 45.0790553,82.8790909 44.9433769,83.2945455 C44.8076985,83.7090909 44.7389548,84.1736364 44.7389548,84.6736364 C44.7389548,85.43 44.8891055,86.0963636 45.1830754,86.6518182 C45.4761407,87.2109091 45.8922211,87.6763636 46.4132261,88.04 C46.926995,88.3990909 47.5375477,88.6663636 48.2295075,88.8381818 C48.9106131,89.0045455 49.6523216,89.0909091 50.4329246,89.0909091 C51.2126231,89.0909091 51.948,89.0045455 52.628201,88.8381818 C53.3129246,88.6663636 53.9225729,88.3972727 54.4327236,88.0390909 C54.949206,87.6763636 55.3589548,87.2081818 55.6547337,86.6518182 C55.949608,86.0954545 56.0988543,85.43 56.0988543,84.6736364 C56.0988543,83.9181818 55.949608,83.2518182 55.6547337,82.6945455 C55.3589548,82.1390909 54.9483015,81.6727273 54.4327236,81.3081818" id="Fill-14" fill="#FEFEFE"></path>
                        <polygon id="Fill-16" fill="#FEFEFE" points="65.2537085 88.9337273 66.6213467 88.9337273 66.6213467 85.0464545 72.2619497 85.0464545 72.2619497 83.8264545 66.6213467 83.8264545 66.6213467 81.6400909 72.5649648 81.6400909 72.5649648 80.4019091 65.2537085 80.4019091"></polygon>
                        <polygon id="Fill-18" fill="#FEFEFE" points="81.3372965 88.9337273 82.7049347 88.9337273 82.7049347 85.0464545 88.3464422 85.0464545 88.3464422 83.8264545 82.7049347 83.8264545 82.7049347 81.6400909 88.6476482 81.6400909 88.6476482 80.4019091 81.3372965 80.4019091"></polygon>
                        <mask id="mask-4" fill="white">
                            <use xlink:href="#path-3"></use>
                        </mask>
                        <g id="Clip-21"></g>
                        <polygon id="Fill-20" fill="#FEFEFE" mask="url(#mask-4)" points="97.4207035 88.9336364 98.7874372 88.9336364 98.7874372 80.4018182 97.4207035 80.4018182"></polygon>
                        <path d="M116.742573,80.7395455 C116.438653,80.6422727 116.124784,80.5559091 115.808201,80.4859091 C115.488905,80.415 115.144281,80.3577273 114.78609,80.3177273 C113.991015,80.2286364 112.980663,80.2331818 112.116844,80.3786364 C111.637447,80.4568182 111.183377,80.5804545 110.767296,80.7422727 C110.344884,80.9068182 109.956844,81.1131818 109.614935,81.355 C109.265789,81.6004545 108.962774,81.8931818 108.714935,82.2195455 C108.465286,82.5468182 108.26991,82.9222727 108.135136,83.3331818 C108.001266,83.7395455 107.935236,84.1904545 107.935236,84.6731818 C107.935236,85.155 108.001266,85.6068182 108.135136,86.015 C108.26991,86.4268182 108.465286,86.7995455 108.714935,87.1295455 C108.962774,87.4568182 109.265789,87.7477273 109.614935,87.9931818 C109.956844,88.2359091 110.344884,88.4431818 110.767296,88.6068182 C111.184281,88.7668182 111.641065,88.8904545 112.122271,88.9704545 C112.599859,89.0504545 113.104583,89.0913636 113.620161,89.0913636 C114.036241,89.0913636 114.42609,89.0704545 114.78609,89.0313636 C115.144281,88.9913636 115.488905,88.9340909 115.807296,88.8622727 C116.124784,88.7913636 116.438653,88.7068182 116.742573,88.605 C117.037447,88.5077273 117.334131,88.3977273 117.636241,88.2795455 L117.819859,88.2086364 L117.819859,86.6377273 L117.358553,86.925 C117.153226,87.0513636 116.920764,87.1768182 116.666593,87.2922727 C116.416945,87.4068182 116.138352,87.5086364 115.836241,87.5986364 C115.535035,87.6877273 115.209407,87.7586364 114.865688,87.8113636 C114.524683,87.8622727 114.155638,87.8868182 113.764884,87.8868182 C112.981568,87.8868182 112.29594,87.8077273 111.732422,87.6522727 C111.174332,87.4995455 110.712121,87.2813636 110.357548,87.0031818 C110.007497,86.7304545 109.745186,86.3995455 109.577849,86.0131818 C109.405085,85.6186364 109.318251,85.1686364 109.318251,84.6731818 C109.318251,84.1804545 109.405085,83.7277273 109.577849,83.3313636 C109.746995,82.9440909 110.007497,82.6122727 110.357548,82.3395455 C110.71393,82.0604545 111.177045,81.8413636 111.732422,81.6868182 C112.301367,81.5286364 112.985186,81.4486364 113.764884,81.4486364 C114.152925,81.4486364 114.517447,81.475 114.85393,81.5259091 C115.193126,81.5768182 115.515136,81.6486364 115.810915,81.7386364 C116.103075,81.8231818 116.383477,81.9286364 116.638553,82.0468182 C116.893628,82.1659091 117.140563,82.2940909 117.36398,82.4259091 L117.819859,82.6977273 L117.819859,81.1331818 L117.636241,81.0622727 C117.334131,80.9440909 117.036543,80.835 116.742573,80.7395455" id="Fill-22" fill="#FEFEFE" mask="url(#mask-4)"></path>
                        <polygon id="Fill-23" fill="#FEFEFE" mask="url(#mask-4)" points="128.420141 87.6961818 128.420141 85.0461818 134.334814 85.0461818 134.334814 83.8261818 128.420141 83.8261818 128.420141 81.6398182 134.648683 81.6398182 134.648683 80.4025455 126.983759 80.4025455 126.983759 88.9334545 134.741849 88.9334545 134.741849 87.6961818"></polygon>
                        <path d="M134.393156,33.9968182 L126.883809,34.0040909 L126.90009,24.2704545 L134.393156,24.2704545 L134.393156,33.9968182 Z M53.3289347,7.51409091 L114.925116,7.51409091 L114.925116,4.00590909 L53.3289347,4.00590909 L53.3289347,7.51409091 Z M126.904613,20.7613636 L126.923608,7.51409091 L118.65808,7.51409091 L118.65808,0.496818182 L49.5977789,0.496818182 L49.5977789,7.51409091 L41.3530553,7.51409091 L41.3530553,24.2704545 L93.2156683,24.2704545 L93.2156683,20.7613636 L45.0860201,20.7613636 L45.0860201,11.0231818 L49.5977789,11.0231818 L118.65808,11.0231818 L123.187025,11.0231818 L123.153558,34.0095455 L46.9493367,34.075 L46.9556683,37.5831818 L138.127025,37.5022727 L138.127025,20.7613636 L126.904613,20.7613636 Z" id="Fill-24" fill="#E18E19" mask="url(#mask-4)"></path>
                    </g>
                </g>
            </g>
        </g>
    </g>
</svg>