<?xml version="1.0" encoding="UTF-8" standalone="no"?>
<svg width="20px" height="20px" viewBox="0 0 20 20" version="1.1" xmlns="http://www.w3.org/2000/svg" xmlns:xlink="http://www.w3.org/1999/xlink">
    <!-- Generator: Sketch 50.2 (55047) - http://www.bohemiancoding.com/sketch -->
    <title>Group 13</title>
    <desc>Created with Sketch.</desc>
    <defs>
        <linearGradient x1="-2.22044605e-14%" y1="50%" x2="100%" y2="50%" id="linearGradient-1">
            <stop stop-color="#FFAE07" offset="0%"></stop>
            <stop stop-color="#F78F1C" offset="100%"></stop>
        </linearGradient>
    </defs>
    <g id="Page-1" stroke="none" stroke-width="1" fill="none" fill-rule="evenodd">
        <g id="Home-Copy-33" transform="translate(-1106.000000, -4552.000000)">
            <g id="Group-13" transform="translate(1106.000000, 4552.000000)">
                <g id="Group-22">
                    <g id="Group-21" fill="url(#linearGradient-1)">
                        <rect id="Rectangle-16" x="0" y="0" width="20" height="20" rx="10"></rect>
                    </g>
                    <path d="M11.192,4.344 L11.192,8.92 C11.192,9.41066912 11.162667,9.89733092 11.104,10.38 C11.045333,10.8626691 10.9680005,11.3546642 10.872,11.856 L9.192,11.856 C9.09599952,11.3546642 9.01866696,10.8626691 8.96,10.38 C8.90133304,9.89733092 8.872,9.41066912 8.872,8.92 L8.872,4.344 L11.192,4.344 Z M8.6,14.744 C8.6,14.551999 8.63599964,14.3733342 8.708,14.208 C8.78000036,14.0426658 8.87866604,13.8986673 9.004,13.776 C9.12933396,13.6533327 9.27733248,13.5560004 9.448,13.484 C9.61866752,13.4119996 9.80533232,13.376 10.008,13.376 C10.2053343,13.376 10.3893325,13.4119996 10.56,13.484 C10.7306675,13.5560004 10.8799994,13.6533327 11.008,13.776 C11.1360006,13.8986673 11.2359996,14.0426658 11.308,14.208 C11.3800004,14.3733342 11.416,14.551999 11.416,14.744 C11.416,14.936001 11.3800004,15.1159992 11.308,15.284 C11.2359996,15.4520008 11.1360006,15.5973327 11.008,15.72 C10.8799994,15.8426673 10.7306675,15.9386663 10.56,16.008 C10.3893325,16.0773337 10.2053343,16.112 10.008,16.112 C9.80533232,16.112 9.61866752,16.0773337 9.448,16.008 C9.27733248,15.9386663 9.12933396,15.8426673 9.004,15.72 C8.87866604,15.5973327 8.78000036,15.4520008 8.708,15.284 C8.63599964,15.1159992 8.6,14.936001 8.6,14.744 Z" id="!" fill="#FFFFFF"></path>
                </g>
            </g>
        </g>
    </g>
</svg>