<?xml version="1.0" encoding="UTF-8" standalone="no"?>
<svg width="161px" height="100px" viewBox="0 0 161 100" version="1.1" xmlns="http://www.w3.org/2000/svg" xmlns:xlink="http://www.w3.org/1999/xlink">
    <!-- Generator: Sketch 50.2 (55047) - http://www.bohemiancoding.com/sketch -->
    <title>detal-team-eng</title>
    <desc>Created with Sketch.</desc>
    <defs>
        <linearGradient x1="63.1277323%" y1="100%" x2="63.1277323%" y2="0%" id="linearGradient-1">
            <stop stop-color="#0C532D" offset="0%"></stop>
            <stop stop-color="#7C9F86" offset="100%"></stop>
        </linearGradient>
        <path d="M88.83,14.98 C84.96,14.62 77.4,13.54 68.31,12.01 C57.15,30.28 40.41,61.96 36.81,75.55 C36.18,77.8 36.81,79.78 37.44,81.13 C38.07,83.02 34.47,84.64 34.38,81.31 C33.93,69.43 55.53,27.85 64.98,11.47 C47.97,8.77 26.64,5.8 13.86,7.15 C9.18,7.69 -0.63,9.94 2.61,17.86 C4.5,22.63 8.1,28.03 10.89,31.36 C13.14,34.15 11.88,33.88 10.35,32.35 C6.12,28.12 3.42,24.7 1.08,20.29 C-3.42,12.01 7.38,6.34 13.05,5.17 C22.68,3.19 47.34,6.07 66.78,8.14 C67.68,6.79 68.4,5.71 68.94,5.17 C69.39,4.72 69.12,4 68.67,4.09 C68.13,4.18 67.14,4.36 66.42,4.72 C65.16,5.17 65.16,4.36 66.24,3.73 C67.68,2.56 70.65,0.4 72.45,0.13 C74.07,-0.14 75.15,1.57 74.16,3.01 C73.17,4.63 71.91,6.52 70.47,8.5 C78.66,9.4 85.77,10.12 89.82,10.12 C91.89,10.12 92.34,8.77 92.16,7.69 C91.98,6.52 91.8,5.8 91.26,4.54 C90.36,2.11 91.26,1.66 92.52,3.82 C93.24,5.08 95.13,8.32 94.05,10.84 C93.6,11.47 93.06,12.64 92.16,13.45 C90.99,14.44 90.18,15.07 88.83,14.98 Z M91.35,50.98 C90.18,52.24 87.21,54.67 83.88,55.12 C79.83,55.75 66.42,55.75 59.22,55.75 C56.52,59.35 52.83,64.75 52.47,70.42 C52.2,75.73 55.44,76.99 58.5,76.63 C62.46,76.18 67.41,74.2 70.65,72.31 C71.64,71.77 72.36,72.22 71.37,72.94 C68.85,74.74 63.72,77.8 59.31,78.61 C55.71,79.24 50.13,75.1 50.31,70.42 C50.94,57.28 65.25,42.7 73.62,39.55 C78.12,37.84 81,44.05 79.02,47.56 C77.13,50.89 72.09,53.32 66.15,54.22 C72.72,54.22 80.01,54.22 83.88,53.77 C86.4,53.5 89.28,51.88 90.72,50.62 C91.26,49.81 91.98,50.17 91.35,50.98 Z M76.86,46.75 C79.38,42.88 77.04,40.81 73.44,42.79 C69.03,45.31 64.26,49.81 60.21,54.22 C66.51,54.22 73.98,51.07 76.86,46.75 Z M78.66,74.83 C77.94,75.28 77.31,75.55 76.59,75.55 C75.06,75.55 74.34,74.56 74.34,72.4 C74.34,68.17 77.67,62.68 84.33,56.02 C90.45,49.99 95.85,46.12 100.53,44.32 C101.61,43.87 102.87,43.6 104.22,43.6 C105.66,43.6 107.1,43.96 108.54,44.41 C109.44,44.5 109.98,44.59 110.25,44.5 C111.24,44.32 112.05,43.96 112.59,43.33 C112.68,43.24 112.95,43.15 113.13,43.15 C113.58,43.15 114.03,43.96 113.94,44.23 C110.52,49.54 107.01,54.85 103.77,60.16 C98.73,68.62 93.87,83.11 92.79,90.04 C92.7,90.67 92.7,91.21 92.7,91.75 C92.7,95.8 95.4,97.78 99.72,97.78 C101.79,97.78 104.04,97.42 106.11,96.7 C109.35,95.62 113.49,93.01 118.53,88.96 C123.39,85 127.35,80.59 130.23,76.9 C130.77,76.27 131.04,76 131.31,76 C131.4,76.09 131.4,76.18 131.4,76.27 C131.4,76.54 131.31,76.81 131.04,77.26 C128.34,81.31 124.38,86.08 119.07,90.58 C114.12,94.63 110.07,97.33 106.74,98.5 C105.12,99.04 103.41,99.4 101.52,99.4 C98.64,99.4 96.21,98.23 94.32,97.06 C92.07,95.62 91.26,93.1 91.35,90.04 C91.53,85 95.49,72.13 98.73,65.02 C100.71,60.7 102.69,56.92 104.76,53.86 C105.21,53.14 105.21,52.87 104.67,52.87 C104.58,52.87 104.49,52.96 104.4,53.05 C101.52,56.47 97.47,60.34 92.25,64.84 C87.03,69.25 82.53,72.58 78.66,74.83 Z M80.1,67.18 C79.83,67.9 79.74,68.62 79.74,69.25 C79.74,70.78 80.28,71.41 81.36,71.41 C81.72,71.41 82.26,71.23 82.71,70.96 C89.37,66.73 96.84,59.53 105.3,49.45 C105.48,49.27 105.57,49.09 105.57,48.82 C105.57,47.47 103.86,46.12 101.43,46.12 C100.71,46.12 100.08,46.21 99.36,46.39 C96.48,47.11 92.88,49.9 88.65,54.58 C84.6,59.08 81.81,63.31 80.1,67.18 Z M141.3,80.05 C141.03,80.23 140.85,80.32 140.49,80.32 C139.86,80.32 139.41,80.05 139.41,79.33 C139.41,79.06 139.5,78.88 139.68,78.7 C143.82,70.96 150.39,63.85 152.46,57.01 C152.91,56.11 153.09,55.3 153.09,54.58 C153.09,53.5 152.64,53.05 151.83,53.05 C151.29,53.05 150.75,53.32 150.03,53.86 C141.03,61.06 135.27,66.46 132.75,70.06 C132.57,70.33 131.85,70.87 130.59,71.32 C129.06,72.04 128.07,72.4 127.53,72.76 C126.81,73.12 125.73,71.86 126.18,71.32 C129.78,66.1 132.39,61.24 133.83,56.65 C134.1,56.02 134.19,55.39 134.19,54.94 C134.19,53.86 133.74,53.32 132.84,53.32 C132.57,53.32 132.21,53.41 131.67,53.59 C130.5,54.13 128.34,55.66 125.19,58.36 C121.59,61.33 118.62,64.21 116.19,67 C114.84,68.44 113.22,70.69 111.15,73.66 C110.97,73.93 110.34,74.29 108.99,74.83 C107.73,75.28 107.01,75.73 106.74,75.91 C106.56,76 106.47,75.91 106.38,75.55 C106.29,75.01 106.29,74.74 106.38,74.38 C106.47,73.93 106.92,73.21 107.37,72.31 C109.08,69.07 111.69,65.02 115.2,60.07 C118.71,55.03 121.5,51.52 123.39,49.63 C124.11,49 125.82,48.28 126.36,48.64 C126.63,48.82 126.45,49.09 126,49.45 C125.46,49.81 124.29,51.16 122.31,53.5 C119.97,56.2 117.9,59.17 116.1,62.41 C115.29,63.85 115.29,64.48 115.92,64.48 C116.28,64.48 116.55,64.3 116.91,63.94 C120.51,60.25 124.83,56.83 130.05,53.59 C133.83,51.25 136.62,50.35 138.24,50.89 C138.87,51.07 139.14,51.52 139.14,52.24 C139.14,53.41 137.7,56.56 135.09,61.69 C134.73,62.23 134.55,62.77 134.55,63.22 C134.55,63.94 134.82,64.21 135.36,64.21 C135.63,64.21 135.99,64.12 136.26,63.85 C144.63,56.29 152.01,51.07 158.04,48.19 C158.4,48.01 158.76,47.92 159.03,47.92 C160.11,47.92 160.47,48.46 160.2,49.81 C159.75,50.26 159.21,50.98 158.49,51.79 C155.07,60.07 147.87,71.77 141.3,80.05 Z" id="path-2"></path>
    </defs>
    <g id="Page-1" stroke="none" stroke-width="1" fill="none" fill-rule="evenodd" opacity="0.25">
        <g id="detal-team-eng">
            <g id="Team">
                <use fill="#13884E" xlink:href="#path-2"></use>
                <use fill="url(#linearGradient-1)" xlink:href="#path-2"></use>
            </g>
        </g>
    </g>
</svg>