<?xml version="1.0" encoding="UTF-8" standalone="no"?>
<svg width="287px" height="159px" viewBox="0 0 287 159" version="1.1" xmlns="http://www.w3.org/2000/svg" xmlns:xlink="http://www.w3.org/1999/xlink">
    <!-- Generator: Sketch 50.2 (55047) - http://www.bohemiancoding.com/sketch -->
    <title>detal-prezenty</title>
    <desc>Created with Sketch.</desc>
    <defs>
        <linearGradient x1="63.1277323%" y1="100%" x2="63.1277323%" y2="0%" id="linearGradient-1">
            <stop stop-color="#0C532D" offset="0%"></stop>
            <stop stop-color="#7C9F86" offset="100%"></stop>
        </linearGradient>
        <path d="M44.37,55.71 C44.64,56.52 45.27,56.97 46.26,57.24 C48.24,58.23 50.94,58.68 54.27,58.68 C60.57,58.68 65.88,57.42 69.93,55.26 C74.7,52.83 77.04,48.87 77.04,43.47 C77.04,36.81 73.89,30.33 67.59,24.3 C60.84,18 53.19,12.69 44.82,8.82 C35.64,4.68 27,2.61 18.36,2.61 C8.91,2.61 3.6,6.12 2.43,12.87 C2.25,14.04 2.16,15.12 2.16,16.38 C2.16,22.68 3.51,27.9 6.21,31.95 C6.48,32.4 6.66,32.85 6.66,33.03 C6.57,33.12 6.57,33.21 6.48,33.21 C6.3,33.21 5.94,33.03 5.58,32.49 C3.78,31.05 2.43,28.35 1.35,24.93 C0.45,21.96 0,18.9 0,15.84 C0,14.67 0.09,13.77 0.27,12.87 C0.72,9.63 2.88,6.75 6.57,4.5 C10.71,1.98 15.75,0.9 21.51,1.17 C31.14,1.71 40.59,4.14 50.04,8.82 C57.24,12.33 63.54,16.74 69.3,21.87 C76.86,28.62 80.82,35.55 80.82,42.84 C80.82,49.32 77.4,54 70.29,56.88 C65.52,58.77 59.76,59.85 53.01,59.85 C47.61,59.85 42.48,58.86 42.48,57.42 C42.48,56.97 43.11,56.34 44.37,55.71 Z M11.43,83.34 C9.63,82.44 8.28,81.27 7.2,79.65 C6.84,79.11 6.66,78.57 6.66,78.3 C6.66,77.94 6.75,77.76 7.11,77.76 C7.47,77.76 7.74,78.03 8.28,78.57 C9.27,79.83 10.62,80.82 12.42,81.54 C13.86,82.08 15.66,81.9 18.09,81.27 C22.23,79.74 28.44,71.91 36.63,57.69 C44.1,44.73 49.41,33.48 52.56,24.03 C52.74,23.85 52.74,23.67 52.83,23.67 C53.01,23.67 53.19,24.21 53.28,25.29 C53.37,26.37 53.37,27.18 53.19,27.63 C49.77,37.26 45.81,46.44 41.4,55.08 C33.93,69.66 27,78.57 20.34,82.26 C18.54,83.25 16.38,83.79 14.13,83.79 C13.14,83.79 12.15,83.61 11.43,83.34 Z M71.01,80.91 C70.74,81.27 70.56,81.27 70.47,80.91 C70.38,80.64 70.38,80.37 70.56,80.01 C76.41,71.01 80.37,64.08 82.44,59.22 C82.8,58.32 82.98,57.6 82.98,56.97 C82.98,56.79 82.89,56.52 82.71,55.98 C82.62,55.71 82.62,55.53 82.71,55.35 C83.43,55.08 85.68,53.82 89.46,51.57 C89.55,51.39 89.73,51.39 89.82,51.39 C90.18,51.39 90.45,51.57 90.54,51.84 C90.72,52.11 90.72,52.56 90.45,52.83 C86.58,58.05 83.88,62.01 82.53,64.62 C82.35,64.98 82.26,65.25 82.26,65.52 C82.26,65.79 82.53,65.88 83.25,65.61 C83.7,65.43 84.15,65.16 84.33,64.89 C86.58,62.19 89.64,59.22 93.42,56.16 C97.29,53.01 100.26,51.03 102.42,50.13 C104.31,50.04 105.66,50.22 106.56,50.67 C106.65,50.76 106.65,50.76 106.65,50.85 C106.65,51.66 104.76,53.64 104.04,53.19 C102.78,52.65 101.25,52.92 99.18,54 C90.36,58.86 82.44,66.96 75.42,78.48 C75.42,78.57 75.24,78.84 74.7,79.11 C73.8,79.47 72.54,80.01 71.01,80.91 Z M141.12,54.72 C139.95,55.98 136.98,58.41 133.65,58.86 C129.6,59.49 116.19,59.49 108.99,59.49 C106.29,63.09 102.6,68.49 102.24,74.16 C101.97,79.47 105.21,80.73 108.27,80.37 C112.23,79.92 117.18,77.94 120.42,76.05 C121.41,75.51 122.13,75.96 121.14,76.68 C118.62,78.48 113.49,81.54 109.08,82.35 C105.48,82.98 99.9,78.84 100.08,74.16 C100.71,61.02 115.02,46.44 123.39,43.29 C127.89,41.58 130.77,47.79 128.79,51.3 C126.9,54.63 121.86,57.06 115.92,57.96 C122.49,57.96 129.78,57.96 133.65,57.51 C136.17,57.24 139.05,55.62 140.49,54.36 C141.03,53.55 141.75,53.91 141.12,54.72 Z M126.63,50.49 C129.15,46.62 126.81,44.55 123.21,46.53 C118.8,49.05 114.03,53.55 109.98,57.96 C116.28,57.96 123.75,54.81 126.63,50.49 Z M139.77,69.12 C141.48,70.2 141.93,70.47 142.74,71.55 C143.28,72.27 143.28,72.99 143.37,73.44 C152.37,71.82 161.73,71.37 169.65,71.37 C172.62,71.37 174.87,71.55 176.49,71.82 C179.1,72.36 182.34,75.42 182.34,78.48 C182.34,79.2 182.07,79.83 181.8,80.46 C180.99,81.99 179.01,83.97 175.95,86.4 C175.41,86.94 174.96,87.12 174.69,87.12 C174.6,87.12 174.51,87.12 174.51,87.03 C174.51,86.67 174.78,86.31 175.41,85.77 C178.92,82.53 180.72,79.56 180.72,76.86 C180.72,74.79 179.28,73.62 176.31,73.35 C174.6,73.26 172.44,73.17 169.65,73.17 C158.85,73.17 149.94,73.8 143.01,75.33 C125.28,125.82 103.86,151.92 78.66,153.45 C70.02,153.99 62.1,151.38 54.9,145.62 C47.7,139.95 44.01,133.56 44.01,126.36 C44.01,124.11 44.46,121.86 45.36,119.7 C50.04,108.9 64.35,98.91 88.56,89.28 C104.76,82.89 122.04,79.2 139.41,74.43 L140.4,74.16 C139.77,72.27 137.43,71.73 135.72,72.09 C135.09,72.36 134.46,71.28 135.36,70.29 C137.79,67.86 144,57.78 145.08,52.92 C145.71,50.22 144.63,48.87 143.46,49.05 C141.12,49.86 137.16,54.81 135.09,57.6 C134.1,58.95 134.1,57.33 134.64,56.43 C136.26,54.09 141.66,46.71 145.08,45.99 C146.79,45.63 148.77,48.96 148.5,51.48 C147.96,56.7 141.48,64.8 139.5,67.77 C139.14,68.04 139.05,69.21 139.77,69.12 Z M47.52,122.13 C46.8,124.02 46.44,125.91 46.44,127.89 C46.44,134.19 49.68,139.86 55.98,144.72 C62.55,149.76 70.02,152.1 78.48,151.83 C92.97,151.29 106.65,140.4 119.79,119.25 C127.8,106.29 134.55,91.71 139.86,75.69 C118.35,80.19 99.36,86.13 82.89,93.6 C63.27,102.6 51.39,112.14 47.52,122.13 Z M191.43,54.72 C190.26,55.98 187.29,58.41 183.96,58.86 C179.91,59.49 166.5,59.49 159.3,59.49 C156.6,63.09 152.91,68.49 152.55,74.16 C152.28,79.47 155.52,80.73 158.58,80.37 C162.54,79.92 167.49,77.94 170.73,76.05 C171.72,75.51 172.44,75.96 171.45,76.68 C168.93,78.48 163.8,81.54 159.39,82.35 C155.79,82.98 150.21,78.84 150.39,74.16 C151.02,61.02 165.33,46.44 173.7,43.29 C178.2,41.58 181.08,47.79 179.1,51.3 C177.21,54.63 172.17,57.06 166.23,57.96 C172.8,57.96 180.09,57.96 183.96,57.51 C186.48,57.24 189.36,55.62 190.8,54.36 C191.34,53.55 192.06,53.91 191.43,54.72 Z M176.94,50.49 C179.46,46.62 177.12,44.55 173.52,46.53 C169.11,49.05 164.34,53.55 160.29,57.96 C166.59,57.96 174.06,54.81 176.94,50.49 Z M176.67,77.58 C176.04,77.67 175.68,77.58 175.59,77.22 C175.32,76.95 175.41,76.5 175.77,75.78 C177.21,72.72 179.55,68.76 182.79,63.81 C185.94,59.04 188.73,55.26 191.07,52.38 C191.43,51.84 192.06,51.39 193.32,51.21 C193.68,51.12 193.86,51.12 193.95,51.21 C193.95,51.39 193.86,51.66 193.68,51.84 C189.18,57.06 185.85,62.37 183.51,67.68 C183.24,68.04 183.15,68.49 183.15,68.85 C183.15,69.57 183.42,69.84 183.87,69.84 C184.14,69.84 184.59,69.66 184.95,69.21 C188.28,65.97 191.97,62.82 195.84,59.67 C200.43,55.98 203.49,53.91 204.93,53.37 C205.65,52.74 206.37,52.2 207.18,51.93 C208.53,51.3 209.61,51.21 210.33,51.57 C211.14,51.84 211.14,52.56 210.24,53.64 C205.92,59.13 202.05,65.52 198.72,72.54 C195.48,79.56 193.77,85.23 193.41,89.46 C193.23,92.25 193.77,94.41 195.12,95.85 C196.38,97.2 198,97.83 200.07,97.83 C200.97,97.83 201.78,97.74 202.68,97.47 C206.1,96.48 210.42,93.78 215.55,89.46 C221.22,84.6 224.1,80.73 224.1,77.76 C224.1,75.24 221.4,76.14 221.4,75.51 C221.4,74.79 222.75,74.25 223.56,74.25 C224.55,74.25 225.09,74.97 225.09,76.32 C225.09,76.95 224.91,77.85 224.55,78.93 C223.47,82.44 220.68,86.22 216.45,90.45 C210.6,96.21 204.39,99.36 197.73,100.08 C195.3,100.35 193.32,99.63 191.79,98.1 C190.08,96.21 189.45,93.42 189.72,89.64 C190.08,85.41 192.06,79.92 195.39,73.35 C198.18,67.86 201.15,62.73 204.66,57.96 C204.84,57.69 204.93,57.33 204.93,57.06 C204.93,56.07 204.39,55.62 203.31,55.62 C202.77,55.62 202.32,55.8 201.87,56.07 C195.12,60.84 188.28,67.41 181.26,75.6 C180.63,76.41 179.1,77.04 176.67,77.58 Z M214.29,129.78 C209.52,129.78 205.56,127.8 202.41,124.38 C199.26,120.87 198.72,116.46 198.72,111.33 C198.72,102.78 202.23,90.63 209.07,74.97 C215.1,61.11 221.31,49.95 227.43,41.13 C228.24,40.23 228.51,39.42 228.51,38.43 C228.51,37.35 228.06,36.54 226.89,35.91 C224.64,35.01 223.92,34.02 224.37,33.12 C224.73,32.4 228.06,32.04 233.73,32.04 C234.18,32.04 233.46,31.59 233.73,31.23 C239.4,22.32 247.41,13.41 255.6,3.87 C256.05,3.33 257.76,2.61 260.64,1.53 C263.52,0.54 264.33,0 265.77,0 C266.49,0 266.76,0.36 266.76,0.81 C266.76,1.17 266.49,1.26 265.86,1.44 C260.19,2.61 250.92,12.06 237.87,29.97 C236.97,31.23 237.15,32.04 238.5,32.04 L251.55,32.04 C258.57,32.04 262.44,32.13 263.43,32.13 C264.06,32.13 264.33,32.22 264.51,32.4 C264.51,32.58 263.79,34.11 262.71,34.2 C255.87,34.47 247.05,35.1 235.89,35.64 C234.9,35.82 234.09,36.36 233.64,37.08 C227.34,46.44 221.67,55.26 216.36,66.06 C207.99,83.07 203.22,97.2 202.23,108.27 C202.14,109.8 202.14,111.15 202.14,112.59 C202.14,123.03 205.83,128.25 213.21,128.25 C215.28,128.25 217.53,127.98 220.23,127.08 C227.7,124.74 235.08,119.52 242.82,111.33 C250.56,103.14 254.88,95.85 255.87,89.46 C255.87,83.88 253.8,81.36 249.84,81.99 C248.04,82.26 246.69,83.43 246.06,83.43 C245.52,83.43 245.25,83.07 245.34,82.62 C245.88,81.63 246.69,81.09 249.84,79.83 C250.2,79.74 250.56,79.74 250.92,79.74 C252.9,79.74 254.61,80.91 256.41,83.61 C258.12,86.22 259.11,88.38 258.93,89.73 C257.85,97.65 252,106.29 241.74,115.56 C231.39,124.92 222.3,129.78 214.29,129.78 Z M244.17,79.74 C245.16,76.95 246.15,73.35 247.23,68.76 C248.22,64.71 248.76,61.92 248.94,60.3 C246.06,62.82 242.37,65.61 237.96,68.58 C232.2,72.45 227.61,75.06 224.19,76.41 C223.92,76.5 223.65,76.59 223.38,76.59 C222.3,76.59 221.4,75.51 221.67,74.7 C222.03,73.44 224.82,68.13 229.86,59.04 C230.13,58.59 229.68,56.52 230.04,55.8 C230.31,55.35 231.39,54.72 233.46,53.82 C235.53,52.92 236.88,52.38 237.42,52.29 C238.32,52.2 238.77,52.74 238.86,53.73 C237.6,54.27 235.44,56.7 232.56,60.75 C230.04,64.44 228.24,67.41 227.16,69.57 C226.98,70.02 226.89,70.47 226.89,70.74 C226.89,71.28 227.16,71.73 227.61,71.91 C228.15,72.09 228.78,72.09 229.23,71.91 C232.02,70.83 235.89,68.67 240.93,65.16 C244.89,62.37 247.77,60.21 249.39,58.68 C249.93,57.6 250.83,56.7 251.64,56.61 C253.62,56.52 254.79,57.87 254.52,59.04 C254.07,59.58 253.62,60.21 253.08,61.29 C251.91,65.61 250.02,71.64 247.41,79.38 C256.68,77.67 265.41,76.86 273.6,76.86 C276.57,76.86 278.82,77.13 280.44,77.4 C283.05,77.94 286.29,80.91 286.29,83.97 C286.29,84.69 286.11,85.41 285.75,85.95 C284.94,87.48 282.96,89.46 279.9,91.89 C279.36,92.43 278.91,92.61 278.64,92.61 C278.55,92.61 278.46,92.61 278.46,92.52 C278.46,92.25 278.73,91.8 279.36,91.35 C282.87,88.02 284.67,85.05 284.67,82.44 C284.67,80.37 283.23,79.11 280.26,78.84 C278.55,78.75 276.39,78.66 273.6,78.66 C262.8,78.66 253.89,79.38 246.96,80.82 C229.23,131.31 207.81,157.32 182.61,158.94 C173.97,159.48 166.05,156.87 158.85,151.11 C151.65,145.44 147.96,139.05 147.96,131.94 C147.96,129.6 148.41,127.35 149.31,125.19 C153.99,114.39 168.39,104.31 192.51,94.77 C209.07,88.29 226.26,83.25 244.17,79.74 Z M151.56,127.62 C150.84,129.51 150.39,131.4 150.39,133.38 C150.39,139.77 153.63,145.35 159.93,150.21 C166.5,155.25 173.97,157.68 182.43,157.32 C196.92,156.78 210.78,145.89 223.83,124.83 C231.93,111.78 238.59,97.29 243.81,81.27 C222.3,85.68 203.31,91.62 186.84,99.18 C167.22,108.18 155.52,117.63 151.56,127.62 Z" id="path-2"></path>
    </defs>
    <g id="Page-1" stroke="none" stroke-width="1" fill="none" fill-rule="evenodd" opacity="0.25">
        <g id="kolorystyka" transform="translate(-738.000000, -621.000000)">
            <g id="voucher" transform="translate(300.000000, 615.000000)">
                <g id="detal-prezenty" transform="translate(438.000000, 6.000000)">
                    <g id="Prezenty">
                        <use fill="#13884E" xlink:href="#path-2"></use>
                        <use fill="url(#linearGradient-1)" xlink:href="#path-2"></use>
                    </g>
                </g>
            </g>
        </g>
    </g>
</svg>