<?xml version="1.0" encoding="UTF-8" standalone="no"?>
<svg width="201px" height="144px" viewBox="0 0 201 144" version="1.1" xmlns="http://www.w3.org/2000/svg" xmlns:xlink="http://www.w3.org/1999/xlink">
    <!-- Generator: Sketch 50.2 (55047) - http://www.bohemiancoding.com/sketch -->
    <title>detal-offer-eng</title>
    <desc>Created with Sketch.</desc>
    <defs>
        <linearGradient x1="63.1277323%" y1="100%" x2="63.1277323%" y2="0%" id="linearGradient-1">
            <stop stop-color="#0C532D" offset="0%"></stop>
            <stop stop-color="#7C9F86" offset="100%"></stop>
        </linearGradient>
        <path d="M35.98,44.29 C37.51,38.44 41.11,32.77 46.69,27.28 C46.42,26.38 46.33,25.57 46.33,24.67 C46.33,21.25 47.86,17.65 51.01,13.96 C54.52,9.82 59.2,6.49 64.96,4.15 C70.45,1.9 76.12,0.91 81.97,0.91 C84.31,0.91 86.56,1.09 88.72,1.45 C95.74,2.53 101.23,6.04 105.46,12.16 C108.88,17.11 110.68,22.24 110.68,27.64 C110.68,28.45 110.59,29.26 110.5,29.89 C109.24,38.71 105.46,46.72 99.16,53.92 C93.76,60.22 86.92,64.99 78.91,68.68 C71.53,72.1 64.51,73.63 57.85,73.27 C51.73,73 46.42,71.11 42.19,67.69 C37.33,63.73 34.9,58.51 34.9,52.12 C34.9,49.6 35.26,46.99 35.98,44.29 Z M91.96,8.92 C92.59,9.01 92.86,9.28 92.86,9.55 C92.86,10.18 92.59,10.36 91.87,10.18 C90.34,9.82 88.63,9.64 86.83,9.64 C79.72,9.64 71.8,11.89 62.98,16.57 C55.33,20.53 50.38,24.22 48.13,27.46 C48.4,29.44 49.75,31.42 51.82,33.04 C53.98,34.75 56.32,35.56 58.84,35.56 C59.56,35.56 59.83,35.74 59.83,36.19 C59.83,36.64 59.29,37 58.39,36.82 C55.78,36.73 53.35,35.83 51.1,34.12 C48.94,32.5 47.59,30.61 46.96,28.72 C45.25,30.25 43.36,32.5 41.38,35.74 C39.49,38.98 38.05,41.86 37.42,44.38 C36.7,46.99 36.43,49.42 36.43,51.85 C36.43,62.92 44.44,69.85 57.85,70.48 C64.87,70.84 72.43,68.95 80.53,64.72 C88.63,60.4 95.38,55.09 100.6,48.52 C106.36,41.41 109.24,34.3 109.24,27.1 C109.24,21.25 107.53,16.3 104.2,11.98 C100.33,7.12 94.75,4.24 87.55,3.16 C85.84,2.89 84.04,2.8 82.33,2.8 C76.48,2.8 70.72,3.97 65.05,6.31 C59.65,8.47 55.33,11.26 52.09,14.68 C49.21,17.74 47.77,20.8 47.77,23.77 C47.77,24.49 47.86,25.12 47.95,25.57 C52.18,21.34 57.76,17.56 64.78,14.23 C72.79,10.36 80.17,8.47 86.83,8.47 C88.63,8.47 90.34,8.65 91.96,8.92 Z M40.12,140.23 C57.85,132.67 76.57,113.77 96.19,83.53 C94.57,83.53 92.86,83.44 91.15,83.44 C65.14,83.44 41.74,89.47 20.86,101.62 C8.35,108.82 2.14,116.47 2.14,124.48 C2.14,129.61 4.57,133.93 9.61,137.44 C14.65,140.95 20.5,142.84 27.25,142.84 C31.75,142.84 36.07,141.94 40.12,140.23 Z M98.89,83.62 C96.64,87.22 94.3,90.64 91.87,93.97 C97.18,92.89 101.59,90.91 105.37,87.76 C106,87.22 106.27,86.68 106.27,85.96 C106.27,85.06 105.64,84.52 104.47,84.25 C102.85,83.98 101.05,83.8 98.89,83.62 Z M122.11,46.27 C121.12,46.27 120.85,46.63 120.58,46.99 C115.45,56.44 109.69,66.07 104.11,75.34 C102.49,77.95 101.05,80.38 99.52,82.81 C101.41,82.9 103.21,83.08 104.83,83.26 C106.09,83.53 107.98,86.41 107.98,88.03 C107.98,88.48 107.8,88.75 107.62,88.93 C105.19,91.54 99.7,93.43 91.24,94.87 C86.02,102.25 80.89,108.64 75.85,114.4 C63.52,128.35 51.82,137.35 40.75,141.31 C35.71,143.11 30.85,144.01 26.08,144.01 C18.61,144.01 12.49,142.03 7.72,137.98 C3.04,133.93 0.61,129.07 0.61,123.31 C0.61,113.5 7,105.31 19.51,98.56 C30.04,92.89 42.19,88.66 56.14,85.87 C67.75,83.53 79.09,82.36 90.52,82.36 C92.68,82.36 94.75,82.54 96.73,82.63 C102.85,73.09 109.06,62.47 115.27,50.86 C116.17,49.15 114.91,47.89 114.1,47.35 C113.11,46.72 111.58,46.36 112.03,45.28 C112.3,44.38 113.83,44.65 114.55,44.65 C115.81,44.65 117.16,44.74 118.6,44.65 C122.56,38.62 128.05,31.24 133.36,27.19 C138.4,23.32 141.28,22.6 147.67,23.5 C149.02,23.68 150.19,25.21 150.19,25.84 C150.19,26.38 149.02,28.54 148.48,28 C146.5,26.02 143.62,24.67 140.83,25.12 C131.11,26.56 126.34,37.99 122.2,44.65 L136.96,44.65 C137.95,44.65 137.95,45.55 136.6,45.55 C131.92,45.64 127.24,46 122.11,46.27 Z M70.36,89.74 C72.07,89.11 72.07,89.74 70.45,90.46 C64.33,93.16 58.93,99.1 56.95,107.02 C53.71,120.16 64.78,128.08 78.73,122.05 C99.25,113.14 121.93,68.41 131.65,50.41 C132.55,48.79 131.47,47.89 130.66,47.35 C129.67,46.81 128.14,46.36 128.59,45.28 C128.86,44.38 130.39,44.65 131.11,44.65 C132.37,44.65 133.72,44.83 135.16,44.65 C139.21,38.62 144.61,31.24 149.92,27.19 C155.05,23.32 162.43,19.81 168.73,20.8 C170.17,20.98 171.34,22.51 171.34,23.23 C171.34,23.68 170.17,25.84 169.54,25.3 C167.56,23.32 164.68,22.06 161.98,22.42 C152.26,23.86 142.9,37.99 138.76,44.65 L153.52,44.65 C154.51,44.65 154.51,45.55 153.16,45.55 C148.48,45.64 143.8,46 138.67,46.27 C137.68,46.36 137.41,46.63 137.23,46.99 C128.14,62.47 102.13,114.13 79.36,123.13 C61.36,130.24 51.64,118.45 54.25,106.84 C55.96,98.92 63.7,92.17 70.36,89.74 Z M181.06,47.98 C179.89,49.24 176.92,51.67 173.59,52.12 C169.54,52.75 156.13,52.75 148.93,52.75 C146.23,56.35 142.54,61.75 142.18,67.42 C141.91,72.73 145.15,73.99 148.21,73.63 C152.17,73.18 157.12,71.2 160.36,69.31 C161.35,68.77 162.07,69.22 161.08,69.94 C158.56,71.74 153.43,74.8 149.02,75.61 C145.42,76.24 139.84,72.1 140.02,67.42 C140.65,54.28 154.96,39.7 163.33,36.55 C167.83,34.84 170.71,41.05 168.73,44.56 C166.84,47.89 161.8,50.32 155.86,51.22 C162.43,51.22 169.72,51.22 173.59,50.77 C176.11,50.5 178.99,48.88 180.43,47.62 C180.97,46.81 181.69,47.17 181.06,47.98 Z M166.57,43.75 C169.09,39.88 166.75,37.81 163.15,39.79 C158.74,42.31 153.97,46.81 149.92,51.22 C156.22,51.22 163.69,48.07 166.57,43.75 Z M164.41,74.17 C164.14,74.53 163.96,74.53 163.87,74.17 C163.78,73.9 163.78,73.63 163.96,73.27 C169.81,64.27 173.77,57.34 175.84,52.48 C176.2,51.58 176.38,50.86 176.38,50.23 C176.38,50.05 176.29,49.78 176.11,49.24 C176.02,48.97 176.02,48.79 176.11,48.61 C176.83,48.34 179.08,47.08 182.86,44.83 C182.95,44.65 183.13,44.65 183.22,44.65 C183.58,44.65 183.85,44.83 183.94,45.1 C184.12,45.37 184.12,45.82 183.85,46.09 C179.98,51.31 177.28,55.27 175.93,57.88 C175.75,58.24 175.66,58.51 175.66,58.78 C175.66,59.05 175.93,59.14 176.65,58.87 C177.1,58.69 177.55,58.42 177.73,58.15 C179.98,55.45 183.04,52.48 186.82,49.42 C190.69,46.27 193.66,44.29 195.82,43.39 C197.71,43.3 199.06,43.48 199.96,43.93 C200.05,44.02 200.05,44.02 200.05,44.11 C200.05,44.92 198.16,46.9 197.44,46.45 C196.18,45.91 194.65,46.18 192.58,47.26 C183.76,52.12 175.84,60.22 168.82,71.74 C168.82,71.83 168.64,72.1 168.1,72.37 C167.2,72.73 165.94,73.27 164.41,74.17 Z" id="path-2"></path>
    </defs>
    <g id="Page-1" stroke="none" stroke-width="1" fill="none" fill-rule="evenodd" opacity="0.25">
        <g id="detal-offer-eng">
            <g id="Offer">
                <use fill="#13884E" xlink:href="#path-2"></use>
                <use fill="url(#linearGradient-1)" xlink:href="#path-2"></use>
            </g>
        </g>
    </g>
</svg>