<?xml version="1.0" encoding="UTF-8" standalone="no"?>
<svg width="168px" height="133px" viewBox="0 0 168 133" version="1.1" xmlns="http://www.w3.org/2000/svg" xmlns:xlink="http://www.w3.org/1999/xlink">
    <!-- Generator: Sketch 50.2 (55047) - http://www.bohemiancoding.com/sketch -->
    <title>detal-gifts-eng</title>
    <desc>Created with Sketch.</desc>
    <defs>
        <linearGradient x1="63.1277323%" y1="100%" x2="63.1277323%" y2="0%" id="linearGradient-1">
            <stop stop-color="#0C532D" offset="0%"></stop>
            <stop stop-color="#7C9F86" offset="100%"></stop>
        </linearGradient>
        <path d="M19.08,88.19 C22.68,84.23 29.43,80.9 39.24,78.11 C42.84,77.12 50.76,75.32 63.09,73.07 C65.16,68.3 68.13,62 72,53.9 C72.36,53.09 72.45,52.64 72.45,52.55 C72.45,52.37 72.45,52.37 72.36,52.37 C72.27,52.37 71.91,52.64 71.28,53.09 C63.81,58.49 55.44,63.53 45.9,68.12 C34.29,73.61 24.75,76.22 17.28,76.4 C12.24,76.49 8.19,75.41 5.04,73.25 C1.71,70.91 0,67.4 0,62.99 C0,60.83 0.36,58.4 1.17,55.97 C5.04,44.09 15.48,33.47 32.49,23.93 C48.96,14.75 64.53,10.61 79.11,11.51 C82.8,11.69 86.13,13.04 89.01,15.65 C91.62,17.99 93.51,20.96 94.59,24.56 C94.77,24.83 94.86,25.19 94.86,25.46 C94.86,25.82 94.77,25.91 94.41,25.82 C94.14,25.73 93.96,25.55 93.78,25.1 C92.88,22.85 91.62,21.14 90.27,19.7 C87.57,16.91 83.97,15.38 79.38,14.93 C78.12,14.84 76.68,14.84 75.42,14.84 C61.47,14.84 46.8,19.16 31.59,27.8 C16.02,36.62 6.57,46.16 3.15,56.42 C2.25,59.21 1.8,61.64 1.8,63.8 C1.8,70.55 6.84,74.24 16.92,74.33 C25.02,74.42 36,71.18 49.86,64.25 C61.47,58.49 69.48,53.45 73.71,49.4 C73.89,49.31 73.98,49.13 74.16,48.86 C76.59,43.19 78.48,39.5 79.92,37.61 C80.91,36.8 82.26,35.63 84.15,33.92 C84.33,33.74 84.51,33.65 84.6,33.65 C84.96,33.65 85.23,34.1 85.32,34.82 C85.41,35.63 85.41,36.26 85.23,36.89 C84.15,41.12 82.8,44.09 81.18,45.8 C80.91,45.98 80.19,46.16 79.2,46.52 C78.39,47.96 75.42,53.81 70.2,64.16 C71.28,65.24 72.09,66.95 72.72,69.02 C72.09,70.01 71.1,71.18 70.02,72.44 C69.66,72.62 68.22,73.07 65.43,73.88 C57.24,88.55 50.4,97.55 45,101.15 C38.88,105.2 33.84,107.36 29.79,107.45 C25.29,107.54 21.78,106.55 19.17,104.39 C16.83,102.41 15.66,99.8 15.66,96.65 C15.66,93.59 16.83,90.71 19.08,88.19 Z M62.28,74.42 L54.27,76.22 C47.43,77.75 41.58,79.37 36.54,81.17 C29.16,83.87 23.76,86.66 20.25,89.72 C17.82,91.97 16.56,94.49 16.56,97.37 C16.56,99.71 17.46,101.78 19.62,103.31 C21.87,104.93 25.29,105.65 29.61,105.56 C34.92,105.38 39.87,103.49 44.37,99.89 C49.5,95.84 55.44,87.47 62.28,74.42 Z M69.66,65.33 C68.94,66.95 67.68,69.2 66.24,72.35 C67.14,72.17 68.22,71.54 69.48,70.82 C70.2,70.28 70.56,69.47 70.65,68.3 C70.74,67.13 70.47,66.14 69.66,65.33 Z M96.03,72.98 C93.15,75.86 90.27,78.29 85.05,80.63 C83.7,81.26 78.21,79.64 78.3,75.23 C78.39,69.38 87.84,52.37 88.11,50.84 C88.56,47.96 93.96,48.68 91.62,53.09 C79.38,76.22 85.95,63.89 81.63,72.8 C78.66,78.83 82.17,78.83 84.51,78.29 C89.01,77.21 92.25,74.96 95.49,71.9 C97.56,69.83 97.38,71.63 96.03,72.98 Z M97.56,40.49 C97.38,41.48 96.57,42.65 95.04,44 C93.69,45.26 92.61,45.8 91.71,45.62 C90.36,45.35 89.73,44.81 89.73,44.09 C89.73,43.28 90.36,42.2 91.8,40.76 C93.15,39.32 94.23,38.51 95.13,38.33 C96.39,38.06 97.92,39.41 97.56,40.49 Z M40.86,96.74 C42.57,96.11 42.57,96.74 40.95,97.46 C34.83,100.16 29.43,106.1 27.45,114.02 C24.21,127.16 35.28,135.08 49.23,129.05 C69.75,120.14 92.43,75.41 102.15,57.41 C103.05,55.79 101.97,54.89 101.16,54.35 C100.17,53.81 98.64,53.36 99.09,52.28 C99.36,51.38 100.89,51.65 101.61,51.65 C102.87,51.65 104.22,51.83 105.66,51.65 C109.71,45.62 115.11,38.24 120.42,34.19 C125.55,30.32 132.93,26.81 139.23,27.8 C140.67,27.98 141.84,29.51 141.84,30.23 C141.84,30.68 140.67,32.84 140.04,32.3 C138.06,30.32 135.18,29.06 132.48,29.42 C122.76,30.86 113.4,44.99 109.26,51.65 L124.02,51.65 C125.01,51.65 125.01,52.55 123.66,52.55 C118.98,52.64 114.3,53 109.17,53.27 C108.18,53.36 107.91,53.63 107.73,53.99 C98.64,69.47 72.63,121.13 49.86,130.13 C31.86,137.24 22.14,125.45 24.75,113.84 C26.46,105.92 34.2,99.17 40.86,96.74 Z M114.93,130.04 C110.16,130.04 106.2,128.06 103.05,124.64 C99.9,121.13 99.36,116.72 99.36,111.59 C99.36,103.04 102.87,90.89 109.71,75.23 C115.74,61.37 121.95,50.21 128.07,41.39 C128.88,40.49 129.15,39.68 129.15,38.69 C129.15,37.61 128.7,36.8 127.53,36.17 C125.28,35.27 124.56,34.28 125.01,33.38 C125.37,32.66 128.7,32.3 134.37,32.3 C134.82,32.3 134.1,31.85 134.37,31.49 C140.04,22.58 148.05,13.67 156.24,4.13 C156.69,3.59 158.4,2.87 161.28,1.79 C164.16,0.8 164.97,0.26 166.41,0.26 C167.13,0.26 167.4,0.62 167.4,1.07 C167.4,1.43 167.13,1.52 166.5,1.7 C160.83,2.87 151.56,12.32 138.51,30.23 C137.61,31.49 137.79,32.3 139.14,32.3 L152.19,32.3 C159.21,32.3 163.08,32.39 164.07,32.39 C164.7,32.39 164.97,32.48 165.15,32.66 C165.15,32.84 164.43,34.37 163.35,34.46 C156.51,34.73 147.69,35.36 136.53,35.9 C135.54,36.08 134.73,36.62 134.28,37.34 C127.98,46.7 122.31,55.52 117,66.32 C108.63,83.33 103.86,97.46 102.87,108.53 C102.78,110.06 102.78,111.41 102.78,112.85 C102.78,123.29 106.47,128.51 113.85,128.51 C115.92,128.51 118.17,128.24 120.87,127.34 C128.34,125 135.72,119.78 143.46,111.59 C151.2,103.4 155.52,96.11 156.51,89.72 C156.51,84.14 154.44,81.62 150.48,82.25 C148.68,82.52 147.33,83.69 146.7,83.69 C146.16,83.69 145.89,83.33 145.98,82.88 C146.52,81.89 147.33,81.35 150.48,80.09 C150.84,80 151.2,80 151.56,80 C153.54,80 155.25,81.17 157.05,83.87 C158.76,86.48 159.75,88.64 159.57,89.99 C158.49,97.91 152.64,106.55 142.38,115.82 C132.03,125.18 122.94,130.04 114.93,130.04 Z M137.61,70.46 C147.24,65.06 156.42,62.45 165.33,60.92 L165.42,61.01 C157.05,62.63 148.23,66.23 138.69,71.72 C140.22,73.79 140.85,75.14 140.85,75.95 C140.85,77.66 138.87,79.28 134.91,80.99 C131.49,82.52 128.7,83.24 126.72,83.24 C125.91,83.24 125.37,83.15 124.83,82.97 C123.21,83.24 122.13,83.51 121.59,83.33 C120.69,83.24 120.6,82.88 121.05,82.16 C122.13,80.81 126.18,77.75 133.2,72.89 L130.32,69.02 C129.06,67.31 128.34,65.78 128.16,64.16 C127.62,60.2 131.76,55.7 140.4,50.57 C148.95,45.53 156.69,43.01 163.35,43.1 C163.71,43.1 164.07,43.28 164.34,43.64 C164.61,44.18 164.61,44.54 164.34,44.81 C163.53,45.98 161.1,47.6 160.29,47.33 C157.59,46.43 155.61,46.07 154.35,46.07 C153.63,46.07 152.91,46.16 152.37,46.25 C149.04,47.06 145.08,49.04 140.49,52.28 C134.82,56.15 132.12,59.57 132.57,62.54 C132.75,63.89 133.47,65.42 134.55,67.13 C135.72,68.84 136.71,70.01 137.61,70.46 Z M125.64,81.26 C125.19,81.8 125.37,82.16 126,82.25 C127.08,82.52 128.97,82.16 131.49,81.26 C133.92,80.36 135.54,79.64 136.17,78.74 C136.44,78.38 136.53,78.02 136.53,77.75 C136.53,76.76 135.81,75.68 134.46,74.42 C133.56,74.96 132.12,75.95 130.05,77.48 C127.71,79.19 126.18,80.36 125.64,81.26 Z" id="path-2"></path>
    </defs>
    <g id="Page-1" stroke="none" stroke-width="1" fill="none" fill-rule="evenodd" opacity="0.25">
        <g id="detal-gifts-eng">
            <g id="Gifts">
                <use fill="#13884E" xlink:href="#path-2"></use>
                <use fill="url(#linearGradient-1)" xlink:href="#path-2"></use>
            </g>
        </g>
    </g>
</svg>