<?xml version="1.0" encoding="UTF-8" standalone="no"?>
<svg width="211px" height="133px" viewBox="0 0 211 133" version="1.1" xmlns="http://www.w3.org/2000/svg" xmlns:xlink="http://www.w3.org/1999/xlink">
    <!-- Generator: Sketch 50.2 (55047) - http://www.bohemiancoding.com/sketch -->
    <title>detal-oferta</title>
    <desc>Created with Sketch.</desc>
    <defs>
        <linearGradient x1="63.1277323%" y1="100%" x2="63.1277323%" y2="0%" id="linearGradient-1">
            <stop stop-color="#0C532D" offset="0%"></stop>
            <stop stop-color="#7C9F86" offset="100%"></stop>
        </linearGradient>
        <path d="M1.98,51.29 C3.51,45.44 7.11,39.77 12.69,34.28 C12.42,33.38 12.33,32.57 12.33,31.67 C12.33,28.25 13.86,24.65 17.01,20.96 C20.52,16.82 25.2,13.49 30.96,11.15 C36.45,8.9 42.12,7.91 47.97,7.91 C50.31,7.91 52.56,8.09 54.72,8.45 C61.74,9.53 67.23,13.04 71.46,19.16 C74.88,24.11 76.68,29.24 76.68,34.64 C76.68,35.45 76.59,36.26 76.5,36.89 C75.24,45.71 71.46,53.72 65.16,60.92 C59.76,67.22 52.92,71.99 44.91,75.68 C37.53,79.1 30.51,80.63 23.85,80.27 C17.73,80 12.42,78.11 8.19,74.69 C3.33,70.73 0.9,65.51 0.9,59.12 C0.9,56.6 1.26,53.99 1.98,51.29 Z M57.96,15.92 C58.59,16.01 58.86,16.28 58.86,16.55 C58.86,17.18 58.59,17.36 57.87,17.18 C56.34,16.82 54.63,16.64 52.83,16.64 C45.72,16.64 37.8,18.89 28.98,23.57 C21.33,27.53 16.38,31.22 14.13,34.46 C14.4,36.44 15.75,38.42 17.82,40.04 C19.98,41.75 22.32,42.56 24.84,42.56 C25.56,42.56 25.83,42.74 25.83,43.19 C25.83,43.64 25.29,44 24.39,43.82 C21.78,43.73 19.35,42.83 17.1,41.12 C14.94,39.5 13.59,37.61 12.96,35.72 C11.25,37.25 9.36,39.5 7.38,42.74 C5.49,45.98 4.05,48.86 3.42,51.38 C2.7,53.99 2.43,56.42 2.43,58.85 C2.43,69.92 10.44,76.85 23.85,77.48 C30.87,77.84 38.43,75.95 46.53,71.72 C54.63,67.4 61.38,62.09 66.6,55.52 C72.36,48.41 75.24,41.3 75.24,34.1 C75.24,28.25 73.53,23.3 70.2,18.98 C66.33,14.12 60.75,11.24 53.55,10.16 C51.84,9.89 50.04,9.8 48.33,9.8 C42.48,9.8 36.72,10.97 31.05,13.31 C25.65,15.47 21.33,18.26 18.09,21.68 C15.21,24.74 13.77,27.8 13.77,30.77 C13.77,31.49 13.86,32.12 13.95,32.57 C18.18,28.34 23.76,24.56 30.78,21.23 C38.79,17.36 46.17,15.47 52.83,15.47 C54.63,15.47 56.34,15.65 57.96,15.92 Z M19.8,96.74 C21.51,96.11 21.51,96.74 19.89,97.46 C13.77,100.16 8.37,106.1 6.39,114.02 C3.15,127.16 14.22,135.08 28.17,129.05 C48.69,120.14 71.37,75.41 81.09,57.41 C81.99,55.79 80.91,54.89 80.1,54.35 C79.11,53.81 77.58,53.36 78.03,52.28 C78.3,51.38 79.83,51.65 80.55,51.65 C81.81,51.65 83.16,51.83 84.6,51.65 C88.65,45.62 94.05,38.24 99.36,34.19 C104.49,30.32 111.87,26.81 118.17,27.8 C119.61,27.98 120.78,29.51 120.78,30.23 C120.78,30.68 119.61,32.84 118.98,32.3 C117,30.32 114.12,29.06 111.42,29.42 C101.7,30.86 92.34,44.99 88.2,51.65 L102.96,51.65 C103.95,51.65 103.95,52.55 102.6,52.55 C97.92,52.64 93.24,53 88.11,53.27 C87.12,53.36 86.85,53.63 86.67,53.99 C77.58,69.47 51.57,121.13 28.8,130.13 C10.8,137.24 1.08,125.45 3.69,113.84 C5.4,105.92 13.14,99.17 19.8,96.74 Z M130.5,54.98 C129.33,56.24 126.36,58.67 123.03,59.12 C118.98,59.75 105.57,59.75 98.37,59.75 C95.67,63.35 91.98,68.75 91.62,74.42 C91.35,79.73 94.59,80.99 97.65,80.63 C101.61,80.18 106.56,78.2 109.8,76.31 C110.79,75.77 111.51,76.22 110.52,76.94 C108,78.74 102.87,81.8 98.46,82.61 C94.86,83.24 89.28,79.1 89.46,74.42 C90.09,61.28 104.4,46.7 112.77,43.55 C117.27,41.84 120.15,48.05 118.17,51.56 C116.28,54.89 111.24,57.32 105.3,58.22 C111.87,58.22 119.16,58.22 123.03,57.77 C125.55,57.5 128.43,55.88 129.87,54.62 C130.41,53.81 131.13,54.17 130.5,54.98 Z M116.01,50.75 C118.53,46.88 116.19,44.81 112.59,46.79 C108.18,49.31 103.41,53.81 99.36,58.22 C105.66,58.22 113.13,55.07 116.01,50.75 Z M113.85,81.17 C113.58,81.53 113.4,81.53 113.31,81.17 C113.22,80.9 113.22,80.63 113.4,80.27 C119.25,71.27 123.21,64.34 125.28,59.48 C125.64,58.58 125.82,57.86 125.82,57.23 C125.82,57.05 125.73,56.78 125.55,56.24 C125.46,55.97 125.46,55.79 125.55,55.61 C126.27,55.34 128.52,54.08 132.3,51.83 C132.39,51.65 132.57,51.65 132.66,51.65 C133.02,51.65 133.29,51.83 133.38,52.1 C133.56,52.37 133.56,52.82 133.29,53.09 C129.42,58.31 126.72,62.27 125.37,64.88 C125.19,65.24 125.1,65.51 125.1,65.78 C125.1,66.05 125.37,66.14 126.09,65.87 C126.54,65.69 126.99,65.42 127.17,65.15 C129.42,62.45 132.48,59.48 136.26,56.42 C140.13,53.27 143.1,51.29 145.26,50.39 C147.15,50.3 148.5,50.48 149.4,50.93 C149.49,51.02 149.49,51.02 149.49,51.11 C149.49,51.92 147.6,53.9 146.88,53.45 C145.62,52.91 144.09,53.18 142.02,54.26 C133.2,59.12 125.28,67.22 118.26,78.74 C118.26,78.83 118.08,79.1 117.54,79.37 C116.64,79.73 115.38,80.27 113.85,81.17 Z M147.33,130.04 C142.56,130.04 138.6,128.06 135.45,124.64 C132.3,121.13 131.76,116.72 131.76,111.59 C131.76,103.04 135.27,90.89 142.11,75.23 C148.14,61.37 154.35,50.21 160.47,41.39 C161.28,40.49 161.55,39.68 161.55,38.69 C161.55,37.61 161.1,36.8 159.93,36.17 C157.68,35.27 156.96,34.28 157.41,33.38 C157.77,32.66 161.1,32.3 166.77,32.3 C167.22,32.3 166.5,31.85 166.77,31.49 C172.44,22.58 180.45,13.67 188.64,4.13 C189.09,3.59 190.8,2.87 193.68,1.79 C196.56,0.8 197.37,0.26 198.81,0.26 C199.53,0.26 199.8,0.62 199.8,1.07 C199.8,1.43 199.53,1.52 198.9,1.7 C193.23,2.87 183.96,12.32 170.91,30.23 C170.01,31.49 170.19,32.3 171.54,32.3 L184.59,32.3 C191.61,32.3 195.48,32.39 196.47,32.39 C197.1,32.39 197.37,32.48 197.55,32.66 C197.55,32.84 196.83,34.37 195.75,34.46 C188.91,34.73 180.09,35.36 168.93,35.9 C167.94,36.08 167.13,36.62 166.68,37.34 C160.38,46.7 154.71,55.52 149.4,66.32 C141.03,83.33 136.26,97.46 135.27,108.53 C135.18,110.06 135.18,111.41 135.18,112.85 C135.18,123.29 138.87,128.51 146.25,128.51 C148.32,128.51 150.57,128.24 153.27,127.34 C160.74,125 168.12,119.78 175.86,111.59 C183.6,103.4 187.92,96.11 188.91,89.72 C188.91,84.14 186.84,81.62 182.88,82.25 C181.08,82.52 179.73,83.69 179.1,83.69 C178.56,83.69 178.29,83.33 178.38,82.88 C178.92,81.89 179.73,81.35 182.88,80.09 C183.24,80 183.6,80 183.96,80 C185.94,80 187.65,81.17 189.45,83.87 C191.16,86.48 192.15,88.64 191.97,89.99 C190.89,97.91 185.04,106.55 174.78,115.82 C164.43,125.18 155.34,130.04 147.33,130.04 Z M158.22,78.83 C157.5,79.28 156.87,79.55 156.15,79.55 C154.62,79.55 153.9,78.56 153.9,76.4 C153.9,72.17 157.23,66.68 163.89,60.02 C170.01,53.99 175.41,50.12 180.09,48.32 C181.17,47.87 182.43,47.6 183.78,47.6 C185.22,47.6 186.66,47.96 188.1,48.41 C189,48.5 189.54,48.59 189.81,48.5 C190.8,48.32 191.61,47.96 192.15,47.33 C192.24,47.24 192.51,47.15 192.69,47.15 C193.14,47.15 193.59,47.96 193.5,48.23 C190.08,53.54 186.57,58.85 183.33,64.16 C178.29,72.62 173.43,87.11 172.35,94.04 C172.26,94.67 172.26,95.21 172.26,95.75 C172.26,99.8 174.96,101.78 179.28,101.78 C181.35,101.78 183.6,101.42 185.67,100.7 C188.91,99.62 193.05,97.01 198.09,92.96 C202.95,89 206.91,84.59 209.79,80.9 C210.33,80.27 210.6,80 210.87,80 C210.96,80.09 210.96,80.18 210.96,80.27 C210.96,80.54 210.87,80.81 210.6,81.26 C207.9,85.31 203.94,90.08 198.63,94.58 C193.68,98.63 189.63,101.33 186.3,102.5 C184.68,103.04 182.97,103.4 181.08,103.4 C178.2,103.4 175.77,102.23 173.88,101.06 C171.63,99.62 170.82,97.1 170.91,94.04 C171.09,89 175.05,76.13 178.29,69.02 C180.27,64.7 182.25,60.92 184.32,57.86 C184.77,57.14 184.77,56.87 184.23,56.87 C184.14,56.87 184.05,56.96 183.96,57.05 C181.08,60.47 177.03,64.34 171.81,68.84 C166.59,73.25 162.09,76.58 158.22,78.83 Z M159.66,71.18 C159.39,71.9 159.3,72.62 159.3,73.25 C159.3,74.78 159.84,75.41 160.92,75.41 C161.28,75.41 161.82,75.23 162.27,74.96 C168.93,70.73 176.4,63.53 184.86,53.45 C185.04,53.27 185.13,53.09 185.13,52.82 C185.13,51.47 183.42,50.12 180.99,50.12 C180.27,50.12 179.64,50.21 178.92,50.39 C176.04,51.11 172.44,53.9 168.21,58.58 C164.16,63.08 161.37,67.31 159.66,71.18 Z" id="path-2"></path>
    </defs>
    <g id="Page-1" stroke="none" stroke-width="1" fill="none" fill-rule="evenodd" opacity="0.25">
        <g id="detal-oferta">
            <g id="Oferta">
                <use fill="#13884E" xlink:href="#path-2"></use>
                <use fill="url(#linearGradient-1)" xlink:href="#path-2"></use>
            </g>
        </g>
    </g>
</svg>