<?xml version="1.0" encoding="UTF-8" standalone="no"?>
<svg width="121px" height="81px" viewBox="0 0 121 81" version="1.1" xmlns="http://www.w3.org/2000/svg" xmlns:xlink="http://www.w3.org/1999/xlink">
    <!-- Generator: Sketch 50.2 (55047) - http://www.bohemiancoding.com/sketch -->
    <title>detal-see-eng</title>
    <desc>Created with Sketch.</desc>
    <defs>
        <linearGradient x1="63.1277323%" y1="100%" x2="63.1277323%" y2="0%" id="linearGradient-1">
            <stop stop-color="#0C532D" offset="0%"></stop>
            <stop stop-color="#7C9F86" offset="100%"></stop>
        </linearGradient>
        <path d="M8.61,58.82 C16.98,55.22 27.69,52.61 40.56,51.53 C36.51,46.13 31.74,39.56 25.89,31.73 C22.47,27.23 20.67,23.09 20.67,19.4 C20.67,15.44 22.74,12.02 26.97,9.32 C35.79,3.65 46.23,0.77 58.2,0.77 C62.61,0.77 66.21,1.13 69.09,2.12 C71.34,2.84 73.23,4.37 74.76,6.17 C76.2,8.33 77.01,10.76 77.01,13.46 C77.01,15.17 76.74,16.88 76.02,18.68 C75.75,19.4 75.48,19.76 75.3,19.94 C75.12,20.3 75.03,20.3 74.94,19.94 C74.85,19.49 75.3,17.42 75.3,15.44 C75.3,12.38 74.4,9.77 72.78,7.7 C71.25,5.81 69.18,4.46 66.57,3.74 C63.51,2.84 59.82,2.48 55.77,2.48 C44.79,2.48 35.7,5.18 28.41,10.49 C24.9,13.1 23.01,16.16 23.01,19.67 C23.01,22.55 24.54,26.24 27.42,30.56 C30.93,34.88 36.42,41.81 43.62,51.35 C45.69,51.35 48.66,51.35 52.35,51.26 C53.07,51.26 53.34,51.35 53.34,51.62 C53.34,51.98 52.26,52.07 50.1,52.16 C46.95,52.25 45.24,52.34 44.61,52.43 C46.32,55.31 47.13,58.19 47.13,61.07 C47.13,67.1 43.89,71.42 37.5,74.12 C32.01,76.37 26.16,77.63 19.95,77.63 C15.36,77.63 11.31,77 8.07,75.83 C3.12,74.12 0.69,71.33 0.69,67.55 C0.69,64.04 3.3,61.16 8.61,58.82 Z M41.28,52.79 C35.43,53.51 30.75,54.32 27.42,55.04 C20.4,56.48 14.55,58.37 9.87,60.8 C4.83,63.32 2.22,66.02 2.22,68.72 C2.22,70.07 3.03,71.33 4.56,72.68 C5.73,73.67 6.99,74.3 8.25,74.66 C11.76,75.56 15.18,75.92 18.87,75.92 C25.17,75.92 31.02,74.48 36.33,71.87 C41.64,69.17 44.34,65.48 44.34,60.98 C44.34,58.1 43.35,55.31 41.28,52.79 Z M91.77,50.45 C90.69,51.89 87.72,54.5 84.3,55.04 C80.34,55.67 67.2,55.58 60.09,55.58 C57.39,59.63 53.79,65.48 53.43,71.69 C53.16,77.54 56.31,78.89 59.37,78.53 C63.24,78.08 68.19,75.83 71.34,73.76 C72.33,73.04 73.05,73.76 72.06,74.39 C69.45,76.55 64.5,79.88 60.18,80.69 C56.58,81.32 51.09,76.91 51.27,71.69 C51.9,57.38 66.12,41.54 74.31,38.12 C78.81,36.23 81.42,42.89 79.53,46.67 C77.64,50.27 72.78,53.06 66.93,54.05 C73.41,54.05 80.52,54.05 84.3,53.51 C86.91,53.15 89.79,51.44 91.05,50.09 C91.68,49.19 92.31,49.55 91.77,50.45 Z M77.37,45.86 C79.98,41.63 77.55,39.29 74.13,41.45 C69.63,44.24 65.04,49.19 61.08,54.05 C67.29,54.05 74.58,50.54 77.37,45.86 Z M120.57,51.98 C119.4,53.24 116.43,55.67 113.1,56.12 C109.05,56.75 95.64,56.75 88.44,56.75 C85.74,60.35 82.05,65.75 81.69,71.42 C81.42,76.73 84.66,77.99 87.72,77.63 C91.68,77.18 96.63,75.2 99.87,73.31 C100.86,72.77 101.58,73.22 100.59,73.94 C98.07,75.74 92.94,78.8 88.53,79.61 C84.93,80.24 79.35,76.1 79.53,71.42 C80.16,58.28 94.47,43.7 102.84,40.55 C107.34,38.84 110.22,45.05 108.24,48.56 C106.35,51.89 101.31,54.32 95.37,55.22 C101.94,55.22 109.23,55.22 113.1,54.77 C115.62,54.5 118.5,52.88 119.94,51.62 C120.48,50.81 121.2,51.17 120.57,51.98 Z M106.08,47.75 C108.6,43.88 106.26,41.81 102.66,43.79 C98.25,46.31 93.48,50.81 89.43,55.22 C95.73,55.22 103.2,52.07 106.08,47.75 Z" id="path-2"></path>
    </defs>
    <g id="Page-1" stroke="none" stroke-width="1" fill="none" fill-rule="evenodd" opacity="0.25">
        <g id="detal-see-eng">
            <g id="See">
                <use fill="#13884E" xlink:href="#path-2"></use>
                <use fill="url(#linearGradient-1)" xlink:href="#path-2"></use>
            </g>
        </g>
    </g>
</svg>