<?xml version="1.0" encoding="UTF-8" standalone="no"?>
<svg width="237px" height="113px" viewBox="0 0 237 113" version="1.1" xmlns="http://www.w3.org/2000/svg" xmlns:xlink="http://www.w3.org/1999/xlink">
    <!-- Generator: Sketch 50.2 (55047) - http://www.bohemiancoding.com/sketch -->
    <title>detal-feel-eng</title>
    <desc>Created with Sketch.</desc>
    <defs>
        <linearGradient x1="63.1277323%" y1="100%" x2="63.1277323%" y2="0%" id="linearGradient-1">
            <stop stop-color="#0C532D" offset="0%"></stop>
            <stop stop-color="#7C9F86" offset="100%"></stop>
        </linearGradient>
        <path d="M96.03,39.86 C94.5,38.6 95.76,38.6 96.84,39.23 C103.41,43.01 103.77,53.36 94.14,54.44 C71.82,57.05 47.07,35.45 17.55,40.13 C-3.51,43.37 -1.89,80.45 15.03,91.25 C23.58,96.74 36.63,92.6 39.78,82.07 C39.87,81.71 41.31,81.35 41.31,82.07 C39.78,92.96 23.67,98.45 16.2,93.86 C1.08,84.59 -3.51,63.62 2.79,49.04 C11.43,28.7 41.67,36.62 61.29,44.36 C87.39,54.71 104.67,55.07 99.36,44 C98.55,42.2 97.38,41.12 96.03,39.86 Z M69.3,51.65 C70.74,50.39 72.36,53 70.74,54.71 C69.12,56.87 61.65,65.78 57.87,74.78 C57.42,76.04 57.42,76.13 58.86,76.31 C65.25,77.39 76.05,76.85 79.47,76.85 C81.45,76.85 81.27,77.48 79.38,77.84 C75.96,78.92 62.46,78.74 57.51,78.92 C56.16,79.01 55.62,79.46 55.17,80.9 C52.2,89 48.24,100.25 48.69,107.36 C48.78,108.89 49.95,107.99 49.68,109.79 C48.87,112.58 46.8,113.57 46.53,110.78 C45.9,105.83 49.05,89.99 52.47,80.9 C52.92,79.46 51.57,79.01 50.4,79.01 C48.87,78.92 47.61,80.18 47.88,79.1 C48.24,77.66 49.59,77.03 52.56,76.31 C54,75.95 54.45,75.86 55.35,74.06 C57.33,69.92 60.12,64.61 63.27,59.84 C64.44,57.95 62.91,58.4 61.11,59.21 C59.22,60.11 59.58,58.4 60.57,58.22 C63.9,56.6 67.5,53.27 69.3,51.65 Z M109.17,80.45 C108.09,81.89 105.12,84.5 101.7,85.04 C97.74,85.67 84.6,85.58 77.49,85.58 C74.79,89.63 71.19,95.48 70.83,101.69 C70.56,107.54 73.71,108.89 76.77,108.53 C80.64,108.08 85.59,105.83 88.74,103.76 C89.73,103.04 90.45,103.76 89.46,104.39 C86.85,106.55 81.9,109.88 77.58,110.69 C73.98,111.32 68.49,106.91 68.67,101.69 C69.3,87.38 83.52,71.54 91.71,68.12 C96.21,66.23 98.82,72.89 96.93,76.67 C95.04,80.27 90.18,83.06 84.33,84.05 C90.81,84.05 97.92,84.05 101.7,83.51 C104.31,83.15 107.19,81.44 108.45,80.09 C109.08,79.19 109.71,79.55 109.17,80.45 Z M94.77,75.86 C97.38,71.63 94.95,69.29 91.53,71.45 C87.03,74.24 82.44,79.19 78.48,84.05 C84.69,84.05 91.98,80.54 94.77,75.86 Z M137.97,81.98 C136.8,83.24 133.83,85.67 130.5,86.12 C126.45,86.75 113.04,86.75 105.84,86.75 C103.14,90.35 99.45,95.75 99.09,101.42 C98.82,106.73 102.06,107.99 105.12,107.63 C109.08,107.18 114.03,105.2 117.27,103.31 C118.26,102.77 118.98,103.22 117.99,103.94 C115.47,105.74 110.34,108.8 105.93,109.61 C102.33,110.24 96.75,106.1 96.93,101.42 C97.56,88.28 111.87,73.7 120.24,70.55 C124.74,68.84 127.62,75.05 125.64,78.56 C123.75,81.89 118.71,84.32 112.77,85.22 C119.34,85.22 126.63,85.22 130.5,84.77 C133.02,84.5 135.9,82.88 137.34,81.62 C137.88,80.81 138.6,81.17 137.97,81.98 Z M123.48,77.75 C126,73.88 123.66,71.81 120.06,73.79 C115.65,76.31 110.88,80.81 106.83,85.22 C113.13,85.22 120.6,82.07 123.48,77.75 Z M128.61,98.99 C128.34,92.78 130.23,85.85 133.2,78.92 L133.2,78.65 C155.43,28.25 179.19,2.24 204.66,0.71 C213.39,0.17 221.13,2.87 227.7,8.54 C234.45,14.21 237.6,20.6 236.88,27.8 C236.7,30.05 235.98,32.3 234.9,34.46 C229.23,45.26 213.93,55.34 188.91,64.88 C171.81,71.36 154.17,76.4 135.99,79.82 C134.01,85.4 132.48,92.15 132.3,97.01 C132.03,108.26 139.77,106.19 145.53,102.05 C147.78,100.43 147.15,102.05 146.25,102.86 C137.88,110.33 128.97,110.15 128.61,98.99 Z M233.01,32.03 C233.91,30.14 234.36,28.25 234.54,26.27 C235.26,19.97 232.47,14.3 226.53,9.44 C220.5,4.4 213.21,1.97 204.66,2.33 C190.26,2.87 175.5,13.94 160.47,34.91 C151.47,47.51 143.73,61.37 137.16,76.67 L137.25,76.67 C136.98,77.3 136.8,77.84 136.44,78.47 C158.31,73.97 177.84,68.03 194.94,60.56 C215.46,51.56 228.15,42.02 233.01,32.03 Z" id="path-2"></path>
    </defs>
    <g id="Page-1" stroke="none" stroke-width="1" fill="none" fill-rule="evenodd" opacity="0.25">
        <g id="detal-feel-eng">
            <g id="Feel">
                <use fill="#13884E" xlink:href="#path-2"></use>
                <use fill="url(#linearGradient-1)" xlink:href="#path-2"></use>
            </g>
        </g>
    </g>
</svg>