<?xml version="1.0" encoding="UTF-8" standalone="no"?>
<svg width="237px" height="183px" viewBox="0 0 237 183" version="1.1" xmlns="http://www.w3.org/2000/svg" xmlns:xlink="http://www.w3.org/1999/xlink">
    <!-- Generator: Sketch 50.2 (55047) - http://www.bohemiancoding.com/sketch -->
    <title>detal-zobacz</title>
    <desc>Created with Sketch.</desc>
    <defs>
        <linearGradient x1="63.1277323%" y1="100%" x2="63.1277323%" y2="0%" id="linearGradient-1">
            <stop stop-color="#0C532D" offset="0%"></stop>
            <stop stop-color="#7C9F86" offset="100%"></stop>
        </linearGradient>
        <path d="M30.96,67.33 C31.23,67.87 31.5,68.41 31.5,68.68 C31.5,68.86 31.32,69.04 31.23,69.04 C30.96,69.04 30.6,68.59 29.97,67.78 C28.98,66.43 27.99,64.36 27.18,61.66 C26.19,58.6 25.83,56.08 25.83,53.74 C25.83,51.58 26.1,49.87 27.99,49.15 C28.17,48.97 28.8,48.34 29.7,47.17 C30.6,45.73 31.59,45.01 32.67,44.56 C35.55,43.48 39.42,42.85 44.28,42.85 C51.03,42.85 61.74,44.29 76.5,47.26 C76.77,47.26 79.29,45.55 80.46,45.55 C81.54,45.55 82.08,46.72 82.08,48.88 C82.08,49.78 81.81,50.41 81.36,50.77 C81,50.95 79.83,50.86 77.85,50.5 C71.28,56.26 64.98,63.46 59.31,72.1 L62.46,72.1 C63.54,72.1 64.35,72.19 64.71,72.19 C65.52,72.19 65.88,72.28 65.88,72.55 C65.88,73.09 65.25,73.36 63.81,73.36 C63.54,73.36 61.56,73.54 57.96,73.99 C48.6,86.23 41.04,94.51 35.64,99.01 C43.38,104.14 51.93,109.45 61.56,114.94 C77.4,123.94 89.55,129.43 97.74,131.05 C99.36,131.32 100.89,131.59 102.24,131.59 C111.42,131.59 116.19,125.47 116.28,113.05 C116.28,112.15 116.46,111.7 116.91,111.7 C117.27,111.7 117.45,112.06 117.54,112.87 C117.99,118.18 117.81,122.59 116.19,125.47 C112.59,131.68 109.17,131.95 108,132.58 C105.21,133.93 101.52,133.57 97.47,132.67 C89.37,130.87 77.76,126.01 63,118.18 C57.69,115.3 47.7,109.72 33.03,101.08 C29.7,103.24 27.18,104.86 25.47,105.67 C22.41,107.2 19.26,108.1 16.02,108.82 C15.12,109 13.95,109.09 12.51,109.09 C4.86,109.09 0.54,105.85 0.09,99.28 C-0.09,97.12 0.45,94.51 1.53,91.99 C2.61,89.56 3.6,88.03 4.86,87.49 C4.86,85.06 5.58,84.07 9.09,84.07 C10.98,84.07 15.39,86.05 22.23,90.19 C26.37,92.71 30.33,95.23 34.56,97.75 C36.63,96.4 39.78,93.34 44.01,88.3 C47.61,84.07 50.67,80.11 53.37,76.24 C52.47,75.43 52.02,74.53 52.02,73.36 C52.02,72.82 52.2,72.46 52.56,72.28 C53.46,72.19 54.72,72.01 56.52,71.65 C58.05,69.31 61.02,65.62 65.34,60.49 C70.47,54.28 73.71,50.68 75.24,49.69 C72.81,48.97 68.67,48.25 63,47.26 C55.08,45.91 48.24,45.1 42.75,45.1 C39.15,45.1 36.27,45.37 34.02,45.91 C30.69,46.72 28.71,48.88 28.26,52.3 C28.08,53.29 28.08,54.19 28.08,55.27 C28.08,60.13 29.07,64.18 30.96,67.33 Z M15.75,107.56 C21.15,106.48 26.46,104.14 31.59,100.09 C28.8,98.02 25.2,95.68 20.7,93.07 C14.85,89.56 10.8,87.94 8.46,87.94 C8.1,87.94 7.83,88.03 7.47,88.12 C3.87,89.83 2.07,93.52 1.98,99.37 C1.89,102.25 3.06,104.41 5.58,105.94 C7.47,107.02 9.99,107.74 12.87,107.74 C13.95,107.74 14.85,107.65 15.75,107.56 Z M56.07,110.53 C54.36,110.8 52.02,109.18 52.02,107.29 C52.11,102.43 56.07,95.05 64.08,85.24 C64.26,84.88 64.17,84.52 63.9,84.43 C62.82,83.8 61.47,82.99 61.47,82.27 C61.47,81.91 61.29,81.1 64.08,81.01 C66.33,80.92 67.41,80.83 67.5,80.92 C67.68,80.92 68.04,80.83 68.49,80.56 C69.84,79.3 71.1,78.67 72.45,78.58 C73.44,78.49 74.79,79.21 76.5,80.2 C76.68,80.29 76.86,80.47 77.13,80.56 C79.83,80.65 83.79,80.74 88.83,80.92 C89.73,80.92 90.18,81.1 90.18,81.28 C90.18,81.55 89.73,81.82 88.83,81.82 C86.94,81.82 85.77,82.18 85.23,82.9 C85.14,83.08 85.14,83.26 85.23,83.44 C85.32,83.8 85.5,84.16 85.5,84.43 C85.14,88.93 81.63,94.15 74.52,100.27 C67.5,106.3 61.38,109.81 56.07,110.53 Z M54.81,105.76 C54.45,106.39 54.27,107.11 54.27,107.74 C54.27,109.18 55.26,109.72 57.15,109.36 C61.2,108.73 66.06,105.85 71.82,100.54 C77.85,95.14 81.27,90.28 82.17,85.96 C82.62,84.07 81.36,83.08 78.75,82.81 C75.87,82.45 73.35,82.81 71.19,83.62 C71.01,83.53 70.47,83.89 69.66,84.43 C63.27,90.37 58.32,97.48 54.81,105.76 Z M95.0140142,79.5718466 C95.0286515,79.5439176 95.04,79.5119588 95.04,79.48 C95.0286506,79.5140482 95.0173012,79.5466653 95.0059518,79.5780316 L95.0140142,79.5718466 Z M95.0140142,79.5718466 C94.9874309,79.6225691 94.95,79.66 94.95,79.66 C95.04,79.48 95.13,79.3 95.22,79.21 C95.2503406,79.1290918 95.2806811,79.0515931 95.31,78.9791641 L95.31,78.4 C117.63,28 141.39,1.99 166.86,0.46 C175.5,-0.08 183.24,2.62 189.9,8.29 C196.65,13.96 199.71,20.35 198.99,27.55 C198.81,29.8 198.09,32.05 197.01,34.21 C191.34,45.01 176.04,55.18 151.11,64.63 C133.92,71.2 116.19,76.15 98.01,79.57 C96.3,82.63 94.41,87.49 91.89,94.24 C91.08,96.31 90.45,98.02 90,99.46 C92.07,97.57 96.03,94.96 101.88,91.09 C108.99,86.41 114.39,83.26 117.9,81.82 C118.44,81.55 119.07,81.46 119.7,81.46 C121.86,81.46 122.76,82.54 122.67,84.79 C122.49,85.6 122.04,86.5 121.59,87.49 C118.08,93.34 112.77,98.38 105.39,102.79 C98.01,107.2 91.17,109.36 85.05,109.27 C84.87,109.27 84.69,109.18 84.51,109.09 C83.61,108.82 82.8,107.83 82.8,106.93 C83.07,106.3 83.43,105.67 84.06,104.77 C86.4,99.28 89.82,91.27 94.23,81.01 C94.32,81.01 94.41,80.92 94.5,80.56 C94.5,80.47 94.41,80.38 94.5,80.29 C94.5,80.2 94.68,80.11 94.68,80.02 L94.77,79.93 L94.77,80.11 C94.8486506,79.9526988 94.9273012,79.7953977 95.0059518,79.5780316 L95.0140142,79.5718466 Z M195.12,31.78 C196.02,29.89 196.38,28 196.74,26.02 C197.28,19.72 194.67,14.05 188.73,9.19 C182.61,4.15 175.32,1.72 166.86,2.08 C152.37,2.62 137.61,13.69 122.58,34.66 C113.31,47.71 105.21,62.2 98.55,78.22 C120.42,73.72 139.95,67.87 157.14,60.31 C177.57,51.4 190.26,41.77 195.12,31.78 Z M91.35,99.82 C89.91,100.99 88.92,102.7 88.47,104.77 C88.47,104.86 88.56,104.86 88.56,104.95 C88.47,105.04 88.47,105.22 88.38,105.31 L88.47,105.67 C88.29,106.39 88.38,106.93 88.92,107.02 C89.46,107.2 90.81,107.11 93.06,106.66 C97.65,105.67 102.06,103.51 106.74,100.09 C111.6,96.58 114.84,92.89 116.46,89.11 L116.82,87.67 C116.91,85.87 116.37,84.88 114.84,84.88 C113.58,84.88 109.62,87.04 103.14,91.36 C97.92,94.87 94.05,97.75 91.35,99.82 Z M123.84,107.83 C123.12,108.28 122.49,108.55 121.77,108.55 C120.24,108.55 119.52,107.56 119.52,105.4 C119.52,101.17 122.85,95.68 129.51,89.02 C135.63,82.99 141.03,79.12 145.71,77.32 C146.79,76.87 148.05,76.6 149.4,76.6 C150.84,76.6 152.28,76.96 153.72,77.41 C154.62,77.5 155.16,77.59 155.43,77.5 C156.42,77.32 157.23,76.96 157.77,76.33 C157.86,76.24 158.13,76.15 158.31,76.15 C158.76,76.15 159.21,76.96 159.12,77.23 C155.7,82.54 152.19,87.85 148.95,93.16 C143.91,101.62 139.05,116.11 137.97,123.04 C137.88,123.67 137.88,124.21 137.88,124.75 C137.88,128.8 140.58,130.78 144.9,130.78 C146.97,130.78 149.22,130.42 151.29,129.7 C154.53,128.62 158.67,126.01 163.71,121.96 C168.57,118 172.53,113.59 175.41,109.9 C175.95,109.27 176.22,109 176.49,109 C176.58,109.09 176.58,109.18 176.58,109.27 C176.58,109.54 176.49,109.81 176.22,110.26 C173.52,114.31 169.56,119.08 164.25,123.58 C159.3,127.63 155.25,130.33 151.92,131.5 C150.3,132.04 148.59,132.4 146.7,132.4 C143.82,132.4 141.39,131.23 139.5,130.06 C137.25,128.62 136.44,126.1 136.53,123.04 C136.71,118 140.67,105.13 143.91,98.02 C145.89,93.7 147.87,89.92 149.94,86.86 C150.39,86.14 150.39,85.87 149.85,85.87 C149.76,85.87 149.67,85.96 149.58,86.05 C146.7,89.47 142.65,93.34 137.43,97.84 C132.21,102.25 127.71,105.58 123.84,107.83 Z M125.28,100.18 C125.01,100.9 124.92,101.62 124.92,102.25 C124.92,103.78 125.46,104.41 126.54,104.41 C126.9,104.41 127.44,104.23 127.89,103.96 C134.55,99.73 142.02,92.53 150.48,82.45 C150.66,82.27 150.75,82.09 150.75,81.82 C150.75,80.47 149.04,79.12 146.61,79.12 C145.89,79.12 145.26,79.21 144.54,79.39 C141.66,80.11 138.06,82.9 133.83,87.58 C129.78,92.08 126.99,96.31 125.28,100.18 Z M184.32,80.74 C182.97,82.63 179.82,82.63 182.16,79.93 C185.13,76.42 182.34,73.99 178.74,75.97 C174.33,78.49 169.65,82.99 165.6,87.49 L164.52,88.93 C161.82,92.62 158.13,97.93 157.77,103.6 C157.41,108.91 160.74,110.08 163.8,109.81 C167.76,109.36 172.71,107.38 176.04,105.49 C177.03,104.86 177.66,105.4 176.67,106.12 C174.15,107.92 169.11,110.98 164.61,111.79 C161.1,112.42 155.34,108.37 155.61,103.6 C156.24,90.55 170.46,75.88 179.01,73.27 C183.6,71.83 187.83,75.79 184.32,80.74 Z M193.5,98.38 C195.21,99.46 195.66,99.73 196.47,100.81 C197.01,101.53 197.01,102.25 197.1,102.7 C206.1,101.08 215.46,100.63 223.38,100.63 C226.35,100.63 228.6,100.81 230.22,101.08 C232.83,101.62 236.07,104.68 236.07,107.74 C236.07,108.46 235.8,109.09 235.53,109.72 C234.72,111.25 232.74,113.23 229.68,115.66 C229.14,116.2 228.69,116.38 228.42,116.38 C228.33,116.38 228.24,116.38 228.24,116.29 C228.24,115.93 228.51,115.57 229.14,115.03 C232.65,111.79 234.45,108.82 234.45,106.12 C234.45,104.05 233.01,102.88 230.04,102.61 C228.33,102.52 226.17,102.43 223.38,102.43 C212.58,102.43 203.67,103.06 196.74,104.59 C179.01,155.08 157.59,181.18 132.39,182.71 C123.75,183.25 115.83,180.64 108.63,174.88 C101.43,169.21 97.74,162.82 97.74,155.62 C97.74,153.37 98.19,151.12 99.09,148.96 C103.77,138.16 118.08,128.17 142.29,118.54 C158.49,112.15 175.77,108.46 193.14,103.69 L194.13,103.42 C193.5,101.53 191.16,100.99 189.45,101.35 C188.82,101.62 188.19,100.54 189.09,99.55 C191.52,97.12 197.73,87.04 198.81,82.18 C199.44,79.48 198.36,78.13 197.19,78.31 C194.85,79.12 190.89,84.07 188.82,86.86 C187.83,88.21 187.83,86.59 188.37,85.69 C189.99,83.35 195.39,75.97 198.81,75.25 C200.52,74.89 202.5,78.22 202.23,80.74 C201.69,85.96 195.21,94.06 193.23,97.03 C192.87,97.3 192.78,98.47 193.5,98.38 Z M101.25,151.39 C100.53,153.28 100.17,155.17 100.17,157.15 C100.17,163.45 103.41,169.12 109.71,173.98 C116.28,179.02 123.75,181.36 132.21,181.09 C146.7,180.55 160.38,169.66 173.52,148.51 C181.53,135.55 188.28,120.97 193.59,104.95 C172.08,109.45 153.09,115.39 136.62,122.86 C117,131.86 105.12,141.4 101.25,151.39 Z" id="path-2"></path>
    </defs>
    <g id="Page-1" stroke="none" stroke-width="1" fill="none" fill-rule="evenodd" opacity="0.25">
        <g id="detal-zobacz">
            <g id="Zobacz">
                <use fill="#13884E" xlink:href="#path-2"></use>
                <use fill="url(#linearGradient-1)" xlink:href="#path-2"></use>
            </g>
        </g>
    </g>
</svg>