<?xml version="1.0" encoding="UTF-8" standalone="no"?>
<svg width="238px" height="160px" viewBox="0 0 238 160" version="1.1" xmlns="http://www.w3.org/2000/svg" xmlns:xlink="http://www.w3.org/1999/xlink">
    <!-- Generator: Sketch 50.2 (55047) - http://www.bohemiancoding.com/sketch -->
    <title>detal-poczuj</title>
    <desc>Created with Sketch.</desc>
    <defs>
        <linearGradient x1="63.1277323%" y1="100%" x2="63.1277323%" y2="0%" id="linearGradient-1">
            <stop stop-color="#0C532D" offset="0%"></stop>
            <stop stop-color="#7C9F86" offset="100%"></stop>
        </linearGradient>
        <path d="M44.37,54.97 C44.64,55.78 45.27,56.23 46.26,56.5 C48.24,57.49 50.94,57.94 54.27,57.94 C60.57,57.94 65.88,56.68 69.93,54.52 C74.7,52.09 77.04,48.13 77.04,42.73 C77.04,36.07 73.89,29.59 67.59,23.56 C60.84,17.26 53.19,11.95 44.82,8.08 C35.64,3.94 27,1.87 18.36,1.87 C8.91,1.87 3.6,5.38 2.43,12.13 C2.25,13.3 2.16,14.38 2.16,15.64 C2.16,21.94 3.51,27.16 6.21,31.21 C6.48,31.66 6.66,32.11 6.66,32.29 C6.57,32.38 6.57,32.47 6.48,32.47 C6.3,32.47 5.94,32.29 5.58,31.75 C3.78,30.31 2.43,27.61 1.35,24.19 C0.45,21.22 0,18.16 0,15.1 C0,13.93 0.09,13.03 0.27,12.13 C0.72,8.89 2.88,6.01 6.57,3.76 C10.71,1.24 15.75,0.16 21.51,0.43 C31.14,0.97 40.59,3.4 50.04,8.08 C57.24,11.59 63.54,16 69.3,21.13 C76.86,27.88 80.82,34.81 80.82,42.1 C80.82,48.58 77.4,53.26 70.29,56.14 C65.52,58.03 59.76,59.11 53.01,59.11 C47.61,59.11 42.48,58.12 42.48,56.68 C42.48,56.23 43.11,55.6 44.37,54.97 Z M11.43,82.6 C9.63,81.7 8.28,80.53 7.2,78.91 C6.84,78.37 6.66,77.83 6.66,77.56 C6.66,77.2 6.75,77.02 7.11,77.02 C7.47,77.02 7.74,77.29 8.28,77.83 C9.27,79.09 10.62,80.08 12.42,80.8 C13.86,81.34 15.66,81.16 18.09,80.53 C22.23,79 28.44,71.17 36.63,56.95 C44.1,43.99 49.41,32.74 52.56,23.29 C52.74,23.11 52.74,22.93 52.83,22.93 C53.01,22.93 53.19,23.47 53.28,24.55 C53.37,25.63 53.37,26.44 53.19,26.89 C49.77,36.52 45.81,45.7 41.4,54.34 C33.93,68.92 27,77.83 20.34,81.52 C18.54,82.51 16.38,83.05 14.13,83.05 C13.14,83.05 12.15,82.87 11.43,82.6 Z M77.58,80.53 C75.87,80.8 73.53,79.18 73.53,77.29 C73.62,72.43 77.58,65.05 85.59,55.24 C85.77,54.88 85.68,54.52 85.41,54.43 C84.33,53.8 82.98,52.99 82.98,52.27 C82.98,51.91 82.8,51.1 85.59,51.01 C87.84,50.92 88.92,50.83 89.01,50.92 C89.19,50.92 89.55,50.83 90,50.56 C91.35,49.3 92.61,48.67 93.96,48.58 C94.95,48.49 96.3,49.21 98.01,50.2 C98.19,50.29 98.37,50.47 98.64,50.56 C101.34,50.65 105.3,50.74 110.34,50.92 C111.24,50.92 111.69,51.1 111.69,51.28 C111.69,51.55 111.24,51.82 110.34,51.82 C108.45,51.82 107.28,52.18 106.74,52.9 C106.65,53.08 106.65,53.26 106.74,53.44 C106.83,53.8 107.01,54.16 107.01,54.43 C106.65,58.93 103.14,64.15 96.03,70.27 C89.01,76.3 82.89,79.81 77.58,80.53 Z M76.32,75.76 C75.96,76.39 75.78,77.11 75.78,77.74 C75.78,79.18 76.77,79.72 78.66,79.36 C82.71,78.73 87.57,75.85 93.33,70.54 C99.36,65.14 102.78,60.28 103.68,55.96 C104.13,54.07 102.87,53.08 100.26,52.81 C97.38,52.45 94.86,52.81 92.7,53.62 C92.52,53.53 91.98,53.89 91.17,54.43 C84.78,60.37 79.83,67.48 76.32,75.76 Z M136.08,50.74 C134.73,52.63 131.58,52.63 133.92,49.93 C136.89,46.42 134.1,43.99 130.5,45.97 C126.09,48.49 121.41,52.99 117.36,57.49 L116.28,58.93 C113.58,62.62 109.89,67.93 109.53,73.6 C109.17,78.91 112.5,80.08 115.56,79.81 C119.52,79.36 124.47,77.38 127.8,75.49 C128.79,74.86 129.42,75.4 128.43,76.12 C125.91,77.92 120.87,80.98 116.37,81.79 C112.86,82.42 107.1,78.37 107.37,73.6 C108,60.55 122.22,45.88 130.77,43.27 C135.36,41.83 139.59,45.79 136.08,50.74 Z M145.26,68.38 C146.97,69.46 147.42,69.73 148.23,70.81 C148.77,71.53 148.77,72.25 148.86,72.7 C157.86,71.08 167.22,70.63 175.14,70.63 C178.11,70.63 180.36,70.81 181.98,71.08 C184.59,71.62 187.83,74.68 187.83,77.74 C187.83,78.46 187.56,79.09 187.29,79.72 C186.48,81.25 184.5,83.23 181.44,85.66 C180.9,86.2 180.45,86.38 180.18,86.38 C180.09,86.38 180,86.38 180,86.29 C180,85.93 180.27,85.57 180.9,85.03 C184.41,81.79 186.21,78.82 186.21,76.12 C186.21,74.05 184.77,72.88 181.8,72.61 C180.09,72.52 177.93,72.43 175.14,72.43 C164.34,72.43 155.43,73.06 148.5,74.59 C130.77,125.08 109.35,151.18 84.15,152.71 C75.51,153.25 67.59,150.64 60.39,144.88 C53.19,139.21 49.5,132.82 49.5,125.62 C49.5,123.37 49.95,121.12 50.85,118.96 C55.53,108.16 69.84,98.17 94.05,88.54 C110.25,82.15 127.53,78.46 144.9,73.69 L145.89,73.42 C145.26,71.53 142.92,70.99 141.21,71.35 C140.58,71.62 139.95,70.54 140.85,69.55 C143.28,67.12 149.49,57.04 150.57,52.18 C151.2,49.48 150.12,48.13 148.95,48.31 C146.61,49.12 142.65,54.07 140.58,56.86 C139.59,58.21 139.59,56.59 140.13,55.69 C141.75,53.35 147.15,45.97 150.57,45.25 C152.28,44.89 154.26,48.22 153.99,50.74 C153.45,55.96 146.97,64.06 144.99,67.03 C144.63,67.3 144.54,68.47 145.26,68.38 Z M53.01,121.39 C52.29,123.28 51.93,125.17 51.93,127.15 C51.93,133.45 55.17,139.12 61.47,143.98 C68.04,149.02 75.51,151.36 83.97,151.09 C98.46,150.55 112.14,139.66 125.28,118.51 C133.29,105.55 140.04,90.97 145.35,74.95 C123.84,79.45 104.85,85.39 88.38,92.86 C68.76,101.86 56.88,111.4 53.01,121.39 Z M194.22,52.27 C190.89,57.31 185.49,67.57 184.68,72.43 C183.96,76.75 186.03,76.03 187.74,75.58 C188.55,75.31 196.11,70.09 196.83,69.64 C198.72,68.38 198.9,69.73 197.46,71.17 C196.2,72.43 188.19,78.01 186.66,78.55 C185.13,79 182.16,76.39 182.16,74.05 C182.16,69.37 184.68,63.97 186.39,59.92 C187.11,58.12 186.39,56.32 184.23,58.48 C178.38,64.24 164.43,77.74 160.65,79 C157.41,80.08 155.16,77.38 155.34,74.41 C155.97,65.95 167.31,49.93 171.81,44.62 C173.07,43.18 176.49,43.45 174.24,46.24 C168.84,52.99 161.28,64.78 159.48,71.17 C158.04,76.03 159.93,77.38 162.9,75.67 C172.35,70 184.32,55.24 191.61,48.85 C193.86,46.78 195.03,51.1 194.22,52.27 Z M195.3,79.9 C197.91,73.96 203.31,55.33 202.5,54.52 C202.68,53.17 204.75,51.64 205.83,51.28 C207.18,50.92 208.08,51.46 207.99,52.54 C207.9,53.26 207.54,53.98 207,54.7 C205.38,58.93 201.51,71.62 198.72,79.36 C209.88,77.38 225.63,76.21 231.57,77.38 C234.63,78.01 238.95,82.42 236.97,86.11 C235.44,88.9 233.55,90.07 231.12,92.05 C229.5,93.31 229.14,92.77 230.49,91.42 C232.83,89.26 234.81,86.38 235.53,84.13 C236.52,80.89 234.54,79.18 231.39,78.91 C225.18,78.28 207.9,78.82 198.09,80.98 C188.55,108.34 168.03,156.85 133.65,159.1 C113.76,160.36 93.51,141.46 100.44,125.35 C111.06,100.6 173.07,84.22 195.3,79.9 Z M102.6,127.78 C97.02,141.82 113.58,158.29 133.47,157.48 C167.4,156.13 189.72,97.36 194.94,81.34 C157.32,89.08 111.15,106 102.6,127.78 Z M212.13,40.57 C211.95,41.56 211.14,42.73 209.7,44.08 C208.26,45.34 207.18,45.97 206.28,45.7 C205.02,45.43 204.39,44.98 204.39,44.17 C204.39,43.36 205.02,42.28 206.46,40.84 C207.81,39.4 208.89,38.59 209.79,38.41 C210.96,38.14 212.58,39.49 212.13,40.57 Z" id="path-2"></path>
    </defs>
    <g id="Page-1" stroke="none" stroke-width="1" fill="none" fill-rule="evenodd" opacity="0.25">
        <g id="detal-poczuj">
            <g id="Poczuj">
                <use fill="#13884E" xlink:href="#path-2"></use>
                <use fill="url(#linearGradient-1)" xlink:href="#path-2"></use>
            </g>
        </g>
    </g>
</svg>