<?xml version="1.0" encoding="UTF-8" standalone="no"?>
<svg width="272px" height="132px" viewBox="0 0 272 132" version="1.1" xmlns="http://www.w3.org/2000/svg" xmlns:xlink="http://www.w3.org/1999/xlink">
    <!-- Generator: Sketch 50.2 (55047) - http://www.bohemiancoding.com/sketch -->
    <title>detal-garden-eng</title>
    <desc>Created with Sketch.</desc>
    <defs>
        <linearGradient x1="63.1277323%" y1="100%" x2="63.1277323%" y2="0%" id="linearGradient-1">
            <stop stop-color="#0C532D" offset="0%"></stop>
            <stop stop-color="#7C9F86" offset="100%"></stop>
        </linearGradient>
        <path d="M19.08,112.19 C22.68,108.23 29.43,104.9 39.24,102.11 C42.84,101.12 50.76,99.32 63.09,97.07 C65.16,92.3 68.13,86 72,77.9 C72.36,77.09 72.45,76.64 72.45,76.55 C72.45,76.37 72.45,76.37 72.36,76.37 C72.27,76.37 71.91,76.64 71.28,77.09 C63.81,82.49 55.44,87.53 45.9,92.12 C34.29,97.61 24.75,100.22 17.28,100.4 C12.24,100.49 8.19,99.41 5.04,97.25 C1.71,94.91 0,91.4 0,86.99 C0,84.83 0.36,82.4 1.17,79.97 C5.04,68.09 15.48,57.47 32.49,47.93 C48.96,38.75 64.53,34.61 79.11,35.51 C82.8,35.69 86.13,37.04 89.01,39.65 C91.62,41.99 93.51,44.96 94.59,48.56 C94.77,48.83 94.86,49.19 94.86,49.46 C94.86,49.82 94.77,49.91 94.41,49.82 C94.14,49.73 93.96,49.55 93.78,49.1 C92.88,46.85 91.62,45.14 90.27,43.7 C87.57,40.91 83.97,39.38 79.38,38.93 C78.12,38.84 76.68,38.84 75.42,38.84 C61.47,38.84 46.8,43.16 31.59,51.8 C16.02,60.62 6.57,70.16 3.15,80.42 C2.25,83.21 1.8,85.64 1.8,87.8 C1.8,94.55 6.84,98.24 16.92,98.33 C25.02,98.42 36,95.18 49.86,88.25 C61.47,82.49 69.48,77.45 73.71,73.4 C73.89,73.31 73.98,73.13 74.16,72.86 C76.59,67.19 78.48,63.5 79.92,61.61 C80.91,60.8 82.26,59.63 84.15,57.92 C84.33,57.74 84.51,57.65 84.6,57.65 C84.96,57.65 85.23,58.1 85.32,58.82 C85.41,59.63 85.41,60.26 85.23,60.89 C84.15,65.12 82.8,68.09 81.18,69.8 C80.91,69.98 80.19,70.16 79.2,70.52 C78.39,71.96 75.42,77.81 70.2,88.16 C71.28,89.24 72.09,90.95 72.72,93.02 C72.09,94.01 71.1,95.18 70.02,96.44 C69.66,96.62 68.22,97.07 65.43,97.88 C57.24,112.55 50.4,121.55 45,125.15 C38.88,129.2 33.84,131.36 29.79,131.45 C25.29,131.54 21.78,130.55 19.17,128.39 C16.83,126.41 15.66,123.8 15.66,120.65 C15.66,117.59 16.83,114.71 19.08,112.19 Z M62.28,98.42 L54.27,100.22 C47.43,101.75 41.58,103.37 36.54,105.17 C29.16,107.87 23.76,110.66 20.25,113.72 C17.82,115.97 16.56,118.49 16.56,121.37 C16.56,123.71 17.46,125.78 19.62,127.31 C21.87,128.93 25.29,129.65 29.61,129.56 C34.92,129.38 39.87,127.49 44.37,123.89 C49.5,119.84 55.44,111.47 62.28,98.42 Z M69.66,89.33 C68.94,90.95 67.68,93.2 66.24,96.35 C67.14,96.17 68.22,95.54 69.48,94.82 C70.2,94.28 70.56,93.47 70.65,92.3 C70.74,91.13 70.47,90.14 69.66,89.33 Z M79.11,102.83 C78.39,103.28 77.76,103.55 77.04,103.55 C75.51,103.55 74.79,102.56 74.79,100.4 C74.79,96.17 78.12,90.68 84.78,84.02 C90.9,77.99 96.3,74.12 100.98,72.32 C102.06,71.87 103.32,71.6 104.67,71.6 C106.11,71.6 107.55,71.96 108.99,72.41 C109.89,72.5 110.43,72.59 110.7,72.5 C111.69,72.32 112.5,71.96 113.04,71.33 C113.13,71.24 113.4,71.15 113.58,71.15 C114.03,71.15 114.48,71.96 114.39,72.23 C110.97,77.54 107.46,82.85 104.22,88.16 C99.18,96.62 94.32,111.11 93.24,118.04 C93.15,118.67 93.15,119.21 93.15,119.75 C93.15,123.8 95.85,125.78 100.17,125.78 C102.24,125.78 104.49,125.42 106.56,124.7 C109.8,123.62 113.94,121.01 118.98,116.96 C123.84,113 127.8,108.59 130.68,104.9 C131.22,104.27 131.49,104 131.76,104 C131.85,104.09 131.85,104.18 131.85,104.27 C131.85,104.54 131.76,104.81 131.49,105.26 C128.79,109.31 124.83,114.08 119.52,118.58 C114.57,122.63 110.52,125.33 107.19,126.5 C105.57,127.04 103.86,127.4 101.97,127.4 C99.09,127.4 96.66,126.23 94.77,125.06 C92.52,123.62 91.71,121.1 91.8,118.04 C91.98,113 95.94,100.13 99.18,93.02 C101.16,88.7 103.14,84.92 105.21,81.86 C105.66,81.14 105.66,80.87 105.12,80.87 C105.03,80.87 104.94,80.96 104.85,81.05 C101.97,84.47 97.92,88.34 92.7,92.84 C87.48,97.25 82.98,100.58 79.11,102.83 Z M80.55,95.18 C80.28,95.9 80.19,96.62 80.19,97.25 C80.19,98.78 80.73,99.41 81.81,99.41 C82.17,99.41 82.71,99.23 83.16,98.96 C89.82,94.73 97.29,87.53 105.75,77.45 C105.93,77.27 106.02,77.09 106.02,76.82 C106.02,75.47 104.31,74.12 101.88,74.12 C101.16,74.12 100.53,74.21 99.81,74.39 C96.93,75.11 93.33,77.9 89.1,82.58 C85.05,87.08 82.26,91.31 80.55,95.18 Z M106.38,105.17 C106.11,105.53 105.93,105.53 105.84,105.17 C105.75,104.9 105.75,104.63 105.93,104.27 C111.78,95.27 115.74,88.34 117.81,83.48 C118.17,82.58 118.35,81.86 118.35,81.23 C118.35,81.05 118.26,80.78 118.08,80.24 C117.99,79.97 117.99,79.79 118.08,79.61 C118.8,79.34 121.05,78.08 124.83,75.83 C124.92,75.65 125.1,75.65 125.19,75.65 C125.55,75.65 125.82,75.83 125.91,76.1 C126.09,76.37 126.09,76.82 125.82,77.09 C121.95,82.31 119.25,86.27 117.9,88.88 C117.72,89.24 117.63,89.51 117.63,89.78 C117.63,90.05 117.9,90.14 118.62,89.87 C119.07,89.69 119.52,89.42 119.7,89.15 C121.95,86.45 125.01,83.48 128.79,80.42 C132.66,77.27 135.63,75.29 137.79,74.39 C139.68,74.3 141.03,74.48 141.93,74.93 C142.02,75.02 142.02,75.02 142.02,75.11 C142.02,75.92 140.13,77.9 139.41,77.45 C138.15,76.91 136.62,77.18 134.55,78.26 C125.73,83.12 117.81,91.22 110.79,102.74 C110.79,102.83 110.61,103.1 110.07,103.37 C109.17,103.73 107.91,104.27 106.38,105.17 Z M165.51,73.4 C167.76,69.44 169.92,65.66 171.99,62.24 C171.09,62.15 170.1,62.06 169.29,61.79 C167.67,61.61 166.05,59.45 166.05,57.56 C166.05,56.84 166.32,56.39 166.68,56.03 C169.65,52.79 174.06,50.63 179.91,49.37 L180.09,49.37 C183.51,44.24 186.57,39.92 189.27,36.5 C202.95,18.95 216.81,7.79 230.94,2.84 C235.71,1.22 240.3,0.32 244.89,0.32 C252.63,0.32 259.02,2.57 264.15,6.8 C269.01,10.94 271.53,15.98 271.53,21.83 C271.53,26.24 270,30.47 266.94,34.43 C263.61,38.75 258.66,42.53 252.09,45.59 C228.06,56.84 204.39,62.51 181.26,62.51 C179.01,62.51 176.94,62.51 174.96,62.42 C172.35,67.01 169.65,71.69 167.04,76.82 C161.37,87.8 158.58,96.35 158.67,102.74 C158.67,103.01 158.85,103.28 159.21,103.73 C159.66,103.82 160.11,103.91 160.74,104 C161.01,104.09 161.1,104.27 160.92,104.72 C160.74,104.99 160.56,105.26 160.2,105.35 C159.57,105.71 158.85,105.53 158.22,104.81 C157.59,103.82 157.14,102.38 157.14,100.67 C157.14,97.16 158.85,90.95 162.36,81.68 C162.72,80.6 162.63,80.15 161.91,80.15 C161.73,80.15 161.55,80.24 161.37,80.51 C158.22,84.38 154.17,88.7 148.95,93.38 C142.92,98.78 137.97,102.38 134.19,103.91 C133.92,104 133.65,104.09 133.29,104.09 C131.04,104.09 129.96,103.1 129.96,101.03 C129.96,96.98 133.47,91.67 140.58,84.92 C146.97,78.89 152.37,74.93 156.87,73.22 C157.95,72.77 159.21,72.5 160.56,72.5 C161.82,72.5 163.53,72.86 165.51,73.4 Z M231.48,3.92 C212.04,12.2 193.5,31.19 175.77,61.16 C177.39,61.25 179.1,61.25 181.08,61.25 C206.1,61.25 229.32,55.04 250.83,42.53 C263.34,35.33 269.55,27.68 269.55,19.67 C269.55,14.54 267.03,10.22 261.99,6.71 C256.95,3.2 251.1,1.31 244.35,1.31 C239.94,1.31 235.53,2.21 231.48,3.92 Z M135.72,96.17 C135.45,96.89 135.27,97.43 135.27,98.15 C135.27,99.41 135.81,100.13 136.8,100.13 C137.25,100.13 137.79,99.95 138.24,99.68 C146.07,94.55 153.72,87.98 161.01,79.52 C161.73,78.62 162.09,77.9 162.09,77.18 C162.09,75.83 161.01,75.11 158.85,75.11 C158.13,75.11 157.32,75.2 156.51,75.38 C153.36,76.1 149.67,78.89 144.99,83.48 C140.31,88.16 137.34,92.39 135.72,96.17 Z M169.47,60.44 C170.46,60.62 171.63,60.8 172.89,60.89 C175.32,57.11 177.48,53.51 179.55,50.27 C174.33,51.71 170.64,54.05 168.12,57.02 C167.67,57.47 167.49,58.1 167.49,58.64 C167.49,59.63 168.12,60.26 169.47,60.44 Z M209.43,78.98 C208.26,80.24 205.29,82.67 201.96,83.12 C197.91,83.75 184.5,83.75 177.3,83.75 C174.6,87.35 170.91,92.75 170.55,98.42 C170.28,103.73 173.52,104.99 176.58,104.63 C180.54,104.18 185.49,102.2 188.73,100.31 C189.72,99.77 190.44,100.22 189.45,100.94 C186.93,102.74 181.8,105.8 177.39,106.61 C173.79,107.24 168.21,103.1 168.39,98.42 C169.02,85.28 183.33,70.7 191.7,67.55 C196.2,65.84 199.08,72.05 197.1,75.56 C195.21,78.89 190.17,81.32 184.23,82.22 C190.8,82.22 198.09,82.22 201.96,81.77 C204.48,81.5 207.36,79.88 208.8,78.62 C209.34,77.81 210.06,78.17 209.43,78.98 Z M194.94,74.75 C197.46,70.88 195.12,68.81 191.52,70.79 C187.11,73.31 182.34,77.81 178.29,82.22 C184.59,82.22 192.06,79.07 194.94,74.75 Z M194.67,101.84 C194.04,101.93 193.68,101.84 193.59,101.48 C193.32,101.21 193.41,100.76 193.77,100.04 C195.21,96.98 197.55,93.02 200.79,88.07 C203.94,83.3 206.73,79.52 209.07,76.64 C209.43,76.1 210.06,75.65 211.32,75.47 C211.68,75.38 211.86,75.38 211.95,75.47 C211.95,75.65 211.86,75.92 211.68,76.1 C207.18,81.32 203.85,86.63 201.51,91.94 C201.24,92.3 201.15,92.75 201.15,93.11 C201.15,93.83 201.42,94.1 201.87,94.1 C202.14,94.1 202.59,93.92 202.95,93.47 C206.28,90.23 209.97,87.08 213.84,83.93 C218.43,80.24 221.49,78.17 222.93,77.63 C223.65,77 224.37,76.46 225.18,76.19 C226.53,75.56 227.61,75.47 228.33,75.83 C229.14,76.1 229.14,76.82 228.24,77.9 C223.92,83.39 220.05,89.78 216.72,96.8 C213.48,103.82 211.77,109.49 211.41,113.72 C211.23,116.51 211.77,118.67 213.12,120.11 C214.38,121.46 216,122.09 218.07,122.09 C218.97,122.09 219.78,122 220.68,121.73 C224.1,120.74 228.42,118.04 233.55,113.72 C239.22,108.86 242.1,104.99 242.1,102.02 C242.1,99.5 239.4,100.4 239.4,99.77 C239.4,99.05 240.75,98.51 241.56,98.51 C242.55,98.51 243.09,99.23 243.09,100.58 C243.09,101.21 242.91,102.11 242.55,103.19 C241.47,106.7 238.68,110.48 234.45,114.71 C228.6,120.47 222.39,123.62 215.73,124.34 C213.3,124.61 211.32,123.89 209.79,122.36 C208.08,120.47 207.45,117.68 207.72,113.9 C208.08,109.67 210.06,104.18 213.39,97.61 C216.18,92.12 219.15,86.99 222.66,82.22 C222.84,81.95 222.93,81.59 222.93,81.32 C222.93,80.33 222.39,79.88 221.31,79.88 C220.77,79.88 220.32,80.06 219.87,80.33 C213.12,85.1 206.28,91.67 199.26,99.86 C198.63,100.67 197.1,101.3 194.67,101.84 Z" id="path-2"></path>
    </defs>
    <g id="Page-1" stroke="none" stroke-width="1" fill="none" fill-rule="evenodd" opacity="0.25">
        <g id="detal-garden-eng">
            <g id="Garden">
                <use fill="#13884E" xlink:href="#path-2"></use>
                <use fill="url(#linearGradient-1)" xlink:href="#path-2"></use>
            </g>
        </g>
    </g>
</svg>