<?xml version="1.0" encoding="UTF-8" standalone="no"?>
<svg width="16px" height="16px" viewBox="0 0 16 16" version="1.1" xmlns="http://www.w3.org/2000/svg" xmlns:xlink="http://www.w3.org/1999/xlink">
    <!-- Generator: Sketch 50.2 (55047) - http://www.bohemiancoding.com/sketch -->
    <title>Combined Shape</title>
    <desc>Created with Sketch.</desc>
    <defs></defs>
    <g id="Symbols" stroke="none" stroke-width="1" fill="none" fill-rule="evenodd" stroke-linecap="square">
        <g id="przejdz" transform="translate(1.000000, 1.000000)" stroke="#1D1D1D" stroke-width="1.44000008">
            <path d="M7.07526882,13.9996037 C7.06585095,13.9998677 7.05642121,14 7.04697987,14 C7.04269963,14 7.03842178,13.9999728 7.03414634,13.9999185 C7.02277062,13.9999728 7.01138849,14 7,14 C3.13400675,14 0,10.8659932 0,7 C0,3.13400675 3.13400675,0 7,0 C7.01138849,0 7.02277062,2.71962957e-05 7.03414634,8.15274838e-05 C7.03842178,2.71962957e-05 7.04269963,0 7.04697987,0 C7.05642121,0 7.06585095,0.000132325125 7.07526882,0.000396316367 C10.1919984,0.0332313698 12.8204075,2.10296988 13.6924506,4.94156627 L13.8346405,4.94156627 L13.6924506,4.94156627 C13.8923892,5.59238828 14,6.28362721 14,7 C14,10.8408725 10.9065897,13.9592403 7.07526882,13.9996037 Z M7.07526882,13.9996037 C8.23285731,13.9671555 9.21121473,11.9455135 9.55040594,9.15843373 L13.6185332,9.15843373 L9.55040594,9.15843373 C9.63314499,8.47858026 9.67785235,7.75318167 9.67785235,7 C9.67785235,6.28362721 9.63740802,5.59238828 9.56226333,4.94156627 L13.6924506,4.94156627 C13.6924506,4.94156627 13.6924506,4.94156627 13.6924506,4.94156627 L9.56226333,4.94156627 C9.23451558,2.10296988 8.24665712,0.0332313698 7.07526882,0.000396316367 C7.06157072,0.000252005582 7.04786319,0.000147040071 7.03414634,8.15274838e-05 C5.85599869,0.0150531284 4.86088461,2.09049419 4.5316964,4.94156627 L0.591402757,4.94156627 L4.5316964,4.94156627 C4.45655171,5.59238828 4.41610738,6.28362721 4.41610738,7 C4.41610738,7.75318167 4.46081474,8.47858026 4.54355379,9.15843373 L0.406921424,9.15843373 L4.54355379,9.15843373 C4.88425353,11.9579088 5.86981739,13.9851225 7.03414634,13.9999185 C7.04786319,13.999853 7.06157072,13.999748 7.07526882,13.9996037 Z M9.55040594,9.15843373 C9.55040594,9.15843373 9.55040594,9.15843373 9.55040594,9.15843373 L4.54355379,9.15843373 C4.54355379,9.15843373 4.54355379,9.15843373 4.54355379,9.15843373 L9.55040594,9.15843373 Z M9.56226333,4.94156627 L4.5316964,4.94156627 C4.5316964,4.94156627 4.5316964,4.94156627 4.5316964,4.94156627 L9.56226333,4.94156627 C9.56226333,4.94156627 9.56226333,4.94156627 9.56226333,4.94156627 Z" id="Combined-Shape"></path>
        </g>
    </g>
</svg>