<?xml version="1.0" encoding="UTF-8" standalone="no"?>
<svg width="165px" height="78px" viewBox="0 0 165 78" version="1.1" xmlns="http://www.w3.org/2000/svg" xmlns:xlink="http://www.w3.org/1999/xlink">
    <!-- Generator: Sketch 50.2 (55047) - http://www.bohemiancoding.com/sketch -->
    <title>logo</title>
    <desc>Created with Sketch.</desc>
    <defs>
        <polygon id="path-1" points="0 76.8040605 164.748896 76.8040605 164.748896 0.0320016919 0 0.0320016919"></polygon>
    </defs>
    <g id="Page-1" stroke="none" stroke-width="1" fill="none" fill-rule="evenodd">
        <g id="Krakowski-Kraft-Mockup" transform="translate(-150.000000, -46.000000)">
            <g id="Parallax">
                <g id="logo" transform="translate(150.000000, 46.000000)">
                    <g id="Group">
                        <polygon id="Fill-1" fill="#FEFEFE" points="73.5037354 37.5949876 76.8642087 33.1135507 78.3472063 32.8603373 78.3472063 31.21025 72.9310413 31.21025 72.9310413 32.8603373 73.7384199 32.9727432 71.1096335 36.7885449 69.9177888 36.7885449 69.9177888 33.1415521 71.3070728 32.8603373 71.3070728 31.21025 65.7219029 31.21025 65.7219029 32.8603373 67.1768665 33.1415521 67.1768665 42.9388701 65.7219029 43.220485 65.7219029 44.8605717 71.3070728 44.8605717 71.3070728 43.220485 69.9177888 42.9388701 69.9177888 39.1606704 71.4476432 39.1606704 74.0764296 43.107679 73.2314053 43.220485 73.2314053 44.8605717 78.6475704 44.8605717 78.6475704 43.220485 77.2771092 42.9860726"></polygon>
                        <g id="Group-28" transform="translate(0.000000, 0.368019)">
                            <path d="M86.2903544,34.161166 C85.7961553,34.161166 85.3612282,34.3079738 84.9855728,34.6019893 C84.610318,34.8956049 84.3035461,35.3048265 84.0656578,35.8300543 L83.9439102,34.348776 L79.9362524,34.348776 L79.9362524,35.9988632 L81.3908155,36.2800781 L81.3908155,42.5708106 L80.0768228,42.8524255 L80.0768228,44.4925122 L85.4457306,44.4925122 L85.4457306,42.8524255 L84.1313374,42.5708106 L84.1313374,37.6393499 C84.2691044,37.3521347 84.4693471,37.130123 84.7320655,36.9737147 C84.9951845,36.8177065 85.3267864,36.7393023 85.7272718,36.7393023 L86.8534369,36.7677038 L87.1445898,34.273572 C87.0380607,34.2423703 86.9050995,34.2159689 86.7457063,34.1939678 C86.5859126,34.1719666 86.4341286,34.161166 86.2903544,34.161166" id="Fill-2" fill="#FEFEFE"></path>
                            <path d="M94.0513216,41.727206 C93.8634939,41.9960202 93.6007755,42.2192321 93.2627658,42.3976415 C92.9247561,42.5756509 92.5495012,42.6648556 92.1366007,42.6648556 C91.7421226,42.6648556 91.4341493,42.5680505 91.2118799,42.3740402 C90.9896104,42.18043 90.878676,41.9116158 90.878676,41.5679976 C90.878676,41.1863774 91.028858,40.8599602 91.3292221,40.5879458 C91.6295862,40.3163314 92.0709211,40.1803243 92.6528265,40.1803243 L94.0513216,40.1803243 L94.0513216,41.727206 Z M96.8062609,42.3460388 C96.803057,42.2084315 96.8014551,42.0616237 96.8014551,41.9052154 L96.8014551,37.7145939 C96.8014551,36.5769338 96.4089794,35.7004874 95.6236274,35.0848549 C94.8382755,34.4688223 93.8166371,34.161206 92.5587124,34.161206 C91.7953871,34.161206 91.0897318,34.2768121 90.4421468,34.5080244 C89.7945619,34.7392366 89.2202658,35.0236516 88.719659,35.3612695 L88.7104478,37.6113884 L90.7753507,37.6113884 L90.9539672,36.5237309 C91.1041493,36.4237257 91.3011881,36.3377211 91.5450837,36.2661173 C91.7893799,36.1941135 92.0677172,36.1581116 92.3804964,36.1581116 C92.9311638,36.1581116 93.3472682,36.2925187 93.6288095,36.5613329 C93.9103507,36.8301471 94.0513216,37.2081671 94.0513216,37.6957929 L94.0513216,38.6894454 L92.6528265,38.6894454 C91.1758362,38.6894454 90.0556784,38.9490592 89.2923532,39.4678866 C88.5290279,39.986314 88.1473653,40.7207528 88.1473653,41.6708031 C88.1473653,42.6024523 88.4397197,43.3380912 89.0248289,43.8789198 C89.6099381,44.4189483 90.4000959,44.6893626 91.3949017,44.6893626 C91.9956299,44.6893626 92.5290765,44.5737565 92.9952415,44.3425443 C93.4614066,44.1113321 93.8574867,43.8085161 94.1826808,43.4336963 C94.2139187,43.6149058 94.2579721,43.7945153 94.31404,43.9721247 C94.3705085,44.1505342 94.4361881,44.3237433 94.5110789,44.4925522 L97.6745133,44.4925522 L97.6745133,42.8524655 L96.8391007,42.7396596 C96.8202779,42.614853 96.8094648,42.483646 96.8062609,42.3460388 Z" id="Fill-4" fill="#FEFEFE"></path>
                            <polygon id="Fill-6" fill="#FEFEFE" points="100.282314 42.5710106 98.95871 42.8522255 98.95871 44.4927122 104.196258 44.4927122 104.196258 42.8522255 103.013625 42.5710106 103.013625 40.2460877 104.187047 40.2460877 105.745336 42.7586206 105.181853 42.8522255 105.181853 44.4927122 109.875142 44.4927122 109.875142 42.8522255 108.833479 42.6366141 106.270773 38.7832104 108.100992 36.2706776 109.302448 35.9986632 109.302448 34.3485759 104.309195 34.3485759 104.309195 35.9986632 105.200676 36.1206696 103.623965 38.3427871 103.013625 38.3427871 103.013625 29.867139 98.8181396 29.867139 98.8181396 31.5172263 100.282314 31.7984411"></polygon>
                            <path d="M117.686971,39.5239696 C117.686971,40.4428181 117.522772,41.1832573 117.194374,41.746087 C116.865575,42.3085168 116.347748,42.5897316 115.640891,42.5897316 C114.914811,42.5897316 114.389374,42.3101169 114.063779,41.7504873 C113.738585,41.1912577 113.575587,40.4492185 113.575587,39.5239696 L113.575587,39.3271592 C113.575587,38.4271116 113.738585,37.6926727 114.063779,37.1238427 C114.389374,36.5550126 114.908803,36.2705976 115.622068,36.2705976 C116.335333,36.2705976 116.857966,36.5550126 117.189568,37.1238427 C117.52117,37.6926727 117.686971,38.4271116 117.686971,39.3271592 L117.686971,39.5239696 Z M115.622068,34.161286 C114.126255,34.161286 112.954835,34.6441116 112.106607,35.6097626 C111.258779,36.5754137 110.835066,37.8146792 110.835066,39.3271592 L110.835066,39.5239696 C110.835066,41.0492502 111.258779,42.2913159 112.106607,43.2505666 C112.954835,44.2098173 114.132663,44.6894426 115.640891,44.6894426 C117.129896,44.6894426 118.298512,44.2098173 119.14674,43.2505666 C119.994568,42.2913159 120.418282,41.0492502 120.418282,39.5239696 L120.418282,39.3271592 C120.418282,37.8082789 119.994568,36.5674132 119.14674,35.6049624 C118.298512,34.6425115 117.123888,34.161286 115.622068,34.161286 Z" id="Fill-8" fill="#FEFEFE"></path>
                            <polygon id="Fill-10" fill="#FEFEFE" points="131.457583 35.9987832 132.546502 36.2143946 131.598553 40.8646404 131.542085 40.8646404 129.627364 34.348696 127.787534 34.348696 125.891636 40.8458394 125.835167 40.8458394 124.877607 36.2051941 125.957316 35.9987832 125.957316 34.348696 121.35774 34.348696 121.35774 35.9987832 122.380981 36.1299901 124.511563 44.4924322 126.792728 44.4924322 128.679415 38.4553131 128.735483 38.4553131 130.62217 44.4924322 132.912546 44.4924322 135.033917 36.1299901 136.056757 35.9987832 136.056757 34.348696 131.457583 34.348696"></polygon>
                            <path d="M144.883216,39.5848928 C144.27608,39.1004672 143.34375,38.7332478 142.086226,38.4832345 C141.278847,38.3268263 140.740595,38.1472168 140.471468,37.944006 C140.202342,37.7411953 140.06818,37.4863818 140.06818,37.1799656 C140.06818,36.8551485 140.20875,36.5847342 140.490291,36.3691228 C140.771833,36.1535114 141.153495,36.0455057 141.63568,36.0455057 C141.979697,36.0455057 142.294078,36.0955083 142.578823,36.1955136 C142.863568,36.2955189 143.099854,36.4207255 143.287682,36.5707334 L143.578434,37.8364003 L145.418265,37.8364003 L145.390231,35.314267 C144.989745,34.9830495 144.437476,34.7110351 143.733422,34.4986239 C143.029369,34.2862126 142.283265,34.179807 141.494709,34.179807 C140.199539,34.179807 139.201129,34.4878233 138.500279,35.1034559 C137.79983,35.7190884 137.449405,36.4519271 137.449405,37.3019721 C137.449405,38.1268157 137.754175,38.7784501 138.364515,39.2568754 C138.974454,39.7349007 139.877148,40.0957198 141.072197,40.3397327 C141.860752,40.5085416 142.402209,40.7021518 142.696165,40.9209634 C142.990121,41.139775 143.1375,41.3989887 143.1375,41.6990045 C143.1375,42.0430227 142.991723,42.3146371 142.700971,42.5146477 C142.409818,42.7146582 141.986104,42.8146635 141.429029,42.8146635 C141.122257,42.8146635 140.828301,42.7818618 140.54676,42.7162583 C140.265218,42.6506549 140.042949,42.5490495 139.880352,42.4114422 L139.504697,41.0897723 L137.589976,41.0897723 L137.61801,43.3678928 C138.125024,43.7931153 138.705328,44.1191325 139.35932,44.3471445 C140.013313,44.5755566 140.731383,44.6895627 141.513532,44.6895627 C142.796286,44.6895627 143.83034,44.4003474 144.615692,43.8227168 C145.401044,43.2442862 145.793519,42.4990468 145.793519,41.5865986 C145.793519,40.7365537 145.490352,40.0693184 144.883216,39.5848928" id="Fill-12" fill="#FEFEFE"></path>
                            <polygon id="Fill-14" fill="#FEFEFE" points="154.443244 38.7832904 156.273462 36.2707576 157.474919 35.9987432 157.474919 34.3486559 152.481666 34.3486559 152.481666 35.9987432 153.373147 36.1207496 151.796436 38.3424671 151.186096 38.3424671 151.186096 29.867219 146.99061 29.867219 146.99061 31.5173063 148.454785 31.7985211 148.454785 42.5710907 147.131181 42.8523055 147.131181 44.4923922 152.368729 44.4923922 152.368729 42.8523055 151.186096 42.5710907 151.186096 40.2457677 152.359518 40.2457677 153.917807 42.7587006 153.354324 42.8523055 153.354324 44.4923922 158.047613 44.4923922 158.047613 42.8523055 157.00555 42.6366941"></polygon>
                            <polygon id="Fill-16" fill="#FEFEFE" points="163.434623 42.5710106 163.434623 34.3485759 159.229525 34.3485759 159.229525 35.9986632 160.6937 36.279878 160.6937 42.5710106 159.370496 42.8522255 159.370496 44.4927122 164.748615 44.4927122 164.748615 42.8522255"></polygon>
                            <mask id="mask-2" fill="white">
                                <use xlink:href="#path-1"></use>
                            </mask>
                            <g id="Clip-19"></g>
                            <polygon id="Fill-18" fill="#FEFEFE" mask="url(#mask-2)" points="160.69358 31.9204876 163.434502 31.9204876 163.434502 29.867179 160.69358 29.867179"></polygon>
                            <polygon id="Fill-20" fill="#FEFEFE" mask="url(#mask-2)" points="73.5037354 56.0275621 76.8642087 51.5461251 78.3472063 51.2929118 78.3472063 49.6428245 72.9310413 49.6428245 72.9310413 51.2929118 73.7384199 51.4053177 71.1096335 55.2211194 69.9177888 55.2211194 69.9177888 51.5741266 71.3070728 51.2929118 71.3070728 49.6428245 65.7219029 49.6428245 65.7219029 51.2929118 67.1768665 51.5741266 67.1768665 61.3714446 65.7219029 61.6530595 65.7219029 63.2935462 71.3070728 63.2935462 71.3070728 61.6530595 69.9177888 61.3714446 69.9177888 57.5932448 71.4476432 57.5932448 74.0764296 61.5402535 73.2314053 61.6530595 73.2314053 63.2935462 78.6475704 63.2935462 78.6475704 61.6530595 77.2771092 61.4186471"></polygon>
                            <path d="M86.2903544,52.9618 C85.7961553,52.9618 85.3612282,53.1086078 84.9855728,53.4026233 C84.610318,53.6962388 84.3035461,54.1054605 84.0656578,54.6306882 L83.9439102,53.1494099 L79.9362524,53.1494099 L79.9362524,54.7994971 L81.3908155,55.080712 L81.3908155,61.3714446 L80.0768228,61.6530595 L80.0768228,63.2935462 L85.4457306,63.2935462 L85.4457306,61.6530595 L84.1313374,61.3714446 L84.1313374,56.4399839 C84.2691044,56.1527687 84.4693471,55.930757 84.7320655,55.7743487 C84.9951845,55.6183404 85.3267864,55.5399363 85.7272718,55.5399363 L86.8534369,55.5683378 L87.1445898,53.0742059 C87.0380607,53.0430043 86.9050995,53.0166029 86.7457063,52.9946017 C86.5859126,52.9726006 86.4341286,52.9618 86.2903544,52.9618" id="Fill-21" fill="#FEFEFE" mask="url(#mask-2)"></path>
                            <path d="M94.0513216,60.5278 C93.8634939,60.7966142 93.6007755,61.019826 93.2627658,61.1982354 C92.9247561,61.3762448 92.5495012,61.4654496 92.1366007,61.4654496 C91.7421226,61.4654496 91.4341493,61.3686444 91.2118799,61.1746342 C90.9896104,60.981024 90.878676,60.7122097 90.878676,60.3685916 C90.878676,59.9869714 91.028858,59.6605541 91.3292221,59.3885398 C91.6295862,59.1169254 92.0709211,58.9809182 92.6528265,58.9809182 L94.0513216,58.9809182 L94.0513216,60.5278 Z M96.8062609,61.1466327 C96.803057,61.0090254 96.8014551,60.8622177 96.8014551,60.7058094 L96.8014551,56.5151879 C96.8014551,55.3775277 96.4089794,54.5010814 95.6236274,53.8854488 C94.8382755,53.2694163 93.8166371,52.9618 92.5587124,52.9618 C91.7953871,52.9618 91.0897318,53.0774061 90.4421468,53.3086183 C89.7945619,53.5398305 89.2202658,53.8242456 88.719659,54.1618634 L88.7104478,56.4119824 L90.7753507,56.4119824 L90.9539672,55.3243249 C91.1041493,55.2243196 91.3011881,55.1383151 91.5450837,55.0667113 C91.7893799,54.9947075 92.0677172,54.9587056 92.3804964,54.9587056 C92.9311638,54.9587056 93.3472682,55.0931127 93.6288095,55.3619269 C93.9103507,55.6307411 94.0513216,56.0087611 94.0513216,56.4963869 L94.0513216,57.4900394 L92.6528265,57.4900394 C91.1758362,57.4900394 90.0556784,57.7496531 89.2923532,58.2684805 C88.5290279,58.786908 88.1473653,59.5213468 88.1473653,60.471397 C88.1473653,61.4030463 88.4397197,62.1386852 89.0248289,62.6795137 C89.6099381,63.2199423 90.4000959,63.4903566 91.3949017,63.4903566 C91.9956299,63.4903566 92.5290765,63.3747505 92.9952415,63.1435383 C93.4614066,62.9123261 93.8574867,62.60911 94.1826808,62.2342902 C94.2139187,62.4154998 94.2579721,62.5951093 94.31404,62.7731187 C94.3705085,62.9515281 94.4361881,63.1247373 94.5110789,63.2935462 L97.6745133,63.2935462 L97.6745133,61.6530595 L96.8391007,61.5402535 C96.8202779,61.4154469 96.8094648,61.28424 96.8062609,61.1466327 Z" id="Fill-22" fill="#FEFEFE" mask="url(#mask-2)"></path>
                            <path d="M104.173751,48.4709226 C102.98471,48.4709226 102.061992,48.7789388 101.404795,49.3945714 C100.747598,50.0102039 100.4192,50.8866503 100.4192,52.0243104 L100.4192,53.1491699 L98.9081687,53.1491699 L98.9081687,55.0712715 L100.4192,55.0712715 L100.4192,61.3716046 L99.0955959,61.6528195 L99.0955959,63.2937062 L104.483326,63.2937062 L104.483326,61.6528195 L103.160123,61.3716046 L103.160123,55.0712715 L105.178169,55.0712715 L105.178169,53.1491699 L103.160123,53.1491699 L103.160123,52.0243104 C103.160123,51.5678863 103.274261,51.2178678 103.502538,50.9742549 C103.731215,50.730242 104.067222,50.6086356 104.511761,50.6086356 C104.699188,50.6086356 104.863788,50.6178361 105.004358,50.6366371 C105.145329,50.6554381 105.290705,50.6774392 105.440887,50.7022405 L105.675572,48.667733 C105.387623,48.6053297 105.123302,48.5569271 104.88261,48.5225253 C104.641518,48.4881235 104.405232,48.4709226 104.173751,48.4709226" id="Fill-23" fill="#FEFEFE" mask="url(#mask-2)"></path>
                            <path d="M112.056706,61.3106814 C111.915735,61.3262822 111.751536,61.3342826 111.564109,61.3342826 C111.288575,61.3342826 111.06951,61.2498782 110.906913,61.0810692 C110.744316,60.9122603 110.663017,60.6310454 110.663017,60.2370246 L110.663017,55.0711515 L112.446379,55.0711515 L112.446379,53.1494499 L110.663017,53.1494499 L110.663017,50.6649186 L107.931306,50.6649186 L107.931306,53.1494499 L106.439097,53.1494499 L106.439097,55.0711515 L107.931306,55.0711515 L107.931306,60.2466251 C107.931306,61.3714846 108.186415,62.1935281 108.696233,62.7123555 C109.206451,63.2311829 109.933733,63.4903966 110.878879,63.4903966 C111.229303,63.4903966 111.554498,63.4671954 111.854862,63.4199929 C112.155226,63.3731904 112.458794,63.3027867 112.765566,63.2091817 L112.530881,61.2310772 C112.355468,61.2686792 112.197677,61.2950806 112.056706,61.3106814" id="Fill-24" fill="#FEFEFE" mask="url(#mask-2)"></path>
                            <path d="M30.4024915,63.1701397 C30.4505498,62.8565231 30.4777828,62.5381063 30.4777828,62.2156892 L29.34521,62.2156892 L29.3460109,62.2148892 L30.4777828,62.2148892 C30.4777828,61.8760713 30.4253192,61.549254 30.3284017,61.2424378 C30.9615692,61.2320372 31.5787172,61.1116309 32.1542148,60.8884191 C32.534676,61.6268581 32.7273095,62.4465014 32.6836566,63.2657447 C31.9319454,63.4277533 31.1473944,63.3865511 30.4024915,63.1701397 Z M30.622358,67.5291701 C29.9935959,67.241955 29.4413265,66.8059319 28.9955862,66.2711036 C29.4357197,65.7542763 29.7897488,65.1634451 30.0404527,64.5246113 C30.5775036,64.6778194 31.1309745,64.7590237 31.6848459,64.7634239 C31.6291784,65.7822778 31.2639357,66.7607295 30.622358,67.5291701 Z M27.2314478,69.6988848 C26.6207075,69.2324602 26.1425279,68.6084272 25.824142,67.9003898 C26.0648337,67.6939789 26.2891056,67.4675669 26.4957561,67.2255541 C26.6155012,67.3123587 26.7380498,67.3963631 26.8646032,67.4739672 L27.2314478,67.6987791 L27.5982925,67.4743672 C27.7248459,67.3963631 27.8473944,67.3127587 27.96754,67.2255541 C28.174591,67.4679669 28.3984624,67.6943789 28.6391541,67.9007898 C28.3207682,68.6084272 27.8425886,69.2324602 27.2314478,69.6988848 Z M23.8409381,67.5291701 C23.1993604,66.7607295 22.8349187,65.7830778 22.7788507,64.7634239 C23.3327221,64.7590237 23.886193,64.6778194 24.4228434,64.5246113 C24.6735473,65.162645 25.0279769,65.7534763 25.4673095,66.2707036 C25.0219697,66.8059319 24.4697002,67.241955 23.8409381,67.5291701 Z M22.2257803,61.0524277 C22.6827342,61.1788344 23.1593119,61.2452379 23.6451007,61.2452379 C23.8129041,61.2452379 23.9791056,61.2320372 24.1445061,61.2172364 C24.0423823,61.5320531 23.9855133,61.8672708 23.9855133,62.2156892 C23.9855133,62.5377062 24.0131468,62.8565231 24.0608046,63.1697397 C23.3159017,63.3861511 22.5309502,63.4277533 21.7804405,63.2657447 C21.739591,62.5073046 21.9005862,61.7468644 22.2257803,61.0524277 Z M24.146108,56.7998029 C24.3030983,56.7241989 24.4697002,56.6865969 24.6391056,56.669396 C24.2306104,57.2118247 23.9855133,57.8834602 23.9855133,58.6130988 C23.9855133,59.0203203 24.0251614,59.4227416 24.1012536,59.8139623 C23.3683653,59.8975667 22.6270667,59.7827606 21.9802828,59.4727442 C22.2393968,58.3350841 23.0395667,57.3358312 24.146108,56.7998029 Z M29.0544575,62.6025097 C28.9463265,63.970582 28.2807197,65.2290485 27.2314478,66.0290908 C26.1829769,65.2290485 25.5173701,63.970582 25.4092391,62.6025097 C25.8201371,63.099736 26.3095303,63.5305587 26.8650036,63.8713768 L27.2314478,64.0957886 L27.597892,63.8713768 C28.1537658,63.5305587 28.643159,63.099736 29.0544575,62.6025097 Z M27.2326493,56.7702013 C28.2494818,56.7702013 29.0760837,57.596245 29.0760837,58.6114987 L30.4777828,58.6114987 C30.4777828,58.0054666 30.307176,57.4390367 30.0156226,56.952611 C30.9779891,57.5122406 31.6704284,58.4318892 31.9079163,59.4727442 C31.4289357,59.7023563 30.897892,59.8195625 30.3580376,59.8343633 C30.4365328,59.4359423 30.4777828,59.0275207 30.4777828,58.6130988 L29.0760837,58.6130988 C29.0760837,60.1295789 28.3792391,61.5520541 27.2314478,62.4269004 C26.0844575,61.5516541 25.3872124,60.1287789 25.3872124,58.6114987 C25.3872124,57.596245 26.2150158,56.7702013 27.2326493,56.7702013 Z M33.4181468,60.2023828 L33.3748944,59.7743602 C33.193875,57.9774652 32.0356711,56.3545794 30.3524308,55.5397363 C29.9595546,55.3497262 29.5402464,55.2537212 29.1061201,55.2537212 C28.7296638,55.2537212 28.3644211,55.3333254 28.0256104,55.4725327 C27.7717027,55.4085293 27.5069818,55.3701273 27.2326493,55.3701273 C26.8313629,55.3701273 26.4480983,55.4465314 26.0928677,55.5801384 C25.6923823,55.3737275 25.245841,55.2537212 24.7820789,55.2537212 C24.3467512,55.2537212 23.9270425,55.3505263 23.5353677,55.5409363 C21.8521274,56.3553794 20.694324,57.9774652 20.5129041,59.7743602 L20.4696517,60.2019828 L20.8324915,60.433995 L20.9374187,60.4959983 C20.4456226,61.5656549 20.2593968,62.7589179 20.4416177,63.9237795 L20.5080983,64.348602 L20.9169939,64.481409 C21.065574,64.5290115 21.2149551,64.5714138 21.3655376,64.6070156 C21.3951735,66.2067002 22.029142,67.7495818 23.1633167,68.8572404 L23.4708896,69.1576562 L23.8785837,69.0192489 C24.1437051,68.9292442 24.4000158,68.8188383 24.6471153,68.6928317 C25.1461201,69.6956847 25.905841,70.5553301 26.8646032,71.1437612 L27.2314478,71.3685731 L27.5982925,71.1437612 C28.5570546,70.5553301 29.317176,69.6960847 29.8161808,68.6928317 C30.0632803,68.8188383 30.319591,68.9292442 30.5843119,69.0192489 L30.9924066,69.1576562 L31.2999794,68.8572404 C32.4341541,67.7495818 33.0685231,66.2063002 33.0977585,64.6074157 C33.2487415,64.5714138 33.3981226,64.5294115 33.5467027,64.481409 L33.9559988,64.348602 L34.0224794,63.9237795 C34.2203192,62.6573126 33.9844333,61.3572438 33.3921153,60.2187837 L33.4181468,60.2023828 Z" id="Fill-25" fill="#FEFEFE" mask="url(#mask-2)"></path>
                            <path d="M43.0607949,69.3275052 L43.0607949,50.9817353 L42.3599454,50.9817353 C39.4071663,50.9817353 36.8620813,52.7334279 35.6938653,55.2475608 C34.3350182,51.9113845 31.0550425,49.5524597 27.2328095,49.5524597 C23.4097755,49.5524597 20.1297998,51.9121845 18.7709527,55.2491609 C17.6031371,52.734228 15.0576517,50.9817353 12.1040716,50.9817353 L11.4032221,50.9817353 L11.4032221,69.379508 C5.95381675,64.9392732 2.40191141,58.2601201 2.17563714,50.7581235 C3.31942354,50.4057049 4.33505461,49.3936513 5.14483617,47.8955721 L49.2579066,47.8955721 C50.0676881,49.3936513 51.0833192,50.4057049 52.2271056,50.7581235 C52.0016323,58.2313186 48.475358,64.8876705 43.0607949,69.3275052 Z M41.6590959,70.3959617 C40.0407342,71.5436224 38.2806007,72.5028731 36.4103337,73.2453123 L36.4103337,58.3241235 C36.4103337,55.2843628 38.7075182,52.7698298 41.6590959,52.4222115 L41.6590959,70.3959617 Z M35.0086347,73.7521391 C32.5500546,74.5601819 29.9272755,75.0038053 27.2011711,75.0038053 C24.4978944,75.0038053 21.896341,74.5681823 19.4557828,73.7725402 L19.4557828,58.674142 L19.5018386,58.674142 C19.5018386,54.4167169 22.9700425,50.9525338 27.2328095,50.9525338 C31.4955765,50.9525338 34.9633799,54.4167169 34.9633799,58.674142 L35.0086347,58.674142 L35.0086347,73.7521391 Z M18.0540837,73.2689136 C16.1846177,72.5328747 14.4244842,71.5796243 12.8049211,70.4379639 L12.8049211,52.4222115 C15.7564988,52.7698298 18.0540837,55.2843628 18.0540837,58.3241235 L18.0540837,73.2689136 Z M11.6014624,34.6100698 L12.0015473,33.5716149 C12.0015473,33.4740097 13.1309163,33.3952055 14.5242051,33.3952055 C15.9178944,33.3952055 17.0472633,33.4740097 17.0472633,33.5716149 L17.4373362,34.6100698 L11.6014624,34.6100698 Z M13.4012439,41.593639 C9.49530947,40.6895912 10.6435012,37.0962012 10.6435012,37.0962012 L11.0620085,36.0101438 L17.9631735,36.0101438 L18.3708677,37.0962012 C18.3708677,37.0962012 19.5182585,40.6895912 15.6127245,41.593639 C15.6127245,41.593639 14.2302488,41.9052555 15.2847269,44.2481793 C15.2847269,44.2481793 16.9511468,44.431789 17.0128216,45.0286206 C17.0128216,45.0286206 17.2182706,45.8910662 14.7697027,45.8910662 L14.2442658,45.8910662 C11.7952973,45.8910662 12.0011468,45.0286206 12.0011468,45.0286206 C12.0636226,44.431789 13.729642,44.2481793 13.729642,44.2481793 C14.7845206,41.9052555 13.4012439,41.593639 13.4012439,41.593639 Z M24.5423483,26.9016622 C24.5207221,26.404836 24.5147148,25.819605 24.5691808,25.4283844 C24.7522027,25.3187786 25.4009891,25.0387638 27.2436226,25.0283632 C29.0634284,25.0387638 29.7094114,25.3175785 29.8928337,25.4267843 C29.9477002,25.8244053 29.9424939,26.404436 29.9208677,26.9016622 L24.5423483,26.9016622 Z M25.4826881,40.6655899 L24.6352609,28.3017363 L29.8287561,28.3017363 L28.9801274,40.6691901 C28.8387561,42.9209091 29.2092051,43.7493529 29.3581857,43.9845654 C29.7682828,44.6646013 29.884824,45.0318207 29.9180643,45.1778285 C29.6457342,45.3466374 28.8091201,45.5910503 27.5471905,45.5910503 L26.9160255,45.5910503 C25.6613046,45.5910503 24.826693,45.3490375 24.549557,45.1810286 C24.5852002,45.0262205 24.7053459,44.6542008 25.1062318,43.9825653 C25.2560133,43.7445527 25.6240595,42.9153089 25.4826881,40.6655899 Z M37.3867172,34.6100698 L37.7868022,33.5716149 C37.7868022,33.4740097 38.9157706,33.3952055 40.30946,33.3952055 C41.7027488,33.3952055 42.8325182,33.4740097 42.8325182,33.5716149 L43.2221905,34.6100698 L37.3867172,34.6100698 Z M39.1864988,41.593639 C35.2805643,40.6895912 36.4283556,37.0962012 36.4283556,37.0962012 L36.8468629,36.0101438 L43.7484284,36.0101438 L44.1557221,37.0962012 C44.1557221,37.0962012 45.3035133,40.6895912 41.3979794,41.593639 C41.3979794,41.593639 40.0155036,41.9052555 41.0695813,44.2481793 C41.0695813,44.2481793 42.7360012,44.431789 42.7980765,45.0286206 C42.7980765,45.0286206 43.003125,45.8910662 40.5549575,45.8910662 L40.0295206,45.8910662 C37.5801517,45.8910662 37.7864017,45.0286206 37.7864017,45.0286206 C37.8484769,44.431789 39.5148968,44.2481793 39.5148968,44.2481793 C40.569375,41.9052555 39.1864988,41.593639 39.1864988,41.593639 Z M3.29499393,26.3336322 C10.6170692,22.4346261 18.8418386,20.3821176 27.2011711,20.3821176 C35.5601032,20.3821176 43.7852731,22.4350261 51.1077488,26.3336322 C48.8257828,28.0549232 47.2755036,32.6355654 47.2755036,38.3090653 C47.2755036,41.3000235 47.7144357,43.9817652 48.4673483,46.095877 L43.8773847,46.095877 C44.1372998,45.7074565 44.253841,45.2474321 44.1841566,44.8170094 C44.0347755,43.7445527 43.0367658,43.2453263 42.1132464,43.013314 C42.0996299,42.9541109 42.0904187,42.9037082 42.0844114,42.861306 C43.8177124,42.3616796 44.6863653,41.3904282 45.1148847,40.6371884 C46.1385255,38.8402934 45.560625,36.8873902 45.491341,36.6701787 L45.4809284,36.6369769 L45.4685133,36.6041752 L44.2009769,33.2291968 C43.9831129,32.1755411 42.7476153,32.0887365 42.191341,32.0503344 C41.6835255,32.0147326 41.0151153,31.9951315 40.30946,31.9951315 C39.6042051,31.9951315 38.9357949,32.0147326 38.4279794,32.0503344 C37.873307,32.0887365 36.6434163,32.174741 36.4203459,33.2199963 L35.1207706,36.5929746 L35.1059527,36.6313766 L35.0931371,36.6701787 C35.0242536,36.8873902 34.4463532,38.8402934 35.4695934,40.6371884 C35.8989138,41.3912283 36.7687682,42.3644797 38.5000667,42.861706 C38.49446,42.9037082 38.4852488,42.9545109 38.4716323,43.013314 C37.5481129,43.2453263 36.5509041,43.7437526 36.4007221,44.8154093 C36.3302367,45.2466321 36.4467779,45.7066564 36.706693,46.095877 L31.0041808,46.095877 C31.1839988,45.9098672 31.3017415,45.6862553 31.3213653,45.4162411 C31.3930522,44.942616 31.13554,44.2161776 30.5536347,43.2529267 L30.5752609,43.2657274 L30.5428216,43.2305255 C30.4907585,43.1013187 30.2728944,42.4508843 30.3786226,40.761195 L31.2672998,27.8137105 C31.2849211,27.6205002 31.4355036,25.9036095 31.233659,24.9623597 C31.0934891,24.3635281 30.2893143,23.6462901 27.2123847,23.6282892 C24.1771056,23.6458901 23.3713289,24.362728 23.2271541,24.9751604 C23.0285133,25.9040095 23.1790959,27.6205002 23.1955158,27.7969096 L24.084193,40.7567947 C24.1979308,42.5708906 23.9396177,43.1897234 23.9123847,43.2501266 L23.9087803,43.2553268 C23.2215473,44.4025875 23.0981978,45.0450214 23.1410498,45.3982401 C23.1566687,45.6770549 23.2744114,45.905867 23.4578337,46.095877 L18.0921299,46.095877 C18.3524454,45.7074565 18.4689867,45.2474321 18.3989017,44.8170094 C18.2495206,43.7445527 17.2519114,43.2453263 16.3279915,43.013314 C16.314375,42.9541109 16.3051638,42.9037082 16.299557,42.861306 C18.0324575,42.3616796 18.9011104,41.3904282 19.3296299,40.6371884 C20.3532706,38.8402934 19.7753701,36.8873902 19.7064867,36.6701787 L19.6956735,36.6369769 L19.6832585,36.6041752 L18.4157221,33.2291968 C18.197858,32.1755411 16.9623604,32.0887365 16.4060862,32.0503344 C15.8982706,32.0147326 15.2298604,31.9951315 14.5242051,31.9951315 C13.8189502,31.9951315 13.15054,32.0147326 12.6427245,32.0503344 C12.0880522,32.0887365 10.8581614,32.174741 10.635091,33.2199963 L9.33551578,36.5929746 L9.32069782,36.6313766 L9.30828277,36.6701787 C9.23899879,36.8873902 8.66069782,38.8402934 9.68433859,40.6371884 C10.113659,41.3912283 10.9835133,42.3644797 12.7152124,42.861706 C12.7092051,42.9037082 12.6999939,42.9545109 12.6863774,43.013314 C11.7632585,43.2453263 10.7656493,43.7437526 10.6154672,44.8154093 C10.5453823,45.2466321 10.6619235,45.7066564 10.9214381,46.095877 L5.9357949,46.095877 C6.68830704,43.9817652 7.12683859,41.3000235 7.12683859,38.3090653 C7.12683859,32.6355654 5.57695995,28.0549232 3.29499393,26.3336322 Z M10.9042172,9.27513036 L15.6868143,10.4931948 C16.300358,12.5721047 18.0729066,14.0261815 20.0889502,14.0261815 C22.6428459,14.0261815 24.7205643,11.7252599 24.7205643,8.89711037 C24.7205643,7.9782618 24.496693,7.07621411 24.0801881,6.29337272 L27.2007706,2.75518566 L30.3213532,6.29377274 C29.9052488,7.07621411 29.6813774,7.97786177 29.6813774,8.89711037 C29.6813774,11.7252599 31.7590959,14.0261815 34.3129915,14.0261815 C36.3290352,14.0261815 38.1023847,12.5721047 38.7155279,10.4931948 L43.4985255,9.27513036 L38.2629794,19.7592846 C34.6429915,18.9844437 30.9360983,18.5820224 27.2011711,18.5820224 C23.4666444,18.5820224 19.7585498,18.9848437 16.1393629,19.7592846 L10.9042172,9.27513036 Z M49.0776881,38.3090653 C49.0776881,33.1591931 50.8222027,27.3996886 53.1562318,27.3996886 L53.6672512,27.3996886 L54.4233677,26.1376218 L53.6344114,25.6799977 C49.3872633,23.2126672 44.8141201,21.3701698 40.0671663,20.1789068 L46.8686104,6.55938678 L37.1824697,9.02591718 L37.0791444,9.59474726 C36.802409,11.1192279 35.6393993,12.2260864 34.3129915,12.2260864 C32.7531007,12.2260864 31.4835619,10.7328074 31.4835619,8.89711037 C31.4835619,8.1182692 31.7158434,7.36582942 32.1387561,6.77179801 L32.6441687,6.20376798 L27.2007706,0.0322417046 L22.2844114,5.60613639 L21.7477609,6.22976936 L22.2707949,6.78259858 C22.6889017,7.3750299 22.9183799,8.12346947 22.9183799,8.89711037 C22.9183799,10.7328074 21.6492415,12.2260864 20.0889502,12.2260864 C18.762943,12.2260864 17.5999333,11.1192279 17.3227973,9.59474726 L17.2198726,9.02591718 L7.53413228,6.55938678 L14.3347755,20.1789068 C9.58862257,21.3701698 5.01587985,23.2126672 0.769132282,25.6795976 L0.000200242718,26.1260212 L0.720273058,27.3996886 L1.24611044,27.3996886 C3.58054005,27.3996886 5.32465413,33.1591931 5.32465413,38.3090653 C5.32465413,44.6662014 3.18445995,49.0964356 1.26293083,49.0964356 L0.361838592,49.0964356 L0.361838592,49.9964832 C0.361838592,64.7784647 12.4020328,76.8039005 27.2011711,76.8039005 C42.00071,76.8039005 54.0405036,64.7784647 54.0405036,49.9964832 L54.0405036,49.0964356 L53.1394114,49.0964356 C51.2182828,49.0964356 49.0776881,44.6662014 49.0776881,38.3090653 Z" id="Fill-26" fill="#FEFEFE" mask="url(#mask-2)"></path>
                            <path d="M27.2330097,13.1135733 L28.1220874,14.0020203 L27.2330097,14.8900672 L26.3435316,14.0020203 L27.2330097,13.1135733 Z M26.2414078,15.8801196 L27.2330097,16.8701719 L28.2242112,15.8801196 L29.1132888,14.9916726 L30.1044903,14.0020203 L29.1132888,13.0119679 L28.2242112,12.1235209 L27.2330097,11.1338686 L26.2418083,12.1235209 L25.3527306,13.0119679 L24.3611286,14.0020203 L25.3523301,14.9916726 L26.2414078,15.8801196 Z" id="Fill-27" fill="#FEFEFE" mask="url(#mask-2)"></path>
                        </g>
                    </g>
                </g>
            </g>
        </g>
    </g>
</svg>