<?xml version="1.0" encoding="UTF-8" standalone="no"?>
<svg width="110px" height="156px" viewBox="0 0 110 156" version="1.1" xmlns="http://www.w3.org/2000/svg" xmlns:xlink="http://www.w3.org/1999/xlink">
    <!-- Generator: Sketch 50.2 (55047) - http://www.bohemiancoding.com/sketch -->
    <title>logo-duze</title>
    <desc>Created with Sketch.</desc>
    <defs></defs>
    <g id="Page-1" stroke="none" stroke-width="1" fill="none" fill-rule="evenodd">
        <g id="Krakowski-Kraft-Mockup" transform="translate(-665.000000, -249.000000)" fill="#FFFFFF">
            <g id="Parallax">
                <g id="Group-2" transform="translate(148.000000, 249.000000)">
                    <g id="Group-4">
                        <g id="logo-duze" transform="translate(517.000000, 0.000000)">
                            <g id="Group-6">
                                <g id="Logo">
                                    <g id="Group">
                                        <path d="M61.3897537,128.131629 C61.4862069,127.497337 61.540936,126.854379 61.540936,126.202754 L59.2542365,126.202754 L59.2558621,126.201671 L61.540936,126.201671 C61.540936,125.515921 61.4352709,124.856171 61.2396552,124.235962 C62.5190148,124.215379 63.7636946,123.971629 64.9260099,123.520421 C65.6949261,125.012171 66.0834483,126.669671 65.9951232,128.324462 C64.4773399,128.651629 62.8929064,128.568754 61.3897537,128.131629 Z M61.8330049,136.940754 C60.5639409,136.359546 59.4482266,135.478254 58.5481773,134.397629 C59.4373892,133.353837 60.1515764,132.160004 60.6582266,130.868671 C61.7430542,131.177962 62.8603941,131.342087 63.9782759,131.351296 C63.8661084,133.410171 63.1286207,135.387254 61.8330049,136.940754 Z M54.9869951,141.324462 C53.7531527,140.382504 52.7880788,139.120962 52.1448768,137.690421 C52.6298522,137.272796 53.083399,136.815629 53.5000985,136.326504 C53.7423153,136.502546 53.9899507,136.672087 54.2457143,136.828629 L54.9869951,137.283629 L55.7271921,136.829712 C55.9829557,136.672087 56.2300493,136.503087 56.4728079,136.326504 C56.8895074,136.816712 57.3430542,137.273879 57.8280296,137.690962 C57.1848276,139.120962 56.2202956,140.382504 54.9869951,141.324462 Z M48.1399015,136.940754 C46.8442857,135.387254 46.1089655,133.411796 45.9946305,131.351296 C47.1130542,131.342087 48.2314778,131.177962 49.3146798,130.868671 C49.8218719,132.158379 50.5376847,133.352212 51.4231034,134.397087 C50.5246798,135.478254 49.4100493,136.359546 48.1399015,136.940754 Z M44.8778325,123.851921 C45.8006404,124.107587 46.7640887,124.241921 47.7448768,124.241921 C48.0824631,124.241921 48.4189655,124.215379 48.7527586,124.185046 C48.5473892,124.821504 48.4319704,125.499129 48.4319704,126.202754 C48.4319704,126.853296 48.4866995,127.497337 48.5831527,128.130546 C47.08,128.568212 45.4939409,128.651629 43.9794089,128.324462 C43.8975862,126.791546 44.2210837,125.255379 44.8778325,123.851921 Z M48.7560099,115.258379 C49.0735468,115.105087 49.4100493,115.029796 49.7519704,114.994587 C48.9261576,116.090921 48.4319704,117.447796 48.4319704,118.922754 C48.4319704,119.745546 48.5121675,120.558587 48.6660591,121.349421 C47.185665,121.518421 45.6884729,121.286046 44.3820197,120.659337 C44.9065517,118.361046 46.5224138,116.341171 48.7560099,115.258379 Z M58.6668473,126.984379 C58.4484729,129.748504 57.1046305,132.292712 54.9869951,133.909046 C52.8682759,132.292712 51.5244335,129.748504 51.306601,126.984379 C52.135665,127.989171 53.1245813,128.860171 54.2457143,129.548087 L54.9869951,130.002546 L55.7261084,129.548087 C56.848867,128.860171 57.8372414,127.989171 58.6668473,126.984379 Z M54.9886207,115.198254 C57.0417734,115.198254 58.7112808,116.868212 58.7112808,118.919504 L61.540936,118.919504 C61.540936,117.694254 61.1973892,116.549712 60.6078325,115.567129 C62.5526108,116.698671 63.9500985,118.556587 64.4280296,120.659337 C63.4618719,121.123546 62.3895074,121.360796 61.299803,121.390587 C61.4574877,120.585129 61.540936,119.759629 61.540936,118.922754 L58.7112808,118.922754 C58.7112808,121.987504 57.3034975,124.861587 54.9869951,126.629587 C52.6694089,124.861046 51.2627094,121.985879 51.2627094,118.919504 C51.2627094,116.868212 52.9333005,115.198254 54.9886207,115.198254 Z M67.4782266,122.134296 L67.3915271,121.268712 C67.0246798,117.637921 64.6875862,114.358129 61.2884236,112.711462 C60.4940394,112.327962 59.6476355,112.134046 58.7708867,112.134046 C58.0111823,112.134046 57.2731527,112.294921 56.5898522,112.576046 C56.0761576,112.446587 55.5424138,112.369129 54.9886207,112.369129 C54.1774384,112.369129 53.4041872,112.524046 52.6867488,112.793796 C51.8782759,112.376171 50.9760591,112.134046 50.0397044,112.134046 C49.1618719,112.134046 48.3133005,112.329587 47.5221675,112.714171 C44.1251724,114.359754 41.7853695,117.637921 41.4196059,121.268712 L41.3323645,122.133754 L42.0649754,122.602296 L42.2768473,122.727421 C41.2835961,124.889212 40.9075369,127.300171 41.275468,129.654254 L41.4098522,130.512796 L42.235665,130.781462 C42.5358621,130.877879 42.8376847,130.963462 43.1405911,131.034962 C43.2012808,134.267629 44.4817241,137.386004 46.7716749,139.623629 L47.3926601,140.230837 L48.2157635,139.951337 C48.751133,139.769879 49.2691626,139.546171 49.7682266,139.291587 C50.7755665,141.319046 52.3096059,143.055629 54.2457143,144.244046 L54.9869951,144.699046 L55.7271921,144.244046 C57.6622167,143.055629 59.1973399,141.319587 60.2046798,139.291587 C60.7037438,139.546171 61.2217734,139.769879 61.7560591,139.951337 L62.5802463,140.230837 L63.2012315,139.623629 C65.4911823,137.386004 66.7727094,134.266546 66.8323153,131.035504 C67.1368473,130.963462 67.43867,130.878421 67.7372414,130.781462 L68.5646798,130.512796 L68.699064,129.654254 C69.0989655,127.094879 68.6221182,124.467796 67.4262069,122.167337 L67.4782266,122.134296 Z" id="Fill-1"></path>
                                        <path d="M86.949798,140.574092 L86.949798,103.5008 L85.5344286,103.5008 C79.5722118,103.5008 74.4325567,107.040592 72.07433,112.121425 C69.3292069,105.3793 62.7069901,100.613175 54.9885665,100.613175 C47.2690591,100.613175 40.6468424,105.380925 37.9017192,112.124675 C35.5440345,107.042217 30.4038374,103.5008 24.4405369,103.5008 L23.0251675,103.5008 L23.0251675,140.679175 C12.0213744,131.707008 4.84861576,118.209217 4.39290148,103.049592 C6.70127586,102.3373 8.75334483,100.291967 10.3881724,97.2645917 L99.4621626,97.2645917 C101.098074,100.291967 103.148517,102.3373 105.457433,103.049592 C105.002261,118.151258 97.8826059,131.603008 86.949798,140.574092 Z M84.1190591,142.733175 C80.8515714,145.052592 77.2979754,146.991758 73.5200443,148.491092 L73.5200443,118.338675 C73.5200443,112.195092 78.158468,107.1148 84.1190591,106.412258 L84.1190591,142.733175 Z M70.6893054,149.515383 C65.7252167,151.148508 60.4295025,152.045508 54.9246256,152.045508 C49.4663498,152.045508 44.2134433,151.164217 39.2851182,149.557092 L39.2851182,119.046092 L39.3788621,119.046092 C39.3788621,110.442258 46.3820148,103.4423 54.9885665,103.4423 C63.5956601,103.4423 70.5993547,110.442258 70.5993547,119.046092 L70.6893054,119.046092 L70.6893054,149.515383 Z M36.4549212,148.538758 C32.6802414,147.051342 29.1266453,145.125175 25.8553645,142.818758 L25.8553645,106.412258 C31.8164975,107.1148 36.4549212,112.195092 36.4549212,118.338675 L36.4549212,148.538758 Z M23.4266946,70.4168833 L24.2335419,68.3184667 C24.2335419,68.1213 26.5142808,67.96205 29.3271379,67.96205 C32.1416207,67.96205 34.4223596,68.1213 34.4223596,68.3184667 L35.2091576,70.4168833 L23.4266946,70.4168833 Z M27.0610296,84.5294667 C19.173,82.7029667 21.49167,75.4408417 21.49167,75.4408417 L22.3364483,73.2460083 L36.2723103,73.2460083 L37.0948719,75.4408417 C37.0948719,75.4408417 39.4119163,82.7029667 31.5260542,84.5294667 C31.5260542,84.5294667 28.7327044,85.159425 30.8622611,89.8935917 C30.8622611,89.8935917 34.2278276,90.2646333 34.353,91.470925 C34.353,91.470925 34.7664483,93.2134667 29.8229507,93.2134667 L28.7614236,93.2134667 C23.8163005,93.2134667 24.2335419,91.470925 24.2335419,91.470925 C24.3581724,90.2646333 27.7221133,89.8935917 27.7221133,89.8935917 C29.8532956,85.159425 27.0610296,84.5294667 27.0610296,84.5294667 Z M49.5563005,54.840175 C49.5124089,53.835925 49.5015714,52.6534667 49.6104877,51.863175 C49.9795025,51.6416333 51.2902906,51.0755917 55.0102414,51.053925 C58.6857586,51.0755917 59.9900443,51.6394667 60.3601429,51.859925 C60.4706847,52.662675 60.460931,53.8348417 60.4164975,54.840175 L49.5563005,54.840175 Z M51.4550197,82.653675 L49.74433,57.6693 L60.2300936,57.6693 L58.5166946,82.6618 C58.2322118,87.2118 58.9794532,88.88555 59.280734,89.361675 C60.1087143,90.7348 60.3438867,91.4768833 60.4099951,91.7720917 C59.8610788,92.1133417 58.1726059,92.6073417 55.6230985,92.6073417 L54.3502414,92.6073417 C51.8148227,92.6073417 50.1301429,92.1182167 49.570931,91.7785917 C49.643,91.46605 49.8852167,90.7147583 50.6953153,89.3568 C50.9965961,88.8763417 51.7405862,87.200425 51.4550197,82.653675 Z M75.4919163,70.4168833 L76.2998473,68.3184667 C76.2998473,68.1213 78.5800443,67.96205 81.3929015,67.96205 C84.2073842,67.96205 86.4881232,68.1213 86.4881232,68.3184667 L87.2754631,70.4168833 L75.4919163,70.4168833 Z M79.1262512,84.5294667 C71.2393054,82.7029667 73.5574335,75.4408417 73.5574335,75.4408417 L74.4027537,73.2460083 L88.3380739,73.2460083 L89.1606355,75.4408417 C89.1606355,75.4408417 91.4776798,82.7029667 83.5918177,84.5294667 C83.5918177,84.5294667 80.7990099,85.159425 82.9285665,89.8935917 C82.9285665,89.8935917 86.294133,90.2646333 86.4193054,91.470925 C86.4193054,91.470925 86.8327537,93.2134667 81.8892562,93.2134667 L80.8277291,93.2134667 C75.8826059,93.2134667 76.2998473,91.470925 76.2998473,91.470925 C76.423936,90.2646333 79.7884187,89.8935917 79.7884187,89.8935917 C81.9190591,85.159425 79.1262512,84.5294667 79.1262512,84.5294667 Z M6.65250739,53.6923833 C21.4380246,45.8138417 38.0453153,41.664675 54.9246256,41.664675 C71.8028522,41.664675 88.4117685,45.8143833 103.196744,53.6923833 C98.5897488,57.170425 95.4593547,66.4269667 95.4593547,77.8918833 C95.4593547,83.9358 96.3458571,89.355175 97.8663498,93.6273 L88.5987143,93.6273 C89.1232463,92.8429667 89.3578768,91.912925 89.2180739,91.0430083 C88.9162512,88.8763417 86.9004877,87.8672167 85.0353645,87.3981333 C85.0082709,87.2789667 84.9893054,87.1771333 84.978468,87.09155 C88.4767931,86.0813417 90.2319163,84.1188833 91.0967438,82.5973417 C93.1629015,78.9660083 91.997335,75.019425 91.8569901,74.580675 L91.836399,74.5135083 L91.8114729,74.4468833 L89.2505862,67.6262167 C88.8122118,65.496925 86.3163498,65.3219667 85.1935911,65.24505 C84.1678276,65.1724667 82.8174828,65.132925 81.3929015,65.132925 C79.9699458,65.132925 78.619601,65.1724667 77.5943793,65.24505 C76.4748719,65.3219667 73.9903892,65.4958417 73.5400936,67.6083417 L70.9168916,74.4241333 L70.8865468,74.5015917 L70.8616207,74.580675 C70.720734,75.019425 69.5551675,78.9660083 71.6213251,82.5973417 C72.4883202,84.1205083 74.245069,86.0867583 77.7401429,87.0920917 C77.7287635,87.1771333 77.709798,87.2795083 77.6827044,87.3981333 C75.8175813,87.8672167 73.8039852,88.8747167 73.5010788,91.0397583 C73.3585665,91.9113 73.5942808,92.8413417 74.1182709,93.6273 L62.6040345,93.6273 C62.9670887,93.251925 63.2044286,92.800175 63.2439852,92.254175 C63.3892069,91.29705 62.8695517,89.8285917 61.6947734,87.882925 L61.738665,87.9083833 L61.6725567,87.837425 C61.5679754,87.5763417 61.1274335,86.261175 61.3403892,82.8475917 L63.135069,56.682925 C63.1713744,56.2923833 63.4748227,52.82355 63.0667931,50.920675 C62.783936,49.7105917 61.1604877,48.2610917 54.9468424,48.2248 C48.8188128,48.26055 47.1921133,49.7089667 46.9000443,50.946675 C46.5006847,52.8240917 46.8035911,56.2923833 46.8366453,56.6493417 L48.6307833,82.8383833 C48.8616207,86.504925 48.3387143,87.7550917 48.2834433,87.876425 L48.2774828,87.8872583 C46.888665,90.2061333 46.6404877,91.5039667 46.7261034,92.2178833 C46.757532,92.7812167 46.9964975,93.2438 47.3655123,93.6273 L36.5324089,93.6273 C37.0569409,92.8429667 37.2921133,91.912925 37.1517685,91.0430083 C36.8499458,88.8763417 34.8341823,87.8672167 32.969601,87.3981333 C32.9425074,87.2789667 32.9235419,87.1771333 32.9121626,87.09155 C36.4104877,86.0813417 38.1656108,84.1188833 39.0309803,82.5973417 C41.0971379,78.9660083 39.9310296,75.019425 39.7906847,74.580675 L39.7706355,74.5135083 L39.7451675,74.4468833 L37.1848227,67.6262167 C36.7459064,65.496925 34.2500443,65.3219667 33.1272857,65.24505 C32.102064,65.1724667 30.7517192,65.132925 29.3271379,65.132925 C27.9041823,65.132925 26.5538374,65.1724667 25.5280739,65.24505 C24.4085665,65.3219667 21.9240837,65.4958417 21.47433,67.6083417 L18.8505862,74.4241333 L18.8207833,74.5015917 L18.7953153,74.580675 C18.6549704,75.019425 17.4877783,78.9660083 19.5550197,82.5973417 C20.4225567,84.1205083 22.1787635,86.0867583 25.6738374,87.0920917 C25.6624581,87.1771333 25.6434926,87.2795083 25.6169409,87.3981333 C23.7518177,87.8672167 21.7376798,88.8747167 21.4347734,91.0397583 C21.2922611,91.9113 21.5279754,92.8413417 22.0519655,93.6273 L11.9845271,93.6273 C13.5044778,89.355175 14.3904384,83.9358 14.3904384,77.8918833 C14.3904384,66.4269667 11.2611281,57.170425 6.65250739,53.6923833 Z M22.0172857,19.220175 L31.6756108,21.6815083 C32.9137882,25.8832167 36.4928522,28.8212167 40.5633941,28.8212167 C45.7198473,28.8212167 49.9166453,24.17155 49.9166453,18.456425 C49.9166453,16.5995917 49.4630985,14.7768833 48.623197,13.194675 L54.9246256,6.044675 L61.2249704,13.1952167 C60.385069,14.7768833 59.9336897,16.5985083 59.9336897,18.456425 C59.9336897,24.17155 64.1283202,28.8212167 69.2847734,28.8212167 C73.3569409,28.8212167 76.9370887,25.8832167 78.1758079,21.6815083 L87.8325074,19.220175 L77.2611281,40.4063833 C69.9518177,38.8409667 62.466399,38.0273833 54.9246256,38.0273833 C47.3844778,38.0273833 39.8963498,38.84205 32.588665,40.4063833 L22.0172857,19.220175 Z M99.0985665,77.8918833 C99.0985665,67.4848417 102.620734,55.84605 107.333936,55.84605 L108.366744,55.84605 L109.892655,53.296425 L108.300094,52.3707167 C99.7238867,47.384675 90.4887635,43.6618 80.9052167,41.2546333 L94.6378768,13.7320083 L75.0800936,18.716425 L74.8714729,19.8653 C74.312803,22.9473833 71.96433,25.183925 69.2847734,25.183925 C66.1359557,25.183925 63.5723596,22.1663 63.5723596,18.456425 C63.5723596,16.8823417 64.0416207,15.3618833 64.8945271,14.16155 L65.9164975,13.0137583 L54.9246256,0.541883333 L44.9964483,11.8058417 L43.9132463,13.0663 L44.9698966,14.182675 C45.8130493,15.3803 46.2774335,16.8926333 46.2774335,18.456425 C46.2774335,22.1663 43.7143793,25.183925 40.5633941,25.183925 C37.8860049,25.183925 35.537532,22.9473833 34.9783202,19.8653 L34.7696995,18.716425 L15.213,13.7320083 L28.9445764,41.2546333 C19.3610296,43.6618 10.127532,47.384675 1.55240887,52.370175 L-5.41871921e-05,53.27205 L1.45487192,55.84605 L2.51639901,55.84605 C7.22905911,55.84605 10.7512266,67.4848417 10.7512266,77.8918833 C10.7512266,90.73805 6.42979803,99.6907167 2.5494532,99.6907167 L0.729847291,99.6907167 L0.729847291,101.510175 C0.729847291,131.381467 25.0420148,155.683342 54.9246256,155.683342 C84.8077783,155.683342 109.119946,131.381467 109.119946,101.510175 L109.119946,99.6907167 L107.300882,99.6907167 C103.421079,99.6907167 99.0985665,90.73805 99.0985665,77.8918833 Z" id="Fill-3"></path>
                                        <path d="M54.9899212,26.9770042 L56.7840591,28.7720875 L54.9899212,30.5671708 L53.1941576,28.7720875 L54.9899212,26.9770042 Z M52.9871626,32.5675458 L54.9899212,34.5679208 L56.9905123,32.5675458 L58.7868177,30.7724625 L60.7879507,28.7720875 L58.7868177,26.7717125 L56.9905123,24.9766292 L54.9899212,22.9757125 L52.9887882,24.9766292 L51.1924828,26.7717125 L49.190266,28.7720875 L51.1908571,30.7724625 L52.9871626,32.5675458 Z" id="Fill-6"></path>
                                    </g>
                                </g>
                            </g>
                        </g>
                    </g>
                </g>
            </g>
        </g>
    </g>
</svg>