<?xml version="1.0" encoding="UTF-8" standalone="no"?>
<svg width="28px" height="22px" viewBox="0 0 28 22" version="1.1" xmlns="http://www.w3.org/2000/svg" xmlns:xlink="http://www.w3.org/1999/xlink">
    <!-- Generator: Sketch 50.2 (55047) - http://www.bohemiancoding.com/sketch -->
    <title>mail</title>
    <desc>Created with Sketch.</desc>
    <defs></defs>
    <g id="Page-1" stroke="none" stroke-width="1" fill="none" fill-rule="evenodd">
        <g id="Krakowski-Kraft-Mockup" transform="translate(-821.000000, -3194.000000)" fill="#AE8750">
            <g id="Stopka" transform="translate(0.000000, 3067.000000)">
                <g id="Mail" transform="translate(821.000000, 127.000000)">
                    <g id="mail">
                        <g id="Mail">
                            <path d="M5.13565563,2.40603001 C3.52513734,2.44459662 2.24,3.737935 2.24,5.32016413 L2.24,16.6746245 C2.24,18.2580353 3.52698956,19.551887 5.13875078,19.5888312 L14.2705186,19.8006572 L22.8645416,19.5942972 C24.4749807,19.5556273 25.76,18.2623216 25.76,16.6801678 L25.76,5.32507106 C25.76,3.74172925 24.4731186,2.44790751 22.8614299,2.41086855 L13.7666402,2.19934636 L5.13565563,2.40603001 Z M5.08105595,0.206683653 L13.7120405,0 L22.91383,0.211470584 C25.7418875,0.27646348 28,2.54675437 28,5.32507106 L28,16.6801678 C28,19.4563999 25.7451548,21.7257852 22.9192902,21.79364 L14.3252671,22 L5.08648707,21.7882323 C2.25830238,21.7234057 1.61786915e-14,19.4530623 1.70885528e-14,16.6746245 L1.50990331e-14,5.32016413 C1.47528446e-14,2.54379989 2.25505224,0.274357135 5.08105595,0.206683653 Z" id="Rectangle-6" fill-rule="nonzero"></path>
                            <path d="M1.71360767,2.75339639 L3.28639233,1.18690212 L9.86611998,7.55922388 C11.8994824,9.5284907 15.138168,9.61520046 17.2777456,7.75765632 L24.8932724,1.14598821 L26.3768281,2.79431029 L18.7613013,9.4059784 C15.7394236,12.0295201 11.1651976,11.9070537 8.29333532,9.12571815 L1.71360767,2.75339639 Z" id="Path-4"></path>
                        </g>
                    </g>
                </g>
            </g>
        </g>
    </g>
</svg>