<?xml version="1.0" encoding="UTF-8" standalone="no"?>
<svg width="13px" height="17px" viewBox="0 0 13 17" version="1.1" xmlns="http://www.w3.org/2000/svg" xmlns:xlink="http://www.w3.org/1999/xlink">
    <!-- Generator: Sketch 50.2 (55047) - http://www.bohemiancoding.com/sketch -->
    <title>szyszka</title>
    <desc>Created with Sketch.</desc>
    <defs></defs>
    <g id="Page-1" stroke="none" stroke-width="1" fill="none" fill-rule="evenodd">
        <g id="Krakowski-Kraft-Mockup" transform="translate(-713.000000, -2941.000000)" fill="#AE8750">
            <g id="O-Nas" transform="translate(-2.000000, 2469.000000)">
                <g id="szyszka" transform="translate(715.000000, 471.000000)">
                    <g>
                        <path d="M0.459594759,8.02773576 C0.852213229,4.86155449 2.68333381,3.01698956 5.95295649,2.49404097 C5.95295649,2.0081941 5.95295649,1.70200319 5.95295649,1.57546824 C6.01951412,1.16454831 6.18313073,0.95908835 6.44380634,0.95908835 C6.70448194,0.95908835 6.88980168,1.16454831 6.99976557,1.57546824 L6.99976557,2.49404097 C10.1192049,2.89951114 11.9528569,4.74407607 12.5007219,8.02773576 C11.5090711,8.02773576 9.92398496,7.38521994 8.89849096,6.4062524 C8.58969554,6.99905039 7.80064035,8.29465275 6.48015831,8.94430223 C5.63883498,8.24697907 5.75241051,8.70376685 3.99511279,6.4062524 C2.87716075,7.40943919 1.69865474,7.94993365 0.459594759,8.02773576 Z" id="Path-2"></path>
                        <path d="M3.82468575,7.83907592 C4.18606244,8.49841311 4.75349396,8.86157438 4.98918549,9.12441697 C4.98918549,9.45622068 3.61136516,11.3131997 2.03418217,11.907846 C1.48663593,10.7566669 1.2286372,10.5288147 1.2286372,8.86157438 C2.77140336,8.49841311 2.8771395,8.26877639 3.82468575,7.83907592 Z" id="Path-3"></path>
                        <path d="M3.95037091,11.8939518 C4.25859272,12.6017913 4.68140982,13.2800152 5.21882221,13.9286237 C4.79600511,14.5311731 4.19791713,15.0204019 3.42455827,15.3963102 C2.87099971,14.6638691 2.56462621,13.7896392 2.50543776,12.7736204 C2.87161581,12.60723 3.3532602,12.3140071 3.95037091,11.8939518 Z" id="Path-5"></path>
                        <path d="M10.5960486,8 C10.9574252,8.65933719 11.5248568,9.02249845 11.7605483,9.28534104 C11.7605483,9.61714475 10.382728,11.4741238 8.80554497,12.0687701 C8.25799874,10.917591 8,10.6897388 8,9.02249845 C9.54276617,8.65933719 9.64850231,8.42970047 10.5960486,8 Z" id="Path-3-Copy" transform="translate(9.880274, 10.034385) scale(-1, 1) translate(-9.880274, -10.034385) "></path>
                        <path d="M9.34495756,11.8999023 C9.65317937,12.6077418 10.0759965,13.2859657 10.6134089,13.9345742 C10.1905918,14.5371236 9.59250378,15.0263525 8.81914492,15.4022607 C8.26558636,14.6698196 7.95921286,13.7955897 7.90002441,12.779571 C8.26620246,12.6131805 8.74784685,12.3199576 9.34495756,11.8999023 Z" id="Path-5-Copy" transform="translate(9.256717, 13.651082) scale(-1, 1) translate(-9.256717, -13.651082) "></path>
                        <path d="M6.51193891,15.1394587 C6.21521273,15.1394587 5.9112378,14.6433465 5.9112378,14.6433465 C5.9112378,14.6433465 5.5812824,14.975915 4.92137159,15.6410521 C5.25580968,16.4568159 5.78599878,17.2047233 6.51193891,17.8847743 C7.13394871,17.237398 7.67337937,16.4894906 8.13023089,15.6410521 L7.07752211,14.6433465 C6.89141062,14.9740879 6.70288289,15.1394587 6.51193891,15.1394587 Z" id="Path-6"></path>
                        <path d="M6.50951698,10.1183622 C6.19042175,10.1183622 6.13629538,9.54157299 5.86891785,9.71530291 C5.51400128,10.354296 5.19168309,10.6002028 4.76018368,11.2635469 C4.82422887,11.5348497 5.86891785,13.4425816 6.50951698,13.8776995 C7.12347495,13.3332126 8.22870126,11.5251961 8.22870126,11.2260104 C8.17339663,11.0237003 7.84754904,10.8723126 7.20610171,9.79640937 C6.95814768,9.4386267 6.8177003,10.1183622 6.50951698,10.1183622 Z" id="Path-7"></path>
                    </g>
                </g>
            </g>
        </g>
    </g>
</svg>