<?xml version="1.0" encoding="UTF-8" standalone="no"?>
<svg width="72px" height="24px" viewBox="0 0 72 24" version="1.1" xmlns="http://www.w3.org/2000/svg" xmlns:xlink="http://www.w3.org/1999/xlink">
    <!-- Generator: Sketch 48.1 (47250) - http://www.bohemiancoding.com/sketch -->
    <title>Page 1</title>
    <desc>Created with Sketch.</desc>
    <defs>
        <polygon id="path-1" points="0.00025709133 0.0254685404 12.9985777 0.0254685404 12.9985777 12.9870372 0.00025709133 12.9870372"></polygon>
    </defs>
    <g id="Desktop-HD-Copy-13" stroke="none" stroke-width="1" fill="none" fill-rule="evenodd" transform="translate(-987.000000, -3212.000000)">
        <g id="Page-1" transform="translate(987.000000, 3212.000000)">
            <path d="M46.1383487,11.8230998 C46.1118244,10.8452924 45.9780943,10.1411443 45.6780827,9.4727418 C45.3941335,8.84014198 44.970342,8.33610636 44.3713708,7.97753701 C43.790651,7.62990262 43.155319,7.50128131 42.4958792,7.50647756 C41.5324763,7.51398641 40.7462146,7.92311921 40.11853,8.65179243 C39.8559879,8.95654354 39.6554496,9.29938141 39.4879457,9.66266164 C39.3083311,10.0522371 39.165987,10.4584007 39.1149569,10.8837218 C38.9888172,11.9355328 39.1157813,12.9502278 39.6323936,13.8925751 C39.947501,14.467331 40.3669998,14.9464418 40.9241803,15.3000433 C41.5092213,15.6713749 42.1502675,15.7725303 42.827646,15.7282481 C43.9618222,15.6541017 44.8593266,15.1707368 45.4584116,14.1855919 C45.9446901,13.3859414 46.1247028,12.5010668 46.1383487,11.8230998 M46.2290089,17.1850235 C45.9304188,17.341853 45.6901935,17.4712737 45.4471537,17.5950414 C44.7549637,17.9475579 44.0172303,18.1455862 43.248879,18.2309245 C42.2461018,18.3422726 41.2663521,18.238776 40.3101417,17.90713 C38.4430367,17.2595696 37.1437732,16.0224354 36.4440211,14.1624657 C36.1709034,13.4365048 36.0321697,12.685562 36.0051337,11.9070106 C35.9644802,10.736 36.1635118,9.61698038 36.6652273,8.55943063 C37.2724714,7.27952734 38.2129037,6.31533867 39.4777113,5.68784944 C40.1932984,5.33290604 40.947549,5.10761177 41.7551893,5.03654886 C42.5857434,4.96345884 43.403874,4.99232369 44.207051,5.19332124 C45.0593249,5.40665273 45.8415496,5.78752025 46.5415861,6.3289574 C47.5390754,7.10048535 48.2302704,8.09213988 48.6252634,9.28747573 C48.8616792,10.002987 48.9915146,10.7432519 48.9935046,11.4989341 C48.999162,13.6875234 49.0054732,15.8761697 48.9917989,18.0646733 C48.9865111,18.9116039 48.8969596,19.7543089 48.6391367,20.5682062 C48.2877539,21.6772902 47.6479302,22.567104 46.6549326,23.1887403 C45.8531771,23.6906632 44.9615006,23.89266 44.0377845,23.9559 C42.9319806,24.0315882 41.8248688,24.0074913 40.7204863,23.9017106 C40.6262725,23.89266 40.530751,23.8953153 40.4371057,23.8829813 C40.1655801,23.8472928 40.0799234,23.7565013 40.0500161,23.4804438 C40.0448989,23.4332493 40.0448989,23.3853982 40.0448136,23.3378611 C40.0439891,22.843076 40.0390993,22.3482051 40.0443871,21.8534485 C40.0498739,21.3391632 40.1696739,21.2346958 40.6846373,21.3007909 C41.4371822,21.3973782 42.1919729,21.4544513 42.950431,21.4300974 C43.6351726,21.4081704 44.3029137,21.3125824 44.928665,20.9951547 C45.6934628,20.6071781 46.1322933,19.9944211 46.2208213,19.147205 C46.2680419,18.6950461 46.2544244,18.2364634 46.2678429,17.7807642 C46.270629,17.68589 46.2771108,17.5906731 46.2716808,17.4961985 C46.2665636,17.4069488 46.2479995,17.3184699 46.2290089,17.1850235" id="Fill-1" fill="#FF5800"></path>
            <path d="M6.41965956,15.709021 L6.41965956,15.7104689 C6.9687953,15.7104689 7.517904,15.7123901 8.0670127,15.7095222 C8.28979827,15.7083528 8.32008348,15.681539 8.32962873,15.4578125 C8.33906581,15.2357567 8.33327917,15.0130047 8.33330622,14.7905591 C8.33346846,13.9562974 8.33595617,13.1220078 8.331819,12.2877739 C8.33038586,11.996136 8.3027506,11.973276 8.01925941,11.9718003 C7.46114627,11.9689324 6.90289793,11.962222 6.34489295,11.9704638 C5.85048691,11.9777868 5.3550263,11.9860007 4.86240493,12.0254278 C4.34174269,12.0670825 3.8564763,12.2406898 3.45314221,12.5944755 C3.0024334,12.9897767 2.77478056,13.5034148 2.8023347,14.1136159 C2.83586475,14.8568835 3.39543807,15.3803227 4.0567102,15.5754534 C4.35512767,15.6634961 4.67612385,15.6901706 4.98854823,15.7036471 C5.46481018,15.7241682 5.94253232,15.709021 6.41965956,15.709021 M10.979206,13.8734058 C10.979206,15.0242259 10.9800713,16.1750459 10.9779351,17.325866 C10.9777187,17.4455116 10.9727974,17.5681366 10.9474065,17.6841346 C10.9016812,17.8933266 10.814449,17.9640503 10.6098616,17.9757726 C10.4030839,17.9876342 10.1959277,17.9977694 9.9889337,17.99802 C8.45674548,17.9998577 6.92453022,18.0015005 5.39231496,17.9976859 C4.86989511,17.996405 4.34566355,18.0042849 3.825461,17.9639111 C2.93394015,17.8947745 2.0813304,17.6696558 1.35275479,17.1036152 C0.815246412,16.6860389 0.422160622,16.1434987 0.225550126,15.4767743 C-0.107830538,14.346336 -0.0914711165,13.2257545 0.408261874,12.1426789 C0.656519468,11.6046216 1.03878911,11.177801 1.51294192,10.8367399 C2.52103378,10.1115432 3.65375468,9.79896649 4.86867829,9.77023149 C5.92203572,9.74528328 6.97566355,9.73397861 8.02918323,9.71677103 C8.30540056,9.7122603 8.34763761,9.66876798 8.31459428,9.39057865 C8.27638625,9.06856288 8.23152628,8.75027819 8.08467006,8.45240316 C7.84622812,7.96858594 7.47761386,7.65904427 6.97771862,7.50392539 C6.306739,7.2957637 5.62632229,7.31770477 4.94328266,7.41354379 C3.96358318,7.55106527 3.07928212,7.95597261 2.22423873,8.44413349 C1.95488965,8.59788802 1.73007605,8.47478973 1.71304062,8.16276995 C1.68272837,7.60772779 1.66804545,7.05173895 1.6357863,6.49680817 C1.62337477,6.28291062 1.7027112,6.15026184 1.88280003,6.0503019 C2.43964228,5.74126143 3.0205234,5.49924144 3.62963467,5.3216803 C4.18628763,5.15943335 4.75224248,5.05822044 5.32744513,5.02163343 C6.0300079,4.97691598 6.73100233,4.99498673 7.42537187,5.13802132 C7.97529178,5.25129069 8.50125392,5.42147317 9.00050019,5.69517962 C9.74667907,6.10429141 10.2365964,6.73523628 10.5370689,7.52558802 C10.8013344,8.22076898 10.9289109,8.94905646 10.9373204,9.69967482 C10.9528957,11.0908721 10.9785299,12.4819858 11,13.8730995 C10.9930777,13.873183 10.9861553,13.8732944 10.979206,13.8734058" id="Fill-3" fill="#FF5800"></path>
            <path d="M29.0274651,10.2516449 L29.0274651,10.2527331 C29.8952022,10.2527331 30.7629114,10.2532074 31.6306765,10.2525099 C31.9415232,10.2522588 31.9505166,10.2331739 31.9619475,9.91855232 C31.9738266,9.59290952 31.8706126,9.29355029 31.7576768,9.00060849 C31.601427,8.59544535 31.340058,8.25674447 30.9805461,8.0088084 C30.6261332,7.76438796 30.2406217,7.59340526 29.8067531,7.51639608 C29.2023461,7.40908547 28.6163181,7.45799745 28.0490895,7.66860082 C27.2404958,7.9687971 26.662929,8.52295627 26.3520823,9.3293763 C26.2631008,9.56023642 26.2223644,9.81043255 26.1703091,10.0540996 C26.1437211,10.1785141 26.2125865,10.2468458 26.3403712,10.2514775 C26.3869352,10.2531795 26.4336393,10.2516449 26.4802593,10.2516449 L29.0274651,10.2516449 Z M30.4836677,12.481256 C29.1485538,12.481256 27.8134399,12.4812281 26.4783541,12.4813397 C26.4316781,12.4813397 26.384974,12.4825115 26.338298,12.4829859 C26.2074594,12.4842694 26.1388182,12.5587674 26.1652381,12.6785501 C26.2228687,12.9402976 26.2688723,13.2105552 26.3721984,13.4553105 C26.749557,14.3495098 27.4151808,14.9518276 28.321301,15.3009638 C29.1847796,15.6336378 30.0757427,15.6154458 30.9711324,15.5114276 C31.904457,15.402973 32.755412,15.0576873 33.5540037,14.5746221 C33.6096731,14.5409446 33.6667434,14.5067648 33.7275399,14.4849176 C33.8922508,14.425654 34.0239579,14.489912 34.0733516,14.6607831 C34.0987628,14.7488693 34.1095213,14.8438752 34.1100256,14.9358398 C34.1130234,15.465836 34.1110342,15.9958879 34.1105579,16.5259399 C34.1105579,16.5538138 34.1062713,16.581911 34.1084567,16.6095339 C34.1335317,16.9298753 33.9389549,17.0959473 33.6830492,17.2276162 C32.97851,17.5901174 32.229144,17.7908156 31.4445047,17.8920994 C30.7575882,17.9807437 30.0705035,18.0177416 29.3796366,17.9919602 C28.7430383,17.9682157 28.118291,17.8664855 27.505479,17.6912338 C26.7450743,17.4737387 26.0442334,17.1377443 25.410913,16.6633566 C24.9375407,16.3087795 24.5248809,15.8935717 24.1850928,15.412069 C23.6356548,14.6334951 23.2823626,13.7708528 23.1196129,12.8324569 C22.9576196,11.8983858 22.9538653,10.9656539 23.1471254,10.0344846 C23.3854646,8.88601549 23.8583886,7.84653108 24.621707,6.95037862 C25.2828201,6.17420422 26.1101009,5.64072035 27.0868796,5.33112113 C28.3559298,4.92888768 29.6431068,4.90146013 30.9251568,5.20349795 C32.13921,5.48952008 33.1182019,6.15810484 33.8144201,7.20662945 C34.3909223,8.07482423 34.7020772,9.03763428 34.8683851,10.0598195 C34.9719913,10.6964845 35.0100942,11.3328426 34.9977668,11.9751159 C34.9895859,12.4010102 34.8983911,12.4932259 34.4613286,12.4935886 C33.1354323,12.4946489 31.809564,12.4939513 30.4836677,12.4939513 L30.4836677,12.481256 Z" id="Fill-5" fill="#FF5800"></path>
            <g id="Group-9" transform="translate(59.000000, 5.000000)">
                <mask id="mask-2" fill="white">
                    <use xlink:href="#path-1"></use>
                </mask>
                <g id="Clip-8"></g>
                <path d="M9.92827637,6.52289058 C9.95461772,5.9066015 9.82091969,5.3227985 9.58088906,4.7597621 C9.16312538,3.77975139 8.52564179,3.01723319 7.45955646,2.65526531 C6.53174902,2.34025889 5.66848643,2.47134454 4.85557396,2.97480921 C4.19553239,3.38362719 3.74505536,3.96545375 3.44397877,4.66895696 C2.85755646,6.03916253 2.9245477,7.38570642 3.6159372,8.69375139 C4.00343392,9.42692912 4.56940328,10.0071968 5.38265711,10.3032739 C6.1568256,10.5850983 6.93426543,10.6083981 7.7006965,10.2687278 C8.14477309,10.0719741 8.53127418,9.79813897 8.8509547,9.4336379 C9.58657834,8.59495696 9.90551926,7.61104904 9.92827637,6.52289058 M12.9985805,6.51395482 C12.9940291,7.83778351 12.6589022,9.06894197 11.9415411,10.1893638 C11.4407709,10.971563 10.7625521,11.5880747 9.95487374,12.0621989 C8.78347987,12.7498071 7.50239672,13.0397043 6.14755208,12.9792418 C5.40015164,12.9458927 4.67195252,12.7833231 3.96855864,12.5095158 C3.24567899,12.2280812 2.60301816,11.8332375 2.03044923,11.3245394 C1.52851269,10.8786143 1.11848643,10.3619548 0.803243545,9.77264004 C0.15202035,8.55526103 -0.0830606127,7.25406403 0.0258321663,5.89641306 C0.139987527,4.47284347 0.629066302,3.18319893 1.60514726,2.10116467 C2.45745799,1.15634026 3.53295908,0.550406638 4.77245361,0.239687152 C5.91059365,-0.0456447537 7.06432232,-0.0431672377 8.2045105,0.230556531 C9.00089562,0.421742827 9.72952144,0.771350964 10.4037578,1.23787559 C11.2283048,1.80842805 11.8425477,2.54864861 12.2881604,3.42137452 C12.6241123,4.07933597 12.8354405,4.78331242 12.9203814,5.51729743 C12.9586702,5.84817109 12.9732348,6.18166146 12.9985805,6.51395482" id="Fill-7" fill="#FF5800" mask="url(#mask-2)"></path>
            </g>
            <path d="M18.0001038,8.98244435 C18.0001038,6.18707699 17.9997198,3.39168221 18.0004287,0.596314849 C18.0005764,0.0601145067 18.0612177,0.00379497164 18.6460676,0.00124620436 C19.22693,-0.00130256292 19.8078513,0.000615864069 20.3887432,0.00206838736 C20.4870453,0.00231504226 20.5875626,-0.000590004322 20.6831472,0.0165662141 C20.9123907,0.0577575821 20.9820114,0.131644427 20.9914931,0.35113988 C21.0009747,0.570059805 20.9966031,0.789527852 20.9966622,1.00874924 C20.9979323,6.48985958 20.9989957,11.9709973 21,17.4521076 C21,17.4977662 20.9998228,17.5434796 20.9975779,17.5890833 C20.9826317,17.8905778 20.8942544,17.9744953 20.5639914,17.9798395 C19.94408,17.9898701 19.3240505,17.9961187 18.70408,17.9999556 C18.5765945,18.0007504 18.4479571,17.9908293 18.3216531,17.9742487 C18.1221543,17.9480758 18.0283716,17.8555528 18.006868,17.6698217 C17.997475,17.588453 18.0011967,17.5055769 18.0011672,17.4233861 C18.0009309,14.6097388 18.00099,11.7960916 18.00099,8.98244435 L18.0001038,8.98244435 Z" id="Fill-10" fill="#FF5800"></path>
            <path d="M15.9993126,8.97789296 C15.9993126,11.7722012 15.9993126,14.5664821 15.9992543,17.3607904 C15.9992543,17.4155748 16.0003329,17.4704415 15.9975053,17.5251163 C15.9792572,17.8753367 15.8748991,17.9736417 15.5011048,17.9796436 C14.9090329,17.9891261 14.3168736,17.9985263 13.7247435,17.9999788 C13.0886547,18.0015409 13.0029819,17.9180351 13.0029528,17.3198185 C13.0026904,11.8955827 13.0029819,6.47137432 13.0032443,1.04713851 C13.0032734,0.846280477 12.9934498,0.644709887 13.00785,0.44472884 C13.0302083,0.134603375 13.1573036,0.011276705 13.4817174,0.00697397452 C14.1711804,-0.00220701089 14.8609058,-0.00176851607 15.5504562,0.00505555965 C15.8571757,0.00809761751 15.9701623,0.119119026 15.9918793,0.403455515 C16.0015863,0.530756044 15.9997207,0.658988374 15.9997207,0.78678221 C16.0000997,3.51715246 15.9999831,6.24752271 15.9999831,8.97789296 L15.9993126,8.97789296 Z" id="Fill-12" fill="#FF5800"></path>
            <path d="M51.0048364,13.7232048 C51.0048364,12.5354704 50.9919669,11.3475131 51.0082146,10.1600292 C51.026795,8.80309579 51.4907951,7.64081355 52.4237284,6.66803083 C52.9631492,6.10557512 53.569867,5.67347168 54.2713634,5.37862659 C55.1523628,5.00837156 56.0708716,4.94095373 57.0069956,5.04292981 C57.2198522,5.06612644 57.4325479,5.09085466 57.644761,5.11934225 C57.8266771,5.143792 57.9334942,5.25590442 57.9650782,5.44206228 C57.980468,5.53298306 57.9960991,5.62537974 57.9967426,5.71721947 C58.0000672,6.19969831 58.0014614,6.68223285 57.9979491,7.1647117 C57.9950802,7.56364924 57.8360075,7.70243918 57.458421,7.64596527 C57.246342,7.61424742 57.0348796,7.57782341 56.8223447,7.5501434 C56.2508037,7.47568025 55.6977894,7.56220119 55.1723642,7.79881799 C54.6438557,8.036855 54.2631859,8.44247585 54.0272982,8.98889163 C53.8229676,9.46223663 53.7523461,9.96248192 53.7528287,10.478795 C53.7550809,12.7707505 53.7532845,15.0627339 53.7529092,17.3546894 C53.7529092,17.3825086 53.7529628,17.4103557 53.7526947,17.4382028 C53.7483244,17.9023304 53.6440544,17.9968713 53.1878565,17.9870135 C52.8846183,17.9804694 52.5809243,18.0009927 52.2774716,17.9999624 C51.9739921,17.9989599 51.6704322,17.9894919 51.3671404,17.9775176 C51.1272309,17.9680774 51.0322378,17.8702227 51.0099842,17.6203229 C51.0034154,17.5466673 51.00674,17.4719814 51.0067132,17.397741 C51.0065523,16.1729142 51.006606,14.9480317 51.006606,13.7232048 L51.0048364,13.7232048 Z" id="Fill-14" fill="#FF5800"></path>
        </g>
    </g>
</svg>