<?xml version="1.0" encoding="UTF-8" standalone="no"?>
<svg width="21px" height="21px" viewBox="0 0 21 21" version="1.1" xmlns="http://www.w3.org/2000/svg" xmlns:xlink="http://www.w3.org/1999/xlink">
    <!-- Generator: Sketch 48.1 (47250) - http://www.bohemiancoding.com/sketch -->
    <title>Fill 1</title>
    <desc>Created with Sketch.</desc>
    <defs></defs>
    <g id="Desktop-HD-Copy-13" stroke="none" stroke-width="1" fill="none" fill-rule="evenodd" transform="translate(-934.000000, -3212.000000)">
        <g id="Page-1" transform="translate(934.000000, 3212.000000)" fill="#0069B3">
            <path d="M13.1112543,10.8696528 L11.4029848,10.8696528 L11.4029848,16.9583501 L8.87208974,16.9583501 L8.87208974,10.8696528 L7.66839201,10.8696528 L7.66839201,8.7177153 L8.87208974,8.7177153 L8.87208974,7.32580762 C8.87208974,6.32892935 9.34578668,4.77122775 11.4266696,4.77122775 L13.3020019,4.77841779 L13.3020019,6.86733666 L11.9405462,6.86733666 C11.7189237,6.86733666 11.4038307,6.97814791 11.4038307,7.45353661 L11.4038307,8.71813824 L13.3324539,8.71813824 L13.1112543,10.8696528 Z M10.5,0 C4.7107468,0 0,4.71032385 0,10.5 C0,16.2892532 4.7107468,21 10.5,21 C16.2896761,21 21,16.2892532 21,10.5 C21,4.71032385 16.290522,0 10.5,0 Z" id="Fill-1"></path>
        </g>
    </g>
</svg>