<?xml version="1.0" encoding="UTF-8" standalone="no"?>
<svg width="228px" height="66px" viewBox="0 0 228 66" version="1.1" xmlns="http://www.w3.org/2000/svg" xmlns:xlink="http://www.w3.org/1999/xlink">
    <!-- Generator: Sketch 50.2 (55047) - http://www.bohemiancoding.com/sketch -->
    <title>Rectangle 5</title>
    <desc>Created with Sketch.</desc>
    <defs>
        <linearGradient x1="-0.937944523%" y1="50%" x2="100%" y2="50%" id="linearGradient-1">
            <stop stop-color="#EACBAB" offset="0%"></stop>
            <stop stop-color="#FDF7EA" offset="100%"></stop>
        </linearGradient>
    </defs>
    <g id="Page-1" stroke="none" stroke-width="1" fill="none" fill-rule="evenodd">
        <path d="M1.00393964,1.00013086 C1.09413028,12.3756391 2.73263482,21.2292017 5.89442719,27.5527864 L6.21676051,28.197453 L5.70710678,28.7071068 C3.41544011,30.9987734 3.41544011,30.9987734 1.95710678,32.4571068 C1.67383145,32.7403821 1.53061996,32.8835936 1.41414799,33.0000656 C1.53063067,33.1165553 1.67384268,33.2597914 1.95716612,33.5431624 C3.41549945,35.0017405 3.41549945,35.0017405 5.70716612,37.2937918 L6.21675003,37.8034612 L5.89441218,38.4480829 C2.73263232,44.7711119 1.09413028,53.6243862 1.00393965,64.9998691 C66.0319698,64.9828787 102.140647,63.3116425 108.552786,60.1055728 L109.197453,59.7832395 L109.707107,60.2928932 C112.76216,63.3479462 112.830541,63.4163276 114,64.5857864 C114.650102,63.9356844 115.897897,62.6878896 118.292893,60.2928932 L118.802547,59.7832395 L119.447214,60.1055728 C125.859353,63.3116425 161.96803,64.9828787 226.99606,64.9998691 C226.90587,53.6243609 225.267365,44.7707983 222.105573,38.4472136 L221.783239,37.802547 L222.292893,37.2928932 C224.58456,35.0012266 224.58456,35.0012266 226.042893,33.5428932 C226.326115,33.259671 226.469326,33.1164602 226.585786,33 C226.469326,32.8835398 226.326115,32.740329 226.042893,32.4571068 C224.58456,30.9987734 224.58456,30.9987734 222.292893,28.7071068 L221.783239,28.197453 L222.105573,27.5527864 C225.267365,21.2292017 226.90587,12.3756391 226.99606,1.00013086 C161.96803,1.01712135 125.859353,2.68835755 119.447214,5.89442719 L118.802547,6.21676051 L118.292893,5.70710678 C115.458305,2.87251895 114.552091,1.96630428 114,1.41421356 C113.447909,1.96630428 112.541695,2.87251895 109.707107,5.70710678 L109.197453,6.21676051 L108.552786,5.89442719 C102.140647,2.68835755 66.0319698,1.01712135 1.00393964,1.00013086 Z M114.658893,65.2928932 C114.632761,65.3672388 114.477825,65.5221754 114,66 L114.707107,65.2928932 L114.658893,65.2928932 Z" id="Rectangle-5" stroke="url(#linearGradient-1)" stroke-width="2"></path>
    </g>
</svg>