<?xml version="1.0" encoding="UTF-8" standalone="no"?>
<svg width="228px" height="66px" viewBox="0 0 228 66" version="1.1" xmlns="http://www.w3.org/2000/svg" xmlns:xlink="http://www.w3.org/1999/xlink">
    <!-- Generator: Sketch 50.2 (55047) - http://www.bohemiancoding.com/sketch -->
    <title>Rectangle 5 Copy 3</title>
    <desc>Created with Sketch.</desc>
    <defs>
        <linearGradient x1="-0.937944523%" y1="50%" x2="100%" y2="50%" id="linearGradient-1">
            <stop stop-color="#EACBAB" offset="0%"></stop>
            <stop stop-color="#FDF7EA" offset="100%"></stop>
        </linearGradient>
    </defs>
    <g id="Page-1" stroke="none" stroke-width="1" fill="none" fill-rule="evenodd">
        <path d="M0,0 C66,1.2126596e-12 102.333333,1.66666667 109,5 C112.333333,1.66666667 114,6.06329801e-13 114,0 C114,0 115.666667,1.66666667 119,5 C125.666667,1.66666667 162,3.1328759e-13 228,0 C228,12 226.333333,21.3333333 223,28 C226.333333,31.3333333 228,33 228,33 C228,33 226.333333,34.6666667 223,38 C226.333333,44.6666667 228,54 228,66 C162,66 125.666667,64.3333333 119,61 C114,66 114,66 114,66 C114,66 114,66 109,61 C102.333333,64.3333333 66,66 0,66 C4.8507435e-12,54 1.66666667,44.6669464 5,38.0008392 C1.66666667,34.6669464 0,33 0,33 C1.37646079e-13,33 1.66666667,31.3333333 5,28 C1.66666667,21.3333333 4.85063841e-12,12 0,0 Z" id="Rectangle-5-Copy-3" fill="url(#linearGradient-1)"></path>
    </g>
</svg>