<?xml version="1.0" encoding="UTF-8" standalone="no"?>
<svg width="125px" height="126px" viewBox="0 0 125 126" version="1.1" xmlns="http://www.w3.org/2000/svg" xmlns:xlink="http://www.w3.org/1999/xlink">
    <!-- Generator: Sketch 50.2 (55047) - http://www.bohemiancoding.com/sketch -->
    <title>deco</title>
    <desc>Created with Sketch.</desc>
    <defs>
        <linearGradient x1="63.1277323%" y1="100%" x2="63.1277323%" y2="0%" id="linearGradient-1">
            <stop stop-color="#0C532D" offset="0%"></stop>
            <stop stop-color="#7C9F86" offset="100%"></stop>
        </linearGradient>
    </defs>
    <g id="Page-1" stroke="none" stroke-width="1" fill="none" fill-rule="evenodd" opacity="0.25">
        <g id="Strona-glowna-Copy" transform="translate(-80.000000, -80.000000)" fill="url(#linearGradient-1)">
            <g id="dodatki" transform="translate(80.000000, 80.000000)">
                <g id="deco">
                    <path d="M5.97301735,124.08914 C6.30783644,124.982853 6.53104916,125.820708 6.36363962,125.932422 C5.5265919,126.770278 3.79669329,119.620575 3.79669329,115.375439 C3.79669329,113.308728 4.46633146,108.225736 5.247576,104.204028 C7.20068734,94.2614725 6.97747461,87.2234836 4.3547251,78.3422119 C3.40607102,74.9907886 2.45741694,70.8015095 2.34581058,69.1257979 L2.12259786,66.0536599 L2.90384239,69.181655 C3.35026784,70.8573666 4.46633146,74.1529328 5.35918236,76.4430721 C7.87032551,82.7549192 8.42835732,85.0450585 8.76317641,91.4686198 L9.15379868,97.3336105 L9.87924003,94.820043 C11.0511068,90.9100492 10.4372718,83.2017757 8.53996368,78.0629266 C6.4194428,72.1979359 5.247576,68.0645139 5.58239509,67.6735145 C5.80560781,67.5059433 6.64265553,67.7293715 7.53550642,68.232085 C8.98638913,68.9582267 9.3770114,69.6843684 10.4372718,73.7060764 C12.2229736,80.6323512 12.8368086,85.2126296 12.3903832,88.9550523 C11.9439577,92.8091891 10.8278941,96.3281835 9.60022412,97.6687528 C9.15379868,98.1714663 7.98193187,101.858032 7.03327779,105.768026 C5.13596964,113.532156 4.68954419,120.961145 5.97301735,124.08914 Z M15.2921486,82.1404916 C15.1247391,83.1459186 14.5667072,84.4864879 14.0644786,85.1009155 C13.2274309,86.1063425 13.2274309,86.1063425 13.7854627,84.9333444 C14.7341168,83.0342045 14.5109041,80.2972088 13.0042182,75.2700739 C11.2743196,69.5726543 11.3301227,69.6843684 12.948415,69.6843684 C14.176085,69.6843684 14.2876913,69.9636537 14.9573295,74.9349316 C15.3479518,77.8394984 15.5153613,81.0792076 15.2921486,82.1404916 Z M19.0309617,78.6773542 C18.4729299,79.5710671 17.9148981,80.2972088 17.7474886,80.2972088 C17.1894568,80.2972088 15.5153613,76.4989291 15.5153613,75.325931 C15.5153613,74.7673604 15.9059836,73.9295046 16.4082122,73.5385052 C17.2452599,72.8682206 17.3010631,72.9240776 17.0220472,73.8736475 C16.7988345,74.4880751 16.8546377,75.325931 17.1336536,75.7727874 C17.8590949,76.8899285 19.0309617,75.8845015 18.6961426,74.376361 C18.4171267,72.8682206 19.1425681,72.5330782 19.6447967,73.9295046 C20.2028285,75.4376451 20.035419,77.0016426 19.0309617,78.6773542 Z M26.7876039,78.3422119 C25.894753,79.2359248 21.2072858,76.7223573 20.5376476,74.9349316 C19.7564031,72.9799347 20.1470254,72.6447923 21.5979081,74.0970758 C22.7697749,75.2700739 24.4438703,75.6610733 24.4438703,74.7673604 C24.4438703,74.5439322 23.9416417,73.6502193 23.2720035,72.8123635 C22.3791526,71.6952224 22.3233494,71.3600801 22.9371844,71.3600801 C24.4438703,71.3600801 26.0621625,73.315077 26.6201944,75.6610733 C26.8992103,76.9457856 26.9550134,78.1187837 26.7876039,78.3422119 Z M19.7005999,70.5222243 C19.7005999,71.248366 19.2541745,71.6952224 18.4171267,71.8069365 C17.0220472,72.0303647 16.1291963,70.5222243 17.0778504,69.5726543 C17.9707013,68.6789415 19.7005999,69.2933691 19.7005999,70.5222243 Z M26.3411785,69.6285114 C24.7786894,70.8573666 21.4304985,71.248366 20.8166635,70.242939 C20.649254,69.9077967 21.0398762,69.6843684 21.7653176,69.6843684 C23.2720035,69.6843684 24.8344926,68.7906556 24.3322639,68.232085 C24.1090512,68.0645139 23.2720035,67.8969427 22.490759,67.8969427 C20.8166635,67.8969427 20.649254,67.1149439 22.2117431,66.6122304 C23.6626258,66.165374 26.3969816,66.7239445 27.2340294,67.7293715 C27.6804548,68.2879421 27.5130453,68.7347985 26.3411785,69.6285114 Z M17.5242758,68.0645139 C14.78992,69.2933691 12.8368086,69.3492261 9.26540504,68.232085 C4.18731556,66.6680875 0.950731055,61.8085237 1.78777877,57.1723882 C2.23420422,54.8263919 4.57793783,52.0893962 6.58685235,51.5308257 C7.75871915,51.1956834 7.64711279,51.3632545 6.02882053,52.4803956 C3.57348057,54.1561073 2.56902331,56.94896 3.23866148,59.9652409 C4.18731556,64.098663 9.0979955,66.7798016 14.3992977,66.1095169 C16.4640154,65.8302317 17.3568663,65.3275182 19.421584,63.093236 C22.1559399,60.1328121 23.2720035,57.3958164 23.7184289,52.3686815 C23.9416417,49.9668282 23.8300353,49.0731153 23.1045939,48.5145447 C22.3233494,47.8442601 22.2117431,47.9001171 22.2117431,48.9614012 C22.2117431,51.5866827 18.8635522,55.7201048 16.7988345,55.7201048 C16.1849995,55.7201048 16.4082122,55.2173913 17.4126695,54.0443931 C19.1983713,51.865968 19.6447967,49.4641147 19.2541745,43.4874098 C18.9751585,38.8512743 18.9751585,38.7395602 19.8680094,40.0801295 C20.3702381,40.8062712 21.3746953,42.0909834 22.1001367,42.8729822 L23.3278067,44.2694086 L22.7697749,42.7612681 C22.490759,41.9234123 21.7095144,40.1359865 21.0398762,38.8512743 C19.9796158,36.7845633 19.9796158,36.561135 20.8166635,37.2872767 C21.3746953,37.7341332 22.825578,40.2477006 24.053248,42.7612681 C25.894753,46.727119 26.508588,47.5649748 28.1826834,48.2911165 C29.2987471,48.7379729 30.8054329,48.9614012 31.5866775,48.7379729 C32.8143475,48.4586877 32.9259538,48.5145447 32.3121188,49.2406864 C31.8098902,49.799257 30.6380234,50.1343993 28.963928,50.1343993 L26.3969816,50.1343993 L26.3411785,53.932679 C26.2295721,60.5796685 23.1603971,65.4950893 17.5242758,68.0645139 Z M13.8970691,63.4842354 C13.9528723,65.10409 13.3948404,65.6068035 11.720745,65.3275182 C10.6046814,65.159947 10.493075,64.9365188 10.8278941,63.3725213 C11.1627132,61.5292385 12.7252023,58.5129575 13.2832341,58.5129575 C13.56225,58.5129575 13.7296595,59.9093839 13.8970691,63.4842354 Z M10.1582559,62.2553802 C9.48861776,64.9923759 9.26540504,65.2158041 7.59130961,64.3220912 C5.247576,63.093236 5.80560781,61.8643808 8.98638913,61.082382 C10.4372718,60.7472397 10.493075,60.8030968 10.1582559,62.2553802 Z M18.5287331,61.6968096 C17.9707013,62.087809 17.3568663,62.4229513 17.1894568,62.4229513 C17.0220472,62.4229513 16.4082122,62.087809 15.8501804,61.6968096 C13.8412659,60.2445262 16.0733931,57.004817 18.193914,58.2895293 C19.5331904,59.1832422 19.7005999,60.8030968 18.5287331,61.6968096 Z M9.20960186,56.2228183 C8.37255414,57.0606741 7.14488416,57.004817 6.81006507,55.9993901 C6.36363962,54.938106 6.97747461,54.0443931 8.26094778,54.0443931 C9.48861776,54.0443931 10.1024528,55.3291054 9.20960186,56.2228183 Z M17.1894568,45.5541208 C17.1336536,47.6208319 16.8546377,49.9668282 16.4640154,50.804684 L15.7943772,52.3128244 L13.2274309,50.3578275 C8.31675096,46.727119 4.91275691,40.0242724 5.74980463,35.6674222 L6.19623008,33.6565682 L7.20068734,36.7287062 C7.87032551,38.6278461 9.26540504,40.9738424 10.7720909,42.5936969 L13.2274309,45.3865497 L13.2832341,43.3756957 C13.2832341,42.2585546 13.0042182,40.5269859 12.6135959,39.5215589 C11.9997609,37.7341332 11.9439577,37.6782761 11.4975323,38.9071313 C10.9395005,40.5269859 9.15379868,40.2477006 8.93058595,38.5161319 C8.76317641,37.3431338 9.15379868,37.0638485 11.0511068,37.2314197 C11.4975323,37.2872767 10.7720909,36.2818498 9.3770114,35.0529946 C6.92167143,32.8745694 6.92167143,32.8187124 8.59576687,33.3214259 C14.5667072,34.9971375 17.1894568,38.7954172 17.1894568,45.5541208 Z M5.80560781,49.4641147 C7.98193187,51.0839692 6.69845871,51.0281122 4.29892192,49.4082576 C2.06679468,47.9559742 0.392699244,44.8279791 0.0578801577,41.4765558 C-0.165332567,39.633273 0.225289701,38.0692755 1.78777877,34.2151387 C2.84803921,31.5340001 3.85249647,29.1880038 4.01990602,29.0762897 C4.13151238,28.9645756 4.74534737,29.1321468 5.35918236,29.5231461 C6.36363962,30.1375737 6.4194428,30.416859 5.74980463,32.2042848 C5.35918236,33.3214259 4.52213465,35.3322798 3.85249647,36.7287062 C1.73197559,41.3648417 2.56902331,47.0622613 5.80560781,49.4641147 Z M30.3590075,36.561135 C30.1357948,37.4548479 29.4103534,38.8512743 28.7407152,39.6891301 L27.5130453,41.2531276 L26.508588,39.5215589 C25.1693117,37.3431338 25.1135085,34.6619952 26.3411785,33.488997 C27.2340294,32.5952842 27.2898325,32.5952842 27.0108166,33.9358535 C26.6201944,35.555708 27.4014389,37.0638485 28.2942898,36.505278 C28.6291089,36.2818498 28.9081248,35.2764228 28.9081248,34.3268528 C28.963928,32.6511412 28.963928,32.5952842 29.7451725,33.6007111 C30.4706139,34.5502811 30.5822202,34.6061381 30.5822202,33.7682823 C30.5822202,32.48357 31.0844488,32.5952842 32.367922,34.2151387 C32.981757,34.9971375 33.9304111,35.6115651 34.4884429,35.6115651 C35.437097,35.6115651 35.4929002,35.3881369 34.9906715,34.1034246 C34.7116556,33.3214259 34.0420174,32.3159989 33.4839856,31.9249995 C32.5911347,31.2547148 32.6469379,31.1988578 33.8188047,31.1430007 C35.4929002,31.1430007 37.0553892,32.8187124 37.7808306,35.4439939 C38.5620751,38.2368467 38.5620751,39.5215589 37.7250274,39.5215589 C36.2741447,39.4657019 32.367922,37.3989909 31.5308743,36.1701356 L30.6938266,34.9412804 L30.3590075,36.561135 Z M22.6023653,32.8187124 C24.053248,32.48357 25.894753,31.7015713 26.6759975,31.1430007 L28.0710771,30.0258596 L26.1737689,30.6402872 C25.0577053,31.0312866 22.490759,31.1988578 19.7564031,31.0312866 C11.9997609,30.5285731 6.30783644,27.0654357 3.29446466,20.9770168 C1.89938513,18.184164 1.56456605,16.8435947 1.56456605,13.8831708 C1.56456605,9.74974879 0.783321512,10.0848911 0.16948652,14.4417414 C-1.44880573,26.0600088 10.1024528,35.499851 22.6023653,32.8187124 Z M49.5553018,28.8528615 C49.5553018,30.5285731 49.2762859,31.8132854 48.7182541,32.2601418 C48.0486159,32.8187124 47.9928127,32.6511412 48.2160254,31.0312866 C48.5508445,28.9645756 46.8767491,25.7248664 45.2026537,25.2221529 C43.137936,24.5518683 38.0040433,22.0383008 36.7205701,21.0328738 C35.6045065,20.195018 35.9951288,20.2508751 38.6178783,21.3680162 C42.9147232,23.267156 43.8633773,22.8202996 40.3477769,20.5860174 L37.5576179,18.7985916 L41.7986596,19.189591 C47.4347809,19.6923045 50.838775,19.133734 52.9034927,17.4021653 C54.4659817,16.061596 54.5775881,16.0057389 54.5775881,17.067023 C54.5775881,18.5193064 51.2293972,21.4238732 48.99727,21.9265867 C46.3187173,22.5410143 47.8254032,23.8257266 50.838775,23.4905842 C60.2695126,22.4851573 65.1801925,18.6868775 65.1801925,12.4308874 C65.1243893,6.84518195 61.7761984,2.65590285 57.2561408,2.65590285 C54.3543754,2.65590285 52.5128704,3.49375867 51.5642163,5.28118442 C50.9503813,6.45418257 50.7271686,6.56589668 50.6713654,5.83975497 C50.6713654,4.33161449 53.015099,2.26490347 55.6378485,1.4829047 C59.9904967,0.198192447 64.398948,2.48833169 66.6310752,7.34789544 C68.4725802,11.2578893 68.3609738,14.6093125 66.4078625,18.3517352 C63.8967193,23.267156 58.7628267,26.1158658 52.5128704,26.1158658 L49.5553018,26.1158658 L49.5553018,28.8528615 Z M38.0598465,29.2438609 C35.2138842,30.9754296 31.6982838,31.0312866 31.6982838,29.411432 C31.6982838,29.1321468 32.0331029,29.0762897 32.4795284,29.2438609 C33.3723793,29.5790032 35.6045065,28.5735762 35.6045065,27.8474345 C35.6045065,27.1212928 33.6513952,26.7861505 32.5911347,27.344721 C31.5308743,27.9032916 31.3634648,27.2330069 32.367922,26.2275799 C33.3723793,25.2221529 36.2183415,25.4455812 38.3388624,26.7302934 L40.2919737,27.9032916 L38.0598465,29.2438609 Z M27.122423,26.8978646 C26.9550134,28.0708627 25.5599339,28.7411474 24.8344926,28.0150057 C24.2764608,27.4564351 24.3322639,25.6690094 24.9460989,25.333867 C25.9505562,24.7194394 27.2898325,25.6690094 27.122423,26.8978646 Z M31.6424807,24.3284401 C31.3076616,25.4455812 30.6380234,26.8978646 30.1915979,27.5122922 C29.4103534,28.5735762 29.4103534,28.5735762 29.8567789,27.2330069 C30.0799916,26.4510081 30.3032043,23.8257266 30.2474011,21.3680162 C30.1915979,15.8381678 28.6849121,11.6488887 25.5041307,8.0181801 C21.9327271,3.94061511 18.9751585,2.48833169 13.6180532,2.15318936 L9.0979955,1.87390409 L11.3301227,1.20361943 C18.0265045,-0.863091592 24.9460989,1.70633292 29.1313375,7.85060894 C30.1915979,9.47046352 31.3634648,11.8723169 31.6982838,13.2128862 C32.5353316,16.3967383 32.4795284,21.7031585 31.6424807,24.3284401 Z M69.030612,25.333867 C67.6355325,27.6240063 67.2449102,27.6798633 66.4078625,25.8365805 C65.4592084,23.7698695 65.5708148,21.3680162 66.6310752,20.4743033 C67.4681229,19.8040186 67.5239261,19.8598757 67.189107,20.9211597 C66.9658943,21.6473014 67.0216975,22.5968714 67.3007134,23.0995849 C67.802942,23.9374407 67.9145484,23.9374407 68.5283834,22.8202996 C68.8632024,22.1500149 69.030612,21.1445879 68.8632024,20.6977315 C68.5841865,19.9715898 68.6399897,19.9157327 69.3654311,20.5301603 C70.5372979,21.4797303 70.4256915,23.0995849 69.030612,25.333867 Z M77.4568923,24.3842971 C77.9033178,26.0600088 77.9033178,26.1158658 76.1734192,26.1158658 C73.4948665,26.1158658 70.7605106,24.216726 70.7605106,22.3734431 L70.7605106,20.8653027 L71.6533615,22.0941579 C72.4904092,23.3230131 74.6667333,23.8257266 74.6667333,22.7644425 C74.6667333,22.4293002 73.9970951,21.5355873 73.2158506,20.8094456 C71.9323774,19.6364475 71.8765742,19.4130193 72.7136219,19.4130193 C73.7180792,19.4130193 73.7180792,19.3571622 72.6578188,18.5193064 C71.5975583,17.6814506 71.5975583,17.6814506 72.7694251,18.0165929 C73.3832601,18.184164 74.3877174,17.9607358 74.9457492,17.5138794 C75.9502064,16.7877377 75.9502064,16.7318806 74.7783396,16.3967383 C74.1087015,16.1733101 73.2716538,16.1733101 72.9368347,16.3967383 C72.5462124,16.6201665 72.3788029,16.4525954 72.5462124,16.0057389 C72.9368347,14.8885978 76.1734192,14.7210267 77.7917114,15.7823107 C79.4658069,16.8435947 79.1309878,17.5697364 76.117616,18.9103058 C74.889946,19.4688763 74.1645047,19.9715898 74.4993237,19.9715898 C75.3921746,19.9715898 76.7872542,22.0941579 77.4568923,24.3842971 Z M8.26094778,23.3230131 C8.26094778,24.5518683 8.03773505,25.5572953 7.81452233,25.5572953 C6.69845871,25.5572953 6.02882053,23.9932977 6.02882053,21.3121591 C6.02882053,19.2454481 5.69400145,18.0165929 4.85695373,16.9553088 C3.35026784,15.056169 3.74089011,14.5534555 5.41498554,16.1733101 C7.14488416,17.7373076 8.26094778,20.5860174 8.26094778,23.3230131 Z M21.6537112,25.27801 C21.6537112,25.6131523 21.8211208,25.6690094 18.5845363,24.5518683 C9.48861776,21.4238732 2.56902331,13.3246003 2.45741694,5.72804086 L2.40161376,2.37661758 L4.3547251,2.54418874 C12.33458,3.10275929 21.876924,11.4254604 23.9416417,19.5805904 C24.8344926,23.267156 24.2206576,23.4905842 22.7139717,20.0274469 C20.8724667,15.6147395 13.0042182,8.96775003 7.87032551,7.4037525 C6.08462372,6.90103901 6.19623008,7.85060894 8.37255414,12.1516021 C10.3814687,16.2291671 15.8501804,22.0383008 19.3099776,23.8257266 C20.5934508,24.4960112 21.6537112,25.1662959 21.6537112,25.27801 Z M70.7605106,18.5751634 C69.8676597,19.6364475 69.4212343,19.6364475 68.5283834,18.5751634 C67.9703516,17.9048788 67.9703516,17.5697364 68.5283834,16.8994518 C68.9190056,16.4525954 69.5886438,16.061596 70.0350693,16.061596 C71.0953297,16.061596 71.5975583,17.5697364 70.7605106,18.5751634 Z M60.9949539,16.9553088 C60.9949539,18.2958782 60.715938,18.6310205 59.5998744,18.7427346 C58.8186299,18.8544487 57.9815821,18.7427346 57.7583694,18.5193064 C57.0329281,17.7931647 57.3677471,15.6705966 58.260598,14.8885978 C59.5440712,13.8273138 60.9949539,14.9444549 60.9949539,16.9553088 Z M16.2966059,17.4021653 C15.8501804,17.9048788 15.1247391,18.2958782 14.7341168,18.2958782 C13.7854627,18.2958782 12.7252023,17.12288 12.7252023,16.061596 C12.7252023,13.8831708 15.6269677,13.045315 16.6314249,14.8885978 C17.3568663,16.2850242 17.3568663,16.3967383 16.2966059,17.4021653 Z M48.7740573,16.5643095 C45.3700632,17.4021653 41.296431,17.2904512 38.9526974,16.2850242 C35.5487033,14.8327408 32.2563156,10.9227469 32.2563156,8.40917948 C32.2563156,7.68303777 32.6469379,7.90646599 33.7630015,9.30289236 C35.5487033,11.5930316 39.0085006,13.2687432 42.0218723,13.2128862 L44.2539996,13.2128862 L41.5754469,10.7551758 C39.6781387,9.02360708 37.8366338,7.96232305 35.7161129,7.29203839 L32.5353316,6.39832551 L34.4326397,5.89561202 C36.7763733,5.22532737 40.5151865,6.11904024 43.751771,7.96232305 C45.928095,9.2470353 51.2293972,14.5534555 51.2293972,15.5030254 C51.2293972,15.7264536 50.1133336,16.2291671 48.7740573,16.5643095 Z M83.20462,13.7155997 C81.7537373,14.7768837 69.9234629,14.3300273 68.7515961,13.1570291 C68.5841865,12.9336009 68.5283834,12.3191733 68.6399897,11.7047457 C68.8073993,10.6434617 68.9190056,10.6434617 73.2716538,11.9281739 C76.2292224,12.8218868 78.7961687,13.2128862 80.9724927,13.1570291 C83.6510454,12.989458 84.0416677,13.1011721 83.20462,13.7155997 Z M63.8409161,13.2687432 C63.3944907,13.2687432 62.7248525,13.3804573 62.2784271,13.5480285 C61.8878048,13.6597426 61.1065603,13.5480285 60.5485285,13.2128862 C60.0462998,12.8777439 59.0418426,12.8218868 58.3164012,13.045315 C55.9726676,13.7714567 58.3722044,11.7047457 61.1065603,10.6993187 C63.2270812,9.8614629 63.6735066,9.8614629 64.1199321,10.5317476 C64.8453734,11.7047457 64.733767,13.2687432 63.8409161,13.2687432 Z M38.6736815,10.1966052 C38.6736815,11.3137463 37.2786019,11.984031 36.5531606,11.2578893 C36.3299479,11.0344611 36.1625383,10.3641764 36.1625383,9.80560585 C36.1625383,9.02360708 36.4973574,8.74432181 37.4460115,8.91189297 C38.227256,9.02360708 38.6736815,9.47046352 38.6736815,10.1966052 Z M93.4724053,9.91731996 C90.4590335,11.2578893 83.2604232,11.8164598 78.8519719,11.0344611 C72.1555901,9.91731996 67.802942,8.40917948 67.0775007,7.06861017 C65.5150116,4.21990038 66.2962561,4.21990038 74.4435206,6.90103901 C81.6421309,9.30289236 89.063954,10.0290341 93.4724053,8.74432181 L96.150958,7.96232305 L89.7335922,7.62718072 C84.1532741,7.34789544 82.4233755,7.01275312 76.5082383,4.94604209 C72.7694251,3.66132984 68.6399897,2.37661758 67.3007134,2.15318936 L64.9011766,1.65047587 L67.189107,1.59461881 C68.4725802,1.53876176 72.4904092,2.32076052 76.117616,3.32618751 C82.0885564,4.94604209 83.5394391,5.11361326 90.291624,5.11361326 C96.5973835,5.11361326 98.8853139,4.89018504 104.07501,3.60547278 C111.27362,1.87390409 117.077151,1.65047587 121.597209,2.99104518 C125.894054,4.27575744 126.228873,4.94604209 121.987831,3.94061511 C119.755704,3.38204456 117.188757,3.2144734 115.012433,3.43790162 C110.771391,3.77304395 98.1598725,7.01275312 96.9880057,8.0181801 C96.4857771,8.40917948 94.923288,9.30289236 93.4724053,9.91731996 Z M62.2784271,9.30289236 C59.7672839,10.1966052 59.5998744,10.0848911 60.1579062,8.24160832 C61.1065603,4.94604209 61.943608,4.61089977 63.2270812,7.06861017 C64.0083257,8.68846476 64.0083257,8.68846476 62.2784271,9.30289236 Z M55.4146358,7.68303777 C55.4146358,9.30289236 53.628934,9.97317701 53.1267054,8.57675065 C52.6244767,7.23618133 53.3499181,5.89561202 54.4101785,6.11904024 C55.0798167,6.23075435 55.4146358,6.7893249 55.4146358,7.68303777 Z M24.053248,8.29746537 C22.7139717,8.85603592 20.649254,8.80017886 18.6403395,8.24160832 C16.966244,7.68303777 13.8412659,5.0577562 13.8412659,4.10818627 C13.8412659,3.828901 14.5109041,4.16404333 15.2921486,4.94604209 C16.4640154,6.00732613 17.3568663,6.28661141 19.9796158,6.34246846 C23.6068226,6.39832551 26.0063594,7.57132366 24.053248,8.29746537 Z M49.0530732,5.33704148 C49.7227113,7.06861017 49.4436954,7.4037525 48.5508445,5.95146908 C47.2673714,3.94061511 44.4772123,2.65590285 41.2406278,2.65590285 C39.0085006,2.65590285 37.1669956,3.15861634 33.8188047,4.66675682 C29.4103534,6.67761079 29.2987471,6.67761079 28.2384866,5.61632675 C27.1782262,4.55504271 27.2340294,4.49918566 31.5308743,2.48833169 C36.7205701,0.0864783377 39.5665324,-0.472092209 42.6915105,0.365763611 C45.4258664,1.09190532 48.3276318,3.38204456 49.0530732,5.33704148 Z" id="Combined-Shape"></path>
                </g>
            </g>
        </g>
    </g>
</svg>