<?xml version="1.0" encoding="UTF-8" standalone="no"?>
<svg width="40px" height="40px" viewBox="0 0 40 40" version="1.1" xmlns="http://www.w3.org/2000/svg" xmlns:xlink="http://www.w3.org/1999/xlink">
    <!-- Generator: Sketch 50.2 (55047) - http://www.bohemiancoding.com/sketch -->
    <title>fb</title>
    <desc>Created with Sketch.</desc>
    <defs>
        <linearGradient x1="-0.937944523%" y1="50%" x2="100%" y2="50%" id="linearGradient-1">
            <stop stop-color="#EACBAB" offset="0%"></stop>
            <stop stop-color="#FDF7EA" offset="100%"></stop>
        </linearGradient>
    </defs>
    <g id="fb" stroke="none" stroke-width="1" fill="none" fill-rule="evenodd">
        <rect id="Rectangle-14-Copy" x="0" y="0" width="40" height="40"></rect>
        <path d="M26.5104582,8.0049936 L23.3923493,8 C19.8892609,8 17.6254113,10.3182797 17.6254113,13.9064324 L17.6254113,16.6296932 L14.4902923,16.6296932 C14.2193808,16.6296932 14,16.8489123 14,17.1193159 L14,21.0650105 C14,21.335414 14.2196309,21.5543834 14.4902923,21.5543834 L17.6254113,21.5543834 L17.6254113,31.510627 C17.6254113,31.7810306 17.8447921,32 18.1157036,32 L22.2061421,32 C22.4770536,32 22.6964344,31.7807809 22.6964344,31.510627 L22.6964344,21.5543834 L26.3621197,21.5543834 C26.6330312,21.5543834 26.852412,21.335414 26.852412,21.0650105 L26.8539129,17.1193159 C26.8539129,16.9894822 26.802132,16.8651415 26.7103273,16.7732593 C26.6185226,16.681377 26.493448,16.6296932 26.3633705,16.6296932 L22.6964344,16.6296932 L22.6964344,14.321151 C22.6964344,13.2115727 22.9613423,12.6482944 24.4094556,12.6482944 L26.5099579,12.6475453 C26.7806192,12.6475453 27,12.4283262 27,12.1581723 L27,8.49436659 C27,8.22446241 26.7808694,8.00549296 26.5104582,8.0049936 Z" id="fb-icon" fill="url(#linearGradient-1)"></path>
    </g>
</svg>