<?xml version="1.0" encoding="UTF-8" standalone="no"?>
<svg width="27px" height="32px" viewBox="0 0 27 32" version="1.1" xmlns="http://www.w3.org/2000/svg" xmlns:xlink="http://www.w3.org/1999/xlink">
    <!-- Generator: Sketch 50.2 (55047) - http://www.bohemiancoding.com/sketch -->
    <title>icon-time</title>
    <desc>Created with Sketch.</desc>
    <defs>
        <linearGradient x1="-0.937944523%" y1="50%" x2="100%" y2="50%" id="linearGradient-1">
            <stop stop-color="#EACBAB" offset="0%"></stop>
            <stop stop-color="#FDF7EA" offset="100%"></stop>
        </linearGradient>
    </defs>
    <g id="Page-1" stroke="none" stroke-width="1" fill="none" fill-rule="evenodd">
        <g id="Strona-glowna-Copy" transform="translate(-851.000000, -946.000000)" fill="url(#linearGradient-1)" fill-rule="nonzero">
            <g id="bottom" transform="translate(392.000000, 934.000000)">
                <g id="czas" transform="translate(459.000000, 0.000000)">
                    <g id="icon-time" transform="translate(14.000000, 28.000000) scale(-1, 1) rotate(-180.000000) translate(-14.000000, -28.000000) translate(0.000000, 12.000000)">
                        <path d="M1.22604598,31.9731897 C0.813508496,31.8736086 0.331572183,31.4791143 0.223618449,31.1535607 C0.188919035,31.0501496 0.127231187,30.9467385 0.0848207911,30.9275883 C0.015421962,30.8892879 0.0115664715,30.8241771 0.0115664715,29.2998205 C0.0115664715,27.8214243 0.015421962,27.7103531 0.0809653006,27.6758827 C0.115664715,27.6567325 0.181208054,27.5533214 0.215907468,27.4499102 C0.30843924,27.2009575 0.6091675,26.8983842 0.91760674,26.7413525 C1.1373697,26.6341113 1.17978009,26.6264512 1.75810367,26.603471 C2.45209196,26.5766607 2.44052549,26.5843208 2.44052549,26.2549372 C2.44052549,26.1400359 2.4752249,25.9025733 2.5176353,25.7263914 C2.56004569,25.5502095 2.61402256,25.2821065 2.6371555,25.1327349 C2.66028845,24.9795332 2.70269884,24.8148414 2.72968728,24.7612208 C2.75667571,24.7076002 2.79908611,24.5620586 2.82607454,24.4356673 C2.84920748,24.3092759 2.89547337,24.1675643 2.92631729,24.1216038 C2.95330573,24.0794734 2.99957161,23.956912 3.02270456,23.8535009 C3.04969299,23.7539198 3.11138084,23.593058 3.16150221,23.501137 C3.21162359,23.409216 3.25017849,23.3096349 3.25017849,23.2789946 C3.25017849,23.2483543 3.28102242,23.1755835 3.32343281,23.1219629 C3.36198772,23.0645123 3.40825361,22.9764213 3.42367557,22.9228007 C3.45451949,22.8270497 3.62416107,22.5244764 3.84777952,22.1567923 C3.92103384,22.0418911 3.99814365,21.9116697 4.01742111,21.8695392 C4.04055405,21.8274087 4.11766386,21.7086774 4.19477367,21.6014363 C4.27188348,21.4980251 4.37598172,21.3486535 4.4261031,21.2682226 C4.47622448,21.1916218 4.69984292,20.9426691 4.91575039,20.7128665 C5.13551335,20.4868941 5.34756533,20.2609216 5.38997572,20.2187911 C5.62130515,19.9698384 6.21890618,19.4642729 6.62373269,19.1731897 C7.29844352,18.6906044 7.73411395,18.4378217 8.51292303,18.0777977 C8.68256462,18.0011969 8.88305012,17.9054458 8.95630444,17.8671454 C9.02955876,17.828845 9.133657,17.7867145 9.18377838,17.7713944 C9.23775525,17.7560742 9.36498643,17.6871335 9.47294017,17.6181927 C9.79294588,17.4152005 10.0088533,17.1432675 10.1746394,16.7372831 C10.2748822,16.4998205 10.2864487,16.4232196 10.2864487,16.0670257 C10.2864487,15.7108318 10.2748822,15.634231 10.1746394,15.3967684 C10.0705412,15.1439856 10.0165643,15.0558947 9.79680137,14.7916218 C9.7042696,14.6843806 9.36498643,14.4201077 9.31486506,14.4201077 C9.2994431,14.4201077 9.19920034,14.3779773 9.09124661,14.3243567 C8.98714836,14.2745661 8.83678424,14.2056254 8.76352992,14.174985 C8.6902756,14.1405147 8.60159931,14.0983842 8.57075539,14.079234 C8.53991147,14.0600838 8.36641439,13.9719928 8.18520634,13.8877319 C8.00399829,13.7996409 7.80736827,13.7000598 7.74182493,13.6655895 C7.31772098,13.4242968 7.12494645,13.3017355 6.75867485,13.0527828 C6.4540911,12.8421305 5.89890047,12.3786954 5.57118378,12.0531418 C5.1547908,11.6433273 4.54176781,10.9845601 4.44923604,10.8428486 C4.3451378,10.6858169 3.85163501,9.93895871 3.77066971,9.81256732 C3.72440383,9.74362657 3.66657147,9.62872531 3.63572755,9.55595452 C3.60873911,9.48318372 3.56247323,9.39509276 3.5316293,9.36062238 C3.50464087,9.32998205 3.46223047,9.24189108 3.43524204,9.16912029 C3.4121091,9.09634949 3.36584321,8.9967684 3.3311438,8.94697786 C3.27716693,8.85888689 3.21547908,8.7133453 3.07668142,8.3111909 C3.03812652,8.20777977 2.97643867,8.05074806 2.94173925,7.96648713 C2.90318435,7.87839617 2.85306297,7.70604428 2.82607454,7.58348294 C2.79908611,7.45709156 2.75667571,7.31154997 2.72968728,7.25792938 C2.70269884,7.2043088 2.66028845,7.02812687 2.6371555,6.86726511 C2.61402256,6.70257331 2.56004569,6.4459605 2.5176353,6.29275883 C2.4752249,6.13955715 2.44052549,5.89826451 2.44052549,5.75655296 C2.44052549,5.39269898 2.41739255,5.38120886 1.73882622,5.38120886 C1.20676853,5.38120886 1.20291304,5.38120886 0.944595173,5.25098743 C0.616878481,5.08629563 0.339283164,4.81436266 0.215907468,4.54242968 C0.165786092,4.42369838 0.0963872626,4.31645721 0.0655433386,4.297307 C-0.0192774525,4.2513465 -0.015421962,1.11071215 0.0693988291,1.07624177 C0.100242753,1.06475165 0.169641582,0.965170557 0.215907468,0.854099342 C0.358560617,0.540035907 0.616878481,0.2834231 0.944595173,0.130221424 L1.22604598,0 L13.5057832,0 L25.7855205,0 L26.0669713,0.130221424 C26.394688,0.2834231 26.6530059,0.540035907 26.795659,0.854099342 C26.8419249,0.965170557 26.9113237,1.06475165 26.9421676,1.07624177 C26.992289,1.09539198 27,1.30987433 27,2.68485937 L27,4.26666667 L26.9036127,4.36241771 C26.8496359,4.4160383 26.795659,4.51178935 26.7840925,4.57307002 C26.7493931,4.74159186 26.371555,5.09778576 26.0669713,5.25098743 C25.8086534,5.38120886 25.8009425,5.38120886 25.2727403,5.38120886 C24.5864629,5.38120886 24.5903184,5.37737882 24.555619,5.83698384 C24.5401971,6.02848594 24.5054976,6.25445841 24.4746537,6.33871933 C24.4438098,6.42681029 24.4013994,6.63363256 24.3821219,6.79832436 C24.358989,6.96301616 24.3127231,7.16600838 24.2818792,7.24643926 C24.2471798,7.32687014 24.2047694,7.47241173 24.1854919,7.57199282 C24.1662145,7.67540395 24.1160931,7.82860563 24.0736827,7.91669659 C24.0351278,8.00861759 23.9888619,8.13883902 23.97344,8.21160981 C23.958018,8.28438061 23.9040411,8.41843208 23.8539197,8.51418312 C23.8037984,8.60993417 23.761388,8.70568522 23.761388,8.73249551 C23.761388,8.77462597 23.344995,9.6095751 23.1946309,9.86235787 C22.7088391,10.693477 22.3001571,11.1990425 21.4480937,12.0378217 C20.6769956,12.8 19.7825218,13.435787 18.8610595,13.8762418 C18.675996,13.9643327 18.5102099,14.0371035 18.4909325,14.0371035 C18.4677995,14.0371035 18.4292446,14.0639138 18.4022562,14.0945542 C18.3752677,14.1251945 18.282736,14.171155 18.1940597,14.1979653 C18.1092389,14.2209455 18.0089961,14.263076 17.9742967,14.2937163 C17.9434528,14.3205266 17.8547765,14.3626571 17.7815222,14.3894674 C17.4306726,14.5081987 17.048979,14.906523 16.836927,15.3776182 C16.7328288,15.6074207 16.7251178,15.6610413 16.7251178,16.0670257 C16.7251178,16.4653501 16.7366843,16.5304608 16.8330715,16.7526032 C16.9487363,17.009216 17.1723547,17.3309396 17.3265743,17.4688211 C17.473083,17.5952124 17.7930887,17.7905446 17.8547765,17.7905446 C17.8856204,17.7905446 17.9742967,17.825015 18.0514065,17.8633154 C18.1285164,17.9054458 18.3290019,18.0011969 18.4986434,18.0777977 C18.668285,18.1543986 18.8340711,18.2348294 18.864915,18.2539797 C18.895759,18.2731299 18.9844352,18.3190904 19.0576896,18.3497307 C19.4625161,18.5335727 20.5304869,19.2344704 20.9276025,19.5830042 C21.1897758,19.8089767 21.717978,20.3260323 22.1035271,20.7281867 C22.4235328,21.0575703 22.8977581,21.7010174 23.2139083,22.2333932 C23.3411395,22.4478755 23.753677,23.2789946 23.7845209,23.3824057 C23.7960874,23.4360263 23.8423533,23.5202873 23.8770527,23.5739078 C23.9156076,23.6275284 23.9618735,23.7424297 23.9772954,23.8228606 C23.9927174,23.9071215 24.0351278,24.0373429 24.0736827,24.1101137 C24.1122376,24.1828845 24.17007,24.3475763 24.2009139,24.4739677 C24.2317578,24.6003591 24.2818792,24.7995212 24.3127231,24.9144225 C24.4013994,25.232316 24.4977867,25.7417115 24.5401971,26.0825853 C24.5941739,26.5307002 24.6018849,26.5498504 24.6944167,26.5766607 C24.7445381,26.5881508 25.0067114,26.5996409 25.2765957,26.5996409 C25.7546766,26.5996409 25.7778095,26.603471 26.0476938,26.7298624 C26.3985435,26.8945542 26.7031272,27.1894674 26.7918035,27.4499102 C26.8265029,27.5533214 26.8881908,27.6567325 26.9267457,27.6835428 C26.9961445,27.7256732 27,27.798444 27,29.3113106 C27,30.6173549 26.992289,30.8969479 26.9460231,30.9122681 C26.9190347,30.9237582 26.8612023,31.0041891 26.8226474,31.0922801 C26.6530059,31.4752843 26.3330001,31.7740275 25.9397401,31.9195691 L25.7238326,32 L13.5134942,31.99617 C6.79722976,31.9923399 1.26845638,31.9846798 1.22604598,31.9731897 Z M25.3151506,30.4258528 C25.372983,30.353082 25.380694,30.2381807 25.380694,29.3036505 C25.380694,28.5453022 25.3691275,28.250389 25.3344281,28.2159186 C25.2688848,28.1508079 1.74268171,28.1508079 1.67713837,28.2159186 C1.64243895,28.250389 1.63087248,28.5453022 1.63087248,29.2998205 C1.63087248,30.4181927 1.63472797,30.445003 1.83135799,30.4986236 C1.88919035,30.5139437 7.18277881,30.5216038 13.590604,30.5177738 L25.2457518,30.5062837 L25.3151506,30.4258528 Z M22.9324575,26.5383603 C22.9825789,26.4885697 22.9864344,26.423459 22.9671569,26.1821664 C22.951735,26.0213046 22.9170356,25.8221424 22.8900471,25.7340515 C22.8592032,25.6497905 22.8129373,25.4467983 22.7820934,25.2859366 C22.7512495,25.1289048 22.7011281,24.9488929 22.6702842,24.8876122 C22.6394402,24.8301616 22.6008853,24.7190904 22.5854634,24.6463196 C22.5546194,24.4969479 22.4235328,24.1675643 22.2538912,23.8228606 C22.1922033,23.6964692 22.142082,23.5777379 22.142082,23.5624177 C22.142082,23.5432675 22.111238,23.4819868 22.0688276,23.4283662 C22.0302727,23.3709156 21.9840069,23.2828247 21.9685849,23.2292041 C21.9531629,23.1755835 21.8991861,23.0836625 21.8529202,23.0185518 C21.8066543,22.9572711 21.7565329,22.8768402 21.741111,22.8461999 C21.717978,22.7925793 21.5984578,22.6087373 21.4288162,22.3636146 C21.0856776,21.8618791 20.1912038,20.9081987 19.9444524,20.7779773 C19.894331,20.751167 19.697701,20.6132855 19.5049265,20.4715739 C19.1039554,20.1804907 18.1709267,19.6136445 17.9742967,19.5447038 C17.9010424,19.5217235 17.7930887,19.4681029 17.7275453,19.4298025 C17.6658575,19.3915021 17.5848922,19.3608618 17.5463373,19.3608618 C17.4615165,19.3608618 16.7096958,18.9778576 16.5284878,18.8399761 C16.3434242,18.7020946 15.9347423,18.2999402 15.846066,18.1735488 C15.8113666,18.1199282 15.7381122,18.0165171 15.6879909,17.9437463 C15.5569042,17.7637343 15.3294302,17.2888091 15.2985863,17.1317774 C15.2831644,17.0628366 15.2368985,16.9019749 15.1944881,16.7755835 C15.0865343,16.4461999 15.1096673,15.5614602 15.2368985,15.1669659 C15.4528059,14.5005386 15.7149793,14.0677439 16.1583607,13.6311191 C16.4128231,13.3821664 16.8562045,13.0412926 16.9256033,13.0412926 C16.9371698,13.0412926 17.0528345,12.9915021 17.1839212,12.9302214 C17.3150079,12.8689408 17.5579038,12.7616996 17.7275453,12.6927588 C18.267314,12.4706164 19.0654005,11.976541 19.8904755,11.3484141 C20.703984,10.7279473 21.5406254,9.69000598 22.0456947,8.67504488 C22.1228045,8.51801317 22.2269028,8.30736086 22.2808796,8.21160981 C22.331001,8.11202873 22.3734114,8.00861759 22.3734114,7.97797726 C22.3734114,7.94733692 22.4081108,7.85541592 22.4505212,7.77498504 C22.4967871,7.69072412 22.550764,7.54518253 22.5738969,7.44943148 C22.5970298,7.35368043 22.6394402,7.23111909 22.6702842,7.17366846 C22.6972726,7.11621783 22.747394,6.92471574 22.7782379,6.74853381 C22.8090818,6.57618193 22.8592032,6.36552962 22.8861916,6.2812687 C22.9170356,6.19700778 22.951735,5.98635548 22.9671569,5.81400359 C22.9864344,5.55739078 22.9825789,5.49228007 22.928602,5.44248953 C22.8746252,5.3850389 22.0071398,5.38120886 13.5057832,5.38120886 C4.77695273,5.38120886 4.13694131,5.3850389 4.07910895,5.44631957 C4.0212766,5.49994016 4.01742111,5.55739078 4.04055405,5.81400359 C4.05597601,5.98252543 4.09838641,6.22764811 4.13694131,6.3540395 C4.17549622,6.48426092 4.2217621,6.67576302 4.23332857,6.77917415 C4.24875054,6.88641532 4.29116093,7.04727708 4.32971584,7.14302813 C4.36827074,7.23877917 4.43381408,7.41879114 4.47622448,7.54518253 C4.63815508,8.02010772 4.69213194,8.16181927 4.75381979,8.25374028 C4.78851921,8.30736086 4.8309296,8.39545183 4.84635156,8.45290245 C4.85791804,8.51035308 4.9118949,8.6214243 4.96587177,8.69802513 C5.01984864,8.77462597 5.06225903,8.85505685 5.06225903,8.87420706 C5.06225903,8.96612807 5.67528202,9.85852783 6.02998715,10.2836625 C6.6160217,10.9845601 7.34470941,11.5973668 8.21990575,12.1220826 C8.30858204,12.1757032 8.46665715,12.2714542 8.57075539,12.3365649 C8.81750678,12.4897666 9.01799229,12.5893477 9.3804084,12.7348893 C9.81222333,12.9149013 10.147651,13.075763 10.3635585,13.2174746 C10.571755,13.351526 11.0228474,13.7690006 11.1269456,13.9222023 C11.161645,13.9758229 11.2387548,14.0868941 11.3004427,14.171155 C11.4585178,14.3971275 11.6859917,14.8567325 11.7168356,15.0214243 C11.7322576,15.1018552 11.7708125,15.2282466 11.8016564,15.3010174 C11.8749108,15.4695392 11.9096102,16.4040694 11.8517778,16.6223818 C11.7052692,17.1777379 11.6512923,17.3347696 11.5818935,17.4688211 C11.5356276,17.5492519 11.5009282,17.6296828 11.5009282,17.648833 C11.5009282,17.6641532 11.4045409,17.8211849 11.2850207,17.9935368 C11.0768242,18.2961101 10.8493503,18.5374028 10.5139226,18.8093357 C10.359703,18.9357271 9.55776096,19.3608618 9.47294017,19.3608618 C9.41510781,19.3608618 8.8522062,19.6213046 8.68642011,19.7247157 C8.61316579,19.7706762 8.39725832,19.9008977 8.20448379,20.0119689 C8.01556476,20.1230401 7.70327003,20.3298624 7.5104955,20.4715739 C7.32157647,20.6132855 7.11337998,20.754997 7.04783664,20.7894674 C6.69698701,20.9733094 5.76010281,22.0457211 5.28587748,22.8040694 C4.96972726,23.313465 4.55718978,24.1790545 4.4261031,24.6080192 C4.39525917,24.7037702 4.3451378,24.8569719 4.31429387,24.9527229 C4.2217621,25.232316 4.06368699,25.9485338 4.03669856,26.2204668 C4.01742111,26.427289 4.02513209,26.4809096 4.07910895,26.5345302 C4.13694131,26.5958109 4.76538626,26.5996409 13.5057832,26.5996409 C22.0456947,26.5996409 22.8746252,26.5958109 22.9324575,26.5383603 Z M25.3382836,3.7572711 C25.372983,3.71897068 25.380694,3.40873728 25.372983,2.6427289 C25.3614165,1.64691801 25.357561,1.5818073 25.2881622,1.52818671 C25.2226189,1.48222621 23.549336,1.47456613 13.4980723,1.47456613 C1.83521348,1.47456613 1.7850921,1.47456613 1.70798229,1.55116697 C1.63472797,1.62393776 1.63087248,1.67755835 1.63087248,2.67336924 C1.63087248,3.43554758 1.64243895,3.7304608 1.67713837,3.76493118 C1.71183778,3.79940156 4.39525917,3.81089168 13.5096387,3.81089168 C23.5917464,3.81089168 25.2997287,3.8032316 25.3382836,3.7572711 Z" id="Shape"></path>
                        <path d="M7.8767671,23.7539198 C7.72640297,23.6351885 7.64543767,23.4819868 7.64543767,23.3249551 C7.64543767,23.1909037 7.6724261,23.1219629 7.80351278,22.9611011 C8.00785378,22.7044883 8.75967443,21.9538001 8.96787091,21.8005984 C9.51920605,21.390784 10.3250036,20.938839 10.760674,20.7971275 C11.1192346,20.6822262 11.8787662,19.9966487 12.1023847,19.5906643 C12.4378124,18.9855177 12.5149222,18.7863555 12.6614308,18.192699 C12.6845638,18.100778 12.6922747,17.0398564 12.6884192,15.4733692 L12.6768528,12.9072412 L12.568899,12.6046679 C12.37998,12.0837822 12.0368414,11.5628965 11.7129802,11.3062837 C11.5664715,11.1913824 10.7953734,10.793058 10.359703,10.609216 C9.47294017,10.237702 8.52063401,9.48701376 7.74568042,8.55248354 C7.23675568,7.93967684 7.06711409,7.66391382 7.06711409,7.44943148 C7.06711409,7.2962298 7.08639155,7.25409934 7.21362273,7.131538 L7.36013137,6.98982645 L13.5212052,6.99748654 L19.682279,7.00897666 L19.8133657,7.16217834 C19.9521634,7.32687014 19.9830073,7.49539198 19.902042,7.6524237 C19.5319149,8.36098145 18.4253891,9.54829443 17.669713,10.0461999 C17.2725975,10.3066427 16.9410253,10.4904847 16.5130658,10.6781568 C15.9308868,10.9347696 15.7843781,10.9998803 15.6070256,11.1071215 C15.2947308,11.2947935 15.1790661,11.3905446 14.9785806,11.6394973 C14.7241182,11.9573908 14.5698986,12.2408139 14.431101,12.6621185 L14.3154362,13.0144823 L14.3154362,15.5729503 L14.3154362,18.1314183 L14.4118235,18.4301616 C14.4658004,18.5948534 14.5082108,18.7557151 14.5082108,18.7863555 C14.5120663,18.8399761 14.6508639,19.1272292 14.8976153,19.5753441 C15.1135228,19.9660084 15.8769099,20.6783962 16.1853491,20.7779773 C16.640297,20.9235189 17.5887477,21.4482346 18.0514065,21.8120886 C18.290447,21.9997606 18.880337,22.585757 19.1463658,22.8959904 C19.3429959,23.1257929 19.3661288,23.1717534 19.3661288,23.3249551 C19.3661288,23.4704967 19.3429959,23.5241173 19.2273311,23.6505087 L19.0885335,23.8037104 L13.5096387,23.8037104 C9.18763387,23.7998803 7.92303299,23.7922202 7.8767671,23.7539198 Z" id="Shape"></path>
                    </g>
                </g>
            </g>
        </g>
    </g>
</svg>