<?xml version="1.0" encoding="UTF-8" standalone="no"?>
<svg width="33px" height="36px" viewBox="0 0 33 36" version="1.1" xmlns="http://www.w3.org/2000/svg" xmlns:xlink="http://www.w3.org/1999/xlink">
    <!-- Generator: Sketch 50.2 (55047) - http://www.bohemiancoding.com/sketch -->
    <title>icon_map</title>
    <desc>Created with Sketch.</desc>
    <defs>
        <linearGradient x1="-0.937944523%" y1="50%" x2="100%" y2="50%" id="linearGradient-1">
            <stop stop-color="#EACBAB" offset="0%"></stop>
            <stop stop-color="#FDF7EA" offset="100%"></stop>
        </linearGradient>
    </defs>
    <g id="Page-1" stroke="none" stroke-width="1" fill="none" fill-rule="evenodd">
        <g id="Strona-glowna-Copy" transform="translate(-392.000000, -944.000000)" fill="url(#linearGradient-1)" fill-rule="nonzero">
            <g id="bottom" transform="translate(392.000000, 934.000000)">
                <g id="mapa">
                    <g id="icon_map" transform="translate(16.500000, 28.000000) scale(-1, 1) rotate(-180.000000) translate(-16.500000, -28.000000) translate(0.000000, 10.000000)">
                        <path d="M3.50610194,35.9188759 C3.47767408,35.8806999 3.34974874,35.8282078 3.21708543,35.8043478 C3.08916009,35.7757158 2.91859296,35.7279958 2.83804738,35.6898197 C2.76223977,35.6468717 2.57745872,35.5609756 2.43058148,35.4893955 C2.28370424,35.4178155 2.05154343,35.2794274 1.91414214,35.1744433 C1.77674085,35.0742312 1.64881551,34.9883351 1.6298636,34.9883351 C1.5730079,34.9883351 1.07078248,34.4586426 0.848097631,34.1723224 C0.506963388,33.728526 0.284278536,33.2465536 0.137401292,32.650053 L0,32.1012725 L0,21.1495228 L0,10.1977731 L0.137401292,9.64899258 C0.293754487,9.01908802 0.383776023,8.80911983 0.72017229,8.31283139 C1.0091888,7.88812301 1.27925341,7.59703075 1.71514716,7.25344645 C2.26001436,6.82396607 2.34529792,6.78101803 3.31658291,6.49469777 L3.79038047,6.35630965 L5.64766691,6.35630965 L7.50495334,6.35630965 L8.5994257,7.45387063 C9.2011486,8.05514316 9.72706389,8.5514316 9.77444365,8.5514316 C9.8218234,8.5514316 10.3430007,8.06468717 10.9399856,7.46818664 L12.0249821,6.38016967 L18.0043073,6.35630965 C21.2972003,6.34199364 24.0073223,6.31336161 24.0310122,6.29427359 C24.0499641,6.27041357 24.0831299,5.67868505 24.0973439,4.98197243 C24.1257717,3.79374337 24.1352477,3.68398727 24.2489591,3.32608696 C24.5427136,2.39554613 24.6706389,2.15217391 25.1965542,1.53658537 C25.6987796,0.94485684 26.6795406,0.343584305 27.376023,0.19088017 C27.5039483,0.167020148 27.6176597,0.114528102 27.6318737,0.0763520679 C27.6697775,-0.0238600212 29.3754487,-0.0238600212 29.4133525,0.0763520679 C29.4275664,0.114528102 29.5318019,0.15747614 29.6455133,0.176564157 C29.8397703,0.209968187 30.0055994,0.272004242 30.4888729,0.50583245 C30.8157933,0.658536585 31.3890883,1.05461294 31.640201,1.29321315 C31.8913137,1.53181336 32.3414214,2.18557794 32.5214645,2.56256628 C32.5830581,2.6961824 32.6636037,2.86320255 32.7015075,2.93955461 C32.7394113,3.02067869 32.7915291,3.19247084 32.815219,3.32131495 C32.8389088,3.45493107 32.8910266,3.58854719 32.9289304,3.61717922 C32.990524,3.66489926 33,4.95811241 33,14.4353128 C33,23.621421 32.990524,25.2009544 32.9336683,25.2200424 C32.8957645,25.2343584 32.8436468,25.3536585 32.815219,25.4872747 C32.7204594,25.931071 32.2940416,26.7423118 31.8818378,27.2672322 C31.7918162,27.3817603 31.1569275,27.9114528 30.8916009,28.097561 C30.8157933,28.150053 30.6499641,28.2407211 30.5267767,28.2979852 C30.3988514,28.3552492 30.2093324,28.4459173 30.1003589,28.4936373 C29.4749462,28.7847296 28.8542714,28.8229056 25.044939,28.8276776 L21.9463029,28.8324496 L21.2782484,28.154825 C20.2122039,27.0763521 19.6483848,26.5418876 19.5867911,26.5418876 C19.5536253,26.5418876 19.0134961,27.0572641 18.3833453,27.6871686 L17.2414932,28.8324496 L13.1194544,28.8324496 C9.9781766,28.8324496 8.98320172,28.8467656 8.94055994,28.8897137 C8.89791816,28.9326617 8.88370424,29.3478261 8.88370424,30.4549311 C8.88370424,31.5954401 8.86949031,32.0249205 8.81737258,32.2205726 C8.77946877,32.3637328 8.73682699,32.583245 8.71787509,32.7120891 C8.69892319,32.8361612 8.66575736,32.9506893 8.64680546,32.9602333 C8.62311558,32.9745493 8.5804738,33.0604454 8.55204594,33.1558855 C8.41938263,33.5615058 7.77027997,34.5302227 7.44335966,34.8117709 C7.29174444,34.9406151 6.70423546,35.3319194 6.47681263,35.4512195 C6.21622398,35.5896076 5.72821249,35.7852598 5.53395549,35.8234358 C5.45340991,35.8377519 5.35865039,35.8854719 5.32548457,35.9236479 C5.24020101,36.02386 3.5724336,36.02386 3.50610194,35.9188759 Z M5.2022972,34.0625663 C6.0361809,33.795334 6.69949749,33.1224814 6.99325197,32.2444327 C7.10222541,31.9199364 7.10696339,31.8626723 7.10696339,30.383351 L7.10696339,28.8563097 L5.49605169,28.8419936 C3.70983489,28.8276776 3.72878679,28.8276776 3.05599426,29.1808059 C2.26949031,29.5911983 1.77674085,30.4740191 1.77674085,31.480912 C1.77674085,32.3398727 2.09892319,33.0461294 2.72907394,33.5615058 C3.43029433,34.1341463 4.38262742,34.3250265 5.2022972,34.0625663 Z M2.08470926,27.6633086 C2.2126346,27.5535525 2.64852836,27.3722163 3.34027279,27.1336161 C3.58664752,27.04772 3.89461594,27.042948 10.0729361,27.019088 L16.5450108,26.995228 L18.046949,25.4825027 C18.8713568,24.6474019 19.5678392,23.9650053 19.601005,23.9650053 C19.6294329,23.9650053 20.3306533,24.6521739 21.164537,25.4920467 L22.6806892,27.019088 L25.7414214,27.019088 C28.7121321,27.019088 28.8116296,27.014316 29.1575018,26.9188759 C29.6028715,26.7948038 29.8302943,26.6802757 30.1335248,26.4321315 C30.5078248,26.1267232 30.863173,25.7067869 30.867911,25.5683987 C30.867911,25.5445387 30.8963388,25.4872747 30.9342426,25.4490986 C30.9674085,25.4061506 31.0432161,25.2248144 31.1000718,25.0434783 C31.3938263,24.0699894 31.066906,22.9819724 30.2614501,22.2613998 C29.7260589,21.7794274 29.304379,21.6267232 28.5226131,21.6267232 C27.6745154,21.6267232 27.1438622,21.8462354 26.598995,22.4236479 C26.2294329,22.8101803 25.8930366,23.5498409 25.8930366,23.9602333 C25.8930366,24.0843054 25.8693467,24.2083775 25.8361809,24.2417815 C25.7651113,24.3133616 24.1589375,24.3229056 24.1162958,24.2560976 C24.1020818,24.2322375 24.0926059,20.6102863 24.0926059,16.2152704 C24.0926059,8.31760339 24.0926059,8.22216331 24.0025844,8.16967126 C23.9362527,8.13626723 22.1689878,8.12672322 18.3454415,8.13149523 L12.7830581,8.14581124 L11.3048098,9.63944857 C9.9971285,10.9612937 9.81234745,11.1330859 9.70811199,11.1092259 C9.64651831,11.0901379 9.59440057,11.0615058 9.59440057,11.0376458 C9.59440057,10.9946978 7.45757358,8.81866384 6.988514,8.38441145 L6.69949749,8.11717922 L5.26862886,8.13149523 C3.70035894,8.15535525 3.7666906,8.14103924 3.08442211,8.48939555 C2.5632448,8.75662778 2.19842067,9.16702015 1.95204594,9.77783669 L1.80043073,10.150053 L1.7862168,18.8589608 C1.78147882,23.650053 1.7862168,27.6155885 1.80043073,27.6776246 C1.83359655,27.8112407 1.90466619,27.8064687 2.08470926,27.6633086 Z M31.1900933,12.340403 L31.1995693,4.08960764 L31.1000718,3.77942736 C30.9295047,3.2592789 30.7826274,3.01590668 30.3988514,2.62937434 C30.0055994,2.23806999 29.8113424,2.11399788 29.2854271,1.93743372 C28.4989232,1.66542948 27.5039483,1.87539767 26.8122039,2.45281018 C26.409476,2.79162248 26.1915291,3.11611877 25.9830581,3.68398727 L25.8693467,3.99416755 L25.8551328,11.7009544 C25.8456569,15.9384942 25.8551328,19.6702015 25.8693467,19.9946978 C25.9072505,20.6580064 25.9119885,20.6627784 26.2625987,20.4241782 C26.3857861,20.3382821 26.5705671,20.233298 26.6748026,20.1855779 C27.4186648,19.8801697 27.3333812,19.8944857 28.2620244,19.8706257 C28.7879397,19.8563097 29.2759512,19.8706257 29.4796841,19.9040297 C29.8397703,19.9612937 30.4557071,20.21421 30.8442211,20.4671262 C30.9768844,20.5482503 31.1048098,20.6150583 31.1284996,20.6055143 C31.1616655,20.5959703 31.1806174,17.7900318 31.1900933,12.340403 Z" id="Shape"></path>
                        <path d="M13.0578607,25.2773065 C12.6930366,24.9003181 12.5414214,24.776246 12.4513999,24.776246 C12.3661163,24.776246 12.2097631,24.9003181 11.8544149,25.2582185 C11.4801149,25.6352068 11.3569275,25.7306469 11.2763819,25.7115589 C11.1768844,25.6876988 10.0681981,24.6330859 10.0681981,24.5615058 C10.0681981,24.5376458 10.3050969,24.2847296 10.5893754,23.9984093 C10.878392,23.7120891 11.1105528,23.4448568 11.1105528,23.4019088 C11.1105528,23.3541888 10.8973439,23.1060445 10.6320172,22.8435843 C10.3714286,22.5811241 10.1345298,22.3282078 10.1061019,22.2757158 C10.0681981,22.1993637 10.1392678,22.1086957 10.6462312,21.6219512 C10.9636755,21.3117709 11.262168,21.0540827 11.3048098,21.0540827 C11.3427136,21.0540827 11.5985642,21.2688229 11.8638909,21.5312831 C12.1955492,21.8605514 12.3850682,22.0084836 12.4608758,22.0084836 C12.5366834,22.0084836 12.7167265,21.8605514 13.0483848,21.5265111 C13.3753051,21.2020148 13.5553482,21.0540827 13.6169419,21.0636267 C13.6643216,21.0731707 13.967552,21.330859 14.2849964,21.6410392 C14.8582915,22.2041357 14.8630294,22.2041357 14.7777459,22.3091198 C14.7256281,22.3616119 14.4887294,22.6097561 14.2518306,22.8531283 C13.9865039,23.1251326 13.8111989,23.3398727 13.8111989,23.3971368 C13.8111989,23.4591729 14.0054559,23.6882291 14.3323762,24.0127253 C14.6213927,24.2990456 14.8535535,24.5424178 14.8535535,24.5567338 C14.8535535,24.6187699 13.6264178,25.7783669 13.5648241,25.7783669 C13.5506102,25.7783669 13.3231874,25.5540827 13.0578607,25.2773065 Z M8.29145729,24.2465536 C7.88399139,24.1988335 7.09748744,23.9363733 6.83689878,23.7645811 C6.77056712,23.7168611 6.69002154,23.678685 6.66633166,23.678685 C6.57631012,23.678685 6.54314429,23.568929 6.61421393,23.5164369 C6.65211773,23.4878049 6.82742283,23.2158006 7.0074659,22.9151644 C7.32964824,22.3711559 7.53338119,22.1039236 7.61866475,22.1039236 C7.64709261,22.1039236 7.68973439,22.1373277 7.71816224,22.1802757 C7.8034458,22.2948038 8.25355348,22.4427359 8.56625987,22.457052 C8.71787509,22.466596 8.85053841,22.485684 8.86475233,22.5 C8.90265614,22.538176 8.89791816,24.2036055 8.86001436,24.2417815 C8.82211055,24.2799576 8.5994257,24.2847296 8.29145729,24.2465536 Z M4.90854271,21.8414634 C4.82799713,21.6983033 4.76166547,21.5646872 4.76166547,21.5455992 C4.76166547,21.5265111 4.71902369,21.402439 4.67164393,21.2688229 C4.5626705,20.9825027 4.43474515,20.3955461 4.42053123,20.0996819 L4.4063173,19.8849417 L4.6195262,19.8515376 C4.73797559,19.8372216 5.11227566,19.8181336 5.45814788,19.8181336 C6.03144293,19.8133616 6.08829864,19.8229056 6.13567839,19.9040297 C6.15936827,19.9565217 6.18305815,20.0471898 6.18305815,20.1139979 C6.18305815,20.257158 6.39152907,20.8775186 6.48628859,21.0159067 C6.59052405,21.1686108 6.5810481,21.2258749 6.43417085,21.3069989 C6.07408471,21.4931071 5.34443647,21.9369035 5.25441493,22.0132556 C5.2022972,22.0657476 5.13596554,22.1039236 5.10753769,22.1039236 C5.07910983,22.1039236 4.9890883,21.9846235 4.90854271,21.8414634 Z M4.43474515,17.8854719 C4.35419957,17.7900318 4.58636037,16.6924708 4.7758794,16.2868505 C4.85642498,16.1150583 4.93697057,15.9194062 4.95118449,15.8525981 C4.97961235,15.709438 5.15491744,15.6664899 5.27336683,15.771474 C5.33969849,15.8335101 6.05987078,16.2534464 6.44838478,16.4634146 C6.57631012,16.5349947 6.6,16.6876988 6.49576454,16.8022269 C6.41995693,16.888123 6.25886576,17.3605514 6.20674803,17.6420997 C6.18779612,17.7470838 6.15463029,17.8616119 6.12620244,17.8950159 C6.05039483,17.980912 4.51055276,17.97614 4.43474515,17.8854719 Z M7.45757358,15.5567338 C7.32964824,15.3849417 7.19698492,15.1797455 7.08801149,14.9840933 C6.81794688,14.5164369 6.68054559,14.2969247 6.62368988,14.2635207 C6.59052405,14.2396607 6.57157215,14.2014846 6.59052405,14.1776246 C6.6379038,14.0965005 7.377028,13.7672322 7.69921034,13.6813362 C8.26302943,13.533404 8.39569275,13.509544 8.64680546,13.52386 L8.89791816,13.538176 L8.89791816,14.4209968 L8.89791816,15.3038176 L8.59468772,15.3276776 C8.2109117,15.3610817 7.75132807,15.5137858 7.69447236,15.6235419 C7.6281407,15.742842 7.5902369,15.733298 7.45757358,15.5567338 Z M10.7173008,15.2942736 C10.6983489,15.2799576 10.684135,14.8695652 10.684135,14.3875928 L10.684135,13.514316 L11.5748744,13.52386 L12.4608758,13.538176 L12.4750897,14.3685048 C12.4845657,14.9363733 12.4703518,15.2179215 12.432448,15.2608696 C12.3898062,15.3133616 12.2002872,15.3276776 11.5606604,15.3276776 C11.1152907,15.3276776 10.7315147,15.3133616 10.7173008,15.2942736 Z M14.2613065,15.2656416 C14.2470926,15.2322375 14.2423546,14.8313892 14.2470926,14.3732768 L14.2613065,13.538176 L15.137832,13.538176 L16.0143575,13.538176 L16.0143575,14.4209968 L16.0143575,15.3038176 L15.147308,15.3181336 C14.4697775,15.3276776 14.2755205,15.3181336 14.2613065,15.2656416 Z M17.8100503,15.2656416 C17.8005743,15.2322375 17.7958363,14.8313892 17.8005743,14.3732768 L17.8147882,13.538176 L18.0990668,13.504772 C18.4212491,13.471368 18.838191,13.3329799 18.9661163,13.2136797 C19.0134961,13.1707317 19.0750897,13.1325557 19.1035176,13.1325557 C19.1793252,13.1325557 19.3309404,13.3282078 19.5678392,13.7529162 C19.6910266,13.9772004 19.8663317,14.2635207 19.9516152,14.3971368 C20.0416368,14.5259809 20.0937545,14.645281 20.0748026,14.664369 C19.998995,14.7311771 19.5536253,14.9459173 19.3072505,15.0365854 C18.7292175,15.2417815 17.852692,15.3753977 17.8100503,15.2656416 Z M21.0366116,12.7698834 C20.7239052,12.5694592 20.3969849,12.373807 20.3164393,12.340403 C20.193252,12.2879109 20.1600861,12.2449629 20.1600861,12.1447508 C20.1600861,12.0779427 20.193252,11.9825027 20.2358938,11.9347826 C20.2737976,11.8918346 20.3685571,11.6150583 20.4396267,11.3191941 L20.567552,10.7799576 L21.3872218,10.7847296 C21.8373295,10.7895016 22.2258435,10.8038176 22.2495334,10.8181336 C22.3585068,10.8897137 22.2068916,11.8870626 22.0315865,12.2974549 C21.9936827,12.378579 21.9226131,12.5360551 21.8704953,12.6553552 C21.8183776,12.7746554 21.7520459,12.9273595 21.7283561,13.0037116 C21.6999282,13.0752916 21.6620244,13.1325557 21.6430725,13.1325557 C21.6193826,13.1325557 21.349318,12.9703075 21.0366116,12.7698834 Z" id="Combined-Shape"></path>
                    </g>
                </g>
            </g>
        </g>
    </g>
</svg>