<?xml version="1.0" encoding="UTF-8" standalone="no"?>
<svg width="36px" height="28px" viewBox="0 0 36 28" version="1.1" xmlns="http://www.w3.org/2000/svg" xmlns:xlink="http://www.w3.org/1999/xlink">
    <!-- Generator: Sketch 50.2 (55047) - http://www.bohemiancoding.com/sketch -->
    <title>icon-phone</title>
    <desc>Created with Sketch.</desc>
    <defs>
        <linearGradient x1="-0.937944523%" y1="50%" x2="100%" y2="50%" id="linearGradient-1">
            <stop stop-color="#EACBAB" offset="0%"></stop>
            <stop stop-color="#FDF7EA" offset="100%"></stop>
        </linearGradient>
    </defs>
    <g id="Page-1" stroke="none" stroke-width="1" fill="none" fill-rule="evenodd">
        <g id="Strona-glowna-Copy" transform="translate(-1301.000000, -948.000000)" fill="url(#linearGradient-1)" fill-rule="nonzero">
            <g id="bottom" transform="translate(392.000000, 934.000000)">
                <g id="tel" transform="translate(909.000000, 0.000000)">
                    <g id="icon-phone" transform="translate(18.000000, 28.000000) scale(-1, 1) rotate(-180.000000) translate(-18.000000, -28.000000) translate(0.000000, 14.000000)">
                        <path d="M16.2927249,27.953411 C15.0271201,27.906822 12.8265174,27.7670549 12.7696944,27.7359956 C12.7438657,27.7204659 12.4339217,27.6790534 12.0826517,27.6479941 C11.7262161,27.6169347 11.2096427,27.5444629 10.9358588,27.4875208 C10.6620749,27.4357552 10.3314679,27.3891662 10.2023246,27.3891662 C10.078347,27.3891662 9.87171761,27.3477537 9.74773999,27.2908116 C9.62376238,27.239046 9.31898407,27.145868 9.06069737,27.0837493 C8.80757641,27.0216306 8.43564356,26.9284526 8.23417994,26.8715104 C8.03788205,26.8145683 7.73310375,26.7369199 7.56263452,26.6903309 C7.11321567,26.5764467 6.5553164,26.4056203 6.34868704,26.3279719 C6.2505381,26.2865594 6.08523461,26.2296173 5.98708567,26.2037345 C5.6874731,26.1209096 5.36203186,25.9914957 4.97460181,25.8103161 C4.77313818,25.7119615 4.54068015,25.6187835 4.45802841,25.5980773 C4.37537667,25.577371 4.16874731,25.4531337 3.99827809,25.3185432 C3.66767111,25.0648918 3.19242359,24.7646515 2.88247955,24.6248845 C2.53637538,24.4644112 1.43607404,23.4239231 0.991820921,22.8337955 C0.816185966,22.606027 0.614722342,22.2177852 0.485578993,21.8864855 C0.418424451,21.705306 0.315109772,21.4620078 0.253120964,21.3481235 C0.185966423,21.2187096 0.113646147,20.9029395 0.0619888076,20.535404 C-0.0206629359,19.9711592 -0.0154972019,19.9090405 0.0671545415,19.5466815 C0.118811881,19.3396192 0.191132157,19.1377334 0.232458028,19.1014975 C0.278949634,19.0652616 0.346104176,18.966907 0.387430047,18.8840821 C0.511407663,18.6459604 0.89883771,18.1386578 1.0641412,18.0040673 C1.37408523,17.7400629 2.77916487,17.1965243 3.14593198,17.1913478 C3.24408093,17.1913478 3.46620749,17.1551119 3.63667671,17.1085228 C3.86396901,17.0464041 4.28755919,17.0205214 5.21222557,16.9998151 C6.35901851,16.9791089 6.524322,16.9842855 6.95307792,17.08264 C7.21653035,17.1447587 7.49031425,17.1913478 7.56263452,17.1913478 C7.73826948,17.1913478 8.33232889,17.434646 8.66810159,17.6468848 C8.82307361,17.7400629 8.99354283,17.8384175 9.05553164,17.8643002 C9.17434352,17.9108893 9.5049505,18.4388981 9.69091692,18.8944352 C9.76323719,19.0652616 9.825226,19.3447957 9.84588894,19.5725642 C9.89754628,20.2092808 10.000861,20.3438713 10.7395609,20.6958772 C11.359449,20.9961176 11.6797245,21.120355 12.0051657,21.2031799 C12.1498063,21.2342392 12.3512699,21.3015345 12.4545846,21.3481235 C12.8833405,21.5448327 12.9091692,21.4930671 12.9091692,20.4370494 C12.9091692,19.9452764 12.8885062,19.5207987 12.8575118,19.4690331 C12.8006888,19.3655019 12.3719328,19.2102052 12.1446406,19.2102052 C11.8760224,19.2102052 11.1218252,18.8996118 10.6465777,18.5941949 C10.3831253,18.4233685 10.0163582,17.9419486 10.0163582,17.7711222 C10.0163582,17.7297097 9.98536375,17.6365317 9.94403788,17.5640599 C9.90787774,17.4864115 9.825226,17.2897023 9.76840293,17.1240525 C9.35514421,15.9852098 9.14334912,15.4313182 9.06069737,15.3070808 C9.02453724,15.2449621 8.96771416,15.105195 8.93155402,14.9913108 C8.89539389,14.8774265 8.82307361,14.7221298 8.77141627,14.6444814 C8.7145932,14.5720096 8.67326733,14.4684785 8.67326733,14.4115363 C8.67326733,14.3597708 8.62677572,14.2407099 8.56995265,14.1475319 C8.51312957,14.0543539 8.46663797,13.9508227 8.46663797,13.9145868 C8.46663797,13.8783509 8.42014636,13.7541135 8.36332329,13.6454058 C8.30133448,13.5315215 8.23417994,13.3555186 8.20835127,13.257164 C8.18768833,13.1588094 8.10503659,12.9155112 8.02755058,12.7136254 C7.95006457,12.5169163 7.85708136,12.2580884 7.81058975,12.1442041 C7.76926388,12.0303198 7.71244081,11.911259 7.68661214,11.8801997 C7.66078347,11.8491403 7.60912613,11.7249029 7.56263452,11.6058421 C7.52130865,11.4867813 7.44382264,11.326308 7.3921653,11.2486596 C7.33534223,11.1710113 7.27851916,11.0519505 7.26818769,10.9794786 C7.25269049,10.9070068 7.19070168,10.7361804 7.13387861,10.5912368 C7.03572966,10.3582917 6.93241498,10.0839342 6.73611709,9.53004252 C6.69995695,9.43168793 6.56564787,9.07450545 6.43133879,8.73802921 C6.30219544,8.40155297 6.19371502,8.10131263 6.19371502,8.07542984 C6.19371502,8.04437049 6.08006888,7.78554261 5.94059406,7.49565539 C5.51183814,6.60011093 5.48084374,6.517286 5.31037452,6.00998336 C5.22255704,5.74080237 5.13473956,5.49750416 5.10891089,5.46644481 C5.08824796,5.44056203 5.04175635,5.33185432 5.01592768,5.23349972 C4.96427034,5.06784988 4.90228153,4.90737659 4.54068015,3.9911259 C4.45286268,3.76335737 4.43736548,3.65464966 4.46319415,3.39582178 C4.52518295,2.831577 4.60266896,2.56757256 4.85578993,2.06544648 C5.03142488,1.71344056 5.28454585,1.37696432 5.63581576,1.03013496 C6.10073181,0.569421335 6.68445975,0.264004437 7.40766251,0.113884267 L7.9242359,0 L18.1007318,0.0207062304 C28.1790788,0.0362359031 28.2823935,0.0362359031 28.6646578,0.139767055 C29.2638829,0.305416898 29.8476108,0.626363468 30.2040465,0.983545942 C30.8704262,1.65132187 31.1907017,2.23109632 31.3766681,3.07487521 L31.5006457,3.6494731 L31.2888506,4.14124607 C31.1752045,4.41560362 31.0615583,4.69513773 31.0357297,4.76760954 C31.0150667,4.84008135 30.9220835,5.07302644 30.834266,5.2852653 C30.7412828,5.49750416 30.6379681,5.77703827 30.601808,5.90645221 C30.4829961,6.29469403 30.36935,6.59493437 30.2660353,6.79164356 C30.2092122,6.89517471 30.1627206,7.02976521 30.1627206,7.08670734 C30.1627206,7.14882603 30.136892,7.21094472 30.1058975,7.23165095 C30.0439087,7.26788686 29.6461472,8.10648918 29.6461472,8.20484378 C29.6461472,8.23590312 29.5996556,8.34978739 29.5428325,8.4584951 C29.4860095,8.56202625 29.4395179,8.68108708 29.4395179,8.71214642 C29.4395179,8.74838233 29.4033577,8.85191348 29.3568661,8.9347384 C29.2690486,9.10038824 29.1192424,9.51451285 29.0055962,9.89240155 C28.9642703,10.0218155 28.8816186,10.2547606 28.8196298,10.4100573 C28.757641,10.565354 28.6646578,10.7982991 28.6130004,10.9277131 C28.5665088,11.057127 28.4167025,11.3884267 28.2875592,11.6731374 C28.1532501,11.9526715 28.0447697,12.1959697 28.0447697,12.2166759 C28.0447697,12.2322056 28.0086096,12.3202071 27.962118,12.403032 C27.9156263,12.4910335 27.8019802,12.7912738 27.708997,13.0759845 C27.533362,13.6143465 27.4352131,13.8576447 27.2647439,14.2200037 C27.2130865,14.333888 27.1665949,14.4477722 27.1665949,14.473655 C27.1665949,14.5098909 27.0787774,14.7117767 26.7843306,15.3536698 C26.5725355,15.8040303 26.484718,16.0214457 26.4123978,16.2336846 C26.3762376,16.3475689 26.2832544,16.6063967 26.2109341,16.8031059 C26.1386139,17.0049917 26.0559621,17.2379368 26.0249677,17.3311148 C25.9319845,17.6313551 25.7201894,18.0817157 25.5755489,18.2628952 C25.2656048,18.6770198 24.2737839,19.1222037 23.4059406,19.236088 C22.9926819,19.2930301 22.9823504,19.3240895 22.9823504,20.4111666 C22.9823504,21.2342392 22.9926819,21.3325938 23.0753336,21.3791828 C23.1373224,21.4102422 23.2199742,21.4050656 23.3387861,21.3533001 C23.436935,21.3118876 23.6435644,21.2445923 23.8037021,21.2083564 C24.4184245,21.0530597 25.4205768,20.6337586 25.7150237,20.40599 C25.9061558,20.2610464 26.0301334,20.0229248 26.0301334,19.7951562 C26.0301334,19.5156221 26.2574257,18.7701978 26.4433922,18.4337216 C26.7739991,17.8539471 27.610848,17.3207617 28.4063711,17.1913478 C28.5613431,17.165465 28.8557899,17.1085228 29.0520878,17.0671104 C29.6203186,16.9376964 31.4438226,16.9532261 32.1256995,17.0878166 C32.4149806,17.1447587 32.7249247,17.1913478 32.8127421,17.1913478 C33.029703,17.1913478 33.7632372,17.4398225 34.310805,17.6986504 C34.7808868,17.9212424 35.0443392,18.1490109 35.3542833,18.6149011 C35.4524322,18.7701978 35.5609126,18.9099649 35.5867413,18.9254945 C35.6177357,18.9462008 35.7003874,19.0756147 35.767542,19.2153818 C35.8398622,19.3551488 35.922514,19.4690331 35.9483427,19.4690331 C35.9793371,19.4690331 36,19.7226844 36,20.1109262 C36,20.6078758 35.9845028,20.7631725 35.9276797,20.8149381 C35.8863539,20.8459974 35.8140336,20.9961176 35.7623762,21.1410612 C35.7158846,21.2911814 35.6280672,21.5034202 35.5609126,21.6173045 C35.4989238,21.7311888 35.4317693,21.8864855 35.4111063,21.9641339 C35.3439518,22.2540211 34.8635385,22.968386 34.3986225,23.4860418 C33.980198,23.9467554 32.9005596,24.8008874 32.7404219,24.8008874 C32.699096,24.8008874 32.4718037,24.9406545 32.2290142,25.1114809 C31.9862247,25.2823073 31.5936289,25.5152524 31.3508394,25.6291366 C31.1080499,25.7430209 30.8445975,25.8724348 30.7671115,25.9138473 C30.6844598,25.9552598 30.5914765,25.9914957 30.5604821,25.9914957 C30.524322,25.9914957 30.4158416,26.0329081 30.3176926,26.0898502 C30.2195437,26.1416158 30.0490745,26.198558 29.9354283,26.2192642 C29.8269479,26.2399704 29.6668102,26.2865594 29.5738269,26.3279719 C29.4085235,26.4004437 28.7938011,26.5867998 28.1997417,26.7420965 C28.0137753,26.7886855 27.6780026,26.8818636 27.4507103,26.9491588 C27.223418,27.0164541 26.9083082,27.0941024 26.7481705,27.1303383 C26.5880327,27.1613977 26.3452432,27.2286929 26.2057684,27.2804585 C26.0662936,27.3322241 25.7821782,27.3943428 25.5755489,27.4098724 C25.3689195,27.4305787 25.0899699,27.4771677 24.9556608,27.5185801 C24.8213517,27.554816 24.4804133,27.6014051 24.1962979,27.6221113 C23.9121825,27.6428175 23.5764098,27.6790534 23.4472665,27.7049362 C23.3181231,27.730819 22.6569092,27.7877611 21.9750323,27.8291736 C19.0615583,28.0155297 18.3228584,28.0310593 16.2927249,27.953411 Z M20.8385708,26.0950268 C21.7219113,26.0380847 22.6155833,25.9656129 22.8273784,25.9345535 C23.0391735,25.9086707 23.4472665,25.8620817 23.7313818,25.8310224 C24.0154972,25.8051396 24.4132587,25.7430209 24.6095566,25.7016084 C24.8110202,25.660196 25.1003013,25.613607 25.2552734,25.5980773 C25.5858803,25.5618414 26.7533362,25.2564245 27.631511,24.9717138 C27.7606543,24.9303013 28.0241068,24.8630061 28.2204046,24.8267702 C28.4115368,24.7853577 28.5975032,24.7335922 28.6336634,24.7077094 C28.6646578,24.6818266 28.7628067,24.6455907 28.8454585,24.6248845 C28.9332759,24.6041782 29.1244081,24.5420595 29.2690486,24.4851174 C29.4188549,24.4281753 29.6771416,24.3349972 29.8372794,24.2728785 C30.0025829,24.2159364 30.2298752,24.1279349 30.3435213,24.0865225 C30.6224709,23.9778148 31.4438226,23.5171011 31.6349548,23.366981 C32.4821352,22.699205 32.6887645,22.5439083 32.8230736,22.4610834 C33.0452002,22.3316694 33.4894533,21.6794232 33.6960827,21.1876502 C33.8510547,20.8201146 33.9595351,20.1782215 33.9130435,19.9245702 C33.8303917,19.4793862 33.3551442,19.1946755 32.3065002,18.9720836 C31.6814464,18.8323165 31.5523031,18.8219634 30.446836,18.8219634 C29.3671976,18.8219634 29.2173913,18.8323165 28.7938011,18.9410242 C28.2927249,19.0704382 28.0344382,19.2050287 27.9104606,19.3913847 C27.8691347,19.45868 27.8123117,19.7071547 27.786483,19.9504529 C27.7606543,20.1937512 27.7038313,20.5043446 27.6573396,20.6389351 C27.5591907,20.9288223 27.2285837,21.3584766 26.970297,21.5396561 C26.8669824,21.6121279 26.6190271,21.8036606 26.4227292,21.9693104 C26.0921223,22.2384914 25.4102454,22.6267332 25.2552734,22.6267332 C25.2242789,22.6267332 25.1209643,22.6629691 25.0331468,22.7043816 C24.795523,22.8130893 24.4390874,22.9373267 24.1446406,23.014975 C23.7520448,23.1185062 23.028842,23.3359216 22.8532071,23.4032169 C22.7705553,23.4342762 22.5226001,23.4963949 22.310805,23.5429839 C22.0990099,23.5843964 21.8665519,23.6516916 21.7942316,23.6879275 C21.7219113,23.7241634 21.5049505,23.7707524 21.3034869,23.7914587 C21.107189,23.8121649 20.7817477,23.8587539 20.5802841,23.9001664 C20.1721911,23.9881679 18.7877744,24.091699 17.9715885,24.0968756 C17.2845458,24.1020521 15.476539,23.9829913 15.3112355,23.9208726 C15.2440809,23.8949898 14.9806285,23.8484008 14.7326733,23.8173415 C14.484718,23.7862821 14.1386139,23.7138103 13.9681446,23.6620447 C13.7976754,23.6102792 13.5290573,23.5378074 13.3740852,23.506748 C13.2191132,23.4756887 12.9608265,23.4083934 12.8058545,23.3566278 C12.6508825,23.2996857 12.3357727,23.2065077 12.1084804,23.144389 C11.7262161,23.0356813 11.1218252,22.8389721 10.5071029,22.6267332 C10.0835127,22.4817896 9.57727077,22.1867258 9.21566939,21.8813089 C9.02970297,21.7208356 8.85923375,21.5914217 8.83857081,21.5914217 C8.73525613,21.5914217 8.30650022,21.0841191 8.16185966,20.7890553 C8.03271632,20.5250508 8.00172191,20.4008135 8.00172191,20.1212793 C8.00172191,19.6553892 7.86224709,19.329266 7.59879466,19.1791459 C7.49547998,19.1170272 7.20103315,19.013496 6.94274645,18.9462008 C6.51915626,18.8323165 6.37451571,18.8219634 5.26388291,18.8219634 C4.29789066,18.8219634 3.97761515,18.8374931 3.68833405,18.9099649 C3.49203616,18.9565539 3.23374946,19.013496 3.12010331,19.0290257 C2.737839,19.0911444 2.33491175,19.2671473 2.08179079,19.4897393 L1.83383556,19.7123313 L1.81317262,20.0953966 C1.79767542,20.4163431 1.81833836,20.5561102 1.9319845,20.8925864 C2.17993973,21.6017748 2.68101593,22.3730819 3.04261731,22.5853208 C3.15626345,22.652616 3.47137322,22.8803845 3.75032286,23.0926234 C4.02927249,23.3100388 4.349548,23.5429839 4.46319415,23.6102792 C4.75247525,23.7914587 5.52216961,24.1589943 5.7339647,24.221113 C5.83211365,24.2521723 6.07490314,24.3349972 6.27120103,24.4126456 C6.47266466,24.4851174 6.71545415,24.5731189 6.8136031,24.5990017 C6.91175204,24.630061 7.06672406,24.6818266 7.14937581,24.723239 C7.23719328,24.7594749 7.42315971,24.806064 7.56263452,24.8267702 C7.70727508,24.8474764 7.84674989,24.8837123 7.87257856,24.9044186 C7.90357297,24.9303013 8.02755058,24.9717138 8.15669393,25.0027732 C8.28583728,25.0390091 8.57511838,25.1166574 8.80241068,25.1839527 C9.59793371,25.4220743 10.2023246,25.577371 10.3314679,25.577371 C10.3986225,25.577371 10.620749,25.613607 10.8170469,25.6550194 C11.0185105,25.7016084 11.4007749,25.7585506 11.669393,25.7844334 C11.9380112,25.8154927 12.3925958,25.8724348 12.6767111,25.9138473 C12.9608265,25.9552598 13.6478691,26.0173784 14.2006027,26.0484378 C14.7533362,26.0846737 15.4042187,26.1312627 15.6470082,26.1467924 C16.6956522,26.2244407 19.2371933,26.198558 20.8385708,26.0950268 Z M19.0822213,22.2126086 C20.1153681,22.1504899 20.874731,22.0003698 21.0606974,21.8140137 C21.1795093,21.6949529 21.1795093,21.6794232 21.1640121,20.7062304 C21.1536806,20.0332779 21.1278519,19.7123313 21.086526,19.6864485 C21.0555316,19.6657423 19.6194576,19.6502126 17.8941025,19.6553892 C15.223418,19.6553892 14.7533362,19.6657423 14.7120103,19.7330375 C14.6861817,19.77445 14.6655187,20.2299871 14.6655187,20.7424663 C14.6655187,21.8968386 14.6448558,21.8554261 15.3370641,22.0314291 C16.11709,22.2281383 17.5789927,22.3006101 19.0822213,22.2126086 Z M20.0120534,17.8384175 C20.7817477,17.797005 21.5876022,17.7297097 21.8097288,17.6831207 C22.0318554,17.6417083 22.3056393,17.6054724 22.4141197,17.6054724 C22.6310805,17.6054724 23.6745588,17.351821 23.9690056,17.2275837 C24.1394748,17.1602884 24.1704692,17.1085228 24.2996126,16.7461638 C24.4442531,16.3372158 24.7696944,15.4623775 24.950495,15.0068405 C25.0073181,14.87225 25.048644,14.7066001 25.048644,14.6341283 C25.048644,14.5616565 25.0693069,14.4995378 25.1003013,14.4995378 C25.1881188,14.4995378 25.6788635,13.4383435 25.7976754,12.9983361 C25.844167,12.8275097 26.0301334,12.3253836 26.0921223,12.2011462 C26.1541111,12.0820854 26.3194146,11.6110187 26.4123978,11.2900721 C26.4950495,11.010538 26.6448558,10.6585321 26.8204907,10.3324089 C26.9393026,10.109817 27.1665949,9.59733777 27.1665949,9.55074875 C27.1665949,9.49898318 27.4145502,8.85191348 27.4817047,8.73285265 C27.5488592,8.61896839 27.708997,8.15825476 27.8071459,7.82177852 C27.8433061,7.69236458 27.9104606,7.51636162 27.9569522,7.42318358 C28.0086096,7.33000555 28.0447697,7.21094472 28.0447697,7.15917915 C28.0447697,7.10741357 28.0912613,7.01941209 28.1480844,6.96764652 C28.2049074,6.91588094 28.2513991,6.85376225 28.2513991,6.82787946 C28.2513991,6.79682011 28.3185536,6.63634683 28.4012053,6.46034387 C28.4838571,6.28434091 28.6078347,5.97892402 28.680155,5.77703827 C28.757641,5.58032908 28.8919501,5.20761693 28.990099,4.94878906 C29.088248,4.69513773 29.1812312,4.41560362 29.2018941,4.32760214 C29.222557,4.24477722 29.2897116,4.06877427 29.3517004,3.93936033 C29.5118381,3.59770752 29.4911752,3.26123128 29.2845458,2.80051766 C29.0624193,2.32427436 28.8144641,2.11721205 28.2772277,1.94638565 L27.8743005,1.81697171 L17.9095997,1.81697171 L7.95006457,1.81697171 L7.55230306,1.93085598 C6.92724925,2.11721205 6.5708136,2.51063043 6.40551012,3.19911259 C6.33835557,3.47347014 6.38484718,3.79441671 6.52948773,4.01700869 C6.56564787,4.07395082 6.61213947,4.20336476 6.62763668,4.30171936 C6.64829961,4.40007395 6.71028842,4.6019597 6.76194576,4.74172675 C7.3301765,6.25328157 7.54713732,6.786467 7.70210934,7.00388242 C7.75376668,7.07635422 7.79509255,7.1643557 7.79509255,7.19541505 C7.79509255,7.23165095 7.83641842,7.34035866 7.8932415,7.44906637 C7.94489884,7.55259752 8.00172191,7.71824737 8.01721911,7.8114254 C8.03788205,7.90978 8.08437365,8.05990017 8.12569953,8.14790165 C8.23934567,8.41708264 8.57511838,9.2763912 8.67326733,9.55592531 C8.78691347,9.88204844 9.08652604,10.5084119 9.14334912,10.5446478 C9.16917779,10.5601775 9.18984072,10.6119431 9.18984072,10.6585321 C9.18984072,10.7102977 9.23633233,10.8397116 9.2931554,10.9535959 C9.34997848,11.0674801 9.39647008,11.186541 9.39647008,11.2279534 C9.39647008,11.2641893 9.43779595,11.4039564 9.49461903,11.5385469 C9.72191132,12.1131448 10.0111924,12.8792753 10.0421868,12.9983361 C10.1455015,13.3762248 10.5690917,14.3287114 10.7137322,14.4995378 C10.7498924,14.5409503 10.7912183,14.6600111 10.8118812,14.7583657 C10.8325441,14.8567203 10.9410245,15.1828434 11.0598364,15.4830837 C11.1734826,15.7833241 11.3129574,16.1508597 11.3697805,16.2958033 C11.6383986,17.0464041 11.690056,17.1499353 11.8501937,17.2275837 C12.1343091,17.3777038 12.9453293,17.5692365 13.6582006,17.6572379 C13.9164873,17.6882973 14.2884201,17.7348863 14.484718,17.7659456 C14.8721481,17.8177112 16.7783039,17.8953596 17.9199311,17.9057127 C18.3021954,17.9108893 19.2475248,17.8798299 20.0120534,17.8384175 Z" id="Shape"></path>
                        <path d="M17.7907878,16.7927528 C16.3185536,16.673692 15.9001291,16.580514 14.8463194,16.1301534 C14.5725355,16.0110926 14.1231167,15.7833241 14.0456307,15.7212054 C14.0043048,15.6849695 13.8028412,15.5607321 13.6013775,15.4416713 C13.2449419,15.234609 13.1364615,15.1310778 12.5217391,14.4218894 C12.3512699,14.2200037 12.0929832,13.9301165 11.9535084,13.7748197 C11.8088678,13.619523 11.6642273,13.4331669 11.6280672,13.3606951 C11.5970728,13.2882233 11.5454154,13.1950453 11.5195867,13.1536328 C11.4317693,13.0138658 10.9978476,11.9837308 10.9978476,11.9216121 C10.9978476,11.8853762 10.951356,11.688667 10.8996987,11.4816047 C10.5742574,10.2651137 10.5845889,9.00203365 10.9410245,7.71824737 C11.183814,6.84858569 11.61257,6.01515992 12.1239776,5.4198558 C12.3461042,5.16102792 12.6095566,4.85561102 12.7077056,4.74172675 C13.048644,4.33795526 13.3069307,4.11018673 13.6530349,3.90830098 C13.844167,3.79959327 14.0869565,3.65464966 14.1902712,3.59253097 C14.4433922,3.43723424 14.7894963,3.27676095 15.1046061,3.16287669 C15.2492467,3.11628767 15.5746879,2.99722684 15.8278089,2.90922537 C16.1274214,2.80569421 16.582006,2.70216306 17.1089109,2.6245147 L17.9199311,2.50545387 L18.75678,2.62969126 C19.2216961,2.69180995 19.7176065,2.7953411 19.8674128,2.85228323 C20.0172191,2.90922537 20.2703401,3.0024034 20.4253121,3.05934554 C21.0452002,3.27676095 21.3086526,3.38546866 21.4842876,3.49417637 C21.7684029,3.67017933 21.8510547,3.71676835 22.1971588,3.9186541 C22.5535945,4.1257164 22.7137322,4.26548345 23.1373224,4.76760954 C23.2922944,4.94878906 23.591907,5.29044186 23.7985364,5.52338695 C24,5.75633204 24.1704692,5.97374746 24.1704692,5.99963025 C24.1704692,6.02551303 24.2582867,6.20669255 24.3667671,6.40340174 C24.7593629,7.1281198 24.9556608,7.78036606 25.1106328,8.84156036 C25.203616,9.52486596 25.2087817,9.66463302 25.1571244,10.1512294 C25.0538097,11.0519505 25.0124839,11.3056018 24.9246664,11.5644297 C24.8781748,11.6990202 24.8420146,11.8491403 24.8420146,11.8957293 C24.8420146,11.9785543 24.4235902,12.987983 24.3202755,13.1536328 C24.2944468,13.1950453 24.2427895,13.2882233 24.2117951,13.3606951 C24.175635,13.4331669 24.0309944,13.619523 23.8863539,13.7748197 C23.746879,13.935293 23.5557469,14.1423553 23.4730951,14.2407099 C22.6155833,15.2190793 22.5587602,15.2760214 22.1816616,15.4934369 C21.9647008,15.6176742 21.7012484,15.7677944 21.5979337,15.8299131 C21.3758071,15.9645036 21.3913043,15.959327 20.7610848,16.2181549 C20.4924666,16.3320392 20.136031,16.4666297 19.9758932,16.5235718 C19.5419716,16.6633389 18.2247094,16.8238122 17.7907878,16.7927528 Z M18.7102884,14.9395452 C18.9892381,14.8981327 19.3250108,14.8153078 19.4541541,14.7583657 C19.5832975,14.7014236 19.7176065,14.6548345 19.7537667,14.6548345 C19.903573,14.6548345 21.2208351,13.9508227 21.4739561,13.7334073 C21.7219113,13.526345 21.9956952,13.210575 22.5226001,12.5376225 C22.7240637,12.2787946 22.9255273,11.8801997 23.0598364,11.4712516 C23.1941455,11.0519505 23.3387861,10.156406 23.3439518,9.71639859 C23.3439518,9.26086153 23.2199742,8.40672952 23.1114938,8.13237197 C23.0701679,8.03401738 23.0236763,7.86836754 23.0030133,7.77001294 C22.951356,7.5060085 22.6930693,7.03494176 22.4089539,6.69846552 C22.2694791,6.53281568 22.0421868,6.25845813 21.902712,6.08763172 C21.5669393,5.67350712 21.3034869,5.47162137 20.7197589,5.17138103 C20.4563065,5.03679053 20.2083513,4.90737659 20.1773569,4.88667036 C19.9965562,4.7727861 19.3715024,4.55537068 18.9220835,4.45701608 C18.2298752,4.30171936 17.6048214,4.30689591 16.8609557,4.47254576 C16.3702109,4.58643002 15.863969,4.75725642 15.6625054,4.88667036 C15.631511,4.90737659 15.3835557,5.03679053 15.1201033,5.17138103 C14.5363754,5.47162137 14.2729229,5.67350712 13.9371502,6.08763172 C13.7976754,6.25845813 13.5703831,6.53281568 13.4309083,6.70364208 C12.5217391,7.78554261 12.2427895,9.83545942 12.7800258,11.4712516 C13.0073181,12.1597338 13.1054671,12.3305602 13.6995265,13.0449251 C14.2367628,13.6868183 14.5260439,13.9197634 15.2647439,14.2872989 C16.5975032,14.9498983 17.4963409,15.1207247 18.7102884,14.9395452 Z" id="Shape"></path>
                        <path d="M17.6099871,13.8265853 C17.4963409,13.8007025 17.3568661,13.7023479 17.2380542,13.5677574 C17.0520878,13.3606951 17.0417563,13.3296358 17.0417563,12.9983361 C17.0417563,12.7032723 17.0624193,12.6100943 17.1760654,12.4392679 C17.2897116,12.2632649 17.3620319,12.2166759 17.6151528,12.1442041 C17.8992682,12.0665557 17.9457598,12.0665557 18.2092122,12.1442041 C18.4365045,12.2114994 18.5191563,12.2684415 18.6431339,12.4392679 C18.777443,12.625624 18.7981059,12.6929192 18.7981059,12.9983361 C18.7981059,13.3296358 18.7877744,13.3606951 18.6069737,13.5625809 C18.348687,13.8472916 18.0490745,13.9301165 17.6099871,13.8265853 Z M19.727938,13.2416343 C19.2216961,12.941394 19.0718898,12.7964504 19.009901,12.5583287 C18.9220835,12.2011462 19.009901,11.9164356 19.2785192,11.7093733 C19.5523031,11.4971344 19.8105898,11.4246626 20.1102023,11.4660751 C20.3013345,11.4971344 20.3736548,11.5385469 20.5027981,11.7041967 C20.5906156,11.8129044 20.699096,12.0096136 20.7404219,12.133851 C20.8127421,12.3409133 20.8127421,12.3875023 20.7404219,12.5583287 C20.6371072,12.7964504 20.3581576,13.1536328 20.2755058,13.1536328 C20.2341799,13.1536328 20.1463625,13.2002219 20.0740422,13.257164 C19.9242359,13.3762248 19.9552303,13.3814014 19.727938,13.2416343 Z M15.5798536,13.1484563 C15.3732243,13.0397486 15.1046061,12.6773895 15.0529488,12.4289148 C15.0167886,12.2529118 15.125269,11.9733777 15.3370641,11.7041967 C15.610848,11.3573674 16.1119242,11.3625439 16.5613431,11.7145498 C16.8196298,11.9060825 16.9022815,12.1856166 16.8247955,12.5479756 C16.7886354,12.7291551 16.7318123,12.81198 16.5355144,12.9621002 C16.11709,13.2830468 15.9052949,13.3192827 15.5798536,13.1484563 Z M14.562204,11.5696062 C14.174774,11.4298392 14.0817908,11.3625439 13.9629789,11.1244223 C13.8080069,10.8138288 13.8028412,10.565354 13.9629789,10.3168793 C14.1127852,10.0787576 14.2212656,9.99075615 14.4950495,9.87169532 C14.7120103,9.77851729 14.7171761,9.77851729 15.0116229,9.887225 C15.5953508,10.1046404 15.7916487,10.5860603 15.5230306,11.150305 C15.4197159,11.3780736 15.3525613,11.4505454 15.223418,11.4919578 C14.9961257,11.5644297 14.660353,11.6058421 14.562204,11.5696062 Z M20.8902282,11.5696062 C20.4976324,11.4712516 20.4511408,11.4350157 20.3219974,11.1658347 C20.058545,10.6067665 20.213517,10.1512294 20.7507533,9.91310778 C21.0968575,9.76298761 21.1691778,9.75781106 21.417133,9.90275467 C21.7012484,10.063228 21.7942316,10.1512294 21.902712,10.3686449 C22.0318554,10.6222962 22.0266896,10.7517101 21.8768833,11.0881864 C21.7839001,11.3056018 21.7115799,11.3884267 21.5669393,11.4557219 C21.3603099,11.5592531 21.0503659,11.6058421 20.8902282,11.5696062 Z M14.4330607,9.46792383 C14.2315971,9.39545202 14.1127852,9.29192087 13.9629789,9.05379922 C13.7976754,8.79497134 13.8080069,8.57755593 13.999139,8.24625624 C14.1282824,8.01848771 14.2057684,7.9460159 14.4227292,7.84248475 C14.6810159,7.72860048 14.7068446,7.72342392 14.9393026,7.79589573 C15.2699096,7.89425032 15.3060697,7.92013311 15.476539,8.15825476 C15.5953508,8.32908116 15.6211795,8.41708264 15.6211795,8.67591052 C15.6211795,8.94509151 15.6005166,9.01238676 15.4662075,9.18321316 C15.2492467,9.45239416 14.7585019,9.58698466 14.4330607,9.46792383 Z M20.8489023,9.47310039 C20.5647869,9.40580514 20.4873009,9.35403956 20.3271632,9.12109447 C20.1980198,8.93991496 20.1825226,8.87261971 20.2031855,8.63967462 C20.2186827,8.45331854 20.2755058,8.29802182 20.368489,8.15825476 C20.5337925,7.92013311 20.5854498,7.88389721 20.9212226,7.79589573 C21.1485149,7.73377704 21.1898407,7.7389536 21.4274645,7.84766131 C21.6340938,7.9460159 21.7167456,8.02366426 21.8407232,8.24625624 C22.0266896,8.56720281 22.0370211,8.73285265 21.902712,9.00203365 C21.7787344,9.24533185 21.6134309,9.39545202 21.3861386,9.47310039 C21.184675,9.54039564 21.1226862,9.54039564 20.8489023,9.47310039 Z M15.6005166,7.87354409 C15.3577271,7.77001294 15.0322858,7.28859309 15.0271201,7.02976521 C15.0271201,6.82787946 15.2750753,6.44999076 15.5178648,6.29987059 C15.8226431,6.11351451 16.039604,6.13422074 16.4631941,6.39304862 C16.736978,6.55869847 16.7783039,6.60528748 16.8299613,6.81234979 C16.9281102,7.20576816 16.835127,7.45941949 16.4941885,7.69236458 C16.1894102,7.90460344 15.8381403,7.97189869 15.6005166,7.87354409 Z M19.3818338,7.71824737 C19.0822213,7.52671473 19.0615583,7.49565539 19.0047353,7.24200407 C18.911752,6.80717323 19.009901,6.60011093 19.4231597,6.36198928 C19.826087,6.12904419 19.9862247,6.12386763 20.3323289,6.32057682 C20.5596212,6.44999076 20.6112785,6.51210945 20.7042617,6.75540765 C20.8282393,7.0918839 20.7920792,7.28859309 20.5492897,7.59400998 C20.3426604,7.85283786 20.2186827,7.92013311 19.9294016,7.92530967 C19.7434352,7.92530967 19.6349548,7.88389721 19.3818338,7.71824737 Z M17.475678,7.20059161 C17.4188549,7.17988538 17.2948773,7.06600111 17.2070598,6.95211684 C17.067585,6.77611388 17.0417563,6.70364208 17.0417563,6.45516731 C17.0417563,6.24810501 17.0779165,6.08763172 17.1708997,5.91162877 C17.2793801,5.69421335 17.3310375,5.64762433 17.5376668,5.57515252 C17.8476108,5.47162137 17.9457598,5.47162137 18.2815325,5.58032908 C18.5139905,5.65797744 18.5604821,5.69421335 18.6741283,5.91162877 C18.8600947,6.28434091 18.8445975,6.64669994 18.6379681,6.93658717 C18.5449849,7.05564799 18.4158416,7.17988538 18.348687,7.20576816 C18.193715,7.2627103 17.6254843,7.2627103 17.475678,7.20059161 Z" id="Combined-Shape"></path>
                    </g>
                </g>
            </g>
        </g>
    </g>
</svg>