<?xml version="1.0" encoding="UTF-8" standalone="no"?>
<svg width="40px" height="40px" viewBox="0 0 40 40" version="1.1" xmlns="http://www.w3.org/2000/svg" xmlns:xlink="http://www.w3.org/1999/xlink">
    <!-- Generator: Sketch 50.2 (55047) - http://www.bohemiancoding.com/sketch -->
    <title>ig</title>
    <desc>Created with Sketch.</desc>
    <defs>
        <linearGradient x1="-0.937944523%" y1="50%" x2="100%" y2="50%" id="linearGradient-1">
            <stop stop-color="#EACBAB" offset="0%"></stop>
            <stop stop-color="#FDF7EA" offset="100%"></stop>
        </linearGradient>
    </defs>
    <g id="ig" stroke="none" stroke-width="1" fill="none" fill-rule="evenodd">
        <rect id="Rectangle-14" x="0" y="0" width="40" height="40"></rect>
        <path d="M25.503418,8 L14.496582,8 C10.9143066,8 8,10.9143066 8,14.496582 L8,25.5036011 C8,29.0856934 10.9143066,32 14.496582,32 L25.5036011,32 C29.0856934,32 32,29.0856934 32,25.5036011 L32,14.496582 C32,10.9143066 29.0856934,8 25.503418,8 Z M13.4376831,20 C13.4376831,16.3814697 16.3814698,13.4376831 20,13.4376831 C23.6185303,13.4376831 26.5623169,16.3814698 26.5623169,20 C26.5623169,23.6185303 23.6185302,26.5623169 20,26.5623169 C16.3814698,26.5623169 13.4376831,23.6185303 13.4376831,20 Z M26.7192383,14.9852905 C25.6499023,14.9852905 24.7801513,14.1155396 24.7801513,13.0462036 C24.7801513,11.9768677 25.6499023,11.1069336 26.7192383,11.1069336 C27.7885742,11.1069336 28.6585083,11.9768677 28.6585083,13.0462036 C28.6585083,14.1155396 27.7885742,14.9852905 26.7192383,14.9852905 Z M19.9640146,15.4399963 C22.4586017,15.4399963 24.4880146,17.4694092 24.4880146,19.9639963 C24.4880146,22.4584227 22.4586017,24.4879963 19.9640146,24.4879963 C17.4695882,24.4879963 15.4400146,22.4584227 15.4400146,19.9639963 C15.4400146,17.4694092 17.4695882,15.4399963 19.9640146,15.4399963 Z" id="ig-icon-copy" fill="url(#linearGradient-1)"></path>
    </g>
</svg>