<?xml version="1.0" encoding="UTF-8" standalone="no"?>
<svg width="22px" height="22px" viewBox="0 0 22 22" version="1.1" xmlns="http://www.w3.org/2000/svg" xmlns:xlink="http://www.w3.org/1999/xlink">
    <!-- Generator: Sketch 50.2 (55047) - http://www.bohemiancoding.com/sketch -->
    <title>language-icon</title>
    <desc>Created with Sketch.</desc>
    <defs>
        <linearGradient x1="100%" y1="-5.55111512e-15%" x2="1.11022302e-14%" y2="100%" id="linearGradient-1">
            <stop stop-color="#01130B" offset="0%"></stop>
            <stop stop-color="#03190E" offset="100%"></stop>
        </linearGradient>
        <linearGradient x1="-0.937944523%" y1="50%" x2="100%" y2="50%" id="linearGradient-2">
            <stop stop-color="#EACBAB" offset="0%"></stop>
            <stop stop-color="#FDF7EA" offset="100%"></stop>
        </linearGradient>
    </defs>
    <g id="Symbols" stroke="none" stroke-width="1" fill="none" fill-rule="evenodd">
        <g id="3-menu-_-podstrony" transform="translate(-1465.000000, -59.000000)">
            <g id="Menu">
                <g id="Group-5">
                    <g id="Group-4">
                        <g id="Menu" transform="translate(390.000000, 37.000000)">
                            <g id="Language" transform="translate(1074.000000, 21.000000)">
                                <g id="language-icon">
                                    <g>
                                        <g>
                                            <rect id="Rectangle" x="0" y="0" width="24" height="24"></rect>
                                            <path d="M8.51322932,15.2620482 L15.6209989,15.2620482 C15.7535325,14.2396602 15.8255034,13.142193 15.8255034,12 C15.8255034,11.041873 15.7748599,10.115218 15.6803067,9.23795181 L8.45392153,9.23795181 C8.35936833,10.115218 8.30872483,11.041873 8.30872483,12 C8.30872483,13.142193 8.38069566,14.2396602 8.51322932,15.2620482 Z M8.51322932,15.2620482 C9.01964808,19.1686516 10.4103133,21.9790623 12.0487805,21.9998835 C12.068376,21.9997899 12.0879582,21.99964 12.1075269,21.9994338 C13.7363989,21.9537751 15.1168564,19.1510918 15.6209989,15.2620482 L8.51322932,15.2620482 Z M8.45392153,9.23795181 L15.6803067,9.23795181 C15.2333767,5.09132765 13.805406,2.04815922 12.1075269,2.00056617 C12.0879582,2.00036001 12.068376,2.00021006 12.0487805,2.00011647 C10.3412117,2.02181582 8.9027875,5.07336577 8.45392153,9.23795181 Z M12.0487805,21.9998835 C12.0325295,21.9999611 12.0162693,22 12,22 C6.4771525,22 2,17.5228475 2,12 C2,6.4771525 6.4771525,2 12,2 C12.0162693,2 12.0325295,2.00003885 12.0487805,2.00011647 C12.0548883,2.00003885 12.0609995,2 12.0671141,2 C12.0806017,2 12.0940728,2.00018904 12.1075269,2.00056617 C17.5808424,2.05822808 22,6.51303926 22,12 C22,17.4869607 17.5808424,21.9417719 12.1075269,21.9994338 C12.0940728,21.999811 12.0806017,22 12.0671141,22 C12.0609995,22 12.0548883,21.9999611 12.0487805,21.9998835 Z M8.45392153,9.23795181 C8.45392153,9.23795181 8.45392153,9.23795181 8.45392153,9.23795181 L3.7637722,9.23795181 L8.45392153,9.23795181 Z M15.6803067,9.23795181 L20.7637722,9.23795181 L15.6803067,9.23795181 C15.6803067,9.23795181 15.6803067,9.23795181 15.6803067,9.23795181 Z M8.51322932,15.2620482 C8.51322932,15.2620482 8.51322932,15.2620482 8.51322932,15.2620482 L3.7637722,15.2620482 L8.51322932,15.2620482 Z M15.6209989,15.2620482 L20.7260872,15.2620482 L15.6209989,15.2620482 C15.6209989,15.2620482 15.6209989,15.2620482 15.6209989,15.2620482 Z" id="Combined-Shape" stroke="url(#linearGradient-2)" stroke-width="2" stroke-linecap="square" stroke-linejoin="round"></path>
                                        </g>
                                    </g>
                                </g>
                            </g>
                        </g>
                    </g>
                </g>
            </g>
        </g>
    </g>
</svg>