<?xml version="1.0" encoding="UTF-8" standalone="no"?>
<svg width="30px" height="30px" viewBox="0 0 30 30" version="1.1" xmlns="http://www.w3.org/2000/svg" xmlns:xlink="http://www.w3.org/1999/xlink">
    <!-- Generator: Sketch 50.2 (55047) - http://www.bohemiancoding.com/sketch -->
    <title>massage_yes</title>
    <desc>Created with Sketch.</desc>
    <defs>
        <linearGradient x1="-0.937944523%" y1="50%" x2="100%" y2="50%" id="linearGradient-1">
            <stop stop-color="#EACBAB" offset="0%"></stop>
            <stop stop-color="#FDF7EA" offset="100%"></stop>
        </linearGradient>
    </defs>
    <g id="Page-1" stroke="none" stroke-width="1" fill="none" fill-rule="evenodd">
        <g id="Masaz" transform="translate(-1291.000000, -674.000000)" fill="url(#linearGradient-1)">
            <g id="Group" transform="translate(635.000000, 299.000000)">
                <g id="Group-2">
                    <g id="massage_yes" transform="translate(656.000000, 375.000000)">
                        <g id="Group-3">
                            <path d="M0,15 L15.0005303,30 L30,15 L15.0005303,0 L0,15 Z M3.00159095,15 L15.0005303,3.00042424 L27.0005303,15 L15.0005303,26.9985152 L3.00159095,15 Z" id="Fill-1"></path>
                            <path d="M4,4 C11.3333333,4 15,5.4661558 15,8.39846741 C15,5.4661558 18.6666667,4 26,4 C26,11.3333333 24.5333333,15 21.6,15 C24.5333333,14.9974457 26,18.661558 26,25.9923371 C18.6666667,26.1199453 15,24.6537895 15,21.5938697 C15,24.5261813 11.3333333,25.9923371 4,25.9923371 C4,18.661558 5.46666667,14.9961685 8.4,14.9961685 C5.46666667,14.9961685 4,11.330779 4,4 Z M15.0013938,19 C17.2113026,19 19.0027877,17.209139 19.0027877,15 C19.0027877,12.790861 17.2113026,11 15.0013938,11 C12.791485,11 11,12.790861 11,15 C11,17.209139 12.791485,19 15.0013938,19 Z" id="Combined-Shape"></path>
                        </g>
                    </g>
                </g>
            </g>
        </g>
    </g>
</svg>