<?xml version="1.0" encoding="UTF-8" standalone="no"?>
<svg width="212px" height="399px" viewBox="0 0 212 399" version="1.1" xmlns="http://www.w3.org/2000/svg" xmlns:xlink="http://www.w3.org/1999/xlink">
    <!-- Generator: Sketch 50.2 (55047) - http://www.bohemiancoding.com/sketch -->
    <title>massage_border_small</title>
    <desc>Created with Sketch.</desc>
    <defs>
        <linearGradient x1="-0.937944523%" y1="50%" x2="100%" y2="50%" id="linearGradient-1">
            <stop stop-color="#EACBAB" offset="0%"></stop>
            <stop stop-color="#FDF7EA" offset="100%"></stop>
        </linearGradient>
    </defs>
    <g id="Page-1" stroke="none" stroke-width="1" fill="none" fill-rule="evenodd">
        <g id="Artboard-4" transform="translate(-826.000000, -477.000000)" stroke="url(#linearGradient-1)" stroke-width="2">
            <g id="massage_border_small" transform="translate(826.000000, 477.000000)">
                <path d="M1.00003805,1.00015365 C1.00923694,121.733738 2.68605698,186.136046 5.89442719,192.552786 L6.21676051,193.197453 L5.70710678,193.707107 C3.41544011,195.998773 3.41544011,195.998773 1.95710678,197.457107 C1.67383145,197.740382 1.53061996,197.883594 1.41414799,198.000066 C1.53063067,198.116555 1.67384268,198.259791 1.95716612,198.543162 C3.41549945,200.00174 3.41549945,200.00174 5.70716612,202.293792 L6.21675003,202.803461 L5.89441218,203.448083 C2.68602238,209.864324 1.00908819,275.276922 1.00003684,397.999846 C60.7257208,397.981449 94.1415112,396.31121 100.552786,393.105573 L101.197453,392.783239 L101.707107,393.292893 C104.76216,396.347946 104.830541,396.416328 106,397.585786 C107.169459,396.416328 107.23784,396.347946 110.292893,393.292893 L110.802547,392.783239 L111.447214,393.105573 C117.858489,396.31121 151.274279,397.981449 210.999963,397.999846 C210.990912,275.27683 209.31398,209.864027 206.105573,203.447214 L205.783239,202.802547 L206.292893,202.292893 C208.58456,200.001227 208.58456,200.001227 210.042893,198.542893 C210.326115,198.259671 210.469326,198.11646 210.585786,198 C210.469326,197.88354 210.326115,197.740329 210.042893,197.457107 C208.58456,195.998773 208.58456,195.998773 206.292893,193.707107 L205.783239,193.197453 L206.105573,192.552786 C209.313943,186.136046 210.990763,121.733738 210.999962,1.00015365 C151.274279,1.01855095 117.858489,2.68878963 111.447214,5.89442719 L110.802547,6.21676051 L110.292893,5.70710678 C108.001227,3.41544011 108.001227,3.41544011 106.542893,1.95710678 C106.259671,1.6738846 106.11646,1.53067371 106,1.41421356 C105.447909,1.96630428 104.541695,2.87251895 101.707107,5.70710678 L101.197453,6.21676051 L100.552786,5.89442719 C94.1415113,2.68878963 60.7257213,1.01855095 1.00003805,1.00015365 Z M106.658893,398.292893 C106.632761,398.367239 106.477825,398.522175 106,399 L106.707107,398.292893 L106.658893,398.292893 Z" id="Rectangle-5"></path>
            </g>
        </g>
    </g>
</svg>