<?xml version="1.0" encoding="UTF-8" standalone="no"?>
<svg width="76px" height="6px" viewBox="0 0 76 6" version="1.1" xmlns="http://www.w3.org/2000/svg" xmlns:xlink="http://www.w3.org/1999/xlink">
    <!-- Generator: Sketch 50.2 (55047) - http://www.bohemiancoding.com/sketch -->
    <title>massage_deco</title>
    <desc>Created with Sketch.</desc>
    <defs>
        <linearGradient x1="-0.937944523%" y1="50%" x2="100%" y2="50%" id="linearGradient-1">
            <stop stop-color="#EACBAB" offset="0%"></stop>
            <stop stop-color="#FDF7EA" offset="100%"></stop>
        </linearGradient>
    </defs>
    <g id="Page-1" stroke="none" stroke-width="1" fill="none" fill-rule="evenodd">
        <g id="Masaz" transform="translate(-1117.000000, -1737.000000)" fill="url(#linearGradient-1)">
            <g id="zobacz-jeszcze" transform="translate(0.000000, 1467.000000)">
                <g id="oferta" transform="translate(780.000000, 44.000000)">
                    <g id="masaze">
                        <g id="2" transform="translate(260.000000, 0.000000)">
                            <g id="text" transform="translate(46.000000, 187.000000)">
                                <g id="massage_deco" transform="translate(31.000000, 39.000000)">
                                    <path d="M0.678429327,0.214141179 C15.3364855,0.214141179 23.7156602,0.214141179 25.8159535,0.214141179 C28.9663935,0.214141179 33.3667535,-0.526199887 33.3667535,2.71104511 C33.3667535,5.9482901 28.7713071,6.10291729 23.266667,5.33798418 C19.596907,4.82802878 12.0674944,3.12008111 0.678429327,0.214141179 Z M12.1497783,1.52706819 C17.604721,2.80525642 21.448717,3.55387793 23.6817664,3.77293273 C27.0313404,4.10151493 31.5693265,4.44187544 31.5693265,2.93056192 C31.5693265,1.2930229 28.7392616,2.01176535 23.6817664,2.01176535 C20.3101029,2.01176535 16.4661069,1.85019963 12.1497783,1.52706819 Z M75.1785585,0.0729210736 C63.7894935,2.97886101 56.2600809,4.68680868 52.5903208,5.19676408 C47.0856807,5.96169718 42.4902344,5.80707 42.4902344,2.569825 C42.4902344,-0.667419992 46.8905944,0.0729210736 50.0410343,0.0729210736 C52.1413276,0.0729210736 60.5205024,0.0729210736 75.1785585,0.0729210736 Z M63.7072096,1.38584808 C59.390881,1.70897952 55.546885,1.87054524 52.1752215,1.87054524 C47.1177262,1.87054524 44.2876614,1.15180279 44.2876614,2.78934182 C44.2876614,4.30065533 48.8256475,3.96029483 52.1752215,3.63171263 C54.4082708,3.41265783 58.2522669,2.66403631 63.7072096,1.38584808 Z M36.5389175,0.224114048 C33.1085174,1.54735138 36.0532013,6.87541784 39.1432418,5.5249759 C42.2332823,4.17453396 41.0088361,-1.14809504 36.5389175,0.224114048 Z M37.2727018,1.53601429 C39.8496722,0.74491661 40.3890577,3.41621533 38.6076062,4.19476394 C36.8261548,4.97331256 35.2950283,2.29887907 37.2727018,1.53601429 Z" id="Combined-Shape"></path>
                                </g>
                            </g>
                        </g>
                    </g>
                </g>
            </g>
        </g>
    </g>
</svg>