<?xml version="1.0" encoding="UTF-8" standalone="no"?>
<svg width="438px" height="810px" viewBox="0 0 438 810" version="1.1" xmlns="http://www.w3.org/2000/svg" xmlns:xlink="http://www.w3.org/1999/xlink">
    <!-- Generator: Sketch 50.2 (55047) - http://www.bohemiancoding.com/sketch -->
    <title>massage_border_big</title>
    <desc>Created with Sketch.</desc>
    <defs>
        <linearGradient x1="-0.937944523%" y1="50%" x2="100%" y2="50%" id="linearGradient-1">
            <stop stop-color="#EACBAB" offset="0%"></stop>
            <stop stop-color="#FDF7EA" offset="100%"></stop>
        </linearGradient>
    </defs>
    <g id="Page-1" stroke="none" stroke-width="1" fill="none" fill-rule="evenodd">
        <g id="Artboard-4" transform="translate(-183.000000, -390.000000)" stroke="url(#linearGradient-1)" stroke-width="2">
            <g id="massage_border_big" transform="translate(183.000000, 390.000000)">
                <path d="M1.00000838,1.00003062 C1.00433756,259.005153 2.68498208,393.133896 5.89442719,399.552786 L6.21676051,400.197453 L5.70710678,400.707107 C2.8724174,403.541796 1.96623935,404.447974 1.41415423,405.000059 C1.96623376,405.552232 2.87237518,406.458525 5.70716612,409.293792 L6.21675004,409.803461 L5.89441218,410.448083 C2.6849843,416.8664 1.00433757,550.995039 1.00000838,808.999969 C135.659725,808.991714 207.135586,807.314173 213.552786,804.105573 L214.197453,803.783239 L214.707107,804.292893 C217.102103,806.68789 218.349898,807.935684 218.922288,808.663499 C220.167898,807.417889 220.17156,807.414227 223.292893,804.292893 L223.802547,803.783239 L224.447214,804.105573 C230.864414,807.314173 302.340275,808.991714 436.999991,808.999969 C436.995662,550.994847 435.315018,416.866104 432.105573,410.447214 L431.783239,409.802547 L432.292893,409.292893 C434.58456,407.001227 434.58456,407.001227 436.042893,405.542893 C436.326115,405.259671 436.469326,405.11646 436.585786,405 C436.469326,404.88354 436.326115,404.740329 436.042893,404.457107 C434.58456,402.998773 434.58456,402.998773 432.292893,400.707107 L431.783239,400.197453 L432.105573,399.552786 C435.315018,393.133896 436.995662,259.005153 436.999992,1.00003062 C302.340275,1.00828617 230.864414,2.6858269 224.447214,5.89442719 L223.802547,6.21676051 L223.292893,5.70710678 C221.001227,3.41544011 221.001227,3.41544011 219.542893,1.95710678 C219.259671,1.6738846 219.11646,1.53067371 219,1.41421356 C218.447909,1.96630428 217.541695,2.87251895 214.707107,5.70710678 L214.197453,6.21676051 L213.552786,5.89442719 C207.135586,2.6858269 135.659725,1.00828617 1.00000838,1.00003062 Z M219.305199,809.292893 C219.401456,809.598544 219.242211,809.757789 219,810 L219.707107,809.292893 L219.305199,809.292893 Z" id="Rectangle-5"></path>
            </g>
        </g>
    </g>
</svg>