<?xml version="1.0" encoding="UTF-8" standalone="no"?>
<svg width="308px" height="188px" viewBox="0 0 308 188" version="1.1" xmlns="http://www.w3.org/2000/svg" xmlns:xlink="http://www.w3.org/1999/xlink">
    <!-- Generator: Sketch 50.2 (55047) - http://www.bohemiancoding.com/sketch -->
    <title>n-ogrod</title>
    <desc>Created with Sketch.</desc>
    <defs>
        <linearGradient x1="63.1277323%" y1="100%" x2="63.1277323%" y2="0%" id="linearGradient-1">
            <stop stop-color="#0C532D" offset="0%"></stop>
            <stop stop-color="#7C9F86" offset="100%"></stop>
        </linearGradient>
        <path d="M10.98,75.29 C12.51,69.44 16.11,63.77 21.69,58.28 C21.42,57.38 21.33,56.57 21.33,55.67 C21.33,52.25 22.86,48.65 26.01,44.96 C29.52,40.82 34.2,37.49 39.96,35.15 C45.45,32.9 51.12,31.91 56.97,31.91 C59.31,31.91 61.56,32.09 63.72,32.45 C70.74,33.53 76.23,37.04 80.46,43.16 C83.88,48.11 85.68,53.24 85.68,58.64 C85.68,59.45 85.59,60.26 85.5,60.89 C84.24,69.71 80.46,77.72 74.16,84.92 C68.76,91.22 61.92,95.99 53.91,99.68 C46.53,103.1 39.51,104.63 32.85,104.27 C26.73,104 21.42,102.11 17.19,98.69 C12.33,94.73 9.9,89.51 9.9,83.12 C9.9,80.6 10.26,77.99 10.98,75.29 Z M66.96,39.92 C67.59,40.01 67.86,40.28 67.86,40.55 C67.86,41.18 67.59,41.36 66.87,41.18 C65.34,40.82 63.63,40.64 61.83,40.64 C54.72,40.64 46.8,42.89 37.98,47.57 C30.33,51.53 25.38,55.22 23.13,58.46 C23.4,60.44 24.75,62.42 26.82,64.04 C28.98,65.75 31.32,66.56 33.84,66.56 C34.56,66.56 34.83,66.74 34.83,67.19 C34.83,67.64 34.29,68 33.39,67.82 C30.78,67.73 28.35,66.83 26.1,65.12 C23.94,63.5 22.59,61.61 21.96,59.72 C20.25,61.25 18.36,63.5 16.38,66.74 C14.49,69.98 13.05,72.86 12.42,75.38 C11.7,77.99 11.43,80.42 11.43,82.85 C11.43,93.92 19.44,100.85 32.85,101.48 C39.87,101.84 47.43,99.95 55.53,95.72 C63.63,91.4 70.38,86.09 75.6,79.52 C81.36,72.41 84.24,65.3 84.24,58.1 C84.24,52.25 82.53,47.3 79.2,42.98 C75.33,38.12 69.75,35.24 62.55,34.16 C60.84,33.89 59.04,33.8 57.33,33.8 C51.48,33.8 45.72,34.97 40.05,37.31 C34.65,39.47 30.33,42.26 27.09,45.68 C24.21,48.74 22.77,51.8 22.77,54.77 C22.77,55.49 22.86,56.12 22.95,56.57 C27.18,52.34 32.76,48.56 39.78,45.23 C47.79,41.36 55.17,39.47 61.83,39.47 C63.63,39.47 65.34,39.65 66.96,39.92 Z M106.83,78.17 C107.01,78.17 107.28,78.26 107.37,78.35 C108.36,78.71 109.26,79.61 109.26,80.51 C109.17,81.14 108.9,81.86 108.27,82.67 C106.38,88.34 103.68,96.62 99.99,107.33 C109.17,105.71 117.9,104.9 126,104.9 C128.97,104.9 131.22,105.08 132.84,105.35 C135.54,105.89 138.69,108.95 138.69,112.01 C138.69,112.73 138.51,113.45 138.24,113.99 C137.43,115.52 135.45,117.5 132.39,119.93 C131.76,120.47 131.4,120.65 131.04,120.65 C130.95,120.65 130.86,120.65 130.86,120.56 C130.86,120.2 131.13,119.84 131.76,119.39 C135.36,116.06 137.07,113.09 137.07,110.48 C137.07,108.32 135.63,107.15 132.66,106.88 C130.95,106.79 128.79,106.7 126,106.7 C115.2,106.7 106.29,107.33 99.36,108.86 C81.63,159.35 60.3,185.45 35.01,186.98 C26.46,187.52 18.54,184.91 11.25,179.15 C4.05,173.48 0.36,167.09 0.36,159.98 C0.36,157.64 0.9,155.39 1.8,153.23 C6.39,142.43 20.79,132.35 44.91,122.81 C61.47,116.24 78.66,111.29 96.57,107.87 C97.92,104.81 99.54,99.95 101.43,93.2 C102.06,91.13 102.42,89.42 102.87,87.98 C100.89,89.87 97.11,92.57 91.8,96.35 C85.05,101.12 80.01,104.18 76.5,105.71 C76.05,105.89 75.42,105.98 74.79,105.98 C72.63,105.98 71.55,104.9 71.55,102.74 C71.55,101.84 71.82,100.94 72.36,99.95 C75.24,94.1 80.19,89.06 87.12,84.65 C94.14,80.24 100.71,78.08 106.83,78.17 Z M3.96,155.66 C3.24,157.55 2.88,159.44 2.88,161.42 C2.88,167.72 6.03,173.39 12.33,178.25 C18.9,183.29 26.46,185.72 34.83,185.36 C49.41,184.82 63.18,173.93 76.23,152.78 C84.24,139.82 90.99,125.33 96.21,109.22 C74.7,113.72 55.71,119.57 39.33,127.13 C19.71,136.13 7.92,145.67 3.96,155.66 Z M101.34,87.62 C102.78,86.36 103.68,84.83 103.86,82.67 C103.86,82.58 103.77,82.58 103.77,82.49 C103.77,82.4 103.77,82.22 103.86,82.13 C103.86,81.05 103.68,80.51 103.23,80.42 C102.69,80.24 101.25,80.33 99.09,80.87 C94.77,81.86 90.36,84.02 86.04,87.35 C81.45,90.95 78.57,94.55 77.31,98.33 C77.22,98.87 77.13,99.23 77.13,99.77 C77.13,101.66 77.76,102.65 79.29,102.65 C80.55,102.65 84.33,100.4 90.36,96.08 C95.22,92.57 98.82,89.69 101.34,87.62 Z M107.46,105.17 C107.19,105.53 107.01,105.53 106.92,105.17 C106.83,104.9 106.83,104.63 107.01,104.27 C112.86,95.27 116.82,88.34 118.89,83.48 C119.25,82.58 119.43,81.86 119.43,81.23 C119.43,81.05 119.34,80.78 119.16,80.24 C119.07,79.97 119.07,79.79 119.16,79.61 C119.88,79.34 122.13,78.08 125.91,75.83 C126,75.65 126.18,75.65 126.27,75.65 C126.63,75.65 126.9,75.83 126.99,76.1 C127.17,76.37 127.17,76.82 126.9,77.09 C123.03,82.31 120.33,86.27 118.98,88.88 C118.8,89.24 118.71,89.51 118.71,89.78 C118.71,90.05 118.98,90.14 119.7,89.87 C120.15,89.69 120.6,89.42 120.78,89.15 C123.03,86.45 126.09,83.48 129.87,80.42 C133.74,77.27 136.71,75.29 138.87,74.39 C140.76,74.3 142.11,74.48 143.01,74.93 C143.1,75.02 143.1,75.02 143.1,75.11 C143.1,75.92 141.21,77.9 140.49,77.45 C139.23,76.91 137.7,77.18 135.63,78.26 C126.81,83.12 118.89,91.22 111.87,102.74 C111.87,102.83 111.69,103.1 111.15,103.37 C110.25,103.73 108.99,104.27 107.46,105.17 Z M138.69,105.53 C136.98,105.8 134.64,104.18 134.64,102.29 C134.73,97.43 138.69,90.05 146.7,80.24 C146.88,79.88 146.79,79.52 146.52,79.43 C145.44,78.8 144.09,77.99 144.09,77.27 C144.09,76.91 143.91,76.1 146.7,76.01 C148.95,75.92 150.03,75.83 150.12,75.92 C150.3,75.92 150.66,75.83 151.11,75.56 C152.46,74.3 153.72,73.67 155.07,73.58 C156.06,73.49 157.41,74.21 159.12,75.2 C159.3,75.29 159.48,75.47 159.75,75.56 C162.45,75.65 166.41,75.74 171.45,75.92 C172.35,75.92 172.8,76.1 172.8,76.28 C172.8,76.55 172.35,76.82 171.45,76.82 C169.56,76.82 168.39,77.18 167.85,77.9 C167.76,78.08 167.76,78.26 167.85,78.44 C167.94,78.8 168.12,79.16 168.12,79.43 C167.76,83.93 164.25,89.15 157.14,95.27 C150.12,101.3 144,104.81 138.69,105.53 Z M137.43,100.76 C137.07,101.39 136.89,102.11 136.89,102.74 C136.89,104.18 137.88,104.72 139.77,104.36 C143.82,103.73 148.68,100.85 154.44,95.54 C160.47,90.14 163.89,85.28 164.79,80.96 C165.24,79.07 163.98,78.08 161.37,77.81 C158.49,77.45 155.97,77.81 153.81,78.62 C153.63,78.53 153.09,78.89 152.28,79.43 C145.89,85.37 140.94,92.48 137.43,100.76 Z M160.38,68.27 C160.02,68.45 159.66,68.45 159.48,68.27 C159.3,68 159.3,67.64 159.57,67.37 C159.84,67.19 162,65.3 166.23,61.34 C169.92,58.01 171.81,56.3 172.17,56.21 C173.16,55.94 173.79,56.39 174.15,57.74 C174.33,58.28 174.15,58.82 173.61,59.18 C167.58,63.14 163.26,66.11 160.38,68.27 Z M201.15,73.4 C203.4,69.44 205.56,65.66 207.63,62.24 C206.73,62.15 205.74,62.06 204.93,61.79 C203.31,61.61 201.69,59.45 201.69,57.56 C201.69,56.84 201.96,56.39 202.32,56.03 C205.29,52.79 209.7,50.63 215.55,49.37 L215.73,49.37 C219.15,44.24 222.21,39.92 224.91,36.5 C238.59,18.95 252.45,7.79 266.58,2.84 C271.35,1.22 275.94,0.32 280.53,0.32 C288.27,0.32 294.66,2.57 299.79,6.8 C304.65,10.94 307.17,15.98 307.17,21.83 C307.17,26.24 305.64,30.47 302.58,34.43 C299.25,38.75 294.3,42.53 287.73,45.59 C263.7,56.84 240.03,62.51 216.9,62.51 C214.65,62.51 212.58,62.51 210.6,62.42 C207.99,67.01 205.29,71.69 202.68,76.82 C197.01,87.8 194.22,96.35 194.31,102.74 C194.31,103.01 194.49,103.28 194.85,103.73 C195.3,103.82 195.75,103.91 196.38,104 C196.65,104.09 196.74,104.27 196.56,104.72 C196.38,104.99 196.2,105.26 195.84,105.35 C195.21,105.71 194.49,105.53 193.86,104.81 C193.23,103.82 192.78,102.38 192.78,100.67 C192.78,97.16 194.49,90.95 198,81.68 C198.36,80.6 198.27,80.15 197.55,80.15 C197.37,80.15 197.19,80.24 197.01,80.51 C193.86,84.38 189.81,88.7 184.59,93.38 C178.56,98.78 173.61,102.38 169.83,103.91 C169.56,104 169.29,104.09 168.93,104.09 C166.68,104.09 165.6,103.1 165.6,101.03 C165.6,96.98 169.11,91.67 176.22,84.92 C182.61,78.89 188.01,74.93 192.51,73.22 C193.59,72.77 194.85,72.5 196.2,72.5 C197.46,72.5 199.17,72.86 201.15,73.4 Z M267.12,3.92 C247.68,12.2 229.14,31.19 211.41,61.16 C213.03,61.25 214.74,61.25 216.72,61.25 C241.74,61.25 264.96,55.04 286.47,42.53 C298.98,35.33 305.19,27.68 305.19,19.67 C305.19,14.54 302.67,10.22 297.63,6.71 C292.59,3.2 286.74,1.31 279.99,1.31 C275.58,1.31 271.17,2.21 267.12,3.92 Z M171.36,96.17 C171.09,96.89 170.91,97.43 170.91,98.15 C170.91,99.41 171.45,100.13 172.44,100.13 C172.89,100.13 173.43,99.95 173.88,99.68 C181.71,94.55 189.36,87.98 196.65,79.52 C197.37,78.62 197.73,77.9 197.73,77.18 C197.73,75.83 196.65,75.11 194.49,75.11 C193.77,75.11 192.96,75.2 192.15,75.38 C189,76.1 185.31,78.89 180.63,83.48 C175.95,88.16 172.98,92.39 171.36,96.17 Z M205.11,60.44 C206.1,60.62 207.27,60.8 208.53,60.89 C210.96,57.11 213.12,53.51 215.19,50.27 C209.97,51.71 206.28,54.05 203.76,57.02 C203.31,57.47 203.13,58.1 203.13,58.64 C203.13,59.63 203.76,60.26 205.11,60.44 Z" id="path-2"></path>
    </defs>
    <g id="Page-1" stroke="none" stroke-width="1" fill="none" fill-rule="evenodd" opacity="0.25">
        <g id="Strona-glowna-Copy" transform="translate(-300.000000, -2050.000000)">
            <g id="heart" transform="translate(0.000000, 1206.000000)">
                <g id="droga" transform="translate(300.000000, 689.000000)">
                    <g id="n-ogrod" transform="translate(0.000000, 155.000000)">
                        <g id="Ogród">
                            <use fill="#13884E" xlink:href="#path-2"></use>
                            <use fill="url(#linearGradient-1)" xlink:href="#path-2"></use>
                        </g>
                    </g>
                </g>
            </g>
        </g>
    </g>
</svg>