<?xml version="1.0" encoding="UTF-8" standalone="no"?>
<svg width="237px" height="175px" viewBox="0 0 237 175" version="1.1" xmlns="http://www.w3.org/2000/svg" xmlns:xlink="http://www.w3.org/1999/xlink">
    <!-- Generator: Sketch 50.2 (55047) - http://www.bohemiancoding.com/sketch -->
    <title>Zespół</title>
    <desc>Created with Sketch.</desc>
    <defs>
        <linearGradient x1="63.1277323%" y1="100%" x2="63.1277323%" y2="0%" id="linearGradient-1">
            <stop stop-color="#0C532D" offset="0%"></stop>
            <stop stop-color="#7C9F86" offset="100%"></stop>
        </linearGradient>
        <path d="M30.96,47.33 C31.23,47.87 31.5,48.41 31.5,48.68 C31.5,48.86 31.32,49.04 31.23,49.04 C30.96,49.04 30.6,48.59 29.97,47.78 C28.98,46.43 27.99,44.36 27.18,41.66 C26.19,38.6 25.83,36.08 25.83,33.74 C25.83,31.58 26.1,29.87 27.99,29.15 C28.17,28.97 28.8,28.34 29.7,27.17 C30.6,25.73 31.59,25.01 32.67,24.56 C35.55,23.48 39.42,22.85 44.28,22.85 C51.03,22.85 61.74,24.29 76.5,27.26 C76.77,27.26 79.29,25.55 80.46,25.55 C81.54,25.55 82.08,26.72 82.08,28.88 C82.08,29.78 81.81,30.41 81.36,30.77 C81,30.95 79.83,30.86 77.85,30.5 C71.28,36.26 64.98,43.46 59.31,52.1 L62.46,52.1 C63.54,52.1 64.35,52.19 64.71,52.19 C65.52,52.19 65.88,52.28 65.88,52.55 C65.88,53.09 65.25,53.36 63.81,53.36 C63.54,53.36 61.56,53.54 57.96,53.99 C48.6,66.23 41.04,74.51 35.64,79.01 C43.38,84.14 51.93,89.45 61.56,94.94 C77.4,103.94 89.55,109.43 97.74,111.05 C99.36,111.32 100.89,111.59 102.24,111.59 C111.42,111.59 116.19,105.47 116.28,93.05 C116.28,92.15 116.46,91.7 116.91,91.7 C117.27,91.7 117.45,92.06 117.54,92.87 C117.99,98.18 117.81,102.59 116.19,105.47 C112.59,111.68 109.17,111.95 108,112.58 C105.21,113.93 101.52,113.57 97.47,112.67 C89.37,110.87 77.76,106.01 63,98.18 C57.69,95.3 47.7,89.72 33.03,81.08 C29.7,83.24 27.18,84.86 25.47,85.67 C22.41,87.2 19.26,88.1 16.02,88.82 C15.12,89 13.95,89.09 12.51,89.09 C4.86,89.09 0.54,85.85 0.09,79.28 C-0.09,77.12 0.45,74.51 1.53,71.99 C2.61,69.56 3.6,68.03 4.86,67.49 C4.86,65.06 5.58,64.07 9.09,64.07 C10.98,64.07 15.39,66.05 22.23,70.19 C26.37,72.71 30.33,75.23 34.56,77.75 C36.63,76.4 39.78,73.34 44.01,68.3 C47.61,64.07 50.67,60.11 53.37,56.24 C52.47,55.43 52.02,54.53 52.02,53.36 C52.02,52.82 52.2,52.46 52.56,52.28 C53.46,52.19 54.72,52.01 56.52,51.65 C58.05,49.31 61.02,45.62 65.34,40.49 C70.47,34.28 73.71,30.68 75.24,29.69 C72.81,28.97 68.67,28.25 63,27.26 C55.08,25.91 48.24,25.1 42.75,25.1 C39.15,25.1 36.27,25.37 34.02,25.91 C30.69,26.72 28.71,28.88 28.26,32.3 C28.08,33.29 28.08,34.19 28.08,35.27 C28.08,40.13 29.07,44.18 30.96,47.33 Z M15.75,87.56 C21.15,86.48 26.46,84.14 31.59,80.09 C28.8,78.02 25.2,75.68 20.7,73.07 C14.85,69.56 10.8,67.94 8.46,67.94 C8.1,67.94 7.83,68.03 7.47,68.12 C3.87,69.83 2.07,73.52 1.98,79.37 C1.89,82.25 3.06,84.41 5.58,85.94 C7.47,87.02 9.99,87.74 12.87,87.74 C13.95,87.74 14.85,87.65 15.75,87.56 Z M94.95,63.98 C93.78,65.24 90.81,67.67 87.48,68.12 C83.43,68.75 70.02,68.75 62.82,68.75 C60.12,72.35 56.43,77.75 56.07,83.42 C55.8,88.73 59.04,89.99 62.1,89.63 C66.06,89.18 71.01,87.2 74.25,85.31 C75.24,84.77 75.96,85.22 74.97,85.94 C72.45,87.74 67.32,90.8 62.91,91.61 C59.31,92.24 53.73,88.1 53.91,83.42 C54.54,70.28 68.85,55.7 77.22,52.55 C81.72,50.84 84.6,57.05 82.62,60.56 C80.73,63.89 75.69,66.32 69.75,67.22 C76.32,67.22 83.61,67.22 87.48,66.77 C90,66.5 92.88,64.88 94.32,63.62 C94.86,62.81 95.58,63.17 94.95,63.98 Z M80.46,59.75 C82.98,55.88 80.64,53.81 77.04,55.79 C72.63,58.31 67.86,62.81 63.81,67.22 C70.11,67.22 77.58,64.07 80.46,59.75 Z M95.85,79.46 C105.48,74.06 114.66,71.45 123.57,69.92 L123.66,70.01 C115.29,71.63 106.47,75.23 96.93,80.72 C98.46,82.79 99.09,84.14 99.09,84.95 C99.09,86.66 97.11,88.28 93.15,89.99 C89.73,91.52 86.94,92.24 84.96,92.24 C84.15,92.24 83.61,92.15 83.07,91.97 C81.45,92.24 80.37,92.51 79.83,92.33 C78.93,92.24 78.84,91.88 79.29,91.16 C80.37,89.81 84.42,86.75 91.44,81.89 L88.56,78.02 C87.3,76.31 86.58,74.78 86.4,73.16 C85.86,69.2 90,64.7 98.64,59.57 C107.19,54.53 114.93,52.01 121.59,52.1 C121.95,52.1 122.31,52.28 122.58,52.64 C122.85,53.18 122.85,53.54 122.58,53.81 C121.77,54.98 119.34,56.6 118.53,56.33 C115.83,55.43 113.85,55.07 112.59,55.07 C111.87,55.07 111.15,55.16 110.61,55.25 C107.28,56.06 103.32,58.04 98.73,61.28 C93.06,65.15 90.36,68.57 90.81,71.54 C90.99,72.89 91.71,74.42 92.79,76.13 C93.96,77.84 94.95,79.01 95.85,79.46 Z M83.88,90.26 C83.43,90.8 83.61,91.16 84.24,91.25 C85.32,91.52 87.21,91.16 89.73,90.26 C92.16,89.36 93.78,88.64 94.41,87.74 C94.68,87.38 94.77,87.02 94.77,86.75 C94.77,85.76 94.05,84.68 92.7,83.42 C91.8,83.96 90.36,84.95 88.29,86.48 C85.95,88.19 84.42,89.36 83.88,90.26 Z M101.79,103.76 C102.6,101.96 103.5,99.71 104.67,97.01 C95.58,97.1 86.49,98.63 76.68,101.51 C62.64,105.74 50.76,112.04 40.95,120.41 C30.15,129.77 24.57,139.31 24.57,149.48 C24.57,155.96 26.91,161.18 31.5,165.77 C35.91,170.18 41.13,172.25 47.07,172.25 C50.85,172.25 54.54,171.35 57.96,169.46 C64.62,165.86 71.55,158.93 78.57,148.67 C83.7,141.29 89.01,132.29 93.87,121.4 C96.48,115.73 99.18,109.61 101.79,103.76 Z M112.86,97.28 C110.25,96.83 109.08,97.01 106.92,97.01 C105.93,99.26 105.03,101.69 104.04,104.12 C89.55,140.21 74.25,162.44 58.77,170.9 C54.63,173.15 50.49,174.23 46.44,174.23 C39.96,174.23 34.47,171.62 30.15,166.4 C25.65,161.09 23.49,154.88 23.49,147.5 C23.49,136.79 28.17,127.34 37.8,119.06 C47.52,110.6 59.76,104.21 74.43,100.25 C84.87,97.46 94.95,95.75 105.12,95.66 C107.37,91.34 108.27,89 111.06,84.14 C113.67,79.55 116.1,74.78 118.71,70.1 C117.54,69.02 117,68.12 117.18,67.4 C117.54,66.41 119.07,65.33 121.95,64.16 C124.92,59.57 123.48,61.64 129.69,52.28 C130.05,51.74 131.13,51.2 132.93,50.48 C133.74,50.21 134.1,50.3 134.1,50.75 C134.1,51.2 133.74,51.02 133.02,52.1 C129.42,57.32 131.31,54.71 126.72,62.54 C131.58,60.65 135.45,59.84 138.51,59.84 C142.83,59.84 144.99,61.82 144.99,65.78 C144.99,68.84 143.64,72.35 140.85,76.22 C148.14,74.33 152.28,73.34 153.45,73.25 C153.72,73.16 153.9,73.16 154.08,73.25 C154.17,73.34 154.17,73.43 154.08,73.52 C153.9,73.7 153.72,73.79 153.45,73.88 C149.22,75.05 144,76.67 137.97,78.74 C133.02,83.33 126.63,86.3 118.8,87.11 C117.54,87.29 116.91,86.75 116.91,85.4 C116.91,85.04 117,84.77 117.27,84.5 C118.8,83.51 125.37,81.17 136.8,77.39 C139.86,73.88 141.39,70.19 141.39,66.5 C141.39,63.26 139.59,61.64 135.99,61.64 C133.2,61.64 129.69,62.9 125.19,65.24 C120.69,72.98 115.38,78.74 107.37,95.66 C109.26,95.66 111.06,95.66 112.68,95.93 C116.28,96.47 118.53,99.53 118.53,102.59 C118.53,103.31 118.35,104.03 118.08,104.57 C117.27,106.1 115.29,108.08 112.23,110.51 C111.6,111.05 111.24,111.23 110.88,111.23 C110.79,111.23 110.7,111.23 110.7,111.14 C110.7,110.78 110.97,110.42 111.6,109.97 C115.2,106.64 116.91,103.67 116.91,101.06 C116.91,98.9 115.83,97.55 112.86,97.28 Z M149.58,90.53 C147.87,90.8 145.53,89.18 145.53,87.29 C145.62,82.43 149.58,75.05 157.59,65.24 C157.77,64.88 157.68,64.52 157.41,64.43 C156.33,63.8 154.98,62.99 154.98,62.27 C154.98,61.91 154.8,61.1 157.59,61.01 C159.84,60.92 160.92,60.83 161.01,60.92 C161.19,60.92 161.55,60.83 162,60.56 C163.35,59.3 164.61,58.67 165.96,58.58 C166.95,58.49 168.3,59.21 170.01,60.2 C170.19,60.29 170.37,60.47 170.64,60.56 C173.34,60.65 177.3,60.74 182.34,60.92 C183.24,60.92 183.69,61.1 183.69,61.28 C183.69,61.55 183.24,61.82 182.34,61.82 C180.45,61.82 179.28,62.18 178.74,62.9 C178.65,63.08 178.65,63.26 178.74,63.44 C178.83,63.8 179.01,64.16 179.01,64.43 C178.65,68.93 175.14,74.15 168.03,80.27 C161.01,86.3 154.89,89.81 149.58,90.53 Z M148.32,85.76 C147.96,86.39 147.78,87.11 147.78,87.74 C147.78,89.18 148.77,89.72 150.66,89.36 C154.71,88.73 159.57,85.85 165.33,80.54 C171.36,75.14 174.78,70.28 175.68,65.96 C176.13,64.07 174.87,63.08 172.26,62.81 C169.38,62.45 166.86,62.81 164.7,63.62 C164.52,63.53 163.98,63.89 163.17,64.43 C156.78,70.37 151.83,77.48 148.32,85.76 Z M171.27,53.27 C170.91,53.45 170.55,53.45 170.37,53.27 C170.19,53 170.19,52.64 170.46,52.37 C170.73,52.19 172.89,50.3 177.12,46.34 C180.81,43.01 182.7,41.3 183.06,41.21 C184.05,40.94 184.68,41.39 185.04,42.74 C185.22,43.28 185.04,43.82 184.5,44.18 C178.47,48.14 174.15,51.11 171.27,53.27 Z M203.4,51.2 L192.96,54.35 C191.79,56.69 190.71,59.21 189.54,61.82 C187.56,67.4 186.03,74.15 185.85,79.01 C185.58,90.26 193.32,88.19 199.08,84.05 C201.33,82.43 200.7,84.05 199.8,84.86 C191.43,92.33 182.52,92.15 182.16,80.99 C181.8,73.07 184.77,64.25 188.91,55.52 L182.88,57.14 C181.71,57.41 180.99,57.41 180.9,56.87 C180.63,55.97 181.62,55.25 183.87,54.62 L190.26,52.82 C194.22,45.17 198.99,37.79 203.04,31.49 C208.8,22.67 216.72,13.67 224.91,4.13 C225.36,3.59 227.07,2.87 229.95,1.79 C232.83,0.8 233.64,0.26 235.08,0.26 C235.8,0.26 236.07,0.62 236.07,1.07 C236.07,1.43 235.8,1.52 235.17,1.7 C229.5,2.87 220.23,12.32 207.18,30.23 C202.05,37.79 198.09,44.36 194.31,51.74 L203.58,49.13 C204.93,48.59 205.56,48.77 205.65,49.22 C206.1,50.12 205.2,50.66 203.4,51.2 Z" id="path-2"></path>
    </defs>
    <g id="Page-1" stroke="none" stroke-width="1" fill="none" fill-rule="evenodd" opacity="0.25">
        <g id="Strona-glowna-Copy" transform="translate(-911.000000, -3472.000000)">
            <g id="heart" transform="translate(0.000000, 1206.000000)">
                <g id="droga" transform="translate(300.000000, 689.000000)">
                    <g id="Zespół" transform="translate(611.000000, 1577.000000)">
                        <g>
                            <use fill="#13884E" xlink:href="#path-2"></use>
                            <use fill="url(#linearGradient-1)" xlink:href="#path-2"></use>
                        </g>
                    </g>
                </g>
            </g>
        </g>
    </g>
</svg>