<?xml version="1.0" encoding="UTF-8" standalone="no"?>
<svg width="13px" height="24px" viewBox="0 0 13 24" version="1.1" xmlns="http://www.w3.org/2000/svg" xmlns:xlink="http://www.w3.org/1999/xlink">
    <!-- Generator: Sketch 50.2 (55047) - http://www.bohemiancoding.com/sketch -->
    <title>fb-icon</title>
    <desc>Created with Sketch.</desc>
    <defs>
        <linearGradient x1="-0.937944523%" y1="50%" x2="100%" y2="50%" id="linearGradient-1">
            <stop stop-color="#EACBAB" offset="0%"></stop>
            <stop stop-color="#FDF7EA" offset="100%"></stop>
        </linearGradient>
    </defs>
    <g id="Symbols" stroke="none" stroke-width="1" fill="none" fill-rule="evenodd">
        <g id="3-socialmedia" transform="translate(-40.000000, -19.000000)" fill="url(#linearGradient-1)">
            <g id="Group-Copy">
                <path d="M52.5104582,19.0049936 L49.3923493,19 C45.8892609,19 43.6254113,21.3182797 43.6254113,24.9064324 L43.6254113,27.6296932 L40.4902923,27.6296932 C40.2193808,27.6296932 40,27.8489123 40,28.1193159 L40,32.0650105 C40,32.335414 40.2196309,32.5543834 40.4902923,32.5543834 L43.6254113,32.5543834 L43.6254113,42.510627 C43.6254113,42.7810306 43.8447921,43 44.1157036,43 L48.2061421,43 C48.4770536,43 48.6964344,42.7807809 48.6964344,42.510627 L48.6964344,32.5543834 L52.3621197,32.5543834 C52.6330312,32.5543834 52.852412,32.335414 52.852412,32.0650105 L52.8539129,28.1193159 C52.8539129,27.9894822 52.802132,27.8651415 52.7103273,27.7732593 C52.6185226,27.681377 52.493448,27.6296932 52.3633705,27.6296932 L48.6964344,27.6296932 L48.6964344,25.321151 C48.6964344,24.2115727 48.9613423,23.6482944 50.4094556,23.6482944 L52.5099579,23.6475453 C52.7806192,23.6475453 53,23.4283262 53,23.1581723 L53,19.4943666 C53,19.2244624 52.7808694,19.005493 52.5104582,19.0049936 Z" id="fb-icon"></path>
            </g>
        </g>
    </g>
</svg>