<?xml version="1.0" encoding="UTF-8" standalone="no"?>
<svg width="24px" height="24px" viewBox="0 0 24 24" version="1.1" xmlns="http://www.w3.org/2000/svg" xmlns:xlink="http://www.w3.org/1999/xlink">
    <!-- Generator: Sketch 50.2 (55047) - http://www.bohemiancoding.com/sketch -->
    <title>ig-icon copy</title>
    <desc>Created with Sketch.</desc>
    <defs>
        <linearGradient x1="-0.937944523%" y1="50%" x2="100%" y2="50%" id="linearGradient-1">
            <stop stop-color="#EACBAB" offset="0%"></stop>
            <stop stop-color="#FDF7EA" offset="100%"></stop>
        </linearGradient>
    </defs>
    <g id="Symbols" stroke="none" stroke-width="1" fill="none" fill-rule="evenodd">
        <g id="3-socialmedia" transform="translate(-34.000000, -101.000000)" fill="url(#linearGradient-1)">
            <g id="Group-Copy">
                <path d="M51.503418,101 L40.496582,101 C36.9143066,101 34,103.914307 34,107.496582 L34,118.503601 C34,122.085693 36.9143066,125 40.496582,125 L51.5036011,125 C55.0856934,125 58,122.085693 58,118.503601 L58,107.496582 C58,103.914307 55.0856934,101 51.503418,101 Z M39.4376831,113 C39.4376831,109.38147 42.3814698,106.437683 46,106.437683 C49.6185303,106.437683 52.5623169,109.38147 52.5623169,113 C52.5623169,116.61853 49.6185302,119.562317 46,119.562317 C42.3814698,119.562317 39.4376831,116.61853 39.4376831,113 Z M52.7192383,107.985291 C51.6499023,107.985291 50.7801513,107.11554 50.7801513,106.046204 C50.7801513,104.976868 51.6499023,104.106934 52.7192383,104.106934 C53.7885742,104.106934 54.6585083,104.976868 54.6585083,106.046204 C54.6585083,107.11554 53.7885742,107.985291 52.7192383,107.985291 Z M45.9640146,108.439996 C48.4586017,108.439996 50.4880146,110.469409 50.4880146,112.963996 C50.4880146,115.458423 48.4586017,117.487996 45.9640146,117.487996 C43.4695882,117.487996 41.4400146,115.458423 41.4400146,112.963996 C41.4400146,110.469409 43.4695882,108.439996 45.9640146,108.439996 Z" id="ig-icon-copy"></path>
            </g>
        </g>
    </g>
</svg>