<?xml version="1.0" encoding="UTF-8" standalone="no"?>
<svg width="40px" height="40px" viewBox="0 0 40 40" version="1.1" xmlns="http://www.w3.org/2000/svg" xmlns:xlink="http://www.w3.org/1999/xlink">
    <!-- Generator: Sketch 50.2 (55047) - http://www.bohemiancoding.com/sketch -->
    <title>ta</title>
    <desc>Created with Sketch.</desc>
    <defs>
        <linearGradient x1="-0.937944523%" y1="50%" x2="100%" y2="50%" id="linearGradient-1">
            <stop stop-color="#EACBAB" offset="0%"></stop>
            <stop stop-color="#FDF7EA" offset="100%"></stop>
        </linearGradient>
    </defs>
    <g id="ta" stroke="none" stroke-width="1" fill="none" fill-rule="evenodd">
        <g id="Group-7">
            <rect id="Rectangle-14" x="0" y="0" width="40" height="40"></rect>
            <path d="M20,9 C24.5625547,9 28.724276,10.2428888 31.8965694,12.2857143 L38,12.2857143 C38,12.2857143 36.6276111,14.0533218 35.9808085,16.0479212 C37.2419832,17.7259963 38,19.8398277 38,22.1428571 C38,27.5864643 33.7950435,32 28.6086957,32 C25.871161,32 23.4148277,30.7626559 21.6981998,28.800921 L20,31.1785714 L18.3018002,28.800921 C16.5851723,30.7626559 14.128839,32 11.3913043,32 C6.20495652,32 2,27.5864643 2,22.1428571 C2,19.8398277 2.75801678,17.7259963 4.01919156,16.0479212 C3.37238871,14.0533218 2,12.2857143 2,12.2857143 L8.09578804,12.2857143 C11.2686774,10.2409749 15.4354277,9 20,9 Z M11.3913043,14.75 C7.50095652,14.75 4.34782609,18.0595357 4.34782609,22.1428571 C4.34782609,26.2261786 7.50095652,29.5357143 11.3913043,29.5357143 C15.2816522,29.5357143 18.4347826,26.2261786 18.4347826,22.1428571 C18.4347826,18.0595357 15.2816522,14.75 11.3913043,14.75 Z M28.6086957,14.75 C24.7183478,14.75 21.5652174,18.0595357 21.5652174,22.1428571 C21.5652174,26.2261786 24.7183478,29.5357143 28.6086957,29.5357143 C32.4990435,29.5357143 35.6521739,26.2261786 35.6521739,22.1428571 C35.6521739,18.0595357 32.4990435,14.75 28.6086957,14.75 Z M11.3913043,17.2142857 C13.9848696,17.2142857 16.0869565,19.4206429 16.0869565,22.1428571 C16.0869565,24.8650714 13.9848696,27.0714286 11.3913043,27.0714286 C8.79773913,27.0714286 6.69565217,24.8650714 6.69565217,22.1428571 C6.69565217,19.4206429 8.79773913,17.2142857 11.3913043,17.2142857 Z M28.6086957,17.2142857 C31.2022609,17.2142857 33.3043478,19.4206429 33.3043478,22.1428571 C33.3043478,24.8650714 31.2022609,27.0714286 28.6086957,27.0714286 C26.0151304,27.0714286 23.9130435,24.8650714 23.9130435,22.1428571 C23.9130435,19.4206429 26.0151304,17.2142857 28.6086957,17.2142857 Z M11.3913043,20.5 C10.5268587,20.5 9.82608696,21.2355322 9.82608696,22.1428571 C9.82608696,23.0501821 10.5268587,23.7857143 11.3913043,23.7857143 C12.25575,23.7857143 12.9565217,23.0501821 12.9565217,22.1428571 C12.9565217,21.2355322 12.25575,20.5 11.3913043,20.5 Z M28.6086957,20.5 C27.74425,20.5 27.0434783,21.2355322 27.0434783,22.1428571 C27.0434783,23.0501821 27.74425,23.7857143 28.6086957,23.7857143 C29.4731413,23.7857143 30.173913,23.0501821 30.173913,22.1428571 C30.173913,21.2355322 29.4731413,20.5 28.6086957,20.5 Z" id="ta-icon-copy" fill="url(#linearGradient-1)"></path>
        </g>
    </g>
</svg>