<?xml version="1.0" encoding="UTF-8" standalone="no"?>
<svg width="188px" height="53px" viewBox="0 0 188 53" version="1.1" xmlns="http://www.w3.org/2000/svg" xmlns:xlink="http://www.w3.org/1999/xlink">
    <!-- Generator: Sketch 50.2 (55047) - http://www.bohemiancoding.com/sketch -->
    <title>thai_deco_down</title>
    <desc>Created with Sketch.</desc>
    <defs>
        <linearGradient x1="103.682504%" y1="50%" x2="-0.937944523%" y2="50%" id="linearGradient-1">
            <stop stop-color="#E2B571" offset="0%"></stop>
            <stop stop-color="#FCDBB2" offset="36.9899093%"></stop>
            <stop stop-color="#FBFAE1" offset="69.4736205%"></stop>
            <stop stop-color="#DAB895" offset="100%"></stop>
        </linearGradient>
    </defs>
    <g id="Page-1" stroke="none" stroke-width="1" fill="none" fill-rule="evenodd">
        <g id="Strona-glowna-" transform="translate(-867.000000, -650.000000)" fill="url(#linearGradient-1)">
            <g id="hero" transform="translate(567.000000, 379.000000)">
                <g id="thai_deco_down" transform="translate(300.000000, 271.000000)">
                    <path d="M76.3108544,41.2625267 C72.8276541,41.7984036 72.3810899,41.7984036 68.8532332,41.0392446 C63.226525,39.788865 58.6715708,36.5289468 56.3494373,32.1079618 C55.3223397,30.187736 55.1437141,29.2946077 55.1437141,26.0793459 C55.1437141,22.8194276 55.3223397,21.9709558 56.3494373,19.9614171 C57.0192835,18.7110375 58.2250067,17.148063 59.0288221,16.5675296 C60.636453,15.3618065 63.3604943,14.4686782 64.6108739,14.6919602 C65.057438,14.7812731 65.7719406,14.8705859 66.2185048,14.8705859 C66.7097253,14.9152423 67.7368229,15.5850885 68.5852947,16.4335604 C70.3715513,18.219817 70.5948334,20.0507299 69.1658281,21.6583609 C68.3173562,22.6854584 68.2726998,22.6854584 68.719264,21.7476737 C69.8803307,19.4255401 68.6746076,17.148063 66.3078176,17.148063 C63.4051507,17.148063 60.4131709,21.3904224 60.8597351,24.8736227 C61.3062992,28.2228537 65.1467508,31.4381155 69.4337666,32.0633053 C73.140249,32.6438387 79.3028341,30.1430795 82.8753473,26.7045357 C88.5913683,21.1224839 88.8593067,13.9774576 83.5451935,8.66334434 C80.8211522,5.93930308 78.85627,5.09083121 75.194444,5.0461748 C73.2742182,5.0461748 73.140249,5.00151838 74.1226901,4.55495424 C75.8196338,3.88510803 80.7764958,4.37632858 82.9200037,5.49273894 C88.9039632,8.5293751 91.9852557,15.8976834 90.0203735,22.5961456 C88.5913683,27.6423203 83.277255,32.8671208 77.2486391,35.1892543 C73.9440644,36.4842903 69.4337666,36.6182596 66.4864433,35.5018492 C61.2616428,33.536967 58.4482887,30.3663616 57.6444733,25.5881253 L57.2425655,23.1766789 L57.1979091,25.4094996 C57.1085963,30.0091103 60.3685145,34.4747517 65.6379714,36.9308545 C71.0860539,39.5209265 78.0971109,39.0743624 83.9471012,35.7697877 C86.7157989,34.2068132 91.1367839,30.2323924 92.4318199,28.0888845 C93.2356353,26.7938485 93.2356353,26.52591 92.6551019,24.5163714 C92.2978506,23.3553046 92.0299121,21.1224839 92.0299121,19.6488222 L92.0745686,16.924781 L92.4764763,19.3808837 C93.0123533,22.5514891 93.7715123,24.7843098 94.17342,24.5163714 C94.4860149,24.3377457 95.245174,21.1224839 95.7363945,18.0411913 C95.8257073,17.4160015 95.9150202,18.2644734 95.9596766,19.8721043 C95.9596766,21.4797352 95.7363945,23.7572123 95.3791432,24.9182791 L94.7539534,26.9724741 L96.4508971,29.115982 C98.4157794,31.6613976 101.27379,34.1621568 103.819205,35.6804749 C109.579883,39.029706 116.858878,39.5209265 122.44093,36.9308545 C127.710387,34.4747517 130.479085,30.7682693 130.65771,25.8560638 L130.79168,23.1766789 L130.434428,25.4094996 C129.451987,31.3934591 124.539782,35.7251313 118.064602,36.2610083 C111.008888,36.7968852 102.524169,31.7953669 98.9963128,24.9629355 C97.7012767,22.5514891 97.5673075,21.8816429 97.5673075,18.2644734 C97.5673075,13.5308935 98.371123,11.5660113 101.720354,8.08281096 C104.176457,5.58205177 107.481031,4.19770293 110.874919,4.24235934 C114.045524,4.28701576 115.787124,5.00151838 112.795145,5.0461748 C109.579883,5.09083121 107.347062,5.93930308 105.114241,7.9041853 C97.7012767,14.4240218 100.112723,25.230874 110.071103,30.0984231 C114.134837,32.1079618 117.21613,32.5991823 120.297422,31.706054 C124.450469,30.5003309 127.263823,27.3297254 127.263823,23.8465251 C127.263823,20.8545454 124.18253,17.148063 121.681771,17.148063 C119.314981,17.148063 118.109258,19.4255401 119.270325,21.7476737 C119.716889,22.6854584 119.672232,22.6854584 118.823761,21.6583609 C115.876437,18.3091298 120.476048,13.7541756 125.656192,14.9152423 C131.193587,16.1656219 134.587475,23.9804944 132.399311,30.5003309 C131.506182,33.1797157 128.201608,37.0648237 125.343597,38.7171111 C116.010407,44.20985 103.595923,41.1732138 96.1383022,31.6167412 C95.1112047,30.2770488 94.1287636,29.2052948 93.9054815,29.2946077 C93.7268559,29.3392641 92.7444148,30.5003309 91.7173172,31.8846797 C88.3234298,36.4842903 82.0268754,40.324742 76.3108544,41.2625267 Z M49.8742572,29.6072026 C49.1597546,29.8751411 47.373498,30.0984231 45.8105235,30.0984231 C42.2380104,30.0984231 38.8887793,28.4907922 37.0132099,25.9453766 L35.7181739,24.1144636 L36.8792407,22.9087404 C39.3353435,20.3633248 45.5872415,18.443099 49.2937238,19.1129452 C50.8566983,19.4255401 53.5807396,21.3011095 53.5807396,22.104925 C53.5807396,22.3282071 52.9555498,22.1942378 52.1963907,21.8369865 C51.258606,21.345766 50.2761649,21.2117967 49.1150982,21.3904224 C46.9715903,21.7476737 41.9700719,24.1144636 41.9700719,24.7396534 C41.9700719,25.0075919 43.0418258,25.7220945 44.3368619,26.3026279 C47.0162467,27.5530075 50.4547906,27.7762896 52.3750164,26.7938485 C53.0448626,26.4365972 53.5807396,26.3026279 53.5807396,26.4812536 C53.5807396,27.061787 51.1692932,29.115982 49.8742572,29.6072026 Z M147.22524,29.0266692 C145.48364,29.8304846 144.188604,30.0984231 142.00044,30.0537667 C138.115332,30.0537667 136.01648,29.115982 134.810757,26.8831613 C134.453506,26.2133151 134.498162,26.1686587 135.614572,26.7938485 C137.534798,27.7762896 140.973342,27.5530075 143.60807,26.3472843 C144.85845,25.766751 146.019517,25.0969047 146.198142,24.8289663 C146.510737,24.3377457 141.107311,21.7923301 138.829834,21.3904224 C137.668767,21.1671403 136.730983,21.3011095 135.703885,21.8369865 L134.230224,22.640802 L134.90007,21.569048 C135.882511,20.0507299 138.338614,18.9343196 140.705404,18.9343196 C143.965322,18.9343196 148.296994,20.4972941 150.485158,22.4175199 L152.360728,24.0698072 L150.931722,25.990033 C150.038594,27.285069 148.743558,28.3121666 147.22524,29.0266692 Z M77.5165776,26.9278177 L77.8291725,28.7587307 L75.194444,28.7140743 C73.7207824,28.7140743 72.068495,28.4907922 71.4433052,28.2675101 C69.8803307,27.6423203 68.3173562,26.0793459 68.3173562,25.0969047 C68.3173562,24.2484329 68.9872025,24.0251508 69.4337666,24.7396534 C69.8803307,25.4541561 72.3364335,25.2755304 72.604372,24.5163714 C72.7829977,24.15912 72.4704028,23.0427097 71.9791822,22.0602686 L71.1307103,20.274012 L72.068495,20.274012 C74.7032235,20.274012 76.8913878,22.9533969 77.5165776,26.9278177 Z M116.680253,28.356823 C115.251247,28.8926999 110.294386,28.8926999 110.294386,28.3121666 C110.294386,28.0888845 110.517668,26.8831613 110.785606,25.6327817 C111.410796,22.7747712 113.688273,20.274012 115.653155,20.274012 C117.171473,20.274012 117.305443,20.5419505 116.323001,21.6137044 C115.921094,22.0602686 115.563842,22.9533969 115.519186,23.6678995 C115.429873,24.7843098 115.608499,24.9629355 116.724909,25.0969047 C117.439412,25.1862176 118.198571,25.0522483 118.466509,24.7843098 C119.895515,23.3553046 120.118797,25.4094996 118.734448,26.9278177 C118.243227,27.4636947 117.305443,28.0888845 116.680253,28.356823 Z M49.7849444,24.7396534 C49.7849444,25.5434689 49.5170059,25.9007202 48.7578469,25.990033 C47.6860929,26.1686587 47.0609031,25.1862176 47.5074673,24.0251508 C47.6414365,23.6232431 48.1773135,23.399961 48.7578469,23.4892738 C49.5170059,23.5785867 49.7849444,23.935838 49.7849444,24.7396534 Z M140.884029,25.1862176 C140.616091,26.0346894 139.321055,26.3919408 138.740521,25.766751 C138.561896,25.6327817 138.427926,25.0075919 138.427926,24.4270585 C138.427926,23.6232431 138.695865,23.399961 139.49968,23.399961 C140.839373,23.399961 141.285937,23.9804944 140.884029,25.1862176 Z M71.309336,23.5785867 C70.9520847,24.4717149 69.8356743,24.5163714 69.5230794,23.6678995 C69.1658281,22.7747712 70.4162077,21.7476737 71.0860539,22.4175199 C71.3539924,22.6854584 71.4433052,23.2213353 71.309336,23.5785867 Z M118.645135,23.5785867 C118.466509,23.9804944 118.153914,24.2930893 117.885976,24.2930893 C117.171473,24.2930893 116.814222,22.9533969 117.394755,22.3728635 C118.064602,21.7030173 119.002386,22.640802 118.645135,23.5785867 Z M8.92432545,21.3904224 C7.13806889,22.3282071 4.99456101,22.1942378 3.02967879,21.0778275 C-2.99893712,17.5946272 0.439606767,9.10990848 9.19226394,5.89464667 C11.4250846,5.09083121 12.7647771,4.91220555 18.0788903,4.91220555 C25.3132294,4.91220555 27.5907066,5.40342611 34.8250456,8.5293751 C43.8456413,12.4144831 46.078462,13.7541756 47.7307493,16.0316527 L49.2937238,18.1751606 L46.7036518,17.8625657 C44.8280824,17.6392836 43.2204515,17.0587502 40.9429744,15.7190578 C35.9861124,12.8163909 28.2158964,9.33319055 24.7773525,8.39540586 C21.0708701,7.41296475 12.3628693,7.2789955 9.54951525,8.08281096 C7.1827253,8.84197 4.0121199,10.9408215 2.71708389,12.727078 C2.1365505,13.5308935 1.55601712,15.0492116 1.42204788,16.1209655 C1.24342222,17.9072221 1.33273505,18.1751606 2.85105313,19.6041658 C4.28005838,20.9438582 4.81593535,21.1671403 6.64684833,21.1671403 C8.92432545,21.1671403 10.2640179,20.274012 10.2640179,18.7110375 C10.2640179,18.2644734 10.3979871,17.9965349 10.5319564,18.1751606 C11.1571462,18.8003503 10.174705,20.7652326 8.92432545,21.3904224 Z M185.093879,20.9438582 C181.610679,22.9980533 177.189694,21.7476737 177.323663,18.7556939 C177.36832,17.9518785 177.412976,17.9965349 177.680914,18.9343196 C177.85954,19.6041658 178.618699,20.3633248 179.60114,20.8545454 C181.119458,21.6137044 181.298084,21.6137044 183.039684,20.8992018 C186.835479,19.3808837 187.728608,16.1209655 185.317161,12.7717344 C180.985489,6.78777495 169.910698,5.62670818 158.701938,9.95838035 C156.781713,10.7175394 152.58401,12.727078 149.413404,14.4686782 C144.277917,17.2820323 143.384788,17.6392836 141.598532,17.5053143 L139.544337,17.3713451 L141.553875,15.2278372 C143.652727,12.9057037 146.510737,11.2980728 153.834389,8.26143661 C160.756133,5.3587697 162.899641,4.91220555 169.687416,4.91220555 C174.822904,4.86754914 176.162596,5.0461748 178.618699,5.89464667 C187.371356,8.88662641 191.033182,17.4606579 185.093879,20.9438582 Z M66.888351,20.2293556 C66.7543818,21.3904224 65.3253765,22.0602686 64.6108739,21.345766 C64.0749969,20.809889 64.2536226,19.514853 64.9234688,18.978976 C65.9059099,18.1751606 67.0669766,18.8896632 66.888351,20.2293556 Z M123.869935,20.9438582 C123.69131,21.3011095 123.110776,21.6137044 122.574899,21.6137044 C121.190551,21.6137044 120.565361,19.9167607 121.681771,19.1129452 C122.976807,18.1305041 124.450469,19.3808837 123.869935,20.9438582 Z M7.36135096,18.4877555 C7.36135096,19.2915709 7.09341247,19.6488222 6.33425343,19.738135 C5.26249949,19.9167607 4.6373097,18.9343196 5.08387384,17.7732528 C5.21784308,17.3713451 5.75372005,17.148063 6.33425343,17.2373759 C7.09341247,17.3266887 7.36135096,17.68394 7.36135096,18.4877555 Z M94.5306713,19.3362273 C93.8608251,20.0060735 93.3249482,19.9614171 93.0570097,19.1576017 C92.7444148,18.3537862 93.1909789,17.5946272 93.9947944,17.5946272 C94.7986098,17.5946272 95.1558611,18.7110375 94.5306713,19.3362273 Z M183.307623,18.9343196 C182.995028,19.9614171 181.387397,20.1400428 181.030146,19.1576017 C180.628238,18.1305041 181.164115,17.148063 182.146556,17.148063 C183.262966,17.148063 183.664874,17.7732528 183.307623,18.9343196 Z M76.1322287,17.68394 C74.1226901,19.0682888 72.3810899,19.5595094 71.5326181,19.0236324 C71.1307103,18.7556939 71.2200232,18.5324119 71.9791822,18.1751606 C73.140249,17.6392836 75.6856646,13.3969242 75.2391004,12.6824216 C75.1051312,12.4591395 74.0780337,12.2358575 73.0062797,12.2358575 C71.4433052,12.2358575 70.6841462,12.503796 69.4337666,13.6202063 C67.7368229,15.093868 67.64751,15.0492116 68.2726998,12.7717344 L68.719264,11.3427292 L67.5581972,12.2358575 C65.9505663,13.4862371 65.5040022,13.3522678 66.3078176,11.7892933 C67.1562895,10.137006 67.1562895,9.37784697 66.2631612,7.45762116 L65.5040022,5.93930308 L64.1643097,7.18968268 C62.3333968,8.93128283 61.4849249,10.9854779 62.0654583,12.4591395 C62.6906481,14.1114269 62.6459917,14.1560833 61.3956121,13.3076114 C60.7704223,12.9057037 60.0559196,11.8339497 59.7879811,10.9408215 C58.8501964,7.81487247 60.7257658,3.97442086 64.4769046,1.29503601 L66.2185048,0 L67.2902587,1.33969242 C68.8978896,3.34923106 69.7910179,6.16258515 69.5677358,8.39540586 L69.3444538,10.4049445 L70.5055205,9.51181621 C72.3810899,8.12746737 75.2837568,7.99349813 78.2757366,9.10990848 C80.7318394,10.0476932 80.8658086,10.1816624 80.5978701,11.2980728 C80.1066496,13.3522678 77.9631417,16.388904 76.1322287,17.68394 Z M116.546284,18.9343196 C115.608499,19.5595094 115.206591,19.514853 113.063083,18.443099 C110.785606,17.3266887 108.776067,14.9598987 107.74897,12.3251703 C106.900498,10.0476932 106.989811,9.95838035 110.651637,8.84197 C113.375678,8.03815454 115.96575,8.30609303 117.573381,9.55647262 L118.645135,10.4049445 L118.421853,8.26143661 C118.287884,6.51983646 118.466509,5.67136459 119.627576,3.43854389 C120.386735,1.92022581 121.190551,0.580533384 121.458489,0.401907727 C121.726428,0.223282071 122.887494,0.848471868 124.093217,1.74160015 C126.504664,3.4832003 128.603515,7.01105702 128.603515,9.19922131 C128.603515,10.8515086 127.531761,12.9503601 126.370695,13.5755499 C125.343597,14.1114269 125.254284,13.8881448 125.968787,12.6377652 C126.593977,11.3873856 125.790161,9.1545649 124.048561,7.36830833 L122.619556,5.93930308 L121.771084,7.63624682 C120.922612,9.19922131 120.922612,9.4671598 121.547802,11.2534164 C122.306961,13.3522678 122.128335,13.5308935 120.386735,12.1912011 L119.225668,11.2534164 L119.672232,12.4591395 C120.520704,14.7366167 120.208109,15.093868 118.555822,13.6202063 C117.305443,12.503796 116.546284,12.2358575 114.983309,12.2358575 C113.911555,12.2358575 112.884458,12.4144831 112.750488,12.6824216 C112.169955,13.6202063 115.429873,18.4877555 116.680253,18.4877555 C116.992848,18.4877555 116.948191,18.6663811 116.546284,18.9343196 Z M55.5902782,18.0411913 C55.456309,18.3091298 54.4292115,18.4877555 53.3574575,18.4877555 C50.9906676,18.4877555 48.7131904,16.7461553 47.2841852,13.8881448 C46.2124313,11.8339497 45.7212107,8.12746737 46.2570877,6.16258515 L46.6589954,4.7335799 L49.5616623,5.49273894 C53.0002062,6.43052363 54.8311192,7.32365192 56.8853142,9.1545649 C58.7608836,10.7621958 59.6093555,12.9503601 58.9841657,14.6026474 C58.3143195,16.2995912 57.7337861,16.388904 57.7337861,14.8259295 C57.7337861,13.1736422 56.1708116,11.7446369 53.4914268,10.9408215 C52.5089856,10.6282266 51.4372317,10.2709753 51.0799804,10.137006 C50.1421957,9.77975469 50.2761649,12.3698267 51.3479189,14.4686782 C52.33036,16.3442476 53.7593652,17.5946272 55.0544012,17.5946272 C55.5009654,17.5946272 55.7242475,17.8179092 55.5902782,18.0411913 Z M138.874491,16.3442476 C136.998921,18.3091298 136.64167,18.4877555 134.721444,18.4877555 C133.605034,18.4877555 132.53328,18.3091298 132.399311,18.0411913 C132.265341,17.8179092 132.488623,17.5946272 132.979844,17.5946272 C134.989383,17.5946272 136.998921,14.9598987 137.668767,11.3873856 C137.981362,9.95838035 137.936706,9.91372394 136.730983,10.2263188 C132.309998,11.3427292 129.5413,13.6648627 130.255803,15.6744014 C130.434428,16.2549347 130.389772,16.3442476 129.987864,15.9869963 C129.719926,15.7190578 129.318018,14.9152423 129.094736,14.2007397 C128.067638,10.5835701 132.622593,6.74311853 139.767619,5.13548763 C141.732501,4.68892348 142.00044,5.09083121 142.00044,8.61868793 C142.00044,11.7446369 141.062655,14.0667705 138.874491,16.3442476 Z M73.0509361,14.0667705 C73.1849054,14.3347089 73.0509361,14.8259295 72.6936848,15.1831808 C72.1131514,15.7637142 71.9791822,15.7637142 71.4879616,15.1831808 C71.1753667,14.8259295 71.0413975,14.2900525 71.2200232,14.022114 C71.5772745,13.4415807 72.6490284,13.4415807 73.0509361,14.0667705 Z M116.992848,14.4240218 C116.992848,14.9152423 116.814222,15.4064629 116.635596,15.5404321 C116.010407,15.9423398 115.072622,15.0045551 115.34056,14.2900525 C115.742468,13.262955 116.992848,13.3969242 116.992848,14.4240218 Z M54.9650884,13.3969242 C55.4116526,13.9328012 55.3669961,14.2007397 54.8757756,14.6473038 C54.0719601,15.4064629 53.1341754,15.093868 53.1341754,14.022114 C53.1341754,12.9503601 54.2505858,12.5484524 54.9650884,13.3969242 Z M134.855413,14.6919602 C133.962285,15.7637142 133.069157,15.4064629 133.069157,13.9774576 C133.069157,12.9503601 134.230224,12.5931088 134.855413,13.3969242 C135.301977,13.8881448 135.301977,14.1560833 134.855413,14.6919602 Z M65.6379714,10.4496009 C65.6379714,11.3873856 64.1643097,11.7446369 63.6284328,10.896165 C63.226525,10.2263188 63.8070584,9.55647262 64.7894995,9.55647262 C65.3253765,9.55647262 65.6379714,9.86906752 65.6379714,10.4496009 Z M124.80772,10.4496009 C124.80772,10.8068522 124.361156,11.1641035 123.825279,11.2534164 C123.021464,11.3873856 122.798181,11.1641035 122.798181,10.4496009 C122.798181,9.73509828 123.021464,9.51181621 123.825279,9.64578545 C124.361156,9.73509828 124.80772,10.0923496 124.80772,10.4496009 Z M92.8295209,34.4987724 C91.9363926,35.6598392 91.8470798,36.1957162 92.0257054,39.0983831 C92.2489875,42.4029577 93.4993671,45.886158 94.3031825,45.3949375 C95.1963108,44.8590605 96.402034,41.3312038 96.402034,39.2323523 C96.402034,37.9819727 96.0001263,36.1510597 95.5089057,35.0793058 C94.4371518,32.7571723 94.9283723,32.6678594 96.9825674,34.9453366 C98.9474496,37.1335009 99.6619522,39.3663216 99.4386702,42.3583013 C99.2153881,44.9037169 97.2505059,49.3693583 95.2856237,51.7361483 L94.2138697,53.0311843 L93.0528029,51.9594303 C92.4276131,51.378897 91.2665464,49.5926404 90.4627309,47.9850095 C89.2123513,45.4395939 89.0337257,44.6357784 89.0337257,41.465173 C89.0337257,37.4460958 90.1054796,34.9006802 92.2936439,33.5609877 C93.8566184,32.5785466 94.0352441,32.8464851 92.8295209,34.4987724 Z M95.1710445,38.9850495 C94.9924188,40.5033676 93.2508187,40.9499318 92.8042545,39.5655829 C92.4023468,38.3152033 92.8489109,37.7346699 94.1886034,37.7346699 C95.1710445,37.7346699 95.3050137,37.9132956 95.1710445,38.9850495 Z" id="b-orn"></path>
                </g>
            </g>
        </g>
    </g>
</svg>