<?xml version="1.0" encoding="UTF-8" standalone="no"?>
<svg width="304px" height="73px" viewBox="0 0 304 73" version="1.1" xmlns="http://www.w3.org/2000/svg" xmlns:xlink="http://www.w3.org/1999/xlink">
    <!-- Generator: Sketch 50.2 (55047) - http://www.bohemiancoding.com/sketch -->
    <title>thai_deco_up</title>
    <desc>Created with Sketch.</desc>
    <defs>
        <linearGradient x1="103.682504%" y1="50%" x2="-0.937944523%" y2="50%" id="linearGradient-1">
            <stop stop-color="#E2B571" offset="0%"></stop>
            <stop stop-color="#FCDBB2" offset="36.9899093%"></stop>
            <stop stop-color="#FBFAE1" offset="69.4736205%"></stop>
            <stop stop-color="#DAB895" offset="100%"></stop>
        </linearGradient>
    </defs>
    <g id="Page-1" stroke="none" stroke-width="1" fill="none" fill-rule="evenodd">
        <g id="Strona-glowna-" transform="translate(-809.000000, -379.000000)" fill="url(#linearGradient-1)">
            <g id="hero" transform="translate(567.000000, 379.000000)">
                <g id="thai_deco_up" transform="translate(242.000000, 0.000000)">
                    <path d="M120.087005,72.6630769 C114.651429,73.73 111.345253,72.1015385 107.366636,66.3176923 C107.254562,66.2053846 106.75023,66.4861538 106.245899,66.9353846 C102.99576,69.7992308 94.5902304,72.4384615 88.6503226,72.4384615 C81.0853456,72.4384615 75.2014747,69.9676923 68.7011982,63.9592308 C61.3043318,57.2207692 53.3470968,54.2446154 48.9201843,56.5469231 C46.5666359,57.7823077 44.437235,60.8146154 44.437235,62.9484615 C44.437235,65.0261538 46.2304147,66.8230769 48.2477419,66.8230769 C50.0409217,66.8230769 51.2737327,65.6438462 52.1703226,63.1730769 C52.7306912,61.5446154 52.7306912,61.5446154 52.7867281,64.0715385 C52.842765,66.1492308 52.5625806,66.9353846 51.3858065,68.1146154 C49.7047005,69.7992308 47.0149309,70.4730769 44.9976037,69.7430769 C43.9889401,69.35 43.204424,69.5184615 41.7474654,70.3607692 C39.2818433,71.8207692 36.5920737,71.4838462 27.3459908,68.4515385 C20.5094931,66.2053846 19.6689401,66.0369231 13.3367742,66.0369231 C6.22009217,65.9807692 4.53898618,66.43 1.34488479,69.2938462 L0,70.4730769 L1.06470046,68.9007692 C1.62506912,68.0584615 3.75447005,66.5423077 5.77179724,65.5315385 C9.30211982,63.7907692 9.58230415,63.7346154 16.4188018,63.7907692 C22.1905991,63.7907692 24.4320737,64.0715385 29.1391705,65.3069231 C34.7428571,66.8230769 37.8809217,67.16 39.6180645,66.4861538 C41.075023,65.9246154 40.6267281,65.1384615 38.8895853,65.1384615 C37.9929954,65.1384615 34.9109677,64.5207692 32.0530876,63.7346154 C23.2552995,61.32 20.6215668,60.9269231 18.3800922,61.6007692 C15.9705069,62.3869231 15.8584332,62.1061538 18.0999078,60.9269231 C20.1732719,59.86 24.0958525,59.86 32.0530876,60.9830769 C35.5273733,61.4323077 38.7214747,61.7130769 39.1697696,61.5446154 C39.6180645,61.3761538 39.9542857,60.4776923 39.9542857,59.4107692 C39.9542857,55.1430769 43.4285714,51.1561538 48.64,49.4153846 C52.0582488,48.2361538 57.6619355,48.4607692 61.1362212,49.9207692 C64.8906912,51.4369231 65.002765,51.4369231 65.4510599,49.4715385 C66.5157604,44.53 73.4643318,39.4761538 78.2835023,39.9815385 C81.4215668,40.3746154 83.9432258,42.1715385 84.7837788,44.5861538 C85.4001843,46.6076923 84.8958525,48.9661538 83.5509677,49.6961538 C82.9905991,50.0330769 82.9345622,49.9769231 83.5509677,49.3592308 C85.5682949,47.1692308 83.0466359,43.2384615 79.6283871,43.2384615 C77.4989862,43.2384615 73.9686636,45.0915385 72.8479263,46.7761538 C70.6624885,50.1453846 70.9987097,55.0869231 73.6884793,58.1753846 C76.1541014,60.9830769 78.003318,61.7692308 82.3181567,61.7692308 L86.0726267,61.7692308 L83.438894,60.0284615 C80.4129032,58.0069231 79.0119816,55.7046154 79.5163134,53.6269231 C79.9085714,51.9423077 80.6370507,51.83 81.1413825,53.29 C81.5896774,54.6938462 83.6070046,55.4238462 84.279447,54.4130769 C84.5596313,53.9638462 84.7837788,52.8407692 84.7837788,51.83 C84.7837788,49.5838462 86.0726267,49.8084615 87.3054378,52.2792308 C88.3701382,54.3007692 88.3701382,56.7715385 87.3054378,59.3546154 C86.8571429,60.4776923 86.5209217,61.4884615 86.6329954,61.6007692 C86.7450691,61.6569231 88.3141014,61.2638462 90.163318,60.6461538 C95.7109677,58.7369231 99.5214747,55.7046154 101.650876,51.5492308 C102.939724,49.0223077 102.939724,48.8538462 101.875023,48.8538462 C99.801659,48.8538462 101.93106,43.8 104.78894,42.0592308 C107.086452,40.5992308 110.616774,40.5430769 112.690138,41.8907692 L114.147097,42.8453846 L111.457327,43.5192308 C108.431336,44.3053846 106.414009,45.8215385 107.814931,46.2707692 C108.263226,46.4392308 109.383963,46.6638462 110.280553,46.72 L111.961659,46.8884615 L110.000369,48.18 C108.823594,48.91 107.030415,49.4715385 105.517419,49.5276923 C103.051797,49.5838462 103.051797,49.5838462 105.125161,49.8084615 C106.301935,49.9207692 107.198525,50.37 107.198525,50.7630769 C107.198525,52.0546154 104.004424,56.4346154 101.314654,58.8492308 C96.4954839,63.0607692 90.9478341,65.0823077 83.9432258,65.1384615 C78.1714286,65.1384615 75.9859908,64.3523077 72.9039631,61.2076923 C69.8779724,58.0630769 68.8132719,54.9746154 69.3176037,51.1561538 C69.9900461,46.4392308 72.5677419,43.6315385 77.3308756,42.3961538 L80.0206452,41.7223077 L78.1714286,41.3292308 C74.5290323,40.4869231 69.7658986,44.0807692 67.5804608,49.2469231 C64.9467281,55.6484615 70.2141935,64.0153846 79.0119816,67.4407692 C86.0165899,70.08 96.3273733,68.62 102.883687,64.0715385 C105.797604,61.9938462 105.797604,61.9938462 106.133825,58.4 C106.526083,53.9638462 107.47871,52.0546154 110.840922,48.91 C113.698802,46.2707692 117.397235,44.4738462 121.039631,43.9684615 L123.449217,43.6315385 L123.449217,39.6446154 C123.449217,37.4546154 123.225069,35.9384615 123.000922,36.2753846 C122.720737,36.7807692 122.440553,36.7807692 122.048295,36.2753846 C121.431889,35.6015385 121.263779,34.1415385 121.039631,28.0769231 C120.927558,24.3707692 121.095668,23.5846154 122.49659,21.2261538 C125.130323,16.6776923 129.669309,14.0946154 133.255668,15.1053846 L134.936774,15.5546154 L132.975484,16.3969231 C129.164977,18.0253846 125.914839,23.2476923 124.345806,30.2669231 C123.169032,35.77 123.225069,36.1630769 124.794101,32.85 C126.979539,28.1330769 131.238341,25.2692308 136.001475,25.2692308 L138.523134,25.2692308 L137.458433,22.9107692 C136.225622,20.1592308 135.945438,15.1615385 137.066175,15.1615385 C139.755945,15.2176923 145.863963,20.1030769 145.863963,22.1807692 C145.863963,22.63 146.144147,23.0230769 146.424332,23.0230769 C146.760553,23.0230769 146.9847,22.5738462 146.9847,22.0123077 C146.9847,20.7207692 151.243502,11.7923077 151.859908,11.7923077 C152.53235,11.7923077 156.454931,19.5976923 156.847189,21.8438462 C157.18341,23.4723077 157.295484,23.5846154 157.799816,22.6861538 C159.424885,19.4853846 161.386175,17.2953846 163.459539,16.2846154 C167.438157,14.3753846 167.942488,14.6 167.55023,18.4184615 C167.438157,20.2153846 166.877788,22.5176923 166.373456,23.4723077 L165.420829,25.2692308 L167.886452,25.2692308 C170.968479,25.2692308 175.675576,27.5715385 177.580829,30.0984615 C179.486083,32.5692308 180.60682,36.4438462 180.60682,40.4307692 L180.60682,43.6876923 L183.016406,44.0246154 C186.15447,44.53 190.581382,46.6076923 193.159078,48.8538462 C195.960922,51.3246154 197.529954,54.5815385 197.922212,58.6807692 C198.258433,61.7692308 198.426544,62.1061538 200.611982,63.7907692 C205.543226,67.5530769 214.284977,69.6307692 220.505069,68.5076923 C235.242765,65.8123077 241.743041,52.7284615 232.609032,43.9684615 C230.255484,41.7223077 227.957972,40.8238462 225.772535,41.3292308 L224.035392,41.7223077 L226.220829,42.2276923 C231.544332,43.4069231 234.514286,47.1130769 234.570323,52.8407692 C234.570323,55.3115385 234.234101,56.6030769 233.057327,58.6246154 C230.311521,63.3415385 226.669124,65.1384615 219.832627,65.1384615 C211.146912,65.1384615 203.189677,61.1515385 198.706728,54.5253846 C197.361843,52.6161538 196.409217,50.8192308 196.577327,50.5384615 C196.745438,50.3138462 197.810138,49.9769231 199.042949,49.8646154 C201.116313,49.6961538 201.284424,49.8084615 202.517235,52.1107692 C204.590599,56.0415385 210.586544,60.1969231 216.02212,61.4323077 L217.535115,61.7692308 L216.694562,59.7476923 C215.461751,56.8838462 215.573825,53.5146154 216.862673,51.7738462 C218.151521,50.0330769 219.608479,49.3592308 219.104147,50.7630769 C218.88,51.2684615 218.88,52.4476923 219.104147,53.3461538 C219.496406,55.4238462 221.009401,55.5923077 222.522396,53.6269231 C223.811244,51.9984615 224.315576,52.3353846 224.315576,54.75 C224.315576,56.8276923 222.63447,58.8492308 219.77659,60.4776923 L217.871336,61.4884615 L220.953364,61.6569231 C225.100092,61.9376923 227.789862,61.0392308 229.863226,58.6807692 C232.1047,56.1538462 232.889217,53.0092308 232.216774,49.8646154 C230.871889,44.0246154 222.802581,40.9923077 220.000737,45.26 C219.104147,46.6638462 219.104147,46.8323077 220.000737,48.5169231 L220.953364,50.2576923 L219.832627,48.91 C215.461751,43.8 224.203502,37.5107692 230.927926,40.9361538 C233.72977,42.34 237.428203,46.4392308 238.268756,49.0223077 C238.661014,50.2015385 239.165346,51.1 239.333456,51.1 C239.557604,51.1 241.126636,50.5384615 242.807742,49.9207692 C248.803687,47.5623077 256.592811,48.6853846 260.683502,52.3915385 C262.364608,53.9076923 264.045714,57.6138462 264.101751,59.6915385 C264.101751,60.5338462 264.494009,61.3761538 264.886267,61.5446154 C265.334562,61.7130769 268.472627,61.4884615 271.778802,60.9830769 C279.399816,59.86 283.882765,59.86 285.956129,60.9269231 C288.029493,61.9938462 288.141567,62.4992308 286.180276,61.7692308 C283.882765,60.8707692 281.47318,61.0953846 275.141014,62.8923077 C271.890876,63.7907692 268.136406,64.6892308 266.791521,64.9138462 C263.093088,65.4192308 262.532719,65.6438462 263.541382,66.2615385 C264.998341,67.2161538 269.089032,66.8792308 274.916866,65.3069231 C282.257696,63.3415385 291.783963,63.1169231 296.547097,64.8015385 C299.461014,65.8123077 303.887926,69.1253846 303.887926,70.3046154 C303.887926,70.6415385 303.10341,70.08 302.094747,69.1253846 C299.853272,66.9353846 295.874654,65.7 290.94341,65.7 C286.180276,65.7 282.705991,66.43 275.589309,68.7884615 C267.800184,71.4276923 264.718157,71.7646154 262.196498,70.3046154 C260.571429,69.35 259.955023,69.2376923 258.610138,69.7430769 C254.743594,71.2030769 250.092535,67.2723077 250.989124,63.3415385 L251.381382,61.4884615 L251.829677,63.2292308 C252.838341,66.9353846 256.480737,67.9461538 258.666175,65.0823077 C260.123134,63.1169231 259.562765,60.59 257.041106,58.1192308 C252.334009,53.4023077 243.536221,55.9292308 234.402212,64.6892308 C230.703779,68.1707692 226.893272,70.4169231 222.354286,71.5961538 C214.733272,73.5615385 204.870783,71.8769231 198.202396,67.3846154 L196.465253,66.2615385 L195.008295,68.4515385 C193.327189,70.9784615 189.628756,73 186.602765,73 C182.512074,73 178.813641,70.4169231 178.085161,67.1038462 L177.74894,65.4192308 L178.533456,67.1038462 C179.878341,69.9115385 181.447373,70.9223077 184.977696,71.2030769 C187.611429,71.3715385 188.508018,71.2030769 190.133088,70.08 C195.344516,66.5984615 196.241106,57.1084615 191.758157,52.9530769 C191.029677,52.2792308 188.956313,51.0438462 187.163134,50.2015385 C184.19318,48.8538462 183.352627,48.7415385 178.981751,48.9661538 C175.003134,49.1346154 173.490138,49.5276923 170.24,50.9876923 C162.843134,54.4692308 158.97659,58.9615385 157.18341,66.2053846 L156.174747,70.2484615 L154.997972,68.9569231 C154.381567,68.2269231 153.484977,66.9353846 153.036682,66.0369231 L152.196129,64.3523077 L151.46765,65.7561538 C150.627097,67.3846154 148.105438,70.1923077 147.432995,70.1923077 C147.208848,70.1923077 146.9847,69.2938462 146.9847,68.2269231 C146.9847,60.5338462 138.523134,51.6053846 129.10894,49.4153846 C125.074286,48.4607692 118.686083,48.91 115.88424,50.4261538 C110.5047,53.1776923 108.151152,58.0069231 109.44,63.4538462 C110.616774,68.3392308 113.978986,71.3153846 118.405899,71.3153846 C121.263779,71.3153846 123.729401,70.08 124.794101,68.0584615 C125.466544,66.8792308 125.634654,66.7669231 125.690691,67.6092308 C125.690691,69.0692308 122.216406,72.2138462 120.087005,72.6630769 Z M150.402949,56.3784615 C151.579724,58.8492308 151.747834,58.9615385 152.476313,58.0069231 C155.446267,54.1323077 156.062673,48.18 153.933272,42.9576923 C153.541014,42.0030769 153.765161,42.0030769 155.446267,43.3507692 L157.463594,44.8669231 L156.903226,41.9469231 C156.623041,40.3184615 156.342857,38.4653846 156.28682,37.7915385 C156.230783,36.6684615 156.11871,36.7246154 154.661751,38.3530769 L153.148756,40.15 L153.541014,38.4653846 C154.605714,34.31 153.541014,23.1353846 152.028018,22.1807692 C150.627097,21.2823077 149.170138,33.9169231 150.290876,37.8476923 C151.075392,40.7676923 150.739171,40.9361538 149.058065,38.4653846 L147.71318,36.4438462 L147.320922,39.8692308 C147.096774,41.7784615 146.760553,43.7438462 146.536406,44.2492308 C146.312258,44.8669231 146.81659,44.6984615 148.049401,43.6315385 C150.346912,41.7223077 150.739171,41.9469231 149.506359,44.4176923 C148.161475,46.9446154 148.60977,52.8407692 150.402949,56.3784615 Z M142.501751,48.8538462 C144.350968,50.3138462 144.350968,50.3138462 145.079447,48.0676923 C145.639816,46.1584615 145.639816,46.1584615 144.519078,46.9446154 C143.902673,47.3938462 142.837972,47.7307692 142.221567,47.7307692 C141.156866,47.7307692 141.212903,47.8430769 142.501751,48.8538462 Z M158.808479,48.18 L159.424885,49.9769231 L161.049954,49.0223077 L162.73106,48.0115385 L161.274101,47.6184615 C160.433548,47.45 159.424885,46.9446154 158.97659,46.5515385 C158.023963,45.7653846 158.023963,45.9338462 158.808479,48.18 Z M134.712627,45.0915385 C137.290323,46.2707692 137.794654,46.2146154 136.729954,45.0353846 C135.160922,43.3507692 135.665253,43.1823077 137.850691,44.6984615 C140.428387,46.4392308 142.445714,46.2707692 143.566452,44.2492308 C144.350968,42.8453846 144.350968,42.6207692 143.286267,41.1607692 C141.381014,38.5776923 139.924055,38.0723077 134.880737,38.3530769 C130.229677,38.6338462 128.604608,39.1392308 126.419171,41.1607692 C124.28977,43.07 124.794101,43.6315385 128.940829,43.9684615 C131.07023,44.1369231 133.647926,44.6423077 134.712627,45.0915385 Z M160.76977,45.1476923 C162.002581,46.4392308 163.907834,46.2707692 166.317419,44.5861538 L168.44682,43.1261538 L167.55023,44.53 L166.653641,45.9338462 L170.015853,44.8669231 C171.921106,44.2492308 174.666912,43.8 176.179908,43.8 C177.692903,43.8 178.925714,43.6315385 178.925714,43.3507692 C178.925714,42.3961538 177.076498,40.3746154 175.451429,39.5323077 C173.153917,38.3530769 166.205346,37.8476923 163.62765,38.69 C160.265438,39.8130769 158.752442,43.1823077 160.76977,45.1476923 Z M146.200184,39.4761538 C146.592442,40.5430769 146.648479,40.5430769 146.872627,39.7007692 C146.9847,39.1953846 146.648479,37.5107692 146.144147,35.9384615 C145.079447,32.6253846 141.773272,29.4246154 138.915392,28.9192308 C135.665253,28.3015385 131.07023,30.3792308 129.557235,33.1869231 C128.996866,34.2538462 129.10894,34.31 132.303041,33.9169231 C138.635207,33.2430769 144.967373,35.7138462 146.200184,39.4761538 Z M157.071336,38.69 L157.071336,40.15 L158.192074,38.4653846 C158.808479,37.5107692 160.377512,36.1069231 161.666359,35.3769231 C163.739724,34.1976923 164.804424,33.9730769 169.455484,33.9730769 L174.835023,33.9730769 L173.714286,32.4569231 C172.313364,30.5476923 168.558894,28.6384615 166.261382,28.6384615 C163.347465,28.6384615 160.321475,30.8846154 158.640369,34.1976923 C157.743779,35.8823077 157.071336,37.9038462 157.071336,38.69 Z M144.070783,28.3576923 C145.471705,30.0423077 146.200184,30.5476923 146.312258,29.93 C146.648479,28.6384615 143.174194,22.0684615 141.493088,20.7207692 L139.980092,19.5415385 L139.811982,20.7207692 C139.587834,22.1807692 141.212903,25.0446154 144.070783,28.3576923 Z M157.631705,29.8176923 C157.631705,30.7161538 158.136037,30.3792308 159.87318,28.3576923 C163.235392,24.4269231 165.420829,19.6538462 163.851797,19.6538462 C162.226728,19.6538462 157.631705,27.1784615 157.631705,29.8176923 Z M141.829309,43.8561538 C141.437051,44.1369231 140.988756,44.3615385 140.820645,44.3615385 C139.868018,44.3615385 139.083502,43.1823077 139.251613,42.0592308 C139.363687,41.0484615 139.755945,40.7115385 140.820645,40.7115385 C141.885346,40.7115385 142.277604,41.0484615 142.389677,42.0592308 C142.501751,42.7892308 142.277604,43.6315385 141.829309,43.8561538 Z M164.244055,43.8561538 C163.851797,44.1369231 163.403502,44.3615385 163.235392,44.3615385 C162.282765,44.3615385 161.498249,43.1823077 161.666359,42.0592308 C161.778433,41.0484615 162.170691,40.7115385 163.235392,40.7115385 C164.300092,40.7115385 164.69235,41.0484615 164.804424,42.0592308 C164.916498,42.7892308 164.69235,43.6315385 164.244055,43.8561538 Z M124.590394,64.2798295 C124.590394,65.4029064 123.693804,66.0205988 123.021362,65.4029064 C122.180809,64.5605988 122.629104,62.8759834 123.637768,63.0444449 C124.142099,63.1567526 124.590394,63.7182911 124.590394,64.2798295 Z M180.900476,64.8339971 C180.676328,65.3393817 180.28407,65.7324586 179.947849,65.7324586 C179.051259,65.7324586 178.602964,64.0478432 179.331444,63.3178432 C180.171997,62.4755355 181.348771,63.6547663 180.900476,64.8339971 Z M50.2017011,64.2772938 C49.1370007,65.4003707 48.576632,65.4003707 47.5119315,64.2772938 C46.8394891,63.6034476 46.7834523,63.1542169 47.1757103,62.3119092 C47.8481527,61.1326784 49.417185,60.908063 50.4258486,61.9188322 C51.3224385,62.8172938 51.2664016,63.2103707 50.2017011,64.2772938 Z M256.407442,64.2772938 C255.342741,65.4003707 254.782373,65.4003707 253.717672,64.2772938 C252.652972,63.2103707 252.596935,62.8172938 253.493525,61.9188322 C254.502188,60.908063 256.07122,61.1326784 256.743663,62.3119092 C257.135921,63.1542169 257.079884,63.6034476 256.407442,64.2772938 Z M84.1145647,52.386091 C84.1145647,53.6776294 82.5455324,53.846091 82.0412006,52.5545525 C81.6489426,51.5437833 82.6576062,50.3645525 83.4981592,50.8699371 C83.8343804,51.0945525 84.1145647,51.7683987 84.1145647,52.386091 Z M221.914933,52.4797439 C221.466638,53.6028208 220.065717,53.6589746 219.673458,52.5920516 C219.225164,51.4689746 220.794196,50.1774362 221.634749,51.0197439 C221.97097,51.3566669 222.083044,52.0305131 221.914933,52.4797439 Z M97.4375956,48.6853846 C94.2434942,50.5946154 90.4890242,51.2684615 88.0794389,50.4823077 C86.0621118,49.8084615 84.9974113,48.3484615 86.9026648,48.8538462 C87.5190703,49.0223077 89.2562131,48.4607692 90.8812823,47.5623077 L93.7951993,45.99 L92.0020196,44.3615385 C90.3769505,42.9015385 89.8726187,42.7330769 87.5751071,43.07 L84.9974113,43.4069231 L86.6785173,41.8907692 L88.3596233,40.4307692 L86.5664436,40.7676923 C84.268932,41.2169231 84.268932,40.9361538 86.398333,38.9146154 C87.5751071,37.7915385 88.0794389,36.8369231 88.0794389,35.5453846 C88.0794389,33.8046154 88.0234021,33.7484615 86.2862592,34.0853846 C83.876674,34.5346154 81.6912362,36.2192308 81.4670887,37.7353846 C81.1869044,39.4761538 80.4023883,39.1953846 79.9540933,37.23 C79.1135403,33.4676923 83.5964896,29.5930769 89.4803606,28.9753846 L92.5623883,28.6384615 L92.5623883,31.5584615 C92.5623883,34.7592308 91.3856141,38.2407692 89.9286555,39.3638462 C89.0881025,39.9253846 89.2562131,40.0376923 90.8252454,40.0376923 C93.0667201,40.0376923 96.3168583,41.7784615 97.9979643,43.9684615 C100.183402,46.6638462 100.127365,47.1130769 97.4375956,48.6853846 Z M217.296959,49.4715385 C216.232258,50.6507692 214.102857,50.9876923 210.964793,50.4261538 C208.555207,50.0330769 204.184332,47.6184615 204.184332,46.6638462 C204.184332,46.4392308 204.912811,45.2038462 205.809401,43.9684615 C207.546544,41.5538462 210.460461,39.8692308 212.814009,39.8692308 L214.327005,39.8692308 L213.15023,38.2969231 C212.029493,36.7807692 210.628571,30.0984615 211.244977,29.0876923 C211.413088,28.8630769 212.365714,28.6384615 213.318341,28.6384615 C218.641843,28.6384615 223.797235,32.3446154 223.797235,36.1069231 C223.797235,38.5215385 222.956682,39.3076923 222.45235,37.2861538 C222.172166,36.3315385 221.331613,35.5453846 219.706544,34.8153846 C216.400369,33.2992308 215.952074,33.4115385 215.952074,35.6015385 C215.952074,37.0615385 216.344332,37.9038462 217.63318,38.9146154 C219.762581,40.7676923 219.762581,41.1607692 217.521106,40.7115385 L215.671889,40.3184615 L216.960737,41.4976923 C218.641843,43.1261538 218.52977,43.3507692 216.232258,42.9015385 C214.7753,42.6207692 213.822673,42.8453846 212.309677,43.8 C211.244977,44.4738462 210.348387,45.2038462 210.348387,45.4846154 C210.348387,46.3830769 214.439078,48.5169231 216.288295,48.5169231 C217.913364,48.5730769 218.025438,48.6853846 217.296959,49.4715385 Z M202.825438,48.7839886 C202.657327,48.9524501 200.920184,49.2332194 198.958894,49.345527 C195.708756,49.6262963 195.204424,49.5139886 193.691429,48.2224501 L192.066359,46.7624501 L194.19576,46.7062963 C197.95023,46.7062963 196.213088,44.3478347 191.730138,43.3932194 L189.824885,43.0001424 L191.225806,42.1016809 C193.971613,40.3047578 197.333825,40.585527 199.855484,42.775527 C201.648664,44.4039886 203.49788,48.0539886 202.825438,48.7839886 Z M82.6428955,47.6456906 C81.8023425,48.937229 80.5134946,49.1056906 79.6169047,48.0949213 C78.1039093,46.2418444 80.6255683,44.0518444 82.3066743,45.7364598 C83.0351535,46.4664598 83.0911904,46.8595367 82.6428955,47.6456906 Z M224.486213,47.6456906 C223.64566,48.937229 222.356813,49.1056906 221.460223,48.0949213 C219.947227,46.2418444 222.468886,44.0518444 224.149992,45.7364598 C224.878472,46.4664598 224.934508,46.8595367 224.486213,47.6456906 Z M64.7786175,45.45524 C63.9380645,46.2975477 61.1362212,46.578317 59.3990783,46.0167785 C54.523871,44.5006246 51.0495853,40.4013939 50.6573272,35.6844708 L50.4331797,32.6521631 L52.6746544,32.2590862 C55.5325346,31.8098554 60.2396313,32.7644708 63.1535484,34.3929323 C65.5631336,35.7406246 67.916682,38.7729323 67.916682,40.5698554 C67.916682,41.468317 67.6925346,41.4121631 66.3476498,39.9521631 C64.7786175,38.2675477 62.6492166,37.4813939 57.9981567,36.8075477 C55.364424,36.4144708 55.1402765,36.7513939 56.3730876,39.2221631 C57.7740092,41.9175477 61.5284793,44.8937016 63.5458065,44.8937016 C64.7225806,44.8937016 65.1708756,45.0621631 64.7786175,45.45524 Z M90.9196773,45.8636538 C90.5834561,46.8182692 89.1264976,46.7059615 88.7342395,45.6951923 C88.3419814,44.6844231 88.9023501,43.7298077 89.9110137,43.7298077 C90.7515667,43.7298077 91.2558985,44.7967308 90.9196773,45.8636538 Z M214.988735,45.4997208 C214.876661,46.0612592 214.428366,46.5666439 213.924034,46.6789515 C212.859334,46.9035669 212.186891,45.6120285 212.859334,44.5451054 C213.475739,43.5343362 215.212882,44.32049 214.988735,45.4997208 Z M244.62894,45.9765298 C242.051244,46.7065298 241.210691,46.7065298 239.417512,45.920376 C238.128664,45.3588375 238.128664,45.3026837 239.137327,45.0780683 C239.753733,44.9657606 240.818433,44.7411452 241.490876,44.6288375 C243.284055,44.2357606 246.029862,41.6526837 247.262673,39.2380683 C247.879078,38.0588375 248.38341,36.9357606 248.38341,36.7672991 C248.38341,36.5988375 247.31871,36.5988375 246.029862,36.7672991 C241.210691,37.4411452 238.857143,38.3396067 237.456221,39.9680683 L236.0553,41.6526837 L236.0553,40.2488375 C236.0553,35.9249914 244.741014,31.320376 251.07318,32.2749914 C253.370691,32.6119144 253.426728,32.6680683 253.426728,34.6896067 C253.370691,39.2380683 249.055853,44.7411452 244.62894,45.9765298 Z M115.800184,41.3589067 C116.528664,43.0996759 116.528664,43.3242913 115.800184,43.3242913 C113.614747,43.3242913 109.97235,37.0912144 109.97235,33.3850605 C109.97235,32.2058297 110.196498,32.093522 112.66212,32.093522 C114.119078,32.093522 115.968295,32.4304451 116.752811,32.8796759 L118.265806,33.6658297 L116.472627,30.8019836 C114.959631,28.3312144 114.735484,27.4889067 114.735484,24.0073682 C114.735484,19.0658297 116.360553,15.3596759 120.619355,10.4742913 C124.597972,5.86967589 125.662673,4.07275282 125.662673,1.77044512 C125.71871,-0.138785646 125.71871,-0.138785646 126.559263,0.928137431 C128.296406,3.11813743 127.343779,7.2173682 123.757419,13.113522 C118.041659,22.603522 117.201106,27.0396759 120.058986,32.6550605 C120.731429,33.946599 121.123687,35.1258297 120.955576,35.2942913 C120.787465,35.4627528 121.011613,36.3050605 121.459908,37.203522 C121.908203,38.0458297 122.300461,39.4496759 122.300461,40.2919836 L122.300461,41.7519836 L120.058986,39.7304451 C118.826175,38.6073682 117.593364,37.7089067 117.31318,37.7089067 C117.032995,37.7089067 116.41659,37.5404451 115.912258,37.3719836 C114.735484,36.9227528 114.735484,38.7196759 115.800184,41.3589067 Z M190.548139,41.0833839 C188.586849,43.3856916 186.569521,44.2279993 187.522148,42.3749224 C187.802333,41.8133839 188.194591,40.4095378 188.418738,39.230307 C188.810996,37.1526147 188.754959,37.0964609 187.522148,37.4333839 C185.504821,38.0510762 182.759015,39.9041532 182.366756,40.8587686 C182.198646,41.3079993 181.806388,41.5326147 181.470167,41.3641532 C180.797724,40.9710762 181.302056,38.500307 182.366756,36.7595378 C183.319383,35.2433839 183.039199,35.0749224 181.806388,36.3664609 C180.741687,37.4333839 180.741687,37.5456916 179.228692,30.4141532 C177.65966,22.9456916 173.456895,16.3756916 170.206756,16.3756916 C168.525651,16.3756916 168.973945,15.3649224 170.823162,14.9718455 C174.129337,14.2418455 179.676987,18.0041532 181.806388,22.440307 C182.871088,24.6864609 182.983162,30.6387686 182.086572,33.6710762 C181.358093,36.1418455 182.198646,35.4679993 183.599568,32.5479993 C186.177263,26.9326147 185.392747,22.1033839 180.741687,14.5787686 C179.396803,12.3326147 177.82777,9.69338394 177.323439,8.68261471 C176.314775,6.7172301 176.146664,2.00030702 176.987217,0.652614711 C177.435512,-0.0212314429 177.547586,0.0349224033 177.547586,1.10184548 C177.547586,3.29184548 178.948508,5.8749224 182.030535,9.35646086 C186.121227,14.0172301 187.522148,16.4318455 188.530812,20.3626147 C189.707586,25.0233839 189.203254,27.7749224 186.289337,32.2672301 L185.280674,33.7833839 L186.849706,32.9410762 C188.642886,32.0426147 193.798277,31.7618455 193.798277,32.6041532 C193.798277,34.9626147 192.173208,39.1741532 190.548139,41.0833839 Z M63.6503021,41.116368 C63.6503021,42.2394449 62.7537122,42.8571372 62.0812698,42.2394449 C61.2407168,41.3971372 61.6890118,39.7125218 62.6976754,39.8809834 C63.2020072,39.9932911 63.6503021,40.5548295 63.6503021,41.116368 Z M241.938454,41.1046154 C241.714306,42.5646154 240.481495,43.1261538 240.0332,41.8907692 C239.640942,40.8238462 240.201311,39.8692308 241.266011,39.8692308 C241.82638,39.8692308 242.050527,40.3184615 241.938454,41.1046154 Z M119.848848,40.9263241 C119.848848,41.3755549 119.288479,41.8247856 118.616037,41.9370933 C117.607373,42.1055549 117.327189,41.8247856 117.327189,40.9263241 C117.327189,40.0278626 117.607373,39.7470933 118.616037,39.9155549 C119.288479,40.0278626 119.848848,40.4770933 119.848848,40.9263241 Z M186.415041,41.0568964 C186.07882,41.955358 184.509788,42.2361272 184.005456,41.4499733 C183.781309,41.0568964 183.837346,40.5515118 184.173567,40.2145887 C184.958083,39.4284349 186.695226,40.102281 186.415041,41.0568964 Z M101.88547,41.0577595 C99.5319218,41.8439133 99.1957006,41.8439133 96.8981891,40.6646826 C93.4799402,38.9800672 92.5273135,34.656221 94.6006776,30.5569903 C97.4585577,24.9977595 103.342429,23.2569903 109.506484,26.1769903 C111.860032,27.3000672 116.90335,31.5677595 115.83865,31.5677595 C115.670539,31.5677595 114.101507,30.8939133 112.308327,30.1077595 C109.674595,28.8723749 108.553857,28.6477595 105.47183,28.8723749 C102.109618,29.0969903 101.661323,29.2654518 99.9241799,31.1746826 C96.9542259,34.4316056 97.4025209,38.306221 100.82077,38.306221 C102.726023,38.306221 103.622613,37.3516056 103.622613,35.3300672 C103.622613,34.4316056 103.846761,33.8700672 104.182982,34.0946826 C104.911461,34.5439133 104.911461,38.0816056 104.182982,39.429298 C103.902797,39.9908364 102.838097,40.7208364 101.88547,41.0577595 Z M206.448773,40.6539568 C205.440109,41.1593415 204.263335,41.5524184 203.81504,41.5524184 C202.302045,41.4962645 199.500201,39.9239568 198.883796,38.7447261 C198.211353,37.4531876 198.603611,34.4770338 199.556238,33.8593415 C200.004533,33.6347261 200.06057,33.8593415 199.780386,34.5331876 C199.276054,35.8808799 200.845086,38.1831876 202.302045,38.1831876 C202.91845,38.1831876 203.927114,37.9024184 204.543519,37.6216491 C206.841031,36.3301107 205.047851,31.2201107 201.629602,29.4231876 C199.220017,28.187803 193.784441,28.5247261 190.478266,30.2093415 C189.133381,30.8831876 187.90057,31.2762645 187.732459,31.1639568 C187.620386,30.9954953 188.573012,29.8724184 189.86186,28.6931876 C197.314764,21.7862645 208.522137,24.4254953 209.810985,33.4101107 C210.315317,36.6108799 208.970432,39.4747261 206.448773,40.6539568 Z M71.3769585,37.5173006 L72.4976959,38.6403775 L71.3769585,38.6403775 C68.9673733,38.6403775 66.8940092,35.2149929 66.8940092,31.1157622 C66.8940092,28.5888391 68.9673733,23.7596083 70.760553,22.1311468 C71.7692166,21.2326852 71.9373272,21.3449929 74.1788018,23.871916 C79.3902304,29.8242237 80.5109677,35.2149929 77.036682,37.9103775 C75.6357604,38.9773006 75.355576,38.7526852 75.9719816,37.0680698 C76.8125346,34.8780698 76.2521659,33.0811468 73.9546544,30.4980698 L72.0494009,28.251916 L71.1528111,30.3296083 C69.92,33.2496083 70.0320737,36.1696083 71.3769585,37.5173006 Z M227.822044,37.3282692 C228.942782,39.0690385 227.878081,39.0690385 226.140938,37.2721154 C223.395132,34.5767308 225.188312,28.3436538 229.951445,23.6267308 L232.361031,21.2682692 L234.098173,23.6828846 C237.404349,28.2875 237.796607,33.6782692 234.994763,36.9913462 C234.210247,37.9459615 233.08951,38.6759615 232.529141,38.6759615 C231.464441,38.6759615 231.464441,38.6198077 232.641215,36.9913462 C233.817989,35.4751923 233.874026,35.1382692 233.201584,32.2182692 C232.809325,30.5336538 232.304994,29.0175 232.024809,28.8490385 C231.352367,28.4559615 227.709971,32.8359615 227.261676,34.5767308 C227.037528,35.4751923 227.261676,36.4859615 227.822044,37.3282692 Z M86.0304607,37.4967308 C85.1899077,38.3390385 84.5174653,38.2828846 84.1812441,37.2721154 C83.788986,36.2613462 84.3493547,35.3067308 85.3580183,35.3067308 C86.3666819,35.3067308 86.8149768,36.7105769 86.0304607,37.4967308 Z M219.439177,37.0720229 C219.327103,37.5774075 218.990882,38.0827921 218.654661,38.1950998 C217.702034,38.5320229 216.749407,37.0158691 217.309776,36.1735614 C217.926181,35.1066383 219.663324,35.8366383 219.439177,37.0720229 Z M103.129167,35.5246465 C102.905019,36.9846465 100.887692,37.3777234 99.9350654,36.1984926 C98.4781069,34.4577234 100.719582,32.2115695 102.456724,33.6715695 C102.905019,34.0646465 103.241241,34.9069541 103.129167,35.5246465 Z M204.309118,35.7294351 C203.636675,36.7402044 201.787459,37.3017428 201.115016,36.6278967 C200.274463,35.7294351 200.722758,33.6517428 201.899532,33.3148197 C203.580638,32.7532813 205.149671,34.3817428 204.309118,35.7294351 Z M74.3914442,34.6213555 C74.2793704,35.1828939 73.7750386,35.6882785 73.21467,35.8005862 C72.0939326,36.0252016 71.3094165,34.3967401 72.1499695,33.5544324 C72.9905225,32.7121247 74.6155916,33.4982785 74.3914442,34.6213555 Z M231.886157,35.2058353 C231.325788,36.1042969 229.868829,35.9358353 229.476571,34.9250661 C229.308461,34.4758353 229.420535,33.8019892 229.812793,33.4089122 C230.597309,32.6227584 232.446525,34.2512199 231.886157,35.2058353 Z M108.53186,22.8125 C108.475823,25.1709615 108.083565,25.2832692 106.570569,23.3178846 C105.169648,21.5209615 105.057574,18.3201923 106.178311,15.5125 C106.626606,14.4455769 107.411122,13.5471154 107.859417,13.5471154 C108.363749,13.5471154 109.876744,14.6140385 111.277666,15.9617308 C113.35103,17.9832692 113.799325,18.7694231 113.799325,20.4540385 C113.799325,22.7563462 112.958772,23.6548077 112.398403,21.9701923 C112.230293,21.3525 111.501813,20.5663462 110.885408,20.2294231 C109.372413,19.3871154 108.587896,20.2855769 108.53186,22.8125 Z M197.110988,23.7109615 C195.710067,25.2271154 195.205735,25.0025 195.205735,22.9809615 C195.205735,20.0609615 194.477256,19.3309615 192.740113,20.5101923 C191.955597,21.0155769 191.283154,21.6894231 191.283154,21.9701923 C191.283154,22.3071154 191.059007,22.5317308 190.722786,22.5317308 C189.714122,22.5317308 189.489975,19.8925 190.386564,18.2078846 C191.171081,16.6355769 195.093661,13.5471154 196.270435,13.5471154 C196.55062,13.5471154 197.223062,14.6701923 197.727394,16.0740385 C198.848131,18.9378846 198.567947,22.0825 197.110988,23.7109615 Z M112.166194,23.157858 C111.829972,24.0563195 110.26094,24.3370887 109.756608,23.5509349 C109.532461,23.157858 109.588498,22.6524733 109.924719,22.3155503 C110.709235,21.5293964 112.446378,22.2032426 112.166194,23.157858 Z M194.145528,22.9986636 C194.145528,23.8971251 192.68857,24.4025097 192.016127,23.7848174 C191.119538,22.8863559 191.679906,21.8194328 192.912717,21.9878944 C193.58516,22.100202 194.145528,22.5494328 194.145528,22.9986636 Z" id="u-orn"></path>
                </g>
            </g>
        </g>
    </g>
</svg>