<?xml version="1.0" encoding="UTF-8" standalone="no"?>
<svg width="14px" height="14px" viewBox="0 0 14 14" version="1.1" xmlns="http://www.w3.org/2000/svg" xmlns:xlink="http://www.w3.org/1999/xlink">
    <!-- Generator: Sketch 50.2 (55047) - http://www.bohemiancoding.com/sketch -->
    <title>usun</title>
    <desc>Created with Sketch.</desc>
    <defs></defs>
    <g id="Page-1" stroke="none" stroke-width="1" fill="none" fill-rule="evenodd">
        <g id="Koszyk" transform="translate(-439.000000, -663.000000)" fill="#323B35">
            <g id="Group-2" transform="translate(390.000000, 498.000000)">
                <g id="usun" transform="translate(49.000000, 165.000000)">
                    <path d="M0.153117025,1.86802771 C0.724753919,1.29639081 1.29639081,0.724753919 1.86802771,0.153117025 C2.07218374,-0.0510390084 2.4396646,-0.0510390084 2.64382063,0.153117025 C4.09332847,1.62304047 5.54283631,3.0725483 6.99234415,4.52205614 C8.44185199,3.0725483 9.89135983,1.62304047 11.3408677,0.153117025 C11.5654393,-0.0510390084 11.9125046,-0.0510390084 12.1370762,0.153117025 C12.7087131,0.724753919 13.2599344,1.29639081 13.8315713,1.86802771 C14.0561429,2.07218374 14.0561429,2.4396646 13.8315713,2.64382063 C12.3820634,4.09332847 10.9325556,5.54283631 9.48304776,6.99234415 C10.9325556,8.44185199 12.3820634,9.89135983 13.8315713,11.3408677 C14.0561429,11.5654393 14.0561429,11.9125046 13.8315713,12.1370762 C13.2599344,12.7087131 12.7087131,13.2599344 12.1370762,13.8315713 C11.9125046,14.0561429 11.5654393,14.0561429 11.3408677,13.8315713 C9.89135983,12.3820634 8.44185199,10.9325556 6.99234415,9.48304776 C5.54283631,10.9325556 4.09332847,12.3820634 2.64382063,13.8315713 C2.4396646,14.0561429 2.07218374,14.0561429 1.86802771,13.8315713 C1.29639081,13.2599344 0.724753919,12.7087131 0.153117025,12.1370762 C-0.0510390084,11.9125046 -0.0510390084,11.5654393 0.153117025,11.3408677 C1.62304047,9.89135983 3.0725483,8.44185199 4.52205614,6.99234415 C3.0725483,5.54283631 1.62304047,4.09332847 0.153117025,2.64382063 C-0.0510390084,2.4396646 -0.0510390084,2.07218374 0.153117025,1.86802771 Z" id="Shape"></path>
                </g>
            </g>
        </g>
    </g>
</svg>