<?xml version="1.0" encoding="UTF-8" standalone="no"?>
<svg width="54px" height="54px" viewBox="0 0 54 54" version="1.1" xmlns="http://www.w3.org/2000/svg" xmlns:xlink="http://www.w3.org/1999/xlink">
    <!-- Generator: Sketch 50.2 (55047) - http://www.bohemiancoding.com/sketch -->
    <title>zoom</title>
    <desc>Created with Sketch.</desc>
    <defs>
        <linearGradient x1="-0.937944523%" y1="50%" x2="100%" y2="50%" id="linearGradient-1">
            <stop stop-color="#EACBAB" offset="0%"></stop>
            <stop stop-color="#FDF7EA" offset="100%"></stop>
        </linearGradient>
    </defs>
    <g id="Page-1" stroke="none" stroke-width="1" fill="none" fill-rule="evenodd">
        <g id="zoom" transform="translate(1.000000, 1.000000)">
            <g id="Group-19">
                <g id="Group-16">
                    <circle id="Oval-2" stroke="url(#linearGradient-1)" stroke-width="2" cx="26" cy="26" r="26"></circle>
                    <g id="noun_Search_875357" transform="translate(16.000000, 16.000000)" fill="url(#linearGradient-1)" fill-rule="nonzero">
                        <path d="M19.729089,18.2695507 L15.9965587,14.5757072 C18.8292826,11.0482529 18.5626733,5.85690516 15.3300354,2.62895175 C13.630401,0.931780366 11.3975481,0 8.99806426,0 C6.59858045,0 4.33240131,0.931780366 2.63276695,2.62895175 C0.933132589,4.32612313 0,6.55574043 0,8.98502496 C0,11.4143095 0.933132589,13.6439268 2.63276695,15.3410982 C4.33240131,17.0049917 6.56525429,17.9700499 8.99806426,17.9700499 C11.0309603,17.9700499 13.0305301,17.2712146 14.5968598,16.0066556 L18.296064,19.7004992 C18.496021,19.9001664 18.7293041,20 18.9959134,20 C19.2625227,20 19.5291321,19.9001664 19.6957629,19.7004992 C20.0956768,19.3011647 20.0956768,18.6688852 19.729089,18.2695507 Z M15.9965587,8.98502496 C15.9965587,10.8485857 15.2633831,12.6123128 13.9303365,13.9101498 C12.59729,15.2079867 10.8643294,15.9733777 8.99806426,15.9733777 C7.13179908,15.9733777 5.36551239,15.2412646 4.065792,13.9101498 C2.7660716,12.5790349 1.99956983,10.8485857 1.99956983,8.98502496 C1.99956983,7.12146423 2.73274544,5.3577371 4.065792,4.05990017 C5.39883855,2.76206323 7.09847291,1.99667221 8.99806426,1.99667221 C10.8643294,1.99667221 12.6306161,2.72878536 13.9303365,4.05990017 C15.2300569,5.39101498 15.9965587,7.08818636 15.9965587,8.98502496 Z" id="Shape"></path>
                    </g>
                </g>
            </g>
        </g>
    </g>
</svg>