<?xml version="1.0" encoding="UTF-8" standalone="no"?>
<svg width="20px" height="20px" viewBox="0 0 20 20" version="1.1" xmlns="http://www.w3.org/2000/svg" xmlns:xlink="http://www.w3.org/1999/xlink">
    <!-- Generator: Sketch 50.2 (55047) - http://www.bohemiancoding.com/sketch -->
    <title>Fill 1</title>
    <desc>Created with Sketch.</desc>
    <defs></defs>
    <g id="Page-1" stroke="none" stroke-width="1" fill="none" fill-rule="evenodd">
        <g id="Desktop-HD-Copy-10" transform="translate(-1254.000000, -758.000000)" fill="#FFFFFF">
            <path d="M1271.07454,773.050722 C1270.45061,772.661472 1269.74513,772.3298 1268.97879,772.061702 C1269.23145,770.994033 1269.38294,769.838088 1269.42344,768.647813 L1272.67132,768.647813 C1272.5498,770.279832 1271.97582,771.79197 1271.07454,773.050722 Z M1267.25141,776.064463 C1267.85427,775.242914 1268.30183,774.270605 1268.62224,773.316278 C1269.20457,773.52498 1269.74367,773.774732 1270.22792,774.061902 C1269.39166,774.920869 1268.38011,775.607825 1267.25141,776.064463 Z M1264.65235,776.57523 L1264.65235,772.57919 C1265.60232,772.618605 1266.5185,772.743391 1267.37166,772.946462 C1266.90739,774.309475 1265.99956,776.080811 1264.65235,776.57523 Z M1264.65235,768.647813 L1268.11874,768.647813 C1268.08005,769.712394 1267.94654,770.742646 1267.72676,771.692614 C1266.75899,771.457755 1265.72275,771.315351 1264.65235,771.273938 L1264.65235,768.647813 Z M1264.65235,764.726062 C1265.72275,764.684467 1266.75899,764.542063 1267.72676,764.307205 C1267.94654,765.257172 1268.08005,766.283247 1268.11874,767.347828 L1264.65235,767.347828 L1264.65235,764.726062 Z M1264.65235,759.424588 C1265.9992,759.919008 1266.90703,761.689617 1267.37166,763.053538 C1266.5185,763.256609 1265.60232,763.381395 1264.65235,763.42081 L1264.65235,759.424588 Z M1270.22792,761.937916 C1269.74367,762.225268 1269.20457,762.474839 1268.62224,762.683722 C1268.30183,761.729395 1267.85427,760.757086 1267.25123,759.935537 C1268.38011,760.392175 1269.39166,761.079131 1270.22792,761.937916 Z M1271.07454,762.949278 C1271.97582,764.207849 1272.5498,765.715809 1272.67132,767.347828 L1269.42344,767.347828 C1269.38294,766.157371 1269.23163,765.005967 1268.97898,763.938298 C1269.74513,763.670018 1270.45061,763.338528 1271.07454,762.949278 Z M1263.34783,763.42081 C1262.39768,763.381395 1261.48168,763.256609 1260.62834,763.053538 C1261.09279,761.690525 1262.00062,759.919189 1263.34783,759.424588 L1263.34783,763.42081 Z M1263.34783,767.347828 L1259.88144,767.347828 C1259.92013,766.283247 1260.05346,765.257172 1260.27324,764.307205 C1261.24101,764.542063 1262.27743,764.684467 1263.34783,764.725881 L1263.34783,767.347828 Z M1263.34783,771.273938 C1262.27743,771.315351 1261.24101,771.457755 1260.27324,771.692614 C1260.05346,770.742646 1259.92013,769.716753 1259.88144,768.65199 L1263.34783,768.65199 L1263.34783,771.273938 Z M1263.34783,776.57523 C1262.00098,776.080992 1261.09315,774.310383 1260.62834,772.946462 C1261.48168,772.743391 1262.39768,772.618605 1263.34783,772.57919 L1263.34783,776.57523 Z M1257.77226,774.061902 C1258.25651,773.774732 1258.79561,773.52498 1259.37776,773.316278 C1259.69817,774.270605 1260.14591,775.242732 1260.74877,776.064463 C1259.62007,775.607825 1258.60852,774.920869 1257.77226,774.061902 Z M1256.92565,773.050722 C1256.02454,771.79197 1255.4502,770.284191 1255.32868,768.652172 L1258.57656,768.652172 C1258.61724,769.842629 1258.76855,770.994033 1259.02121,772.061702 C1258.25506,772.3298 1257.54957,772.661472 1256.92565,773.050722 Z M1256.92565,762.949278 C1257.54939,763.338528 1258.25506,763.670018 1259.02139,763.938298 C1258.76873,765.005967 1258.61724,766.157371 1258.57656,767.347828 L1255.32868,767.347828 C1255.4502,765.715809 1256.02454,764.207849 1256.92565,762.949278 Z M1260.74877,759.935355 C1260.14591,760.756905 1259.69817,761.729395 1259.37776,762.683722 C1258.79543,762.474839 1258.25651,762.225086 1257.77226,761.937916 C1258.60852,761.079131 1259.62007,760.392175 1260.74877,759.935355 Z M1264.00009,758 C1258.4861,758 1254,762.485918 1254,767.999909 C1254,773.514082 1258.4861,778 1264.00009,778 C1269.51408,778 1274,773.514082 1274,767.999909 C1274,762.485918 1269.51408,758 1264.00009,758 Z" id="Fill-1"></path>
        </g>
    </g>
</svg>