<?xml version="1.0" encoding="utf-8"?>
<!-- Generator: Adobe Illustrator 16.0.0, SVG Export Plug-In . SVG Version: 6.00 Build 0)  -->
<!DOCTYPE svg PUBLIC "-//W3C//DTD SVG 1.1//EN" "http://www.w3.org/Graphics/SVG/1.1/DTD/svg11.dtd" [
	<!ENTITY ns_flows "http://ns.adobe.com/Flows/1.0/">
	<!ENTITY ns_extend "http://ns.adobe.com/Extensibility/1.0/">
	<!ENTITY ns_ai "http://ns.adobe.com/AdobeIllustrator/10.0/">
	<!ENTITY ns_graphs "http://ns.adobe.com/Graphs/1.0/">
	<!ENTITY ns_vars "http://ns.adobe.com/Variables/1.0/">
	<!ENTITY ns_imrep "http://ns.adobe.com/ImageReplacement/1.0/">
	<!ENTITY ns_sfw "http://ns.adobe.com/SaveForWeb/1.0/">
	<!ENTITY ns_custom "http://ns.adobe.com/GenericCustomNamespace/1.0/">
	<!ENTITY ns_adobe_xpath "http://ns.adobe.com/XPath/1.0/">
]>
<svg version="1.1"
	 xmlns:x="&ns_extend;" xmlns:i="&ns_ai;" xmlns:graph="&ns_graphs;" i:viewOrigin="-95.5 415.5" i:rulerOrigin="95.5 94.5" i:pageBounds="-95.5 415.5 414.5 -94.5"
	 xmlns="http://www.w3.org/2000/svg" xmlns:xlink="http://www.w3.org/1999/xlink" xmlns:a="http://ns.adobe.com/AdobeSVGViewerExtensions/3.0/"
	 x="0px" y="0px" width="510px" height="510px" viewBox="0 0 510 510" enable-background="new 0 0 510 510" xml:space="preserve">
<metadata>
	<variableSets  xmlns="&ns_vars;">
		<variableSet  varSetName="binding1" locked="none">
			<variables></variables>
			<v:sampleDataSets  xmlns:v="&ns_vars;" xmlns="&ns_custom;"></v:sampleDataSets>
		</variableSet>
	</variableSets>
</metadata>
<g id="Capa_1" i:layer="yes" i:dimmedPercent="50" i:rgbTrio="#4F008000FFFF">
	<g i:knockout="Off">
		<g id="language" i:knockout="Off">
			<path fill="#FFFFFF" d="M255,0C114.75,0,0,114.75,0,255s114.75,255,255,255s255-114.75,255-255S395.25,0,255,0z M430.95,153H357
				c-7.65-33.15-20.4-61.2-35.7-91.8C367.2,79.05,408,109.65,430.95,153z M255,51c20.4,30.6,38.25,63.75,48.45,102h-96.9
				C216.75,117.3,234.6,81.6,255,51z M58.65,306c-5.1-15.3-7.65-33.15-7.65-51c0-17.85,2.55-35.7,7.65-51h86.7
				c-2.55,17.85-2.55,33.15-2.55,51c0,17.85,2.55,33.15,2.55,51H58.65z M79.05,357H153c7.65,33.15,20.4,61.2,35.7,91.8
				C142.8,430.95,102,400.35,79.05,357z M153,153H79.05c25.5-43.35,63.75-73.95,109.65-91.8C173.4,91.8,160.65,119.85,153,153z
				 M255,459c-20.4-30.6-38.25-63.75-48.45-102h96.9C293.25,392.7,275.4,428.4,255,459z M313.65,306h-117.3
				c-2.55-17.85-5.1-33.15-5.1-51c0-17.85,2.55-33.15,5.1-51H316.2c2.55,17.85,5.1,33.15,5.1,51
				C321.3,272.85,316.2,288.15,313.65,306z M321.3,448.8c15.3-28.05,28.05-58.649,35.7-91.8h73.95
				C408,400.35,367.2,430.95,321.3,448.8z M367.2,306c2.55-17.85,2.55-33.15,2.55-51c0-17.85-2.55-33.15-2.55-51h86.7
				c5.1,15.3,7.648,33.15,7.648,51c0,17.85-2.55,35.7-7.648,51H367.2z"/>
		</g>
	</g>
</g>
</svg>
