<?xml version="1.0" encoding="UTF-8" standalone="no"?>
<svg width="80px" height="80px" viewBox="0 0 80 80" version="1.1" xmlns="http://www.w3.org/2000/svg" xmlns:xlink="http://www.w3.org/1999/xlink">
    <!-- Generator: Sketch 49.3 (51167) - http://www.bohemiancoding.com/sketch -->
    <title>Page 1</title>
    <desc>Created with Sketch.</desc>
    <defs></defs>
    <g id="Page-1" stroke="none" stroke-width="1" fill="none" fill-rule="evenodd">
        <g id="Customers" transform="translate(-161.000000, -2575.000000)">
            <g id="Page-1" transform="translate(161.000000, 2575.000000)">
                <polygon id="Fill-1" fill="#FFFFFF" points="0 79.9838806 79.9838806 79.9838806 79.9838806 0 0 0"></polygon>
                <g id="Group-10" transform="translate(8.159204, 9.138109)" fill="#554D85">
                    <path d="M9.12547264,47.9335721 C8.89741294,47.7055124 8.58179104,47.5745672 8.25940299,47.5745672 C7.9360199,47.5745672 7.62119403,47.7055124 7.39353234,47.9335721 C7.16567164,48.1612338 7.03452736,48.4770547 7.03452736,48.7996418 C7.03452736,49.1216318 7.16567164,49.4376517 7.39353234,49.6653134 C7.62119403,49.8933731 7.9360199,50.0243184 8.25940299,50.0243184 C8.58179104,50.0243184 8.89741294,49.8933731 9.12547264,49.6653134 C9.35313433,49.4376517 9.48427861,49.1216318 9.48427861,48.7996418 C9.48427861,48.4770547 9.35333333,48.1612338 9.12547264,47.9335721" id="Fill-2"></path>
                    <path d="M47.4403383,26.6095323 C47.2126766,26.3814726 46.8968557,26.2519204 46.5744677,26.2519204 C46.2522786,26.2519204 45.9374527,26.3816716 45.708597,26.6095323 C45.4807363,26.8385871 45.349791,27.1532139 45.349791,27.476597 C45.349791,27.7989851 45.4805373,28.114806 45.708597,28.3426667 C45.9362587,28.5703284 46.2522786,28.7002786 46.5744677,28.7002786 C46.8968557,28.7002786 47.2126766,28.5703284 47.4403383,28.3426667 C47.669393,28.1136119 47.7993433,27.7989851 47.7993433,27.476597 C47.7993433,27.154408 47.669393,26.8385871 47.4403383,26.6095323" id="Fill-4"></path>
                    <path d="M47.7996816,40.947801 L47.7996816,32.4626269 C47.7996816,31.786209 47.2512239,31.2379502 46.575005,31.2379502 C45.8987861,31.2379502 45.3501294,31.786408 45.3501294,32.4626269 L45.3501294,42.828796 C42.6470448,44.5661095 39.4611741,45.6132736 36.0422687,45.7231244 L36.0422687,34.8835224 C37.4677413,34.3778507 38.4918209,33.0166567 38.4918209,31.4198408 C38.4918209,30.7382488 38.3045572,30.1000398 37.9799801,29.5521791 L44.7937114,23.4453134 C45.3288358,23.7501891 45.9471443,23.9255124 46.6060498,23.9255124 C48.6323184,23.9255124 50.2802786,22.2771542 50.2802786,20.2510846 C50.2802786,19.6847164 50.1511244,19.148 49.9212736,18.668199 L50.9960995,17.5931741 C52.7817711,20.4248159 53.816398,23.7748657 53.816398,27.3627264 C53.816398,32.7400398 51.49401,37.5850149 47.7996816,40.947801 Z M34.817393,32.6445174 C34.1417711,32.6445174 33.5925174,32.0952637 33.5925174,31.4198408 C33.5925174,30.7446169 34.1421692,30.1951642 34.817393,30.1951642 C35.4924179,30.1951642 36.0420697,30.7446169 36.0420697,31.4198408 C36.0420697,32.0954627 35.4926169,32.6445174 34.817393,32.6445174 Z M33.5925174,45.6409353 C30.1139104,45.2908856 26.9188856,43.9657114 24.2844577,41.9444179 L24.2844577,27.7565572 C24.7819701,27.5800398 25.2301294,27.2992438 25.6032637,26.9406368 L31.2275423,30.6391443 C31.1726169,30.8908856 31.1431642,31.1519801 31.1431642,31.4198408 C31.1431642,33.0164577 32.1670448,34.3778507 33.5925174,34.8835224 L33.5925174,45.6409353 Z M23.0597811,25.5177512 C22.3843582,25.5177512 21.8349055,24.9680995 21.8349055,24.2928756 C21.8349055,23.6176517 22.3843582,23.068 23.0597811,23.068 C23.735005,23.068 24.2844577,23.6176517 24.2844577,24.2928756 C24.2844577,24.9680995 23.735005,25.5177512 23.0597811,25.5177512 Z M21.8349055,39.6890945 C19.3957015,36.9981493 17.7421692,33.5834229 17.2376915,29.8098905 L20.9097313,27.269592 C21.1909254,27.4733731 21.5019701,27.6383483 21.8349055,27.7563582 L21.8349055,39.6890945 Z M47.8307264,20.2510846 C47.8307264,20.9265075 47.2814726,21.4757612 46.6060498,21.4757612 C45.9304279,21.4757612 45.3813731,20.9265075 45.3813731,20.2510846 C45.3813731,19.5756617 45.9304279,19.026408 46.6060498,19.026408 C47.2814726,19.026408 47.8307264,19.5756617 47.8307264,20.2510846 Z M35.4452537,8.99158209 C41.0987861,8.99158209 46.1632637,11.5593433 49.536,15.588995 L48.1891343,16.9360597 C47.7093333,16.70601 47.1728159,16.5766567 46.6060498,16.5766567 C44.5801791,16.5766567 42.9318209,18.2248159 42.9318209,20.2508856 C42.9318209,20.7253134 43.0231642,21.1784478 43.1875423,21.5949652 L36.0774925,27.9679005 C35.6842587,27.8242189 35.2599801,27.7452139 34.817791,27.7452139 C33.9481393,27.7452139 33.1489353,28.0496915 32.5186866,28.5563582 L26.7069453,24.7340697 C26.7242587,24.589194 26.734209,24.4423284 26.734209,24.2928756 C26.734209,22.266806 25.0858507,20.6186468 23.0601791,20.6186468 C21.0343085,20.6186468 19.3859502,22.266806 19.3859502,24.2928756 C19.3859502,24.62601 19.4313234,24.948796 19.5149055,25.2560597 L17.0796816,26.9406368 C17.3045572,17.0049154 25.456398,8.99158209 35.4452537,8.99158209 Z M35.4452537,6.54202985 C23.9646567,6.54202985 14.6245572,15.8821294 14.6245572,27.3627264 C14.6245572,38.8433234 23.9646567,48.1834229 35.4452537,48.1834229 C46.9258507,48.1834229 56.2659502,38.8433234 56.2659502,27.3627264 C56.2659502,15.8821294 46.9258507,6.54202985 35.4452537,6.54202985 Z" id="Fill-6"></path>
                    <path d="M60.3074428,27.3627861 C60.3074428,41.0720398 49.154408,52.2250746 35.4451542,52.2250746 C21.7360995,52.2250746 10.5830647,41.0720398 10.5830647,27.3627861 C10.5830647,13.6535323 21.7360995,2.50029851 35.4451542,2.50029851 C49.154408,2.50029851 60.3074428,13.6535323 60.3074428,27.3627861 Z M62.3991841,6.18985075 C62.877393,5.7118408 62.877393,4.93631841 62.3991841,4.45791045 C61.9207761,3.97970149 61.1456517,3.97970149 60.6670448,4.45791045 L55.8807761,9.2441791 C55.5189851,8.83721393 55.1458507,8.43820896 54.757791,8.05034826 C49.5993831,2.89154229 42.7406766,0.0509452736 35.4451542,0.0509452736 C28.1498308,0.0509452736 21.2911244,2.89154229 16.1327164,8.05014925 C10.9741095,13.2085572 8.13331343,20.0670647 8.13331343,27.3627861 C8.13331343,29.1970149 8.31321393,31.0035821 8.6640597,32.7627861 L0.577890547,38.3564179 C0.0216716418,38.7414925 -0.117432836,39.5040796 0.267641791,40.0604975 C0.505253731,40.4041791 0.887741294,40.5886567 1.276,40.5886567 C1.516199,40.5886567 1.75898507,40.51801 1.97172139,40.3709453 L9.29968159,35.3018905 C10.0787861,37.88 11.2399801,40.3271642 12.7528159,42.5743284 L10.6785871,44.6483582 C10.2001791,45.1269652 10.2001791,45.9022886 10.6785871,46.3804975 C10.917592,46.6197015 11.2312239,46.7393035 11.5446567,46.7393035 C11.8578905,46.7393035 12.1713234,46.6197015 12.4105274,46.3804975 L14.2280398,44.5631841 C14.8226667,45.2943284 15.4576915,45.999602 16.1329154,46.6750249 C16.8087363,47.3506468 17.51401,47.9854726 18.2451542,48.5802985 L7.32475622,59.5006965 C6.23241791,60.5930348 4.44276617,60.5808955 3.33530348,59.4730348 C2.22764179,58.3655721 2.21510448,56.5759204 3.30764179,55.4835821 L5.63540299,53.1558209 C6.11361194,52.6776119 6.11361194,51.9022886 5.63540299,51.4236816 C5.15699502,50.9458706 4.38187065,50.9456716 3.90326368,51.4236816 L1.57550249,53.7516418 C-0.472258706,55.799005 -0.459721393,59.1426866 1.60296517,61.2053731 C2.63918408,62.241592 3.99878607,62.760199 5.35480597,62.76 C6.69789055,62.76 8.03759204,62.2513433 9.05649751,61.2326368 L20.2338109,50.0553234 C24.6955025,53.0595025 29.9460498,54.6744279 35.4451542,54.6744279 C42.7406766,54.6744279 49.5991841,51.8338308 54.757791,46.6750249 C59.916,41.5168159 62.757194,34.6583085 62.757194,27.3625871 C62.757194,21.4483582 60.8897313,15.8214925 57.434408,11.1546269 L62.3991841,6.18985075 Z" id="Fill-8"></path>
                </g>
            </g>
        </g>
    </g>
</svg>