<?xml version="1.0" encoding="UTF-8" standalone="no"?>
<svg width="80px" height="80px" viewBox="0 0 80 80" version="1.1" xmlns="http://www.w3.org/2000/svg" xmlns:xlink="http://www.w3.org/1999/xlink">
    <!-- Generator: Sketch 49.3 (51167) - http://www.bohemiancoding.com/sketch -->
    <title>Page 1</title>
    <desc>Created with Sketch.</desc>
    <defs></defs>
    <g id="Page-1" stroke="none" stroke-width="1" fill="none" fill-rule="evenodd">
        <g id="Customers" transform="translate(-550.000000, -2575.000000)">
            <g id="Page-1" transform="translate(550.000000, 2575.000000)">
                <polygon id="Fill-1" fill="#FFFFFF" points="0 79.9838806 79.9838806 79.9838806 79.9838806 0 0 0"></polygon>
                <path d="M64.2778308,49.196796 C63.5908657,49.196796 63.0336517,49.75401 63.0336517,50.4409751 L63.0336517,50.6897313 C63.0336517,51.3768955 63.5908657,51.9341095 64.2778308,51.9341095 C64.964796,51.9341095 65.52201,51.3768955 65.52201,50.6897313 L65.52201,50.4409751 C65.52201,49.75401 64.964796,49.196796 64.2778308,49.196796 Z M68.0101692,45.4644577 C68.0101692,44.0923184 66.8939502,42.9762985 65.52201,42.9762985 L59.3791244,42.9762985 C59.0354428,42.9762985 58.7076816,42.834408 58.4722587,42.5840597 C58.2370348,42.3337114 58.1160398,41.997194 58.1373333,41.6545075 L58.3713632,37.9124179 C58.4310647,36.956796 58.1029055,36.0469453 57.4475821,35.3490348 C56.7922587,34.6517214 55.9039005,34.2674428 54.9464876,34.2674428 C53.9896716,34.2674428 53.1015124,34.6517214 52.44599,35.3490348 C51.7906667,36.0469453 51.4625075,36.956796 51.522209,37.9124179 L51.7562388,41.6545075 C51.7775323,41.997194 51.6563383,42.3337114 51.4213134,42.5840597 C51.1858905,42.834408 50.8579303,42.9762985 50.5146468,42.9762985 L41.883403,42.9762985 L41.883403,50.2831642 L44.3037015,50.1317214 C45.9271841,50.0298308 47.5397214,50.6109254 48.72599,51.7253532 C49.9120597,52.8395821 50.5922587,54.4119204 50.5922587,56.0395821 C50.5922587,57.6670448 49.9120597,59.2397811 48.72599,60.35401 C47.5399204,61.4684378 45.9283781,62.0485373 44.3037015,61.9476418 L41.883403,61.796398 L41.883403,69.1030647 L65.52201,69.1030647 C66.8939502,69.1030647 68.0101692,67.9870448 68.0101692,66.6149055 L68.0101692,45.4644577 Z M40.7168358,59.2304279 L44.4589254,59.4644577 C45.4145473,59.5247562 46.324597,59.196 47.0223085,58.5406766 C47.7198209,57.8849552 48.1040995,56.996796 48.1040995,56.0395821 C48.1040995,55.0821692 47.7198209,54.194408 47.0223085,53.5388856 C46.324597,52.8833632 45.4137512,52.554806 44.4589254,52.6153035 L40.7168358,52.8491343 C40.3741493,52.8702289 40.0376318,52.7492338 39.7874826,52.514408 C39.5371343,52.2787861 39.3950448,51.9512239 39.3950448,51.6073433 L39.3950448,42.9762985 L32.0883781,42.9762985 L32.2394229,45.396398 C32.3411144,47.0208756 31.7602189,48.6326169 30.64599,49.8186866 C29.5315622,51.0047562 27.9592239,51.6851542 26.3315622,51.6851542 C24.7042985,51.6851542 23.1315622,51.0047562 22.0173333,49.8186866 C20.9031045,48.6326169 20.322209,47.0208756 20.4239005,45.396398 L20.5751443,42.9762985 L13.2682786,42.9762985 L13.2682786,66.6149055 C13.2682786,67.9870448 14.3844975,69.1030647 15.7564378,69.1030647 L39.3950448,69.1030647 L39.3950448,60.4720199 C39.3950448,60.1283383 39.5371343,59.8003781 39.7874826,59.5653532 C40.0376318,59.3305274 40.3745473,59.2103284 40.7168358,59.2304279 Z M13.2682786,40.4879403 L21.8995224,40.4879403 C22.242806,40.4879403 22.5709652,40.6300299 22.80599,40.8801791 C23.0414129,41.1307264 23.162607,41.4670448 23.1411144,41.8097313 L22.9070846,45.5520199 C22.8475821,46.5074428 23.1753433,47.4174925 23.8308657,48.115204 C24.4861891,48.8125174 25.3743483,49.196796 26.3315622,49.196796 C27.2887761,49.196796 28.1769353,48.8125174 28.8326567,48.115204 C29.4879801,47.4174925 29.8159403,46.5074428 29.7560398,45.5520199 L29.522209,41.8097313 C29.5009154,41.4670448 29.6219104,41.1307264 29.8571343,40.8801791 C30.0923582,40.6298308 30.4205174,40.4879403 30.764,40.4879403 L39.3950448,40.4879403 L39.3950448,16.8493333 C39.3950448,15.477393 38.2786269,14.3609751 36.9068856,14.3609751 L15.7564378,14.3609751 C14.3844975,14.3609751 13.2682786,15.477393 13.2682786,16.8493333 L13.2682786,21.6678408 L15.6883781,21.516796 C17.3124577,21.4157015 18.924796,21.995801 20.1108657,23.1102289 C21.2969353,24.2246567 21.9771343,25.796995 21.9771343,27.4246567 C21.9771343,29.0521194 21.2969353,30.6244577 20.1108657,31.7388856 C18.924796,32.8527164 17.3136517,33.4334129 15.6883781,33.3323184 L13.2682786,33.1810746 L13.2682786,40.4879403 Z M70.4985274,45.4644577 L70.4985274,66.6149055 C70.4985274,69.3587861 68.2658905,71.5914229 65.52201,71.5914229 L15.7564378,71.5914229 C13.0125572,71.5914229 10.7799204,69.3587861 10.7799204,66.6149055 L10.7799204,31.8568955 C10.7799204,31.5134129 10.92201,31.1852537 11.1723582,30.9500299 C11.4225075,30.715005 11.7592239,30.594806 12.1015124,30.6153035 L15.843801,30.8491343 C16.7990249,30.9090348 17.7096716,30.5804776 18.4069851,29.9251542 C19.1046965,29.2698308 19.4889751,28.3820697 19.4889751,27.4246567 C19.4889751,26.4670448 19.1046965,25.5790846 18.4069851,24.9235622 C17.7096716,24.2682388 16.7990249,23.9394826 15.843801,23.9999801 L12.1015124,24.23401 C11.7590249,24.2545075 11.4225075,24.1341095 11.1723582,23.8990846 C10.92201,23.6638607 10.7799204,23.3360995 10.7799204,22.9922189 L10.7799204,16.8493333 C10.7799204,14.1054527 13.0125572,11.8728159 15.7564378,11.8728159 L36.9068856,11.8728159 C39.6507662,11.8728159 41.883403,14.1054527 41.883403,16.8493333 L41.883403,40.4879403 L49.1900697,40.4879403 L49.0388259,38.0678408 C48.9371343,36.4433632 49.5182289,34.8316219 50.6326567,33.6455522 C51.7466866,32.4594826 53.3192239,31.7792836 54.9464876,31.7792836 C56.5739502,31.7792836 58.1468856,32.4594826 59.2611144,33.6455522 C60.3753433,34.8316219 60.9564378,36.4433632 60.8547463,38.0678408 L60.7033035,40.4879403 L65.52201,40.4879403 C68.2658905,40.4879403 70.4985274,42.7207761 70.4985274,45.4644577 Z M33.1743483,64.1267463 L32.925592,64.1267463 C32.2384279,64.1267463 31.6816119,64.6837612 31.6816119,65.3707264 C31.6816119,66.0578905 32.2384279,66.6149055 32.925592,66.6149055 L33.1743483,66.6149055 C33.8613134,66.6149055 34.4185274,66.0578905 34.4185274,65.3707264 C34.4185274,64.6837612 33.8613134,64.1267463 33.1743483,64.1267463 Z M64.2778308,55.4176915 C63.5908657,55.4176915 63.0336517,55.9749055 63.0336517,56.6618706 L63.0336517,62.8825672 C63.0336517,63.5687363 62.4756418,64.1267463 61.7894726,64.1267463 L58.0571343,64.1267463 C57.3701692,64.1267463 56.8129552,64.6837612 56.8129552,65.3707264 C56.8129552,66.0578905 57.3701692,66.6149055 58.0571343,66.6149055 L61.7894726,66.6149055 C63.8475821,66.6149055 65.52201,64.9404776 65.52201,62.8825672 L65.52201,56.6618706 C65.52201,55.9749055 64.964796,55.4176915 64.2778308,55.4176915 Z M29.4418109,19.3374925 L33.1743483,19.3374925 C33.8601194,19.3374925 34.4185274,19.8959005 34.4185274,20.5816716 L34.4185274,26.8025672 C34.4185274,27.4895323 34.9757413,28.0467463 35.6627065,28.0467463 C36.3496716,28.0467463 36.9068856,27.4895323 36.9068856,26.8025672 L36.9068856,20.5816716 C36.9068856,18.5237612 35.2324577,16.8493333 33.1743483,16.8493333 L29.4418109,16.8493333 C28.7548458,16.8493333 28.1978308,17.4067463 28.1978308,18.0935124 C28.1978308,18.7804776 28.7548458,19.3374925 29.4418109,19.3374925 Z M35.6627065,31.5303284 C34.9757413,31.5303284 34.4185274,32.0871443 34.4185274,32.7745075 L34.4185274,33.0234627 C34.4185274,33.7100299 34.9757413,34.2674428 35.6627065,34.2674428 C36.3496716,34.2674428 36.9068856,33.7100299 36.9068856,33.0234627 L36.9068856,32.7745075 C36.9068856,32.0871443 36.3496716,31.5303284 35.6627065,31.5303284 Z M28.1978308,65.3707264 C28.1978308,66.0578905 27.6406169,66.6149055 26.9536517,66.6149055 L19.4889751,66.6149055 C17.4310647,66.6149055 15.7564378,64.9404776 15.7564378,62.8825672 L15.7564378,57.9060498 C15.7564378,57.2190846 16.3134527,56.6618706 17.0006169,56.6618706 C17.6875821,56.6618706 18.244796,57.2190846 18.244796,57.9060498 L18.244796,62.8825672 C18.244796,63.5687363 18.802806,64.1267463 19.4889751,64.1267463 L26.9536517,64.1267463 C27.6406169,64.1267463 28.1978308,64.6837612 28.1978308,65.3707264 Z" id="Fill-2" fill="#554D85"></path>
            </g>
        </g>
    </g>
</svg>