<?xml version="1.0" encoding="UTF-8" standalone="no"?>
<svg width="80px" height="81px" viewBox="0 0 80 81" version="1.1" xmlns="http://www.w3.org/2000/svg" xmlns:xlink="http://www.w3.org/1999/xlink">
    <!-- Generator: Sketch 49.3 (51167) - http://www.bohemiancoding.com/sketch -->
    <title>Page 1</title>
    <desc>Created with Sketch.</desc>
    <defs>
        <polygon id="path-1" points="0 80 79.9838806 80 79.9838806 0.016119403 0 0.016119403"></polygon>
    </defs>
    <g id="Page-1" stroke="none" stroke-width="1" fill="none" fill-rule="evenodd">
        <g id="Customers" transform="translate(-941.000000, -2574.000000)">
            <g id="Page-1" transform="translate(941.000000, 2574.000000)">
                <polygon id="Fill-1" fill="#FFFFFF" points="0 80.1828856 79.9838806 80.1828856 79.9838806 0.199004975 0 0.199004975"></polygon>
                <g id="Group-24" transform="translate(0.000000, 0.182886)">
                    <path d="M70.1428458,31.7541294 L64.9603582,31.7541294 C64.591602,30.6383085 64.1436418,29.5503483 63.6192637,28.498806 L67.2779701,24.8395025 C67.2781692,24.8393035 67.2783682,24.8391045 67.2787662,24.8389055 C68.2954826,23.821791 68.2952836,22.1728358 67.2779701,21.1557214 L59.910607,13.7883582 C58.8799602,12.8046766 57.2586667,12.8046766 56.2280199,13.7883582 L52.5637413,17.4500498 C51.512398,16.9254726 50.4244378,16.4771144 49.3084179,16.1087562 L49.3084179,10.9234826 C49.3084179,9.48527363 48.1424478,8.31910448 46.7042388,8.31910448 L36.2869254,8.31910448 C34.8485174,8.31910448 33.6825473,9.48527363 33.6825473,10.9234826 L33.6825473,16.1087562 C32.5655323,16.4763184 31.4761791,16.9236816 30.4232438,17.4470647 L26.7639403,13.7883582 C25.7338905,12.8030846 24.110806,12.8030846 23.0803582,13.7883582 L15.712796,21.1557214 C14.6962786,22.1728358 14.6962786,23.821393 15.712796,24.8383085 L19.3746866,28.5025871 C18.8503085,29.5539303 18.4017512,30.6420896 18.033194,31.7581095 L12.8481194,31.7581095 C11.4097114,31.7581095 10.2437413,32.9238806 10.2437413,34.3620896 L10.2437413,39.5708458 L12.8481194,39.5708458 L12.8481194,34.3620896 L18.992995,34.3620896 C19.5732935,34.3622886 20.0833433,33.978408 20.2443383,33.420796 C20.6960796,31.8428856 21.3223483,30.3204975 22.111801,28.8814925 C22.392597,28.3734328 22.3032438,27.740995 21.8930945,27.3304478 L17.5553831,22.9969154 L24.9215522,15.6307463 L29.2600597,19.9682587 C29.670607,20.37801 30.3022488,20.4673632 30.8099104,20.1871642 C32.2475224,19.3981095 33.7691144,18.7720398 35.3452338,18.3197015 C35.9030448,18.1591045 36.2867264,17.6486567 36.2867264,17.0683582 L36.2867264,10.9234826 L46.7040398,10.9234826 L46.7040398,17.0683582 C46.7038408,17.6486567 47.0877214,18.1591045 47.6453333,18.3197015 C49.2236418,18.7716418 50.7462289,19.3977114 52.1860299,20.1871642 C52.6932935,20.4673632 53.3253333,20.37801 53.7354826,19.9682587 L58.0692139,15.6307463 L65.4355821,22.9969154 L61.0978706,27.3346269 C60.6875224,27.7449751 60.5979701,28.3774129 60.8789652,28.8854726 C61.6682189,30.3230846 62.2944876,31.8442786 62.7462289,33.420796 C62.9072239,33.978408 63.4174726,34.3622886 63.9977711,34.3620896 L70.1426468,34.3620896 L70.1426468,39.5708458 L72.7472239,39.5708458 L72.7472239,34.3585075 C72.7472239,32.9200995 71.5812537,31.7541294 70.1428458,31.7541294" id="Fill-2" fill="#554D85"></path>
                    <path d="M41.4954428,25.247403 C34.304,25.247403 28.4737512,31.0772537 28.4737512,38.2688955 L28.4737512,39.5709851 L31.0779303,39.5709851 L31.0779303,38.2686965 C31.0781294,32.5154627 35.74201,27.8513831 41.4954428,27.8513831 C47.2486766,27.8513831 51.9127562,32.5154627 51.9127562,38.2686965 L51.9127562,39.5709851 L54.5171343,39.5709851 L54.5171343,38.2686965 C54.5171343,31.0772537 48.6868856,25.247403 41.4954428,25.247403" id="Fill-4" fill="#554D85"></path>
                    <mask id="mask-2" fill="white">
                        <use xlink:href="#path-1"></use>
                    </mask>
                    <g id="Clip-7"></g>
                    <polygon id="Fill-6" fill="#554D85" mask="url(#mask-2)" points="40.1930348 16.1323383 42.7974129 16.1323383 42.7974129 13.5279602 40.1930348 13.5279602"></polygon>
                    <polygon id="Fill-8" fill="#554D85" mask="url(#mask-2)" points="23.2656716 23.9454726 25.8700498 23.9454726 25.8700498 21.3410945 23.2656716 21.3410945"></polygon>
                    <polygon id="Fill-9" fill="#554D85" mask="url(#mask-2)" points="15.4523383 39.5713433 18.0567164 39.5713433 18.0567164 36.9669652 15.4523383 36.9669652"></polygon>
                    <polygon id="Fill-10" fill="#554D85" mask="url(#mask-2)" points="64.9341294 39.5713433 67.5385075 39.5713433 67.5385075 36.9669652 64.9341294 36.9669652"></polygon>
                    <polygon id="Fill-11" fill="#554D85" mask="url(#mask-2)" points="57.121194 23.9454726 59.7257711 23.9454726 59.7257711 21.3410945 57.121194 21.3410945"></polygon>
                    <path d="M12.8479602,68.2183085 L25.8698507,68.2183085 L25.8698507,60.4051741 L12.8479602,60.4051741 L12.8479602,68.2183085 Z M25.8698507,57.800796 L12.8481592,57.800796 C11.4097512,57.800796 10.2437811,58.9673632 10.2437811,60.4051741 L10.2437811,68.2183085 C10.2437811,69.6565174 11.4097512,70.8226866 12.8481592,70.8226866 L25.8698507,70.8226866 C27.3078607,70.8226866 28.4738308,69.6565174 28.4738308,68.2183085 L28.4738308,60.4051741 C28.4738308,58.9673632 27.3078607,57.800796 25.8698507,57.800796 Z" id="Fill-12" fill="#554D85" mask="url(#mask-2)"></path>
                    <path d="M57.121194,68.2183085 L70.1428856,68.2183085 L70.1428856,60.4051741 L57.121194,60.4051741 L57.121194,68.2183085 Z M70.1428856,57.800796 L57.121194,57.800796 C55.6829851,57.800796 54.5170149,58.9669652 54.5170149,60.4051741 L54.5170149,68.2181095 C54.5170149,69.6563184 55.6829851,70.8224876 57.121194,70.8224876 L70.1428856,70.8224876 C71.5810945,70.8224876 72.7472637,69.6563184 72.7472637,68.2181095 L72.7472637,60.4051741 C72.7472637,58.9673632 71.5810945,57.800796 70.1428856,57.800796 Z" id="Fill-13" fill="#554D85" mask="url(#mask-2)"></path>
                    <path d="M48.0064478,68.2182886 L48.0062488,68.2182886 L34.9845572,68.2182886 L34.9845572,60.4051542 L48.0064478,60.4051542 L48.0064478,68.2182886 Z M48.0062488,57.8007761 L34.9845572,57.8007761 C33.5463483,57.8007761 32.3803781,58.9669453 32.3803781,60.4051542 L32.3803781,68.2180896 C32.3803781,69.6564975 33.5463483,70.8224677 34.9845572,70.8224677 L48.0064478,70.8224677 C49.4446567,70.8224677 50.6106269,69.6564975 50.6106269,68.2180896 L50.6106269,60.4051542 C50.6106269,58.9673433 49.4446567,57.8007761 48.0062488,57.8007761 Z" id="Fill-14" fill="#554D85" mask="url(#mask-2)"></path>
                    <path d="M63.6320398,47.3837811 L19.358806,47.3837811 C18.639602,47.3837811 18.0567164,47.9668657 18.0567164,48.6860697 L18.0567164,55.1969154 L20.6610945,55.1969154 L20.6610945,49.9881592 L62.3297512,49.9881592 L62.3297512,55.1969154 L64.9341294,55.1969154 L64.9341294,48.6860697 C64.9341294,47.9668657 64.3512438,47.3837811 63.6320398,47.3837811" id="Fill-15" fill="#554D85" mask="url(#mask-2)"></path>
                    <polygon id="Fill-16" fill="#554D85" mask="url(#mask-2)" points="40.1930348 55.1968159 42.7974129 55.1968159 42.7974129 38.2684577 40.1930348 38.2684577"></polygon>
                    <polygon id="Fill-17" fill="#554D85" mask="url(#mask-2)" points="15.4523383 65.6139303 18.0567164 65.6139303 18.0567164 63.0095522 15.4523383 63.0095522"></polygon>
                    <polygon id="Fill-18" fill="#554D85" mask="url(#mask-2)" points="20.6604975 65.6139303 23.2646766 65.6139303 23.2646766 63.0095522 20.6604975 63.0095522"></polygon>
                    <polygon id="Fill-19" fill="#554D85" mask="url(#mask-2)" points="37.5890547 65.6139303 40.1932338 65.6139303 40.1932338 63.0095522 37.5890547 63.0095522"></polygon>
                    <polygon id="Fill-20" fill="#554D85" mask="url(#mask-2)" points="42.798209 65.6139303 45.4023881 65.6139303 45.4023881 63.0095522 42.798209 63.0095522"></polygon>
                    <polygon id="Fill-21" fill="#554D85" mask="url(#mask-2)" points="59.7251741 65.6139303 62.3293532 65.6139303 62.3293532 63.0095522 59.7251741 63.0095522"></polygon>
                    <polygon id="Fill-22" fill="#554D85" mask="url(#mask-2)" points="64.9341294 65.6139303 67.5385075 65.6139303 67.5385075 63.0095522 64.9341294 63.0095522"></polygon>
                    <path d="M41.4954428,31.75801 C37.8998209,31.75801 34.984597,34.6728358 34.984597,38.2686567 L34.984597,39.5709453 L37.5889751,39.5709453 L37.5889751,38.2686567 C37.5889751,36.1112438 39.3380299,34.3621891 41.4954428,34.3621891 C43.6530547,34.3621891 45.4019104,36.1112438 45.4019104,38.2686567 L45.4019104,39.5709453 L48.0062886,39.5709453 L48.0062886,38.2686567 C48.0062886,34.6728358 45.0910647,31.75801 41.4954428,31.75801" id="Fill-23" fill="#554D85" mask="url(#mask-2)"></path>
                </g>
            </g>
        </g>
    </g>
</svg>