<?xml version="1.0" encoding="UTF-8" standalone="no"?>
<svg width="80px" height="80px" viewBox="0 0 80 80" version="1.1" xmlns="http://www.w3.org/2000/svg" xmlns:xlink="http://www.w3.org/1999/xlink">
    <!-- Generator: Sketch 49.3 (51167) - http://www.bohemiancoding.com/sketch -->
    <title>Page 1</title>
    <desc>Created with Sketch.</desc>
    <defs></defs>
    <g id="Page-1" stroke="none" stroke-width="1" fill="none" fill-rule="evenodd">
        <g id="Customers" transform="translate(-161.000000, -2715.000000)">
            <g id="Page-1" transform="translate(161.000000, 2715.000000)">
                <polygon id="Fill-1" fill="#FFFFFF" points="0 79.9838806 79.9838806 79.9838806 79.9838806 0 0 0"></polygon>
                <g id="Group-8" transform="translate(7.761194, 8.740100)" fill="#554D85">
                    <path d="M31.7918209,45.9376915 C24.0228657,45.9376915 17.7028657,39.6176915 17.7028657,31.8487363 C17.7028657,24.0799801 24.0228657,17.7599801 31.7918209,17.7599801 C39.5607761,17.7599801 45.8807761,24.0799801 45.8807761,31.8487363 C45.8807761,39.6176915 39.5607761,45.9376915 31.7918209,45.9376915 M31.7918209,15.4115224 C22.7277413,15.4115224 15.354806,22.7848557 15.354806,31.8487363 C15.354806,40.9126169 22.7277413,48.2859502 31.7918209,48.2859502 C40.8555025,48.2859502 48.2290348,40.9126169 48.2290348,31.8487363 C48.2290348,22.7848557 40.8555025,15.4115224 31.7918209,15.4115224" id="Fill-2"></path>
                    <path d="M61.1435025,35.6292736 C61.1435025,36.1341493 60.7327562,36.5452935 60.2276816,36.5452935 L56.0105672,36.5452935 L55.7992239,37.4525572 C55.1874826,40.0790249 54.1566368,42.5715622 52.7313632,44.8621095 L52.2384279,45.6533532 L55.2191244,48.6344478 C55.5771343,48.9926567 55.5771343,49.5735522 55.2191244,49.9305672 L49.8736517,55.2762388 C49.5168358,55.6332537 48.9357413,55.6354428 48.5773333,55.2762388 L45.5966368,52.2951443 L44.805194,52.7882786 C42.5158408,54.2137512 40.0233035,55.245592 37.3956418,55.8559403 L36.4881791,56.0672836 L36.4881791,60.284796 C36.4881791,60.7894726 36.0772338,61.2004179 35.5725572,61.2004179 L28.0113632,61.2004179 C27.5062886,61.2004179 27.0953433,60.7894726 27.0953433,60.284796 L27.0953433,56.0674826 L26.1878806,55.8559403 C23.5618109,55.244398 21.0688756,54.2137512 18.7785274,52.7882786 L17.9872836,52.2951443 L15.0061891,55.2762388 C14.6467861,55.6354428 14.0656915,55.6332537 13.7098706,55.2762388 L8.36439801,49.9305672 C8.00599005,49.5725572 8.00599005,48.9914627 8.36439801,48.6344478 L11.3454925,45.6533532 L10.8521592,44.8621095 C9.42668657,42.5727562 8.39484577,40.0802189 7.78449751,37.4525572 L7.57315423,36.5452935 L3.35564179,36.5452935 C2.85096517,36.5452935 2.44021891,36.1341493 2.44021891,35.6292736 L2.44021891,28.0682786 C2.44021891,27.563204 2.85096517,27.1524577 3.35564179,27.1524577 L7.57315423,27.1524577 L7.78449751,26.244796 C8.39623881,23.6175323 9.42668657,21.124796 10.8521592,18.8354428 L11.3454925,18.044199 L8.36439801,15.0631045 C8.00599005,14.7048955 8.00599005,14.123801 8.36439801,13.7669851 L13.7098706,8.42131343 C14.0666866,8.06429851 14.6477811,8.06210945 15.0061891,8.42131343 L17.9872836,11.402408 L18.7785274,10.9090746 C21.0676816,9.483801 23.5604179,8.4519602 26.1878806,7.84141294 L27.0953433,7.63006965 L27.0953433,3.41255721 C27.0953433,2.9078806 27.5062886,2.49713433 28.0113632,2.49713433 L35.5709652,2.49713433 C36.0772338,2.49713433 36.4881791,2.9078806 36.4881791,3.41255721 L36.4881791,7.63006965 L37.3956418,7.84141294 C40.0221095,8.45295522 42.5146468,9.483801 44.805194,10.9090746 L45.5966368,11.402408 L48.5773333,8.42131343 C48.9367363,8.06210945 49.5180299,8.06429851 49.8736517,8.42131343 L55.2191244,13.7669851 C55.5771343,14.124995 55.5771343,14.7058905 55.2191244,15.0631045 L52.2384279,18.044199 L52.7313632,18.8354428 C54.1566368,21.123602 55.1884776,23.6161393 55.7992239,26.244796 L56.0103682,27.1524577 L60.2276816,27.1524577 C60.7327562,27.1524577 61.1435025,27.563204 61.1435025,28.0682786 L61.1435025,35.6292736 Z M60.2276816,24.804398 L57.8583284,24.804398 C57.2537512,22.5596219 56.364995,20.4109652 55.205194,18.3974328 L56.8792239,16.723204 C57.4957413,16.1068856 57.8350448,15.28599 57.8350448,14.4149453 C57.8350448,13.5427065 57.4957413,12.723204 56.8792239,12.1056915 L51.5337512,6.7600199 C50.3013134,5.52837811 48.1514627,5.52599005 46.9162388,6.7600199 L45.2418109,8.43424876 C43.2272836,7.27544279 41.0800199,6.38668657 38.8362388,5.78230846 L38.8362388,3.41255721 C38.8362388,1.61275622 37.3721592,0.148875622 35.5725572,0.148875622 L28.0113632,0.148875622 C26.2115622,0.148875622 24.7472836,1.61275622 24.7472836,3.41255721 L24.7472836,5.78230846 C22.5039005,6.38668657 20.3564378,7.27544279 18.3405174,8.43564179 L16.6662886,6.76121393 C15.4322587,5.52599005 13.2814129,5.52837811 12.0487761,6.76121393 L6.70310448,12.1066866 C6.08678607,12.723204 5.74748259,13.5439005 5.74748259,14.4161393 C5.74748259,15.2871841 6.08678607,16.1068856 6.70310448,16.724199 L8.37733333,18.3986269 C7.21852736,20.4109652 6.32857711,22.5596219 5.72519403,24.804398 L3.35564179,24.804398 C1.5558408,24.804398 0.091960199,26.2684776 0.091960199,28.0682786 L0.091960199,35.6280796 C0.091960199,37.4292736 1.5558408,38.8931542 3.35564179,38.8931542 L5.72519403,38.8931542 C6.32977114,41.1369353 7.21852736,43.284199 8.37832836,45.3001194 L6.70429851,46.9743483 C6.0879801,47.5906667 5.74867662,48.4113632 5.74867662,49.282408 C5.74867662,50.1548458 6.0879801,50.9743483 6.70429851,51.5920597 L12.0497711,56.9373333 C13.282607,58.1711642 15.4334527,58.1725572 16.6674826,56.9373333 L18.3417114,55.2631045 C20.3576318,56.4221095 22.5048955,57.3120597 24.7484776,57.9164378 L24.7484776,60.28599 C24.7484776,62.085592 26.2127562,63.5498706 28.0123582,63.5498706 L35.5725572,63.5498706 C37.3721592,63.5498706 38.8362388,62.085592 38.8362388,60.28599 L38.8362388,57.9164378 C41.0800199,57.3120597 43.2272836,56.4231045 45.243204,55.2631045 L46.9174328,56.9373333 C48.1526567,58.1725572 50.3013134,58.1703682 51.5349453,56.9373333 L56.8804179,51.5920597 C57.4969353,50.9753433 57.8362388,50.1548458 57.8362388,49.282408 C57.8362388,48.4113632 57.4969353,47.5916617 56.8804179,46.9743483 L55.2061891,45.3001194 C56.364995,43.284199 57.2551443,41.1369353 57.8595224,38.8931542 L60.2288756,38.8931542 C62.0286766,38.8931542 63.4929552,37.4292736 63.4929552,35.6292736 L63.4929552,28.0682786 C63.4919602,26.2684776 62.0274826,24.804398 60.2276816,24.804398 Z" id="Fill-4"></path>
                    <path d="M31.7918209,41.2412537 C26.6131144,41.2412537 22.3993831,37.0275224 22.3993831,31.8488159 C22.3993831,26.6699104 26.6131144,22.4561791 31.7918209,22.4561791 C36.9705274,22.4561791 41.1842587,26.6699104 41.1842587,31.8488159 C41.1842587,37.0275224 36.9705274,41.2412537 31.7918209,41.2412537 M31.7918209,20.1081194 C25.31799,20.1081194 20.0509254,25.3747861 20.0509254,31.8488159 C20.0509254,38.3226468 25.31799,43.5895124 31.7918209,43.5895124 C38.2656517,43.5895124 43.5323184,38.3226468 43.5323184,31.8488159 C43.5323184,25.3747861 38.2656517,20.1081194 31.7918209,20.1081194" id="Fill-6"></path>
                </g>
            </g>
        </g>
    </g>
</svg>