<?xml version="1.0" encoding="UTF-8" standalone="no"?>
<svg width="80px" height="80px" viewBox="0 0 80 80" version="1.1" xmlns="http://www.w3.org/2000/svg" xmlns:xlink="http://www.w3.org/1999/xlink">
    <!-- Generator: Sketch 49.3 (51167) - http://www.bohemiancoding.com/sketch -->
    <title>Page 1</title>
    <desc>Created with Sketch.</desc>
    <defs></defs>
    <g id="Page-1" stroke="none" stroke-width="1" fill="none" fill-rule="evenodd">
        <g id="Customers" transform="translate(-550.000000, -2715.000000)">
            <g id="Page-1" transform="translate(550.000000, 2715.000000)">
                <polygon id="Fill-1" fill="#FFFFFF" points="0 79.9838806 79.9838806 79.9838806 79.9838806 0 0 0"></polygon>
                <g id="Group-14" transform="translate(2.985075, 2.570945)" fill="#554D85">
                    <path d="M26.1090945,16.4111045 C26.1355622,16.1651343 26.2535721,15.7066269 26.7355622,15.4029453 C28.7532736,14.1320995 32.2336716,12.6154826 37.3522786,12.6154826 C42.4714826,12.6154826 45.9516816,14.1320995 47.969194,15.4039403 C48.4513831,15.7080199 48.569393,16.1651343 48.5956617,16.4122985 C48.6448159,16.8477214 48.4951642,17.2761791 48.1851144,17.5860299 C47.7130746,18.0570746 46.9783483,18.1410547 46.4398408,17.7856318 C45.3200398,17.0451343 44.088398,16.4463284 42.7761592,16.0029453 L41.1192438,15.4415522 L41.1192438,18.8930945 L33.5857114,18.8930945 L33.5857114,15.4415522 L31.928398,16.0015522 C30.6163582,16.4449353 29.3849154,17.0437413 28.2649154,17.7844378 C27.7252139,18.1422488 26.9906866,18.0556816 26.5196418,17.5848358 C26.209393,17.2747861 26.0601393,16.8465274 26.1090945,16.4111045 M33.5857114,6.33806965 C33.5857114,4.26125373 35.2758607,2.57130348 37.3522786,2.57130348 C39.4288955,2.57130348 41.1192438,4.26125373 41.1192438,6.33806965 C41.1192438,8.41448756 39.4288955,10.1042388 37.3522786,10.1042388 C35.2758607,10.1042388 33.5857114,8.41448756 33.5857114,6.33806965 M29.64999,19.8787662 C30.1017313,19.5800597 30.5785473,19.3074229 31.0748657,19.0638408 L31.0748657,21.4041393 L43.6302886,21.4041393 L43.6302886,19.0638408 C44.12601,19.3074229 44.6018308,19.5800597 45.0551642,19.8787662 C46.5867065,20.8930945 48.6458109,20.6747861 49.9606368,19.3601592 C50.8141692,18.5064279 51.2261095,17.3313035 51.0915821,16.1322985 C50.9596418,14.950806 50.3092935,13.91001 49.3075025,13.2809552 C47.6979502,12.2650348 45.2621294,11.1263284 41.9928756,10.5277214 C42.9996418,9.41408955 43.6302886,7.95359204 43.6302886,6.33806965 C43.6302886,2.87637811 40.8139701,0.0602587065 37.3522786,0.0602587065 C33.8909851,0.0602587065 31.0748657,2.87637811 31.0748657,6.33806965 C31.0748657,7.95359204 31.7049154,9.41408955 32.7106866,10.5277214 C29.4414328,11.1263284 27.0054129,12.2650348 25.3962587,13.2809552 C24.3940697,13.911204 23.7451144,14.950806 23.6117811,16.1322985 C23.4788458,17.3313035 23.8905871,18.5076219 24.7433234,19.3601592 C26.0573532,20.673393 28.1180498,20.8907065 29.64999,19.8787662" id="Fill-2"></path>
                    <path d="M11.6480199,41.7914428 C11.0603582,39.480199 10.693592,35.7020896 12.2770746,30.8322388 C13.8589652,25.9629851 16.3763781,23.1229851 18.2094129,21.598607 C18.5095124,21.3488557 18.8255323,21.2837811 19.0732935,21.2837811 C19.1861294,21.2837811 19.2854328,21.2975124 19.3604577,21.3126368 C19.7901095,21.400398 20.1491144,21.6754229 20.3489154,22.0672637 C20.651403,22.6620896 20.5057313,23.3854726 20.0008557,23.7872637 C18.9477214,24.6270647 17.9958806,25.6141294 17.172398,26.7225871 L16.1292139,28.1251741 L19.411005,29.1924378 L17.0832438,36.3562189 L13.8010547,35.2903483 L13.8213532,37.039403 C13.8376716,38.4254726 14.0271244,39.7826866 14.3851343,41.0744279 C14.5582687,41.6973134 14.250607,42.3677612 13.6543881,42.6718408 C13.2639403,42.8700498 12.810607,42.880199 12.413791,42.6993035 C12.1877214,42.599005 11.7887164,42.3452736 11.6480199,41.7914428 M5.14175124,32.4754229 C4.18513433,32.1653731 3.40662687,31.5000995 2.95070647,30.6033831 C2.49379104,29.7070647 2.41359204,28.6875622 2.72483582,27.7295522 C3.24105473,26.1400995 4.72244776,25.1269652 6.30931343,25.1269652 C6.69498507,25.1269652 7.08543284,25.1870647 7.47090547,25.3112438 C9.44443781,25.9516418 10.5294129,28.08 9.88881592,30.0547264 C9.88881592,30.0547264 9.88881592,30.0561194 9.88762189,30.0561194 C9.88762189,30.0571144 9.88762189,30.0585075 9.88642786,30.0599005 C9.24622886,32.0334328 7.11926368,33.118209 5.14175124,32.4754229 M14.7930945,44.9102488 C16.4478209,44.0678607 17.2941891,42.1733333 16.8056318,40.4039801 C16.6599602,39.881791 16.5483184,39.3444776 16.4693134,38.7970149 L18.69399,39.520199 L22.5747861,27.5789055 L20.3503085,26.8569154 C20.73399,26.4616915 21.1409552,26.0921393 21.5652338,25.7518408 C23.0020498,24.6107463 23.4299104,22.5820896 22.5861294,20.9269652 C22.0388657,19.8537313 21.0480199,19.0965174 19.8679204,18.8543284 C18.7015522,18.6171144 17.5124975,18.9108458 16.6022488,19.6690547 C15.1395622,20.8857711 13.3039403,22.8481592 11.7258308,25.7723383 C10.9499104,24.4238806 9.73697512,23.4079602 8.24543284,22.9231841 C4.95727363,21.8561194 1.40523383,23.6614925 0.33558209,26.9534328 C-0.182825871,28.5494527 -0.0498905473,30.2493532 0.712298507,31.7436816 C1.47309453,33.2364179 2.77160199,34.3448756 4.36602985,34.8634826 C5.00483582,35.0708458 5.65896517,35.1735323 6.31309453,35.1735323 C7.18214925,35.1735323 8.04344279,34.9802985 8.85299502,34.6199005 C8.41637811,37.9056716 8.74652736,40.5685572 9.21379104,42.4091542 C9.50453731,43.5568159 10.293194,44.4971144 11.3769751,44.9878607 C11.8979701,45.2242786 12.451602,45.3408955 13.0038408,45.3408955 C13.6179701,45.3408955 14.2293134,45.1966169 14.7930945,44.9102488" id="Fill-4"></path>
                    <path d="M33.1840796,63.8498905 C33.0171144,64.0317811 32.6742289,64.3332736 32.0829851,64.2954627 C29.7038806,64.1400398 25.9974129,63.3227264 21.8553234,60.3129751 C17.7124378,57.3012338 15.7900498,54.028995 14.9060697,51.8156617 L14.9060697,51.8142687 C14.6955224,51.2857114 14.8696517,50.8463085 14.9912438,50.6317811 C15.2073632,50.2498905 15.5802985,49.9925771 16.0111443,49.9247164 C16.0873632,49.9135721 16.1631841,49.907204 16.238408,49.907204 C16.8145274,49.907204 17.3420896,50.2526766 17.5414925,50.787403 C18.0097512,52.0403383 18.6551244,53.2504876 19.4561194,54.3832239 L20.4682587,55.8108856 L22.4971144,53.0184478 L28.5912438,57.4467065 L26.5649751,60.2377512 L28.2322388,60.7587463 C29.5518408,61.1718806 30.9014925,61.4116816 32.2449751,61.4707861 C32.8903483,61.4984478 33.4338308,61.9991443 33.5393035,62.6572537 C33.6097512,63.0912836 33.479005,63.5259104 33.1840796,63.8498905 M21.2137313,67.6051144 C20.6212935,68.4188458 19.7484577,68.9535721 18.7544279,69.1115821 C17.7699502,69.267602 16.7655721,69.0301891 15.9518408,68.4387463 C15.1383085,67.8461095 14.6035821,66.9736716 14.4451741,65.9806368 C14.2883582,64.986209 14.5267662,63.9917811 15.118209,63.1780498 C15.7108458,62.3645174 16.5832836,61.829791 17.5765174,61.6715821 C17.7761194,61.6413333 17.9759204,61.6250149 18.1741294,61.6250149 C18.9623881,61.6250149 19.7301493,61.8723781 20.3802985,62.3458109 C22.0587065,63.5649154 22.4330348,65.9253134 21.2137313,67.6051144 M32.3568159,58.9633234 C31.8117413,58.9380498 31.2666667,58.8803383 30.72199,58.7852139 L32.0981095,56.8902886 L21.9418905,49.5117811 L20.5647761,51.4053134 C20.3072637,50.9153632 20.081393,50.4142687 19.8917413,49.907204 C19.2477612,48.1909851 17.4535323,47.1501891 15.6177114,47.4451144 C14.4276617,47.6323781 13.40199,48.3428259 12.8067662,49.38999 C12.2191045,50.4232239 12.1337313,51.6475025 12.5719403,52.74601 C13.2764179,54.5125771 14.5757214,56.866607 16.8696517,59.2721791 C15.3468657,59.5935721 14.0071642,60.4325771 13.0855721,61.7004378 C12.1000995,63.0564577 11.7006965,64.7151642 11.9629851,66.3724776 C12.2254726,68.029791 13.1170149,69.4837214 14.4730348,70.469194 C15.5564179,71.2576517 16.8346269,71.6705871 18.1502488,71.6705871 C18.480597,71.6705871 18.8119403,71.6441194 19.1460697,71.5913831 C20.80199,71.3292935 22.2573134,70.4377512 23.2441791,69.0817313 C24.1932338,67.7748657 24.5410945,66.2230249 24.3814925,64.7312836 C27.3797015,66.1686965 30.0189055,66.6773532 31.9172139,66.8027264 C32.0025871,66.8079005 32.0893532,66.8116816 32.1745274,66.8116816 C33.2618905,66.8116816 34.2939303,66.3573532 35.0374129,65.5424279 C35.8483582,64.6520796 36.2073632,63.4580498 36.0177114,62.266607 C35.7277612,60.4325771 34.1872637,59.0437214 32.3568159,58.9633234" id="Fill-6"></path>
                    <path d="M60.260995,65.9806368 C60.1025871,66.9736716 59.5678607,67.8461095 58.7541294,68.4387463 C57.940796,69.0301891 56.939005,69.267602 55.9517413,69.1115821 C54.9575124,68.9535721 54.0850746,68.4188458 53.4922388,67.6051144 C52.2717413,65.9243184 52.6458706,63.5649154 54.3274627,62.3446169 C55.139602,61.7543682 56.1326368,61.5197413 57.1296517,61.6715821 C58.1226866,61.829791 58.9953234,62.3645174 59.5877612,63.1780498 C60.179403,63.9917811 60.4176119,64.986209 60.260995,65.9806368 M42.621791,64.2954627 C42.0229851,64.3306866 41.6862687,64.0307861 41.5206965,63.8498905 C41.2257711,63.5259104 41.0950249,63.0912836 41.1640796,62.6610348 C41.2695522,62.0017313 41.8146269,61.5006368 42.46,61.4731741 C43.8022886,61.4128756 45.1529353,61.1742687 46.4713433,60.7613333 L48.138607,60.2403383 L46.1123383,57.4490945 L52.2066667,53.0208358 L54.2357214,55.8130746 L55.2474627,54.3856119 C56.0500498,53.2532736 56.6940299,52.0429254 57.1620896,50.78999 C57.3879602,50.18601 58.0285572,49.829393 58.6926368,49.9261095 C59.1244776,49.9953632 59.4976119,50.2526766 59.7121393,50.6329751 C59.8351244,50.8477015 60.0082587,51.2869055 59.7973134,51.8168557 C58.9137313,54.0303881 56.9913433,57.3012338 52.8482587,60.3129751 C48.7073632,63.3227264 45.0008955,64.1400398 42.621791,64.2954627 M57.8337313,59.2721791 C60.1278607,56.8656119 61.4271642,54.5125771 62.1316418,52.747204 C62.5710448,51.6475025 62.4844776,50.4232239 61.8968159,49.38999 C61.300398,48.3428259 60.2757214,47.6335721 59.0858706,47.4451144 C57.2526368,47.1515821 55.4546269,48.1909851 54.8120398,49.907204 C54.6221891,50.4156617 54.3961194,50.9167562 54.138806,51.4053134 L52.7612935,49.5117811 L42.6054726,56.8902886 L43.981393,58.7852139 C43.4367164,58.8791443 42.8918408,58.9380498 42.3479602,58.9633234 C40.5175124,59.0437214 38.9758209,60.4325771 38.6844776,62.266607 C38.4960199,63.4570547 38.8542289,64.6508856 39.6653731,65.5410348 C40.4082587,66.3545672 41.4402985,66.8102886 42.5278607,66.8102886 C42.6128358,66.8102886 42.699801,66.8065075 42.7851741,66.8017313 C44.6834826,66.6773532 47.3240796,66.1675025 50.3208955,64.7302886 C50.1614925,66.2216318 50.5091542,67.7732736 51.458209,69.0803383 L51.459403,69.0803383 C52.4452736,70.4363582 53.899005,71.3279005 55.5559204,71.5901891 C55.8902488,71.6429254 56.221791,71.669592 56.5519403,71.669592 C57.8677612,71.669592 59.1447761,71.2564577 60.2295522,70.468 C61.5855721,69.4823284 62.4769154,68.028199 62.739204,66.3708856 C63.0014925,64.7135721 62.6034826,63.0552637 61.6168159,61.6990448 C60.6964179,60.4335721 59.3567164,59.5935721 57.8337313,59.2721791" id="Fill-8"></path>
                    <path d="M71.7539303,30.6034229 C71.29801,31.5001393 70.5199005,32.1654129 69.5628856,32.4754627 C67.5867662,33.1182488 65.4562189,32.0310846 64.8158209,30.0571542 C64.1730348,28.0822289 65.259005,25.9516816 67.2339303,25.3112836 C67.619602,25.1859104 68.0100498,25.126806 68.3953234,25.126806 C69.9835821,25.126806 71.4639801,26.1413333 71.98,27.7309851 C72.2914428,28.687602 72.2122388,29.7071045 71.7539303,30.6034229 M63.0570149,41.7914826 C62.9175124,42.3437214 62.5169154,42.5988458 62.2918408,42.7005373 C61.8968159,42.8824279 61.4434826,42.8722786 61.0508458,42.6718806 C60.4554229,42.368995 60.1479602,41.6983483 60.3208955,41.0758607 C60.6789055,39.7827264 60.8699502,38.4255124 60.8848756,37.0394428 L60.9049751,35.2903881 L57.6229851,36.3562587 L55.2952239,29.1924776 L58.5772139,28.1252139 L57.5338308,26.7226269 C56.7101493,25.6141692 55.7585075,24.6271045 54.7039801,23.7873035 C54.2004975,23.3853134 54.0538308,22.6621294 54.3573134,22.0671045 C54.5569154,21.6754627 54.9161194,21.4018308 55.3453731,21.3124776 C55.5877612,21.2611343 56.060995,21.2348657 56.4978109,21.5986468 C58.3312438,23.1244179 60.8484577,25.9642189 62.4301493,30.8330746 C64.0098507,35.7035224 63.6430846,39.4800398 63.0570149,41.7914826 M74.3680597,26.9548657 C73.298408,23.6615323 69.7451741,21.8561592 66.458209,22.9232239 C64.9664677,23.408 63.7537313,24.4237214 62.9776119,25.7723781 C61.3983085,22.848 59.5626866,20.8858109 58.101194,19.6690945 C57.1895522,18.9108856 56.0020896,18.6157612 54.8355224,18.8543682 C53.6558209,19.0965572 52.6649751,19.8535721 52.1173134,20.927005 C51.2739303,22.5807363 51.7031841,24.6107861 53.1370149,25.7518806 C53.5626866,26.0921791 53.9692537,26.4603383 54.3533333,26.8569552 L52.1286567,27.5789453 L56.0096517,39.5202388 L58.2343284,38.7970547 C58.1565174,39.3457114 58.0446766,39.8818308 57.89801,40.4054129 C57.4080597,42.1733731 58.2546269,44.0679005 59.9093532,44.9088955 C60.4741294,45.1966567 61.0868657,45.3423284 61.7,45.3423284 C62.2520398,45.3423284 62.8056716,45.2243184 63.3268657,44.9892935 C64.4092537,44.4983483 65.1977114,43.5580498 65.4898507,42.4105871 L65.4912438,42.4105871 C65.9585075,40.569791 66.2886567,37.9069055 65.8502488,34.6211343 C66.661393,34.9827264 67.5214925,35.1749652 68.3903483,35.1749652 C69.0444776,35.1749652 69.699801,35.0716816 70.3376119,34.8649154 C71.9334328,34.3463085 73.2305473,33.2374527 73.9913433,31.7447164 C74.7533333,30.249393 74.8876617,28.5482985 74.3680597,26.9548657" id="Fill-10"></path>
                    <path d="M39.8633831,47.8142488 C42.6331343,47.8142488 44.8854726,45.5619104 44.8854726,42.7919602 C44.8854726,40.022607 42.6331343,37.7700697 39.8633831,37.7700697 L34.8412935,37.7700697 C33.4568159,37.7700697 32.3302488,36.6439005 32.3302488,35.2590249 C32.3302488,33.8743483 33.4568159,32.7479801 34.8412935,32.7479801 L39.8633831,32.7479801 C41.2484577,32.7479801 42.3746269,33.8743483 42.3746269,35.2590249 L42.3746269,36.5147463 L44.8854726,36.5147463 L44.8854726,35.2590249 C44.8854726,32.4890746 42.6331343,30.2369353 39.8633831,30.2369353 L38.6080597,30.2369353 L38.6080597,27.7258905 L36.0970149,27.7258905 L36.0970149,30.2369353 L34.8412935,30.2369353 C32.0715423,30.2369353 29.819204,32.4890746 29.819204,35.2590249 C29.819204,38.0285771 32.0715423,40.2811144 34.8412935,40.2811144 L39.8633831,40.2811144 C41.2484577,40.2811144 42.3746269,41.4072836 42.3746269,42.7919602 C42.3746269,44.1772338 41.2484577,45.303204 39.8633831,45.303204 L34.8412935,45.303204 C33.4568159,45.303204 32.3302488,44.1772338 32.3302488,42.7919602 L32.3302488,41.5368358 L29.819204,41.5368358 L29.819204,42.7919602 C29.819204,45.5619104 32.0715423,47.8142488 34.8412935,47.8142488 L36.0970149,47.8142488 L36.0970149,50.3252935 L38.6080597,50.3252935 L38.6080597,47.8142488 L39.8633831,47.8142488 Z" id="Fill-12"></path>
                </g>
            </g>
        </g>
    </g>
</svg>