<?xml version="1.0" encoding="UTF-8" standalone="no"?>
<svg width="80px" height="80px" viewBox="0 0 80 80" version="1.1" xmlns="http://www.w3.org/2000/svg" xmlns:xlink="http://www.w3.org/1999/xlink">
    <!-- Generator: Sketch 49.3 (51167) - http://www.bohemiancoding.com/sketch -->
    <title>Page 1</title>
    <desc>Created with Sketch.</desc>
    <defs></defs>
    <g id="Page-1" stroke="none" stroke-width="1" fill="none" fill-rule="evenodd">
        <g id="Customers" transform="translate(-941.000000, -2715.000000)">
            <g id="Page-1" transform="translate(941.000000, 2715.000000)">
                <polygon id="Fill-1" fill="#FFFFFF" points="0 79.9838806 79.9838806 79.9838806 79.9838806 0 0 0"></polygon>
                <g id="Group-11" transform="translate(10.149254, 9.934129)" fill="#554D85">
                    <path d="M12.1783085,50.4125373 L30.2975124,50.4125373 L30.2975124,32.2933333 L12.1783085,32.2933333 L12.1783085,50.4125373 Z M29.2909453,60.479005 C28.7353234,60.479005 28.2843781,60.0282587 28.2843781,59.4724378 C28.2843781,58.9166169 28.7353234,58.4656716 29.2909453,58.4656716 C29.8465672,58.4656716 30.2975124,58.9166169 30.2975124,59.4724378 C30.2975124,60.0282587 29.8465672,60.479005 29.2909453,60.479005 Z M21.23801,60.479005 C20.6823881,60.479005 20.2312438,60.0282587 20.2312438,59.4724378 C20.2312438,58.9166169 20.6823881,58.4656716 21.23801,58.4656716 C21.7936318,58.4656716 22.2443781,58.9166169 22.2443781,59.4724378 C22.2443781,60.0282587 21.7936318,60.479005 21.23801,60.479005 Z M13.1850746,60.479005 C12.6292537,60.479005 12.1783085,60.0282587 12.1783085,59.4724378 C12.1783085,58.9166169 12.6292537,58.4656716 13.1850746,58.4656716 C13.7404975,58.4656716 14.1916418,58.9166169 14.1916418,59.4724378 C14.1916418,60.0282587 13.7404975,60.479005 13.1850746,60.479005 Z M13.1850746,22.2270647 C13.7404975,22.2270647 14.1916418,22.679204 14.1916418,23.2340299 C14.1916418,23.7886567 13.7404975,24.240398 13.1850746,24.240398 C12.6292537,24.240398 12.1783085,23.7886567 12.1783085,23.2340299 C12.1783085,22.679204 12.6292537,22.2270647 13.1850746,22.2270647 Z M21.23801,22.2270647 C21.7936318,22.2270647 22.2443781,22.679204 22.2443781,23.2340299 C22.2443781,23.7886567 21.7936318,24.240398 21.23801,24.240398 C20.6823881,24.240398 20.2312438,23.7886567 20.2312438,23.2340299 C20.2312438,22.679204 20.6823881,22.2270647 21.23801,22.2270647 Z M29.2909453,22.2270647 C29.8465672,22.2270647 30.2975124,22.679204 30.2975124,23.2340299 C30.2975124,23.7886567 29.8465672,24.240398 29.2909453,24.240398 C28.7353234,24.240398 28.2843781,23.7886567 28.2843781,23.2340299 C28.2843781,22.679204 28.7353234,22.2270647 29.2909453,22.2270647 Z M3.11880597,50.4125373 C2.56298507,50.4125373 2.1120398,49.961791 2.1120398,49.4061692 C2.1120398,48.8505473 2.56298507,48.399403 3.11880597,48.399403 C3.67442786,48.399403 4.12517413,48.8505473 4.12517413,49.4061692 C4.12517413,49.961791 3.67442786,50.4125373 3.11880597,50.4125373 Z M3.11880597,42.359801 C2.56298507,42.359801 2.1120398,41.9086567 2.1120398,41.3532338 C2.1120398,40.7974129 2.56298507,40.3464677 3.11880597,40.3464677 C3.67442786,40.3464677 4.12517413,40.7974129 4.12517413,41.3532338 C4.12517413,41.9086567 3.67442786,42.359801 3.11880597,42.359801 Z M3.11880597,34.3068657 C2.56298507,34.3068657 2.1120398,33.8559204 2.1120398,33.3000995 C2.1120398,32.7442786 2.56298507,32.2933333 3.11880597,32.2933333 C3.67442786,32.2933333 4.12517413,32.7442786 4.12517413,33.3000995 C4.12517413,33.8559204 3.67442786,34.3068657 3.11880597,34.3068657 Z M39.3572139,32.2933333 C39.9128358,32.2933333 40.3639801,32.7442786 40.3639801,33.3000995 C40.3639801,33.8559204 39.9128358,34.3068657 39.3572139,34.3068657 C38.801592,34.3068657 38.3506468,33.8559204 38.3506468,33.3000995 C38.3506468,32.7442786 38.801592,32.2933333 39.3572139,32.2933333 Z M39.3572139,40.3464677 C39.9128358,40.3464677 40.3639801,40.7974129 40.3639801,41.3532338 C40.3639801,41.9086567 39.9128358,42.359801 39.3572139,42.359801 C38.801592,42.359801 38.3506468,41.9086567 38.3506468,41.3532338 C38.3506468,40.7974129 38.801592,40.3464677 39.3572139,40.3464677 Z M39.3572139,48.399403 C39.9128358,48.399403 40.3639801,48.8505473 40.3639801,49.4061692 C40.3639801,49.961791 39.9128358,50.4125373 39.3572139,50.4125373 C38.801592,50.4125373 38.3506468,49.961791 38.3506468,49.4061692 C38.3506468,48.8505473 38.801592,48.399403 39.3572139,48.399403 Z M39.3572139,52.4258706 C41.0222886,52.4258706 42.3771144,51.0710448 42.3771144,49.4061692 C42.3771144,47.7410945 41.0222886,46.3862687 39.3572139,46.3862687 C38.0465672,46.3862687 36.9393035,47.2308458 36.5223881,48.399403 L32.3108458,48.399403 L32.3108458,42.359801 L36.5223881,42.359801 C36.9393035,43.5283582 38.0465672,44.3731343 39.3572139,44.3731343 C41.0222886,44.3731343 42.3771144,43.0181095 42.3771144,41.3532338 C42.3771144,39.6881592 41.0222886,38.3331343 39.3572139,38.3331343 C38.0465672,38.3331343 36.9393035,39.1777114 36.5223881,40.3464677 L32.3108458,40.3464677 L32.3108458,34.3068657 L36.5223881,34.3068657 C36.9393035,35.4754229 38.0465672,36.32 39.3572139,36.32 C41.0222886,36.32 42.3771144,34.9649751 42.3771144,33.3000995 C42.3771144,31.6352239 41.0222886,30.280199 39.3572139,30.280199 C38.0465672,30.280199 36.9393035,31.1247761 36.5223881,32.2933333 L32.3108458,32.2933333 L32.3108458,30.280199 L30.2975124,30.280199 L30.2975124,26.0684577 C31.4662687,25.6517413 32.3108458,24.5446766 32.3108458,23.2340299 C32.3108458,21.5689552 30.9560199,20.2139303 29.2909453,20.2139303 C27.6260697,20.2139303 26.2712438,21.5689552 26.2712438,23.2340299 C26.2712438,24.5446766 27.1156219,25.6517413 28.2843781,26.0684577 L28.2843781,30.280199 L22.2443781,30.280199 L22.2443781,26.0684577 C23.4131343,25.6517413 24.2579104,24.5446766 24.2579104,23.2340299 C24.2579104,21.5689552 22.9030846,20.2139303 21.23801,20.2139303 C19.5729353,20.2139303 18.2181095,21.5689552 18.2181095,23.2340299 C18.2181095,24.5446766 19.0626866,25.6517413 20.2312438,26.0684577 L20.2312438,30.280199 L14.1916418,30.280199 L14.1916418,26.0684577 C15.360398,25.6517413 16.2049751,24.5446766 16.2049751,23.2340299 C16.2049751,21.5689552 14.8499502,20.2139303 13.1850746,20.2139303 C11.520199,20.2139303 10.1651741,21.5689552 10.1651741,23.2340299 C10.1651741,24.5446766 11.0095522,25.6517413 12.1783085,26.0684577 L12.1783085,30.280199 L10.1651741,30.280199 L10.1651741,32.2933333 L5.95343284,32.2933333 C5.53671642,31.1247761 4.42945274,30.280199 3.11880597,30.280199 C1.45393035,30.280199 0.0989054726,31.6352239 0.0989054726,33.3000995 C0.0989054726,34.9649751 1.45393035,36.32 3.11880597,36.32 C4.42945274,36.32 5.53671642,35.4754229 5.95343284,34.3068657 L10.1651741,34.3068657 L10.1651741,40.3464677 L5.95343284,40.3464677 C5.53671642,39.1777114 4.42945274,38.3331343 3.11880597,38.3331343 C1.45393035,38.3331343 0.0989054726,39.6881592 0.0989054726,41.3532338 C0.0989054726,43.0181095 1.45393035,44.3731343 3.11880597,44.3731343 C4.42945274,44.3731343 5.53671642,43.5283582 5.95343284,42.359801 L10.1651741,42.359801 L10.1651741,48.399403 L5.95343284,48.399403 C5.53671642,47.2308458 4.42945274,46.3862687 3.11880597,46.3862687 C1.45393035,46.3862687 0.0989054726,47.7410945 0.0989054726,49.4061692 C0.0989054726,51.0710448 1.45393035,52.4258706 3.11880597,52.4258706 C4.42945274,52.4258706 5.53671642,51.5814925 5.95343284,50.4125373 L10.1651741,50.4125373 L10.1651741,52.4258706 L12.1783085,52.4258706 L12.1783085,56.6376119 C11.0095522,57.0543284 10.1651741,58.161791 10.1651741,59.4724378 C10.1651741,61.1373134 11.520199,62.4921393 13.1850746,62.4921393 C14.8499502,62.4921393 16.2049751,61.1373134 16.2049751,59.4724378 C16.2049751,58.161791 15.360398,57.0543284 14.1916418,56.6376119 L14.1916418,52.4258706 L20.2312438,52.4258706 L20.2312438,56.6376119 C19.0626866,57.0543284 18.2181095,58.161791 18.2181095,59.4724378 C18.2181095,61.1373134 19.5729353,62.4921393 21.23801,62.4921393 C22.9030846,62.4921393 24.2579104,61.1373134 24.2579104,59.4724378 C24.2579104,58.161791 23.4131343,57.0543284 22.2443781,56.6376119 L22.2443781,52.4258706 L28.2843781,52.4258706 L28.2843781,56.6376119 C27.1156219,57.0543284 26.2712438,58.161791 26.2712438,59.4724378 C26.2712438,61.1373134 27.6260697,62.4921393 29.2909453,62.4921393 C30.9560199,62.4921393 32.3108458,61.1373134 32.3108458,59.4724378 C32.3108458,58.161791 31.4662687,57.0543284 30.2975124,56.6376119 L30.2975124,52.4258706 L32.3108458,52.4258706 L32.3108458,50.4125373 L36.5223881,50.4125373 C36.9393035,51.5814925 38.0465672,52.4258706 39.3572139,52.4258706 Z" id="Fill-2"></path>
                    <path d="M57.9745871,16.1866468 L57.9745871,16.1876418 C57.5992637,14.7319204 57.0213532,13.3406766 56.2494129,12.036398 L59.4593632,8.82525373 L53.7648358,3.13172139 L50.5538905,6.34286567 C49.2492139,5.56953234 47.8591642,4.9918209 46.4034428,4.61649751 L46.4034428,0.0815721393 L38.3507065,0.0815721393 L38.3507065,4.61649751 C36.8949851,4.9918209 35.5047363,5.56953234 34.2002587,6.34167164 L30.9891144,3.13072637 L25.2945871,8.82425871 L28.5049353,12.035204 C27.732796,13.3396816 27.1548856,14.7311244 26.7793632,16.1866468 L23.251403,16.1866468 L23.251403,18.1997811 L28.4030448,18.1997811 L28.5674229,17.3934129 C28.9244378,15.6308259 29.6161791,13.9669453 30.6227463,12.4457512 L31.0766766,11.7605771 L28.1405572,8.82425871 L30.9881194,5.97729353 L33.9244378,8.91361194 L34.61001,8.45968159 C36.13001,7.45311443 37.7938905,6.76177114 39.5574726,6.4041592 L40.3640398,6.24117413 L40.3640398,2.09470647 L44.3903085,2.09470647 L44.3903085,6.24117413 L45.1966766,6.40515423 C46.9602587,6.76256716 48.6243383,7.45410945 50.1439403,8.46087562 L50.8297114,8.91480597 L53.7660299,5.97828856 L56.613592,8.82525373 L53.6774726,11.7615721 L54.131403,12.4469453 C55.1377711,13.9681393 55.8295124,15.6318209 56.1869254,17.394408 L56.3511045,18.2007761 L60.4963781,18.2007761 L60.4963781,22.2272438 L56.3511045,22.2272438 L56.1869254,23.0334129 C55.8295124,24.796199 55.1377711,26.4600796 54.131403,27.9800796 L53.6774726,28.6666468 L56.613592,31.6031642 L53.7660299,34.4505274 L50.8297114,31.514408 L50.1439403,31.9685373 C48.6233433,32.9749055 46.9592637,33.6674428 45.1966766,34.0238607 L44.3903085,34.1880398 L44.3903085,39.3398806 L46.4034428,39.3398806 L46.4034428,35.8117214 C47.8579701,35.437194 49.2492139,34.8594826 50.5538905,34.0861493 L53.7648358,37.2964975 L59.4593632,31.6019701 L56.2494129,28.3906269 C57.0213532,27.0863483 57.5992637,25.6951045 57.9745871,24.2395821 L62.5095124,24.2395821 L62.5095124,16.1866468 L57.9745871,16.1866468 Z" id="Fill-4"></path>
                    <path d="M42.3771741,28.2670647 L42.3771741,30.280199 C47.9276219,30.280199 52.4432438,25.7647761 52.4432438,20.2139303 C52.4432438,14.6636816 47.9276219,10.1478607 42.3771741,10.1478607 C36.8263284,10.1478607 32.3109055,14.6636816 32.3109055,20.2139303 L34.3240398,20.2139303 C34.3240398,15.7739303 37.9367761,12.160995 42.3771741,12.160995 C46.8173731,12.160995 50.4301095,15.7739303 50.4301095,20.2139303 C50.4301095,24.6543284 46.8173731,28.2670647 42.3771741,28.2670647" id="Fill-5"></path>
                    <polygon id="Fill-6" points="14.1916418 36.32 28.2841791 36.32 28.2841791 34.3068657 14.1916418 34.3068657"></polygon>
                    <polygon id="Fill-7" points="26.2712438 48.399403 28.2843781 48.399403 28.2843781 46.3862687 26.2712438 46.3862687"></polygon>
                    <polygon id="Fill-8" points="14.1916418 48.399403 24.2577114 48.399403 24.2577114 46.3862687 14.1916418 46.3862687"></polygon>
                    <path d="M37.1435821,59.8933134 L37.5445771,61.8672438 C49.8351244,59.3717214 59.3889552,49.8176915 61.8840796,37.5267463 L59.9103483,37.1263483 C57.578209,48.6238607 48.6410945,57.5607761 37.1435821,59.8933134" id="Fill-9"></path>
                    <path d="M25.4646766,2.67976119 L25.0638806,0.706626866 C12.7731343,3.20214925 3.21950249,12.7559801 0.7239801,25.0471244 L2.69791045,25.4463284 C5.03024876,13.951005 13.9673632,5.01309453 25.4646766,2.67976119" id="Fill-10"></path>
                </g>
            </g>
        </g>
    </g>
</svg>