<?xml version="1.0" encoding="UTF-8" standalone="no"?>
<svg width="80px" height="80px" viewBox="0 0 80 80" version="1.1" xmlns="http://www.w3.org/2000/svg" xmlns:xlink="http://www.w3.org/1999/xlink">
    <!-- Generator: Sketch 49.3 (51167) - http://www.bohemiancoding.com/sketch -->
    <title>Page 1</title>
    <desc>Created with Sketch.</desc>
    <defs></defs>
    <g id="Page-1" stroke="none" stroke-width="1" fill="none" fill-rule="evenodd">
        <g id="Customers" transform="translate(-161.000000, -2855.000000)">
            <g id="Page-1" transform="translate(161.000000, 2855.000000)">
                <polygon id="Fill-1" fill="#FFFFFF" points="0 79.9838806 79.9838806 79.9838806 79.9838806 0 0 0"></polygon>
                <g id="Group-8" transform="translate(8.955224, 8.342090)" fill="#554D85">
                    <path d="M60.2320398,31.1901493 L56.1671642,40.1328358 C55.720398,41.1163184 55.1002985,42.0112438 54.3361194,42.7744279 L47.1397015,49.9710448 L38.5621891,49.9710448 L38.5621891,48.0404975 C38.5307463,46.0550249 39.1717413,44.1171144 40.3812935,42.5421891 C41.0155224,41.6970149 41.881791,41.0544279 42.8746269,40.6930348 C44.9140299,39.8918408 46.8061692,38.7565174 48.4732338,37.3340299 C48.5239801,37.300597 48.5715423,37.2627861 48.6155224,37.220796 C48.9034826,36.9903483 49.1952239,36.7527363 49.4931343,36.501791 C50.4624876,35.6966169 51.8599005,35.6697512 52.8591045,36.4371144 C52.4835821,37.0002985 52.0531343,37.5252736 51.5743284,38.0034826 L46.8358209,42.7421891 C46.5737313,43.0040796 46.4716418,43.3859701 46.5675622,43.7437811 C46.6630846,44.101791 46.9428856,44.381393 47.3006965,44.4773134 C47.6585075,44.5732338 48.040597,44.4707463 48.3026866,44.2090547 L53.040995,39.4703483 C54.1520398,38.3614925 55.040199,37.0496517 55.6571144,35.6064677 L57.9773134,30.1937313 C58.1707463,29.740199 58.6165174,29.4462687 59.1094527,29.4468657 C59.5289552,29.4468657 59.919204,29.66 60.1460697,30.0124378 C60.3731343,30.3648756 60.4053731,30.8082587 60.2320398,31.1901493 Z M36.4879602,60.3437811 L47.8979104,60.3437811 L47.8979104,52.0456716 L36.4879602,52.0456716 L36.4879602,60.3437811 Z M34.7022886,51.0084577 L27.9010945,51.0084577 C27.5337313,50.3686567 26.8531343,49.9734328 26.1152239,49.9710448 L26.1152239,48.0404975 C26.1152239,47.7117413 26.1006965,47.3857711 26.0742289,47.0625871 C26.0951244,46.9965174 26.1088557,46.9286567 26.1152239,46.859403 C26.1152239,46.7973134 26.1482587,40.6028856 28.9912438,37.1457711 C29.2272637,36.859403 29.2929353,36.4689552 29.1623881,36.1212935 C29.0322388,35.7738308 28.7265672,35.5224876 28.360398,35.46199 C27.9944279,35.4012935 27.6240796,35.540597 27.3886567,35.8279602 C25.9532338,37.7358209 24.9866667,39.9543284 24.5661692,42.3049751 C24.3484577,41.9366169 24.1062687,41.5829851 23.841791,41.2464677 C23.5860697,40.9276617 23.3088557,40.6267662 23.0127363,40.3453731 C23.0907463,34.180597 25.5705473,30.9997015 26.8553234,29.7672637 C29.4672637,31.8114428 33.1363184,31.8114428 35.7480597,29.7672637 C37.0332338,30.9997015 39.5126368,34.180597 39.5910448,40.3453731 C39.2945274,40.6267662 39.0173134,40.9280597 38.761592,41.2464677 C38.4971144,41.5829851 38.2549254,41.9364179 38.0372139,42.3049751 C37.6167164,39.9543284 36.6501493,37.7358209 35.2149254,35.8279602 C34.8507463,35.3863682 34.1978109,35.3232836 33.7558209,35.6868657 C33.3138308,36.0502488 33.2497512,36.7031841 33.6123383,37.1457711 C36.4463682,40.5917413 36.4881592,46.7981095 36.4881592,46.860398 C36.4949254,46.9290547 36.5088557,46.9967164 36.5295522,47.0623881 C36.5026866,47.3855721 36.4881592,47.7117413 36.4881592,48.0404975 L36.4881592,49.9710448 C35.7502488,49.9734328 35.0696517,50.3686567 34.7022886,51.0084577 Z M14.7054726,60.3437811 L14.7054726,52.0456716 L26.1152239,52.0456716 L26.1168159,60.3437811 L14.7054726,60.3437811 Z M8.26726368,42.7744279 C7.50308458,42.0112438 6.88278607,41.1163184 6.43621891,40.1328358 L2.37134328,31.1901493 C2.19363184,30.8090547 2.22626866,30.3632836 2.45731343,30.0120398 C2.68159204,29.6566169 3.07343284,29.4426866 3.49353234,29.4464677 C3.98686567,29.4462687 4.43263682,29.740398 4.62646766,30.1943284 L6.94606965,35.6062687 C7.56298507,37.0496517 8.45114428,38.3614925 9.56218905,39.4701493 L14.3006965,44.2086567 C14.5627861,44.4707463 14.9446766,44.5730348 15.3024876,44.4773134 C15.6602985,44.381393 15.9399005,44.101791 16.0358209,43.7437811 C16.1317413,43.3857711 16.0296517,43.0040796 15.7675622,42.7421891 L11.0288557,38.0032836 C10.5526368,37.5276617 10.1245771,37.0062687 9.75064677,36.4464677 C10.7458706,35.6783085 12.1402985,35.700796 13.1098507,36.501393 C13.4079602,36.7521393 13.6995025,36.9899502 13.9872637,37.220199 C14.0316418,37.2625871 14.079602,37.300597 14.1305473,37.3344279 C15.7974129,38.7563184 17.6893532,39.8912438 19.7281592,40.6928358 C20.721393,41.0538308 21.5878607,41.6964179 22.2220896,42.54199 C23.4316418,44.1169154 24.0726368,46.0548259 24.041194,48.0402985 L24.041194,49.9708458 L15.4636816,49.9708458 L8.26726368,42.7744279 Z M18.8981095,14.858209 C21.1548259,16.0410945 23.8495522,16.0357214 26.1014925,14.8438806 C27.1717413,15.4966169 28.1677612,16.2641791 29.0714428,17.1326368 C26.8620896,17.8412935 25.1259701,19.5652736 24.4021891,21.7696517 C23.678209,23.9742289 24.0545274,26.3919403 25.4139303,28.2721393 C23.8863682,29.7256716 21.3852736,32.9879602 20.9864677,38.980398 C20.7872637,38.8906468 20.5904478,38.7937313 20.3842786,38.7246766 C18.6768159,38.0397015 17.0881592,37.0888557 15.6774129,35.9075622 C14.8997015,30.1527363 17.7044776,23.4787065 17.7335323,23.4102488 C17.9566169,22.8844776 17.7122388,22.2773134 17.1874627,22.0522388 C16.6620896,21.8273632 16.0541294,22.0693532 15.8270647,22.5937313 C14.3038806,26.3103483 13.5024876,30.2822886 13.4652736,34.298806 C12.2278607,33.7077612 10.7960199,33.6783085 9.53532338,34.2170149 C9.18149254,21.3467662 16.8730348,16.0299502 18.8981095,14.858209 Z M16.7800995,7.96208955 C16.7800995,4.81104478 19.3341294,2.25701493 22.4847761,2.25701493 C25.6354229,2.25701493 28.1898507,4.81144279 28.1898507,7.96208955 C28.1898507,11.1127363 25.6354229,13.6669652 22.4847761,13.6669652 C19.3357214,13.6633831 16.7836816,11.1113433 16.7800995,7.96208955 Z M31.3016915,18.8532338 C34.1661692,18.8532338 36.4881592,21.1752239 36.4881592,24.0395025 C36.4881592,26.9039801 34.1661692,29.2259701 31.3016915,29.2259701 C28.4374129,29.2259701 26.1152239,26.9039801 26.1152239,24.0395025 C26.118607,21.1768159 28.438806,18.8566169 31.3016915,18.8532338 Z M36.5369154,14.860597 C37.64199,15.4393035 38.8708458,15.741194 40.118408,15.741194 C41.3816915,15.741791 42.6258706,15.4325373 43.7422886,14.8406965 C45.719801,15.9772139 53.4931343,21.2846766 53.1349254,34.2235821 C51.8551244,33.6661692 50.3962189,33.6936318 49.1383085,34.298408 C49.1008955,30.2822886 48.2997015,26.3099502 46.7769154,22.5937313 C46.6310448,22.2522388 46.3144279,22.0150249 45.9458706,21.9706468 C45.5775124,21.9264677 45.2137313,22.0824876 44.9918408,22.38 C44.7699502,22.6769154 44.7233831,23.0701493 44.8702488,23.4110448 C44.8995025,23.4793035 47.7064677,30.14 46.9259701,35.9075622 C45.5152239,37.0888557 43.9265672,38.0397015 42.2187065,38.7246766 C42.0125373,38.7937313 41.8161194,38.8906468 41.6171144,38.980398 C41.2183085,32.9877612 38.7170149,29.7258706 37.1896517,28.2721393 C38.5440796,26.3991045 38.9225871,23.9915423 38.2085572,21.7929353 C37.4945274,19.5943284 35.7735323,17.8689552 33.5769154,17.1491542 C34.4776119,16.2812935 35.4702488,15.5141294 36.5369154,14.860597 Z M34.4135323,7.96208955 C34.4135323,4.81104478 36.9679602,2.25701493 40.118408,2.25701493 C43.2692537,2.25701493 45.8232836,4.81144279 45.8232836,7.96208955 C45.8232836,11.1127363 43.2692537,13.6669652 40.118408,13.6669652 C36.9691542,13.6633831 34.4169154,11.1113433 34.4135323,7.96208955 Z M61.7866667,28.7368159 C61.0879602,27.7732338 59.9249751,27.26 58.7422886,27.3925373 C57.559602,27.5248756 56.5389055,28.2828856 56.0704478,29.3768159 L55.159204,31.5031841 C54.4905473,20.7923383 48.3046766,15.421194 45.5309453,13.538806 C47.8089552,11.3326368 48.520199,7.96447761 47.3285572,5.02557214 C46.1365174,2.08686567 43.28,0.165472637 40.1086567,0.169850746 C36.9371144,0.174029851 34.0857711,2.10258706 32.9016915,5.04467662 C31.7174129,7.98656716 32.4378109,11.3527363 34.72199,13.5529353 C33.4887562,14.3925373 32.3522388,15.3654726 31.3327363,16.4540299 C30.3034826,15.3547264 29.1550249,14.3738308 27.9076617,13.5292537 C30.1830846,11.3187065 30.8887562,7.94875622 29.6909453,5.01124378 C28.4935323,2.07393035 25.6328358,0.157711443 22.4606965,0.167860697 C19.2885572,0.17840796 16.440398,2.11353234 15.2622886,5.05860697 C14.0837811,8.0038806 14.8117413,11.3692537 17.1012935,13.5646766 C14.2969154,15.4787065 8.12457711,20.8886567 7.5038806,31.6416915 L6.53373134,29.3774129 C6.06547264,28.2830846 5.04497512,27.5244776 3.86169154,27.3917413 C2.67880597,27.259204 1.5158209,27.7726368 0.816716418,28.7360199 C0.117412935,29.699602 -0.00975124378,30.9642786 0.48318408,32.0480597 L4.5480597,40.9907463 C5.09711443,42.2010945 5.8600995,43.3023881 6.80059701,44.2412935 L13.1938308,50.6345274 C12.8334328,51.0160199 12.6322388,51.5208955 12.6310448,52.0456716 L12.6310448,60.3437811 C12.6322388,61.4890547 13.560398,62.4172139 14.7056716,62.418408 L26.1154229,62.418408 C27.2606965,62.4172139 28.1888557,61.4890547 28.1898507,60.3437811 L28.1898507,53.0830846 L34.4135323,53.0830846 L34.4135323,60.3437811 C34.4147264,61.4890547 35.3432836,62.4172139 36.4881592,62.418408 L47.8981095,62.418408 C49.0433831,62.4172139 49.9715423,61.4890547 49.9727363,60.3437811 L49.9727363,52.0456716 C49.9715423,51.5208955 49.7705473,51.0160199 49.4099502,50.6345274 L55.8033831,44.2412935 C56.7436816,43.3023881 57.5066667,42.2012935 58.0553234,40.9907463 L62.120398,32.0480597 C62.6131343,30.9646766 62.4855721,29.7 61.7866667,28.7368159 Z" id="Fill-2"></path>
                    <path d="M24.0407363,55.1574129 L23.0037214,55.1574129 C22.4307861,55.1574129 21.9663085,55.6218905 21.9663085,56.1946269 C21.9663085,56.7673632 22.4307861,57.2320398 23.0037214,57.2320398 L24.0407363,57.2320398 C24.6136716,57.2320398 25.0781493,56.7675622 25.0781493,56.1946269 C25.0781493,55.6218905 24.6136716,55.1574129 24.0407363,55.1574129" id="Fill-4"></path>
                    <path d="M38.5626468,57.232 L39.5996617,57.232 C40.172597,57.232 40.6370746,56.7675224 40.6370746,56.1947861 C40.6370746,55.6218507 40.172597,55.1573731 39.5996617,55.1573731 L38.5626468,55.1573731 C37.9897114,55.1573731 37.5252338,55.6220498 37.5252338,56.1947861 C37.5252338,56.7675224 37.9897114,57.232 38.5626468,57.232" id="Fill-6"></path>
                </g>
            </g>
        </g>
    </g>
</svg>