<?xml version="1.0" encoding="UTF-8" standalone="no"?>
<svg width="80px" height="81px" viewBox="0 0 80 81" version="1.1" xmlns="http://www.w3.org/2000/svg" xmlns:xlink="http://www.w3.org/1999/xlink">
    <!-- Generator: Sketch 49.3 (51167) - http://www.bohemiancoding.com/sketch -->
    <title>Page 1</title>
    <desc>Created with Sketch.</desc>
    <defs>
        <polygon id="path-1" points="0 80 79.9838806 80 79.9838806 0.016119403 0 0.016119403"></polygon>
    </defs>
    <g id="Page-1" stroke="none" stroke-width="1" fill="none" fill-rule="evenodd">
        <g id="Customers" transform="translate(-550.000000, -2854.000000)">
            <g id="Page-1" transform="translate(550.000000, 2854.000000)">
                <polygon id="Fill-1" fill="#FFFFFF" points="0 80.1828856 79.9838806 80.1828856 79.9838806 0.199004975 0 0.199004975"></polygon>
                <g id="Group-20" transform="translate(0.000000, 0.182886)">
                    <path d="M28.3257512,27.2796219 C28.3257512,29.4863881 26.5313234,31.2806169 24.3249552,31.2806169 C22.1181891,31.2806169 20.3235622,29.4863881 20.3235622,27.2796219 C20.3235622,25.0726567 22.1181891,23.2784279 24.3249552,23.2784279 C26.5313234,23.2784279 28.3257512,25.0726567 28.3257512,27.2796219 M18.3229652,27.2796219 C18.3229652,30.5894726 21.0147065,33.2812139 24.3249552,33.2812139 C27.634806,33.2812139 30.3267463,30.5894726 30.3267463,27.2796219 C30.3267463,23.9695721 27.634806,21.2778308 24.3249552,21.2778308 C21.0147065,21.2778308 18.3229652,23.9695721 18.3229652,27.2796219" id="Fill-2" fill="#554D85"></path>
                    <path d="M29.8793234,40.3884776 C29.5404179,40.5584279 29.3262886,40.9044975 29.3262886,41.283602 L29.3262886,71.2925572 L25.3250945,71.2925572 L25.3250945,55.2875821 C25.3250945,54.7343483 24.8769353,54.2873831 24.3248955,54.2873831 C23.7724577,54.2873831 23.3244975,54.7343483 23.3244975,55.2875821 L23.3244975,71.2925572 L22.3240995,71.2925572 C20.6697711,71.2925572 19.3233035,69.9456915 19.3233035,68.2913632 L19.3233035,41.283602 C19.3233035,40.8583284 19.0552438,40.4802189 18.6542488,40.3403184 C18.2540498,40.1996219 17.8068856,40.3273831 17.5418109,40.6583284 L13.5406169,45.6597214 C13.3157413,45.9409154 13.2596219,46.322209 13.3925572,46.6561393 L15.0520597,50.803403 L12.905592,51.8768358 L10.4506667,44.5126567 L16.7764378,37.282408 L28.3256915,37.282408 C28.4610149,37.282408 28.5961393,37.2555423 28.7199204,37.2014129 L35.7219104,34.2006169 C35.8150448,34.1606169 35.902408,34.1066866 35.9792239,34.0406169 L42.2783284,28.643005 L43.9165373,30.2804179 L37.7366368,36.4601194 L29.8793234,40.3884776 Z M17.3225075,51.2666866 C17.3225075,51.1484776 17.2976318,51.0306667 17.2518607,50.9144478 L15.4671841,46.4551443 L17.3225075,44.1353433 L17.3225075,51.2666866 Z M39.0363383,37.9894726 L46.0381294,30.9874826 C46.4291741,30.5966368 46.4291741,29.964199 46.0381294,29.5731542 L43.0371343,26.5721592 C42.6671841,26.202209 42.0749453,26.1801194 41.6789254,26.5202189 L34.7929552,32.4221095 L28.1207164,35.2818109 L16.3225075,35.2818109 C16.0333532,35.2818109 15.7605174,35.40599 15.5704677,35.6240995 L8.5678806,43.6262886 C8.33385075,43.8933532 8.25882587,44.2646965 8.3720597,44.6014129 L11.3730547,53.604199 C11.464995,53.8782289 11.6709652,54.1003184 11.9390249,54.2113632 C12.2070846,54.3204179 12.5083781,54.3114627 12.7692736,54.1823085 L16.7706667,52.1817114 C17.1127562,52.0107662 17.3225075,51.6676816 17.3225075,51.3056915 L17.3225075,68.2913632 C17.3225075,71.0491741 19.5664876,73.2931542 22.3240995,73.2931542 L30.3266866,73.2931542 C30.8785274,73.2931542 31.3268856,72.84599 31.3268856,72.2925572 L31.3268856,41.9017114 L38.7762388,38.1767363 C38.8729552,38.1297711 38.9601194,38.0656915 39.0363383,37.9894726 Z" id="Fill-4" fill="#554D85"></path>
                    <polygon id="Fill-6" fill="#554D85" points="22.3241194 41.2836219 23.3245174 41.2836219 23.3245174 49.286209 25.3251144 49.286209 25.3251144 41.2836219 26.3253134 41.2836219 26.3253134 39.2828259 22.3241194 39.2828259"></polygon>
                    <path d="M66.3372537,63.2901891 C64.1302886,63.2901891 62.3360597,61.4953632 62.3360597,59.288995 C62.3360597,57.0824279 64.1302886,55.287602 66.3372537,55.287602 C68.5438209,55.287602 70.3380498,57.0824279 70.3380498,59.288995 C70.3380498,61.4953632 68.5438209,63.2901891 66.3372537,63.2901891 M61.3356617,65.9809353 C60.8906866,65.3104876 60.3153632,64.7355622 59.6451144,64.2903881 C60.3153632,63.8452139 60.8906866,63.2698905 61.3356617,62.5998408 C61.7808358,63.2698905 62.3559602,63.8452139 63.02601,64.2903881 C62.3559602,64.7355622 61.7808358,65.3104876 61.3356617,65.9809353 M51.3328756,65.9809353 C50.8875025,65.3104876 50.3125771,64.7355622 49.6421294,64.2903881 C50.3125771,63.8452139 50.8875025,63.2698905 51.3328756,62.5998408 C51.7776517,63.2698905 52.3529751,63.8452139 53.0232239,64.2903881 C52.3529751,64.7355622 51.7776517,65.3104876 51.3328756,65.9809353 M42.3298905,59.288995 C42.3298905,57.0824279 44.1247164,55.287602 46.3312836,55.287602 C48.5380498,55.287602 50.3324776,57.0824279 50.3324776,59.288995 C50.3324776,61.4953632 48.5380498,63.2901891 46.3312836,63.2901891 C44.1247164,63.2901891 42.3298905,61.4953632 42.3298905,59.288995 M56.3340697,55.287602 C58.5406368,55.287602 60.3352637,57.0824279 60.3352637,59.288995 C60.3352637,61.4953632 58.5406368,63.2901891 56.3340697,63.2901891 C54.1275025,63.2901891 52.3330746,61.4953632 52.3330746,59.288995 C52.3330746,57.0824279 54.1282985,55.287602 56.3340697,55.287602 M72.3388458,59.288995 C72.3388458,55.9789453 69.6471045,53.287204 66.3372537,53.287204 C64.2504876,53.287204 62.4118806,54.3584478 61.3356617,55.9779502 C60.2592438,54.3572537 58.4208358,53.287204 56.3340697,53.287204 C54.2477015,53.287204 52.4088955,54.3584478 51.3328756,55.9779502 C50.2562587,54.3572537 48.4178507,53.287204 46.3312836,53.287204 C43.0212338,53.287204 40.3294925,55.9789453 40.3294925,59.288995 C40.3294925,61.3755622 41.4005373,63.2141692 43.0202388,64.2903881 C41.3995423,65.366607 40.3294925,67.2054129 40.3294925,69.2915821 L40.3294925,73.2931741 L42.3298905,73.2931741 L42.3298905,69.2915821 C42.3298905,67.0852139 44.1247164,65.2905871 46.3312836,65.2905871 C48.5380498,65.2905871 50.3324776,67.0852139 50.3324776,69.2915821 L50.3324776,73.2931741 L52.3330746,73.2931741 L52.3330746,69.2915821 C52.3330746,67.0852139 54.1275025,65.2905871 56.3340697,65.2905871 C58.5406368,65.2905871 60.3352637,67.0852139 60.3352637,69.2915821 L60.3352637,73.2931741 L62.3360597,73.2931741 L62.3360597,69.2915821 C62.3360597,67.0852139 64.1302886,65.2905871 66.3372537,65.2905871 C68.5438209,65.2905871 70.3380498,67.0852139 70.3380498,69.2915821 L70.3380498,73.2931741 L72.3388458,73.2931741 L72.3388458,69.2915821 C72.3388458,67.2054129 71.267403,65.366607 69.6480995,64.2903881 C71.267403,63.2141692 72.3388458,61.3755622 72.3388458,59.288995" id="Fill-8" fill="#554D85"></path>
                    <path d="M71.3386269,9.27412935 L34.3278806,9.27412935 C33.7754428,9.27412935 33.3274826,9.72129353 33.3274826,10.2745274 L33.3274826,29.2799005 L35.3278806,29.2799005 L35.3278806,11.2747264 L70.3382289,11.2747264 L70.3382289,38.2828856 C70.3382289,39.9372139 68.9917612,41.2836816 67.3374328,41.2836816 L36.3282786,41.2836816 L36.3282786,43.2842786 L67.3374328,43.2842786 C70.0950448,43.2842786 72.3388259,41.0406965 72.3388259,38.2828856 L72.3388259,10.2745274 C72.3388259,9.72129353 71.8906667,9.27412935 71.3386269,9.27412935" id="Fill-10" fill="#554D85"></path>
                    <mask id="mask-2" fill="white">
                        <use xlink:href="#path-1"></use>
                    </mask>
                    <g id="Clip-13"></g>
                    <path d="M56.3341294,18.2768159 L64.3363184,18.2768159 L64.3363184,16.2764179 L56.3341294,16.2764179 L56.3341294,18.2768159 Z M56.3341294,27.279602 L64.3363184,27.279602 L64.3363184,25.278607 L56.3341294,25.278607 L56.3341294,27.279602 Z M56.3341294,36.28199 L64.3363184,36.28199 L64.3363184,34.281393 L56.3341294,34.281393 L56.3341294,36.28199 Z M41.3297512,18.2768159 L49.3321393,18.2768159 L49.3321393,16.2764179 L41.3297512,16.2764179 L41.3297512,18.2768159 Z M50.3325373,14.2756219 L40.3293532,14.2756219 C39.7775124,14.2756219 39.3291542,14.7229851 39.3291542,15.2758209 L39.3291542,19.2772139 C39.3291542,19.8302488 39.7775124,20.2776119 40.3293532,20.2776119 L50.3325373,20.2776119 C50.8847761,20.2776119 51.3327363,19.8302488 51.3327363,19.2772139 L51.3327363,18.2768159 L54.3335323,18.2768159 L54.3335323,19.2772139 C54.3335323,19.8302488 54.7816915,20.2776119 55.3341294,20.2776119 L59.3351244,20.2776119 L59.3351244,23.278408 L55.3341294,23.278408 C54.7816915,23.278408 54.3335323,23.7255721 54.3335323,24.278607 L54.3335323,28.279801 C54.3335323,28.8330348 54.7816915,29.28 55.3341294,29.28 L59.3351244,29.28 L59.3351244,32.280796 L55.3341294,32.280796 C54.7816915,32.280796 54.3335323,32.7279602 54.3335323,33.281194 L54.3335323,37.2823881 C54.3335323,37.8356219 54.7816915,38.2827861 55.3341294,38.2827861 L65.3367164,38.2827861 C65.8891542,38.2827861 66.3373134,37.8356219 66.3373134,37.2823881 L66.3373134,33.281194 C66.3373134,32.7279602 65.8891542,32.280796 65.3367164,32.280796 L61.3357214,32.280796 L61.3357214,29.28 L65.3367164,29.28 C65.8891542,29.28 66.3373134,28.8330348 66.3373134,28.279801 L66.3373134,24.278607 C66.3373134,23.7255721 65.8891542,23.278408 65.3367164,23.278408 L61.3357214,23.278408 L61.3357214,20.2776119 L65.3367164,20.2776119 C65.8891542,20.2776119 66.3373134,19.8302488 66.3373134,19.2772139 L66.3373134,15.2758209 C66.3373134,14.7229851 65.8891542,14.2756219 65.3367164,14.2756219 L55.3341294,14.2756219 C54.7816915,14.2756219 54.3335323,14.7229851 54.3335323,15.2758209 L54.3335323,16.2764179 L51.3327363,16.2764179 L51.3327363,15.2758209 C51.3327363,14.7229851 50.8847761,14.2756219 50.3325373,14.2756219 Z" id="Fill-12" fill="#554D85" mask="url(#mask-2)"></path>
                    <polygon id="Fill-14" fill="#554D85" mask="url(#mask-2)" points="40.3293532 24.278607 51.3327363 24.278607 51.3327363 22.2778109 40.3293532 22.2778109"></polygon>
                    <polygon id="Fill-15" fill="#554D85" mask="url(#mask-2)" points="47.3315423 28.28 51.3327363 28.28 51.3327363 26.279403 47.3315423 26.279403"></polygon>
                    <polygon id="Fill-16" fill="#554D85" mask="url(#mask-2)" points="48.3319403 32.280796 51.3327363 32.280796 51.3327363 30.280398 48.3319403 30.280398"></polygon>
                    <polygon id="Fill-17" fill="#554D85" mask="url(#mask-2)" points="45.3309453 36.2821891 51.3327363 36.2821891 51.3327363 34.281592 45.3309453 34.281592"></polygon>
                    <path d="M11.3209353,12.2749453 C11.3209353,11.7231045 11.7702886,11.2747463 12.3213333,11.2747463 L23.3245174,11.2747463 C23.8757612,11.2747463 24.3249154,11.7231045 24.3249154,12.2749453 L24.3249154,16.2763383 C24.3249154,16.8285771 23.8757612,17.2767363 23.3245174,17.2767363 L16.3225274,17.2767363 C15.7700896,17.2767363 15.3219303,17.7237015 15.3219303,18.2767363 L15.3219303,19.2773333 L14.1217313,17.6767363 C13.9326766,17.424597 13.6367562,17.2767363 13.3215323,17.2767363 L12.3213333,17.2767363 C11.7702886,17.2767363 11.3209353,16.8285771 11.3209353,16.2763383 L11.3209353,12.2749453 Z M12.3213333,19.2773333 L12.8214328,19.2773333 L15.5221294,22.8781294 C15.7153632,23.1342488 16.0134726,23.2783284 16.3225274,23.2783284 C16.427403,23.2783284 16.5344677,23.2612139 16.6385473,23.22599 C17.0477015,23.0902687 17.3225274,22.7091741 17.3225274,22.2779303 L17.3225274,19.2773333 L23.3245174,19.2773333 C24.9790448,19.2773333 26.3253134,17.9308657 26.3253134,16.2763383 L26.3253134,12.2749453 C26.3253134,10.6206169 24.9790448,9.27414925 23.3245174,9.27414925 L12.3213333,9.27414925 C10.666806,9.27414925 9.32033831,10.6206169 9.32033831,12.2749453 L9.32033831,16.2763383 C9.32033831,17.9308657 10.666806,19.2773333 12.3213333,19.2773333 Z" id="Fill-18" fill="#554D85" mask="url(#mask-2)"></path>
                    <polygon id="Fill-19" fill="#554D85" mask="url(#mask-2)" points="13.321393 15.2758209 22.3239801 15.2758209 22.3239801 13.2754229 13.321393 13.2754229"></polygon>
                </g>
            </g>
        </g>
    </g>
</svg>