<?xml version="1.0" encoding="UTF-8" standalone="no"?>
<svg width="80px" height="80px" viewBox="0 0 80 80" version="1.1" xmlns="http://www.w3.org/2000/svg" xmlns:xlink="http://www.w3.org/1999/xlink">
    <!-- Generator: Sketch 49.3 (51167) - http://www.bohemiancoding.com/sketch -->
    <title>Page 1</title>
    <desc>Created with Sketch.</desc>
    <defs></defs>
    <g id="Page-1" stroke="none" stroke-width="1" fill="none" fill-rule="evenodd">
        <g id="Customers" transform="translate(-941.000000, -2855.000000)">
            <g id="Page-1" transform="translate(941.000000, 2855.000000)">
                <polygon id="Fill-1" fill="#FFFFFF" points="0 79.9838806 79.9838806 79.9838806 79.9838806 0 0 0"></polygon>
                <path d="M65.6967164,66.7632637 L60.3166169,66.7632637 L55.4431841,66.7632637 L54.4266667,66.7632637 L53.5739303,66.7632637 L53.3110448,66.7632637 L53.3110448,63.4458507 C53.3110448,62.2024677 53.0366169,61.1582886 52.6165174,60.295403 L54.840597,59.4243582 L56.7494527,61.2836617 C56.9277612,61.457194 57.1661692,61.5543085 57.4143284,61.5543085 C57.4191045,61.5543085 57.4242786,61.5543085 57.4292537,61.5541095 C57.6825871,61.5501294 57.9239801,61.4450547 58.0999005,61.2623682 L59.9036816,59.3911244 L63.4885572,60.8287363 C63.5050746,60.8355025 63.5144279,60.8388856 63.5317413,60.8450547 C63.6200995,60.8762985 65.6969154,61.6460498 65.6969154,64.3019701 L65.6969154,66.7632637 L65.6967164,66.7632637 Z M52.0328358,50.8870448 L52.0328358,52.2128159 C51.8147264,52.0723184 51.6698507,51.8277413 51.6698507,51.5501294 C51.6698507,51.2719204 51.8149254,51.0275423 52.0328358,50.8870448 Z M51.5072637,58.6838607 C50.7170149,57.8390846 49.8248756,57.3262488 49.1797015,57.1033632 L44.2527363,55.1274428 L44.2527363,54.1503284 C45.6043781,53.3986866 46.6338308,52.136796 47.080796,50.6265473 C48.7669652,50.5799801 50.1241791,49.1951045 50.1241791,47.4983881 C50.1241791,46.4814726 49.6364179,45.576597 48.8829851,45.0044577 L48.8829851,42.7716219 C48.8829851,41.5863483 48.6157214,40.4629652 48.1400995,39.456199 L56.6218905,39.456199 C56.6095522,40.1007761 56.5844776,40.7445572 56.5474627,41.3831642 C53.3064677,41.7047562 50.7667662,44.4462488 50.7667662,47.7704279 L50.7667662,49.456 C50.1558209,49.9505274 49.7641791,50.7049552 49.7641791,51.5499303 C49.7641791,52.97401 50.8758209,54.1401791 52.2764179,54.2347065 C52.6555224,55.3968955 53.4527363,56.3708259 54.4901493,56.9791841 L54.4901493,57.5157015 L51.5072637,58.6838607 Z M41.3653731,52.9941095 L40.278607,52.9941095 C38.04199,52.9941095 36.2224876,51.174607 36.2224876,48.937791 L36.2224876,45.574806 C37.7424876,45.4349055 40.7486567,44.9061493 42.9444776,42.935204 C43.4081592,43.8122189 44.1846766,44.8303284 45.4214925,45.3584876 L45.4214925,48.937791 C45.4210945,51.174607 43.601592,52.9941095 41.3653731,52.9941095 Z M42.3480597,55.7869453 L42.3480597,55.7903284 L42.3480597,55.8480398 L40.7870647,57.4677413 L39.2959204,56.015204 L39.2959204,54.816597 C39.6157214,54.8697313 39.9438806,54.8989851 40.278607,54.8989851 L41.3653731,54.8989851 C41.7000995,54.8989851 42.0278607,54.8697313 42.3480597,54.816995 L42.3480597,55.7869453 Z M29.5844776,52.1919204 L29.5844776,50.9077413 C29.7848756,51.0512239 29.9166169,51.2850547 29.9166169,51.5499303 C29.9166169,51.814806 29.7848756,52.0490348 29.5844776,52.1919204 Z M37.3908458,55.1220697 L32.3347264,57.1021692 C31.6909453,57.3234627 30.800199,57.8347065 30.0095522,58.6772935 L27.1267662,57.5212736 L27.1267662,56.9791841 C28.1643781,56.3708259 28.96199,55.3959005 29.3408955,54.2329154 C30.7269652,54.1232637 31.8216915,52.9630647 31.8216915,51.5499303 C31.8216915,50.7091343 31.4340299,49.9580896 30.8288557,49.4633632 L30.8288557,47.7704279 C30.8288557,44.4100299 28.2332338,41.6462488 24.9418905,41.374607 C24.9054726,40.7391841 24.880398,40.0981891 24.8684577,39.456199 L33.4772139,39.456199 C33.001592,40.4629652 32.7341294,41.5861493 32.7341294,42.7714229 L32.7341294,44.9941095 C31.9735323,45.5658507 31.480398,46.4757015 31.480398,47.4981891 C31.480398,49.2080398 32.8585075,50.6012736 34.5623881,50.6275423 C35.0095522,52.137592 36.039204,53.3988856 37.3906468,54.1503284 L37.3906468,55.1220697 L37.3908458,55.1220697 Z M28.200199,63.4458507 L28.200199,66.7632637 L27.0837811,66.7632637 L22.2099502,66.7632637 L21.1942289,66.7632637 L20.3412935,66.7632637 L15.8145274,66.7632637 L15.8145274,64.3017711 C15.8145274,61.6458507 17.8903483,60.8762985 17.9713433,60.8476418 C17.9860697,60.8426667 18.000597,60.8374925 18.0151244,60.8315224 L21.6079602,59.4245572 L23.5172139,61.2840597 C23.6949254,61.457393 23.9335323,61.5543085 24.1816915,61.5543085 C24.1864677,61.5543085 24.1916418,61.5543085 24.1968159,61.5541095 C24.4501493,61.5501294 24.6917413,61.4450547 24.8676617,61.2623682 L26.6708458,59.3911244 L28.8999005,60.2848557 C28.4772139,61.1497313 28.200199,62.1976915 28.200199,63.4458507 Z M18.800398,50.8870448 L18.800398,52.2128159 C18.5822886,52.0723184 18.4372139,51.8277413 18.4372139,51.5501294 C18.4372139,51.2719204 18.5822886,51.0275423 18.800398,50.8870448 Z M12.5034826,39.456199 L22.9629851,39.456199 C22.9747264,40.1123184 23,40.7676418 23.0362189,41.417791 C19.9299502,41.8643582 17.5347264,44.5423682 17.5347264,47.7704279 L17.5347264,49.456 C16.9237811,49.9505274 16.5321393,50.7049552 16.5321393,51.5499303 C16.5321393,52.9736119 17.6435821,54.1399801 19.0441791,54.2347065 C19.4232836,55.3966965 20.2202985,56.3708259 21.2579104,56.9791841 L21.2579104,57.5155025 L20.2173134,57.9230647 C15.4497512,52.8856517 12.7325373,46.3662488 12.5034826,39.456199 Z M27.07801,46.2731144 C26.9952239,45.9083383 26.7066667,45.6253532 26.3395025,45.5505274 C25.9731343,45.4753035 25.5964179,45.6221692 25.3771144,45.9254527 C23.6509453,48.3113234 19.8025871,48.337592 19.7562189,48.337592 L19.7530348,48.337592 C19.720199,48.337592 19.6877612,48.3391841 19.6559204,48.3423682 C19.6457711,48.3433632 19.6360199,48.3455522 19.6260697,48.3469453 C19.6045771,48.3499303 19.5824876,48.3523184 19.561393,48.3568955 C19.5480597,48.3594826 19.5347264,48.3638607 19.520995,48.3672438 C19.5040796,48.3714229 19.4867662,48.375204 19.4704478,48.3801791 C19.4599005,48.3835622 19.4503483,48.3879403 19.440398,48.3915224 L19.440398,47.7706269 C19.440398,45.2812736 21.4652736,43.256199 23.9546269,43.256199 L24.4101493,43.256199 C26.8995025,43.256199 28.9243781,45.2812736 28.9243781,47.7706269 L28.9243781,48.3837612 L28.9239801,48.3837612 C28.9056716,48.377592 28.8865672,48.3732139 28.8682587,48.3680398 C28.8599005,48.3662488 28.8517413,48.3634627 28.8431841,48.3612736 C27.5154229,48.0593831 27.080995,46.2864478 27.07801,46.2731144 Z M24.6270647,55.7535124 L23.75801,55.7535124 C22.0748259,55.7535124 20.7056716,54.3841592 20.7056716,52.7009751 L20.7056716,50.1817711 C21.9460697,50.0474428 24.1432836,49.6130149 25.8376119,48.1980896 C26.2169154,48.8486368 26.8037811,49.5525174 27.679204,49.9632637 L27.679204,52.7011741 C27.679204,54.3841592 26.3098507,55.7535124 24.6270647,55.7535124 Z M23.1629851,57.6213731 C23.358209,57.6452537 23.5566169,57.6583881 23.75801,57.6583881 L24.6270647,57.6583881 C24.8284577,57.6583881 25.0264677,57.6452537 25.2216915,57.6213731 L25.2216915,58.1495323 L24.160398,59.2508259 L23.1629851,58.2794826 L23.1629851,57.6213731 Z M17.0248756,23.1604776 C19.1713433,24.0378905 21.7828856,24.7781891 24.7088557,25.3592836 C23.639801,29.1262488 23.040398,33.2627662 22.9629851,37.5513234 L12.5036816,37.5513234 C12.679801,32.2599801 14.3170149,27.3326169 17.0248756,23.1604776 Z M32.9464677,11.3393831 C31.1297512,12.8313234 29.4626866,14.857194 28.0129353,17.3722189 C26.9355224,19.2408756 26.0189055,21.3119204 25.2732338,23.5336119 C22.5749254,23.0070448 20.158607,22.3411741 18.1458706,21.5562985 C21.7942289,16.7033632 26.9671642,13.0587861 32.9464677,11.3393831 Z M39.7926368,10.297194 L39.7926368,24.9107264 C35.3279602,24.8655522 31.0145274,24.5023682 27.1677612,23.8723184 C27.8563184,21.8737114 28.6911443,20.0102289 29.6634826,18.3234627 C32.4354229,13.5147065 36.00199,10.7019701 39.7926368,10.297194 Z M34.3172139,46.3103284 L34.3172139,48.6864478 C33.7832836,48.5543085 33.3858706,48.0725174 33.3858706,47.4981891 C33.3856716,46.9242587 33.7832836,46.4424677 34.3172139,46.3103284 Z M24.8684577,37.5513234 C24.9464677,33.3688358 25.5369154,29.3461493 26.5888557,25.7035622 C30.6135323,26.3797811 35.1291542,26.7694328 39.7926368,26.816398 L39.7926368,35.017592 C37.7960199,35.2044577 36.0159204,36.1473433 34.7426866,37.5576915 C34.7078607,37.5539104 34.6726368,37.5513234 34.6370149,37.5513234 L24.8684577,37.5513234 Z M41.0937313,36.8872438 C44.3387065,36.8872438 46.9777114,39.5272438 46.9777114,42.7718209 L46.9777114,43.935801 C46.9717413,43.9308259 46.9649751,43.9262488 46.958408,43.9212736 C46.9446766,43.9105274 46.9305473,43.8997811 46.9162189,43.8900299 C46.9050746,43.8818706 46.8935323,43.8749055 46.88199,43.8675423 C46.8678607,43.8585871 46.8533333,43.8494328 46.838607,43.8412736 C46.8250746,43.8337114 46.8111443,43.8269453 46.7972139,43.8199801 C46.7838806,43.8136119 46.7705473,43.8068458 46.7570149,43.8002786 C46.7402985,43.7929154 46.7227861,43.7871443 46.7056716,43.7803781 C46.6939303,43.775801 46.6821891,43.7714229 46.6702488,43.7674428 C46.6509453,43.7610746 46.6310448,43.7560995 46.6115423,43.7509254 C46.6027861,43.7485373 46.5942289,43.7455522 46.5852736,43.7433632 C44.7755224,43.3318209 44.2025871,40.9726169 44.1976119,40.9521194 C44.1150249,40.5869453 43.8262687,40.3041592 43.4593035,40.2293333 C43.0927363,40.1539104 42.7162189,40.3007761 42.4967164,40.6042587 C40.2660697,43.6880398 35.3385075,43.7196816 35.2736318,43.7196816 L35.2734328,43.7196816 L35.2698507,43.7196816 C35.2370149,43.7196816 35.2045771,43.7214726 35.1727363,43.7244577 C35.1623881,43.7256517 35.1530348,43.7276418 35.1428856,43.7292338 C35.121393,43.7320199 35.0995025,43.734607 35.078408,43.7389851 C35.0646766,43.7415721 35.0515423,43.7459502 35.0378109,43.7491343 C35.0208955,43.7535124 35.0037811,43.7574925 34.9872637,43.7624677 C34.9715423,43.7668458 34.9570149,43.7734129 34.9418905,43.7789851 C34.9281592,43.7837612 34.9136318,43.7885373 34.8999005,43.7941095 C34.8823881,43.8014726 34.8660697,43.8102289 34.8493532,43.8181891 C34.838408,43.8237612 34.8276617,43.8283383 34.8171144,43.8341095 C34.799801,43.8432637 34.7836816,43.85401 34.7671642,43.8639602 C34.7576119,43.8699303 34.7478607,43.8753035 34.7387065,43.8816716 C34.7229851,43.8918209 34.7086567,43.9035622 34.6939303,43.9149055 C34.6841791,43.9220697 34.6744279,43.9286368 34.6650746,43.936398 C34.6561194,43.9433632 34.6481592,43.9515224 34.639602,43.9590846 L34.639602,42.7716219 C34.639602,39.5270448 37.279403,36.8872438 40.5239801,36.8872438 L41.0937313,36.8872438 Z M41.6977114,10.297194 C45.4885572,10.7019701 49.0551244,13.5147065 51.8272637,18.3234627 C52.799801,20.0110249 53.6354229,21.8753035 54.3239801,23.8749055 C50.4833831,24.5037612 46.1733333,24.8659502 41.6977114,24.9107264 L41.6977114,10.297194 Z M48.2193035,47.4981891 C48.2193035,48.0585871 47.840796,48.5310249 47.3261692,48.6762985 L47.3261692,46.3198806 C47.840796,46.4657512 48.2193035,46.9381891 48.2193035,47.4981891 Z M56.6220896,37.5513234 L46.8728358,37.5513234 L46.8698507,37.5513234 C45.5701493,36.1147065 43.7434826,35.1658507 41.6977114,35.0078408 L41.6977114,26.816199 C46.3723383,26.7696318 50.8831841,26.3809751 54.9022886,25.7055522 C55.9538308,29.3477413 56.5440796,33.3696318 56.6220896,37.5513234 Z M64.4742289,23.1562985 C67.2336318,27.4185871 68.8135323,32.3811741 68.9868657,37.5511244 L58.5275622,37.5511244 C58.4503483,33.2633632 57.8511443,29.1280398 56.7824876,25.3616716 C59.7112438,24.7799801 62.3225871,24.0366965 64.4742289,23.1562985 Z M62.8167164,52.1919204 L62.8167164,50.9081393 C63.0173134,51.0512239 63.1486567,51.2856517 63.1486567,51.5501294 C63.1486567,51.814806 63.0173134,52.0486368 62.8167164,52.1919204 Z M52.9884577,48.337393 L52.9854726,48.337393 C52.9526368,48.337393 52.92,48.3391841 52.8881592,48.3423682 C52.8778109,48.3431642 52.8678607,48.3455522 52.8575124,48.3469453 C52.8360199,48.3499303 52.8145274,48.3523184 52.7936318,48.3568955 C52.7793035,48.3594826 52.7655721,48.3640597 52.7514428,48.3676418 C52.7349254,48.3718209 52.718408,48.375204 52.7026866,48.3801791 C52.6921393,48.3835622 52.6825871,48.3879403 52.6722388,48.3915224 L52.6722388,47.7706269 C52.6722388,45.2812736 54.6975124,43.256199 57.1866667,43.256199 L57.6421891,43.256199 C60.1313433,43.256199 62.1562189,45.2812736 62.1562189,47.7706269 L62.1562189,48.3837612 C62.1383085,48.377592 62.12,48.3732139 62.1018905,48.3686368 C62.0931343,48.3662488 62.0843781,48.3634627 62.0756219,48.3612736 C60.7474627,48.0593831 60.3130348,46.2868458 60.3100498,46.2733134 C60.2274627,45.9085373 59.9385075,45.6255522 59.5717413,45.5505274 C59.2049751,45.4753035 58.8286567,45.6221692 58.6089552,45.9256517 C56.8841791,48.3099303 53.039005,48.337393 52.9884577,48.337393 Z M58.4541294,57.6213731 L58.4541294,58.1495323 L57.3928358,59.2508259 L56.3956219,58.2794826 L56.3956219,57.6213731 C56.5908458,57.6446567 56.7890547,57.6583881 56.9906468,57.6583881 L57.8593035,57.6583881 C58.0608955,57.6583881 58.2589055,57.6448557 58.4541294,57.6213731 Z M57.8593035,55.7535124 L56.9904478,55.7535124 C55.3074627,55.7535124 53.9381095,54.3841592 53.9381095,52.7011741 L53.9381095,50.1807761 C55.1787065,50.0460498 57.3769154,49.6122189 59.0698507,48.1980896 C59.4493532,48.8486368 60.0366169,49.5523184 60.9118408,49.9630647 L60.9118408,52.7009751 C60.9116418,54.3841592 59.5422886,55.7535124 57.8593035,55.7535124 Z M61.2983085,57.897791 L60.359204,57.5212736 L60.359204,56.9791841 C61.3970149,56.3706269 62.1946269,55.3959005 62.5737313,54.2329154 C63.959403,54.1232637 65.0539303,52.9630647 65.0539303,51.5499303 C65.0539303,50.7091343 64.6664677,49.9580896 64.0614925,49.4633632 L64.0614925,47.7704279 C64.0614925,44.5061493 61.6119403,41.8052537 58.4551244,41.4042587 C58.4909453,40.7584876 58.5158209,40.1079403 58.5279602,39.456199 L68.9872637,39.456199 C68.758209,46.3515224 66.0497512,52.8643582 61.2983085,57.897791 Z M64.1804975,59.0536119 L63.1892537,58.656 C68.1739303,53.1111244 70.9098507,45.9889353 70.9098507,38.5037612 C70.9098507,32.3801791 69.0585075,26.4876418 65.6853731,21.534607 C65.6445771,21.45401 65.5938308,21.3815721 65.5351244,21.3184876 C64.0573134,19.1887363 62.2983085,17.2351045 60.279403,15.5178905 C59.878806,15.176995 59.2776119,15.2257512 58.9367164,15.6263483 C58.5958209,16.0273433 58.6443781,16.6283383 59.0449751,16.9692338 C60.6644776,18.3467463 62.1060697,19.8864478 63.3564179,21.5529154 C61.3400995,22.3411741 58.919801,23.0084378 56.2177114,23.535801 C55.4720398,21.3135124 54.5554229,19.2414726 53.4776119,17.3722189 C52.0252736,14.8524179 50.3542289,12.8233632 48.5337313,11.3310249 C51.3675622,12.1409751 54.0672637,13.3964975 56.5446766,15.0699303 C56.9804975,15.3642587 57.5727363,15.2498308 57.8670647,14.81401 C58.161592,14.37799 58.0469652,13.7859502 57.6109453,13.4914229 C52.6220896,10.1208756 46.7900498,8.33918408 40.7452736,8.33918408 C32.6881592,8.33918408 25.1128358,11.4768955 19.4157214,17.174209 C13.718408,22.8713234 10.5806965,30.4468458 10.5806965,38.5037612 C10.5806965,45.9986866 13.320597,53.1216716 18.3132338,58.6685373 L17.3345274,59.0518209 C16.9741294,59.1821692 13.9094527,60.4048557 13.9094527,64.3017711 L13.9094527,67.7149055 C13.9094527,68.2410746 14.3353234,68.6683383 14.8618905,68.6683383 L20.3412935,68.6683383 L21.1944279,68.6683383 L22.2101493,68.6683383 L27.0839801,68.6683383 L28.8829851,68.6683383 C28.9289552,68.6683383 28.9737313,68.6639602 29.0179104,68.657791 C29.0622886,68.6639602 29.1070647,68.6683383 29.1530348,68.6683383 L33.0288557,68.6683383 C33.5550249,68.6683383 33.9812935,68.2420697 33.9812935,67.7159005 C33.9812935,67.1897313 33.5550249,66.7632637 33.0288557,66.7632637 L30.1054726,66.7632637 L30.1054726,63.4458507 C30.1054726,59.9457512 32.8547264,58.9391841 32.9657711,58.8999801 C32.9806965,58.895005 32.9950249,58.8898308 33.0097512,58.8838607 L37.6485572,57.0671443 C37.6583085,57.0780896 37.6678607,57.0894328 37.678408,57.0993831 L40.1436816,59.5007761 C40.321592,59.6741095 40.560398,59.7708259 40.8083582,59.7708259 L40.8234826,59.7708259 C41.0768159,59.7672438 41.318607,59.6619701 41.4941294,59.4794826 L43.8610945,57.0233632 L48.4939303,58.8812736 C48.5104478,58.8880398 48.521592,58.8920199 48.5387065,58.89799 C48.6559204,58.9391841 51.4053731,59.9459502 51.4053731,63.4458507 L51.4053731,66.7632637 L44.438209,66.7632637 L37.0722388,66.7632637 L36.0061692,66.7632637 C35.479801,66.7632637 35.0535323,67.1899303 35.0535323,67.7159005 C35.0535323,68.2420697 35.479801,68.6683383 36.0061692,68.6683383 L37.0722388,68.6683383 L44.438209,68.6683383 L52.358209,68.6683383 L52.358408,68.6683383 L53.5737313,68.6683383 L54.4264677,68.6683383 L55.4429851,68.6683383 L60.3164179,68.6683383 L66.6491542,68.6683383 C67.1753234,68.6683383 67.601592,68.2353035 67.601592,67.7091343 L67.601592,64.3017711 C67.601791,60.4197811 64.56,59.1913234 64.1804975,59.0536119 Z" id="Fill-2" fill="#554D85"></path>
            </g>
        </g>
    </g>
</svg>