<?xml version="1.0" encoding="utf-8"?>
<!-- Generator: Adobe Illustrator 16.0.0, SVG Export Plug-In . SVG Version: 6.00 Build 0)  -->
<!DOCTYPE svg PUBLIC "-//W3C//DTD SVG 1.1//EN" "http://www.w3.org/Graphics/SVG/1.1/DTD/svg11.dtd" [
	<!ENTITY ns_flows "http://ns.adobe.com/Flows/1.0/">
	<!ENTITY ns_extend "http://ns.adobe.com/Extensibility/1.0/">
	<!ENTITY ns_ai "http://ns.adobe.com/AdobeIllustrator/10.0/">
	<!ENTITY ns_graphs "http://ns.adobe.com/Graphs/1.0/">
	<!ENTITY ns_vars "http://ns.adobe.com/Variables/1.0/">
	<!ENTITY ns_imrep "http://ns.adobe.com/ImageReplacement/1.0/">
	<!ENTITY ns_sfw "http://ns.adobe.com/SaveForWeb/1.0/">
	<!ENTITY ns_custom "http://ns.adobe.com/GenericCustomNamespace/1.0/">
	<!ENTITY ns_adobe_xpath "http://ns.adobe.com/XPath/1.0/">
]>
<svg version="1.1"
	 xmlns:x="&ns_extend;" xmlns:i="&ns_ai;" xmlns:graph="&ns_graphs;" i:viewOrigin="-5023.2847 1758.0249" i:rulerOrigin="5023.2847 1673.9746" i:pageBounds="-5023.2847 1758.0249 -1809.2856 -1673.9746"
	 xmlns="http://www.w3.org/2000/svg" xmlns:xlink="http://www.w3.org/1999/xlink" xmlns:a="http://ns.adobe.com/AdobeSVGViewerExtensions/3.0/"
	 x="0px" y="0px" width="3213.999px" height="3432px" viewBox="0 0 3213.999 3432" enable-background="new 0 0 3213.999 3432"
	 xml:space="preserve">
<metadata>
	<variableSets  xmlns="&ns_vars;">
		<variableSet  varSetName="binding1" locked="none">
			<variables></variables>
			<v:sampleDataSets  xmlns:v="&ns_vars;" xmlns="&ns_custom;"></v:sampleDataSets>
		</variableSet>
	</variableSets>
</metadata>
<g id="Warstwa_1" i:layer="yes" i:dimmedPercent="50" i:rgbTrio="#4F008000FFFF">
	<g>
		<path i:alphaIsShape="yes" i:knockout="Off" fill="#E49461"  a:adobe-opacity-share="1" d="M0,3432C0,2288,0,1144.001,0,0.001
			c1071.332,0,2142.665,0,3213.998-0.001c0,1143.999,0,2287.998,0.001,3431.998C2142.667,3431.998,1071.334,3431.998,0,3432z
			 M985.044,1360.467c0,146.78,0,291.947,0,437.867c13.665,0,26.629,0,39.593,0c13.333,0,26.666,0,39.999,0c13,0,25.999,0,38.999,0
			c13.333,0,26.666,0,40,0c12.999,0,25.999,0,38.999,0c13.333,0,26.666,0,39.999,0c13,0,26-0.07,38.999,0.02
			c13.166,0.09,26.364-0.416,40.425,0.408c0,399.816,0,798.309,0,1196.934c154.458,0,307.932,0,460.982,0
			c0.598-0.902,0.824-1.15,0.936-1.441c0.117-0.305,0.129-0.65,0.176-0.98c0.048-0.33,0.093-0.66,0.117-0.992
			c0.025-0.33,0.029-0.666,0.035-0.998c0.013-0.666,0.029-1.334,0.029-2c0.003-393.658,0.006-787.318,0.009-1180.977
			c0-0.668,0-1.334,0.003-2c0.003-0.668,0.002-1.334,0.016-2c0.015-0.668,0.032-1.334,0.076-1.998
			c0.021-0.33,0.096-0.658,0.162-0.982c0.065-0.328,0.1-0.674,0.239-0.969c0.137-0.285,0.379-0.525,0.596-0.766
			c0.222-0.248,0.469-0.475,1.635-1.639c147.6,0,296.133,0,445.007,0c1.224-20.1,2.555-39.289,3.522-58.498
			c1.489-29.537,2.771-59.088,4.057-88.637c0.796-18.268,1.445-36.541,2.147-54.812c0.243-6.32,0.334-12.646,0.689-18.958
			c1.006-17.897,2.303-35.781,3.133-53.687c1.093-23.583,1.701-47.189,2.792-70.774c1.136-24.554,2.655-49.09,3.872-73.642
			c0.291-5.874,0.043-11.774,0.043-18.614c-18.523,0-35.779,0-53.034,0c-17.333,0-34.666,0-51.999,0s-34.666,0-51.999,0
			s-34.666,0-51.999,0c-17,0-34,0-50.999,0c-17.333,0-34.666,0-51.999,0s-34.666,0-51.999,0s-34.667,0.072-51.999-0.021
			c-17.141-0.093-34.307,0.416-51.962-0.331c0-4.083-0.01-6.714,0.001-9.346c0.441-110.951,0.898-221.902,1.313-332.854
			c0.07-18.709,2.518-37.152,6.628-55.331c11.425-50.52,42.68-81.269,93.104-92.948c22.138-5.128,44.524-7.787,67.183-7.771
			c55.652,0.042,111.305,0.437,166.958,0.585c36.999,0.1,73.998,0.02,110.997,0.02c2.914,0,5.828,0,9.059,0
			c0.746-9.512,1.748-18.026,2.021-26.564c0.837-26.268,1.392-52.544,2.062-78.816c0.662-25.939,1.339-51.879,1.996-77.818
			c0.676-26.605,1.328-53.212,2.008-79.817c0.653-25.606,1.444-51.21,1.957-76.818c0.407-20.316,0.521-40.639,0.671-60.959
			c0.021-2.84-0.493-5.685-0.765-8.576c-14.446-1.615-27.923-3.404-41.454-4.569c-21.177-1.823-42.386-3.29-63.59-4.787
			c-25.826-1.823-51.65-3.741-77.499-5.197c-18.585-1.047-37.212-2.054-55.813-1.942c-49.903,0.298-99.83-1.737-149.692,2.988
			c-34.115,3.233-67.985,7.667-101.483,14.809c-66.194,14.111-129.053,36.931-187.417,71.639
			c-44.104,26.228-83.712,57.998-117.883,96.208c-49.541,55.398-84.894,119.024-106.698,190.03
			c-16.979,55.29-26.403,111.831-26.367,169.829c0.076,121.997,0.023,243.995,0.023,365.993c0,3.874,0,7.749,0,12.504
			C1195.373,1360.467,1090.5,1360.467,985.044,1360.467z"/>
		<path i:knockout="Off" fill-rule="evenodd" clip-rule="evenodd" fill="#FFFFFF" d="M985.044,1360.467
			c105.456,0,210.329,0,316.616,0c0-4.755,0-8.63,0-12.504c0-121.998,0.053-243.996-0.023-365.993
			c-0.036-57.998,9.389-114.539,26.367-169.829c21.805-71.006,57.157-134.632,106.698-190.03
			c34.171-38.21,73.779-69.98,117.883-96.208c58.364-34.708,121.223-57.527,187.417-71.639
			c33.498-7.142,67.368-11.575,101.483-14.809c49.862-4.726,99.789-2.69,149.692-2.988c18.602-0.111,37.229,0.896,55.813,1.942
			c25.849,1.456,51.673,3.374,77.499,5.197c21.204,1.497,42.413,2.964,63.59,4.787c13.531,1.165,27.008,2.954,41.454,4.569
			c0.271,2.892,0.786,5.736,0.765,8.576c-0.15,20.32-0.264,40.643-0.671,60.959c-0.513,25.608-1.304,51.212-1.957,76.818
			c-0.68,26.605-1.332,53.212-2.008,79.817c-0.657,25.939-1.334,51.879-1.996,77.818c-0.671,26.272-1.226,52.549-2.062,78.816
			c-0.272,8.538-1.274,17.053-2.021,26.564c-3.23,0-6.145,0-9.059,0c-36.999,0-73.998,0.08-110.997-0.02
			c-55.653-0.148-111.306-0.543-166.958-0.585c-22.658-0.017-45.045,2.643-67.183,7.771c-50.425,11.68-81.68,42.429-93.104,92.948
			c-4.11,18.179-6.558,36.622-6.628,55.331c-0.415,110.951-0.872,221.902-1.313,332.854c-0.011,2.632-0.001,5.263-0.001,9.346
			c17.655,0.747,34.821,0.238,51.962,0.331c17.332,0.094,34.666,0.021,51.999,0.021s34.666,0,51.999,0s34.666,0,51.999,0
			c16.999,0,33.999,0,50.999,0c17.333,0,34.666,0,51.999,0s34.666,0,51.999,0s34.666,0,51.999,0c17.255,0,34.511,0,53.034,0
			c0,6.84,0.248,12.74-0.043,18.614c-1.217,24.552-2.736,49.088-3.872,73.642c-1.091,23.585-1.699,47.191-2.792,70.774
			c-0.83,17.905-2.127,35.789-3.133,53.687c-0.355,6.312-0.446,12.638-0.689,18.958c-0.702,18.271-1.352,36.545-2.147,54.812
			c-1.286,29.549-2.567,59.1-4.057,88.637c-0.968,19.209-2.299,38.398-3.522,58.498c-148.874,0-297.407,0-445.007,0
			c-1.166,1.164-1.413,1.391-1.635,1.639c-0.217,0.24-0.459,0.48-0.596,0.766c-0.14,0.295-0.174,0.641-0.239,0.969
			c-0.066,0.324-0.141,0.652-0.162,0.982c-0.044,0.664-0.062,1.33-0.076,1.998c-0.014,0.666-0.013,1.332-0.016,2
			c-0.003,0.666-0.003,1.332-0.003,2c-0.003,393.658-0.006,787.318-0.009,1180.977c0,0.666-0.017,1.334-0.029,2
			c-0.006,0.332-0.01,0.668-0.035,0.998c-0.024,0.332-0.069,0.662-0.117,0.992c-0.047,0.33-0.059,0.676-0.176,0.98
			c-0.111,0.291-0.338,0.539-0.936,1.441c-153.051,0-306.524,0-460.982,0c0-398.625,0-797.117,0-1196.934
			c-14.061-0.824-27.259-0.318-40.425-0.408c-12.999-0.09-25.999-0.02-38.999-0.02c-13.333,0-26.666,0-39.999,0c-13,0-26,0-38.999,0
			c-13.334,0-26.667,0-40,0c-13,0-25.999,0-38.999,0c-13.333,0-26.666,0-39.999,0c-12.964,0-25.928,0-39.593,0
			C985.044,1652.414,985.044,1507.247,985.044,1360.467z"/>
	</g>
</g>
</svg>
