<?xml version="1.0" encoding="utf-8"?>
<!-- Generator: Adobe Illustrator 16.0.0, SVG Export Plug-In . SVG Version: 6.00 Build 0)  -->
<!DOCTYPE svg PUBLIC "-//W3C//DTD SVG 1.1//EN" "http://www.w3.org/Graphics/SVG/1.1/DTD/svg11.dtd" [
	<!ENTITY ns_flows "http://ns.adobe.com/Flows/1.0/">
	<!ENTITY ns_extend "http://ns.adobe.com/Extensibility/1.0/">
	<!ENTITY ns_ai "http://ns.adobe.com/AdobeIllustrator/10.0/">
	<!ENTITY ns_graphs "http://ns.adobe.com/Graphs/1.0/">
	<!ENTITY ns_vars "http://ns.adobe.com/Variables/1.0/">
	<!ENTITY ns_imrep "http://ns.adobe.com/ImageReplacement/1.0/">
	<!ENTITY ns_sfw "http://ns.adobe.com/SaveForWeb/1.0/">
	<!ENTITY ns_custom "http://ns.adobe.com/GenericCustomNamespace/1.0/">
	<!ENTITY ns_adobe_xpath "http://ns.adobe.com/XPath/1.0/">
]>
<svg version="1.1"
	 xmlns:x="&ns_extend;" xmlns:i="&ns_ai;" xmlns:graph="&ns_graphs;" i:viewOrigin="1588.7754 1536.1865" i:rulerOrigin="-1588.7754 -1395.5166" i:pageBounds="1588.7754 1536.1865 1720.627 1395.5166"
	 xmlns="http://www.w3.org/2000/svg" xmlns:xlink="http://www.w3.org/1999/xlink" xmlns:a="http://ns.adobe.com/AdobeSVGViewerExtensions/3.0/"
	 x="0px" y="0px" width="131.852px" height="140.67px" viewBox="0 0 131.852 140.67" enable-background="new 0 0 131.852 140.67"
	 xml:space="preserve">
<metadata>
	<variableSets  xmlns="&ns_vars;">
		<variableSet  varSetName="binding1" locked="none">
			<variables></variables>
			<v:sampleDataSets  xmlns:v="&ns_vars;" xmlns="&ns_custom;"></v:sampleDataSets>
		</variableSet>
	</variableSets>
</metadata>
<g id="Warstwa_1" i:layer="yes" i:dimmedPercent="50" i:rgbTrio="#4F008000FFFF">
	<g>
		<polygon i:knockout="Off" fill="#FFFFFF" points="23.572,128.869 32.172,128.869 32.172,130.556 25.258,130.556 25.258,133.931 
			31.158,133.931 31.158,135.617 25.258,135.617 25.258,138.982 32.172,138.982 32.172,140.67 23.572,140.67 		"/>
		<polygon i:knockout="Off" fill="#FFFFFF" points="38.219,128.869 38.219,138.982 44.283,138.982 44.283,140.67 36.531,140.67 
			36.531,128.869 		"/>
		<rect x="48.391" y="128.869" i:knockout="Off" fill="#FFFFFF" width="1.688" height="11.801"/>
		<polygon i:knockout="Off" fill="#FFFFFF" points="54.662,128.869 63.928,128.869 63.928,129.38 57.236,138.982 63.928,138.982 
			63.928,140.67 54.422,140.67 54.422,140.168 61.113,130.556 54.662,130.556 		"/>
		<path i:knockout="Off" fill="#FFFFFF" d="M68.123,136.959h1.686v2.023h4.773v-10.113h1.688v10.113c0,0.232-0.045,0.45-0.135,0.655
			c-0.09,0.206-0.213,0.385-0.363,0.539c-0.15,0.154-0.33,0.275-0.535,0.362c-0.205,0.089-0.424,0.132-0.654,0.132h-4.773
			c-0.23,0-0.447-0.043-0.652-0.132c-0.207-0.087-0.385-0.208-0.535-0.362c-0.152-0.154-0.273-0.333-0.363-0.539
			c-0.09-0.205-0.135-0.423-0.135-0.655V136.959z"/>
		<path i:knockout="Off" fill="#FFFFFF" d="M80.883,128.869h1.686v10.113h6.742v-10.113h1.686v10.113
			c0,0.232-0.043,0.45-0.131,0.655c-0.088,0.206-0.209,0.384-0.361,0.539c-0.156,0.154-0.334,0.275-0.539,0.362
			c-0.207,0.089-0.424,0.132-0.654,0.132h-6.742c-0.229,0-0.447-0.043-0.652-0.132c-0.205-0.087-0.387-0.208-0.539-0.362
			c-0.154-0.155-0.273-0.333-0.363-0.539c-0.088-0.205-0.131-0.423-0.131-0.655V128.869z"/>
		<polygon i:knockout="Off" fill="#FFFFFF" points="101.695,140.67 97.293,132.022 97.293,140.67 95.605,140.67 95.605,128.869 
			97.449,128.869 101.943,137.757 106.443,128.869 108.279,128.869 108.279,140.67 106.6,140.67 106.6,132.022 102.197,140.67 		"/>
		<path i:knockout="Off" fill="#E29256" d="M65.924,0c-4.143,0-7.512,3.369-7.512,7.51c0,3.156,2.023,5.992,5.031,7.055l0.514,0.181
			v76.758h3.936V14.746l0.514-0.181c3.008-1.064,5.029-3.899,5.029-7.055C73.436,3.369,70.066,0,65.924,0 M65.924,11.086
			c-1.971,0-3.574-1.604-3.574-3.576c0-1.971,1.604-3.574,3.574-3.574s3.574,1.603,3.574,3.574
			C69.498,9.482,67.895,11.086,65.924,11.086"/>
		<path i:knockout="Off" fill="#E29256" d="M108.684,33.262c-4.143,0-7.512,3.369-7.512,7.512c0,1.092,0.258,2.18,0.764,3.234
			l0.236,0.492l-4.482,4.485h-11.15l-7.396,7.396V34.797l4.209-4.209l0.498,0.248c1.082,0.543,2.201,0.818,3.328,0.818
			c4.141,0,7.51-3.37,7.51-7.513c0-4.141-3.369-7.51-7.51-7.51c-4.143,0-7.514,3.369-7.514,7.51c0,1.066,0.24,2.123,0.715,3.141
			l0.227,0.488l-5.398,5.398v58.336h3.936V61.946l9.027-9.026h11.15l5.635-5.636l0.492,0.236c1.055,0.508,2.145,0.766,3.236,0.766
			c4.141,0,7.51-3.371,7.51-7.512C116.193,36.631,112.824,33.262,108.684,33.262 M87.178,20.566c1.969,0,3.574,1.603,3.574,3.574
			c0,1.973-1.605,3.576-3.574,3.576c-1.973,0-3.578-1.603-3.578-3.576C83.6,22.169,85.205,20.566,87.178,20.566 M108.684,44.35
			c-1.973,0-3.576-1.604-3.576-3.576c0-1.972,1.604-3.575,3.576-3.575c1.971,0,3.574,1.603,3.574,3.575
			C112.258,42.746,110.654,44.35,108.684,44.35"/>
		<path i:knockout="Off" fill="#E29256" d="M51.473,27.282c0.473-1.018,0.713-2.075,0.713-3.141c0-4.141-3.371-7.51-7.512-7.51
			s-7.512,3.369-7.512,7.51c0,4.143,3.371,7.513,7.512,7.513c1.125,0,2.246-0.275,3.326-0.818l0.496-0.248l4.209,4.209v21.584
			l-7.393-7.396H34.16L29.678,44.5l0.236-0.492c0.508-1.054,0.764-2.142,0.764-3.234c0-4.143-3.369-7.512-7.512-7.512
			c-4.141,0-7.508,3.369-7.508,7.512c0,4.141,3.367,7.512,7.508,7.512c1.094,0,2.184-0.258,3.236-0.766l0.492-0.236l5.637,5.636
			h11.15l9.023,9.026v29.558h3.938V33.167l-5.396-5.398L51.473,27.282z M44.674,27.717c-1.971,0-3.576-1.603-3.576-3.576
			c0-1.971,1.605-3.574,3.576-3.574s3.574,1.603,3.574,3.574C48.248,26.114,46.645,27.717,44.674,27.717 M23.166,44.35
			c-1.969,0-3.572-1.604-3.572-3.576c0-1.972,1.604-3.575,3.572-3.575c1.973,0,3.576,1.603,3.576,3.575
			C26.742,42.746,25.139,44.35,23.166,44.35"/>
		<path i:knockout="Off" fill="#FFFFFF" d="M15.738,103.117c-0.287-0.283-0.627-0.511-1.01-0.679c-0.391-0.174-0.812-0.26-1.25-0.26
			H3.201c-0.436,0-0.855,0.086-1.25,0.26c-0.383,0.168-0.723,0.396-1.012,0.679c-0.291,0.29-0.523,0.631-0.688,1.018
			C0.084,104.528,0,104.947,0,105.38v12.848c0,0.432,0.084,0.85,0.252,1.244c0.164,0.386,0.395,0.728,0.686,1.02
			c0.291,0.29,0.633,0.522,1.02,0.686c0.391,0.167,0.809,0.252,1.244,0.252h10.277c0.436,0,0.854-0.085,1.244-0.252
			c0.385-0.162,0.729-0.394,1.021-0.686c0.289-0.289,0.52-0.632,0.686-1.02c0.166-0.391,0.252-0.81,0.252-1.244V105.38
			c0-0.434-0.086-0.854-0.252-1.246C16.264,103.746,16.031,103.406,15.738,103.117 M12.848,117.598H3.832V106.01h9.016V117.598z"/>
		<path i:knockout="Off" fill="#FFFFFF" d="M38.777,103.117c-0.287-0.283-0.627-0.512-1.01-0.68
			c-0.393-0.174-0.814-0.259-1.25-0.259h-9.762c-0.438,0-0.857,0.085-1.252,0.259c-0.381,0.168-0.721,0.397-1.01,0.68
			c-0.293,0.29-0.525,0.632-0.689,1.018c-0.168,0.39-0.25,0.809-0.25,1.245v12.847c0,0.435,0.082,0.854,0.25,1.244
			c0.164,0.386,0.395,0.729,0.686,1.021c0.291,0.291,0.633,0.521,1.021,0.686c0.391,0.167,0.809,0.251,1.244,0.251h9.762
			c0.436,0,0.854-0.084,1.244-0.251c0.387-0.165,0.73-0.395,1.02-0.686c0.291-0.291,0.521-0.633,0.686-1.021
			c0.168-0.39,0.254-0.809,0.254-1.244v-7.569h-8.715v3.832h4.881v3.107h-8.502V106.01h8.502v2.32h3.834v-2.95
			c0-0.436-0.086-0.855-0.254-1.245C39.301,103.746,39.07,103.404,38.777,103.117"/>
		<path i:knockout="Off" fill="#FFFFFF" d="M62.068,109.23v-2.044c0-3.23-1.775-5.009-4.996-5.009h-10.48v19.252h3.832v-7.189h4.602
			l3.338,7.189h4.238l-3.479-7.472C61.078,113.342,62.068,111.753,62.068,109.23 M58.236,109.105c0,0.502-0.092,0.86-0.266,1.035
			c-0.178,0.174-0.535,0.268-1.037,0.268h-6.51v-4.399h6.51c0.502,0,0.859,0.092,1.035,0.268c0.176,0.174,0.268,0.532,0.268,1.034
			V109.105z"/>
		<path i:knockout="Off" fill="#FFFFFF" d="M84.535,103.117c-0.287-0.283-0.627-0.511-1.01-0.679c-0.391-0.174-0.812-0.26-1.25-0.26
			H72c-0.438,0-0.857,0.086-1.252,0.26c-0.383,0.168-0.723,0.396-1.012,0.679c-0.293,0.29-0.523,0.631-0.688,1.018
			c-0.168,0.393-0.252,0.812-0.252,1.245v12.848c0,0.432,0.084,0.85,0.252,1.244c0.164,0.386,0.395,0.728,0.686,1.02
			s0.633,0.522,1.021,0.686c0.389,0.167,0.807,0.252,1.244,0.252h10.275c0.436,0,0.854-0.085,1.244-0.252
			c0.387-0.164,0.73-0.394,1.021-0.686c0.289-0.289,0.52-0.632,0.686-1.02c0.166-0.391,0.25-0.81,0.25-1.244V105.38
			c0-0.434-0.084-0.854-0.25-1.246C85.061,103.746,84.828,103.406,84.535,103.117 M81.645,117.598h-9.018V106.01h9.018V117.598z"/>
		<path i:knockout="Off" fill="#FFFFFF" d="M107.168,104.074c-0.605-0.607-1.346-1.08-2.201-1.41
			c-0.844-0.322-1.797-0.486-2.83-0.486h-9.777v19.252h9.777c1.033,0,1.986-0.164,2.83-0.489c0.855-0.328,1.596-0.802,2.201-1.41
			c0.609-0.607,1.084-1.351,1.41-2.209c0.324-0.847,0.488-1.797,0.488-2.822v-5.395c0-1.023-0.164-1.974-0.488-2.821
			C108.252,105.427,107.777,104.684,107.168,104.074 M105.234,114.5c0,1.018-0.264,1.797-0.783,2.316
			c-0.518,0.518-1.297,0.782-2.314,0.782h-5.943V106.01h5.943c0.51,0,0.963,0.071,1.354,0.213c0.371,0.134,0.688,0.332,0.943,0.587
			c0.254,0.254,0.451,0.571,0.586,0.943c0.143,0.389,0.215,0.845,0.215,1.352V114.5z"/>
		<polygon i:knockout="Off" fill="#FFFFFF" points="127.365,102.178 122.471,110.022 117.586,102.178 113.102,102.178 
			120.561,113.844 120.561,121.43 124.393,121.43 124.393,113.844 131.852,102.178 		"/>
	</g>
</g>
</svg>
