<?xml version="1.0" encoding="UTF-8" standalone="no"?>
<svg width="35px" height="30px" viewBox="0 0 35 30" version="1.1" xmlns="http://www.w3.org/2000/svg" xmlns:xlink="http://www.w3.org/1999/xlink">
    <!-- Generator: Sketch 50.2 (55047) - http://www.bohemiancoding.com/sketch -->
    <title>Group 25</title>
    <desc>Created with Sketch.</desc>
    <defs></defs>
    <g id="Page-1" stroke="none" stroke-width="1" fill="none" fill-rule="evenodd">
        <g id="Group-25">
            <path d="M13.3615787,0 L4.88541732,3.77697178 C3.46066531,4.83063872 2.27337196,6.93121043 1.32353728,10.0786869 C-0.101214738,14.7999016 -0.751443361,18.9051454 1.32353728,22.2099957 C3.39851792,25.514846 5.32694204,30 15.2278555,30 C21.8284644,30 26.8460156,29.1857749 30.2805089,27.5573246 L35,17.4786377 L32.150496,6.92782935 C31.2355634,5.56617692 28.565081,4.07112559 24.1390486,2.44267536 C19.7130162,0.814225118 16.1205262,0 13.3615787,0 Z" id="Path-6-Copy" fill="#FF0082" transform="translate(17.500000, 15.000000) scale(-1, -1) translate(-17.500000, -15.000000) "></path>
            <path d="M12.696,17.056 L12.816,18.892 C11.616,19.048 9.936,19.048 8.508,19.048 C7.368,19.048 6.564,18.28 6.564,17.164 L6.564,12.556 C6.564,11.44 7.368,10.672 8.508,10.672 C9.936,10.672 11.616,10.672 12.816,10.828 L12.696,12.664 L9.66,12.664 C9.36,12.664 9.168,12.844 9.168,13.096 L9.168,13.9 L12.264,13.9 L12.264,15.628 L9.168,15.628 L9.168,16.624 C9.168,16.876 9.36,17.056 9.66,17.056 L12.696,17.056 Z M21.396,10.72 L21.396,18.1 C21.396,18.688 21.084,19 20.496,19 L19.5,19 C18.96,19 18.768,18.736 18.492,18.244 L16.692,15.4 C16.464,14.992 16.284,14.488 16.14,13.984 L16.056,13.984 C16.128,14.488 16.176,15.016 16.176,15.496 L16.176,19 L13.776,19 L13.776,11.62 C13.776,11.032 14.088,10.72 14.676,10.72 L15.672,10.72 C16.212,10.72 16.392,10.984 16.68,11.476 L18.408,14.188 C18.636,14.584 18.852,15.076 19.044,15.604 L19.128,15.604 C19.068,15.1 19.02,14.608 19.02,14.104 L19.008,10.72 L21.396,10.72 Z M29.58,14.236 L29.58,19 L27.66,19 L27.432,18.148 C27.048,18.616 26.256,19.168 25.14,19.168 C23.232,19.168 22.392,17.992 22.392,14.86 C22.392,11.68 23.436,10.552 26.292,10.552 C27.612,10.552 28.356,10.648 29.232,10.9 L29.04,12.772 C28.128,12.76 27.42,12.748 26.304,12.748 C25.38,12.748 25.128,13.156 25.128,14.86 C25.128,16.54 25.368,16.948 26.184,16.948 C26.532,16.948 26.844,16.912 27.084,16.876 L27.084,14.236 L29.58,14.236 Z" id="ENG" fill="#FFFFFF"></path>
        </g>
    </g>
</svg>