<?xml version="1.0" encoding="UTF-8" standalone="no"?>
<svg width="17px" height="17px" viewBox="0 0 17 17" version="1.1" xmlns="http://www.w3.org/2000/svg" xmlns:xlink="http://www.w3.org/1999/xlink">
    <!-- Generator: Sketch 50.2 (55047) - http://www.bohemiancoding.com/sketch -->
    <title>Combined Shape</title>
    <desc>Created with Sketch.</desc>
    <defs></defs>
    <g id="Page-1" stroke="none" stroke-width="1" fill="none" fill-rule="evenodd">
        <g id="Nova-Corps---Menu" transform="translate(-372.000000, -91.000000)" fill="#2D2D2D">
            <g id="Menu-belka" transform="translate(0.000000, 70.000000)">
                <g id="iks" transform="translate(365.000000, 14.000000)">
                    <g transform="translate(16.000000, 16.000000) rotate(44.500000) translate(-16.000000, -16.000000) translate(5.000000, 5.000000)" id="Combined-Shape">
                        <path d="M8.96473229,9.60851433 L8.96473229,2.15604047 C8.96473229,1.24477063 9.70346245,0.506040469 10.6147323,0.506040469 C11.5260021,0.506040469 12.2647323,1.24477063 12.2647323,2.15604047 L12.2647323,9.60851433 L19.4197692,9.60851433 C20.331039,9.60851433 21.0697692,10.3472445 21.0697692,11.2585143 C21.0697692,12.1697842 20.331039,12.9085143 19.4197692,12.9085143 L12.2647323,12.9085143 L12.2647323,19.5705926 C12.2647323,20.4818624 11.5260021,21.2205926 10.6147323,21.2205926 C9.70346245,21.2205926 8.96473229,20.4818624 8.96473229,19.5705926 L8.96473229,12.9085143 L2.00521712,12.9085143 C1.09394728,12.9085143 0.35521712,12.1697842 0.35521712,11.2585143 C0.35521712,10.3472445 1.09394728,9.60851433 2.00521712,9.60851433 L8.96473229,9.60851433 Z"></path>
                    </g>
                </g>
            </g>
        </g>
    </g>
</svg>