<?xml version="1.0" encoding="UTF-8" standalone="no"?>
<svg width="10px" height="18px" viewBox="0 0 10 18" version="1.1" xmlns="http://www.w3.org/2000/svg" xmlns:xlink="http://www.w3.org/1999/xlink">
    <!-- Generator: Sketch 48.1 (47250) - http://www.bohemiancoding.com/sketch -->
    <title>kosz-icon copy 2</title>
    <desc>Created with Sketch.</desc>
    <defs></defs>
    <g id="Desktop-HD-Copy-9" stroke="none" stroke-width="1" fill="none" fill-rule="evenodd" transform="translate(-930.000000, -740.000000)">
        <g id="kosz-icon-copy-2" transform="translate(920.000000, 731.000000)" fill="#4A4A4A">
            <path d="M19.1305571,9.0036172 L16.8761382,9 C14.3433758,9 12.7065935,10.6792844 12.7065935,13.2784224 L12.7065935,15.2510616 L10.439876,15.2510616 C10.2440047,15.2510616 10.0853906,15.4098566 10.0853906,15.6057279 L10.0853906,18.4638573 C10.0853906,18.6597286 10.2441856,18.8183427 10.439876,18.8183427 L12.7065935,18.8183427 L12.7065935,26.0303131 C12.7065935,26.2261844 12.8652076,26.3847985 13.0610789,26.3847985 L16.0185004,26.3847985 C16.2143717,26.3847985 16.3729859,26.2260035 16.3729859,26.0303131 L16.3729859,18.8183427 L19.0233072,18.8183427 C19.2191785,18.8183427 19.3777926,18.6597286 19.3777926,18.4638573 L19.3788778,15.6057279 C19.3788778,15.5116807 19.3414398,15.4216125 19.2750642,15.355056 C19.2086886,15.2884996 19.1182587,15.2510616 19.0242115,15.2510616 L16.3729859,15.2510616 L16.3729859,13.5788307 C16.3729859,12.7750892 16.5645165,12.3670692 17.6115146,12.3670692 L19.1301954,12.3665266 C19.3258858,12.3665266 19.4845,12.2077316 19.4845,12.0120412 L19.4845,9.35810265 C19.4845,9.16259307 19.3260667,9.00397892 19.1305571,9.0036172" id="Page-1"></path>
        </g>
    </g>
</svg>