<?xml version="1.0" encoding="UTF-8" standalone="no"?>
<svg width="183px" height="37px" viewBox="0 0 183 37" version="1.1" xmlns="http://www.w3.org/2000/svg" xmlns:xlink="http://www.w3.org/1999/xlink">
    <!-- Generator: Sketch 48.1 (47250) - http://www.bohemiancoding.com/sketch -->
    <title>logo-2</title>
    <desc>Created with Sketch.</desc>
    <defs>
        <polygon id="path-1" points="0 37 184 37 184 0 0 0"></polygon>
    </defs>
    <g id="Desktop-HD" stroke="none" stroke-width="1" fill="none" fill-rule="evenodd" transform="translate(-29.000000, -27.000000)">
        <g id="logo-2" transform="translate(15.000000, 15.000000)">
            <g id="Page-1" transform="translate(14.000000, 12.000000)">
                <path d="M112.333465,12.9114735 L115.163342,12.9114735 C116.070073,12.9114735 116.773243,12.6481137 117.272459,12.1215884 C117.770686,11.5958407 118.020492,10.8599881 118.020492,9.91422521 C118.020492,8.98653791 117.770686,8.2637076 117.272459,7.746123 C116.773243,7.22951021 116.088452,6.97023201 115.21769,6.97023201 L112.333465,6.97023201 L112.333465,12.9114735 Z M108.768994,23 L108.768994,6.97023201 L107,6.97023201 L107,4 L115.653071,4 C117.449339,4 118.900147,4.51272556 120.00688,5.53875977 C121.113415,6.5651827 121.666782,7.96011498 121.666782,9.72627767 C121.666782,10.5293793 121.539508,11.2611502 121.285947,11.9213961 C121.031596,12.5818364 120.718747,13.0984492 120.3472,13.4733725 C119.975259,13.8482958 119.626045,14.1378943 119.299757,14.3427513 C118.973073,14.5478027 118.691449,14.6774418 118.455873,14.7306968 L118.455873,14.7841462 C118.854494,14.9629588 119.172285,15.284627 119.408454,15.7479848 L121.285947,19.4136421 C121.503539,19.8247166 121.956904,20.0299624 122.646438,20.0299624 L123,20.0299624 L123,23 L121.122506,23 C120.378426,23 119.820909,22.9105937 119.44877,22.7325586 C119.076829,22.5547179 118.736904,22.170854 118.428797,21.5817443 L115.952482,16.7913172 C115.752677,16.4344695 115.530935,16.1983203 115.285675,16.0826752 C115.040811,15.9660583 114.655431,15.9087217 114.129139,15.9087217 L112.333465,15.9087217 L112.333465,23 L108.768994,23 Z" id="Fill-1" fill="#000000"></path>
                <mask id="mask-2" fill="white">
                    <use xlink:href="#path-1"></use>
                </mask>
                <g id="Clip-4"></g>
                <path d="M125.904155,7.13096894 L128.984195,7.13096894 L128.984195,4 L125.904155,4 L125.904155,7.13096894 Z M125.736374,21.1807766 L125.736374,12.8310078 C125.736374,12.4389807 125.530767,12.2420926 125.119959,12.2420926 L124,12.2420926 L124,9.3523262 L127.388146,9.3523262 C128.041168,9.3523262 128.517461,9.49887475 128.816212,9.79352674 C129.114352,10.0879844 129.264236,10.5474549 129.264236,11.1715496 L129.264236,19.5483346 C129.264236,19.9403617 129.469436,20.1362781 129.880244,20.1362781 L131,20.1362781 L131,23 L127.612057,23 C126.958222,23 126.482539,22.8571443 126.184399,22.5718217 C125.885038,22.2863047 125.736374,21.8229469 125.736374,21.1807766 Z" id="Fill-3" fill="#000000" mask="url(#mask-2)"></path>
                <path d="M138.869048,20.0657128 C139.799252,20.0657128 140.5638,19.7476163 141.163278,19.1092403 C141.762561,18.4720549 142.062494,17.4252929 142.062494,15.9669699 C142.062494,13.2896405 140.926098,11.9513727 138.65428,11.9513727 C137.634818,11.9513727 136.847857,12.2972506 136.293398,12.9890065 C135.738745,13.6817546 135.461419,14.6289006 135.461419,15.8306428 C135.461419,17.0877494 135.760768,18.1077222 136.36044,18.8907597 C136.959528,19.6747894 137.796185,20.0657128 138.869048,20.0657128 M132,15.9403792 C132,13.9361525 132.536724,12.2787959 133.609976,10.9673172 C134.683228,9.65583855 136.168085,9 138.064157,9 C138.65428,9 139.204646,9.06885809 139.71467,9.20538363 C140.224109,9.34171074 140.626749,9.50601764 140.922006,9.69691528 C141.217457,9.8888051 141.476269,10.0797027 141.700001,10.2706004 C141.923928,10.4622918 142.071069,10.6214393 142.143178,10.7486382 L142.277067,10.9673172 L142.330466,10.9673172 L142.330466,10.6123111 C142.330466,10.2664332 142.45539,9.96579916 142.706407,9.71021064 C142.957034,9.45561432 143.332194,9.32841537 143.833253,9.32841537 L147,9.32841537 L147,12.2787959 L145.953448,12.2787959 C145.559772,12.2787959 145.362545,12.4615575 145.362545,12.8258902 L145.362545,22.4158175 C145.362545,23.5631877 145.157132,24.5738339 144.745917,25.4483515 C144.334117,26.3226706 143.779854,27.0102593 143.081762,27.5109191 C142.38445,28.0117773 141.619317,28.3852382 140.788117,28.6316985 C139.955942,28.8767698 139.074655,29 138.144841,29 C136.391233,29 134.772487,28.5987578 133.28802,27.7982577 L134.334572,25.0653656 C135.461419,25.6842946 136.722738,25.9940568 138.117752,25.9940568 C139.244988,25.9940568 140.17071,25.7212041 140.895306,25.1753004 C141.619317,24.6284045 141.98181,23.7632135 141.98181,22.5789338 L141.98181,21.9230952 L142.008315,21.1862939 L141.955111,21.1862939 C141.132096,22.3880362 139.862396,22.9893042 138.144841,22.9893042 C136.248574,22.9893042 134.75027,22.3110421 133.650318,20.9535258 C132.550171,19.5968032 132,17.9261512 132,15.9403792" id="Fill-5" fill="#000000" mask="url(#mask-2)"></path>
                <path d="M147.539988,23 L147.539988,7.47868162 C147.539988,7.08665453 147.357635,6.88976636 146.993471,6.88976636 L146,6.88976636 L146,4 L149.004942,4 C150.130803,4 150.693734,4.59805025 150.693734,5.79317894 L150.693734,10.5826343 L150.644313,11.7334486 L150.693734,11.7334486 C151.024891,11.0026495 151.575196,10.368448 152.34537,9.83375956 C153.115183,9.29907116 154.013059,9.03065796 155.039537,9.03065796 C157.986581,9.03065796 159.460373,10.7614469 159.460373,14.2220529 L159.460373,19.5483346 C159.460373,19.9403617 159.642365,20.1364724 160.006529,20.1364724 L161,20.1364724 L161,23 L157.995058,23 C157.415353,23 156.99311,22.8573387 156.728148,22.5718217 C156.463367,22.2863047 156.330796,21.8229469 156.330796,21.1807766 L156.330796,14.9186444 C156.330796,14.0080609 156.182172,13.3174946 155.884203,12.8442244 C155.586054,12.3717317 155.064788,12.1355825 154.319505,12.1355825 C153.508387,12.1355825 152.796292,12.3989423 152.18376,12.9244957 C151.571047,13.4512153 151.141048,14.1336184 150.8925,14.9718994 C150.76011,15.4533328 150.693734,16.0424424 150.693734,16.7380621 L150.693734,23 L147.539988,23 Z" id="Fill-6" fill="#000000" mask="url(#mask-2)"></path>
                <path d="M164.873617,17.0088955 L164.873617,11.2388335 L163,11.2388335 L163,8.61348644 L164.958987,8.61348644 L164.958987,5 L168.479597,5 L168.479597,8.61348644 L171.772757,8.61348644 L171.772757,11.2388335 L168.479597,11.2388335 L168.479597,16.5929858 C168.479597,17.5469538 168.777775,18.2009306 169.37372,18.5554828 C169.969871,18.91079 170.627265,19.0886325 171.347348,19.0886325 L172,19.0367146 L172,21.9218399 C171.697079,21.9735691 171.327964,22 170.892863,22 C170.400229,22 169.927391,21.9696044 169.473113,21.9091909 C169.018834,21.8485885 168.498362,21.7137907 167.911697,21.5059303 C167.324825,21.2978811 166.818788,21.0254537 166.392554,20.6877041 C165.966732,20.3490105 165.606897,19.8645692 165.313461,19.2319259 C165.020231,18.5992826 164.873617,17.8584612 164.873617,17.0088955" id="Fill-7" fill="#000000" mask="url(#mask-2)"></path>
                <path d="M173,20.615032 L174.470735,18.4387607 C174.584841,18.5785264 174.752528,18.7578989 174.973263,18.9764972 C175.193819,19.194905 175.626567,19.4875753 176.272216,19.8546985 C176.917687,20.2210601 177.558708,20.4051929 178.196169,20.4051929 C178.702613,20.4051929 179.110795,20.2958938 179.421604,20.0772955 C179.7317,19.8586973 179.887283,19.5307999 179.887283,19.0945554 C179.887283,18.7626593 179.66281,18.4515186 179.213508,18.1630374 C178.763849,17.8743658 178.216641,17.5997851 177.571169,17.3377719 C176.92552,17.0748065 176.275954,16.7735675 175.62265,16.4329121 C174.969346,16.0920664 174.417331,15.6204045 173.968029,15.0167839 C173.518905,14.4141153 173.294076,13.7110972 173.294076,12.9065871 C173.294076,11.6311766 173.755839,10.6613849 174.679187,9.99664051 C175.602001,9.33284822 176.758367,9 178.147038,9 C178.620728,9 179.090679,9.04436707 179.556359,9.13100662 C180.022216,9.21859826 180.487717,9.3635053 180.953396,9.56439482 C181.419254,9.76528433 181.798953,10.0577642 182.093029,10.4427866 C182.387105,10.8266665 182.534677,11.2728126 182.534677,11.7789399 L182.534677,13.1684099 L179.789376,13.1684099 L179.789376,12.5135672 C179.789376,12.2163269 179.625961,11.9847803 179.299131,11.8183562 C178.971945,11.6528841 178.612717,11.5692912 178.220735,11.5692912 C177.648426,11.5692912 177.19503,11.6745916 176.860545,11.8842403 C176.525527,12.0940794 176.35784,12.3915101 176.35784,12.7755804 C176.35784,13.1606028 176.586585,13.4963073 177.044254,13.7847884 C177.501745,14.07346 178.05732,14.3402337 178.710802,14.5845382 C179.364106,14.8297948 180.013493,15.1093263 180.659321,15.4235137 C181.304614,15.7386532 181.856095,16.1926064 182.313586,16.7872775 C182.771255,17.3811868 183,18.0891558 183,18.9104226 C183,20.1521293 182.546426,21.1438189 181.639633,21.8862533 C180.73284,22.6298301 179.585019,23 178.196169,23 C177.182747,23 176.243378,22.7991105 175.37735,22.3973314 C174.511144,21.9955524 173.898604,21.602723 173.539554,21.2177006 L173,20.615032 Z" id="Fill-8" fill="#000000" mask="url(#mask-2)"></path>
                <path d="M17.1728931,24.0041896 C19.7499384,24.0041896 22.3269837,24.0088169 24.903839,24.0018759 C25.9119754,23.9991767 26.0255736,23.8709615 26.0263335,22.8384922 C26.0278532,21.4238838 26.0415305,20.0088899 26.0115163,18.5952455 C26.0063873,18.3552036 25.8282015,17.9323829 25.6963668,17.9183081 C25.3667801,17.8834105 24.9492402,17.9422159 24.6958289,18.1367559 C24.4236112,18.3453706 24.2864575,18.7446692 24.111691,19.0726301 C23.2011958,20.7804944 21.9939776,22.0641883 19.9207156,22.1224154 C19.0275071,22.14748 18.1335387,22.1976092 17.24128,22.1785216 C16.3501611,22.1590483 16.1928713,21.8513319 16.6824073,21.0905244 C17.428964,19.9304183 18.2043951,18.7892071 18.9840054,17.6514664 C21.2483707,14.3477572 23.5245138,11.0523387 25.7833701,7.74496623 C25.9636455,7.48101655 26.0479893,7.14977801 26.1769745,6.84996665 C25.8481477,6.74508087 25.5200806,6.55111931 25.1908739,6.54899846 C21.5620005,6.52701872 17.9333172,6.53473091 14.3044438,6.53473091 C13.2524258,6.53473091 12.2007877,6.53800859 11.1489596,6.53627335 C10.6455563,6.53550213 10.2601203,6.66121081 10.2627797,7.28416291 C10.2684787,8.61856449 10.2768371,9.95315887 10.2601203,11.2873676 C10.2544214,11.7383379 10.4871267,11.8038915 10.8516667,11.8189303 C11.6172197,11.8507431 11.7710902,11.1761193 12.0588849,10.7178225 C12.8071513,9.52590358 13.6855426,8.55204686 15.1592797,8.37216004 C15.7331595,8.30217192 16.3117885,8.19304444 16.8839586,8.21560259 C17.4042687,8.23603989 17.9185,8.4112994 18.4353908,8.51849883 C18.251886,9.00108909 18.1544347,9.54460564 17.871389,9.95662936 C14.9108074,14.2642728 11.917932,18.5489724 8.94595255,22.848518 C8.78144414,23.0866319 8.7233153,23.400518 8.61560597,23.6791208 C8.91745802,23.7880555 9.21836026,23.9885724 9.52116213,23.9916573 C12.0714225,24.0169147 14.6222528,24.0061176 17.1728931,24.0041896 M52.1974191,10.1361306 C52.5342245,10.7907026 52.8436751,10.8344693 53.344229,10.4147334 C54.412014,9.51934822 55.6009957,8.87711564 57.0390196,8.80519947 C59.0399055,8.70532662 60.3052526,9.74203769 60.4122021,11.6228479 C60.4902771,12.9923399 60.2252779,13.224284 58.8556409,13.4462023 C57.2795135,13.7012829 55.6807804,13.9532787 54.1734198,14.4578487 C53.2198029,14.7773262 52.2925909,15.430163 51.5711094,16.1562656 C50.2943645,17.4418876 50.3165902,19.1323995 50.6395282,20.8074871 C50.9016779,22.1671461 51.6170805,23.2269937 52.8894563,23.7978885 C54.6494684,24.5872311 56.4290467,24.7220016 58.198557,23.7913332 C58.7338743,23.5100311 59.2792596,23.2480094 59.8121073,22.9616944 C60.2397152,22.7320639 60.5983663,22.7455603 60.7218426,23.280015 C60.8665948,23.9075944 61.2478516,24.0253981 61.819072,24.0161435 C63.5790841,23.9876084 65.3404259,24.0292542 67.1000581,23.9908861 C67.543433,23.981053 68.2852406,23.8798305 68.3678747,23.6376678 C68.6292645,22.8685697 67.8283783,22.7966535 67.3673368,22.6048128 C66.5373861,22.2589211 66.0993302,21.7088492 66.1190864,20.7847361 C66.1283947,20.3596017 66.0729253,19.9331176 66.0719755,19.5074047 C66.0664665,16.7073016 66.0962908,13.9064272 66.058868,11.1067096 C66.0231549,8.43790645 64.7323527,6.82239557 62.1395404,6.43080915 C60.6496565,6.20580603 59.0957548,6.16859471 57.5986522,6.32360972 C56.5435947,6.43293001 55.3946953,6.80889924 54.5440386,7.42857366 C53.6141671,8.1058967 52.9796889,9.20083479 52.1974191,10.1361306 M39.1619317,23.9160778 C39.2610926,23.9419137 39.3610135,23.9903077 39.4609343,23.9906933 C42.379534,23.9974414 45.2983236,24.0066961 48.2167333,23.9866444 C48.4169549,23.9852947 48.7807351,23.7573995 48.7803551,23.6355469 C48.7795953,23.3914561 48.6314237,23.0912592 48.4482989,22.9190845 C48.2469375,22.7295575 47.937107,22.6593766 47.6759072,22.5342463 C46.9555655,22.188933 46.4949039,21.6947745 46.5446743,20.802667 C46.5891258,20.004841 46.5507532,19.2021948 46.5389754,18.4016696 C46.499843,15.7617871 46.4971835,13.1199767 46.4016318,10.4820223 C46.3250765,8.36309822 44.9902028,6.82278118 42.9439156,6.37913749 C40.7238118,5.89770406 38.6332632,6.17746373 36.6724596,7.43705707 C35.8436487,7.96939095 35.6255706,7.82228093 35.3900158,6.84090483 C35.2963638,6.45028243 35.1996724,6.19790103 34.7333119,6.26866037 C32.6553008,6.58466733 30.5746303,6.8804298 28.4983289,7.206077 C28.3406592,7.230756 28.0956062,7.42915208 28.091617,7.55293272 C28.0843984,7.78217755 28.159244,8.10666792 28.3197632,8.22852051 C28.6286439,8.46258546 29.0140799,8.60101926 29.3803296,8.74658684 C30.0051196,8.99472653 30.3388855,9.38303527 30.3379357,10.1222486 C30.3350863,13.2965858 30.3485737,16.4713086 30.4114516,19.6446817 C30.4410859,21.1389184 30.2473231,22.4206843 28.5427804,22.8325152 C28.4931999,22.8446619 28.4253829,22.8677985 28.4060066,22.9065522 C28.2857597,23.1479438 28.0954162,23.3960835 28.0986456,23.6397886 C28.1003553,23.7631837 28.4578667,23.9852947 28.6558087,23.98703 C31.5217884,24.0097809 34.3881482,24.0070817 37.253938,23.9928141 C37.4342134,23.9922357 37.7410045,23.8769385 37.7668395,23.7631837 C37.8198393,23.5289259 37.7670295,23.2402972 37.6709079,23.0118236 C37.6087899,22.8635568 37.4045791,22.7571286 37.2431101,22.6746081 C36.3257762,22.206671 36.0552681,21.4346809 36.0740745,20.4346027 C36.1137769,18.3004471 36.0862322,16.164749 36.0888916,14.0296294 C36.0904114,12.7754346 36.0702752,11.520083 36.1099776,10.267045 C36.1428413,9.24228781 36.5432844,8.83604823 37.5328044,8.67949079 C39.5842206,8.35519322 40.6596042,9.14087252 40.7232419,11.2237421 C40.8161341,14.2633087 40.7498368,17.3073099 40.8129047,20.3482262 C40.8349405,21.41675 40.5701313,22.2230594 39.577002,22.7041073 C39.06676,22.9512829 38.9400543,23.3702476 39.1619317,23.9160778 M101,0 L101,0.800910872 C100.933513,0.971157454 100.84385,1.1360055 100.803578,1.31242184 C99.9785661,4.91979844 99.150895,8.52659663 98.3408905,12.1376365 C97.2569586,16.9697088 96.1796754,21.8033235 95.1219585,26.64118 C94.9861345,27.2627824 94.7256945,27.5115005 94.0735497,27.5242257 C93.1049257,27.5433133 92.1387712,27.6950507 91.1718568,27.7933811 C87.8524341,28.1313678 84.5335812,28.4745602 81.2135886,28.808498 C77.6848261,29.1634515 74.1549237,29.5070296 70.6261612,29.8619831 C67.2541185,30.2015122 63.8832157,30.5562729 60.5106032,30.891946 C55.7784216,31.3629679 51.0439606,31.8114318 46.3125389,32.2907443 C41.6331673,32.7646584 36.9581648,33.2788686 32.2787931,33.7496978 C27.5735864,34.2228406 22.8647704,34.654916 18.1591838,35.1230459 C13.2702824,35.6092994 8.38290065,36.1115558 3.49589886,36.6215243 C2.64258268,36.7106001 1.79629515,36.8721705 0.946778237,37 L0,37 C0.00854835888,36.5735159 0.024695259,36.1470318 0.024695259,35.7205478 C0.0258350402,24.1647959 0.0256450767,12.6088513 0.0256450767,1.05309947 L0.0256450767,0.0258358346 L1.17986349,0.0258358346 C24.0300067,0.0258358346 46.87958,0.0262214441 69.7297233,0.0250646156 C71.299202,0.0250646156 72.1956399,0.670382066 72.1701848,2.44881295 C72.0894503,8.10531828 72.1069269,13.7641373 72.1604966,19.4214138 C72.1760736,21.0430945 72.0239128,22.4041031 70.1976035,22.9175421 C70.0108693,22.9697922 69.876755,23.3976259 69.8321136,23.6704446 C69.819576,23.7473737 70.210141,23.9905005 70.4168214,23.9922357 C73.4142559,24.0130586 76.4118804,24.0130586 79.409315,23.9897292 C79.6074469,23.9881868 79.9645784,23.758942 79.9660981,23.6320765 C79.9691375,23.3901065 79.8173566,23.0958865 79.6389809,22.9163853 C79.4636446,22.7399689 79.1781294,22.6734513 78.9368757,22.5681799 C78.1813907,22.2390622 77.804883,21.6866767 77.8187503,20.8263819 C77.8421159,19.3589451 77.7950049,17.8903514 77.8364169,16.4238786 C77.8443954,16.1452758 78.1240217,15.8743851 78.2782721,15.600024 C78.508128,15.7669929 78.815489,15.8842182 78.9556821,16.1086429 C80.2641509,18.2025023 81.5515337,20.3098581 82.8288485,22.4233836 C83.4749145,23.4928714 84.3675531,24.0408225 85.6279611,24.0142154 C87.2048484,23.9806674 88.7830654,24.0155651 90.3607125,23.9985983 C90.5981669,23.9960918 91.0335634,23.8794449 91.0364128,23.8027086 C91.0478106,23.4870873 91.0219756,23.0895239 90.8403704,22.8604719 C89.6890015,21.4092307 88.4276436,20.0439803 87.3273749,18.5551422 C85.941401,16.6799233 84.6555378,14.7264257 83.378603,12.7717713 C83.1935785,12.4885411 83.1251916,11.8727228 83.2995781,11.6465629 C84.0077622,10.7282339 84.7497597,9.79833667 85.6385991,9.07358367 C86.3762275,8.47184009 87.3533999,8.18051213 88.1898093,7.69040249 C88.4555683,7.53442346 88.6096287,7.1819764 88.8147893,6.91937635 C88.5433314,6.79154682 88.2739631,6.55806028 88.0002257,6.55285455 C86.2128588,6.51949933 84.4239723,6.50831666 82.6369853,6.55266175 C82.1442199,6.56480845 81.4033622,6.19558738 81.1917428,6.8927693 C80.9533386,7.67825579 81.7967766,7.76675317 82.2595278,8.02588273 C82.8176407,8.33861201 82.982529,8.66946494 82.5961432,9.2297555 C81.9489374,10.1689074 81.321108,11.1219412 80.6839703,12.0682268 C80.0162485,13.0598216 79.0928357,13.543183 77.8599724,13.5470391 L77.8599724,0.0260286393 C79.2157421,0.0260286393 80.5242109,0.0273782725 81.8326797,0.0258358346 C88.2219131,0.0175452309 94.6109566,0.00867621311 101,0" id="Fill-9" fill="#000000" mask="url(#mask-2)"></path>
                <path d="M58.9960194,18.053927 C58.9963672,18.7315072 59.0059301,19.4094799 58.9941068,20.0868637 C58.976372,21.1148148 58.6348894,21.5904164 57.7328468,21.8799386 C56.8061145,22.1775085 55.9579719,21.922729 55.5832799,21.1067671 C54.8747557,19.5641534 54.8472841,17.9165267 55.3092593,16.2981465 C55.4262745,15.8881046 55.887728,15.4517602 56.2692009,15.323389 C56.9462545,15.0953044 57.6817287,15.0750869 58.3956429,15.0042276 C58.8063262,14.9637926 59.0066255,15.2148427 58.9989752,15.6959403 C58.9864565,16.4816742 58.9956717,17.2678006 58.9960194,18.053927" id="Fill-10" fill="#000000" mask="url(#mask-2)"></path>
            </g>
        </g>
    </g>
</svg>