<?xml version="1.0" encoding="UTF-8" standalone="no"?>
<svg width="16px" height="16px" viewBox="0 0 16 16" version="1.1" xmlns="http://www.w3.org/2000/svg" xmlns:xlink="http://www.w3.org/1999/xlink">
    <!-- Generator: Sketch 48.2 (47327) - http://www.bohemiancoding.com/sketch -->
    <title>Fill 1</title>
    <desc>Created with Sketch.</desc>
    <defs></defs>
    <g id="Desktop-HD-Copy-23" stroke="none" stroke-width="1" fill="none" fill-rule="evenodd" transform="translate(-1390.000000, -35.000000)">
        <g id="Page-1" transform="translate(1390.000000, 35.000000)" fill="#FFFFFF">
            <g id="Fill-1">
                <path d="M6.57809233,10.8757401 C4.20450838,10.8757401 2.28044456,8.95143118 2.28044456,6.57809233 C2.28044456,4.20450838 4.20450838,2.28044456 6.57809233,2.28044456 C8.95167628,2.28044456 10.8759852,4.20450838 10.8759852,6.57809233 C10.8759852,8.95143118 8.95167628,10.8757401 6.57809233,10.8757401 M15.6084469,13.7174721 L12.1326317,10.2416569 C12.1140038,10.2232741 12.0924347,10.2102836 12.0730715,10.1931264 C12.7569108,9.15560253 13.1561847,7.91366223 13.1561847,6.57809233 C13.1561847,2.94516571 10.2110189,0 6.57809233,0 C2.94516571,0 0,2.94516571 0,6.57809233 C0,10.2110189 2.94516571,13.1561847 6.57809233,13.1561847 C7.91366223,13.1561847 9.15535743,12.7571559 10.1931264,12.0730715 C10.2102836,12.0924347 10.223029,12.1140038 10.2416569,12.1323866 L13.7174721,15.6084469 C14.2395429,16.1305177 15.086131,16.1305177 15.6084469,15.6084469 C16.1305177,15.0863761 16.1305177,14.239788 15.6084469,13.7174721"></path>
            </g>
        </g>
    </g>
</svg>