<?xml version="1.0" encoding="utf-8"?>
<!-- Generator: Adobe Illustrator 16.0.0, SVG Export Plug-In . SVG Version: 6.00 Build 0)  -->
<!DOCTYPE svg PUBLIC "-//W3C//DTD SVG 1.1//EN" "http://www.w3.org/Graphics/SVG/1.1/DTD/svg11.dtd">
<svg version="1.1" id="Warstwa_1" xmlns="http://www.w3.org/2000/svg" xmlns:xlink="http://www.w3.org/1999/xlink" x="0px" y="0px"
	 width="200.365px" height="209.659px" viewBox="0 0 200.365 209.659" enable-background="new 0 0 200.365 209.659"
	 xml:space="preserve">
<g>
	<polygon fill="#FFFFFF" points="41.339,155.512 48.932,155.512 48.932,175.347 53.447,175.347 53.447,155.512 61.035,155.512 
		61.035,151.41 41.339,151.41 	"/>
	<polygon fill="#FFFFFF" points="66.104,175.347 84.026,175.347 84.026,170.899 70.583,170.899 70.583,165.497 83.546,165.497 
		83.546,161.292 70.583,161.292 70.583,155.782 84.026,155.782 84.026,151.41 66.104,151.41 	"/>
	<path fill="#FFFFFF" d="M98.186,151.406l-10.741,23.937h4.894l2.052-4.511h12.517l2.016,4.511h4.929l-10.744-23.937H98.186z
		 M96.198,166.626l4.451-10.192l4.444,10.192H96.198z"/>
	<polygon fill="#FFFFFF" points="112.96,155.512 120.552,155.512 120.552,175.347 125.067,175.347 125.067,155.512 132.656,155.512 
		132.656,151.41 112.96,151.41 	"/>
	<path fill="#FFFFFF" d="M151.779,166.864c4.548-0.926,6.05-4.237,6.05-7.521c0-4.142-2.973-7.902-8.617-7.934
		c-3.797,0-7.593-0.04-11.385-0.04v23.977h4.512v-8.005h4.345l6.976,8.005h5.371v-0.31L151.779,166.864z M142.339,163.271v-7.656
		h6.873c2.838,0,4.105,1.916,4.105,3.828c0,1.916-1.229,3.828-4.105,3.828H142.339z"/>
	<path fill="#FFFFFF" d="M11.937,199.229h6.121v4.237c-1.88,1.502-3.525,1.916-5.405,1.916c-5.946,0-8.24-4.066-8.24-8.005
		c0-4.921,3.112-8.816,8.24-8.816c2.087,0,4.479,0.851,6.09,2.393l2.802-2.874c-2.46-2.429-5.676-3.661-8.892-3.661
		C4.206,184.417,0,190.643,0,197.376c0,6.296,3.661,12.211,12.652,12.211c4.21,0,7.183-1.61,9.544-4.309V195.19h-10.26V199.229z"/>
	<path fill="#FFFFFF" d="M47.981,193.036c0-4.138-2.973-7.898-8.613-7.934c-3.801,0-7.597-0.032-11.389-0.032v23.973h4.512v-8.001
		h4.345l6.976,8.001h5.371v-0.31l-7.251-8.172C46.479,199.634,47.981,196.319,47.981,193.036 M32.491,196.971v-7.664h6.877
		c2.834,0,4.102,1.916,4.102,3.832s-1.232,3.832-4.102,3.832H32.491z"/>
	<path fill="#FFFFFF" d="M64.677,184.625c-8.28,0-12.314,6.328-12.314,12.616c0,6.292,3.899,12.346,12.314,12.346
		c8.41,0,12.211-6.189,12.274-12.378C77.022,190.953,72.917,184.625,64.677,184.625 M64.677,205.449
		c-5.645,0-7.768-4.202-7.871-8.137c-0.1-4.039,2.227-8.586,7.871-8.586c5.641,0,7.898,4.516,7.83,8.55
		C72.439,201.208,70.317,205.449,64.677,205.449"/>
	<polygon fill="#FFFFFF" points="78.854,189.208 86.447,189.208 86.447,209.039 90.963,209.039 90.963,189.208 98.555,189.208 
		98.555,185.105 78.854,185.105 	"/>
	<polygon fill="#FFFFFF" points="102.613,209.039 120.532,209.039 120.532,204.595 107.093,204.595 107.093,199.197 
		120.056,199.197 120.056,194.983 107.093,194.983 107.093,189.478 120.532,189.478 120.532,185.102 102.613,185.102 	"/>
	<path fill="#FFFFFF" d="M136.106,194.403c-2.874-0.342-5.339-0.922-5.339-3.005c0-1.781,1.61-3.184,4.961-3.184
		c2.6,0,4.857,1.3,5.677,2.667l3.589-1.844c-1.812-3.693-5.672-4.754-9.4-4.754c-4.413,0.036-9.271,2.051-9.271,6.976
		c0,5.37,4.516,6.666,9.405,7.246c3.18,0.342,5.541,1.268,5.541,3.53c0,2.592-2.671,3.585-5.505,3.585
		c-2.91,0-5.677-1.161-6.738-3.796l-3.764,1.952c1.776,4.372,5.541,5.883,10.43,5.883c5.339,0,10.053-2.298,10.053-7.624
		C145.745,196.319,141.099,195.019,136.106,194.403"/>
	<polygon fill="#FFFFFF" points="170.351,185.236 170.351,185.102 164.741,185.102 155.644,195.222 155.644,185.102 
		151.132,185.102 151.132,209.039 155.644,209.039 155.644,198.441 165.664,209.039 171.237,209.039 171.237,208.768 159.714,196.7 
			"/>
	<path fill="#FFFFFF" d="M189.629,185.102h-4.925l-10.736,23.937h4.889l2.056-4.516h12.509l2.02,4.516h4.925L189.629,185.102z
		 M182.721,200.321l4.448-10.191l4.443,10.191H182.721z"/>
	<path fill="#FFFFFF" d="M159.214,91.686c1.431-3.022,2.621-6.177,3.552-9.439c0.136-0.481,0.267-0.961,0.39-1.445
		c0.111-0.427,0.219-0.853,0.317-1.283c0.122-0.516,0.242-1.031,0.349-1.55c0.135-0.647,0.27-1.297,0.382-1.95
		c0.051-0.273,0.091-0.545,0.134-0.821c0.127-0.791,0.25-1.583,0.346-2.387c0.02-0.119,0.031-0.241,0.043-0.363
		c0.107-0.926,0.198-1.858,0.267-2.797l-57.73-3.379l19.015,13.198c-5.087,8.776-14.351,14.162-24.59,14.162
		c-15.688,0-28.448-12.764-28.448-28.446c0-15.689,12.76-28.453,28.448-28.453c15.066,0,27.542,11.765,28.402,26.783
		c0.012,0.248,0.008,1.043,0.004,2.151l33.983-7.269c-0.191-1.783-0.453-3.549-0.794-5.283c-0.021-0.101-0.035-0.2-0.055-0.297
		c-0.172-0.845-0.357-1.683-0.556-2.517c-0.027-0.095-0.048-0.188-0.072-0.282c-0.448-1.794-0.971-3.557-1.562-5.286
		c-0.07-0.19-0.139-0.378-0.206-0.569c-0.23-0.64-0.464-1.275-0.713-1.903c-0.096-0.248-0.194-0.492-0.29-0.736
		c-0.257-0.635-0.523-1.259-0.802-1.876c-0.087-0.19-0.166-0.382-0.25-0.568c-0.341-0.735-0.693-1.466-1.058-2.186
		c-0.175-0.341-0.354-0.674-0.532-1.011c-0.209-0.403-0.423-0.799-0.646-1.194c-0.212-0.381-0.429-0.764-0.655-1.141
		c-0.19-0.329-0.389-0.654-0.583-0.979c-0.907-1.487-1.871-2.926-2.895-4.329c-0.155-0.212-0.306-0.422-0.463-0.634
		c-0.33-0.439-0.663-0.869-1.001-1.295c-0.056-0.07-0.106-0.135-0.162-0.203c-1.77-2.216-3.688-4.316-5.738-6.274
		c-0.021-0.025-0.044-0.045-0.067-0.065c-2.022-1.93-4.176-3.724-6.441-5.374c-0.158-0.112-0.321-0.232-0.479-0.345
		c-0.725-0.52-1.472-1.023-2.225-1.515c-0.155-0.101-0.311-0.202-0.468-0.303c-0.012-0.008-0.023-0.016-0.04-0.03
		c-0.372-0.24-0.758-0.474-1.139-0.702c-0.297-0.183-0.594-0.357-0.892-0.532c-0.595-0.345-1.189-0.682-1.796-1.008
		c-0.273-0.15-0.552-0.296-0.829-0.441c-0.063-0.038-0.132-0.073-0.202-0.111c-0.333-0.17-0.663-0.341-1-0.507
		c-0.464-0.23-0.939-0.454-1.42-0.674c-0.146-0.067-0.298-0.141-0.447-0.21c-0.294-0.135-0.592-0.265-0.894-0.395
		c-0.415-0.183-0.832-0.357-1.252-0.528c-0.115-0.05-0.231-0.101-0.346-0.147c-0.349-0.137-0.693-0.275-1.043-0.41
		c-0.382-0.141-0.766-0.284-1.149-0.422c-0.194-0.068-0.385-0.141-0.579-0.211c-0.246-0.085-0.5-0.174-0.75-0.255
		c-0.48-0.163-0.964-0.31-1.443-0.457c-0.263-0.083-0.522-0.17-0.785-0.246c-0.203-0.058-0.405-0.115-0.607-0.17
		c-0.381-0.111-0.772-0.208-1.157-0.309c-0.302-0.077-0.6-0.163-0.9-0.24c-0.159-0.036-0.317-0.077-0.472-0.117
		c-0.604-0.143-1.202-0.264-1.81-0.391c-0.206-0.04-0.407-0.089-0.61-0.128c-0.202-0.042-0.408-0.078-0.61-0.12
		c-0.517-0.093-1.039-0.174-1.559-0.26c-0.317-0.049-0.63-0.108-0.948-0.158c-0.099-0.012-0.202-0.023-0.305-0.036
		c-0.535-0.077-1.082-0.134-1.621-0.196c-0.263-0.028-0.517-0.063-0.783-0.093c-0.155-0.016-0.309-0.032-0.459-0.044
		c-0.742-0.069-1.484-0.117-2.233-0.162c-0.119-0.004-0.237-0.017-0.364-0.024c-0.172-0.01-0.345-0.018-0.516-0.026
		c-0.9-0.036-1.808-0.06-2.716-0.06c-34.611,0-62.771,28.157-62.771,62.771c0,34.611,28.16,62.766,62.771,62.766
		c0.979,0,1.949-0.025,2.918-0.069c0.305-0.014,0.61-0.042,0.916-0.058c0.413-0.023,0.829-0.058,1.241-0.089
		c0.242-0.02,0.484-0.034,0.725-0.053c0.374-0.032,0.735-0.077,1.101-0.113c0.324-0.038,0.645-0.077,0.967-0.117
		c0.267-0.034,0.535-0.062,0.797-0.095c0.386-0.051,0.766-0.109,1.143-0.167c0.571-0.089,1.146-0.187,1.713-0.288
		c0.369-0.069,0.75-0.139,1.119-0.216c0.178-0.032,0.353-0.071,0.53-0.113c0.393-0.082,0.789-0.167,1.182-0.256
		c0.35-0.082,0.702-0.159,1.052-0.244c0.27-0.069,0.535-0.145,0.801-0.214c0.357-0.098,0.714-0.188,1.071-0.29
		c0.281-0.078,0.566-0.149,0.845-0.229c0.658-0.197,1.309-0.411,1.955-0.627c0.217-0.069,0.437-0.128,0.653-0.202
		c0.279-0.098,0.56-0.208,0.841-0.31c0.29-0.105,0.584-0.214,0.873-0.325c0.29-0.106,0.583-0.211,0.872-0.324
		c0.369-0.143,0.734-0.302,1.1-0.452c0.483-0.199,0.963-0.399,1.439-0.609c0.4-0.178,0.796-0.36,1.19-0.545
		c0.428-0.203,0.856-0.405,1.279-0.617c0.413-0.202,0.812-0.406,1.219-0.616c0.399-0.212,0.797-0.427,1.197-0.646
		c0.404-0.222,0.817-0.446,1.221-0.683c0.008-0.004,0.013-0.007,0.021-0.011c0.36-0.21,0.722-0.43,1.087-0.646
		c0.412-0.256,0.828-0.504,1.241-0.764c0.245-0.156,0.487-0.319,0.729-0.481c0.063-0.042,0.122-0.082,0.182-0.123
		c0.952-0.629,1.889-1.287,2.808-1.965c0.18-0.133,0.366-0.26,0.544-0.399c0.456-0.345,0.904-0.706,1.353-1.067
		c0.25-0.196,0.495-0.395,0.737-0.593c0.439-0.363,0.868-0.731,1.297-1.104c0.238-0.212,0.484-0.423,0.722-0.638
		c0.433-0.389,0.861-0.784,1.281-1.186c0.056-0.052,0.114-0.105,0.167-0.163c0.162-0.151,0.321-0.303,0.476-0.458
		c0.429-0.418,0.853-0.841,1.265-1.267c0.179-0.183,0.354-0.371,0.527-0.558c0.444-0.47,0.888-0.942,1.316-1.426
		c0.08-0.089,0.155-0.182,0.234-0.271c2.085-2.379,3.993-4.914,5.707-7.581c0.027-0.045,0.06-0.095,0.091-0.139
		c0.036-0.062,0.076-0.123,0.116-0.183c0.384-0.605,0.749-1.215,1.109-1.832c0.016-0.028,0.032-0.058,0.047-0.082
		c0.068-0.113,0.136-0.228,0.199-0.345c0.361-0.617,0.705-1.24,1.035-1.868c0.067-0.131,0.135-0.259,0.203-0.391
		c0.344-0.656,0.677-1.318,0.998-1.989c0.012-0.029,0.024-0.053,0.036-0.082C159.186,91.747,159.202,91.713,159.214,91.686"/>
	<path d="M164.551,67.871l-11.834-0.857l13.198-7.025c-1.158-14.481-6.766-27.846-16.16-37.727
		c-1.364-1.438-4.192-4.231-5.644-5.583c-5.532-5.15-12.241-8.975-19.413-11.729c-5.921-2.476-12.289-4.23-19.011-4.666
		c-1.853-0.12-5.561-0.26-7.412-0.279C83.201-0.178,68.424,5.227,57.026,15.079c-1.296,1.124-3.838,3.437-5.079,4.626
		c-10.391,9.953-16.736,23.409-18.716,37.649c-0.424,3.034-0.638,6.131-0.638,9.214c0,36.715,29.87,66.584,66.585,66.584
		c17.098,0,33.452-6.45,46.051-18.166c5.668-5.275,10.003-11.277,13.036-17.925c4.962-8.557,7.892-18.155,8.463-28.179l0.02-0.345
		l0.032-0.519l-0.524-0.03L164.551,67.871z M164.674,72.444v0.003c-0.003,0.022-0.003,0.042-0.008,0.062
		c-0.13,1.142-0.297,2.274-0.488,3.395c-0.011,0.037-0.019,0.073-0.027,0.113l0,0c-0.373,2.116-0.856,4.196-1.436,6.23
		c-0.933,3.262-2.125,6.417-3.549,9.439c-0.017,0.028-0.028,0.06-0.04,0.089c-0.012,0.028-0.023,0.052-0.04,0.082
		c-0.317,0.668-0.653,1.331-0.994,1.989c-0.068,0.131-0.136,0.26-0.206,0.391c-0.333,0.628-0.679,1.251-1.032,1.868
		c-0.075,0.137-0.158,0.271-0.237,0.41c0,0.004-0.005,0.012-0.008,0.016c-0.361,0.617-0.73,1.226-1.111,1.832
		c-0.04,0.06-0.078,0.121-0.123,0.183c-0.008,0.016-0.02,0.031-0.028,0.048c-0.02,0.029-0.034,0.058-0.051,0.085
		c-1.182,1.84-2.467,3.611-3.827,5.316c-0.61,0.771-1.236,1.53-1.887,2.27c-0.076,0.09-0.155,0.183-0.23,0.271
		c-0.436,0.488-0.876,0.963-1.324,1.434c-0.172,0.182-0.342,0.361-0.516,0.545c-0.417,0.43-0.846,0.86-1.277,1.278
		c-0.214,0.207-0.425,0.415-0.634,0.613c-0.426,0.402-0.85,0.799-1.286,1.189c-0.217,0.195-0.439,0.395-0.665,0.585
		c-0.021,0.016-0.036,0.032-0.053,0.05c-0.433,0.373-0.855,0.741-1.297,1.102c-0.237,0.2-0.482,0.391-0.726,0.585
		c-0.456,0.367-0.904,0.728-1.368,1.081c-0.174,0.13-0.349,0.251-0.52,0.378c-0.915,0.682-1.853,1.331-2.804,1.965
		c-0.008,0.004-0.02,0.008-0.024,0.017c-0.043,0.031-0.099,0.061-0.142,0.093c-0.254,0.17-0.512,0.345-0.77,0.511
		c-0.412,0.26-0.829,0.508-1.249,0.764c-0.366,0.22-0.729,0.444-1.099,0.658c-0.409,0.236-0.818,0.46-1.222,0.683
		c-0.4,0.22-0.797,0.434-1.201,0.646c-0.4,0.21-0.802,0.415-1.214,0.616c-0.421,0.212-0.853,0.415-1.281,0.617
		c-0.4,0.182-0.794,0.371-1.193,0.545c-0.464,0.207-0.938,0.402-1.408,0.601c-0.008,0-0.012,0.004-0.02,0.008c0,0-0.004,0-0.009,0
		c-0.364,0.15-0.729,0.309-1.097,0.45c-0.564,0.224-1.136,0.43-1.702,0.634c-0.017,0.004-0.032,0.012-0.049,0.016
		c-0.205,0.077-0.411,0.155-0.617,0.228c-0.079,0.024-0.151,0.055-0.231,0.082c-0.856,0.291-1.724,0.567-2.596,0.826
		c-0.282,0.086-0.564,0.155-0.85,0.232c-0.353,0.102-0.71,0.19-1.067,0.288c-0.24,0.061-0.479,0.131-0.722,0.192
		c-0.028,0.008-0.051,0.016-0.074,0.024h-0.005c-0.186,0.046-0.373,0.085-0.559,0.131c-0.171,0.035-0.337,0.077-0.504,0.113
		c-0.258,0.062-0.512,0.113-0.771,0.167c-0.133,0.032-0.265,0.062-0.399,0.089c-0.179,0.042-0.354,0.081-0.531,0.113
		c-0.381,0.078-0.758,0.147-1.135,0.216c-0.562,0.101-1.126,0.198-1.693,0.288c-0.38,0.057-0.766,0.115-1.149,0.167
		c-0.263,0.038-0.528,0.062-0.797,0.093c-0.322,0.042-0.644,0.082-0.965,0.119c-0.364,0.036-0.733,0.081-1.098,0.113
		c-0.242,0.02-0.487,0.031-0.729,0.053c-0.417,0.032-0.826,0.066-1.237,0.089c-0.307,0.016-0.611,0.043-0.922,0.056
		c-0.968,0.046-1.938,0.069-2.918,0.069c-34.612,0-62.77-28.155-62.77-62.767c0-34.612,28.157-62.771,62.77-62.771
		c0.9,0,1.796,0.025,2.686,0.062c0.012,0,0.02,0,0.026,0.004h0.006c0.174,0.004,0.344,0.012,0.519,0.02
		c0.123,0.008,0.242,0.022,0.364,0.026c0.044,0.003,0.087,0.008,0.132,0.012c0.69,0.04,1.38,0.082,2.066,0.146
		c0.166,0.016,0.328,0.032,0.496,0.048c0.776,0.081,1.55,0.17,2.32,0.275c0.13,0.022,0.257,0.034,0.387,0.05
		c0.318,0.05,0.631,0.109,0.944,0.158c0.071,0.012,0.147,0.024,0.214,0.037c0.434,0.073,0.869,0.138,1.301,0.216
		c0.219,0.04,0.433,0.081,0.65,0.125c0.211,0.042,0.414,0.089,0.62,0.131c0.043,0.012,0.09,0.02,0.133,0.028
		c0.54,0.113,1.087,0.224,1.626,0.353c0.013,0,0.025,0.006,0.037,0.01c0.003,0,0.003,0,0.008,0c0.158,0.04,0.316,0.08,0.472,0.121
		c0.654,0.159,1.305,0.333,1.956,0.516c0.237,0.065,0.475,0.129,0.705,0.198c0.725,0.212,1.44,0.435,2.149,0.67
		c0.281,0.093,0.555,0.192,0.836,0.289c0.556,0.194,1.107,0.397,1.658,0.609c0.02,0.008,0.04,0.016,0.06,0.024
		c0.004,0,0.008,0,0.008,0c0.35,0.135,0.698,0.272,1.043,0.41c0.499,0.205,0.995,0.41,1.488,0.621
		c0.035,0.017,0.074,0.034,0.11,0.05c0,0,0.004,0,0.004,0.004c0.301,0.128,0.599,0.259,0.893,0.395
		c0.15,0.067,0.297,0.141,0.447,0.21c0.032,0.012,0.06,0.027,0.092,0.046c0.411,0.186,0.82,0.376,1.229,0.577
		c0.369,0.183,0.729,0.373,1.099,0.559c0.313,0.167,0.631,0.333,0.943,0.5c0.401,0.22,0.793,0.446,1.194,0.674
		c0.23,0.131,0.46,0.256,0.689,0.387c0,0.004,0.004,0.004,0.004,0.004c0.017,0.008,0.027,0.015,0.04,0.023
		c0.237,0.143,0.48,0.276,0.718,0.423c0.425,0.255,0.849,0.519,1.27,0.787c0.15,0.093,0.289,0.192,0.439,0.286
		c0.02,0.011,0.04,0.027,0.06,0.04c0.004,0,0.008,0.003,0.012,0.003c0.745,0.492,1.492,0.996,2.221,1.515l0,0
		c0.017,0.012,0.028,0.02,0.044,0.032c0.107,0.078,0.215,0.154,0.325,0.231c0.036,0.024,0.072,0.054,0.106,0.082h0.006l0.003,0.004
		c2.26,1.646,4.406,3.432,6.425,5.352c0.003,0.008,0.008,0.012,0.016,0.018c2.082,1.985,4.033,4.113,5.825,6.371
		c-0.016-0.024-0.036-0.049-0.051-0.078c0.134,0.17,0.261,0.35,0.396,0.52c0.267,0.337,0.531,0.678,0.793,1.023
		c0.004,0.008,0.009,0.016,0.016,0.022c0.135,0.182,0.271,0.365,0.4,0.547c0.017,0.019,0.033,0.043,0.048,0.065
		c0.012,0.016,0.023,0.032,0.031,0.052c0.484,0.658,0.952,1.332,1.409,2.01c0.03,0.05,0.067,0.102,0.099,0.151
		c0.46,0.69,0.907,1.388,1.344,2.1c0.004,0.004,0.009,0.012,0.009,0.016c0.004,0.008,0.007,0.012,0.012,0.02
		c0.189,0.313,0.381,0.626,0.566,0.941c0.005,0.004,0.009,0.008,0.009,0.018c0.226,0.376,0.439,0.758,0.653,1.141v0.004
		c0.206,0.373,0.417,0.751,0.615,1.128c0.012,0.022,0.023,0.042,0.032,0.062c0.179,0.336,0.356,0.669,0.526,1.011
		c0.005,0,0.005,0.004,0.005,0.008c0.376,0.74,0.737,1.491,1.091,2.251c0.071,0.166,0.142,0.333,0.214,0.495
		c0.012,0.016,0.016,0.037,0.023,0.052c0.321,0.72,0.626,1.445,0.92,2.177c0.053,0.125,0.104,0.252,0.151,0.381
		c0,0.004,0.004,0.008,0.004,0.012c0.245,0.618,0.476,1.239,0.697,1.866c0.005,0.007,0.005,0.02,0.009,0.027
		c0.07,0.191,0.139,0.377,0.206,0.569c0.004,0.004,0.004,0.012,0.008,0.016c0.599,1.741,1.122,3.515,1.571,5.324
		c0.02,0.078,0.034,0.155,0.051,0.228c0.004,0.008,0.004,0.02,0.008,0.028c0.638,2.627,1.123,5.316,1.419,8.068l-33.998,7.269
		c0.004-1.108,0.009-1.903-0.008-2.151c-0.856-15.018-13.337-26.783-28.403-26.783c-15.685,0-28.446,12.764-28.446,28.45
		c0,15.685,12.762,28.449,28.446,28.449c10.24,0,19.508-5.385,24.596-14.158l-19.017-13.202l57.731,3.379
		C164.877,70.587,164.785,71.518,164.674,72.444"/>
</g>
</svg>
