<?xml version="1.0" encoding="UTF-8" standalone="no"?>
<svg width="120px" height="35px" viewBox="0 0 120 35" version="1.1" xmlns="http://www.w3.org/2000/svg" xmlns:xlink="http://www.w3.org/1999/xlink">
    <!-- Generator: Sketch 50.2 (55047) - http://www.bohemiancoding.com/sketch -->
    <title>Groteska-logo-zle</title>
    <desc>Created with Sketch.</desc>
    <defs>
        <polygon id="path-1" points="0 0.222472727 13.2769149 0.222472727 13.2769149 15.2317455 0 15.2317455"></polygon>
        <polygon id="path-3" points="0.0212553191 0.629681818 15.8125532 0.629681818 15.8125532 14.9052273 0.0212553191 14.9052273"></polygon>
    </defs>
    <g id="Page-1" stroke="none" stroke-width="1" fill="none" fill-rule="evenodd">
        <g id="Desktop-HD-Copy-91" transform="translate(-191.000000, -22.000000)">
            <g id="Groteska-logo-zle" transform="translate(191.000000, 22.000000)">
                <g id="Group-21">
                    <polygon id="Fill-1" fill="#FEFEFE" points="24.893617 0 24.893617 2.44809091 29.4351064 2.44809091 29.4351064 14.2755455 32.1351064 14.2755455 32.1351064 2.44809091 36.6765957 2.44809091 36.6765957 0"></polygon>
                    <polygon id="Fill-2" fill="#FEFEFE" points="39.5744681 0 39.5744681 14.2755455 50.2934043 14.2755455 50.2934043 11.6244545 42.2546809 11.6244545 42.2546809 8.40190909 50.0068085 8.40190909 50.0068085 5.894 42.2546809 5.894 42.2546809 2.61036364 50.2934043 2.61036364 50.2934043 0"></polygon>
                    <polygon id="Fill-3" fill="#FEFEFE" points="58.7648936 0 52.3404255 14.2755455 55.2657447 14.2755455 56.4931915 11.5830909 63.9810638 11.5830909 65.1880851 14.2755455 68.1338298 14.2755455 61.7093617 0"></polygon>
                    <polygon id="Fill-4" fill="#35153F" points="57.4468085 9.25909091 60.1065957 3.18181818 62.7670213 9.25909091"></polygon>
                    <polygon id="Fill-5" fill="#FEFEFE" points="67.6595745 0 67.6595745 2.44745455 72.1997872 2.44745455 72.1997872 14.2755455 74.9004255 14.2755455 74.9004255 2.44745455 79.4419149 2.44745455 79.4419149 0"></polygon>
                    <g id="Group-28">
                        <path d="M82.4438936,0.241436364 L82.4438936,14.5373455 L85.1438936,14.5373455 L85.1438936,9.76525455 L87.7424043,9.76525455 L91.9149574,14.5373455 L95.126234,14.5373455 L95.126234,14.3540727 L90.7902766,9.48016364 C93.5107021,8.92907273 94.4107021,6.95125455 94.4107021,4.99316364 C94.4107021,2.52598182 92.6304894,0.282163636 89.2558085,0.262436364" id="Fill-6" fill="#FEFEFE"></path>
                        <path d="M85.1442128,7.33867273 L85.1442128,2.77021818 L89.2554894,2.77021818 C90.954,2.77021818 91.710383,3.91249091 91.710383,5.05476364 C91.710383,6.19703636 90.9750638,7.33867273 89.2554894,7.33867273 L85.1442128,7.33867273 Z" id="Fill-8" fill="#35153F"></path>
                        <g id="Group-12" transform="translate(0.000000, 19.727273)">
                            <mask id="mask-2" fill="white">
                                <use xlink:href="#path-1"></use>
                            </mask>
                            <g id="Clip-11"></g>
                            <path d="M7.13968085,9.05265455 L10.8009574,9.05265455 L10.8009574,11.5809273 C9.67691489,12.4788364 8.69457447,12.7232 7.56861702,12.7232 C4.01010638,12.7232 2.63904255,10.2967455 2.63904255,7.95174545 C2.63904255,5.01492727 4.50031915,2.68965455 7.56861702,2.68965455 C8.81776596,2.68965455 10.2488298,3.19938182 11.2101064,4.11765455 L12.8881915,2.40456364 C11.4143617,0.955563636 9.49244681,0.222472727 7.56861702,0.222472727 C2.51585106,0.222472727 -0.000319148936,3.93374545 -0.000319148936,7.95174545 C-0.000319148936,11.7037455 2.18840426,15.2317455 7.56861702,15.2317455 C10.0841489,15.2317455 11.8656383,14.2733818 13.2769149,12.6614727 L13.2769149,6.64656364 L7.13968085,6.64656364 L7.13968085,9.05265455 Z" id="Fill-10" fill="#FEFEFE" mask="url(#mask-2)"></path>
                        </g>
                        <path d="M19.4356596,27.4341455 L19.4356596,22.8656909 L23.5475745,22.8656909 C25.2454468,22.8656909 26.0024681,24.0073273 26.0024681,25.1496 C26.0024681,26.2918727 25.2665106,27.4341455 23.5475745,27.4341455 L19.4356596,27.4341455 Z M28.7024681,25.0885091 C28.7024681,22.6213273 26.9228936,20.3775091 23.5475745,20.3571455 C21.2771489,20.3571455 19.0054468,20.3367818 16.7356596,20.3367818 L16.7356596,34.6326909 L19.4356596,34.6326909 L19.4356596,29.8606 L22.0335319,29.8606 L26.2067234,34.6326909 L29.4192766,34.6326909 L29.4192766,34.4487818 L25.0820426,29.5748727 C27.8018298,29.0244182 28.7024681,27.0466 28.7024681,25.0885091 Z" id="Fill-13" fill="#FEFEFE"></path>
                        <path d="M38.6874894,32.4915182 C35.3115319,32.4915182 34.043234,29.9829727 33.9819574,27.6379727 C33.9206809,25.2312455 35.3115319,22.5190636 38.6874894,22.5190636 C42.0628085,22.5190636 43.4128085,25.2115182 43.3725957,27.6169727 C43.3304681,29.9626091 42.0628085,32.4915182 38.6874894,32.4915182 M38.6874894,20.0716091 C33.7362128,20.0716091 31.3221702,23.8446091 31.3221702,27.5966091 C31.3221702,31.3492455 33.6551489,34.9587 38.6874894,34.9587 C43.7198298,34.9587 45.9908936,31.2677909 46.0317447,27.5762455 C46.0719574,23.8446091 43.6177021,20.0716091 38.6874894,20.0716091" id="Fill-15" fill="#FEFEFE"></path>
                        <polygon id="Fill-17" fill="#FEFEFE" points="47.1698298 22.8049818 51.7119574 22.8049818 51.7119574 34.6324364 54.4119574 34.6324364 54.4119574 22.8049818 58.9540851 22.8049818 58.9540851 20.3568909 47.1698298 20.3568909"></polygon>
                        <polygon id="Fill-19" fill="#FEFEFE" points="61.3813404 34.6327545 72.1002766 34.6327545 72.1002766 31.9810273 64.0602766 31.9810273 64.0602766 28.7597545 71.8136809 28.7597545 71.8136809 26.2518455 64.0602766 26.2518455 64.0602766 22.9669364 72.1002766 22.9669364 72.1002766 20.3572091 61.3813404 20.3572091"></polygon>
                        <path d="M81.4154043,25.9041364 C79.6964681,25.7005 78.2239149,25.3536818 78.2239149,24.1102273 C78.2239149,23.0494091 79.1851915,22.2132273 81.1894468,22.2132273 C82.745617,22.2132273 84.095617,22.9876818 84.5858298,23.8035 L86.7337021,22.7019545 C85.6505106,20.5001364 83.339234,19.8682273 81.1090213,19.8682273 C78.4696596,19.8885909 75.564766,21.0919545 75.564766,24.0281364 C75.564766,27.2296818 78.264766,28.0047727 81.1894468,28.3515909 C83.0922128,28.5552273 84.5034894,29.1063182 84.5034894,30.4522273 C84.5034894,32.0017727 82.9077447,32.5929545 81.2111489,32.5929545 C79.4717872,32.5929545 77.814766,31.8999545 77.1802979,30.3300455 L74.9302979,31.4920455 C75.9937021,34.1024091 78.2437021,34.9996818 81.1696596,34.9996818 C84.3598723,34.9996818 87.1837021,33.6334091 87.1837021,30.4522273 C87.1837021,27.0464091 84.4026383,26.2713182 81.4154043,25.9041364" id="Fill-21" fill="#FEFEFE"></path>
                        <polygon id="Fill-23" fill="#FEFEFE" points="101.899532 20.4388545 101.899532 20.3574 98.5433617 20.3574 93.1031489 26.3939455 93.1031489 20.3574 90.4025106 20.3574 90.4025106 34.6329455 93.1031489 34.6329455 93.1031489 28.3106727 99.096766 34.6329455 102.431872 34.6329455 102.431872 34.4694 95.537617 27.2702182"></polygon>
                        <g id="Group-27" transform="translate(104.042553, 19.727273)">
                            <mask id="mask-4" fill="white">
                                <use xlink:href="#path-3"></use>
                            </mask>
                            <g id="Clip-26"></g>
                            <path d="M5.25721277,9.7055 L7.9163617,3.62759091 L10.5755106,9.7055 L5.25721277,9.7055 Z M9.38891489,0.629681818 L6.44380851,0.629681818 L0.0212553191,14.9052273 L2.94593617,14.9052273 L4.17274468,12.2134091 L11.6599787,12.2134091 L12.867,14.9052273 L15.8127447,14.9052273 L9.38891489,0.629681818 Z" id="Fill-25" fill="#FEFEFE" mask="url(#mask-4)"></path>
                        </g>
                    </g>
                </g>
            </g>
        </g>
    </g>
</svg>