<?xml version="1.0" encoding="UTF-8" standalone="no"?>
<svg width="174px" height="53px" viewBox="0 0 174 53" version="1.1" xmlns="http://www.w3.org/2000/svg" xmlns:xlink="http://www.w3.org/1999/xlink">
    <!-- Generator: Sketch 50.2 (55047) - http://www.bohemiancoding.com/sketch -->
    <title>Group 3</title>
    <desc>Created with Sketch.</desc>
    <defs></defs>
    <g id="Page-1" stroke="none" stroke-width="1" fill="none" fill-rule="evenodd">
        <g id="Desktop-HD-Copy-93" transform="translate(-571.000000, -2480.000000)">
            <g id="Group-9" transform="translate(0.000000, 2369.000000)">
                <g id="Group-8">
                    <g id="Group-7">
                        <g id="Group-2">
                            <g id="Group-3" transform="translate(572.000000, 112.000000)">
                                <path d="M68.4164881,43.0465776 L65.405804,42.4580134 L66.1991041,45.4219533 L63.4583623,44.0419032 L63.4225536,47.1114357 L61.1555883,45.0427379 L60.2925072,47.9883139 L58.6682619,45.3843072 L57.0430984,47.9883139 L56.1827718,45.0427379 L53.9148883,47.1114357 L53.8799978,44.0419032 L51.1383378,45.4219533 L51.9325561,42.4580134 L48.9209538,43.0465776 L50.4836816,40.4067613 L47.4261707,40.1625209 L49.6444729,38.0414858 L46.7641691,36.9809683 L49.4718567,35.5357262 L46.9863665,33.7378965 L49.9832782,33.0795492 L48.0743997,30.6757095 L51.1383378,30.8501669 L49.9483876,28.0221202 L52.8516458,29.0156093 L52.4687683,25.9699499 L54.9955761,27.7099332 L55.4491528,24.6762104 L57.4131215,27.033222 L58.6682619,24.2336394 L59.9243204,27.033222 L61.8882891,24.6762104 L62.3418658,27.7099332 L64.8686737,25.9699499 L64.4867143,29.0156093 L67.3899725,28.0221202 L66.2000223,30.8501669 L69.2630422,30.6757095 L67.3550819,33.0795492 L70.3510754,33.7378965 L67.8655853,35.5357262 L70.574191,36.9809683 L67.6938872,38.0414858 L69.9121894,40.1625209 L66.8537603,40.4067613 L68.4164881,43.0465776 Z M56.4995409,18 C47.3866893,18 40,25.3868948 40,34.4990818 C40,43.6131052 47.3866893,51 56.4995409,51 C65.6114744,51 73,43.6131052 73,34.4990818 C73,25.3868948 65.6114744,18 56.4995409,18 Z" id="Fill-1" fill="#FEFEFE"></path>
                                <path d="M68.4164881,43.0465776 L65.405804,42.4580134 L66.1991041,45.4219533 L63.4583623,44.0419032 L63.4225536,47.1114357 L61.1555883,45.0427379 L60.2925072,47.9883139 L58.6682619,45.3843072 L57.0430984,47.9883139 L56.1827718,45.0427379 L53.9148883,47.1114357 L53.8799978,44.0419032 L51.1383378,45.4219533 L51.9325561,42.4580134 L48.9209538,43.0465776 L50.4836816,40.4067613 L47.4261707,40.1625209 L49.6444729,38.0414858 L46.7641691,36.9809683 L49.4718567,35.5357262 L46.9863665,33.7378965 L49.9832782,33.0795492 L48.0743997,30.6757095 L51.1383378,30.8501669 L49.9483876,28.0221202 L52.8516458,29.0156093 L52.4687683,25.9699499 L54.9955761,27.7099332 L55.4491528,24.6762104 L57.4131215,27.033222 L58.6682619,24.2336394 L59.9243204,27.033222 L61.8882891,24.6762104 L62.3418658,27.7099332 L64.8686737,25.9699499 L64.4867143,29.0156093 L67.3899725,28.0221202 L66.2000223,30.8501669 L69.2630422,30.6757095 L67.3550819,33.0795492 L70.3510754,33.7378965 L67.8655853,35.5357262 L70.574191,36.9809683 L67.6938872,38.0414858 L69.9121894,40.1625209 L66.8537603,40.4067613 L68.4164881,43.0465776 Z M56.4995409,18 C47.3866893,18 40,25.3868948 40,34.4990818 C40,43.6131052 47.3866893,51 56.4995409,51 C65.6114744,51 73,43.6131052 73,34.4990818 C73,25.3868948 65.6114744,18 56.4995409,18 Z" id="Stroke-3" stroke="#3C3C3B" stroke-width="0.5"></path>
                                <path d="M60.5543446,42.1648748 C59.063623,42.1648748 57.8547865,40.8553019 57.8547865,39.2403535 C57.8547865,37.625405 59.063623,36.3167894 60.5543446,36.3167894 C62.0450663,36.3167894 63.2530191,37.625405 63.2530191,39.2403535 C63.2530191,40.8553019 62.0450663,42.1648748 60.5543446,42.1648748 M58.9991163,31 C55.6854197,31 53,33.9092047 53,37.4990427 C53,41.0888807 55.6854197,44 58.9991163,44 C62.3145803,44 65,41.0888807 65,37.4990427 C65,33.9092047 62.3145803,31 58.9991163,31" id="Fill-5" fill="#FEFEFE"></path>
                                <path d="M60.5543446,42.1648748 C59.063623,42.1648748 57.8547865,40.8553019 57.8547865,39.2403535 C57.8547865,37.625405 59.063623,36.3167894 60.5543446,36.3167894 C62.0450663,36.3167894 63.2530191,37.625405 63.2530191,39.2403535 C63.2530191,40.8553019 62.0450663,42.1648748 60.5543446,42.1648748 Z M58.9991163,31 C55.6854197,31 53,33.9092047 53,37.4990427 C53,41.0888807 55.6854197,44 58.9991163,44 C62.3145803,44 65,41.0888807 65,37.4990427 C65,33.9092047 62.3145803,31 58.9991163,31 Z" id="Stroke-7" stroke="#3C3C3B" stroke-width="0.5"></path>
                                <path d="M10.2969149,31.8693663 L9.83006647,31.8693663 L9.83006647,28.4669412 L22,28.4669412 L22,31.8693663 C20.0763593,31.919698 19.2964036,32.4788378 19.2964036,34.3575841 L19.2964036,46.2386182 L16.227203,46.2386182 L15.031021,43.2928392 C13.6267258,45.6803935 11.2859213,47 8.47733083,47 C2.33986705,47 0,41.415008 0,29.9393731 C0,17.1944635 2.65297426,11 9.30978354,11 C12.1699335,11 14.2520027,11.9654541 15.7584796,13.9970259 L16.9031021,11 L19.2964036,11 L19.2964036,24.5062915 L15.7584796,24.5062915 L15.7584796,23.3395104 C15.7584796,17.9064287 14.1470087,15.1638069 10.8696949,15.1638069 C6.76086586,15.1638069 6.50119311,20.3433997 6.50119311,32.0716083 C6.50119311,39.4850149 6.70836884,42.9377717 9.7785069,42.9377717 C11.9102608,42.9377717 13.0539458,41.3637612 13.0539458,38.266987 L13.0539458,34.3575841 C13.0539458,32.5291695 12.3789841,31.8693663 10.2969149,31.8693663" id="Fill-9" fill="#FEFEFE"></path>
                                <path d="M10.2969149,31.8693663 L9.83006647,31.8693663 L9.83006647,28.4669412 L22,28.4669412 L22,31.8693663 C20.0763593,31.919698 19.2964036,32.4788378 19.2964036,34.3575841 L19.2964036,46.2386182 L16.227203,46.2386182 L15.031021,43.2928392 C13.6267258,45.6803935 11.2859213,47 8.47733083,47 C2.33986705,47 0,41.415008 0,29.9393731 C0,17.1944635 2.65297426,11 9.30978354,11 C12.1699335,11 14.2520027,11.9654541 15.7584796,13.9970259 L16.9031021,11 L19.2964036,11 L19.2964036,24.5062915 L15.7584796,24.5062915 L15.7584796,23.3395104 C15.7584796,17.9064287 14.1470087,15.1638069 10.8696949,15.1638069 C6.76086586,15.1638069 6.50119311,20.3433997 6.50119311,32.0716083 C6.50119311,39.4850149 6.70836884,42.9377717 9.7785069,42.9377717 C11.9102608,42.9377717 13.0539458,41.3637612 13.0539458,38.266987 L13.0539458,34.3575841 C13.0539458,32.5291695 12.3789841,31.8693663 10.2969149,31.8693663 Z" id="Stroke-11" stroke="#3C3C3B" stroke-width="0.5"></path>
                                <path d="M35.5556603,20 C38.1170927,20 40,22.023018 40,24.753181 C40,27.483344 38.6919543,29.1008471 36.7063258,29.1008471 C35.0844622,29.1008471 34.039345,27.9380674 34.039345,26.1692936 C34.039345,24.4497283 34.9798563,23.3880995 36.3915656,23.3880995 C36.6526093,23.3880995 36.9664271,23.437308 37.280245,23.4883391 C37.0710331,22.6800432 36.3915656,22.2763509 35.5028861,22.2763509 C33.2024973,22.2763509 32.104606,24.4497283 32.104606,28.7973944 L32.104606,41.7410645 C32.104606,43.6629316 32.3656497,43.9672956 34.7715868,43.9672956 L34.7715868,47 L24,47 L24,43.9672956 C26.1430086,43.9672956 26.4040523,43.5617807 26.4040523,41.7410645 L26.4040523,26.0171116 C26.4040523,24.1963954 26.1430086,23.8428229 24,23.8428229 L24,20.7590874 L30.9539404,20.7590874 L30.9539404,23.1347666 C32,21.1126599 33.568147,20 35.5556603,20" id="Fill-13" fill="#FEFEFE"></path>
                                <path d="M35.5556603,20 C38.1170927,20 40,22.023018 40,24.753181 C40,27.483344 38.6919543,29.1008471 36.7063258,29.1008471 C35.0844622,29.1008471 34.039345,27.9380674 34.039345,26.1692936 C34.039345,24.4497283 34.9798563,23.3880995 36.3915656,23.3880995 C36.6526093,23.3880995 36.9664271,23.437308 37.280245,23.4883391 C37.0710331,22.6800432 36.3915656,22.2763509 35.5028861,22.2763509 C33.2024973,22.2763509 32.104606,24.4497283 32.104606,28.7973944 L32.104606,41.7410645 C32.104606,43.6629316 32.3656497,43.9672956 34.7715868,43.9672956 L34.7715868,47 L24,47 L24,43.9672956 C26.1430086,43.9672956 26.4040523,43.5617807 26.4040523,41.7410645 L26.4040523,26.0171116 C26.4040523,24.1963954 26.1430086,23.8428229 24,23.8428229 L24,20.7590874 L30.9539404,20.7590874 L30.9539404,23.1347666 C32,21.1126599 33.568147,20 35.5556603,20 Z" id="Stroke-15" stroke="#3C3C3B" stroke-width="0.5"></path>
                                <path d="M73,23.7429387 L73,20.615142 C75.9126829,20.4607856 77.1667923,18.4088623 77.8191826,14 L80.530086,14 L80.530086,20.615142 L84.0951591,20.615142 L84.0951591,23.7429387 L80.530086,23.7429387 L80.530086,42.6677722 C80.530086,43.8980019 80.8820691,44.5135789 81.5851304,44.5135789 C82.5895038,44.5135789 82.9405821,43.0254723 82.9405821,39.8459155 L82.9405821,39.2312627 L85,39.2312627 L85,41.6408862 C85,45.9998369 83.6436435,48 80.2296788,48 C76.5153069,48 75.058513,45.7447329 75.058513,40.9236374 L75.058513,23.7429387 L73,23.7429387 Z" id="Fill-17" fill="#FEFEFE"></path>
                                <path d="M73,23.7429387 L73,20.615142 C75.9126829,20.4607856 77.1667923,18.4088623 77.8191826,14 L80.530086,14 L80.530086,20.615142 L84.0951591,20.615142 L84.0951591,23.7429387 L80.530086,23.7429387 L80.530086,42.6677722 C80.530086,43.8980019 80.8820691,44.5135789 81.5851304,44.5135789 C82.5895038,44.5135789 82.9405821,43.0254723 82.9405821,39.8459155 L82.9405821,39.2312627 L85,39.2312627 L85,41.6408862 C85,45.9998369 83.6436435,48 80.2296788,48 C76.5153069,48 75.058513,45.7447329 75.058513,40.9236374 L75.058513,23.7429387 L73,23.7429387 Z" id="Stroke-19" stroke="#3C3C3B" stroke-width="0.5"></path>
                                <path d="M98.8534037,31.3436606 L98.8534037,28.1757606 C98.8534037,24.8540701 98.3437034,23.1679 96.3058202,23.1679 C94.4699805,23.1679 93.7573183,24.8024996 93.7573183,28.2779806 L93.7573183,31.3436606 L98.8534037,31.3436606 Z M93.7573183,35.9923697 C93.7573183,41.7157704 94.4699805,44.5770104 97.2232809,44.5770104 C99.5660659,44.5770104 100.433934,42.1246506 100.433934,37.01457 L103.949489,37.01457 C103.949489,37.4234501 104,37.8323302 104,38.1905608 C104,44.72988 101.502009,48 96.6107221,48 C90.0369648,48 88,43.6063805 88,34.2049005 C88,24.7012005 90.5990127,20 96.508782,20 C99.3631041,20 101.604867,21.48173 102.980599,24.3429699 C103.949489,26.3367209 104,28.6362111 104,31.4449597 L104,34.5106397 L93.7573183,34.5106397 L93.7573183,35.9923697 Z" id="Fill-21" fill="#FEFEFE"></path>
                                <path d="M98.8534037,31.3436606 L98.8534037,28.1757606 C98.8534037,24.8540701 98.3437034,23.1679 96.3058202,23.1679 C94.4699805,23.1679 93.7573183,24.8024996 93.7573183,28.2779806 L93.7573183,31.3436606 L98.8534037,31.3436606 Z M93.7573183,35.9923697 C93.7573183,41.7157704 94.4699805,44.5770104 97.2232809,44.5770104 C99.5660659,44.5770104 100.433934,42.1246506 100.433934,37.01457 L103.949489,37.01457 C103.949489,37.4234501 104,37.8323302 104,38.1905608 C104,44.72988 101.502009,48 96.6107221,48 C90.0369648,48 88,43.6063805 88,34.2049005 C88,24.7012005 90.5990127,20 96.508782,20 C99.3631041,20 101.604867,21.48173 102.980599,24.3429699 C103.949489,26.3367209 104,28.6362111 104,31.4449597 L104,34.5106397 L93.7573183,34.5106397 L93.7573183,35.9923697 Z" id="Stroke-23" stroke="#3C3C3B" stroke-width="0.5"></path>
                                <path d="M108.151373,36.7604012 L111.167955,36.7604012 C112.17318,42.176221 114.085737,44.9352409 117.052466,44.9352409 C118.913356,44.9352409 120.170568,43.555731 120.170568,41.7673409 C120.170568,39.9789508 118.965023,38.7016609 116.550307,37.3203092 C113.935271,35.8395001 112.073474,34.9195198 111.118102,34.1542509 C108.905519,32.36494 108,30.8325604 108,27.8184509 C108,23.06568 110.766409,20 114.839883,20 C116.901093,20 118.560757,20.7671107 120.271181,22.4523598 L121.327166,20.7155402 L123.692029,20.7155402 L123.692029,29.9632297 L120.774247,29.9632297 C120.170568,25.4167407 118.058598,22.96346 115.694641,22.96346 C113.834657,22.96346 112.626393,24.2407499 112.626393,26.0797895 C112.626393,27.8184509 113.632525,28.8903799 115.694641,30.0654498 C118.309677,31.4956093 120.170568,32.36494 121.12594,33.0804802 C123.741882,35.0226607 125,36.7604012 125,40.0296004 C125,44.9352409 121.981605,48 117.404159,48 C115.140816,48 113.331592,47.1831607 111.871341,45.4463411 L110.817169,47.2338102 L108.151373,47.2338102 L108.151373,36.7604012 Z" id="Fill-25" fill="#FEFEFE"></path>
                                <path d="M108.151373,36.7604012 L111.167955,36.7604012 C112.17318,42.176221 114.085737,44.9352409 117.052466,44.9352409 C118.913356,44.9352409 120.170568,43.555731 120.170568,41.7673409 C120.170568,39.9789508 118.965023,38.7016609 116.550307,37.3203092 C113.935271,35.8395001 112.073474,34.9195198 111.118102,34.1542509 C108.905519,32.36494 108,30.8325604 108,27.8184509 C108,23.06568 110.766409,20 114.839883,20 C116.901093,20 118.560757,20.7671107 120.271181,22.4523598 L121.327166,20.7155402 L123.692029,20.7155402 L123.692029,29.9632297 L120.774247,29.9632297 C120.170568,25.4167407 118.058598,22.96346 115.694641,22.96346 C113.834657,22.96346 112.626393,24.2407499 112.626393,26.0797895 C112.626393,27.8184509 113.632525,28.8903799 115.694641,30.0654498 C118.309677,31.4956093 120.170568,32.36494 121.12594,33.0804802 C123.741882,35.0226607 125,36.7604012 125,40.0296004 C125,44.9352409 121.981605,48 117.404159,48 C115.140816,48 113.331592,47.1831607 111.871341,45.4463411 L110.817169,47.2338102 L108.151373,47.2338102 L108.151373,36.7604012 Z" id="Stroke-27" stroke="#3C3C3B" stroke-width="0.5"></path>
                                <path d="M140.669763,25.0052463 C140.819898,24.7462535 140.969134,24.3292471 140.969134,23.9674051 C140.969134,23.3447004 140.619419,23.2399813 139.67276,23.2399813 L138.974228,23.2399813 L138.974228,20.0769031 L148.002098,20.0769031 L148.002098,23.2399813 C146.056638,23.2399813 145.408451,23.862686 144.459994,25.2128146 L141.418639,29.7260213 L146.755169,42.28016 C147.204675,43.3694258 147.803416,43.8359868 149,43.8883464 L149,47 L139.771651,47 L139.771651,43.8883464 L139.920887,43.8883464 C140.669763,43.8883464 141.068924,43.5246344 141.068924,42.9028647 C141.068924,42.746721 141.01858,42.4867932 140.869344,42.1240163 L138.075217,34.7057892 L135.733293,38.1297302 L135.733293,41.6050957 C135.733293,43.4208503 135.931076,43.8359868 137.82709,43.8883464 L137.82709,47 L128,47 L128,43.8883464 C130.04525,43.8883464 130.295175,43.4732099 130.295175,41.6050957 L130.295175,16.3939693 C130.295175,14.5267901 130.04525,14.1630782 128,14.1630782 L128,11 L135.733293,11 L135.733293,33.0976028 L140.669763,25.0052463 Z" id="Fill-29" fill="#FEFEFE"></path>
                                <path d="M140.669763,25.0052463 C140.819898,24.7462535 140.969134,24.3292471 140.969134,23.9674051 C140.969134,23.3447004 140.619419,23.2399813 139.67276,23.2399813 L138.974228,23.2399813 L138.974228,20.0769031 L148.002098,20.0769031 L148.002098,23.2399813 C146.056638,23.2399813 145.408451,23.862686 144.459994,25.2128146 L141.418639,29.7260213 L146.755169,42.28016 C147.204675,43.3694258 147.803416,43.8359868 149,43.8883464 L149,47 L139.771651,47 L139.771651,43.8883464 L139.920887,43.8883464 C140.669763,43.8883464 141.068924,43.5246344 141.068924,42.9028647 C141.068924,42.746721 141.01858,42.4867932 140.869344,42.1240163 L138.075217,34.7057892 L135.733293,38.1297302 L135.733293,41.6050957 C135.733293,43.4208503 135.931076,43.8359868 137.82709,43.8883464 L137.82709,47 L128,47 L128,43.8883464 C130.04525,43.8883464 130.295175,43.4732099 130.295175,41.6050957 L130.295175,16.3939693 C130.295175,14.5267901 130.04525,14.1630782 128,14.1630782 L128,11 L135.733293,11 L135.733293,33.0976028 L140.669763,25.0052463 Z" id="Stroke-31" stroke="#3C3C3B" stroke-width="0.5"></path>
                                <path d="M156.589644,40.7070024 C156.589644,42.237484 157.79193,43.5124257 159.358574,43.5124257 C161.6577,43.5124257 162.59731,41.6758478 162.59731,37.8510226 L162.59731,33.4130856 C159.67115,36.4731296 156.589644,37.4934506 156.589644,40.7070024 M156.955884,48 C153.299126,48 151,45.4501165 151,41.2677194 C151,38.9724566 151.679758,37.1882735 153.038332,35.962969 C154.971217,34.2293424 157.113114,33.5160369 158.784264,32.5977479 C161.552253,31.0681855 162.858104,29.6397361 162.858104,27.2939168 C162.858104,24.5905256 161.291459,22.9065362 158.733423,22.9065362 C156.850437,22.9065362 155.441964,23.8257444 154.866711,25.356226 C155.232011,25.2532747 155.598252,25.2532747 155.910827,25.2532747 C157.530195,25.2532747 158.417081,26.2221201 158.417081,28.0577788 C158.417081,29.740849 157.217619,30.8632021 155.337458,30.8632021 C153.090114,30.8632021 151.679758,29.4347526 151.679758,27.0383769 C151.679758,23.1106004 154.918494,20 160.037391,20 C165.576194,20 168.239677,22.8054233 168.239677,28.4668264 L168.239677,43.4609501 C168.239677,44.2772069 168.292401,44.7358918 169.023941,44.7358918 C169.80538,44.7358918 170.015333,43.7670464 170.015333,41.7778799 C170.015333,41.2677194 169.962609,40.7584781 169.962609,40.1462854 L172,40.1462854 L172,41.8789928 C172,46.06139 170.694149,48 167.509079,48 C165.051782,48 163.53692,46.8776468 162.858104,44.5318276 C161.344183,46.9291225 159.568527,48 156.955884,48" id="Fill-33" fill="#FEFEFE"></path>
                                <path d="M156.589644,40.7070024 C156.589644,42.237484 157.79193,43.5124257 159.358574,43.5124257 C161.6577,43.5124257 162.59731,41.6758478 162.59731,37.8510226 L162.59731,33.4130856 C159.67115,36.4731296 156.589644,37.4934506 156.589644,40.7070024 Z M156.955884,48 C153.299126,48 151,45.4501165 151,41.2677194 C151,38.9724566 151.679758,37.1882735 153.038332,35.962969 C154.971217,34.2293424 157.113114,33.5160369 158.784264,32.5977479 C161.552253,31.0681855 162.858104,29.6397361 162.858104,27.2939168 C162.858104,24.5905256 161.291459,22.9065362 158.733423,22.9065362 C156.850437,22.9065362 155.441964,23.8257444 154.866711,25.356226 C155.232011,25.2532747 155.598252,25.2532747 155.910827,25.2532747 C157.530195,25.2532747 158.417081,26.2221201 158.417081,28.0577788 C158.417081,29.740849 157.217619,30.8632021 155.337458,30.8632021 C153.090114,30.8632021 151.679758,29.4347526 151.679758,27.0383769 C151.679758,23.1106004 154.918494,20 160.037391,20 C165.576194,20 168.239677,22.8054233 168.239677,28.4668264 L168.239677,43.4609501 C168.239677,44.2772069 168.292401,44.7358918 169.023941,44.7358918 C169.80538,44.7358918 170.015333,43.7670464 170.015333,41.7778799 C170.015333,41.2677194 169.962609,40.7584781 169.962609,40.1462854 L172,40.1462854 L172,41.8789928 C172,46.06139 170.694149,48 167.509079,48 C165.051782,48 163.53692,46.8776468 162.858104,44.5318276 C161.344183,46.9291225 159.568527,48 156.955884,48 Z" id="Stroke-35" stroke="#3C3C3B" stroke-width="0.5"></path>
                                <polygon id="Fill-37" fill="#FEFEFE" points="26.4176155 8 26.4176155 1.70712431 24 1.70712431 24 0 31 0 31 1.70712431 28.5823845 1.70712431 28.5823845 8"></polygon>
                                <polygon id="Stroke-39" stroke="#3C3C3B" stroke-width="0.25" points="26.4176155 8 26.4176155 1.70712431 24 1.70712431 24 0 31 0 31 1.70712431 28.5823845 1.70712431 28.5823845 8"></polygon>
                                <polygon id="Fill-41" fill="#FEFEFE" points="35 8 35 0 41 0 41 1.61770351 37.1607595 1.61770351 37.1607595 3.12340522 40.7531646 3.12340522 40.7531646 4.74201197 37.1607595 4.74201197 37.1607595 6.38229649 41 6.38229649 41 8"></polygon>
                                <polygon id="Stroke-43" stroke="#3C3C3B" stroke-width="0.25" points="35 8 35 0 41 0 41 1.61770351 37.1607595 1.61770351 37.1607595 3.12340522 40.7531646 3.12340522 40.7531646 4.74201197 37.1607595 4.74201197 37.1607595 6.38229649 41 6.38229649 41 8"></polygon>
                                <path d="M47.4455621,4.76368974 L49.5881657,4.76368974 L48.5168639,2.23461669 L47.4455621,4.76368974 Z M50.9576923,8 L50.2609467,6.34887659 L46.7710059,6.34887659 L46.0760355,8 L44,8 L47.6781065,0 L49.3121302,0 L53,8 L50.9576923,8 Z" id="Fill-45" fill="#FEFEFE"></path>
                                <path d="M47.4455621,4.76368974 L49.5881657,4.76368974 L48.5168639,2.23461669 L47.4455621,4.76368974 Z M50.9576923,8 L50.2609467,6.34887659 L46.7710059,6.34887659 L46.0760355,8 L44,8 L47.6781065,0 L49.3121302,0 L53,8 L50.9576923,8 Z" id="Stroke-47" stroke="#3C3C3B" stroke-width="0.25"></path>
                                <polygon id="Fill-49" fill="#FEFEFE" points="57.4173321 8 57.4173321 1.70712431 55 1.70712431 55 0 62 0 62 1.70712431 59.5835842 1.70712431 59.5835842 8"></polygon>
                                <polygon id="Stroke-51" stroke="#3C3C3B" stroke-width="0.25" points="57.4173321 8 57.4173321 1.70712431 55 1.70712431 55 0 62 0 62 1.70712431 59.5835842 1.70712431 59.5835842 8"></polygon>
                                <path d="M70.388521,3.10714689 C70.5912219,2.96714463 70.6939359,2.75127018 70.6939359,2.46042678 C70.6939359,2.15332505 70.5930399,1.93203116 70.3939748,1.79744835 C70.1940008,1.66196229 69.8631347,1.5951225 69.4031944,1.5951225 L68.0697312,1.5951225 L68.0697312,3.31398894 L69.4031944,3.31398894 C69.8567718,3.31398894 70.1840021,3.24534267 70.388521,3.10714689 Z M73,8 L70.7502922,8 L69.7095182,5.33724737 C69.5886249,5.03827481 69.3068433,4.88833691 68.8614466,4.88833691 L68.0924555,4.88833691 L68.0924555,8 L66,8 L66,0 L69.7431502,0 C70.7157512,0 71.4465654,0.206842046 71.9383197,0.623235859 C72.4264381,1.03872643 72.6727698,1.63215536 72.6727698,2.40442588 C72.6727698,2.94366038 72.5282431,3.40973242 72.2364628,3.80264198 C71.9474094,4.19735802 71.5383716,4.4764593 71.0102584,4.63994581 C71.2365927,4.68510782 71.4392936,4.79078695 71.6201792,4.9551767 C71.8019738,5.12046968 71.9455915,5.34176358 72.0501234,5.61725189 L73,8 Z" id="Fill-53" fill="#FEFEFE"></path>
                                <path d="M70.388521,3.10714689 C70.5912219,2.96714463 70.6939359,2.75127018 70.6939359,2.46042678 C70.6939359,2.15332505 70.5930399,1.93203116 70.3939748,1.79744835 C70.1940008,1.66196229 69.8631347,1.5951225 69.4031944,1.5951225 L68.0697312,1.5951225 L68.0697312,3.31398894 L69.4031944,3.31398894 C69.8567718,3.31398894 70.1840021,3.24534267 70.388521,3.10714689 Z M73,8 L70.7502922,8 L69.7095182,5.33724737 C69.5886249,5.03827481 69.3068433,4.88833691 68.8614466,4.88833691 L68.0924555,4.88833691 L68.0924555,8 L66,8 L66,0 L69.7431502,0 C70.7157512,0 71.4465654,0.206842046 71.9383197,0.623235859 C72.4264381,1.03872643 72.6727698,1.63215536 72.6727698,2.40442588 C72.6727698,2.94366038 72.5282431,3.40973242 72.2364628,3.80264198 C71.9474094,4.19735802 71.5383716,4.4764593 71.0102584,4.63994581 C71.2365927,4.68510782 71.4392936,4.79078695 71.6201792,4.9551767 C71.8019738,5.12046968 71.9455915,5.34176358 72.0501234,5.61725189 L73,8 Z" id="Stroke-55" stroke="#3C3C3B" stroke-width="0.25"></path>
                            </g>
                        </g>
                    </g>
                </g>
            </g>
        </g>
    </g>
</svg>