<?xml version="1.0" encoding="UTF-8" standalone="no"?>
<svg width="160px" height="167px" viewBox="0 0 160 167" version="1.1" xmlns="http://www.w3.org/2000/svg" xmlns:xlink="http://www.w3.org/1999/xlink">
    <!-- Generator: Sketch 50.2 (55047) - http://www.bohemiancoding.com/sketch -->
    <title>logo-zle-3</title>
    <desc>Created with Sketch.</desc>
    <defs>
        <polygon id="path-1" points="0 0.296361421 17.7025532 0.296361421 17.7025532 20.2905848 0 20.2905848"></polygon>
        <polygon id="path-3" points="0.0283404255 0.838814721 21.0834043 0.838814721 21.0834043 19.8556218 0.0283404255 19.8556218"></polygon>
    </defs>
    <g id="Page-1" stroke="none" stroke-width="1" fill="none" fill-rule="evenodd">
        <g id="Desktop-HD-Copy-83" transform="translate(-114.000000, -237.000000)">
            <g id="logo-zle-3" transform="translate(114.000000, 237.000000)">
                <g id="Group">
                    <path d="M127.692851,73.0068898 C128.834979,70.6010726 129.789021,68.0892909 130.533702,65.4901944 L130.533702,65.4910421 C130.641787,65.1087223 130.746468,64.7247071 130.846043,64.3389964 C130.934553,63.9999102 131.018809,63.6608239 131.098809,63.3191944 C131.196681,62.9089 131.290298,62.4977579 131.377957,62.0840726 C131.486043,61.5686614 131.590723,61.0524025 131.681787,60.5302096 C131.720085,60.3140421 131.753277,60.0970269 131.789872,59.879164 C131.892,59.2484635 131.98817,58.6169152 132.066468,57.9777376 C132.079234,57.8827934 132.087745,57.7861538 132.09966,57.6903619 C132.185617,56.9520015 132.258809,56.2102503 132.314128,55.4617173 L86.1617872,52.7693721 L101.366043,63.2818949 C97.2971064,70.2679203 89.8885957,74.5556665 81.705617,74.5556665 C69.1651915,74.5556665 58.9643404,64.3932503 58.9643404,51.9021589 C58.9643404,39.4127629 69.1651915,29.2511944 81.705617,29.2511944 C93.7481702,29.2511944 103.721787,38.6184533 104.410298,50.5763315 C104.41966,50.7721538 104.417957,51.4053975 104.414553,52.289565 L131.580511,46.5022096 C131.426468,45.0805904 131.218809,43.6759254 130.947319,42.2941487 C130.932851,42.2144635 130.91583,42.1364736 130.901362,42.0584838 C130.766043,41.3853975 130.617106,40.7173975 130.455404,40.053636 C130.43583,39.9798848 130.418809,39.9052858 130.400936,39.8298391 C130.045191,38.4014381 129.625617,36.9967731 129.150723,35.6200827 C129.097106,35.4683416 129.042638,35.3182959 128.987319,35.1665548 C128.805191,34.6570777 128.615404,34.1509914 128.417957,33.6491437 C128.33966,33.4533213 128.263064,33.257499 128.183064,33.0633721 C127.978809,32.5615244 127.76434,32.0639152 127.543064,31.5705447 C127.474979,31.420499 127.412,31.2679102 127.343915,31.1195599 C127.072426,30.5320929 126.789872,29.9514076 126.497957,29.3775041 C126.360085,29.1070827 126.217106,28.8409 126.074128,28.5730218 C125.905617,28.2551284 125.732851,27.937235 125.558383,27.6227325 C125.387319,27.3175548 125.214553,27.0149203 125.036681,26.7139812 C124.883489,26.4511893 124.72434,26.1934838 124.566043,25.9349305 C123.841787,24.752367 123.069872,23.6020168 122.253702,22.4872706 C122.131149,22.3194228 122.007745,22.1498797 121.881787,21.9828797 C121.620511,21.6353162 121.353277,21.2911437 121.081787,20.9503619 C121.040936,20.8969558 120.997532,20.8452452 120.954128,20.7909914 C119.53966,19.0235041 118.006894,17.3535041 116.367745,15.7937071 C116.349872,15.7767528 116.331149,15.7589508 116.313277,15.7419964 C114.696255,14.2050878 112.973702,12.7766868 111.161787,11.4644228 C111.037532,11.3728695 110.907319,11.2813162 110.781362,11.1897629 C110.197532,10.7760777 109.602638,10.3751081 109.002638,9.98515888 C108.878383,9.90462589 108.753277,9.82070203 108.629021,9.74101675 C108.617106,9.73423503 108.606894,9.7274533 108.597532,9.71982386 C108.294553,9.52908782 107.990723,9.34174264 107.68434,9.15778832 C107.448596,9.01452437 107.211149,8.87549898 106.971149,8.7364736 C106.49966,8.46181371 106.018809,8.19308782 105.537106,7.93199137 C105.317532,7.81415888 105.096255,7.69717411 104.874979,7.58103706 C104.820511,7.55306244 104.767745,7.52339239 104.712426,7.49541777 C104.446894,7.35808782 104.182213,7.2224533 103.914979,7.09020964 C103.540511,6.90371218 103.160085,6.72738731 102.77966,6.55191015 C102.65966,6.49680863 102.541362,6.43831624 102.422213,6.38406244 C102.185617,6.27640254 101.946468,6.17298122 101.707319,6.07040761 C101.376255,5.92544822 101.040936,5.78727056 100.704766,5.64909289 C100.612,5.6117934 100.520085,5.57110305 100.427319,5.53465127 C100.151574,5.42360051 99.8732766,5.31509289 99.5958298,5.20828071 C99.2902979,5.09299137 98.9830638,4.98278832 98.6732766,4.87173756 C98.5209362,4.81663604 98.3677447,4.75814365 98.2128511,4.70473756 C98.0137021,4.63522487 97.8128511,4.56571218 97.6111489,4.49874264 C97.2307234,4.37158528 96.8451915,4.25375279 96.4596596,4.1359203 C96.2485957,4.07064619 96.0409362,4.0011335 95.8298723,3.93840254 C95.6698723,3.8934736 95.5090213,3.84854467 95.3473191,3.80446345 C95.0417872,3.71799645 94.7311489,3.6400066 94.4230638,3.5594736 C94.1822128,3.49674264 93.9430638,3.42892538 93.7005106,3.36958528 C93.5737021,3.3382198 93.4477447,3.30515888 93.3226383,3.27464112 C92.8443404,3.16189492 92.3617872,3.06440761 91.8800851,2.96437716 C91.7158298,2.93131624 91.5524255,2.89232132 91.3881702,2.85926041 C91.2264681,2.82789492 91.065617,2.79737716 90.9022128,2.76770711 C90.4902979,2.69141269 90.0732766,2.62698629 89.6545532,2.55916904 C89.4034894,2.5193264 89.1541277,2.4710066 88.8996596,2.43455482 C88.8196596,2.42353452 88.7388085,2.41336193 88.6571064,2.40234162 C88.2264681,2.34300152 87.7907234,2.29722487 87.358383,2.24890508 C87.1490213,2.22516904 86.9430638,2.1963467 86.7337021,2.17515381 C86.6111489,2.16328579 86.4877447,2.14972234 86.3643404,2.13785431 C85.7745532,2.08275279 85.1779574,2.0454533 84.5830638,2.01069695 C84.4843404,2.00561066 84.3881702,1.99543807 84.2902979,1.99035178 C84.1541277,1.98357005 84.0145532,1.97763604 83.8766809,1.97254975 C83.1549787,1.94118426 82.4332766,1.92083909 81.705617,1.92083909 C54.0358298,1.92083909 31.5260426,24.3429203 31.5260426,51.9021589 C31.5260426,79.4630929 54.0358298,101.883479 81.705617,101.883479 C82.4868936,101.883479 83.264766,101.863134 84.039234,101.828377 C84.2834894,101.817357 84.5260426,101.797012 84.7702979,101.783448 C85.1030638,101.763103 85.4324255,101.737672 85.7609362,101.71224 C85.9558298,101.696981 86.1498723,101.686809 86.344766,101.669854 C86.639234,101.644423 86.9302979,101.609666 87.2205106,101.579149 C87.4817872,101.551174 87.7379574,101.517265 87.9949787,101.486748 C88.2077447,101.460469 88.4205106,101.438428 88.6324255,101.409606 C88.9379574,101.368915 89.2417872,101.323139 89.544766,101.277362 C90.0017872,101.207002 90.4605106,101.129859 90.9141277,101.047631 C91.212,100.992529 91.5124255,100.939123 91.8085957,100.878936 C91.9515745,100.850113 92.0928511,100.8179 92.2341277,100.787382 C92.5481702,100.72126 92.8639149,100.653443 93.1762553,100.582235 C93.4588085,100.518656 93.7396596,100.456773 94.0196596,100.388108 C94.2341277,100.33555 94.4468936,100.273666 94.6596596,100.217717 C94.9439149,100.141423 95.2307234,100.067672 95.5132766,99.988834 C95.7396596,99.926103 95.9677447,99.8701538 96.1898723,99.8031843 C96.7175319,99.6497477 97.2358298,99.4785091 97.7524255,99.3072706 C97.9268936,99.2504736 98.1013617,99.2013061 98.2749787,99.1428137 C98.5005106,99.0656716 98.7217872,98.9800523 98.9481702,98.8986716 C99.1805106,98.8147477 99.4128511,98.727433 99.6460426,98.6401183 C99.878383,98.5553467 100.113277,98.4722706 100.343915,98.3824127 C100.638383,98.2671234 100.931149,98.1433569 101.223064,98.0229812 C101.607745,97.8644584 101.991574,97.7042401 102.372,97.5372401 C102.691149,97.3965193 103.006894,97.2507122 103.322638,97.1023619 C103.667319,96.9421437 104.009447,96.7785345 104.349872,96.6115345 C104.67583,96.4513162 104.998383,96.2877071 105.320936,96.1207071 C105.641787,95.9537071 105.959234,95.7816208 106.276681,95.6078391 C106.60434,95.4298188 106.931149,95.250103 107.253702,95.0644533 C107.258809,95.0610624 107.263915,95.0576716 107.270723,95.0551284 C107.561787,94.886433 107.847745,94.7109558 108.136255,94.5371741 C108.469021,94.3371132 108.803489,94.1387477 109.130298,93.9310574 C109.328596,93.8064431 109.520936,93.6758949 109.714128,93.5461944 C109.76434,93.5139812 109.812,93.481768 109.862213,93.4495548 C110.621362,92.9468594 111.371149,92.4263619 112.103064,91.8855193 C112.249447,91.7795548 112.394979,91.6778289 112.537957,91.5693213 C112.903915,91.292966 113.263064,91.0047426 113.620511,90.7182147 C113.817957,90.5613873 114.017957,90.4054076 114.212,90.2460371 C114.562638,89.9578137 114.903915,89.6619609 115.246043,89.3661081 C115.439234,89.1974127 115.633277,89.029565 115.824766,88.8583264 C116.168596,88.5489102 116.510723,88.2335599 116.848596,87.9148188 C116.893702,87.872433 116.936255,87.8283518 116.981362,87.785966 C117.109021,87.6647426 117.237532,87.5426716 117.361787,87.4197528 C117.704766,87.0874482 118.043489,86.7509051 118.374553,86.4101234 C118.517532,86.2643162 118.655404,86.1151183 118.794979,85.9684635 C119.149021,85.5929254 119.503064,85.2165396 119.845191,84.8316766 C119.909872,84.7604685 119.972,84.6867173 120.034979,84.6146614 C121.702213,82.7217122 123.22817,80.7041487 124.59583,78.5772299 C124.61966,78.5416259 124.642638,78.5051741 124.665617,78.4687223 C124.698809,78.4204025 124.731149,78.371235 124.762638,78.3220675 C125.066468,77.8414127 125.360936,77.3548239 125.650298,76.8648442 C125.661362,76.8428036 125.673277,76.8207629 125.686894,76.7995701 C125.73966,76.7088645 125.794979,76.6173112 125.847745,76.5257579 C126.132,76.0349305 126.406043,75.538169 126.672426,75.0363213 C126.726894,74.9337477 126.780511,74.8303264 126.834979,74.7277528 C127.109021,74.2038645 127.375404,73.6748898 127.631574,73.1416766 C127.640936,73.1204838 127.651149,73.0992909 127.65966,73.078098 C127.671574,73.0552096 127.682638,73.0306259 127.692851,73.0068898" id="Fill-1" fill="#FEFEFE"></path>
                    <path d="M132.061191,57.6859538 C132.059489,57.6868015 132.059489,57.688497 132.059489,57.6901924 L132.054383,57.7385122 C131.946298,58.6472635 131.815234,59.5483853 131.658638,60.4401822 C131.653532,60.4707 131.649277,60.5003701 131.642468,60.5300401 L131.642468,60.5325832 C131.342894,62.2169944 130.957362,63.8708878 130.493532,65.4917203 L130.493532,65.4908726 C129.750553,68.0891213 128.796511,70.600903 127.654383,73.0067203 C127.643319,73.0304563 127.633106,73.0550401 127.621191,73.0787761 C127.610979,73.0991213 127.603319,73.1203142 127.593106,73.1415071 C127.336936,73.6747203 127.069702,74.2036949 126.79566,74.7275832 C126.742043,74.8301569 126.689277,74.9335782 126.633957,75.0361518 C126.366723,75.5379995 126.090128,76.0347609 125.807574,76.526436 C125.744596,76.6357914 125.681617,76.7426036 125.618638,76.8511112 C125.615234,76.8561975 125.61183,76.860436 125.610128,76.8646746 C125.322468,77.355502 125.026298,77.8412431 124.722468,78.321898 C124.692681,78.3710655 124.657787,78.420233 124.628,78.4685528 C124.619489,78.4821162 124.610979,78.494832 124.602468,78.5075477 C124.588,78.5295883 124.572681,78.5516289 124.559915,78.5745173 C123.616936,80.0402178 122.593106,81.4508168 121.504596,82.8080096 C121.014383,83.4209081 120.513957,84.0261772 119.994809,84.6153396 C119.93183,84.6865477 119.870553,84.760299 119.807574,84.8315071 C119.461191,85.2189132 119.105447,85.5969944 118.749702,85.9742279 C118.613532,86.1183396 118.477362,86.2624513 118.339489,86.4057152 C118.003319,86.7515832 117.662894,87.0906695 117.317362,87.426365 C117.148,87.5899741 116.977787,87.7535832 116.808426,87.915497 C116.471404,88.2350858 116.128426,88.5495883 115.784596,88.8598523 C115.606723,89.0175274 115.428851,89.1735071 115.250979,89.3286391 C115.234809,89.3405071 115.221191,89.3532228 115.207574,89.3659386 C114.865447,89.6626391 114.523319,89.9576442 114.173532,90.2458675 C113.981191,90.4035426 113.784596,90.5552838 113.592255,90.7112635 C113.228,91.0011822 112.867149,91.2919487 112.496936,91.5716949 C112.359064,91.6742685 112.219489,91.7709081 112.082468,91.872634 C111.351404,92.4134766 110.601617,92.9339741 109.842468,93.4358218 C109.833957,93.4409081 109.827149,93.4451467 109.822043,93.4493853 C109.785447,93.473969 109.745447,93.4994005 109.708851,93.5239843 C109.502894,93.6604665 109.30034,93.7986442 109.092681,93.9308878 C108.765021,94.1385782 108.428851,94.3369437 108.096936,94.5378523 C107.80417,94.7141772 107.511404,94.8930452 107.216085,95.0642838 C106.89183,95.2499335 106.56417,95.4296492 106.238213,95.6076695 C105.919064,95.7814513 105.601617,95.9543853 105.280766,96.1205376 C104.959915,96.2883853 104.63566,96.4511467 104.310553,96.611365 C103.970979,96.7792127 103.627149,96.9428218 103.283319,97.1030401 C102.966723,97.2505426 102.650979,97.3971975 102.330128,97.5379183 C101.959915,97.7015274 101.583745,97.8583548 101.206723,98.0143345 C101.201617,98.0160299 101.196511,98.0177254 101.192255,98.0202685 C101.188851,98.021964 101.187149,98.021964 101.183745,98.0228117 C100.892681,98.144035 100.599915,98.2669538 100.304596,98.3822431 C99.855234,98.558568 99.3999149,98.7221772 98.9445957,98.8849386 C98.9309787,98.8900249 98.9199149,98.8942635 98.908,98.8993497 C98.7420426,98.9595376 98.575234,99.0197254 98.4109787,99.0790655 C98.3514043,99.1002584 98.2926809,99.1231467 98.2314043,99.1443396 C97.5445957,99.3774614 96.8518298,99.5978675 96.1522553,99.8038624 C95.9275745,99.8699843 95.7011915,99.9267812 95.4756596,99.9886645 C95.1914043,100.06835 94.9054468,100.141253 94.6194894,100.217548 C94.428,100.267563 94.2373617,100.321817 94.0441702,100.370984 C94.0228936,100.376071 94.0024681,100.382852 93.9828936,100.387939 L93.9811915,100.387939 L93.9794894,100.387939 C93.8314043,100.425238 93.681617,100.457451 93.5326809,100.49136 C93.3973617,100.521878 93.2628936,100.553243 93.1284255,100.583761 C92.9258723,100.631233 92.720766,100.671923 92.5182128,100.716852 C92.4084255,100.739741 92.3020426,100.764324 92.1939574,100.787213 C92.0526809,100.81773 91.9114043,100.849944 91.7684255,100.878766 C91.4697021,100.938954 91.1650213,100.994055 90.8645957,101.049157 C90.4135319,101.131385 89.9633191,101.206832 89.5097021,101.277192 C89.2058723,101.323817 88.8994894,101.368746 88.5922553,101.410284 C88.3811915,101.438258 88.1684255,101.460299 87.9556596,101.486578 C87.6977872,101.517944 87.4399149,101.551852 87.1811915,101.578979 C86.8901277,101.609497 86.5973617,101.644253 86.3045957,101.669685 C86.1105532,101.686639 85.9156596,101.696812 85.721617,101.712071 C85.3922553,101.737502 85.0611915,101.763781 84.7309787,101.783279 C84.4867234,101.79769 84.2433191,101.817187 83.9990638,101.828208 C83.2245957,101.862964 82.4467234,101.884157 81.6654468,101.884157 C53.9939574,101.884157 31.4824681,79.4629234 31.4824681,51.9028371 C31.4824681,24.3427508 53.9939574,1.92066954 81.6654468,1.92066954 C82.3837447,1.92066954 83.0986383,1.94101472 83.8101277,1.97153249 C83.8177872,1.97153249 83.8245957,1.97153249 83.8331064,1.9723802 L83.8365106,1.9723802 C83.974383,1.9774665 84.1122553,1.98340051 84.2501277,1.99018223 C84.348,1.99611624 84.4450213,2.00544112 84.5411915,2.01052741 C84.5777872,2.01391827 84.6109787,2.01730914 84.6458723,2.01815685 C85.1982128,2.05037005 85.7514043,2.0851264 86.2994894,2.13514162 C86.4314043,2.14785736 86.5624681,2.16226853 86.6935319,2.17583198 C87.3156596,2.23771523 87.935234,2.30892335 88.5505532,2.39454264 C88.6535319,2.40895381 88.7565106,2.41997411 88.8594894,2.43438528 C89.1139574,2.47168477 89.3633191,2.51915685 89.6160851,2.55984721 C89.6722553,2.56917208 89.7292766,2.57934467 89.7871489,2.58866954 C90.1326809,2.6454665 90.480766,2.69632944 90.8245957,2.76075584 C90.9990638,2.79296904 91.1735319,2.82518223 91.348,2.85993858 C91.5122553,2.89215178 91.6756596,2.9311467 91.8399149,2.96505533 C91.8765106,2.97268477 91.9114043,2.98031421 91.9462979,2.98794365 C92.3820426,3.07695381 92.8177872,3.16511624 93.2484255,3.26599442 C93.2560851,3.26853756 93.2662979,3.27192843 93.2765106,3.27362386 C93.2782128,3.27362386 93.2799149,3.27447157 93.2833191,3.27447157 C93.4075745,3.30498934 93.5335319,3.33805025 93.6603404,3.36941574 C94.1854468,3.49826853 94.7054468,3.63559848 95.2228936,3.78055787 C95.4118298,3.83226853 95.601617,3.88397919 95.7897021,3.93908071 C96.3667234,4.10692843 96.9369362,4.28664416 97.5045957,4.47483706 C97.7292766,4.54858832 97.9505532,4.62742589 98.1735319,4.70456802 C98.6186383,4.8597 99.0611915,5.02076599 99.4994894,5.18776599 C99.5165106,5.1937 99.5326809,5.20048173 99.548,5.20641574 C99.5514043,5.20726345 99.5531064,5.20811117 99.5565106,5.20895888 C99.8356596,5.31577107 100.111404,5.42427868 100.387149,5.53448173 C100.788,5.69385228 101.183745,5.86000457 101.577787,6.02954772 C101.607574,6.04226345 101.633957,6.05497919 101.663745,6.06769492 C101.665447,6.06854264 101.665447,6.06939036 101.668851,6.07023807 C101.906298,6.17281168 102.148,6.27623299 102.382043,6.38389289 C102.503745,6.4381467 102.619489,6.49663909 102.739489,6.55174061 C102.76417,6.56276091 102.788851,6.57547665 102.814383,6.58649695 C103.142043,6.73823807 103.468851,6.88913147 103.793106,7.04850203 C104.089277,7.19346142 104.38034,7.34350711 104.672255,7.49524822 C104.925021,7.62494873 105.176085,7.7580401 105.427149,7.89197919 C105.749702,8.06576091 106.065447,8.24886751 106.382894,8.42858325 C106.565872,8.53200457 106.752255,8.63118731 106.933532,8.73630406 C106.933532,8.73715178 106.935234,8.73799949 106.935234,8.73884721 C106.948,8.74562893 106.958213,8.75071523 106.970128,8.75749695 C107.160766,8.87024315 107.352255,8.97959848 107.541191,9.0940401 C107.882468,9.29833959 108.221191,9.50772538 108.557362,9.71965431 C108.674809,9.79510102 108.791404,9.87309086 108.911404,9.94853756 C108.925872,9.95871015 108.941191,9.96973046 108.956511,9.97990305 C108.958213,9.98159848 108.960766,9.98329391 108.96417,9.98498934 C109.56417,10.3749386 110.158213,10.7759081 110.741191,11.1895934 L110.741191,11.1904411 C110.753106,11.1989183 110.765021,11.2057 110.776085,11.2150249 C110.862894,11.2760604 110.948851,11.3370959 111.037362,11.3989792 C111.065447,11.4201721 111.093532,11.4430604 111.121617,11.4642533 L111.123319,11.465101 C111.125021,11.465101 111.126723,11.4676442 111.128426,11.4684919 C112.933532,12.7765173 114.649277,14.2006797 116.263745,15.7308066 C116.266298,15.7350452 116.269702,15.738436 116.274809,15.7418269 C117.942043,17.3245122 119.499489,19.0182482 120.936085,20.8162533 C120.920766,20.7959081 120.906298,20.7764107 120.892681,20.7560655 C121.000766,20.8908523 121.103745,21.0315731 121.210128,21.1672076 C121.422894,21.4367812 121.63566,21.7080503 121.843319,21.9827102 C121.846723,21.9886442 121.85183,21.9945782 121.856936,22.0005122 C121.965021,22.1446239 122.069702,22.2921264 122.177787,22.4370858 C122.188851,22.4540401 122.202468,22.4701467 122.214383,22.4879487 C122.223745,22.5015122 122.233957,22.5150756 122.242468,22.5286391 C122.628,23.0542228 123.001617,23.5891315 123.367574,24.1308218 C123.393957,24.1698168 123.419489,24.2105071 123.445872,24.2486543 C123.813532,24.7996695 124.17183,25.3566188 124.518213,25.9228929 C124.523319,25.9271315 124.525021,25.9305223 124.525872,25.9347609 C124.529277,25.9398472 124.532681,25.9457812 124.536085,25.9500198 C124.689277,26.1992482 124.840766,26.4493244 124.989702,26.7019437 C124.993106,26.7053345 124.994809,26.7087254 124.996511,26.7138117 C125.174383,27.0147508 125.347149,27.3173853 125.519064,27.6234107 C125.519064,27.6242584 125.519915,27.6251061 125.519915,27.6276492 C125.686723,27.923502 125.849277,28.2244411 126.009277,28.5253802 C126.016936,28.5414868 126.027149,28.5575934 126.03566,28.5737 C126.176936,28.8407305 126.321617,29.1077609 126.459489,29.3773345 C126.459489,29.3790299 126.461191,29.3815731 126.461191,29.384964 C126.763319,29.9749741 127.052681,30.5726137 127.330128,31.1778827 C127.388851,31.308431 127.445021,31.4406746 127.503745,31.5703751 C127.509702,31.5847863 127.514809,31.5991975 127.521617,31.6144563 C127.777787,32.1858168 128.022043,32.7631112 128.257787,33.3463396 C128.297787,33.4472178 128.339489,33.5480959 128.379489,33.6498218 C128.379489,33.6532127 128.381191,33.6574513 128.382894,33.6616898 C128.576936,34.1516695 128.761617,34.6458878 128.941191,35.1451924 C128.944596,35.1519741 128.946298,35.1587558 128.948,35.1663853 C129.002468,35.3181264 129.059489,35.4690198 129.110553,35.6199132 C129.112255,35.6241518 129.113957,35.6292381 129.11566,35.6326289 C129.596511,37.0186442 130.015234,38.4343294 130.372681,39.872903 C130.387149,39.9330909 130.400766,39.9932787 130.415234,40.0543142 C130.416936,40.0602482 130.418638,40.0687254 130.42034,40.0755071 C130.932681,42.1668218 131.316511,44.3098472 131.553957,46.499497 L104.375234,52.2893954 C104.378638,51.4052279 104.38034,50.7719843 104.370128,50.5761619 C103.681617,38.6182838 93.7088511,29.2510249 81.6654468,29.2510249 C69.1258723,29.2510249 58.9224681,39.4125934 58.9224681,51.9028371 C58.9224681,64.3939284 69.1258723,74.555497 81.6654468,74.555497 C89.8484255,74.555497 97.2586383,70.2677508 101.328426,63.2817254 L86.121617,52.7700503 L132.273957,55.4615477 C132.22034,56.2083853 132.148,56.9484411 132.061191,57.6859538 Z M131.958213,54.0450147 L122.498638,53.3634513 L133.050128,47.7676797 C132.12417,36.237898 127.641617,25.5965223 120.134383,17.7280249 C119.042468,16.5827609 116.782043,14.3600503 115.62034,13.2834513 C111.198213,9.18135482 105.834809,6.13381675 100.102894,3.94416701 C95.3692766,1.97153249 90.2756596,0.573649239 84.9037447,0.226085787 C83.4245957,0.130293909 80.4603404,0.0209385787 78.9777872,0.00398426396 C66.9301277,-0.141822843 55.1148085,4.16372538 46.0041702,12.0067914 C44.9650213,12.9019792 42.934383,14.7440655 41.9428936,15.6901162 C33.6382128,23.6154107 28.5650213,34.3330807 26.9820426,45.6687355 C26.6441702,48.0847254 26.4731064,50.5532736 26.4731064,53.0074107 C26.4731064,82.2425832 50.3514043,106.026096 79.7037447,106.026096 C93.3709787,106.026096 106.44417,100.888939 116.512255,91.5606746 C121.047574,87.3619386 124.509702,82.5808218 126.933532,77.2885325 C130.902894,70.4737457 133.245021,62.8290452 133.702043,54.8511924 L133.716511,54.5756848 L133.742043,54.1603041 L133.322468,54.1382635 L131.958213,54.0450147 Z" id="Fill-3" fill="#231F20"></path>
                    <polygon id="Fill-5" fill="#FEFEFE" points="32.9720851 123.749374 39.0274043 123.749374 39.0274043 139.505866 42.6282553 139.505866 42.6282553 123.749374 48.6827234 123.749374 48.6827234 120.489059 32.9720851 120.489059"></polygon>
                    <polygon id="Fill-7" fill="#FEFEFE" points="52.7227234 139.505781 67.0146383 139.505781 67.0146383 135.974197 56.2954894 135.974197 56.2954894 131.681365 66.6325106 131.681365 66.6325106 128.340517 56.2954894 128.340517 56.2954894 123.966304 67.0146383 123.966304 67.0146383 120.488974 52.7227234 120.488974"></polygon>
                    <path d="M76.7262128,132.577994 L80.2725957,124.482309 L83.8198298,132.577994 L76.7262128,132.577994 Z M78.3091915,120.489568 L69.743234,139.505527 L73.6436596,139.505527 L75.2811064,135.919689 L85.2640851,135.919689 L86.8734468,139.505527 L90.8011064,139.505527 L82.236,120.489568 L78.3091915,120.489568 Z" id="Fill-9" fill="#FEFEFE"></path>
                    <polygon id="Fill-11" fill="#FEFEFE" points="90.0947234 123.749374 96.1483404 123.749374 96.1483404 139.505866 99.7491915 139.505866 99.7491915 123.749374 105.804511 123.749374 105.804511 120.489059 90.0947234 120.489059"></polygon>
                    <path d="M113.525617,129.915997 L113.525617,123.830246 L119.007319,123.830246 C121.272,123.830246 122.280511,125.351895 122.280511,126.873545 C122.280511,128.395195 121.300085,129.915997 119.007319,129.915997 L113.525617,129.915997 Z M121.054128,132.76856 C124.680511,132.035286 125.881362,129.399738 125.881362,126.791317 C125.881362,123.504723 123.507745,120.515677 119.007319,120.489398 C115.980936,120.489398 112.952,120.461423 109.925617,120.461423 L109.925617,139.506205 L113.525617,139.506205 L113.525617,133.148337 L116.989447,133.148337 L122.552851,139.506205 L126.835404,139.506205 L126.835404,139.261215 L121.054128,132.76856 Z" id="Fill-13" fill="#FEFEFE"></path>
                    <g id="Group-17" transform="translate(0.000000, 146.419157)">
                        <mask id="mask-2" fill="white">
                            <use xlink:href="#path-1"></use>
                        </mask>
                        <g id="Clip-16"></g>
                        <path d="M9.51957447,12.059265 L14.4012766,12.059265 L14.4012766,15.4272396 C12.9025532,16.6233665 11.592766,16.9488893 10.0914894,16.9488893 C5.34680851,16.9488893 3.5187234,13.7165492 3.5187234,10.5927168 C3.5187234,6.68050863 6.00042553,3.58295533 10.0914894,3.58295533 C11.7570213,3.58295533 13.6651064,4.26197563 14.9468085,5.48522944 L17.1842553,3.20317868 C15.2191489,1.27292995 12.6565957,0.296361421 10.0914894,0.296361421 C3.35446809,0.296361421 -0.000425531915,5.24023959 -0.000425531915,10.5927168 C-0.000425531915,15.5908487 2.91787234,20.2905848 10.0914894,20.2905848 C13.4455319,20.2905848 15.8208511,19.0139249 17.7025532,16.8666609 L17.7025532,8.85405178 L9.51957447,8.85405178 L9.51957447,12.059265 Z" id="Fill-15" fill="#FEFEFE" mask="url(#mask-2)"></path>
                    </g>
                    <path d="M25.9142128,156.685673 L25.9142128,150.599922 L31.396766,150.599922 C33.6605957,150.599922 34.6699574,152.120724 34.6699574,153.642374 C34.6699574,155.164023 33.6886809,156.685673 31.396766,156.685673 L25.9142128,156.685673 Z M38.2699574,153.560993 C38.2699574,150.274399 35.8971915,147.285353 31.396766,147.258226 C28.3695319,147.258226 25.3405957,147.231099 22.3142128,147.231099 L22.3142128,166.275034 L25.9142128,166.275034 L25.9142128,159.918013 L29.3780426,159.918013 L34.9422979,166.275034 L39.2257021,166.275034 L39.2257021,166.030044 L33.4427234,159.537389 C37.0691064,158.804115 38.2699574,156.169414 38.2699574,153.560993 Z" id="Fill-18" fill="#FEFEFE"></path>
                    <path d="M51.5833191,163.422724 C47.0820426,163.422724 45.3909787,160.081029 45.3092766,156.957196 C45.2275745,153.751136 47.0820426,150.138171 51.5833191,150.138171 C56.0837447,150.138171 57.8837447,153.724856 57.8301277,156.929222 C57.7739574,160.053902 56.0837447,163.422724 51.5833191,163.422724 M51.5833191,146.877856 C44.981617,146.877856 41.7628936,151.903963 41.7628936,156.902095 C41.7628936,161.901075 44.8735319,166.709318 51.5833191,166.709318 C58.2931064,166.709318 61.3211915,161.792567 61.3756596,156.874968 C61.4292766,151.903963 58.1569362,146.877856 51.5833191,146.877856" id="Fill-20" fill="#FEFEFE"></path>
                    <polygon id="Fill-22" fill="#FEFEFE" points="62.8931064 150.51905 68.9492766 150.51905 68.9492766 166.274694 72.5492766 166.274694 72.5492766 150.51905 78.6054468 150.51905 78.6054468 147.257887 62.8931064 147.257887"></polygon>
                    <polygon id="Fill-24" fill="#FEFEFE" points="81.8417872 166.275118 96.1337021 166.275118 96.1337021 162.742687 85.4137021 162.742687 85.4137021 158.45155 95.7515745 158.45155 95.7515745 155.110702 85.4137021 155.110702 85.4137021 150.734793 96.1337021 150.734793 96.1337021 147.258311 81.8417872 147.258311"></polygon>
                    <path d="M108.553872,154.64751 C106.261957,154.376241 104.298553,153.914236 104.298553,152.257799 C104.298553,150.844657 105.580255,149.730759 108.252596,149.730759 C110.327489,149.730759 112.127489,150.762429 112.781106,151.849201 L115.644936,150.381805 C114.200681,147.448708 111.118979,146.606926 108.145362,146.606926 C104.626213,146.634053 100.753021,148.237084 100.753021,152.148444 C100.753021,156.413302 104.353021,157.44582 108.252596,157.907825 C110.789617,158.179094 112.671319,158.913216 112.671319,160.706135 C112.671319,162.770322 110.54366,163.55785 108.281532,163.55785 C105.962383,163.55785 103.753021,162.634688 102.907064,160.543373 L99.9070638,162.091302 C101.324936,165.568632 104.324936,166.763911 108.226213,166.763911 C112.47983,166.763911 116.244936,164.943865 116.244936,160.706135 C116.244936,156.16916 112.536851,155.136642 108.553872,154.64751" id="Fill-26" fill="#FEFEFE"></path>
                    <polygon id="Fill-28" fill="#FEFEFE" points="135.866043 147.367073 135.866043 147.258565 131.391149 147.258565 124.137532 155.299997 124.137532 147.258565 120.536681 147.258565 120.536681 166.275373 124.137532 166.275373 124.137532 157.853317 132.129021 166.275373 136.57583 166.275373 136.57583 166.05751 127.383489 156.467302"></polygon>
                    <g id="Group-32" transform="translate(138.723404, 146.419157)">
                        <mask id="mask-4" fill="white">
                            <use xlink:href="#path-3"></use>
                        </mask>
                        <g id="Clip-31"></g>
                        <path d="M7.00961702,12.9289365 L10.5551489,4.83240355 L14.1006809,12.9289365 L7.00961702,12.9289365 Z M12.5185532,0.838814721 L8.59174468,0.838814721 L0.0283404255,19.8556218 L3.92791489,19.8556218 L5.56365957,16.2697843 L15.5466383,16.2697843 L17.156,19.8556218 L21.0836596,19.8556218 L12.5185532,0.838814721 Z" id="Fill-30" fill="#FEFEFE" mask="url(#mask-4)"></path>
                    </g>
                </g>
            </g>
        </g>
    </g>
</svg>