<?xml version="1.0" encoding="utf-8"?>
<!-- Generator: Adobe Illustrator 16.0.0, SVG Export Plug-In . SVG Version: 6.00 Build 0)  -->
<!DOCTYPE svg PUBLIC "-//W3C//DTD SVG 1.1//EN" "http://www.w3.org/Graphics/SVG/1.1/DTD/svg11.dtd">
<svg version="1.1" id="Warstwa_1" xmlns="http://www.w3.org/2000/svg" xmlns:xlink="http://www.w3.org/1999/xlink" x="0px" y="0px"
	 width="20px" height="20px" viewBox="0 0 20 20" enable-background="new 0 0 20 20" xml:space="preserve">
<g>
	<path fill="#FFFFFF" d="M15.985,3.67c-1.544-1.423-3.465-2.134-5.757-2.134c-2.411,0-4.465,0.808-6.161,2.427
		s-2.545,3.633-2.545,6.043c0,2.311,0.808,4.296,2.42,5.961c1.62,1.664,3.795,2.496,6.534,2.496c1.65,0,3.271-0.339,4.859-1.019
		c0.518-0.221,0.77-0.814,0.559-1.337l0,0c-0.217-0.538-0.831-0.787-1.367-0.559c-1.382,0.593-2.734,0.891-4.054,0.891
		c-2.099,0-3.726-0.639-4.879-1.92c-1.15-1.278-1.727-2.779-1.727-4.503c0-1.872,0.618-3.433,1.851-4.687
		c1.229-1.25,2.745-1.879,4.541-1.879c1.654,0,3.052,0.515,4.192,1.544c1.14,1.029,1.71,2.324,1.71,3.885
		c0,1.067-0.263,1.958-0.784,2.666c-0.522,0.711-1.064,1.063-1.626,1.063c-0.305,0-0.457-0.162-0.457-0.49
		c0-0.266,0.021-0.576,0.06-0.936l0.642-5.252h-2.21l-0.142,0.515c-0.562-0.459-1.181-0.691-1.851-0.691
		c-1.063,0-1.976,0.425-2.731,1.271c-0.76,0.846-1.136,1.937-1.136,3.271c0,1.301,0.335,2.354,1.008,3.153
		c0.673,0.801,1.481,1.198,2.428,1.198c0.846,0,1.567-0.356,2.169-1.064c0.451,0.681,1.118,1.02,1.999,1.02
		c1.295,0,2.413-0.563,3.356-1.692c0.943-1.126,1.416-2.486,1.416-4.078C18.302,6.816,17.531,5.093,15.985,3.67z M10.894,11.616
		c-0.39,0.524-0.856,0.791-1.398,0.791c-0.37,0-0.667-0.193-0.891-0.58c-0.228-0.388-0.342-0.867-0.342-1.444
		c0-0.711,0.159-1.285,0.477-1.72S9.451,8.007,9.92,8.007c0.408,0,0.771,0.162,1.087,0.49c0.318,0.328,0.478,0.764,0.478,1.309
		C11.481,10.487,11.284,11.088,10.894,11.616z"/>
</g>
</svg>
