<?xml version="1.0" encoding="UTF-8" standalone="no"?>
<svg width="35px" height="30px" viewBox="0 0 35 30" version="1.1" xmlns="http://www.w3.org/2000/svg" xmlns:xlink="http://www.w3.org/1999/xlink">
    <!-- Generator: Sketch 50.2 (55047) - http://www.bohemiancoding.com/sketch -->
    <title>Group 23</title>
    <desc>Created with Sketch.</desc>
    <defs></defs>
    <g id="Page-1" stroke="none" stroke-width="1" fill="none" fill-rule="evenodd">
        <g id="Group-23">
            <g id="Group-28">
                <path d="M13.3615787,0 L4.88541732,3.77697178 C3.46066531,4.83063872 2.27337196,6.93121043 1.32353728,10.0786869 C-0.101214738,14.7999016 -0.751443361,18.9051454 1.32353728,22.2099957 C3.39851792,25.514846 5.32694204,30 15.2278555,30 C21.8284644,30 26.8460156,29.1857749 30.2805089,27.5573246 L35,17.4786377 L32.150496,6.92782935 C31.2355634,5.56617692 28.565081,4.07112559 24.1390486,2.44267536 C19.7130162,0.814225118 16.1205262,0 13.3615787,0 Z" id="Path-6-Copy-6" fill="#FFFFFF" transform="translate(17.500000, 15.000000) scale(-1, -1) translate(-17.500000, -15.000000) "></path>
                <path d="M21.566584,14.0000492 C20.4976182,14.0000492 19.5161225,14.3877377 18.7510256,15.0315574 L18.3284957,14.7080492 C17.7234701,14.2448689 17.0009943,14 16.2391425,14 C15.227037,14 14.3148006,14.4414426 13.6786325,15.1443279 L13.4391795,14.8696557 C12.957416,14.3169672 12.2646296,14 11.5383761,14 C10.1387578,14 9,15.1562787 9,16.5775902 L9,18.3741475 C9,18.8047705 9.34503704,19.1551311 9.76911681,19.1551311 L12.7605356,19.1551311 L12.7605356,20.2834262 C12.7605356,20.7140492 13.1055726,21.0644098 13.5296524,21.0644098 L17.1478917,21.0644098 L17.1478917,22.1927049 C17.1478917,22.6233279 17.4929288,22.9736885 17.9169601,22.9736885 L25.216208,22.9736885 C25.6402393,22.9736885 25.9852279,22.6233279 25.9852279,22.1927049 L25.9852279,18.4868689 C25.9852279,16.0128525 24.003057,14.0000492 21.566584,14.0000492" id="Fill-1" fill="#35153F"></path>
                <path d="M21.8568657,6 C20.1237194,6 18.7136834,7.34577895 18.7136834,9.00004591 C18.7136834,9.02437606 18.714982,9.04843078 18.7155591,9.07266913 C18.4652665,7.99599088 17.4574589,7.1881379 16.2551503,7.1881379 C14.8652184,7.1881379 13.7344289,8.26743279 13.7344289,9.59406895 C13.7344289,9.64663127 13.7368337,9.69864271 13.7403447,9.75033282 C13.5346373,8.96212759 12.7869339,8.3762299 11.8983086,8.3762299 C10.8515912,8.3762299 10,9.18904072 10,10.188092 C10,11.1871892 10.8515912,12 11.8983086,12 C12.9450741,12 13.7966653,11.1871892 13.7966653,10.188092 C13.7966653,10.1637618 13.7957515,10.1396612 13.7946934,10.1154688 C14.0450341,11.192147 15.0528417,12 16.2551503,12 C17.6449379,12 18.7756313,10.9209806 18.7758717,9.59452801 C19.0657475,10.9649585 20.3368337,12 21.8568176,12 C23.5899639,12 25,10.6542211 25,9 C25,7.34573304 23.5899639,6 21.8568657,6" id="Fill-4" fill="#35153F"></path>
            </g>
        </g>
    </g>
</svg>