<?xml version="1.0" encoding="UTF-8" standalone="no"?>
<svg width="20px" height="19px" viewBox="0 0 20 19" version="1.1" xmlns="http://www.w3.org/2000/svg" xmlns:xlink="http://www.w3.org/1999/xlink">
    <!-- Generator: Sketch 48.2 (47327) - http://www.bohemiancoding.com/sketch -->
    <title>kosz-icon copy 5</title>
    <desc>Created with Sketch.</desc>
    <defs>
        <polygon id="path-1" points="1.52412165e-06 0.0121287748 16.9874491 0.0121287748 16.9874491 17 1.52412165e-06 17"></polygon>
        <polygon id="path-3" points="0.04375 0.0520138889 9.94891892 0.0520138889 9.94891892 9.97548611 0.04375 9.97548611"></polygon>
    </defs>
    <g id="Desktop-HD-Copy-16" stroke="none" stroke-width="1" fill="none" fill-rule="evenodd" transform="translate(-162.000000, -22.000000)">
        <g id="kosz-icon-copy-8" transform="translate(155.000000, 14.000000)">
            <g id="Page-1" transform="translate(7.000000, 8.000000)">
                <g id="Group-3" transform="translate(0.000000, 2.000000)">
                    <mask id="mask-2" fill="white">
                        <use xlink:href="#path-1"></use>
                    </mask>
                    <g id="Clip-2"></g>
                    <path d="M14.2867619,10.639247 C13.6727955,10.0330828 12.9063366,10.0330828 12.2963664,10.639247 C11.8310231,11.1006575 11.3656799,11.5621313 10.9081388,12.031344 C10.7830493,12.1603664 10.6774336,12.1877694 10.5248776,12.1017545 C10.2238254,11.9375269 9.90317239,11.8045716 9.61379179,11.6246761 C8.26470224,10.7760716 7.13458284,9.6850903 6.13348582,8.4572209 C5.63687015,7.84718731 5.19499701,7.19414627 4.8860791,6.4589597 C4.8234709,6.3104 4.8352694,6.21258657 4.95642612,6.09136642 C5.42183284,5.64169104 5.87537761,5.18021716 6.33291866,4.71880672 C6.97035522,4.07750075 6.97035522,3.3267097 6.32898582,2.6814709 C5.96532537,2.31387761 5.60166493,1.95415 5.23800448,1.58655672 C4.86260896,1.21116119 4.49108284,0.831832836 4.11181791,0.460370149 C3.49785149,-0.137928358 2.73139254,-0.137928358 2.12135896,0.464239552 C1.65208284,0.925713433 1.20240746,1.39885896 0.725329104,1.85246716 C0.28345597,2.27087015 0.0606164179,2.78315373 0.0136126866,3.38145224 C-0.0606671642,4.35514627 0.177903731,5.27409776 0.514161194,6.1695791 C1.20240746,8.02315 2.25038134,9.66942239 3.52132164,11.1788701 C5.23800448,13.2201388 7.28707537,14.8350754 9.68413881,16.0004634 C10.7634485,16.5244187 11.8818963,16.9272172 13.0980306,16.9937582 C13.9348366,17.0406351 14.6621575,16.8294672 15.2448515,16.1764261 C15.6437172,15.7306201 16.0933925,15.3240157 16.5157284,14.897747 C17.1414299,14.2641799 17.1452993,13.4977209 16.523594,12.8720828 C15.7805418,12.1252246 15.0336201,11.3822358 14.2867619,10.639247" id="Fill-1" fill="#FFFFFF" mask="url(#mask-2)"></path>
                </g>
                <path d="M14.4762373,8 L16,7.77846729 C15.7604635,6.5865027 15.0997957,5.50701558 14.0963683,4.64906117 C13.0350664,3.74541991 11.6930325,3.17578883 10.2146852,3 L10,4.3044991 C11.1438268,4.44161666 12.1844306,4.88114576 13.0061961,5.58087883 C13.7825461,6.2418836 14.2904223,7.07879127 14.4762373,8" id="Fill-4" fill="#FFFFFF"></path>
                <g id="Group-8" transform="translate(10.000000, 0.000000)">
                    <mask id="mask-4" fill="white">
                        <use xlink:href="#path-3"></use>
                    </mask>
                    <g id="Clip-7"></g>
                    <path d="M6.75827703,3.38263889 C4.98381757,1.55888889 2.73875,0.407291667 0.260371622,0.0520138889 L0.04375,1.64027778 C2.18476351,1.94847222 4.12577703,2.94597222 5.65868243,4.51708333 C7.11233108,6.01125 8.06618243,7.89916667 8.41192568,9.97548611 L9.9489527,9.70576389 C9.54489865,7.29979167 8.4410473,5.11645833 6.75827703,3.38263889" id="Fill-6" fill="#FFFFFF" mask="url(#mask-4)"></path>
                </g>
            </g>
        </g>
    </g>
</svg>