<?xml version="1.0" encoding="UTF-8" standalone="no"?>
<svg width="20px" height="20px" viewBox="0 0 20 20" version="1.1" xmlns="http://www.w3.org/2000/svg" xmlns:xlink="http://www.w3.org/1999/xlink">
    <!-- Generator: Sketch 50.2 (55047) - http://www.bohemiancoding.com/sketch -->
    <title>Group 17</title>
    <desc>Created with Sketch.</desc>
    <defs>
        <linearGradient x1="-2.22044605e-14%" y1="50%" x2="100%" y2="50%" id="linearGradient-1">
            <stop stop-color="#FFAE07" offset="0%"></stop>
            <stop stop-color="#F78F1C" offset="100%"></stop>
        </linearGradient>
    </defs>
    <g id="Page-1" stroke="none" stroke-width="1" fill="none" fill-rule="evenodd">
        <g id="Home-Copy-31" transform="translate(-1112.000000, -4444.000000)">
            <g id="Group-13" transform="translate(1112.000000, 4444.000000)">
                <g id="Group-17">
                    <rect id="Rectangle-16" fill="url(#linearGradient-1)" x="0" y="0" width="20" height="20" rx="10"></rect>
                    <g id="arrow-copy-3" transform="translate(6.000000, 5.000000)" fill="#FFFFFF">
                        <path d="M2.98018444,8.11828637 L-1.53452942,3.75232005 C-1.82182353,3.47458637 -1.82182353,3.02427251 -1.53452942,2.74662802 C-1.24741978,2.46907271 -0.781846539,2.46907271 -0.494736894,2.74662802 L3.5000807,6.6099267 L7.49471384,2.74680639 C7.78191571,2.4691619 8.24748895,2.4691619 8.53459859,2.74680639 C8.82180047,3.0243617 8.82180047,3.47467555 8.53459859,3.75240924 L4.01979251,8.11837556 C3.87619157,8.2572424 3.68822836,8.32654204 3.5000807,8.32654204 C3.31184081,8.32654204 3.12369314,8.25706403 2.98018444,8.11828637" id="Fill-1" transform="translate(3.500000, 5.432502) rotate(90.000000) translate(-3.500000, -5.432502) "></path>
                    </g>
                </g>
            </g>
        </g>
    </g>
</svg>