<?xml version="1.0" encoding="UTF-8" standalone="no"?>
<svg width="28px" height="28px" viewBox="0 0 28 28" version="1.1" xmlns="http://www.w3.org/2000/svg" xmlns:xlink="http://www.w3.org/1999/xlink">
    <!-- Generator: Sketch 50.2 (55047) - http://www.bohemiancoding.com/sketch -->
    <title>Group 16 Copy</title>
    <desc>Created with Sketch.</desc>
    <defs>
        <linearGradient x1="-2.22044605e-14%" y1="50%" x2="100%" y2="50%" id="linearGradient-1">
            <stop stop-color="#FFAE07" offset="0%"></stop>
            <stop stop-color="#F78F1C" offset="100%"></stop>
        </linearGradient>
    </defs>
    <g id="Page-1" stroke="none" stroke-width="1" fill="none" fill-rule="evenodd">
        <g id="Group-16-Copy" transform="translate(-1.000000, 0.000000)">
            <g id="Group-3-Copy-2" transform="translate(1.000000, 0.000000)" fill="url(#linearGradient-1)">
                <rect id="Rectangle-16" x="0" y="0" width="28" height="28" rx="14"></rect>
            </g>
            <path d="M11.07,15.38 L11.17,16.91 C10.17,17.04 8.77,17.04 7.58,17.04 C6.63,17.04 5.96,16.4 5.96,15.47 L5.96,11.63 C5.96,10.7 6.63,10.06 7.58,10.06 C8.77,10.06 10.17,10.06 11.17,10.19 L11.07,11.72 L8.54,11.72 C8.29,11.72 8.13,11.87 8.13,12.08 L8.13,12.75 L10.71,12.75 L10.71,14.19 L8.13,14.19 L8.13,15.02 C8.13,15.23 8.29,15.38 8.54,15.38 L11.07,15.38 Z M18.32,10.1 L18.32,16.25 C18.32,16.74 18.06,17 17.57,17 L16.74,17 C16.29,17 16.13,16.78 15.9,16.37 L14.4,14 C14.21,13.66 14.06,13.24 13.94,12.82 L13.87,12.82 C13.93,13.24 13.97,13.68 13.97,14.08 L13.97,17 L11.97,17 L11.97,10.85 C11.97,10.36 12.23,10.1 12.72,10.1 L13.55,10.1 C14,10.1 14.15,10.32 14.39,10.73 L15.83,12.99 C16.02,13.32 16.2,13.73 16.36,14.17 L16.43,14.17 C16.38,13.75 16.34,13.34 16.34,12.92 L16.33,10.1 L18.32,10.1 Z M25.14,13.03 L25.14,17 L23.54,17 L23.35,16.29 C23.03,16.68 22.37,17.14 21.44,17.14 C19.85,17.14 19.15,16.16 19.15,13.55 C19.15,10.9 20.02,9.96 22.4,9.96 C23.5,9.96 24.12,10.04 24.85,10.25 L24.69,11.81 C23.93,11.8 23.34,11.79 22.41,11.79 C21.64,11.79 21.43,12.13 21.43,13.55 C21.43,14.95 21.63,15.29 22.31,15.29 C22.6,15.29 22.86,15.26 23.06,15.23 L23.06,13.03 L25.14,13.03 Z" id="ENG" fill="#FFFFFF"></path>
        </g>
    </g>
</svg>