<?xml version="1.0" encoding="UTF-8" standalone="no"?>
<svg width="26px" height="26px" viewBox="0 0 26 26" version="1.1" xmlns="http://www.w3.org/2000/svg" xmlns:xlink="http://www.w3.org/1999/xlink">
    <!-- Generator: Sketch 50.2 (55047) - http://www.bohemiancoding.com/sketch -->
    <title>icon-random copy 2</title>
    <desc>Created with Sketch.</desc>
    <defs>
        <polygon id="path-1" points="0 7.92682927e-05 26 7.92682927e-05 26 26 0 26"></polygon>
    </defs>
    <g id="Page-1" stroke="none" stroke-width="1" fill="none" fill-rule="evenodd">
        <g id="Home-Copy-69" transform="translate(-1125.000000, -5872.000000)">
            <g id="Group-2" transform="translate(0.000000, 5735.000000)">
                <g id="insta-copy-13" transform="translate(1125.000000, 137.000000)">
                    <circle id="Oval-3" fill="#FFFFFF" cx="13" cy="13" r="13"></circle>
                    <g id="Group-3" stroke-width="1">
                        <mask id="mask-2" fill="white">
                            <use xlink:href="#path-1"></use>
                        </mask>
                        <g id="Clip-2"></g>
                    </g>
                    <path d="M16.1035807,10.9979281 L13.8285678,10.9979281 L13.8285678,9.33760257 C13.8285678,8.82834037 14.3553743,8.71015582 14.601313,8.71015582 L16.0708845,8.71015582 L16.0708845,6.46959355 L14.3864755,6.46082142 C12.0884956,6.46082142 11.5639221,8.13151403 11.5639221,9.20283071 L11.5639221,10.9979281 L9.89641934,10.9979281 L9.89641934,13.306594 L11.5639221,13.306594 L11.5639221,19.5392743 L13.8285678,19.5392743 L13.8285678,13.306594 L15.7523764,13.306594 L16.1035807,10.9979281 Z" id="Fill-4" fill="#315291"></path>
                </g>
            </g>
        </g>
    </g>
</svg>