<?xml version="1.0" encoding="UTF-8" standalone="no"?>
<svg width="132px" height="132px" viewBox="0 0 132 132" version="1.1" xmlns="http://www.w3.org/2000/svg" xmlns:xlink="http://www.w3.org/1999/xlink">
    <!-- Generator: Sketch 50.2 (55047) - http://www.bohemiancoding.com/sketch -->
    <title>icon-random copy 5</title>
    <desc>Created with Sketch.</desc>
    <defs>
        <polygon id="path-1" points="7.14285714e-05 0.0264 131.973429 0.0264 131.973429 131.857269 7.14285714e-05 131.857269"></polygon>
        <polygon id="path-3" points="0 131.9736 131.973429 131.9736 131.973429 0.142702703 0 0.142702703"></polygon>
    </defs>
    <g id="Page-1" stroke="none" stroke-width="1" fill="none" fill-rule="evenodd">
        <g id="Home-Copy-42-(1)" transform="translate(-1128.000000, -1780.000000)">
            <g id="Group-3-Copy-8" transform="translate(1047.000000, 1780.000000)">
                <g id="4" transform="translate(81.000000, 0.000000)">
                    <g id="Group-3" stroke-width="1" fill-rule="evenodd" transform="translate(0.000000, 0.116303)">
                        <mask id="mask-2" fill="white">
                            <use xlink:href="#path-1"></use>
                        </mask>
                        <g id="Clip-2"></g>
                        <path d="M131.9735,65.9418915 C131.9735,102.345779 102.430214,131.857269 65.9867857,131.857269 C29.5432143,131.857269 7.14285714e-05,102.345779 7.14285714e-05,65.9418915 C7.14285714e-05,29.5377185 29.5432143,0.0263714595 65.9867857,0.0263714595 C102.430214,0.0263714595 131.9735,29.5377185 131.9735,65.9418915" id="Fill-1" fill="#92D300" mask="url(#mask-2)"></path>
                    </g>
                    <path d="M74.9651286,42.3996415 C77.5282714,42.3996415 79.7717,44.1423269 80.4205571,46.6376264 L80.4442714,46.728528 L80.8648429,46.728528 L80.8648429,40.0317756 L80.6824143,40.1370902 C79.6089857,40.7569907 78.3904143,41.0846361 77.1582714,41.0846361 C76.0194143,41.0846361 74.8818429,40.8035118 73.8688429,40.2718015 L73.7695571,40.219715 L73.7097,40.3144696 C72.4091286,42.3716718 70.1782714,43.5997712 67.7422714,43.5997712 C65.3064143,43.5997712 63.0754143,42.3716718 61.7749857,40.3144696 L61.7151286,40.2198577 L61.6159857,40.2718015 C60.6021286,40.802941 59.4645571,41.0836372 58.3259857,41.0836372 C57.0941286,41.0836372 55.8757,40.7562772 54.8021286,40.1370902 L54.6198429,40.0319183 L54.6198429,46.728528 L55.0402714,46.728528 L55.0639857,46.6376264 C55.7128429,44.1423269 57.9562714,42.3996415 60.5195571,42.3996415 C63.0827,42.3996415 65.3261286,44.1423269 65.9751286,46.6376264 L65.9988429,46.728528 L69.4858429,46.728528 L69.5095571,46.6376264 C70.1585571,44.1423269 72.4019857,42.3996415 74.9651286,42.3996415 Z M84.0579857,32.5620026 C84.3732714,34.0842123 84.1884143,35.6308242 83.5211286,37.0432956 L83.5094143,37.0679831 L83.5094143,41.0800696 L83.6065571,41.0999053 C86.6402714,41.7172372 88.8938429,44.2202426 89.2145571,47.3280221 L89.2348429,47.5242383 L89.6914143,47.231555 C91.4007,46.1380242 92.4211286,44.2863139 92.4211286,42.2782015 C92.4211286,40.2700891 91.4007,38.4183788 89.6914143,37.3247053 L88.6765571,36.6756934 L89.2298429,35.6051377 C90.1615571,33.8038015 90.1182714,31.6903745 89.1141286,29.9521129 C88.1084143,28.2127096 86.2982714,27.1187507 84.2721286,27.0258512 L83.0668429,26.9703399 L83.0112714,25.7662145 C82.9182714,23.7421194 81.8231286,21.9339334 80.0815571,20.9295918 C79.1918429,20.4164329 78.1804143,20.1452977 77.1565571,20.1452977 C76.2157,20.1452977 75.2704143,20.3766188 74.4225571,20.8140026 L73.3508429,21.3665475 L72.7011286,20.3530729 C71.6064143,18.6454923 69.7527,17.6260242 67.7422714,17.6260242 C65.7319857,17.6260242 63.8782714,18.6454923 62.7835571,20.3529302 L62.1338429,21.3665475 L61.0619857,20.8140026 C60.2142714,20.3766188 59.2689857,20.1452977 58.3281286,20.1452977 C57.3042714,20.1452977 56.2928429,20.4164329 55.4029857,20.9295918 C53.6615571,21.9333626 52.5664143,23.7415485 52.4734143,25.7662145 L52.4178429,26.9703399 L51.2124143,27.0258512 C49.1871286,27.118608 47.3769857,28.2125669 46.3705571,29.9519702 C45.3662714,31.6902318 45.3229857,33.8036588 46.2549857,35.6052804 L46.8079857,36.6756934 L45.7932714,37.3247053 C44.0839857,38.4183788 43.0634143,40.2700891 43.0634143,42.2782015 C43.0634143,44.2864566 44.0834143,46.1375961 45.7918429,47.2304134 L46.2482714,47.5230966 L46.2685571,47.3267377 C46.5894143,44.2189583 48.8431286,41.7160956 51.8765571,41.0984783 L51.9738429,41.0786426 L51.9738429,37.0664134 L51.9621286,37.0417258 C51.2945571,35.6288264 51.1097,34.0820718 51.4251286,32.5607183 L54.0069857,33.1395204 C53.6362714,35.0182015 54.4771286,36.8977388 56.1252714,37.8465691 C56.7941286,38.2332934 57.5539857,38.437501 58.3225571,38.437501 C59.4399857,38.4373583 60.5167,38.0139594 61.3544143,37.2449345 L62.8905571,35.8307507 L63.5138429,37.8240221 C64.1019857,39.6975658 65.8014143,40.9566318 67.7422714,40.9566318 C69.6837,40.9566318 71.3825571,39.6981366 71.9694143,37.8253064 L72.5927,35.8321777 L74.1287,37.2463615 C74.9655571,38.0153864 76.0419857,38.438928 77.1595571,38.438928 C77.9282714,38.438928 78.6885571,38.2345777 79.3581286,37.8479961 C81.0061286,36.8991658 81.8469857,35.0196285 81.4761286,33.1410902 L84.0579857,32.5620026 Z M60.5195571,45.042781 C58.8595571,45.042781 57.5089857,46.392035 57.5089857,48.0502404 C57.5089857,49.7084458 58.8595571,51.0575572 60.5195571,51.0575572 C62.1797,51.0575572 63.5302714,49.7084458 63.5302714,48.0502404 C63.5302714,46.392035 62.1797,45.042781 60.5195571,45.042781 Z M74.9651286,45.042781 C73.3049857,45.042781 71.9544143,46.392035 71.9544143,48.0502404 C71.9544143,49.7084458 73.3049857,51.0575572 74.9651286,51.0575572 C76.6251286,51.0575572 77.9757,49.7084458 77.9757,48.0502404 C77.9757,46.392035 76.6251286,45.042781 74.9651286,45.042781 Z M83.5108429,50.9361172 C83.5108429,51.3324026 83.4805571,51.7295442 83.4512714,52.1136999 L83.4374143,52.2969302 L83.6108429,52.2472696 C85.4244143,51.6315075 86.6429857,49.9449042 86.6429857,48.0502404 C86.6429857,46.1841172 85.4495571,44.5050772 83.6731286,43.8724761 L83.5108429,43.8146815 L83.5108429,50.9361172 Z M51.8115571,43.8724761 C50.0349857,44.5052199 48.8415571,46.1841172 48.8415571,48.0502404 C48.8415571,49.9449042 50.0601286,51.6315075 51.8738429,52.2472696 L52.0479857,52.3064912 L52.0339857,52.123261 C52.0039857,51.7295442 51.9738429,51.3324026 51.9738429,50.9361172 L51.9738429,43.8146815 L51.8115571,43.8724761 Z M54.6198429,50.9361172 C54.6198429,58.1640091 60.5065571,64.0443594 67.7422714,64.0443594 C74.9781286,64.0443594 80.8648429,58.1640091 80.8648429,50.9361172 L80.8648429,49.3716675 L80.4442714,49.3716675 L80.4205571,49.4625691 C79.7717,51.9578685 77.5282714,53.7006966 74.9651286,53.7006966 C72.4019857,53.7006966 70.1585571,51.9578685 69.5095571,49.4625691 L69.4858429,49.3716675 L65.9988429,49.3716675 L65.9751286,49.4625691 C65.3261286,51.9578685 63.0827,53.7006966 60.5195571,53.7006966 C57.9562714,53.7006966 55.7128429,51.9578685 55.0639857,49.4625691 L55.0402714,49.3716675 L54.6198429,49.3716675 L54.6198429,50.9361172 Z M52.4734143,58.7914729 C52.5662714,60.8148545 53.6615571,62.6231831 55.4028429,63.6285237 C56.0641286,64.0102534 56.8085571,64.2539896 57.6157,64.3523118 L57.7519857,64.369008 L57.7519857,63.1140804 L57.7078429,63.0776912 C55.2125571,61.0163507 53.4335571,58.2741756 52.5631286,55.1474166 L52.5412714,55.0689302 L52.4604143,55.0593691 C49.3561286,54.6904826 46.8911286,52.3913994 46.3264143,49.3384177 L46.2544143,48.9489821 L46.0957,49.311875 C45.3337,51.0537042 45.4338429,52.9831875 46.3705571,54.6057172 C47.3739857,56.3438361 49.1847,57.437795 51.2139857,57.5321215 L52.4178429,57.5887745 L52.4734143,58.7914729 Z M89.1597,49.336848 C88.5967,52.3881172 86.1317,54.6872004 83.0258429,55.0580848 L82.9448429,55.0677885 L82.9231286,55.1461323 C82.0525571,58.2724631 80.2735571,61.014781 77.7781286,63.0764069 L77.7341286,63.1126534 L77.7341286,64.369008 L77.8704143,64.3523118 C78.6748429,64.2541323 79.4198429,64.0101107 80.0845571,63.6269539 C81.8252714,62.6218988 82.9198429,60.8137129 83.0127,58.7900458 L83.0682714,57.5873475 L84.2722714,57.5305518 C86.3008429,57.4362253 88.1114143,56.3422664 89.1157,54.6041475 C90.0514143,52.9831875 90.1517,51.0538469 89.3905571,49.310448 L89.2317,48.9466988 L89.1597,49.336848 Z M60.3979857,67.8104264 L60.4255571,67.8439615 C61.2665571,68.8708502 63.6634143,71.2592653 67.7422714,71.2592653 C71.8074143,71.2592653 74.2132714,68.8709929 75.0588429,67.8442469 L75.0867,67.8105691 L75.0867,64.858621 L74.9097,64.9492372 C72.6571286,66.1028458 70.2457,66.6876415 67.7422714,66.6876415 C65.2391286,66.6876415 62.8277,66.1028458 60.5749857,64.9492372 L60.3979857,64.858621 L60.3979857,67.8104264 Z M67.6244143,96.9665864 L67.8602714,96.9665864 L74.0765571,72.1263269 L73.8275571,72.2713129 C71.9702714,73.3537129 69.9228429,73.9025475 67.7422714,73.9025475 C65.5618429,73.9025475 63.5144143,73.3537129 61.6571286,72.2713129 L61.4081286,72.1263269 L67.6244143,96.9665864 Z M50.2862714,101.562042 L61.4995571,101.562042 L57.7519857,91.5804156 L57.7519857,87.963901 L53.6498429,86.5958102 L49.6971286,72.1164804 L44.1824143,73.586461 C40.9721286,74.4415356 38.7299857,77.356381 38.7299857,80.6747896 L38.7299857,101.562042 L47.6401286,101.562042 L47.6401286,82.8033431 L50.2862714,82.8033431 L50.2862714,101.562042 Z M60.3979857,91.0992221 L64.3269857,101.562042 L66.0488429,101.562042 L58.1184143,69.8749064 L52.2545571,71.4360739 L55.8315571,84.5368956 L60.3979857,86.057821 L60.3979857,91.0992221 Z M69.4358429,101.562042 L71.1589857,101.562042 L75.0867,91.0992221 L75.0867,86.057821 L79.6529857,84.5368956 L83.2299857,71.4360739 L77.3662714,69.8749064 L69.4358429,101.562042 Z M87.8445571,101.562042 L96.7547,101.562042 L96.7547,80.6747896 C96.7547,77.3549539 94.5119857,74.4412502 91.3009857,73.5890296 L85.7859857,72.1194772 L81.8334143,86.5988069 L77.7327,87.9637583 L77.7327,91.5804156 L73.9851286,101.562042 L85.1984143,101.562042 L85.1984143,82.8033431 L87.8445571,82.8033431 L87.8445571,101.562042 Z M36.0837,104.205181 L36.0837,80.6747896 C36.0837,76.160675 39.1331286,72.1965366 43.4992714,71.0343658 L57.7519857,67.2370469 L57.7519857,67.0316977 L57.6401286,67.0112912 C56.3609857,66.9089734 55.1635571,66.5410858 54.0812714,65.9176177 C51.9302714,64.6782448 50.4321286,62.5676718 49.9709857,60.1273129 L49.9557,60.0458296 L49.8741286,60.0304177 C47.4321286,59.5686318 45.3192714,58.0726794 44.0774143,55.9257172 C42.8382714,53.7784696 42.5979857,51.2028285 43.4181286,48.8593648 L43.4454143,48.7813064 L43.3827,48.7273648 C41.4981286,47.1066902 40.4174143,44.7562339 40.4174143,42.2782015 C40.4174143,40.306621 41.1194143,38.3779939 42.3942714,36.8479356 L42.4871286,36.7363421 L42.3609857,36.6647053 C40.4118429,35.5584739 38.2441286,34.9641172 36.0837,34.9425691 L36.0837,32.2991442 C38.4299857,32.3169821 40.6945571,32.8502621 42.8168429,33.8851421 L43.0139857,33.9813237 L42.9909857,33.7634166 C42.8014143,31.965648 43.1771286,30.1905691 44.0774143,28.6304004 C45.3184143,26.4822966 47.4312714,24.9864869 49.8739857,24.526128 L49.9555571,24.5108588 L49.9709857,24.4293756 C50.4332714,21.9890166 51.9309857,19.8784437 54.0798429,18.638928 C55.3741286,17.8935918 56.8438429,17.4997323 58.3299857,17.4997323 C59.2911286,17.4997323 60.2414143,17.6614145 61.1539857,17.980355 L61.2322714,18.0076112 L61.2862714,17.9449648 C62.9085571,16.0624307 65.2617,14.9828848 67.7422714,14.9828848 C70.2229857,14.9828848 72.5759857,16.0624307 74.1984143,17.9449648 L74.2525571,18.0076112 L74.3307,17.980355 C75.2435571,17.6605583 76.1939857,17.498448 77.1551286,17.498448 C78.6404143,17.498448 80.1098429,17.8928783 81.4048429,18.638928 C82.9822714,19.548515 84.2035571,20.9116112 84.9368429,22.5810902 L85.0147,22.7583269 L85.1404143,22.6110577 C86.9044143,20.5451507 89.4638429,19.3473042 92.1781286,19.3124848 L92.1781286,21.9560523 C90.0925571,21.9944394 88.1118429,23.0171896 86.8601286,24.7083594 L86.7629857,24.8396458 L86.9167,24.8948718 C88.8145571,25.5757064 90.4092714,26.9024134 91.4072714,28.6304004 C92.6464143,30.7779334 92.8867,33.3535745 92.0665571,35.697181 L92.0392714,35.7752394 L92.1019857,35.829181 C93.9864143,37.4497129 95.0672714,39.8003118 95.0672714,42.2782015 C95.0672714,43.9091507 94.5934143,45.5025691 93.6971286,46.8862145 L93.6047,47.0290599 L93.7699857,47.0700156 C95.7365571,47.5563464 97.5171286,48.539568 98.9268429,49.9165064 L97.0558429,51.785341 C95.8128429,50.5802166 94.1751286,49.7658123 92.4301286,49.4872566 L92.2491286,49.4584307 L92.2931286,49.6362383 C92.8235571,51.7824869 92.5089857,54.0162123 91.4072714,55.9258599 C90.1662714,58.0725366 88.0535571,59.5686318 85.6105571,60.0304177 L85.5291286,60.0458296 L85.5137,60.1271702 C85.0511286,62.5675291 83.5534143,64.6779594 81.4048429,65.9176177 C80.3172714,66.5432264 79.1194143,66.9122556 77.8445571,67.0141453 L77.7327,67.0231356 L77.7327,67.2283421 L77.8229857,67.2594512 L91.9854143,71.0343658 C96.3515571,72.1965366 99.4009857,76.160675 99.4009857,80.6747896 L99.4009857,104.205181 L36.0837,104.205181 Z" id="Fill-4" fill="#232323" fill-rule="evenodd"></path>
                    <mask id="mask-4" fill="white">
                        <use xlink:href="#path-3"></use>
                    </mask>
                    <g id="Clip-7"></g>
                    <polygon id="Fill-6" fill="#232323" fill-rule="evenodd" mask="url(#mask-4)" points="64.9747143 59.4726357 70.5098571 59.4726357 70.5098571 56.8294962 64.9747143 56.8294962"></polygon>
                </g>
            </g>
        </g>
    </g>
</svg>