<?xml version="1.0" encoding="UTF-8" standalone="no"?>
<svg width="132px" height="132px" viewBox="0 0 132 132" version="1.1" xmlns="http://www.w3.org/2000/svg" xmlns:xlink="http://www.w3.org/1999/xlink">
    <!-- Generator: Sketch 50.2 (55047) - http://www.bohemiancoding.com/sketch -->
    <title>icon-random copy 5</title>
    <desc>Created with Sketch.</desc>
    <defs>
        <polygon id="path-1" points="7.14285714e-05 0.0264 131.973429 0.0264 131.973429 131.857269 7.14285714e-05 131.857269"></polygon>
        <polygon id="path-3" points="7.14285714e-05 0.0264 131.973429 0.0264 131.973429 131.857269 7.14285714e-05 131.857269"></polygon>
    </defs>
    <g id="Page-1" stroke="none" stroke-width="1" fill="none" fill-rule="evenodd">
        <g id="Home-Copy-42-(1)" transform="translate(-183.000000, -1780.000000)">
            <g id="Group-3-Copy-5" transform="translate(117.000000, 1780.000000)">
                <g id="1" transform="translate(66.000000, 0.000000)">
                    <g id="Group-3" transform="translate(0.000000, 0.116303)">
                        <mask id="mask-2" fill="white">
                            <use xlink:href="#path-1"></use>
                        </mask>
                        <g id="Clip-2"></g>
                    </g>
                    <g id="Group" transform="translate(0.000000, 0.142703)">
                        <g id="Group-3">
                            <mask id="mask-4" fill="white">
                                <use xlink:href="#path-3"></use>
                            </mask>
                            <g id="Clip-2"></g>
                            <path d="M131.9735,65.9418915 C131.9735,102.345922 102.430214,131.857269 65.9867857,131.857269 C29.5432143,131.857269 7.14285714e-05,102.345922 7.14285714e-05,65.9418915 C7.14285714e-05,29.5377185 29.5432143,0.0263714595 65.9867857,0.0263714595 C102.430214,0.0263714595 131.9735,29.5377185 131.9735,65.9418915" id="Fill-1" fill="#92D300" mask="url(#mask-4)"></path>
                        </g>
                        <path d="M56.7317143,105.37296 C52.845,105.37296 49.1902857,103.661241 46.7047143,100.676614 L42.1808571,95.2447784 C40.3535714,93.0505816 37.6658571,91.7829535 34.8067143,91.7664 L34.7242857,91.7659719 L34.6934286,91.8424605 C34.0215714,93.5032346 32.4317143,94.5765016 30.6428571,94.5765016 L28.7621429,94.5765016 C27.8304286,94.5765016 27.0725714,93.8193211 27.0725714,92.8887568 C27.0725714,91.9580497 27.8304286,91.2010119 28.7621429,91.2010119 L30.643,91.2010119 C31.188,91.2010119 31.6315714,90.7580627 31.6315714,90.2136519 L31.6315714,75.7139157 C31.6315714,75.1695049 31.188,74.726413 30.643,74.726413 L23.8075714,74.726413 L23.8075714,86.2674941 C23.8075714,87.1982011 23.0497143,87.9550962 22.1181429,87.9550962 C21.1865714,87.9550962 20.4285714,87.1982011 20.4285714,86.2674941 L20.4285714,73.0389535 C20.4285714,72.1083892 21.1865714,71.3513514 22.1181429,71.3513514 L30.6428571,71.3513514 C32.402,71.3513514 33.982,72.3995027 34.6682857,74.0216043 L34.6995714,74.095667 L41.8,74.095667 C45.9998571,74.095667 49.977,75.7002162 52.9985714,78.6140627 L62.7624286,88.0284454 C64.8105714,90.0034508 64.906,93.3103005 62.9751429,95.3997535 C61.9811429,96.4754465 60.5661429,97.092493 59.0928571,97.092493 C57.7674286,97.092493 56.5014286,96.6015957 55.528,95.7102746 L47.8625714,88.6912995 C47.5298571,88.3866292 47.3358571,87.9709362 47.3161429,87.5205665 C47.2967143,87.0701968 47.4538571,86.6392346 47.7587143,86.30688 C48.0778571,85.9591135 48.532,85.7596151 49.0045714,85.7596151 C49.4281429,85.7596151 49.8332857,85.9170162 50.1455714,86.2031351 L57.8111429,93.2223957 C58.1617143,93.5433341 58.6174286,93.72 59.0947143,93.72 C59.6248571,93.72 60.1341429,93.4978119 60.4921429,93.1105168 C61.1874286,92.3583308 61.153,91.1677622 60.4155714,90.4566746 L50.6518571,81.0422919 C48.2634286,78.739213 45.1197143,77.4710141 41.8,77.4710141 L35.0102857,77.4710141 L35.0102857,88.3967611 L35.1282857,88.4001859 C38.87,88.507213 42.3872857,90.2150789 44.7784286,93.0861146 L49.3022857,98.5178076 C51.1438571,100.729271 53.8518571,101.997756 56.7317143,101.997756 L75.6484286,101.997756 C76.8,101.997756 77.7368571,101.061911 77.7368571,99.9115849 C77.7368571,98.7614011 76.8,97.8255568 75.6484286,97.8255568 L68.6212857,97.8255568 C67.6895714,97.8255568 66.9317143,97.0686616 66.9317143,96.1379546 C66.9317143,95.2073903 67.6895714,94.4502097 68.6212857,94.4502097 L75.6484286,94.4502097 C78.6631429,94.4502097 81.1155714,96.9001297 81.1155714,99.9115849 C81.1155714,102.92304 78.6631429,105.37296 75.6484286,105.37296 L56.7317143,105.37296 Z" id="Fill-4" fill="#232323"></path>
                        <path d="M102.758571,61.2776822 C100.999429,61.2776822 99.4192857,60.2295308 98.7331429,58.6074292 L98.7018571,58.5333665 L91.6014286,58.5333665 C87.4017143,58.5333665 83.4244286,56.9286746 80.4027143,54.0148281 L70.639,44.6005881 C68.5908571,42.6258681 68.4952857,39.3190184 70.4261429,37.22928 C71.4204286,36.1534443 72.8354286,35.5365405 74.3084286,35.5365405 C75.6338571,35.5365405 76.8998571,36.0274378 77.8734286,36.9187589 L85.5391429,43.9375914 C85.8717143,44.2421189 86.0657143,44.6578119 86.0852857,45.1081816 C86.105,45.5586941 85.9478571,45.9896562 85.6428571,46.3220108 C85.3237143,46.6697773 84.8695714,46.869133 84.3971429,46.869133 C83.9737143,46.869133 83.5684286,46.7117319 83.2558571,46.425613 L75.5901429,39.4064951 C75.2397143,39.0855568 74.7838571,38.9087481 74.3067143,38.9087481 C73.7764286,38.9087481 73.2671429,39.1309362 72.9091429,39.5182314 C72.2141429,40.27056 72.2485714,41.4611286 72.9857143,42.1720735 L82.7495714,51.5865989 C85.1378571,53.8896778 88.2815714,55.1578768 91.6014286,55.1578768 L98.3911429,55.1578768 L98.3911429,44.2321297 L98.2731429,44.2287049 C94.531,44.1215351 91.0137143,42.4136692 88.6228571,39.5424908 L84.0991429,34.1110832 C82.2575714,31.8996195 79.5495714,30.6311351 76.6695714,30.6311351 L57.753,30.6311351 C56.6014286,30.6311351 55.6645714,31.5669795 55.6645714,32.7171632 C55.6645714,33.8674897 56.6014286,34.8033341 57.753,34.8033341 L65.4881429,34.8033341 C66.4197143,34.8033341 67.1777143,35.5602292 67.1777143,36.4909362 C67.1777143,37.4215005 66.4197143,38.1785384 65.4881429,38.1785384 L57.753,38.1785384 C54.7382857,38.1785384 52.2857143,35.7286184 52.2857143,32.7173059 C52.2857143,29.7061362 54.7382857,27.2562162 57.753,27.2562162 L76.6692857,27.2562162 C80.5561429,27.2562162 84.2108571,28.9680778 86.6964286,31.9528476 L91.2202857,37.3842551 C93.0474286,39.5784519 95.7352857,40.8462227 98.5945714,40.8626335 L98.677,40.8630616 L98.7078571,40.7867157 C99.3797143,39.1259416 100.969714,38.0528173 102.758429,38.0528173 L104.506286,38.0528173 C105.438,38.0528173 106.195857,38.8098551 106.195857,39.7404195 C106.195857,40.6711265 105.438,41.4280216 104.506286,41.4280216 L102.758429,41.4280216 C102.213429,41.4280216 101.769857,41.8711135 101.769857,42.4155243 L101.769857,56.9152605 C101.769857,57.4596714 102.213429,57.9027632 102.758429,57.9027632 L109.593857,57.9027632 L109.593857,45.6548757 C109.593857,44.7243114 110.351571,43.9672735 111.283286,43.9672735 C112.214714,43.9672735 112.972714,44.7243114 112.973,45.654733 L112.973,59.59008 C112.973,60.5206443 112.215,61.2776822 111.283429,61.2776822 L102.758571,61.2776822 Z" id="Fill-6" fill="#232323"></path>
                        <path d="M77.119916,91.1479265 C76.446916,91.1479265 75.8384875,90.7497859 75.569916,90.1337384 C75.389916,89.7204714 75.3814875,89.2618249 75.5466303,88.8424216 C75.711916,88.422733 76.0306303,88.0926616 76.4444875,87.9125708 C76.6660589,87.8125362 76.8990589,87.7621622 77.1383446,87.7621622 C77.8004875,87.7621622 78.4047732,88.1525968 78.6780589,88.7568 C78.8637732,89.1673557 78.8777732,89.6260022 78.7176303,90.0482595 C78.5573446,90.4703741 78.2423446,90.8050119 77.8310589,90.9905254 L77.8023446,91.0033686 C77.5786303,91.1005492 77.351916,91.1479265 77.119916,91.1479265" id="Fill-8" fill="#232323"></path>
                        <path d="M81.8340842,88.428013 C81.2967985,88.428013 80.7867985,88.1697211 80.4693699,87.7370465 C80.2029414,87.37344 80.0940842,86.9279222 80.1630842,86.4824043 C80.2320842,86.0368865 80.4706556,85.6448822 80.8346556,85.3787416 C81.1280842,85.1641168 81.4750842,85.0508108 81.8387985,85.0508108 C82.3757985,85.0508108 82.8846556,85.3063914 83.2002271,85.7343568 C83.7510842,86.4818335 83.5952271,87.5366919 82.8527985,88.0859546 L82.8332271,88.1002249 C82.5392271,88.3152778 82.1945128,88.428013 81.8340842,88.428013" id="Fill-10" fill="#232323"></path>
                        <path d="M71.973318,92.8532238 C71.1650323,92.8532238 70.4678894,92.2765622 70.3157466,91.4821362 C70.1421752,90.574547 70.7387466,89.689933 71.6458894,89.5101276 C71.7604609,89.4864389 71.8761752,89.4745946 71.9911752,89.4745946 C72.7844609,89.4745946 73.479318,90.0374141 73.6434609,90.8127178 C73.836318,91.722733 73.2531752,92.6197622 72.3434609,92.8124108 C72.331318,92.8149795 72.3036037,92.8206876 72.2924609,92.8228281 C72.1871752,92.8430919 72.0798894,92.8532238 71.973318,92.8532238" id="Fill-12" fill="#232323"></path>
                        <path d="M85.763061,83.1181881 L85.9644895,83.3001341 L85.9832038,83.3164022 L86.144061,83.1344562 L85.9259181,82.9379546 L85.763061,83.1181881 Z M85.8314895,84.7291589 C85.427061,84.7291589 85.0354895,84.5837449 84.7289181,84.3194595 C84.3872038,84.0249211 84.1807752,83.6150789 84.1474895,83.1655654 C84.1144895,82.7160519 84.2586324,82.2805232 84.5533467,81.9391784 L84.590061,81.8977946 C84.9097752,81.5436065 85.3672038,81.3405405 85.845061,81.3405405 C86.2634895,81.3405405 86.665061,81.4948022 86.976061,81.7749276 C87.6662038,82.3966832 87.7226324,83.464813 87.1016324,84.1554941 C86.7803467,84.5203849 86.3177752,84.7291589 85.8314895,84.7291589 Z" id="Fill-14" fill="#232323"></path>
                        <path d="M91.1186904,75.3104951 C90.9505475,75.3104951 90.7832618,75.2852368 90.6215475,75.2354335 C89.7309761,74.9617297 89.2295475,74.0156108 89.5034046,73.1260022 C89.7188332,72.4170551 90.3849761,71.9221622 91.1239761,71.9221622 C91.2885475,71.9221622 91.4528332,71.9465643 91.6118332,71.9947978 C92.5032618,72.2647914 93.0095475,73.2067719 92.7404046,74.0943827 L92.7328332,74.1184995 C92.5134046,74.8315849 91.8646904,75.3104951 91.1186904,75.3104951" id="Fill-16" fill="#232323"></path>
                        <path d="M92.2616101,64.6116454 C91.4543244,64.6116454 90.7576101,64.0359827 90.604753,63.2428411 C90.4218958,62.3351092 91.0100387,61.4440735 91.9158958,61.2552778 C92.0304673,61.2314465 92.1471816,61.2194595 92.2631816,61.2194595 C93.0571816,61.2194595 93.7516101,61.7835632 93.9141816,62.5607222 C93.9188958,62.5826984 93.9228958,62.6043892 93.9266101,62.6259373 C94.0063244,63.0700281 93.9080387,63.5181146 93.6501816,63.8881427 C93.3923244,64.2580281 93.005753,64.5056173 92.5616101,64.58496 C92.4628958,64.6027978 92.3620387,64.6116454 92.2616101,64.6116454" id="Fill-18" fill="#232323"></path>
                        <path d="M92.2623824,70.0356324 C92.2289538,70.0356324 92.1952395,70.0346335 92.1615252,70.0326357 C91.2316681,69.9781232 90.5196681,69.1777038 90.5743824,68.2487092 C90.5753824,68.2322984 90.577811,68.1983351 90.5793824,68.1814962 C90.6555252,67.3182876 91.3942395,66.6421622 92.2609538,66.6421622 C92.3103824,66.6421622 92.3605252,66.6443027 92.4105252,66.6487265 C93.3340967,66.7302097 94.022811,67.5473254 93.9459538,68.4698984 C93.881811,69.3485189 93.1422395,70.0356324 92.2623824,70.0356324" id="Fill-20" fill="#232323"></path>
                        <path d="M88.9765298,80.3180757 C88.6959584,80.3180757 88.4161013,80.246867 88.1671013,80.112013 C87.7711013,79.8973881 87.4828156,79.5396324 87.3552441,79.1048173 C87.2279584,78.6704303 87.2765298,78.2127827 87.4919584,77.8159265 L87.5166727,77.7715459 C87.8155298,77.2446876 88.3795298,76.9167568 88.9879584,76.9167568 C89.2778156,76.9167568 89.5652441,76.9925319 89.8188156,77.1362335 C90.5936727,77.5749016 90.8889584,78.5375741 90.5118156,79.3288605 L89.0455298,78.4989016 L88.9258156,78.7099589 L90.3928156,79.5432 C90.0861013,80.0239654 89.5536727,80.3180757 88.9765298,80.3180757" id="Fill-22" fill="#232323"></path>
                        <path d="M55.4105955,45.0462486 C54.7630241,45.0462486 54.1823098,44.6897773 53.8953098,44.1159697 C53.6930241,43.7121211 53.6590241,43.255187 53.7995955,42.8292195 C53.9401669,42.4028238 54.2395955,42.0571978 54.6427384,41.8558443 L54.6580241,41.8482811 C54.8958812,41.729267 55.1495955,41.6691892 55.4127384,41.6691892 C56.0575955,41.6691892 56.6371669,42.0268022 56.9253098,42.6026076 C57.1271669,43.0058854 57.1595955,43.463533 57.0170241,43.891213 C56.8743098,44.318893 56.5734526,44.6653751 56.1697384,44.8668714 C55.9313098,44.9858854 55.6758812,45.0462486 55.4105955,45.0462486" id="Fill-24" fill="#232323"></path>
                        <path d="M60.542446,43.1962508 C59.7743031,43.1962508 59.1033031,42.6749578 58.9105888,41.92848 C58.6783031,41.0274551 59.2248745,40.1050249 60.1291603,39.8722768 L60.1688745,39.8622876 C60.301446,39.8301795 60.4360174,39.8140541 60.5698745,39.8140541 C61.3511603,39.8140541 62.025446,40.3447654 62.2098745,41.1043719 C62.4293031,42.0088216 61.871446,42.9228324 60.9663031,43.1421665 C60.8257317,43.1781276 60.6835888,43.1962508 60.542446,43.1962508" id="Fill-26" fill="#232323"></path>
                        <path d="M50.8330022,48.0501405 C50.3147165,48.0501405 49.8325737,47.8181059 49.5098594,47.4135438 C48.9551451,46.7175827 49.0412879,45.7145254 49.6868594,45.1213103 L50.7367165,46.4380281 L50.9271451,46.2871914 L49.8817165,44.9657643 C50.1650022,44.7692627 50.4950022,44.6659459 50.8434308,44.6659459 C51.3584308,44.6659459 51.8384308,44.8951265 52.1602879,45.2945514 C52.7432879,46.0183395 52.6298594,47.0811892 51.9075737,47.6641297 L51.8842879,47.6826811 C51.5818594,47.9229924 51.2182879,48.0501405 50.8330022,48.0501405" id="Fill-28" fill="#232323"></path>
                        <path d="M42.1192974,61.4717578 C41.9852974,61.4717578 41.8510117,61.4556324 41.7198689,61.4238097 C40.8150117,61.204333 40.2571546,60.2910357 40.4761546,59.3877276 L40.492726,59.3237968 C40.6925831,58.5914465 41.3624403,58.08 42.1215831,58.08 C42.2712974,58.08 42.4211546,58.1001211 42.5671546,58.1397924 C43.454726,58.3816735 43.9888689,59.3018205 43.7581546,60.1910011 C43.5690117,60.9454703 42.8951546,61.4717578 42.1192974,61.4717578" id="Fill-30" fill="#232323"></path>
                        <path d="M41.3534501,66.893747 C40.4227358,66.86592 39.6877358,66.0877622 39.7150215,65.1589103 C39.7155929,65.1369341 39.7165929,65.1149578 39.7178786,65.0928389 C39.7697358,64.2010897 40.5113072,63.5027027 41.4063072,63.5027027 C41.4381644,63.5027027 41.4704501,63.5037016 41.5025929,63.5054141 C42.4211644,63.5587849 43.1343072,64.3489297 43.0921644,65.2667935 C43.0585929,66.1799481 42.3174501,66.8944605 41.4047358,66.8944605 C41.3875929,66.8944605 41.3708786,66.8941751 41.3534501,66.893747" id="Fill-32" fill="#232323"></path>
                        <path d="M44.1160138,56.4758789 C43.8565852,56.4758789 43.6061567,56.4175135 43.3720138,56.3022097 C42.5365852,55.8910832 42.190871,54.8786076 42.6015852,54.0449384 L42.6304424,53.988 C42.9225852,53.4318876 43.4962995,53.0854054 44.1271567,53.0854054 C44.3980138,53.0854054 44.668871,53.152333 44.9105852,53.279053 C45.7265852,53.7068757 46.0495852,54.7216346 45.6304424,55.5411762 C45.3412995,56.1181232 44.7611567,56.4758789 44.1160138,56.4758789" id="Fill-34" fill="#232323"></path>
                        <path d="M46.9727437,51.9061103 C46.5887437,51.9061103 46.2263151,51.7798184 45.9248865,51.5410768 C45.1956008,50.9632735 45.0718865,49.9004238 45.649458,49.1722119 L45.6851722,49.1284022 C46.0070294,48.7409643 46.4811722,48.5189189 46.9858865,48.5189189 C47.3786008,48.5189189 47.761458,48.6569124 48.0641722,48.9079265 C48.7746008,49.4972886 48.8777437,50.5582832 48.2941722,51.2729384 C47.9708865,51.6756454 47.489458,51.9061103 46.9727437,51.9061103" id="Fill-36" fill="#232323"></path>
                        <path d="M41.8288926,72.3104562 C41.0128926,72.3104562 40.3163211,71.7293708 40.1726068,70.9285232 L40.169464,70.9106854 C40.0053211,69.9949622 40.6177497,69.1161989 41.5347497,68.9522335 C41.6338926,68.9345384 41.7348926,68.9254054 41.8348926,68.9254054 C42.6527497,68.9254054 43.3511783,69.5102011 43.4956068,70.3156151 C43.5753211,70.7602768 43.4773211,71.2100757 43.2197497,71.582387 C42.9618926,71.9552692 42.5756068,72.2041427 42.1320354,72.2834854 C42.0321783,72.3014659 41.9301783,72.3104562 41.8288926,72.3104562" id="Fill-38" fill="#232323"></path>
                        <path d="M60.7167143,60.02832 C59.4074286,60.02832 58.1751429,60.539053 57.247,61.4663351 C56.3187143,62.3936173 55.8074286,63.6245708 55.8075714,64.9324411 C55.8075714,66.3830141 56.446,67.7513903 57.5594286,68.6868065 L66.8114286,76.0037449 L76.4402857,68.3423222 L76.4458571,68.3366141 C77.333,67.4184649 77.8215714,66.2094876 77.8215714,64.9322984 C77.8215714,62.2282249 75.6191429,60.02832 72.9121429,60.02832 C70.9194286,60.02832 69.1385714,61.2171762 68.3752857,63.0571849 C68.1125714,63.6897859 67.5,64.0984865 66.8145714,64.0984865 C66.129,64.0984865 65.5164286,63.6897859 65.2537143,63.0570422 C64.4904286,61.2171762 62.7095714,60.02832 60.7167143,60.02832 M66.8142857,79.8461578 C66.4351429,79.8461578 66.0627143,79.7168692 65.7655714,79.4816951 L55.4452857,71.3199568 L55.4128571,71.2932714 C53.5161429,69.7138378 52.4285714,67.395347 52.4285714,64.932013 C52.4285714,60.3669535 56.1465714,56.652973 60.7167143,56.652973 C62.9832857,56.652973 65.1737143,57.5902443 66.7264286,59.2246184 L66.8145714,59.3175178 L66.9027143,59.2246184 C68.455,57.5902443 70.6454286,56.652973 72.9121429,56.652973 C77.4822857,56.652973 81.2004286,60.3669535 81.2004286,64.932013 C81.2004286,67.1476151 80.3354286,69.2295049 78.7648571,70.7939546 C78.72,70.8387632 78.6727143,70.8808605 78.6245714,70.9189622 L67.867,79.4785557 C67.5691429,79.7155849 67.1952857,79.8461578 66.8142857,79.8461578" id="Fill-40" fill="#232323"></path>
                        <path d="M22.1117143,94.5495308 C21.1835714,94.5495308 20.4285714,93.795347 20.4285714,92.8683503 C20.4285714,91.9412108 21.1835714,91.187027 22.1117143,91.187027 C23.0397143,91.187027 23.7947143,91.9412108 23.7947143,92.8683503 C23.7947143,93.795347 23.0397143,94.5495308 22.1117143,94.5495308" id="Fill-42" fill="#232323"></path>
                        <path d="M111.254571,41.4641254 C110.326429,41.4641254 109.571429,40.7099416 109.571429,39.7828022 C109.571429,38.8558054 110.326429,38.1016216 111.254571,38.1016216 C112.182714,38.1016216 112.937714,38.8558054 112.937714,39.7828022 C112.937714,40.7099416 112.182714,41.4641254 111.254571,41.4641254" id="Fill-44" fill="#232323"></path>
                    </g>
                </g>
            </g>
        </g>
    </g>
</svg>