<?xml version="1.0" encoding="UTF-8" standalone="no"?>
<svg width="132px" height="132px" viewBox="0 0 132 132" version="1.1" xmlns="http://www.w3.org/2000/svg" xmlns:xlink="http://www.w3.org/1999/xlink">
    <!-- Generator: Sketch 50.2 (55047) - http://www.bohemiancoding.com/sketch -->
    <title>icon-random copy 5</title>
    <desc>Created with Sketch.</desc>
    <defs>
        <polygon id="path-1" points="7.14285714e-05 0.0264 131.973429 0.0264 131.973429 131.857269 7.14285714e-05 131.857269"></polygon>
        <polygon id="path-3" points="0 131.9736 131.973429 131.9736 131.973429 0.142702703 0 0.142702703"></polygon>
    </defs>
    <g id="Page-1" stroke="none" stroke-width="1" fill="none" fill-rule="evenodd">
        <g id="Home-Copy-42-(1)" transform="translate(-498.000000, -1780.000000)">
            <g id="Group-3-Copy-7" transform="translate(432.000000, 1780.000000)">
                <g id="2" transform="translate(66.000000, 0.000000)">
                    <g id="Group">
                        <g id="Group-3" transform="translate(0.000000, 0.116303)">
                            <mask id="mask-2" fill="white">
                                <use xlink:href="#path-1"></use>
                            </mask>
                            <g id="Clip-2"></g>
                            <path d="M131.9735,65.9418915 C131.9735,102.345779 102.430214,131.857269 65.9867857,131.857269 C29.5432143,131.857269 7.14285714e-05,102.345779 7.14285714e-05,65.9418915 C7.14285714e-05,29.5377185 29.5432143,0.0263714595 65.9867857,0.0263714595 C102.430214,0.0263714595 131.9735,29.5377185 131.9735,65.9418915" id="Fill-1" fill="#92D300" mask="url(#mask-2)"></path>
                        </g>
                        <path d="M92.4415429,57.6049998 C90.6479714,52.0839749 87.2269714,47.3545219 82.5369714,43.9165284 C77.7875429,40.4351533 72.1634,38.5908636 66.2722571,38.5828722 C60.3816857,38.5908636 54.7575429,40.4351533 50.0081143,43.9165284 C45.3179714,47.3545219 41.8968286,52.0839749 40.1032571,57.6049998 L45.4738286,57.6049998 C46.7976857,55.8780117 48.8738286,54.8474128 51.0555429,54.8412765 L81.4889714,54.8412765 C83.6708286,54.8474128 85.7474,55.8780117 87.0709714,57.6049998 L92.4415429,57.6049998 Z M65.0509714,60.368723 L67.4939714,60.368723 L67.4939714,57.9290776 L65.0509714,57.9290776 L65.0509714,60.368723 Z M51.0561143,57.9290776 C48.8568286,57.9290776 47.0678286,59.7160009 47.0678286,61.9124809 L47.0678286,64.6762041 C47.0722571,68.3923252 50.1024,71.4194776 53.8222571,71.4237587 L55.2056857,71.4237587 C58.9302571,71.4237587 61.9604,68.396749 61.9604,64.6762041 L61.9604,57.9290776 L51.0561143,57.9290776 Z M70.5846857,64.6762041 C70.5846857,68.396749 73.6145429,71.4237587 77.3388286,71.4237587 L78.7222571,71.4237587 C82.4424,71.4194776 85.4728286,68.3923252 85.4769714,64.6760614 L85.4769714,61.9124809 C85.4769714,59.7160009 83.6879714,57.9290776 81.4889714,57.9290776 L70.5846857,57.9290776 L70.5846857,64.6762041 Z M39.2918286,60.6923728 C38.9398286,62.4587468 38.7615429,64.2650776 38.7621143,66.0635598 C38.7654,81.2103101 51.1044,93.5332592 66.2672571,93.5332592 C68.1198286,93.5332592 69.9725429,93.3463187 71.7791143,92.9778603 C86.5952571,89.9571295 96.2038286,75.4909284 93.2538286,60.6923728 L88.4629714,60.6923728 C88.5331143,61.0953652 88.5682571,61.5049219 88.5676857,61.9126236 L88.5676857,64.6762041 C88.5609714,70.0919144 84.1446857,74.5037111 78.7231143,74.5111317 L77.3394,74.5111317 C71.9105429,74.5111317 67.4939714,70.0991922 67.4939714,64.6762041 L67.4939714,63.456096 L65.0511143,63.456096 L65.0511143,64.6762041 C65.0511143,70.0991922 60.6348286,74.5111317 55.2062571,74.5111317 L53.8228286,74.5111317 C48.4006857,74.5037111 43.9839714,70.0919144 43.9772571,64.6763468 L43.9772571,61.9124809 C43.9766857,61.5042084 44.0119714,61.0946517 44.0821143,60.6923728 L39.2918286,60.6923728 Z M66.2725429,96.6199187 C49.4021143,96.6199187 35.6769714,82.9098992 35.6769714,66.0579944 C35.6769714,57.8944009 38.8594,50.2195641 44.6381143,44.4470971 C50.4168286,38.6746301 58.1001143,35.4954992 66.2725429,35.4954992 C74.4412571,35.5050603 82.1206857,38.6877587 87.8964,44.4573717 C93.6722571,50.2269846 96.8581143,57.8982538 96.8672571,66.0578517 C96.8672571,82.9098992 83.1426857,96.6199187 66.2725429,96.6199187 Z" id="Fill-4" fill="#232323"></path>
                        <mask id="mask-4" fill="white">
                            <use xlink:href="#path-3"></use>
                        </mask>
                        <g id="Clip-7"></g>
                        <polygon id="Fill-6" fill="#232323" mask="url(#mask-4)" points="64.7271429 33.0559395 67.818 33.0559395 67.818 24.44112 64.7271429 24.44112"></polygon>
                        <polygon id="Fill-8" fill="#232323" mask="url(#mask-4)" points="64.7271429 107.674897 67.818 107.674897 67.818 99.0600778 64.7271429 99.0600778"></polygon>
                        <polygon id="Fill-9" fill="#232323" mask="url(#mask-4)" points="48.9006714 28.1989103 51.7563857 27.0176173 55.0566714 34.9778595 52.2012429 36.1591524"></polygon>
                        <polygon id="Fill-10" fill="#232323" mask="url(#mask-4)" points="77.4906571 97.1377012 80.3463714 95.9564082 83.6458 103.91665 80.7909429 105.097943"></polygon>
                        <polygon id="Fill-11" fill="#232323" mask="url(#mask-4)" points="35.7209143 37.7226461 37.9064857 35.5400082 44.0033429 41.6302742 41.8183429 43.8134828"></polygon>
                        <polygon id="Fill-12" fill="#232323" mask="url(#mask-4)" points="88.5422714 90.4858573 90.7278429 88.3026486 96.8247 94.3934854 94.6391286 96.5761232"></polygon>
                        <polygon id="Fill-13" fill="#232323" mask="url(#mask-4)" points="27.1898 51.5599278 28.3723714 48.7073008 36.3413714 52.0040186 35.1586571 54.8560748"></polygon>
                        <polygon id="Fill-14" fill="#232323" mask="url(#mask-4)" points="96.2063286 80.1144104 97.3890429 77.2617834 105.3579 80.5585012 104.175329 83.4105574"></polygon>
                        <polygon id="Fill-15" fill="#232323" mask="url(#mask-4)" points="24.6105714 67.6016951 33.2347143 67.6016951 33.2347143 64.5143222 24.6105714 64.5143222"></polygon>
                        <polygon id="Fill-16" fill="#232323" mask="url(#mask-4)" points="99.3101429 67.6016951 107.934286 67.6016951 107.934286 64.5143222 99.3101429 64.5143222"></polygon>
                        <polygon id="Fill-17" fill="#232323" mask="url(#mask-4)" points="27.1920286 80.5589578 35.1608857 77.2628108 36.3436 80.114867 28.3746 83.4115849"></polygon>
                        <polygon id="Fill-18" fill="#232323" mask="url(#mask-4)" points="96.2052143 52.0001656 104.174214 48.7033051 105.356786 51.5559321 97.3879286 54.8526499"></polygon>
                        <polygon id="Fill-19" fill="#232323" mask="url(#mask-4)" points="35.7214714 94.3940134 41.8189 88.3031766 44.0039 90.4863853 37.9070429 96.5766512"></polygon>
                        <polygon id="Fill-20" fill="#232323" mask="url(#mask-4)" points="88.5417143 41.6296891 94.6385714 35.5394231 96.8241429 37.722061 90.7272857 43.8128977"></polygon>
                        <polygon id="Fill-21" fill="#232323" mask="url(#mask-4)" points="48.9034571 103.917193 52.2056 95.9580921 55.0606 97.1399559 51.7586 105.099056"></polygon>
                        <polygon id="Fill-22" fill="#232323" mask="url(#mask-4)" points="77.4878571 34.975619 80.7891429 27.0159477 83.6441429 28.1978115 80.3427143 36.1574828"></polygon>
                        <path d="M66.2728857,80.0243792 C63.9280286,80.0243792 61.6941714,79.2856074 59.8124571,77.8878344 L59.6821714,77.7909392 L61.5366,75.3213263 L61.6660286,75.4173652 C63.0078857,76.4132874 64.6007429,76.9398603 66.2726,76.9398603 C67.9446,76.9398603 69.5376,76.4132874 70.8796,75.4173652 L71.0090286,75.3213263 L72.8628857,77.7909392 L72.7326,77.8878344 C70.8511714,79.2856074 68.6176,80.0243792 66.2728857,80.0243792" id="Fill-23" fill="#232323" mask="url(#mask-4)"></path>
                    </g>
                </g>
            </g>
        </g>
    </g>
</svg>