<?xml version="1.0" encoding="UTF-8" standalone="no"?>
<svg width="132px" height="132px" viewBox="0 0 132 132" version="1.1" xmlns="http://www.w3.org/2000/svg" xmlns:xlink="http://www.w3.org/1999/xlink">
    <!-- Generator: Sketch 50.2 (55047) - http://www.bohemiancoding.com/sketch -->
    <title>icon-random copy 5</title>
    <desc>Created with Sketch.</desc>
    <defs>
        <polygon id="path-1" points="7.14285714e-05 0.0264 131.973429 0.0264 131.973429 131.857269 7.14285714e-05 131.857269"></polygon>
    </defs>
    <g id="Page-1" stroke="none" stroke-width="1" fill="none" fill-rule="evenodd">
        <g id="Home-Copy-42-(1)" transform="translate(-813.000000, -1780.000000)">
            <g id="Group-3-Copy-6" transform="translate(747.000000, 1780.000000)">
                <g id="3" transform="translate(66.000000, 0.000000)">
                    <g id="Group">
                        <g id="Group-3" transform="translate(0.000000, 0.116303)">
                            <mask id="mask-2" fill="white">
                                <use xlink:href="#path-1"></use>
                            </mask>
                            <g id="Clip-2"></g>
                            <path d="M131.9735,65.9418915 C131.9735,102.345779 102.430214,131.857269 65.9867857,131.857269 C29.5432143,131.857269 7.14285714e-05,102.345779 7.14285714e-05,65.9418915 C7.14285714e-05,29.5377185 29.5432143,0.0263714595 65.9867857,0.0263714595 C102.430214,0.0263714595 131.9735,29.5377185 131.9735,65.9418915" id="Fill-1" fill="#92D300" mask="url(#mask-2)"></path>
                        </g>
                        <path d="M32.8383143,59.8070024 C32.5871714,59.8070024 32.3366,59.7434997 32.1134571,59.6232013 C31.7546,59.429411 31.4926,59.1077591 31.3758857,58.7170391 C31.2591714,58.3264618 31.3017429,57.9137656 31.4957429,57.5554391 C35.2516,50.6108121 42.1660286,45.9524251 49.9914571,45.094211 C50.8818857,44.9966024 51.7824571,44.9470845 52.6686,44.9470845 C57.0846,44.9470845 61.4214571,46.1836035 65.2103143,48.5230716 C65.9268857,48.9655926 66.1496,49.9080013 65.7066,50.6236554 C65.4263143,51.0767364 64.9398857,51.3473008 64.4056,51.3473008 C64.1227429,51.3473008 63.8456,51.2683862 63.6037429,51.1194045 C60.2983143,49.0784705 56.5141714,47.9997808 52.6610286,47.9997808 C51.8876,47.9997808 51.1016,48.042877 50.3250286,48.1280705 C43.4967429,48.8769743 37.4626,52.9434305 34.1838857,59.0060121 C33.9167429,59.5000489 33.4010286,59.8070024 32.8383143,59.8070024" id="Fill-4" fill="#232323"></path>
                        <path d="M23.4389,69.1708969 C22.5966143,69.1708969 21.9111857,68.4862093 21.9111857,67.6448342 C21.9111857,66.8033163 22.5966143,66.1187715 23.4389,66.1187715 L31.1086143,66.1187715 C31.9509,66.1187715 32.6363286,66.8033163 32.6363286,67.6448342 C32.6363286,68.4862093 31.9509,69.1708969 31.1086143,69.1708969 L23.4389,69.1708969 Z" id="Fill-6" fill="#232323"></path>
                        <path d="M103.149971,59.8070024 C102.587257,59.8070024 102.071543,59.5000489 101.8044,59.0060121 C98.5255429,52.9432878 92.4914,48.8768316 85.6631143,48.1280705 C84.8822571,48.0425916 84.0939714,47.9992099 83.3199714,47.9992099 C81.3702571,47.9992099 79.4379714,48.2719148 77.5766857,48.8097613 C77.4379714,48.8498608 77.2948286,48.8701245 77.1516857,48.8701245 C76.4756857,48.8701245 75.8725429,48.4169008 75.6845429,47.7680316 C75.5711143,47.3765981 75.6172571,46.9641872 75.8141143,46.6070024 C76.0112571,46.2499602 76.3355429,45.9909548 76.7274,45.8777916 C78.8646857,45.2601743 81.0818286,44.9467991 83.3174,44.9467991 C84.2026857,44.9467991 85.1042571,44.9964597 85.9968286,45.094211 C93.8224,45.9524251 100.736829,50.6108121 104.492543,57.5554391 C104.686257,57.9131948 104.728543,58.3257483 104.611543,58.7168964 C104.494829,59.1080445 104.233114,59.4296964 103.874686,59.6232013 C103.651686,59.7434997 103.401114,59.8070024 103.149971,59.8070024" id="Fill-8" fill="#232323"></path>
                        <path d="M104.879743,69.1708969 C104.037457,69.1708969 103.352029,68.4862093 103.352029,67.6448342 C103.352029,66.8033163 104.037457,66.1187715 104.879743,66.1187715 L112.549457,66.1187715 C113.391743,66.1187715 114.077171,66.8033163 114.077171,67.6448342 C114.077171,68.4862093 113.391743,69.1708969 112.549457,69.1708969 L104.879743,69.1708969 Z" id="Fill-10" fill="#232323"></path>
                        <path d="M54.2389857,64.0773522 C51.6935571,64.0773522 49.1907,65.0961068 47.3722714,66.8721846 C45.7148429,68.4917176 44.8021286,70.5807425 44.8021286,72.7546755 C44.8021286,73.9889111 45.0221286,75.3236095 45.4562714,76.7213825 C46.3015571,79.4440074 47.8984143,82.0242149 50.0741286,84.1833068 C54.1691286,88.2467663 59.2995571,91.0577241 64.9109857,92.3122236 C66.0098429,92.5579576 67.0062714,93.1069349 67.7924143,93.8995057 L67.9935571,94.1029998 L68.1949857,93.8996484 C68.9812714,93.1070776 69.9779857,92.5581003 71.0771286,92.3122236 C76.6885571,91.0577241 81.8191286,88.2467663 85.9141286,84.1833068 C88.0898429,82.0243576 89.6867,79.4441501 90.5317,76.7215252 C90.9658429,75.3241803 91.1859857,73.9896246 91.1859857,72.7546755 C91.1859857,70.5804571 90.2732714,68.4914322 88.6159857,66.8721846 C86.7977,65.0963922 84.2877,64.0777803 81.7292714,64.0777803 C81.6671286,64.0777803 81.6048429,64.0783511 81.5427,64.0796355 C79.4981286,64.1253003 77.5665571,64.8132701 75.9562714,66.0691965 C74.9128429,66.8828874 73.6671286,67.313136 72.3538429,67.313136 C72.0941286,67.313136 71.8307,67.2957263 71.5704143,67.2613349 C70.2771286,67.0906625 69.1097,66.5165695 68.1945571,65.6012744 L67.9939857,65.4007771 L67.7935571,65.6012744 C66.8781286,66.5165695 65.7107,67.0905198 64.4175571,67.2614776 C64.1572714,67.295869 63.8934143,67.3132787 63.6335571,67.3132787 C62.3207,67.3132787 61.0752714,66.8830301 60.0318429,66.0691965 C58.4215571,64.8132701 56.4901286,64.1253003 54.4461286,64.0796355 C54.3769857,64.0780657 54.3081286,64.0773522 54.2389857,64.0773522 M72.3561286,103.908102 C70.8168429,103.908102 69.3002714,103.271506 68.1951286,102.16185 L67.9941286,101.959925 L67.7931286,102.161707 C66.6878429,103.271506 65.1711286,103.908102 63.6321286,103.908102 C63.2007,103.908102 62.7678429,103.860154 62.3454143,103.765685 C55.1865571,102.165132 47.6685571,97.9485522 41.7192714,92.1970625 C39.2122714,89.7736852 35.9517,88.4391295 32.5381286,88.4391295 L23.4388429,88.4391295 C22.5965571,88.4391295 21.9111286,87.7545846 21.9111286,86.9130668 C21.9111286,86.071549 22.5965571,85.3868614 23.4388429,85.3868614 L32.5374143,85.3868614 C36.7485571,85.3868614 40.7638429,87.0265155 43.8434143,90.0040074 C49.4001286,95.3756225 56.3867,99.3059403 63.0117,100.787052 C63.2155571,100.832574 63.4241286,100.855834 63.6315571,100.855834 C64.9377,100.855834 66.0929857,99.9296938 66.3787,98.6539317 C66.5431286,97.9197263 66.4115571,97.1656852 66.0082714,96.5306582 C65.6048429,95.895203 64.9781286,95.4549652 64.2432714,95.2908571 C58.0688429,93.9103511 52.4244143,90.8181263 47.9204143,86.3486776 C45.3918429,83.8398214 43.5305571,80.8236571 42.5375571,77.6258322 C42.0127,75.935376 41.7465571,74.2964355 41.7465571,72.7548182 C41.7465571,69.7522106 42.9858429,66.8880246 45.2359857,64.690403 C47.6202714,62.3610668 50.8962714,61.0250841 54.2239857,61.0250841 C54.3205571,61.0250841 54.4174143,61.0262257 54.5142714,61.028509 C57.2212714,61.0890149 59.7794143,62.0001717 61.9119857,63.6637998 C62.4128429,64.0543771 63.0102714,64.2607252 63.6398429,64.2607252 C63.7657,64.2607252 63.8925571,64.2523057 64.0171286,64.2354668 C64.7722714,64.1361457 65.4414143,63.7454257 65.9009857,63.1355144 C66.8227,61.9112679 66.5574143,60.1317652 65.3097,59.1682365 C62.1109857,56.6986236 58.2778429,55.3933219 54.2245571,55.3933219 C48.4615571,55.3933219 42.9821286,58.180163 39.5671286,62.8482538 C39.2805571,63.2401155 38.8189857,63.4740052 38.3321286,63.4740052 C38.0071286,63.4740052 37.6959857,63.3724009 37.4324143,63.1801803 C37.1029857,62.9395836 36.8868429,62.5853955 36.8242714,62.1826884 C36.7615571,61.779696 36.8595571,61.3767036 37.1002714,61.0479165 C41.0881286,55.5956744 47.4898429,52.3407684 54.2247,52.3407684 C58.9608429,52.3407684 63.4399857,53.8665457 67.1782714,56.753136 C67.3901286,56.9166733 67.5964143,57.1003317 67.7917,57.2992592 L67.9938429,57.5054646 L68.1964143,57.2991165 C68.3908429,57.1009025 68.5969857,56.9172441 68.8095571,56.753136 C72.5477,53.8665457 77.0269857,52.3407684 81.7631286,52.3407684 C88.4978429,52.3407684 94.8995571,55.5956744 98.8875571,61.0477738 C99.1284143,61.3767036 99.2264143,61.7798387 99.1638429,62.1826884 C99.1011286,62.5853955 98.8849857,62.9395836 98.5555571,63.1801803 C98.2919857,63.3725436 97.9807,63.4741479 97.6555571,63.4741479 C97.1688429,63.4741479 96.7072714,63.2402582 96.4207,62.8483965 C93.0058429,58.180163 87.5264143,55.3933219 81.7632714,55.3933219 C77.7095571,55.3933219 73.8765571,56.6986236 70.6782714,59.1682365 C69.4302714,60.1316225 69.1648429,61.9112679 70.0868429,63.1353717 C70.5461286,63.7454257 71.2152714,64.136003 71.9711286,64.2357522 C72.0949857,64.2523057 72.2215571,64.2604398 72.3468429,64.2604398 C72.9771286,64.2604398 73.5749857,64.0542344 74.0757,63.6637998 C76.2084143,62.0003144 78.7665571,61.0891576 81.4737,61.028509 C81.5692714,61.0262257 81.6649857,61.0250841 81.7605571,61.0250841 C85.0899857,61.0250841 88.3671286,62.3610668 90.7518429,64.690403 C93.0021286,66.8881674 94.2414143,69.7523533 94.2414143,72.7548182 C94.2414143,74.2962928 93.9751286,75.935376 93.4502714,77.6259749 C92.4577,80.8229436 90.5964143,83.8391079 88.0675571,86.3486776 C83.5632714,90.8185544 77.9188429,93.9107792 71.7445571,95.2908571 C71.0097,95.4549652 70.3827,95.8953457 69.9795571,96.5306582 C69.5761286,97.1659706 69.4445571,97.9201544 69.6092714,98.6540744 C69.8951286,99.9298365 71.0504143,100.855834 72.3561286,100.855834 C72.5634143,100.855834 72.7718429,100.832717 72.9762714,100.787052 C79.6011286,99.306083 86.5874143,95.3757652 92.1439857,90.0040074 C95.2239857,87.0265155 99.2392714,85.3868614 103.450271,85.3868614 L112.549414,85.3868614 C113.3917,85.3868614 114.077129,86.071549 114.077129,86.9130668 C114.077129,87.7545846 113.3917,88.4391295 112.549414,88.4391295 L103.450271,88.4391295 C100.0367,88.4391295 96.7759857,89.7736852 94.2689857,92.1970625 C88.3199857,97.9484095 80.8022714,102.164989 73.6432714,103.765685 C73.2204143,103.860154 72.7874143,103.908102 72.3561286,103.908102" id="Fill-12" fill="#232323"></path>
                        <path d="M67.9917714,32.9814058 C67.1494857,32.9814058 66.4642,32.2967183 66.4642,31.4553431 L66.4642,20.6917064 C66.4642,19.8501885 67.1494857,19.1656437 67.9917714,19.1656437 C68.8340571,19.1656437 69.5194857,19.8501885 69.5194857,20.6917064 L69.5194857,31.4553431 C69.5194857,32.2967183 68.8340571,32.9814058 67.9917714,32.9814058" id="Fill-14" fill="#232323"></path>
                        <path d="M56.4486571,37.1359524 C56.0409429,37.1359524 55.6575143,36.9774097 55.3688,36.689293 L51.0355143,32.3642595 C50.4398,31.7696173 50.4396571,30.8012368 51.0349429,30.2060238 C51.3233714,29.9177643 51.7072286,29.7589362 52.1155143,29.7589362 C52.5232286,29.7589362 52.9069429,29.9174789 53.1956571,30.2053103 L57.5288,34.5302011 C58.1243714,35.1251286 58.1246571,36.0933665 57.5292286,36.6885795 C57.2408,36.9771243 56.8569429,37.1359524 56.4486571,37.1359524" id="Fill-16" fill="#232323"></path>
                        <path d="M46.8752857,27.5768121 C46.4947143,27.5768121 46.1298571,27.4359645 45.8481429,27.1800986 C45.5461429,26.905824 45.3691429,26.5306586 45.3498571,26.1233851 C45.3304286,25.7162543 45.4708571,25.3259624 45.7454286,25.0245743 C46.0345714,24.7066326 46.4474286,24.5241159 46.8778571,24.5241159 C47.2582857,24.5241159 47.6227143,24.6651062 47.9042857,24.9208294 C48.2062857,25.195104 48.3835714,25.5701267 48.4031429,25.9771148 C48.4228571,26.3838175 48.2825714,26.773824 48.008,27.0753548 C47.718,27.3940099 47.3051429,27.5768121 46.8752857,27.5768121" id="Fill-18" fill="#232323"></path>
                        <path d="M79.2657714,37.4209297 C78.8576286,37.4209297 78.4740571,37.2622443 78.1856286,36.9741276 C77.5899143,36.3790573 77.5897714,35.4108195 78.1853429,34.8157492 L87.9307714,25.0772886 C88.2193429,24.7888865 88.6029143,24.6300584 89.0112,24.6300584 C89.4192,24.6300584 89.8029143,24.7887438 90.0913429,25.0768605 C90.6870571,25.6719308 90.6870571,26.6400259 90.0916286,27.2350962 L80.3460571,36.9736995 C80.0576286,37.2621016 79.6739143,37.4209297 79.2657714,37.4209297" id="Fill-20" fill="#232323"></path>
                        <path d="M71.5894286,51.3428056 C70.7471429,51.3428056 70.0617143,50.6581181 70.0617143,49.8167429 C70.0617143,48.9752251 70.7471429,48.2905375 71.5894286,48.2905375 C72.4317143,48.2905375 73.117,48.9752251 73.117,49.8167429 C73.117,50.6581181 72.4317143,51.3428056 71.5894286,51.3428056" id="Fill-22" fill="#232323"></path>
                    </g>
                </g>
            </g>
        </g>
    </g>
</svg>