<?xml version="1.0" encoding="UTF-8" standalone="no"?>
<svg width="26px" height="26px" viewBox="0 0 26 26" version="1.1" xmlns="http://www.w3.org/2000/svg" xmlns:xlink="http://www.w3.org/1999/xlink">
    <!-- Generator: Sketch 50.2 (55047) - http://www.bohemiancoding.com/sketch -->
    <title>insta</title>
    <desc>Created with Sketch.</desc>
    <defs></defs>
    <g id="Page-1" stroke="none" stroke-width="1" fill="none" fill-rule="evenodd">
        <g id="Home-Copy-72" transform="translate(-1125.000000, -5817.000000)">
            <g id="Group-2" transform="translate(0.000000, 5680.000000)">
                <g id="insta" transform="translate(1125.000000, 137.000000)">
                    <g id="Group-9">
                        <circle id="Oval-2" fill="#FFFFFF" cx="13" cy="13" r="13"></circle>
                        <g id="Group-2" transform="translate(6.520000, 4.520000)" fill="#315291">
                            <g id="Group" transform="translate(0.240000, 0.160000)">
                                <path d="M6.23992208,12.48 C3.94599637,12.48 2.08,10.6138128 2.08,8.32015584 C2.08,6.02618716 3.94599637,4.16 6.23992208,4.16 C8.5338478,4.16 10.4,6.02618716 10.4,8.32015584 C10.4,10.6138128 8.5338478,12.48 6.23992208,12.48 M6.23992255,2.08 C2.79916693,2.08 0,4.87935657 0,8.3203098 C0,11.7609532 2.79916693,14.56 6.23992255,14.56 C9.68067818,14.56 12.48,11.7609532 12.48,8.3203098 C12.48,4.87935657 9.68067818,2.08 6.23992255,2.08" id="Fill-4"></path>
                                <path d="M13.5199224,0 C13.1085501,0 12.706806,0.166629834 12.4176497,0.456717933 C12.1267851,0.746184859 11.96,1.1483948 11.96,1.56007765 C11.96,1.97020756 12.1269404,2.37226221 12.417805,2.66328207 C12.7082037,2.95352546 13.1097924,3.12 13.5199224,3.12 C13.9292758,3.12 14.3314857,2.95368075 14.6232821,2.66328207 C14.9135255,2.37303867 15.08,1.97098402 15.08,1.56007765 C15.08,1.14777363 14.9133702,0.745408392 14.6231268,0.45656264 C14.334281,0.166474541 13.9322264,0 13.5199224,0" id="Fill-6"></path>
                            </g>
                        </g>
                    </g>
                </g>
            </g>
        </g>
    </g>
</svg>