<?xml version="1.0" encoding="UTF-8" standalone="no"?>
<svg width="206px" height="64px" viewBox="0 0 206 64" version="1.1" xmlns="http://www.w3.org/2000/svg" xmlns:xlink="http://www.w3.org/1999/xlink">
    <!-- Generator: Sketch 50.2 (55047) - http://www.bohemiancoding.com/sketch -->
    <title>logo</title>
    <desc>Created with Sketch.</desc>
    <defs>
        <polygon id="path-1" points="0 0.287335065 28.1387694 0.287335065 28.1387694 15.3078026 0 15.3078026"></polygon>
        <polygon id="path-3" points="0.0682790323 0.155428571 15.0813597 0.155428571 15.0813597 28.3106909 0.0682790323 28.3106909"></polygon>
    </defs>
    <g id="Page-1" stroke="none" stroke-width="1" fill="none" fill-rule="evenodd">
        <g id="Home-Copy-69" transform="translate(-10.000000, -6.000000)">
            <g id="logo" transform="translate(10.000000, 6.000000)">
                <polygon id="Fill-1" fill="#315291" points="80.8686641 38.7753558 76.6033012 28.3741091 76.6033012 38.7753558 72.7698738 38.7753558 72.7698738 23.0990961 78.3613617 23.0990961 82.9265875 34.2924468 87.6184867 23.0990961 93.1273254 23.0990961 93.1273254 38.7753558 89.2918214 38.7753558 89.2918214 28.4177455 84.9845109 38.7753558"></polygon>
                <path d="M106.370426,32.5346909 L111.75093,32.5346909 L109.049672,26.8307948 L106.370426,32.5346909 Z M106.736325,23.0992623 L111.277877,23.0992623 L118.950962,38.7755221 L114.706781,38.7755221 L113.271841,35.7301195 L104.870696,35.7301195 L103.434926,38.7755221 L99.0624097,38.7755221 L106.736325,23.0992623 Z" id="Fill-2" fill="#315291"></path>
                <g id="Group-33" stroke-width="1" transform="translate(0.000000, 0.260156)">
                    <path d="M136.674396,28.2213818 C136.674396,27.8220052 136.626634,27.496187 136.534848,27.2460052 C136.4414,26.9958234 136.313481,26.7996675 136.148598,26.6558753 C135.98413,26.5129143 135.791836,26.4169143 135.569638,26.3674597 C135.348271,26.3167584 135.109461,26.292239 134.851546,26.292239 L129.088114,26.292239 L129.088114,30.1725506 L134.851546,30.1725506 C135.109461,30.1725506 135.348271,30.1447065 135.569638,30.0873558 C135.791836,30.0304208 135.98413,29.9294338 136.148598,29.7873039 C136.313481,29.6443429 136.4414,29.4477714 136.534848,29.197174 C136.626634,28.9469922 136.674396,28.6220052 136.674396,28.2213818 Z M129.088114,33.325174 L129.088114,38.5154078 L124.886296,38.5154078 L124.886296,22.8391481 L134.701614,22.8391481 C135.48782,22.8391481 136.241215,22.900239 136.963046,23.021174 C137.68363,23.1433558 138.323642,23.3789922 138.880175,23.7293299 C139.437953,24.0796675 139.881102,24.5762909 140.210453,25.2196156 C140.538142,25.8629403 140.701779,26.6995117 140.701779,27.7284987 C140.701779,28.6294857 140.57386,29.3792 140.316775,29.9797195 C140.059275,30.580239 139.703344,31.0664727 139.244828,31.4380052 C139.729925,31.6815377 140.112852,32.0206545 140.391949,32.4566026 C140.670215,32.8921351 140.809763,33.4681351 140.809763,34.1837714 L140.809763,38.5154078 L136.608775,38.5154078 L136.608775,34.654213 C136.608775,34.1546805 136.505775,33.8080831 136.298945,33.6144208 C136.092114,33.4215896 135.651457,33.325174 134.980711,33.325174 L129.088114,33.325174 Z" id="Fill-3" fill="#315291"></path>
                    <path d="M162.090975,38.5152 L154.053653,38.5152 C152.896149,38.5152 151.882346,38.4113039 151.010169,38.2035117 C150.139238,37.9965506 149.414084,37.6067325 148.83554,37.0344727 C148.256996,36.4634597 147.823814,35.6705247 147.538488,34.6544208 C147.252746,33.6403948 147.111121,32.3167584 147.111121,30.6872519 C147.111121,29.0577455 147.252746,27.7357714 147.538488,26.7204987 C147.823814,25.705226 148.256996,24.9089662 148.83554,24.3296416 C149.414084,23.7507325 150.139238,23.357174 151.010169,23.1493818 C151.882346,22.9428364 152.896149,22.8389403 154.053653,22.8389403 L162.047367,22.8389403 L162.047367,26.2920312 L154.074834,26.2920312 C153.546129,26.2920312 153.10381,26.3564468 152.747048,26.4844468 C152.388625,26.6132779 152.098729,26.8418494 151.878193,27.1709922 C151.655996,27.4993039 151.495266,27.9460571 151.396419,28.5112519 C151.295911,29.0760312 151.245657,29.801226 151.245657,30.6872519 C151.245657,31.5745247 151.295911,32.2988883 151.396419,32.8644987 C151.495266,33.4292779 151.655996,33.8760312 151.878193,34.2047584 C152.098729,34.5334857 152.388625,34.7583169 152.747048,34.8804987 C153.10381,35.0010182 153.546129,35.0625247 154.074834,35.0625247 L158.403326,35.0625247 L158.403326,30.3664208 L162.090975,30.3664208 L162.090975,38.5152 Z" id="Fill-5" fill="#315291"></path>
                    <path d="M176.897392,26.0129662 C175.997803,26.0129662 175.27265,26.0915117 174.723593,26.248187 C174.173291,26.4061091 173.747585,26.6666805 173.447307,27.0315636 C173.148275,27.3960312 172.947674,27.8781091 172.847996,28.4786286 C172.748319,29.0791481 172.698065,29.8159792 172.698065,30.6874597 C172.698065,31.560187 172.748319,32.2957714 172.847996,32.8962909 C172.947674,33.4968104 173.148275,33.9797195 173.447307,34.3433558 C173.747585,34.708239 174.173291,34.969226 174.723593,35.1259013 C175.27265,35.2838234 175.997803,35.3623688 176.897392,35.3623688 C177.798642,35.3623688 178.523795,35.2838234 179.073682,35.1259013 C179.622738,34.969226 180.04969,34.708239 180.348307,34.3433558 C180.649,33.9797195 180.84794,33.4968104 180.949279,32.8962909 C181.048125,32.2957714 181.09921,31.560187 181.09921,30.6874597 C181.09921,29.8159792 181.048125,29.0791481 180.949279,28.4786286 C180.84794,27.8781091 180.649,27.3960312 180.348307,27.0315636 C180.04969,26.6666805 179.622738,26.4061091 179.073682,26.248187 C178.523795,26.0915117 177.798642,26.0129662 176.897392,26.0129662 M176.897392,38.8370701 C175.16965,38.8370701 173.762121,38.6899532 172.676883,38.3965506 C171.589984,38.1039792 170.744803,37.6322909 170.136355,36.9814857 C169.5304,36.3310961 169.116738,35.4912 168.89371,34.462213 C168.672758,33.4319792 168.561867,32.1748364 168.561867,30.6874597 C168.561867,29.2158753 168.672758,27.9608104 168.89371,26.9239273 C169.116738,25.8878753 169.5304,25.0446545 170.136355,24.3942649 C170.744803,23.7438753 171.589984,23.2717714 172.676883,22.9787844 C173.762121,22.6853818 175.16965,22.5386805 176.897392,22.5386805 C178.627625,22.5386805 180.034323,22.6853818 181.121222,22.9787844 C182.205629,23.2717714 183.051642,23.7438753 183.66092,24.3942649 C184.266045,25.0446545 184.681367,25.8878753 184.902734,26.9239273 C185.124517,27.9608104 185.234577,29.2158753 185.234577,30.6874597 C185.234577,32.1748364 185.124517,33.4319792 184.902734,34.462213 C184.681367,35.4912 184.266045,36.3310961 183.66092,36.9814857 C183.051642,37.6322909 182.205629,38.1039792 181.121222,38.3965506 C180.034323,38.6899532 178.627625,38.8370701 176.897392,38.8370701" id="Fill-7" fill="#315291"></path>
                    <polygon id="Fill-9" fill="#315291" points="195.905709 26.2276987 190.356584 26.2276987 190.356584 22.8390234 205.657483 22.8390234 205.657483 26.2276987 200.106697 26.2276987 200.106697 38.5152831 195.905709 38.5152831"></polygon>
                    <polygon id="Fill-11" fill="#315291" points="78.5454327 45.9090701 76.3778641 45.9090701 76.3778641 51.5901091 74.733602 51.5901091 74.733602 45.9090701 72.5581423 45.9090701 72.5581423 44.4632519 78.5454327 44.4632519"></polygon>
                    <path d="M87.0133202,47.8561247 L88.5172032,47.8561247 C88.7111589,47.8561247 88.8781185,47.7638649 89.0193282,47.5810078 C89.1588766,47.3960727 89.2286508,47.1604364 89.2286508,46.8724364 C89.2286508,46.5773714 89.1484935,46.3433974 88.9885944,46.1696831 C88.8278645,45.9963844 88.6542597,45.9091117 88.4669492,45.9091117 L87.0133202,45.9091117 L87.0133202,47.8561247 Z M85.3665661,51.5901506 L85.3665661,44.4628779 L88.577425,44.4628779 C88.9113444,44.4628779 89.2195137,44.5343584 89.5052556,44.6739948 C89.7893363,44.8140468 90.0339613,44.9989818 90.2424532,45.2258909 C90.4501145,45.4536312 90.611675,45.7117091 90.7283806,45.9992935 C90.8455016,46.2860468 90.9036468,46.5773714 90.9036468,46.8724364 C90.9036468,47.0926961 90.8778968,47.3054753 90.8243202,47.5095273 C90.7707435,47.7139948 90.6934935,47.9059948 90.5938161,48.0871896 C90.4933081,48.2683844 90.3716185,48.4300468 90.2270863,48.5734234 C90.0829694,48.7184623 89.9205782,48.8393974 89.7394976,48.9399688 L91.3060944,51.5901506 L89.4500177,51.5901506 L88.0856831,49.2903065 L87.0133202,49.2903065 L87.0133202,51.5901506 L85.3665661,51.5901506 Z" id="Fill-13" fill="#315291"></path>
                    <path d="M101.507414,48.8591792 L100.675938,46.3403221 L99.82245,48.8591792 L101.507414,48.8591792 Z M99.9320952,44.4631273 L101.417289,44.4631273 L104.015547,51.5899844 L102.329752,51.5899844 L101.778204,49.9933091 L99.5620427,49.9933091 L99.0196315,51.5899844 L97.3346677,51.5899844 L99.9320952,44.4631273 Z" id="Fill-15" fill="#315291"></path>
                    <polygon id="Fill-17" fill="#315291" points="111.158015 44.4630857 112.832181 49.5224104 114.488902 44.4630857 116.223705 44.4630857 113.524939 51.5899429 112.141084 51.5899429 109.413245 44.4630857"></polygon>
                    <polygon id="Fill-19" fill="#315291" points="127.910425 50.1440831 127.910425 51.5899013 122.904542 51.5899013 122.904542 44.4630442 127.8203 44.4630442 127.8203 45.9092779 124.548804 45.9092779 124.548804 47.2940052 127.358046 47.2940052 127.358046 48.6284468 124.548804 48.6284468 124.548804 50.1440831"></polygon>
                    <polygon id="Fill-21" fill="#315291" points="134.931994 51.5901091 134.931994 44.4632519 136.577086 44.4632519 136.577086 50.1442909 140.027171 50.1442909 140.027171 51.5901091"></polygon>
                    <path d="M46.709171,28.3027532 C45.3660177,22.644987 40.9058685,18.1878442 35.250421,16.8455065 L35.9755742,20.7424416 L36.7999895,25.1842078 C37.3909935,25.6384416 37.9209452,26.1678961 38.3719855,26.7584416 C39.4622073,28.1755844 40.115925,29.9430649 40.115925,31.8680519 L43.6224935,31.8668052 L47.1319694,31.865974 L63.3910177,31.8601558 L46.709171,28.3027532 Z" id="Fill-23" fill="#009EE2"></path>
                    <g id="Group-27" transform="translate(0.000000, 31.584416)">
                        <mask id="mask-2" fill="white">
                            <use xlink:href="#path-1"></use>
                        </mask>
                        <g id="Clip-26"></g>
                        <path d="M26.5879548,6.97117922 C25.9981968,6.51860779 25.4711524,5.98956883 25.0184508,5.39943896 C23.9290597,3.9798026 23.274096,2.21190649 23.2774185,0.287335065 L19.7691887,0.288581818 L16.2634508,0.290244156 L-0.000166129032,0.2944 L16.68085,3.8518026 C18.0252492,9.50998442 22.4858137,13.9708675 28.1387694,15.3078026 L27.4136161,11.4162701 L26.5879548,6.97117922 Z" id="Fill-25" fill="#009EE2" mask="url(#mask-2)"></path>
                    </g>
                    <g id="Group-30" transform="translate(16.612903, 0.000000)">
                        <mask id="mask-4" fill="white">
                            <use xlink:href="#path-3"></use>
                        </mask>
                        <g id="Clip-29"></g>
                        <path d="M8.40297258,26.7609766 C8.85567419,26.1696 9.38354919,25.6418078 9.97247661,25.1884052 C11.3912185,24.0999896 13.1563395,23.4466909 15.0813597,23.4450286 L15.0796984,19.9329247 L15.0772065,16.4249766 L15.0734685,0.155262338 L11.5178919,16.8455481 C5.86410565,18.1891325 1.40561774,22.6533403 0.0682790323,28.3106909 L3.96109758,27.5871584 L8.40297258,26.7609766 Z" id="Fill-28" fill="#009EE2" mask="url(#mask-4)"></path>
                    </g>
                    <path d="M38.3743528,36.9778701 C37.9249738,37.5721558 37.3962681,38.0999481 36.8056794,38.5512727 C35.3861069,39.6396883 33.6193246,40.2954805 31.6984577,40.2954805 L31.700119,43.8059221 L31.6992883,47.3155325 L31.7046875,63.5844156 L35.2619254,46.8924675 C40.9140504,45.5497143 45.3683851,41.0888312 46.7107077,35.4281558 L42.8178891,36.1533506 L38.3743528,36.9778701 Z" id="Fill-31" fill="#009EE2"></path>
                </g>
            </g>
        </g>
    </g>
</svg>