<?xml version="1.0" encoding="UTF-8" standalone="no"?>
<svg width="177px" height="55px" viewBox="0 0 177 55" version="1.1" xmlns="http://www.w3.org/2000/svg" xmlns:xlink="http://www.w3.org/1999/xlink">
    <!-- Generator: Sketch 50.2 (55047) - http://www.bohemiancoding.com/sketch -->
    <title>logo copy 2</title>
    <desc>Created with Sketch.</desc>
    <defs>
        <polygon id="path-1" points="0 0.246928571 24.1774863 0.246928571 24.1774863 13.1551429 0 13.1551429"></polygon>
        <polygon id="path-3" points="0.0586669355 0.133571429 12.9582556 0.133571429 12.9582556 24.3295 0.0586669355 24.3295"></polygon>
    </defs>
    <g id="Page-1" stroke="none" stroke-width="1" fill="none" fill-rule="evenodd">
        <g id="Home-Copy-69" transform="translate(-147.000000, -5788.000000)">
            <g id="logo-copy-2" transform="translate(147.000000, 5788.000000)">
                <polygon id="Fill-1" fill="#FFFFFF" points="69.4842405 33.3225714 65.8193413 24.384 65.8193413 33.3225714 62.5255712 33.3225714 62.5255712 19.8507857 67.3299079 19.8507857 71.2524563 29.4700714 75.2838454 19.8507857 80.0171679 19.8507857 80.0171679 33.3225714 76.7216135 33.3225714 76.7216135 24.4215 73.020672 33.3225714"></polygon>
                <path d="M91.3959484,27.9595 L96.0190028,27.9595 L93.698019,23.0577143 L91.3959484,27.9595 Z M91.7103375,19.8509286 L95.6125452,19.8509286 L102.205438,33.3227143 L98.5587387,33.3227143 L97.3258052,30.7055714 L90.1073456,30.7055714 L88.8736984,33.3227143 L85.1167306,33.3227143 L91.7103375,19.8509286 Z" id="Fill-2" fill="#FFFFFF"></path>
                <g id="Group-33" stroke-width="1" transform="translate(0.000000, 0.223571)">
                    <path d="M117.433826,24.25275 C117.433826,23.9095357 117.392788,23.6295357 117.313923,23.4145357 C117.23363,23.1995357 117.123719,23.0309643 116.982048,22.9073929 C116.840733,22.7845357 116.675509,22.7020357 116.484592,22.6595357 C116.294389,22.6159643 116.089197,22.5948929 115.86759,22.5948929 L110.915516,22.5948929 L110.915516,25.9295357 L115.86759,25.9295357 C116.089197,25.9295357 116.294389,25.9056071 116.484592,25.8563214 C116.675509,25.8073929 116.840733,25.7206071 116.982048,25.5984643 C117.123719,25.4756071 117.23363,25.3066786 117.313923,25.0913214 C117.392788,24.8763214 117.433826,24.5970357 117.433826,24.25275 Z M110.915516,28.6388214 L110.915516,33.0991786 L107.305215,33.0991786 L107.305215,19.6273929 L115.738766,19.6273929 C116.414292,19.6273929 117.061626,19.6798929 117.68184,19.7838214 C118.300983,19.8888214 118.850897,20.0913214 119.329082,20.3923929 C119.808338,20.6934643 120.189102,21.12025 120.472088,21.6731071 C120.753647,22.2259643 120.894247,22.9448929 120.894247,23.8291786 C120.894247,24.6034643 120.784336,25.24775 120.563443,25.7638214 C120.342193,26.2798929 120.036368,26.69775 119.642401,27.0170357 C120.059207,27.2263214 120.388227,27.51775 120.628034,27.8923929 C120.867126,28.2666786 120.98703,28.7616786 120.98703,29.3766786 L120.98703,33.0991786 L117.377443,33.0991786 L117.377443,29.7809643 C117.377443,29.3516786 117.288943,29.0538214 117.111229,28.8873929 C116.933516,28.7216786 116.554893,28.6388214 115.978572,28.6388214 L110.915516,28.6388214 Z" id="Fill-3" fill="#FFFFFF"></path>
                    <path d="M139.272343,33.099 L132.366488,33.099 C131.371934,33.099 130.500851,33.0097143 129.751456,32.8311429 C129.003131,32.6532857 128.380063,32.3182857 127.882964,31.8265 C127.385865,31.3357857 127.013666,30.6543571 126.768506,29.7811429 C126.52299,28.9097143 126.401303,27.7722143 126.401303,26.3718571 C126.401303,24.9715 126.52299,23.8354286 126.768506,22.9629286 C127.013666,22.0904286 127.385865,21.4061429 127.882964,20.9082857 C128.380063,20.4107857 129.003131,20.0725714 129.751456,19.894 C130.500851,19.7165 131.371934,19.6272143 132.366488,19.6272143 L139.234873,19.6272143 L139.234873,22.5947143 L132.384688,22.5947143 C131.930411,22.5947143 131.550361,22.6500714 131.243823,22.7600714 C130.935857,22.8707857 130.686772,23.0672143 130.497282,23.3500714 C130.306365,23.6322143 130.168262,24.0161429 130.083331,24.5018571 C129.996972,24.9872143 129.953793,25.6104286 129.953793,26.3718571 C129.953793,27.1343571 129.996972,27.7568571 130.083331,28.2429286 C130.168262,28.7282857 130.306365,29.1122143 130.497282,29.3947143 C130.686772,29.6772143 130.935857,29.8704286 131.243823,29.9754286 C131.550361,30.079 131.930411,30.1318571 132.384688,30.1318571 L136.103829,30.1318571 L136.103829,26.0961429 L139.272343,26.0961429 L139.272343,33.099 Z" id="Fill-5" fill="#FFFFFF"></path>
                    <path d="M151.994361,22.3548929 C151.221413,22.3548929 150.598345,22.4223929 150.126582,22.5570357 C149.65375,22.69275 149.287974,22.9166786 149.029968,23.23025 C148.773032,23.5434643 148.600671,23.95775 148.515026,24.4738214 C148.429381,24.9898929 148.386201,25.6231071 148.386201,26.3720357 C148.386201,27.1220357 148.429381,27.7541786 148.515026,28.27025 C148.600671,28.7863214 148.773032,29.2013214 149.029968,29.5138214 C149.287974,29.8273929 149.65375,30.0516786 150.126582,30.1863214 C150.598345,30.3220357 151.221413,30.3895357 151.994361,30.3895357 C152.768736,30.3895357 153.391804,30.3220357 153.86428,30.1863214 C154.336042,30.0516786 154.702889,29.8273929 154.959468,29.5138214 C155.21783,29.2013214 155.388764,28.7863214 155.475836,28.27025 C155.560768,27.7541786 155.604661,27.1220357 155.604661,26.3720357 C155.604661,25.6231071 155.560768,24.9898929 155.475836,24.4738214 C155.388764,23.95775 155.21783,23.5434643 154.959468,23.23025 C154.702889,22.9166786 154.336042,22.69275 153.86428,22.5570357 C153.391804,22.4223929 152.768736,22.3548929 151.994361,22.3548929 M151.994361,33.3756071 C150.509845,33.3756071 149.300464,33.2491786 148.368002,32.9970357 C147.434113,32.7456071 146.707913,32.34025 146.185121,31.7809643 C145.66447,31.2220357 145.309042,30.50025 145.117411,29.6159643 C144.927564,28.7306071 144.832284,27.65025 144.832284,26.3720357 C144.832284,25.1073929 144.927564,24.0288214 145.117411,23.13775 C145.309042,22.2473929 145.66447,21.52275 146.185121,20.9638214 C146.707913,20.4048929 147.434113,19.9991786 148.368002,19.7473929 C149.300464,19.49525 150.509845,19.3691786 151.994361,19.3691786 C153.481018,19.3691786 154.689685,19.49525 155.623574,19.7473929 C156.555322,19.9991786 157.282236,20.4048929 157.805742,20.9638214 C158.325679,21.52275 158.682534,22.2473929 158.872738,23.13775 C159.063298,24.0288214 159.157865,25.1073929 159.157865,26.3720357 C159.157865,27.65025 159.063298,28.7306071 158.872738,29.6159643 C158.682534,30.50025 158.325679,31.2220357 157.805742,31.7809643 C157.282236,32.34025 156.555322,32.7456071 155.623574,32.9970357 C154.689685,33.2491786 153.481018,33.3756071 151.994361,33.3756071" id="Fill-7" fill="#FFFFFF"></path>
                    <polygon id="Fill-9" fill="#FFFFFF" points="168.32675 22.5394286 163.558813 22.5394286 163.558813 19.6272857 176.705702 19.6272857 176.705702 22.5394286 171.936337 22.5394286 171.936337 33.0990714 168.32675 33.0990714"></polygon>
                    <polygon id="Fill-11" fill="#FFFFFF" points="67.4880659 39.4531071 65.6256405 39.4531071 65.6256405 44.33525 64.2128522 44.33525 64.2128522 39.4531071 62.3436466 39.4531071 62.3436466 38.2106071 67.4880659 38.2106071"></polygon>
                    <path d="M74.7638722,41.1263571 L76.0560435,41.1263571 C76.2226948,41.1263571 76.3661504,41.0470714 76.487481,40.8899286 C76.6073843,40.731 76.6673359,40.5285 76.6673359,40.281 C76.6673359,40.0274286 76.5984629,39.8263571 76.4610738,39.6770714 C76.322971,39.5281429 76.1738056,39.4531429 76.0128641,39.4531429 L74.7638722,39.4531429 L74.7638722,41.1263571 Z M73.3489427,44.3352857 L73.3489427,38.2102857 L76.1077875,38.2102857 C76.3946988,38.2102857 76.6594851,38.2717143 76.9050012,38.3917143 C77.1490899,38.5120714 77.3592774,38.671 77.5384185,38.866 C77.716846,39.0617143 77.8556625,39.2835 77.9559387,39.5306429 C78.0565718,39.7770714 78.1065315,40.0274286 78.1065315,40.281 C78.1065315,40.4702857 78.0844065,40.6531429 78.0383722,40.8285 C77.9923379,41.0042143 77.9259629,41.1692143 77.8403177,41.3249286 C77.7539589,41.4806429 77.6494004,41.6195714 77.5252149,41.7427857 C77.4013863,41.8674286 77.261856,41.9713571 77.1062673,42.0577857 L78.4523238,44.3352857 L76.8575395,44.3352857 L75.6852714,42.3588571 L74.7638722,42.3588571 L74.7638722,44.3352857 L73.3489427,44.3352857 Z" id="Fill-13" fill="#FFFFFF"></path>
                    <path d="M87.2175351,41.9883571 L86.5031117,39.8237143 L85.769775,41.9883571 L87.2175351,41.9883571 Z M85.8639847,38.2105 L87.1400976,38.2105 L89.3725815,44.3351429 L87.9241077,44.3351429 L87.4502044,42.963 L85.546027,42.963 L85.0799746,44.3351429 L83.6322145,44.3351429 L85.8639847,38.2105 Z" id="Fill-15" fill="#FFFFFF"></path>
                    <polygon id="Fill-17" fill="#FFFFFF" points="95.5095569 38.2104643 96.9480387 42.5583214 98.3715327 38.2104643 99.8621153 38.2104643 97.5432726 44.3351071 96.3542323 44.3351071 94.0104097 38.2104643"></polygon>
                    <polygon id="Fill-19" fill="#FFFFFF" points="109.903618 43.0925714 109.903618 44.3350714 105.602447 44.3350714 105.602447 38.2104286 109.82618 38.2104286 109.82618 39.4532857 107.015235 39.4532857 107.015235 40.6432857 109.429001 40.6432857 109.429001 41.7900714 107.015235 41.7900714 107.015235 43.0925714"></polygon>
                    <polygon id="Fill-21" fill="#FFFFFF" points="115.936713 44.33525 115.936713 38.2106071 117.350215 38.2106071 117.350215 43.09275 120.314608 43.09275 120.314608 44.33525"></polygon>
                    <path d="M40.1336081,24.3226786 C38.9795395,19.4605357 35.1472754,15.6301786 30.2879831,14.4766071 L30.9110516,17.8255357 L31.6194085,21.6426786 C32.1272129,22.0330357 32.5825597,22.4880357 32.970104,22.9955357 C33.906848,24.2133929 34.4685375,25.7323214 34.4685375,27.3866071 L37.4814629,27.3855357 L40.4968863,27.3848214 L54.4670395,27.3798214 L40.1336081,24.3226786 Z" id="Fill-23" fill="#FFFFFF"></path>
                    <g id="Group-27" transform="translate(0.000000, 27.142857)">
                        <mask id="mask-2" fill="white">
                            <use xlink:href="#path-1"></use>
                        </mask>
                        <g id="Clip-26"></g>
                        <path d="M22.8449903,5.99085714 C22.3382565,5.60192857 21.8854077,5.14728571 21.4964359,4.64014286 C20.5604056,3.42014286 19.9976456,1.90085714 20.0005004,0.246928571 L16.9861476,0.248 L13.9739359,0.249428571 L-0.000142741935,0.253 L14.332575,3.31014286 C15.4877141,8.17264286 19.3203351,12.0062143 24.1774863,13.1551429 L23.5544177,9.81085714 L22.8449903,5.99085714 Z" id="Fill-25" fill="#FFFFFF" mask="url(#mask-2)"></path>
                    </g>
                    <g id="Group-30" transform="translate(14.274194, 0.000000)">
                        <mask id="mask-4" fill="white">
                            <use xlink:href="#path-3"></use>
                        </mask>
                        <g id="Clip-29"></g>
                        <path d="M7.22002984,22.9977143 C7.60900161,22.4895 8.06256411,22.0359286 8.56858427,21.6462857 C9.7876004,20.7109286 11.3042335,20.1495 12.9582556,20.1480714 L12.9568282,17.1298571 L12.9546871,14.1152143 L12.9514754,0.133428571 L9.89644113,14.4766429 C5.03857621,15.6312857 1.20773952,19.4677143 0.0586669355,24.3295 L3.40346734,23.7077143 L7.22002984,22.9977143 Z" id="Fill-28" fill="#FFFFFF" mask="url(#mask-4)"></path>
                    </g>
                    <path d="M32.9721381,31.7778571 C32.5860212,32.2885714 32.131745,32.7421429 31.6242974,33.13 C30.4045675,34.0653571 28.8865071,34.6289286 27.2360534,34.6289286 L27.2374808,37.6457143 L27.2367671,40.6617857 L27.2414063,54.6428571 L30.2978679,40.2982143 C35.1543054,39.1442857 38.9815736,35.3107143 40.1349284,30.4460714 L36.790128,31.0692857 L32.9721381,31.7778571 Z" id="Fill-31" fill="#FFFFFF"></path>
                </g>
            </g>
        </g>
    </g>
</svg>