<?xml version="1.0" encoding="UTF-8" standalone="no"?>
<svg width="26px" height="26px" viewBox="0 0 26 26" version="1.1" xmlns="http://www.w3.org/2000/svg" xmlns:xlink="http://www.w3.org/1999/xlink">
    <!-- Generator: Sketch 50.2 (55047) - http://www.bohemiancoding.com/sketch -->
    <title>insta copy 2</title>
    <desc>Created with Sketch.</desc>
    <defs></defs>
    <g id="Page-1" stroke="none" stroke-width="1" fill="none" fill-rule="evenodd">
        <g id="Home-Copy-69" transform="translate(-1269.000000, -27.000000)">
            <g id="Group-5" transform="translate(1244.000000, 0.000000)">
                <g id="insta-copy-18" transform="translate(25.000000, 27.000000)">
                    <circle id="Oval-3" fill="#FFFFFF" fill-rule="evenodd" cx="13" cy="13" r="13"></circle>
                    <path d="M4.68,22.7470576 C4.90819185,18.4818816 8.55417308,15.08 13.0035227,15.08 C17.4211681,15.08 21.0454261,18.4341952 21.32,22.6570044 C19.0145969,24.4231103 16.1056402,25.48 12.9408971,25.48 C9.82997295,25.48 6.96622398,24.4592075 4.68,22.7470576" id="Path" fill="#033A67" fill-rule="evenodd"></path>
                    <path d="M8.84,9.10009632 C8.84,6.94951471 10.5893653,5.2 12.74,5.2 C14.8906347,5.2 16.64,6.94951471 16.64,9.10009632 C16.64,11.2504853 14.8906347,13 12.74,13 C10.5893653,13 8.84,11.2504853 8.84,9.10009632" id="Path" fill="#033A67" fill-rule="evenodd"></path>
                    <circle id="Oval-3" stroke="#FFFFFF" stroke-width="3" cx="13" cy="13" r="11.5"></circle>
                </g>
            </g>
        </g>
    </g>
</svg>