<?xml version="1.0" encoding="UTF-8" standalone="no"?>
<svg width="149px" height="43px" viewBox="0 0 149 43" version="1.1" xmlns="http://www.w3.org/2000/svg" xmlns:xlink="http://www.w3.org/1999/xlink">
    <!-- Generator: Sketch 50.2 (55047) - http://www.bohemiancoding.com/sketch -->
    <title>dotpay-logo</title>
    <desc>Created with Sketch.</desc>
    <defs></defs>
    <g id="Page-1" stroke="none" stroke-width="1" fill="none" fill-rule="evenodd">
        <g id="Dziekujemy-i-platnosc" transform="translate(-1072.000000, -777.000000)" fill="#FFFFFF">
            <g id="dotpay-logo" transform="translate(1072.000000, 777.000000)">
                <g id="Group">
                    <path d="M18.5136913,29.4169415 L12.920255,29.4169415 C8.35280501,29.4169415 6.14583288,26.8421874 6.14583288,21.4398706 C6.14583288,16.3403364 8.55785285,13.8159236 13.3307242,13.8159236 L18.5136913,13.8159236 L18.5136913,29.4169415 Z M18.5136913,9.32195448 L12.4582438,9.32195448 C9.01986411,9.32195448 6.40279629,10.0293045 4.55549824,11.4425347 C1.78380418,13.5631149 0.193096056,17.3501015 0.193096056,21.7929945 C0.193096056,25.7817136 1.42487708,29.1141589 3.63147572,31.1840304 C5.78653228,33.203928 8.14738367,33.9105431 12.920255,33.9105431 L24.3132958,33.9105431 L24.3132958,0.234068548 L18.5136913,0.234068548 L18.5136913,9.32195448 Z" id="Fill-1"></path>
                    <path d="M54.4725094,9.32195448 L49.9050593,9.32195448 L49.9050593,13.8159236 L54.4725094,13.8159236 L54.4725094,25.681031 C54.4725094,29.2152089 54.9853157,30.9319566 56.370976,32.2952129 C57.7050942,33.5067106 59.1422966,33.9105431 62.2729177,33.9105431 L67.1996684,33.9105431 L67.1996684,29.4169415 L64.3771792,29.4169415 C60.8872574,29.4169415 60.2717404,28.7606676 60.2717404,24.9233398 L60.2717404,13.8159236 L67.1996684,13.8159236 L67.1996684,9.32195448 L60.2717404,9.32195448 L60.2717404,0.234068548 L54.4725094,0.234068548 L54.4725094,9.32195448" id="Fill-2"></path>
                    <path d="M74.5078125,13.808942 L79.2810574,13.808942 C84.1566394,13.808942 86.4659487,16.2323047 86.4659487,21.3314715 C86.4659487,24.209743 85.7985161,26.4817145 84.5671086,27.7439209 C83.5407489,28.854736 81.6415352,29.4095924 79.0240939,29.4095924 L74.5078125,29.4095924 L74.5078125,13.808942 Z M68.7085814,9.31497284 L68.7085814,42.3939663 L74.5078125,42.3939663 L74.5078125,33.9031941 L79.8457793,33.9031941 C84.6186506,33.9031941 86.8256228,33.2472877 88.9295108,31.2780988 C91.1357359,29.1575185 92.4706011,25.6233407 92.4706011,21.7353041 C92.4706011,17.4438024 91.2388201,14.0610158 88.8268001,11.8900943 C86.619828,9.9209054 84.5671086,9.31497284 79.7430686,9.31497284 L68.7085814,9.31497284 Z" id="Fill-3"></path>
                    <path d="M111.665918,23.4086921 L111.665918,29.4169415 L103.505835,29.4169415 C100.375588,29.4169415 99.1441801,28.6096438 99.1441801,26.4886961 C99.1441801,25.1254398 99.7600706,24.1156747 100.786057,23.7118421 C101.402321,23.4594008 101.966669,23.4086921 103.505835,23.4086921 L111.665918,23.4086921 Z M102.992655,18.9154579 C100.118998,18.9154579 98.2720731,19.1675317 97.0910872,19.723123 C94.6794407,20.7832293 93.1910697,23.4086921 93.1910697,26.5390374 C93.1910697,29.0131089 94.1662608,31.1336891 95.9112217,32.4462368 C97.5530984,33.6581019 98.9387587,33.9105431 104.019015,33.9105431 L117.465149,33.9105431 L117.465149,19.1171904 C117.465149,15.2295213 117.003138,13.4624323 115.565935,11.7963934 C113.924058,9.87791321 112.025218,9.32195448 106.790336,9.32195448 L94.5248144,9.32195448 L94.5248144,13.8159236 L106.225987,13.8159236 C109.100392,13.8159236 110.177547,14.1690474 110.947317,15.2295213 C111.563581,16.0878951 111.665918,16.7945102 111.665918,18.9154579 L102.992655,18.9154579 Z" id="Fill-4"></path>
                    <path d="M135.4186,29.4169415 L129.414321,29.4169415 C125.821689,29.4169415 124.795329,28.1040263 124.795329,23.3587183 L124.795329,9.32195448 L118.996471,9.32195448 L118.996471,22.9545183 C118.996471,27.8016113 119.304603,29.2655502 120.741432,31.0326391 C122.486393,33.102878 124.744534,33.9105431 128.849973,33.9105431 L135.4186,33.9105431 C135.315889,35.9388923 135.16201,36.4941161 134.392614,36.9989986 C133.725181,37.5542225 132.955411,37.6552725 130.441054,37.6552725 L118.996471,37.6552725 L118.996471,42.1485067 L130.59456,42.1485067 C135.16201,42.1485067 137.163561,41.5936503 138.805811,39.9779527 C140.447688,38.3115463 141.217831,35.5346923 141.217831,31.4871804 L141.217831,9.32195448 L135.4186,9.32195448 L135.4186,29.4169415" id="Fill-5"></path>
                    <path d="M40.4022683,16.2749295 L36.0084927,16.2749295 C35.8859869,16.2756644 35.7720714,16.3234335 35.6697343,16.4274231 C35.570385,16.5314127 35.5024092,16.6802318 35.5024092,16.8533029 L35.5024092,20.5135177 L40.9083518,20.5135177 L40.9083518,16.8533029 C40.9083518,16.6802318 40.8400025,16.5314127 40.7402798,16.4274231 C40.6383161,16.3234335 40.5247742,16.2756644 40.4022683,16.2749295" id="Fill-6"></path>
                    <path d="M43.7917204,27.3353114 C43.7917204,28.2638691 43.0197097,29.0233976 42.075892,29.0233976 L34.1518573,29.0233976 C33.2080397,29.0233976 32.4360289,28.2638691 32.4360289,27.3353114 L32.4360289,22.2714203 C32.4360289,21.5765637 32.8685342,20.976143 33.4821838,20.7185573 L33.4821838,16.9234868 C33.4844247,15.6002829 34.5253507,14.4692578 35.9054086,14.4589691 L40.2991842,14.4589691 C41.6792421,14.4692578 42.7197945,15.6002829 42.722409,16.9234868 L42.722409,20.7097384 C43.3480103,20.9618123 43.7917204,21.5677448 43.7917204,22.2714203 L43.7917204,27.3353114 Z M38.2169588,9.48767648 C31.3786693,9.48767648 25.8334137,14.9432742 25.8334137,21.6709995 C25.8334137,28.3987249 31.3786693,33.8546901 38.2169588,33.8546901 C45.0548749,33.8546901 50.6005039,28.3987249 50.6005039,21.6709995 C50.6005039,14.9432742 45.0548749,9.48767648 38.2169588,9.48767648 Z" id="Fill-7"></path>
                    <path d="M144.254332,3.58929604 L144.638657,3.58929604 C145.087222,3.58929604 145.450258,3.44194677 145.450258,3.0851484 C145.450258,2.7698724 145.21533,2.56005585 144.702897,2.56005585 C144.489259,2.56005585 144.339862,2.58100076 144.254332,2.60194567 L144.254332,3.58929604 Z M144.233043,5.52173952 L143.421442,5.52173952 L143.421442,2.09779803 C143.742273,2.03459584 144.190465,1.97176112 144.767138,1.97176112 C145.428968,1.97176112 145.727763,2.07685312 145.98398,2.24477985 C146.175955,2.39212912 146.325726,2.6647804 146.325726,2.9800564 C146.325726,3.37911204 146.026558,3.67307568 145.600028,3.79948005 L145.600028,3.84136987 C145.941401,3.94646187 146.133377,4.2194806 146.240196,4.68173842 C146.347015,5.20683097 146.410882,5.41701498 146.496786,5.52173952 L145.620944,5.52173952 C145.514498,5.39570261 145.450258,5.10173897 145.343065,4.70231588 C145.279198,4.3245726 145.065933,4.15627842 144.617741,4.15627842 L144.233043,4.15627842 L144.233043,5.52173952 Z M144.767138,0.984043285 C143.229466,0.984043285 142.076492,2.22383494 142.076492,3.73627786 C142.076492,5.27003316 143.229466,6.48814499 144.809717,6.48814499 C146.347015,6.50945735 147.479073,5.27003316 147.479073,3.73627786 C147.479073,2.22383494 146.347015,0.984043285 144.788427,0.984043285 L144.767138,0.984043285 Z M144.809717,0.291024004 C146.81687,0.291024004 148.375457,1.8247793 148.375457,3.73627786 C148.375457,5.69003371 146.81687,7.20247663 144.788427,7.20247663 C142.781274,7.20247663 141.180108,5.69003371 141.180108,3.73627786 C141.180108,1.8247793 142.781274,0.291024004 144.788427,0.291024004 L144.809717,0.291024004 Z" id="Fill-8"></path>
                </g>
            </g>
        </g>
    </g>
</svg>