<?xml version="1.0" encoding="UTF-8" standalone="no"?>
<svg width="99px" height="14px" viewBox="0 0 99 14" version="1.1" xmlns="http://www.w3.org/2000/svg" xmlns:xlink="http://www.w3.org/1999/xlink">
    <!-- Generator: Sketch 50.2 (55047) - http://www.bohemiancoding.com/sketch -->
    <title>Group 5</title>
    <desc>Created with Sketch.</desc>
    <defs></defs>
    <g id="Page-1" stroke="none" stroke-width="1" fill="none" fill-rule="evenodd">
        <g id="Dziekujemy-i-platnosc" transform="translate(-330.000000, -105.000000)">
            <g id="Group-8" transform="translate(330.000000, 103.000000)">
                <g id="Wizualni-logo-biale">
                    <g id="Group">
                        <g id="Group-5">
                            <g id="Group-26" transform="translate(25.000000, 2.000000)" fill="#FEFEFE">
                                <g id="Group-2">
                                    <path d="M0.425915976,0.510909677 L2.4598213,0.510909677 L2.77946627,7.10445806 C2.78909941,7.16407097 2.79391598,7.25936129 2.79391598,7.38897419 C2.79391598,7.51903871 2.78909941,7.61884516 2.77946627,7.68884516 L2.75056686,8.00361935 L2.80836568,8.00361935 C2.81843669,7.93361935 2.84251953,7.82884516 2.88148994,7.68884516 C2.92002249,7.53890968 2.98307574,7.3438129 3.07021183,7.10445806 L5.67072071,0.510909677 L7.82066154,0.510909677 L8.15475621,7.10445806 C8.16482722,7.16407097 8.17008166,7.25936129 8.17008166,7.38897419 C8.17008166,7.51903871 8.16482722,7.61884516 8.15475621,7.68884516 L8.12629467,8.00361935 L8.18409349,8.00361935 C8.19372663,7.93361935 8.21824734,7.82884516 8.25677988,7.68884516 C8.2957503,7.53890968 8.35836568,7.3438129 8.44593964,7.10445806 L11.0319988,0.510909677 L13.0654663,0.510909677 L8.8093716,11.0005226 L6.63009349,11.0005226 L6.20842485,4.48194194 C6.19879172,4.40245806 6.20842485,4.19200645 6.23688639,3.85284516 L6.26666154,3.5078129 L6.20842485,3.5078129 C6.18872071,3.63787742 6.1598213,3.75303871 6.12128876,3.85284516 C6.02451953,4.17213548 5.95621183,4.38213548 5.91811716,4.48194194 L3.28827101,11.0005226 L1.1089929,11.0005226 L0.425915976,0.510909677 Z" id="Fill-1"></path>
                                    <path d="M14.7511775,2.25675484 C14.5769053,2.07249677 14.4893314,1.85030323 14.4893314,1.59017419 C14.4893314,1.25056129 14.6246331,0.948432258 14.8965503,0.683787097 C15.1671538,0.419141935 15.4679704,0.286367742 15.7972485,0.286367742 C16.0586568,0.286367742 16.2745266,0.37623871 16.4435444,0.555980645 C16.613,0.735722581 16.6975089,0.960625806 16.6975089,1.23069032 C16.6975089,1.55991613 16.562645,1.86023871 16.2916036,2.1294 C16.0192485,2.3990129 15.7245621,2.53404516 15.4049172,2.53404516 C15.1435089,2.53404516 14.9254497,2.44191613 14.7511775,2.25675484 Z M12.9493432,11.0004323 L14.2283609,3.50817419 L16.2618284,3.50817419 L14.9832485,11.0004323 L12.9493432,11.0004323 Z" id="Fill-3"></path>
                                    <polygon id="Fill-5" points="16.843013 11.0005677 17.0755219 9.57663226 21.3040308 4.85682581 17.889084 4.85682581 18.1215929 3.50785806 23.8598769 3.50785806 23.6133562 4.93179355 19.3852852 9.6516 22.8729183 9.6516 22.6539834 11.0005677"></polygon>
                                    <path d="M25.4366462,10.5961484 C25.0342438,10.2258258 24.8332615,9.69653548 24.8332615,9.00737419 C24.8332615,8.74769677 24.8525278,8.51285806 24.8910604,8.30330968 L25.7195101,3.50808387 L27.7534154,3.50808387 L26.9254036,8.30330968 C26.8965041,8.46318065 26.8824923,8.60814839 26.8824923,8.73776129 C26.8824923,9.0669871 26.9595574,9.31447097 27.1141254,9.47930968 C27.2695692,9.64414839 27.4871905,9.72634194 27.7678651,9.72634194 C28.1067763,9.72634194 28.4413089,9.57685806 28.7710249,9.27743871 C28.9155219,9.13743871 29.0468828,8.98795484 29.1629183,8.82763226 L30.0780663,3.50808387 L32.1119716,3.50808387 L30.8338296,11.0007935 L29.3814154,11.0007935 L29.3814154,10.1011806 L29.3078533,10.1011806 C29.1138769,10.3211161 28.9207763,10.4958903 28.7268,10.6255032 C28.242516,10.9755032 27.724516,11.1502774 27.1723621,11.1502774 C26.4165988,11.1502774 25.8381728,10.9655677 25.4366462,10.5961484" id="Fill-7"></path>
                                    <path d="M36.7130639,9.27725806 C36.8387325,9.16751613 36.9792888,9.01712903 37.1342947,8.82745161 L37.3085669,7.77880645 L36.292271,7.77880645 C35.4682,7.77880645 34.9988036,8.12880645 34.882768,8.82745161 C34.872697,8.86764516 34.8683183,8.93267742 34.8683183,9.02254839 C34.8683183,9.23209677 34.943632,9.40235484 35.0929456,9.53151613 C35.2435728,9.66203226 35.4585669,9.7266129 35.7396793,9.7266129 C36.0207917,9.7266129 36.3448154,9.57667742 36.7130639,9.27725806 M33.4075846,10.6483548 C33.0056201,10.3132581 32.8046379,9.85667742 32.8046379,9.27725806 C32.8046379,9.12687097 32.8190876,8.9773871 32.8493006,8.82745161 C32.9740935,8.07867742 33.3401527,7.49112903 33.9457266,7.0666129 C34.5508627,6.64209677 35.4104012,6.43029032 36.524342,6.43029032 L37.5415136,6.43029032 L37.5848627,6.2053871 C37.6142,6.02564516 37.6286497,5.86577419 37.6286497,5.72577419 C37.6286497,5.36583871 37.5340698,5.10706452 37.3449101,4.94674194 C37.1570639,4.78687097 36.8632533,4.70693548 36.4665432,4.70693548 C36.040058,4.70693548 35.6525432,4.80674194 35.3039988,5.00635484 C35.1297266,5.09667742 34.9742828,5.19648387 34.8394189,5.30667742 L34.6940462,5.30667742 L34.2430402,4.10764516 C34.5048864,3.94777419 34.751845,3.82267742 34.9843538,3.73280645 C35.6332769,3.48351613 36.2480462,3.35841935 36.8299751,3.35841935 C37.7407444,3.35841935 38.4395846,3.56796774 38.9286852,3.98796774 C39.4182237,4.40706452 39.6621172,4.9666129 39.6621172,5.66570968 C39.6621172,5.84545161 39.6476675,6.02564516 39.6192059,6.2053871 L38.8052059,11.0006129 L37.3527917,11.0006129 L37.3527917,10.1014516 L37.2796675,10.1014516 C37.0856911,10.3209355 36.8921527,10.4961613 36.6986142,10.6257742 C36.2143302,10.9753226 35.6963302,11.1500968 35.1441763,11.1500968 C34.388413,11.1500968 33.8095491,10.9834516 33.4075846,10.6483548" id="Fill-9"></path>
                                    <polygon id="Fill-11" points="40.8809716 11.0005677 42.5672083 1.11114839 43.2494095 0.510954839 44.7018237 0.510954839 42.9148769 11.0005677"></polygon>
                                    <path d="M46.3949787,3.50794839 L47.846955,3.50794839 L47.8333811,4.40710968 L47.9051917,4.40710968 C48.0317361,4.25717419 48.2257124,4.0824 48.4866828,3.8827871 C48.9806,3.53323871 49.4990379,3.35846452 50.0411207,3.35846452 C50.796884,3.35846452 51.3753101,3.54317419 51.7772746,3.91259355 C52.1792391,4.28246452 52.3797834,4.81175484 52.3797834,5.50091613 C52.3797834,5.76059355 52.360955,5.99543226 52.3219846,6.20543226 L51.5088604,11.0006581 L49.4745172,11.0006581 L50.2885172,6.20543226 C50.3169787,6.03562581 50.3314284,5.89110968 50.3314284,5.77098065 C50.3314284,5.44085161 50.2543633,5.19381935 50.0997953,5.02898065 C49.9443515,4.86414194 49.7258544,4.78194839 49.4456178,4.78194839 C49.1067065,4.78194839 48.7726118,4.93143226 48.4428959,5.23085161 C48.2979609,5.36136774 48.1666,5.51130323 48.0510024,5.68065806 L47.1503041,11.0006581 L45.1159609,11.0006581 L46.3949787,3.50794839 Z" id="Fill-13"></path>
                                    <path d="M55.3943858,2.25675484 C55.2205515,2.07249677 55.1338533,1.85030323 55.1338533,1.59017419 C55.1338533,1.25056129 55.269155,0.948432258 55.5406343,0.683787097 C55.8116757,0.419141935 56.1116166,0.286367742 56.4408947,0.286367742 C56.702303,0.286367742 56.9177349,0.37623871 57.0871905,0.555980645 C57.257084,0.735722581 57.3415929,0.960625806 57.3415929,1.23069032 C57.3415929,1.55991613 57.2062911,1.86023871 56.9348118,2.1294 C56.6633325,2.3990129 56.3686462,2.53404516 56.0490012,2.53404516 C55.7875929,2.53404516 55.5690959,2.44191613 55.3943858,2.25675484 Z M53.5929893,11.0004323 L54.8720071,3.50817419 L56.9054746,3.50817419 L55.6273325,11.0004323 L53.5929893,11.0004323 Z" id="Fill-15"></path>
                                    <path d="M59.5421515,9.17998065 C59.7159858,9.36469032 59.802684,9.58688387 59.802684,9.84656129 C59.802684,10.1762387 59.6669444,10.4756581 59.395903,10.745271 C59.1252994,11.0148839 58.8301751,11.1499161 58.5100923,11.1499161 C58.248684,11.1499161 58.0306249,11.0582387 57.8563527,10.8726258 C57.6816426,10.6883677 57.5940686,10.4661742 57.5940686,10.2064968 C57.5940686,9.87636774 57.7302462,9.57649677 58.0012876,9.30733548 C58.2732047,9.03727097 58.5678911,8.90223871 58.8875361,8.90223871 C59.1498201,8.90223871 59.3674414,8.99481935 59.5421515,9.17998065" id="Fill-17"></path>
                                    <path d="M65.9255053,9.21728387 C66.2298249,8.82754194 66.4649609,8.17360645 66.6291621,7.25412258 C66.697032,6.87476774 66.7316237,6.52973548 66.7316237,6.22038065 C66.7316237,5.72089677 66.6488663,5.35644516 66.4842272,5.12657419 C66.3195882,4.89670323 66.0967124,4.78199355 65.8160379,4.78199355 C65.4766888,4.78199355 65.143032,4.93147742 64.8137538,5.23089677 C64.6683811,5.36096129 64.5378959,5.51089677 64.4209846,5.68070323 L63.7970201,9.35186452 C63.8644521,9.44173548 63.9515882,9.51670323 64.0579905,9.57676774 C64.2808663,9.72625161 64.5322036,9.80121935 64.8137538,9.80121935 C65.2498722,9.80121935 65.6194343,9.60657419 65.9255053,9.21728387 Z M62.7653988,3.50799355 L64.2182509,3.50799355 L64.2038012,4.40715484 L64.2756118,4.40715484 C64.4021562,4.25721935 64.5956947,4.08244516 64.8575408,3.88283226 C65.351458,3.53328387 65.8690201,3.35850968 66.411103,3.35850968 C67.1388426,3.35850968 67.7124521,3.59289677 68.1336828,4.06302581 C68.5549136,4.53225161 68.765529,5.2214129 68.765529,6.13050968 C68.765529,6.49992903 68.7313751,6.87476774 68.6639432,7.25412258 C68.4410675,8.53309032 68.0001325,9.50225161 67.3411385,10.1611548 C66.6825822,10.8205097 65.8839077,11.1501871 64.9446769,11.1501871 C64.5571621,11.1501871 64.2182509,11.075671 63.9279432,10.9252839 C63.7724994,10.8552839 63.6512095,10.7807677 63.5640734,10.7008323 L63.0994935,13.3974129 L62.4164166,13.9971548 L60.9640024,13.9971548 L62.7653988,3.50799355 Z" id="Fill-19"></path>
                                    <polygon id="Fill-21" points="69.7880864 11.0005677 71.4734473 1.11114839 72.1565243 0.510954839 73.6098142 0.510954839 71.8224296 11.0005677"></polygon>
                                </g>
                            </g>
                            <text id="By:" font-family="Muli-BoldItalic, Muli" font-size="12" font-style="italic" font-weight="bold" fill="#FFFFFF">
                                <tspan x="0" y="12">By:</tspan>
                            </text>
                        </g>
                    </g>
                </g>
            </g>
        </g>
    </g>
</svg>