<?xml version="1.0" encoding="UTF-8" standalone="no"?>
<svg width="116px" height="43px" viewBox="0 0 116 43" version="1.1" xmlns="http://www.w3.org/2000/svg" xmlns:xlink="http://www.w3.org/1999/xlink">
    <!-- Generator: Sketch 50.2 (55047) - http://www.bohemiancoding.com/sketch -->
    <title>materia-logo</title>
    <desc>Created with Sketch.</desc>
    <defs>
        <polygon id="path-1" points="0 42.6993007 115.734129 42.6993007 115.734129 0.170195804 0 0.170195804"></polygon>
    </defs>
    <g id="Page-1" stroke="none" stroke-width="1" fill="none" fill-rule="evenodd">
        <g id="Desktop-HD-Copy-91" transform="translate(-21.000000, -18.000000)">
            <g id="materia-logo-white" transform="translate(21.000000, 18.000000)">
                <g id="Group-2">
                    <polygon id="Fill-1" fill="#FEFEFE" points="16.6392558 0.58071049 8.94668734 9.17349371 1.25501809 0.58071049 0 0.58071049 0 20.4476126 3.95509044 20.4476126 3.95509044 9.52892028 8.94668734 14.7830392 13.9388837 9.52892028 13.9116072 20.4476126 17.8666977 20.4476126 17.8666977 0.58071049"></polygon>
                    <path d="M30.0860837,0.170436364 L21.8755618,20.4474923 L26.2946522,20.4474923 L27.0583938,18.3404923 L33.5229209,18.3404923 L34.3142388,20.4474923 L38.7060527,20.4474923 L30.495231,0.170436364 L30.0860837,0.170436364 Z M30.3042956,9.58382797 L32.0772672,14.673765 L28.4767711,14.673765 L30.3042956,9.58382797 Z" id="Fill-2" fill="#FEFEFE"></path>
                    <polygon id="Fill-3" fill="#FEFEFE" points="44.7334966 20.4475524 44.7334966 4.79495105 39.8782822 4.79495105 39.8782822 0.909013986 53.4895483 0.909013986 53.4895483 4.79495105 48.6343339 4.79495105 48.6343339 20.4475524"></polygon>
                    <polygon id="Fill-4" fill="#FEFEFE" points="57.7989034 20.4475524 57.7989034 0.881951049 67.564185 0.881951049 67.564185 4.79495105 61.6997406 4.79495105 61.6997406 8.70795105 66.8277199 8.70795105 66.8277199 12.6212517 61.6997406 12.6212517 61.6997406 16.5342517 67.8915028 16.5342517 67.8915028 20.4475524"></polygon>
                    <g id="Group-18">
                        <path d="M76.8108238,9.17337343 L80.247661,9.17337343 C82.8937798,9.17337343 82.8937798,4.79489091 80.247661,4.79489091 L76.8108238,4.79489091 L76.8108238,9.17337343 Z M82.621015,20.4474923 L78.6929013,12.9769189 L76.8108238,12.9769189 L76.8108238,20.4474923 L72.9099866,20.4474923 L72.9099866,0.881890909 L80.6022553,0.881890909 C87.5580589,0.881890909 88.2399711,10.7057371 82.511909,12.3749189 L87.0398057,20.4474923 L82.621015,20.4474923 Z" id="Fill-5" fill="#FEFEFE"></path>
                        <mask id="mask-2" fill="white">
                            <use xlink:href="#path-1"></use>
                        </mask>
                        <g id="Clip-8"></g>
                        <polygon id="Fill-7" fill="#FEFEFE" mask="url(#mask-2)" points="90.9940568 20.4475524 94.8948941 20.4475524 94.8948941 0.881951049 90.9940568 0.881951049"></polygon>
                        <path d="M109.105643,14.6736147 L107.332672,9.58367762 L105.504848,14.6736147 L109.105643,14.6736147 Z M107.11416,0.170286014 L107.523607,0.170286014 L115.734129,20.4476427 L111.342615,20.4476427 L110.551297,18.340342 L104.08677,18.340342 L103.322729,20.4476427 L98.903938,20.4476427 L107.11416,0.170286014 Z" id="Fill-9" fill="#FEFEFE" mask="url(#mask-2)"></path>
                        <path d="M7.33752455,31.4251217 C9.95606718,31.4251217 9.95606718,27.0466392 7.33752455,27.0466392 L3.90068734,27.0466392 L3.90068734,31.4251217 L7.33752455,31.4251217 Z M0.000149870801,42.6992406 L0.000149870801,23.1610028 L7.66514212,23.1610028 C15.2483049,23.1610028 15.2210284,35.2286671 7.66514212,35.2286671 L3.90068734,35.2286671 L3.90068734,42.6992406 L0.000149870801,42.6992406 Z" id="Fill-10" fill="#FEFEFE" mask="url(#mask-2)"></path>
                        <path d="M24.4125447,31.4251217 L27.8493819,31.4251217 C30.4955008,31.4251217 30.4955008,27.0466392 27.8493819,27.0466392 L24.4125447,27.0466392 L24.4125447,31.4251217 Z M30.2227359,42.6992406 L26.2946222,35.2286671 L24.4125447,35.2286671 L24.4125447,42.6992406 L20.5117075,42.6992406 L20.5117075,23.1336392 L28.2039762,23.1336392 C35.1597798,23.1336392 35.841692,32.9574853 30.11363,34.6266671 L34.6415266,42.6992406 L30.2227359,42.6992406 Z" id="Fill-11" fill="#FEFEFE" mask="url(#mask-2)"></path>
                        <polygon id="Fill-12" fill="#FEFEFE" mask="url(#mask-2)" points="41.2962997 42.6993007 45.197137 42.6993007 45.197137 23.1336993 41.2962997 23.1336993"></polygon>
                        <polygon id="Fill-13" fill="#FEFEFE" mask="url(#mask-2)" points="70.2914439 22.832579 71.5191855 22.832579 71.5191855 42.6991804 67.5637953 42.6991804 67.5910718 31.7807888 62.5994749 37.034607 57.6075783 31.7807888 57.6075783 42.6991804 53.6521881 42.6991804 53.6521881 22.832579 54.9072062 22.832579 62.5994749 31.4250615"></polygon>
                        <path d="M88.4302171,36.9255133 L86.6572455,31.8352755 L84.8294212,36.9255133 L88.4302171,36.9255133 Z M86.4387339,22.4221846 L86.8481809,22.4221846 L95.0587028,42.6992406 L90.6668889,42.6992406 L89.8758708,40.5919399 L83.4113437,40.5919399 L82.6473023,42.6992406 L78.2285116,42.6992406 L86.4387339,22.4221846 Z" id="Fill-14" fill="#FEFEFE" mask="url(#mask-2)"></path>
                        <polygon id="Fill-15" fill="#FEFEFE" mask="url(#mask-2)" points="2.31391525 24.3372483 2.91339845 33.057528 8.60848889 32.4561294 10.4069385 28.8477378 8.30874729 25.2393462"></polygon>
                        <polygon id="Fill-16" fill="#FEFEFE" mask="url(#mask-2)" points="29.8901426 6.29529021 26.592985 16.5190664 33.1873003 14.7148706"></polygon>
                        <polygon id="Fill-17" fill="#FEFEFE" mask="url(#mask-2)" points="75.7506078 3.8896958 75.4508661 11.106479 78.7480238 11.7078776 83.5438894 8.09948601 82.344923 4.49109441"></polygon>
                    </g>
                </g>
            </g>
        </g>
    </g>
</svg>