<?xml version="1.0" encoding="UTF-8" standalone="no"?>
<svg width="28px" height="27px" viewBox="0 0 28 27" version="1.1" xmlns="http://www.w3.org/2000/svg" xmlns:xlink="http://www.w3.org/1999/xlink">
    <!-- Generator: Sketch 50.2 (55047) - http://www.bohemiancoding.com/sketch -->
    <title>icon-random copy 2</title>
    <desc>Created with Sketch.</desc>
    <defs>
        <path d="M0,14.0972222 C0,21.4390556 5.9104,27.3888889 13.2,27.3888889 C20.4912,27.3888889 26.4,21.4390556 26.4,14.0972222 C26.4,6.75538889 20.4912,0.805555556 13.2,0.805555556 C5.9104,0.805555556 0,6.75538889 0,14.0972222 Z M0.8,14.0972222 C0.8,7.20327778 6.3504,1.61111111 13.2,1.61111111 C20.048,1.61111111 25.6,7.20327778 25.6,14.0972222 C25.6,20.9943889 20.048,26.5833333 13.2,26.5833333 C6.3504,26.5833333 0.8,20.9943889 0.8,14.0972222 Z" id="path-1"></path>
    </defs>
    <g id="Symbols" stroke="none" stroke-width="1" fill="none" fill-rule="evenodd">
        <g id="Footer" transform="translate(-1127.000000, -166.000000)">
            <g id="icon-random-copy-20" transform="translate(1125.000000, 165.000000)">
                <g id="Page-1" stroke-width="1" fill-rule="evenodd" transform="translate(3.200000, 0.000000)">
                    <ellipse id="Oval" fill="#FFFFFF" cx="12.8" cy="14.5" rx="12.8" ry="12.8888889"></ellipse>
                    <g id="Group-3" transform="translate(0.000000, 0.805556)">
                        <mask id="mask-2" fill="white">
                            <use xlink:href="#path-1"></use>
                        </mask>
                        <g id="Clip-2"></g>
                    </g>
                    <path d="M13.68592,22.3478833 L13.68592,14.8932722 L16.12752,14.8932722 L16.51472,12.4234389 L13.68592,12.4234389 L13.68592,11.1828833 C13.68592,10.54005 13.89552,9.92460556 14.81392,9.92460556 L16.65072,9.92460556 L16.65072,7.45960556 L14.04432,7.45960556 C11.85232,7.45960556 11.25232,8.91121667 11.25232,10.9267167 L11.25232,12.4218278 L9.74992,12.4218278 L9.74992,14.8932722 L11.25232,14.8932722 L11.25232,22.3478833 L13.68592,22.3478833 Z" id="Fill-4" fill="#000000"></path>
                </g>
                <path d="M16,27.8722222 C8.66565852,27.8722222 2.72,21.8852744 2.72,14.5 C2.72,7.1147256 8.66565852,1.12777778 16,1.12777778 C23.3343415,1.12777778 29.28,7.1147256 29.28,14.5 C29.28,21.8852744 23.3343415,27.8722222 16,27.8722222 Z M16,26.9055556 C22.8041481,26.9055556 28.32,21.3513991 28.32,14.5 C28.32,7.64860085 22.8041481,2.09444444 16,2.09444444 C9.19585188,2.09444444 3.68,7.64860085 3.68,14.5 C3.68,21.3513991 9.19585188,26.9055556 16,26.9055556 Z" id="Oval-2" fill="#FFFFFF" fill-rule="nonzero"></path>
            </g>
        </g>
    </g>
</svg>