<?xml version="1.0" encoding="UTF-8" standalone="no"?>
<svg width="165px" height="60px" viewBox="0 0 165 60" version="1.1" xmlns="http://www.w3.org/2000/svg" xmlns:xlink="http://www.w3.org/1999/xlink">
    <!-- Generator: Sketch 50.2 (55047) - http://www.bohemiancoding.com/sketch -->
    <title>Logo</title>
    <desc>Created with Sketch.</desc>
    <defs>
        <polygon id="path-1" points="0 59.4598519 164.801353 59.4598519 164.801353 0.626913656 0 0.626913656"></polygon>
    </defs>
    <g id="Symbols" stroke="none" stroke-width="1" fill="none" fill-rule="evenodd">
        <g id="menu" transform="translate(-22.000000, -14.000000)">
            <g id="Logo" transform="translate(22.000000, 14.000000)">
                <g id="Page-1">
                    <polygon id="Fill-1" fill="#DF2444" points="29.3427835 0.849426456 0 30.1543172 17.5769178 47.7082784 17.5769178 23.986222 44.9760224 23.986222 37.7647477 31.1876985 25.7816284 31.1876985 25.7816284 37.5637577 35.5838303 37.5637577 28.8289818 44.3100314 25.7816284 44.3100314 25.7816284 55.9025736 29.3427835 59.4598519 58.685567 30.1543172"></polygon>
                    <g id="Group-37">
                        <path d="M141.758941,15.5099731 L130.710412,30.0866851 L130.710412,37.2780956 L124.921824,37.2780956 L124.921824,30.0543699 L113.567882,15.5099731 L120.970235,15.5099731 L125.423294,21.5619519 C125.570824,21.7571354 125.766235,22.012425 126.007588,22.3265281 C126.248294,22.6412775 126.498706,22.9721845 126.758824,23.3192491 C127.018294,23.6663137 127.259647,23.9920502 127.482235,24.2951662 C127.704824,24.5989285 127.862059,24.8270734 127.955235,24.9783082 C128.140941,24.6751922 128.409471,24.2628511 128.762765,23.7419311 C129.114765,23.2216574 129.625294,22.484226 130.293059,21.5289905 L134.523529,15.5099731 L141.758941,15.5099731 Z" id="Fill-2" fill="#28454B"></path>
                        <polygon id="Fill-4" fill="#28454B" points="83.0971706 25.9821456 74.8659353 25.9821456 74.8659353 21.1717144 87.9125824 21.1717144 93.5814647 15.5101024 68.4173471 15.5101024 68.4173471 37.2782249 74.8659353 37.2782249 74.8659353 31.2857059 77.7874059 31.2857059"></polygon>
                        <path d="M112.743076,33.0479149 C112.093429,32.2885092 111.573194,31.6919718 111.184312,31.2576564 C110.794135,30.8252798 110.441488,30.4672281 110.127018,30.1841475 C110.887312,30.0115847 111.569312,29.7129928 112.171724,29.2903108 C112.775429,28.8663362 113.285312,28.3518792 113.702665,27.7443547 C114.120665,27.1368301 114.440312,26.4543344 114.6629,25.6942824 C114.885488,24.9348767 114.996782,24.1321687 114.996782,23.2861584 C114.996782,21.724691 114.695253,20.4450116 114.092841,19.4471201 C113.489135,18.4492287 112.724312,17.6581541 111.796429,17.0713113 C110.869194,16.485761 109.839076,16.0792366 108.708018,15.851738 C107.575665,15.6235931 106.480841,15.5098438 105.4229,15.5098438 L97.4944882,15.5098438 L91.8262529,21.1714558 L105.896547,21.1714558 C106.898841,21.1714558 107.6779,21.3827968 108.234371,21.8054788 C108.791488,22.2288071 109.069076,22.8634764 109.069076,23.7094867 C109.069076,24.4695387 108.763665,25.0654298 108.1509,25.4984527 C107.538782,25.9334144 106.7869,26.1499258 105.896547,26.1499258 L90.7100765,26.1499258 L90.7100765,37.2779664 L96.4708412,37.2779664 L96.4708412,31.5187627 L104.310606,31.5187627 L108.456959,37.2779664 L116.166018,37.2779664 L112.743076,33.0479149 Z" id="Fill-6" fill="#28454B"></path>
                        <path d="M143.384806,34.1057186 C144.376747,35.0926229 145.559571,35.8681862 146.932629,36.4324085 C148.305041,36.9959845 149.799747,37.2777725 151.413512,37.2777725 L152.981982,37.2777725 L158.584218,31.6814371 L151.413512,31.6814371 C150.633806,31.6814371 149.910394,31.5567006 149.242629,31.3072278 C148.574865,31.0577549 147.994453,30.7048736 147.502688,30.2492302 C147.011571,29.7942331 146.6311,29.2461683 146.362571,28.6063286 C146.093394,27.9671352 145.958806,27.2562022 145.958806,26.4754685 C145.958806,25.6940885 146.097276,24.9786314 146.376159,24.3278045 C146.654394,23.6769777 147.035512,23.1185721 147.517571,22.6519415 C147.999629,22.1859572 148.574865,21.8220888 149.242629,21.5622751 C149.910394,21.3011688 150.633806,21.1712619 151.413512,21.1712619 L158.480688,21.1712619 L164.148924,15.5102963 L151.413512,15.5102963 C149.799747,15.5102963 148.305041,15.7649395 146.932629,16.2742261 C145.559571,16.784159 144.376747,17.5112495 143.384806,18.4548515 C142.392218,19.3984535 141.613159,20.5262518 141.046982,21.8388927 C140.480806,23.1515335 140.198041,24.5992517 140.198041,26.1826934 C140.198041,27.7661351 140.480806,29.2358275 141.046982,30.5917706 C141.613159,31.9470675 142.392218,33.1188144 143.384806,34.1057186" id="Fill-8" fill="#28454B"></path>
                        <path d="M69.6662353,45.690566 L69.6824118,45.690566 C69.7762353,45.5580739 69.9088824,45.393913 70.0188824,45.2614209 L71.1272941,43.9584746 L71.9548824,43.9584746 L70.4951176,45.5115401 L72.1587059,47.7341752 L71.3233529,47.7341752 L70.0188824,45.9245275 L69.6662353,46.3148944 L69.6662353,47.7341752 L68.9874706,47.7341752 L68.9874706,42.196007 L69.6662353,42.196007 L69.6662353,45.690566 Z" id="Fill-10" fill="#28454B"></path>
                        <path d="M73.2667941,45.8540159 C73.2667941,46.6806371 73.7430294,47.3049656 74.4140294,47.3049656 C75.0714412,47.3049656 75.5632059,46.6890391 75.5632059,45.839151 C75.5632059,45.1986649 75.2435588,44.387555 74.4308529,44.387555 C73.6181471,44.387555 73.2667941,45.1366199 73.2667941,45.8540159 M76.2659118,45.8152378 C76.2659118,47.211898 75.2979118,47.8200688 74.3842647,47.8200688 C73.3606176,47.8200688 72.5718529,47.071004 72.5718529,45.8772828 C72.5718529,44.613761 73.3994412,43.873098 74.4457353,43.873098 C75.5315,43.873098 76.2659118,44.6602948 76.2659118,45.8152378" id="Fill-12" fill="#28454B"></path>
                        <path d="M77.3273471,44.9805378 C77.3273471,44.5901709 77.3195824,44.2702511 77.2956412,43.9587331 L77.8974059,43.9587331 L77.9291118,44.566904 L77.9517588,44.566904 C78.1627,44.2088523 78.5140529,43.8727749 79.1397588,43.8727749 C79.6541706,43.8727749 80.0443471,44.1849391 80.2087,44.6295954 L80.2255235,44.6295954 C80.3413471,44.4189007 80.4908176,44.2553861 80.6461118,44.137759 C80.8725824,43.9664888 81.1223471,43.8727749 81.4814647,43.8727749 C81.9816412,43.8727749 82.7238176,44.2004504 82.7238176,45.5111523 L82.7238176,47.7344337 L82.0528176,47.7344337 L82.0528176,45.5971106 C82.0528176,44.8713126 81.7862294,44.434412 81.2323471,44.434412 C80.8421706,44.434412 80.5374059,44.7233093 80.4196412,45.0587404 C80.3879353,45.1524543 80.3652882,45.2771907 80.3652882,45.4019272 L80.3652882,47.7344337 L79.6929941,47.7344337 L79.6929941,45.4723741 C79.6929941,44.8713126 79.4277,44.434412 78.9048765,44.434412 C78.4745824,44.434412 78.1627,44.778245 78.0539941,45.1214318 C78.0145235,45.222255 77.9983471,45.3398821 77.9983471,45.4562166 L77.9983471,47.7344337 L77.3273471,47.7344337 L77.3273471,44.9805378 Z" id="Fill-14" fill="#28454B"></path>
                        <path d="M84.7141706,46.1973966 C84.7141706,46.2988661 84.7303471,46.39258 84.7458765,46.4785383 C84.8707588,46.9542171 85.2855235,47.2818926 85.7772882,47.2818926 C86.5039353,47.2818926 86.9245235,46.6892329 86.9245235,45.8231873 C86.9245235,45.0663668 86.5265824,44.4187714 85.7999353,44.4187714 C85.3321118,44.4187714 84.8947,44.7548488 84.7620529,45.2686595 C84.7381118,45.3546178 84.7141706,45.4567336 84.7141706,45.5498012 L84.7141706,46.1973966 Z M84.0354059,45.1911032 C84.0354059,44.7076687 84.0205235,44.3179482 84.0037,43.9586039 L84.6203471,43.9586039 L84.6520529,44.6061992 L84.6675824,44.6061992 C84.9490529,44.1460317 85.3942294,43.8726456 86.0108765,43.8726456 C86.9245235,43.8726456 87.6123471,44.6456237 87.6123471,45.7921647 C87.6123471,47.1494005 86.7841118,47.8202627 85.8944059,47.8202627 C85.3942294,47.8202627 84.9568176,47.6018124 84.7303471,47.2276031 L84.7141706,47.2276031 L84.7141706,49.278968 L84.0354059,49.278968 L84.0354059,45.1911032 Z" id="Fill-16" fill="#28454B"></path>
                        <mask id="mask-2" fill="white">
                            <use xlink:href="#path-1"></use>
                        </mask>
                        <g id="Clip-19"></g>
                        <polygon id="Fill-18" fill="#28454B" mask="url(#mask-2)" points="88.6735882 47.7339813 89.3607647 47.7339813 89.3607647 42.1958132 88.6735882 42.1958132"></polygon>
                        <path d="M93.1095,45.479742 C93.1172647,45.0428413 92.9289706,44.3642235 92.1563824,44.3642235 C91.4614412,44.3642235 91.1566765,45.0040632 91.1010294,45.479742 L93.1095,45.479742 Z M91.0939118,45.9715784 C91.1100882,46.8996691 91.7027941,47.281634 92.3906176,47.281634 C92.8817353,47.281634 93.1787353,47.1956758 93.4369118,47.0864506 L93.5540294,47.578287 C93.3113824,47.6875122 92.8985588,47.8122486 92.2967941,47.8122486 C91.1327353,47.8122486 90.4377941,47.0476724 90.4377941,45.908887 C90.4377941,44.7694553 91.1100882,43.8730334 92.2107353,43.8730334 C93.4446765,43.8730334 93.7727353,44.9568831 93.7727353,45.6516585 C93.7727353,45.7919062 93.7565588,45.9011314 93.7487941,45.9715784 L91.0939118,45.9715784 Z" id="Fill-20" fill="#28454B" mask="url(#mask-2)"></path>
                        <path d="M95.4980529,45.690566 L95.5142294,45.690566 C95.6080529,45.5580739 95.7407,45.393913 95.8507,45.2614209 L96.9591118,43.9584746 L97.7867,43.9584746 L96.3269353,45.5115401 L97.9905235,47.7341752 L97.1551706,47.7341752 L95.8507,45.9245275 L95.4980529,46.3148944 L95.4980529,47.7341752 L94.8192882,47.7341752 L94.8192882,42.196007 L95.4980529,42.196007 L95.4980529,45.690566 Z" id="Fill-21" fill="#28454B" mask="url(#mask-2)"></path>
                        <path d="M98.5829706,47.0324197 C98.7848529,47.1649118 99.1452647,47.3051595 99.4888529,47.3051595 C99.9883824,47.3051595 100.221971,47.0556866 100.221971,46.7435224 C100.221971,46.4158469 100.027206,46.236821 99.5192647,46.0493932 C98.8405,45.8070297 98.5195588,45.4328204 98.5195588,44.9804085 C98.5195588,44.3722376 99.0126176,43.8726456 99.8240294,43.8726456 C100.207088,43.8726456 100.542912,43.9818708 100.753853,44.1072535 L100.582382,44.6061992 C100.432912,44.5131316 100.1605,44.3877489 99.8091471,44.3877489 C99.4034412,44.3877489 99.1756765,44.6223568 99.1756765,44.9028522 C99.1756765,45.2143701 99.4034412,45.3546178 99.8945588,45.5420456 C100.550676,45.7921647 100.887147,46.1198402 100.887147,46.680831 C100.887147,47.3439376 100.371441,47.8125071 99.4726765,47.8125071 C99.0592059,47.8125071 98.6767941,47.7110376 98.4108529,47.5552786 L98.5829706,47.0324197 Z" id="Fill-22" fill="#28454B" mask="url(#mask-2)"></path>
                        <path d="M102.385671,45.8540159 C102.385671,46.6806371 102.861906,47.3049656 103.532906,47.3049656 C104.190318,47.3049656 104.682082,46.6890391 104.682082,45.839151 C104.682082,45.1986649 104.362435,44.387555 103.549729,44.387555 C102.737024,44.387555 102.385671,45.1366199 102.385671,45.8540159 M105.384788,45.8152378 C105.384788,47.211898 104.416788,47.8200688 103.503141,47.8200688 C102.479494,47.8200688 101.690729,47.071004 101.690729,45.8772828 C101.690729,44.613761 102.518318,43.873098 103.564612,43.873098 C104.650376,43.873098 105.384788,44.6602948 105.384788,45.8152378" id="Fill-23" fill="#28454B" mask="url(#mask-2)"></path>
                        <path d="M106.664865,43.9586685 L107.165041,45.8775413 C107.273747,46.2989307 107.376629,46.6892976 107.445865,47.0790181 L107.469806,47.0790181 C107.555865,46.6964069 107.680747,46.2911751 107.804982,45.885297 L108.422924,43.9586685 L109.0001,43.9586685 L109.585688,45.8465188 C109.726747,46.2989307 109.835453,46.6964069 109.921512,47.0790181 L109.945453,47.0790181 C110.007571,46.6964069 110.108512,46.2989307 110.234041,45.8542744 L110.773688,43.9586685 L111.451806,43.9586685 L110.234041,47.7343691 L109.609629,47.7343691 L109.031806,45.9324771 C108.899159,45.5110877 108.789159,45.1362321 108.695982,44.6922221 L108.680453,44.6922221 C108.585982,45.144634 108.469512,45.5343546 108.336865,45.9395864 L107.727982,47.7343691 L107.102276,47.7343691 L105.962159,43.9586685 L106.664865,43.9586685 Z" id="Fill-24" fill="#28454B" mask="url(#mask-2)"></path>
                        <path d="M114.654553,45.479742 C114.662318,45.0428413 114.474024,44.3642235 113.701435,44.3642235 C113.006494,44.3642235 112.701729,45.0040632 112.646082,45.479742 L114.654553,45.479742 Z M112.638965,45.9715784 C112.655141,46.8996691 113.247847,47.281634 113.935671,47.281634 C114.426788,47.281634 114.723788,47.1956758 114.981965,47.0864506 L115.099082,47.578287 C114.856435,47.6875122 114.443612,47.8122486 113.841847,47.8122486 C112.677788,47.8122486 111.982847,47.0476724 111.982847,45.908887 C111.982847,44.7694553 112.655141,43.8730334 113.755788,43.8730334 C114.989729,43.8730334 115.317788,44.9568831 115.317788,45.6516585 C115.317788,45.7919062 115.301612,45.9011314 115.293847,45.9715784 L112.638965,45.9715784 Z" id="Fill-25" fill="#28454B" mask="url(#mask-2)"></path>
                        <path d="M118.893241,46.2207281 C118.893241,46.3066864 118.909418,46.3926446 118.924947,46.4708472 C119.057594,46.9465261 119.455535,47.2742016 119.956359,47.2742016 C120.673947,47.2742016 121.103594,46.6892976 121.103594,45.8232519 C121.103594,45.0664314 120.713418,44.4188361 119.979006,44.4188361 C119.511182,44.4188361 119.073771,44.7387559 118.932712,45.2616148 C118.917182,45.3398175 118.893241,45.4328851 118.893241,45.5421102 L118.893241,46.2207281 Z M118.182771,47.7343691 C118.199594,47.4764943 118.214476,47.0951757 118.214476,46.7590983 L118.214476,42.1955546 L118.893241,42.1955546 L118.893241,44.5668394 L118.909418,44.5668394 C119.150771,44.1460963 119.588182,43.8727102 120.199006,43.8727102 C121.1353,43.8727102 121.798535,44.6527976 121.791418,45.799985 C121.791418,47.1494651 120.940535,47.8203274 120.096124,47.8203274 C119.550653,47.8203274 119.113241,47.6089864 118.831124,47.1100407 L118.808476,47.1100407 L118.776771,47.7343691 L118.182771,47.7343691 Z" id="Fill-26" fill="#28454B" mask="url(#mask-2)"></path>
                        <path d="M126.016,46.7048088 C126.016,47.0951757 126.023765,47.4377161 126.046412,47.7343691 L125.436882,47.7343691 L125.398059,47.1184426 L125.382529,47.1184426 C125.203294,47.4222049 124.805353,47.8203274 124.133059,47.8203274 C123.540353,47.8203274 122.828588,47.4926519 122.828588,46.1664387 L122.828588,43.9586685 L123.516412,43.9586685 L123.516412,46.0488116 C123.516412,46.7668539 123.735118,47.2509347 124.360176,47.2509347 C124.820235,47.2509347 125.141176,46.9310148 125.265412,46.6266062 C125.304235,46.5251367 125.328824,46.4004002 125.328824,46.2756638 L125.328824,43.9586685 L126.016,43.9586685 L126.016,46.7048088 Z" id="Fill-27" fill="#28454B" mask="url(#mask-2)"></path>
                        <path d="M129.927406,45.4955764 C129.927406,45.4096182 129.919641,45.2932837 129.8957,45.2073254 C129.794759,44.7697784 129.419465,44.4110804 128.905053,44.4110804 C128.193288,44.4110804 127.7727,45.0354089 127.7727,45.8697857 C127.7727,46.6343618 128.1467,47.2657996 128.888876,47.2657996 C129.349582,47.2657996 129.772112,46.9620373 129.8957,46.4475803 C129.919641,46.3532202 129.927406,46.2601526 129.927406,46.1509274 L129.927406,45.4955764 Z M130.614582,42.1962009 L130.614582,46.7590983 C130.614582,47.0951757 130.622347,47.4764943 130.646288,47.7343691 L130.028347,47.7343691 L129.997935,47.0790181 L129.981759,47.0790181 C129.772112,47.5004075 129.310759,47.8203274 128.694112,47.8203274 C127.780465,47.8203274 127.077759,47.0473493 127.077759,45.9014545 C127.0687,44.6456883 127.8497,43.8727102 128.772406,43.8727102 C129.349582,43.8727102 129.740406,44.1460963 129.912524,44.4505049 L129.927406,44.4505049 L129.927406,42.1962009 L130.614582,42.1962009 Z" id="Fill-28" fill="#28454B" mask="url(#mask-2)"></path>
                        <path d="M132.371541,45.8540159 C132.371541,46.6806371 132.847776,47.3049656 133.518776,47.3049656 C134.176188,47.3049656 134.667953,46.6890391 134.667953,45.839151 C134.667953,45.1986649 134.348306,44.387555 133.5356,44.387555 C132.722894,44.387555 132.371541,45.1366199 132.371541,45.8540159 M135.370659,45.8152378 C135.370659,47.211898 134.402659,47.8200688 133.489012,47.8200688 C132.465365,47.8200688 131.6766,47.071004 131.6766,45.8772828 C131.6766,44.613761 132.504188,43.873098 133.550482,43.873098 C134.636247,43.873098 135.370659,44.6602948 135.370659,45.8152378" id="Fill-29" fill="#28454B" mask="url(#mask-2)"></path>
                        <path d="M136.650735,43.9586685 L137.150912,45.8775413 C137.259618,46.2989307 137.3625,46.6892976 137.431735,47.0790181 L137.455676,47.0790181 C137.541735,46.6964069 137.666618,46.2911751 137.790853,45.885297 L138.408794,43.9586685 L138.985971,43.9586685 L139.571559,45.8465188 C139.712618,46.2989307 139.821324,46.6964069 139.907382,47.0790181 L139.931324,47.0790181 C139.993441,46.6964069 140.094382,46.2989307 140.219912,45.8542744 L140.759559,43.9586685 L141.437676,43.9586685 L140.219912,47.7343691 L139.5955,47.7343691 L139.017676,45.9324771 C138.885029,45.5110877 138.775029,45.1362321 138.681853,44.6922221 L138.666324,44.6922221 C138.571853,45.144634 138.455382,45.5343546 138.322735,45.9395864 L137.713853,47.7343691 L137.088147,47.7343691 L135.948029,43.9586685 L136.650735,43.9586685 Z" id="Fill-30" fill="#28454B" mask="url(#mask-2)"></path>
                        <path d="M142.320071,44.9805378 C142.320071,44.5901709 142.312306,44.2702511 142.288365,43.9587331 L142.897894,43.9587331 L142.936718,44.5830616 L142.952247,44.5830616 C143.140541,44.2237173 143.577306,43.8727749 144.201718,43.8727749 C144.725188,43.8727749 145.537894,44.1849391 145.537894,45.4794835 L145.537894,47.7344337 L144.850071,47.7344337 L144.850071,45.5583324 C144.850071,44.9495152 144.624247,44.4421676 143.975894,44.4421676 C143.522953,44.4421676 143.170306,44.7620874 143.054482,45.1446987 C143.022776,45.2306569 143.007247,45.3469914 143.007247,45.4639722 L143.007247,47.7344337 L142.320071,47.7344337 L142.320071,44.9805378 Z" id="Fill-31" fill="#28454B" mask="url(#mask-2)"></path>
                        <path d="M146.849353,47.7346276 L147.536529,47.7346276 L147.536529,43.958927 L146.849353,43.958927 L146.849353,47.7346276 Z M147.614176,42.8976979 C147.623235,43.1316595 147.451118,43.3190873 147.176765,43.3190873 C146.935412,43.3190873 146.763294,43.1316595 146.763294,42.8976979 C146.763294,42.6559807 146.943176,42.4685529 147.192941,42.4685529 C147.451118,42.4685529 147.614176,42.6559807 147.614176,42.8976979 Z" id="Fill-32" fill="#28454B" mask="url(#mask-2)"></path>
                        <path d="M151.565959,47.5941214 C151.386724,47.6878353 150.988135,47.8125717 150.480194,47.8125717 C149.340724,47.8125717 148.598547,47.04024 148.598547,45.885297 C148.598547,44.7232446 149.395076,43.8804659 150.628371,43.8804659 C151.035371,43.8804659 151.393841,43.9819354 151.580841,44.0756493 L151.425547,44.6062638 C151.261194,44.51255 151.003665,44.427238 150.628371,44.427238 C149.761312,44.427238 149.293488,45.0664314 149.293488,45.8542744 C149.293488,46.7280757 149.855782,47.2657996 150.605724,47.2657996 C150.9959,47.2657996 151.254076,47.1649764 151.448194,47.0790181 L151.565959,47.5941214 Z" id="Fill-33" fill="#28454B" mask="url(#mask-2)"></path>
                        <path d="M153.494453,42.8743664 L153.494453,43.9588624 L154.478629,43.9588624 L154.478629,44.481075 L153.494453,44.481075 L153.494453,46.5175749 C153.494453,46.9848518 153.6271,47.2504822 154.010159,47.2504822 C154.189394,47.2504822 154.322041,47.2272153 154.4081,47.2039484 L154.439806,47.7184054 C154.307159,47.7733412 154.096218,47.8127656 153.830924,47.8127656 C153.509335,47.8127656 153.251806,47.7106498 153.088747,47.523222 C152.892688,47.3209292 152.822159,46.9848518 152.822159,46.5408418 L152.822159,44.481075 L152.237218,44.481075 L152.237218,43.9588624 L152.822159,43.9588624 L152.822159,43.0533923 L153.494453,42.8743664 Z" id="Fill-34" fill="#28454B" mask="url(#mask-2)"></path>
                        <path d="M155.7908,43.9586685 L156.289682,45.8775413 C156.399682,46.2989307 156.501271,46.6892976 156.5718,47.0790181 L156.594447,47.0790181 C156.680506,46.6964069 156.805388,46.2911751 156.930918,45.885297 L157.547565,43.9586685 L158.124741,43.9586685 L158.711624,45.8465188 C158.851388,46.2989307 158.961388,46.6964069 159.047447,47.0790181 L159.070094,47.0790181 C159.133506,46.6964069 159.234447,46.2989307 159.359976,45.8542744 L159.898329,43.9586685 L160.577741,43.9586685 L159.359976,47.7343691 L158.734271,47.7343691 L158.156447,45.9324771 C158.0238,45.5110877 157.915094,45.1362321 157.820624,44.6922221 L157.805094,44.6922221 C157.711918,45.144634 157.594153,45.5343546 157.461506,45.9395864 L156.852624,47.7343691 L156.228212,47.7343691 L155.0868,43.9586685 L155.7908,43.9586685 Z" id="Fill-35" fill="#28454B" mask="url(#mask-2)"></path>
                        <path d="M161.802624,45.8540159 C161.802624,46.6806371 162.278859,47.3049656 162.949859,47.3049656 C163.607271,47.3049656 164.099035,46.6890391 164.099035,45.839151 C164.099035,45.1986649 163.779388,44.387555 162.966682,44.387555 C162.153976,44.387555 161.802624,45.1366199 161.802624,45.8540159 M164.801741,45.8152378 C164.801741,47.211898 163.833741,47.8200688 162.920094,47.8200688 C161.896447,47.8200688 161.107682,47.071004 161.107682,45.8772828 C161.107682,44.613761 161.935271,43.873098 162.981565,43.873098 C164.067329,43.873098 164.801741,44.6602948 164.801741,45.8152378" id="Fill-36" fill="#28454B" mask="url(#mask-2)"></path>
                    </g>
                </g>
            </g>
        </g>
    </g>
</svg>