<?xml version="1.0" encoding="UTF-8" standalone="no"?>
<svg width="416px" height="149px" viewBox="0 0 416 149" version="1.1" xmlns="http://www.w3.org/2000/svg" xmlns:xlink="http://www.w3.org/1999/xlink">
    <!-- Generator: Sketch 50.2 (55047) - http://www.bohemiancoding.com/sketch -->
    <title>Logo</title>
    <desc>Created with Sketch.</desc>
    <defs>
        <polygon id="path-1" points="0 150.631625 415.499169 150.631625 415.499169 1.58818126 0 1.58818126"></polygon>
    </defs>
    <g id="Page-1" stroke="none" stroke-width="1" fill="none" fill-rule="evenodd">
        <g id="O_nas" transform="translate(-631.000000, -278.000000)">
            <g id="Logo" transform="translate(631.000000, 276.000000)">
                <g id="Page-1">
                    <polygon id="Fill-1" fill="#DF2444" points="73.9793814 2.15188035 0 76.390937 44.3151383 120.860972 44.3151383 60.7650958 113.394093 60.7650958 95.2129397 79.0088363 65.000954 79.0088363 65.000954 95.1615196 89.7143843 95.1615196 72.6839784 112.25208 65.000954 112.25208 65.000954 141.619853 73.9793814 150.631625 147.958763 76.390937"></polygon>
                    <g id="Group-37">
                        <path d="M357.404361,39.2919319 L329.548675,76.2196021 L329.548675,94.4378422 L314.954416,94.4378422 L314.954416,76.1377371 L286.328722,39.2919319 L304.991624,39.2919319 L316.218729,54.6236116 C316.590682,55.1180763 317.083357,55.7648099 317.691859,56.5605378 C318.298729,57.357903 318.930071,58.1962008 319.585882,59.075431 C320.240063,59.9546613 320.848565,60.7798606 321.409757,61.5477544 C321.970949,62.3172856 322.367373,62.8952526 322.60229,63.2783808 C323.070494,62.510487 323.747514,61.4658894 324.638243,60.1462254 C325.52571,58.8281987 326.812863,56.9600391 328.496439,54.5401093 L339.162353,39.2919319 L357.404361,39.2919319 Z" id="Fill-2" fill="#28454B"></path>
                        <polygon id="Fill-4" fill="#28454B" points="209.505594 65.8214356 188.752904 65.8214356 188.752904 53.6350097 221.646268 53.6350097 235.938723 39.2922593 172.494645 39.2922593 172.494645 94.4381697 188.752904 94.4381697 188.752904 79.2571216 196.118551 79.2571216"></polygon>
                        <path d="M284.249211,83.7213845 C282.611313,81.7975567 281.299689,80.2863286 280.319235,79.1860628 C279.335517,78.0907089 278.446419,77.1836445 277.653572,76.466507 C279.570435,76.0293479 281.289901,75.2729151 282.808709,74.2021208 C284.33078,73.1280518 285.616301,71.8247608 286.668536,70.2856985 C287.722403,68.7466363 288.528301,67.0176472 289.089493,65.0921821 C289.650685,63.1683542 289.931282,61.1348273 289.931282,58.9916013 C289.931282,55.0358838 289.171062,51.7940293 287.652254,49.2660377 C286.130184,46.738046 284.201901,44.7339905 281.862513,43.2473219 C279.524756,41.7639278 276.927611,40.7340659 274.075972,40.1577363 C271.22107,39.5797693 268.460787,39.2916044 265.793493,39.2916044 L245.804285,39.2916044 L231.513462,53.6343548 L266.987658,53.6343548 C269.514654,53.6343548 271.478827,54.169752 272.881807,55.2405463 C274.286419,56.312978 274.986278,57.9208069 274.986278,60.0640329 C274.986278,61.989498 274.21627,63.4990889 272.67136,64.5960801 C271.128082,65.6979832 269.232427,66.2464787 266.987658,66.2464787 L228.699344,66.2464787 L228.699344,94.4375148 L243.223454,94.4375148 L243.223454,79.8475321 L262.989164,79.8475321 L273.442999,94.4375148 L292.879172,94.4375148 L284.249211,83.7213845 Z" id="Fill-6" fill="#28454B"></path>
                        <path d="M361.503511,86.4011539 C364.004405,88.9013114 366.986554,90.8660717 370.448326,92.2954348 C373.908467,93.7231607 377.676938,94.4370236 381.745581,94.4370236 L385.700028,94.4370236 L399.824452,80.2596406 L381.745581,80.2596406 C379.779777,80.2596406 377.955903,79.9436416 376.272326,79.3116437 C374.58875,78.6796458 373.125409,77.7856799 371.885565,76.6313832 C370.647354,75.4787238 369.688107,74.0902931 369.011087,72.4693659 C368.332436,70.8500759 367.993111,69.0490456 367.993111,67.0711869 C367.993111,65.0916909 368.342224,63.2791995 369.045346,61.6304381 C369.746836,59.9816767 370.707715,58.5670493 371.923087,57.3849185 C373.13846,56.204425 374.58875,55.282625 376.272326,54.6244302 C377.955903,53.9629609 379.779777,53.6338636 381.745581,53.6338636 L399.563432,53.6338636 L413.854256,39.2927505 L381.745581,39.2927505 C377.676938,39.2927505 373.908467,39.9378468 370.448326,41.2280394 C366.986554,42.5198694 364.004405,44.3618322 361.503511,46.7522905 C359.000985,49.1427489 357.036813,51.9998379 355.609362,55.3251948 C354.181911,58.6505516 353.469001,62.3181042 353.469001,66.3294899 C353.469001,70.3408755 354.181911,74.0640963 355.609362,77.4991523 C357.036813,80.932571 359.000985,83.9009964 361.503511,86.4011539" id="Fill-8" fill="#28454B"></path>
                        <path d="M175.643357,115.749434 L175.684141,115.749434 C175.92069,115.413787 176.255122,114.997913 176.532455,114.662266 L179.326996,111.361469 L181.413522,111.361469 L177.733145,115.295902 L181.927404,120.926577 L179.821302,120.926577 L176.532455,116.342136 L175.643357,117.331066 L175.643357,120.926577 L173.932047,120.926577 L173.932047,106.896551 L175.643357,106.896551 L175.643357,115.749434 Z" id="Fill-10" fill="#28454B"></path>
                        <path d="M184.721129,116.163507 C184.721129,118.257614 185.92182,119.839246 187.613553,119.839246 C189.271027,119.839246 190.510871,118.278899 190.510871,116.125849 C190.510871,114.503285 189.704973,112.448473 187.655969,112.448473 C185.606965,112.448473 184.721129,114.346104 184.721129,116.163507 M192.282541,116.065269 C192.282541,119.603475 189.842008,121.144174 187.53851,121.144174 C184.957678,121.144174 182.969035,119.246543 182.969035,116.22245 C182.969035,113.021528 185.055561,111.145182 187.69349,111.145182 C190.430933,111.145182 192.282541,113.139413 192.282541,116.065269" id="Fill-12" fill="#28454B"></path>
                        <path d="M194.958645,113.950696 C194.958645,112.961766 194.939068,112.151303 194.878707,111.362124 L196.395884,111.362124 L196.475821,112.902823 L196.532919,112.902823 C197.064747,111.995759 197.950582,111.144363 199.528119,111.144363 C200.82506,111.144363 201.808778,111.935179 202.223147,113.061642 L202.265562,113.061642 C202.557578,112.527882 202.934425,112.113645 203.325955,111.815656 C203.896935,111.381772 204.526645,111.144363 205.432056,111.144363 C206.693107,111.144363 208.564292,111.974474 208.564292,115.294919 L208.564292,120.927232 L206.872558,120.927232 L206.872558,115.51268 C206.872558,113.673992 206.200433,112.567177 204.803978,112.567177 C203.82026,112.567177 203.051884,113.29905 202.754974,114.148809 C202.675037,114.386218 202.617939,114.702216 202.617939,115.018215 L202.617939,120.927232 L200.922943,120.927232 L200.922943,115.196681 C200.922943,113.673992 200.25408,112.567177 198.935931,112.567177 C197.851068,112.567177 197.064747,113.438221 196.790676,114.307627 C196.691162,114.563046 196.650378,114.861035 196.650378,115.155749 L196.650378,120.927232 L194.958645,120.927232 L194.958645,113.950696 Z" id="Fill-14" fill="#28454B"></path>
                        <path d="M213.582394,117.033405 C213.582394,117.290461 213.623178,117.527869 213.662331,117.74563 C213.977186,118.950683 215.022896,119.780794 216.262739,119.780794 C218.09477,119.780794 219.155162,118.27939 219.155162,116.085408 C219.155162,114.168129 218.151868,112.527554 216.319837,112.527554 C215.140355,112.527554 214.037547,113.37895 213.703115,114.680604 C213.642755,114.898365 213.582394,115.157059 213.582394,115.39283 L213.582394,117.033405 Z M211.871084,114.484128 C211.871084,113.259427 211.833562,112.272135 211.791147,111.361796 L213.345845,111.361796 L213.425782,113.002371 L213.464935,113.002371 C214.174582,111.836614 215.296966,111.144036 216.851664,111.144036 C219.155162,111.144036 220.889311,113.102247 220.889311,116.006817 C220.889311,119.445148 218.801155,121.144666 216.558017,121.144666 C215.296966,121.144666 214.194158,120.591258 213.623178,119.643261 L213.582394,119.643261 L213.582394,124.840052 L211.871084,124.840052 L211.871084,114.484128 Z" id="Fill-16" fill="#28454B"></path>
                        <mask id="mask-2" fill="white">
                            <use xlink:href="#path-1"></use>
                        </mask>
                        <g id="Clip-19"></g>
                        <polygon id="Fill-18" fill="#28454B" mask="url(#mask-2)" points="223.564925 120.926086 225.297443 120.926086 225.297443 106.89606 223.564925 106.89606"></polygon>
                        <path d="M234.7488,115.215346 C234.768376,114.108531 234.293647,112.389366 232.345788,112.389366 C230.593694,112.389366 229.825318,114.010293 229.68502,115.215346 L234.7488,115.215346 Z M229.667075,116.461332 C229.707859,118.812495 231.202196,119.78014 232.936345,119.78014 C234.174557,119.78014 234.923357,119.562379 235.574275,119.285675 L235.869553,120.53166 C235.257788,120.808364 234.216973,121.124363 232.699796,121.124363 C229.764957,121.124363 228.012863,119.187437 228.012863,116.302514 C228.012863,113.415953 229.707859,111.145018 232.482824,111.145018 C235.593851,111.145018 236.420957,113.89077 236.420957,115.650868 C236.420957,116.006162 236.380173,116.282866 236.360596,116.461332 L229.667075,116.461332 Z" id="Fill-20" fill="#28454B" mask="url(#mask-2)"></path>
                        <path d="M240.770849,115.749434 L240.811633,115.749434 C241.048182,115.413787 241.382613,114.997913 241.659947,114.662266 L244.454488,111.361469 L246.541013,111.361469 L242.860637,115.295902 L247.054896,120.926577 L244.948794,120.926577 L241.659947,116.342136 L240.770849,117.331066 L240.770849,120.926577 L239.059539,120.926577 L239.059539,106.896551 L240.770849,106.896551 L240.770849,115.749434 Z" id="Fill-21" fill="#28454B" mask="url(#mask-2)"></path>
                        <path d="M248.54858,119.148797 C249.057569,119.484443 249.966243,119.839737 250.832502,119.839737 C252.091922,119.839737 252.680847,119.207739 252.680847,118.416923 C252.680847,117.586812 252.189804,117.13328 250.909176,116.658463 C249.197867,116.044475 248.388706,115.096478 248.388706,113.950368 C248.388706,112.409669 249.631812,111.144036 251.677553,111.144036 C252.643325,111.144036 253.490008,111.420739 254.021835,111.738376 L253.589522,113.002371 C253.212675,112.7666 252.525867,112.448964 251.640031,112.448964 C250.617161,112.448964 250.042918,113.043304 250.042918,113.753892 C250.042918,114.543071 250.617161,114.898365 251.855373,115.373182 C253.509584,116.006817 254.357898,116.836929 254.357898,118.258105 C254.357898,119.937975 253.057694,121.125018 250.791718,121.125018 C249.749271,121.125018 248.785129,120.867962 248.114635,120.473372 L248.54858,119.148797 Z" id="Fill-22" fill="#28454B" mask="url(#mask-2)"></path>
                        <path d="M258.135994,116.163507 C258.135994,118.257614 259.336684,119.839246 261.028417,119.839246 C262.685892,119.839246 263.925735,118.278899 263.925735,116.125849 C263.925735,114.503285 263.119837,112.448473 261.070833,112.448473 C259.021829,112.448473 258.135994,114.346104 258.135994,116.163507 M265.697405,116.065269 C265.697405,119.603475 263.256872,121.144174 260.953374,121.144174 C258.372543,121.144174 256.3839,119.246543 256.3839,116.22245 C256.3839,113.021528 258.470425,111.145182 261.108355,111.145182 C263.845798,111.145182 265.697405,113.139413 265.697405,116.065269" id="Fill-23" fill="#28454B" mask="url(#mask-2)"></path>
                        <path d="M268.92475,111.36196 L270.185801,116.223105 C270.459871,117.290624 270.71926,118.279554 270.893816,119.266846 L270.954177,119.266846 C271.17115,118.297564 271.486005,117.270977 271.799228,116.242752 L273.357189,111.36196 L274.812373,111.36196 L276.288765,116.144514 C276.644405,117.290624 276.918475,118.297564 277.135448,119.266846 L277.195809,119.266846 C277.35242,118.297564 277.606915,117.290624 277.923401,116.164162 L279.283965,111.36196 L280.993644,111.36196 L277.923401,120.927068 L276.349126,120.927068 L274.892311,116.362275 C274.557879,115.294755 274.280546,114.345121 274.045628,113.220296 L274.006475,113.220296 C273.768295,114.366406 273.474648,115.353698 273.140216,116.380286 L271.605095,120.927068 L270.027558,120.927068 L267.153079,111.36196 L268.92475,111.36196 Z" id="Fill-24" fill="#28454B" mask="url(#mask-2)"></path>
                        <path d="M289.068449,115.215346 C289.088025,114.108531 288.613296,112.389366 286.665437,112.389366 C284.913343,112.389366 284.144966,114.010293 284.004668,115.215346 L289.068449,115.215346 Z M283.986723,116.461332 C284.027507,118.812495 285.521845,119.78014 287.255994,119.78014 C288.494205,119.78014 289.243005,119.562379 289.893923,119.285675 L290.189202,120.53166 C289.577437,120.808364 288.536621,121.124363 287.019445,121.124363 C284.084605,121.124363 282.332511,119.187437 282.332511,116.302514 C282.332511,113.415953 284.027507,111.145018 286.802472,111.145018 C289.9135,111.145018 290.740605,113.89077 290.740605,115.650868 C290.740605,116.006162 290.699821,116.282866 290.680245,116.461332 L283.986723,116.461332 Z" id="Fill-25" fill="#28454B" mask="url(#mask-2)"></path>
                        <path d="M299.755081,117.092511 C299.755081,117.310272 299.795865,117.528033 299.835018,117.726146 C300.169449,118.931199 301.172744,119.761311 302.435426,119.761311 C304.244618,119.761311 305.327849,118.279554 305.327849,116.085571 C305.327849,114.168293 304.344132,112.527718 302.492524,112.527718 C301.313042,112.527718 300.210234,113.338182 299.854595,114.662758 C299.815442,114.860871 299.755081,115.096642 299.755081,115.373346 L299.755081,117.092511 Z M297.963834,120.927068 C298.006249,120.273786 298.043771,119.307778 298.043771,118.456382 L298.043771,106.895405 L299.755081,106.895405 L299.755081,112.90266 L299.795865,112.90266 C300.404367,111.836777 301.507175,111.144199 303.047191,111.144199 C305.407787,111.144199 307.079944,113.120421 307.061998,116.026629 C307.061998,119.445312 304.916744,121.144829 302.787802,121.144829 C301.412555,121.144829 300.309747,120.609432 299.598469,119.345436 L299.541371,119.345436 L299.461434,120.927068 L297.963834,120.927068 Z" id="Fill-26" fill="#28454B" mask="url(#mask-2)"></path>
                        <path d="M317.713067,118.318849 C317.713067,119.307778 317.732643,120.175548 317.789741,120.927068 L316.252988,120.927068 L316.155106,119.366721 L316.115953,119.366721 C315.664063,120.136252 314.660769,121.144829 312.965773,121.144829 C311.471435,121.144829 309.676925,120.314718 309.676925,116.954978 L309.676925,111.36196 L311.411075,111.36196 L311.411075,116.656989 C311.411075,118.47603 311.962478,119.702368 313.538384,119.702368 C314.69829,119.702368 315.507451,118.891904 315.820675,118.120736 C315.918557,117.86368 315.980549,117.547681 315.980549,117.231682 L315.980549,111.36196 L317.713067,111.36196 L317.713067,118.318849 Z" id="Fill-27" fill="#28454B" mask="url(#mask-2)"></path>
                        <path d="M327.574551,115.25546 C327.574551,115.037699 327.554974,114.742985 327.494613,114.525224 C327.240119,113.416772 326.293923,112.50807 324.996982,112.50807 C323.202472,112.50807 322.14208,114.089702 322.14208,116.203457 C322.14208,118.140383 323.085013,119.740026 324.956198,119.740026 C326.117735,119.740026 327.183021,118.970495 327.494613,117.667204 C327.554974,117.428158 327.574551,117.192386 327.574551,116.915683 L327.574551,115.25546 Z M329.307068,106.897042 L329.307068,118.456382 C329.307068,119.307778 329.326645,120.273786 329.387005,120.927068 L327.829045,120.927068 L327.75237,119.266846 L327.711586,119.266846 C327.183021,120.334366 326.019853,121.144829 324.465155,121.144829 C322.161656,121.144829 320.389986,119.186618 320.389986,116.283685 C320.367147,113.10241 322.336213,111.144199 324.662551,111.144199 C326.117735,111.144199 327.103084,111.836777 327.537029,112.607946 L327.574551,112.607946 L327.574551,106.897042 L329.307068,106.897042 Z" id="Fill-28" fill="#28454B" mask="url(#mask-2)"></path>
                        <path d="M333.736734,116.163507 C333.736734,118.257614 334.937424,119.839246 336.629158,119.839246 C338.286632,119.839246 339.526475,118.278899 339.526475,116.125849 C339.526475,114.503285 338.720577,112.448473 336.671573,112.448473 C334.622569,112.448473 333.736734,114.346104 333.736734,116.163507 M341.298146,116.065269 C341.298146,119.603475 338.857613,121.144174 336.554115,121.144174 C333.973283,121.144174 331.98464,119.246543 331.98464,116.22245 C331.98464,113.021528 334.071165,111.145182 336.709095,111.145182 C339.446538,111.145182 341.298146,113.139413 341.298146,116.065269" id="Fill-29" fill="#28454B" mask="url(#mask-2)"></path>
                        <path d="M344.52549,111.36196 L345.786541,116.223105 C346.060612,117.290624 346.32,118.279554 346.494557,119.266846 L346.554918,119.266846 C346.77189,118.297564 347.086745,117.270977 347.399969,116.242752 L348.957929,111.36196 L350.413114,111.36196 L351.889506,116.144514 C352.245145,117.290624 352.519216,118.297564 352.736188,119.266846 L352.796549,119.266846 C352.953161,118.297564 353.207655,117.290624 353.524141,116.164162 L354.884706,111.36196 L356.594384,111.36196 L353.524141,120.927068 L351.949867,120.927068 L350.493051,116.362275 C350.15862,115.294755 349.881286,114.345121 349.646369,113.220296 L349.607216,113.220296 C349.369035,114.366406 349.075388,115.353698 348.740957,116.380286 L347.205835,120.927068 L345.628298,120.927068 L342.75382,111.36196 L344.52549,111.36196 Z" id="Fill-30" fill="#28454B" mask="url(#mask-2)"></path>
                        <path d="M358.819087,113.950696 C358.819087,112.961766 358.799511,112.151303 358.73915,111.362124 L360.275903,111.362124 L360.373785,112.943756 L360.412938,112.943756 C360.887667,112.033417 361.988844,111.144363 363.563118,111.144363 C364.882899,111.144363 366.931903,111.935179 366.931903,115.214691 L366.931903,120.927232 L365.197754,120.927232 L365.197754,115.414442 C365.197754,113.872105 364.628405,112.586825 362.993769,112.586825 C361.851809,112.586825 360.962711,113.397288 360.670695,114.36657 C360.590758,114.584331 360.551605,114.879045 360.551605,115.175396 L360.551605,120.927232 L358.819087,120.927232 L358.819087,113.950696 Z" id="Fill-31" fill="#28454B" mask="url(#mask-2)"></path>
                        <path d="M370.238369,120.927723 L371.970886,120.927723 L371.970886,111.362615 L370.238369,111.362615 L370.238369,120.927723 Z M372.166651,108.674168 C372.18949,109.266871 371.755545,109.741688 371.063843,109.741688 C370.455341,109.741688 370.021396,109.266871 370.021396,108.674168 C370.021396,108.061818 370.474918,107.587001 371.104627,107.587001 C371.755545,107.587001 372.166651,108.061818 372.166651,108.674168 Z" id="Fill-32" fill="#28454B" mask="url(#mask-2)"></path>
                        <path d="M382.129933,120.571774 C381.678042,120.809183 380.673117,121.125182 379.392489,121.125182 C376.519642,121.125182 374.648458,119.168608 374.648458,116.242752 C374.648458,113.298886 376.656678,111.163847 379.766074,111.163847 C380.792207,111.163847 381.695987,111.420903 382.167454,111.658312 L381.775925,113.002535 C381.361556,112.765127 380.71227,112.549003 379.766074,112.549003 C377.580035,112.549003 376.400552,114.168293 376.400552,116.164162 C376.400552,118.377792 377.818215,119.740026 379.708976,119.740026 C380.692693,119.740026 381.343611,119.484607 381.833023,119.266846 L382.129933,120.571774 Z" id="Fill-33" fill="#28454B" mask="url(#mask-2)"></path>
                        <path d="M386.992075,108.615062 L386.992075,111.362451 L389.473393,111.362451 L389.473393,112.68539 L386.992075,112.68539 L386.992075,117.844523 C386.992075,119.028291 387.326507,119.701222 388.292279,119.701222 C388.744169,119.701222 389.078601,119.642279 389.295573,119.583336 L389.375511,120.886627 C389.041079,121.025798 388.509252,121.125673 387.840389,121.125673 C387.029597,121.125673 386.380311,120.866979 385.969205,120.392162 C385.474899,119.879687 385.297079,119.028291 385.297079,117.903466 L385.297079,112.68539 L383.822318,112.68539 L383.822318,111.362451 L385.297079,111.362451 L385.297079,109.068594 L386.992075,108.615062 Z" id="Fill-34" fill="#28454B" mask="url(#mask-2)"></path>
                        <path d="M392.781653,111.36196 L394.039442,116.223105 C394.316775,117.290624 394.5729,118.279554 394.75072,119.266846 L394.807818,119.266846 C395.024791,118.297564 395.339645,117.270977 395.656132,116.242752 L397.21083,111.36196 L398.666014,111.36196 L400.145669,116.144514 C400.498045,117.290624 400.775379,118.297564 400.992351,119.266846 L401.049449,119.266846 C401.209324,118.297564 401.463818,117.290624 401.780304,116.164162 L403.137606,111.36196 L404.850547,111.36196 L401.780304,120.927068 L400.202767,120.927068 L398.745951,116.362275 C398.41152,115.294755 398.137449,114.345121 397.899269,113.220296 L397.860116,113.220296 C397.625198,114.366406 397.328289,115.353698 396.993857,116.380286 L395.458736,120.927068 L393.884461,120.927068 L391.00672,111.36196 L392.781653,111.36196 Z" id="Fill-35" fill="#28454B" mask="url(#mask-2)"></path>
                        <path d="M407.938736,116.163507 C407.938736,118.257614 409.139426,119.839246 410.831159,119.839246 C412.488634,119.839246 413.728477,118.278899 413.728477,116.125849 C413.728477,114.503285 412.922579,112.448473 410.873575,112.448473 C408.824571,112.448473 407.938736,114.346104 407.938736,116.163507 M415.500147,116.065269 C415.500147,119.603475 413.059614,121.144174 410.756116,121.144174 C408.175285,121.144174 406.186642,119.246543 406.186642,116.22245 C406.186642,113.021528 408.273167,111.145182 410.911096,111.145182 C413.64854,111.145182 415.500147,113.139413 415.500147,116.065269" id="Fill-36" fill="#28454B" mask="url(#mask-2)"></path>
                    </g>
                </g>
            </g>
        </g>
    </g>
</svg>