<?xml version="1.0" encoding="UTF-8" standalone="no"?>
<svg width="137px" height="47px" viewBox="0 0 137 47" version="1.1" xmlns="http://www.w3.org/2000/svg" xmlns:xlink="http://www.w3.org/1999/xlink">
    <!-- Generator: Sketch 50.2 (55047) - http://www.bohemiancoding.com/sketch -->
    <title>Logo-white</title>
    <desc>Created with Sketch.</desc>
    <defs>
        <polygon id="path-1" points="0 47 137 47 137 0.495543478 0 0.495543478"></polygon>
    </defs>
    <g id="Symbols" stroke="none" stroke-width="1" fill="none" fill-rule="evenodd">
        <g id="Footer" transform="translate(-149.000000, -77.000000)">
            <g id="Logo-white" transform="translate(149.000000, 77.000000)">
                <polygon id="Fill-1" fill="#FEFEFE" points="23.2593284 0.510869565 0 23.7551794 13.9328058 37.6787841 13.9328058 18.8627157 35.6514259 18.8627157 29.9352196 24.5748459 20.4364852 24.5748459 20.4364852 29.6322643 28.2064581 29.6322643 22.8520499 34.9833327 20.4364852 34.9833327 20.4364852 44.1784069 23.2593284 47 46.5186567 23.7551794"></polygon>
                <g id="Group-11" stroke-width="1">
                    <path d="M111.99341,12.2598478 L103.264772,23.782 L103.264772,29.4664457 L98.6916306,29.4664457 L98.6916306,23.7564565 L89.721709,12.2598478 L95.5697687,12.2598478 L99.087806,17.0436304 C99.2043582,17.197913 99.3587388,17.3997065 99.5494142,17.6479891 C99.7395784,17.8967826 99.9374104,18.1583478 100.14291,18.4326848 C100.347899,18.7070217 100.538575,18.9645 100.714425,19.2040978 C100.890276,19.4442065 101.014496,19.6245435 101.088108,19.744087 C101.234821,19.5044891 101.446966,19.1785543 101.726078,18.7667935 C102.004168,18.3555435 102.4075,17.7726413 102.935052,17.0175761 L106.277239,12.2598478 L111.99341,12.2598478 Z" id="Fill-2" fill="#FEFEFE"></path>
                    <polygon id="Fill-4" fill="#FEFEFE" points="65.6490198 20.5375696 59.1461205 20.5375696 59.1461205 16.7351674 69.4533257 16.7351674 73.9318966 12.25995 54.0515608 12.25995 54.0515608 29.4665478 59.1461205 29.4665478 59.1461205 24.7297652 61.4541616 24.7297652"></polygon>
                    <path d="M89.0700899,26.1227022 C88.5568511,25.5224304 88.1458511,25.0508978 87.8386235,24.7075935 C87.5303735,24.3658217 87.2517728,24.0828 87.0033325,23.8590391 C87.6039854,23.722637 88.142784,23.4866152 88.6187056,23.1525065 C89.0956496,22.8173761 89.4984705,22.4107239 89.8281907,21.9305065 C90.158422,21.4502891 90.4109519,20.9108109 90.5868026,20.3100283 C90.7626534,19.7097565 90.8505787,19.0752565 90.8505787,18.4065283 C90.8505787,17.1722674 90.6123623,16.1607457 90.1364407,15.371963 C89.6594966,14.5831804 89.0552653,13.9578761 88.3222131,13.4940065 C87.589672,13.0311587 86.7758511,12.7098217 85.882284,12.5299957 C84.9876944,12.3496587 84.1227541,12.2597457 83.2869519,12.2597457 L77.0232914,12.2597457 L72.5452317,16.734963 L83.6611459,16.734963 C84.4529854,16.734963 85.0684631,16.9020174 85.5080899,17.2361261 C85.948228,17.5707457 86.1675302,18.0724196 86.1675302,18.7411478 C86.1675302,19.3419304 85.9262466,19.8129522 85.4421459,20.1552348 C84.9585563,20.49905 84.3645489,20.6701913 83.6611459,20.6701913 L71.663422,20.6701913 L71.663422,29.4663435 L76.2145825,29.4663435 L76.2145825,24.9139848 L82.4082093,24.9139848 L85.6839407,29.4663435 L91.7743063,29.4663435 L89.0700899,26.1227022 Z" id="Fill-6" fill="#FEFEFE"></path>
                    <path d="M113.277888,26.9588424 C114.061548,27.7389402 114.996011,28.3519837 116.080765,28.7979728 C117.165007,29.2434511 118.345865,29.4661902 119.620783,29.4661902 L120.859918,29.4661902 L125.285835,25.0425707 L119.620783,25.0425707 C119.004794,25.0425707 118.433279,24.9439728 117.905727,24.7467772 C117.378175,24.5495815 116.919634,24.2706467 116.531126,23.9104837 C116.14313,23.5508315 115.842548,23.1176141 115.630403,22.6118533 C115.417746,22.1066033 115.311418,21.5446467 115.311418,20.9275163 C115.311418,20.309875 115.420813,19.7443424 115.641138,19.2298967 C115.860951,18.7154511 116.162044,18.2740598 116.542884,17.905212 C116.923724,17.536875 117.378175,17.2492554 117.905727,17.0438859 C118.433279,16.8374946 119.004794,16.7348098 119.620783,16.7348098 L125.204044,16.7348098 L129.682104,12.2601033 L119.620783,12.2601033 C118.345865,12.2601033 117.165007,12.4613859 116.080765,12.8639511 C114.996011,13.2670272 114.061548,13.8417554 113.277888,14.587625 C112.493716,15.3334946 111.878238,16.224962 111.430944,17.262538 C110.983649,18.3001141 110.760257,19.444462 110.760257,20.6960924 C110.760257,21.9477228 110.983649,23.1094402 111.430944,24.1812446 C111.878238,25.252538 112.493716,26.1787446 113.277888,26.9588424" id="Fill-8" fill="#FEFEFE"></path>
                    <mask id="mask-2" fill="white">
                        <use xlink:href="#path-1"></use>
                    </mask>
                    <g id="Clip-10"></g>
                    <path d="M54.6447334,36.6008149 L54.6447334,31.8473717 L55.2381615,31.8473717 L55.2381615,34.9179936 L56.6238313,33.3315056 L57.2624444,33.3315056 L55.9400334,34.8577854 L57.536566,36.6008149 L56.7774599,36.6008149 L55.2381615,34.9240145 L55.2381615,36.6008149 L54.6447334,36.6008149 Z M59.5435054,36.6760752 C59.0755885,36.6760752 58.7020638,36.5210405 58.4229203,36.2109663 C58.1437767,35.9008921 58.004207,35.4859609 58.004207,34.9661602 C58.004207,34.4403387 58.1442788,34.024404 58.4244264,33.7183438 C58.7045741,33.4122835 59.0846254,33.2592557 59.5645917,33.2592557 C60.044558,33.2592557 60.4246093,33.4122835 60.7047569,33.7183438 C60.9849046,34.024404 61.1249764,34.4383318 61.1249764,34.9601394 C61.1249764,35.4939888 60.9844026,35.9134356 60.7032508,36.2184923 C60.422099,36.5235491 60.0355211,36.6760752 59.5435054,36.6760752 Z M59.5525424,36.230534 C60.1811175,36.230534 60.4954003,35.8070734 60.4954003,34.9601394 C60.4954003,34.1232402 60.1851339,33.7047969 59.5645917,33.7047969 C58.9460577,33.7047969 58.6367954,34.1252472 58.6367954,34.9661602 C58.6367954,35.8090803 58.9420413,36.230534 59.5525424,36.230534 Z M62.0655525,36.6008149 L62.0655525,33.3315056 L62.6589807,33.3315056 L62.6589807,33.94563 C62.9481654,33.4880449 63.3196818,33.2592557 63.7735412,33.2592557 C64.2113347,33.2592557 64.5095519,33.4880449 64.6682019,33.94563 C64.9493537,33.4860379 65.3148455,33.2562453 65.7646884,33.2562453 C66.0538731,33.2562453 66.2777871,33.3410378 66.436437,33.5106252 C66.595087,33.6802127 66.6744108,33.9175313 66.6744108,34.2225881 L66.6744108,36.6008149 L66.0779703,36.6008149 L66.0779703,34.3159109 C66.0779703,33.9426177 65.9303678,33.755974 65.6351584,33.755974 C65.3278997,33.755974 65.005584,33.973725 64.6682019,34.4092337 L64.6682019,36.6008149 L64.0717614,36.6008149 L64.0717614,34.3159109 C64.0717614,33.9406108 63.9211466,33.7529635 63.6199126,33.7529635 C63.3206867,33.7529635 63.0003793,33.9717181 62.6589807,34.4092337 L62.6589807,36.6008149 L62.0655525,36.6008149 Z M67.837899,37.7899283 L67.837899,33.3315056 L68.4313271,33.3315056 L68.4313271,33.94563 C68.6743226,33.4880449 69.0388104,33.2592557 69.5248014,33.2592557 C69.9184139,33.2592557 70.2281783,33.4027507 70.4541038,33.6897449 C70.6800294,33.9767391 70.7929904,34.3690924 70.7929904,34.8668166 C70.7929904,35.4086938 70.6649679,35.8457011 70.4089189,36.1778517 C70.15287,36.5100024 69.8159949,36.6760752 69.3982837,36.6760752 C69.0106958,36.6760752 68.6883802,36.5275629 68.4313271,36.230534 L68.4313271,37.7899283 L67.837899,37.7899283 Z M68.4313271,35.8211177 C68.7365777,36.0940633 69.0277662,36.230534 69.3049016,36.230534 C69.8752381,36.230534 70.1604021,35.7960353 70.1604021,34.9270249 C70.1604021,34.160369 69.9073692,33.7770469 69.401296,33.7770469 C69.0699385,33.7770469 68.7466188,33.9566664 68.4313271,34.3159109 L68.4313271,35.8211177 Z M71.7335666,36.6008149 L71.7335666,31.8473717 L72.3269947,31.8473717 L72.3269947,36.6008149 L71.7335666,36.6008149 Z M75.9274544,36.4954504 C75.5298255,36.6158675 75.1894361,36.6760752 74.906276,36.6760752 C74.4243015,36.6760752 74.031197,36.5160231 73.7269506,36.1959142 C73.4227041,35.8758053 73.2705832,35.4608741 73.2705832,34.9511082 C73.2705832,34.4553909 73.4046304,34.0489891 73.6727287,33.7318906 C73.940827,33.4147922 74.2837267,33.2562453 74.7014379,33.2562453 C75.0970586,33.2562453 75.4028066,33.3967299 75.6186911,33.6777032 C75.8345755,33.9586765 75.9425161,34.3580541 75.9425161,34.8758478 L75.9395037,35.0594831 L73.8760607,35.0594831 C73.9624144,35.8361737 74.3429678,36.2245132 75.0177321,36.2245132 C75.264744,36.2245132 75.5679818,36.1582847 75.9274544,36.0258259 L75.9274544,36.4954504 Z M73.9031716,34.6139418 L75.3460756,34.6139418 C75.3460756,34.0058352 75.1191493,33.7017865 74.66529,33.7017865 C74.2094224,33.7017865 73.9553855,34.0058352 73.9031716,34.6139418 Z M76.9794866,36.6008149 L76.9794866,31.8473717 L77.5729148,31.8473717 L77.5729148,34.9179936 L78.9585846,33.3315056 L79.5971976,33.3315056 L78.2747867,34.8577854 L79.8713192,36.6008149 L79.1122132,36.6008149 L77.5729148,34.9240145 L77.5729148,36.6008149 L76.9794866,36.6008149 Z M81.4655701,36.6760752 C81.1944594,36.6760752 80.8651151,36.6128571 80.4775272,36.4864191 L80.4775272,35.9415343 C80.8651151,36.1342017 81.2024922,36.230534 81.4896687,36.230534 C81.660368,36.230534 81.8019459,36.1843748 81.9144066,36.092055 C82.0268673,35.9997351 82.0830968,35.8843371 82.0830968,35.7458574 C82.0830968,35.5431552 81.9254533,35.3755772 81.6101617,35.2431183 L81.2637442,35.095608 C80.7516463,34.8828711 80.4956012,34.5768154 80.4956012,34.1774319 C80.4956012,33.8924446 80.5965131,33.668171 80.7983399,33.5046044 C81.0001668,33.3410378 81.2767959,33.2592557 81.6282356,33.2592557 C81.8109843,33.2592557 82.0369065,33.2843422 82.3060089,33.334516 L82.4295143,33.3585994 L82.4295143,33.8523072 C82.0981568,33.7539665 81.835083,33.7047969 81.6402849,33.7047969 C81.2587218,33.7047969 81.0679431,33.8432746 81.0679431,34.120234 C81.0679431,34.2988528 81.2125333,34.449372 81.501718,34.5717961 L81.7878889,34.6922126 C82.1112135,34.8286854 82.3401479,34.9726821 82.4746991,35.124207 C82.6092504,35.2757319 82.676525,35.4648843 82.676525,35.6916699 C82.676525,35.9786641 82.5630618,36.2144775 82.3361322,36.3991171 C82.1092025,36.5837568 81.819018,36.6760752 81.4655701,36.6760752 Z M85.0359065,36.6760752 C84.5679896,36.6760752 84.1944649,36.5210405 83.9153214,36.2109663 C83.6361778,35.9008921 83.4966081,35.4859609 83.4966081,34.9661602 C83.4966081,34.4403387 83.6366798,34.024404 83.9168275,33.7183438 C84.1969752,33.4122835 84.5770265,33.2592557 85.0569928,33.2592557 C85.5369591,33.2592557 85.9170103,33.4122835 86.197158,33.7183438 C86.4773057,34.024404 86.6173775,34.4383318 86.6173775,34.9601394 C86.6173775,35.4939888 86.4768037,35.9134356 86.1956519,36.2184923 C85.9145001,36.5235491 85.5279221,36.6760752 85.0359065,36.6760752 Z M85.0449435,36.230534 C85.6735186,36.230534 85.9878014,35.8070734 85.9878014,34.9601394 C85.9878014,34.1232402 85.677535,33.7047969 85.0569928,33.7047969 C84.4384588,33.7047969 84.1291965,34.1252472 84.1291965,34.9661602 C84.1291965,35.8090803 84.4344424,36.230534 85.0449435,36.230534 Z M87.8943219,36.6008149 L86.9574887,33.3315056 L87.5388675,33.3315056 L88.255801,35.8632635 L89.0299687,33.3315056 L89.6233968,33.3315056 L90.3011701,35.8632635 L91.123535,33.3315056 L91.632618,33.3315056 L90.5662548,36.6008149 L89.9698143,36.6008149 L89.2769794,34.069057 L88.4937747,36.6008149 L87.8943219,36.6008149 Z M94.6171174,36.4954504 C94.2194884,36.6158675 93.879099,36.6760752 93.595939,36.6760752 C93.1139645,36.6760752 92.7208599,36.5160231 92.4166135,36.1959142 C92.1123671,35.8758053 91.9602462,35.4608741 91.9602462,34.9511082 C91.9602462,34.4553909 92.0942933,34.0489891 92.3623916,33.7318906 C92.63049,33.4147922 92.9733896,33.2562453 93.3911009,33.2562453 C93.7867216,33.2562453 94.0924696,33.3967299 94.308354,33.6777032 C94.5242384,33.9586765 94.632179,34.3580541 94.632179,34.8758478 L94.6291667,35.0594831 L92.5657236,35.0594831 C92.6520774,35.8361737 93.0326307,36.2245132 93.707395,36.2245132 C93.954407,36.2245132 94.2576447,36.1582847 94.6171174,36.0258259 L94.6171174,36.4954504 Z M92.5928346,34.6139418 L94.0357385,34.6139418 C94.0357385,34.0058352 93.8088123,33.7017865 93.3549529,33.7017865 C92.8990854,33.7017865 92.6450485,34.0058352 92.5928346,34.6139418 Z M97.6339165,36.6369398 L97.6339165,31.8473717 L98.2273446,31.8473717 L98.2273446,33.94563 C98.4703401,33.4880449 98.8348278,33.2592557 99.3208188,33.2592557 C99.7144313,33.2592557 100.024196,33.4027507 100.250121,33.6897449 C100.476047,33.9767391 100.589008,34.3690924 100.589008,34.8668166 C100.589008,35.4086938 100.460985,35.8457011 100.204936,36.1778517 C99.9488874,36.5100024 99.6120124,36.6760752 99.1943011,36.6760752 C98.8067133,36.6760752 98.4843977,36.5275629 98.2273446,36.230534 L98.1550488,36.6369398 L97.6339165,36.6369398 Z M98.2273446,35.8211177 C98.5325951,36.0940633 98.8237837,36.230534 99.100919,36.230534 C99.6712555,36.230534 99.9564195,35.7960353 99.9564195,34.9270249 C99.9564195,34.160369 99.7033867,33.7770469 99.1973135,33.7770469 C98.865956,33.7770469 98.5426363,33.9566664 98.2273446,34.3159109 L98.2273446,35.8211177 Z M103.574953,36.6008149 L103.574953,35.9866905 C103.259662,36.4462826 102.8771,36.6760752 102.427257,36.6760752 C102.142089,36.6760752 101.915163,36.5862654 101.746471,36.4066432 C101.57778,36.2270209 101.493436,35.9846851 101.493436,35.6796283 L101.493436,33.3315056 L102.086864,33.3315056 L102.086864,35.4869618 C102.086864,35.73181 102.12251,35.9059105 102.193802,36.0092686 C102.265094,36.1126266 102.38408,36.1643049 102.550762,36.1643049 C102.912243,36.1643049 103.253637,35.9264846 103.574953,35.4508368 L103.574953,33.3315056 L104.168381,33.3315056 L104.168381,36.6008149 L103.574953,36.6008149 Z M107.470621,36.6008149 L107.470621,35.9866905 C107.229634,36.4462826 106.86615,36.6760752 106.380159,36.6760752 C105.986546,36.6760752 105.676782,36.5325803 105.450856,36.2455861 C105.224931,35.9585918 105.11197,35.5662385 105.11197,35.0685143 C105.11197,34.5246302 105.239992,34.0871211 105.496041,33.755974 C105.75209,33.4248268 106.088965,33.2592557 106.506677,33.2592557 C106.894264,33.2592557 107.215576,33.407768 107.470621,33.7047969 L107.470621,31.8473717 L108.067061,31.8473717 L108.067061,36.6008149 L107.470621,36.6008149 Z M107.470621,34.1112028 C107.163362,33.8402642 106.872173,33.7047969 106.597046,33.7047969 C106.028718,33.7047969 105.744558,34.1392956 105.744558,35.008306 C105.744558,35.7729549 105.997591,36.1552736 106.503664,36.1552736 C106.833013,36.1552736 107.155329,35.9756541 107.470621,35.6164096 L107.470621,34.1112028 Z M110.546936,36.6760752 C110.079019,36.6760752 109.705494,36.5210405 109.426351,36.2109663 C109.147207,35.9008921 109.007637,35.4859609 109.007637,34.9661602 C109.007637,34.4403387 109.147709,34.024404 109.427857,33.7183438 C109.708004,33.4122835 110.088056,33.2592557 110.568022,33.2592557 C111.047988,33.2592557 111.42804,33.4122835 111.708187,33.7183438 C111.988335,34.024404 112.128407,34.4383318 112.128407,34.9601394 C112.128407,35.4939888 111.987833,35.9134356 111.706681,36.2184923 C111.425529,36.5235491 111.038951,36.6760752 110.546936,36.6760752 Z M110.555973,36.230534 C111.184548,36.230534 111.498831,35.8070734 111.498831,34.9601394 C111.498831,34.1232402 111.188564,33.7047969 110.568022,33.7047969 C109.949488,33.7047969 109.640226,34.1252472 109.640226,34.9661602 C109.640226,35.8090803 109.945472,36.230534 110.555973,36.230534 Z M113.405351,36.6008149 L112.468518,33.3315056 L113.049897,33.3315056 L113.76683,35.8632635 L114.540998,33.3315056 L115.134426,33.3315056 L115.812199,35.8632635 L116.634564,33.3315056 L117.143647,33.3315056 L116.077284,36.6008149 L115.480844,36.6008149 L114.788009,34.069057 L114.004804,36.6008149 L113.405351,36.6008149 Z M117.792028,36.6008149 L117.792028,33.3315056 L118.385456,33.3315056 L118.385456,33.94563 C118.698739,33.4880449 119.082305,33.2592557 119.536164,33.2592557 C119.819324,33.2592557 120.045247,33.3490655 120.213938,33.5286877 C120.382629,33.70831 120.466973,33.9496424 120.466973,34.2526922 L120.466973,36.6008149 L119.873545,36.6008149 L119.873545,34.4453587 C119.873545,34.2025174 119.837899,34.0294204 119.766607,33.9260623 C119.695315,33.8227043 119.577334,33.771026 119.412659,33.771026 C119.04917,33.771026 118.706772,34.0088463 118.385456,34.4844941 L118.385456,36.6008149 L117.792028,36.6008149 Z M121.633474,36.6008149 L121.633474,33.3315056 L122.226902,33.3315056 L122.226902,36.6008149 L121.633474,36.6008149 Z M121.633474,32.7384541 L121.633474,32.1454026 L122.226902,32.1454026 L122.226902,32.7384541 L121.633474,32.7384541 Z M124.706776,36.6760752 C124.264966,36.6760752 123.89847,36.512511 123.607277,36.1853778 C123.316085,35.8582445 123.17049,35.445822 123.17049,34.9480978 C123.17049,34.4162554 123.314578,34.0018259 123.602759,33.7047969 C123.89094,33.407768 124.293081,33.2592557 124.809195,33.2592557 C125.06424,33.2592557 125.349404,33.2943768 125.664696,33.3646202 L125.664696,33.8613384 C125.329322,33.7629978 125.056207,33.7138282 124.845343,33.7138282 C124.542101,33.7138282 124.298607,33.827721 124.114854,34.0555101 C123.931102,34.2832992 123.839227,34.5868462 123.839227,34.9661602 C123.839227,35.3334325 123.933612,35.6304571 124.122385,35.8572427 C124.311159,36.0840283 124.558167,36.1974194 124.863417,36.1974194 C125.134528,36.1974194 125.413667,36.1281806 125.700844,35.9897009 L125.700844,36.5014712 C125.317272,36.6178745 124.98592,36.6760752 124.706776,36.6760752 Z M127.664478,36.6760752 C127.363244,36.6760752 127.128285,36.5897775 126.959594,36.4171796 C126.790903,36.2445817 126.706558,36.0047545 126.706558,35.6976908 L126.706558,33.7770469 L126.296882,33.7770469 L126.296882,33.3315056 L126.706558,33.3315056 L126.706558,32.7384541 L127.299987,32.6812563 L127.299987,33.3315056 L128.155487,33.3315056 L128.155487,33.7770469 L127.299987,33.7770469 L127.299987,35.5893159 C127.299987,36.0167968 127.484741,36.230534 127.854255,36.230534 C127.932575,36.230534 128.027965,36.217489 128.140425,36.1913986 L128.140425,36.6008149 C127.957677,36.6509887 127.799029,36.6760752 127.664478,36.6760752 Z M129.437757,36.6008149 L128.500924,33.3315056 L129.082303,33.3315056 L129.799236,35.8632635 L130.573404,33.3315056 L131.166832,33.3315056 L131.844606,35.8632635 L132.66697,33.3315056 L133.176054,33.3315056 L132.10969,36.6008149 L131.51325,36.6008149 L130.820415,34.069057 L130.03721,36.6008149 L129.437757,36.6008149 Z M135.042363,36.6760752 C134.574446,36.6760752 134.200922,36.5210405 133.921778,36.2109663 C133.642634,35.9008921 133.503065,35.4859609 133.503065,34.9661602 C133.503065,34.4403387 133.643136,34.024404 133.923284,33.7183438 C134.203432,33.4122835 134.583483,33.2592557 135.063449,33.2592557 C135.543416,33.2592557 135.923467,33.4122835 136.203615,33.7183438 C136.483762,34.024404 136.623834,34.4383318 136.623834,34.9601394 C136.623834,35.4939888 136.48326,35.9134356 136.202108,36.2184923 C135.920957,36.5235491 135.534379,36.6760752 135.042363,36.6760752 Z M135.0514,36.230534 C135.679975,36.230534 135.994258,35.8070734 135.994258,34.9601394 C135.994258,34.1232402 135.683992,33.7047969 135.063449,33.7047969 C134.444915,33.7047969 134.135653,34.1252472 134.135653,34.9661602 C134.135653,35.8090803 134.440899,36.230534 135.0514,36.230534 Z" id="kompleksowe-budownictwo" fill="#FEFEFE" mask="url(#mask-2)"></path>
                </g>
            </g>
        </g>
    </g>
</svg>