<?xml version="1.0" encoding="UTF-8" standalone="no"?>
<svg width="14px" height="14px" viewBox="0 0 14 14" version="1.1" xmlns="http://www.w3.org/2000/svg" xmlns:xlink="http://www.w3.org/1999/xlink">
    <!-- Generator: Sketch 50.2 (55047) - http://www.bohemiancoding.com/sketch -->
    <title>”</title>
    <desc>Created with Sketch.</desc>
    <defs></defs>
    <g id="Page-1" stroke="none" stroke-width="1" fill="none" fill-rule="evenodd">
        <g id="Nova-Corps---Mobile" transform="translate(-351.000000, -2738.000000)" fill="#EF4136">
            <g id="Opinie" transform="translate(25.000000, 2478.000000)">
                <g id="Opinia" transform="translate(0.000000, 96.000000)">
                    <path d="M330.223297,164 C330.913301,165.165339 331.380963,166.380494 331.626297,167.6455 C331.871632,168.910506 331.894632,170.16016 331.695297,171.3945 C331.495963,172.62884 331.078134,173.813328 330.441797,174.948 C329.805461,176.082672 328.958303,177.094662 327.900297,177.984 L326.359297,177.041 C326.098629,176.872332 325.979797,176.653835 326.002797,176.3855 C326.025797,176.117165 326.113963,175.906334 326.267297,175.753 C326.619966,175.323665 326.941963,174.779337 327.233297,174.12 C327.524632,173.460663 327.72013,172.736171 327.819797,171.9465 C327.919465,171.156829 327.896465,170.325004 327.750797,169.451 C327.60513,168.576996 327.271633,167.710671 326.750297,166.852 C326.504963,166.453331 326.435963,166.108335 326.543297,165.817 C326.650631,165.525665 326.872962,165.318667 327.210297,165.196 L330.223297,164 Z M337.560297,164 C338.250301,165.165339 338.717963,166.380494 338.963297,167.6455 C339.208632,168.910506 339.231632,170.16016 339.032297,171.3945 C338.832963,172.62884 338.415134,173.813328 337.778797,174.948 C337.142461,176.082672 336.295303,177.094662 335.237297,177.984 L333.696297,177.041 C333.435629,176.872332 333.316797,176.653835 333.339797,176.3855 C333.362797,176.117165 333.450963,175.906334 333.604297,175.753 C333.956966,175.323665 334.278963,174.779337 334.570297,174.12 C334.861632,173.460663 335.05713,172.736171 335.156797,171.9465 C335.256465,171.156829 335.233465,170.325004 335.087797,169.451 C334.94213,168.576996 334.608633,167.710671 334.087297,166.852 C333.841963,166.453331 333.772963,166.108335 333.880297,165.817 C333.987631,165.525665 334.209962,165.318667 334.547297,165.196 L337.560297,164 Z" id="”"></path>
                </g>
            </g>
        </g>
    </g>
</svg>