<?xml version="1.0" encoding="UTF-8" standalone="no"?>
<svg width="15px" height="15px" viewBox="0 0 15 15" version="1.1" xmlns="http://www.w3.org/2000/svg" xmlns:xlink="http://www.w3.org/1999/xlink">
    <!-- Generator: Sketch 50.2 (55047) - http://www.bohemiancoding.com/sketch -->
    <title>Combined Shape Copy 2</title>
    <desc>Created with Sketch.</desc>
    <defs></defs>
    <g id="Page-1" stroke="none" stroke-width="1" fill="none" fill-rule="evenodd" opacity="0.900000036">
        <g id="Nova-Corps---Mobile" transform="translate(-25.000000, -3347.000000)" fill="#EF4136">
            <g id="kontakt" transform="translate(0.000000, 2872.000000)">
                <g id="Dane-kontaktkowe" transform="translate(25.000000, 185.000000)">
                    <path d="M7.51584982,290 L14.3895375,294.154504 C14.7965125,294.399186 15,294.854085 15,295.5192 C15,296.184316 15,297.96316 15,300.855733 L15,303.35355 C14.9811913,304.451183 14.4528261,305 13.4149043,305 C12.3769826,305 8.44661377,305 1.62379791,305 C0.553951444,304.843308 0.0190282078,304.294491 0.0190282078,303.35355 C0.0190282078,302.412609 0.0190282078,299.801159 0.0190282078,295.5192 C-0.0676326803,294.945656 0.141718657,294.490758 0.64708222,294.154504 C1.15244578,293.81825 3.44203498,292.433415 7.51584982,290 Z M7.50350175,291.684374 L1.55452856,295.253797 L7.50350175,299.742435 L13.4643166,295.253797 L7.50350175,291.684374 Z" id="Combined-Shape-Copy-2"></path>
                </g>
            </g>
        </g>
    </g>
</svg>