<?xml version="1.0" encoding="UTF-8" standalone="no"?>
<svg width="9px" height="17px" viewBox="0 0 9 17" version="1.1" xmlns="http://www.w3.org/2000/svg" xmlns:xlink="http://www.w3.org/1999/xlink">
    <!-- Generator: Sketch 50.2 (55047) - http://www.bohemiancoding.com/sketch -->
    <title>Facebook</title>
    <desc>Created with Sketch.</desc>
    <defs></defs>
    <g id="Page-1" stroke="none" stroke-width="1" fill="none" fill-rule="evenodd">
        <g id="Nova-Corps---Mobile" transform="translate(-380.000000, -4590.000000)" fill="#919191">
            <g id="stopka" transform="translate(0.000000, 4157.000000)">
                <path d="M388.661086,433.003537 L386.502396,433 C384.077181,433 382.5099,434.642115 382.5099,437.183723 L382.5099,439.112699 L380.339433,439.112699 C380.151879,439.112699 380,439.26798 380,439.459515 L380,442.254382 C380,442.445918 380.152052,442.601022 380.339433,442.601022 L382.5099,442.601022 L382.5099,449.653361 C382.5099,449.844897 382.661779,450 382.849333,450 L385.681175,450 C385.868729,450 386.020608,449.84472 386.020608,449.653361 L386.020608,442.601022 L388.558391,442.601022 C388.745945,442.601022 388.897824,442.445918 388.897824,442.254382 L388.898863,439.459515 C388.898863,439.36755 388.863014,439.279475 388.799457,439.214392 C388.7359,439.149309 388.64931,439.112699 388.559256,439.112699 L386.020608,439.112699 L386.020608,437.477482 C386.020608,436.691531 386.204006,436.292542 387.206546,436.292542 L388.66074,436.292011 C388.848121,436.292011 389,436.136731 389,435.945372 L389,433.350176 C389,433.158994 388.848294,433.003891 388.661086,433.003537 Z" id="Facebook"></path>
            </g>
        </g>
    </g>
</svg>