<?xml version="1.0" encoding="UTF-8" standalone="no"?>
<svg width="9px" height="17px" viewBox="0 0 9 17" version="1.1" xmlns="http://www.w3.org/2000/svg" xmlns:xlink="http://www.w3.org/1999/xlink">
    <!-- Generator: Sketch 50.2 (55047) - http://www.bohemiancoding.com/sketch -->
    <title>Facebook</title>
    <desc>Created with Sketch.</desc>
    <defs></defs>
    <g id="Page-1" stroke="none" stroke-width="1" fill="none" fill-rule="evenodd" opacity="0.900000036">
        <g id="Nova-Corps---Mobile" transform="translate(-27.000000, -3381.000000)" fill="#EF4136">
            <g id="kontakt" transform="translate(0.000000, 2872.000000)">
                <g id="Dane-kontaktkowe" transform="translate(25.000000, 185.000000)">
                    <path d="M10.6610864,324.003537 L8.50239566,324 C6.07718063,324 4.50990013,325.642115 4.50990013,328.183723 L4.50990013,330.112699 L2.33943312,330.112699 C2.151879,330.112699 2,330.26798 2,330.459515 L2,333.254382 C2,333.445918 2.15205218,333.601022 2.33943312,333.601022 L4.50990013,333.601022 L4.50990013,340.653361 C4.50990013,340.844897 4.66177914,341 4.84933326,341 L7.68117532,341 C7.86872943,341 8.02060844,340.84472 8.02060844,340.653361 L8.02060844,333.601022 L10.5583906,333.601022 C10.7459447,333.601022 10.8978237,333.445918 10.8978237,333.254382 L10.8988628,330.459515 C10.8988628,330.36755 10.8630145,330.279475 10.7994574,330.214392 C10.7359002,330.149309 10.6493102,330.112699 10.5592565,330.112699 L8.02060844,330.112699 L8.02060844,328.477482 C8.02060844,327.691531 8.20400623,327.292542 9.20654621,327.292542 L10.6607401,327.292011 C10.848121,327.292011 11,327.136731 11,326.945372 L11,324.350176 C11,324.158994 10.8482942,324.003891 10.6610864,324.003537 Z" id="Facebook"></path>
                </g>
            </g>
        </g>
    </g>
</svg>