<?xml version="1.0" encoding="UTF-8" standalone="no"?>
<svg width="9px" height="17px" viewBox="0 0 9 17" version="1.1" xmlns="http://www.w3.org/2000/svg" xmlns:xlink="http://www.w3.org/1999/xlink">
    <!-- Generator: Sketch 50.2 (55047) - http://www.bohemiancoding.com/sketch -->
    <title>Facebook Copy</title>
    <desc>Created with Sketch.</desc>
    <defs></defs>
    <g id="Page-1" stroke="none" stroke-width="1" fill="none" fill-rule="evenodd">
        <g id="Nova-Corps---Desktop" transform="translate(-1156.000000, -4102.000000)" fill="#EF4136">
            <g id="Stopka" transform="translate(0.000000, 3973.000000)">
                <g id="Social" transform="translate(1124.000000, 71.000000)">
                    <g id="Group-8">
                        <path d="M40.6610864,58.0035371 L38.5023957,58 C36.0771806,58 34.5099001,59.6421148 34.5099001,62.1837229 L34.5099001,64.1126994 L32.3394331,64.1126994 C32.151879,64.1126994 32,64.2679796 32,64.4595154 L32,67.2543824 C32,67.4459183 32.1520522,67.6010216 32.3394331,67.6010216 L34.5099001,67.6010216 L34.5099001,74.6533608 C34.5099001,74.8448966 34.6617791,75 34.8493333,75 L37.6811753,75 C37.8687294,75 38.0206084,74.8447198 38.0206084,74.6533608 L38.0206084,67.6010216 L40.5583906,67.6010216 C40.7459447,67.6010216 40.8978237,67.4459183 40.8978237,67.2543824 L40.8988628,64.4595154 C40.8988628,64.3675499 40.8630145,64.2794753 40.7994574,64.214392 C40.7359002,64.1493087 40.6493102,64.1126994 40.5592565,64.1126994 L38.0206084,64.1126994 L38.0206084,62.477482 C38.0206084,61.6915306 38.2040062,61.2925418 39.2065462,61.2925418 L40.6607401,61.2920113 C40.848121,61.2920113 41,61.1367311 41,60.9453721 L41,58.3501763 C41,58.1589942 40.8482942,58.0038908 40.6610864,58.0035371 Z" id="Facebook-Copy"></path>
                    </g>
                </g>
            </g>
        </g>
    </g>
</svg>