<?xml version="1.0" encoding="UTF-8" standalone="no"?>
<svg width="211px" height="73px" viewBox="0 0 211 73" version="1.1" xmlns="http://www.w3.org/2000/svg" xmlns:xlink="http://www.w3.org/1999/xlink">
    <!-- Generator: Sketch 50.2 (55047) - http://www.bohemiancoding.com/sketch -->
    <title>logo copy 2</title>
    <desc>Created with Sketch.</desc>
    <defs></defs>
    <g id="Page-1" stroke="none" stroke-width="1" fill="none" fill-rule="evenodd">
        <g id="Nova-Corps---Desktop" transform="translate(-120.000000, -34.000000)" fill-rule="nonzero">
            <g id="Hello">
                <g id="menu" transform="translate(120.000000, 34.000000)">
                    <g id="logo-copy-2">
                        <g id="Group" transform="translate(95.000000, 9.000000)" fill="#000000">
                            <g transform="translate(0.662857, 0.000000)" id="Shape">
                                <polygon points="11.81344 0.555146341 15.8747657 0.555146341 15.8747657 17.1910976 12.0520686 17.1910976 4.45572571 7.24719512 4.45572571 17.1910976 0.369874286 17.1910976 0.369874286 0.555146341 4.21577143 0.555146341 11.8359771 10.5695122"></polygon>
                                <path d="M38.6525257,1.40795122 C40.0306057,2.15209756 41.1130514,3.1734878 41.9011886,4.47014634 C42.6886629,5.76812195 43.0837257,7.22282927 43.0837257,8.83558537 C43.0837257,10.4667805 42.6886629,11.9379512 41.9011886,13.2510732 C41.1130514,14.5641951 40.0306057,15.6007317 38.6525257,16.3600244 C37.2751086,17.1199756 35.7339657,17.4992927 34.0290971,17.4992927 C32.3255543,17.4992927 30.7844114,17.1239268 29.4076571,16.371878 C28.0289143,15.6204878 26.9464686,14.5846098 26.1570057,13.2629268 C25.3701943,11.9412439 24.9764571,10.466122 24.9764571,8.83492683 C24.9764571,7.22217073 25.3708571,5.76746341 26.1570057,4.4694878 C26.9464686,3.17217073 28.0289143,2.15078049 29.4076571,1.40729268 C30.7844114,0.663804878 32.3248914,0.293707317 34.0290971,0.293707317 C35.7333029,0.293707317 37.2744457,0.664463415 38.6525257,1.40795122 Z M31.7727314,4.61173171 C31.0634743,5.03912195 30.5020343,5.62785366 30.0877486,6.38056098 C29.6734629,7.13326829 29.4666514,7.95841463 29.4666514,8.86192683 C29.4666514,9.77926829 29.67744,10.6136341 30.09968,11.3650244 C30.5225829,12.1164146 31.0840229,12.7097561 31.7833371,13.1450488 C32.48464,13.5803415 33.2489143,13.797 34.0768229,13.797 C34.9047314,13.797 35.6650286,13.5803415 36.3583771,13.1450488 C37.0517257,12.7097561 37.5965943,12.1164146 37.9949714,11.3650244 C38.3926857,10.6136341 38.5922057,9.77926829 38.5922057,8.86192683 C38.5922057,7.95907317 38.3920229,7.13326829 37.9949714,6.38056098 C37.5965943,5.62785366 37.0517257,5.03978049 36.3583771,4.61173171 C35.6650286,4.185 34.9047314,3.97163415 34.0768229,3.97163415 C33.2489143,3.97163415 32.48,4.18434146 31.7727314,4.61173171 Z"></path>
                                <polygon points="50.3678629 0.555146341 55.0754743 0.555146341 59.2547886 12.5866098 63.4592914 0.555146341 67.9508114 0.555146341 61.4050971 17.1910976 56.8658514 17.1910976"></polygon>
                                <path d="M88.2786514,17.190439 L87.1325714,14.247439 L79.89616,14.247439 L78.7235657,17.190439 L74.2327086,17.190439 L81.4253714,0.554487805 L85.9149029,0.554487805 L92.9385371,17.190439 L88.2786514,17.190439 Z M81.2086171,10.9257805 L85.8439771,10.9257805 L83.5491657,4.99236585 L81.2086171,10.9257805 Z"></path>
                            </g>
                            <path d="M11.5045486,27.8053902 C10.7561829,27.4010488 10.0151086,27.2001951 9.28265143,27.2001951 C8.43949714,27.2001951 7.67190857,27.4096098 6.97789714,27.8290976 C6.28454857,28.2485854 5.74034286,28.8248049 5.34130286,29.5610488 C4.9416,30.2959756 4.74340571,31.1145366 4.74340571,32.0167317 C4.74340571,32.9182683 4.94226286,33.7368293 5.34130286,34.4730732 C5.74034286,35.2093171 6.28454857,35.784878 6.97789714,36.2056829 C7.67190857,36.6238537 8.43883429,36.8345854 9.28265143,36.8345854 C9.96804571,36.8345854 10.6852571,36.6607317 11.43296,36.3130244 C12.1819886,35.964 12.8508114,35.4891951 13.4394286,34.8886098 L15.9947429,37.6182439 C15.0879543,38.565878 14.0088229,39.3225366 12.7593371,39.8842683 C11.5085257,40.446 10.2696457,40.7265366 9.04468571,40.7265366 C7.38754286,40.7265366 5.89014857,40.3472195 4.55449143,39.5872683 C3.21485714,38.8286341 2.16489143,37.791439 1.39995429,36.4776585 C0.635017143,35.1651951 0.253211429,33.6933659 0.253211429,32.0628293 C0.253211429,30.4513902 0.643634286,28.9947073 1.42315429,27.6973902 C2.20201143,26.4000732 3.27517714,25.3793415 4.63668571,24.6365122 C5.99819429,23.8917073 7.52276571,23.5202927 9.21238857,23.5202927 C10.4532571,23.5202927 11.6795429,23.778439 12.8905829,24.2920976 C14.10096,24.8064146 15.1277257,25.506439 15.9722057,26.3915122 L13.4394286,29.43 C12.8998629,28.7497317 12.2529143,28.2084146 11.5045486,27.8053902 Z" id="Shape"></path>
                            <path d="M39.5301486,24.6365122 C40.9075657,25.38 41.9906743,26.4007317 42.7788114,27.6973902 C43.5662857,28.9947073 43.9606857,30.4513902 43.9606857,32.0628293 C43.9606857,33.6940244 43.5662857,35.1651951 42.7788114,36.4776585 C41.9906743,37.791439 40.9075657,38.8279756 39.5301486,39.5872683 C38.1520686,40.3472195 36.6115886,40.7265366 34.90672,40.7265366 C33.20384,40.7265366 31.6626971,40.3511707 30.2846171,39.5984634 C28.9072,38.8477317 27.8240914,37.8111951 27.0359543,36.4895122 C26.24848,35.1684878 25.85408,33.6933659 25.85408,32.0621707 C25.85408,30.4507317 26.24848,28.9940488 27.0359543,27.6967317 C27.8240914,26.3994146 28.9072,25.3786829 30.2846171,24.6358537 C31.6626971,23.8910488 33.2031771,23.5196341 34.90672,23.5196341 C36.6109257,23.5202927 38.1520686,23.8917073 39.5301486,24.6365122 Z M32.6496914,27.8402927 C31.9410971,28.2670244 31.3789943,28.8564146 30.9666971,29.6064878 C30.5517486,30.3598537 30.3442743,31.1863171 30.3442743,32.0878537 C30.3442743,33.0051951 30.5550629,33.8421951 30.9779657,34.5922683 C31.4008686,35.3436585 31.9616457,35.9383171 32.6622857,36.3722927 C33.3616,36.8075854 34.1272,37.0242439 34.9551086,37.0242439 C35.78368,37.0242439 36.5433143,36.8075854 37.2373257,36.3722927 C37.9300114,35.9383171 38.47488,35.3436585 38.8725943,34.5922683 C39.2709714,33.8421951 39.4704914,33.0051951 39.4704914,32.0878537 C39.4704914,31.1869756 39.2703086,30.3598537 38.8725943,29.6064878 C38.47488,28.8564146 37.9300114,28.2676829 37.2373257,27.8402927 C36.5426514,27.413561 35.78368,27.1995366 34.9551086,27.1995366 C34.1265371,27.2001951 33.3589486,27.413561 32.6496914,27.8402927 Z" id="Shape"></path>
                            <path d="M63.59584,40.4183415 L61.1605029,35.8151707 L61.0643886,35.8151707 L57.9111771,35.8151707 L57.9111771,40.4183415 L53.5369829,40.4183415 L53.5369829,23.7810732 L61.0637257,23.7810732 C63.2770057,23.7810732 64.9938057,24.291439 66.2121371,25.3115122 C67.4304686,26.333561 68.0389714,27.7678537 68.0389714,29.6203171 C68.0389714,30.8689024 67.7844343,31.949561 67.2760229,32.859 C66.76496,33.768439 66.0258743,34.4770244 65.0528,34.9827805 L68.5414171,40.4183415 L63.59584,40.4183415 Z M57.91184,32.3492927 L61.0882514,32.3492927 C61.9817829,32.3492927 62.6698286,32.1280244 63.1543771,31.6841707 C63.6402514,31.2422927 63.8841829,30.6002195 63.8841829,29.7619024 C63.8841829,28.953878 63.6409143,28.3341951 63.1543771,27.899561 C62.6698286,27.4649268 61.98112,27.2469512 61.0882514,27.2469512 L57.91184,27.2469512 L57.91184,32.3492927 Z" id="Shape"></path>
                            <path d="M91.2369829,25.3121707 C92.4142171,26.3342195 93.0048229,27.7685122 93.0048229,29.6209756 C93.0048229,31.581439 92.4142171,33.1052927 91.2369829,34.1885854 C90.0570971,35.2725366 88.4019429,35.8158293 86.26688,35.8158293 L83.2826971,35.8158293 L83.2826971,40.419 L78.9098286,40.419 L78.9098286,23.7810732 L86.26688,23.7810732 C88.40128,23.7810732 90.0564343,24.2920976 91.2369829,25.3121707 Z M88.1189029,31.6841707 C88.6041143,31.2422927 88.8473829,30.6002195 88.8473829,29.7619024 C88.8473829,28.953878 88.6047771,28.3341951 88.1189029,27.899561 C87.6323657,27.4649268 86.94432,27.2469512 86.0514514,27.2469512 L83.2820343,27.2469512 L83.2820343,32.3492927 L86.0514514,32.3492927 C86.94432,32.3492927 87.6323657,32.1280244 88.1189029,31.6841707 Z" id="Shape"></path>
                            <path d="M111.16976,27.5077317 C110.158903,27.1771463 109.311109,27.009878 108.627703,27.009878 C108.08416,27.009878 107.659269,27.1086585 107.348389,27.3062195 C107.038171,27.504439 106.8824,27.792878 106.8824,28.1721951 C106.8824,28.5357073 107.018949,28.8406098 107.288731,29.0855854 C107.558514,29.331878 107.89392,29.529439 108.292297,29.6789268 C108.689349,29.8297317 109.279954,30.0226829 110.059474,30.2597561 C111.222126,30.5929756 112.181943,30.9261951 112.938263,31.2580976 C113.695246,31.59 114.34352,32.0997073 114.885737,32.7891951 C115.42464,33.4767073 115.6984,34.3742927 115.6984,35.4819512 C115.6984,36.5909268 115.402103,37.5346098 114.813486,38.3182683 C114.223543,39.1006098 113.41552,39.6906585 112.389417,40.0857805 C111.362651,40.4822195 110.21856,40.679122 108.96112,40.679122 C107.575749,40.679122 106.194354,40.4380976 104.816274,39.9560488 C103.43952,39.474 102.249029,38.8128293 101.245463,37.9745122 L102.941714,34.5804146 C103.785531,35.3239024 104.783131,35.9337073 105.939154,36.4065366 C107.093189,36.8813415 108.117303,37.1203902 109.010171,37.1203902 C109.662423,37.1203902 110.174149,37.0005366 110.549989,36.7628049 C110.92384,36.5263902 111.110103,36.1786829 111.110103,35.7183659 C111.110103,35.3397073 110.970903,35.0229512 110.692503,34.7694146 C110.414103,34.5171951 110.064114,34.3156829 109.641211,34.1642195 C109.220297,34.0140732 108.627703,33.8369268 107.86144,33.6301463 C106.71536,33.3147073 105.7688,32.994 105.019109,32.6693415 C104.270743,32.3446829 103.628434,31.8540732 103.09616,31.1981707 C102.56256,30.5422683 102.296091,29.6677317 102.296091,28.575878 C102.296091,27.5472439 102.570514,26.6450488 103.120023,25.8706098 C103.669531,25.0961707 104.449714,24.4982195 105.461234,24.0787317 C106.472091,23.6599024 107.646011,23.4498293 108.98432,23.4498293 C110.194697,23.4498293 111.38784,23.6210488 112.568389,23.9601951 C113.746286,24.3013171 114.780343,24.7550488 115.672549,25.3246829 L114.024686,28.7899024 C113.133806,28.2676829 112.181943,27.8402927 111.16976,27.5077317 Z" id="Shape"></path>
                            <g transform="translate(0.662857, 48.073171)" id="Shape">
                                <path d="M0.370537143,5.72136585 L0.370537143,0.123804878 L2.41744,0.123804878 C2.8768,0.123804878 3.28114286,0.198219512 3.62649143,0.344414634 C3.97250286,0.491926829 4.26349714,0.690804878 4.49616,0.944341463 C4.72816,1.19656098 4.90315429,1.4922439 5.01915429,1.83073171 C5.13515429,2.17053659 5.19414857,2.5307561 5.19414857,2.91468293 C5.19414857,3.34009756 5.12918857,3.72468293 4.99860571,4.0697561 C4.86934857,4.4135122 4.68242286,4.70787805 4.44048,4.95219512 C4.19654857,5.1965122 3.90422857,5.38682927 3.56285714,5.51985366 C3.22214857,5.65419512 2.83968,5.72136585 2.41677714,5.72136585 L0.370537143,5.72136585 Z M4.09181714,2.91534146 C4.09181714,2.64731707 4.05403429,2.40036585 3.98178286,2.1744878 C3.90754286,1.94795122 3.79949714,1.75368293 3.65632,1.59036585 C3.51314286,1.42770732 3.33682286,1.30192683 3.12802286,1.21236585 C2.91856,1.12280488 2.68192,1.07868293 2.41810286,1.07868293 L1.46557714,1.07868293 L1.46557714,4.76780488 L2.41810286,4.76780488 C2.68788571,4.76780488 2.92784,4.72104878 3.13664,4.62621951 C3.34477714,4.53204878 3.51910857,4.401 3.65963429,4.23504878 C3.79949714,4.07041463 3.90754286,3.87417073 3.98178286,3.64829268 C4.05403429,3.42307317 4.09181714,3.17743902 4.09181714,2.91534146 Z"></path>
                                <polygon points="13.3519314 4.76714634 13.3519314 5.72136585 9.44041143 5.72136585 9.44041143 0.123804878 13.2810057 0.123804878 13.2810057 1.07802439 10.5354514 1.07802439 10.5354514 2.42539024 12.90848 2.42539024 12.90848 3.30980488 10.5354514 3.30980488 10.5354514 4.76714634"></polygon>
                                <polygon points="18.2179657 0.123804878 19.7418743 4.35687805 21.2498743 0.123804878 22.3999314 0.123804878 20.2018971 5.72136585 19.2818514 5.72136585 17.0672457 0.123804878"></polygon>
                                <polygon points="30.2355657 4.76714634 30.2355657 5.72136585 26.3253714 5.72136585 26.3253714 0.123804878 30.1653029 0.123804878 30.1653029 1.07802439 27.4190857 1.07802439 27.4190857 2.42539024 29.7921143 2.42539024 29.7921143 3.30980488 27.4190857 3.30980488 27.4190857 4.76714634"></polygon>
                                <polygon points="34.5209371 5.72136585 34.5209371 0.123804878 35.6153143 0.123804878 35.6153143 4.76714634 38.4881371 4.76714634 38.4881371 5.72136585"></polygon>
                                <path d="M44.7614171,5.76021951 C44.34912,5.76021951 43.9739429,5.68053659 43.6385371,5.5205122 C43.3031314,5.3604878 43.0141257,5.14843902 42.7735086,4.88173171 C42.5328914,4.617 42.3472914,4.3127561 42.21472,3.97097561 C42.0814857,3.62853659 42.0152,3.28017073 42.0152,2.92258537 C42.0152,2.54985366 42.0861257,2.19226829 42.2253257,1.85114634 C42.3658514,1.50870732 42.5587429,1.20643902 42.8046629,0.944341463 C43.04992,0.682243902 43.3429029,0.472170732 43.68096,0.316756098 C44.0203429,0.162658537 44.3875657,0.0849512195 44.7839543,0.0849512195 C45.1916114,0.0849512195 45.5628114,0.167268293 45.89888,0.332560976 C46.2349486,0.497853659 46.5226286,0.715170732 46.7599314,0.983195122 C46.99856,1.25121951 47.18416,1.55480488 47.3154057,1.8972439 C47.4479771,2.23968293 47.5142629,2.58607317 47.5142629,2.93773171 C47.5142629,3.31046341 47.4453257,3.66673171 47.3081143,4.00653659 C47.17024,4.34568293 46.9793371,4.64465854 46.7367314,4.90478049 C46.4934629,5.16556098 46.2024686,5.37234146 45.8650743,5.5277561 C45.5256914,5.68382927 45.1584686,5.76021951 44.7614171,5.76021951 Z M43.1268114,2.92258537 C43.1268114,3.16426829 43.1632686,3.39870732 43.2381714,3.62392683 C43.3110857,3.84980488 43.4191314,4.04934146 43.5583314,4.22253659 C43.6988571,4.39639024 43.8712,4.536 44.0740343,4.64070732 C44.2788571,4.74607317 44.5101943,4.7987561 44.7687086,4.7987561 C45.0325257,4.7987561 45.26784,4.74409756 45.4713371,4.6367561 C45.6754971,4.52941463 45.8471771,4.38585366 45.98704,4.20739024 C46.1275657,4.02892683 46.23296,3.82807317 46.3038857,3.60417073 C46.3754743,3.38092683 46.4119314,3.15373171 46.4119314,2.92258537 C46.4119314,2.68090244 46.3728229,2.44646341 46.2972571,2.22058537 C46.2197029,1.99536585 46.1116571,1.79517073 45.9711314,1.62263415 C45.8306057,1.44812195 45.6589257,1.31114634 45.4560914,1.20841463 C45.2519314,1.10634146 45.0245714,1.05431707 44.7693714,1.05431707 C44.5055543,1.05431707 44.2695771,1.10831707 44.0640914,1.21631707 C43.85728,1.32431707 43.6856,1.46590244 43.5483886,1.64173171 C43.4098514,1.81756098 43.3064457,2.01709756 43.2341943,2.24034146 C43.1632686,2.46490244 43.1268114,2.69143902 43.1268114,2.92258537 Z"></path>
                                <path d="M51.7373257,5.72136585 L51.7373257,0.123804878 L54.1262629,0.123804878 C54.3847771,0.123804878 54.6247314,0.178463415 54.8434743,0.285146341 C55.06288,0.393804878 55.2524571,0.535390244 55.4115429,0.711219512 C55.5693029,0.88704878 55.6945829,1.08658537 55.7840686,1.3104878 C55.8735543,1.53373171 55.9186286,1.75829268 55.9186286,1.98417073 C55.9186286,2.21926829 55.8768686,2.4497561 55.7920229,2.67365854 C55.70784,2.8962439 55.5885257,3.09512195 55.4354057,3.26897561 C55.2822857,3.44217073 55.0973486,3.58178049 54.8799314,3.6864878 C54.6631771,3.79119512 54.4245486,3.84387805 54.1660343,3.84387805 L52.8330286,3.84387805 L52.8330286,5.72070732 L51.7373257,5.72070732 L51.7373257,5.72136585 Z M52.8323657,2.89163415 L54.1017371,2.89163415 C54.3025829,2.89163415 54.4709486,2.80997561 54.6048457,2.64731707 C54.7400686,2.48465854 54.80768,2.26339024 54.80768,1.9854878 C54.80768,1.8432439 54.7877943,1.71614634 54.7447086,1.60287805 C54.7022857,1.48895122 54.6472686,1.39478049 54.5776686,1.31509756 C54.5087314,1.23673171 54.4272,1.17614634 54.3357257,1.13663415 C54.2429257,1.09712195 54.1494629,1.07802439 54.0546743,1.07802439 L52.8323657,1.07802439 L52.8323657,2.89163415 Z"></path>
                                <polygon points="64.5848229 5.72136585 64.5848229 2.01578049 63.1331657 4.77570732 62.5385829 4.77570732 61.0869257 2.01578049 61.0869257 5.72136585 59.9925486 5.72136585 59.9925486 0.123804878 61.1664686 0.123804878 62.8335543 3.30980488 64.5158857 0.123804878 65.6825143 0.123804878 65.6825143 5.72136585"></polygon>
                                <polygon points="74.1505143 4.76714634 74.1505143 5.72136585 70.2389943 5.72136585 70.2389943 0.123804878 74.0795886 0.123804878 74.0795886 1.07802439 71.3340343 1.07802439 71.3340343 2.42539024 73.7064 2.42539024 73.7064 3.30980488 71.3340343 3.30980488 71.3340343 4.76714634"></polygon>
                                <polygon points="79.5302629 2.13431707 79.5302629 5.72136585 78.4358857 5.72136585 78.4358857 0.123804878 79.2850057 0.123804878 82.2214629 3.79778049 82.2214629 0.132365854 83.3151771 0.132365854 83.3151771 5.72136585 82.4269486 5.72136585"></polygon>
                                <polygon points="91.9813714 1.07868293 90.1797257 1.07868293 90.1797257 5.72202439 89.09264 5.72202439 89.09264 1.07868293 87.2896686 1.07868293 87.2896686 0.124463415 91.9807086 0.124463415 91.9807086 1.07868293"></polygon>
                            </g>
                        </g>
                        <g id="Group" fill="#EF4136">
                            <rect id="Rectangle-path" x="14.0300598" y="30.2332818" width="29.8017409" height="3.76348182"></rect>
                            <polygon id="Shape" points="16.9174671 36.8776091 16.9174671 48.9013727 20.6361179 48.9013727 20.6361179 43.1363636 24.4119582 48.9013727 27.9025158 48.9013727 27.9025158 36.8776091 24.1832 36.8776091 24.1832 42.6432818 20.4100196 36.8776091"></polygon>
                            <path d="M54.4437873,36.1456182 C52.2167197,36.1456182 50.404609,34.3372091 50.404609,32.1146909 C50.404609,29.8921727 52.2167197,28.0844273 54.4437873,28.0844273 C55.9533254,28.0844273 57.3198897,28.9279091 58.0108192,30.2332818 L61.9269735,30.2332818 C61.0691302,26.8381182 57.9822245,24.4065545 54.4437873,24.4065545 C50.1851607,24.4065545 46.7198729,27.8641 46.7198729,32.1146909 C46.7198729,36.3659455 50.1851607,39.8241545 54.4437873,39.8241545 C57.9895394,39.8241545 61.0824301,37.3819727 61.9329584,33.9761909 L58.0207941,33.9761909 C57.3331896,35.2928455 55.9606403,36.1456182 54.4437873,36.1456182 Z" id="Shape"></path>
                            <path d="M70.9329977,2.73949091 L70.9329977,70.5637909 L2.96920167,70.5637909 L2.96920167,2.73949091 L70.9329977,2.73949091 Z M73.2418596,0.434681818 L0.660339812,0.434681818 L0.660339812,72.8679364 L73.2418596,72.8679364 L73.2418596,0.434681818 Z" id="Shape"></path>
                        </g>
                    </g>
                </g>
            </g>
        </g>
    </g>
</svg>