<?xml version="1.0" encoding="UTF-8" standalone="no"?>
<svg width="166px" height="58px" viewBox="0 0 166 58" version="1.1" xmlns="http://www.w3.org/2000/svg" xmlns:xlink="http://www.w3.org/1999/xlink">
    <!-- Generator: Sketch 50.2 (55047) - http://www.bohemiancoding.com/sketch -->
    <title>Stopka - logo</title>
    <desc>Created with Sketch.</desc>
    <defs></defs>
    <g id="Page-1" stroke="none" stroke-width="1" fill="none" fill-rule="evenodd">
        <g id="Nova-Corps---Mobile" transform="translate(-25.000000, -4213.000000)" fill="#FFFFFF">
            <g id="stopka" transform="translate(0.000000, 4157.000000)">
                <g id="Stopka---logo" transform="translate(25.000000, 56.000000)">
                    <g id="logo">
                        <g id="Group" transform="translate(75.000000, 7.000000)" fill-rule="nonzero">
                            <g transform="translate(0.519334, 0.000000)" id="Shape">
                                <polygon points="9.25556697 0.440963505 12.4375252 0.440963505 12.4375252 13.6552222 9.44252714 13.6552222 3.4909618 5.75658764 3.4909618 13.6552222 0.28978826 13.6552222 0.28978826 0.440963505 3.30296296 0.440963505 9.27322432 8.39556852"></polygon>
                                <path d="M30.2833925,1.11836296 C31.3630875,1.70945283 32.2111596,2.52076291 32.8286474,3.55072393 C33.445616,4.58173113 33.7551389,5.73723337 33.7551389,7.01827681 C33.7551389,8.31396673 33.445616,9.48254618 32.8286474,10.5255844 C32.2111596,11.5686226 31.3630875,12.3919638 30.2833925,12.9950847 C29.2042169,13.5987286 27.9967658,13.9000276 26.6610392,13.9000276 C25.3263514,13.9000276 24.1189003,13.6018672 23.040244,13.0045002 C21.9600297,12.4076564 21.1119576,11.5848384 20.4934311,10.535 C19.8769818,9.48516162 19.5684976,8.31344364 19.5684976,7.01775372 C19.5684976,5.73671028 19.8775012,4.58120804 20.4934311,3.55020084 C21.1119576,2.51971673 21.9600297,1.70840665 23.040244,1.11783987 C24.1189003,0.527273088 25.3258321,0.233297418 26.6610392,0.233297418 C27.9962464,0.233297418 29.2036975,0.527796177 30.2833925,1.11836296 Z M24.893227,3.66318793 C24.3375398,4.00267229 23.8976641,4.47031331 23.5730805,5.06820333 C23.2484969,5.66609335 23.0864647,6.32152309 23.0864647,7.03920035 C23.0864647,7.76786246 23.2516129,8.43061544 23.5824285,9.02745929 C23.9137635,9.62430313 24.3536392,10.0956058 24.9015363,10.4413672 C25.4509915,10.7871286 26.0497834,10.9592247 26.6984313,10.9592247 C27.3470792,10.9592247 27.9427551,10.7871286 28.4859782,10.4413672 C29.0292014,10.0956058 29.4560938,9.62430313 29.7682134,9.02745929 C30.0798137,8.43061544 30.2361331,7.76786246 30.2361331,7.03920035 C30.2361331,6.32204618 30.0792943,5.66609335 29.7682134,5.06820333 C29.4560938,4.47031331 29.0292014,4.00319538 28.4859782,3.66318793 C27.9427551,3.32422666 27.3470792,3.15474603 26.6984313,3.15474603 C26.0497834,3.15474603 25.4473562,3.32370357 24.893227,3.66318793 Z"></path>
                                <polygon points="39.4620981 0.440963505 43.1504067 0.440963505 46.4248063 9.99778823 49.7189406 0.440963505 53.2379464 0.440963505 48.1095252 13.6552222 44.5531273 13.6552222"></polygon>
                                <path d="M69.164356,13.6546991 L68.2664279,11.3170171 L62.5968608,11.3170171 L61.6781593,13.6546991 L58.1596728,13.6546991 L63.7949639,0.440440417 L67.3124117,0.440440417 L72.8152727,13.6546991 L69.164356,13.6546991 Z M63.6251417,8.67855933 L67.256843,8.67855933 L65.4589094,3.96553302 L63.6251417,8.67855933 Z"></path>
                            </g>
                            <path d="M9.01355742,22.0863607 C8.42722956,21.7651845 7.84661437,21.6056425 7.27275052,21.6056425 C6.61215793,21.6056425 6.01076939,21.7719846 5.4670269,22.1051919 C4.92380375,22.4383992 4.4974307,22.8961015 4.18479175,23.4809143 C3.87163347,24.064681 3.71635267,24.7148798 3.71635267,25.4315109 C3.71635267,26.1476189 3.87215281,26.7978178 4.18479175,27.3826306 C4.4974307,27.9674434 4.92380375,28.4246226 5.4670269,28.7588761 C6.01076939,29.0910372 6.6116386,29.2584255 7.27275052,29.2584255 C7.80974167,29.2584255 8.37166084,29.1203302 8.95746937,28.8441395 C9.54431656,28.5669027 10.0683244,28.189756 10.5294928,27.7126994 L12.5315246,29.8809007 C11.8210759,30.6336249 10.9756005,31.2346534 9.9966563,31.6808478 C9.01667342,32.1270422 8.04603855,32.3498779 7.08630969,32.3498779 C5.78797519,32.3498779 4.61480014,32.0485789 3.56834253,31.444935 C2.51876893,30.8423371 1.69614419,30.0184729 1.09683298,28.9749116 C0.49752178,27.9323965 0.198385511,26.7632939 0.198385511,25.4681271 C0.198385511,24.1881298 0.504273119,23.0310583 1.11500967,22.0005742 C1.72522688,20.9700901 2.5660283,20.1593031 3.63273993,19.5692594 C4.69945155,18.9776465 5.89391929,18.6826246 7.21770114,18.6826246 C8.18989401,18.6826246 9.15066154,18.8876753 10.0994844,19.2956842 C11.0477879,19.7042162 11.852236,20.2602592 12.5138672,20.96329 L10.5294928,23.3768198 C10.1067551,22.8364695 9.59988528,22.4064908 9.01355742,22.0863607 Z" id="Shape"></path>
                            <path d="M30.9709904,19.5692594 C32.0501661,20.1598262 32.8987575,20.9706132 33.5162454,22.0005742 C34.133214,23.0310583 34.4422176,24.1881298 34.4422176,25.4681271 C34.4422176,26.763817 34.133214,27.9323965 33.5162454,28.9749116 C32.8987575,30.0184729 32.0501661,30.8418141 30.9709904,31.444935 C29.8912955,32.0485789 28.6843637,32.3498779 27.3486372,32.3498779 C26.0144687,32.3498779 24.8070176,32.0517175 23.7273226,31.4538275 C22.648147,30.8575067 21.7995556,30.0341656 21.1820677,28.9843272 C20.5650991,27.9350119 20.2560955,26.7632939 20.2560955,25.467604 C20.2560955,24.1876068 20.5650991,23.0305353 21.1820677,22.0000511 C21.7995556,20.969567 22.648147,20.15878 23.7273226,19.5687363 C24.8070176,18.9771234 26.0139493,18.6821015 27.3486372,18.6821015 C28.6838444,18.6826246 29.8912955,18.9776465 30.9709904,19.5692594 Z M25.5803056,22.1140844 C25.0251378,22.4530457 24.5847427,22.9212098 24.2617171,23.5170074 C23.9366141,24.1154206 23.7740627,24.7718965 23.7740627,25.4880045 C23.7740627,26.2166666 23.9392108,26.8815119 24.2705458,27.4773096 C24.6018807,28.0741534 25.0412371,28.5465022 25.590173,28.8912175 C26.1380701,29.2369789 26.7379007,29.409075 27.3865486,29.409075 C28.0357158,29.409075 28.6308724,29.2369789 29.1746148,28.8912175 C29.7173187,28.5465022 30.144211,28.0741534 30.4558113,27.4773096 C30.7679309,26.8815119 30.9242504,26.2166666 30.9242504,25.4880045 C30.9242504,24.7724196 30.7674116,24.1154206 30.4558113,23.5170074 C30.144211,22.9212098 29.7173187,22.4535688 29.1746148,22.1140844 C28.630353,21.7751231 28.0357158,21.6051194 27.3865486,21.6051194 C26.7373813,21.6056425 26.1359928,21.7751231 25.5803056,22.1140844 Z" id="Shape"></path>
                            <path d="M49.8259234,32.1050725 L47.917891,28.4486847 L47.8425876,28.4486847 L45.3721167,28.4486847 L45.3721167,32.1050725 L41.945033,32.1050725 L41.945033,18.8897676 L47.8420683,18.8897676 C49.5761238,18.8897676 50.9211983,19.2951611 51.8757339,20.105425 C52.8302694,20.9172582 53.3070178,22.0565447 53.3070178,23.5279923 C53.3070178,24.5197679 53.1075936,25.3781559 52.7092646,26.100541 C52.3088583,26.822926 51.7298011,27.3857691 50.9674191,27.787501 L53.7006728,32.1050725 L49.8259234,32.1050725 Z M45.372636,25.6956706 L47.8612836,25.6956706 C48.5613456,25.6956706 49.100414,25.5199129 49.4800471,25.1673513 C49.8607187,24.816359 50.0518336,24.3063478 50.0518336,23.6404563 C50.0518336,22.9986269 49.8612381,22.5064007 49.4800471,22.1611624 C49.100414,21.815924 48.5608262,21.6427818 47.8612836,21.6427818 L45.372636,21.6427818 L45.372636,25.6956706 Z" id="Shape"></path>
                            <path d="M71.4821428,20.1059481 C72.4044796,20.9177813 72.867206,22.0570678 72.867206,23.5285154 C72.867206,25.0857495 72.4044796,26.296176 71.4821428,27.1566564 C70.5577286,28.0176599 69.2609521,28.4492078 67.588178,28.4492078 L65.2501372,28.4492078 L65.2501372,32.1055956 L61.8240921,32.1055956 L61.8240921,18.8897676 L67.588178,18.8897676 C69.2604328,18.8897676 70.5572093,19.2956842 71.4821428,20.1059481 Z M69.0391966,25.1673513 C69.4193489,24.816359 69.6099444,24.3063478 69.6099444,23.6404563 C69.6099444,22.9986269 69.4198683,22.5064007 69.0391966,22.1611624 C68.6580056,21.815924 68.1189371,21.6427818 67.4193945,21.6427818 L65.2496179,21.6427818 L65.2496179,25.6956706 L67.4193945,25.6956706 C68.1189371,25.6956706 68.6580056,25.5199129 69.0391966,25.1673513 Z" id="Shape"></path>
                            <path d="M87.0990295,21.8499248 C86.3070454,21.5873344 85.6428175,21.45447 85.1073843,21.45447 C84.6815306,21.45447 84.3486377,21.5329332 84.1050701,21.6898597 C83.8620219,21.8473093 83.7399785,22.076422 83.7399785,22.377721 C83.7399785,22.6664657 83.8469612,22.9086557 84.0583301,23.1032445 C84.2696989,23.2988796 84.5324818,23.4558061 84.8446014,23.5745472 C85.1556824,23.6943344 85.6184088,23.8475993 86.2291454,24.0359111 C87.1400568,24.3005938 87.8920522,24.5652766 88.484612,24.8289131 C89.0776912,25.0925497 89.5855997,25.4974201 90.0104147,26.0450936 C90.4326331,26.5911979 90.647118,27.3041673 90.647118,28.184002 C90.647118,29.0648828 90.4149758,29.8144685 89.9538074,30.4369436 C89.4916003,31.0583726 88.8585324,31.5270598 88.0546037,31.8409129 C87.2501556,32.1558121 86.3537855,32.3122155 85.3686092,32.3122155 C84.2832016,32.3122155 83.20091,32.1207651 82.121215,31.7378644 C81.0425587,31.3549638 80.1098352,30.829783 79.3235638,30.1638915 L80.652539,27.467894 C81.3136509,28.0584608 82.0952483,28.5428406 83.0009665,28.9184181 C83.9051266,29.2955648 84.7074973,29.4854459 85.4070399,29.4854459 C85.9180644,29.4854459 86.3189901,29.3902438 86.6134524,29.2014089 C86.9063566,29.0136202 87.0522894,28.7374295 87.0522894,28.3717907 C87.0522894,28.0710149 86.9432293,27.8194094 86.7251091,27.6180204 C86.5069889,27.4176775 86.2327807,27.2576125 85.9014457,27.1373021 C85.5716688,27.018038 85.1073843,26.8773272 84.5070345,26.7130775 C83.6091063,26.4625181 82.8674977,26.2077741 82.2801311,25.9498915 C81.6938033,25.6920089 81.1905688,25.3023081 80.7735438,24.7813121 C80.3554801,24.260316 80.1467079,23.5656547 80.1467079,22.6983741 C80.1467079,21.8813101 80.3617121,21.164679 80.7922398,20.5495271 C81.2227675,19.9343751 81.8340234,19.4594109 82.6265268,19.1262036 C83.4185108,18.7935194 84.338251,18.6266542 85.3867859,18.6266542 C86.3350894,18.6266542 87.2698903,18.7626571 88.1948238,19.0320477 C89.1176799,19.3030074 89.9278407,19.6634153 90.626864,20.1158868 L89.3358001,22.8683779 C88.6378155,22.4535688 87.8920522,22.1140844 87.0990295,21.8499248 Z" id="Shape"></path>
                            <g transform="translate(0.519334, 38.185452)" id="Shape">
                                <path d="M0.290307594,4.54459186 L0.290307594,0.0983406157 L1.89401037,0.0983406157 C2.25390869,0.0983406157 2.57070231,0.157449603 2.84127522,0.273575223 C3.11236746,0.390747021 3.340355,0.548719712 3.52264116,0.750108739 C3.70440799,0.950451589 3.84151211,1.18531827 3.93239553,1.4541857 C4.02327894,1.7240993 4.06949965,2.01022865 4.06949965,2.31518918 C4.06949965,2.65310427 4.01860494,2.95858788 3.91629618,3.2326862 C3.81502609,3.50573833 3.66857396,3.73955884 3.47901712,3.93362463 C3.28790228,4.12769042 3.05887608,4.27886296 2.79141917,4.38452681 C2.5244816,4.49123684 2.224826,4.54459186 1.89349103,4.54459186 L0.290307594,4.54459186 Z M3.20584754,2.31571226 C3.20584754,2.10281529 3.17624552,1.90665715 3.11963813,1.72723784 C3.06147275,1.54729543 2.97682134,1.39298436 2.86464524,1.26325844 C2.75246914,1.13405561 2.61432635,1.03414573 2.4507362,0.96300571 C2.28662672,0.89186569 2.10122455,0.856818769 1.8945297,0.856818769 L1.14824703,0.856818769 L1.14824703,3.78715988 L1.8945297,3.78715988 C2.10589856,3.78715988 2.29389739,3.75002061 2.45748754,3.67469588 C2.62055835,3.59989424 2.75714314,3.49579965 2.86724191,3.36398138 C2.97682134,3.23320929 3.06147275,3.07732895 3.11963813,2.89790963 C3.17624552,2.71901341 3.20584754,2.52390144 3.20584754,2.31571226 Z"></path>
                                <polygon points="10.4609407 3.78663679 10.4609407 4.54459186 7.39635197 4.54459186 7.39635197 0.0983406157 10.405372 0.0983406157 10.405372 0.85629568 8.2542914 0.85629568 8.2542914 1.92653451 10.1135064 1.92653451 10.1135064 2.6290422 8.2542914 2.6290422 8.2542914 3.78663679"></polygon>
                                <polygon points="14.2733701 0.0983406157 15.4673185 3.46075273 16.6488029 0.0983406157 17.5498471 0.0983406157 15.8277362 4.54459186 15.1069009 4.54459186 13.3718067 0.0983406157"></polygon>
                                <polygon points="23.6888919 3.78663679 23.6888919 4.54459186 20.6253418 4.54459186 20.6253418 0.0983406157 23.6338425 0.0983406157 23.6338425 0.85629568 21.4822426 0.85629568 21.4822426 1.92653451 23.3414576 1.92653451 23.3414576 2.6290422 21.4822426 2.6290422 21.4822426 3.78663679"></polygon>
                                <polygon points="27.0463849 4.54459186 27.0463849 0.0983406157 27.903805 0.0983406157 27.903805 3.78663679 30.1545977 3.78663679 30.1545977 4.54459186"></polygon>
                                <path d="M35.0695728,4.57545407 C34.7465472,4.57545407 34.4526042,4.51216038 34.1898213,4.3850499 C33.9270384,4.25793942 33.7006089,4.08950497 33.5120907,3.87765417 C33.3235726,3.66737264 33.1781591,3.42570581 33.0742923,3.15422294 C32.9699062,2.88221698 32.9179729,2.60550323 32.9179729,2.32146624 C32.9179729,2.02539821 32.9735416,1.74136122 33.0826017,1.47040144 C33.1927004,1.19839548 33.3438266,0.958297915 33.5364994,0.750108739 C33.7286529,0.541919563 33.9581985,0.375054369 34.2230587,0.251605511 C34.4889576,0.12920283 34.7766685,0.0674784012 35.0872301,0.0674784012 C35.4066204,0.0674784012 35.6974474,0.132864449 35.9607496,0.264159633 C36.2240518,0.395454816 36.4494427,0.568073982 36.6353642,0.780970953 C36.8223244,0.993867925 36.9677378,1.23501167 37.0705659,1.50701763 C37.1744327,1.77902358 37.2263661,2.05416807 37.2263661,2.33349727 C37.2263661,2.62956529 37.1723553,2.91255611 37.0648532,3.18246971 C36.9568318,3.45186023 36.8072637,3.68934235 36.6171875,3.89596226 C36.426592,4.10310526 36.1986045,4.26735501 35.9342636,4.39080387 C35.6683647,4.51477582 35.3806537,4.57545407 35.0695728,4.57545407 Z M33.7888956,2.32146624 C33.7888956,2.51343967 33.817459,2.69965914 33.8761437,2.87855536 C33.9332704,3.05797468 34.0179218,3.21647046 34.1269819,3.3540427 C34.2370807,3.49213803 34.3721075,3.60303277 34.5310236,3.68620382 C34.6914978,3.76989796 34.8727453,3.81174503 35.0752855,3.81174503 C35.2819803,3.81174503 35.4663438,3.7683287 35.6257793,3.68306529 C35.7857341,3.59780189 35.9202416,3.48376862 36.029821,3.34201167 C36.1399198,3.20025472 36.2224938,3.04071276 36.2780625,2.86286271 C36.3341506,2.68553575 36.362714,2.50507026 36.362714,2.32146624 C36.362714,2.1294928 36.3320733,1.94327334 36.2728692,1.76385402 C36.2121072,1.5849578 36.1274557,1.42593893 36.017357,1.28888977 C35.9072582,1.15027135 35.7727508,1.04146897 35.6138346,0.95986718 C35.4538798,0.878788481 35.2757483,0.837464499 35.0758048,0.837464499 C34.8691099,0.837464499 34.6842271,0.880357746 34.5232336,0.96614424 C34.3612015,1.05193073 34.226694,1.16439474 34.1191919,1.30405933 C34.0106512,1.44372393 33.9296351,1.60221971 33.8730277,1.77954667 C33.817459,1.95791981 33.7888956,2.13786221 33.7888956,2.32146624 Z"></path>
                                <path d="M40.5350417,4.54459186 L40.5350417,0.0983406157 L42.4067207,0.0983406157 C42.6092609,0.0983406157 42.7972597,0.141756951 42.9686399,0.226497269 C43.1405394,0.312806852 43.2890688,0.425270854 43.4137089,0.564935452 C43.5373104,0.70460005 43.6354645,0.863095829 43.7055745,1.04094588 C43.7756846,1.21827284 43.8109993,1.39664598 43.8109993,1.57606529 C43.8109993,1.76280785 43.7782813,1.94588878 43.7118065,2.12373883 C43.6458512,2.3005427 43.5523711,2.45851539 43.432405,2.59661072 C43.3124389,2.73418297 43.1675447,2.84507771 42.9972032,2.92824876 C42.8273811,3.01141981 42.6404209,3.05326688 42.4378807,3.05326688 L41.3935005,3.05326688 L41.3935005,4.54406877 L40.5350417,4.54406877 L40.5350417,4.54459186 Z M41.3929811,2.29688108 L42.3875054,2.29688108 C42.5448635,2.29688108 42.6767743,2.23201812 42.7816797,2.10281529 C42.8876238,1.97361246 42.9405959,1.79785477 42.9405959,1.57711147 C42.9405959,1.46412438 42.9250158,1.36316832 42.8912591,1.27319712 C42.8580218,1.18270283 42.8149171,1.10790119 42.760387,1.0446075 C42.7063763,0.98235998 42.6424983,0.934235849 42.5708302,0.902850546 C42.4981235,0.871465243 42.4248974,0.85629568 42.3506327,0.85629568 L41.3929811,0.85629568 L41.3929811,2.29688108 Z"></path>
                                <polygon points="50.6007694 4.54459186 50.6007694 1.60117354 49.4634284 3.79343694 48.997586 3.79343694 47.8602449 1.60117354 47.8602449 4.54459186 47.0028248 4.54459186 47.0028248 0.0983406157 47.922565 0.0983406157 49.2286895 2.6290422 50.5467587 0.0983406157 51.4607862 0.0983406157 51.4607862 4.54459186"></polygon>
                                <polygon points="58.0952754 3.78663679 58.0952754 4.54459186 55.0306867 4.54459186 55.0306867 0.0983406157 58.0397067 0.0983406157 58.0397067 0.85629568 55.8886261 0.85629568 55.8886261 1.92653451 57.7473218 1.92653451 57.7473218 2.6290422 55.8886261 2.6290422 55.8886261 3.78663679"></polygon>
                                <polygon points="62.3101886 1.69532944 62.3101886 4.54459186 61.4527685 4.54459186 61.4527685 0.0983406157 62.1180351 0.0983406157 64.4186838 3.0166507 64.4186838 0.105140765 65.2755846 0.105140765 65.2755846 4.54459186 64.5796773 4.54459186"></polygon>
                                <polygon points="72.0653546 0.856818769 70.6538054 0.856818769 70.6538054 4.54511495 69.802098 4.54511495 69.802098 0.856818769 68.38951 0.856818769 68.38951 0.0988637041 72.0648353 0.0988637041 72.0648353 0.856818769"></polygon>
                            </g>
                        </g>
                        <g id="Group" fill-rule="nonzero">
                            <rect id="Rectangle-path" x="11.0914754" y="23.9498694" width="23.559791" height="2.98131373"></rect>
                            <polygon id="Shape" points="13.3741176 29.2132997 13.3741176 38.7381528 16.3139001 38.7381528 16.3139001 34.1712912 19.2988938 38.7381528 22.058357 38.7381528 22.058357 29.2132997 19.1180488 29.2132997 19.1180488 33.780687 16.135158 29.2132997"></polygon>
                            <path d="M43.0405812,28.6334391 C41.2799711,28.6334391 39.8474055,27.2008735 39.8474055,25.4402634 C39.8474055,23.6796533 41.2799711,22.2476134 43.0405812,22.2476134 C44.2339478,22.2476134 45.3142863,22.9157936 45.8605013,23.9498694 L48.9564203,23.9498694 C48.2782516,21.2603259 45.8378957,19.3341165 43.0405812,19.3341165 C39.6739205,19.3341165 36.9344343,22.073077 36.9344343,25.4402634 C36.9344343,28.8079756 39.6739205,31.5474617 43.0405812,31.5474617 C45.8436785,31.5474617 48.2887658,29.6128409 48.9611517,26.9148861 L45.868387,26.9148861 C45.3248006,27.957899 44.2397307,28.6334391 43.0405812,28.6334391 Z" id="Shape"></path>
                            <path d="M56.0761402,2.17013984 L56.0761402,55.8984495 L2.34730485,55.8984495 L2.34730485,2.17013984 L56.0761402,2.17013984 Z M57.9014129,0.344341472 L0.522032186,0.344341472 L0.522032186,57.7237222 L57.9014129,57.7237222 L57.9014129,0.344341472 Z" id="Shape"></path>
                        </g>
                    </g>
                </g>
            </g>
        </g>
    </g>
</svg>