<?xml version="1.0" encoding="UTF-8" standalone="no"?>
<svg width="160px" height="55px" viewBox="0 0 160 55" version="1.1" xmlns="http://www.w3.org/2000/svg" xmlns:xlink="http://www.w3.org/1999/xlink">
    <!-- Generator: Sketch 50.2 (55047) - http://www.bohemiancoding.com/sketch -->
    <title>Novacorps - logo do menu</title>
    <desc>Created with Sketch.</desc>
    <defs>
        <polygon id="path-1" points="0.238938836 0.282662207 11.1425202 0.282662207 11.1425202 13.2419548 0.238938836 13.2419548"></polygon>
    </defs>
    <g id="Page-1" stroke="none" stroke-width="1" fill="none" fill-rule="evenodd" opacity="0.900000036">
        <g id="Nova-Corps---Mobile" transform="translate(-25.000000, -3126.000000)">
            <g id="kontakt" transform="translate(0.000000, 2872.000000)">
                <g id="Dane-kontaktkowe" transform="translate(25.000000, 185.000000)">
                    <g id="Novacorps---logo-do-menu" transform="translate(0.000000, 69.000000)">
                        <g id="Group-48">
                            <path d="M41.1997819,26.9477329 C39.5249526,26.9477329 38.1622545,25.5984873 38.1622545,23.9392335 C38.1622545,22.2804097 39.5249526,20.9311642 41.1997819,20.9311642 C42.3345677,20.9311642 43.3625603,21.5602101 43.8826343,22.5349519 L46.8276944,22.5349519 C46.1825943,20.0007093 43.8609284,18.1858064 41.1997819,18.1858064 C37.9972895,18.1858064 35.3908419,20.7664857 35.3908419,23.9392335 C35.3908419,27.1119814 37.9972895,29.6930906 41.1997819,29.6930906 C43.866572,29.6930906 46.1921449,27.8708782 46.8320356,25.3284663 L43.8895802,25.3284663 C43.3725451,26.3118074 42.3406453,26.9477329 41.1997819,26.9477329" id="Fill-3" fill="#E5332A"></path>
                            <polygon id="Fill-5" fill="#1D1D1B" points="81.1840516 7.32132715 84.2480601 7.32132715 84.2480601 19.8347409 81.3642107 19.8347409 75.632978 12.3549847 75.632978 19.8347409 72.5503023 19.8347409 72.5503023 7.32132715 75.4523847 7.32132715 81.2014163 14.8539697"></polygon>
                            <path d="M96.2418867,10.3733394 C95.7074868,10.694527 95.283353,11.1373959 94.9712218,11.7028064 C94.6582223,12.2690767 94.5028079,12.8903832 94.5028079,13.5688757 C94.5028079,14.2589774 94.6616953,14.8867334 94.9803383,15.4517138 C95.2994154,16.0166943 95.7231151,16.463433 96.2505691,16.7906401 C96.7793254,17.1182771 97.356269,17.2812357 97.9809655,17.2812357 C98.6056621,17.2812357 99.1795668,17.1182771 99.7026796,16.7906401 C100.225358,16.463433 100.636469,16.0166943 100.936879,15.4517138 C101.236854,14.8867334 101.387928,14.2589774 101.387928,13.5688757 C101.387928,12.8903832 101.236854,12.2690767 100.936879,11.7028064 C100.636469,11.1373959 100.225358,10.694527 99.7026796,10.3733394 C99.1795668,10.051722 98.6056621,9.89134319 97.9809655,9.89134319 C97.356269,9.89134319 96.7762866,10.051722 96.2418867,10.3733394 M101.433076,7.96292823 C102.472356,8.52274903 103.288499,9.29067526 103.884109,10.2667069 C104.478417,11.2423086 104.775789,12.3370119 104.775789,13.549957 C104.775789,14.7766611 104.478417,15.8829736 103.884109,16.8710445 C103.288499,17.8586853 102.472356,18.6382207 101.433076,19.2092207 C100.393362,19.7806507 99.2307928,20.0661507 97.9444996,20.0661507 C96.6595087,20.0661507 95.4965052,19.7840905 94.4580937,19.2182501 C93.4179457,18.6536996 92.6013688,17.8741642 92.0057581,16.8800738 C91.4123181,15.8864134 91.1145128,14.7766611 91.1145128,13.549957 C91.1145128,12.3370119 91.4123181,11.2423086 92.0057581,10.2667069 C92.6013688,9.29067526 93.4179457,8.52274903 94.4580937,7.96292823 C95.4965052,7.4035374 96.6595087,7.12491691 97.9444996,7.12491691 C99.2307928,7.12491691 100.393362,7.4035374 101.433076,7.96292823" id="Fill-7" fill="#1D1D1B"></path>
                            <polygon id="Fill-9" fill="#1D1D1B" points="110.271903 7.32132715 113.823427 7.32132715 116.976863 16.3709035 120.148533 7.32132715 123.537697 7.32132715 118.59873 19.8347409 115.173969 19.8347409"></polygon>
                            <path d="M133.539831,15.1218839 L137.037524,15.1218839 L135.306259,10.6592264 L133.539831,15.1218839 Z M138.874279,19.834354 L138.009515,17.620439 L132.549607,17.620439 L131.665307,19.834354 L128.276578,19.834354 L133.70306,7.32137015 L137.090921,7.32137015 L142.389771,19.834354 L138.874279,19.834354 Z" id="Fill-11" fill="#1D1D1B"></path>
                            <path d="M80.4512595,27.8177769 C79.8860372,27.5133583 79.3273266,27.3624388 78.7746937,27.3624388 C78.138276,27.3624388 77.5591619,27.5202378 77.0356149,27.8358357 C76.5129362,28.1510036 76.1022601,28.5848432 75.8009818,29.1386445 C75.5001377,29.6915857 75.3503668,30.3073026 75.3503668,30.9862251 C75.3503668,31.6638576 75.5001377,32.2795745 75.8009818,32.8338057 C76.1022601,33.387177 76.5129362,33.8205866 77.0356149,34.1370445 C77.5591619,34.4513524 78.138276,34.6095814 78.7746937,34.6095814 C79.292163,34.6095814 79.8330747,34.4788705 80.3969947,34.2174488 C80.9626511,33.9551672 81.4662286,33.5982922 81.9112001,33.1459639 L83.8395546,35.1990701 C83.1553838,35.9123901 82.3405433,36.4808103 81.398072,36.9034707 C80.4547324,37.3261311 79.5200752,37.5372464 78.5954028,37.5372464 C77.3451414,37.5372464 76.215565,37.2517464 75.2075418,36.6803164 C74.197348,36.1088864 73.4042135,35.3297809 72.8277041,34.3412802 C72.2507605,33.3536393 71.9625058,32.2473268 71.9625058,31.0210526 C71.9625058,29.8081076 72.2572723,28.7129743 72.8450688,27.7369426 C73.4328653,26.7613409 74.2424963,25.9938447 75.2696208,25.4348838 C76.2967452,24.874633 77.4471593,24.5951526 78.7217313,24.5951526 C79.6581249,24.5951526 80.5832315,24.7886391 81.497051,25.175182 C82.4104364,25.5625849 83.1849038,26.088438 83.8221898,26.7544614 L81.9112001,29.0406113 C81.5031287,28.5285172 81.0156136,28.1213357 80.4512595,27.8177769" id="Fill-13" fill="#1D1D1B"></path>
                            <path d="M96.40403,27.8444351 C95.869196,28.1660526 95.4454963,28.6089215 95.1342333,29.173042 C94.8207997,29.7397424 94.6645171,30.3614788 94.6645171,31.0395413 C94.6645171,31.7287831 94.8234044,32.358689 95.1424816,32.9228095 C95.4611245,33.4877899 95.8848242,33.9349586 96.4131465,34.2617357 C96.9410346,34.5893728 97.5179781,34.7523314 98.1431088,34.7523314 C98.7682395,34.7523314 99.3412759,34.5893728 99.865257,34.2617357 C100.387502,33.9349586 100.799046,33.4877899 101.099022,32.9228095 C101.398998,32.358689 101.550071,31.7287831 101.550071,31.0395413 C101.550071,30.3614788 101.398998,29.7397424 101.099022,29.173042 C100.799046,28.6089215 100.387502,28.1660526 99.865257,27.8444351 C99.3412759,27.5232476 98.7682395,27.3624388 98.1431088,27.3624388 C97.5179781,27.3624388 96.938864,27.5232476 96.40403,27.8444351 M101.594785,25.4348838 C102.634499,25.9938447 103.451076,26.7613409 104.046253,27.7369426 C104.640561,28.7129743 104.937932,29.8081076 104.937932,31.0210526 C104.937932,32.2473268 104.640561,33.3536393 104.046253,34.3412802 C103.451076,35.3297809 102.634499,36.1088864 101.594785,36.6803164 C100.555505,37.2517464 99.392936,37.5372464 98.107077,37.5372464 C96.821652,37.5372464 95.6595167,37.2543262 94.6198028,36.6889158 C93.5805231,36.1239353 92.763512,35.3443999 92.1683355,34.3503095 C91.5744614,33.3570791 91.2766561,32.2473268 91.2766561,31.0210526 C91.2766561,29.8081076 91.5744614,28.7129743 92.1683355,27.7369426 C92.763512,26.7613409 93.5805231,25.9938447 94.6198028,25.4348838 C95.6595167,24.874633 96.821652,24.5951526 98.107077,24.5951526 C99.392936,24.5951526 100.555505,24.874633 101.594785,25.4348838" id="Fill-15" fill="#1D1D1B"></path>
                            <path d="M115.463526,31.2361236 L117.859861,31.2361236 C118.534047,31.2361236 119.053252,31.0692953 119.419214,30.7356386 C119.786044,30.4032719 119.969242,29.9208457 119.969242,29.2900798 C119.969242,28.6825324 119.786044,28.216445 119.419214,27.8892379 C119.053252,27.5620309 118.534047,27.3982123 117.859861,27.3982123 L115.463526,27.3982123 L115.463526,31.2361236 Z M119.751749,37.3051486 L117.914994,33.8426011 L117.842496,33.8426011 L115.463526,33.8426011 L115.463526,37.3051486 L112.163791,37.3051486 L112.163791,24.7913049 L117.842496,24.7913049 C119.51255,24.7913049 120.807525,25.175268 121.726554,25.9427642 C122.645583,26.7115504 123.105315,27.7903449 123.105315,29.1834473 C123.105315,30.1229315 122.913,30.9355746 122.528805,31.6196567 C122.143742,32.3033089 121.5859,32.8369015 120.85224,33.2169949 L123.483866,37.3051486 L119.751749,37.3051486 Z" id="Fill-17" fill="#1D1D1B"></path>
                            <path d="M138.254098,30.7358106 C138.620494,30.4034439 138.803258,29.9205877 138.803258,29.2898219 C138.803258,28.6827044 138.620494,28.216187 138.254098,27.88898 C137.886399,27.5622028 137.367628,27.3979543 136.69431,27.3979543 L134.604897,27.3979543 L134.604897,31.2362956 L136.69431,31.2362956 C137.367628,31.2362956 137.886399,31.0694673 138.254098,30.7358106 M140.605718,25.9429362 C141.494358,26.7112924 141.940198,27.7905169 141.940198,29.1836193 C141.940198,30.658416 141.494358,31.8047158 140.605718,32.6190787 C139.715775,33.4343017 138.466816,33.8423431 136.856236,33.8423431 L134.604897,33.8423431 L134.604897,37.3048906 L131.305597,37.3048906 L131.305597,24.7914769 L136.856236,24.7914769 C138.466816,24.7914769 139.715775,25.17544 140.605718,25.9429362" id="Fill-19" fill="#1D1D1B"></path>
                            <g id="Group-23" transform="translate(147.918531, 24.258959)">
                                <mask id="mask-2" fill="white">
                                    <use xlink:href="#path-1"></use>
                                </mask>
                                <g id="Clip-22"></g>
                                <path d="M7.72618104,3.3345885 C6.96343479,3.08606591 6.32441232,2.9605147 5.8082454,2.9605147 C5.39843751,2.9605147 5.07762392,3.03489949 4.84319991,3.18366907 C4.60921003,3.33286862 4.49199803,3.54957345 4.49199803,3.83507346 C4.49199803,4.10853431 4.59488412,4.33770826 4.79848571,4.52216535 C5.00208729,4.70748237 5.25517839,4.85582198 5.55558841,4.9684741 C5.85469608,5.08198615 6.3005358,5.22731597 6.88833229,5.40575348 C7.76611994,5.65599595 8.49022964,5.90623843 9.06066139,6.15648091 C9.63152725,6.40629342 10.1207788,6.78939659 10.5301526,7.30751031 C10.9369217,7.82519406 11.1426938,8.50024679 11.1426938,9.33352844 C11.1426938,10.1672401 10.9191228,10.8771204 10.4754537,11.4666091 C10.0304822,12.0552379 9.42011152,12.4985368 8.64607819,12.795646 C7.87204486,13.0936152 7.00858312,13.2419548 6.05960002,13.2419548 C5.01467673,13.2419548 3.97279227,13.0605075 2.93264428,12.6980429 C1.89379865,12.3355782 0.995607426,11.838533 0.238938836,11.2077672 L1.51828613,8.65546592 C2.15513801,9.21399681 2.90833365,9.67234472 3.78004365,10.0287898 C4.65088541,10.3860947 5.42361638,10.5649622 6.09693421,10.5649622 C6.58922462,10.5649622 6.97559011,10.4750985 7.25906951,10.297091 C7.54124655,10.1190834 7.68103271,9.85766174 7.68103271,9.51153598 C7.68103271,9.22646594 7.57641015,8.98783265 7.36629678,8.79735599 C7.15661753,8.6073093 6.89180523,8.45552992 6.57316224,8.34201787 C6.25582159,8.22893579 5.8082454,8.09564512 5.23043364,7.94042599 C4.36610365,7.70308261 3.65154456,7.4618695 3.08632224,7.21807657 C2.52109992,6.9734237 2.03705777,6.60450954 1.63506401,6.11133407 C1.23263614,5.61772863 1.03207338,4.95944473 1.03207338,4.1386322 C1.03207338,3.36511637 1.2387138,2.68662388 1.65329699,2.1035847 C2.06744606,1.5209755 2.65611078,1.07122699 3.41972527,0.755629089 C4.18247152,0.440891128 5.06807331,0.282662207 6.077833,0.282662207 C6.99121838,0.282662207 7.8915802,0.411223205 8.78239141,0.666625321 C9.67103203,0.922887377 10.4507089,1.26514341 11.1240267,1.69339342 L9.88071128,4.29987091 C9.20782757,3.90687843 8.49022964,3.58526095 7.72618104,3.3345885" id="Fill-21" fill="#1D1D1B" mask="url(#mask-2)"></path>
                            </g>
                            <path d="M75.3582244,45.2550339 C75.3582244,45.053808 75.3300067,44.868491 75.2744395,44.6982229 C75.2184382,44.5279549 75.1368239,44.3817651 75.0291625,44.2592237 C74.9215011,44.1366823 74.7882267,44.0420889 74.6306417,43.9745836 C74.4726226,43.9075083 74.294634,43.8739706 74.0949394,43.8739706 L73.3764733,43.8739706 L73.3764733,46.6485664 L74.0949394,46.6485664 C74.2989752,46.6485664 74.4791343,46.6133088 74.6367194,46.5423638 C74.7943044,46.4714188 74.9258423,46.3729557 75.0317672,46.2482644 C75.137258,46.1240031 75.2184382,45.9765234 75.2744395,45.8066853 C75.3300067,45.6372772 75.3582244,45.4528201 75.3582244,45.2550339 Z M72.5503457,47.3661861 L72.5503457,43.1563509 L74.0949394,43.1563509 C74.4422343,43.1563509 74.7465514,43.212247 75.0074566,43.3223193 C75.2687959,43.4328215 75.4880258,43.582881 75.6634097,43.7733577 C75.8387936,43.9629744 75.9707656,44.1852689 76.0584575,44.439811 C76.1457154,44.6947832 76.1904296,44.9669541 76.1904296,45.2550339 C76.1904296,45.5757915 76.1413742,45.8651612 76.0432634,46.1240031 C75.9451526,46.3832749 75.8049323,46.6042795 75.6213002,46.7878766 C75.437668,46.9714738 75.2171358,47.1146537 74.9597035,47.2148367 C74.7027054,47.3158796 74.4140166,47.3661861 74.0949394,47.3661861 L72.5503457,47.3661861 Z" id="Fill-24" fill="#1D1D1B"></path>
                            <polygon id="Fill-26" fill="#1D1D1B" points="82.3441465 46.6484804 82.3441465 47.3661001 79.3934429 47.3661001 79.3934429 43.1562649 82.2903158 43.1562649 82.2903158 43.8738847 80.2191363 43.8738847 80.2191363 44.8877537 82.0094411 44.8877537 82.0094411 45.5520571 80.2191363 45.5520571 80.2191363 46.6484804"></polygon>
                            <polygon id="Fill-28" fill="#1D1D1B" points="86.016138 43.1562219 87.1656839 46.340149 88.3035085 43.1562219 89.1713115 43.1562219 87.5129787 47.3664871 86.8188232 47.3664871 85.1483351 43.1562219"></polygon>
                            <polygon id="Fill-30" fill="#1D1D1B" points="95.0832678 46.6484804 95.0832678 47.3661001 92.13213 47.3661001 92.13213 43.1562649 95.0294371 43.1562649 95.0294371 43.8738847 92.9578235 43.8738847 92.9578235 44.8877537 94.7481283 44.8877537 94.7481283 45.5520571 92.9578235 45.5520571 92.9578235 46.6484804"></polygon>
                            <polygon id="Fill-32" fill="#1D1D1B" points="98.3160182 47.3662721 98.3160182 43.1560069 99.1421458 43.1560069 99.1421458 46.6486524 101.309265 46.6486524 101.309265 47.3662721"></polygon>
                            <path d="M104.808955,45.2611395 C104.808955,45.4430168 104.836305,45.6193044 104.893174,45.7891425 C104.947873,45.9594106 105.029488,46.1094701 105.134544,46.239751 C105.240903,46.3700319 105.370271,46.4749445 105.523949,46.554059 C105.678061,46.6331734 105.852576,46.6727307 106.04793,46.6727307 C106.24719,46.6727307 106.42431,46.6318835 106.577554,46.5510492 C106.731666,46.4702149 106.861468,46.3622924 106.967393,46.2277118 C107.072883,46.0935612 107.152761,45.9422118 107.206158,45.7740936 C107.259989,45.6064053 107.287338,45.4352773 107.287338,45.2611395 C107.287338,45.0792623 107.258252,44.9034046 107.200948,44.7331365 C107.142342,44.5637284 107.060728,44.4132389 106.955237,44.283388 C106.849312,44.1522472 106.719511,44.0490544 106.566267,43.9716598 C106.412589,43.8946952 106.240244,43.8555679 106.04793,43.8555679 C105.848669,43.8555679 105.671115,43.896845 105.515266,43.9776794 C105.359852,44.0589437 105.23005,44.1651463 105.126296,44.298007 C105.022108,44.4300077 104.943966,44.5804972 104.889701,44.7481854 C104.835871,44.9167336 104.808955,45.0874317 104.808955,45.2611395 M106.042286,47.3955101 C105.731023,47.3955101 105.448412,47.3353143 105.194887,47.2149227 C104.941796,47.0945311 104.723868,46.9350123 104.542407,46.7350763 C104.360945,46.5351403 104.220725,46.3068263 104.120877,46.0497043 C104.020162,45.7930123 103.970672,45.5303007 103.970672,45.2611395 C103.970672,44.9803692 104.023635,44.712068 104.129126,44.4553759 C104.235485,44.197824 104.38048,43.9707999 104.566283,43.7734437 C104.751652,43.5760875 104.972184,43.4182886 105.227446,43.3013367 C105.483141,43.1852449 105.760977,43.1271989 106.060085,43.1271989 C106.367441,43.1271989 106.647447,43.1891146 106.900973,43.3133759 C107.154498,43.4380672 107.371557,43.6005958 107.550414,43.8026816 C107.730573,44.0043375 107.869925,44.2330815 107.969338,44.4902035 C108.069185,44.7477555 108.119109,45.0087472 108.119109,45.2731787 C108.119109,45.553519 108.067449,45.8213903 107.964129,46.0763624 C107.85994,46.3317645 107.715813,46.5566388 107.532615,46.7527051 C107.348983,46.9479114 107.130187,47.1039905 106.874491,47.2213723 C106.618361,47.3378941 106.341394,47.3955101 106.042286,47.3955101" id="Fill-34" fill="#1D1D1B"></path>
                            <path d="M112.131102,45.2374052 L113.089202,45.2374052 C113.240709,45.2374052 113.367472,45.1759195 113.469056,45.053808 C113.570639,44.9312666 113.621431,44.7652982 113.621431,44.5563329 C113.621431,44.4488404 113.606237,44.3529571 113.573678,44.268253 C113.541987,44.182689 113.499878,44.111314 113.447784,44.0519782 C113.396124,43.9926423 113.334913,43.9479255 113.26502,43.9178276 C113.195561,43.8885896 113.1248,43.8739706 113.05317,43.8739706 L112.131102,43.8739706 L112.131102,45.2374052 Z M111.304975,47.3661861 L111.304975,43.1563509 L113.107001,43.1563509 C113.30192,43.1563509 113.483381,43.197198 113.648347,43.2776024 C113.813746,43.3588667 113.957005,43.4654993 114.076821,43.59793 C114.196204,43.7303607 114.290408,43.8804202 114.35813,44.0489684 C114.425419,44.2166567 114.45928,44.3856348 114.45928,44.5563329 C114.45928,44.7334805 114.428023,44.9063284 114.363774,45.0748766 C114.299958,45.2421348 114.210964,45.3913344 114.09462,45.5224752 C113.978711,45.6523261 113.839793,45.7572388 113.675696,45.8367832 C113.512033,45.9154677 113.332308,45.9550249 113.136521,45.9550249 L112.131102,45.9550249 L112.131102,47.3661861 L111.304975,47.3661861 Z" id="Fill-36" fill="#1D1D1B"></path>
                            <polygon id="Fill-38" fill="#1D1D1B" points="120.998103 47.3662721 120.998103 44.5792073 119.902822 46.6551019 119.453944 46.6551019 118.358229 44.5792073 118.358229 47.3662721 117.532535 47.3662721 117.532535 43.1560069 118.418137 43.1560069 119.675344 45.5522291 120.944273 43.1560069 121.824231 43.1560069 121.824231 47.3662721"></polygon>
                            <polygon id="Fill-40" fill="#1D1D1B" points="128.215107 46.6484804 128.215107 47.3661001 125.263969 47.3661001 125.263969 43.1562649 128.16171 43.1562649 128.16171 43.8738847 126.090531 43.8738847 126.090531 44.8877537 127.879967 44.8877537 127.879967 45.5520571 126.090531 45.5520571 126.090531 46.6484804"></polygon>
                            <polygon id="Fill-42" fill="#1D1D1B" points="132.274375 44.668254 132.274375 47.3663151 131.448682 47.3663151 131.448682 43.1560499 132.089007 43.1560499 134.304314 45.9198964 134.304314 43.1624995 135.130007 43.1624995 135.130007 47.3663151 134.459728 47.3663151"></polygon>
                            <polygon id="Fill-44" fill="#1D1D1B" points="141.667919 43.8737987 140.308694 43.8737987 140.308694 47.3664441 139.48821 47.3664441 139.48821 43.8737987 138.128985 43.8737987 138.128985 43.1561789 141.667919 43.1561789"></polygon>
                            <path d="M0.752351097,54.3568516 L55.336678,54.3568516 L55.336678,0.294157213 L0.752351097,0.294157213 L0.752351097,54.3568516 Z M2.4888252,52.636972 L53.6002039,52.636972 L53.6002039,2.01403678 L2.4888252,2.01403678 L2.4888252,52.636972 Z" id="Fill-46" fill="#E5332A"></path>
                            <polygon id="Fill-1" fill="#E5332A" points="10.8074044 25.3437732 33.2196415 25.3437732 33.2196415 22.5352098 10.8074044 22.5352098"></polygon>
                            <polygon id="Fill-2" fill="#E5332A" points="12.9784745 32.9135794 12.9784745 41.8874811 15.7750661 41.8874811 15.7750661 37.5847723 18.6146353 41.8874811 21.2397501 41.8874811 21.2397501 32.9135794 18.4427244 32.9135794 18.4427244 37.2167181 15.6048916 32.9135794"></polygon>
                        </g>
                    </g>
                </g>
            </g>
        </g>
    </g>
</svg>