<?xml version="1.0" encoding="UTF-8" standalone="no"?>
<svg width="105px" height="36px" viewBox="0 0 105 36" version="1.1" xmlns="http://www.w3.org/2000/svg" xmlns:xlink="http://www.w3.org/1999/xlink">
    <!-- Generator: Sketch 50.2 (55047) - http://www.bohemiancoding.com/sketch -->
    <title>logo</title>
    <desc>Created with Sketch.</desc>
    <defs></defs>
    <g id="Page-1" stroke="none" stroke-width="1" fill="none" fill-rule="evenodd">
        <g id="Nova-Corps---Menu" transform="translate(-25.000000, -82.000000)" fill-rule="nonzero">
            <g id="Menu-belka" transform="translate(0.000000, 70.000000)">
                <g id="logo" transform="translate(25.000000, 12.000000)">
                    <g id="Group" transform="translate(47.526316, 4.363636)" fill="#000000">
                        <g transform="translate(0.328421, 0.000000)" id="Shape">
                            <polygon points="5.85312 0.275279178 7.86535579 0.275279178 7.86535579 8.52451119 5.97135158 8.52451119 2.20764632 3.59365047 2.20764632 8.52451119 0.183258947 8.52451119 0.183258947 0.275279178 2.08875789 0.275279178 5.86428632 5.24108043"></polygon>
                            <path d="M19.1508884,0.69815763 C19.8336758,1.06715582 20.3699874,1.57363032 20.76048,2.21660149 C21.1506442,2.86022576 21.3463832,3.58156823 21.3463832,4.381282 C21.3463832,5.19013908 21.1506442,5.91964523 20.76048,6.57078008 C20.3699874,7.22191494 19.8336758,7.73590002 19.1508884,8.11240879 C18.4684295,8.4892441 17.7048505,8.67733521 16.8601516,8.67733521 C16.0161095,8.67733521 15.2525305,8.49120339 14.5704,8.11828664 C13.8872842,7.74569643 13.3509726,7.2320379 12.9598232,6.57665793 C12.5699874,5.92127797 12.3749053,5.18981254 12.3749053,4.38095545 C12.3749053,3.58124169 12.5703158,2.85989921 12.9598232,2.21627494 C13.3509726,1.57297722 13.8872842,1.06650272 14.5704,0.697831082 C15.2525305,0.329159444 16.0157811,0.145639992 16.8601516,0.145639992 C17.7045221,0.145639992 18.4681011,0.329485991 19.1508884,0.69815763 Z M15.7422063,2.28680911 C15.3907958,2.49873816 15.1126232,2.79067124 14.90736,3.16391453 C14.7020968,3.53715783 14.5996295,3.94632131 14.5996295,4.39434388 C14.5996295,4.84922395 14.7040674,5.26295908 14.9132716,5.63554928 C15.1228042,6.00813949 15.4009768,6.3023584 15.7474611,6.51820601 C16.0949305,6.73405362 16.4736,6.8414876 16.8837979,6.8414876 C17.2939958,6.8414876 17.6706947,6.73405362 18.0142232,6.51820601 C18.3577516,6.3023584 18.6277137,6.00813949 18.8250947,5.63554928 C19.0221474,5.26295908 19.1210021,4.84922395 19.1210021,4.39434388 C19.1210021,3.94664785 19.0218189,3.53715783 18.8250947,3.16391453 C18.6277137,2.79067124 18.3577516,2.4990647 18.0142232,2.28680911 C17.6706947,2.07520661 17.2939958,1.96940536 16.8837979,1.96940536 C16.4736,1.96940536 16.0926316,2.07488006 15.7422063,2.28680911 Z"></path>
                            <polygon points="24.9554021 0.275279178 27.2878484 0.275279178 29.3585432 6.24129409 31.4417179 0.275279178 33.6670989 0.275279178 30.4239411 8.52451119 28.1749137 8.52451119"></polygon>
                            <path d="M43.7387874,8.52418464 L43.1709474,7.0648458 L39.5855747,7.0648458 L39.0045979,8.52418464 L36.7795453,8.52418464 L40.3432421,0.274952631 L42.5676379,0.274952631 L46.0475874,8.52418464 L43.7387874,8.52418464 Z M40.2358484,5.41774239 L42.5324968,5.41774239 L41.3955032,2.47555332 L40.2358484,5.41774239 Z"></path>
                        </g>
                        <path d="M5.70007579,13.7877968 C5.32928842,13.5872969 4.96211368,13.4877001 4.59920842,13.4877001 C4.18145684,13.4877001 3.80114526,13.591542 3.45728842,13.7995525 C3.11376,14.007563 2.84412632,14.2932917 2.64641684,14.6583713 C2.44837895,15.0227978 2.35018105,15.4286958 2.35018105,15.8760653 C2.35018105,16.3231082 2.44870737,16.7290062 2.64641684,17.0940859 C2.84412632,17.4591655 3.11376,17.7445676 3.45728842,17.9532312 C3.80114526,18.1605886 4.18112842,18.2650837 4.59920842,18.2650837 C4.93879579,18.2650837 5.29414737,18.1788752 5.66460632,18.0064584 C6.03572211,17.8333884 6.36709895,17.597948 6.65873684,17.3001371 L7.9248,18.6536747 C7.47552,19.1235759 6.94085053,19.4987785 6.32177684,19.7773231 C5.70204632,20.0558678 5.08822737,20.1949768 4.48130526,20.1949768 C3.66025263,20.1949768 2.91834947,20.0068857 2.25658105,19.6300504 C1.59284211,19.2538682 1.07262316,18.7395565 0.693625263,18.0880951 C0.314627368,17.4372868 0.125456842,16.7074541 0.125456842,15.8989236 C0.125456842,15.0998629 0.318896842,14.3775408 0.70512,13.7342431 C1.09101474,13.0909454 1.62272842,12.5847974 2.29730526,12.2164523 C2.97188211,11.8471276 3.72725053,11.662955 4.56439579,11.662955 C5.1792,11.662955 5.78677895,11.7909615 6.38680421,12.0456682 C6.98650105,12.3007015 7.49522526,12.647821 7.91363368,13.0867003 L6.65873684,14.5933884 C6.39140211,14.2560653 6.07086316,13.9876436 5.70007579,13.7877968 Z" id="Shape"></path>
                        <path d="M19.5857179,12.2164523 C20.2681768,12.585124 20.8048168,13.0912719 21.1953095,13.7342431 C21.5854737,14.3775408 21.7808842,15.0998629 21.7808842,15.8989236 C21.7808842,16.7077807 21.5854737,17.4372868 21.1953095,18.0880951 C20.8048168,18.7395565 20.2681768,19.2535416 19.5857179,19.6300504 C18.9029305,20.0068857 18.13968,20.1949768 17.2949811,20.1949768 C16.4512674,20.1949768 15.6876884,20.008845 15.0049011,19.6356017 C14.3224421,19.263338 13.7858021,18.749353 13.3953095,18.093973 C13.0051453,17.4389196 12.8097347,16.7074541 12.8097347,15.8985971 C12.8097347,15.0995364 13.0051453,14.3772143 13.3953095,13.7339165 C13.7858021,13.0906188 14.3224421,12.5844709 15.0049011,12.2161258 C15.6876884,11.846801 16.4509389,11.6626285 17.2949811,11.6626285 C18.1393516,11.662955 18.9029305,11.8471276 19.5857179,12.2164523 Z M16.1767074,13.8051038 C15.8256253,14.0167063 15.5471242,14.3089659 15.3428463,14.680903 C15.1372547,15.0544729 15.0344589,15.4642895 15.0344589,15.9113324 C15.0344589,16.3662125 15.1388968,16.7812538 15.3484295,17.1531909 C15.5579621,17.5257811 15.8358063,17.8206531 16.1829474,18.0358476 C16.5294316,18.2516952 16.9087579,18.3591292 17.3189558,18.3591292 C17.7294821,18.3591292 18.1058526,18.2516952 18.4497095,18.0358476 C18.7929095,17.8206531 19.0628716,17.5257811 19.2599242,17.1531909 C19.4573053,16.7812538 19.55616,16.3662125 19.55616,15.9113324 C19.55616,15.464616 19.4569768,15.0544729 19.2599242,14.680903 C19.0628716,14.3089659 18.7929095,14.0170329 18.4497095,13.8051038 C18.1055242,13.5935013 17.7294821,13.4873735 17.3189558,13.4873735 C16.9084295,13.4877001 16.5281179,13.5935013 16.1767074,13.8051038 Z" id="Shape"></path>
                        <path d="M31.5093726,20.0421528 L30.3027537,17.7595888 L30.2551326,17.7595888 L28.6928337,17.7595888 L28.6928337,20.0421528 L26.5255832,20.0421528 L26.5255832,11.7922677 L30.2548042,11.7922677 C31.3514021,11.7922677 32.2020126,12.0453417 32.8056505,12.5511631 C33.4092884,13.0579641 33.7107789,13.7691836 33.7107789,14.6877605 C33.7107789,15.3068938 33.5846653,15.8427575 33.3327663,16.293719 C33.0795537,16.7446805 32.7133642,17.0960452 32.2312421,17.3468333 L33.9597221,20.0421528 L31.5093726,20.0421528 Z M28.6931621,16.0409716 L30.2669558,16.0409716 C30.7096674,16.0409716 31.0505684,15.9312518 31.2906442,15.711159 C31.5313768,15.492046 31.6522358,15.1736626 31.6522358,14.7579682 C31.6522358,14.3572949 31.5317053,14.0500141 31.2906442,13.834493 C31.0505684,13.618972 30.7093389,13.5108849 30.2669558,13.5108849 L28.6931621,13.5108849 L28.6931621,16.0409716 Z" id="Shape"></path>
                        <path d="M45.2045305,12.5514896 C45.7878063,13.0582907 46.0804295,13.7695102 46.0804295,14.6880871 C46.0804295,15.6602177 45.7878063,16.4158476 45.2045305,16.9530175 C44.6199411,17.490514 43.7998737,17.7599153 42.7420295,17.7599153 L41.2634779,17.7599153 L41.2634779,20.0424793 L39.0968842,20.0424793 L39.0968842,11.7922677 L42.7420295,11.7922677 C43.7995453,11.7922677 44.6196126,12.0456682 45.2045305,12.5514896 Z M43.6596379,15.711159 C43.9000421,15.492046 44.0205726,15.1736626 44.0205726,14.7579682 C44.0205726,14.3572949 43.9003705,14.0500141 43.6596379,13.834493 C43.4185768,13.618972 43.0776758,13.5108849 42.6352926,13.5108849 L41.2631495,13.5108849 L41.2631495,16.0409716 L42.6352926,16.0409716 C43.0776758,16.0409716 43.4185768,15.9312518 43.6596379,15.711159 Z" id="Shape"></path>
                        <path d="M55.08048,13.6401975 C54.5796379,13.4762709 54.1595874,13.393328 53.8209853,13.393328 C53.55168,13.393328 53.3411621,13.44231 53.1871326,13.5402741 C53.0334316,13.6385648 52.9562526,13.7815924 52.9562526,13.9696835 C52.9562526,14.1499375 53.0239074,14.3011288 53.1575747,14.4226043 C53.2912421,14.5447329 53.4574232,14.642697 53.6548042,14.7168232 C53.8515284,14.7916025 54.1441516,14.8872808 54.5303747,15.0048377 C55.1064253,15.1700706 55.5819789,15.3353034 55.9567074,15.4998831 C56.3317642,15.6644628 56.65296,15.9172102 56.9216084,16.259105 C57.1886147,16.6000202 57.3242526,17.0451038 57.3242526,17.594356 C57.3242526,18.1442612 57.1774484,18.6122032 56.8858105,19.0007942 C56.5935158,19.3887321 56.1931705,19.6813183 55.6847747,19.8772465 C55.1760505,20.0738279 54.6091958,20.1714654 53.9861811,20.1714654 C53.2997811,20.1714654 52.6153516,20.0519492 51.9325642,19.8129168 C51.2504337,19.5738843 50.6605895,19.246031 50.16336,18.8303366 L51.0037895,17.147313 C51.4218695,17.5159847 51.9161432,17.8183673 52.4889095,18.0528281 C53.0606905,18.2882685 53.5681011,18.4068051 54.0104842,18.4068051 C54.3336505,18.4068051 54.5871916,18.3473735 54.7734063,18.22949 C54.9586358,18.1122596 55.0509221,17.9398428 55.0509221,17.7115864 C55.0509221,17.5238218 54.9819537,17.3667527 54.8440168,17.241032 C54.70608,17.1159645 54.5326737,17.0160411 54.3231411,16.9409353 C54.1145937,16.8664826 53.8209853,16.7786414 53.4413305,16.6761056 C52.8734905,16.5196896 52.4045053,16.3606612 52.0330611,16.1996735 C51.6622737,16.0386857 51.3440337,15.7954082 51.0803116,15.4701673 C50.8159326,15.1449264 50.6839074,14.7112719 50.6839074,14.1698569 C50.6839074,13.6597904 50.8198737,13.2124209 51.0921347,12.8284015 C51.3643958,12.4443822 51.7509474,12.1478774 52.2521179,11.939867 C52.75296,11.732183 53.3345937,11.6280145 53.9976758,11.6280145 C54.5973726,11.6280145 55.1885305,11.7129168 55.7734484,11.8810885 C56.3570526,12.0502399 56.8693895,12.2752308 57.3114442,12.557694 L56.4949895,14.2759847 C56.0535916,14.0170329 55.5819789,13.8051038 55.08048,13.6401975 Z" id="Shape"></path>
                        <g transform="translate(0.328421, 23.837936)" id="Shape">
                            <path d="M0.183587368,2.83704092 L0.183587368,0.0613908486 L1.19775158,0.0613908486 C1.42534737,0.0613908486 1.62568421,0.0982906672 1.79679158,0.170784116 C1.96822737,0.243930659 2.11240421,0.342547873 2.22768,0.468268494 C2.34262737,0.593336021 2.42933053,0.739955654 2.48680421,0.907800847 C2.54427789,1.07629913 2.57350737,1.25492038 2.57350737,1.44529732 C2.57350737,1.65624672 2.54132211,1.84695021 2.47662316,2.01806087 C2.41258105,2.18851844 2.31996632,2.33448498 2.20009263,2.45563394 C2.07923368,2.57678291 1.9344,2.67115501 1.76526316,2.73711752 C1.59645474,2.80373312 1.40695579,2.83704092 1.19742316,2.83704092 L0.183587368,2.83704092 Z M2.02734316,1.44562387 C2.02734316,1.31271921 2.00862316,1.19026406 1.97282526,1.07825842 C1.93604211,0.965926225 1.88250947,0.86959484 1.81157053,0.788611167 C1.74063158,0.707954042 1.65327158,0.645583552 1.54981895,0.601173151 C1.44603789,0.556762749 1.32879158,0.534884096 1.19808,0.534884096 L0.726138947,0.534884096 L0.726138947,2.36420077 L1.19808,2.36420077 C1.33174737,2.36420077 1.45063579,2.34101592 1.55408842,2.29399315 C1.65721263,2.24729692 1.74358737,2.18231405 1.81321263,2.10002419 C1.88250947,2.01838742 1.93604211,1.9210764 1.97282526,1.80907075 C2.00862316,1.69739165 2.02734316,1.5755896 2.02734316,1.44562387 Z"></path>
                            <polygon points="6.61538526 2.36387422 6.61538526 2.83704092 4.67737263 2.83704092 4.67737263 0.0613908486 6.58024421 0.0613908486 6.58024421 0.534557549 5.21992421 0.534557549 5.21992421 1.20267285 6.39567158 1.20267285 6.39567158 1.64122556 5.21992421 1.64122556 5.21992421 2.36387422"></polygon>
                            <polygon points="9.02632421 0.0613908486 9.78136421 2.1604354 10.5285221 0.0613908486 11.0983326 0.0613908486 10.0092884 2.83704092 9.55344 2.83704092 8.45618526 0.0613908486"></polygon>
                            <polygon points="14.9805979 2.36387422 14.9805979 2.83704092 13.0432421 2.83704092 13.0432421 0.0613908486 14.9457853 0.0613908486 14.9457853 0.534557549 13.5851368 0.534557549 13.5851368 1.20267285 14.7608842 1.20267285 14.7608842 1.64122556 13.5851368 1.64122556 13.5851368 2.36387422"></polygon>
                            <polygon points="17.10384 2.83704092 17.10384 0.0613908486 17.6460632 0.0613908486 17.6460632 2.36387422 19.06944 2.36387422 19.06944 2.83704092"></polygon>
                            <path d="M22.1776168,2.8563072 C21.9733389,2.8563072 21.7874526,2.816795 21.6212716,2.73744406 C21.4550905,2.65809313 21.3118989,2.55294497 21.1926821,2.42069341 C21.0734653,2.28942149 20.9815074,2.13855674 20.9158232,1.96907881 C20.8498105,1.79927434 20.8169684,1.62653094 20.8169684,1.44921588 C20.8169684,1.26439024 20.8521095,1.08707519 20.9210779,0.917923806 C20.9907032,0.748119331 21.0862737,0.598234227 21.2081179,0.468268494 C21.3296337,0.338302762 21.4747958,0.234134247 21.6422905,0.157069139 C21.8104421,0.0806571256 21.9923874,0.0421245717 22.1887832,0.0421245717 C22.3907621,0.0421245717 22.5746779,0.082942955 22.7411874,0.164906269 C22.9076968,0.246869583 23.0502316,0.354630115 23.1678063,0.487534771 C23.2860379,0.620439428 23.3779958,0.770977625 23.4430232,0.9407821 C23.5087074,1.11058658 23.5415495,1.28235033 23.5415495,1.45672647 C23.5415495,1.64155211 23.5073937,1.81821407 23.4394105,1.98671236 C23.3710989,2.1548841 23.2765137,2.30313646 23.1563116,2.43212256 C23.0357811,2.56143519 22.8916042,2.66397097 22.7244379,2.74103608 C22.5562863,2.81842774 22.3743411,2.8563072 22.1776168,2.8563072 Z M21.3677305,1.44921588 C21.3677305,1.56905866 21.3857937,1.68530941 21.4229053,1.79698851 C21.4590316,1.90899415 21.5125642,2.00793792 21.5815326,2.09381979 C21.6511579,2.18002822 21.7365474,2.2492562 21.8370442,2.30117718 C21.9385263,2.35342471 22.0531453,2.37954848 22.1812295,2.37954848 C22.3119411,2.37954848 22.4285305,2.35244507 22.5293558,2.2992179 C22.6305095,2.24599073 22.7155705,2.17480347 22.7848674,2.08630921 C22.8544926,1.99781496 22.9067116,1.8982181 22.9418526,1.7871921 C22.9773221,1.67649264 22.9953853,1.5638339 22.9953853,1.44921588 C22.9953853,1.32937311 22.9760084,1.21312235 22.9385684,1.10111671 C22.9001432,0.989437613 22.8466105,0.890167305 22.7769853,0.804611973 C22.70736,0.718077001 22.6222989,0.650155211 22.5218021,0.599213868 C22.4206484,0.548599073 22.308,0.522801854 22.1815579,0.522801854 C22.0508463,0.522801854 21.9339284,0.549578714 21.8321179,0.603132433 C21.7296505,0.656686152 21.6445895,0.726893771 21.5766063,0.814081838 C21.5079663,0.901269905 21.4567326,1.00021367 21.4209347,1.11091312 C21.3857937,1.22226567 21.3677305,1.33459786 21.3677305,1.44921588 Z"></path>
                            <path d="M25.63392,2.83704092 L25.63392,0.0613908486 L26.8175495,0.0613908486 C26.9456337,0.0613908486 27.0645221,0.0884942552 27.1729011,0.14139488 C27.2816084,0.195275146 27.3755368,0.265482766 27.4543579,0.352670832 C27.5325221,0.439858899 27.5945937,0.538802661 27.6389305,0.649828664 C27.6832674,0.760528119 27.7056,0.871880669 27.7056,0.983886313 C27.7056,1.10046362 27.6849095,1.21475509 27.6428716,1.32578109 C27.6011621,1.436154 27.5420463,1.53477122 27.4661811,1.62097964 C27.3903158,1.70686152 27.2986863,1.7760895 27.1909642,1.82801048 C27.0835705,1.87993147 26.9653389,1.90605523 26.8372547,1.90605523 L26.1768,1.90605523 L26.1768,2.83671437 L25.63392,2.83671437 L25.63392,2.83704092 Z M26.1764716,1.43386817 L26.8053979,1.43386817 C26.9049095,1.43386817 26.9883284,1.39337634 27.0546695,1.31271921 C27.1216674,1.23206208 27.1551663,1.12234227 27.1551663,0.984539407 C27.1551663,0.914005241 27.1453137,0.850981657 27.1239663,0.794815561 C27.1029474,0.738322919 27.0756884,0.691626688 27.0412042,0.652114493 C27.0070484,0.613255392 26.9666526,0.583213062 26.9213305,0.563620238 C26.8753516,0.544027414 26.8290442,0.534557549 26.78208,0.534557549 L26.1764716,0.534557549 L26.1764716,1.43386817 Z"></path>
                            <polygon points="31.9993768 2.83704092 31.9993768 0.999560572 31.2801347 2.36811933 30.9855411 2.36811933 30.2662989 0.999560572 30.2662989 2.83704092 29.7240758 2.83704092 29.7240758 0.0613908486 30.3057095 0.0613908486 31.1316884 1.64122556 31.9652211 0.0613908486 32.5432421 0.0613908486 32.5432421 2.83704092"></polygon>
                            <polygon points="36.7388211 2.36387422 36.7388211 2.83704092 34.8008084 2.83704092 34.8008084 0.0613908486 36.70368 0.0613908486 36.70368 0.534557549 35.34336 0.534557549 35.34336 1.20267285 36.5187789 1.20267285 36.5187789 1.64122556 35.34336 1.64122556 35.34336 2.36387422"></polygon>
                            <polygon points="39.4042863 1.05833904 39.4042863 2.83704092 38.8620632 2.83704092 38.8620632 0.0613908486 39.2827705 0.0613908486 40.7376758 1.88319694 40.7376758 0.0656359605 41.2795705 0.0656359605 41.2795705 2.83704092 40.8394863 2.83704092"></polygon>
                            <polygon points="45.5733474 0.534884096 44.6806989 0.534884096 44.6806989 2.83736747 44.1420884 2.83736747 44.1420884 0.534884096 43.2487832 0.534884096 43.2487832 0.0617173957 45.5730189 0.0617173957 45.5730189 0.534884096"></polygon>
                        </g>
                    </g>
                    <g id="Group" fill="#EF4136">
                        <rect id="Rectangle-path" x="6.91524283" y="14.9095636" width="14.6889093" height="1.85596364"></rect>
                        <polygon id="Shape" points="8.33841016 18.1862182 8.33841016 24.1157455 10.1712871 24.1157455 10.1712871 21.2727273 12.0323521 24.1157455 13.7528047 24.1157455 13.7528047 18.1862182 11.9196 18.1862182 11.9196 21.0295636 10.0598461 18.1862182"></polygon>
                        <path d="M26.834669,17.8252364 C25.736975,17.8252364 24.843808,16.9334182 24.843808,15.8373818 C24.843808,14.7413455 25.736975,13.8498545 26.834669,13.8498545 C27.5787016,13.8498545 28.2522642,14.2658182 28.5928149,14.9095636 L30.5230388,14.9095636 C30.1002185,13.2352364 28.5787209,12.0361091 26.834669,12.0361091 C24.7356446,12.0361091 23.0276472,13.7412 23.0276472,15.8373818 C23.0276472,17.9338909 24.7356446,19.6393091 26.834669,19.6393091 C28.5823263,19.6393091 30.1067739,18.4349455 30.5259887,16.7553818 L28.5977314,16.7553818 C28.2588196,17.4046909 27.5823071,17.8252364 26.834669,17.8252364 Z" id="Shape"></path>
                        <path d="M34.9619967,1.35098182 L34.9619967,34.7985818 L1.46348276,34.7985818 L1.46348276,1.35098182 L34.9619967,1.35098182 Z M36.1000062,0.214363636 L0.325473321,0.214363636 L0.325473321,35.9348727 L36.1000062,35.9348727 L36.1000062,0.214363636 Z" id="Shape"></path>
                    </g>
                </g>
            </g>
        </g>
    </g>
</svg>