<?xml version="1.0" encoding="UTF-8" standalone="no"?>
<svg width="10px" height="12px" viewBox="0 0 10 12" version="1.1" xmlns="http://www.w3.org/2000/svg" xmlns:xlink="http://www.w3.org/1999/xlink">
    <!-- Generator: Sketch 50.2 (55047) - http://www.bohemiancoding.com/sketch -->
    <title>Combined Shape</title>
    <desc>Created with Sketch.</desc>
    <defs></defs>
    <g id="Page-1" stroke="none" stroke-width="1" fill="none" fill-rule="evenodd">
        <g id="Nova-Corps---Mobile" transform="translate(-222.000000, -2811.000000)" fill="#C9C9C9">
            <path d="M225.329706,2818 L228.230686,2818 C229.713118,2818 230.989467,2819.04636 231.280196,2820.5 L231.540973,2821.80388 C231.649285,2822.34544 231.298068,2822.87227 230.756508,2822.98058 C230.691935,2822.9935 230.626244,2823 230.560392,2823 L223,2823 C222.447715,2823 222,2822.55228 222,2822 C222,2821.93415 222.006505,2821.86846 222.019419,2821.80388 L222.280196,2820.5 C222.570925,2819.04636 223.847275,2818 225.329706,2818 Z M226.699997,2817 C225.319285,2817 224.199997,2814.99159 224.199997,2813.57143 C224.199997,2812.15127 225.319285,2811 226.699997,2811 C228.080709,2811 229.199997,2812.15127 229.199997,2813.57143 C229.199997,2814.99159 228.080709,2817 226.699997,2817 Z" id="Combined-Shape"></path>
        </g>
    </g>
</svg>