<?xml version="1.0" encoding="UTF-8" standalone="no"?>
<svg width="13px" height="17px" viewBox="0 0 13 17" version="1.1" xmlns="http://www.w3.org/2000/svg" xmlns:xlink="http://www.w3.org/1999/xlink">
    <!-- Generator: Sketch 50.2 (55047) - http://www.bohemiancoding.com/sketch -->
    <title>tel copy 3</title>
    <desc>Created with Sketch.</desc>
    <defs></defs>
    <g id="Page-1" stroke="none" stroke-width="1" fill="none" fill-rule="evenodd">
        <g id="Nova-Corps---Desktop" transform="translate(-1019.000000, -65.000000)" fill="#EF4136">
            <g id="Hello">
                <g id="menu" transform="translate(120.000000, 34.000000)">
                    <g id="Group-18" transform="translate(390.000000, 29.000000)">
                        <path d="M509,5.99478897 C509.085044,8.62205178 510.213142,11.3818457 512.384295,14.2741707 C514.555448,17.1664958 516.7451,18.7417722 518.953252,19 C520.902075,18.9782217 521.917657,18.3713124 522,17.179272 C521.989725,15.9004246 520.526371,13.9159007 520.160026,13.7794933 C519.921256,13.7025979 519.216053,13.365222 518.18489,14.0906367 C517.153726,14.8160513 516.968026,15.2504743 516.131905,14.4269031 C515.295784,13.603332 514.036415,12.8035625 512.32688,8.95787927 C512.203035,8.31594252 511.886495,7.7646139 512.650988,7.21393065 C513.415482,6.66324739 514.426505,6.18897442 514.137127,4.7865488 C513.73605,2.80162382 511.319195,0.999306525 510.104569,2.64067174 C509.425112,3.45003507 509.056923,4.56807414 509,5.99478897 Z" id="tel-copy-3"></path>
                    </g>
                </g>
            </g>
        </g>
    </g>
</svg>