<?xml version="1.0" encoding="utf-8"?>
<!-- Generator: Adobe Illustrator 16.0.0, SVG Export Plug-In . SVG Version: 6.00 Build 0)  -->
<!DOCTYPE svg PUBLIC "-//W3C//DTD SVG 1.1//EN" "http://www.w3.org/Graphics/SVG/1.1/DTD/svg11.dtd">
<svg version="1.1" id="Warstwa_1" xmlns="http://www.w3.org/2000/svg" xmlns:xlink="http://www.w3.org/1999/xlink" x="0px" y="0px"
	 width="320px" height="320px" viewBox="0 0 320 320" enable-background="new 0 0 320 320" xml:space="preserve">
<g id="Inteligentny_obiekt_wektorowy_kopia_2_xA0_Obraz_1_">
</g>
<g id="Inteligentny_obiekt_wektorowy_xA0_Obraz_1_">
	<g>
		<path fill="#E0201B" d="M239.059,32.627c-43.922-43.921-114.823-43.921-158.117,0C41.412,72.157,37.02,146.196,70.274,190.745
			L160,320l89.726-129.255C282.98,146.196,278.588,72.157,239.059,32.627z"/>
	</g>
</g>
<g>
	<path fill="#FFFFFF" d="M159,32.929c45.561,0,82.5,36.939,82.5,82.5c0,45.556-36.939,82.5-82.5,82.5s-82.5-36.939-82.5-82.5
		S113.434,32.929,159,32.929z"/>
	<path fill="#E0201B" d="M122.901,99.975h20.702V79.33c0-2.847,2.305-5.156,5.151-5.156h20.604c2.84,0,5.145,2.309,5.145,5.156
		v20.64h20.595c2.851,0,5.156,2.306,5.156,5.157v20.629c0,2.857-2.306,5.166-5.156,5.166h-20.595v20.583
		c0,2.852-2.305,5.156-5.145,5.156h-20.604c-2.847,0-5.151-2.304-5.151-5.156v-20.583h-20.702c-2.852,0-5.162-2.309-5.162-5.166
		v-20.629C117.739,102.28,120.05,99.975,122.901,99.975z"/>
</g>
</svg>
