<?xml version="1.0" encoding="utf-8"?>
<!-- Generator: Adobe Illustrator 16.0.0, SVG Export Plug-In . SVG Version: 6.00 Build 0)  -->
<!DOCTYPE svg PUBLIC "-//W3C//DTD SVG 1.1//EN" "http://www.w3.org/Graphics/SVG/1.1/DTD/svg11.dtd">
<svg version="1.1" id="Warstwa_1" xmlns="http://www.w3.org/2000/svg" xmlns:xlink="http://www.w3.org/1999/xlink" x="0px" y="0px"
	 width="320px" height="320px" viewBox="0 0 320 320" enable-background="new 0 0 320 320" xml:space="preserve">
<g id="Inteligentny_obiekt_wektorowy_kopia_2_xA0_Obraz_1_">
</g>
<g id="Inteligentny_obiekt_wektorowy_xA0_Obraz_1_">
	<g>
		<path fill="#E0201B" d="M239.059,32.627c-43.922-43.921-114.823-43.921-158.117,0C41.412,72.157,37.02,146.196,70.274,190.745
			L160,320l89.726-129.255C282.98,146.196,278.588,72.157,239.059,32.627z"/>
	</g>
</g>
<g display="none">
	<path display="inline" fill="#FFFFFF" d="M159,32.929c45.561,0,82.5,36.939,82.5,82.5c0,45.556-36.939,82.5-82.5,82.5
		s-82.5-36.939-82.5-82.5S113.434,32.929,159,32.929z"/>
	<path display="inline" fill="#E0201B" d="M122.901,99.975h20.702V79.33c0-2.847,2.305-5.156,5.151-5.156h20.604
		c2.84,0,5.145,2.309,5.145,5.156v20.64h20.595c2.851,0,5.156,2.306,5.156,5.157v20.629c0,2.857-2.306,5.166-5.156,5.166h-20.595
		v20.583c0,2.852-2.305,5.156-5.145,5.156h-20.604c-2.847,0-5.151-2.304-5.151-5.156v-20.583h-20.702
		c-2.852,0-5.162-2.309-5.162-5.166v-20.629C117.739,102.28,120.05,99.975,122.901,99.975z"/>
</g>
<g>
	<g>
		<path fill="#FFFFFF" d="M233.709,137.088L199.254,117l34.455-20.106c1.539-0.896,2.079-2.86,1.213-4.417l-16.377-29.472
			c-0.432-0.781-1.168-1.35-2.027-1.577c-0.871-0.233-1.786-0.096-2.543,0.371l-34.322,20.992V41.666
			c0-1.811-1.465-3.275-3.275-3.275h-32.754c-1.811,0-3.275,1.465-3.275,3.275v41.125l-34.321-20.993
			c-0.755-0.46-1.667-0.591-2.524-0.377c-0.857,0.221-1.59,0.777-2.028,1.548L85.098,91.616c-0.883,1.541-0.371,3.509,1.148,4.427
			l34.583,20.906l-34.539,20.128c-1.539,0.899-2.079,2.863-1.212,4.421l16.376,29.498c0.432,0.78,1.165,1.351,2.028,1.576
			c0.867,0.23,1.785,0.094,2.543-0.37l34.322-20.993v41.125c0,1.811,1.465,3.275,3.275,3.275h32.754
			c1.811,0,3.275-1.465,3.275-3.275v-41.125l34.322,20.993c0.758,0.464,1.676,0.604,2.543,0.37c0.863-0.227,1.596-0.796,2.027-1.576
			l16.377-29.488C235.788,139.95,235.248,137.986,233.709,137.088z"/>
	</g>
</g>
</svg>
