<?xml version="1.0" encoding="utf-8"?>
<!-- Generator: Adobe Illustrator 16.0.0, SVG Export Plug-In . SVG Version: 6.00 Build 0)  -->
<!DOCTYPE svg PUBLIC "-//W3C//DTD SVG 1.1//EN" "http://www.w3.org/Graphics/SVG/1.1/DTD/svg11.dtd">
<svg version="1.1" id="Warstwa_1" xmlns="http://www.w3.org/2000/svg" xmlns:xlink="http://www.w3.org/1999/xlink" x="0px" y="0px"
	 width="320px" height="320px" viewBox="0 0 320 320" enable-background="new 0 0 320 320" xml:space="preserve">
<g id="Inteligentny_obiekt_wektorowy_kopia_2_xA0_Obraz_1_">
</g>
<g id="Inteligentny_obiekt_wektorowy_xA0_Obraz_1_">
	<g>
		<path fill="#004796" d="M239.059,32.627c-43.922-43.921-114.823-43.921-158.117,0C41.412,72.157,37.02,146.196,70.274,190.745
			L160,320l89.726-129.255C282.98,146.196,278.588,72.157,239.059,32.627z"/>
	</g>
</g>
<path fill="#FFFFFF" d="M239.16,112.303l-0.392-0.364c-0.239-0.22-0.479-0.441-0.71-0.672l-37.34-37.33
	c-0.081-0.082-0.166-0.159-0.255-0.234c-1.855-1.558-4.021-2.682-6.328-3.315v-9.145c0-2.213-1.794-4.006-4.006-4.006h-18.161
	c-2.213,0-4.006,1.793-4.006,4.006v8.545H90.726c-6.527,0-11.837,5.311-11.837,11.837v70.919c0,2.213,1.794,4.006,4.006,4.006
	h10.464c1.825,7.959,8.96,13.916,17.465,13.916c8.506,0,15.641-5.957,17.466-13.916h68.66c1.825,7.959,8.96,13.916,17.465,13.916
	c8.514,0,15.655-5.969,17.472-13.939c7.333-0.256,13.225-6.284,13.225-13.679v-16.798
	C245.111,120.864,242.942,115.854,239.16,112.303z M175.976,65.25h10.149v4.54h-10.149V65.25L175.976,65.25z M110.824,162.456
	c-5.464,0-9.911-4.446-9.911-9.91s4.446-9.91,9.911-9.91s9.91,4.446,9.91,9.91S116.289,162.456,110.824,162.456z M131.432,105
	c0,2.213-1.794,4.006-4.006,4.006h-6.501v6.501c0,2.213-1.794,4.006-4.006,4.006h-7.744c-2.212,0-4.006-1.793-4.006-4.006v-6.501
	h-6.501c-2.212,0-4.006-1.793-4.006-4.006v-7.745c0-2.213,1.794-4.006,4.006-4.006h6.501v-6.501c0-2.213,1.794-4.006,4.006-4.006
	h7.745c2.212,0,4.006,1.793,4.006,4.006v6.501h6.501c2.212,0,4.006,1.793,4.006,4.006L131.432,105L131.432,105z M180.25,108.897
	c-1.946,0-3.528-1.583-3.528-3.529V86.461c0-1.084,0.881-1.964,1.966-1.964h12.614c1.246,0,2.417,0.485,3.299,1.366l19.273,19.275
	c0.939,0.939,0.646,1.99,0.478,2.4c-0.169,0.408-0.706,1.359-2.035,1.359H180.25z M214.415,162.456c-5.464,0-9.91-4.446-9.91-9.91
	s4.445-9.91,9.91-9.91c5.466,0,9.91,4.446,9.91,9.91S219.88,162.456,214.415,162.456z M181.05,52.831
	c-2.213,0-4.006-1.793-4.006-4.006V37.608c0-2.213,1.793-4.006,4.006-4.006c2.212,0,4.006,1.793,4.006,4.006v11.217
	C185.056,51.038,183.263,52.831,181.05,52.831z M200.499,56.236c-1.026,0-2.051-0.391-2.833-1.174c-1.564-1.564-1.564-4.101,0-5.665
	l7.067-7.067c1.563-1.565,4.101-1.565,5.665,0c1.565,1.564,1.565,4.101,0,5.665l-7.067,7.067
	C202.55,55.845,201.524,56.236,200.499,56.236z M163.484,56.236c-1.025,0-2.05-0.391-2.832-1.174l-7.068-7.067
	c-1.565-1.564-1.565-4.101,0-5.665c1.565-1.565,4.101-1.565,5.666,0l7.067,7.067c1.565,1.564,1.565,4.101,0,5.665
	C165.536,55.845,164.51,56.236,163.484,56.236z"/>
</svg>
