<?xml version="1.0" encoding="UTF-8" standalone="no"?>
<svg width="15px" height="23px" viewBox="0 0 15 23" version="1.1" xmlns="http://www.w3.org/2000/svg" xmlns:xlink="http://www.w3.org/1999/xlink">
    <!-- Generator: Sketch 49.3 (51167) - http://www.bohemiancoding.com/sketch -->
    <title>Group 3</title>
    <desc>Created with Sketch.</desc>
    <defs>
        <polygon id="path-1" points="0 0.0860387302 44.9140246 0.0860387302 44.9140246 45 0 45"></polygon>
    </defs>
    <g id="Page-1" stroke="none" stroke-width="1" fill="none" fill-rule="evenodd">
        <g id="Film" transform="translate(-1076.000000, -1969.000000)">
            <g id="Page-1-Copy-2" transform="translate(1058.000000, 1958.000000)">
                <g id="Group-3">
                    <mask id="mask-2" fill="white">
                        <use xlink:href="#path-1"></use>
                    </mask>
                    <g id="Clip-4"></g>
                    <path d="M20.8390837,15.9336697 L20.8390837,29.0668127 L28.9337605,22.4999283 L20.8390837,15.9336697 Z M19.498007,33.1578947 C19.3054603,33.1578947 19.1113064,33.1169026 18.9296888,33.0346053 C18.4587691,32.819944 18.1578947,32.3590166 18.1578947,31.8527163 L18.1578947,13.1474532 C18.1578947,12.6411529 18.4587691,12.1802256 18.9296888,11.9652513 C19.4002872,11.75059 19.9576762,11.8203706 20.3565918,12.1448659 L31.8856077,21.497341 C32.1913038,21.7454845 32.3684211,22.1125366 32.3684211,22.4999283 C32.3684211,22.887633 32.1913038,23.2546851 31.8856077,23.5025156 L20.3565918,32.8553036 C20.1113278,33.054632 19.8062746,33.1578947 19.498007,33.1578947 Z" id="Fill-1" fill="#FFFFFF" mask="url(#mask-2)"></path>
                </g>
            </g>
        </g>
    </g>
</svg>