<?xml version="1.0" encoding="UTF-8" standalone="no"?>
<svg width="161px" height="133px" viewBox="0 0 161 133" version="1.1" xmlns="http://www.w3.org/2000/svg" xmlns:xlink="http://www.w3.org/1999/xlink">
    <!-- Generator: Sketch 47.1 (45422) - http://www.bohemiancoding.com/sketch -->
    <title>Page 1</title>
    <desc>Created with Sketch.</desc>
    <defs>
        <polygon id="path-1" points="81.123 0.1719 81.123 145.6719 0.8443 145.6719 0.8443 0.1719 81.123 0.1719"></polygon>
        <polygon id="path-3" points="0.4357 0.111 1.4357 0.111 1.4357 1.1109 0.4357 1.1109 0.4357 0.111"></polygon>
        <polygon id="path-5" points="19.4445 20 6.82121026e-13 20 6.82121026e-13 0.9172 19.4445 0.9172"></polygon>
    </defs>
    <g id="Page-1" stroke="none" stroke-width="1" fill="none" fill-rule="evenodd">
        <g id="Desktop-HD-Copy-13" transform="translate(-640.000000, -1549.000000)">
            <g id="Page-1" transform="translate(721.370590, 1613.482963) rotate(15.000000) translate(-721.370590, -1613.482963) translate(658.870590, 1529.982963)">
                <path d="M14.7531,159.538 C14.4501,159.607 14.6851,159.968 14.6651,160.055 C15.1251,159.793 14.7061,159.439 14.7531,159.538" id="Fill-1" fill="#A6A8AB"></path>
                <polygon id="Fill-3" fill="#042F5C" points="19.2513 156.9235 19.2233 157.1155 19.7903 156.4675"></polygon>
                <path d="M23.7383,155.3308 C23.0653,154.8128 22.1543,156.0188 21.2673,156.0648 L21.0803,155.9588 L20.9153,156.6288 C21.8573,156.1958 22.9853,155.3878 23.7383,155.3308" id="Fill-5" fill="#042F5C"></path>
                <path d="M26.6864,155.9184 C26.4374,155.7124 27.1204,155.5094 26.0944,156.0374 C26.1594,156.0464 26.1814,156.0574 26.2214,156.0674 C26.3164,156.0284 26.4514,155.9814 26.6864,155.9184" id="Fill-7" fill="#042F5C"></path>
                <path d="M26.221,156.067 C25.753,156.255 26.616,156.174 26.221,156.067" id="Fill-9" fill="#A6A8AB"></path>
                <path d="M28.3264,155.0504 L27.8034,155.5384 C27.9924,155.6374 28.5524,155.4424 28.3934,155.6384 C28.9744,155.2484 28.7834,155.1514 28.3264,155.0504" id="Fill-11" fill="#042F5C"></path>
                <path d="M28.7146,154.3227 L28.4366,154.5527 C28.5176,154.5937 28.6106,154.5807 28.7146,154.3227" id="Fill-13" fill="#A6A8AB"></path>
                <path d="M27.8447,155.0413 L28.4367,154.5533 C28.3047,154.4833 28.2107,154.2713 28.1567,154.7573 C28.1337,154.5373 28.0757,154.7813 27.8447,155.0413" id="Fill-15" fill="#042F5C"></path>
                <path d="M27.4236,155.0997 C27.0226,155.0987 26.5446,155.1937 27.0686,154.7057 C26.5046,155.0037 26.3016,155.2287 26.3906,155.3287 C26.4816,155.4357 26.8576,155.3957 27.4236,155.0997" id="Fill-17" fill="#042F5C"></path>
                <path d="M23.7074,154.5575 L23.1694,154.5275 L22.8504,154.8955 C23.0104,154.7125 23.8144,154.7565 23.7074,154.5575" id="Fill-19" fill="#042F5C"></path>
                <path d="M32.2904,153.7903 C32.2704,153.6343 31.9274,153.5033 31.8074,153.3423 L31.4214,153.6933 C31.6944,153.6923 32.1724,153.5953 32.2904,153.7903" id="Fill-21" fill="#042F5C"></path>
                <path d="M31.8073,153.3428 L32.3833,152.8188 C31.7673,153.0438 31.7043,153.2038 31.8073,153.3428" id="Fill-23" fill="#042F5C"></path>
                <polygon id="Fill-25" fill="#A6A8AB" points="28.529 153.5407 27.623 154.5147 28.74 153.4447"></polygon>
                <polygon id="Fill-27" fill="#042F5C" points="34.8912 152.7204 34.6452 153.2054 35.1202 152.4294"></polygon>
                <path d="M36.5865,151.9425 C36.4195,152.3285 37.1775,152.2295 36.9485,152.5195 C37.3965,152.2755 37.6935,151.8785 37.9605,151.5235 C37.6305,151.7975 37.2095,151.9395 36.5865,151.9425" id="Fill-29" fill="#042F5C"></path>
                <path d="M38.4196,150.9511 C38.2626,151.1051 38.1226,151.3161 37.9606,151.5231 C38.1376,151.3811 38.2916,151.1961 38.4196,150.9511" id="Fill-31" fill="#A6A8AB"></path>
                <path d="M33.5649,152.4046 C33.6529,152.4666 33.8489,152.6456 34.2689,152.5796 L33.8339,152.2986 C33.7519,152.3306 33.6589,152.3676 33.5649,152.4046" id="Fill-33" fill="#042F5C"></path>
                <path d="M33.8191,152.2901 L33.8341,152.2991 C34.1271,152.1891 34.3311,152.1121 34.4181,152.0801 C34.3431,152.1061 34.1621,152.1691 33.8191,152.2901" id="Fill-35" fill="#A6A8AB"></path>
                <path d="M33.4971,152.4309 C33.5221,152.4209 33.5401,152.4139 33.5651,152.4049 C33.5231,152.3769 33.5021,152.3699 33.4971,152.4309" id="Fill-37" fill="#A6A8AB"></path>
                <path d="M30.4424,153.1583 C30.7494,152.7703 31.4744,152.1883 30.5374,152.1863 C30.3654,152.5753 30.9024,152.5753 30.4424,153.1583" id="Fill-39" fill="#042F5C"></path>
                <path d="M32.9575,152.0776 L32.2025,152.2876 C32.2605,152.3866 32.4535,152.4836 32.3035,152.6756 L32.9575,152.0776 Z" id="Fill-41" fill="#042F5C"></path>
                <polygon id="Fill-43" fill="#A6A8AB" points="33.2551 151.8056 32.9571 152.0776 33.2371 151.9996"></polygon>
                <path d="M37.0307,151.1242 C37.2637,150.8202 37.6017,150.6772 37.9657,150.4702 C37.5277,150.5842 37.0787,150.7082 36.6777,150.8822 C36.6757,151.0282 36.5957,151.3232 37.0307,151.1242" id="Fill-45" fill="#042F5C"></path>
                <path d="M35.4544,151.6567 C35.4734,151.6407 35.4954,151.6207 35.5134,151.6057 C35.4564,151.5897 35.4184,151.5937 35.4544,151.6567" id="Fill-47" fill="#A6A8AB"></path>
                <polygon id="Fill-49" fill="#A6A8AB" points="41.6501 148.6768 41.5571 148.6358 41.5751 148.7088"></polygon>
                <path d="M36.5762,150.8381 C36.2342,150.8921 36.0922,151.0651 35.9692,151.2591 C36.1832,151.1231 36.4162,150.9951 36.6772,150.8821 C36.6782,150.8161 36.6672,150.7771 36.5762,150.8381" id="Fill-51" fill="#042F5C"></path>
                <path d="M39.3667,150.2672 C39.1717,150.2622 38.9617,150.2812 38.7457,150.3082 C38.9557,150.3572 39.3577,150.3952 39.3667,150.2672" id="Fill-53" fill="#A6A8AB"></path>
                <path d="M35.6653,151.6699 C35.6523,151.6829 35.6413,151.6959 35.6263,151.7069 C35.7653,151.7479 35.7343,151.7129 35.6653,151.6699" id="Fill-55" fill="#A6A8AB"></path>
                <path d="M35.6653,151.6699 C35.7993,151.5469 35.8823,151.3979 35.9693,151.2599 C35.7953,151.3689 35.6393,151.4839 35.5133,151.6049 C35.5643,151.6169 35.6213,151.6429 35.6653,151.6699" id="Fill-57" fill="#042F5C"></path>
                <path d="M41.5643,145.6646 C41.6863,146.0456 41.0603,146.7586 40.2013,146.7056 C39.6643,147.2976 40.6543,148.2646 41.5573,148.6356 C41.5033,148.4696 41.4353,148.3246 42.0243,147.7776 C41.6873,147.7006 40.2753,148.0666 40.7023,147.4596 C41.5243,146.8316 41.5083,147.2226 42.0433,147.1946 C41.4523,146.9336 42.8873,145.9836 42.3673,145.4296 L41.6853,146.0466 C41.6213,145.9526 41.8303,145.6496 41.5643,145.6646" id="Fill-59" fill="#042F5C"></path>
                <path d="M40.2208,149.2422 L39.9568,149.4262 C40.3108,149.3302 40.6108,149.3602 41.1728,149.4312 C41.5648,149.0242 41.5998,148.8442 41.5758,148.7092 L40.1488,149.3432 L40.2208,149.2422 Z" id="Fill-61" fill="#042F5C"></path>
                <path d="M38.6779,150.0509 C38.7209,149.5499 39.3249,149.0519 38.7119,148.8319 C37.8929,149.2639 38.2799,149.4429 37.8589,149.8559 C39.1609,149.1029 37.5709,150.2639 38.6469,150.0109 C38.4119,150.2069 38.1829,150.3439 37.9649,150.4699 C38.2299,150.3989 38.4909,150.3439 38.7459,150.3089 C38.7289,150.3049 38.7179,150.3029 38.7029,150.2989 L38.6979,150.3039 L38.6959,150.2969 C38.6159,150.2769 38.5829,150.2559 38.6609,150.2529 C38.6639,150.2459 38.6789,150.2359 38.6859,150.2309 C38.6699,150.1719 38.6729,150.1119 38.6789,150.0529 C39.1069,149.9429 38.7869,150.1249 38.6859,150.2309 C38.6899,150.2519 38.6879,150.2759 38.6959,150.2969 L38.7029,150.2989 L39.9569,149.4259 C39.6449,149.5109 39.2929,149.6969 38.6779,150.0509" id="Fill-63" fill="#042F5C"></path>
                <path d="M30.9152,151.0223 C30.9722,151.0393 30.9822,151.0683 30.9972,151.0963 C31.0662,151.0103 31.0862,150.9633 30.9152,151.0223" id="Fill-65" fill="#A6A8AB"></path>
                <path d="M31.5805,151.0257 C31.5035,151.1227 31.4875,151.3167 31.1455,151.4117 C30.8135,151.4107 31.0675,151.2207 30.9975,151.0967 C30.8465,151.2837 30.4315,151.6687 31.1265,151.6047 L31.2005,151.5097 C31.8115,151.4147 32.7345,151.6117 32.6605,151.7057 C32.3465,151.4167 32.0965,151.2227 31.5805,151.0257" id="Fill-67" fill="#042F5C"></path>
                <path d="M35.1221,150.4533 L36.1841,149.7783 L35.4481,149.6823 L35.5691,149.8753 C34.8821,150.0673 35.1341,150.2613 35.1221,150.4533" id="Fill-69" fill="#042F5C"></path>
                <polygon id="Fill-71" fill="#A6A8AB" points="41.8717 148.8073 41.9187 149.2913 42.2917 148.3933"></polygon>
                <polygon id="Fill-73" fill="#042F5C" points="43.3125 148.0438 43.4325 148.4258 43.7145 148.0228"></polygon>
                <path d="M105.4655,84.0226 L105.5315,83.6556 C105.4835,83.8206 105.4665,83.9336 105.4655,84.0226" id="Fill-75" fill="#A6A8AB"></path>
                <path d="M104.2421,86.2959 L104.3841,86.4459 C104.3451,86.2879 104.2981,86.2069 104.2421,86.2959" id="Fill-77" fill="#A6A8AB"></path>
                <path d="M77.004,126.4917 C77.651,126.4287 78.484,126.4757 78.147,126.1767 L77.74,125.9527 C77.503,126.2557 77.251,126.4047 77.004,126.4917" id="Fill-79" fill="#A6A8AB"></path>
                <path d="M94.2944,105.2927 C94.2304,105.3047 94.1624,105.3187 94.0954,105.3317 C94.1314,105.5247 94.1654,105.7057 94.1954,105.8717 C94.2254,105.6957 94.2594,105.4987 94.2944,105.2927" id="Fill-81" fill="#A6A8AB"></path>
                <path d="M93.121,103.8822 L93.769,103.5172 C93.596,103.5782 93.385,103.6932 93.121,103.8822" id="Fill-83" fill="#A6A8AB"></path>
                <path d="M110.7939,70.9984 L110.5289,70.4564 C110.2989,71.0604 110.6099,70.8734 110.7939,70.9984" id="Fill-85" fill="#A6A8AB"></path>
                <path d="M57.9202,139.9764 C58.3972,139.8694 58.7452,139.7294 59.0292,139.5704 C58.4282,139.6634 57.8562,139.5874 57.9202,139.9764" id="Fill-87" fill="#A6A8AB"></path>
                <path d="M109.0636,87.0799 C109.0996,86.8429 109.0656,86.7159 108.9776,86.6769 C108.9346,86.9169 108.9466,87.0729 109.0636,87.0799" id="Fill-89" fill="#A6A8AB"></path>
                <path d="M60.1549,138.8407 C60.0629,138.8487 59.9839,138.8737 59.8949,138.8877 C59.6479,139.1337 59.3919,139.3687 59.0289,139.5707 C59.4739,139.5047 59.9329,139.3437 60.1549,138.8407" id="Fill-91" fill="#A6A8AB"></path>
                <path d="M119.383,20.9488 C119.402,20.9108 119.41,20.8658 119.432,20.8318 C119.373,20.8218 119.371,20.8738 119.383,20.9488" id="Fill-93" fill="#A6A8AB"></path>
                <path d="M122.4057,5.4571 C122.4557,5.6041 122.4977,5.8501 122.5387,6.0811 C122.5517,5.9631 122.5167,5.7741 122.4057,5.4571" id="Fill-95" fill="#A6A8AB"></path>
                <path d="M49.2644,145.2778 C48.9754,145.4728 49.2394,145.3468 49.2644,145.2778" id="Fill-97" fill="#A6A8AB"></path>
                <path d="M46.988,144.5512 C47.031,144.4762 47.052,144.3962 47.013,144.3042 C47.036,144.4092 47.024,144.4892 46.988,144.5512" id="Fill-99" fill="#A6A8AB"></path>
                <path d="M61.5693,134.7066 L61.5953,134.6916 C61.4633,134.6756 61.4863,134.6796 61.5693,134.7066" id="Fill-101" fill="#A6A8AB"></path>
                <path d="M48.718,145.359 C48.856,145.342 49.007,145.308 49.164,145.256 C49.086,145.261 48.949,145.29 48.718,145.359" id="Fill-103" fill="#A6A8AB"></path>
                <path d="M48.875,145.506 C48.763,145.55 48.675,145.584 48.592,145.617 C48.587,145.703 48.642,145.724 48.875,145.506" id="Fill-105" fill="#A6A8AB"></path>
                <path d="M49.6738,145.0205 C49.5048,145.1235 49.3338,145.1965 49.1638,145.2555 C49.2368,145.2485 49.2738,145.2555 49.2648,145.2775 C49.3508,145.2235 49.4728,145.1475 49.6738,145.0205" id="Fill-107" fill="#A6A8AB"></path>
                <path d="M118.5457,48.4681 C118.5627,48.4481 118.5757,48.4241 118.5987,48.4041 C118.4777,48.0371 118.4807,48.1891 118.5457,48.4681" id="Fill-109" fill="#A6A8AB"></path>
                <path d="M80.6727,117.2306 C80.6647,117.2446 80.6657,117.2586 80.6597,117.2726 C80.6737,117.2656 80.6927,117.2556 80.7057,117.2486 L80.6727,117.2306 Z" id="Fill-111" fill="#A6A8AB"></path>
                <path d="M81.317,116.1593 C81.322,116.9053 81.064,117.0623 80.706,117.2493 L81.856,117.8793 L81.317,116.1593 Z" id="Fill-113" fill="#A6A8AB"></path>
                <g id="Group-117" transform="translate(43.000000, 1.889000)">
                    <mask id="mask-2" fill="white">
                        <use xlink:href="#path-1"></use>
                    </mask>
                    <g id="Clip-116"></g>
                    <path d="M79.3623,43.4979 L79.1993,43.7039 C79.1473,43.1769 79.2483,43.3369 79.3623,43.4979 M8.2603,141.5739 C8.1903,141.6899 8.2303,141.7449 8.3063,141.7789 C8.3183,141.6319 8.5423,141.4959 8.8193,141.3799 C8.6853,141.3099 8.5123,141.3079 8.2603,141.5739 M9.3803,141.1829 L9.3923,141.1489 C9.9753,141.0369 9.7643,141.0699 9.3803,141.1829 M49.4003,104.2929 C49.3923,104.0479 49.6293,103.8759 49.9713,103.7409 C49.8563,103.9479 49.6783,104.1429 49.4003,104.2929 M59.5173,87.8509 C59.5573,87.5889 59.5393,87.0159 59.8783,87.0059 C60.2123,87.5219 59.8703,87.5749 59.5173,87.8509 M65.0603,76.5269 L64.3603,77.1309 C64.1943,75.9379 64.6943,75.3699 63.8723,75.8559 C65.0543,76.5279 62.6733,78.8779 63.8283,79.5679 L63.3133,79.9339 C63.3983,79.7989 63.3383,79.7409 63.4243,79.6079 C62.3393,80.2719 63.9313,80.7549 63.1063,81.9079 C62.7873,82.2929 62.4543,82.5009 62.4653,82.1339 L62.2593,83.2499 C62.0893,83.5169 61.9173,83.3369 62.0853,83.0719 L61.4133,84.5869 L61.3843,84.5569 C61.4613,84.8679 61.5003,85.5019 61.5013,85.8029 C61.1353,86.0819 61.4733,85.5449 61.2753,85.5579 C61.2753,85.5579 61.2403,85.8019 61.2053,86.0459 C61.1713,86.2899 61.1173,86.5239 61.1173,86.5239 C60.6153,86.6689 60.7263,85.8579 61.0483,85.3139 C59.4763,85.4089 60.9843,86.1519 59.3453,87.3359 L59.6433,86.5129 C58.6883,86.6009 58.5833,87.3129 57.6693,87.8919 C58.0003,87.8309 59.7183,86.8489 59.4973,87.8669 C59.2633,88.0539 59.0313,88.3429 58.9883,88.9429 C58.5713,88.6979 58.4023,89.2049 58.0873,89.7789 L57.5653,89.4049 C57.3583,90.1039 57.6633,90.2289 57.6923,90.7379 C57.2303,91.3799 56.7273,91.2519 56.2813,91.1839 C55.5453,92.2029 57.3993,90.8699 56.7293,92.2109 C55.9273,92.9409 55.7243,93.6839 55.3213,94.9359 C54.7193,95.4159 55.0723,94.6089 54.7703,94.7219 L54.8183,95.5469 C54.7173,95.6719 54.6173,95.5389 54.5673,95.4729 C54.4153,96.0379 55.0673,95.8749 54.7133,96.6889 C55.1503,97.2939 52.8593,97.5499 52.8953,98.9009 C52.5983,99.0089 52.6533,98.5619 52.4083,98.4809 C51.9313,99.9569 51.9353,99.6959 51.7443,101.0779 L50.7693,101.6279 C51.6203,101.3309 51.4653,102.4389 51.2943,103.4039 C51.6453,103.3359 51.9493,103.2799 52.1233,103.2169 L51.5333,104.5099 C51.3473,104.5739 51.2643,104.3259 51.1963,103.9829 C51.1783,104.0889 51.1643,104.1909 51.1583,104.2759 C50.6683,104.5119 50.5413,104.0779 50.4813,103.5799 L51.0953,103.4419 C51.0023,102.9339 50.8613,102.4209 50.5243,102.2429 C50.5263,102.3569 50.4703,102.5299 50.3823,102.6979 C50.3543,102.5639 50.3153,102.4609 50.2403,102.4529 C50.1593,102.4469 50.1813,102.6459 50.1703,102.9219 L49.4243,102.7149 L49.5983,102.9509 L48.1533,104.0499 C47.9483,105.5189 47.9663,106.9969 46.8233,108.7079 C46.7723,107.9869 46.2583,108.0599 45.8143,107.6259 C46.6753,107.6549 46.6543,106.2879 47.4543,105.6069 C47.0353,105.9639 46.8923,105.6829 46.9073,105.5129 L46.1083,107.2789 C45.7573,106.9119 45.5593,107.3189 45.0773,107.5369 C46.0703,107.9339 44.6413,109.0089 44.3573,109.7789 C44.0793,109.5839 43.9493,109.2169 44.6283,108.5899 C43.3913,108.8289 44.6063,110.3629 43.4623,110.6699 C43.6083,110.4969 43.7283,110.4419 43.6633,110.2589 C43.5263,110.8549 42.4863,111.6469 42.4803,111.2189 L42.6263,111.0469 C41.5323,112.0699 39.3643,114.2199 39.8073,115.0039 C39.7203,114.9359 39.2343,114.1319 39.1793,113.9459 C39.1793,113.9459 39.1943,114.9259 39.2103,115.9059 C39.2153,116.8959 39.2203,117.8859 39.2203,117.8859 C38.8893,117.1899 37.0503,116.5449 37.6593,115.3829 C37.3323,115.5549 36.9343,115.7699 36.5703,116.4799 C36.8143,116.3889 37.7253,116.8339 37.5303,117.1149 C36.3173,117.1489 36.7823,117.2429 35.4973,117.4979 C35.8783,117.3769 36.3413,118.4919 35.8713,118.8389 C35.8263,118.6529 35.0803,118.0269 35.1613,117.8019 L34.8113,119.5709 C34.9523,119.1869 34.2293,118.8149 33.7763,118.7819 C34.0343,118.8519 32.8183,119.5649 32.6003,119.8949 L33.2343,119.7009 C31.8903,120.6149 33.0363,121.9409 31.7573,122.9459 C31.7603,122.6389 31.2133,121.5319 30.5003,121.9499 C30.5723,122.6169 31.0083,125.2139 30.1093,126.4309 L29.6823,126.3369 L29.0183,127.2959 C29.0333,126.7459 29.1493,125.8219 29.3053,124.8939 C29.4673,123.9709 29.6093,122.9699 29.7893,122.3679 C29.1643,122.5559 29.4173,122.1749 28.7463,122.7819 C28.3113,122.7459 28.8293,122.0979 29.0193,121.9129 C29.0193,121.9129 28.5883,122.2129 28.1583,122.5129 C27.7193,122.8019 27.2603,123.0659 27.2603,123.0659 C27.7513,123.5399 26.3833,124.5549 26.7883,124.9529 L28.2003,123.0399 C28.6943,123.5089 28.3133,125.3309 27.0253,126.1379 C26.5563,126.1519 26.5303,125.0139 26.3673,124.8559 C26.3533,125.1549 25.4933,126.0529 25.2843,126.0039 L25.5783,125.3389 C24.7613,125.6299 25.0183,126.8629 23.8333,126.9429 C23.5293,127.1139 22.4983,126.8539 22.6843,127.2119 C23.5813,127.5019 25.0693,129.3549 25.0983,130.0509 C24.9673,130.0839 23.1843,130.5549 22.6483,130.4809 C21.8433,130.3289 22.5163,128.7939 21.8273,128.6619 C21.9163,128.8239 21.7933,129.1979 21.7293,129.3359 C21.3453,129.4219 21.5283,128.7849 20.9343,129.3119 C21.2113,129.9449 19.5503,130.1389 20.9473,129.9899 C20.4073,130.5719 20.1773,130.3219 19.4303,130.8399 C19.9213,131.0469 19.5793,132.5299 19.0253,133.1209 C18.9693,132.9509 18.6973,132.8579 18.5693,132.8179 C17.1923,133.6359 16.3063,133.8409 15.0543,134.6439 C14.8513,134.5789 14.1453,134.7979 14.2473,134.3819 C14.1313,134.6009 14.0883,134.9039 13.7123,135.1679 C12.6613,135.1449 14.5203,134.5349 13.5833,134.2979 C13.7393,134.6599 12.8903,135.4269 12.4353,135.9369 C12.9373,136.3839 13.7913,135.2619 14.2023,134.6879 C14.6393,135.3849 14.1823,136.8269 12.9943,137.9049 C12.0133,138.6979 12.2453,137.6999 12.1173,137.9099 C10.0093,138.9289 11.1153,140.1679 9.1133,140.5959 C8.1763,140.5059 8.5603,139.6789 8.2213,139.4249 C9.0013,138.7509 9.7423,138.9599 10.3303,138.6039 L9.4683,138.7969 C9.6603,138.4839 10.1793,138.0359 10.5773,137.9899 C9.7763,137.8869 7.1023,139.8409 5.3273,140.3299 C5.1353,140.6449 4.7433,141.0799 5.0713,141.1429 L5.5313,140.7979 C6.1933,140.9229 4.8803,141.8529 5.6043,141.6779 C5.3433,141.9999 5.0803,142.3729 4.7503,142.7049 C4.4133,143.0219 3.9993,143.2809 3.4583,143.4109 L2.9953,142.9539 C3.0973,143.1039 3.7963,142.9699 3.9833,142.6709 C3.7023,143.1099 2.1183,142.6569 2.0413,143.5879 L2.9143,143.6349 C2.3633,144.2469 1.7953,145.2489 0.8443,145.4969 C1.5073,145.8479 1.0123,145.3389 1.9443,145.6719 C1.0153,145.1439 4.1763,144.6239 2.8993,144.2159 C3.9053,144.6409 4.1483,143.9949 5.2993,144.2129 C5.1753,144.0389 4.8363,144.0319 5.5913,143.7279 C5.5963,143.6579 5.6363,143.5489 5.6633,143.4829 C5.6873,143.4769 5.6963,143.4749 5.7183,143.4699 L5.6683,143.4709 C5.6843,143.4269 5.6843,143.4199 5.6493,143.4719 C5.4403,143.4879 5.2543,143.4699 5.1473,143.4019 C5.2803,142.7929 6.4033,142.1779 6.6663,141.7539 C7.1293,141.6039 6.6033,142.0559 6.9333,142.1179 L7.3253,141.4839 C7.5953,141.8479 8.7953,141.5129 7.9353,142.2989 L8.8333,141.8169 C9.4783,141.7429 10.2493,141.4229 10.5993,141.0089 C11.0673,140.8569 11.4103,139.9809 11.2203,140.4919 L12.4723,139.4659 L12.5423,139.5559 C13.2433,139.1929 13.8543,138.6349 14.5373,138.1449 C15.1963,137.6139 15.9223,137.1439 16.8943,136.9989 C17.2813,136.6139 17.6663,136.1989 18.4803,135.8239 L18.8363,136.0559 C19.3353,135.5719 20.7733,135.2659 20.7973,134.7679 C21.9833,135.2149 23.7483,133.2019 24.7853,132.5879 L24.5303,132.1459 C25.2113,131.6769 25.7663,131.0859 26.4703,130.3109 L26.1553,129.9869 C26.6443,129.1659 28.1653,128.8939 29.2623,128.0239 C29.2903,128.2159 28.9783,128.3919 28.7143,128.4589 C29.6913,128.3649 30.2903,127.6909 30.8463,127.0059 C31.4103,126.3289 31.8633,125.5529 32.6833,125.3629 C32.8683,124.9919 33.1113,124.8589 33.3853,124.7749 C33.3593,124.7989 33.3403,124.8249 33.3293,124.8539 C33.3623,124.8329 33.4063,124.7969 33.4513,124.7579 C33.6273,124.7099 33.8153,124.6679 34.0043,124.6029 C33.8133,124.6209 33.6403,124.6499 33.5133,124.7029 C33.7293,124.5079 34.0313,124.1799 34.2893,123.8139 L34.7403,124.0639 C34.7643,124.0369 34.7833,124.0159 34.8083,123.9879 C35.2483,123.8489 34.9213,123.5939 34.5153,123.4629 C34.6293,123.2619 34.7203,123.0609 34.7623,122.8719 C35.5313,123.2409 35.4553,121.9429 36.3573,122.2669 C36.3143,121.7729 37.8163,120.6319 37.4203,119.8529 C37.5063,119.9259 37.6383,119.8829 37.4653,120.0379 C37.9063,119.8119 38.2953,119.5259 38.4503,119.0579 L39.0113,119.3669 L39.2053,118.0349 C39.9173,117.8669 40.2583,117.8389 40.1243,118.6239 C40.7283,117.0339 40.8333,117.5609 41.2673,116.1429 L41.4983,116.4709 C41.8223,116.1369 41.9823,115.2449 42.4143,115.2829 C43.0353,115.1739 44.0353,114.3509 45.0453,113.2549 C46.0633,112.1639 47.2103,110.9209 48.3723,110.1629 C47.1523,109.7709 49.6003,109.5879 48.9943,108.9109 C49.3053,108.9779 49.6753,108.8029 49.5633,109.2819 C50.2833,108.0979 51.2873,108.0439 51.2783,106.8009 C51.5883,106.8559 51.4053,107.2899 51.6183,107.2859 C51.6413,107.1609 51.7053,106.7909 51.9213,106.7839 C52.1353,106.7799 51.9743,107.0899 51.9303,107.3369 C52.7723,106.2059 52.2013,105.5589 51.6443,104.9769 C52.3763,104.6649 52.5563,104.3529 52.4623,103.6309 C52.8183,103.6019 53.2883,103.4499 52.8233,104.1849 C53.1543,103.8299 54.9803,102.0889 54.5003,101.6639 C54.7253,101.6429 54.9613,101.1609 54.9823,101.0169 C55.6683,100.1699 55.7463,100.1069 56.3163,99.1979 L56.0623,99.3809 C55.6773,98.5829 56.4293,98.5519 56.8463,97.7909 L56.8963,97.8559 C58.4833,96.5499 57.1623,97.0069 58.8023,95.7619 L58.3433,95.5819 C57.5673,94.8499 59.8793,94.5329 60.1033,93.3219 L59.6613,93.5229 C59.6803,92.8099 61.7423,92.7979 62.1803,92.3239 C62.3273,92.2539 62.1913,92.5839 62.1483,92.7829 C63.5193,91.6959 61.7243,92.2699 62.2313,91.1509 C62.6383,91.1339 62.8173,91.8469 63.2993,91.1739 C63.7473,90.9539 63.5973,88.5799 64.7193,87.9339 C64.3743,88.0249 64.0333,88.1109 64.1273,87.5169 C64.4453,86.7099 66.0863,85.9129 65.7233,84.8309 C65.8383,84.7659 65.9183,84.7609 65.9773,84.7879 C66.0983,84.1009 66.6653,82.7179 66.4503,82.1669 C68.2803,82.3819 67.4843,78.1179 68.8593,78.7829 L69.6243,76.8919 L69.7453,77.0039 C70.3743,75.8549 70.2273,75.2889 70.0773,74.7319 C70.2963,74.4989 70.3373,74.7529 70.4013,74.8069 C71.3943,73.1629 71.3883,72.9439 71.2543,71.1889 L71.7763,71.2129 C71.7193,70.9599 72.1473,70.3889 72.6073,69.6339 C73.0743,68.8819 73.5643,67.9409 73.5593,66.9519 C73.6073,66.9879 73.6863,67.0559 73.7063,67.2199 C73.7973,65.0499 76.5773,62.8299 75.0813,61.5739 L75.0113,60.1169 C74.4153,61.7979 74.3263,59.6459 73.8483,60.2689 C73.9263,59.5709 74.8403,58.6769 74.7073,59.5299 L74.5853,59.6349 C75.4103,60.1949 75.4803,57.5869 76.0873,57.7979 C76.3033,56.9439 76.5563,56.1059 76.8173,55.2759 C77.0433,54.4369 77.2873,53.6079 77.5313,52.7849 C78.0033,51.1369 78.5623,49.5259 78.8233,47.8909 L78.0393,48.1339 L78.2723,47.0089 C78.4913,46.7419 78.9043,46.7079 78.7373,47.5139 C79.2183,47.1579 78.6253,46.0939 78.4723,46.0459 C79.0333,44.5099 79.2093,46.8069 79.3083,46.3249 L79.3663,45.6529 L79.2573,45.7879 C79.0523,45.2029 78.7473,45.1059 78.9473,44.1389 C79.1963,43.5459 79.4473,43.8909 79.5163,43.6519 C79.5663,43.6609 79.6073,43.5829 79.5983,43.2819 L79.8413,41.8479 L79.1963,42.3449 C78.9943,41.6689 79.3963,40.9999 78.6643,41.5739 C79.7973,40.7359 79.6973,36.2659 80.0063,35.6959 C79.6623,34.7619 79.7433,33.8839 79.8863,32.7939 C79.7433,33.0569 79.0823,33.1719 79.2403,32.2399 C80.5723,32.6739 79.9093,30.5519 80.9073,29.8329 C80.2373,30.4869 80.8753,27.1289 79.9173,28.1689 C80.0623,27.3849 80.4213,28.1389 80.7643,27.5499 C80.2913,25.6549 81.1943,23.3989 80.9813,21.0579 C80.8043,21.0249 80.5443,21.4179 80.2713,20.9229 L81.1233,19.6749 C81.0263,19.2139 80.0983,19.2789 80.6893,18.4199 C80.5443,18.5439 80.3253,18.7269 80.2623,18.4209 C80.9563,13.7969 79.0253,9.2199 79.9583,4.4049 C79.7073,5.0809 79.6163,4.6669 79.5383,4.1919 C79.5003,4.5139 79.1073,4.2489 78.8803,4.3449 L79.2273,2.3159 C78.5203,2.0779 78.8133,0.2539 78.1423,0.1719 L78.3743,0.7589 C77.4943,0.1029 76.9493,2.1909 75.9823,2.2319 C76.9723,2.9769 75.1333,4.7349 76.5213,6.0059 C76.3713,6.3519 76.1773,5.7749 75.9803,5.9759 C76.4343,6.2869 76.5913,6.7199 76.5043,7.5669 L76.3933,7.4859 C76.5713,8.6379 76.5873,9.4749 76.5603,10.3479 C76.5103,11.2249 76.4163,12.1399 76.3903,13.4489 L76.8463,13.2219 C76.8303,13.7869 76.6933,13.9149 76.5863,14.1859 C77.3533,14.7819 76.5133,12.6079 77.3433,13.1369 C76.4623,13.9469 77.5533,17.1149 76.4953,17.6649 C76.5203,18.5279 77.0413,17.3899 77.0563,18.2549 L76.7653,18.4949 L77.1523,18.7009 C77.1023,19.2709 76.7373,19.5659 76.4873,19.5939 C76.5133,19.4559 76.4083,19.2059 76.3833,19.0599 C76.0503,19.7999 76.5483,21.1209 76.4403,21.3759 L76.6043,20.5449 C76.7863,21.7189 76.7513,23.0289 76.7413,24.3279 C76.7363,25.6269 76.7973,26.9149 77.0263,28.0659 L77.2573,27.9009 C77.5903,29.6639 76.9473,29.2869 77.0503,31.2109 L77.0003,31.1379 C77.2073,31.5339 77.2953,32.0549 77.2183,32.5759 C76.9973,32.0759 76.6333,33.4469 76.3983,32.7939 C76.6823,34.7089 76.6673,33.7479 77.3903,35.0679 L76.9963,35.3229 C77.2943,35.7789 77.4683,35.8309 77.4823,36.8009 C77.2323,35.9839 76.8693,37.3539 76.5233,36.4349 C75.5293,38.3399 76.9833,39.4909 75.7053,40.2619 C76.6093,41.3079 76.4873,38.6069 76.6403,39.1469 C77.0283,38.7549 77.3073,39.9979 77.1263,40.6159 C77.0153,41.2549 75.7053,41.5339 75.4903,43.1249 C75.5223,42.9679 75.4473,42.9459 75.4783,42.7889 C75.1183,43.3429 75.6313,44.0069 75.0873,44.6689 C75.6313,45.1779 74.8923,45.6079 75.6533,45.8589 L75.7203,44.3669 C75.7853,45.2249 76.5663,46.1639 75.8913,47.4589 C75.7523,47.3229 75.6143,46.8789 75.5453,46.5789 C75.2483,46.9369 75.5683,47.3759 75.2623,47.7469 C74.5023,47.4859 75.3923,45.9409 74.9463,44.9559 C74.5443,45.3259 75.2293,46.7239 74.4583,46.1339 C75.4183,46.9609 74.0763,47.6699 74.6813,48.8919 L74.2303,48.7309 C74.2673,48.9129 74.4113,49.3059 74.3323,49.6139 L73.8503,48.9339 C74.1783,49.8969 73.0413,50.4949 73.1433,51.3739 C73.5023,49.6489 73.7863,51.1069 74.2843,50.4469 C74.4413,52.7209 72.8033,51.4129 72.5123,53.8349 C72.5163,53.4989 73.0513,52.6919 73.1563,53.2449 C72.9593,53.6759 72.6653,54.2359 72.3453,54.4499 C72.0223,56.0289 72.8833,54.3269 72.9883,55.0599 C72.2843,55.4519 73.0113,55.8829 73.0063,56.6189 L72.5373,56.5019 C71.7603,58.2029 73.3823,57.2339 72.5893,58.7469 L72.1263,57.8899 L72.0683,58.7719 L71.5853,58.4529 C71.7333,59.4679 71.5623,59.7279 71.1663,60.5699 C71.5583,60.4629 71.9693,60.9329 71.7303,61.7189 C71.2833,62.1669 71.3873,61.2879 71.0963,62.4109 C70.8883,62.0719 70.6133,61.6899 71.1943,61.3409 C71.0593,61.2459 70.9843,61.0089 70.8513,60.9139 C70.3513,61.3859 70.3163,62.3179 70.1913,62.7179 C70.2583,62.5699 70.3423,62.3949 70.4383,62.3219 L70.5583,64.1209 C70.3043,64.3159 70.2313,64.0709 70.1593,63.8299 C70.1043,64.1679 70.2423,64.4609 70.1283,64.9499 C69.7963,64.7029 69.4023,64.6029 69.4433,63.8769 L69.3663,65.5279 C69.1723,65.5749 68.6723,66.1509 68.5993,65.9069 C68.1243,66.6669 68.5553,68.1839 67.8613,69.1759 C67.9113,69.2599 67.9353,69.3999 67.8983,69.6519 C67.4183,70.6499 66.6253,71.3729 66.6553,72.7929 C66.6553,72.7929 66.4213,72.8959 66.1873,72.9979 C65.9493,73.0979 65.7113,73.1969 65.7113,73.1969 C65.4383,74.1879 66.9403,72.6289 66.4833,74.2849 C66.1913,75.4749 65.7473,74.4559 65.3943,74.7619 C65.4743,75.4449 65.7003,76.6979 64.7243,77.4689 C64.7543,77.0789 64.9673,76.8609 65.0603,76.5269" id="Fill-115" fill="#042F5C" mask="url(#mask-2)"></path>
                </g>
                <path d="M93.2529,104.0506 C93.3599,104.0466 93.4429,104.0876 93.5239,104.1316 C93.5209,104.0056 93.4479,103.9456 93.2529,104.0506" id="Fill-118" fill="#A6A8AB"></path>
                <path d="M110.8426,71.099 L110.8616,71.065 C110.8416,71.035 110.8186,71.014 110.7936,70.998 L110.8426,71.099 Z" id="Fill-120" fill="#A6A8AB"></path>
                <path d="M64.3204,130.6163 C64.5484,130.5333 64.7044,130.5283 64.8274,130.5503 C64.7694,130.4463 64.6264,130.4283 64.3204,130.6163" id="Fill-122" fill="#A6A8AB"></path>
                <path d="M46.1747,147.1005 L46.7917,146.6595 C46.4767,146.8405 46.3117,146.8025 46.1127,146.8145 C46.1787,146.9085 46.3817,146.9905 46.1747,147.1005" id="Fill-124" fill="#042F5C"></path>
                <path d="M39.0533,147.2509 C38.9813,147.3519 38.8503,147.3569 38.7793,147.4579 L38.9013,147.6489 C39.3093,147.4329 39.5213,147.1289 39.0533,147.2509" id="Fill-126" fill="#A6A8AB"></path>
                <path d="M44.8277,145.9733 C44.5917,145.6363 44.2347,145.9643 43.8007,146.2593 C43.8277,146.2443 43.8527,146.2283 43.8827,146.2193 C43.9987,146.7953 44.4147,146.3833 44.8277,145.9733" id="Fill-128" fill="#042F5C"></path>
                <path d="M43.6979,146.3249 C43.5619,146.4119 43.4199,146.4939 43.2699,146.5449 C43.3159,146.7759 43.4659,146.5019 43.6979,146.3249" id="Fill-130" fill="#042F5C"></path>
                <path d="M50.0978,144.4262 C49.8318,144.4562 50.2088,144.9602 50.0068,144.8832 C50.0108,145.4742 51.1558,143.5182 50.0978,144.4262" id="Fill-132" fill="#042F5C"></path>
                <polygon id="Fill-134" fill="#042F5C" points="43.8481 144.9627 44.2401 145.3287 44.3201 144.8407"></polygon>
                <path d="M47.6803,143.4669 L47.2863,143.6089 C47.0913,143.6829 46.8853,143.7359 46.8853,143.7359 C46.9363,143.8049 46.8643,143.8949 46.7653,143.9849 C47.2383,143.7879 47.7653,143.5859 47.6803,143.4669" id="Fill-136" fill="#042F5C"></path>
                <path d="M46.7653,143.9848 C46.5213,144.0928 46.2993,144.2138 46.2033,144.3508 C46.3303,144.2838 46.6013,144.1328 46.7653,143.9848" id="Fill-138" fill="#A6A8AB"></path>
                <polygon id="Fill-140" fill="#042F5C" points="44.7965 144.3327 45.0635 144.3187 45.6055 144.0957"></polygon>
                <path d="M55.4957,139.1743 L56.2107,138.6063 C56.2017,138.4143 55.9337,138.4453 55.6757,138.6683 C55.5487,138.8773 55.2897,139.0993 55.4957,139.1743" id="Fill-142" fill="#042F5C"></path>
                <path d="M52.4266,139.3278 C52.6906,139.2988 52.7606,139.3878 52.9626,139.4638 L52.6756,138.9118 L52.4266,139.3278 Z" id="Fill-144" fill="#042F5C"></path>
                <path d="M54.6355,137.917 C54.6265,137.724 55.5155,136.854 54.5465,137.444 C54.5545,137.636 53.8445,138.2 54.6355,137.917" id="Fill-146" fill="#042F5C"></path>
                <polygon id="Fill-148" fill="#A6A8AB" points="66.4163 131.1833 66.2363 131.3263 66.8533 132.1373"></polygon>
                <path d="M74.2968,121.9771 C73.3388,122.4681 74.5098,122.6211 73.5888,123.0011 C73.5538,123.3461 74.3418,122.6891 74.2808,123.0131 C74.6048,122.4061 74.9508,122.3011 74.2968,121.9771" id="Fill-150" fill="#042F5C"></path>
                <path d="M74.2812,123.0131 C74.2292,123.1101 74.1772,123.2171 74.1322,123.3421 C74.2322,123.1741 74.2672,123.0801 74.2812,123.0131" id="Fill-152" fill="#A6A8AB"></path>
                <polygon id="Fill-154" fill="#A6A8AB" points="122.5116 2.8136 122.5886 2.0706 122.3386 2.5896"></polygon>
                <g id="Group-158" transform="translate(121.000000, 0.889000)">
                    <mask id="mask-4" fill="white">
                        <use xlink:href="#path-3"></use>
                    </mask>
                    <g id="Clip-157"></g>
                    <path d="M0.5067,0.7279 L1.1077,0.4269 L0.4357,0.1109 C0.5037,0.2749 0.6287,0.5829 0.5067,0.7279" id="Fill-156" fill="#A6A8AB" mask="url(#mask-4)"></path>
                </g>
                <path d="M100.4276,90.6634 L100.5346,90.7884 C100.7326,90.7884 100.8246,90.6604 101.0106,90.4054 L100.4276,90.6634 Z" id="Fill-159" fill="#A6A8AB"></path>
                <polygon id="Fill-161" fill="#A6A8AB" points="105.2946 82.9809 105.2096 83.1139 105.8696 83.1209"></polygon>
                <path d="M107.8707,75.7777 C107.7207,76.0497 107.6907,76.4347 107.5397,76.7087 C107.7207,76.0507 108.5777,75.9917 107.8707,75.7777" id="Fill-163" fill="#A6A8AB"></path>
                <g id="Group-167" transform="translate(0.000000, 145.889000)">
                    <mask id="mask-6" fill="white">
                        <use xlink:href="#path-5"></use>
                    </mask>
                    <g id="Clip-166"></g>
                    <polygon id="Fill-165" fill="#042F5C" mask="url(#mask-6)" points="13.6025 0.9172 -0.0005 15.5172 19.4445 20.0002"></polygon>
                </g>
            </g>
        </g>
    </g>
</svg>