<?xml version="1.0" encoding="UTF-8" standalone="no"?>
<svg width="8px" height="7px" viewBox="0 0 8 7" version="1.1" xmlns="http://www.w3.org/2000/svg" xmlns:xlink="http://www.w3.org/1999/xlink">
    <!-- Generator: Sketch 47.1 (45422) - http://www.bohemiancoding.com/sketch -->
    <title>Group 5</title>
    <desc>Created with Sketch.</desc>
    <defs></defs>
    <g id="Symbols" stroke="none" stroke-width="1" fill="none" fill-rule="evenodd">
        <g id="Menu-1440" transform="translate(-1391.000000, -56.000000)" fill="#FFFFFF">
            <g id="Group-4" transform="translate(1255.000000, 0.000000)">
                <g id="Group-2" transform="translate(35.000000, 52.000000)">
                    <g id="Group-5" transform="translate(101.000000, 4.000000)">
                        <path d="M0.838878406,6.85634421 C0.646869931,7.04788526 0.335683782,7.04788526 0.143807727,6.85634421 C-0.0479359089,6.66493525 -0.0479359089,6.35450664 0.143807727,6.16309768 L2.81365246,3.49988441 L0.143940146,0.836803246 C-0.0479359089,0.64526219 -0.0479359089,0.334965678 0.143940146,0.143556719 C0.335816202,-0.0478522398 0.64700235,-0.0478522398 0.838878406,0.143556719 L3.85619227,3.15339325 C3.95206409,3.24916378 4,3.3745241 4,3.49988441 C4,3.62537683 3.95193167,3.75086925 3.85605985,3.84650768 L0.838878406,6.85634421 Z" id="Fill-1"></path>
                        <path d="M4.83887841,6.85634421 C4.64686993,7.04788526 4.33568378,7.04788526 4.14380773,6.85634421 C3.95206409,6.66493525 3.95206409,6.35450664 4.14380773,6.16309768 L6.81365246,3.49988441 L4.14394015,0.836803246 C3.95206409,0.64526219 3.95206409,0.334965678 4.14394015,0.143556719 C4.3358162,-0.0478522398 4.64700235,-0.0478522398 4.83887841,0.143556719 L7.85619227,3.15339325 C7.95206409,3.24916378 8,3.3745241 8,3.49988441 C8,3.62537683 7.95193167,3.75086925 7.85605985,3.84650768 L4.83887841,6.85634421 Z" id="Fill-1"></path>
                    </g>
                </g>
            </g>
        </g>
    </g>
</svg>