<?xml version="1.0" encoding="UTF-8" standalone="no"?>
<svg width="48px" height="39px" viewBox="0 0 48 39" version="1.1" xmlns="http://www.w3.org/2000/svg" xmlns:xlink="http://www.w3.org/1999/xlink">
    <!-- Generator: Sketch 47.1 (45422) - http://www.bohemiancoding.com/sketch -->
    <title>icon-random copy 5</title>
    <desc>Created with Sketch.</desc>
    <defs>
        <polygon id="path-1" points="30 54 0 54 0 0 30 0 60 0 60 54"></polygon>
    </defs>
    <g id="Page-1" stroke="none" stroke-width="1" fill="none" fill-rule="evenodd">
        <g id="Desktop-HD-Copy-13" transform="translate(-161.000000, -1905.000000)">
            <g id="Group-5" transform="translate(155.000000, 1703.000000)">
                <g id="icon-random-copy-10" transform="translate(0.000000, 202.000000)">
                    <g id="Page-1" stroke-width="1">
                        <mask id="mask-2" fill="white">
                            <use xlink:href="#path-1"></use>
                        </mask>
                        <g id="Clip-2"></g>
                    </g>
                    <g id="Page-1" stroke-width="1" transform="translate(6.000000, 0.000000)" fill="#FF4A04">
                        <path d="M47.2810273,34.7851353 C46.9082765,34.5266688 46.546307,34.2004839 46.2050562,33.8155091 C44.6881779,32.1044587 42.8854553,31.2 40.9918886,31.2 C39.0982283,31.2 37.2955056,32.1044587 35.7787211,33.8155091 C33.7610292,36.0914984 31.2541487,36.0914984 29.2365506,33.8155091 C26.1463564,30.3296324 21.9940661,30.3297484 18.9038719,33.8155091 C16.88618,36.0914984 14.3792996,36.0914984 12.3617014,33.8155091 C10.8448231,32.1044587 9.04210048,31.2 7.14853386,31.2 C5.2548735,31.2 3.45224458,32.1044587 1.93546003,33.8153932 C1.56036547,34.2385175 1.1611771,34.589749 0.749051207,34.8593473 C0.0625184656,35.3084459 -0.199700854,36.3609807 0.163487435,37.2101283 C0.526581974,38.0592759 1.37764632,38.3833737 2.06399156,37.9343911 C2.68583667,37.5276165 3.28021296,37.0065092 3.8306204,36.3856794 C5.84615603,34.1120093 8.45091169,34.1120093 10.4665411,36.3856794 C13.5567353,39.8714402 17.7090256,39.8714402 20.7992198,36.3856794 C22.8168179,34.1096902 25.3236046,34.1095742 27.3413902,36.3856794 C30.4314907,39.8713242 34.583781,39.8715562 37.6740689,36.3856794 C39.6896046,34.1120093 42.2942665,34.1120093 44.3099896,36.3856794 C44.8094907,36.9491108 45.3464919,37.4316048 45.9059931,37.8194784 C46.5836195,38.2891012 47.4404964,37.9906298 47.8202785,37.15273 C48.1998731,36.3148301 47.95856,35.2548741 47.2810273,34.7851353" id="Fill-1"></path>
                        <path d="M39.4026761,19.6368779 L33.7417651,19.6368779 C33.8079527,19.1776511 33.8436715,18.7095409 33.8436715,18.2342304 C33.8436715,17.7579849 33.8087964,17.2897811 33.7427964,16.8315829 L39.4039886,16.8315829 C39.4459886,17.2937085 39.4685824,17.7613512 39.4685824,18.2342304 C39.4685824,18.7039303 39.4452386,19.17176 39.4026761,19.6368779 L39.4026761,19.6368779 Z M37.4670182,25.8153531 C36.8750802,26.1354373 36.309111,26.5364075 35.7786731,27.0189182 C33.7609839,28.8545162 31.2542005,28.8544227 29.2365114,27.0190117 C29.130855,26.9228836 29.0237924,26.8308699 28.9157924,26.7412875 C30.6525125,25.7421349 32.039545,24.2273692 32.8938894,22.4327284 L38.8806756,22.4327284 C38.5469254,23.6060898 38.0732062,24.7481254 37.4670182,25.8153531 L37.4670182,25.8153531 Z M25.5608521,25.0727916 C24.5509762,24.8543526 23.5181316,24.8594956 22.5093808,25.0883142 C19.2663781,24.3907308 16.9688449,21.5361562 16.9688449,18.2342304 C16.9688449,14.3672248 20.1230663,11.2210865 24.000007,11.2210865 C27.8769477,11.2210865 31.0311691,14.3672248 31.0311691,18.2342304 C31.0311691,21.520166 28.7468547,24.3521113 25.5608521,25.0727916 L25.5608521,25.0727916 Z M18.9039403,27.0189182 C16.8862511,28.8545162 14.3794678,28.8544227 12.3617786,27.0190117 C11.7718094,26.4823588 11.1382463,26.0454808 10.473277,25.7102481 C9.89558905,24.6741591 9.44258868,23.5770083 9.11980716,22.4419859 L15.1096871,22.4419859 C15.4740937,23.2070834 15.9379691,23.9275766 16.4949383,24.5819584 C17.2549702,25.4747903 18.1643459,26.218287 19.1714093,26.7857047 C19.0814092,26.8613541 18.9920654,26.9386868 18.9039403,27.0189182 L18.9039403,27.0189182 Z M8.53143167,18.2342304 C8.53143167,17.7613512 8.55411919,17.2843576 8.59602547,16.822232 L14.2572177,16.822232 C14.1912176,17.2805237 14.1563426,17.7579849 14.1563426,18.2342304 C14.1563426,18.7058005 14.1923426,19.1742848 14.2596552,19.6368779 L8.59724422,19.6368779 C8.55468169,19.1716665 8.53143167,18.7037433 8.53143167,18.2342304 L8.53143167,18.2342304 Z M19.7812535,3.38851582 L19.7812535,9.36435522 C17.7378768,10.3351743 16.0806567,11.9881476 15.1074371,14.0261944 L9.11624465,14.0261944 C10.5762146,8.89549692 14.6372805,4.84483796 19.7812535,3.38851582 L19.7812535,3.38851582 Z M22.5937559,2.86972327 C23.0570687,2.82783086 23.5259129,2.80529499 24.000007,2.80529499 C24.4741012,2.80529499 24.9429453,2.82783086 25.4062582,2.86972327 L25.4062582,8.51640805 C24.9467891,8.45057713 24.4774762,8.41579147 24.000007,8.41579147 C23.5225379,8.41579147 23.053225,8.45057713 22.5937559,8.51640805 L22.5937559,2.86972327 Z M28.2186668,3.38851582 C33.3626398,4.84483796 37.4237057,8.89549692 38.8837694,14.0263815 L32.8925769,14.0263815 C31.9192636,11.9882411 30.2620435,10.3352678 28.2187605,9.36454224 L28.2187605,3.38851582 L28.2186668,3.38851582 Z M47.2810576,27.8009409 C46.9083073,27.5925075 46.5463383,27.3294644 46.205088,27.0190117 C44.692993,25.6434821 42.8967415,24.9147599 41.0097399,24.9102715 C41.8541469,22.7731042 42.2810847,20.5054908 42.2810847,18.2342304 C42.2810847,8.17649981 34.0717654,0 24.000007,0 C13.8925299,0 5.71892933,8.21240759 5.71892933,18.2342304 C5.71892933,20.4795886 6.13836718,22.7527191 6.99252414,24.9136378 C5.15605386,24.9526314 3.41042741,25.6772391 1.93545744,27.0190117 C1.56036338,27.3602291 1.16117554,27.6434704 0.749050202,27.8608807 C0.0625183818,28.2230443 -0.199700586,29.0718331 0.163487216,29.7566056 C0.526581267,30.4413781 1.37764447,30.7027381 2.06398879,30.340668 C2.68583306,30.0126355 3.28020856,29.5924023 3.83061526,29.0917507 C5.84614819,27.2582099 8.45090035,27.2582099 10.466527,29.0917507 C13.5567171,31.9027498 17.7090018,31.9027498 20.7991919,29.0917507 C22.8167873,27.2563397 25.3235706,27.2562462 27.3413535,29.0917507 C30.4314499,31.9026563 34.5837346,31.9028433 37.6740184,29.0917507 C39.6895513,27.2582099 42.2942097,27.2582099 44.3099301,29.0917507 C44.8094306,29.546115 45.346431,29.9352094 45.9059315,30.2479998 C46.583557,30.6267146 47.4404327,30.3860203 47.8202143,29.7103182 C48.1999021,29.0345227 47.9585894,28.1797493 47.2810576,27.8009409 L47.2810576,27.8009409 Z" id="Fill-3"></path>
                    </g>
                    <rect id="Rectangle-5-Copy-5" fill="#FEFEFE" opacity="0" x="0" y="0" width="60" height="54"></rect>
                </g>
            </g>
        </g>
    </g>
</svg>