<?xml version="1.0" encoding="UTF-8" standalone="no"?>
<svg width="39px" height="54px" viewBox="0 0 39 54" version="1.1" xmlns="http://www.w3.org/2000/svg" xmlns:xlink="http://www.w3.org/1999/xlink">
    <!-- Generator: Sketch 47.1 (45422) - http://www.bohemiancoding.com/sketch -->
    <title>icon-random copy 3</title>
    <desc>Created with Sketch.</desc>
    <defs>
        <polygon id="path-1" points="30 54 0 54 0 0 30 0 60 0 60 54"></polygon>
    </defs>
    <g id="Page-1" stroke="none" stroke-width="1" fill="none" fill-rule="evenodd">
        <g id="Desktop-HD-Copy-13" transform="translate(-167.000000, -1710.000000)">
            <g id="Group-5" transform="translate(155.000000, 1703.000000)">
                <g id="icon-random-copy-9" transform="translate(0.000000, 7.000000)">
                    <g id="Page-1" stroke-width="1">
                        <mask id="mask-2" fill="white">
                            <use xlink:href="#path-1"></use>
                        </mask>
                        <g id="Clip-2"></g>
                    </g>
                    <g id="Page-1" stroke-width="1" transform="translate(12.000000, 0.000000)" fill="#FF4A04">
                        <g id="Group-3">
                            <path d="M38.8618519,0.8949 C38.6900234,0.4437 38.2267556,0.14145 37.7067013,0.14145 L21.8493665,0.14145 C21.1733121,0.14145 20.6255172,0.64515 20.6255172,1.26645 L20.6255172,5.0724 L18.3050987,5.0724 L18.3050987,1.26645 C18.3050987,0.64515 17.7573038,0.14145 17.0812494,0.14145 L1.22391464,0.14145 C0.703697071,0.14145 0.240592469,0.4437 0.0687640167,0.8949 C-0.103064435,1.3461 0.0542410042,1.848 0.460885356,2.14605 L11.5399858,10.2651 L11.5399858,20.44185 C11.5399858,21.06315 12.0877808,21.56685 12.7638351,21.56685 C13.4398895,21.56685 13.9876845,21.06315 13.9876845,20.44185 L13.9876845,9.7233 C13.9876845,9.38085 13.8179774,9.05715 13.5267013,8.8437 L4.72216569,2.39145 L15.8574,2.39145 L15.8574,6.1974 C15.8574,6.8187 16.405195,7.3224 17.0812494,7.3224 L21.8493665,7.3224 C22.5254209,7.3224 23.0732159,6.8187 23.0732159,6.1974 L23.0732159,2.39145 L34.208287,2.39145 L25.4039146,8.8437 C25.1126385,9.05715 24.9429314,9.381 24.9429314,9.7233 L24.9429314,14.43645 L17.5619774,17.3346 C16.9404251,17.57865 16.6517598,18.2397 16.9172536,18.81105 C17.1827473,19.3824 17.9013916,19.6479 18.5235967,19.4037 L26.647672,16.2138 C27.0983749,16.0368 27.3907933,15.6297 27.3907933,15.17925 L27.3907933,10.2651 L38.4698937,2.14605 C38.8763749,1.848 39.0336803,1.34625 38.8618519,0.8949" id="Fill-1"></path>
                        </g>
                        <path d="M25.2761049,22.7800881 L13.7238951,26.9546571 L13.7238951,25.8199232 L25.2761049,21.6453541 L25.2761049,22.7800881 Z M27.2777859,19.0806661 C26.9160964,18.8786121 26.4585644,18.8436748 26.059708,18.9877912 L11.9264603,24.0950402 C11.4512051,24.2668152 11.1428571,24.6618977 11.1428571,25.0990505 L11.1428571,28.6082098 C11.1428571,28.9750513 11.3605247,29.3172911 11.7222141,29.5193451 C11.9364403,29.6390053 12.1842199,29.7 12.4335482,29.7 C12.6052733,29.7 12.7776866,29.6710312 12.940292,29.6122201 L27.0735397,24.5048255 C27.5487949,24.3330505 27.8571429,23.937968 27.8571429,23.5008152 L27.8571429,19.9916559 C27.8571429,19.6249599 27.6396474,19.2827201 27.2777859,19.0806661 L27.2777859,19.0806661 Z" id="Fill-4"></path>
                        <path d="M25.2761049,30.8800881 L13.7238951,35.0548027 L13.7238951,33.9200687 L25.2761049,29.7454997 L25.2761049,30.8800881 Z M27.2777859,27.1806661 C26.9160964,26.9786121 26.4585644,26.9436748 26.059708,27.0877912 L11.9264603,32.1950402 C11.4512051,32.3668152 11.1428571,32.7618977 11.1428571,33.1990505 L11.1428571,36.7082098 C11.1428571,37.0750513 11.3605247,37.4172911 11.7222141,37.6193451 C11.9364403,37.7390053 12.1842199,37.8 12.4335482,37.8 C12.6052733,37.8 12.7776866,37.7710312 12.940292,37.7122201 L27.0735397,32.6048255 C27.5487949,32.4330505 27.8571429,32.037968 27.8571429,31.6008152 L27.8571429,28.0916559 C27.8571429,27.7251055 27.6396474,27.3828657 27.2777859,27.1806661 L27.2777859,27.1806661 Z" id="Fill-6"></path>
                        <path d="M26.5669546,35.1 C25.8540646,35.1 25.2764223,35.6102892 25.2764223,36.2397168 L25.2764223,47.729582 L19.4681668,51.4702845 L13.7240937,48.0783353 L13.7240937,42.3236772 L20.4558542,39.7842361 C21.1112725,39.5369936 21.415666,38.867296 21.1357065,38.2884718 C20.8557471,37.7097996 20.0976024,37.4405225 19.4418399,37.688069 L11.9264683,40.5230766 C11.4512083,40.702392 11.1428571,41.1148175 11.1428571,41.5711601 L11.1428571,48.687248 C11.1428571,49.0677615 11.3579459,49.4232012 11.7160255,49.6347326 L18.7826361,53.8077678 C19.0001338,53.9361759 19.2501529,54 19.4999999,54 C19.7673982,54 20.0341082,53.9269062 20.2603815,53.7811744 L27.3269921,49.2299052 C27.6602935,49.0153345 27.8571427,48.6731155 27.8571427,48.309014 L27.8571427,36.2397168 C27.8574868,35.6102892 27.2798446,35.1 26.5669546,35.1" id="Fill-8"></path>
                    </g>
                    <rect id="Rectangle-5-Copy-2" fill="#FEFEFE" opacity="0" x="0" y="0" width="60" height="54"></rect>
                </g>
            </g>
        </g>
    </g>
</svg>