<?xml version="1.0" encoding="UTF-8" standalone="no"?>
<svg width="36px" height="45px" viewBox="0 0 36 45" version="1.1" xmlns="http://www.w3.org/2000/svg" xmlns:xlink="http://www.w3.org/1999/xlink">
    <!-- Generator: Sketch 47.1 (45422) - http://www.bohemiancoding.com/sketch -->
    <title>icon-random copy 4</title>
    <desc>Created with Sketch.</desc>
    <defs></defs>
    <g id="Page-1" stroke="none" stroke-width="1" fill="none" fill-rule="evenodd">
        <g id="Desktop-HD-Copy-13" transform="translate(-167.000000, -1808.000000)">
            <g id="Group-5" transform="translate(155.000000, 1703.000000)">
                <g id="icon-random-copy-7" transform="translate(0.000000, 102.000000)">
                    <g id="Page-1" stroke-width="1" transform="translate(12.000000, 3.000000)" fill="#FF4A04">
                        <path d="M33.2307692,27.8613281 C33.2307692,35.8577051 26.3982462,42.3808594 18,42.3808594 C9.60175385,42.3808594 2.76923077,35.8577051 2.76923077,27.8613281 L2.76923077,22.5878906 C2.76923077,21.8609473 3.39036923,21.2695312 4.15384615,21.2695312 L31.8461538,21.2695312 C32.6096308,21.2695312 33.2307692,21.8609473 33.2307692,22.5878906 L33.2307692,27.8613281 Z M24.9230769,14.5019531 L24.9230769,18.6328125 L11.0769231,18.6328125 L11.0769231,14.5019531 C11.0769231,10.8672363 14.1826154,7.89257813 18,7.89257813 C21.8173846,7.89257813 24.9230769,10.8672363 24.9230769,14.5019531 L24.9230769,14.5019531 Z M5.53846154,14.5019531 C5.53846154,7.95946289 11.1287077,2.61914063 18,2.61914063 C24.8712923,2.61914063 30.4615385,7.95946289 30.4615385,14.5019531 L30.4615385,18.6328125 L27.6923077,18.6328125 L27.6923077,14.5019531 C27.6923077,9.41334961 23.3443385,5.2734375 18,5.2734375 C12.6556615,5.2734375 8.30769231,9.41334961 8.30769231,14.5019531 L8.30769231,18.6328125 L5.53846154,18.6328125 L5.53846154,14.5019531 Z M33.2307692,18.8595703 L33.2307692,14.5019531 C33.2307692,6.50557617 26.3982462,0 18,0 C9.60175385,0 2.76923077,6.50557617 2.76923077,14.5019531 L2.76923077,18.8595703 C1.15763077,19.4037891 0,20.8691895 0,22.5878906 L0,27.8613281 C0,37.3115918 8.0748,45 18,45 C27.9252,45 36,37.3115918 36,27.8613281 L36,22.5878906 C36,20.8691895 34.8423692,19.4037891 33.2307692,18.8595703 L33.2307692,18.8595703 Z" id="Fill-1"></path>
                        <path d="M19.5,28.8 C18.6729,28.8 18,28.26168 18,27.6 C18,26.93832 18.6729,26.4 19.5,26.4 C20.3271,26.4 21,26.93832 21,27.6 C21,28.26168 20.3271,28.8 19.5,28.8 M19.5,24 C17.0187,24 15,25.61496 15,27.6 C15,29.1644 16.2541,30.49824 18,30.9936 L18,34.8 C18,35.46272 18.6716,36 19.5,36 C20.3284,36 21,35.46272 21,34.8 L21,30.9936 C22.7459,30.49824 24,29.1644 24,27.6 C24,25.61496 21.9813,24 19.5,24" id="Fill-3"></path>
                    </g>
                    <rect id="Rectangle-5-Copy-4" fill="#FEFEFE" opacity="0" x="0" y="0" width="60" height="54"></rect>
                </g>
            </g>
        </g>
    </g>
</svg>