<?xml version="1.0" encoding="UTF-8" standalone="no"?>
<svg width="48px" height="48px" viewBox="0 0 48 48" version="1.1" xmlns="http://www.w3.org/2000/svg" xmlns:xlink="http://www.w3.org/1999/xlink">
    <!-- Generator: Sketch 47.1 (45422) - http://www.bohemiancoding.com/sketch -->
    <title>icon-random copy</title>
    <desc>Created with Sketch.</desc>
    <defs>
        <polygon id="path-1" points="30 54 0 54 0 0 30 0 60 0 60 54"></polygon>
        <polygon id="path-3" points="47.996625 24.0467345 47.996625 0.0934736842 2.66453526e-15 0.0934736842 2.66453526e-15 24.0467345 0 47.9999953 47.996625 47.9999953 47.996625 24.0467345"></polygon>
    </defs>
    <g id="Page-1" stroke="none" stroke-width="1" fill="none" fill-rule="evenodd">
        <g id="Desktop-HD-Copy-13" transform="translate(-844.000000, -1376.000000)">
            <g id="Group-7" transform="translate(837.000000, 1272.000000)">
                <g id="icon-random-copy-8" transform="translate(1.000000, 101.000000)">
                    <g id="Page-1" stroke-width="1">
                        <mask id="mask-2" fill="white">
                            <use xlink:href="#path-1"></use>
                        </mask>
                        <g id="Clip-2"></g>
                    </g>
                    <g id="Page-1" stroke-width="1" transform="translate(6.000000, 3.000000)">
                        <g id="Group-3">
                            <mask id="mask-4" fill="white">
                                <use xlink:href="#path-3"></use>
                            </mask>
                            <g id="Clip-2"></g>
                            <path d="M29.7156562,33.7772819 C21.1862812,33.7772819 14.2470937,26.8516211 14.2470937,18.3388725 C14.2470937,9.82612398 21.1862812,2.90046316 29.7156562,2.90046316 C38.2450312,2.90046316 45.1842187,9.82612398 45.1842187,18.3388725 C45.1842187,26.8516211 38.2450312,33.7772819 29.7156562,33.7772819 L29.7156562,33.7772819 Z M18.0934687,35.8916211 C17.544,36.4400187 16.6549687,36.4402058 16.105125,35.8919018 L16.1050312,35.8918082 C16.1048437,35.8916211 16.10475,35.8915275 16.1045625,35.8913404 L12.12825,31.9227789 C11.5799062,31.3755041 11.5799062,30.4851181 12.12825,29.9379368 L14.1591562,27.9109895 C15.6570937,30.327083 17.7036562,32.3696561 20.124375,33.8646737 L18.0934687,35.8916211 Z M5.210625,44.7806035 C4.6606875,45.3293754 3.7723125,45.329469 3.22228125,44.7806035 C2.674125,44.2335158 2.674125,43.343317 3.22228125,42.7961357 L11.1336562,34.8998082 L13.122,36.8841825 L5.210625,44.7806035 Z M29.7156562,0.093445614 C19.6354687,0.093445614 11.4345937,8.2783345 11.4345937,18.3388725 C11.4345937,20.7972585 11.925375,23.1429895 12.8125312,25.2853053 L10.1394375,27.9531883 C8.84325,29.2468491 8.5693125,31.1795743 9.31603125,32.7442994 L1.2335625,40.8114807 C-0.4111875,42.4530246 -0.4111875,45.1239953 1.2335625,46.7655392 C2.88253125,48.4113871 5.55009375,48.4115743 7.19925,46.7655392 L15.2799375,38.7002292 C16.8231562,39.437352 18.76425,39.1919251 20.0820937,37.8765567 L22.755,35.2088608 C24.9016875,36.0943813 27.2521875,36.5842994 29.7155625,36.5842994 C39.79575,36.5842994 47.996625,28.3994105 47.996625,18.3388725 C47.9967187,8.2783345 39.7958437,0.093445614 29.7156562,0.093445614 L29.7156562,0.093445614 Z" id="Fill-1" fill="#FF5800" mask="url(#mask-4)"></path>
                        </g>
                        <path d="M29.3333333,23.9998933 C26.8826353,23.9998933 24.8888321,22.2054814 24.8888321,19.9999556 C24.8888321,17.7943409 26.8826353,15.9999289 29.3333333,15.9999289 C31.7840313,15.9999289 33.7777358,17.7943409 33.7777358,19.9999556 C33.7777358,22.2054814 31.7840313,23.9998933 29.3333333,23.9998933 M42.2888569,19.1105274 C42.0540885,18.8746147 36.459054,13.3333333 29.3333333,13.3333333 C22.2077114,13.3333333 16.6124794,18.8746147 16.3778097,19.1105274 C15.832025,19.6591533 15.8836799,20.5020922 16.4931692,20.9932955 C17.1027573,21.4844988 18.0393618,21.4380985 18.5851466,20.8894726 C18.6111222,20.8633391 20.0181525,19.4688409 22.2101806,18.1758545 C22.0264745,18.7560362 21.92593,19.3675069 21.92593,20.0000444 C21.92593,23.676069 25.2489354,26.6666667 29.3333333,26.6666667 C33.41783,26.6666667 36.7407367,23.6759801 36.7407367,20.0000444 C36.7407367,19.370618 36.6411798,18.7621695 36.4592516,18.1844768 C38.6468351,19.4753298 40.0562358,20.8641391 40.0815201,20.8894726 C40.6275024,21.4381874 41.5641069,21.4844988 42.1734975,20.9933844 C42.7829867,20.5020033 42.8346417,19.6591533 42.2888569,19.1105274" id="Fill-4" fill="#FF4A04"></path>
                        <path d="M30.6666667,16 C31.4030222,16 32,16.5969778 32,17.3333333 C32,18.0696889 31.4030222,18.6666667 30.6666667,18.6666667 C29.9303111,18.6666667 29.3333333,18.0696889 29.3333333,17.3333333 C29.3333333,16.5969778 29.9303111,16 30.6666667,16" id="Fill-6" fill="#FF4A04"></path>
                    </g>
                    <rect id="Rectangle-5-Copy" fill="#FEFEFE" opacity="0" x="0" y="0" width="60" height="54"></rect>
                </g>
            </g>
        </g>
    </g>
</svg>