<?xml version="1.0" encoding="UTF-8" standalone="no"?>
<svg width="45px" height="45px" viewBox="0 0 45 45" version="1.1" xmlns="http://www.w3.org/2000/svg" xmlns:xlink="http://www.w3.org/1999/xlink">
    <!-- Generator: Sketch 47.1 (45422) - http://www.bohemiancoding.com/sketch -->
    <title>icon-random</title>
    <desc>Created with Sketch.</desc>
    <defs>
        <polygon id="path-1" points="30 54 0 54 0 0 30 0 60 0 60 54"></polygon>
        <polygon id="path-3" points="21.0937324 21.1576471 0.0403727107 21.1576471 0.0403727107 0.0182762532 21.0937324 0.0182762532"></polygon>
    </defs>
    <g id="Page-1" stroke="none" stroke-width="1" fill="none" fill-rule="evenodd">
        <g id="Desktop-HD-Copy-13" transform="translate(-843.000000, -1281.000000)">
            <g id="Group-7" transform="translate(837.000000, 1272.000000)">
                <g id="icon-random" transform="translate(0.000000, 6.000000)">
                    <g id="Page-1" stroke-width="1">
                        <mask id="mask-2" fill="white">
                            <use xlink:href="#path-1"></use>
                        </mask>
                        <g id="Clip-2"></g>
                    </g>
                    <g id="Page-1" stroke-width="1" transform="translate(6.000000, 3.000000)">
                        <path d="M39.0650503,37.8842505 C39.0555202,37.8842505 39.0555202,37.8937381 39.0650503,37.8842505 C38.6933757,38.2827324 38.3121709,38.6432638 37.9023758,39.0417457 C37.2829181,39.629981 36.6539303,40.2466793 36.063063,40.9392789 C35.100521,41.9639469 33.9664369,42.4478178 32.4797384,42.4478178 C32.3367866,42.4478178 32.1843047,42.4478178 32.041353,42.4383302 C29.2109078,42.2580645 26.5805951,41.1574953 24.6078605,40.2182163 C19.2138135,37.6185958 14.4773446,33.9278937 10.5414056,29.2504744 C7.29163521,25.3510436 5.11876819,21.7457306 3.6797203,17.8747628 C2.79341927,15.512334 2.46939525,13.6717268 2.61234702,11.9354839 C2.70764821,10.8254269 3.13650354,9.90512334 3.92750338,9.11764706 L7.17727379,5.88235294 C7.64424959,5.4459203 8.13981575,5.20872865 8.6258518,5.20872865 C9.22624926,5.20872865 9.71228531,5.56925996 10.0172491,5.87286528 C10.0267792,5.88235294 10.0363093,5.89184061 10.0458395,5.90132827 C10.6271767,6.44212524 11.1799236,7.00189753 11.7612608,7.59962049 C12.0566945,7.90322581 12.3616583,8.20683112 12.666622,8.5199241 L15.2683444,11.1100569 C16.278537,12.1157495 16.278537,13.0455408 15.2683444,14.0512334 C14.991971,14.3263757 14.7251276,14.601518 14.4487542,14.8671727 C13.6482242,15.683112 12.8858148,16.4421252 12.0566945,17.1821632 C12.0376342,17.2011385 12.018574,17.2106262 12.0090439,17.2296015 C11.1894537,18.0455408 11.3419356,18.8425047 11.5134777,19.3833017 C11.5230078,19.4117647 11.5325379,19.4402277 11.5420681,19.4686907 C12.2187065,21.1005693 13.1717183,22.6375712 14.6202963,24.4686907 L14.6298265,24.4781784 C17.2601392,27.7039848 20.0334036,30.2182163 23.0925717,32.1442125 C23.4833065,32.3908918 23.8835715,32.5901328 24.2647763,32.7798861 C24.6078605,32.9506641 24.9318846,33.1119545 25.208258,33.2827324 C25.2463785,33.3017078 25.2844989,33.3301708 25.3226194,33.3491461 C25.6466434,33.5104364 25.9516072,33.5863378 26.2661011,33.5863378 C27.057101,33.5863378 27.5526671,33.0929791 27.7146792,32.9316888 L30.9739797,29.686907 C31.2980037,29.3643264 31.8126301,28.9753321 32.4130276,28.9753321 C33.0038949,28.9753321 33.489931,29.345351 33.7853646,29.6679317 L33.8044249,29.686907 L39.0555202,34.914611 C40.0371224,35.8823529 40.0371224,36.8785579 39.0650503,37.8842505 L39.0650503,37.8842505 Z M35.6532679,27.8937381 C34.7288464,26.9354839 33.6138225,26.4231499 32.4320878,26.4231499 C31.2598832,26.4231499 30.1353293,26.9259962 29.1727873,27.8842505 L26.1612698,30.8728653 C25.9134868,30.740038 25.6657037,30.6166983 25.4274507,30.4933586 C25.0843665,30.3225806 24.7603424,30.1612903 24.483969,29.9905123 C21.6630539,28.2068311 19.099452,25.8823529 16.6406815,22.8747628 C15.4494166,21.3757116 14.6488867,20.113852 14.0675495,18.8330171 C14.8490192,18.1214421 15.5733082,17.3814042 16.278537,16.6698292 C16.5453803,16.4041746 16.8122236,16.1290323 17.0790669,15.8633776 C19.0803918,13.8709677 19.0803918,11.2903226 17.0790669,9.29791271 L14.4773446,6.70777989 C14.1819109,6.41366224 13.8769471,6.11005693 13.5910435,5.80645161 C13.0192364,5.21821632 12.418839,4.61100569 11.7993813,4.04174573 C10.8749598,3.13092979 9.76946602,2.64705882 8.60679156,2.64705882 C7.4441171,2.64705882 6.31956312,3.13092979 5.36655127,4.04174573 C5.35702115,4.0512334 5.35702115,4.0512334 5.34749103,4.06072106 L2.10725074,7.31499051 C0.887395575,8.52941176 0.191696924,10.0094877 0.0392150279,11.7267552 C-0.189507816,14.4971537 0.630082375,17.0777989 1.2590702,18.7666034 C2.80294939,22.9127135 5.10923807,26.7552182 8.54961085,30.8728653 C12.7238028,35.8349146 17.7461752,39.7533207 23.4833065,42.5142315 C25.6752338,43.5483871 28.6009802,44.772296 31.8698108,44.9810247 C32.0699433,44.9905123 32.2796059,45 32.4702083,45 C34.6716657,45 36.5205087,44.2125237 37.9690867,42.6470588 C37.9786168,42.6280835 37.997677,42.6185958 38.0072071,42.5996205 C38.5027733,42.0018975 39.0745804,41.4611006 39.6749779,40.8823529 C40.084773,40.4933586 40.5040982,40.085389 40.9138933,39.658444 C41.857375,38.6812144 42.3529412,37.5426945 42.3529412,36.3757116 C42.3529412,35.199241 41.8478449,34.0702087 40.8853029,33.1214421 L35.6532679,27.8937381 Z" id="Fill-1" fill="#FF4A04"></path>
                        <path d="M31.249033,13.7422004 C33.0101195,15.5034365 34.1501913,17.7096164 34.5672908,20.1382683 C34.6692484,20.7500661 35.1975744,21.1764706 35.8000514,21.1764706 C35.8742024,21.1764706 35.9390845,21.1672009 36.0132355,21.1579313 C36.6991324,21.0466953 37.1533074,20.3978188 37.0420808,19.7118637 C36.5415615,16.7733804 35.15123,14.0944476 33.0286573,11.9716946 C30.9060846,9.84894164 28.2273792,8.4584921 25.2891454,7.95793026 C24.6032485,7.8466943 23.963696,8.30090781 23.8432006,8.97759326 C23.7227052,9.6542787 24.1676113,10.3124248 24.8535082,10.4236608 C27.2819538,10.831526 29.4879464,11.9809643 31.249033,13.7422004 Z" id="Fill-3" fill="#FF4A04"></path>
                        <g id="Group-7" transform="translate(23.823529, 0.000000)">
                            <mask id="mask-4" fill="white">
                                <use xlink:href="#path-3"></use>
                            </mask>
                            <g id="Clip-6"></g>
                            <path d="M21.0744768,19.6894118 C20.2405362,14.7764706 17.9354867,10.3058824 14.3935815,6.74823529 C10.8516762,3.19058824 6.40086934,0.875294118 1.50966684,0.0376470588 C0.8256481,-0.0847058824 0.179109839,0.385882353 0.0572982821,1.07294118 C-0.0551431546,1.76941176 0.403992712,2.41882353 1.09738157,2.54117647 C5.46385737,3.28470588 9.44615825,5.36470588 12.6132587,8.53647059 C15.7803592,11.7176471 17.8417855,15.7176471 18.582025,20.1035294 C18.6850963,20.7247059 19.2191931,21.1576471 19.8282509,21.1576471 C19.9032119,21.1576471 19.9688027,21.1482353 20.0437637,21.1388235 C20.7277824,21.0352941 21.1962884,20.3764706 21.0744768,19.6894118" id="Fill-5" fill="#FF4A04" mask="url(#mask-4)"></path>
                        </g>
                    </g>
                    <rect id="Rectangle-5" fill="#FEFEFE" opacity="0" x="0" y="0" width="60" height="54"></rect>
                </g>
            </g>
        </g>
    </g>
</svg>