<?xml version="1.0" encoding="UTF-8" standalone="no"?>
<svg width="54px" height="33px" viewBox="0 0 54 33" version="1.1" xmlns="http://www.w3.org/2000/svg" xmlns:xlink="http://www.w3.org/1999/xlink">
    <!-- Generator: Sketch 47.1 (45422) - http://www.bohemiancoding.com/sketch -->
    <title>icon-random copy 2</title>
    <desc>Created with Sketch.</desc>
    <defs>
        <polygon id="path-1" points="30 54 0 54 0 0 30 0 60 0 60 54"></polygon>
    </defs>
    <g id="Page-1" stroke="none" stroke-width="1" fill="none" fill-rule="evenodd">
        <g id="Desktop-HD-Copy-13" transform="translate(-840.000000, -1480.000000)">
            <g id="Group-7" transform="translate(837.000000, 1272.000000)">
                <g id="icon-random-copy-6" transform="translate(0.000000, 196.000000)">
                    <g id="Page-1" stroke-width="1">
                        <mask id="mask-2" fill="white">
                            <use xlink:href="#path-1"></use>
                        </mask>
                        <g id="Clip-2"></g>
                    </g>
                    <g id="Page-1" stroke-width="1" transform="translate(3.000000, 12.000000)" fill="#FF4A04">
                        <path d="M51.390604,26.1753927 L49.5640268,26.1753927 C48.9116779,24.3612565 47.3351678,23.065445 45.5085906,23.065445 C43.6820134,23.065445 42.1055034,24.3489155 41.4531544,26.1753927 L40.4528859,26.1753927 L40.4528859,7.79955123 L45.921745,7.79955123 C49.3465772,7.79955123 51.390604,10.6256545 51.390604,15.3522812 L51.390604,26.1753927 Z M45.5085906,30.0504862 C44.5300671,30.0504862 43.7363758,29.1495886 43.7363758,28.038893 C43.7363758,26.9281975 44.5300671,26.0272999 45.5085906,26.0272999 C46.4871141,26.0272999 47.2808054,26.9281975 47.2808054,28.038893 C47.2699329,29.1495886 46.4762416,30.0504862 45.5085906,30.0504862 L45.5085906,30.0504862 Z M21.3281879,30.0504862 C20.3496644,30.0504862 19.5559732,29.1495886 19.5559732,28.038893 C19.5559732,26.9281975 20.3496644,26.0272999 21.3281879,26.0272999 C22.3067114,26.0272999 23.1004027,26.9281975 23.1004027,28.038893 C23.1004027,29.1495886 22.3067114,30.0504862 21.3281879,30.0504862 L21.3281879,30.0504862 Z M51.6624161,7.57741212 C50.2272483,5.81264024 48.1832215,4.83769634 45.9108725,4.83769634 L40.4420134,4.83769634 L40.4420134,1.48092745 C40.4420134,0.666417352 39.8548993,0 39.1373154,0 L13.0868456,0 C12.3692617,0 11.7821477,0.666417352 11.7821477,1.48092745 L11.7821477,6.6394914 L6.70469799,6.6394914 C5.98711409,6.6394914 5.4,7.30590875 5.4,8.12041885 C5.4,8.93492895 5.98711409,9.6013463 6.70469799,9.6013463 L13.0542282,9.6013463 L13.0868456,9.6013463 L13.0977181,9.6013463 C13.815302,9.6013463 14.4024161,8.93492895 14.4024161,8.12041885 L14.4024161,2.9618549 L37.8434899,2.9618549 L37.8434899,6.31862378 L37.8434899,26.1753927 L25.5575839,26.1753927 C25.5032215,26.1753927 25.4488591,26.1753927 25.3944966,26.1877337 C24.7421477,24.3612565 23.1656376,23.065445 21.3281879,23.065445 C19.4798658,23.065445 17.9033557,24.3735976 17.2618792,26.2124159 C17.1640268,26.1877337 17.077047,26.1753927 16.9791946,26.1753927 L14.4024161,26.1753927 L14.4024161,21.0044877 C14.4024161,20.1899776 13.815302,19.5235602 13.0977181,19.5235602 L13.0324832,19.5235602 L12.9781208,19.5235602 L6.70469799,19.5235602 C5.98711409,19.5235602 5.4,20.1899776 5.4,21.0044877 C5.4,21.8189978 5.98711409,22.4854151 6.70469799,22.4854151 L11.7821477,22.4854151 L11.7821477,27.6439791 C11.7821477,28.4584892 12.3692617,29.1249065 13.0868456,29.1249065 L16.9683221,29.1249065 L17.055302,29.1249065 C17.4902013,31.3462977 19.2406711,33 21.3281879,33 C23.4157047,33 25.155302,31.3462977 25.6010738,29.1249065 L39.1481879,29.1249065 L41.2357047,29.1249065 C41.6814765,31.3339566 43.4210738,33 45.5085906,33 C47.5961074,33 49.3357047,31.3462977 49.7814765,29.1249065 L52.695302,29.1249065 C53.4128859,29.1249065 54,28.4584892 54,27.6439791 L54,15.3399402 C54,12.1436051 53.1845638,9.45325355 51.6624161,7.57741212 L51.6624161,7.57741212 Z" id="Fill-1"></path>
                        <path d="M23.7738421,16.5947159 C23.2316924,17.2034884 23.2316924,18.1878864 23.7738421,18.7966588 C24.0391494,19.0945687 24.3967375,19.25 24.7543257,19.25 C25.1119138,19.25 25.4579668,19.0945687 25.7348092,18.7966588 L29.2991553,14.7943038 L29.3106904,14.7813512 C29.3337606,14.7424934 29.3683659,14.7165882 29.3914361,14.6777304 C29.4029712,14.6518251 29.4145063,14.6388725 29.4260414,14.6129673 C29.4375765,14.5870621 29.4491116,14.5741095 29.4721818,14.5482043 C29.4837169,14.5222991 29.495252,14.4963939 29.5067871,14.4704887 C29.5183222,14.4445835 29.5298573,14.4316309 29.5413924,14.4057256 C29.5529275,14.3798204 29.5644626,14.3539152 29.5759977,14.32801 C29.5875328,14.3021048 29.5990679,14.2891522 29.5990679,14.263247 C29.610603,14.2373418 29.610603,14.2114366 29.6221381,14.1855314 C29.6336732,14.1596261 29.6336732,14.1337209 29.6452083,14.1207683 C29.6567434,14.0948631 29.6567434,14.0689579 29.6567434,14.0430527 C29.6567434,14.0171475 29.6682785,13.9912423 29.6682785,13.9653371 C29.6682785,13.9394319 29.6798136,13.9135266 29.6798136,13.8746688 C29.6798136,13.8487636 29.6913487,13.835811 29.6913487,13.8099058 C29.7028838,13.706285 29.7028838,13.6026641 29.6913487,13.4990433 C29.6913487,13.4731381 29.6913487,13.4601855 29.6798136,13.4342802 C29.6798136,13.408375 29.6682785,13.3824698 29.6682785,13.343612 C29.6682785,13.3177068 29.6567434,13.2918016 29.6567434,13.2658964 C29.6567434,13.2399912 29.6452083,13.214086 29.6452083,13.1881807 C29.6336732,13.1622755 29.6336732,13.1363703 29.6221381,13.1234177 C29.610603,13.0975125 29.610603,13.0716073 29.5990679,13.0457021 C29.5875328,13.0197969 29.5759977,13.0068443 29.5759977,12.9809391 C29.5644626,12.9550339 29.5529275,12.9291286 29.5413924,12.9032234 C29.5298573,12.8773182 29.5183222,12.8643656 29.5067871,12.8384604 C29.495252,12.8125552 29.4837169,12.78665 29.4721818,12.7607448 C29.4606467,12.7348396 29.4491116,12.721887 29.4260414,12.6959817 C29.4145063,12.6700765 29.4029712,12.6571239 29.3914361,12.6312187 C29.3683659,12.5923609 29.3337606,12.5664557 29.3106904,12.5275979 L29.2991553,12.5146453 L25.9078357,8.70657933 C25.365686,8.09780689 24.4890184,8.09780689 23.9468686,8.70657933 C23.4047189,9.31535178 23.4047189,10.2997498 23.9468686,10.9085222 L24.9734926,12.0613041 L1.38421206,12.0613041 C0.622895427,12.0613041 0,12.7607448 0,13.6156167 C0,14.4704887 0.622895427,15.1699293 1.38421206,15.1699293 L24.9619575,15.1699293 L23.7738421,16.5947159 Z" id="Fill-3"></path>
                    </g>
                    <rect id="Rectangle-5-Copy-3" fill="#FEFEFE" opacity="0" x="0" y="0" width="60" height="54"></rect>
                </g>
            </g>
        </g>
    </g>
</svg>