<?xml version="1.0" encoding="UTF-8" standalone="no"?>
<svg width="113px" height="34px" viewBox="0 0 113 34" version="1.1" xmlns="http://www.w3.org/2000/svg" xmlns:xlink="http://www.w3.org/1999/xlink">
    <!-- Generator: Sketch 47.1 (45422) - http://www.bohemiancoding.com/sketch -->
    <title>Group</title>
    <desc>Created with Sketch.</desc>
    <defs>
        <linearGradient x1="49.8179936%" y1="81.8111075%" x2="49.8179936%" y2="-0.0244008715%" id="linearGradient-1">
            <stop stop-color="#F15A29" offset="0%"></stop>
            <stop stop-color="#F15F29" offset="43.44%"></stop>
            <stop stop-color="#F36D29" offset="76.42%"></stop>
            <stop stop-color="#F47929" offset="100%"></stop>
        </linearGradient>
        <linearGradient x1="50.1759615%" y1="101.193966%" x2="50.1759615%" y2="-1.90890805%" id="linearGradient-2">
            <stop stop-color="#F15A29" offset="18.18%"></stop>
            <stop stop-color="#F15F29" offset="43.44%"></stop>
            <stop stop-color="#F36D29" offset="76.42%"></stop>
            <stop stop-color="#F47929" offset="100%"></stop>
        </linearGradient>
    </defs>
    <g id="Page-1" stroke="none" stroke-width="1" fill="none" fill-rule="evenodd">
        <g id="Desktop-HD-Copy-13" transform="translate(-149.000000, -3860.000000)" fill-rule="nonzero">
            <g id="Group-11" transform="translate(0.000000, 3821.000000)">
                <g id="Group-10">
                    <g id="Group-9">
                        <g id="Group-3">
                            <g id="Group" transform="translate(149.000000, 39.000000)">
                                <g id="profisell-logo">
                                    <path d="M9.625,11.1613833 C10.5416667,11.9481268 11,13.0720461 11,14.4956772 C11,15.9942363 10.5416667,17.1930836 9.58680556,18.0172911 C8.67013889,18.8414986 7.33333333,19.2910663 5.65277778,19.2910663 L3.01736111,19.2910663 L3.01736111,23 L0,23 L0,10 L5.65277778,10 C7.40972222,10 8.70833333,10.3746398 9.625,11.1613833 Z M7.52430556,16.2939481 C7.98263889,15.9193084 8.21180556,15.3573487 8.21180556,14.6455331 C8.21180556,13.9337176 7.98263889,13.3717579 7.52430556,13.0345821 C7.06597222,12.6599424 6.41666667,12.4726225 5.57638889,12.4726225 L3.09375,12.4726225 L3.09375,16.8933718 L5.57638889,16.8933718 C6.41666667,16.8559078 7.06597222,16.6685879 7.52430556,16.2939481 Z" id="Shape" fill="#FFFFFF"></path>
                                    <path d="M22.794702,23 L20.7913907,19.3017241 L20.5364238,19.3017241 L17.8774834,19.3017241 L17.8774834,23 L15,23 L15,10 L20.5,10 C22.1390728,10 23.4139073,10.4109195 24.3245033,11.1954023 C25.2350993,11.9798851 25.6721854,13.1005747 25.6721854,14.5201149 C25.6721854,15.5287356 25.4536424,16.387931 25.0529801,17.0977011 C24.6523179,17.8074713 24.0695364,18.3678161 23.3046358,18.704023 L26,23 L22.794702,23 Z M17.8774834,16.8362069 L20.5364238,16.8362069 C21.3377483,16.8362069 21.9569536,16.6494253 22.3576159,16.2758621 C22.794702,15.9022989 23.013245,15.341954 23.013245,14.6321839 C23.013245,13.9224138 22.794702,13.362069 22.3576159,13.0258621 C21.9205298,12.6522989 21.3013245,12.4655172 20.5364238,12.4655172 L17.8774834,12.4655172 L17.8774834,16.8362069 Z" id="Shape" fill="#FFFFFF"></path>
                                    <path d="M39.5561497,10.8690808 C40.6042781,11.448468 41.4652406,12.2089136 42.0641711,13.1866295 C42.6631016,14.1643454 43,15.2869081 43,16.4818942 C43,17.6768802 42.7005348,18.7994429 42.0641711,19.7771588 C41.4652406,20.7910864 40.6042781,21.551532 39.5561497,22.1309192 C38.5080214,22.7103064 37.3101604,23 36,23 C34.6898396,23 33.5294118,22.7103064 32.4438503,22.1309192 C31.3957219,21.551532 30.5347594,20.7910864 29.9358289,19.7771588 C29.3368984,18.7994429 29,17.6768802 29,16.4456825 C29,15.2506964 29.2994652,14.1281337 29.9358289,13.1504178 C30.5347594,12.1727019 31.3957219,11.3760446 32.4438503,10.8328691 C33.4919786,10.2534819 34.6898396,10 36,10 C37.3101604,10 38.4705882,10.2896936 39.5561497,10.8690808 Z M34.0160428,13.0417827 C33.3796791,13.4038997 32.8930481,13.8746518 32.5561497,14.4902507 C32.1818182,15.1058496 32.0320856,15.7576602 32.0320856,16.5181058 C32.0320856,17.2785515 32.2192513,17.9303621 32.5935829,18.545961 C32.9679144,19.1615599 33.4545455,19.632312 34.0534759,19.994429 C34.6524064,20.356546 35.3262032,20.5376045 36.0374332,20.5376045 C36.7486631,20.5376045 37.4224599,20.356546 38.0213904,19.994429 C38.6203209,19.632312 39.1069519,19.1615599 39.4438503,18.545961 C39.7807487,17.9303621 39.9679144,17.2423398 39.9679144,16.5181058 C39.9679144,15.7938719 39.7807487,15.1058496 39.4438503,14.4902507 C39.1069519,13.8746518 38.6203209,13.4038997 38.0213904,13.0417827 C37.4224599,12.6796657 36.7486631,12.4986072 36.0374332,12.4986072 C35.3262032,12.4986072 34.6524064,12.6796657 34.0160428,13.0417827 Z" id="Shape" fill="#FFFFFF"></path>
                                    <path d="M71.5601375,12.8607242 C70.8041237,12.643454 70.161512,12.4986072 69.6323024,12.4986072 C69.1030928,12.4986072 68.7250859,12.5710306 68.4226804,12.7520891 C68.1202749,12.9331476 67.9690722,13.1866295 67.9690722,13.5487465 C67.9690722,13.9832869 68.1958763,14.3454039 68.6116838,14.5626741 C69.0274914,14.7799443 69.7079038,15.0334262 70.6151203,15.2869081 C71.5223368,15.54039 72.2405498,15.7938719 72.8453608,16.0473538 C73.4123711,16.3008357 73.9415808,16.6629526 74.3573883,17.1699164 C74.7731959,17.6768802 74.9621993,18.3286908 74.9621993,19.1615599 C74.9621993,19.9582173 74.7353952,20.6462396 74.2817869,21.2256267 C73.8281787,21.8050139 73.2233677,22.2395543 72.467354,22.5654596 C71.6735395,22.8551532 70.8041237,23 69.8213058,23 C68.7628866,23 67.7044674,22.8189415 66.6838488,22.4568245 C65.6632302,22.0947075 64.7560137,21.5877437 64,20.9721448 L65.1718213,18.6545961 C65.8522337,19.2339833 66.6082474,19.7047354 67.4776632,20.0306407 C68.347079,20.3927577 69.1408935,20.5376045 69.8591065,20.5376045 C70.4639175,20.5376045 70.9553265,20.4289694 71.2955326,20.2116992 C71.6357388,19.994429 71.8247423,19.6685237 71.8247423,19.270195 C71.8247423,18.9442897 71.7113402,18.6908078 71.4845361,18.4735376 C71.257732,18.2562674 70.9553265,18.0752089 70.6151203,17.9665738 C70.2749141,17.821727 69.7835052,17.6768802 69.1408935,17.5320334 C68.233677,17.2785515 67.5154639,17.0612813 66.9484536,16.8077994 C66.3814433,16.5543175 65.8900344,16.1922006 65.4742268,15.7214485 C65.0584192,15.2144847 64.8694158,14.5626741 64.8694158,13.7660167 C64.8694158,13.005571 65.0962199,12.3537604 65.5120275,11.7743733 C65.9278351,11.1949861 66.532646,10.7604457 67.2886598,10.4707521 C68.0446735,10.1810585 68.95189,10 69.9725086,10 C70.8797251,10 71.7491409,10.1086351 72.6563574,10.362117 C73.5257732,10.6155989 74.3195876,10.9415042 75,11.3760446 L73.8659794,13.729805 C73.0343643,13.4038997 72.3161512,13.0779944 71.5601375,12.8607242 Z" id="Shape" fill="#FFFFFF"></path>
                                    <polygon id="Shape" fill="#FFFFFF" points="79 10 88.7785978 10 88.7785978 12.4281609 81.9151292 12.4281609 81.9151292 15.2672414 88.0774908 15.2672414 88.0774908 17.6954023 81.9151292 17.6954023 81.9151292 20.5718391 89 20.5718391 89 23 79.0369004 23 79.0369004 10"></polygon>
                                    <polygon id="Shape" fill="#FFFFFF" points="93.0350877 10 95.8070175 10 95.8070175 20.4224138 101 20.4224138 101 23 93 23 93 10"></polygon>
                                    <polygon id="Shape" fill="#FFFFFF" points="105 10 107.77193 10 107.77193 20.4224138 113 20.4224138 113 23 105 23 105 10"></polygon>
                                    <path d="M54.4585987,6.48148148 C54.5350318,6.14814815 55.3757962,3.48148148 58.8917197,3.03703704 L60,0 C54.4585987,0 52.0509554,3.66666667 51.5159236,5.7037037 L50.1019108,9.59259259 L47.4267516,9.59259259 L46.3949045,12.3703704 L46.3949045,12.5555556 L49.0318471,12.5555556 L45.7834395,21.5185185 C45.7834395,21.5925926 44.9044586,24.1851852 43.1847134,26.7037037 C41.3121019,29.4074074 39.2866242,30.8518519 37.0700637,31 L36,33.962963 C36.2292994,33.962963 36.4585987,34 36.6878981,34 C40.089172,34 43.1847134,32.0740741 45.7452229,28.3703704 C47.656051,25.6296296 48.611465,22.8148148 48.7261146,22.4814815 L52.3566879,12.5555556 L55.5286624,12.5555556 L56.5987261,9.59259259 L53.4267516,9.59259259 L54.4968153,6.62962963 L54.4585987,6.48148148 Z" id="Shape" fill="url(#linearGradient-1)"></path>
                                    <polygon id="Shape" fill="url(#linearGradient-2)" points="58.7307692 10 54 23 57.2692308 23 62 10"></polygon>
                                </g>
                            </g>
                        </g>
                    </g>
                </g>
            </g>
        </g>
    </g>
</svg>