<?xml version="1.0" encoding="UTF-8" standalone="no"?>
<svg width="114px" height="68px" viewBox="0 0 114 68" version="1.1" xmlns="http://www.w3.org/2000/svg" xmlns:xlink="http://www.w3.org/1999/xlink">
    <!-- Generator: Sketch 47.1 (45422) - http://www.bohemiancoding.com/sketch -->
    <title>Group 13</title>
    <desc>Created with Sketch.</desc>
    <defs></defs>
    <g id="Page-1" stroke="none" stroke-width="1" fill="none" fill-rule="evenodd">
        <g id="Desktop-HD-Copy-13" transform="translate(-1014.000000, -3930.000000)" fill="#FFFFFF">
            <g id="Group-11" transform="translate(0.000000, 3821.000000)">
                <g id="Group-13" transform="translate(1014.000000, 102.000000)">
                    <g id="max-1" transform="translate(0.000000, 26.000000)">
                        <g id="Group-5">
                            <g id="Page-1">
                                <path d="M85.5757508,26.3499051 L85.5720131,26.3499051 C85.5720131,27.3813861 85.5801115,28.4122468 85.5670295,29.4431076 C85.5626689,29.7848671 85.6922426,29.9293861 86.0367344,29.9132595 C86.3619148,29.8983734 86.6895869,29.9355886 87.0128984,29.907057 C88.0376525,29.8177405 89.0568,29.6304241 89.5682426,28.6125886 C89.8305049,28.0903354 89.9744066,27.4738038 90.0242426,26.8870443 C90.1382426,25.546057 89.8928,24.3222975 88.6911279,23.4458797 C87.8108984,22.8032975 86.827259,22.8839304 85.8442426,22.9037785 C85.7520459,22.9056392 85.5907016,23.1611835 85.5882098,23.301981 C85.5657836,24.3179557 85.5757508,25.3339304 85.5757508,26.3499051 M84.5796525,37.0970316 C85.0724066,37.0970316 85.4573902,37.0976519 85.8417508,37.0964114 C86.1519803,37.0957911 86.4628328,37.1007532 86.7724393,37.0877278 C87.270177,37.0678797 87.2371607,37.3984747 87.2521115,37.7408544 C87.2689311,38.1080443 87.1225377,38.2451203 86.763718,38.2438797 C84.8113902,38.2376772 82.8596852,38.2413987 80.9073574,38.2413987 C80.4189639,38.242019 79.9293246,38.2624873 79.4440459,38.2246519 C79.3082426,38.2141076 79.0746361,38.0243101 79.0783738,37.9244494 C79.0889639,37.6360316 78.8634557,37.2415506 79.3107344,37.0815253 C80.4295541,36.6808418 80.7379148,36.2485253 80.735423,35.064462 C80.7304393,31.6332215 80.7260787,28.201981 80.7242098,24.7713608 C80.7235869,23.8757152 80.2227344,23.1804114 79.3668,22.9254873 C78.8129967,22.7605 79.1126361,22.3151582 79.0708984,21.9982089 C79.0297836,21.6949051 79.3107344,21.7252975 79.5144393,21.7259177 C82.7083082,21.7401835 85.903423,21.7110316 89.0960459,21.7960063 C90.3276197,21.8288797 91.5691607,22.0906266 92.5851934,22.8944747 C93.4735213,23.5978418 93.958177,24.526981 93.9918164,25.6694873 C94.0179803,26.5527278 94.0105049,27.4148797 93.5868984,28.2472595 C93.0119148,29.3792215 92.0519475,29.9945127 90.931259,30.446057 C90.7593246,30.5142848 90.5973574,30.6067025 90.3899148,30.7090443 C90.4870951,30.8113861 90.5325705,30.8926392 90.6010951,30.9261329 C91.8669311,31.5383228 92.515423,32.6628418 93.084177,33.8611709 C93.4535869,34.6414494 93.8348328,35.4173861 94.2478492,36.1753354 C94.541882,36.7143354 94.959259,37.1540949 95.5653902,37.360019 C95.8899475,37.4710443 95.9709311,37.7334114 95.8787344,37.9889557 C95.833259,38.1148671 95.5653902,38.2277532 95.3959475,38.2308544 C94.1544066,38.2507025 92.9109967,38.2271329 91.6694557,38.2488418 C91.2757508,38.2556646 91.0284393,38.1198291 90.8596197,37.7780696 C90.1070951,36.2528671 89.3558164,34.7270443 88.587718,33.2092848 C88.3634557,32.7658038 88.1205049,32.322943 87.8233574,31.925981 C87.4203082,31.3876013 86.383718,31.1115886 85.7694885,31.3578291 C85.6635869,31.4012468 85.5801115,31.631981 85.5782426,31.7765 C85.5639148,32.9692468 85.573882,34.1619937 85.5726361,35.3547405 C85.5720131,36.1542468 85.522177,36.2410823 84.5796525,37.0970316" id="Fill-4"></path>
                                <path d="M101.541918,29.8285329 C101.541918,30.5350013 101.492705,31.2451911 101.553131,31.9460772 C101.657164,33.1611532 101.88018,34.3526595 102.428377,35.4684949 C103.393951,37.4346975 106.173557,37.6077481 107.257492,36.066419 C107.844311,35.2315582 108.153295,34.3129633 108.314639,33.3435076 C108.677197,31.1633177 108.636082,28.9725835 108.281623,26.7954949 C108.119033,25.7968873 107.833098,24.8249506 107.223852,23.9752038 C106.479426,22.9387608 105.181197,22.647862 103.892934,23.0901025 C102.76477,23.4777608 102.307525,24.4335709 101.974246,25.4619506 C101.515131,26.8823304 101.490213,28.3548114 101.541918,29.8285329 M96.5782459,29.9767734 C96.4897869,28.3678367 96.7152951,26.8134823 97.4304426,25.3484443 C98.0851639,24.0068367 99.1391967,23.0795582 100.464213,22.4357354 C101.588016,21.8905329 102.778475,21.5791658 104.017525,21.4216215 C105.847754,21.1896468 107.58018,21.5804063 109.244705,22.2707481 C110.701164,22.8754949 111.83182,23.8765835 112.563787,25.3037861 C113.133164,26.4127987 113.380475,27.6024443 113.483885,28.8187608 C113.599754,30.1870392 113.544311,31.5627608 113.255262,32.9080899 C112.837885,34.8550646 111.725295,36.3132797 109.977295,37.2901785 C108.150803,38.3111152 106.176049,38.8265456 104.108475,38.575343 C101.642213,38.2757608 99.3659508,37.448343 97.8148033,35.3332797 C96.9968689,34.2186848 96.704082,32.9124316 96.5857213,31.5664823 C96.539623,31.0405076 96.5782459,30.5070899 96.5782459,29.9767734" id="Fill-6"></path>
                                <path d="M5.77930164,15.5953975 C6.43962951,15.5953975 7.09995738,15.594157 7.7596623,15.5953975 C8.2978918,15.5972582 8.29726885,15.6226886 8.32156393,16.2323975 C8.3371377,16.6442456 8.18326885,16.7620937 7.77897377,16.7596127 C5.45599016,16.7472076 3.13362951,16.7620937 0.810645902,16.7602329 C0.56582623,16.7602329 0.205760656,16.8607139 0.232547541,16.432119 C0.253104918,16.1046253 0.00392459016,15.6599038 0.643695082,15.547638 C1.33330164,15.4273089 1.80985902,14.7040937 1.80985902,13.9250557 C1.81172787,10.6246886 1.80861311,7.32556203 1.80799016,4.02581519 C1.80736721,3.73057468 1.81608852,3.43595443 1.80487541,3.14195443 C1.77310492,2.31453671 1.21992459,1.64528354 0.397006557,1.50200506 C-0.225944262,1.39408101 0.0824163934,0.940055696 0.0363180328,0.631789873 C-0.0166327869,0.27638481 0.263695082,0.30181519 0.510383607,0.294992405 C2.16618689,0.246612658 3.82448197,0.226144304 5.47779344,0.125663291 C6.44835082,0.0661189873 6.8109082,0.410979747 6.73241639,1.32213165 C6.70251475,1.66513165 6.72743279,2.01247342 6.72743279,2.49565063 C6.95231803,2.31577722 7.06258033,2.23328354 7.16723607,2.14334684 C8.19074426,1.26134684 9.27156393,0.459979747 10.6339574,0.200713924 C12.602482,-0.174539241 14.5728754,0.149853165 15.6786131,1.86857468 C15.8056951,2.06581519 15.9533344,2.26491646 16.0150066,2.48448608 C16.1383508,2.92300506 16.2866131,2.75615696 16.5264492,2.57442278 C17.3699246,1.93556203 18.1785148,1.22351139 19.100482,0.720486076 C20.7656295,-0.188805063 22.5765475,-0.255792405 24.242318,0.624967089 C25.7012689,1.39594177 26.4407115,2.78592911 26.4575311,4.45565063 C26.4868098,7.23934684 26.4643836,10.0236633 26.4643836,12.8079797 C26.4643836,13.1764101 26.4650066,13.5442203 26.4681213,13.9126506 C26.4755967,14.7996127 26.9178918,15.3745873 27.7875311,15.5867139 C28.1039902,15.6636253 28.0610066,15.888157 28.0603836,16.1027646 C28.0591377,16.7403848 28.0566459,16.7385241 27.4312033,16.7385241 C25.1231705,16.7372835 22.8151377,16.7379038 20.5071049,16.7372835 C20.2753672,16.7366633 19.9682525,16.7937266 20.0162197,16.4234354 C20.0554656,16.1182709 19.7558262,15.6642456 20.4005803,15.5736886 C21.088941,15.4769291 21.5941541,14.7841063 21.5972689,14.0267772 C21.6047443,12.2150177 21.6003836,10.4032582 21.6003836,8.59087848 C21.6010066,7.51597975 21.5816951,6.43984051 21.6072361,5.36556203 C21.6253016,4.5660557 21.3100885,3.89680253 20.8410066,3.30073924 C20.2130721,2.50371392 18.972777,2.45595443 17.9511377,3.14691646 C17.0322852,3.76716962 16.5494984,4.58280253 16.5656951,5.73771392 C16.6030721,8.34525823 16.5706787,10.9528025 16.5619574,13.5603468 C16.5594656,14.3493089 16.7033672,15.0626 17.492023,15.462043 C17.6072689,15.5209671 17.7368426,15.5730684 17.8639246,15.5842329 C18.1492361,15.6096633 18.2314656,15.7566633 18.225859,16.0264734 C18.212777,16.7391443 18.2214984,16.7397646 17.4926459,16.7410051 C15.2288426,16.7434861 12.9656623,16.7459671 10.701859,16.7453468 C10.4321213,16.7453468 10.1100557,16.8148152 10.1000885,16.3688532 C10.0913672,16.0004228 9.99107213,15.6605241 10.5585803,15.555081 C11.2319902,15.4285494 11.7428098,14.6991316 11.7453016,13.9721949 C11.754023,11.2170304 11.7845475,8.46124557 11.7191377,5.70856203 C11.7016951,5.00085316 11.3945803,4.29004304 11.1603508,3.60156203 C10.8962197,2.82686582 10.0265803,2.62776456 9.31641639,2.70157468 C7.98953115,2.83927089 6.64769508,4.30120759 6.69628525,5.63351139 C6.78972787,8.1932962 6.71248197,10.7592835 6.72992459,13.3221696 C6.7361541,14.2109924 6.69441639,15.0464734 5.70080984,15.4818911 L5.77930164,15.5953975 Z" id="Fill-1"></path>
                                <path d="M38.6445672,10.6503051 C38.6445672,10.2235709 38.6308623,9.7955962 38.6495508,9.37010253 C38.6620098,9.07734304 38.5467639,8.95701392 38.2620754,8.9917481 C37.6048623,9.07362152 36.9333213,9.09843165 36.2941738,9.25349494 C35.0407967,9.55741899 34.0328623,10.2105456 33.6740426,11.5360266 C33.3725344,12.651862 33.5345016,13.7968494 34.4845016,14.3687228 C35.6039443,15.0423177 37.5132885,14.4146215 38.2085016,13.1741152 C38.660141,12.3690266 38.6626328,11.5192797 38.6445672,10.6503051 L38.6445672,10.6503051 Z M42.5704033,15.6117101 C42.9454197,15.6117101 43.321059,15.6129506 43.6960754,15.6117101 C43.9620754,15.6104696 44.2286984,15.6017861 44.4946984,15.6048873 C45.0653213,15.6123304 45.3294525,16.0465076 45.0640754,16.5706215 C45.0204689,16.6568367 44.8510262,16.7238241 44.739518,16.7250646 C42.8164689,16.7362291 40.8927967,16.7349886 38.9697475,16.7387101 C38.7124689,16.7393304 38.6445672,16.6016342 38.647682,16.3727608 C38.6551574,15.8945456 38.6501738,15.4163304 38.6501738,14.8748494 C38.4782393,14.944938 38.3847967,14.9567228 38.3293541,15.0088241 C37.3687639,15.9193557 36.2592885,16.5985329 34.9629279,16.8602797 C33.1812885,17.2206468 30.9760426,17.0631025 29.7326328,15.4405203 C28.969518,14.4443937 28.7284361,13.3118114 28.9987967,12.0657228 C29.3638459,10.387938 30.5287639,9.43398861 31.983977,8.75729241 C33.327059,8.13269747 34.7586,7.79217848 36.228141,7.61416582 C36.9027967,7.53353291 37.5799443,7.47336835 38.2502393,7.37040633 C38.381059,7.35055823 38.5891246,7.17750759 38.5909934,7.07268481 C38.609059,5.8265962 38.6931574,4.56996329 38.2190918,3.36977342 C37.8353541,2.3965962 37.1625672,1.96862152 36.1266,1.9053557 C34.6377475,1.81541899 33.7706,2.6415962 33.351977,3.98816582 C33.2828295,4.21083671 33.2055836,4.43288734 33.1246,4.65183671 C32.9688623,5.07484937 32.5913541,5.14245696 32.2194525,5.15548228 C31.5989934,5.17719114 30.9772885,5.15238101 30.3562066,5.15796329 C30.0011246,5.16106456 29.8516164,5.01096329 29.8603377,4.6493557 C29.8765344,3.97203924 29.8703049,3.29472278 29.8603377,2.61678608 C29.857223,2.33519114 29.9438131,2.12988734 30.223518,2.03002658 C31.6226656,1.5332038 33.011223,1.00536835 34.4222066,0.547001266 C35.9035836,0.0656848101 37.4472557,0.00117848101 38.9840754,0.133292405 C40.433682,0.257343038 41.7773869,0.677874684 42.6165016,2.00645696 C43.2326,2.98211519 43.4593541,4.08306456 43.4724361,5.20696329 C43.5066984,8.13765949 43.4973541,11.0695962 43.4805344,14.0002924 C43.4767967,14.6546595 43.1771574,15.1893177 42.5180754,15.4758747 L42.5704033,15.6117101 Z" id="Fill-9"></path>
                                <path d="M48.9585148,37.1055911 C49.4967443,37.1055911 50.0038262,37.1068316 50.5115311,37.1049709 C50.6292689,37.1043506 50.7476295,37.0900848 50.8659902,37.0888443 C51.5244492,37.0814013 51.7512033,37.3623759 51.5356623,37.9937937 C51.4939246,38.1153633 51.2198262,38.2270089 51.0522525,38.2282494 C48.8482525,38.2431354 46.6430066,38.2381734 44.4383836,38.2381734 C44.2907443,38.2381734 44.142482,38.2344519 43.9948426,38.2369329 C43.2093016,38.251819 43.2522852,38.2412747 43.2828098,37.4213 C43.2871705,37.2991101 43.4640885,37.1062114 43.5911705,37.0770595 C44.5773016,36.8512873 45.0575967,36.044338 45.0557279,35.1350468 C45.0501213,31.6585278 45.0644492,28.1813886 45.0519902,24.7048696 C45.0494984,24.0033633 44.7554656,23.4209456 44.0963836,23.0804266 C43.9537279,23.0072367 43.8017279,22.9259835 43.6472361,22.9073759 C43.3706459,22.8751228 43.2740885,22.7454899 43.2634984,22.4750595 C43.2367115,21.7754139 43.2448098,21.7599076 43.9512361,21.7599076 C45.3422852,21.7599076 46.7339574,21.7822367 48.1237607,21.7475025 C49.1952361,21.7208316 49.9253344,22.6549329 49.9166131,23.6293506 C49.9010393,25.264338 49.9091377,26.8999456 49.9078918,28.5355532 C49.9072689,29.0664899 49.9377934,29.0832367 50.4517279,29.0739329 C50.9532033,29.0633886 51.399859,28.9008823 51.7150721,28.5318316 C52.7753344,27.2894646 53.8299902,26.0402747 54.8373016,24.7551101 C55.0846131,24.4381608 55.1942525,23.9835152 55.2727443,23.5741481 C55.3593344,23.1238443 55.1494,22.7796038 54.6778262,22.6245405 C54.5152361,22.5711987 54.3202525,22.4986291 54.2305475,22.3714772 C54.0181213,22.0700342 54.2374,21.7419203 54.6261213,21.7413 C56.3716295,21.738819 58.1177607,21.733857 59.8632689,21.738819 C60.0962525,21.7394392 60.3971377,21.6643886 60.4338918,22.0520468 C60.4675311,22.4080722 60.2762852,22.5482494 59.9729082,22.7002114 C59.494482,22.9396291 58.9874,23.2013759 58.6279574,23.5803506 C57.2686787,25.0143759 55.9629738,26.4980215 54.6392033,27.9655405 C54.1246459,28.5367937 54.1128098,28.5491987 54.5264492,29.1768949 C56.048941,31.4867177 57.580777,33.7909582 59.113859,36.0945785 C59.4764164,36.6404013 59.8962852,37.1328823 60.5410393,37.3642367 C60.8568754,37.4771228 60.9677607,37.7295658 60.8456623,37.9869709 C60.7814984,38.1228063 60.5011705,38.2245278 60.316777,38.2263886 C58.467859,38.2449962 56.618318,38.2462367 54.768777,38.2301101 C54.5831377,38.2294899 54.2965803,38.1314899 54.2361541,37.9975152 C54.124023,37.7518949 54.2099902,37.5199203 54.5364164,37.379743 C54.9899246,37.1856038 55.0671705,36.7018063 54.7451049,36.1776924 C54.098482,35.1263633 53.4474984,34.0762747 52.7628754,33.0491354 C52.2501869,32.2800215 51.704482,31.5295152 51.1245148,30.8100215 C50.9637934,30.6096797 50.640482,30.5110595 50.3719902,30.4322873 C50.0274984,30.3318063 49.9035311,30.5191228 49.9085148,30.8639835 C49.9234656,31.9543886 49.9172361,33.0447937 49.9172361,34.1345785 C49.9172361,34.4881228 49.9004164,34.8422873 49.9116295,35.1952114 C49.9353016,35.9388949 49.7291049,36.5591481 49.0270393,36.936262 C48.9996295,36.9505278 48.9958918,37.0094519 48.9585148,37.1055911" id="Fill-11"></path>
                                <path d="M53.6419213,10.7932734 C53.4076918,11.0847924 53.2394951,11.296919 53.0681836,11.5065646 C52.5455279,12.1460456 51.9992,12.766919 51.5089377,13.4287291 C51.3077246,13.6997797 51.1725443,14.045881 51.099659,14.3777165 C50.9613639,15.0097544 51.251659,15.4451722 51.8914295,15.5779063 C52.4794951,15.6994759 52.1792328,16.1299316 52.2203475,16.4270329 C52.265823,16.7576278 51.9942164,16.7396405 51.7668393,16.7396405 C50.0063803,16.740881 48.2459213,16.745843 46.4860852,16.7439823 C46.2612,16.743362 45.9472328,16.8047671 45.957823,16.4487418 C45.9665443,16.1355139 45.7447738,15.7466152 46.2543475,15.5518557 C47.3389049,15.1362861 48.0901836,14.285919 48.8408393,13.4547797 C49.9777246,12.1975266 51.0822164,10.909881 52.2153639,9.64952658 C52.4645443,9.37227342 52.5025443,9.16758987 52.2714295,8.84877975 C50.8000197,6.82489367 49.3709705,4.76937468 47.8733967,2.76471646 C47.4983803,2.26169114 46.9489377,1.87217215 46.4325115,1.49381772 C46.0400525,1.20602025 46.2468721,0.853716456 46.2406426,0.53304557 C46.2387738,0.461096203 46.5514951,0.316577215 46.7203148,0.315336709 C49.0426754,0.299210127 51.3650361,0.296729114 53.6873967,0.31161519 C53.8643148,0.312855696 54.1539869,0.429463291 54.1975934,0.557235443 C54.355823,1.02676709 54.2088066,1.38775443 53.8992,1.51118481 C53.2089705,1.78657722 52.9759869,2.21083038 53.3354295,2.85093165 C53.8294295,3.73107089 54.4336918,4.55042532 54.9949705,5.39272911 C55.1469705,5.61974177 55.3132984,5.83745063 55.5095279,6.11036203 C55.7244459,5.8510962 55.9038557,5.6445519 56.0726754,5.4299443 C56.5816262,4.7824 57.0992984,4.13919747 57.585823,3.47552658 C57.737823,3.26774177 57.8337574,3.00599494 57.901659,2.75479241 C58.0480525,2.21331139 57.6493639,1.67927342 56.9983803,1.50250127 C56.6046754,1.39519747 56.5274295,1.19299494 56.6015607,0.600032911 C56.6464131,0.237805063 56.9012,0.304172152 57.1310689,0.303551899 C58.9058557,0.301070886 60.6812656,0.294248101 62.4560525,0.307273418 C62.613659,0.308513924 62.9064459,0.440007595 62.9052,0.504513924 C62.8958557,0.832007595 63.1493967,1.28913418 62.7451016,1.4702481 C61.664282,1.95466582 60.929823,2.81061519 60.1772984,3.65974177 C58.7015279,5.32450127 57.2251344,6.98802025 55.6733639,8.73837468 C55.887659,8.71976709 56.0072656,8.71604557 56.1237574,8.69805823 C56.8569705,8.58269114 57.4219869,8.84691899 57.8455934,9.44174177 C58.9544459,11.0010582 60.055823,12.5665772 61.1808721,14.1147291 C61.6343803,14.7387038 62.170118,15.2826658 62.9344787,15.5487544 C63.2839541,15.6703241 63.4253639,16.0331722 63.2571672,16.4989823 C63.2104459,16.6298557 62.9170361,16.743362 62.7357574,16.7446025 C60.3691672,16.7588684 58.002577,16.7539063 55.6359869,16.7483241 C55.4266754,16.7477038 55.1201836,16.794843 55.1500852,16.4623873 C55.1774951,16.155362 54.9314295,15.7404127 55.4628066,15.5741848 C56.0222164,15.3992734 56.3554951,14.7641342 56.0701836,14.3249949 C55.3120525,13.1570582 54.4953639,12.0257165 53.6419213,10.7932734" id="Fill-13"></path>
                                <path d="M5.81948197,37.088038 C6.01571148,37.088038 6.21256393,37.0886582 6.40941639,37.088038 C7.28217049,37.0861772 8.15803934,37.0377975 9.02705574,37.093 C10.5669902,37.1903797 11.189318,36.1359494 11.5624656,35.081519 C11.6646295,34.7931013 11.7175803,34.4866962 11.7892197,34.1877342 C11.9075803,33.6977342 12.3100066,33.8472152 12.6239738,33.8329494 C12.9472852,33.8180633 12.9423016,34.0661646 12.9423016,34.297519 C12.9404328,35.4611139 12.9317115,36.6247089 12.9472852,37.7883038 C12.9522689,38.1399873 12.8189574,38.2466709 12.4782033,38.2460506 C8.54302295,38.2410886 4.60784262,38.2466709 0.672662295,38.2528734 C0.430334426,38.2528734 0.188006557,38.2423291 0.224137705,37.926 C0.259645902,37.6121519 0.016695082,37.1841772 0.53997377,37.0353165 C1.42580984,36.7841139 1.81017049,36.2953544 1.81141639,35.385443 C1.8151541,31.7916962 1.8151541,28.1973291 1.81079344,24.6035823 C1.80954754,23.8183418 1.33921967,23.1590127 0.58482623,22.9605316 C-0.0231737705,22.7998861 0.263383607,22.3458608 0.23597377,22.0214684 C0.207318033,21.6772278 0.530006557,21.7212658 0.75987541,21.7218861 C4.41410492,21.7280886 8.06771148,21.7386329 11.721941,21.7454557 C12.9429246,21.7479367 12.9429246,21.7435949 12.9416787,22.9537089 C12.9410557,23.6899494 12.9310885,24.4268101 12.9454164,25.1624304 C12.9516459,25.4719367 12.8283016,25.575519 12.5280393,25.5798608 C11.7667934,25.5904051 11.759318,25.5773797 11.5481377,24.8771139 C11.4304,24.4851139 11.2933508,24.0856709 11.0846623,23.7377089 C10.7644656,23.2024304 10.2636131,22.8985063 9.61823607,22.890443 C8.77476066,22.8817595 7.9319082,22.8861013 7.08843279,22.8736962 C6.82118689,22.8699747 6.7221377,22.9797595 6.72338361,23.2433671 C6.72961311,25.0253544 6.72899016,26.8073418 6.72712131,28.5899494 C6.72712131,28.8864304 6.8704,28.9769873 7.15010492,28.9348101 C7.88331803,28.8250253 8.31876066,28.4410886 8.4639082,27.7091899 C8.53928525,27.3308354 8.73862951,27.1987215 9.1124,27.2117468 C10.1240721,27.248962 10.0125639,27.1466203 10.0131869,28.1322025 C10.0138098,29.2957975 10.0063344,30.4587722 10.0231541,31.6223671 C10.0281377,32.0038228 9.88236721,32.1731519 9.50299016,32.1483418 C9.36967869,32.139038 9.23512131,32.1291139 9.10367869,32.141519 C8.71620328,32.1793544 8.54738361,31.9827342 8.4639082,31.6279494 C8.2801377,30.8445696 7.82538361,30.4407848 7.16443279,30.3930253 C6.8324,30.3694557 6.72276066,30.4817215 6.72587541,30.8141772 C6.74082623,32.2134684 6.70469508,33.6133797 6.74580984,35.0114304 C6.77010492,35.8531139 6.60253115,36.5533797 5.77649836,36.9739114 L5.81948197,37.088038 Z" id="Fill-15"></path>
                                <path d="M34.4429508,37.0577076 C34.5557049,37.090581 34.6472787,37.1402013 34.7382295,37.1389608 C35.7137705,37.1284165 36.6905574,37.0632899 37.6629836,37.1042266 C39.0777049,37.1643911 39.6838361,36.5261506 40.2021311,35.2261 C40.3204918,34.9289987 40.3703279,34.6046063 40.4394754,34.2895177 C40.5241967,33.9043405 40.7222951,33.800138 41.2574098,33.8336316 C41.6386557,33.8572013 41.6062623,34.1164671 41.6062623,34.3707709 C41.6068852,35.4903278 41.5956721,36.6092646 41.6156066,37.7288215 C41.6218361,38.1164797 41.4804262,38.2411506 41.0973115,38.2405304 C37.1920328,38.2324671 33.2867541,38.2368089 29.3814754,38.2361886 C29.1609508,38.2361886 28.8787541,38.2628595 28.9024262,37.9384671 C28.9248525,37.6376443 28.6794098,37.1755557 29.1721639,37.0794165 C30.0418033,36.9094671 30.5339344,36.2048595 30.526459,35.2428468 C30.5021639,32.1943025 30.5252131,29.145138 30.5252131,26.0965937 C30.5252131,25.5228595 30.5258361,24.9485051 30.4847213,24.3772519 C30.4292787,23.6068975 29.9365246,23.1410873 29.2462951,22.9339228 C28.6713115,22.7596316 28.9279672,22.3446823 28.9030492,22.0302139 C28.8768852,21.6983785 29.1802623,21.7579228 29.3933115,21.7579228 C33.2537377,21.7542013 37.1147869,21.753581 40.9752131,21.7498595 C41.5807213,21.7492392 41.5913115,21.7542013 41.5906885,22.3614291 C41.5900656,23.2601759 41.6012787,24.1583025 41.5788525,25.0564291 C41.5744918,25.2245177 41.4312131,25.5327835 41.3608197,25.5303025 C41.0281639,25.5185177 40.5927213,25.7815051 40.3890164,25.2884038 C40.2438689,24.9361 40.1093115,24.5775937 39.9959344,24.2135051 C39.7623279,23.4629987 39.1711475,22.9314418 38.4030492,22.8954671 C37.5178361,22.8545304 36.6288852,22.870657 35.7418033,22.8607329 C35.4814098,22.8576316 35.377377,22.9792013 35.378623,23.2415684 C35.3867213,25.0235557 35.3873443,26.805543 35.3842295,28.5875304 C35.3836066,28.8523785 35.4932459,28.9578215 35.7592459,28.9472772 C36.4525902,28.9181253 36.9297705,28.5521759 37.1154098,27.8916063 C37.2935738,27.2552266 37.3097705,27.2428215 37.9526557,27.2471633 C38.6883607,27.2515051 38.6889836,27.2515051 38.6889836,27.9678975 C38.6896066,29.1897962 38.6796393,30.4123152 38.6939672,31.6348342 C38.6983279,32.0138089 38.57,32.1763152 38.176918,32.1453025 C37.3016721,32.0764544 37.4212787,32.3257962 37.0817705,31.3482772 C36.8867869,30.7869481 36.4152131,30.429062 35.8807213,30.3868848 C35.5268852,30.3589734 35.3804918,30.4563532 35.3873443,30.8477329 C35.4103934,32.3059481 35.378,33.7641633 35.4072787,35.2223785 C35.4228525,35.9666823 35.1998361,36.544138 34.5326557,36.9193911 C34.5002623,36.9379987 34.4871803,36.9882392 34.4429508,37.0577076" id="Fill-17"></path>
                                <path d="M71.265823,37.0874177 C71.9373639,37.0874177 72.6095279,37.1091266 73.2792,37.0787342 C73.6729049,37.0613671 73.8161836,37.2114684 73.8180525,37.5823797 C73.8217902,38.1542532 73.7694623,38.2386076 73.3122164,38.2386076 C70.9157246,38.2398481 68.5186098,38.2367468 66.1214951,38.2398481 C65.8866426,38.2404684 65.6654951,38.1989114 65.6991344,37.9272405 C65.7371344,37.6195949 65.4736262,37.1854177 66.0137246,37.0458608 C66.869659,36.8250506 67.288282,36.3077595 67.2895279,35.4400253 C67.2945115,31.3885316 67.2907738,27.337038 67.2988721,23.2855443 C67.300118,22.9803797 67.2072984,22.8457848 66.8933311,22.8718354 C66.7027082,22.8873418 66.5083475,22.8892025 66.3171016,22.878038 C64.906741,22.7936835 64.3734951,23.512557 63.9978557,24.6618861 C63.9156262,24.9118481 63.8689049,25.1779367 63.7555279,25.4123924 C63.6982164,25.531481 63.5337574,25.6598734 63.4060525,25.673519 C63.0553311,25.7101139 62.6933967,25.722519 62.3457902,25.6741392 C62.2180852,25.6555316 62.0237246,25.4421646 62.0206098,25.3137722 C61.9944459,24.2388734 62.0093967,23.1633544 62.0031672,22.0872152 C62.0012984,21.7280886 62.2517246,21.7373924 62.4903148,21.7361519 C63.4664787,21.7305696 64.4432656,21.7318101 65.4200525,21.7311899 C69.1926426,21.7293291 72.9658557,21.7274684 76.7384459,21.7268481 C77.4766426,21.7262278 77.4760197,21.7287089 77.4766426,22.449443 C77.4778885,23.377962 77.4697902,24.306481 77.4866098,25.2343797 C77.4928393,25.5612532 77.3557902,25.6964684 77.0449377,25.6939873 L76.9564787,25.6952278 C75.7984131,25.7374051 75.8171016,25.7318228 75.4682492,24.6190886 C75.2632984,23.968443 74.9873311,23.2805823 74.2740525,23.0734177 C73.6810033,22.9009873 73.0281508,22.9220759 72.4002164,22.8966456 C72.3385443,22.8941646 72.2108393,23.1645949 72.2071016,23.3103544 C72.1884131,24.105519 72.2002492,24.9013038 72.2002492,25.6970886 C72.2002492,28.7313671 72.1828066,31.7662658 72.2077246,34.8005443 C72.214577,35.6986709 72.1572656,36.5167848 71.189823,36.9732911 L71.265823,37.0874177 Z" id="Fill-19"></path>
                                <path d="M20.1379443,37.1013114 C20.4786984,37.1013114 20.8194525,37.1025519 21.1602066,37.1013114 C21.9289279,37.0969696 22.6988951,37.0634759 23.4663705,37.0932481 C24.7502721,37.1428684 25.2978459,36.5108304 25.7737803,35.4136025 C25.9475836,35.012919 26.0566,34.581843 26.1749607,34.1600709 C26.3064033,33.6905392 26.6733213,33.8307165 26.9748295,33.8505646 C27.2968951,33.8716532 27.2906656,34.1160329 27.2881738,34.3740582 C27.2750918,35.4923747 27.2682393,36.6119316 27.2881738,37.7302481 C27.2956492,38.1278304 27.133059,38.241957 26.7630262,38.241957 C22.8583705,38.2357544 18.9543377,38.2388557 15.049682,38.2407165 C14.7973869,38.2413367 14.5288951,38.2258304 14.555682,37.8939949 C14.581223,37.5813873 14.3818787,37.1608557 14.9269607,37.0374253 C15.6888295,36.8649949 16.1921738,36.2162101 16.1927967,35.4508177 C16.1977803,31.8725772 16.2008951,28.2943367 16.2008951,24.7154759 C16.201518,23.8675899 15.7424033,23.2274886 14.9406656,22.9328684 C14.5862066,22.8032354 14.4286,22.4807038 14.5818459,22.0012481 C14.6223377,21.8753367 14.9188623,21.7612101 15.0988951,21.7593494 C16.5335508,21.7450835 17.9682066,21.7481848 19.4022393,21.7705139 C20.2401082,21.7841595 20.9079115,22.3969696 21.0262721,23.2256278 C21.0636492,23.4873747 21.0705016,23.7534633 21.0711246,24.0183114 C21.0786,27.6852481 21.0754852,31.3515646 21.0947967,35.0191215 C21.0991574,35.8477797 20.9527639,36.5678937 20.1074197,36.9698177 L20.1379443,37.1013114 Z" id="Fill-21"></path>
                                <g id="Group" transform="translate(0.000000, 41.556962)">
                                    <path d="M48.2880951,2.8711519 C48.2880951,4.13522785 48.2725213,5.39992405 48.2968164,6.664 C48.3049148,7.08329114 48.1909148,7.22594937 47.7529803,7.22718987 C47.288259,7.22843038 47.2272098,7.03367089 47.2328164,6.63670886 C47.2558656,4.82681013 47.2596033,3.01691139 47.2490131,1.20639241 C47.2471443,0.836101266 47.3723574,0.692202532 47.7367836,0.726936709 C47.9124557,0.743683544 48.0912426,0.730658228 48.2687836,0.730037975 C48.922259,0.728177215 49.0019967,0.82121519 49.1321934,1.45201266 C49.3545869,2.52691139 49.6106197,3.59560759 49.8541934,4.66678481 C49.8598,4.69283544 49.8884557,4.7133038 49.9532426,4.79579747 C50.0180295,4.65872152 50.0902918,4.557 50.1152098,4.44473418 C50.3618984,3.34378481 50.6085869,2.24221519 50.8372098,1.1375443 C50.8951443,0.857810127 51.025341,0.719493671 51.3106525,0.728177215 C52.9415377,0.775936709 52.6562262,0.459607595 52.6749148,1.96558228 C52.6948492,3.54040506 52.6693082,5.1158481 52.696718,6.69067089 C52.7041934,7.15151899 52.5023574,7.21602532 52.1117672,7.2228481 C51.6950131,7.22967089 51.5280623,7.10686076 51.5405213,6.67206329 C51.5729148,5.53948101 51.570423,4.40627848 51.5791443,3.2724557 C51.5797672,3.13786076 51.5635705,3.00264557 51.5548492,2.86743038 L51.4290131,2.85626582 C51.3305869,3.34812658 51.2340295,3.83936709 51.1331115,4.33060759 C50.9717672,5.12018987 50.797341,5.90791139 50.6465869,6.69997468 C50.5500295,7.20548101 50.2067836,7.22222785 49.7906525,7.22346835 C49.3732754,7.22470886 49.3265541,6.98218987 49.2667508,6.66834177 C49.0505869,5.54444304 48.8163574,4.42364557 48.5796361,3.30346835 C48.5453738,3.14220253 48.4587836,2.99148101 48.3964885,2.83517722 L48.2880951,2.8711519 Z" id="Fill-23"></path>
                                    <path d="M74.8435541,2.86141392 C74.717718,3.42894557 74.5862754,3.99585696 74.4666689,4.56462911 C74.3022098,5.33994557 74.1639148,6.12146456 73.9708,6.88871772 C73.9365377,7.02393291 73.6910951,7.18457848 73.5353574,7.19264177 C73.2600131,7.20876835 72.8750295,7.37685696 72.7498164,6.9339962 C72.6177508,6.46880633 72.5006361,5.99989494 72.4009639,5.52664177 C72.2271607,4.7091481 72.0739148,3.88669241 71.9075869,3.06795823 C71.8920131,2.99166709 71.843423,2.92281899 71.7007672,2.86203418 C71.7007672,3.02764177 71.6995213,3.19262911 71.7007672,3.35761646 C71.7119803,4.49143924 71.7051279,5.62526203 71.7425049,6.75722405 C71.7605705,7.2956038 71.4142098,7.18954051 71.0977508,7.21497089 C70.7389311,7.24350253 70.6000131,7.12627468 70.6037508,6.74916076 C70.6218164,4.89398354 70.6243082,3.03942658 70.614341,1.18486962 C70.6124721,0.837527848 70.727718,0.687426582 71.0759475,0.731464557 L71.120177,0.731464557 C72.3368,0.721540506 72.3480131,0.719059494 72.628341,1.88389494 C72.8208328,2.68154051 72.9715869,3.48911013 73.1497508,4.28985696 C73.185259,4.44988228 73.261259,4.6006038 73.4126361,4.74264177 C73.5795869,4.03865443 73.7527672,3.3371481 73.9116197,2.6313 C74.0150295,2.17293291 74.0872918,1.70712278 74.1956852,1.24937595 C74.2766689,0.910097468 74.4367672,0.701692405 74.8690951,0.714717722 C76.0365049,0.752553165 76.0439803,0.728983544 76.0508328,1.88389494 C76.0608,3.5027557 76.0464721,5.12285696 76.0713902,6.74171772 C76.0782426,7.21062911 75.8240787,7.21000886 75.4814557,7.22179367 C75.1151607,7.23481899 74.9774885,7.10642658 74.9849639,6.73985696 C75.0067672,5.62154051 75.0061443,4.5026038 75.0136197,3.38428734 C75.0148656,3.21433797 75.0142426,3.04562911 75.0142426,2.87567975 L74.8435541,2.86141392 Z" id="Fill-25"></path>
                                    <path d="M27.1117541,3.39625823 C27.3335246,3.39625823 27.555918,3.4099038 27.7764426,3.39315696 C28.1527049,3.36338481 28.405623,3.07496709 28.4230656,2.68358734 C28.442377,2.24630886 28.228082,1.93804304 27.834377,1.89400506 C27.4979836,1.85616962 27.1566066,1.85430886 26.8177213,1.85058734 C26.1511639,1.84376456 26.1492951,1.84810633 26.1567705,2.49565063 C26.1692295,3.51782785 25.986082,3.42168861 27.1117541,3.39625823 M30.0850984,7.09420759 C29.0846393,7.39006835 28.7227049,7.25671392 28.2891311,6.51985316 C28.0287377,6.07637215 27.771459,5.63103038 27.5017213,5.19251139 C27.4026721,5.03062532 27.303623,4.82532152 27.1497541,4.74965063 C26.9011967,4.62684051 26.6071639,4.5567519 26.3330656,4.55613165 C26.2720164,4.55613165 26.1673607,4.9394481 26.1592623,5.14971392 C26.1387049,5.6930557 26.1492951,6.23887848 26.1673607,6.78284051 C26.1829344,7.23686582 25.8870328,7.21639747 25.5743115,7.21453671 C25.2647049,7.2132962 24.9769016,7.23996709 24.9806393,6.78346076 C24.997459,4.89789114 25.0018197,3.01294177 25.0005738,1.12737215 C25.0005738,0.809802532 25.150082,0.721106329 25.4385082,0.724827848 C26.2527049,0.735372152 27.0662787,0.724207595 27.8798525,0.737232911 C28.7955902,0.751498734 29.4141803,1.23839747 29.5798852,2.05092911 C29.772377,2.9980557 29.3961148,3.83043544 28.6049672,4.20568861 C28.5021803,4.25468861 28.4025082,4.30927089 28.3775902,4.3210557 C28.9444754,5.24213165 29.4995246,6.14335949 30.0850984,7.09420759" id="Fill-27"></path>
                                    <path d="M11.7654852,5.06138987 C11.7654852,5.12031392 11.7654852,5.17861772 11.7654852,5.23816203 C11.7779443,6.45199747 11.3157148,6.99595949 10.0997148,7.22421266 C8.08882951,7.60194684 6.82673115,6.58411139 6.50092787,4.60922532 C6.33148525,3.58022532 6.50279672,2.58595949 7.0933541,1.69527595 C7.65400984,0.849250633 8.77656721,0.430579747 9.77017377,0.626579747 C10.6011902,0.789706329 11.2048295,1.19038987 11.5325016,1.98555443 C11.7000754,2.39057975 11.6259443,2.47617468 11.2029607,2.62317468 C10.7749934,2.77327595 10.5146,2.74226329 10.2897148,2.30808608 C10.059223,1.8627443 9.61692787,1.6760481 9.12791148,1.74179494 C8.55853443,1.81870633 8.10253443,2.10092152 7.88450164,2.67093418 C7.55745246,3.52378228 7.56181311,4.4095038 7.91627213,5.21521266 C8.41587869,6.34903544 9.57145246,6.36578228 10.4267639,5.68970633 C10.5675508,5.57806076 10.5700426,5.22823797 10.5388951,5.00122532 C10.5283049,4.91997215 10.2330262,4.87407342 10.0654525,4.81825063 L9.93276393,4.81638987 C9.32040328,4.81514937 9.08181311,4.47090886 9.31853443,3.88849114 C9.35964918,3.78738987 9.53345246,3.68380759 9.64994426,3.67884557 C10.2261738,3.65775696 10.8036492,3.67202278 11.3805016,3.66892152 C11.6390262,3.66706076 11.7623705,3.79049114 11.7617475,4.04479494 C11.7605016,4.38345316 11.7611246,4.72211139 11.7611246,5.06138987 L11.7654852,5.06138987 Z" id="Fill-29"></path>
                                    <path d="M83.5666721,3.96441013 L83.5648033,3.96441013 C83.5648033,4.5381443 83.5716557,5.11187848 83.5616885,5.68499241 C83.5573279,5.94239747 83.6426721,6.06954937 83.9180164,6.0559038 C84.2425738,6.03977722 84.568377,6.05838481 84.8923115,6.0372962 C85.2978525,6.01124557 85.5675902,5.78609367 85.7189672,5.41518228 C86.0435246,4.62001772 85.9538197,3.78453671 85.8647377,2.97634684 C85.8149016,2.51922025 85.5812951,2.01867595 85.0081803,1.91571392 C84.6618197,1.85430886 84.302377,1.8617519 83.947918,1.84748608 C83.6800492,1.83694177 83.5504754,1.94672658 83.5610656,2.24382785 C83.581,2.81632152 83.5666721,3.39067595 83.5666721,3.96441013 L83.5666721,3.96441013 Z M82.3955246,3.92223291 C82.3955246,3.0086 82.4086066,2.09496709 82.3892951,1.18257468 C82.3818197,0.826549367 82.5207377,0.714903797 82.858377,0.722967089 C83.4944098,0.739713924 84.1310656,0.750878481 84.7664754,0.728549367 C85.7575902,0.693194937 86.4347377,1.19249873 86.7773607,2.0391443 C87.3218197,3.38323291 87.3367705,4.76515696 86.6677213,6.09311899 C86.2976885,6.82811899 85.6442131,7.17173924 84.8368689,7.2027519 C84.1715574,7.22818228 83.505,7.20027089 82.8396885,7.21825823 C82.491459,7.22818228 82.3687377,7.08862532 82.3730984,6.74934684 C82.3861803,5.80718228 82.377459,4.86439747 82.377459,3.92223291 L82.3955246,3.92223291 Z" id="Fill-31"></path>
                                    <path d="M13.924259,3.95473418 L13.9292426,3.95473418 L13.9292426,4.92605063 C13.9279967,6.08716456 13.9279967,6.08716456 15.1184557,6.04374684 C15.6915705,6.02265823 16.1569148,5.6443038 16.1905541,5.07677215 C16.2335377,4.35975949 16.2285541,3.63716456 16.1967836,2.91953165 C16.1762262,2.44441772 15.7887508,1.98356962 15.3869475,1.9215443 C15.0237672,1.86448101 14.6512426,1.86324051 14.2818328,1.85641772 C14.0089803,1.85083544 13.9037016,1.98729114 13.9167836,2.27632911 C13.9423246,2.83455696 13.924259,3.39526582 13.924259,3.95473418 L13.924259,3.95473418 Z M12.7612098,3.9293038 C12.7612098,3.01753165 12.7761607,2.10575949 12.7537344,1.19460759 C12.7450131,0.840443038 12.8777016,0.718873418 13.214718,0.725075949 C13.8202262,0.736240506 14.4263574,0.749265823 15.0312426,0.724455696 C16.4011115,0.668632911 17.1006852,1.51589873 17.3486197,2.59265823 C17.5928164,3.65391139 17.6264557,4.74989873 17.1854066,5.79750633 C16.8284557,6.64477215 16.1899311,7.14035443 15.267341,7.19741772 C14.5758656,7.24021519 13.8800295,7.20486076 13.1854393,7.21540506 C12.8577672,7.21974684 12.7456361,7.06158228 12.7481279,6.7526962 C12.7562262,5.8111519 12.7512426,4.8708481 12.7512426,3.9293038 L12.7612098,3.9293038 Z" id="Fill-33"></path>
                                    <path d="M77.1984328,3.94685696 C77.1984328,3.03322405 77.2115148,2.12021139 77.1915803,1.20719873 C77.183482,0.834426582 77.3242689,0.716578481 77.6849574,0.721540506 C78.7495803,0.737046835 79.8160721,0.752553165 80.8800721,0.719059494 C81.4151869,0.701692405 81.3416787,1.02732532 81.3535148,1.35047722 C81.3659738,1.68231266 81.2899738,1.87273038 80.8838098,1.85288228 C80.2047934,1.81876835 79.5226623,1.84916076 78.8424,1.8379962 C78.4698754,1.83179367 78.3216131,1.96390759 78.3452852,2.36148987 C78.3957443,3.20503418 78.3758098,3.20751519 79.2367279,3.20937595 C79.7400721,3.21061646 80.2434164,3.21495823 80.7461377,3.20255316 C81.0358098,3.19511013 81.1311213,3.32412278 81.1398426,3.60013544 C81.1622689,4.34754051 81.1703672,4.34940127 80.3972852,4.3568443 C79.8646623,4.36242658 79.3314164,4.38103418 78.8000393,4.35250253 C78.437482,4.33389494 78.3241049,4.46786962 78.3527607,4.81148987 C78.3758098,5.08874304 78.3689574,5.37157848 78.3502689,5.65007215 C78.3297115,5.95585696 78.4462033,6.06936329 78.7589246,6.0613 C79.4834164,6.04331266 80.2091541,6.06378101 80.9336459,6.04765443 C81.3398098,6.03773038 81.5229574,6.16922405 81.5098754,6.60898354 C81.4980393,7.00904684 81.4444656,7.23667975 80.9535803,7.22179367 C79.8596787,7.19016076 78.7639082,7.20194557 77.6693836,7.22055316 C77.297482,7.2267557 77.1766295,7.09092025 77.183482,6.73055316 C77.2003016,5.80327468 77.1890885,4.8747557 77.1890885,3.94685696 L77.1984328,3.94685696 Z" id="Fill-35"></path>
                                    <path d="M2.5003377,4.59074177 C2.94512459,4.59074177 3.28400984,4.61183038 3.61666557,4.5770962 C3.70263279,4.56779241 3.85400984,4.35938734 3.83220656,4.28247595 C3.66463279,3.68765316 3.46092787,3.10275443 3.26905902,2.51413418 L3.15443607,2.50607089 C2.94574754,3.17160253 2.73705902,3.83651392 2.5003377,4.59074177 M5.35719016,7.22061519 C4.59220656,7.41599494 4.63269836,6.67541266 4.50997705,6.25798228 C4.37168197,5.7915519 4.15302623,5.67432405 3.72568197,5.71029873 C3.44722295,5.7332481 3.16440328,5.71712152 2.88345246,5.71650127 C2.1128623,5.71464051 2.09230492,5.70967848 1.90230492,6.45398228 C1.6643377,7.38932405 1.57463279,7.20076709 0.754206557,7.21937468 C0.474501639,7.22619747 0.431518033,7.05934937 0.508140984,6.83791899 C0.889386885,5.72890633 1.2768623,4.62237468 1.6568623,3.51336203 C1.9266,2.72377975 2.19571475,1.93481772 2.44925574,1.14027342 C2.53771475,0.864881013 2.67974754,0.716640506 2.98437049,0.721602532 C3.99355082,0.737729114 3.77863279,0.54296962 4.25020656,1.84550127 C4.8183377,3.41474177 5.34722295,4.99762785 5.88856721,6.57617215 C6.10971475,7.22061519 6.10473115,7.22247595 5.35719016,7.22061519" id="Fill-37"></path>
                                    <path d="M58.2370557,3.38478354 C58.2370557,4.04659367 58.259482,4.71026456 58.2326951,5.37083418 C58.1847279,6.54993544 57.4882689,7.21918861 56.3003016,7.28493544 C55.3789574,7.33641646 54.5242689,7.20058101 54.0757443,6.28384684 C53.8882361,5.90053038 53.7910557,5.43968228 53.7779738,5.01046709 C53.736859,3.71661899 53.7636459,2.42028987 53.749941,1.12520127 C53.7455803,0.684201266 54.0396131,0.725137975 54.3243016,0.727618987 C54.6164656,0.730720253 54.9329246,0.663732911 54.9298098,1.13946709 C54.9204656,2.4345557 54.9223344,3.73026456 54.9422689,5.02535316 C54.9541049,5.79880886 55.5166295,6.24601139 56.2660393,6.1201 C56.7824656,6.03326456 57.0534492,5.75228987 57.0609246,5.22693544 C57.0802361,3.91696076 57.0746295,2.60698608 57.0926951,1.29763165 C57.0951869,1.12147975 57.1487607,0.811353165 57.2266295,0.795226582 C57.5206623,0.735062025 57.8358754,0.754910127 58.1386295,0.786543038 C58.1872197,0.791505063 58.2432852,1.01169494 58.2451541,1.1326443 C58.2544984,1.88315063 58.2501377,2.63365696 58.2501377,3.38478354 L58.2370557,3.38478354 Z" id="Fill-39"></path>
                                    <path d="M92.5471311,2.51735949 L92.4318852,2.51239747 C92.220082,3.13761266 92.004541,3.76096709 91.8051967,4.38928354 L91.9322787,4.57597975 C92.3452951,4.59148608 92.7589344,4.58466329 93.2224098,4.58466329 C92.9738525,3.82299241 92.7601803,3.17048608 92.5471311,2.51735949 M94.7411639,7.21515696 C94.093918,7.21453671 94.044082,7.17173924 93.8902131,6.58808101 C93.8347705,6.37657468 93.7762131,6.15638481 93.6665738,5.97092911 C93.5980492,5.85432152 93.436082,5.72716962 93.3102459,5.72096709 C92.7801148,5.6930557 92.2462459,5.68809367 91.7167377,5.72406835 C91.5765738,5.73337215 91.4177213,5.89649873 91.3236557,6.02923291 C91.2252295,6.16754937 91.168541,6.34928354 91.1405082,6.51923291 C90.9997213,7.38138481 90.7330984,7.20585316 89.9886721,7.19716962 C89.914541,7.19592911 89.7569344,6.97077722 89.7818525,6.89634684 C90.2260164,5.54853671 90.6938525,4.20878987 91.1542131,2.86594177 C91.3392295,2.32632152 91.5553934,1.7941443 91.6893279,1.24211899 C91.8344754,0.64295443 92.2668033,0.734751899 92.6922787,0.721106329 C93.0959508,0.708701266 93.1999836,0.959283544 93.309,1.27561266 C93.7892951,2.67304304 94.2907705,4.06303038 94.7816557,5.45673924 C94.9467377,5.92565063 95.1386066,6.38897975 95.2532295,6.8702962 C95.3828033,7.41053671 94.9112295,7.13018228 94.7411639,7.21515696" id="Fill-41"></path>
                                    <path d="M37.5851148,5.30248228 C37.7277705,4.80379873 37.8448852,4.38698861 37.9669836,3.97141899 C38.2572787,2.98955823 38.545082,2.00583671 38.8453443,1.02583671 C38.9294426,0.75168481 39.5212459,0.587317722 39.8707213,0.751064557 C40.1890492,0.899305063 40.0065246,1.15484937 39.9429836,1.36201392 C39.5280984,2.7197481 39.1057377,4.07500127 38.6864918,5.43149494 C38.5344918,5.92087468 38.4024262,6.41831772 38.2211475,6.89653291 C38.1713115,7.02802658 37.9838033,7.11672278 37.8461311,7.20293797 C37.7925574,7.2370519 37.7016066,7.21224177 37.6274754,7.21348228 C36.8705902,7.22402658 36.8749508,7.21286203 36.657541,6.50329241 C36.1573115,4.86582405 35.6464918,3.23145696 35.1313115,1.59833038 C34.8615738,0.744241772 34.9070492,0.685317722 35.809082,0.726874684 C36.0725902,0.739279747 36.1978033,0.8379 36.2700656,1.09654557 C36.6463279,2.43567215 37.0406557,3.76921646 37.4312459,5.10462152 C37.442459,5.14121646 37.481082,5.17036835 37.5851148,5.30248228" id="Fill-43"></path>
                                    <path d="M66.0823738,4.51686962 C66.0823738,5.2667557 66.0699148,6.01726203 66.0861115,6.7671481 C66.0991934,7.33778101 65.6917836,7.18395823 65.3778164,7.21248987 C65.0358164,7.24288228 64.8968984,7.09464177 64.9000131,6.75288228 C64.913718,5.28226203 64.9000131,3.81102152 64.9280459,2.34102152 C64.9361443,1.93785696 64.7860131,1.80698354 64.4147344,1.83861646 C64.2527672,1.85164177 64.0908,1.8578443 63.9282098,1.86032532 C63.2928,1.87086962 63.2741115,1.83241392 63.2585377,1.19603418 C63.2498164,0.821401266 63.3949639,0.714717722 63.7550295,0.7203 C64.9218164,0.738287342 66.0892262,0.748211392 67.2553902,0.719679747 C67.7444066,0.707274684 67.7543738,0.962198734 67.7655869,1.32442658 C67.777423,1.70154051 67.6603082,1.8764519 67.2647344,1.84605949 C67.0006033,1.82559114 66.7333574,1.83737595 66.4673574,1.83861646 C66.1839148,1.83985696 66.0462426,1.9453 66.0568328,2.26659114 C66.0805049,3.01585696 66.0643082,3.76698354 66.0643082,4.51686962 L66.0823738,4.51686962 Z" id="Fill-45"></path>
                                    <path d="M59.4957279,3.97532658 C59.4957279,3.0480481 59.5088098,2.12076962 59.4894984,1.19349114 C59.4814,0.791567089 59.6832361,0.727681013 60.0146459,0.749389873 C60.3385803,0.771098734 60.6743508,0.702870886 60.6681213,1.22202278 C60.6506787,2.69388354 60.6762197,4.1657443 60.660023,5.63760506 C60.6562852,5.97316203 60.7590721,6.07302278 61.0886131,6.06061772 C61.7234,6.03828861 62.3600557,6.06930127 62.9954656,6.05007342 C63.5081541,6.03394684 63.4533344,6.3695038 63.4633016,6.70133924 C63.4738918,7.03503544 63.3922852,7.22483291 62.9985803,7.21863038 C61.963859,7.20064304 60.9285148,7.20436456 59.8937934,7.21925063 C59.5773344,7.22359241 59.4770393,7.09395949 59.4789082,6.80244051 C59.4863836,5.8596557 59.482023,4.91811139 59.482023,3.97532658 L59.4957279,3.97532658 Z" id="Fill-47"></path>
                                    <path d="M31.941741,4.49987468 C31.941741,3.74998861 31.9280361,2.99948228 31.9485934,2.25021646 C31.9566918,1.95373544 31.8321016,1.84643165 31.5667246,1.84581139 C31.2870197,1.84581139 31.0073148,1.85697595 30.7269869,1.86193797 C30.3501016,1.86814051 30.2080689,1.68702658 30.2261344,1.31053291 C30.2423311,0.978697468 30.2211508,0.710748101 30.7020689,0.721292405 C31.8831836,0.747343038 33.0655443,0.750444304 34.246659,0.717570886 C34.8191508,0.702064557 34.6970525,1.07545696 34.7244623,1.39240633 C34.753741,1.7292038 34.626659,1.85387468 34.2665934,1.84953291 C33.1041672,1.83402658 33.1041672,1.84891266 33.1060361,3.01002658 C33.107282,4.24557089 33.0804951,5.48111519 33.119741,6.71541899 C33.1378066,7.31024177 32.7659049,7.18619114 32.4245279,7.21782405 C32.0239705,7.25441899 31.9105934,7.08136835 31.9211836,6.70611519 C31.941741,5.97111519 31.9274131,5.23549494 31.9274131,4.49987468 L31.941741,4.49987468 Z" id="Fill-49"></path>
                                    <path d="M68.4029279,3.92080633 C68.4029279,3.0233 68.4203705,2.12455316 68.3954525,1.22766709 C68.3842393,0.836907595 68.5169279,0.694249367 68.9031574,0.722781013 C69.237059,0.746970886 69.5896492,0.642768354 69.5840426,1.19913544 C69.5641082,3.06857848 69.5740754,4.93802152 69.5840426,6.8068443 C69.5852885,7.11448987 69.4669279,7.21435063 69.1635508,7.21683165 C68.3960754,7.22365443 68.3985672,7.23605949 68.401682,6.48183165 C68.4047967,5.62774304 68.4023049,4.77427468 68.4029279,3.92080633" id="Fill-51"></path>
                                    <path d="M88.0602656,3.94263924 C88.0602656,3.01536076 88.0770852,2.08808228 88.0527902,1.16142405 C88.041577,0.73593038 88.2795443,0.711120253 88.5885279,0.726626582 C88.8862984,0.742753165 89.2307902,0.648474684 89.2282984,1.15646203 C89.2183311,3.02528481 89.2189541,4.89410759 89.2395115,6.76355063 C89.245118,7.25355063 88.9473475,7.20827215 88.6259049,7.21633544 C88.2982328,7.22501899 88.0434459,7.21075316 88.0515443,6.76851266 C88.0708557,5.8263481 88.0577738,4.8848038 88.0577738,3.94263924 L88.0602656,3.94263924 Z" id="Fill-53"></path>
                                    <path d="M20.6032885,7.30980759 C20.1940098,7.27879494 20.0494852,7.19444051 20.129223,6.82911139 C20.4780754,5.22637722 20.7914197,3.6162 21.1203377,2.00912405 C21.193223,1.64999747 21.2710918,1.29211139 21.3533213,0.935465823 C21.4224689,0.635883544 21.7246,0.477098734 22.0497803,0.585643038 C22.3780754,0.695427848 22.2105016,0.924921519 22.1662721,1.13022532 C21.9831246,1.97438987 21.8062066,2.82041519 21.6299115,3.66644051 C21.3969279,4.78599747 21.1776492,5.90803544 20.9222393,7.02201013 C20.8910918,7.15660506 20.6749279,7.24840253 20.6032885,7.30980759" id="Fill-55"></path>
                                    <path d="M42.3448328,6.98938481 C42.5672262,5.93123291 42.7622098,5.01201772 42.9540787,4.09280253 C43.152177,3.14381519 43.3465377,2.19482785 43.5433902,1.24522025 C43.570177,1.11620759 43.5627016,0.930131646 43.6436852,0.873068354 C43.8299475,0.742194937 44.0604393,0.673967089 44.2734885,0.580929114 C44.3308,0.753359494 44.4641115,0.941296203 44.4342098,1.0976 C44.229259,2.16443544 43.9912918,3.2244481 43.7620459,4.28632152 C43.570177,5.17576456 43.3689639,6.06396709 43.1858164,6.95527089 C43.1222754,7.26477722 42.9160787,7.34913165 42.6675213,7.27780253 C42.5254885,7.23624557 42.4220787,7.06195443 42.3448328,6.98938481" id="Fill-57"></path>
                                </g>
                            </g>
                        </g>
                    </g>
                    <text id="Partner-sieci" font-family="Helvetica" font-size="12" font-weight="normal" line-spacing="26">
                        <tspan x="0" y="11">Partner sieci</tspan>
                    </text>
                </g>
            </g>
        </g>
    </g>
</svg>