<?xml version="1.0" encoding="UTF-8" standalone="no"?>
<svg width="121px" height="49px" viewBox="0 0 121 49" version="1.1" xmlns="http://www.w3.org/2000/svg" xmlns:xlink="http://www.w3.org/1999/xlink">
    <!-- Generator: Sketch 47.1 (45422) - http://www.bohemiancoding.com/sketch -->
    <title>Group 12</title>
    <desc>Created with Sketch.</desc>
    <defs>
        <path d="M20.6335862,0 C15.9245172,0 13.8560172,3.23024096 13.3943793,5.01903614 L12.1792759,8.44698795 L9.89027586,8.44698795 L9.02456897,10.8889157 L9.02456897,11.0490361 L11.2570862,11.0490361 L8.47205172,18.9061446 L8.45648276,18.9513253 C8.44887931,18.9740964 7.71786207,21.2746988 6.23953448,23.4806024 C4.65258621,25.8462651 2.90524138,27.1113253 1.03081034,27.2501205 L0.111517241,29.8424096 C0.305224138,29.8572289 0.497844828,29.8677108 0.689741379,29.8677108 C3.57615517,29.8677108 6.22939655,28.1743373 8.40615517,24.9274699 C10.0227931,22.5155422 10.8425172,20.0461446 10.935931,19.7544578 L14.0218448,11.0486747 L16.7312069,11.0486747 L17.6533966,8.44626506 L14.9440345,8.44626506 L15.8727414,5.82759036 L15.9089483,5.70686747 C15.9846207,5.41518072 16.6848621,3.06975904 19.7023448,2.66674699 L20.6477069,0 L20.6335862,0 Z" id="path-1"></path>
        <linearGradient x1="50.0865787%" y1="99.9964511%" x2="50.0865787%" y2="0.00676364737%" id="linearGradient-3">
            <stop stop-color="#E94E1B" offset="0%"></stop>
            <stop stop-color="#E94E1B" offset="18.18%"></stop>
            <stop stop-color="#E9541B" offset="43.44%"></stop>
            <stop stop-color="#EC641A" offset="76.42%"></stop>
            <stop stop-color="#EE7219" offset="100%"></stop>
        </linearGradient>
        <polygon id="path-4" points="4.7932 0.16946875 0.362 10.93125 3.4168 10.93125 7.8484 0.16946875"></polygon>
        <linearGradient x1="50.1822428%" y1="101.325592%" x2="50.1822428%" y2="-1.79387946%" id="linearGradient-6">
            <stop stop-color="#E94E1B" offset="0%"></stop>
            <stop stop-color="#E94E1B" offset="18.18%"></stop>
            <stop stop-color="#E9541B" offset="43.44%"></stop>
            <stop stop-color="#EC641A" offset="76.42%"></stop>
            <stop stop-color="#EE7219" offset="100%"></stop>
        </linearGradient>
        <linearGradient x1="49.9993603%" y1="99.9987112%" x2="49.9993603%" y2="0.000736444813%" id="linearGradient-7">
            <stop stop-color="#E94E1B" offset="0%"></stop>
            <stop stop-color="#E94E1B" offset="18.18%"></stop>
            <stop stop-color="#E9541B" offset="56.18%"></stop>
            <stop stop-color="#EB621B" offset="100%"></stop>
        </linearGradient>
    </defs>
    <g id="Page-1" stroke="none" stroke-width="1" fill="none" fill-rule="evenodd">
        <g id="Desktop-HD-Copy-13" transform="translate(-819.000000, -3922.000000)">
            <g id="Group-11" transform="translate(0.000000, 3821.000000)">
                <g id="Group-10">
                    <g id="Group-12" transform="translate(818.000000, 101.000000)">
                        <g id="profisell24" transform="translate(2.000000, 0.000000)">
                            <g id="Group" transform="translate(0.000000, 8.000000)" fill-rule="nonzero" fill="#FFFFFF">
                                <path d="M8.06853875,1.65673529 C8.84740221,2.38091176 9.23719188,3.40408824 9.23719188,4.72626471 C9.23719188,6.11764706 8.84489668,7.19741176 8.06030627,7.96708824 C7.2760738,8.73676471 6.17363838,9.12102941 4.75478967,9.12102941 L2.52915867,9.12102941 L2.52915867,12.5411765 L0,12.5411765 L0,0.570852941 L4.75443173,0.570852941 C6.18473432,0.570852941 7.28895941,0.932941176 8.06853875,1.65673529 M6.26741697,6.34285294 C6.6461107,5.99491176 6.8358155,5.48485294 6.8358155,4.81229412 C6.8358155,4.15120588 6.6461107,3.65223529 6.26741697,3.31576471 C5.88836531,2.98005882 5.34108487,2.81144118 4.62629151,2.81144118 L2.52915867,2.81144118 L2.52915867,6.86476471 L4.62593358,6.86476471 C5.34108487,6.86438235 5.88836531,6.69041176 6.26741697,6.34285294" id="Shape"></path>
                                <path d="M19.0148635,12.5411765 L17.2373653,9.12102941 L16.9979077,9.12102941 L14.6606015,9.12102941 L14.6606015,12.5411765 L12.1310849,12.5411765 L12.1310849,0.570852941 L16.9982657,0.570852941 C18.4604244,0.570852941 19.5911365,0.933323529 20.3918339,1.65673529 C21.1918155,2.38129412 21.5923432,3.40408824 21.5923432,4.72626471 C21.5923432,5.65002941 21.4133764,6.43958824 21.0561587,7.09455882 C20.6978672,7.75067647 20.1777897,8.2485 19.4952103,8.59147059 L21.8804797,12.5411765 L19.0148635,12.5411765 Z M14.6606015,6.86438235 L16.9979077,6.86438235 C17.7019631,6.86438235 18.2435166,6.69041176 18.6222103,6.34285294 C19.0016199,5.99529412 19.1906089,5.48485294 19.1906089,4.81229412 C19.1906089,4.15120588 19.0016199,3.65223529 18.6222103,3.31538235 C18.2435166,2.97967647 17.7019631,2.81144118 16.9979077,2.81144118 L14.6606015,2.81144118 L14.6606015,6.86438235 Z" id="Shape"></path>
                                <path d="M33.2434391,1.18644118 C34.1611808,1.7225 34.8845646,2.46082353 35.4128745,3.40102941 C35.9415424,4.342 36.2049815,5.38811765 36.2049815,6.539 C36.2049815,7.69102941 35.9415424,8.73944118 35.4128745,9.68576471 C34.8845646,10.6324706 34.1615387,11.3765294 33.2434391,11.9171765 C32.3253395,12.4593529 31.3059446,12.7296765 30.1859705,12.7296765 C29.0656384,12.7296765 28.0458856,12.4593529 27.127786,11.9171765 C26.2104022,11.3765294 25.4873764,10.6347647 24.9587085,9.69417647 C24.4303985,8.75397059 24.1658856,7.7025 24.1658856,6.53938235 C24.1658856,5.3885 24.4303985,4.34238235 24.9587085,3.40141176 C25.4873764,2.46120588 26.2075387,1.72288235 27.1199114,1.18682353 C28.0322841,0.651147059 29.0538266,0.383117647 30.1856125,0.383117647 C31.3059446,0.382735294 32.3253395,0.650764706 33.2434391,1.18644118 M28.4886494,3.24694118 C27.9553284,3.58379412 27.5336827,4.04261765 27.2240701,4.62379412 C26.9144576,5.20497059 26.7601882,5.84388235 26.7601882,6.53861765 C26.7601882,7.24597059 26.917321,7.88985294 27.2323026,8.47179412 C27.5465683,9.05297059 27.9689299,9.51447059 28.496524,9.85629412 C29.0251919,10.1985 29.5989594,10.3697941 30.2174686,10.3697941 C30.8366937,10.3697941 31.4050923,10.2015588 31.9226642,9.86508824 C32.4405941,9.529 32.8515018,9.06711765 33.1553875,8.48020588 C33.4599889,7.89329412 33.6113948,7.24597059 33.6113948,6.53861765 C33.6113948,5.84388235 33.459631,5.20497059 33.1553875,4.62379412 C32.8511439,4.04223529 32.4405941,3.58379412 31.9226642,3.24694118 C31.4054502,2.91085294 30.8370517,2.743 30.2174686,2.743 C29.5989594,2.743 29.0226863,2.91085294 28.4886494,3.24694118" id="Shape"></path>
                                <path d="M61.239214,3.00758824 C60.5938598,2.78544118 60.0412103,2.67417647 59.5819815,2.67417647 C59.1445867,2.67417647 58.798107,2.75944118 58.5421845,2.93035294 C58.2859041,3.10126471 58.1577638,3.35247059 58.1577638,3.68282353 C58.1577638,4.10494118 58.3420996,4.42688235 58.7100554,4.64902941 C59.0780111,4.87155882 59.6471255,5.1025 60.414893,5.34147059 C61.1833764,5.58082353 61.815845,5.82017647 62.3122989,6.05991176 C62.8091107,6.29888235 63.2329041,6.65791176 63.5854686,7.137 C63.9369594,7.61570588 64.1134207,8.24811765 64.1134207,9.035 C64.1134207,9.79894118 63.9240738,10.4569706 63.5453801,11.0102353 C63.1656125,11.5635 62.645893,11.9821765 61.9844317,12.2670294 C61.3222546,12.5522647 60.5705941,12.6945 59.7273026,12.6945 C58.8202989,12.6945 57.9286863,12.5235882 57.0538967,12.1817647 C56.1787491,11.8395588 55.4206458,11.3723235 54.7806605,10.7789118 L55.7889594,8.57311765 C56.3537786,9.11988235 57.0048598,9.55920588 57.741845,9.88955882 C58.4781144,10.2202941 59.1503137,10.3854706 59.7591587,10.3854706 C60.2820996,10.3854706 60.689786,10.283 60.9836494,10.0776765 C61.276797,9.87235294 61.4239077,9.57602941 61.4239077,9.18832353 C61.4239077,8.88052941 61.3251181,8.62702941 61.1275387,8.42744118 C60.9299594,8.22823529 60.6794059,8.06573529 60.3748044,7.93994118 C60.0709188,7.81491176 59.6517786,7.67229412 59.1184576,7.51285294 C58.3503321,7.28497059 57.7228745,7.05708824 57.2371587,6.82882353 C56.7514428,6.60094118 56.3323026,6.25338235 55.9804539,5.78576471 C55.6282472,5.31852941 55.451786,4.69682353 55.451786,3.92141176 C55.451786,3.20373529 55.6329004,2.574 55.996203,2.03220588 C56.3587897,1.49079412 56.8663395,1.07479412 57.5174207,0.783823529 C58.167428,0.492852941 58.9266052,0.347558824 59.7910148,0.347558824 C60.5591402,0.347558824 61.3168856,0.467617647 62.0642509,0.706588235 C62.8112583,0.946323529 63.4730775,1.26520588 64.0493506,1.66476471 L63.0725498,3.90458824 C62.4959188,3.5295 61.8849262,3.23011765 61.239214,3.00758824" id="Shape"></path>
                                <polygon id="Shape" points="67.3387601 0.570852941 75.8708229 0.570852941 75.8708229 2.81105882 69.8679188 2.81105882 69.8679188 5.41029412 75.2630517 5.41029412 75.2630517 7.6505 69.8679188 7.6505 69.8679188 10.3017353 76.0469262 10.3017353 76.0469262 12.5411765 67.3387601 12.5411765"></polygon>
                                <polygon id="Shape" points="79.4283247 0.570852941 81.9578413 0.570852941 81.9578413 10.1816765 86.7602362 10.1816765 86.7602362 12.5411765 79.4283247 12.5411765"></polygon>
                                <polygon id="Shape" points="89.3599077 0.570852941 91.8894244 0.570852941 91.8894244 10.1816765 96.6918192 10.1816765 96.6918192 12.5411765 89.3599077 12.5411765"></polygon>
                            </g>
                            <g id="Clipped" transform="translate(30.000000, 0.000000)">
                                <mask id="mask-2" fill="white">
                                    <use xlink:href="#path-1"></use>
                                </mask>
                                <g id="SVGID_1_"></g>
                                <rect id="Rectangle-path" fill="url(#linearGradient-3)" fill-rule="nonzero" mask="url(#mask-2)" x="0.111517241" y="0" width="20.5365517" height="29.8680723"></rect>
                            </g>
                            <g id="Clipped" transform="translate(45.000000, 9.000000)">
                                <mask id="mask-5" fill="white">
                                    <use xlink:href="#path-4"></use>
                                </mask>
                                <g id="SVGID_4_"></g>
                                <rect id="Rectangle-path" fill="url(#linearGradient-6)" fill-rule="nonzero" mask="url(#mask-5)" x="0.362" y="0.16946875" width="7.4864" height="10.762125"></rect>
                            </g>
                            <path d="M106.533254,11.31644 C106.533254,10.8079934 106.182921,10.5142151 105.572393,10.5142151 C104.971718,10.5142151 104.250981,10.8986403 103.620746,11.5088587 L103,10.1755253 C103.86087,9.44087351 104.811878,9 105.802664,9 C107.203631,9 108.194781,9.80222497 108.194781,11.0453234 C108.194781,11.8928719 107.624396,12.7742068 106.853298,13.6782035 L105.22206,15.4973218 L108.444759,15.4973218 L108.444759,17 L103.180276,17 L103.180276,15.7688504 L105.772375,12.7515451 C106.223064,12.2430985 106.533254,11.7004532 106.533254,11.31644 Z M113.048718,9.07911001 L110.956938,13.7684384 L112.588541,13.7684384 L112.588541,12.0168933 L114.039869,12.0168933 L114.049722,13.7684384 L115,13.7684384 L115,15.2035435 L114.039504,15.2035435 L114.039504,17 L112.588176,17 L112.588176,15.2035435 L109.315482,15.2035435 L109.315482,13.960445 L111.54703,9.07869798 L113.048718,9.07869798 L113.048718,9.07911001 Z" id="Shape" fill="#FFFFFF" fill-rule="nonzero"></path>
                            <path d="M110.445322,3 C109.954166,3 109.471102,3.03903158 109,3.11378072 L109,5.18503176 C109.467935,5.0903986 109.951,5.03921569 110.445322,5.03921569 C114.638797,5.03921569 118.051911,8.61060481 118.051911,13.0001841 C118.051911,17.3897634 114.638797,20.9607843 110.445322,20.9607843 C109.951,20.9607843 109.467935,20.9096014 109,20.8149682 L109,22.8854828 C109.471454,22.960232 109.954166,23 110.445322,23 C115.722437,23 120,18.523152 120,13.0001841 C120,7.47684802 115.722437,3 110.445322,3 Z" id="Shape" fill="url(#linearGradient-7)" fill-rule="nonzero"></path>
                        </g>
                        <g id="Group-2" transform="translate(0.000000, 35.000000)">
                            <text id="Przejdź-do-sklepu" font-family="Helvetica" font-size="12" font-weight="normal" fill="#FEFEFE">
                                <tspan x="0" y="11">Przejdź do sklepu</tspan>
                            </text>
                            <path d="M101.838878,10.8563442 C101.64687,11.0478853 101.335684,11.0478853 101.143808,10.8563442 C100.952064,10.6649352 100.952064,10.3545066 101.143808,10.1630977 L103.813652,7.49988441 L101.14394,4.83680325 C100.952064,4.64526219 100.952064,4.33496568 101.14394,4.14355672 C101.335816,3.95214776 101.647002,3.95214776 101.838878,4.14355672 L104.856192,7.15339325 C104.952064,7.24916378 105,7.3745241 105,7.49988441 C105,7.62537683 104.951932,7.75086925 104.85606,7.84650768 L101.838878,10.8563442 Z" id="Fill-1" fill="#FFFFFF"></path>
                            <path d="M105.838878,10.8563442 C105.64687,11.0478853 105.335684,11.0478853 105.143808,10.8563442 C104.952064,10.6649352 104.952064,10.3545066 105.143808,10.1630977 L107.813652,7.49988441 L105.14394,4.83680325 C104.952064,4.64526219 104.952064,4.33496568 105.14394,4.14355672 C105.335816,3.95214776 105.647002,3.95214776 105.838878,4.14355672 L108.856192,7.15339325 C108.952064,7.24916378 109,7.3745241 109,7.49988441 C109,7.62537683 108.951932,7.75086925 108.85606,7.84650768 L105.838878,10.8563442 Z" id="Fill-1" fill="#FFFFFF"></path>
                        </g>
                    </g>
                </g>
            </g>
        </g>
    </g>
</svg>