<?xml version="1.0" encoding="UTF-8" standalone="no"?>
<svg width="160px" height="48px" viewBox="0 0 160 48" version="1.1" xmlns="http://www.w3.org/2000/svg" xmlns:xlink="http://www.w3.org/1999/xlink">
    <!-- Generator: Sketch 47.1 (45422) - http://www.bohemiancoding.com/sketch -->
    <title>profisell-logo</title>
    <desc>Created with Sketch.</desc>
    <defs>
        <linearGradient x1="49.8179936%" y1="81.8111075%" x2="49.8179936%" y2="-0.0244008715%" id="linearGradient-1">
            <stop stop-color="#F15A29" offset="0%"></stop>
            <stop stop-color="#F15F29" offset="43.44%"></stop>
            <stop stop-color="#F36D29" offset="76.42%"></stop>
            <stop stop-color="#F47929" offset="100%"></stop>
        </linearGradient>
        <linearGradient x1="50.1759615%" y1="101.193966%" x2="50.1759615%" y2="-1.90890805%" id="linearGradient-2">
            <stop stop-color="#F15A29" offset="18.18%"></stop>
            <stop stop-color="#F15F29" offset="43.44%"></stop>
            <stop stop-color="#F36D29" offset="76.42%"></stop>
            <stop stop-color="#F47929" offset="100%"></stop>
        </linearGradient>
    </defs>
    <g id="Symbols" stroke="none" stroke-width="1" fill="none" fill-rule="evenodd">
        <g id="Menu-1440" transform="translate(-31.000000, -21.000000)" fill-rule="nonzero">
            <g id="profisell-logo" transform="translate(31.000000, 21.000000)">
                <path d="M13.8271605,15.3770511 C15.1440329,16.5034406 15.8024691,18.1125684 15.8024691,20.1507969 C15.8024691,22.2963007 15.1440329,24.0127036 13.7722908,25.1927307 C12.4554184,26.3727577 10.5349794,27.0164089 8.12071331,27.0164089 L4.33470508,27.0164089 L4.33470508,32.3265306 L0,32.3265306 L0,13.7142857 L8.12071331,13.7142857 C10.6447188,13.7142857 12.5102881,14.2506616 13.8271605,15.3770511 Z M10.8093278,22.7254014 C11.4677641,22.1890255 11.7969822,21.3844616 11.7969822,20.3653473 C11.7969822,19.346233 11.4677641,18.5416691 10.8093278,18.0589308 C10.1508916,17.5225548 9.218107,17.2543669 8.01097394,17.2543669 L4.44444444,17.2543669 L4.44444444,23.5836029 L8.01097394,23.5836029 C9.218107,23.5299653 10.1508916,23.2617773 10.8093278,22.7254014 Z" id="Shape" fill="#042F5C"></path>
                <path d="M31.9385169,32.3265306 L29.0605838,27.0316678 L28.6943014,27.0316678 L24.8744992,27.0316678 L24.8744992,32.3265306 L20.7407407,32.3265306 L20.7407407,13.7142857 L28.6419753,13.7142857 C30.9966479,13.7142857 32.8280598,14.3026038 34.1362113,15.4257565 C35.4443627,16.5489092 36.0722754,18.1534131 36.0722754,20.1857847 C36.0722754,21.6298381 35.758319,22.8599578 35.1827324,23.8761436 C34.6071458,24.8923293 33.7699289,25.6945813 32.6710817,26.1759324 L36.5432099,32.3265306 L31.9385169,32.3265306 Z M24.8744992,23.5017593 L28.6943014,23.5017593 C29.8454746,23.5017593 30.7350176,23.234342 31.3106042,22.6995074 C31.9385169,22.1646728 32.2524732,21.3624208 32.2524732,20.346235 C32.2524732,19.3300493 31.9385169,18.5277973 31.3106042,18.0464462 C30.6826915,17.5116115 29.7931486,17.2441942 28.6943014,17.2441942 L24.8744992,17.2441942 L24.8744992,23.5017593 Z" id="Shape" fill="#042F5C"></path>
                <path d="M55.3878656,14.9585584 C56.8667063,15.7880734 58.0814683,16.876812 58.9265201,18.2766187 C59.7715719,19.6764254 60.2469136,21.2836109 60.2469136,22.9944858 C60.2469136,24.7053607 59.8243877,26.3125462 58.9265201,27.7123529 C58.0814683,29.1640043 56.8667063,30.2527429 55.3878656,31.082258 C53.9090249,31.9117731 52.2189212,32.3265306 50.3703704,32.3265306 C48.5218195,32.3265306 46.8845316,31.9117731 45.3528752,31.082258 C43.8740345,30.2527429 42.6592725,29.1640043 41.8142206,27.7123529 C40.9691688,26.3125462 40.4938272,24.7053607 40.4938272,22.9426411 C40.4938272,21.2317662 40.9163531,19.6245808 41.8142206,18.224774 C42.6592725,16.8249673 43.8740345,15.6843841 45.3528752,14.9067137 C46.8317159,14.0771986 48.5218195,13.7142857 50.3703704,13.7142857 C52.2189212,13.7142857 53.8562092,14.1290433 55.3878656,14.9585584 Z M47.5711362,18.06924 C46.6732686,18.5876869 45.986664,19.2616679 45.5113224,20.1430277 C44.983165,21.0243875 44.771902,21.957592 44.771902,23.0463305 C44.771902,24.1350691 45.0359807,25.0682735 45.5641381,25.9496333 C46.0922955,26.8309931 46.7789001,27.5049741 47.6239519,28.0234211 C48.4690038,28.541868 49.4196871,28.8010915 50.4231861,28.8010915 C51.4266852,28.8010915 52.3773685,28.541868 53.2224203,28.0234211 C54.0674721,27.5049741 54.7540767,26.8309931 55.2294184,25.9496333 C55.70476,25.0682735 55.9688387,24.0832244 55.9688387,23.0463305 C55.9688387,22.0094366 55.70476,21.0243875 55.2294184,20.1430277 C54.7540767,19.2616679 54.0674721,18.5876869 53.2224203,18.06924 C52.3773685,17.550793 51.4266852,17.2915696 50.4231861,17.2915696 C49.4196871,17.2915696 48.4690038,17.550793 47.5711362,18.06924 Z" id="Shape" fill="#042F5C"></path>
                <path d="M101.725001,17.8100165 C100.638921,17.4989483 99.7157524,17.2915696 98.9554962,17.2915696 C98.1952399,17.2915696 97.6521997,17.3952589 97.2177676,17.6544824 C96.7833355,17.9137059 96.5661194,18.2766187 96.5661194,18.7950657 C96.5661194,19.417202 96.8919435,19.9356489 97.4892877,20.2467171 C98.0866319,20.5577852 99.0641042,20.9206981 100.367401,21.2836109 C101.670697,21.6465238 102.702473,22.0094366 103.571338,22.3723495 C104.385898,22.7352624 105.146154,23.2537093 105.743498,23.979535 C106.340843,24.7053607 106.612363,25.6385652 106.612363,26.8309931 C106.612363,27.9715764 106.286539,28.9566255 105.63489,29.7861406 C104.983242,30.6156557 104.114378,31.2377921 103.028297,31.7043943 C101.887913,32.1191518 100.638921,32.3265306 99.2270162,32.3265306 C97.7065038,32.3265306 96.1859913,32.0673071 94.7197828,31.5488602 C93.2535743,31.0304133 91.9502779,30.3045876 90.8641975,29.4232278 L92.5476221,26.1051674 C93.5250944,26.9346825 94.6111747,27.6086635 95.8601672,28.0752658 C97.1091596,28.5937127 98.2495439,28.8010915 99.2813203,28.8010915 C100.150185,28.8010915 100.856137,28.6455574 101.344873,28.3344892 C101.833609,28.0234211 102.105129,27.5568188 102.105129,26.9865272 C102.105129,26.519925 101.942217,26.1570121 101.616393,25.8459439 C101.290569,25.5348758 100.856137,25.2756523 100.367401,25.1201182 C99.8786645,24.9127395 99.1727122,24.7053607 98.2495439,24.4979819 C96.9462475,24.1350691 95.9144712,23.8240009 95.0999109,23.4610881 C94.2853506,23.0981752 93.5793984,22.5797283 92.9820542,21.9057473 C92.38471,21.1799216 92.1131899,20.2467171 92.1131899,19.1061338 C92.1131899,18.0173953 92.439014,17.0841908 93.0363582,16.2546757 C93.6337024,15.4251606 94.5025667,14.8030243 95.5886471,14.3882667 C96.6747274,13.9735092 97.9780238,13.7142857 99.4442323,13.7142857 C100.747529,13.7142857 101.996521,13.8698198 103.299818,14.2327326 C104.54881,14.5956455 105.689194,15.0622477 106.666667,15.6843841 L105.037546,19.0542891 C103.842858,18.5876869 102.811081,18.1210846 101.725001,17.8100165 Z" id="Shape" fill="#042F5C"></path>
                <polygon id="Shape" fill="#042F5C" points="111.604938 13.7142857 126.09175 13.7142857 126.09175 17.1907108 115.923648 17.1907108 115.923648 21.2554539 125.053073 21.2554539 125.053073 24.731879 115.923648 24.731879 115.923648 28.8501056 126.419753 28.8501056 126.419753 32.3265306 111.659605 32.3265306 111.659605 13.7142857"></polygon>
                <polygon id="Shape" fill="#042F5C" points="131.410006 13.7142857 135.516569 13.7142857 135.516569 28.6361717 143.209877 28.6361717 143.209877 32.3265306 131.358025 32.3265306 131.358025 13.7142857"></polygon>
                <polygon id="Shape" fill="#042F5C" points="148.148148 13.7142857 152.254711 13.7142857 152.254711 28.6361717 160 28.6361717 160 32.3265306 148.148148 32.3265306 148.148148 13.7142857"></polygon>
                <path d="M76.1972163,9.1503268 C76.3041598,8.67973856 77.4805379,4.91503268 82.3999371,4.2875817 L83.9506173,0 C76.1972163,0 72.8284973,5.17647059 72.0798931,8.05228758 L70.101439,13.5424837 L66.3584179,13.5424837 L64.9146811,17.4640523 L64.9146811,17.7254902 L68.6042306,17.7254902 L64.0591334,30.379085 C64.0591334,30.4836601 62.8292836,34.1437908 60.4230558,37.6993464 C57.8029409,41.5163399 54.9689392,43.5555556 51.8675788,43.7647059 L50.3703704,47.9477124 C50.6912008,47.9477124 51.0120311,48 51.3328615,48 C56.0918456,48 60.4230558,45.2810458 64.0056617,40.0522876 C66.6792483,36.1830065 68.0160415,32.2091503 68.1764567,31.7385621 L73.2562711,17.7254902 L77.6944248,17.7254902 L79.1916332,13.5424837 L74.7534796,13.5424837 L76.2506881,9.35947712 L76.1972163,9.1503268 Z" id="Shape" fill="url(#linearGradient-1)"></path>
                <polygon id="Shape" fill="url(#linearGradient-2)" points="83.4615385 13.7142857 77.037037 32.3265306 81.4767331 32.3265306 87.9012346 13.7142857"></polygon>
            </g>
        </g>
    </g>
</svg>