<?xml version="1.0" encoding="utf-8"?>
<!-- Generator: Adobe Illustrator 16.0.0, SVG Export Plug-In . SVG Version: 6.00 Build 0)  -->
<!DOCTYPE svg PUBLIC "-//W3C//DTD SVG 1.1//EN" "http://www.w3.org/Graphics/SVG/1.1/DTD/svg11.dtd">
<svg version="1.1" id="Warstwa_1" xmlns="http://www.w3.org/2000/svg" xmlns:xlink="http://www.w3.org/1999/xlink" x="0px" y="0px"
	 width="511.999px" height="383.991px" viewBox="0 0 511.999 383.991" enable-background="new 0 0 511.999 383.991"
	 xml:space="preserve">
<g>
	<defs>
		<rect id="SVGID_1_" width="511.999" height="383.991"/>
	</defs>
	<clipPath id="SVGID_2_">
		<use xlink:href="#SVGID_1_"  overflow="visible"/>
	</clipPath>
	<path clip-path="url(#SVGID_2_)" fill="#CA9618" d="M197.482,140.192l-53.333-32c-4.992-3.008-11.584-1.408-14.635,3.648
		c-3.008,5.056-1.387,11.605,3.669,14.635l53.333,32c1.707,1.024,3.605,1.515,5.483,1.515c3.605,0,7.147-1.835,9.152-5.163
		C204.18,149.771,202.538,143.222,197.482,140.192"/>
	<path clip-path="url(#SVGID_2_)" fill="#CA9618" d="M261.482,118.859l-53.333-32c-4.992-3.029-11.584-1.408-14.635,3.648
		c-3.008,5.056-1.387,11.605,3.669,14.635l53.333,32c1.707,1.024,3.605,1.515,5.483,1.515c3.604,0,7.146-1.835,9.152-5.163
		C268.18,128.438,266.538,121.888,261.482,118.859"/>
	<path clip-path="url(#SVGID_2_)" fill="#CA9618" d="M325.482,97.526l-53.333-32c-4.992-3.029-11.563-1.408-14.636,3.648
		c-3.008,5.056-1.387,11.605,3.669,14.635l53.333,32c1.707,1.024,3.605,1.515,5.483,1.515c3.604,0,7.146-1.835,9.152-5.163
		C332.18,107.104,330.538,100.555,325.482,97.526"/>
	<path clip-path="url(#SVGID_2_)" fill="#CA9618" d="M389.482,76.192l-53.333-32c-4.992-3.008-11.605-1.408-14.636,3.648
		c-3.008,5.056-1.387,11.605,3.669,14.635l53.333,32c1.707,1.024,3.605,1.515,5.483,1.515c3.604,0,7.146-1.835,9.152-5.163
		C396.18,85.771,394.538,79.222,389.482,76.192"/>
	<path clip-path="url(#SVGID_2_)" fill="#CA9618" d="M511.743,94.987c-0.107-1.024-0.32-2.005-0.704-2.944
		c-0.213-0.533-0.448-1.003-0.747-1.493c-0.512-0.853-1.152-1.557-1.899-2.24c-0.299-0.277-0.427-0.661-0.768-0.896
		c-0.149-0.107-0.363-0.107-0.512-0.213c-0.192-0.128-0.299-0.32-0.513-0.448L357.268,1.419c-2.581-1.472-5.652-1.835-8.469-0.917
		L7.466,107.168c-0.469,0.128-0.832,0.469-1.28,0.683c-0.277,0.128-0.597,0.085-0.853,0.235c-0.213,0.128-0.32,0.384-0.533,0.533
		c-1.216,0.811-2.197,1.813-2.965,2.987c-0.128,0.213-0.32,0.341-0.448,0.555c-0.811,1.472-1.216,3.093-1.28,4.8
		c0,0.128-0.107,0.235-0.107,0.363v170.667c0,3.819,2.048,7.36,5.376,9.259l149.333,85.333c1.643,0.939,3.456,1.408,5.291,1.408
		c1.045,0,2.133-0.149,3.157-0.491L504.49,276.833c4.459-1.387,7.509-5.504,7.509-10.176V95.99
		C511.999,95.648,511.786,95.35,511.743,94.987 M149.332,354.935l-128-73.132v-146.09l128,73.13V354.935z M161.258,191.094
		L37.204,120.203l313.515-97.984L474.771,93.11L161.258,191.094z M490.666,258.807l-320,100.011V210.486l320-99.989V258.807z"/>
</g>
</svg>
