<?xml version="1.0" encoding="utf-8"?>
<!-- Generator: Adobe Illustrator 16.0.0, SVG Export Plug-In . SVG Version: 6.00 Build 0)  -->
<!DOCTYPE svg PUBLIC "-//W3C//DTD SVG 1.1//EN" "http://www.w3.org/Graphics/SVG/1.1/DTD/svg11.dtd">
<svg version="1.1" id="Warstwa_1" xmlns="http://www.w3.org/2000/svg" xmlns:xlink="http://www.w3.org/1999/xlink" x="0px" y="0px"
	 width="341.736px" height="512px" viewBox="0 0 341.736 512" enable-background="new 0 0 341.736 512" xml:space="preserve">
<g>
	<defs>
		<rect id="SVGID_1_" width="341.736" height="512"/>
	</defs>
	<clipPath id="SVGID_2_">
		<use xlink:href="#SVGID_1_"  overflow="visible"/>
	</clipPath>
	<path clip-path="url(#SVGID_2_)" fill="#CA9618" d="M340.681,155.307c-8.533-81.067-73.386-145.92-153.6-154.454
		c-5.12,0-10.24-0.853-16.213-0.853c-5.973,0-11.093,0.853-16.213,0.853C74.441,10.24,9.588,75.093,1.055,155.307
		C-4.918,209.92,14.708,263.68,53.962,301.227c21.333,20.48,34.987,44.373,40.107,67.413v100.693c0,5.12,3.413,8.533,8.533,8.533
		h12.8l15.36,20.479C137.588,506.88,146.975,512,158.068,512h25.6c11.093,0,21.333-5.12,27.307-13.653l15.36-20.479h12.8
		c5.12,0,8.533-3.413,8.533-8.533V368.64c4.267-23.04,18.772-46.933,40.107-67.413C327.028,262.827,346.655,209.92,340.681,155.307
		 M136.735,213.333h-17.067c-9.387,0-17.067-7.68-17.067-17.067c0-9.387,7.68-17.067,17.067-17.067
		c9.387,0,17.067,7.68,17.067,17.067V213.333z M187.935,358.4h-34.133v-128h34.133V358.4z M230.601,375.467v17.067h-25.6
		c-5.12,0-8.533,3.413-8.533,8.533s3.413,8.532,8.533,8.532h25.6v17.067h-51.199c-5.12,0-8.534,3.413-8.534,8.533
		s3.414,8.533,8.534,8.533h51.199V460.8h-8.532h-102.4h-8.533v-17.066h25.6c5.12,0,8.533-3.413,8.533-8.533
		s-3.413-8.533-8.533-8.533h-25.6V409.6h51.2c5.12,0,8.533-3.412,8.533-8.532s-3.413-8.533-8.533-8.533h-51.2v-17.067H230.601z
		 M197.321,488.107c-3.413,4.267-8.533,6.826-13.653,6.826h-25.6c-5.12,0-10.24-2.56-13.653-6.826l-7.68-10.24h68.267
		L197.321,488.107z M275.828,288.427c-21.333,21.333-36.693,45.228-43.521,69.974h-27.307v-128h17.067
		c18.772,0,34.133-15.36,34.133-34.133s-15.36-34.133-34.133-34.133c-18.773,0-34.134,15.36-34.134,34.133v17.067h-34.133v-17.067
		c0-18.773-15.36-34.133-34.133-34.133s-34.133,15.36-34.133,34.133s15.36,34.133,34.133,34.133h17.067v128h-27.308
		c-6.827-24.747-22.187-48.641-43.52-69.974c-35.84-34.133-52.907-81.92-47.787-131.413c8.533-72.533,66.56-130.56,139.093-139.093
		c4.267,0,8.533-0.853,13.653-0.853c5.121,0,9.387,0.853,13.653,0.853c72.533,8.533,131.413,66.56,139.094,139.093
		C328.735,206.507,311.668,254.293,275.828,288.427 M205.001,213.333v-17.067c0-9.387,7.68-17.067,17.067-17.067
		c9.387,0,17.066,7.68,17.066,17.067c0,9.387-7.68,17.067-17.066,17.067H205.001z"/>
</g>
</svg>
