<?xml version="1.0" encoding="utf-8"?>
<!-- Generator: Adobe Illustrator 16.0.0, SVG Export Plug-In . SVG Version: 6.00 Build 0)  -->
<!DOCTYPE svg PUBLIC "-//W3C//DTD SVG 1.1//EN" "http://www.w3.org/Graphics/SVG/1.1/DTD/svg11.dtd">
<svg version="1.1" id="Warstwa_1" xmlns="http://www.w3.org/2000/svg" xmlns:xlink="http://www.w3.org/1999/xlink" x="0px" y="0px"
	 width="480.008px" height="480.006px" viewBox="0 0 480.008 480.006" enable-background="new 0 0 480.008 480.006"
	 xml:space="preserve">
<g>
	<defs>
		<rect id="SVGID_1_" width="480.008" height="480.006"/>
	</defs>
	<clipPath id="SVGID_2_">
		<use xlink:href="#SVGID_1_"  overflow="visible"/>
	</clipPath>
	<path clip-path="url(#SVGID_2_)" fill="#CA9618" d="M477.344,210.046l-61.336-54.992V24.006c0-4.416-3.584-8-8-8h-88
		c-4.416,0-8,3.584-8,8v37.808L245.344,2.046c-3.04-2.728-7.64-2.728-10.68,0l-232,208c-2.472,2.216-3.32,5.72-2.136,8.816
		c1.192,3.104,4.16,5.144,7.48,5.144h32v216c0,22.056,17.944,40,40,40h80h160h80c22.057,0,40-17.944,40-40v-216h32
		c3.32,0,6.288-2.04,7.473-5.144C480.664,215.766,479.816,212.262,477.344,210.046 M328.008,32.006h72V140.71l-72-64.552V32.006z
		 M232.008,464.006h-64v-56h64V464.006z M232.008,392.006h-64v-64h64V392.006z M232.008,312.006h-64v-56h64V312.006z
		 M312.008,464.006h-64v-56h64V464.006z M312.008,392.006h-64v-64h64V392.006z M312.008,312.006h-64v-56h64V312.006z
		 M432.008,208.006c-4.416,0-8,3.584-8,8v224c0,13.232-10.768,24-24,24h-72v-216c0-4.416-3.584-8-8-8h-160c-4.416,0-8,3.584-8,8v216
		h-72c-13.232,0-24-10.768-24-24v-224c0-4.416-3.584-8-8-8H28.912L240.008,18.75l211.096,189.256H432.008z"/>
	<rect x="280.008" y="352.006" clip-path="url(#SVGID_2_)" fill="#CA9618" width="16" height="16"/>
	<path clip-path="url(#SVGID_2_)" fill="#CA9618" d="M240.008,72.006c-22.056,0-40,17.944-40,40v56c0,4.416,3.584,8,8,8h64
		c4.416,0,8-3.584,8-8v-56C280.008,89.95,262.064,72.006,240.008,72.006 M232.008,160.006h-16v-24h16V160.006z M232.008,120.006h-16
		v-8c0-10.416,6.712-19.216,16-22.528V120.006z M264.008,160.006h-16v-24h16V160.006z M264.008,120.006h-16V89.478
		c9.288,3.312,16,12.112,16,22.528V120.006z"/>
	<rect x="200.008" y="192.006" clip-path="url(#SVGID_2_)" fill="#CA9618" width="16" height="16"/>
	<rect x="232.008" y="192.006" clip-path="url(#SVGID_2_)" fill="#CA9618" width="16" height="16"/>
	<rect x="264.008" y="192.006" clip-path="url(#SVGID_2_)" fill="#CA9618" width="16" height="16"/>
</g>
</svg>
