<?xml version="1.0" encoding="utf-8"?>
<!-- Generator: Adobe Illustrator 16.0.0, SVG Export Plug-In . SVG Version: 6.00 Build 0)  -->
<!DOCTYPE svg PUBLIC "-//W3C//DTD SVG 1.1//EN" "http://www.w3.org/Graphics/SVG/1.1/DTD/svg11.dtd">
<svg version="1.1" id="Warstwa_1" xmlns="http://www.w3.org/2000/svg" xmlns:xlink="http://www.w3.org/1999/xlink" x="0px" y="0px"
	 width="396.851px" height="110.964px" viewBox="0 0 396.851 110.964" enable-background="new 0 0 396.851 110.964"
	 xml:space="preserve">
<g>
	<path fill="#C9961A" d="M51.569,35.387c-3.898,0.756-7.427,2.549-10.295,5.219c11.146,1.129,22.214,3.131,33.085,5.977
		C70.181,38.216,60.958,33.561,51.569,35.387z"/>
	<path fill="#C9961A" d="M39.548,26.339c-1.414-4.196-3.551-6.581-7.619-8.505c-2.066-0.979-3.786-2.545-5.083-4.033
		c0.465,2.304,1.268,4.538,2.516,5.113c0.092,0.041,0.177,0.098,0.254,0.161c0.22,0.179,5.333,4.455,3.992,10.175
		c-0.014,0.09-0.575,3.617,3.318,6.248c0.508,0.343,0.67,1.015,0.378,1.55c-0.293,0.54-0.948,0.763-1.509,0.524l-20.5-8.779
		l10.8,10.809c4.14,0.125,8.278,0.376,12.408,0.739l-0.162-0.147c3.404-3.709,7.821-6.177,12.776-7.137
		c11.122-2.164,22.023,3.843,26.18,14.3c4.409,1.222,8.782,2.579,13.111,4.081l12.017-4.555l-21.643,0.573
		c-0.618-0.017-1.144-0.442-1.21-1.057c-0.067-0.614,0.347-1.175,0.952-1.294c4.674-0.91,5.498-4.468,5.504-4.502
		c0.992-5.741,7.37-7.681,7.641-7.762c0.098-0.027,0.197-0.045,0.299-0.049c1.372-0.041,2.982-1.784,4.311-3.722
		c-1.774,0.862-3.968,1.634-6.254,1.727c-4.498,0.183-7.397,1.544-10.336,4.851c-2.519,2.834-4.31,2.971-5.937,2.871
		c-0.282-0.019-0.524-0.035-0.684-0.002c-0.432,0.086-0.872-0.079-1.148-0.418c-0.277-0.343-0.343-0.809-0.171-1.211l8.997-21.188
		L67.012,31.514c-0.433,0.434-1.123,0.468-1.596,0.081c-0.473-0.389-0.571-1.073-0.229-1.581c2.631-3.893,0.791-6.957,0.71-7.086
		c-3.35-4.752-0.208-10.631-0.073-10.879c0.049-0.088,0.109-0.171,0.179-0.246c0.943-1,0.852-3.373,0.422-5.684
		c-0.646,1.865-1.657,3.963-3.208,5.645c-3.055,3.308-4.144,6.318-3.886,10.734c0.22,3.787-0.953,5.154-2.172,6.228
		c-0.212,0.186-0.394,0.346-0.485,0.482c-0.246,0.363-0.675,0.558-1.109,0.515c-0.438-0.047-0.813-0.33-0.976-0.737L46.317,8.324
		l0.056,22.254c0.001,0.439-0.241,0.843-0.628,1.049c-0.387,0.207-0.857,0.184-1.221-0.062c-0.135-0.09-0.364-0.172-0.629-0.264
		C42.362,30.763,40.763,29.936,39.548,26.339z"/>
	<path fill="#D5A940" d="M22.675,39.539L9.27,26.121c-0.244-0.243-0.346-0.572-0.328-0.899c-2.966,4.57-5.283,9.615-6.82,15.017
		C8.952,39.667,15.813,39.441,22.675,39.539z"/>
	<path fill="#D5A940" d="M10.577,24.193l21.418,9.17c-1.098-2.401-0.732-4.473-0.707-4.605c0.927-3.955-2.473-7.221-3.084-7.77
		c-3.588-1.866-4.15-9.208-4.238-11.201c-5.642,3.879-10.508,8.776-14.363,14.44C9.905,24.084,10.254,24.054,10.577,24.193z"/>
	<path fill="#D5A940" d="M46.218,1.688l9.905,24.746c0.545-0.613,0.969-1.551,0.836-3.799c-0.294-5.072,1.013-8.69,4.512-12.481
		c3.057-3.31,3.682-8.881,3.688-8.937c0.014-0.125,0.051-0.243,0.099-0.353C62.09,0.297,58.837,0,55.528,0
		c-3.405,0-6.84,0.327-10.218,0.957C45.711,1.022,46.06,1.293,46.218,1.688z"/>
	<path fill="#D5A940" d="M32.944,15.688c4.663,2.207,7.227,5.072,8.854,9.894c0.718,2.134,1.462,2.841,2.197,3.207L43.93,2.133
		c-0.001-0.43,0.226-0.812,0.576-1.022C37.787,2.464,31.53,4.992,25.954,8.482c0.09,0.086,0.17,0.184,0.231,0.297
		C26.211,8.828,28.874,13.762,32.944,15.688z"/>
	<path fill="#D5A940" d="M67.87,21.611c0.093,0.141,1.212,1.938,1.094,4.577L85.398,9.672c0.224-0.223,0.517-0.33,0.815-0.336
		c-5.603-3.743-11.896-6.492-18.614-8.001c0.67,1.903,2.875,8.897,0.253,11.958C67.493,14.025,65.557,18.326,67.87,21.611z"/>
	<path fill="#D5A940" d="M94.224,35.157c-0.771,0.265-5.18,1.937-5.867,5.899c-0.035,0.16-0.488,2.133-2.327,3.887l23.332-0.618
		c0.156-0.007,0.307,0.03,0.453,0.088c-1.34-6.575-3.819-12.684-7.208-18.14C101.97,27.65,98.45,34.825,94.224,35.157z"/>
	<path fill="#D5A940" d="M76.635,36.164c0.821-0.045,1.783-0.407,3.282-2.092c3.375-3.801,6.856-5.437,12.014-5.646
		c4.519-0.186,8.878-3.687,8.921-3.722c0.172-0.142,0.377-0.211,0.587-0.238c-3.802-5.623-8.59-10.488-14.095-14.362
		c0.101,0.276,0.109,0.582-0.012,0.866L76.635,36.164z"/>
	<path fill="#C9961A" d="M19.909,61.549c0-0.309,0.12-0.605,0.335-0.825l2.771-2.855c-6.405-0.859-15.274-1.614-22.99-0.743
		c0.091,2.978,0.412,5.961,0.987,8.932c0.517,2.66,1.229,5.246,2.104,7.754c5.379-0.053,10.989,0.589,16.792,1.922V61.549z"/>
	<path fill="#D5A940" d="M49.891,110.689c5.35,0.535,10.811,0.287,16.145-0.744c14.546-2.822,27.123-11.143,35.412-23.423
		c3.197-4.737,5.599-9.845,7.194-15.167C86.144,77.834,65.874,91.385,49.891,110.689z"/>
	<path fill="#D5A940" d="M109.814,46.621l-15.976,6.054c2.7,0.987,5.388,2.012,8.05,3.108c3.008-0.459,6.031-0.82,9.046-1.078
		c-0.045-2.76-0.297-5.532-0.758-8.301C110.072,46.496,109.949,46.57,109.814,46.621z"/>
	<path fill="#C9961A" d="M24.042,55.613c0.307,0.044,0.565,0.207,0.748,0.426l4.049-4.168c0.016-0.02,0.039-0.023,0.058-0.039
		c0.081-0.077,0.171-0.141,0.271-0.188c0.037-0.019,0.069-0.037,0.107-0.051c0.115-0.042,0.235-0.069,0.361-0.075
		c0.015-0.002,0.028-0.006,0.042-0.006c0.003,0,0.008-0.002,0.011-0.002h26.867c0.321,0,0.628,0.129,0.852,0.361l8.955,9.223
		c0.215,0.221,0.336,0.518,0.336,0.826v4.34c9.576-4.348,19.587-7.571,29.905-9.574c0.255-0.05,0.515-0.09,0.77-0.139
		C66.881,44.641,33.831,39.826,1.488,42.664c-0.149,0.623-0.289,1.251-0.417,1.883C0.393,47.922,0.042,51.326,0,54.737
		C8.188,53.846,17.525,54.705,24.042,55.613z"/>
	<path fill="#D5A940" d="M23.382,100.197c-0.112,0.119-0.244,0.207-0.386,0.268c7.094,5.128,15.444,8.616,24.501,9.93
		c-0.028-0.301,0.057-0.611,0.264-0.864c16.66-20.265,37.954-34.371,61.608-40.855c0.929-3.786,1.446-7.666,1.55-11.585
		c-4.632,0.4-9.291,1.041-13.863,1.926C69.384,64.388,43.907,78.629,23.382,100.197z"/>
	<path fill="#C9961A" d="M37.407,84.193c-11.835-5.279-23.059-7.991-33.404-8.015c3.686,9.177,9.727,17.099,17.363,23.06
		c0.03-0.243,0.116-0.484,0.297-0.677C26.635,93.338,31.9,88.55,37.407,84.193z"/>
	<path fill="#C9961A" d="M22.282,62.031v14.282c4.935,1.282,10.002,3.046,15.177,5.302V62.402l-7.769-8.004L22.282,62.031z"/>
	<path fill="#C9961A" d="M64.327,67.377v-4.975l-8.271-8.52h-23.56l7.001,7.211c0.215,0.221,0.335,0.518,0.335,0.826v20.405
		C47.564,76.465,55.761,71.463,64.327,67.377z"/>
	<g>
		<g>
			<path fill="#3C3C3B" d="M156.016,60.266c0.42,0.414,0.834,0.634,1.241,0.66v0.807c-1.943-0.078-4.39-0.117-7.343-0.117
				c-3.071,0-5.328,0.039-6.771,0.117v-0.807c1.01-0.039,1.735-0.164,2.176-0.374c0.439-0.21,0.658-0.578,0.658-1.103
				c0-0.406-0.164-1.043-0.491-1.908l-2.401-6.615h-8.13l-0.689,1.811c-0.866,2.259-1.299,4.01-1.299,5.256
				c0,1.104,0.305,1.857,0.916,2.265c0.609,0.407,1.518,0.63,2.725,0.669v0.807c-2.007-0.078-3.765-0.117-5.274-0.117
				c-1.273,0-2.311,0.039-3.11,0.117v-0.807c0.656-0.105,1.281-0.519,1.879-1.24c0.597-0.721,1.204-1.883,1.822-3.484l8.956-23.012
				c0.577,0.053,1.285,0.078,2.127,0.078c0.839,0,1.541-0.025,2.105-0.078l9.763,25.157
				C155.216,59.214,155.596,59.854,156.016,60.266z M139.146,40.04l-3.878,10.079h7.54L139.146,40.04z"/>
			<path fill="#3C3C3B" d="M175.082,40.236c1.365,0,2.575,0.375,3.632,1.122c1.057,0.749,1.886,1.881,2.49,3.396
				c0.604,1.516,0.905,3.382,0.905,5.601c0,4.266-0.862,7.322-2.588,9.172c-1.726,1.852-3.994,2.777-6.801,2.777
				c-1.602,0-2.854-0.257-3.76-0.77v3.348c0,1.246,0.285,2.108,0.856,2.588c0.572,0.479,1.44,0.719,2.609,0.719v0.848
				c-0.42-0.014-1.389-0.047-2.904-0.1c-1.515-0.053-3.021-0.078-4.517-0.078c-1.089,0-2.212,0.025-3.367,0.078
				c-1.154,0.053-1.881,0.086-2.184,0.1v-0.848c0.564,0,1.011-0.086,1.338-0.256c0.328-0.17,0.564-0.466,0.709-0.886
				c0.144-0.421,0.215-1.011,0.215-1.771v-20.04c0-1.246-0.169-2.148-0.511-2.706s-0.926-0.837-1.752-0.837v-0.846
				c0.84,0.079,1.673,0.118,2.499,0.118c2.797,0,5.131-0.185,7.009-0.552v2.854C170.206,41.247,172.246,40.236,175.082,40.236z
				 M170.377,61.083c1.47,0,2.536-0.804,3.199-2.411c0.662-1.607,0.994-4.065,0.994-7.373c0-3.319-0.243-5.641-0.728-6.967
				c-0.486-1.326-1.142-1.988-1.97-1.988c-0.498,0-0.971,0.125-1.416,0.374c-0.447,0.249-0.808,0.593-1.083,1.032
				c-0.276,0.44-0.414,0.936-0.414,1.486v15.513C169.326,60.972,169.799,61.083,170.377,61.083z"/>
			<path fill="#3C3C3B" d="M195.983,42.059c-0.426-0.677-1.21-1.014-2.353-1.014c-0.34,0-0.705,0.064-1.091,0.197
				c-0.389,0.131-0.732,0.294-1.034,0.49c1.797,0.67,2.696,1.883,2.696,3.643c0,0.63-0.161,1.2-0.483,1.713
				c-0.321,0.512-0.776,0.918-1.367,1.22c-0.591,0.303-1.267,0.453-2.027,0.453c-0.656,0-1.233-0.153-1.731-0.462
				c-0.5-0.309-0.887-0.732-1.163-1.271s-0.414-1.134-0.414-1.792c0-0.812,0.228-1.531,0.679-2.154
				c0.454-0.623,1.06-1.139,1.822-1.546c1.692-0.866,3.845-1.3,6.457-1.3c1.535,0,2.834,0.148,3.898,0.443
				c1.062,0.295,1.955,0.824,2.677,1.585c0.523,0.552,0.876,1.251,1.052,2.097c0.179,0.847,0.267,2.031,0.267,3.553v10.787
				c0,0.644,0.047,1.094,0.138,1.35c0.092,0.254,0.25,0.383,0.472,0.383c0.211,0,0.404-0.05,0.582-0.148
				c0.176-0.098,0.403-0.245,0.68-0.442l0.393,0.69c-0.63,0.523-1.364,0.902-2.204,1.131c-0.84,0.23-1.851,0.345-3.032,0.345
				c-1.417,0-2.457-0.285-3.12-0.856c-0.663-0.571-1.007-1.303-1.034-2.195c-0.563,0.933-1.358,1.674-2.381,2.225
				c-1.023,0.551-2.151,0.827-3.385,0.827c-1.589,0-2.831-0.419-3.73-1.26c-0.899-0.841-1.349-1.962-1.349-3.366
				c0-1.378,0.413-2.525,1.24-3.445c0.827-0.918,2.119-1.666,3.878-2.244c1.43-0.512,2.49-0.915,3.178-1.211
				c0.69-0.295,1.267-0.648,1.733-1.062c0.465-0.414,0.698-0.902,0.698-1.467v-3.602C196.623,43.498,196.41,42.734,195.983,42.059z
				 M195.049,51.378c-1.313,1.274-1.97,2.789-1.97,4.548c0,1.903,0.684,2.854,2.048,2.854c0.563,0,1.062-0.224,1.495-0.67v-8.504
				C196.426,49.936,195.902,50.525,195.049,51.378z"/>
			<path fill="#3C3C3B" d="M224.456,40.236c1.312,0,2.257,0.404,2.836,1.211c0.576,0.807,0.865,1.762,0.865,2.865
				c0,1.207-0.338,2.168-1.013,2.883c-0.677,0.716-1.572,1.073-2.688,1.073c-1.168,0-2.06-0.259-2.677-0.778
				c-0.616-0.518-0.925-1.223-0.925-2.115c0-1.602,0.688-2.854,2.068-3.76c-0.488,0-0.921,0.092-1.302,0.275
				c-0.683,0.288-1.248,0.764-1.702,1.428c-0.452,0.662-0.68,1.387-0.68,2.175V57.58c0,0.853,0.118,1.519,0.355,1.998
				c0.235,0.479,0.604,0.816,1.103,1.014c0.498,0.197,1.168,0.295,2.007,0.295v0.846c-3.307-0.105-5.479-0.157-6.515-0.157
				c-0.998,0-3.149,0.052-6.457,0.157v-0.846c0.564,0,1.011-0.086,1.338-0.256c0.329-0.17,0.564-0.466,0.71-0.887
				c0.144-0.42,0.216-1.003,0.216-1.752V45.197c0-1.246-0.171-2.148-0.512-2.707c-0.342-0.557-0.925-0.836-1.752-0.836v-0.846
				c0.854,0.078,1.686,0.118,2.5,0.118c2.796,0,5.131-0.185,7.007-0.552v2.894C220.289,41.247,222.028,40.236,224.456,40.236z"/>
			<path fill="#3C3C3B" d="M245.278,40.848v0.807h-3.956v16.692c0,0.525,0.093,0.899,0.276,1.122
				c0.183,0.224,0.499,0.334,0.944,0.334c0.328,0,0.689-0.094,1.083-0.284s0.753-0.489,1.083-0.896l0.609,0.492
				c-1.233,2.125-3.143,3.189-5.728,3.189c-1.851,0-3.235-0.461-4.154-1.379c-0.551-0.551-0.918-1.246-1.103-2.086
				c-0.184-0.84-0.275-2.016-0.275-3.524V41.654h-3.052v-0.807h3.052v-4.803c1.457,0,2.769-0.142,3.938-0.425
				c1.166-0.281,2.277-0.731,3.326-1.347v6.574H245.278z"/>
			<path fill="#3C3C3B" d="M258.812,42.059c-0.429-0.677-1.213-1.014-2.354-1.014c-0.342,0-0.705,0.064-1.093,0.197
				c-0.387,0.131-0.731,0.294-1.033,0.49c1.798,0.67,2.697,1.883,2.697,3.643c0,0.63-0.161,1.2-0.482,1.713
				c-0.321,0.512-0.778,0.918-1.368,1.22c-0.589,0.303-1.266,0.453-2.026,0.453c-0.656,0-1.235-0.153-1.733-0.462
				s-0.885-0.732-1.161-1.271c-0.275-0.538-0.412-1.134-0.412-1.792c0-0.812,0.225-1.531,0.679-2.154
				c0.451-0.623,1.059-1.139,1.819-1.546c1.693-0.866,3.846-1.3,6.457-1.3c1.536,0,2.835,0.148,3.897,0.443
				c1.063,0.295,1.956,0.824,2.678,1.585c0.525,0.552,0.876,1.251,1.054,2.097c0.176,0.847,0.266,2.031,0.266,3.553v10.787
				c0,0.644,0.044,1.094,0.138,1.35c0.091,0.254,0.248,0.383,0.473,0.383c0.209,0,0.403-0.05,0.58-0.148
				c0.178-0.098,0.403-0.245,0.679-0.442l0.394,0.69c-0.629,0.523-1.365,0.902-2.204,1.131c-0.84,0.23-1.851,0.345-3.031,0.345
				c-1.419,0-2.458-0.285-3.121-0.856s-1.007-1.303-1.032-2.195c-0.565,0.933-1.358,1.674-2.382,2.225
				c-1.024,0.551-2.153,0.827-3.386,0.827c-1.588,0-2.833-0.419-3.731-1.26s-1.348-1.962-1.348-3.366
				c0-1.378,0.413-2.525,1.239-3.445c0.827-0.918,2.12-1.666,3.878-2.244c1.432-0.512,2.491-0.915,3.18-1.211
				c0.688-0.295,1.267-0.648,1.732-1.062s0.699-0.902,0.699-1.467v-3.602C259.45,43.498,259.236,42.734,258.812,42.059z
				 M257.875,51.378c-1.312,1.274-1.968,2.789-1.968,4.548c0,1.903,0.681,2.854,2.046,2.854c0.564,0,1.064-0.224,1.497-0.67v-8.504
				C259.253,49.936,258.727,50.525,257.875,51.378z"/>
			<path fill="#3C3C3B" d="M306.161,59.744c0.145,0.421,0.376,0.717,0.699,0.887c0.322,0.17,0.764,0.256,1.327,0.256v0.846
				c-2.886-0.105-4.763-0.157-5.63-0.157c-0.827,0-2.604,0.052-5.334,0.157v-0.846c0.382,0,0.672-0.086,0.876-0.256
				s0.351-0.463,0.442-0.876c0.093-0.413,0.139-1.001,0.139-1.763V44.883c0-0.865-0.157-1.506-0.473-1.919
				c-0.314-0.415-0.813-0.62-1.497-0.62c-0.458,0-0.903,0.137-1.337,0.414c-0.434,0.274-0.797,0.639-1.094,1.091
				c-0.295,0.453-0.475,0.942-0.54,1.468c0.039,0.512,0.059,1.096,0.059,1.751v10.925c0,0.762,0.06,1.35,0.178,1.763
				s0.309,0.706,0.57,0.876c0.261,0.17,0.636,0.256,1.121,0.256v0.846c-2.729-0.105-4.481-0.157-5.255-0.157
				c-0.866,0-2.638,0.052-5.315,0.157v-0.846c0.355,0,0.637-0.086,0.847-0.256c0.211-0.17,0.363-0.466,0.464-0.887
				c0.097-0.42,0.146-1.003,0.146-1.752V44.883c0-0.865-0.125-1.506-0.375-1.919c-0.248-0.415-0.647-0.62-1.199-0.62
				c-0.499,0-0.972,0.125-1.417,0.374c-0.447,0.249-0.809,0.593-1.084,1.032c-0.275,0.44-0.412,0.936-0.412,1.486v12.756
				c0,0.762,0.045,1.35,0.137,1.763s0.243,0.706,0.454,0.876c0.209,0.17,0.498,0.256,0.865,0.256v0.846
				c-2.467-0.105-4.107-0.157-4.921-0.157c-0.932,0-2.946,0.052-6.044,0.157v-0.846c0.564,0,1.011-0.086,1.34-0.256
				c0.325-0.17,0.562-0.466,0.707-0.887c0.145-0.42,0.217-1.003,0.217-1.752V45.197c0-1.246-0.17-2.148-0.512-2.707
				c-0.341-0.557-0.925-0.836-1.752-0.836v-0.846c0.839,0.078,1.673,0.118,2.501,0.118c2.794,0,5.13-0.185,7.008-0.552v2.894
				c1.154-2.021,3.155-3.032,6.003-3.032c2.152,0,3.674,0.539,4.566,1.615c0.406,0.484,0.696,1.115,0.867,1.889
				c0.694-1.285,1.602-2.19,2.716-2.716c1.115-0.524,2.447-0.788,3.996-0.788c2.138,0,3.654,0.539,4.548,1.615
				c0.406,0.484,0.705,1.139,0.896,1.957c0.19,0.821,0.285,1.908,0.285,3.259v10.925C305.944,58.741,306.016,59.324,306.161,59.744z
				"/>
			<path fill="#3C3C3B" d="M318.794,50.729c0,2.585,0.45,4.425,1.35,5.521s1.998,1.644,3.298,1.644c1.954,0,3.583-0.898,4.882-2.697
				l0.689,0.256c-0.382,1.195-0.933,2.307-1.655,3.336c-0.72,1.032-1.652,1.875-2.795,2.53c-1.141,0.655-2.467,0.985-3.976,0.985
				c-2.821,0-5.083-0.877-6.781-2.629c-1.699-1.752-2.549-4.544-2.549-8.377c0-2.492,0.445-4.566,1.338-6.22
				s2.116-2.874,3.672-3.661c1.555-0.787,3.341-1.182,5.363-1.182c5.079,0,7.619,3.012,7.619,9.036h-10.415
				C318.81,49.586,318.794,50.074,318.794,50.729z M322.899,43.239c-0.334-1.372-0.855-2.058-1.564-2.058
				c-0.734,0-1.326,0.578-1.771,1.732c-0.447,1.154-0.735,3.018-0.866,5.591h4.666C323.388,46.365,323.235,44.609,322.899,43.239z"
				/>
			<path fill="#3C3C3B" d="M348.334,40.236c2.138,0,3.653,0.539,4.547,1.615c0.405,0.484,0.704,1.139,0.895,1.957
				c0.189,0.821,0.285,1.908,0.285,3.259v10.925c0,0.749,0.073,1.332,0.218,1.752c0.144,0.421,0.376,0.717,0.697,0.887
				c0.322,0.17,0.765,0.256,1.33,0.256v0.846c-2.888-0.105-4.765-0.157-5.63-0.157c-0.933,0-2.843,0.052-5.729,0.157v-0.846
				c0.472,0,0.84-0.086,1.102-0.256c0.263-0.17,0.454-0.463,0.572-0.876c0.117-0.413,0.176-1.001,0.176-1.763V44.883
				c0-0.865-0.157-1.506-0.472-1.919c-0.315-0.415-0.813-0.62-1.495-0.62c-0.5,0-0.973,0.125-1.419,0.374s-0.807,0.593-1.082,1.032
				c-0.275,0.44-0.413,0.936-0.413,1.486v12.756c0,0.749,0.059,1.332,0.177,1.752c0.118,0.421,0.312,0.717,0.58,0.887
				c0.27,0.17,0.641,0.256,1.112,0.256v0.846c-2.729-0.105-4.507-0.157-5.333-0.157c-0.934,0-2.948,0.052-6.044,0.157v-0.846
				c0.563,0,1.011-0.086,1.337-0.256c0.328-0.17,0.565-0.466,0.709-0.887c0.145-0.42,0.218-1.003,0.218-1.752V45.197
				c0-1.246-0.171-2.148-0.513-2.707c-0.34-0.557-0.924-0.836-1.751-0.836v-0.846c0.853,0.078,1.685,0.118,2.501,0.118
				c2.795,0,5.13-0.185,7.007-0.552v2.894C343.136,41.247,345.274,40.236,348.334,40.236z"/>
			<path fill="#3C3C3B" d="M372.194,40.848v0.807h-3.957v16.692c0,0.525,0.092,0.899,0.274,1.122
				c0.185,0.224,0.499,0.334,0.946,0.334c0.328,0,0.688-0.094,1.082-0.284s0.756-0.489,1.082-0.896l0.612,0.492
				c-1.235,2.125-3.144,3.189-5.729,3.189c-1.851,0-3.234-0.461-4.153-1.379c-0.551-0.551-0.919-1.246-1.103-2.086
				s-0.275-2.016-0.275-3.524V41.654h-3.052v-0.807h3.052v-4.803c1.458,0,2.77-0.142,3.938-0.425
				c1.167-0.281,2.274-0.731,3.326-1.347v6.574H372.194z"/>
			<path fill="#3C3C3B" d="M393.76,40.966c1.521,0,2.552-0.052,3.091-0.157v0.846c-0.552,0.211-1.061,0.61-1.525,1.201
				c-0.466,0.59-0.91,1.496-1.33,2.716l-5.038,15.001l-1.694,4.861c-0.497,1.403-1.089,2.375-1.771,2.914
				c-0.827,0.643-2.081,0.963-3.76,0.963c-0.827,0-1.661-0.127-2.499-0.383c-0.841-0.256-1.546-0.666-2.117-1.23
				c-0.572-0.564-0.856-1.286-0.856-2.164c0-0.946,0.356-1.701,1.073-2.266c0.714-0.563,1.67-0.846,2.864-0.846
				c1.142,0,2.033,0.254,2.676,0.758c0.644,0.504,0.965,1.244,0.965,2.215c0,0.643-0.223,1.253-0.668,1.831
				c-0.447,0.577-1.097,1.003-1.95,1.278c0.264,0.053,0.716,0.08,1.359,0.08c1.85,0,3.129-1.077,3.839-3.229l0.216-0.65
				l-9.41-20.787c-0.406-0.918-0.805-1.525-1.189-1.821c-0.388-0.294-0.771-0.442-1.152-0.442v-0.846
				c2.139,0.157,4.331,0.236,6.575,0.236c1.744,0,3.693-0.079,5.846-0.236v0.846c-0.8,0-1.404,0.053-1.811,0.157
				c-0.407,0.105-0.61,0.354-0.61,0.749c0,0.197,0.053,0.406,0.157,0.629L390.02,55l1.672-5.157c0.513-1.521,0.77-2.899,0.77-4.134
				c0-1.26-0.273-2.233-0.818-2.923s-1.256-1.065-2.135-1.132v-0.846C390.519,40.914,391.936,40.966,393.76,40.966z"/>
		</g>
	</g>
	<g>
		<path fill="#3C3C3B" d="M129.137,89.434V77.217c0-0.194,0.095-0.352,0.283-0.476c0.186-0.122,0.416-0.184,0.688-0.184
			c0.271,0,0.498,0.062,0.678,0.187c0.182,0.125,0.272,0.284,0.272,0.48v0.707c0.232-0.419,0.577-0.772,1.038-1.06
			c0.458-0.288,0.979-0.431,1.561-0.431c0.969,0,1.793,0.375,2.473,1.125c0.679,0.75,1.017,1.647,1.017,2.695v1.784
			c0,1.009-0.343,1.903-1.026,2.685c-0.686,0.783-1.48,1.174-2.386,1.174c-0.556,0-1.07-0.15-1.542-0.451
			c-0.471-0.301-0.811-0.66-1.017-1.078v5.057c0,0.182-0.104,0.34-0.311,0.477c-0.206,0.137-0.452,0.203-0.736,0.203
			c-0.286,0-0.521-0.066-0.707-0.203C129.232,89.773,129.137,89.615,129.137,89.434z M131.174,82.482
			c0,0.283,0.197,0.62,0.591,1.012s0.851,0.588,1.367,0.588s0.976-0.209,1.377-0.627s0.601-0.889,0.601-1.415v-1.772
			c0-0.514-0.2-0.977-0.601-1.387s-0.873-0.617-1.416-0.617c-0.503,0-0.95,0.184-1.337,0.549c-0.388,0.367-0.582,0.852-0.582,1.455
			V82.482z"/>
		<path fill="#3C3C3B" d="M139.899,85.07v-7.854c0-0.194,0.094-0.352,0.282-0.476c0.187-0.122,0.423-0.184,0.708-0.184
			c0.259,0,0.478,0.062,0.66,0.187c0.181,0.125,0.271,0.284,0.271,0.48v0.863c0.22-0.458,0.552-0.847,0.999-1.166
			c0.446-0.32,0.934-0.48,1.463-0.48h0.622c0.206,0,0.388,0.088,0.542,0.266c0.155,0.176,0.234,0.387,0.234,0.635
			c0,0.25-0.079,0.465-0.234,0.648s-0.336,0.273-0.542,0.273h-0.622c-0.62,0-1.166,0.264-1.638,0.794
			c-0.472,0.528-0.707,1.212-0.707,2.05v3.965c0,0.168-0.104,0.322-0.311,0.464c-0.206,0.143-0.453,0.213-0.737,0.213
			s-0.521-0.07-0.708-0.213C139.993,85.393,139.899,85.238,139.899,85.07z"/>
		<path fill="#3C3C3B" d="M147.23,85.037c0-0.223,0.117-0.496,0.35-0.823l4.15-6.028h-3.684c-0.169,0-0.317-0.08-0.447-0.243
			c-0.13-0.162-0.193-0.355-0.193-0.58c0-0.224,0.058-0.415,0.175-0.57c0.116-0.156,0.271-0.234,0.466-0.234h5.604
			c0.193,0,0.359,0.06,0.494,0.178c0.137,0.119,0.204,0.29,0.204,0.515c0,0.274-0.103,0.556-0.311,0.845l-4.169,6.025h4.111
			c0.181,0,0.336,0.079,0.466,0.233c0.129,0.156,0.194,0.354,0.194,0.59c0,0.226-0.062,0.415-0.185,0.572
			c-0.123,0.156-0.28,0.233-0.475,0.233h-6.03c-0.233,0-0.41-0.071-0.533-0.216C147.292,85.39,147.23,85.225,147.23,85.037z"/>
		<path fill="#3C3C3B" d="M156.189,89.24c0-0.583,0.188-0.873,0.562-0.873c0.582,0,1.158-0.278,1.726-0.834
			c0.57-0.556,0.918-1.338,1.048-2.346l-3.257-7.525c-0.052-0.063-0.078-0.154-0.078-0.271c0-0.245,0.148-0.468,0.446-0.668
			c0.298-0.201,0.595-0.302,0.891-0.302c0.325,0,0.531,0.124,0.621,0.368l2.442,6.303l2.095-6.303
			c0.116-0.244,0.311-0.368,0.582-0.368c0.271,0,0.565,0.101,0.883,0.302c0.316,0.2,0.475,0.436,0.475,0.708
			c0,0.115-0.014,0.193-0.04,0.231l-2.869,7.583l-0.331,0.872c-0.077,0.182-0.198,0.459-0.358,0.834
			c-0.163,0.375-0.302,0.66-0.417,0.854l-0.466,0.717c-0.194,0.299-0.388,0.521-0.582,0.669c-0.195,0.149-0.415,0.305-0.659,0.466
			c-0.247,0.162-0.518,0.278-0.814,0.35c-0.298,0.071-0.614,0.105-0.95,0.105C156.505,90.111,156.189,89.821,156.189,89.24z"/>
		<path fill="#3C3C3B" d="M170.869,77.333c0-0.233,0.141-0.434,0.426-0.602c0.286-0.167,0.575-0.251,0.873-0.251
			c0.323,0,0.53,0.123,0.62,0.368l2.153,6.03l1.647-5.352c0.09-0.297,0.331-0.447,0.718-0.447c0.387,0,0.627,0.15,0.718,0.447
			l1.629,5.391l2.171-6.069c0.078-0.245,0.278-0.368,0.602-0.368c0.285,0,0.572,0.084,0.863,0.251
			c0.291,0.168,0.437,0.376,0.437,0.622c0,0.103-0.026,0.205-0.079,0.309l-3.005,7.874c-0.103,0.271-0.375,0.407-0.813,0.407
			c-0.44,0-0.719-0.129-0.834-0.388l-1.688-5.003l-1.668,4.943c-0.116,0.299-0.406,0.447-0.871,0.447
			c-0.427,0-0.699-0.148-0.814-0.447l-3.006-7.834C170.894,77.508,170.869,77.398,170.869,77.333z"/>
		<path fill="#3C3C3B" d="M185.8,73.184c0-0.298,0.116-0.549,0.349-0.756s0.511-0.311,0.833-0.311c0.325,0,0.603,0.104,0.834,0.311
			c0.233,0.207,0.35,0.458,0.35,0.756c0,0.283-0.117,0.533-0.35,0.746c-0.232,0.213-0.51,0.32-0.834,0.32
			c-0.322,0-0.6-0.107-0.833-0.32S185.8,73.467,185.8,73.184z M185.974,85.07v-7.854c0-0.194,0.093-0.352,0.282-0.476
			c0.186-0.122,0.429-0.184,0.726-0.184c0.298,0,0.544,0.062,0.737,0.184c0.195,0.124,0.292,0.281,0.292,0.476v7.854
			c0,0.168-0.101,0.322-0.301,0.466c-0.201,0.143-0.442,0.213-0.728,0.213c-0.284,0-0.522-0.07-0.716-0.213
			C186.071,85.393,185.974,85.238,185.974,85.07z"/>
		<path fill="#3C3C3B" d="M191.114,85.07v-7.854c0-0.194,0.093-0.352,0.28-0.476c0.188-0.122,0.43-0.184,0.728-0.184
			c0.257,0,0.475,0.062,0.649,0.187c0.175,0.125,0.261,0.284,0.261,0.48v0.707c0.207-0.419,0.54-0.772,1-1.06
			c0.458-0.288,0.992-0.431,1.599-0.431c0.919,0,1.71,0.375,2.377,1.125c0.666,0.75,0.998,1.647,0.998,2.695v4.809
			c0,0.207-0.1,0.372-0.299,0.494c-0.202,0.123-0.444,0.185-0.728,0.185c-0.26,0-0.491-0.062-0.699-0.183
			c-0.208-0.123-0.31-0.287-0.31-0.494v-4.797c0-0.516-0.195-0.979-0.582-1.393c-0.389-0.412-0.848-0.619-1.377-0.619
			c-0.492,0-0.924,0.184-1.299,0.552c-0.375,0.367-0.563,0.854-0.563,1.46v4.797c0,0.168-0.103,0.322-0.309,0.464
			c-0.208,0.143-0.447,0.213-0.718,0.213c-0.285,0-0.523-0.07-0.718-0.213C191.21,85.393,191.114,85.238,191.114,85.07z"/>
		<path fill="#3C3C3B" d="M202.03,85.07v-7.854c0-0.194,0.094-0.352,0.282-0.476c0.187-0.122,0.428-0.184,0.727-0.184
			c0.259,0,0.475,0.062,0.649,0.187c0.174,0.125,0.262,0.284,0.262,0.48v0.707c0.206-0.419,0.54-0.772,0.999-1.06
			c0.46-0.288,0.993-0.431,1.6-0.431c0.918,0,1.711,0.375,2.376,1.125s0.998,1.647,0.998,2.695v4.809c0,0.207-0.1,0.372-0.3,0.494
			c-0.2,0.123-0.444,0.185-0.728,0.185c-0.259,0-0.491-0.062-0.699-0.183c-0.206-0.123-0.31-0.287-0.31-0.494v-4.797
			c0-0.516-0.193-0.979-0.581-1.393c-0.389-0.412-0.848-0.619-1.379-0.619c-0.49,0-0.923,0.184-1.297,0.552
			c-0.375,0.367-0.563,0.854-0.563,1.46v4.797c0,0.168-0.104,0.322-0.311,0.464c-0.206,0.143-0.444,0.213-0.717,0.213
			c-0.284,0-0.523-0.07-0.718-0.213C202.126,85.393,202.03,85.238,202.03,85.07z"/>
		<path fill="#3C3C3B" d="M212.773,73.184c0-0.298,0.116-0.549,0.349-0.756c0.233-0.207,0.512-0.311,0.834-0.311
			c0.323,0,0.602,0.104,0.834,0.311s0.35,0.458,0.35,0.756c0,0.283-0.117,0.533-0.35,0.746s-0.511,0.32-0.834,0.32
			c-0.322,0-0.601-0.107-0.834-0.32C212.89,73.717,212.773,73.467,212.773,73.184z M212.947,85.07v-7.854
			c0-0.194,0.094-0.352,0.282-0.476c0.187-0.122,0.429-0.184,0.727-0.184c0.297,0,0.545,0.062,0.736,0.184
			c0.194,0.124,0.292,0.281,0.292,0.476v7.854c0,0.168-0.101,0.322-0.302,0.466c-0.2,0.143-0.441,0.213-0.727,0.213
			s-0.523-0.07-0.717-0.213C213.045,85.393,212.947,85.238,212.947,85.07z"/>
		<path fill="#3C3C3B" d="M217.777,82.046v-1.747c0-1.148,0.336-2.08,1.008-2.791s1.673-1.066,3.006-1.066
			c0.84,0,1.545,0.146,2.113,0.437c0.568,0.29,0.853,0.618,0.853,0.979c0,0.22-0.081,0.439-0.241,0.658
			c-0.161,0.221-0.353,0.33-0.571,0.33c-0.064,0-0.295-0.097-0.689-0.291c-0.394-0.193-0.831-0.291-1.309-0.291
			c-1.423,0-2.133,0.682-2.133,2.042v1.734c0,1.36,0.717,2.042,2.15,2.042c0.492,0,0.935-0.104,1.33-0.311
			c0.395-0.207,0.629-0.311,0.707-0.311c0.258,0,0.469,0.104,0.632,0.311c0.16,0.207,0.241,0.426,0.241,0.659
			c0,0.361-0.297,0.698-0.892,1.009c-0.595,0.31-1.318,0.465-2.173,0.465c-1.345,0-2.353-0.352-3.024-1.057
			C218.113,84.144,217.777,83.209,217.777,82.046z"/>
		<path fill="#3C3C3B" d="M226.444,89.24c0-0.583,0.188-0.873,0.563-0.873c0.581,0,1.156-0.278,1.726-0.834
			c0.568-0.556,0.918-1.338,1.047-2.346l-3.258-7.525c-0.052-0.063-0.078-0.154-0.078-0.271c0-0.245,0.149-0.468,0.447-0.668
			c0.297-0.201,0.594-0.302,0.892-0.302c0.323,0,0.529,0.124,0.619,0.368l2.444,6.303l2.094-6.303
			c0.117-0.244,0.312-0.368,0.582-0.368c0.271,0,0.565,0.101,0.882,0.302c0.318,0.2,0.476,0.436,0.476,0.708
			c0,0.115-0.013,0.193-0.039,0.231l-2.869,7.583l-0.329,0.872c-0.078,0.182-0.198,0.459-0.358,0.834
			c-0.163,0.375-0.302,0.66-0.418,0.854l-0.465,0.717c-0.194,0.299-0.388,0.521-0.583,0.669c-0.193,0.149-0.413,0.305-0.658,0.466
			c-0.246,0.162-0.518,0.278-0.815,0.35c-0.297,0.071-0.614,0.105-0.95,0.105C226.762,90.111,226.444,89.821,226.444,89.24z"/>
	</g>
</g>
</svg>
