<?xml version="1.0" encoding="utf-8"?>
<!-- Generator: Adobe Illustrator 16.0.0, SVG Export Plug-In . SVG Version: 6.00 Build 0)  -->
<!DOCTYPE svg PUBLIC "-//W3C//DTD SVG 1.1//EN" "http://www.w3.org/Graphics/SVG/1.1/DTD/svg11.dtd">
<svg version="1.1" id="Warstwa_1" xmlns="http://www.w3.org/2000/svg" xmlns:xlink="http://www.w3.org/1999/xlink" x="0px" y="0px"
	 width="512px" height="512px" viewBox="0 0 512 512" enable-background="new 0 0 512 512" xml:space="preserve">
<g>
	<defs>
		<rect id="SVGID_1_" width="512" height="512"/>
	</defs>
	<clipPath id="SVGID_2_">
		<use xlink:href="#SVGID_1_"  overflow="visible"/>
	</clipPath>
	<path clip-path="url(#SVGID_2_)" fill="#CA9618" d="M501.801,0H10.199C4.567,0,0,4.566,0,10.199v491.602
		C0,507.434,4.567,512,10.199,512h491.602c5.632,0,10.199-4.566,10.199-10.199V10.199C512,4.566,507.433,0,501.801,0 M20.398,20.398
		H246.14V124.43H20.398V20.398z M367.511,245.801H144.489V144.829h223.022V245.801z M20.398,144.829H124.09v100.972H20.398V144.829z
		 M20.398,266.199H246.14v101.651H20.398V266.199z M124.091,491.602H20.398V388.25H124.09L124.091,491.602L124.091,491.602z
		 M367.511,491.602H144.489V388.25h223.022V491.602z M491.602,491.602H387.909V388.25h33.317c5.633,0,10.199-4.566,10.199-10.199
		s-4.566-10.199-10.199-10.199H266.539V266.199h225.062V491.602z M491.602,245.801H387.909V144.829h103.691L491.602,245.801
		L491.602,245.801z M491.602,124.43H266.539V20.398h225.062V124.43z"/>
	<path clip-path="url(#SVGID_2_)" fill="#CA9618" d="M464.064,367.852h-6.12c-5.633,0-10.199,4.566-10.199,10.199
		s4.566,10.199,10.199,10.199h6.12c5.632,0,10.198-4.566,10.198-10.199S469.696,367.852,464.064,367.852"/>
</g>
</svg>
