<?xml version="1.0" encoding="utf-8"?>
<!-- Generator: Adobe Illustrator 16.0.0, SVG Export Plug-In . SVG Version: 6.00 Build 0)  -->
<!DOCTYPE svg PUBLIC "-//W3C//DTD SVG 1.1//EN" "http://www.w3.org/Graphics/SVG/1.1/DTD/svg11.dtd">
<svg version="1.1" id="Capa_1" xmlns="http://www.w3.org/2000/svg" xmlns:xlink="http://www.w3.org/1999/xlink" x="0px" y="0px"
	 width="595.279px" height="841.891px" viewBox="0 0 595.279 841.891" enable-background="new 0 0 595.279 841.891"
	 xml:space="preserve">
<g transform="translate(1 1)">
	<g>
		<path fill="#CA9618" d="M569.07,339.103c-9.713-9.661-25.418-9.618-35.078,0.094L235.823,638.978
			c-38.684,38.684-101.512,38.684-140.268-0.053c-38.727-38.746-38.727-101.574,0.005-140.306l306.994-308.606
			c24.151-24.15,63.416-24.15,87.637,0.052c24.214,24.214,24.214,63.475-0.006,87.695L235.87,532.074
			c-0.017,0.017-0.03,0.035-0.047,0.051c-9.688,9.636-25.347,9.623-35.016-0.046c-9.685-9.686-9.685-25.383,0-35.068
			l122.756-122.781c9.686-9.688,9.685-25.393-0.003-35.078s-25.393-9.684-35.078,0.003l-122.755,122.78
			c-29.057,29.057-29.057,76.163,0.002,105.222c29.059,29.058,76.165,29.058,105.225,0c0.033-0.034,0.061-0.07,0.093-0.104
			l254.216-254.216c43.594-43.594,43.594-114.264,0-157.858c-43.6-43.568-114.265-43.568-157.833,0L60.436,463.588
			C2.379,521.645,2.379,615.875,60.478,674.003c58.138,58.107,152.369,58.107,210.472,0.005l298.216-299.827
			C578.824,364.468,578.781,348.763,569.07,339.103z"/>
	</g>
</g>
</svg>
