<?xml version="1.0" encoding="utf-8"?>
<!-- Generator: Adobe Illustrator 16.0.0, SVG Export Plug-In . SVG Version: 6.00 Build 0)  -->
<!DOCTYPE svg PUBLIC "-//W3C//DTD SVG 1.1//EN" "http://www.w3.org/Graphics/SVG/1.1/DTD/svg11.dtd">
<svg version="1.1" id="Warstwa_1" xmlns="http://www.w3.org/2000/svg" xmlns:xlink="http://www.w3.org/1999/xlink" x="0px" y="0px"
	 width="50.037px" height="60px" viewBox="0 0 50.037 60" enable-background="new 0 0 50.037 60" xml:space="preserve">
<g>
	<defs>
		<rect id="SVGID_1_" width="50.037" height="60"/>
	</defs>
	<clipPath id="SVGID_2_">
		<use xlink:href="#SVGID_1_"  overflow="visible"/>
	</clipPath>
	<path clip-path="url(#SVGID_2_)" fill="#CA9618" d="M50.037,6.5h-0.062C49.36,3.223,42.759,0,32.037,0
		c-10.722,0-17.324,3.223-17.94,6.5h-0.061c0,0.096,0.021,0.187,0.027,0.281C14.057,6.854,14.037,6.927,14.037,7v8.435l-2.746-2.747
		c-0.018-0.018-0.042-0.033-0.062-0.05c-0.02-0.021-0.036-0.046-0.057-0.067l-0.012,0.012c-1.265-1.01-5.116-1.006-7.831,1.71
		c-2.666,2.666-4.015,7.678-2.98,9.102L0.33,23.414c0.024,0.024,0.054,0.04,0.079,0.064c0.014,0.016,0.024,0.039,0.039,0.054
		L14.036,37.12V53.5c0,4.009,6.897,6.5,18,6.5c11.103,0,18-2.491,18-6.5V7c0-0.073-0.021-0.146-0.027-0.219
		C50.016,6.687,50.037,6.596,50.037,6.5 M32.037,2C42.818,2,47.625,5.286,48,6.81C47.624,9.367,42.602,12,32.037,12
		C21.472,12,16.45,9.367,16.074,6.81C16.449,5.286,21.255,2,32.037,2 M4.744,15.707c2.093-2.092,4.559-1.835,5.069-1.633
		c0.314,0.403,0.325,1.138,0.001,2.066c-0.415,1.191-1.32,2.542-2.484,3.706c-2.204,2.204-4.376,2.86-5.349,2.304
		C1.926,21.193,2.649,17.802,4.744,15.707 M43.037,56.853V52c0-0.552-0.448-1-1-1c-0.553,0-1,0.448-1,1v5
		c0,0.103,0.029,0.197,0.059,0.291c-1.176,0.219-2.533,0.392-4.059,0.515V49c0-0.552-0.448-1-1-1c-0.553,0-1,0.448-1,1v8.929
		c-0.64,0.028-1.307,0.047-2,0.058V56c0-0.552-0.448-1-1-1c-0.553,0-1,0.448-1,1v1.986c-1.058-0.016-2.069-0.045-3-0.103V51
		c0-0.552-0.448-1-1-1c-0.553,0-1,0.448-1,1v6.721c-2-0.203-3.648-0.506-5-0.868V44c0-0.552-0.448-1-1-1c-0.552,0-1,0.448-1,1
		v12.193c-2.093-0.855-3-1.865-3-2.693V36.705c0-0.265-0.105-0.521-0.293-0.707L3.957,24.211c1.512-0.358,3.194-1.358,4.787-2.951
		c1.39-1.39,2.44-2.974,2.958-4.461c0.08-0.229,0.145-0.453,0.198-0.673l2.43,2.43c0.286,0.286,0.715,0.371,1.09,0.217
		c0.374-0.155,0.617-0.52,0.617-0.924v-7.514c0.784,0.65,1.793,1.222,3,1.711V20c0,0.552,0.448,1,1,1c0.552,0,1-0.448,1-1v-7.28
		c0.92,0.261,1.921,0.485,3,0.668V27c0,0.552,0.448,1,1,1c0.552,0,1-0.448,1-1V13.676c1.828,0.211,3.831,0.324,6,0.324
		c0.342,0,0.667-0.011,1-0.016V17c0,0.552,0.447,1,1,1c0.552,0,1-0.448,1-1v-3.083c1.809-0.093,3.48-0.27,5-0.528V28
		c0,0.552,0.447,1,1,1c0.552,0,1-0.448,1-1V13c0-0.006-0.004-0.012-0.004-0.018c0.707-0.17,1.383-0.354,2.004-0.563V20
		c0,0.552,0.447,1,1,1c0.552,0,1-0.448,1-1v-8.405c0.771-0.38,1.443-0.799,2-1.26V53.5C48.037,54.555,46.572,55.906,43.037,56.853"
		/>
</g>
</svg>
