<?xml version="1.0" encoding="utf-8"?>
<!-- Generator: Adobe Illustrator 16.0.0, SVG Export Plug-In . SVG Version: 6.00 Build 0)  -->
<!DOCTYPE svg PUBLIC "-//W3C//DTD SVG 1.1//EN" "http://www.w3.org/Graphics/SVG/1.1/DTD/svg11.dtd">
<svg version="1.1" id="Warstwa_1" xmlns="http://www.w3.org/2000/svg" xmlns:xlink="http://www.w3.org/1999/xlink" x="0px" y="0px"
	 width="358.4px" height="512px" viewBox="0 0 358.4 512" enable-background="new 0 0 358.4 512" xml:space="preserve">
<g>
	<defs>
		<rect id="SVGID_1_" width="358.4" height="512"/>
	</defs>
	<clipPath id="SVGID_2_">
		<use xlink:href="#SVGID_1_"  overflow="visible"/>
	</clipPath>
	<path clip-path="url(#SVGID_2_)" fill="#CA9618" d="M349.867,145.067V25.6c0-14.507-11.093-25.6-25.601-25.6H34.133
		c-14.507,0-25.6,11.093-25.6,25.6v119.467C3.413,145.067,0,148.48,0,153.6v76.8c0,5.12,3.413,8.533,8.533,8.533v34.133
		c0,37.547,30.72,68.267,68.267,68.267h40.96c-5.973,34.987-6.827,70.827-6.827,101.547c0,37.547,29.867,68.268,66.56,69.12h1.707
		h1.707c36.692,0,66.56-31.573,66.56-69.12c0-31.573-0.853-66.56-6.827-101.547h40.96c37.547,0,68.268-30.72,68.268-68.267v-34.133
		c5.12,0,8.533-3.413,8.533-8.533v-76.8C358.4,148.48,354.987,145.067,349.867,145.067 M17.067,162.133h324.267v59.733H17.067
		V162.133z M25.6,25.6c0-4.267,4.267-8.533,8.533-8.533H51.2v76.8c0,5.12,3.413,8.533,8.533,8.533s8.533-3.413,8.533-8.533v-76.8
		h17.067v102.4c0,5.12,3.413,8.533,8.533,8.533c5.12,0,8.533-3.413,8.533-8.533v-102.4h17.067v76.8c0,5.12,3.413,8.533,8.533,8.533
		s8.533-3.413,8.533-8.533v-76.8H153.6v102.4c0,5.12,3.413,8.533,8.533,8.533c5.12,0,8.533-3.413,8.533-8.533v-102.4h17.067v76.8
		c0,5.12,3.413,8.533,8.532,8.533c5.12,0,8.533-3.413,8.533-8.533v-76.8h17.067v102.4c0,5.12,3.413,8.533,8.533,8.533
		c5.119,0,8.532-3.413,8.532-8.533v-102.4H256v76.8c0,5.12,3.413,8.533,8.533,8.533s8.533-3.413,8.533-8.533v-76.8h17.066v102.4
		c0,5.12,3.413,8.533,8.533,8.533s8.533-3.413,8.533-8.533v-102.4h17.066c5.12,0,8.533,3.413,8.533,8.533v119.467H25.6V25.6z
		 M331.947,273.067c0,28.159-23.04,51.199-51.2,51.199h-51.2c-2.56,0-5.12,1.707-6.827,3.413c-1.707,1.707-2.56,4.268-1.707,6.827
		c6.827,36.693,8.533,75.093,8.533,108.373c0.854,28.16-22.187,51.2-49.493,52.053h-2.56c-27.307,0-49.493-23.893-49.493-52.053
		c0-33.28,1.707-71.68,8.533-108.373c0.853-2.56,0-5.12-1.707-6.827c-1.707-2.56-4.267-3.413-6.827-3.413h-51.2
		c-15.076,0-28.68-6.608-38.071-17.066H51.2c5.12,0,8.533-3.413,8.533-8.533s-3.413-8.533-8.533-8.533H28.553
		c-1.905-5.345-2.953-11.089-2.953-17.066h42.667c5.12,0,8.533-3.413,8.533-8.533S73.387,256,68.267,256H25.6v-17.067h306.347
		V273.067z"/>
	<path clip-path="url(#SVGID_2_)" fill="#CA9618" d="M179.2,460.8c18.772,0,34.133-15.359,34.133-34.133
		s-15.36-34.133-34.133-34.133c-18.773,0-34.133,15.359-34.133,34.133S160.427,460.8,179.2,460.8 M179.2,409.6
		c9.387,0,17.066,7.681,17.066,17.067s-7.68,17.067-17.066,17.067c-9.387,0-17.067-7.681-17.067-17.067S169.813,409.6,179.2,409.6"
		/>
</g>
</svg>
