<?xml version="1.0" encoding="UTF-8" standalone="no"?>
<svg width="33px" height="33px" viewBox="0 0 33 33" version="1.1" xmlns="http://www.w3.org/2000/svg" xmlns:xlink="http://www.w3.org/1999/xlink">
    <!-- Generator: Sketch 48.1 (47250) - http://www.bohemiancoding.com/sketch -->
    <title>Page 1</title>
    <desc>Created with Sketch.</desc>
    <defs>
        <polygon id="path-1" points="0 0 32.9997525 0 32.9997525 33 0 33"></polygon>
    </defs>
    <g id="Page-1" stroke="none" stroke-width="1" fill="none" fill-rule="evenodd">
        <g>
            <path d="M19.0592499,15.1274091 C19.1557916,15.3004599 19.34775,15.4003906 19.5463558,15.4003906 C19.6291935,15.4003906 19.714281,15.3828606 19.793437,15.3459256 C19.8255494,15.3308328 23.0360712,13.8359962 24.6193954,13.3774959 C24.9062592,13.2939703 25.0653893,13.0130205 24.9743701,12.7500695 C24.8838623,12.4870248 24.5796129,12.3405972 24.2898856,12.4236541 C22.6219851,12.9070902 19.4334512,14.3919899 19.2982519,14.4549857 C19.0297965,14.579946 18.9229257,14.8809569 19.0592499,15.1274091" id="Fill-1" fill="#FFFFFF"></path>
            <path d="M19.5463523,10 C19.6292917,10 19.7143787,9.98246988 19.793432,9.94553477 C19.8255441,9.93053573 23.0360454,8.43560098 24.6193595,7.97709933 C24.9062214,7.89366722 25.0654528,7.6127166 24.9743319,7.34976483 C24.8838247,7.08671931 24.5795772,6.94019752 24.2899541,7.02325465 C22.621962,7.50678594 19.4334484,8.99169009 19.29825,9.05468602 C19.0297963,9.17964671 18.9229262,9.48056478 19.0592495,9.72701762 C19.1558929,9.89997521 19.34785,10 19.5463523,10" id="Fill-3" fill="#FFFFFF"></path>
            <g id="Group-7">
                <mask id="mask-2" fill="white">
                    <use xlink:href="#path-1"></use>
                </mask>
                <g id="Clip-6"></g>
                <path d="M32.4497869,8.25020625 C32.1456712,8.25020625 31.8998212,8.49657187 31.8998212,8.80017187 L31.8998212,30.2500687 C31.8998212,31.1596312 31.1594869,31.8999656 30.2497181,31.8999656 L17.0499244,31.8999656 L17.0499244,30.6345188 C17.8517212,30.3540188 19.9406212,29.7 21.9999244,29.7 C26.7908025,29.7 30.0440869,30.76095 30.0764681,30.7719844 C30.2420869,30.82695 30.42699,30.7995187 30.5715712,30.6959813 C30.7151212,30.59265 30.7997869,30.4265156 30.7997869,30.2498625 L30.7997869,6.05024062 C30.7997869,5.792325 30.6210712,5.56895625 30.3691369,5.51337187 C30.3691369,5.51337187 29.9379712,5.41715625 29.2009369,5.28185625 C28.903215,5.22689063 28.6157025,5.42489062 28.5606337,5.72292188 C28.5056681,6.02219062 28.7030494,6.30867187 29.0016994,6.3636375 C29.2829212,6.41540625 29.5181494,6.4609875 29.6997525,6.4972875 L29.6997525,29.5190156 C28.4534869,29.1923156 25.6858181,28.6000687 21.9997181,28.6000687 C19.6035056,28.6000687 17.2495744,29.3870156 16.5213056,29.6539031 C15.8738869,29.3678344 13.91709,28.6000687 11.5497525,28.6000687 C7.76145562,28.6000687 4.64079,29.2249031 3.29985562,29.5422188 L3.29985562,6.4758375 C4.39824,6.20585625 7.64214,5.50017187 11.5497525,5.50017187 C13.5551212,5.50017187 15.2749369,6.1243875 15.9497869,6.40664062 L15.9497869,28.05 C15.9497869,28.248 16.0565212,28.4312531 16.2286369,28.5286031 C16.4008556,28.6264687 16.6130869,28.6236844 16.7830369,28.5212812 C16.8374869,28.4890031 22.2868181,25.2339656 27.1235869,23.6221219 C27.3485025,23.5467375 27.4997869,23.3370844 27.4997869,23.1001031 L27.4997869,0.550171875 C27.4997869,0.36980625 27.4112025,0.200990625 27.2627025,0.098175 C27.1152337,-0.00474375 26.9261025,-0.028359375 26.7561525,0.034959375 C22.3556025,1.685475 17.9028712,4.45634062 17.8583212,4.483875 C17.6009212,4.64495625 17.5222369,4.98434062 17.6834212,5.24174062 C17.8439869,5.49914062 18.1832681,5.577825 18.4412869,5.41664062 C18.4820212,5.39075625 22.3556025,2.980725 26.3996494,1.35444375 L26.3996494,22.7063719 C22.6454869,24.0109031 18.7256025,26.1410531 17.0497181,27.09465 L17.0497181,6.05024062 C17.0497181,5.841825 16.9320525,5.65145625 16.7456025,5.558025 C16.6510369,5.51130937 14.3971369,4.40024062 11.5497525,4.40024062 C6.58005562,4.40024062 2.75927437,5.475525 2.59860562,5.521725 C2.36265562,5.58875625 2.19982125,5.80490625 2.19982125,6.05024062 L2.19982125,30.2500687 C2.19982125,30.4222875 2.28129,30.5850187 2.41824,30.6889687 C2.51507437,30.7621875 2.63160562,30.8001375 2.74989,30.8001375 C2.80052438,30.8001375 2.85105562,30.7929187 2.90055562,30.7785844 C2.93860875,30.7681687 6.74175562,29.7001031 11.5497525,29.7001031 C13.56069,29.7001031 15.2788556,30.3259688 15.9497869,30.6069844 L15.9497869,31.9000687 L2.74989,31.9000687 C1.84022437,31.9000687 1.09989,31.1597344 1.09989,30.2500687 L1.09989,8.80017187 C1.09989,8.496675 0.853524375,8.25020625 0.549924375,8.25020625 C0.2464275,8.25020625 -4.125e-05,8.496675 -4.125e-05,8.80017187 L-4.125e-05,30.2500687 C-4.125e-05,31.7663156 1.23364312,33 2.74999312,33 L30.2497181,33 C31.7660681,33 32.9997525,31.7664187 32.9997525,30.2500687 L32.9997525,8.80017187 C32.9997525,8.49657187 32.7539025,8.25020625 32.4497869,8.25020625" id="Fill-5" fill="#FFFFFF" mask="url(#mask-2)"></path>
            </g>
            <path d="M19.0592499,12.7270184 C19.1557916,12.9000692 19.34775,13 19.5463558,13 C19.6291935,13 19.714281,12.9824699 19.793437,12.9455349 C19.8255494,12.9305359 23.0360712,11.4356056 24.6193954,10.9771053 C24.9062592,10.8936734 25.0653893,10.6126299 24.9743701,10.3496789 C24.8838623,10.0866342 24.5796129,9.94020654 24.2898856,10.0232634 C22.6219851,10.5066996 19.4334512,11.9915993 19.2982519,12.0545951 C19.0297965,12.1795554 18.9229257,12.4805663 19.0592499,12.7270184" id="Fill-8" fill="#FFFFFF"></path>
            <path d="M19.0592499,17.7270262 C19.1557916,17.9000721 19.34775,18 19.5463558,18 C19.6291935,18 19.714281,17.9824704 19.793437,17.9454427 C19.8255494,17.9304442 23.0360712,16.4356499 24.6193954,15.9771625 C24.9062592,15.8936393 25.0653893,15.6126975 24.9743701,15.3497539 C24.8838623,15.0867166 24.5796129,14.9401994 24.2898856,15.0232539 C22.6219851,15.5067701 19.4334512,16.9915341 19.2982519,17.0545281 C19.0297965,17.1795786 18.9229257,17.480581 19.0592499,17.7270262" id="Fill-10" fill="#FFFFFF"></path>
            <path d="M12.587944,9.36945478 C9.29483056,8.40187025 5.55264255,9.63463906 5.39535146,9.68735038 C5.11116756,9.78275662 4.94207714,10.1487309 5.01827282,10.5053149 C5.08226919,10.8038037 5.29775699,11 5.53294366,11 C5.57884106,11 5.62523844,10.9927381 5.67163581,10.9773379 C5.70743378,10.9646922 9.31032968,9.77812403 12.3448578,10.6695839 C12.6301416,10.7529705 12.9187253,10.5306063 12.9858215,10.1713931 C13.0530177,9.81280583 12.8749278,9.45359257 12.587944,9.36945478" id="Fill-12" fill="#FFFFFF"></path>
            <path d="M12.587944,12.3691649 C9.29483056,11.4022339 5.55264255,12.6343759 5.39535146,12.6870926 C5.11116756,12.7825085 4.94207714,13.148645 5.01827282,13.5051397 C5.08226919,13.8036587 5.29775699,14 5.53294366,14 C5.57884106,14 5.62523844,13.9926122 5.67163581,13.9773356 C5.70743378,13.9645634 9.31032968,12.7778754 12.3448578,13.6694253 C12.6301416,13.7529455 12.9187253,13.5304337 12.9858215,13.1711842 C13.0530177,12.8126859 12.8749278,12.4533112 12.587944,12.3691649" id="Fill-14" fill="#FFFFFF"></path>
            <path d="M19.0592499,19.7271114 C19.1557916,19.900069 19.34775,20 19.5463558,20 C19.6291935,20 19.714281,19.9825636 19.793437,19.9455348 C19.8255494,19.9305357 23.0360712,18.435601 24.6193954,17.9770993 C24.9062592,17.8935735 25.0653893,17.6126229 24.9743701,17.3497648 C24.8838623,17.0867193 24.5796129,16.9401975 24.2898856,17.0232547 C22.6219851,17.5066922 19.4334512,18.9915963 19.2982519,19.0545923 C19.0297965,19.179553 18.9229257,19.4806585 19.0592499,19.7271114" id="Fill-16" fill="#FFFFFF"></path>
            <path d="M12.587944,18.3691999 C9.29483056,17.4025356 5.55264255,18.6335525 5.39535146,18.6868736 C5.11116756,18.7825011 4.94207714,19.1482389 5.01827282,19.5045892 C5.08226919,19.8031124 5.29775699,20 5.53294366,20 C5.57884106,20 5.62523844,19.9921145 5.67163581,19.9767189 C5.70743378,19.9639519 9.31032968,18.7777448 12.3448578,19.6689334 C12.6301416,19.7522946 12.9187253,19.5299981 12.9858215,19.1708942 C13.0530177,18.812416 12.8749278,18.4533121 12.587944,18.3691999" id="Fill-18" fill="#FFFFFF"></path>
            <path d="M12.587944,24.3693334 C9.29483056,23.4021224 5.55264255,24.6342901 5.39535146,24.6871062 C5.11116756,24.7826008 4.94207714,25.1484338 5.01827282,25.5047549 C5.08226919,25.8031285 5.29775699,26 5.53294366,26 C5.57884106,26 5.62523844,25.9921151 5.67163581,25.9767209 C5.70743378,25.96408 9.31032968,24.7778448 12.3448578,25.6690857 C12.6301416,25.7516891 12.9187253,25.5301617 12.9858215,25.170962 C13.0530177,24.8125132 12.8749278,24.4534387 12.587944,24.3693334" id="Fill-20" fill="#FFFFFF"></path>
            <path d="M12.587944,21.3694199 C9.29483056,20.4022602 5.55264255,21.6337368 5.39535146,21.6871759 C5.11116756,21.7826654 4.94207714,22.148479 5.01827282,22.5047812 C5.08226919,22.803139 5.29775699,23 5.53294366,23 C5.57884106,23 5.62523844,22.9922407 5.67163581,22.9768472 C5.70743378,22.9640819 9.31032968,21.7780348 12.3448578,22.6691032 C12.6301416,22.7524532 12.9187253,22.5301867 12.9858215,22.1711312 C13.0530177,21.8127014 12.8749278,21.4535207 12.587944,21.3694199" id="Fill-22" fill="#FFFFFF"></path>
        </g>
    </g>
</svg>