<?xml version="1.0" encoding="UTF-8" standalone="no"?>
<svg width="19px" height="19px" viewBox="0 0 19 19" version="1.1" xmlns="http://www.w3.org/2000/svg" xmlns:xlink="http://www.w3.org/1999/xlink">
    <!-- Generator: Sketch 48.1 (47250) - http://www.bohemiancoding.com/sketch -->
    <title>kosz-icon copy 3</title>
    <desc>Created with Sketch.</desc>
    <defs></defs>
    <g id="Desktop-HD-Copy-9" stroke="none" stroke-width="1" fill="none" fill-rule="evenodd" transform="translate(-926.000000, -776.000000)">
        <g id="kosz-icon-copy-4" transform="translate(920.000000, 767.000000)" fill="#4A4A4A">
            <g id="Page-1" transform="translate(6.000000, 9.000000)">
                <path d="M17.3143303,13.7567683 C17.3143303,15.7183443 15.7183443,17.3142179 13.7567683,17.3142179 L5.24311935,17.3142179 C3.28165573,17.3143303 1.68578205,15.7183443 1.68578205,13.7567683 L1.68578205,5.24323173 C1.68578205,3.28176812 3.28165573,1.68578205 5.24311935,1.68578205 L13.7565435,1.68578205 C15.7182319,1.68578205 17.3142179,3.28176812 17.3142179,5.24323173 L17.3142179,13.7567683 L17.3143303,13.7567683 Z M13.7565435,0 L5.24311935,0 C2.35200312,0 0,2.35211551 0,5.24323173 L0,13.7567683 C0,16.6479969 2.35200312,19 5.24311935,19 L13.7565435,19 C16.6478845,19 19,16.6478845 19,13.7567683 L19,5.24323173 C19.0001124,2.35211551 16.6478845,0 13.7565435,0 Z" id="Fill-1"></path>
                <path d="M10,13.2782012 C8.19250281,13.2782012 6.72175929,11.8076535 6.72175929,10 C6.72175929,8.19223176 8.19227326,6.72156926 10,6.72156926 C11.8077267,6.72156926 13.2783555,8.19223176 13.2783555,10 C13.2783555,11.8076535 11.807612,13.2782012 10,13.2782012 M10,5 C7.24295847,5 5,7.24300996 5,10.0001148 C5,12.7571048 7.24295847,15 10,15 C12.7570415,15 15,12.7571048 15,10.0001148 C15,7.24300996 12.7570415,5 10,5" id="Fill-3"></path>
                <path d="M14,3 C13.7372727,3 13.4791818,3.10636364 13.2935455,3.29272727 C13.1071818,3.47818182 13,3.73636364 13,4 C13,4.26281818 13.1072727,4.52081818 13.2935455,4.70727273 C13.4790909,4.89263636 13.7372727,5 14,5 C14.2635455,5 14.5208182,4.89263636 14.7072727,4.70727273 C14.8936364,4.52081818 15,4.26272727 15,4 C15,3.73636364 14.8936364,3.47818182 14.7072727,3.29272727 C14.5218182,3.10636364 14.2635455,3 14,3" id="Fill-5"></path>
            </g>
        </g>
    </g>
</svg>