<?xml version="1.0" encoding="UTF-8" standalone="no"?>
<svg width="26px" height="26px" viewBox="0 0 26 26" version="1.1" xmlns="http://www.w3.org/2000/svg" xmlns:xlink="http://www.w3.org/1999/xlink">
    <!-- Generator: Sketch 50.2 (55047) - http://www.bohemiancoding.com/sketch -->
    <title>icon-random copy 5</title>
    <desc>Created with Sketch.</desc>
    <defs></defs>
    <g id="Page-1" stroke="none" stroke-width="1" fill="none" fill-rule="evenodd">
        <g id="Home-Copy-69" transform="translate(-741.000000, -5564.000000)">
            <g id="Group-3" transform="translate(110.000000, 5308.000000)">
                <g id="download" transform="translate(631.000000, 256.000000)">
                    <g id="Group">
                        <path d="M26,13 C26,20.1798086 20.1798086,26 13,26 C5.82019141,26 0,20.1798086 0,13 C0,5.82019141 5.82019141,0 13,0 C20.1798086,0 26,5.82019141 26,13" id="Fill-1" fill="#033A67"></path>
                        <polygon id="Fill-3" fill="#FFFFFF" points="18.2171793 16.3757648 18.2171793 18.2171945 7.78280039 18.2171945 7.78280039 16.3757648 5.94142148 16.3757648 5.94142148 20.0585734 20.058609 20.0585734 20.058609 16.3757648"></polygon>
                        <polygon id="Fill-5" fill="#FFFFFF" points="14.2429523 12.536027 14.2429523 5.94142148 11.7570578 5.94142148 11.7570578 12.536027 9.28660078 12.536027 12.9999797 16.2494059 16.7133586 12.536027"></polygon>
                    </g>
                </g>
            </g>
        </g>
    </g>
</svg>