<?xml version="1.0" encoding="UTF-8" standalone="no"?>
<svg width="50px" height="75px" viewBox="0 0 50 75" version="1.1" xmlns="http://www.w3.org/2000/svg" xmlns:xlink="http://www.w3.org/1999/xlink">
    <!-- Generator: Sketch 50.2 (55047) - http://www.bohemiancoding.com/sketch -->
    <title>pin</title>
    <desc>Created with Sketch.</desc>
    <defs>
        <polygon id="path-1" points="0 0.0415614308 42 0.0415614308 42 42.1317319 0 42.1317319"></polygon>
    </defs>
    <g id="Page-1" stroke="none" stroke-width="1" fill="none" fill-rule="evenodd">
        <g id="Home-Copy-69" transform="translate(-379.000000, -5411.000000)">
            <g id="pin-copy" transform="translate(383.000000, 5413.000000)">
                <path d="M29.5504191,29.216586 C28.954399,30.0079453 28.2554894,30.712586 27.4725799,31.3148566 C25.5920774,32.7695067 23.248203,33.6496995 20.6945397,33.6573138 L20.7131126,38.3257306 L20.7235598,42.9955222 L20.8074543,67.9583963 L25.454997,42.419796 C32.9587508,40.6093885 38.8580623,34.6566918 40.6179467,27.1205362 L35.4501528,28.1015129 L29.5504191,29.216586 Z" id="Fill-1" fill="#0B213B"></path>
                <path d="M12.0756015,29.216586 C12.6717271,30.0079453 13.3705312,30.712586 14.1534407,31.3148566 C16.0339432,32.7695067 18.3778176,33.6496995 20.9315864,33.6573138 L20.9130136,38.3257306 L20.9025663,42.9955222 L20.8186719,67.9583963 L16.1710236,42.419796 C8.66726985,40.6093885 2.76795829,34.6566918 1.00807387,27.1205362 L6.17586784,28.1015129 L12.0756015,29.216586 Z" id="Fill-3" fill="#0B213B"></path>
                <g id="Group-7" stroke-width="1" transform="translate(0.000000, 0.064193)">
                    <mask id="mask-2" fill="white">
                        <use xlink:href="#path-1"></use>
                    </mask>
                    <g id="Clip-6"></g>
                    <path d="M21,28.6628672 C16.824799,28.6628672 13.44,25.2707988 13.44,21.0866308 C13.44,16.9023571 16.824799,13.5103944 21,13.5103944 C25.175201,13.5103944 28.5601055,16.9023571 28.5601055,21.0866308 C28.5601055,25.2707988 25.175201,28.6628672 21,28.6628672 M21,0.0415297045 C9.40209045,0.0415297045 0,9.463707 0,21.0866308 C0,32.7094488 9.40209045,42.1317319 21,42.1317319 C32.5979095,42.1317319 42,32.7094488 42,21.0866308 C42,9.463707 32.5979095,0.0415297045 21,0.0415297045" id="Fill-5" fill="#0B213B" mask="url(#mask-2)"></path>
                </g>
            </g>
        </g>
    </g>
</svg>