<?xml version="1.0" encoding="UTF-8" standalone="no"?>
<svg width="95px" height="94px" viewBox="0 0 95 94" version="1.1" xmlns="http://www.w3.org/2000/svg" xmlns:xlink="http://www.w3.org/1999/xlink">
    <!-- Generator: Sketch 49.3 (51167) - http://www.bohemiancoding.com/sketch -->
    <title>Page 1</title>
    <desc>Created with Sketch.</desc>
    <defs>
        <path d="M0.887,47.25 C0.887,73.069 21.757,94 47.5,94 C73.243,94 94.112,73.069 94.112,47.25 C94.112,21.431 73.243,0.5 47.5,0.5 C21.757,0.5 0.887,21.431 0.887,47.25 Z M3.712,47.25 C3.712,22.995 23.317,3.333 47.5,3.333 C71.683,3.333 91.288,22.995 91.288,47.25 C91.288,71.505 71.683,91.167 47.5,91.167 C23.317,91.167 3.712,71.505 3.712,47.25 Z" id="path-1"></path>
        <polygon id="path-3" points="0.5 75.75 74.5 75.75 74.5 0.75 0.5 0.75"></polygon>
    </defs>
    <g id="Page-1" stroke="none" stroke-width="1" fill="none" fill-rule="evenodd">
        <g id="Home" transform="translate(-517.000000, -2331.000000)">
            <g id="Page-1" transform="translate(517.000000, 2330.000000)">
                <g id="Group-3" transform="translate(0.000000, 0.500000)">
                    <mask id="mask-2" fill="white">
                        <use xlink:href="#path-1"></use>
                    </mask>
                    <g id="Clip-2"></g>
                    <polygon id="Fill-1" fill="#FFFFFF" mask="url(#mask-2)" points="-4.112 99 99.113 99 99.113 -4.5 -4.112 -4.5"></polygon>
                </g>
                <g id="Group-21" transform="translate(10.000000, 9.500000)">
                    <path d="M37.8125,9.9141 L59.9985,26.4191 L59.9985,28.3721 L57.3355,28.3721 L18.2895,28.3721 L15.6275,28.3721 L15.6275,26.5961 L51.1245,26.5961 L51.1245,24.8221 L17.7575,24.8221 L37.8125,9.9141 Z M14.7405,30.1461 L17.4025,30.1461 L17.4025,41.6831 L19.1775,41.6831 L19.1775,30.1461 L56.4485,30.1461 L56.4485,41.6831 L58.2235,41.6831 L58.2235,30.1461 L60.8855,30.1461 C61.4175,30.1461 61.7725,29.7921 61.7725,29.2591 L61.7725,25.9761 C61.7725,25.7091 61.6845,25.4431 61.4175,25.2661 L38.3455,8.1381 C37.9905,7.8721 37.6355,7.8721 37.2805,8.1381 L14.8285,24.8221 L14.7405,24.8221 L14.7405,24.9111 L14.2075,25.2661 C13.9415,25.4431 13.8525,25.7091 13.8525,25.9761 L13.8525,29.2591 C13.8525,29.7921 14.2085,30.1461 14.7405,30.1461 Z" id="Fill-4" fill="#F89F03"></path>
                    <mask id="mask-4" fill="white">
                        <use xlink:href="#path-3"></use>
                    </mask>
                    <g id="Clip-7"></g>
                    <polygon id="Fill-6" fill="#F89F03" mask="url(#mask-4)" points="36.038 17.721 39.588 17.721 39.588 15.947 36.038 15.947"></polygon>
                    <polygon id="Fill-8" fill="#F89F03" mask="url(#mask-4)" points="33.376 21.272 42.25 21.272 42.25 19.498 33.376 19.498"></polygon>
                    <polygon id="Fill-9" fill="#F89F03" mask="url(#mask-4)" points="20.952 33.696 22.727 33.696 22.727 31.921 20.952 31.921"></polygon>
                    <polygon id="Fill-10" fill="#F89F03" mask="url(#mask-4)" points="24.501 33.696 26.276 33.696 26.276 31.921 24.501 31.921"></polygon>
                    <polygon id="Fill-11" fill="#F89F03" mask="url(#mask-4)" points="28.051 33.696 29.826 33.696 29.826 31.921 28.051 31.921"></polygon>
                    <polygon id="Fill-12" fill="#F89F03" mask="url(#mask-4)" points="31.601 33.696 33.376 33.696 33.376 31.921 31.601 31.921"></polygon>
                    <polygon id="Fill-13" fill="#F89F03" mask="url(#mask-4)" points="35.15 33.696 36.925 33.696 36.925 31.921 35.15 31.921"></polygon>
                    <polygon id="Fill-14" fill="#F89F03" mask="url(#mask-4)" points="38.7 33.696 40.475 33.696 40.475 31.921 38.7 31.921"></polygon>
                    <polygon id="Fill-15" fill="#F89F03" mask="url(#mask-4)" points="42.25 33.696 44.025 33.696 44.025 31.921 42.25 31.921"></polygon>
                    <polygon id="Fill-16" fill="#F89F03" mask="url(#mask-4)" points="45.799 33.696 47.574 33.696 47.574 31.921 45.799 31.921"></polygon>
                    <polygon id="Fill-17" fill="#F89F03" mask="url(#mask-4)" points="49.349 33.696 51.124 33.696 51.124 31.921 49.349 31.921"></polygon>
                    <polygon id="Fill-18" fill="#F89F03" mask="url(#mask-4)" points="52.899 33.696 54.674 33.696 54.674 31.921 52.899 31.921"></polygon>
                    <path d="M60.8853,59.4316 L60.8853,48.2486 L62.0393,49.4036 L63.2813,48.1606 L60.6193,45.4986 C60.2643,45.1446 59.7323,45.1446 59.3773,45.4986 L56.7143,48.1606 L57.9573,49.4036 L59.1113,48.2486 L59.1113,59.4316 L50.2363,59.4316 L50.2363,39.3756 L51.3903,40.5296 L52.6333,39.2856 L49.9703,36.6236 C49.6153,36.2696 49.0833,36.2696 48.7283,36.6236 L46.0653,39.2856 L47.3073,40.5296 L48.4623,39.3756 L48.4623,59.4316 L27.1633,59.4316 L27.1633,39.3756 L28.3183,40.5296 L29.5603,39.2856 L26.8973,36.6236 C26.5423,36.2696 26.0103,36.2696 25.6553,36.6236 L22.9923,39.2856 L24.2353,40.5296 L25.3893,39.3756 L25.3893,59.4316 L16.5143,59.4316 L16.5143,48.2486 L17.6683,49.4036 L18.9113,48.1606 L16.2483,45.4986 C15.8933,45.1446 15.3613,45.1446 15.0063,45.4986 L12.3433,48.1606 L13.5863,49.4036 L14.7403,48.2486 L14.7403,59.4316 L11.1903,59.4316 L11.1903,61.2056 L64.4353,61.2056 L64.4353,59.4316 L60.8853,59.4316 Z" id="Fill-19" fill="#F89F03" mask="url(#mask-4)"></path>
                    <path d="M36.9253,39.9082 L38.7003,39.9082 C40.2083,39.9082 41.3623,41.0612 41.3623,42.5702 L43.1373,42.5702 C43.1373,40.0862 41.1843,38.1342 38.7003,38.1342 L38.7003,36.3582 L36.9253,36.3582 L36.9253,38.1342 C34.4413,38.1342 32.4883,40.0862 32.4883,42.5702 C32.4883,45.0542 34.4413,47.0072 36.9253,47.0072 L38.7003,47.0072 C40.2083,47.0072 41.3623,48.1612 41.3623,49.6702 C41.3623,51.1782 40.2083,52.3322 38.7003,52.3322 L36.9253,52.3322 C35.4173,52.3322 34.2633,51.1782 34.2633,49.6702 L32.4883,49.6702 C32.4883,52.1542 34.4413,54.1062 36.9253,54.1062 L36.9253,55.8812 L38.7003,55.8812 L38.7003,54.1062 C41.1843,54.1062 43.1373,52.1542 43.1373,49.6702 C43.1373,47.1842 41.1843,45.2322 38.7003,45.2322 L36.9253,45.2322 C35.4173,45.2322 34.2633,44.0792 34.2633,42.5702 C34.2633,41.0612 35.4173,39.9082 36.9253,39.9082" id="Fill-20" fill="#F89F03" mask="url(#mask-4)"></path>
                </g>
            </g>
        </g>
    </g>
</svg>