<?xml version="1.0" encoding="UTF-8" standalone="no"?>
<svg width="23px" height="24px" viewBox="0 0 23 24" version="1.1" xmlns="http://www.w3.org/2000/svg" xmlns:xlink="http://www.w3.org/1999/xlink">
    <!-- Generator: Sketch 49.3 (51167) - http://www.bohemiancoding.com/sketch -->
    <title>icon-random copy 16</title>
    <desc>Created with Sketch.</desc>
    <defs>
        <polygon id="path-1" points="0.000405 0.238933333 20.00835 0.238933333 20.00835 20 0.000405 20"></polygon>
    </defs>
    <g id="Page-1" stroke="none" stroke-width="1" fill="none" fill-rule="evenodd">
        <g id="Career" transform="translate(-152.000000, -1481.000000)">
            <g id="icon-random-copy-16" transform="translate(150.000000, 1481.000000)">
                <g id="Page-1" fill-rule="evenodd" transform="translate(4.050000, 1.333333)">
                    <g id="Group-3" transform="translate(0.000000, 1.095067)">
                        <mask id="mask-2" fill="white">
                            <use xlink:href="#path-1"></use>
                        </mask>
                        <g id="Clip-2"></g>
                    </g>
                    <g id="Group" transform="translate(4.050000, 2.666667)" fill="#554D85">
                        <path d="M5.4006187,11.0595784 C3.693011,11.0595784 2.3021769,9.68713718 2.3021769,8.00061106 C2.3021769,6.31286282 3.6917736,4.93919951 5.4006187,4.93919951 C7.1082264,4.93919951 8.49906049,6.31286282 8.49906049,8.00061106 C8.49906049,9.68713718 7.1082264,11.0595784 5.4006187,11.0595784 M5.4006187,3.33333333 C2.79466086,3.33333333 0.675,5.42804766 0.675,8.00061106 C0.675,10.5743966 2.79466086,12.6666667 5.4006187,12.6666667 C8.00533914,12.6666667 10.125,10.5743966 10.125,8.00061106 C10.125,5.42804766 8.00533914,3.33333333 5.4006187,3.33333333" id="Fill-4"></path>
                        <path d="M10.9357004,0.666666667 C10.5801794,0.666666667 10.2330565,0.809054778 9.98111249,1.05650596 C9.73056817,1.30395715 9.58500051,1.64817695 9.58500051,2.0006912 C9.58500051,2.35044064 9.73056817,2.69466045 9.98111249,2.94211163 C10.2330565,3.18956281 10.5801794,3.33471574 10.9357004,3.33471574 C11.2912214,3.33471574 11.6383442,3.18956281 11.8902882,2.94211163 C12.1408326,2.69466045 12.2850005,2.35044064 12.2850005,2.0006912 C12.2850005,1.64817695 12.1408326,1.30395715 11.8902882,1.05650596 C11.6397439,0.809054778 11.2912214,0.666666667 10.9357004,0.666666667" id="Fill-6"></path>
                    </g>
                </g>
                <path d="M8.1,2.13333333 C5.565013,2.13333333 3.51,4.1629758 3.51,6.66666667 L3.51,17.3333333 C3.51,19.8370242 5.565013,21.8666667 8.1,21.8666667 L18.9,21.8666667 C21.434987,21.8666667 23.49,19.8370242 23.49,17.3333333 L23.49,6.66666667 C23.49,4.1629758 21.434987,2.13333333 18.9,2.13333333 L8.1,2.13333333 Z M8.1,1.33333333 L18.9,1.33333333 C21.8823376,1.33333333 24.3,3.721148 24.3,6.66666667 L24.3,17.3333333 C24.3,20.278852 21.8823376,22.6666667 18.9,22.6666667 L8.1,22.6666667 C5.11766235,22.6666667 2.7,20.278852 2.7,17.3333333 L2.7,6.66666667 C2.7,3.721148 5.11766235,1.33333333 8.1,1.33333333 Z" id="Rectangle-2" stroke="#554D85" fill="#554D85" fill-rule="nonzero"></path>
            </g>
        </g>
    </g>
</svg>