<?xml version="1.0" encoding="UTF-8" standalone="no"?>
<svg width="20px" height="20px" viewBox="0 0 20 20" version="1.1" xmlns="http://www.w3.org/2000/svg" xmlns:xlink="http://www.w3.org/1999/xlink">
    <!-- Generator: Sketch 49.3 (51167) - http://www.bohemiancoding.com/sketch -->
    <title>Group 2</title>
    <desc>Created with Sketch.</desc>
    <defs>
        <polygon id="path-1" points="0 38.6666667 38.4 38.6666667 38.4 0 0 0"></polygon>
    </defs>
    <g id="Page-1" stroke="none" stroke-width="1" fill="none" fill-rule="evenodd">
        <g id="Home" transform="translate(-1388.000000, -34.000000)">
            <g id="Group-6">
                <g id="Group-5" transform="translate(21.000000, 21.000000)">
                    <g id="Group-2" transform="translate(1359.000000, 10.000000)">
                        <g id="icon-random-copy-8">
                            <g id="Page-1" transform="translate(-3.200000, -4.833333)">
                                <mask id="mask-2" fill="white">
                                    <use xlink:href="#path-1"></use>
                                </mask>
                                <g id="Clip-4"></g>
                                <path d="M11.2,27.3888889 L15.4666667,27.3888889 L15.4666667,14.5 L11.2,14.5 L11.2,27.3888889 Z M13.3464242,8.05555556 C12.0489221,8.05555556 11.2,8.98367592 11.2,10.2031849 C11.2,11.3967543 12.0243272,12.3518519 13.2965996,12.3518519 L13.3211945,12.3518519 C14.6440849,12.3518519 15.4666667,11.3967543 15.4666667,10.2031849 C15.441437,8.98367592 14.6440849,8.05555556 13.3464242,8.05555556 Z M30.4,20.1672224 L30.4,27.3888889 L26.2067786,27.3888889 L26.2067786,20.6512126 C26.2067786,18.9594364 25.6013815,17.8040259 24.0830645,17.8040259 C22.9247228,17.8040259 22.2363489,18.5819486 21.9323347,19.3351726 C21.8219914,19.6042312 21.7933968,19.9780405 21.7933968,20.3553532 L21.7933968,27.3887137 L17.6,27.3887137 C17.6,27.3887137 17.6561365,15.9770197 17.6,14.7958594 L21.7937477,14.7958594 L21.7937477,16.5802996 C21.7855026,16.5943131 21.7733982,16.6081514 21.7658549,16.6216393 L21.7937477,16.6216393 L21.7937477,16.5802996 C22.3510779,15.7240766 23.344694,14.5 25.572787,14.5 C28.3317207,14.5 30.4,16.299855 30.4,20.1672224 Z" id="Fill-3" fill="#554D85" mask="url(#mask-2)"></path>
                            </g>
                        </g>
                    </g>
                </g>
            </g>
        </g>
    </g>
</svg>