<?xml version="1.0" encoding="UTF-8" standalone="no"?>
<svg width="17px" height="17px" viewBox="0 0 17 17" version="1.1" xmlns="http://www.w3.org/2000/svg" xmlns:xlink="http://www.w3.org/1999/xlink">
    <!-- Generator: Sketch 49.3 (51167) - http://www.bohemiancoding.com/sketch -->
    <title>icon-random copy 2</title>
    <desc>Created with Sketch.</desc>
    <defs>
        <polygon id="path-1" points="0 32 31.2 32 31.2 0 0 0"></polygon>
    </defs>
    <g id="Symbols" stroke="none" stroke-width="1" fill="none" fill-rule="evenodd">
        <g id="Group-4" transform="translate(-1130.000000, -112.000000)">
            <g id="icon-random-copy-11" transform="translate(1124.000000, 110.000000)">
                <g id="Page-1" transform="translate(-2.600000, -4.000000)">
                    <mask id="mask-2" fill="white">
                        <use xlink:href="#path-1"></use>
                    </mask>
                    <g id="Clip-4"></g>
                    <path d="M9.1,22.6666667 L12.5666667,22.6666667 L12.5666667,12 L9.1,12 L9.1,22.6666667 Z M10.8439697,6.66666667 C9.78974922,6.66666667 9.1,7.43476627 9.1,8.4440151 C9.1,9.43179663 9.76976583,10.2222222 10.8034872,10.2222222 L10.8234706,10.2222222 C11.898319,10.2222222 12.5666667,9.43179663 12.5666667,8.4440151 C12.5461676,7.43476627 11.898319,6.66666667 10.8439697,6.66666667 Z M24.7,16.6901151 L24.7,22.6666667 L21.2930076,22.6666667 L21.2930076,17.0906587 C21.2930076,15.6905681 20.8011225,14.7343662 19.5674899,14.7343662 C18.6263373,14.7343662 18.0670335,15.3781644 17.8200219,16.0015222 C17.730368,16.2241914 17.7071349,16.5335508 17.7071349,16.8458095 L17.7071349,22.6665217 L14.3,22.6665217 C14.3,22.6665217 14.3456109,13.2223611 14.3,12.2448491 L17.70742,12.2448491 L17.70742,13.7216273 C17.7007209,13.7332246 17.690886,13.744677 17.6847571,13.7558394 L17.70742,13.7558394 L17.70742,13.7216273 C18.1602508,13.0130289 18.9675639,12 20.7778894,12 C23.0195231,12 24.7,13.4895352 24.7,16.6901151 Z" id="Fill-3" fill="#FFFFFF" mask="url(#mask-2)"></path>
                </g>
            </g>
        </g>
    </g>
</svg>