<?xml version="1.0" encoding="UTF-8" standalone="no"?>
<svg width="150px" height="48px" viewBox="0 0 150 48" version="1.1" xmlns="http://www.w3.org/2000/svg" xmlns:xlink="http://www.w3.org/1999/xlink">
    <!-- Generator: Sketch 49.3 (51167) - http://www.bohemiancoding.com/sketch -->
    <title>logos-01</title>
    <desc>Created with Sketch.</desc>
    <defs></defs>
    <g id="Symbols" stroke="none" stroke-width="1" fill="none" fill-rule="evenodd">
        <g id="Group-4" transform="translate(-83.000000, -36.000000)" fill="#FFFFFF" fill-rule="nonzero">
            <g id="logos-01" transform="translate(83.000000, 36.000000)">
                <g id="Group" transform="translate(66.467066, 6.287425)">
                    <path d="M3.16247505,20.0838323 C1.17125749,18.1551724 0.175648703,15.4131737 0.175648703,11.8546149 C0.175648703,8.11325625 1.2,5.22147429 3.24870259,3.17846376 C5.29580838,1.13545323 8.26586826,0.113545323 12.1580838,0.113545323 C14.7297405,0.113545323 16.9708583,0.435659715 18.8830339,1.07747264 L18.8830339,5.82865992 C17.1528942,5.18604171 15.0483034,4.8647326 12.5676647,4.8647326 C10.2003992,4.8647326 8.47664671,5.4276275 7.39560878,6.55180673 C6.31457086,7.67679125 5.7748503,9.44358868 5.7748503,11.8538096 C5.7748503,14.0345241 6.28103792,15.6467066 7.29341317,16.6911625 C8.30578842,17.7356184 9.8251497,18.2574437 11.8506986,18.2574437 C13.1696607,18.2574437 14.3984032,18.0738385 15.5377246,17.7066281 L15.5377246,13.5062565 L10.792016,13.5062565 L10.792016,10.0290316 L20.1461078,10.0290316 L20.1461078,21.0123271 C19.2590818,21.586496 18.1205589,22.056783 16.7329341,22.4231881 C15.344511,22.7912038 13.7053892,22.9756143 11.8171657,22.9756143 C8.03752495,22.9764196 5.15369261,22.0124923 3.16247505,20.0838323 Z" id="Shape"></path>
                    <path d="M26.6075848,20.0838323 C24.6155689,18.1551724 23.6199601,15.4131737 23.6199601,11.8546149 C23.6199601,8.11325625 24.6443114,5.22147429 26.693014,3.17846376 C28.7401198,1.13545323 31.710978,0.113545323 35.6023952,0.113545323 C38.1740519,0.113545323 40.4159681,0.435659715 42.3281437,1.07747264 L42.3281437,5.82865992 C40.598004,5.18604171 38.4926148,4.8647326 36.011976,4.8647326 C33.6447106,4.8647326 31.9209581,5.4276275 30.8399202,6.55180673 C29.7588822,7.67679125 29.2191617,9.44358868 29.2191617,11.8538096 C29.2191617,14.0345241 29.7253493,15.6467066 30.7377246,16.6911625 C31.7500998,17.7356184 33.2694611,18.2574437 35.29501,18.2574437 C36.6139721,18.2574437 37.8427146,18.0738385 38.9820359,17.7066281 L38.9820359,13.5062565 L34.2363273,13.5062565 L34.2363273,10.0290316 L43.5904192,10.0290316 L43.5904192,21.0123271 C42.7033932,21.586496 41.5640719,22.056783 40.1772455,22.4231881 C38.7888224,22.7912038 37.1497006,22.9756143 35.261477,22.9756143 C31.4834331,22.9764196 28.598004,22.0124923 26.6075848,20.0838323 Z" id="Shape"></path>
                    <path d="M50.7457086,22.6494735 C49.4818363,22.431241 48.3952096,22.1147636 47.4850299,21.7024572 L47.4850299,16.9850919 C48.5093812,17.4441049 49.6247505,17.8064836 50.8303393,18.0698121 C52.0367265,18.3339459 53.1856287,18.4660128 54.2770459,18.4660128 C55.7572854,18.4660128 56.803992,18.3339459 57.4187625,18.0698121 C58.0335329,17.8064836 58.3401198,17.2604997 58.3401198,16.4342763 C58.3401198,15.8609127 58.1804391,15.4075367 57.8618762,15.0741483 C57.5433134,14.7415651 57.059481,14.4540781 56.4111776,14.2132975 C55.7628743,13.972517 54.6986028,13.6334916 53.2199601,13.1970266 C51.6942116,12.7388189 50.4942116,12.2274623 49.6175649,11.6653727 C48.7417166,11.1032831 48.1101796,10.4260376 47.7229541,9.63444146 C47.3373253,8.84284534 47.142515,7.84992773 47.142515,6.65649391 C47.142515,4.52168078 47.8994012,2.89822424 49.4131737,1.78451373 C50.9269461,0.671608507 53.1393214,0.114350609 56.0518962,0.114350609 C57.2582834,0.114350609 58.4694611,0.206153211 59.6878244,0.389758414 C60.9053892,0.574168904 61.9121756,0.802870122 62.708982,1.07827793 L62.708982,5.82946521 C60.8199601,5.07249639 58.8742515,4.69320669 56.8718563,4.69320669 C55.4826347,4.69320669 54.4471058,4.82607888 53.7644711,5.08940739 C53.0826347,5.35354119 52.7409182,5.8640925 52.7409182,6.62186661 C52.7409182,7.10423291 52.8774451,7.48835433 53.150499,7.77503613 C53.4235529,8.06252323 53.8618762,8.31457774 54.4646707,8.53281024 C55.0682635,8.75104274 56.0183633,9.03208755 57.3157685,9.37594466 C59.0674651,9.85831096 60.4263473,10.4324799 61.3948104,11.0976461 C62.3616766,11.7636176 63.0331337,12.5262234 63.4075848,13.3870741 C63.7844311,14.2479248 63.9712575,15.2633905 63.9712575,16.4342763 C63.9712575,18.4539335 63.1968064,20.049205 61.6502994,21.2192856 C60.1021956,22.3909767 57.8267465,22.9764196 54.8231537,22.9764196 C53.3676647,22.9764196 52.007984,22.8669007 50.7457086,22.6494735 Z" id="Shape"></path>
                </g>
                <g id="Group" transform="translate(68.263473, 32.335329)">
                    <polygon id="Shape" points="0.172202198 0.540518962 1.43713447 0.540518962 1.43713447 6.61237525 0.172202198 6.61237525"></polygon>
                    <polygon id="Shape" points="5.36048776 1.52095808 3.5043544 1.52095808 3.5043544 0.539720559 8.4720307 0.539720559 8.4720307 1.52095808 6.62542003 1.52095808 6.62542003 6.61237525 5.36048776 6.61237525 5.36048776 1.52095808"></polygon>
                    <path d="M15.9783007,5.89221557 C15.4339195,5.34770459 15.1633161,4.59481038 15.1633161,3.63273453 C15.1633161,2.61477046 15.4267775,1.82994012 15.9552875,1.27664671 C16.4830039,0.723353293 17.2591041,0.447105788 18.2843817,0.447105788 C18.9335126,0.447105788 19.5334428,0.546906188 20.0833789,0.748103792 L20.0833789,1.86187625 C19.5524882,1.64071856 18.9835068,1.53133733 18.3788152,1.53133733 C17.697942,1.53133733 17.2051421,1.70299401 16.9027963,2.04630739 C16.5988634,2.38802395 16.4480873,2.91816367 16.4480873,3.63353293 C16.4480873,4.30738523 16.6091797,4.80798403 16.9305709,5.13852295 C17.2519621,5.46746507 17.7407941,5.63273453 18.3978606,5.63273453 C19.0096942,5.63273453 19.5747079,5.52654691 20.0936951,5.31337325 L20.0936951,6.43433134 C19.5382042,6.61716567 18.9382739,6.70738523 18.294698,6.70738523 C17.2932271,6.70578842 16.5210947,6.43512974 15.9783007,5.89221557 Z" id="Shape"></path>
                    <path d="M22.0379135,3.60479042 C22.0379135,2.51177645 22.2807424,1.71177645 22.7648131,1.20479042 C23.2480902,0.699401198 23.983719,0.447105788 24.9716993,0.447105788 C25.9580926,0.447105788 26.6945149,0.699401198 27.1785855,1.20479042 C27.6618627,1.71177645 27.9046916,2.51177645 27.9046916,3.60479042 C27.9046916,5.67265469 26.9270275,6.70658683 24.9716993,6.70658683 C23.0155776,6.70578842 22.0379135,5.67185629 22.0379135,3.60479042 Z M26.2175862,5.12814371 C26.485809,4.79760479 26.6207139,4.29061876 26.6207139,3.60479042 C26.6207139,2.85748503 26.4897768,2.3241517 26.2271089,2.00638723 C25.964441,1.69021956 25.5462357,1.53053892 24.9716993,1.53053892 C24.3963694,1.53053892 23.9781641,1.68942116 23.7154962,2.00638723 C23.4536219,2.3241517 23.3218912,2.85748503 23.3218912,3.60479042 C23.3218912,4.29061876 23.4560026,4.79760479 23.7250189,5.12814371 C23.9932417,5.45708583 24.4090663,5.62235529 24.9716993,5.62235529 C25.5335387,5.62235529 25.9485699,5.45708583 26.2175862,5.12814371 Z" id="Shape"></path>
                    <polygon id="Shape" points="30.1822045 0.540518962 31.2789024 0.540518962 34.1380937 4.58522954 34.1380937 0.540518962 35.403026 0.540518962 35.403026 6.61237525 34.3063281 6.61237525 31.4479304 2.56766467 31.4479304 6.61237525 30.1822045 6.61237525"></polygon>
                    <path d="M37.8043341,6.37684631 L37.8043341,5.25429142 C38.0860473,5.36846307 38.3860124,5.45868263 38.7042294,5.52894212 C39.0232399,5.59760479 39.3327277,5.63193613 39.6326929,5.63193613 C40.1008924,5.63193613 40.4310127,5.58802395 40.6214668,5.500998 C40.8111273,5.41237525 40.9071478,5.22954092 40.9071478,4.95329341 C40.9071478,4.77045908 40.8627086,4.6259481 40.7754171,4.51976048 C40.6881257,4.41197605 40.543698,4.32015968 40.3445149,4.24031936 C40.1445381,4.16207585 39.8318761,4.06227545 39.4065287,3.94411178 C38.7756497,3.76766467 38.3320505,3.54810379 38.0765246,3.28463074 C37.8202052,3.01956088 37.6916487,2.65628743 37.6916487,2.19001996 C37.6916487,1.63033932 37.8947997,1.2 38.3011017,0.899001996 C38.7081972,0.596407186 39.2978112,0.447105788 40.0723243,0.447105788 C40.4222836,0.447105788 40.7547846,0.470259481 41.0706209,0.517365269 C41.3864572,0.564471058 41.6443637,0.625149701 41.8443404,0.700998004 L41.8443404,1.82195609 C41.3317016,1.62874251 40.7984303,1.53053892 40.2413522,1.53053892 C39.8167984,1.53053892 39.4985815,1.57764471 39.2898756,1.67105788 C39.0803761,1.76606786 38.9756264,1.93932136 38.9756264,2.19001996 C38.9756264,2.34730539 39.0153043,2.47345309 39.0922795,2.56766467 C39.1708418,2.66267465 39.3025725,2.74570858 39.4858845,2.81676647 C39.6707837,2.89021956 39.9564647,2.9756487 40.3437213,3.0754491 C41.0436399,3.26387226 41.5277106,3.50898204 41.7967269,3.80678643 C42.0649497,4.10618762 42.1990611,4.48862275 42.1990611,4.95329341 C42.1990611,5.500998 41.9927359,5.92974052 41.5816726,6.23952096 C41.1682286,6.55169661 40.5595692,6.70578842 39.7533138,6.70578842 C38.9470583,6.70578842 38.2979274,6.59720559 37.8043341,6.37684631 Z" id="Shape"></path>
                    <path d="M45.0741236,6.09341317 C44.5956078,5.68463074 44.3575403,5.09700599 44.3575403,4.33133733 L44.3575403,0.540518962 L45.6232661,0.540518962 L45.6232661,4.23632735 C45.6232661,4.69620758 45.7462677,5.04111776 45.9930644,5.27345309 C46.2406546,5.50578842 46.5945817,5.62315369 47.0572263,5.62315369 C47.5198709,5.62315369 47.8722109,5.50658683 48.1166269,5.27345309 C48.3602494,5.04111776 48.4824574,4.69620758 48.4824574,4.23632735 L48.4824574,0.540518962 L49.7473897,0.540518962 L49.7473897,4.33133733 C49.7473897,5.09221557 49.5101157,5.67744511 49.0355677,6.08862275 C48.5610197,6.4998004 47.900779,6.70578842 47.0580199,6.70578842 C46.2152607,6.70578842 45.5518458,6.50219561 45.0741236,6.09341317 Z" id="Shape"></path>
                    <polygon id="Shape" points="52.2137695 0.540518962 53.4787018 0.540518962 53.4787018 5.63193613 56.4497849 5.63193613 56.4497849 6.61317365 52.2137695 6.61317365"></polygon>
                    <polygon id="Shape" points="59.2454915 1.52095808 57.3893582 1.52095808 57.3893582 0.539720559 62.3562409 0.539720559 62.3562409 1.52095808 60.5104238 1.52095808 60.5104238 6.61237525 59.2454915 6.61237525"></polygon>
                    <polygon id="Shape" points="64.4282222 0.540518962 65.693948 0.540518962 65.693948 6.61237525 64.4282222 6.61237525"></polygon>
                    <polygon id="Shape" points="68.1944509 0.540518962 69.2911488 0.540518962 72.1495465 4.58522954 72.1495465 0.540518962 73.4152724 0.540518962 73.4152724 6.61237525 72.3185745 6.61237525 69.4601767 2.56766467 69.4601767 6.61237525 68.1944509 6.61237525"></polygon>
                    <path d="M76.4839631,5.91057884 C75.9522789,5.37884232 75.6872304,4.63473054 75.6872304,3.68063872 C75.6872304,2.66267465 75.9578338,1.86826347 76.4974536,1.2998004 C77.0386605,0.730538922 77.8234899,0.447105788 78.855116,0.447105788 C79.5423377,0.447105788 80.1478228,0.530938124 80.6731585,0.700998004 L80.6731585,1.79401198 C80.1859136,1.61916168 79.6105837,1.53053892 78.9487559,1.53053892 C78.2424888,1.53053892 77.736992,1.70538922 77.4306784,2.05429142 C77.1243649,2.40239521 76.9712081,2.94451098 76.9712081,3.68063872 C76.9712081,4.98123752 77.580661,5.63113772 78.7987733,5.63113772 C79.2169787,5.63113772 79.6050288,5.56886228 79.960543,5.44271457 L79.960543,4.02874251 L78.5551509,4.02874251 L78.5551509,3.21756487 L81.0294663,3.21756487 L81.0294663,6.18842315 C80.7921923,6.33932136 80.4858787,6.46307385 80.1113191,6.56127745 C79.7359659,6.65788423 79.2931603,6.70658683 78.7805215,6.70658683 C77.7806378,6.70578842 77.0148538,6.44071856 76.4839631,5.91057884 Z" id="Shape"></path>
                </g>
                <path d="M35.9289342,40.4191617 C36.0933651,40.3556714 36.2538433,40.2826577 36.4072067,40.194565 L47.6390996,33.6844357 C48.726873,33.0535015 49.4011976,31.8805195 49.4011976,30.6186512 L49.4011976,17.5991862 C49.4011976,17.4190327 49.3845964,17.24126 49.3569278,17.0658683 L35.9281437,24.8497703 L35.9281437,40.4191617 L35.9289342,40.4191617 Z" id="Shape"></path>
                <path d="M51.0545582,7.92217621 L39.6619996,1.45673449 C37.9849958,0.503708517 36.0713988,0 34.1313355,0 C32.1912722,0 30.2784773,0.504496794 28.6006714,1.45752277 L17.2073108,7.92217621 C13.7955583,9.85818266 11.6766467,13.4653347 11.6766467,17.3365593 L11.6766467,30.2674428 C11.6766467,34.1394557 13.7955583,37.7466078 17.2073108,39.6834025 L28.6030774,46.1480559 C30.2808833,47.1010819 32.1928762,47.6047904 34.1321375,47.6047904 C36.0738049,47.6047904 37.9865998,47.1010819 39.6652077,46.1464794 L51.0561622,39.6834025 C54.4679147,37.7466078 56.5868263,34.1394557 56.5868263,30.2674428 L56.5868263,17.3365593 C56.5868263,13.4653347 54.4671127,9.85739438 51.0545582,7.92217621 Z M53.9810944,30.2674428 C53.9810944,33.2376677 52.3690533,35.980869 49.7528952,37.4651931 L38.3603367,43.9298466 C37.0522576,44.6731911 35.5934006,45.0444692 34.1321375,45.0444692 C32.6740825,45.0444692 31.2128195,44.6731911 29.9055424,43.9314231 L18.5097758,37.4651931 C15.8928157,35.980869 14.2823787,33.2376677 14.2823787,30.2674428 L14.2823787,17.3365593 C14.2823787,14.3671228 15.8952217,11.6239214 18.5097758,10.1395973 L29.9055424,3.67415556 C31.2128195,2.93081106 32.6732805,2.56032123 34.1321375,2.56032123 C35.5917966,2.56032123 37.0530596,2.93081106 38.3603367,3.67415556 L49.7528952,10.1395973 C52.3698554,11.6239214 53.9810944,14.367911 53.9810944,17.3365593 L53.9810944,30.2674428 Z" id="Shape"></path>
                <path d="M4.93935266,1.79640719 C7.67022632,1.79640719 9.88023952,4.00676361 9.88023952,6.73575973 C9.88023952,9.46475584 7.66945922,11.6766467 4.93935266,11.6766467 C2.2123145,11.6766467 0,9.46475584 0,6.73575973 C6.81321081e-16,4.00676361 2.2123145,1.79640719 4.93935266,1.79640719 Z" id="Shape"></path>
                <path d="M26.1160852,17.3344682 C26.1160852,17.7551345 26.0614307,18.1621271 25.9671716,18.5546417 L34.151874,23.3532934 L47.6047904,15.4660023 C47.4685503,15.3550043 47.3243893,15.2520496 47.1715153,15.1619643 L35.9182425,8.56401924 C35.3819952,8.24952497 34.7712911,8.08383234 34.151874,8.08383234 C33.5332489,8.08383234 32.9225448,8.24952497 32.3855054,8.56401924 L24.251497,13.3329107 C25.3897354,14.2820238 26.1160852,15.7225845 26.1160852,17.3344682 Z" id="Shape"></path>
                <path d="M19.760479,22.0436946 L19.760479,31.3269959 C19.760479,32.6133096 20.4356338,33.809015 21.5226805,34.4521718 L32.756023,41.0884176 C32.9086048,41.1782169 33.069883,41.2526451 33.2335329,41.3173653 L33.2335329,25.4463582 L25.132466,20.6586826 C24.201954,21.6820705 22.8785241,22.3268454 21.4048842,22.3268454 C20.8285518,22.3268454 20.2767274,22.2241021 19.760479,22.0436946 Z" id="Shape"></path>
            </g>
        </g>
    </g>
</svg>