<?xml version="1.0" encoding="utf-8"?>
<!-- Generator: Adobe Illustrator 16.0.0, SVG Export Plug-In . SVG Version: 6.00 Build 0)  -->
<!DOCTYPE svg PUBLIC "-//W3C//DTD SVG 1.1//EN" "http://www.w3.org/Graphics/SVG/1.1/DTD/svg11.dtd" [
	<!ENTITY ns_flows "http://ns.adobe.com/Flows/1.0/">
	<!ENTITY ns_extend "http://ns.adobe.com/Extensibility/1.0/">
	<!ENTITY ns_ai "http://ns.adobe.com/AdobeIllustrator/10.0/">
	<!ENTITY ns_graphs "http://ns.adobe.com/Graphs/1.0/">
	<!ENTITY ns_vars "http://ns.adobe.com/Variables/1.0/">
	<!ENTITY ns_imrep "http://ns.adobe.com/ImageReplacement/1.0/">
	<!ENTITY ns_sfw "http://ns.adobe.com/SaveForWeb/1.0/">
	<!ENTITY ns_custom "http://ns.adobe.com/GenericCustomNamespace/1.0/">
	<!ENTITY ns_adobe_xpath "http://ns.adobe.com/XPath/1.0/">
]>
<svg version="1.1"
	 xmlns:x="&ns_extend;" xmlns:i="&ns_ai;" xmlns:graph="&ns_graphs;" i:viewOrigin="225.9629 366.3721" i:rulerOrigin="-225.9629 -249.2598" i:pageBounds="225.9629 366.3721 590.9541 249.2598"
	 xmlns="http://www.w3.org/2000/svg" xmlns:xlink="http://www.w3.org/1999/xlink" xmlns:a="http://ns.adobe.com/AdobeSVGViewerExtensions/3.0/"
	 x="0px" y="0px" width="364.991px" height="117.112px" viewBox="0 0 364.991 117.112" enable-background="new 0 0 364.991 117.112"
	 xml:space="preserve">
<metadata>
	<variableSets  xmlns="&ns_vars;">
		<variableSet  locked="none" varSetName="binding1">
			<variables></variables>
			<v:sampleDataSets  xmlns:v="&ns_vars;" xmlns="&ns_custom;"></v:sampleDataSets>
		</variableSet>
	</variableSets>
</metadata>
<g id="Warstwa_1" i:layer="yes" i:dimmedPercent="50" i:rgbTrio="#4F008000FFFF">
	<g>
		<g>
			<path i:knockout="Off" fill="#3023AE" d="M170.786,63.191c-4.838-4.644-7.255-11.248-7.255-19.816
				c0-9.009,2.487-15.974,7.462-20.894c4.974-4.919,12.188-7.379,21.64-7.379c6.245,0,11.69,0.775,16.334,2.32v11.443
				c-4.202-1.547-9.314-2.322-15.339-2.322c-5.75,0-9.937,1.355-12.562,4.065c-2.625,2.706-3.938,6.962-3.938,12.767
				c0,5.253,1.23,9.134,3.689,11.65c2.46,2.515,6.15,3.771,11.069,3.771c3.206,0,6.19-0.44,8.956-1.325V47.355h-11.526v-8.374
				h22.719v26.448c-2.155,1.384-4.922,2.518-8.291,3.4c-3.372,0.883-7.354,1.327-11.94,1.327
				C182.626,70.156,175.622,67.834,170.786,63.191"/>
			<path i:knockout="Off" fill="#3023AE" d="M227.729,63.191c-4.837-4.644-7.255-11.248-7.255-19.816
				c0-9.009,2.487-15.974,7.463-20.894c4.974-4.919,12.187-7.379,21.64-7.379c6.245,0,11.69,0.775,16.335,2.32v11.443
				c-4.204-1.547-9.315-2.322-15.34-2.322c-5.751,0-9.937,1.355-12.562,4.065c-2.626,2.706-3.939,6.962-3.939,12.767
				c0,5.253,1.23,9.134,3.69,11.65c2.46,2.515,6.148,3.771,11.067,3.771c3.206,0,6.191-0.44,8.957-1.325V47.355h-11.526v-8.374
				h22.719v26.448c-2.156,1.384-4.919,2.518-8.291,3.4c-3.372,0.883-7.353,1.327-11.939,1.327
				C239.57,70.156,232.565,67.834,227.729,63.191"/>
			<path i:knockout="Off" fill="#3023AE" d="M286.355,69.368c-3.068-0.522-5.709-1.285-7.919-2.279V55.728
				c2.488,1.109,5.196,1.98,8.126,2.613c2.93,0.636,5.722,0.954,8.373,0.954c3.593,0,6.139-0.318,7.63-0.954
				c1.492-0.633,2.238-1.947,2.238-3.939c0-1.38-0.388-2.471-1.162-3.273c-0.773-0.802-1.947-1.494-3.523-2.074
				c-1.574-0.58-4.159-1.395-7.752-2.446c-3.704-1.105-6.621-2.336-8.747-3.691c-2.129-1.352-3.66-2.984-4.603-4.891
				c-0.938-1.906-1.409-4.297-1.409-7.172c0-5.14,1.838-9.05,5.514-11.732c3.677-2.682,9.05-4.021,16.126-4.021
				c2.931,0,5.873,0.222,8.831,0.663c2.958,0.444,5.402,0.995,7.338,1.658v11.442c-4.587-1.824-9.314-2.736-14.177-2.736
				c-3.374,0-5.889,0.318-7.547,0.954c-1.657,0.636-2.486,1.866-2.486,3.689c0,1.16,0.332,2.087,0.994,2.778
				c0.663,0.691,1.727,1.299,3.19,1.825c1.466,0.526,3.775,1.201,6.926,2.03c4.257,1.161,7.557,2.544,9.908,4.147
				c2.348,1.603,3.979,3.44,4.891,5.513c0.913,2.072,1.369,4.521,1.369,7.337c0,4.865-1.882,8.708-5.639,11.527
				c-3.762,2.818-9.286,4.227-16.582,4.227C292.726,70.156,289.422,69.893,286.355,69.368"/>
			<rect x="167.401" y="80.135" i:knockout="Off" fill="#3023AE" width="3.092" height="14.748"/>
			<polygon i:knockout="Off" fill="#3023AE" points="180.081,82.516 175.545,82.516 175.545,80.135 187.685,80.135 187.685,82.516 
				183.171,82.516 183.171,94.883 180.081,94.883 			"/>
			<path i:knockout="Off" fill="#3023AE" d="M206.026,93.131c-1.328-1.319-1.992-3.15-1.992-5.484c0-2.476,0.645-4.382,1.935-5.726
				c1.291-1.344,3.188-2.017,5.691-2.017c1.588,0,3.054,0.244,4.396,0.734v2.703c-1.297-0.536-2.687-0.803-4.168-0.803
				c-1.664,0-2.866,0.416-3.606,1.248c-0.741,0.832-1.111,2.118-1.111,3.859c0,1.635,0.394,2.85,1.18,3.652
				c0.787,0.802,1.981,1.202,3.584,1.202c1.496,0,2.878-0.26,4.146-0.778v2.725c-1.358,0.442-2.825,0.663-4.397,0.663
				C209.24,95.11,207.354,94.451,206.026,93.131"/>
			<path i:knockout="Off" fill="#3023AE" d="M220.835,87.578c0-2.657,0.593-4.601,1.774-5.829c1.184-1.229,2.98-1.845,5.394-1.845
				c2.412,0,4.211,0.616,5.395,1.845c1.183,1.229,1.774,3.172,1.774,5.829c0,5.021-2.391,7.532-7.169,7.532
				S220.835,92.6,220.835,87.578 M231.049,91.275c0.656-0.802,0.985-2.033,0.985-3.697c0-1.816-0.321-3.112-0.963-3.885
				c-0.64-0.771-1.662-1.154-3.068-1.154c-1.404,0-2.427,0.384-3.067,1.154c-0.643,0.772-0.963,2.068-0.963,3.885
				c0,1.664,0.328,2.896,0.984,3.697c0.656,0.801,1.672,1.203,3.046,1.203S230.393,92.076,231.049,91.275"/>
			<polygon i:knockout="Off" fill="#3023AE" points="240.738,80.135 243.418,80.135 250.402,89.957 250.402,80.135 253.495,80.135 
				253.495,94.883 250.813,94.883 243.83,85.058 243.83,94.883 240.738,94.883 			"/>
			<path i:knockout="Off" fill="#3023AE" d="M259.363,94.309v-2.724c0.688,0.273,1.422,0.496,2.2,0.663
				c0.778,0.169,1.534,0.253,2.267,0.253c1.144,0,1.95-0.106,2.416-0.321c0.465-0.214,0.699-0.656,0.699-1.329
				c0-0.442-0.108-0.792-0.321-1.052c-0.214-0.261-0.566-0.485-1.053-0.675c-0.49-0.19-1.253-0.432-2.292-0.724
				c-1.54-0.427-2.626-0.962-3.252-1.602c-0.625-0.641-0.939-1.527-0.939-2.656c0-1.359,0.498-2.406,1.49-3.137
				c0.992-0.734,2.436-1.102,4.327-1.102c0.856,0,1.668,0.058,2.439,0.172c0.771,0.114,1.401,0.264,1.89,0.448v2.725
				c-1.251-0.474-2.558-0.711-3.917-0.711c-1.038,0-1.812,0.114-2.323,0.345c-0.512,0.228-0.768,0.647-0.768,1.26
				c0,0.381,0.096,0.685,0.288,0.915c0.189,0.229,0.51,0.432,0.961,0.607c0.45,0.175,1.148,0.387,2.096,0.63
				c1.709,0.459,2.892,1.049,3.549,1.775c0.656,0.725,0.983,1.653,0.983,2.78c0,1.329-0.502,2.372-1.51,3.129
				c-1.009,0.755-2.497,1.131-4.466,1.131S260.57,94.845,259.363,94.309"/>
			<path i:knockout="Off" fill="#3023AE" d="M277.13,93.623c-1.169-0.992-1.755-2.419-1.755-4.281v-9.207h3.095v8.976
				c0,1.116,0.301,1.955,0.903,2.52c0.603,0.565,1.469,0.849,2.6,0.849c1.13,0,1.992-0.283,2.589-0.849
				c0.595-0.564,0.893-1.403,0.893-2.52v-8.976h3.092v9.207c0,1.846-0.58,3.27-1.741,4.271c-1.16,1-2.771,1.498-4.832,1.498
				C279.911,95.11,278.297,94.615,277.13,93.623"/>
			<polygon i:knockout="Off" fill="#3023AE" points="294.575,80.135 297.667,80.135 297.667,92.501 304.927,92.501 304.927,94.883 
				294.575,94.883 			"/>
			<polygon i:knockout="Off" fill="#3023AE" points="311.759,82.516 307.223,82.516 307.223,80.135 319.361,80.135 319.361,82.516 
				314.85,82.516 314.85,94.883 311.759,94.883 			"/>
			<rect x="324.425" y="80.135" i:knockout="Off" fill="#3023AE" width="3.091" height="14.748"/>
			<polygon i:knockout="Off" fill="#3023AE" points="333.627,80.135 336.306,80.135 343.291,89.957 343.291,80.135 346.382,80.135 
				346.382,94.883 343.703,94.883 336.718,85.058 336.718,94.883 333.627,94.883 			"/>
			<path i:knockout="Off" fill="#3023AE" d="M353.885,93.177c-1.3-1.29-1.948-3.096-1.948-5.416c0-2.474,0.662-4.402,1.981-5.784
				c1.32-1.381,3.242-2.071,5.761-2.071c1.68,0,3.161,0.207,4.441,0.619v2.655c-1.189-0.429-2.596-0.641-4.212-0.641
				c-1.727,0-2.963,0.423-3.71,1.271c-0.748,0.849-1.123,2.165-1.123,3.951c0,3.161,1.488,4.74,4.466,4.74
				c1.022,0,1.969-0.152,2.838-0.459v-3.435h-3.434v-1.969h6.046v7.214c-0.58,0.365-1.327,0.667-2.243,0.906
				c-0.917,0.235-2.001,0.352-3.252,0.352C357.055,95.11,355.184,94.467,353.885,93.177"/>
			<path i:knockout="Off" fill="#3023AE" d="M87.32,98.42c0.404-0.155,0.798-0.332,1.175-0.55l27.552-15.907
				c2.668-1.541,4.324-4.41,4.324-7.492V42.658c0-0.439-0.044-0.874-0.109-1.301L87.32,60.373V98.42z"/>
		</g>
		<g>
			<defs>
				<path id="SVGID_1_" d="M73.951,108.076L46.398,92.168c-6.328-3.655-10.221-10.402-10.221-17.706V42.65
					c0-7.303,3.897-14.054,10.221-17.706L73.951,9.039c3.162-1.828,6.693-2.74,10.22-2.74c3.53,0,7.062,0.912,10.225,2.74
					l27.547,15.905c6.325,3.652,10.225,10.403,10.225,17.706v31.812c0,7.304-3.9,14.051-10.225,17.706l-27.547,15.904
					c-3.163,1.83-6.692,2.741-10.225,2.741C80.644,110.813,77.113,109.902,73.951,108.076 M70.798,3.586L43.249,19.489
					C35,24.252,29.876,33.127,29.876,42.65v31.812c0,9.522,5.124,18.398,13.373,23.161l27.553,15.908
					c4.057,2.342,8.681,3.581,13.369,3.581c4.694,0,9.319-1.241,13.38-3.589l27.542-15.9c8.249-4.764,13.374-13.639,13.374-23.161
					V42.65c0-9.525-5.125-18.399-13.375-23.161L97.545,3.584C93.49,1.241,88.864,0,84.171,0C79.478,0,74.856,1.241,70.798,3.586"/>
			</defs>
			<clipPath id="SVGID_2_">
				<use xlink:href="#SVGID_1_"  overflow="visible"/>
			</clipPath>
			
				<linearGradient id="SVGID_3_" gradientUnits="userSpaceOnUse" x1="-225.9595" y1="366.376" x2="-224.9595" y2="366.376" gradientTransform="matrix(-81.2696 -81.2696 -81.2696 81.2696 11536.4102 -48039.6367)">
				<stop  offset="0" style="stop-color:#3023AE"/>
				<stop  offset="0.1326" style="stop-color:#3C29B1"/>
				<stop  offset="0.3727" style="stop-color:#5C38BA"/>
				<stop  offset="0.6904" style="stop-color:#8F51C8"/>
				<stop  offset="1" style="stop-color:#C86DD7"/>
				<a:midPointStop  offset="0" style="stop-color:#3023AE"/>
				<a:midPointStop  offset="0.5755" style="stop-color:#3023AE"/>
				<a:midPointStop  offset="1" style="stop-color:#C86DD7"/>
			</linearGradient>
			<polygon i:knockout="Off" clip-path="url(#SVGID_2_)" fill="url(#SVGID_3_)" points="84.172,171.407 -28.68,58.556 
				84.171,-54.295 197.023,58.556 			"/>
		</g>
		<g>
			<path i:knockout="Off" fill="#C86DD7" d="M12.487,4.3c6.902,0,12.491,5.587,12.491,12.484c0,6.901-5.589,12.49-12.491,12.49
				C5.594,29.274,0,23.685,0,16.784C0,9.887,5.594,4.3,12.487,4.3"/>
		</g>
		<g>
			<defs>
				<path id="SVGID_4_" d="M79.845,19.263L59.933,30.758c2.785,2.292,4.563,5.762,4.563,9.65c0,1.015-0.134,1.998-0.362,2.941
					L84.171,54.92l32.936-19.016c-0.334-0.268-0.684-0.517-1.06-0.734l-27.55-15.907c-1.312-0.758-2.808-1.159-4.326-1.159
					C82.657,18.104,81.163,18.505,79.845,19.263"/>
			</defs>
			<clipPath id="SVGID_5_">
				<use xlink:href="#SVGID_4_"  overflow="visible"/>
			</clipPath>
			
				<linearGradient id="SVGID_6_" gradientUnits="userSpaceOnUse" x1="-225.9614" y1="366.3701" x2="-224.9614" y2="366.3701" gradientTransform="matrix(-16.522 -28.6169 -28.6169 16.522 6846.4541 -12471.0518)">
				<stop  offset="0" style="stop-color:#3023AE"/>
				<stop  offset="0.4604" style="stop-color:#854CC5"/>
				<stop  offset="0.8467" style="stop-color:#C86DD7"/>
				<stop  offset="1" style="stop-color:#C86DD7"/>
				<a:midPointStop  offset="0" style="stop-color:#3023AE"/>
				<a:midPointStop  offset="0.486" style="stop-color:#3023AE"/>
				<a:midPointStop  offset="0.8467" style="stop-color:#C86DD7"/>
				<a:midPointStop  offset="0.5" style="stop-color:#C86DD7"/>
				<a:midPointStop  offset="1" style="stop-color:#C86DD7"/>
			</linearGradient>
			<polygon i:knockout="Off" clip-path="url(#SVGID_5_)" fill="url(#SVGID_6_)" points="74.227,79.677 43.991,27.308 
				102.813,-6.653 133.049,45.716 			"/>
		</g>
		<g>
			<defs>
				<path id="SVGID_7_" d="M52.005,52.898c-1.412,0-2.766-0.244-4.032-0.679v22.251c0,3.082,1.656,5.951,4.322,7.492L79.85,97.871
					c0.374,0.216,0.769,0.394,1.172,0.549V60.373L61.148,48.9C58.867,51.353,55.622,52.898,52.005,52.898"/>
			</defs>
			<clipPath id="SVGID_8_">
				<use xlink:href="#SVGID_7_"  overflow="visible"/>
			</clipPath>
			
				<linearGradient id="SVGID_9_" gradientUnits="userSpaceOnUse" x1="-225.9629" y1="366.4209" x2="-224.9629" y2="366.4209" gradientTransform="matrix(-45.0036 -45.0036 -45.0036 45.0036 6406.2051 -26565.125)">
				<stop  offset="0" style="stop-color:#3023AE"/>
				<stop  offset="0.1144" style="stop-color:#3C29B1"/>
				<stop  offset="0.3215" style="stop-color:#5C38BA"/>
				<stop  offset="0.5955" style="stop-color:#8F51C8"/>
				<stop  offset="0.8626" style="stop-color:#C86DD7"/>
				<stop  offset="1" style="stop-color:#C86DD7"/>
				<a:midPointStop  offset="0" style="stop-color:#3023AE"/>
				<a:midPointStop  offset="0.5755" style="stop-color:#3023AE"/>
				<a:midPointStop  offset="0.8626" style="stop-color:#C86DD7"/>
				<a:midPointStop  offset="0.5" style="stop-color:#C86DD7"/>
				<a:midPointStop  offset="1" style="stop-color:#C86DD7"/>
			</linearGradient>
			<polygon i:knockout="Off" clip-path="url(#SVGID_8_)" fill="url(#SVGID_9_)" points="64.498,114.944 23.213,73.66 64.498,32.375 
				105.782,73.66 			"/>
		</g>
	</g>
</g>
</svg>
