<?xml version="1.0" encoding="UTF-8" standalone="no"?>
<svg width="14px" height="24px" viewBox="0 0 14 24" version="1.1" xmlns="http://www.w3.org/2000/svg" xmlns:xlink="http://www.w3.org/1999/xlink">
    <!-- Generator: Sketch 50.2 (55047) - http://www.bohemiancoding.com/sketch -->
    <title>arrow copy</title>
    <desc>Created with Sketch.</desc>
    <defs></defs>
    <g id="Page-1" stroke="none" stroke-width="1" fill="none" fill-rule="evenodd">
        <g id="Home-Copy-34" transform="translate(-1882.000000, -5497.000000)" fill="#FFFFFF">
            <g id="Group-6" transform="translate(1853.000000, 5478.000000)">
                <g id="arrow-copy-3" transform="translate(36.180000, 31.111111) scale(-1, 1) translate(-36.180000, -31.111111) translate(28.140000, 18.666667)">
                    <path d="M6.81185014,18.4506508 L-3.50749582,8.52800011 C-4.16416806,7.8967872 -4.16416806,6.87334661 -3.50749582,6.2423364 C-2.8512452,5.61152889 -1.7870778,5.61152889 -1.13082719,6.2423364 L8.00018446,15.0225607 L17.1307745,6.2427418 C17.7872359,5.61173159 18.8514033,5.61173159 19.5076539,6.2427418 C20.1641154,6.87354931 20.1641154,7.8969899 19.5076539,8.52820281 L9.18809716,18.4508536 C8.85986644,18.76646 8.43023626,18.9239592 8.00018446,18.9239592 C7.56992185,18.9239592 7.13987004,18.7660546 6.81185014,18.4506508" id="Fill-1" transform="translate(8.000000, 12.346595) rotate(90.000000) translate(-8.000000, -12.346595) "></path>
                </g>
            </g>
        </g>
    </g>
</svg>