<?xml version="1.0" encoding="UTF-8" standalone="no"?>
<svg width="120px" height="120px" viewBox="0 0 120 120" version="1.1" xmlns="http://www.w3.org/2000/svg" xmlns:xlink="http://www.w3.org/1999/xlink">
    <!-- Generator: Sketch 50.2 (55047) - http://www.bohemiancoding.com/sketch -->
    <title>Oval Copy 3</title>
    <desc>Created with Sketch.</desc>
    <defs></defs>
    <g id="Page-1" stroke="none" stroke-width="1" fill="none" fill-rule="evenodd">
        <g id="Beerweek-gotowe" transform="translate(-1050.000000, -3658.000000)">
            <g id="atrakcje" transform="translate(0.000000, 3446.000000)">
                <g id="3" transform="translate(601.000000, 212.000000)">
                    <g id="Oval-Copy-3" transform="translate(449.000000, 0.000000)">
                        <circle stroke="#E0A33B" stroke-width="5" cx="60" cy="60" r="57.5"></circle>
                        <g id="Group-6" transform="translate(37.272727, 20.909091)" fill-rule="evenodd" stroke="#F7F7F7" stroke-width="1">
                            <g>
                                <path d="M21.5625,67.8888889 L21.5625,76.5555556" id="Line-Copy-4" stroke-width="5" stroke-linecap="round"></path>
                                <g id="Group-3" transform="translate(14.375000, 28.888889)" stroke-linecap="round" stroke-width="5">
                                    <path d="M1.078125,0.361111111 L1.078125,14.0833333" id="Line"></path>
                                    <path d="M7.546875,0.361111111 L7.546875,14.0833333" id="Line-Copy"></path>
                                    <path d="M14.015625,0.361111111 L14.015625,14.0833333" id="Line-Copy-2"></path>
                                </g>
                                <path d="M14.375,77.2777778 L28.75,77.2777778" id="Line-Copy-5" stroke-width="5" stroke-linecap="round"></path>
                                <rect id="Rectangle-12" stroke-width="5" x="7.53125" y="2.5" width="28.0625" height="52.7777778" rx="14.03125"></rect>
                                <path d="M43.125,52 C43.125,62.3706803 36.3412064,66.4444444 27.972973,66.4444444 L15.152027,66.4444444 C6.78379357,66.4444444 0,62.3706803 0,52" id="Rectangle-12" stroke-width="5" stroke-linecap="round"></path>
                                <path d="M8.17534962,15.1248278 C9.46434761,17.8053066 11.3385565,19.145546 13.7979762,19.145546 C17.4871058,19.145546 18.9809564,16.6938634 20.500068,15.6748997 C22.0191796,14.655936 24.8805607,13.137106 28.9526118,15.6748997 C33.0246628,18.2126934 32.8528969,19.2018848 36.4305355,19.2018848" id="Path-4" stroke-width="5" stroke-linecap="round"></path>
                                <path d="M37.0087914,21.7570256 L41.3217889,21.7570256 C44.1524605,21.7937322 45.5677963,23.1636054 45.5677963,25.8666452 C45.5677963,28.5696851 45.5677963,33.0107879 45.5677963,39.1899536 C45.3823773,41.44378 43.8339804,42.4389586 40.9226057,42.1754894" id="Path-5" stroke-width="5" stroke-linecap="round"></path>
                            </g>
                        </g>
                    </g>
                </g>
            </g>
        </g>
    </g>
</svg>