<?xml version="1.0" encoding="UTF-8" standalone="no"?>
<svg width="38px" height="51px" viewBox="0 0 38 51" version="1.1" xmlns="http://www.w3.org/2000/svg" xmlns:xlink="http://www.w3.org/1999/xlink">
    <!-- Generator: Sketch 50.2 (55047) - http://www.bohemiancoding.com/sketch -->
    <title>location</title>
    <desc>Created with Sketch.</desc>
    <defs></defs>
    <g id="Page-1" stroke="none" stroke-width="1" fill="none" fill-rule="evenodd">
        <g id="Beerweek-gotowe" transform="translate(-702.000000, -6669.000000)" fill="#58A6B1">
            <g id="Mapa" transform="translate(0.000000, 6470.000000)">
                <g id="location" transform="translate(702.000000, 199.000000)">
                    <path d="M18.8,50.3030752 C6.26666667,37.7069717 0,27.8700492 0,20.7923077 C0,10.1756955 7.9752189,0 18.8,0 C29.6247811,0 37.6,10.1756955 37.6,20.7923077 C37.6,27.8700492 31.3333333,37.7069717 18.8,50.3030752 Z M18.8,25.8923077 C22.9973641,25.8923077 26.4,22.5551071 26.4,18.4384615 C26.4,14.321816 22.9973641,10.9846154 18.8,10.9846154 C14.6026359,10.9846154 11.2,14.321816 11.2,18.4384615 C11.2,22.5551071 14.6026359,25.8923077 18.8,25.8923077 Z" id="Combined-Shape"></path>
                </g>
            </g>
        </g>
    </g>
</svg>