<?xml version="1.0" encoding="UTF-8" standalone="no"?>
<svg width="28px" height="28px" viewBox="0 0 28 28" version="1.1" xmlns="http://www.w3.org/2000/svg" xmlns:xlink="http://www.w3.org/1999/xlink">
    <!-- Generator: Sketch 50.2 (55047) - http://www.bohemiancoding.com/sketch -->
    <title>Group 17</title>
    <desc>Created with Sketch.</desc>
    <defs>
        <linearGradient x1="-2.22044605e-14%" y1="50%" x2="100%" y2="50%" id="linearGradient-1">
            <stop stop-color="#FFAE07" offset="0%"></stop>
            <stop stop-color="#F78F1C" offset="100%"></stop>
        </linearGradient>
    </defs>
    <g id="Page-1" stroke="none" stroke-width="1" fill="none" fill-rule="evenodd">
        <g id="Home-Copy-24" transform="translate(-1344.000000, -30.000000)">
            <g id="Group-17" transform="translate(1344.000000, 30.000000)">
                <g id="Group-3-Copy" fill="url(#linearGradient-1)">
                    <rect id="Rectangle-16" x="0" y="0" width="28" height="28" rx="14"></rect>
                </g>
                <path d="M11.925,10 C14.115,10 14.785,10.51 14.785,12.35 C14.785,14.17 14.115,14.68 12.225,14.68 C11.875,14.68 11.515,14.66 11.175,14.62 L11.175,17 L9.005,17 L9.005,10.1 C9.925,10.01 10.545,10 11.925,10 Z M11.175,13.15 L11.875,13.15 C12.465,13.15 12.615,12.99 12.615,12.35 C12.615,11.69 12.465,11.53 11.875,11.53 L11.175,11.53 L11.175,13.15 Z M17.615,10.1 L17.615,14.92 C17.615,15.13 17.775,15.28 18.035,15.28 L20.355,15.28 L20.455,16.9 C19.425,17.04 18.215,17.04 17.085,17.04 C16.085,17.04 15.445,16.4 15.445,15.47 L15.445,10.1 L17.615,10.1 Z" id="PL" fill="#FFFFFF"></path>
            </g>
        </g>
    </g>
</svg>