<?xml version="1.0" encoding="UTF-8" standalone="no"?>
<svg width="52px" height="100px" viewBox="0 0 52 100" version="1.1" xmlns="http://www.w3.org/2000/svg" xmlns:xlink="http://www.w3.org/1999/xlink">
    <!-- Generator: Sketch 50.2 (55047) - http://www.bohemiancoding.com/sketch -->
    <title>left copy</title>
    <desc>Created with Sketch.</desc>
    <defs></defs>
    <g id="Page-1" stroke="none" stroke-width="1" fill="none" fill-rule="evenodd">
        <g id="Beerweek-gotowe" transform="translate(-1388.000000, -5498.000000)" fill="#58A6B1">
            <g id="galeria" transform="translate(0.000000, 5357.000000)">
                <g id="left" transform="translate(1414.000000, 191.000000) scale(-1, 1) translate(-1414.000000, -191.000000) translate(1388.000000, 141.000000)">
                    <path d="M21.9628448,52.0686265 L34.894887,52.0686265 C36.054685,52.0686265 36.994887,51.1284245 36.994887,49.9686265 C36.994887,48.8088286 36.054685,47.8686265 34.894887,47.8686265 L21.9666263,47.8686265 L27.3503286,42.4849242 C28.1704296,41.6648232 28.1704296,40.3351768 27.3503286,39.5150758 C26.5302276,38.6949747 25.2005811,38.6949747 24.3804801,39.5150758 L15.5150758,48.3804801 C15.0782834,48.8172724 14.8741302,49.3986081 14.902616,49.9705173 C14.8741302,50.5424265 15.0782834,51.1237622 15.5150758,51.5605545 L24.3804801,60.4259588 C25.2005811,61.2460598 26.5302276,61.2460598 27.3503286,60.4259588 C28.1704296,59.6058578 28.1704296,58.2762114 27.3503286,57.4561103 L21.9628448,52.0686265 Z M0,0 L52,0 L52,100 L0,100 L0,0 Z" id="Combined-Shape"></path>
                </g>
            </g>
        </g>
    </g>
</svg>