<?xml version="1.0" encoding="UTF-8" standalone="no"?>
<svg width="50px" height="50px" viewBox="0 0 50 50" version="1.1" xmlns="http://www.w3.org/2000/svg" xmlns:xlink="http://www.w3.org/1999/xlink">
    <!-- Generator: Sketch 48.2 (47327) - http://www.bohemiancoding.com/sketch -->
    <title>Fill 1</title>
    <desc>Created with Sketch.</desc>
    <defs></defs>
    <g id="Desktop-HD-Copy-16" stroke="none" stroke-width="1" fill="none" fill-rule="evenodd" transform="translate(-403.000000, -3959.000000)">
        <g id="Page-1" transform="translate(403.000000, 3959.000000)" fill="#FFFFFF">
            <path d="M38.75,22.7 C38.75,21.2334375 38.475,19.7917188 37.9251563,18.375 C37.375,16.9582812 36.5332813,15.6834375 35.4001563,14.55 C34.2667188,13.4167187 32.9915625,12.575 31.575,12.025 C30.1584375,11.475 28.716875,11.2 27.25,11.2 C25.783125,11.2 24.3417188,11.475 22.925,12.025 C21.5082813,12.575 20.2332813,13.4167187 19.1,14.55 C18.1332813,15.5167187 17.375,16.5917187 16.825,17.775 C16.275,18.9584375 15.9332812,20.1917188 15.8,21.475 C15.6667187,22.7584375 15.7417187,24.0334375 16.025,25.3 C16.3084375,26.5667188 16.8,27.75 17.5,28.85 L12.5,33.85 C11.9,34.45 11.6,35.1667188 11.6,35.9996875 C11.6,36.833125 11.9,37.5334375 12.5,38.0998438 C13.0665625,38.7 13.775,39 14.625,39 C15.475,39 16.1832813,38.7 16.75,38.0998438 L21.95,32.9 C23.05,33.4665625 24.1917188,33.85 25.375,34.05 C26.5582813,34.2496875 27.7417188,34.26625 28.925,34.0996875 C30.1082813,33.933125 31.2582813,33.5748438 32.375,33.0248438 C33.4917188,32.475 34.5001563,31.7498438 35.4001563,30.8496875 C36.5332813,29.7165625 37.375,28.4414063 37.9251563,27.025 C38.4748438,25.6084375 38.75,24.1667188 38.75,22.7 M50,25 C50,27.3 49.7,29.5165625 49.1,31.65 C48.4996875,33.783125 47.6584375,35.7748438 46.575,37.625 C45.4915625,39.475 44.1915625,41.1584375 42.675,42.675 C41.1584375,44.1915625 39.4751562,45.491875 37.625,46.575 C35.7748438,47.6582813 33.7832812,48.5 31.6498438,49.1 C29.5165625,49.7 27.3001563,50 25,50 C22.7,50 20.4832813,49.7 18.35,49.1 C16.2167188,48.4996875 14.225,47.6582813 12.375,46.575 C10.525,45.4915625 8.8415625,44.1915625 7.325,42.675 C5.80828125,41.1584375 4.5084375,39.475 3.425,37.625 C2.34171875,35.7748438 1.5,33.7832813 0.9,31.6498438 C0.3,29.5165625 0,27.3 0,25 C0,22.7 0.3,20.4832812 0.9,18.35 C1.5,16.2165625 2.34171875,14.225 3.425,12.375 C4.5084375,10.525 5.80828125,8.84171875 7.325,7.325 C8.8415625,5.80828125 10.525,4.50828125 12.375,3.425 C14.225,2.34171875 16.2167188,1.5 18.35,0.89984375 C20.4832813,0.3 22.7,0 25,0 C28.4332813,0 31.6751563,0.65828125 34.725,1.975 C37.775,3.2915625 40.4251563,5.075 42.675,7.325 C44.925,9.575 46.7084375,12.225 48.025,15.2748438 C49.3417188,18.325 50,21.5667187 50,25 M33.2,20.2748437 C33.5,21.0582812 33.65,21.8582812 33.65,22.675 C33.65,23.4915625 33.5,24.2917188 33.2,25.075 C32.9001563,25.8582813 32.4334375,26.5667188 31.8001563,27.2 C31.1667187,27.8332813 30.458125,28.3084375 29.6748437,28.625 C28.8915625,28.9415625 28.0834375,29.0996875 27.2496875,29.0996875 C26.41625,29.0996875 25.6082812,28.9414063 24.8248437,28.625 C24.0415625,28.3084375 23.333125,27.8332813 22.6998437,27.2 C22.0665625,26.5667188 21.5915625,25.8582813 21.2748437,25.075 C20.958125,24.2917188 20.7998437,23.4915625 20.7998437,22.675 C20.7998437,21.8582812 20.958125,21.0582812 21.2748437,20.2748437 C21.5915625,19.4915625 22.0665625,18.7832812 22.6998437,18.15 C23.333125,17.5165625 24.0415625,17.05 24.8248437,16.75 C25.6082812,16.45 26.4164062,16.3 27.2496875,16.3 C28.083125,16.3 28.8915625,16.45 29.6748437,16.75 C30.458125,17.05 31.1667187,17.5165625 31.8001563,18.15 C32.4334375,18.7832812 32.9001563,19.4915625 33.2,20.2748437" id="Fill-1"></path>
        </g>
    </g>
</svg>