<?xml version="1.0" encoding="utf-8"?>
<!-- Generator: Adobe Illustrator 15.0.0, SVG Export Plug-In . SVG Version: 6.00 Build 0)  -->
<!DOCTYPE svg PUBLIC "-//W3C//DTD SVG 1.1//EN" "http://www.w3.org/Graphics/SVG/1.1/DTD/svg11.dtd" [
	<!ENTITY ns_flows "http://ns.adobe.com/Flows/1.0/">
	<!ENTITY ns_extend "http://ns.adobe.com/Extensibility/1.0/">
	<!ENTITY ns_ai "http://ns.adobe.com/AdobeIllustrator/10.0/">
	<!ENTITY ns_graphs "http://ns.adobe.com/Graphs/1.0/">
	<!ENTITY ns_vars "http://ns.adobe.com/Variables/1.0/">
	<!ENTITY ns_imrep "http://ns.adobe.com/ImageReplacement/1.0/">
	<!ENTITY ns_sfw "http://ns.adobe.com/SaveForWeb/1.0/">
	<!ENTITY ns_custom "http://ns.adobe.com/GenericCustomNamespace/1.0/">
	<!ENTITY ns_adobe_xpath "http://ns.adobe.com/XPath/1.0/">
]>
<svg version="1.1"
	 xmlns:x="&ns_extend;" xmlns:i="&ns_ai;" xmlns:graph="&ns_graphs;" i:viewOrigin="296 0" i:rulerOrigin="-296 177" i:pageBounds="296 0 556 -177"
	 xmlns="http://www.w3.org/2000/svg" xmlns:xlink="http://www.w3.org/1999/xlink" xmlns:a="http://ns.adobe.com/AdobeSVGViewerExtensions/3.0/"
	 x="0px" y="0px" width="260px" height="177px" viewBox="0 0 260 177" enable-background="new 0 0 260 177" xml:space="preserve">
<metadata>
	<variableSets  xmlns="&ns_vars;">
		<variableSet  varSetName="binding1" locked="none">
			<variables></variables>
			<v:sampleDataSets  xmlns="&ns_custom;" xmlns:v="&ns_vars;"></v:sampleDataSets>
		</variableSet>
	</variableSets>
</metadata>
<g id="Warstwa_1" i:layer="yes" i:dimmedPercent="50" i:rgbTrio="#4F008000FFFF">
	<rect x="-296" y="0" i:knockout="Off" opacity="0.7" fill="#FFFFFF" width="260" height="177"/>
	<g>
		<g>
			<path i:knockout="Off" fill="#222222" d="M-121.234,115.879c-0.221-0.726-0.618-1.397-1.151-1.934l-22.64-22.642
				c6.154-12.888,3.897-28.791-6.775-39.464c-13.541-13.54-35.494-13.54-49.034-0.001c-13.54,13.541-13.54,35.495,0,49.035
				c10.673,10.674,26.58,12.929,39.467,6.774l22.639,22.643c0.855,0.854,2.062,1.357,3.272,1.357c1.211,0,2.409-0.497,3.265-1.353
				l9.809-9.809c0.854-0.856,1.353-2.053,1.353-3.263C-121.031,116.77-121.101,116.313-121.234,115.879L-121.234,115.879z
				 M-154.009,70.311c2.086,7.727,0.099,16.323-5.966,22.388c-9.025,9.026-23.66,9.028-32.687,0.001
				c-9.025-9.025-9.027-23.659-0.001-32.686c9.025-9.026,23.659-9.028,32.687-0.001C-157.015,62.974-155.025,66.538-154.009,70.311
				L-154.009,70.311z M-159.832,69.449c-0.037-0.113-0.078-0.225-0.127-0.333c-3.135-7.126-10.546-11.411-18.287-10.558
				c-1.586,0.174-2.732,1.601-2.558,3.187c0.016,0.146,0.042,0.29,0.079,0.432l0.304,1.13c0.366,1.359,1.658,2.258,3.062,2.126
				c4.616-0.434,9.071,2.139,11.003,6.354c0.588,1.28,2.012,1.95,3.373,1.587l1.13-0.303c1.542-0.413,2.456-1.996,2.044-3.538
				C-159.815,69.504-159.825,69.477-159.832,69.449L-159.832,69.449z M-159.832,69.449"/>
		</g>
	</g>
	<g opacity="0.7">
		<path i:knockout="Off" opacity="0.7" fill="#FFFFFF" d="M0,0v177h260V0H0z M173.616,120.486l-9.809,9.809
			c-0.855,0.855-2.054,1.353-3.265,1.353c-1.21,0-2.417-0.503-3.272-1.357l-22.639-22.643c-12.887,6.154-28.794,3.899-39.467-6.774
			c-13.54-13.54-13.54-35.494,0-49.035c13.54-13.539,35.493-13.539,49.034,0.001c10.673,10.674,12.93,26.576,6.775,39.464
			l22.64,22.642c0.533,0.536,0.931,1.208,1.151,1.934h-0.001c0.135,0.435,0.204,0.891,0.204,1.345
			C174.969,118.434,174.471,119.63,173.616,120.486z"/>
		<path i:knockout="Off" opacity="0.7" fill="#FFFFFF" d="M136.024,60.012c-9.027-9.026-23.661-9.024-32.687,0.001
			c-9.026,9.027-9.024,23.661,0.001,32.686c9.026,9.027,23.661,9.025,32.687-0.001c6.064-6.065,8.052-14.661,5.966-22.388
			C140.975,66.538,138.985,62.974,136.024,60.012z M134.146,73.071l-1.13,0.303c-1.361,0.363-2.785-0.307-3.373-1.587
			c-1.932-4.215-6.387-6.788-11.003-6.354c-1.403,0.132-2.695-0.767-3.062-2.126l-0.304-1.13c-0.037-0.142-0.063-0.287-0.079-0.432
			c-0.175-1.585,0.972-3.013,2.558-3.187c7.741-0.853,15.152,3.431,18.287,10.558c0.049,0.108,0.09,0.22,0.127,0.333
			c0.007,0.028,0.017,0.056,0.022,0.084C136.603,71.075,135.688,72.659,134.146,73.071z"/>
	</g>
</g>
</svg>
