<?xml version="1.0" encoding="utf-8"?>
<!-- Generator: Adobe Illustrator 15.0.0, SVG Export Plug-In . SVG Version: 6.00 Build 0)  -->
<!DOCTYPE svg PUBLIC "-//W3C//DTD SVG 1.1//EN" "http://www.w3.org/Graphics/SVG/1.1/DTD/svg11.dtd" [
	<!ENTITY ns_flows "http://ns.adobe.com/Flows/1.0/">
	<!ENTITY ns_extend "http://ns.adobe.com/Extensibility/1.0/">
	<!ENTITY ns_ai "http://ns.adobe.com/AdobeIllustrator/10.0/">
	<!ENTITY ns_graphs "http://ns.adobe.com/Graphs/1.0/">
	<!ENTITY ns_vars "http://ns.adobe.com/Variables/1.0/">
	<!ENTITY ns_imrep "http://ns.adobe.com/ImageReplacement/1.0/">
	<!ENTITY ns_sfw "http://ns.adobe.com/SaveForWeb/1.0/">
	<!ENTITY ns_custom "http://ns.adobe.com/GenericCustomNamespace/1.0/">
	<!ENTITY ns_adobe_xpath "http://ns.adobe.com/XPath/1.0/">
]>
<svg version="1.1"
	 xmlns:x="&ns_extend;" xmlns:i="&ns_ai;" xmlns:graph="&ns_graphs;" i:viewOrigin="761.5 -202.167" i:rulerOrigin="-761.5 275.167" i:pageBounds="761.5 -202.167 1159.5 -275.167"
	 xmlns="http://www.w3.org/2000/svg" xmlns:xlink="http://www.w3.org/1999/xlink" xmlns:a="http://ns.adobe.com/AdobeSVGViewerExtensions/3.0/"
	 x="0px" y="0px" width="398px" height="73px" viewBox="0 0 398 73" enable-background="new 0 0 398 73" xml:space="preserve">
<metadata>
	<variableSets  xmlns="&ns_vars;">
		<variableSet  varSetName="binding1" locked="none">
			<variables></variables>
			<v:sampleDataSets  xmlns="&ns_custom;" xmlns:v="&ns_vars;"></v:sampleDataSets>
		</variableSet>
	</variableSets>
</metadata>
<g id="Warstwa_1" i:layer="yes" i:dimmedPercent="50" i:rgbTrio="#4F008000FFFF">
	<path i:knockout="Off" fill-rule="evenodd" clip-rule="evenodd" fill="#009A93" d="M854.977-126.402h-345v63.729
		c0,0,32.355,9.006,93.518,9.006c61.441,0,114.84-26.32,178.037-26.32c26.263,0,52.08,2.422,73.444,5.289L854.977-126.402z"/>
	<path i:knockout="Off" fill-rule="evenodd" clip-rule="evenodd" fill="#009A93" d="M1230.477-126.667h-300v63.729
		c0,0,32.355,9.006,93.518,9.006c61.441,0,114.84-26.32,178.037-26.32c9.594,0,19.128,0.323,28.407,0.873L1230.477-126.667z"/>
	<path i:knockout="Off" fill-rule="evenodd" clip-rule="evenodd" fill="#00479A" d="M854.477,0h-345v63.729
		c0,0,32.355,9.006,93.518,9.006c61.441,0,114.84-26.32,178.037-26.32c26.263,0,52.08,2.422,73.444,5.289L854.477,0z"/>
	<path i:knockout="Off" fill-rule="evenodd" clip-rule="evenodd" fill="#00479A" d="M1230.977,0h-300v63.729
		c0,0,32.355,9.006,93.518,9.006c61.441,0,114.84-26.32,178.037-26.32c9.606,0,19.153,0.324,28.444,0.875L1230.977,0z"/>
	<path i:knockout="Off" fill-rule="evenodd" clip-rule="evenodd" fill="#00479A" d="M0.003,63.786c0,0,32.386,9.015,93.605,9.015
		c61.496,0,114.943-26.344,178.198-26.344C336.241,46.457,398,61.019,398,61.019V0H0.003V63.786z"/>
	<path i:knockout="Off" fill-rule="evenodd" clip-rule="evenodd" fill="#009A93" d="M0.003-62.881c0,0,32.386,9.015,93.605,9.015
		c61.496,0,114.943-26.344,178.198-26.344C336.241-80.21,398-65.648,398-65.648v-61.019H0.003V-62.881z"/>
</g>
</svg>
