<?xml version="1.0" encoding="utf-8"?>
<!-- Generator: Adobe Illustrator 15.0.0, SVG Export Plug-In . SVG Version: 6.00 Build 0)  -->
<!DOCTYPE svg PUBLIC "-//W3C//DTD SVG 1.1//EN" "http://www.w3.org/Graphics/SVG/1.1/DTD/svg11.dtd" [
	<!ENTITY ns_flows "http://ns.adobe.com/Flows/1.0/">
	<!ENTITY ns_extend "http://ns.adobe.com/Extensibility/1.0/">
	<!ENTITY ns_ai "http://ns.adobe.com/AdobeIllustrator/10.0/">
	<!ENTITY ns_graphs "http://ns.adobe.com/Graphs/1.0/">
	<!ENTITY ns_vars "http://ns.adobe.com/Variables/1.0/">
	<!ENTITY ns_imrep "http://ns.adobe.com/ImageReplacement/1.0/">
	<!ENTITY ns_sfw "http://ns.adobe.com/SaveForWeb/1.0/">
	<!ENTITY ns_custom "http://ns.adobe.com/GenericCustomNamespace/1.0/">
	<!ENTITY ns_adobe_xpath "http://ns.adobe.com/XPath/1.0/">
]>
<svg version="1.1"
	 xmlns:x="&ns_extend;" xmlns:i="&ns_ai;" xmlns:graph="&ns_graphs;" i:viewOrigin="1691.9766 -75.5" i:rulerOrigin="-1691.9766 148.5" i:pageBounds="1691.9766 -75.5 1991.9766 -148.5"
	 xmlns="http://www.w3.org/2000/svg" xmlns:xlink="http://www.w3.org/1999/xlink" xmlns:a="http://ns.adobe.com/AdobeSVGViewerExtensions/3.0/"
	 x="0px" y="0px" width="300px" height="73px" viewBox="0 0 300 73" enable-background="new 0 0 300 73" xml:space="preserve">
<metadata>
	<variableSets  xmlns="&ns_vars;">
		<variableSet  varSetName="binding1" locked="none">
			<variables></variables>
			<v:sampleDataSets  xmlns="&ns_custom;" xmlns:v="&ns_vars;"></v:sampleDataSets>
		</variableSet>
	</variableSets>
</metadata>
<g id="Warstwa_1" i:layer="yes" i:dimmedPercent="50" i:rgbTrio="#4F008000FFFF">
	<path i:knockout="Off" fill-rule="evenodd" clip-rule="evenodd" fill="#009A93" d="M-75.5,0.265h-345v63.729
		c0,0,32.355,9.006,93.518,9.006c61.441,0,114.84-26.32,178.037-26.32c26.263,0,52.08,2.422,73.444,5.289L-75.5,0.265z"/>
	<path i:knockout="Off" fill-rule="evenodd" clip-rule="evenodd" fill="#009A93" d="M300,0H0v63.729c0,0,32.355,9.006,93.518,9.006
		c61.441,0,114.84-26.32,178.037-26.32c9.594,0,19.128,0.323,28.407,0.873L300,0z"/>
	<path i:knockout="Off" fill-rule="evenodd" clip-rule="evenodd" fill="#00479A" d="M-76,126.667h-345v63.729
		c0,0,32.355,9.006,93.518,9.006c61.441,0,114.84-26.32,178.037-26.32c26.263,0,52.08,2.422,73.444,5.289L-76,126.667z"/>
	<path i:knockout="Off" fill-rule="evenodd" clip-rule="evenodd" fill="#00479A" d="M300.5,126.667H0.5v63.729
		c0,0,32.355,9.006,93.518,9.006c61.441,0,114.84-26.32,178.037-26.32c9.606,0,19.153,0.324,28.444,0.875L300.5,126.667z"/>
	<path i:knockout="Off" fill-rule="evenodd" clip-rule="evenodd" fill="#00479A" d="M-930.474,190.453
		c0,0,32.386,9.015,93.605,9.015c61.496,0,114.943-26.344,178.198-26.344c64.436,0,126.194,14.562,126.194,14.562v-61.019h-397.997
		V190.453z"/>
	<path i:knockout="Off" fill-rule="evenodd" clip-rule="evenodd" fill="#009A93" d="M-930.474,63.786c0,0,32.386,9.015,93.605,9.015
		c61.496,0,114.943-26.344,178.198-26.344c64.436,0,126.194,14.562,126.194,14.562V0h-397.997V63.786z"/>
</g>
</svg>
