<?xml version="1.0" encoding="utf-8"?>
<!-- Generator: Adobe Illustrator 15.0.0, SVG Export Plug-In . SVG Version: 6.00 Build 0)  -->
<!DOCTYPE svg PUBLIC "-//W3C//DTD SVG 1.1//EN" "http://www.w3.org/Graphics/SVG/1.1/DTD/svg11.dtd" [
	<!ENTITY ns_flows "http://ns.adobe.com/Flows/1.0/">
	<!ENTITY ns_extend "http://ns.adobe.com/Extensibility/1.0/">
	<!ENTITY ns_ai "http://ns.adobe.com/AdobeIllustrator/10.0/">
	<!ENTITY ns_graphs "http://ns.adobe.com/Graphs/1.0/">
	<!ENTITY ns_vars "http://ns.adobe.com/Variables/1.0/">
	<!ENTITY ns_imrep "http://ns.adobe.com/ImageReplacement/1.0/">
	<!ENTITY ns_sfw "http://ns.adobe.com/SaveForWeb/1.0/">
	<!ENTITY ns_custom "http://ns.adobe.com/GenericCustomNamespace/1.0/">
	<!ENTITY ns_adobe_xpath "http://ns.adobe.com/XPath/1.0/">
]>
<svg version="1.1"
	 xmlns:x="&ns_extend;" xmlns:i="&ns_ai;" xmlns:graph="&ns_graphs;" i:viewOrigin="29.416 2" i:rulerOrigin="-29.416 15" i:pageBounds="29.416 2 42.416 -15"
	 xmlns="http://www.w3.org/2000/svg" xmlns:xlink="http://www.w3.org/1999/xlink" xmlns:a="http://ns.adobe.com/AdobeSVGViewerExtensions/3.0/"
	 x="0px" y="0px" width="13px" height="17px" viewBox="0 0 13 17" enable-background="new 0 0 13 17" xml:space="preserve">
<metadata>
	<variableSets  xmlns="&ns_vars;">
		<variableSet  varSetName="binding1" locked="none">
			<variables></variables>
			<v:sampleDataSets  xmlns="&ns_custom;" xmlns:v="&ns_vars;"></v:sampleDataSets>
		</variableSet>
	</variableSets>
</metadata>
<g id="Warstwa_1" i:layer="yes" i:dimmedPercent="50" i:rgbTrio="#4F008000FFFF">
	<path i:knockout="Off" fill="#009A93" d="M-12.728,14.231c-0.164,0.458-0.833,0.684-1.007,0.653
		c-0.175-0.031-5.938-10.66-6.933-11.086c-0.173,0.393-6.354,11.132-6.597,11.209c-0.242,0.076-1.557-0.592-1.842-0.9
		c0.619-0.372,8.027-11.266,8.229-12.121C-18.831,2.93-12.714,13.543-12.728,14.231z"/>
	<path i:knockout="Off" fill="#00489A" d="M12.231,0.312c0.458,0.164,0.684,0.833,0.653,1.007C12.854,1.493,2.225,7.256,1.799,8.251
		c0.393,0.173,11.132,6.354,11.209,6.597c0.076,0.242-0.592,1.557-0.9,1.842C11.735,16.07,0.842,8.662-0.014,8.461
		C0.93,6.415,11.543,0.298,12.231,0.312z"/>
	<path i:knockout="Off" fill="#00489A" d="M17.103,0.312c-0.458,0.164-0.684,0.833-0.653,1.007
		c0.031,0.175,10.66,5.938,11.086,6.933c-0.393,0.173-11.132,6.354-11.209,6.597c-0.076,0.242,0.592,1.557,0.9,1.842
		c0.372-0.619,11.266-8.027,12.121-8.229C28.404,6.415,17.791,0.298,17.103,0.312z"/>
	<path i:knockout="Off" fill="#009A93" d="M-12.728,24.353c-0.164-0.458-0.833-0.684-1.007-0.653
		c-0.175,0.031-5.938,10.66-6.933,11.086c-0.172-0.393-6.355-11.132-6.597-11.209c-0.242-0.076-1.556,0.592-1.841,0.9
		c0.619,0.372,8.026,11.266,8.228,12.121C-18.831,35.654-12.714,25.041-12.728,24.353z"/>
</g>
</svg>
