<?xml version="1.0" encoding="utf-8"?>
<!-- Generator: Adobe Illustrator 15.0.0, SVG Export Plug-In . SVG Version: 6.00 Build 0)  -->
<!DOCTYPE svg PUBLIC "-//W3C//DTD SVG 1.1//EN" "http://www.w3.org/Graphics/SVG/1.1/DTD/svg11.dtd" [
	<!ENTITY ns_flows "http://ns.adobe.com/Flows/1.0/">
	<!ENTITY ns_extend "http://ns.adobe.com/Extensibility/1.0/">
	<!ENTITY ns_ai "http://ns.adobe.com/AdobeIllustrator/10.0/">
	<!ENTITY ns_graphs "http://ns.adobe.com/Graphs/1.0/">
	<!ENTITY ns_vars "http://ns.adobe.com/Variables/1.0/">
	<!ENTITY ns_imrep "http://ns.adobe.com/ImageReplacement/1.0/">
	<!ENTITY ns_sfw "http://ns.adobe.com/SaveForWeb/1.0/">
	<!ENTITY ns_custom "http://ns.adobe.com/GenericCustomNamespace/1.0/">
	<!ENTITY ns_adobe_xpath "http://ns.adobe.com/XPath/1.0/">
]>
<svg version="1.1"
	 xmlns:x="&ns_extend;" xmlns:i="&ns_ai;" xmlns:graph="&ns_graphs;" i:viewOrigin="0 -77" i:rulerOrigin="0 134" i:pageBounds="0 -77 53 -134"
	 xmlns="http://www.w3.org/2000/svg" xmlns:xlink="http://www.w3.org/1999/xlink" xmlns:a="http://ns.adobe.com/AdobeSVGViewerExtensions/3.0/"
	 x="0px" y="0px" width="53px" height="57px" viewBox="0 0 53 57" enable-background="new 0 0 53 57" xml:space="preserve">
<metadata>
	<variableSets  xmlns="&ns_vars;">
		<variableSet  varSetName="binding1" locked="none">
			<variables></variables>
			<v:sampleDataSets  xmlns="&ns_custom;" xmlns:v="&ns_vars;"></v:sampleDataSets>
		</variableSet>
	</variableSets>
</metadata>
<g id="Warstwa_1" i:layer="yes" i:dimmedPercent="50" i:rgbTrio="#4F008000FFFF">
	<g>
		<g>
			<path fill="#569891" d="M23.242-53.481H21.8v6.873h1.601c2.041,0,2.973-1.497,2.973-3.388
				C26.374-52.017,25.425-53.481,23.242-53.481z"/>
			<path fill="#569891" d="M13.744-53.588h-1.498v3.325h1.498c0.925,0,1.512-0.722,1.514-1.662
				C15.257-52.866,14.669-53.588,13.744-53.588z"/>
			<path fill="#569891" d="M32.412-76.928H4.023c-1.96,0-3.551,1.589-3.551,3.551v49.718c0,1.962,1.591,3.552,3.551,3.552H36.07
				c-0.387-0.301-0.756-0.625-1.107-0.977c-1.074-1.074-1.918-2.325-2.508-3.72c-0.611-1.444-0.922-2.977-0.922-4.557
				c0-1.578,0.311-3.111,0.922-4.557c0.59-1.395,1.434-2.645,2.508-3.719c1.074-1.075,2.326-1.918,3.721-2.508
				c1.443-0.612,2.977-0.922,4.557-0.922c0.738,0,1.469,0.07,2.184,0.205l0.002-2.573v-20.464L32.412-76.928z M13.875-48.195h-1.628
				v2.572c0,0.786-0.47,1.223-1.102,1.223c-0.632,0-1.102-0.437-1.102-1.223v-8.813c0-0.736,0.41-1.222,1.145-1.222h2.6
				c2.158,0,3.76,1.504,3.76,3.746C17.547-49.621,15.886-48.195,13.875-48.195z M23.434-44.432H20.68
				c-0.521,0-1.249-0.283-1.249-1.183v-8.83c0-0.725,0.506-1.214,1.219-1.214h2.624c3.544,0,5.57,2.271,5.572,5.771
				C28.846-46.577,26.693-44.432,23.434-44.432z M35.396-53.495H32.82v3.288h2.17c0.674,0,1.01,0.532,1.01,1.067
				c0,0.547-0.336,1.098-1.01,1.098h-2.17v2.419c0,0.786-0.447,1.223-1.049,1.223c-0.607,0-1.053-0.437-1.053-1.223v-8.813
				c0-0.641,0.391-1.222,1.09-1.222h3.588c0.617,0,0.938,0.532,0.938,1.083C36.334-54.044,36.025-53.495,35.396-53.495z"/>
		</g>
		<path fill="#42746C" d="M45.373-63.949H35.326c-1.592,0-2.883-1.291-2.883-2.883v-10.061L45.373-63.949z"/>
		<path fill="#9EB836" d="M43.24-38.648c-5.127,0-9.289,4.16-9.289,9.288s4.162,9.288,9.289,9.288c5.129,0,9.287-4.16,9.287-9.288
			S48.369-38.648,43.24-38.648z M47.969-28.951l-3.93,4.45c-0.215,0.244-0.523,0.384-0.85,0.384c-0.002,0-0.004,0-0.004,0
			c-0.328-0.002-0.639-0.144-0.854-0.39l-3.871-4.451c-0.41-0.474-0.361-1.19,0.113-1.601c0.473-0.412,1.189-0.362,1.602,0.111
			l1.902,2.186v-5.438c0-0.627,0.506-1.135,1.135-1.135c0.625,0,1.135,0.508,1.135,1.135v5.419l1.918-2.174
			c0.414-0.471,1.133-0.516,1.604-0.101S48.385-29.421,47.969-28.951z"/>
	</g>
	<g>
		<g>
			<path fill="#42746C" d="M23.242,23.519H21.8v6.873h1.601c2.041,0,2.973-1.497,2.973-3.388
				C26.374,24.983,25.425,23.519,23.242,23.519z"/>
			<path fill="#42746C" d="M13.744,23.412h-1.498v3.325h1.498c0.925,0,1.512-0.722,1.514-1.662
				C15.257,24.134,14.669,23.412,13.744,23.412z"/>
			<path fill="#42746C" d="M32.412,0.072H4.023c-1.96,0-3.551,1.589-3.551,3.551v49.718c0,1.962,1.591,3.552,3.551,3.552H36.07
				c-0.387-0.301-0.756-0.625-1.107-0.977c-1.074-1.074-1.918-2.325-2.508-3.72c-0.611-1.444-0.922-2.977-0.922-4.557
				c0-1.578,0.311-3.111,0.922-4.557c0.59-1.395,1.434-2.645,2.508-3.719c1.074-1.075,2.326-1.918,3.721-2.508
				c1.443-0.612,2.977-0.922,4.557-0.922c0.738,0,1.469,0.07,2.184,0.205l0.002-2.573V13.103L32.412,0.072z M13.875,28.805h-1.628
				v2.572c0,0.786-0.47,1.223-1.102,1.223c-0.632,0-1.102-0.437-1.102-1.223v-8.813c0-0.736,0.41-1.222,1.145-1.222h2.6
				c2.158,0,3.76,1.504,3.76,3.746C17.547,27.379,15.886,28.805,13.875,28.805z M23.434,32.568H20.68
				c-0.521,0-1.249-0.283-1.249-1.183v-8.83c0-0.725,0.506-1.214,1.219-1.214h2.624c3.544,0,5.57,2.271,5.572,5.771
				C28.846,30.423,26.693,32.568,23.434,32.568z M35.396,23.505H32.82v3.288h2.17c0.674,0,1.01,0.532,1.01,1.067
				c0,0.547-0.336,1.098-1.01,1.098h-2.17v2.419c0,0.786-0.447,1.223-1.049,1.223c-0.607,0-1.053-0.437-1.053-1.223v-8.813
				c0-0.641,0.391-1.222,1.09-1.222h3.588c0.617,0,0.938,0.532,0.938,1.083C36.334,22.956,36.025,23.505,35.396,23.505z"/>
		</g>
		<path fill="#315951" d="M45.373,13.051H35.326c-1.592,0-2.883-1.291-2.883-2.883V0.107L45.373,13.051z"/>
		<path fill="#89A514" d="M43.24,38.352c-5.127,0-9.289,4.16-9.289,9.288s4.162,9.288,9.289,9.288c5.129,0,9.287-4.16,9.287-9.288
			S48.369,38.352,43.24,38.352z M47.969,48.049l-3.93,4.45c-0.215,0.244-0.523,0.384-0.85,0.384c-0.002,0-0.004,0-0.004,0
			c-0.328-0.002-0.639-0.144-0.854-0.39l-3.871-4.451c-0.41-0.474-0.361-1.19,0.113-1.601c0.473-0.412,1.189-0.362,1.602,0.111
			l1.902,2.186v-5.438c0-0.627,0.506-1.135,1.135-1.135c0.625,0,1.135,0.508,1.135,1.135v5.419l1.918-2.174
			c0.414-0.471,1.133-0.516,1.604-0.101S48.385,47.579,47.969,48.049z"/>
	</g>
</g>
</svg>
