<?xml version="1.0" encoding="utf-8"?>
<!-- Generator: Adobe Illustrator 15.0.0, SVG Export Plug-In . SVG Version: 6.00 Build 0)  -->
<!DOCTYPE svg PUBLIC "-//W3C//DTD SVG 1.1//EN" "http://www.w3.org/Graphics/SVG/1.1/DTD/svg11.dtd" [
	<!ENTITY ns_flows "http://ns.adobe.com/Flows/1.0/">
	<!ENTITY ns_extend "http://ns.adobe.com/Extensibility/1.0/">
	<!ENTITY ns_ai "http://ns.adobe.com/AdobeIllustrator/10.0/">
	<!ENTITY ns_graphs "http://ns.adobe.com/Graphs/1.0/">
	<!ENTITY ns_vars "http://ns.adobe.com/Variables/1.0/">
	<!ENTITY ns_imrep "http://ns.adobe.com/ImageReplacement/1.0/">
	<!ENTITY ns_sfw "http://ns.adobe.com/SaveForWeb/1.0/">
	<!ENTITY ns_custom "http://ns.adobe.com/GenericCustomNamespace/1.0/">
	<!ENTITY ns_adobe_xpath "http://ns.adobe.com/XPath/1.0/">
]>
<svg version="1.1"
	 xmlns:x="&ns_extend;" xmlns:i="&ns_ai;" xmlns:graph="&ns_graphs;" i:viewOrigin="0 -21.584" i:rulerOrigin="0 34.584" i:pageBounds="0 -21.584 17 -34.584"
	 xmlns="http://www.w3.org/2000/svg" xmlns:xlink="http://www.w3.org/1999/xlink" xmlns:a="http://ns.adobe.com/AdobeSVGViewerExtensions/3.0/"
	 x="0px" y="0px" width="17px" height="13px" viewBox="0 0 17 13" enable-background="new 0 0 17 13" xml:space="preserve">
<metadata>
	<variableSets  xmlns="&ns_vars;">
		<variableSet  varSetName="binding1" locked="none">
			<variables></variables>
			<v:sampleDataSets  xmlns="&ns_custom;" xmlns:v="&ns_vars;"></v:sampleDataSets>
		</variableSet>
	</variableSets>
</metadata>
<g id="Warstwa_1" i:layer="yes" i:dimmedPercent="50" i:rgbTrio="#4F008000FFFF">
	<path i:knockout="Off" fill="#009A93" d="M16.688-9.353c-0.164,0.458-0.833,0.684-1.007,0.653
		c-0.175-0.031-5.938-10.66-6.933-11.086C8.576-19.393,2.395-8.653,2.152-8.576C1.91-8.5,0.596-9.168,0.311-9.477
		C0.93-9.849,8.338-20.742,8.539-21.598C10.585-20.654,16.702-10.041,16.688-9.353z"/>
	<path i:knockout="Off" fill="#00489A" d="M41.647-23.272c0.458,0.164,0.684,0.833,0.653,1.007
		c-0.031,0.175-10.66,5.938-11.086,6.933c0.393,0.173,11.132,6.354,11.209,6.597c0.076,0.242-0.592,1.557-0.9,1.842
		c-0.372-0.619-11.266-8.027-12.121-8.229C30.346-17.169,40.959-23.286,41.647-23.272z"/>
	<path i:knockout="Off" fill="#00489A" d="M46.519-23.272c-0.458,0.164-0.684,0.833-0.653,1.007
		c0.031,0.175,10.66,5.938,11.086,6.933c-0.393,0.173-11.132,6.354-11.209,6.597c-0.076,0.242,0.592,1.557,0.9,1.842
		c0.372-0.619,11.266-8.027,12.121-8.229C57.82-17.169,47.207-23.286,46.519-23.272z"/>
	<path i:knockout="Off" fill="#009A93" d="M16.688,0.769c-0.164-0.458-0.833-0.684-1.007-0.653
		c-0.175,0.031-5.938,10.66-6.933,11.086C8.577,10.809,2.394,0.069,2.152-0.008c-0.242-0.076-1.556,0.592-1.841,0.9
		C0.93,1.265,8.337,12.158,8.539,13.014C10.585,12.07,16.702,1.457,16.688,0.769z"/>
</g>
</svg>
