<?xml version="1.0" encoding="utf-8"?>
<!-- Generator: Adobe Illustrator 15.0.0, SVG Export Plug-In . SVG Version: 6.00 Build 0)  -->
<!DOCTYPE svg PUBLIC "-//W3C//DTD SVG 1.1//EN" "http://www.w3.org/Graphics/SVG/1.1/DTD/svg11.dtd">
<svg version="1.1" id="Warstwa_1" xmlns="http://www.w3.org/2000/svg" xmlns:xlink="http://www.w3.org/1999/xlink" x="0px" y="0px"
	 width="391px" height="40px" viewBox="0 0 391 40" enable-background="new 0 0 391 40" xml:space="preserve">
<g>
	<g>
		<path fill="#CACF31" d="M150.071,0.417c0,2.467,0,4.934-0.164,7.398c4.274-0.329,8.386-0.492,12.33-0.492
			c0.16-2.302,0.323-4.604,0.49-6.906H150.071z"/>
		<path fill="#CACF31" d="M116.095,0.417l-0.166,8.554c3.292-0.167,6.577-0.167,9.702-0.167v1.645
			c7.723-1.318,14.964-2.14,22.033-2.634l0.162-7.398H116.095z"/>
		<path fill="#CACF31" d="M192.431,0.742c-2.63-0.488-5.922-0.818-9.043-0.977c-6.579,0-13.321,2.298-17.103,7.558
			c6.747,0,13.156,0.492,19.072,0.986h0.162c1.481,0,2.966,0.163,4.932,0.661c0.829,0,1.648,0.161,2.306,0.328L192.431,0.742z"/>
		<path fill="#CACF31" d="M113.956,0.438h-12.334c-0.163,4.935-0.328,9.864-0.821,14.799c4.109-0.82,8.222-1.647,12.171-2.465
			c0.165,0,0.165-0.166,0.165-0.166L113.956,0.438z"/>
		<path fill="#CACF31" d="M35.547,15.401c0.328-4.931,0.658-9.869,1.149-14.964H25.517c0,4.28-0.16,8.713-0.329,12.992
			C28.641,14.25,32.096,14.907,35.547,15.401"/>
		<path fill="#CACF31" d="M215.155,8.991l-1.811,3.945c-3.122-0.821-6.411-1.481-10.19-2.139c1.806-3.452,3.619-6.903,5.267-10.359
			h14.629c1.972,5.755,4.104,11.508,6.242,17.262c-3.12-1.147-7.396-2.626-12.654-3.944
			C216.144,12.115,215.649,10.638,215.155,8.991"/>
		<path fill="#CACF31" d="M60.58,8.991l-3.78,8.546c-3.783-0.328-7.406-0.66-11.185-1.145c2.799-5.267,5.595-10.526,8.225-15.954
			h14.636c1.969,5.755,4.108,11.508,6.24,17.429c-3.778,0-7.558,0.167-11.503,0C62.389,14.907,61.404,11.946,60.58,8.991"/>
		<path fill="#CACF31" d="M80.743,0.438c-0.164,8.553-0.657,13.152-0.988,17.099c4.116-0.162,8.221-0.493,12.168-0.985
			c0.167-5.427,0.821-10.686,1.151-16.114H80.743z"/>
		<path fill="#CACF31" d="M1.844,0.438c0,1.975,0,4.113-0.165,6.085c7.066,2.468,13.973,4.602,20.553,6.249
			c-1.811-4.108-3.947-8.221-5.92-12.334H1.844z"/>
	</g>
	<g>
		<path fill="#FFFFFF" d="M100.146,19.674c-0.498,3.454-1.812,3.947-4.277,3.947c-2.304,0-3.452-1.483-3.779-3.617
			c-4.28,0.657-8.389,1.153-12.497,1.483v1.807c0,7.56,9.044,9.206,16.111,9.206c11.839,0,16.766-4.77,17.098-11.182
			c0-1.807,0.169-3.619,0.169-5.423c-4.283,0.98-8.385,1.973-12.667,2.793C100.305,19.016,100.305,19.345,100.146,19.674"/>
		<path fill="#FFFFFF" d="M64.528,22.305c0.823,3.122,1.804,6.247,2.631,9.699h12.824c-1.319-3.452-2.632-6.902-3.781-10.354
			C72.254,21.978,68.309,22.138,64.528,22.305"/>
		<path fill="#FFFFFF" d="M12.529,16.224c2.464,5.265,5.261,10.522,8.057,15.778l13.586,0.014c0.067-0.354,0.752-7.981,1.045-11.354
			C27.822,19.674,20.256,18.193,12.529,16.224"/>
		<path fill="#FFFFFF" d="M37.19,31.985l13.2,0.021l4.271-9.868c-3.779-0.16-7.728-0.488-11.672-0.979
			C41.238,24.361,37.209,31.575,37.19,31.985z"/>
		<path fill="#FFFFFF" d="M232.094,25.27c-3.95-1.317-8.554-2.633-13.318-3.95c0.984,3.454,1.97,6.905,2.958,10.686h12.991
			C233.734,29.702,232.913,27.574,232.094,25.27"/>
		<path fill="#FFFFFF" d="M124.088,32.004h12.661c0-6.577,0.162-13.152,0.66-19.562c-3.949,0.329-7.895,0.657-11.841,1.313
			C125.403,19.841,124.909,25.924,124.088,32.004"/>
		<path fill="#FFFFFF" d="M192.197,30.748l-0.224,1.254h12.987l5.593-12.819c-3.287-0.828-6.904-1.646-10.521-2.306
			C197.464,21.555,194.888,26.1,192.197,30.748"/>
		<path fill="#FFFFFF" d="M190.779,30.748l1.423-7.947c-2.632,0.657-6.251,1.15-8.55,1.15c-3.947,0-8.057-1.975-8.057-6.907
			c0-1.146,0.327-2.468,0.822-3.614c-4.11-0.494-8.389-0.824-12.664-0.988c-0.325,1.315-0.492,2.96-0.655,4.764
			c0,11.349,9.538,15.458,18.581,15.458c2.793,0,6.409-0.325,8.875-0.661h-0.497C190.305,31.579,190.533,31.169,190.779,30.748"/>
		<path fill="#FFFFFF" d="M149.843,12.114c-0.333,6.574-0.823,13.156-1.317,19.89h12.824c0-6.577,0.163-13.152,0.492-19.726
			C157.896,12.114,153.784,11.946,149.843,12.114"/>
		<path fill="#FFFFFF" d="M2.136,13.121c-0.041-0.009-0.083-0.022-0.123-0.03c-0.064-0.021-0.284-0.077-0.558-0.145
			c-0.035,0.902-0.1,2.272-0.149,3.183c-0.321,5.238-0.725,10.547-1.272,15.875h11.349c0-5.427,0.16-10.688,0.488-16.108
			c-3.242-0.772-6.491-1.702-9.734-2.767L2.136,13.121L2.136,13.121z"/>
	</g>
</g>
<g enable-background="new    ">
	<path fill="#FFFFFF" d="M257.938,30.125c0.164-0.013,0.316-0.02,0.455-0.02s0.316-0.037,0.532-0.113s0.405-0.139,0.57-0.19
		c0.165-0.05,0.386-0.126,0.665-0.228c0.278-0.102,0.494-0.19,0.646-0.267c0.151-0.075,0.392-0.19,0.721-0.342
		c1.773-0.734,2.965-1.38,3.572-1.938c0.658-0.48,1.191-0.722,1.596-0.722c0.33-0.101,0.59,0,0.779,0.304
		c0.19,0.305,0.285,0.678,0.285,1.121s-0.24,0.912-0.722,1.406s-1.052,0.932-1.71,1.311c-0.279,0.279-0.899,0.608-1.862,0.988
		c-0.938,0.684-2.04,1.267-3.306,1.748c-1.268,0.48-2.344,0.621-3.23,0.418c-2.001-0.734-3.256-1.761-3.762-3.078
		c-0.507-1.316-0.734-2.912-0.684-4.787c0-2.255,0.393-4.396,1.178-6.422c0.025-0.051,0.202-0.475,0.531-1.273
		c0.33-0.798,0.558-1.323,0.685-1.577c0.431-0.988,1.19-2.267,2.28-3.838c1.418-2.153,2.514-3.629,3.287-4.427
		c0.771-0.798,2.02-1.792,3.742-2.983c0.583-0.431,1.299-0.697,2.147-0.798s1.704,0.057,2.565,0.475
		c0.86,0.418,1.481,1.096,1.861,2.033c0.557,1.014,0.532,2.515-0.076,4.503c-0.607,1.989-1.443,3.477-2.508,4.465
		c-0.76,0.482-1.646,0.266-2.66-0.646c-0.304-0.557-0.431-0.848-0.379-0.874c0.05-0.025,0.1-0.038,0.151-0.038
		c0.228-0.279,0.563-0.817,1.007-1.615s0.716-1.374,0.816-1.729c0.102-0.354,0.184-0.671,0.248-0.95
		c0.062-0.279,0.107-0.494,0.133-0.646c0.025-0.152,0.051-0.31,0.076-0.475c0.024-0.165,0.043-0.285,0.057-0.361
		c0.013-0.076,0.006-0.164-0.02-0.266c0-0.126-0.088-0.279-0.266-0.456s-0.621-0.076-1.33,0.304
		c-1.241,0.532-2.723,1.964-4.445,4.294c-2.205,2.888-3.572,5.143-4.104,6.764l-0.418,0.988c0.076,0.406-0.076,0.988-0.456,1.748
		c-0.432,1.773-0.583,3.408-0.456,4.902c0.126,1.85,0.583,2.926,1.368,3.23C257.627,30.119,257.771,30.138,257.938,30.125z"/>
	<path fill="#FFFFFF" d="M280.869,26.648l0.229-2.927c0-0.557-0.14-0.836-0.418-0.836c-0.507,0-1.387,0.462-2.641,1.388
		c-1.254,0.924-2.527,2.121-3.819,3.59c-0.812,1.191-1.583,1.787-2.317,1.787c-0.457-0.076-0.875-0.33-1.254-0.761
		c-0.381-0.431-0.57-0.937-0.57-1.521c0-0.582,0.379-2.127,1.14-4.635c0.076-0.608,0.272-1.279,0.589-2.015
		c0.316-0.734,0.57-1.444,0.76-2.128c0.19-0.684,0.652-2.045,1.387-4.085c0.734-2.039,1.254-3.477,1.559-4.313
		s0.52-1.444,0.646-1.824c0.228-0.532,0.418-1.039,0.569-1.52c0-0.202,0.146-0.399,0.437-0.589s0.59-0.285,0.894-0.285
		s0.646,0.266,1.026,0.798c0.658,0.912,0.771,1.824,0.342,2.736c-0.432,0.912-1.141,2.812-2.128,5.7
		c-0.988,2.888-1.659,4.649-2.015,5.282l-0.418,0.836l-0.607,2.317c0,0.076,0.012,0.114,0.038,0.114
		c1.165-1.165,2.19-2.077,3.077-2.736c0.887-0.658,1.375-1.045,1.464-1.159s0.431-0.393,1.026-0.836
		c0.594-0.443,1.361-0.665,2.299-0.665c0.455,0,0.962,0.317,1.52,0.95c0.557,0.633,0.836,1.368,0.836,2.204v0.57
		c0,0.583-0.254,2.002-0.76,4.256c0.127,0,0.316-0.025,0.57-0.076c0.506,0,0.893,0.108,1.158,0.323
		c0.267,0.216,0.412,0.323,0.438,0.323c0.051,0.051,0.076,0.127,0.076,0.228c0,0.583-0.317,1.09-0.95,1.521
		c-0.634,0.431-1.241,0.672-1.824,0.722c-0.71,0-1.279-0.267-1.71-0.798C281.084,28.054,280.869,27.408,280.869,26.648z"/>
	<path fill="#FFFFFF" d="M292.156,18.706c1.266-1.089,2.406-1.748,3.42-1.976c1.52-0.354,2.584-0.215,3.191,0.418
		c0.988,0.431,1.559,1.33,1.711,2.698c0.201,2.104-0.494,4.307-2.091,6.611c-0.938,1.369-2.229,2.547-3.876,3.535
		c-0.659,0.455-1.824,0.734-3.496,0.836c-0.431,0-0.925-0.24-1.482-0.723c-1.139-1.19-1.633-2.242-1.481-3.154l0.076-0.873
		c-0.127-0.127-0.159-0.229-0.095-0.305c0.062-0.076,0.107-0.126,0.133-0.152c0.152,0,0.202-0.119,0.152-0.36
		c-0.052-0.24,0.037-0.703,0.266-1.388c0.229-0.684,0.519-1.316,0.874-1.899C290.318,20.555,291.219,19.466,292.156,18.706z
		 M296.469,23.664c0.038-0.088,0.107-0.277,0.209-0.569c0.102-0.291,0.195-0.513,0.285-0.665c0.088-0.152,0.139-0.538,0.152-1.159
		c0.012-0.62-0.083-0.993-0.285-1.12c-0.279-0.127-0.508-0.165-0.684-0.115c-0.178,0.052-0.47,0.217-0.875,0.494
		c-1.926,1.622-3.078,3.357-3.457,5.207c-0.076,0.633-0.008,1.107,0.209,1.424c0.215,0.318,0.575,0.399,1.082,0.248
		c0.507-0.152,0.963-0.424,1.368-0.817c0.405-0.393,0.671-0.651,0.798-0.779c0.127-0.126,0.234-0.24,0.323-0.342
		c0.089-0.101,0.177-0.247,0.267-0.437c0.088-0.19,0.157-0.33,0.209-0.418c0.05-0.089,0.119-0.248,0.209-0.476
		C296.367,23.912,296.431,23.754,296.469,23.664z"/>
	<path fill="#FFFFFF" d="M306.861,15.932c0.557,0,0.938,0.102,1.141,0.304c0.557,0.481,0.164,2.027-1.178,4.635
		c-0.432,0.862-0.57,1.293-0.418,1.293c0.277-0.481,0.955-1.141,2.032-1.977s1.755-1.323,2.033-1.463
		c0.278-0.139,0.576-0.272,0.894-0.399c0.316-0.126,0.5-0.203,0.551-0.228c0.557-0.278,1.189-0.386,1.9-0.323
		c0.708,0.063,1.139,0.285,1.291,0.665c0,0.253,0.152,0.456,0.456,0.608l0.19,0.228c0,0.203-0.178,0.462-0.532,0.779
		s-0.722,0.488-1.103,0.514c-0.379,0.025-0.83,0.158-1.349,0.398c-0.52,0.241-1.021,0.494-1.501,0.76
		c-0.481,0.266-0.842,0.469-1.083,0.608s-0.551,0.323-0.931,0.551c-0.709,0.481-1.344,1.052-1.9,1.71
		c-0.684,0.684-1.076,1.127-1.178,1.33c-0.178,0.178-0.361,0.641-0.551,1.387c-0.19,0.748-0.285,1.211-0.285,1.387
		c-0.102,0.406-0.291,0.793-0.57,1.16s-0.551,0.588-0.816,0.664c-0.267,0.076-0.615-0.076-1.045-0.455
		c-0.786-0.583-1.135-1.21-1.045-1.882c0.088-0.671,0.348-1.919,0.778-3.743c0.076-0.684,0.476-2.033,1.197-4.047
		s1.323-3.375,1.805-4.085C305.898,16.059,306.305,15.932,306.861,15.932z"/>
	<path fill="#FFFFFF" d="M326.013,25.242c0,0.582,0.114,0.912,0.343,0.988c0.075,0.025,0.228,0.037,0.455,0.037
		c0.229,0,0.476-0.101,0.741-0.304c0.267-0.202,0.651-0.558,1.159-1.063c0.506-0.508,1.141-1.355,1.9-2.547
		c0.76-1.19,1.14-1.881,1.14-2.07c0-0.19,0.114-0.424,0.342-0.704c0.734-1.064,1.47-1.229,2.204-0.494
		c0.253,0.253,0.38,0.849,0.38,1.785c-0.532,1.977-0.95,3.13-1.254,3.459c-0.481,0.38-0.888,0.849-1.216,1.406
		c-0.709,0.836-1.217,1.381-1.52,1.633c-0.305,0.254-0.494,0.418-0.57,0.494c-0.785,0.786-1.723,1.33-2.812,1.635
		c-1.09,0.304-1.887,0.254-2.394-0.152c-0.786-0.404-1.179-1.089-1.179-2.052l-0.189-0.798c-0.38,0-0.717,0.254-1.007,0.76
		c-0.292,0.507-0.912,1.083-1.862,1.729c-0.949,0.646-1.666,0.969-2.146,0.969c-0.584,0-1.135-0.602-1.653-1.805
		c-0.52-1.203-0.729-2.412-0.627-3.629c0-0.836,0.081-1.646,0.247-2.432c0.164-0.785,0.26-1.229,0.285-1.33
		c0.202-1.545,0.519-2.647,0.949-3.306c0.431-0.583,0.957-0.836,1.577-0.76c0.62,0.076,0.97,0.393,1.046,0.95
		c0.201,0.228,0.277,0.748,0.228,1.558c-0.052,0.811-0.19,1.369-0.418,1.671c-0.052,0.128-0.146,0.768-0.285,1.92
		c-0.14,1.152-0.234,1.868-0.285,2.146c-0.127,0.735,0,1.026,0.38,0.874c0.405-0.177,0.95-0.766,1.635-1.767
		c0.684-1,1.164-1.754,1.443-2.262c0.278-0.506,0.582-1.229,0.912-2.166c0.329-0.937,0.627-1.551,0.893-1.843
		c0.267-0.291,0.608-0.431,1.026-0.418s0.804,0.146,1.159,0.399c0.734,0.735,0.798,1.71,0.189,2.926
		C326.418,22.303,326.013,23.823,326.013,25.242z"/>
	<path fill="#FFFFFF" d="M335.247,29.232c0-0.229-0.165-0.545-0.494-0.951c-0.38-0.379,0.405-2.355,2.356-5.928
		c0.151-0.152,0.348-0.418,0.588-0.798c0.241-0.38,0.399-0.595,0.476-0.646c0-0.102,0.038-0.196,0.114-0.285
		s0.164-0.133,0.266-0.133l0.305-0.608c0.101-0.228,0.594-0.772,1.481-1.634c0.887-0.861,1.597-1.456,2.128-1.786
		c0.532-0.329,1.076-0.481,1.635-0.456c0.557,0.025,1.037,0.203,1.443,0.532c0.051,0.076,0.215,0.216,0.494,0.418
		c0.48,0.38,1.558,1.318,3.23,2.812l-0.646,1.9c-0.583,1.672-0.432,3.217,0.456,4.636c0.253,0.532,0.684,0.849,1.292,0.95
		c0.607,0.102,0.912,0.38,0.912,0.836c0,1.039-0.342,1.634-1.026,1.786c-1.976,0.278-3.458-0.532-4.446-2.433
		c-0.354-0.48-0.582-1.038-0.684-1.672c-0.178,0.254-0.469,0.584-0.874,0.988c-3.446,3.496-6.056,4.674-7.828,3.534
		c-0.075-0.152-0.292-0.354-0.646-0.608C335.424,29.435,335.247,29.283,335.247,29.232z M344.177,19.314
		c-0.938,0-2.483,1.811-4.636,5.434c-0.38,0.607-0.723,1.406-1.026,2.394c0.405,0.052,1.19-0.405,2.356-1.368
		c0.229-0.202,0.537-0.469,0.931-0.798c0.393-0.329,0.678-0.569,0.854-0.722c0.178-0.152,0.406-0.354,0.685-0.608
		c0.481-0.48,0.912-1,1.292-1.558l0.836-1.368C345.037,19.783,344.607,19.314,344.177,19.314z"/>
	<path fill="#FFFFFF" d="M362.969,21.783c-0.292,0.457-0.559,0.685-0.799,0.685s-0.361,0.069-0.361,0.209s-0.133,0.216-0.398,0.228
		c-0.266,0.014-0.545-0.043-0.836-0.17s-0.463-0.279-0.514-0.457c0-0.126,0.089-0.588,0.267-1.387
		c0.177-0.798,0.196-1.317,0.058-1.558c-0.141-0.24-0.451-0.259-0.932-0.057c-0.938,0.532-1.641,1.222-2.109,2.071
		s-0.873,1.926-1.216,3.229c-0.342,1.306-0.501,2.109-0.475,2.414c0.05,0.48,0.164,0.772,0.342,0.873
		c0.761,0.203,1.431,0.152,2.015-0.151c0.582-0.304,1.354-0.823,2.317-1.558c0.05-0.025,0.157-0.165,0.323-0.418
		c0.164-0.254,0.322-0.418,0.475-0.494c0.203-0.33,0.507-0.494,0.912-0.494h0.798c0.456,0.152,0.823,0.455,1.103,0.912
		c0.101,0.228,0.101,0.379,0,0.455l-0.19,0.19c0.101,0.203-0.342,0.805-1.33,1.806c-0.987,1-1.622,1.5-1.899,1.5
		c-0.279,0-0.418,0.076-0.418,0.229c0,0.102-0.387,0.336-1.16,0.703c-0.772,0.367-1.399,0.602-1.881,0.703
		c-1.165,0.202-2.235-0.039-3.211-0.723c-0.975-0.684-1.463-1.608-1.463-2.773c-0.127-1.165,0.082-2.622,0.627-4.37
		s1.248-3.154,2.109-4.218c1.292-1.545,2.293-2.463,3.002-2.755c0.709-0.291,1.469-0.437,2.28-0.437
		c1.393,0.33,2.09,0.76,2.09,1.292l0.19,0.19c0.228,0,0.48,0.393,0.76,1.178c0.278,0.785,0.316,1.368,0.113,1.748
		C363.455,20.859,363.26,21.328,362.969,21.783z"/>
	<path fill="#FFFFFF" d="M360.061,33.982c0.229,0,0.539,0.113,0.932,0.342c0.393,0.228,0.588,0.468,0.588,0.722
		c0,0.937,0.242,1.431,0.723,1.481c0.582,0.203,1.152-0.139,1.71-1.025c0.405-0.508,1.229-2.395,2.47-5.662
		c0.254-0.861,0.557-2.286,0.912-4.275c0.354-1.988,0.582-3.191,0.684-3.609s0.184-0.747,0.248-0.988
		c0.062-0.24,0.095-0.532,0.095-0.874s0.089-0.69,0.266-1.045c0-0.304,0.058-0.734,0.171-1.292c0.114-0.557,0.172-0.849,0.172-0.874
		c0.1-0.101,0.379-0.069,0.836,0.095c0.455,0.165,0.784,0.349,0.987,0.551c0.456,0.507,0.734,1.026,0.836,1.558
		c0.101,0.532,0.076,1.406-0.075,2.621c0,0.761-0.197,1.92-0.59,3.478s-0.633,2.515-0.722,2.869s-0.171,0.652-0.247,0.894
		c-0.076,0.24-0.121,0.424-0.133,0.551c-0.014,0.127-0.178,0.627-0.494,1.5c-0.316,0.875-0.5,1.488-0.551,1.844
		c-0.051,0.354-0.254,0.924-0.608,1.71c-0.354,0.785-0.905,1.659-1.653,2.622c-0.747,0.963-1.298,1.583-1.652,1.861
		c-0.532,0.583-1.242,0.861-2.129,0.836c-0.886-0.025-1.633-0.354-2.241-0.987c-0.558-0.761-0.956-1.526-1.197-2.299
		c-0.24-0.773-0.29-1.4-0.151-1.882C359.383,34.223,359.656,33.982,360.061,33.982z M370.32,11.41
		c0.254-1.596,0.963-2.444,2.129-2.546c0.582-0.05,1.038,0.063,1.367,0.342c0.608,1.014,0.684,1.862,0.229,2.546
		c-0.608,0.684-1.261,1.14-1.957,1.368c-0.697,0.228-1.197,0.19-1.501-0.114C370.308,12.677,370.219,12.145,370.32,11.41z"/>
	<path fill="#FFFFFF" d="M374.121,29.232c0-0.229-0.165-0.545-0.494-0.951c-0.38-0.379,0.404-2.355,2.355-5.928
		c0.152-0.152,0.349-0.418,0.59-0.798c0.24-0.38,0.398-0.595,0.475-0.646c0-0.102,0.038-0.196,0.114-0.285
		c0.075-0.089,0.164-0.133,0.266-0.133l0.304-0.608c0.102-0.228,0.596-0.772,1.482-1.634c0.887-0.861,1.596-1.456,2.128-1.786
		c0.532-0.329,1.077-0.481,1.634-0.456c0.557,0.025,1.039,0.203,1.444,0.532c0.05,0.076,0.215,0.216,0.494,0.418
		c0.481,0.38,1.558,1.318,3.229,2.812l-0.646,1.9c-0.583,1.672-0.431,3.217,0.456,4.636c0.253,0.532,0.684,0.849,1.292,0.95
		s0.911,0.38,0.911,0.836c0,1.039-0.342,1.634-1.025,1.786c-1.977,0.278-3.458-0.532-4.445-2.433
		c-0.355-0.48-0.584-1.038-0.685-1.672c-0.178,0.254-0.47,0.584-0.874,0.988c-3.445,3.496-6.055,4.674-7.828,3.534
		c-0.076-0.152-0.291-0.354-0.646-0.608C374.298,29.435,374.121,29.283,374.121,29.232z M383.051,19.314
		c-0.938,0-2.482,1.811-4.636,5.434c-0.38,0.607-0.722,1.406-1.026,2.394c0.405,0.052,1.191-0.405,2.356-1.368
		c0.228-0.202,0.538-0.469,0.931-0.798s0.678-0.569,0.855-0.722c0.177-0.152,0.404-0.354,0.684-0.608c0.48-0.48,0.912-1,1.292-1.558
		l0.836-1.368C383.912,19.783,383.481,19.314,383.051,19.314z"/>
</g>
</svg>
