<?xml version="1.0" encoding="utf-8"?>
<!-- Generator: Adobe Illustrator 15.0.0, SVG Export Plug-In . SVG Version: 6.00 Build 0)  -->
<!DOCTYPE svg PUBLIC "-//W3C//DTD SVG 1.1//EN" "http://www.w3.org/Graphics/SVG/1.1/DTD/svg11.dtd">
<svg version="1.1" xmlns="http://www.w3.org/2000/svg" xmlns:xlink="http://www.w3.org/1999/xlink" x="0px" y="0px" width="27px"
	 height="33px" viewBox="0 0 27 33" enable-background="new 0 0 27 33" xml:space="preserve">
<g id="Warstwa_2" display="none">
	<rect x="-104.667" y="-306.499" display="inline" fill="#F8EDCE" width="61.667" height="65.167"/>
	<rect x="-104.667" y="-234.499" display="inline" fill="#F8EDCE" width="61.667" height="65.167"/>
	<rect x="-104.667" y="-162.499" display="inline" fill="#F8EDCE" width="61.667" height="65.167"/>
	<rect x="-104.667" y="-90.499" display="inline" fill="#F8EDCE" width="61.667" height="65.167"/>
</g>
<g id="Warstwa_1">
	<g opacity="0.7">
		<circle fill="#009A93" cx="-72.833" cy="-274.166" r="26"/>
		<path fill="#FFFFFF" d="M-59.282-281.65c-0.272-0.757-1.377-1.13-1.666-1.081c-0.289,0.05-9.826,17.64-11.473,18.345
			c-0.285-0.65-10.516-18.422-10.917-18.549c-0.401-0.127-2.575,0.98-3.046,1.488c1.024,0.617,13.282,18.642,13.615,20.059
			C-69.381-262.948-59.259-280.511-59.282-281.65z"/>
	</g>
	<circle fill="#009A93" cx="-0.833" cy="-274.166" r="26"/>
	<path fill="#FFFFFF" d="M12.718-281.65c-0.272-0.757-1.377-1.13-1.666-1.081c-0.289,0.05-9.826,17.64-11.473,18.345
		c-0.285-0.65-10.516-18.422-10.917-18.549c-0.401-0.127-2.575,0.98-3.046,1.488c1.023,0.617,13.281,18.642,13.615,20.059
		C2.618-262.948,12.74-280.511,12.718-281.65z"/>
	<g opacity="0.7">
		<circle fill="#009A93" cx="-72.834" cy="-202.165" r="26"/>
		<path fill="#FFFFFF" d="M-59.283-194.681c-0.272,0.757-1.377,1.13-1.666,1.081c-0.289-0.05-9.826-17.64-11.473-18.345
			c-0.285,0.65-10.516,18.422-10.917,18.549c-0.401,0.127-2.575-0.98-3.046-1.488c1.024-0.617,13.282-18.642,13.615-20.059
			C-69.382-213.383-59.26-195.82-59.283-194.681z"/>
	</g>
	<circle fill="#009A93" cx="-0.836" cy="-202.165" r="26"/>
	<path fill="#FFFFFF" d="M12.715-194.681c-0.272,0.757-1.377,1.13-1.666,1.081c-0.289-0.05-9.826-17.64-11.473-18.345
		c-0.285,0.65-10.516,18.422-10.917,18.549c-0.401,0.127-2.575-0.98-3.046-1.488c1.023-0.617,13.281-18.642,13.615-20.059
		C2.615-213.383,12.737-195.82,12.715-194.681z"/>
	<circle fill="#009A93" cx="-0.833" cy="-130.166" r="26"/>
	<path fill="#FFFFFF" d="M-8.317-143.717c-0.758,0.271-1.131,1.377-1.08,1.666c0.049,0.289,17.639,9.826,18.344,11.473
		c-0.65,0.285-18.422,10.516-18.549,10.916c-0.127,0.402,0.98,2.576,1.488,3.047c0.617-1.023,18.643-13.281,20.061-13.615
		C10.384-133.617-7.179-143.74-8.317-143.717z"/>
	<circle fill="#009A93" cx="-0.833" cy="-58.166" r="26"/>
	<path fill="#FFFFFF" d="M6.651-71.717c0.758,0.271,1.131,1.377,1.08,1.666c-0.049,0.289-17.639,9.826-18.344,11.473
		c0.65,0.285,18.422,10.516,18.549,10.916c0.127,0.402-0.98,2.576-1.488,3.047C5.831-45.639-12.194-57.896-13.612-58.23
		C-12.05-61.617,5.513-71.74,6.651-71.717z"/>
	<g opacity="0.7">
		<circle fill="#009A93" cx="-72.833" cy="-130.165" r="26"/>
		<path fill="#FFFFFF" d="M-80.317-143.716c-0.758,0.272-1.131,1.377-1.08,1.666c0.05,0.289,17.64,9.826,18.345,11.473
			c-0.65,0.285-18.422,10.516-18.549,10.917c-0.128,0.401,0.98,2.575,1.488,3.046c0.617-1.024,18.642-13.282,20.06-13.615
			C-61.615-133.616-79.177-143.738-80.317-143.716z"/>
	</g>
	<g opacity="0.7">
		<circle fill="#009A93" cx="-72.833" cy="-58.164" r="26"/>
		<path fill="#FFFFFF" d="M-65.349-71.715c0.758,0.271,1.131,1.377,1.08,1.666c-0.05,0.288-17.64,9.825-18.345,11.473
			c0.65,0.285,18.422,10.516,18.549,10.916c0.128,0.401-0.98,2.575-1.488,3.047c-0.617-1.024-18.642-13.282-20.06-13.615
			C-84.051-61.616-66.488-71.738-65.349-71.715z"/>
	</g>
	<path fill="#FFFFFF" d="M-88.042,0.01c-0.922,0.331-1.376,1.676-1.314,2.027c0.061,0.352,21.467,11.956,22.324,13.961
		c-0.791,0.348-22.418,12.798-22.572,13.284c-0.156,0.488,1.193,3.134,1.811,3.708c0.752-1.246,22.686-16.164,24.411-16.568
		C-65.283,12.3-86.655-0.02-88.042,0.01z"/>
	<path fill="#009A93" d="M-19.958,0.01c0.922,0.331,1.376,1.676,1.314,2.027c-0.061,0.352-21.467,11.956-22.324,13.961
		c0.791,0.348,22.418,12.798,22.572,13.284c0.156,0.488-1.193,3.134-1.811,3.708c-0.752-1.246-22.686-16.164-24.411-16.568
		C-42.717,12.3-21.345-0.02-19.958,0.01z"/>
	<path fill="#009A93" d="M1.958,0.01C1.036,0.341,0.582,1.686,0.644,2.037C0.704,2.389,22.11,13.993,22.968,15.998
		C22.177,16.346,0.55,28.796,0.396,29.282c-0.156,0.488,1.193,3.134,1.811,3.708c0.752-1.246,22.686-16.164,24.411-16.568
		C24.717,12.3,3.345-0.02,1.958,0.01z"/>
</g>
</svg>
