<?xml version="1.0" encoding="utf-8"?>
<!-- Generator: Adobe Illustrator 15.0.0, SVG Export Plug-In . SVG Version: 6.00 Build 0)  -->
<!DOCTYPE svg PUBLIC "-//W3C//DTD SVG 1.1//EN" "http://www.w3.org/Graphics/SVG/1.1/DTD/svg11.dtd" [
	<!ENTITY ns_flows "http://ns.adobe.com/Flows/1.0/">
	<!ENTITY ns_extend "http://ns.adobe.com/Extensibility/1.0/">
	<!ENTITY ns_ai "http://ns.adobe.com/AdobeIllustrator/10.0/">
	<!ENTITY ns_graphs "http://ns.adobe.com/Graphs/1.0/">
	<!ENTITY ns_vars "http://ns.adobe.com/Variables/1.0/">
	<!ENTITY ns_imrep "http://ns.adobe.com/ImageReplacement/1.0/">
	<!ENTITY ns_sfw "http://ns.adobe.com/SaveForWeb/1.0/">
	<!ENTITY ns_custom "http://ns.adobe.com/GenericCustomNamespace/1.0/">
	<!ENTITY ns_adobe_xpath "http://ns.adobe.com/XPath/1.0/">
]>
<svg version="1.1"
	 xmlns:x="&ns_extend;" xmlns:i="&ns_ai;" xmlns:graph="&ns_graphs;" i:viewOrigin="72 0" i:rulerOrigin="-72 52" i:pageBounds="72 0 124 -52"
	 xmlns="http://www.w3.org/2000/svg" xmlns:xlink="http://www.w3.org/1999/xlink" xmlns:a="http://ns.adobe.com/AdobeSVGViewerExtensions/3.0/"
	 x="0px" y="0px" width="52px" height="52px" viewBox="0 0 52 52" enable-background="new 0 0 52 52" xml:space="preserve">
<metadata>
	<variableSets  xmlns="&ns_vars;">
		<variableSet  locked="none" varSetName="binding1">
			<variables></variables>
			<v:sampleDataSets  xmlns:v="&ns_vars;" xmlns="&ns_custom;"></v:sampleDataSets>
		</variableSet>
	</variableSets>
</metadata>
<g id="Warstwa_2" i:layer="yes" i:visible="no" i:dimmedPercent="50" i:rgbTrio="#FFFF4F004F00" display="none">
	<rect x="-77.833" y="-6.333" i:knockout="Off" display="inline" fill="#F8EDCE" width="61.667" height="65.167"/>
	<rect x="-77.833" y="65.667" i:knockout="Off" display="inline" fill="#F8EDCE" width="61.667" height="65.167"/>
	<rect x="-77.833" y="137.667" i:knockout="Off" display="inline" fill="#F8EDCE" width="61.667" height="65.167"/>
	<rect x="-77.833" y="209.667" i:knockout="Off" display="inline" fill="#F8EDCE" width="61.667" height="65.167"/>
</g>
<g id="Warstwa_1" i:layer="yes" i:dimmedPercent="50" i:rgbTrio="#4F008000FFFF">
	<g opacity="0.7">
		<circle i:knockout="Off" fill="#009A93" cx="-46" cy="26" r="26"/>
		<path i:knockout="Off" fill="#FFFFFF" d="M-32.449,18.516c-0.272-0.757-1.377-1.13-1.666-1.081
			c-0.289,0.05-9.826,17.64-11.473,18.345c-0.285-0.65-10.516-18.422-10.917-18.549c-0.401-0.127-2.575,0.98-3.046,1.488
			c1.024,0.617,13.282,18.642,13.615,20.059C-42.548,37.218-32.426,19.655-32.449,18.516z"/>
	</g>
	<circle i:knockout="Off" fill="#009A93" cx="26" cy="26" r="26"/>
	<path i:knockout="Off" fill="#FFFFFF" d="M39.551,18.516c-0.272-0.757-1.377-1.13-1.666-1.081
		c-0.289,0.05-9.826,17.64-11.473,18.345c-0.285-0.65-10.516-18.422-10.917-18.549c-0.401-0.127-2.575,0.98-3.046,1.488
		c1.023,0.617,13.281,18.642,13.615,20.059C29.451,37.218,39.573,19.655,39.551,18.516z"/>
	<g opacity="0.7">
		<circle i:knockout="Off" fill="#009A93" cx="-46.001" cy="98.001" r="26"/>
		<path i:knockout="Off" fill="#FFFFFF" d="M-32.45,105.485c-0.272,0.757-1.377,1.13-1.666,1.081
			c-0.289-0.05-9.826-17.64-11.473-18.345c-0.285,0.65-10.516,18.422-10.917,18.549c-0.401,0.127-2.575-0.98-3.046-1.488
			c1.024-0.617,13.282-18.642,13.615-20.059C-42.549,86.783-32.427,104.346-32.45,105.485z"/>
	</g>
	<circle i:knockout="Off" fill="#009A93" cx="25.997" cy="98.001" r="26"/>
	<path i:knockout="Off" fill="#FFFFFF" d="M39.548,105.485c-0.272,0.757-1.377,1.13-1.666,1.081
		c-0.289-0.05-9.826-17.64-11.473-18.345c-0.285,0.65-10.516,18.422-10.917,18.549c-0.401,0.127-2.575-0.98-3.046-1.488
		c1.023-0.617,13.281-18.642,13.615-20.059C29.448,86.783,39.57,104.346,39.548,105.485z"/>
	<circle i:knockout="Off" fill="#009A93" cx="26" cy="170" r="26"/>
	<path i:knockout="Off" fill="#FFFFFF" d="M18.516,156.449c-0.758,0.271-1.131,1.377-1.08,1.666
		c0.049,0.289,17.639,9.826,18.344,11.473c-0.65,0.285-18.422,10.516-18.549,10.916c-0.127,0.402,0.98,2.576,1.488,3.047
		c0.617-1.023,18.643-13.281,20.061-13.615C37.217,166.549,19.654,156.426,18.516,156.449z"/>
	<circle i:knockout="Off" fill="#009A93" cx="26" cy="242" r="26"/>
	<path i:knockout="Off" fill="#FFFFFF" d="M33.484,228.449c0.758,0.271,1.131,1.377,1.08,1.666
		c-0.049,0.289-17.639,9.826-18.344,11.473c0.65,0.285,18.422,10.516,18.549,10.916c0.127,0.402-0.98,2.576-1.488,3.047
		c-0.617-1.023-18.643-13.281-20.061-13.615C14.783,238.549,32.346,228.426,33.484,228.449z"/>
	<g opacity="0.7">
		<circle i:knockout="Off" fill="#009A93" cx="-46" cy="170.001" r="26"/>
		<path i:knockout="Off" fill="#FFFFFF" d="M-53.484,156.45c-0.758,0.272-1.131,1.377-1.08,1.666
			c0.05,0.289,17.64,9.826,18.345,11.473c-0.65,0.285-18.422,10.516-18.549,10.917c-0.128,0.401,0.98,2.575,1.488,3.046
			c0.617-1.024,18.642-13.282,20.06-13.615C-34.782,166.55-52.344,156.428-53.484,156.45z"/>
	</g>
	<g opacity="0.7">
		<circle i:knockout="Off" fill="#009A93" cx="-46" cy="242.002" r="26"/>
		<path i:knockout="Off" fill="#FFFFFF" d="M-38.516,228.451c0.758,0.271,1.131,1.377,1.08,1.666
			c-0.05,0.288-17.64,9.825-18.345,11.473c0.65,0.285,18.422,10.516,18.549,10.916c0.128,0.401-0.98,2.575-1.488,3.047
			c-0.617-1.024-18.642-13.282-20.06-13.615C-57.218,238.55-39.655,228.428-38.516,228.451z"/>
	</g>
</g>
</svg>
