<?xml version="1.0" encoding="utf-8"?>
<!-- Generator: Adobe Illustrator 15.0.0, SVG Export Plug-In . SVG Version: 6.00 Build 0)  -->
<!DOCTYPE svg PUBLIC "-//W3C//DTD SVG 1.1//EN" "http://www.w3.org/Graphics/SVG/1.1/DTD/svg11.dtd">
<svg version="1.1" xmlns="http://www.w3.org/2000/svg" xmlns:xlink="http://www.w3.org/1999/xlink" x="0px" y="0px" width="27px"
	 height="33px" viewBox="0 0 27 33" enable-background="new 0 0 27 33" xml:space="preserve">
<g id="Warstwa_2" display="none">
	<rect x="-59.667" y="-358.999" display="inline" fill="#F8EDCE" width="61.667" height="65.167"/>
	<rect x="-59.667" y="-286.999" display="inline" fill="#F8EDCE" width="61.667" height="65.167"/>
	<rect x="-59.667" y="-214.999" display="inline" fill="#F8EDCE" width="61.667" height="65.167"/>
	<rect x="-59.667" y="-142.999" display="inline" fill="#F8EDCE" width="61.667" height="65.167"/>
</g>
<g id="Warstwa_1">
	<g opacity="0.7">
		<circle fill="#009A93" cx="-27.833" cy="-326.666" r="26"/>
		<path fill="#FFFFFF" d="M-14.282-334.15c-0.272-0.757-1.377-1.13-1.666-1.081c-0.289,0.05-9.826,17.64-11.473,18.345
			c-0.285-0.65-10.516-18.422-10.917-18.549c-0.401-0.127-2.575,0.98-3.046,1.488c1.024,0.617,13.282,18.642,13.615,20.059
			C-24.381-315.448-14.259-333.011-14.282-334.15z"/>
	</g>
	<circle fill="#009A93" cx="44.167" cy="-326.666" r="26"/>
	<path fill="#FFFFFF" d="M57.718-334.15c-0.272-0.757-1.377-1.13-1.666-1.081c-0.289,0.05-9.826,17.64-11.473,18.345
		c-0.285-0.65-10.516-18.422-10.917-18.549c-0.401-0.127-2.575,0.98-3.046,1.488c1.023,0.617,13.281,18.642,13.615,20.059
		C47.618-315.448,57.74-333.011,57.718-334.15z"/>
	<g opacity="0.7">
		<circle fill="#009A93" cx="-27.834" cy="-254.665" r="26"/>
		<path fill="#FFFFFF" d="M-14.283-247.181c-0.272,0.757-1.377,1.13-1.666,1.081c-0.289-0.05-9.826-17.64-11.473-18.345
			c-0.285,0.65-10.516,18.422-10.917,18.549c-0.401,0.127-2.575-0.98-3.046-1.488c1.024-0.617,13.282-18.642,13.615-20.059
			C-24.382-265.883-14.26-248.32-14.283-247.181z"/>
	</g>
	<circle fill="#009A93" cx="44.164" cy="-254.665" r="26"/>
	<path fill="#FFFFFF" d="M57.715-247.181c-0.272,0.757-1.377,1.13-1.666,1.081c-0.289-0.05-9.826-17.64-11.473-18.345
		c-0.285,0.65-10.516,18.422-10.917,18.549c-0.401,0.127-2.575-0.98-3.046-1.488c1.023-0.617,13.281-18.642,13.615-20.059
		C47.615-265.883,57.737-248.32,57.715-247.181z"/>
	<circle fill="#009A93" cx="44.167" cy="-182.666" r="26"/>
	<path fill="#FFFFFF" d="M36.683-196.217c-0.758,0.271-1.131,1.377-1.08,1.666c0.049,0.289,17.639,9.826,18.344,11.473
		c-0.65,0.285-18.422,10.516-18.549,10.916c-0.127,0.402,0.98,2.576,1.488,3.047c0.617-1.023,18.643-13.281,20.061-13.615
		C55.384-186.117,37.821-196.24,36.683-196.217z"/>
	<circle fill="#009A93" cx="44.167" cy="-110.666" r="26"/>
	<path fill="#FFFFFF" d="M51.651-124.217c0.758,0.271,1.131,1.377,1.08,1.666c-0.049,0.289-17.639,9.826-18.344,11.473
		c0.65,0.285,18.422,10.516,18.549,10.916c0.127,0.402-0.98,2.576-1.488,3.047c-0.617-1.023-18.643-13.281-20.061-13.615
		C32.95-114.117,50.513-124.24,51.651-124.217z"/>
	<g opacity="0.7">
		<circle fill="#009A93" cx="-27.833" cy="-182.665" r="26"/>
		<path fill="#FFFFFF" d="M-35.317-196.216c-0.758,0.272-1.131,1.377-1.08,1.666c0.05,0.289,17.64,9.826,18.345,11.473
			c-0.65,0.285-18.422,10.516-18.549,10.917c-0.128,0.401,0.98,2.575,1.488,3.046c0.617-1.024,18.642-13.282,20.06-13.615
			C-16.615-186.116-34.177-196.238-35.317-196.216z"/>
	</g>
	<g opacity="0.7">
		<circle fill="#009A93" cx="-27.833" cy="-110.664" r="26"/>
		<path fill="#FFFFFF" d="M-20.349-124.215c0.758,0.271,1.131,1.377,1.08,1.666c-0.05,0.288-17.64,9.825-18.345,11.473
			c0.65,0.285,18.422,10.516,18.549,10.916c0.128,0.401-0.98,2.575-1.488,3.047c-0.617-1.024-18.642-13.282-20.06-13.615
			C-39.051-114.116-21.488-124.238-20.349-124.215z"/>
	</g>
	<path fill="#FFFFFF" d="M-43.042-52.49c-0.922,0.331-1.376,1.676-1.314,2.027c0.061,0.352,21.467,11.956,22.324,13.961
		c-0.791,0.348-22.418,12.798-22.572,13.284c-0.156,0.488,1.193,3.134,1.811,3.708c0.752-1.246,22.686-16.164,24.411-16.568
		C-20.283-40.2-41.655-52.52-43.042-52.49z"/>
	<path fill="#009A93" d="M25.042-52.49c0.922,0.331,1.376,1.676,1.314,2.027C26.296-50.111,4.89-38.507,4.032-36.502
		c0.791,0.348,22.418,12.798,22.572,13.284c0.156,0.488-1.193,3.134-1.811,3.708C24.042-20.756,2.108-35.674,0.383-36.078
		C2.283-40.2,23.655-52.52,25.042-52.49z"/>
	<path fill="#95BB20" d="M25.042,0.01c0.922,0.331,1.376,1.676,1.314,2.027C26.296,2.389,4.89,13.993,4.032,15.998
		c0.791,0.348,22.418,12.798,22.572,13.284c0.156,0.488-1.193,3.134-1.811,3.708C24.042,31.744,2.108,16.826,0.383,16.422
		C2.283,12.3,23.655-0.02,25.042,0.01z"/>
	<path fill="#009A93" d="M46.958-52.49c-0.922,0.331-1.376,1.676-1.314,2.027c0.061,0.352,21.467,11.956,22.324,13.961
		c-0.791,0.348-22.418,12.798-22.572,13.284c-0.156,0.488,1.193,3.134,1.811,3.708c0.752-1.246,22.686-16.164,24.411-16.568
		C69.717-40.2,48.345-52.52,46.958-52.49z"/>
	<path fill="#95BB20" d="M46.958-0.24c-0.922,0.331-1.376,1.676-1.314,2.027c0.061,0.352,21.467,11.956,22.324,13.961
		c-0.791,0.348-22.418,12.798-22.572,13.284c-0.156,0.488,1.193,3.134,1.811,3.708c0.752-1.246,22.686-16.164,24.411-16.568
		C69.717,12.05,48.345-0.27,46.958-0.24z"/>
</g>
</svg>
