<?xml version="1.0" encoding="utf-8"?>
<!-- Generator: Adobe Illustrator 15.0.0, SVG Export Plug-In . SVG Version: 6.00 Build 0)  -->
<!DOCTYPE svg PUBLIC "-//W3C//DTD SVG 1.1//EN" "http://www.w3.org/Graphics/SVG/1.1/DTD/svg11.dtd" [
	<!ENTITY ns_flows "http://ns.adobe.com/Flows/1.0/">
	<!ENTITY ns_extend "http://ns.adobe.com/Extensibility/1.0/">
	<!ENTITY ns_ai "http://ns.adobe.com/AdobeIllustrator/10.0/">
	<!ENTITY ns_graphs "http://ns.adobe.com/Graphs/1.0/">
	<!ENTITY ns_vars "http://ns.adobe.com/Variables/1.0/">
	<!ENTITY ns_imrep "http://ns.adobe.com/ImageReplacement/1.0/">
	<!ENTITY ns_sfw "http://ns.adobe.com/SaveForWeb/1.0/">
	<!ENTITY ns_custom "http://ns.adobe.com/GenericCustomNamespace/1.0/">
	<!ENTITY ns_adobe_xpath "http://ns.adobe.com/XPath/1.0/">
]>
<svg version="1.1"
	 xmlns:x="&ns_extend;" xmlns:i="&ns_ai;" xmlns:graph="&ns_graphs;" i:viewOrigin="8.833 -300.166" i:rulerOrigin="-8.833 333.166" i:pageBounds="8.833 -300.166 35.833 -333.166"
	 xmlns="http://www.w3.org/2000/svg" xmlns:xlink="http://www.w3.org/1999/xlink" xmlns:a="http://ns.adobe.com/AdobeSVGViewerExtensions/3.0/"
	 x="0px" y="0px" width="27px" height="33px" viewBox="0 0 27 33" enable-background="new 0 0 27 33" xml:space="preserve">
<metadata>
	<variableSets  xmlns="&ns_vars;">
		<variableSet  varSetName="binding1" locked="none">
			<variables></variables>
			<v:sampleDataSets  xmlns="&ns_custom;" xmlns:v="&ns_vars;"></v:sampleDataSets>
		</variableSet>
	</variableSets>
</metadata>
<g id="Warstwa_2" i:layer="yes" i:visible="no" i:dimmedPercent="50" i:rgbTrio="#FFFF4F004F00" display="none">
	<rect x="-14.667" y="-306.499" i:knockout="Off" display="inline" fill="#F8EDCE" width="61.667" height="65.167"/>
	<rect x="-14.667" y="-234.499" i:knockout="Off" display="inline" fill="#F8EDCE" width="61.667" height="65.167"/>
	<rect x="-14.667" y="-162.499" i:knockout="Off" display="inline" fill="#F8EDCE" width="61.667" height="65.167"/>
	<rect x="-14.667" y="-90.499" i:knockout="Off" display="inline" fill="#F8EDCE" width="61.667" height="65.167"/>
</g>
<g id="Warstwa_1" i:layer="yes" i:dimmedPercent="50" i:rgbTrio="#4F008000FFFF">
	<g opacity="0.7">
		<circle i:knockout="Off" fill="#009A93" cx="17.167" cy="-274.166" r="26"/>
		<path i:knockout="Off" fill="#FFFFFF" d="M30.718-281.65c-0.272-0.757-1.377-1.13-1.666-1.081
			c-0.289,0.05-9.826,17.64-11.473,18.345c-0.285-0.65-10.516-18.422-10.917-18.549c-0.401-0.127-2.575,0.98-3.046,1.488
			c1.024,0.617,13.282,18.642,13.615,20.059C20.619-262.948,30.741-280.511,30.718-281.65z"/>
	</g>
	<circle i:knockout="Off" fill="#009A93" cx="89.167" cy="-274.166" r="26"/>
	<path i:knockout="Off" fill="#FFFFFF" d="M102.718-281.65c-0.272-0.757-1.377-1.13-1.666-1.081
		c-0.289,0.05-9.826,17.64-11.473,18.345c-0.285-0.65-10.516-18.422-10.917-18.549c-0.401-0.127-2.575,0.98-3.046,1.488
		c1.023,0.617,13.281,18.642,13.615,20.059C92.618-262.948,102.74-280.511,102.718-281.65z"/>
	<g opacity="0.7">
		<circle i:knockout="Off" fill="#009A93" cx="17.166" cy="-202.165" r="26"/>
		<path i:knockout="Off" fill="#FFFFFF" d="M30.717-194.681c-0.272,0.757-1.377,1.13-1.666,1.081
			c-0.289-0.05-9.826-17.64-11.473-18.345c-0.285,0.65-10.516,18.422-10.917,18.549c-0.401,0.127-2.575-0.98-3.046-1.488
			c1.024-0.617,13.282-18.642,13.615-20.059C20.618-213.383,30.74-195.82,30.717-194.681z"/>
	</g>
	<circle i:knockout="Off" fill="#009A93" cx="89.164" cy="-202.165" r="26"/>
	<path i:knockout="Off" fill="#FFFFFF" d="M102.715-194.681c-0.272,0.757-1.377,1.13-1.666,1.081
		c-0.289-0.05-9.826-17.64-11.473-18.345c-0.285,0.65-10.516,18.422-10.917,18.549c-0.401,0.127-2.575-0.98-3.046-1.488
		c1.023-0.617,13.281-18.642,13.615-20.059C92.615-213.383,102.737-195.82,102.715-194.681z"/>
	<circle i:knockout="Off" fill="#009A93" cx="89.167" cy="-130.166" r="26"/>
	<path i:knockout="Off" fill="#FFFFFF" d="M81.683-143.717c-0.758,0.271-1.131,1.377-1.08,1.666
		c0.049,0.289,17.639,9.826,18.344,11.473c-0.65,0.285-18.422,10.516-18.549,10.916c-0.127,0.402,0.98,2.576,1.488,3.047
		c0.617-1.023,18.643-13.281,20.061-13.615C100.384-133.617,82.821-143.74,81.683-143.717z"/>
	<circle i:knockout="Off" fill="#009A93" cx="89.167" cy="-58.166" r="26"/>
	<path i:knockout="Off" fill="#FFFFFF" d="M96.651-71.717c0.758,0.271,1.131,1.377,1.08,1.666
		c-0.049,0.289-17.639,9.826-18.344,11.473c0.65,0.285,18.422,10.516,18.549,10.916c0.127,0.402-0.98,2.576-1.488,3.047
		c-0.617-1.023-18.643-13.281-20.061-13.615C77.95-61.617,95.513-71.74,96.651-71.717z"/>
	<g opacity="0.7">
		<circle i:knockout="Off" fill="#009A93" cx="17.167" cy="-130.165" r="26"/>
		<path i:knockout="Off" fill="#FFFFFF" d="M9.683-143.716c-0.758,0.272-1.131,1.377-1.08,1.666
			c0.05,0.289,17.64,9.826,18.345,11.473c-0.65,0.285-18.422,10.516-18.549,10.917c-0.128,0.401,0.98,2.575,1.488,3.046
			c0.617-1.024,18.642-13.282,20.06-13.615C28.385-133.616,10.823-143.738,9.683-143.716z"/>
	</g>
	<g opacity="0.7">
		<circle i:knockout="Off" fill="#009A93" cx="17.167" cy="-58.164" r="26"/>
		<path i:knockout="Off" fill="#FFFFFF" d="M24.651-71.715c0.758,0.271,1.131,1.377,1.08,1.666
			c-0.05,0.288-17.64,9.825-18.345,11.473c0.65,0.285,18.422,10.516,18.549,10.916c0.128,0.401-0.98,2.575-1.488,3.047
			C23.83-45.638,5.806-57.896,4.388-58.229C5.949-61.616,23.512-71.738,24.651-71.715z"/>
	</g>
	<path i:knockout="Off" fill="#FFFFFF" d="M1.958,0.01C1.036,0.341,0.582,1.686,0.644,2.037C0.704,2.389,22.11,13.993,22.968,15.998
		C22.176,16.346,0.549,28.796,0.396,29.282c-0.156,0.488,1.193,3.134,1.811,3.708c0.751-1.246,22.686-16.164,24.411-16.568
		C24.717,12.3,3.345-0.02,1.958,0.01z"/>
</g>
</svg>
