<?xml version="1.0" encoding="utf-8"?>
<!-- Generator: Adobe Illustrator 15.0.0, SVG Export Plug-In . SVG Version: 6.00 Build 0)  -->
<!DOCTYPE svg PUBLIC "-//W3C//DTD SVG 1.1//EN" "http://www.w3.org/Graphics/SVG/1.1/DTD/svg11.dtd">
<svg version="1.1" xmlns="http://www.w3.org/2000/svg" xmlns:xlink="http://www.w3.org/1999/xlink" x="0px" y="0px" width="27px"
	 height="33px" viewBox="0 0 27 33" enable-background="new 0 0 27 33" xml:space="preserve">
<g id="Warstwa_2" display="none">
	<rect x="-59.667" y="-306.499" display="inline" fill="#F8EDCE" width="61.667" height="65.167"/>
	<rect x="-59.667" y="-234.499" display="inline" fill="#F8EDCE" width="61.667" height="65.167"/>
	<rect x="-59.667" y="-162.499" display="inline" fill="#F8EDCE" width="61.667" height="65.167"/>
	<rect x="-59.667" y="-90.499" display="inline" fill="#F8EDCE" width="61.667" height="65.167"/>
</g>
<g id="Warstwa_1">
	<g opacity="0.7">
		<circle fill="#009A93" cx="-27.833" cy="-274.166" r="26"/>
		<path fill="#FFFFFF" d="M-14.282-281.65c-0.272-0.757-1.377-1.13-1.666-1.081c-0.289,0.05-9.826,17.64-11.473,18.345
			c-0.285-0.65-10.516-18.422-10.917-18.549c-0.401-0.127-2.575,0.98-3.046,1.488c1.024,0.617,13.282,18.642,13.615,20.059
			C-24.381-262.948-14.259-280.511-14.282-281.65z"/>
	</g>
	<circle fill="#009A93" cx="44.167" cy="-274.166" r="26"/>
	<path fill="#FFFFFF" d="M57.718-281.65c-0.272-0.757-1.377-1.13-1.666-1.081c-0.289,0.05-9.826,17.64-11.473,18.345
		c-0.285-0.65-10.516-18.422-10.917-18.549c-0.401-0.127-2.575,0.98-3.046,1.488c1.023,0.617,13.281,18.642,13.615,20.059
		C47.618-262.948,57.74-280.511,57.718-281.65z"/>
	<g opacity="0.7">
		<circle fill="#009A93" cx="-27.834" cy="-202.165" r="26"/>
		<path fill="#FFFFFF" d="M-14.283-194.681c-0.272,0.757-1.377,1.13-1.666,1.081c-0.289-0.05-9.826-17.64-11.473-18.345
			c-0.285,0.65-10.516,18.422-10.917,18.549c-0.401,0.127-2.575-0.98-3.046-1.488c1.024-0.617,13.282-18.642,13.615-20.059
			C-24.382-213.383-14.26-195.82-14.283-194.681z"/>
	</g>
	<circle fill="#009A93" cx="44.164" cy="-202.165" r="26"/>
	<path fill="#FFFFFF" d="M57.715-194.681c-0.272,0.757-1.377,1.13-1.666,1.081c-0.289-0.05-9.826-17.64-11.473-18.345
		c-0.285,0.65-10.516,18.422-10.917,18.549c-0.401,0.127-2.575-0.98-3.046-1.488c1.023-0.617,13.281-18.642,13.615-20.059
		C47.615-213.383,57.737-195.82,57.715-194.681z"/>
	<circle fill="#009A93" cx="44.167" cy="-130.166" r="26"/>
	<path fill="#FFFFFF" d="M36.683-143.717c-0.758,0.271-1.131,1.377-1.08,1.666c0.049,0.289,17.639,9.826,18.344,11.473
		c-0.65,0.285-18.422,10.516-18.549,10.916c-0.127,0.402,0.98,2.576,1.488,3.047c0.617-1.023,18.643-13.281,20.061-13.615
		C55.384-133.617,37.821-143.74,36.683-143.717z"/>
	<circle fill="#009A93" cx="44.167" cy="-58.166" r="26"/>
	<path fill="#FFFFFF" d="M51.651-71.717c0.758,0.271,1.131,1.377,1.08,1.666c-0.049,0.289-17.639,9.826-18.344,11.473
		c0.65,0.285,18.422,10.516,18.549,10.916c0.127,0.402-0.98,2.576-1.488,3.047c-0.617-1.023-18.643-13.281-20.061-13.615
		C32.95-61.617,50.513-71.74,51.651-71.717z"/>
	<g opacity="0.7">
		<circle fill="#009A93" cx="-27.833" cy="-130.165" r="26"/>
		<path fill="#FFFFFF" d="M-35.317-143.716c-0.758,0.272-1.131,1.377-1.08,1.666c0.05,0.289,17.64,9.826,18.345,11.473
			c-0.65,0.285-18.422,10.516-18.549,10.917c-0.128,0.401,0.98,2.575,1.488,3.046c0.617-1.024,18.642-13.282,20.06-13.615
			C-16.615-133.616-34.177-143.738-35.317-143.716z"/>
	</g>
	<g opacity="0.7">
		<circle fill="#009A93" cx="-27.833" cy="-58.164" r="26"/>
		<path fill="#FFFFFF" d="M-20.349-71.715c0.758,0.271,1.131,1.377,1.08,1.666c-0.05,0.288-17.64,9.825-18.345,11.473
			c0.65,0.285,18.422,10.516,18.549,10.916c0.128,0.401-0.98,2.575-1.488,3.047c-0.617-1.024-18.642-13.282-20.06-13.615
			C-39.051-61.616-21.488-71.738-20.349-71.715z"/>
	</g>
	<path fill="#FFFFFF" d="M-43.042,0.01c-0.922,0.331-1.376,1.676-1.314,2.027c0.061,0.352,21.467,11.956,22.324,13.961
		c-0.791,0.348-22.418,12.798-22.572,13.284c-0.156,0.488,1.193,3.134,1.811,3.708c0.752-1.246,22.686-16.164,24.411-16.568
		C-20.283,12.3-41.655-0.02-43.042,0.01z"/>
	<path fill="#009A93" d="M25.042,0.01c0.922,0.331,1.376,1.676,1.314,2.027C26.296,2.389,4.89,13.993,4.032,15.998
		c0.791,0.348,22.418,12.798,22.572,13.284c0.156,0.488-1.193,3.134-1.811,3.708C24.042,31.744,2.108,16.826,0.383,16.422
		C2.283,12.3,23.655-0.02,25.042,0.01z"/>
	<path fill="#009A93" d="M46.958,0.01c-0.922,0.331-1.376,1.676-1.314,2.027c0.061,0.352,21.467,11.956,22.324,13.961
		c-0.791,0.348-22.418,12.798-22.572,13.284c-0.156,0.488,1.193,3.134,1.811,3.708c0.752-1.246,22.686-16.164,24.411-16.568
		C69.717,12.3,48.345-0.02,46.958,0.01z"/>
</g>
</svg>
