<?xml version="1.0" encoding="utf-8"?>
<!-- Generator: Adobe Illustrator 15.0.0, SVG Export Plug-In . SVG Version: 6.00 Build 0)  -->
<!DOCTYPE svg PUBLIC "-//W3C//DTD SVG 1.1//EN" "http://www.w3.org/Graphics/SVG/1.1/DTD/svg11.dtd">
<svg version="1.1" xmlns="http://www.w3.org/2000/svg" xmlns:xlink="http://www.w3.org/1999/xlink" x="0px" y="0px" width="27px"
	 height="33px" viewBox="0 0 27 33" enable-background="new 0 0 27 33" xml:space="preserve">
<g id="Warstwa_2" display="none">
	<rect x="-104.667" y="-358.749" display="inline" fill="#F8EDCE" width="61.667" height="65.167"/>
	<rect x="-104.667" y="-286.749" display="inline" fill="#F8EDCE" width="61.667" height="65.167"/>
	<rect x="-104.667" y="-214.749" display="inline" fill="#F8EDCE" width="61.667" height="65.167"/>
	<rect x="-104.667" y="-142.749" display="inline" fill="#F8EDCE" width="61.667" height="65.167"/>
</g>
<g id="Warstwa_1">
	<g opacity="0.7">
		<circle fill="#009A93" cx="-72.833" cy="-326.416" r="26"/>
		<path fill="#FFFFFF" d="M-59.282-333.9c-0.272-0.757-1.377-1.13-1.666-1.081c-0.289,0.05-9.826,17.64-11.473,18.345
			c-0.285-0.65-10.516-18.422-10.917-18.549c-0.401-0.127-2.575,0.98-3.046,1.488c1.024,0.617,13.282,18.642,13.615,20.059
			C-69.381-315.198-59.259-332.761-59.282-333.9z"/>
	</g>
	<circle fill="#009A93" cx="-0.833" cy="-326.416" r="26"/>
	<path fill="#FFFFFF" d="M12.718-333.9c-0.272-0.757-1.377-1.13-1.666-1.081c-0.289,0.05-9.826,17.64-11.473,18.345
		c-0.285-0.65-10.516-18.422-10.917-18.549c-0.401-0.127-2.575,0.98-3.046,1.488c1.023,0.617,13.281,18.642,13.615,20.059
		C2.618-315.198,12.74-332.761,12.718-333.9z"/>
	<g opacity="0.7">
		<circle fill="#009A93" cx="-72.834" cy="-254.415" r="26"/>
		<path fill="#FFFFFF" d="M-59.283-246.931c-0.272,0.757-1.377,1.13-1.666,1.081c-0.289-0.05-9.826-17.64-11.473-18.345
			c-0.285,0.65-10.516,18.422-10.917,18.549c-0.401,0.127-2.575-0.98-3.046-1.488c1.024-0.617,13.282-18.642,13.615-20.059
			C-69.382-265.633-59.26-248.07-59.283-246.931z"/>
	</g>
	<circle fill="#009A93" cx="-0.836" cy="-254.415" r="26"/>
	<path fill="#FFFFFF" d="M12.715-246.931c-0.272,0.757-1.377,1.13-1.666,1.081c-0.289-0.05-9.826-17.64-11.473-18.345
		c-0.285,0.65-10.516,18.422-10.917,18.549c-0.401,0.127-2.575-0.98-3.046-1.488c1.023-0.617,13.281-18.642,13.615-20.059
		C2.615-265.633,12.737-248.07,12.715-246.931z"/>
	<circle fill="#009A93" cx="-0.833" cy="-182.416" r="26"/>
	<path fill="#FFFFFF" d="M-8.317-195.967c-0.758,0.271-1.131,1.377-1.08,1.666c0.049,0.289,17.639,9.826,18.344,11.473
		c-0.65,0.285-18.422,10.516-18.549,10.916c-0.127,0.402,0.98,2.576,1.488,3.047c0.617-1.023,18.643-13.281,20.061-13.615
		C10.384-185.867-7.179-195.99-8.317-195.967z"/>
	<circle fill="#009A93" cx="-0.833" cy="-110.416" r="26"/>
	<path fill="#FFFFFF" d="M6.651-123.967c0.758,0.271,1.131,1.377,1.08,1.666c-0.049,0.289-17.639,9.826-18.344,11.473
		c0.65,0.285,18.422,10.516,18.549,10.916c0.127,0.402-0.98,2.576-1.488,3.047c-0.617-1.023-18.643-13.281-20.061-13.615
		C-12.05-113.867,5.513-123.99,6.651-123.967z"/>
	<g opacity="0.7">
		<circle fill="#009A93" cx="-72.833" cy="-182.415" r="26"/>
		<path fill="#FFFFFF" d="M-80.317-195.966c-0.758,0.272-1.131,1.377-1.08,1.666c0.05,0.289,17.64,9.826,18.345,11.473
			c-0.65,0.285-18.422,10.516-18.549,10.917c-0.128,0.401,0.98,2.575,1.488,3.046c0.617-1.024,18.642-13.282,20.06-13.615
			C-61.615-185.866-79.177-195.988-80.317-195.966z"/>
	</g>
	<g opacity="0.7">
		<circle fill="#009A93" cx="-72.833" cy="-110.414" r="26"/>
		<path fill="#FFFFFF" d="M-65.349-123.965c0.758,0.271,1.131,1.377,1.08,1.666c-0.05,0.288-17.64,9.825-18.345,11.473
			c0.65,0.285,18.422,10.516,18.549,10.916c0.128,0.401-0.98,2.575-1.488,3.047c-0.617-1.024-18.642-13.282-20.06-13.615
			C-84.051-113.866-66.488-123.988-65.349-123.965z"/>
	</g>
	<path fill="#FFFFFF" d="M-88.042-52.24c-0.922,0.331-1.376,1.676-1.314,2.027c0.061,0.352,21.467,11.956,22.324,13.961
		c-0.791,0.348-22.418,12.798-22.572,13.284c-0.156,0.488,1.193,3.134,1.811,3.708c0.752-1.246,22.686-16.164,24.411-16.568
		C-65.283-39.95-86.655-52.27-88.042-52.24z"/>
	<path fill="#009A93" d="M-19.958-52.24c0.922,0.331,1.376,1.676,1.314,2.027c-0.061,0.352-21.467,11.956-22.324,13.961
		c0.791,0.348,22.418,12.798,22.572,13.284c0.156,0.488-1.193,3.134-1.811,3.708c-0.752-1.246-22.686-16.164-24.411-16.568
		C-42.717-39.95-21.345-52.27-19.958-52.24z"/>
	<path fill="#95BB20" d="M-19.958,0.26c0.922,0.331,1.376,1.676,1.314,2.027c-0.061,0.352-21.467,11.956-22.324,13.961
		c0.791,0.348,22.418,12.798,22.572,13.284c0.156,0.488-1.193,3.134-1.811,3.708c-0.752-1.246-22.686-16.164-24.411-16.568
		C-42.717,12.55-21.345,0.23-19.958,0.26z"/>
	<path fill="#009A93" d="M1.958-52.24c-0.922,0.331-1.376,1.676-1.314,2.027c0.061,0.352,21.467,11.956,22.324,13.961
		C22.177-35.904,0.55-23.454,0.396-22.968c-0.156,0.488,1.193,3.134,1.811,3.708c0.752-1.246,22.686-16.164,24.411-16.568
		C24.717-39.95,3.345-52.27,1.958-52.24z"/>
	<path fill="#95BB20" d="M1.958,0.01C1.036,0.341,0.582,1.686,0.644,2.037C0.704,2.389,22.11,13.993,22.968,15.998
		C22.177,16.346,0.55,28.796,0.396,29.282c-0.156,0.488,1.193,3.134,1.811,3.708c0.752-1.246,22.686-16.164,24.411-16.568
		C24.717,12.3,3.345-0.02,1.958,0.01z"/>
</g>
</svg>
