<?xml version="1.0" encoding="UTF-8" standalone="no"?>
<svg width="45px" height="45px" viewBox="0 0 45 45" version="1.1" xmlns="http://www.w3.org/2000/svg" xmlns:xlink="http://www.w3.org/1999/xlink">
    <!-- Generator: Sketch 49.3 (51167) - http://www.bohemiancoding.com/sketch -->
    <title>Group 5</title>
    <desc>Created with Sketch.</desc>
    <defs>
        <polygon id="path-1" points="0 0.0860387302 44.9140246 0.0860387302 44.9140246 45 0 45"></polygon>
    </defs>
    <g id="Page-1" stroke="none" stroke-width="1" fill="none" fill-rule="evenodd">
        <g id="Film" transform="translate(-1058.000000, -1958.000000)">
            <g id="Page-1-Copy-2" transform="translate(1058.000000, 1958.000000)">
                <g id="Group-5">
                    <mask id="mask-2" fill="white">
                        <use xlink:href="#path-1"></use>
                    </mask>
                    <g id="Clip-4"></g>
                    <path d="M22.417669,45 C18.6547817,45.0006338 14.8700282,44.0616549 11.4421056,42.1314085 C10.8057676,41.7736268 10.5804507,40.9674296 10.9388662,40.3317254 C11.296331,39.6957042 12.1025282,39.4697535 12.7388662,39.8284859 C20.4500282,44.1690845 30.2105915,42.827007 36.4747817,36.5605986 C44.2043239,28.8313732 44.2043239,16.2551408 36.4747817,8.52528169 C28.7452394,0.794471831 16.1680563,0.795422535 8.43883099,8.52528169 C0.709605634,16.2551408 0.709605634,28.8313732 8.43883099,36.5605986 C8.95506338,37.076831 8.95506338,37.9140845 8.43883099,38.4303169 C7.92323239,38.9462324 7.08629577,38.9462324 6.57006338,38.4303169 C-2.19004225,29.6695775 -2.19004225,15.4163028 6.57006338,6.65588028 C15.330169,-2.10359155 29.5828099,-2.10422535 38.3441831,6.65588028 C47.1039718,15.4163028 47.1039718,29.6695775 38.3441831,38.4303169 C34.0289366,42.7455634 28.2492887,45 22.417669,45" id="Fill-3" fill="#fff" mask="url(#mask-2)"></path>
                </g>
            </g>
        </g>
    </g>
</svg>