<?xml version="1.0" encoding="UTF-8" standalone="no"?>
<svg width="28px" height="28px" viewBox="0 0 28 28" version="1.1" xmlns="http://www.w3.org/2000/svg" xmlns:xlink="http://www.w3.org/1999/xlink">
    <!-- Generator: Sketch 50.2 (55047) - http://www.bohemiancoding.com/sketch -->
    <title>Group 4</title>
    <desc>Created with Sketch.</desc>
    <defs></defs>
    <g id="Page-1" stroke="none" stroke-width="1" fill="none" fill-rule="evenodd">
        <g id="Home-Copy-2" transform="translate(-1374.000000, -33.000000)">
            <g id="Group-4" transform="translate(1374.000000, 33.000000)">
                <g id="Group-3">
                    <path d="M0,14 C0,21.7190043 6.28099573,28 14,28 C21.7195682,28 28,21.7190043 28,14 C28,6.28043181 21.720696,0 14,0 C6.28099573,0 0,6.28043181 0,14 Z" id="Fill-1" fill="#1D1D1B"></path>
                    <path d="M17.4816724,14.4928704 L15.2039797,14.4928704 L15.2039797,22.6111335 L11.829453,22.6111335 L11.829453,14.4928704 L10.2245227,14.4928704 L10.2245227,11.6236204 L11.829453,11.6236204 L11.829453,9.76774349 C11.829453,8.43857246 12.4610489,6.36163699 15.2355595,6.36163699 L17.7360026,6.37122372 L17.7360026,9.15644888 L15.9207283,9.15644888 C15.6252316,9.15644888 15.2051075,9.30419721 15.2051075,9.93804882 L15.2051075,11.6241843 L17.7766052,11.6241843 L17.4816724,14.4928704 Z" id="Path" fill="#FFFFFF"></path>
                </g>
            </g>
        </g>
    </g>
</svg>