<?xml version="1.0" encoding="UTF-8" standalone="no"?>
<svg width="105px" height="105px" viewBox="0 0 105 105" version="1.1" xmlns="http://www.w3.org/2000/svg" xmlns:xlink="http://www.w3.org/1999/xlink">
    <!-- Generator: Sketch 50.2 (55047) - http://www.bohemiancoding.com/sketch -->
    <title>icon-random copy 2</title>
    <desc>Created with Sketch.</desc>
    <defs></defs>
    <g id="Page-1" stroke="none" stroke-width="1" fill="none" fill-rule="evenodd">
        <g id="Home-Copy-6" transform="translate(-57.000000, -234.000000)">
            <g id="Group-3" transform="translate(57.000000, 234.000000)">
                <g id="icon-random-copy-12">
                    <rect id="Rectangle" stroke="#FCBF02" stroke-width="5" x="2.5" y="2.5" width="100" height="100"></rect>
                    <path d="M79.6456379,48.4752096 L57.1507292,25.8326555 C57.1237866,25.8046352 57.0925332,25.7766149 57.0623575,25.7485947 C54.6062709,23.5436129 50.8946595,23.5349913 48.4288735,25.7302737 C48.3986978,25.7572163 48.3695998,25.7863143 48.3394241,25.8154123 L25.6408294,48.4687434 C24.7980651,49.3104299 24.7959097,50.6780359 25.638674,51.5218779 C26.4803606,52.3646421 27.8479665,52.3667975 28.6928862,51.525111 L30.4053573,49.8147953 L30.4053573,68.4547579 C30.4053573,73.2160527 34.2786243,77.0893197 39.0399191,77.0893197 L46.8112403,77.0893197 C48.0031805,77.0893197 48.9709584,76.1226195 48.9709584,74.9306792 L48.9709584,57.3371669 L56.5278165,57.3371669 L56.5278165,74.9306792 C56.5278165,76.1226195 57.4912836,77.0893197 58.6853793,77.0893197 L66.2411597,77.0893197 C71.0013768,77.0893197 74.8757215,73.2160527 74.8757215,68.4547579 C74.8757215,67.2628176 73.910099,66.2961174 72.717081,66.2961174 C71.5251408,66.2961174 70.5584406,67.2628176 70.5584406,68.4547579 C70.5584406,70.8354053 68.6218071,72.7720388 66.2411597,72.7720388 L60.842942,72.7720388 L60.842942,55.1785264 C60.842942,53.9855084 59.8773195,53.0188083 58.6853793,53.0188083 L46.8112403,53.0188083 C45.6193,53.0188083 44.6515221,53.9855084 44.6515221,55.1785264 L44.6515221,72.7720388 L39.0399191,72.7720388 C36.6592717,72.7720388 34.7215605,70.8354053 34.7215605,68.4547579 L34.7215605,45.5718759 C34.7215605,45.5492441 34.7215605,45.5287678 34.7204828,45.506136 L51.3386734,28.9213542 C52.1469511,28.234857 53.3345806,28.2380901 54.1407029,28.9278205 L70.5584406,45.4544062 L70.5584406,57.6594003 C70.5584406,58.8534959 71.5251408,59.8191184 72.717081,59.8191184 C73.910099,59.8191184 74.8757215,58.8534959 74.8757215,57.6594003 L74.8757215,49.7997074 L76.5828041,51.5186448 C77.0041862,51.94326 77.5581259,52.1555676 78.1131433,52.1555676 C78.6649276,52.1555676 79.2145564,51.9475708 79.6348609,51.5283441 C80.4808582,50.6877352 80.4851691,49.3201293 79.6456379,48.4752096" id="Fill-1" fill="#4A4A4A" fill-rule="evenodd"></path>
                </g>
            </g>
        </g>
    </g>
</svg>