<?xml version="1.0" encoding="UTF-8" standalone="no"?>
<svg width="122px" height="122px" viewBox="0 0 122 122" version="1.1" xmlns="http://www.w3.org/2000/svg" xmlns:xlink="http://www.w3.org/1999/xlink">
    <!-- Generator: Sketch 50.2 (55047) - http://www.bohemiancoding.com/sketch -->
    <title>Group 12</title>
    <desc>Created with Sketch.</desc>
    <defs>
        <polygon id="path-1" points="0.0004 0.139964824 27.8574 0.139964824 27.8574 42 0.0004 42"></polygon>
        <polygon id="path-3" points="0.1424 0.139964824 28 0.139964824 28 42 0.1424 42"></polygon>
        <polygon id="path-5" points="0.8926 0 38.0366 0 38.0366 25.5352 0.8926 25.5352"></polygon>
    </defs>
    <g id="Page-1" stroke="none" stroke-width="1" fill="none" fill-rule="evenodd">
        <g id="Home-Copy-8" transform="translate(-659.000000, -953.000000)">
            <g id="Group-12" transform="translate(659.000000, 953.000000)">
                <circle id="Oval-2-Copy" stroke="#FCBF02" stroke-width="6" cx="61" cy="61" r="58"></circle>
                <g id="Group-11" transform="translate(28.000000, 25.000000)">
                    <g id="Group-3" transform="translate(0.000000, 23.000000)">
                        <mask id="mask-2" fill="white">
                            <use xlink:href="#path-1"></use>
                        </mask>
                        <g id="Clip-2"></g>
                        <path d="M23.2144,37.3564 L4.6424,37.3564 L4.6424,32.7134 C4.6424,27.5854 8.8004,23.4274 13.9284,23.4274 C19.0574,23.4274 23.2144,27.5854 23.2144,32.7134 L23.2144,37.3564 Z M13.9284,4.8564 C17.7754,4.8564 20.8934,7.9744 20.8934,11.8214 C20.8934,15.6674 17.7754,18.7854 13.9284,18.7854 C10.0824,18.7854 6.9644,15.6674 6.9644,11.8214 C6.9644,7.9744 10.0824,4.8564 13.9284,4.8564 Z M21.1554,20.8304 C26.1724,16.8384 27.0034,9.5374 23.0114,4.5214 C19.0204,-0.4956 11.7184,-1.3266 6.7024,2.6644 C1.6854,6.6554 0.8544,13.9584 4.8454,18.9734 C5.3924,19.6614 6.0154,20.2844 6.7024,20.8304 C2.5464,23.3494 0.0054,27.8534 0.0004,32.7134 L0.0004,39.6774 C0.0004,40.9604 1.0394,42.0004 2.3214,42.0004 L25.5354,42.0004 C26.8184,42.0004 27.8574,40.9604 27.8574,39.6774 L27.8574,32.7134 C27.8524,27.8534 25.3114,23.3494 21.1554,20.8304 Z" id="Fill-1" fill="#4A4A4A" mask="url(#mask-2)"></path>
                    </g>
                    <g id="Group-6" transform="translate(37.000000, 23.000000)">
                        <mask id="mask-4" fill="white">
                            <use xlink:href="#path-3"></use>
                        </mask>
                        <g id="Clip-5"></g>
                        <path d="M23.3574,37.3564 L4.7864,37.3564 L4.7864,32.7134 C4.7864,27.5854 8.9434,23.4274 14.0714,23.4274 C19.2004,23.4274 23.3574,27.5854 23.3574,32.7134 L23.3574,37.3564 Z M14.0714,4.8564 C17.9184,4.8564 21.0364,7.9744 21.0364,11.8214 C21.0364,15.6674 17.9184,18.7854 14.0714,18.7854 C10.2254,18.7854 7.1074,15.6674 7.1074,11.8214 C7.1074,7.9744 10.2254,4.8564 14.0714,4.8564 Z M21.2974,20.8304 C26.3144,16.8384 27.1454,9.5374 23.1544,4.5214 C19.1634,-0.4956 11.8614,-1.3266 6.8444,2.6644 C1.8284,6.6554 0.9974,13.9584 4.9884,18.9734 C5.5354,19.6614 6.1584,20.2844 6.8444,20.8304 C2.6884,23.3494 0.1484,27.8534 0.1424,32.7134 L0.1424,39.6774 C0.1424,40.9604 1.1824,42.0004 2.4634,42.0004 L25.6784,42.0004 C26.9614,42.0004 28.0004,40.9604 28.0004,39.6774 L28.0004,32.7134 C27.9954,27.8534 25.4544,23.3494 21.2974,20.8304 Z" id="Fill-4" fill="#4A4A4A" mask="url(#mask-4)"></path>
                    </g>
                    <g id="Group-9" transform="translate(20.000000, 0.000000)">
                        <mask id="mask-6" fill="white">
                            <use xlink:href="#path-5"></use>
                        </mask>
                        <g id="Clip-8"></g>
                        <path d="M33.3926,13.9282 L21.7866,13.9282 C21.4256,13.9282 21.0706,14.0112 20.7476,14.1722 L11.8316,18.6312 L12.3816,16.9832 C12.7876,15.7662 12.1286,14.4522 10.9126,14.0472 C10.6766,13.9682 10.4286,13.9282 10.1786,13.9282 L5.5356,13.9282 L5.5356,4.6422 L33.3926,4.6422 L33.3926,13.9282 Z M35.7136,-0.0008 L3.2146,-0.0008 C1.9326,-0.0008 0.8926,1.0392 0.8926,2.3212 L0.8926,16.2492 C0.8926,17.5322 1.9326,18.5712 3.2146,18.5712 L6.9586,18.5712 L5.6546,22.4802 C5.2486,23.6972 5.9066,25.0112 7.1226,25.4162 C7.3596,25.4952 7.6076,25.5352 7.8576,25.5352 C8.2176,25.5342 8.5726,25.4512 8.8946,25.2912 L22.3336,18.5712 L35.7136,18.5712 C36.9966,18.5712 38.0366,17.5322 38.0366,16.2492 L38.0366,2.3212 C38.0366,1.0392 36.9966,-0.0008 35.7136,-0.0008 Z" id="Fill-7" fill="#4A4A4A" mask="url(#mask-6)"></path>
                    </g>
                </g>
            </g>
        </g>
    </g>
</svg>