<?xml version="1.0" encoding="UTF-8" standalone="no"?>
<svg width="105px" height="105px" viewBox="0 0 105 105" version="1.1" xmlns="http://www.w3.org/2000/svg" xmlns:xlink="http://www.w3.org/1999/xlink">
    <!-- Generator: Sketch 50.2 (55047) - http://www.bohemiancoding.com/sketch -->
    <title>icon-random copy 2</title>
    <desc>Created with Sketch.</desc>
    <defs>
        <polygon id="path-1" points="27 22 78.4265 22 78.4265 78.022 27 78.022"></polygon>
    </defs>
    <g id="Page-1" stroke="none" stroke-width="1" fill="none" fill-rule="evenodd">
        <g id="Home-Copy-8" transform="translate(-57.000000, -234.000000)">
            <g id="Group-3-Copy" transform="translate(57.000000, 234.000000)">
                <g id="icon-random-copy-8">
                    <rect id="Rectangle" stroke="#FCBF02" stroke-width="5" x="2.5" y="2.5" width="100" height="100"></rect>
                    <mask id="mask-2" fill="white">
                        <use xlink:href="#path-1"></use>
                    </mask>
                    <g id="Clip-2"></g>
                    <path d="M75.145,72.335 C73.672,72.653 70.971,73.188 67.486,73.672 L67.486,62.067 L70.227,63.267 C73.213,64.573 75.145,67.524 75.145,70.785 L75.145,72.335 Z M64.203,74.082 C60.777,74.46 56.848,74.739 52.714,74.739 C47.96,74.739 43.691,74.425 40.13,74.013 L40.13,61.11 L43.413,59.673 L43.413,68.174 L60.92,68.174 L60.92,59.195 L64.203,60.631 L64.203,74.082 Z M36.847,73.579 C33.826,73.131 31.564,72.656 30.283,72.359 L30.283,70.785 C30.283,67.524 32.213,64.573 35.201,63.267 L36.847,62.545 L36.847,73.579 Z M57.637,58.352 L57.637,64.892 L46.696,64.892 L46.696,58.493 C47.256,58.386 47.829,58.329 48.408,58.327 C49.755,58.973 51.21,59.312 52.714,59.312 C54.217,59.312 55.671,58.973 57.02,58.327 C57.228,58.328 57.432,58.337 57.637,58.352 Z M44.509,45.634 C44.509,44.908 44.567,44.196 44.683,43.501 C46.656,44.883 49.148,46.071 52.714,46.071 C56.281,46.071 58.771,44.883 60.746,43.501 C60.86,44.196 60.92,44.908 60.92,45.634 C60.92,51.365 57.24,56.029 52.714,56.029 C48.189,56.029 44.509,51.365 44.509,45.634 Z M43.413,38.296 L43.413,37.865 C43.413,35.03 44.69,32.49 46.696,30.782 L46.696,35.677 L49.978,35.677 L49.978,28.976 C50.843,28.709 51.763,28.564 52.714,28.564 C53.666,28.564 54.584,28.709 55.45,28.976 L55.45,35.677 L58.732,35.677 L58.732,30.782 C60.739,32.49 62.014,35.03 62.014,37.865 L62.014,38.296 C61.648,38.583 61.292,38.882 60.937,39.179 C58.814,40.953 56.617,42.789 52.714,42.789 C48.811,42.789 46.615,40.953 44.491,39.179 C44.135,38.882 43.779,38.583 43.413,38.296 Z M71.542,60.26 L62.035,56.099 C61.568,55.895 61.093,55.722 60.613,55.577 C60.726,55.448 60.838,55.318 60.947,55.185 C63.046,52.618 64.203,49.227 64.203,45.634 C64.203,44.12 63.999,42.647 63.598,41.236 C64.921,40.153 65.869,39.506 66.938,39.506 L66.938,36.224 C66.328,36.224 65.758,36.316 65.22,36.477 C64.585,30.73 60.066,26.137 54.355,25.389 L54.355,22 L51.073,22 L51.073,25.389 C45.361,26.137 40.841,30.73 40.208,36.477 C39.67,36.316 39.101,36.224 38.489,36.224 L38.489,39.506 C39.56,39.506 40.507,40.154 41.831,41.236 C41.43,42.647 41.225,44.12 41.225,45.634 C41.225,49.227 42.38,52.618 44.48,55.185 C44.589,55.318 44.702,55.448 44.815,55.576 C44.333,55.721 43.86,55.895 43.394,56.099 L33.884,60.259 C29.702,62.089 27,66.221 27,70.785 L27,74.893 L28.203,75.226 C28.613,75.341 38.429,78.022 52.714,78.022 C65.894,78.022 76.729,75.352 77.184,75.237 L78.427,74.927 L78.427,70.785 C78.427,66.221 75.725,62.089 71.542,60.26 Z" id="Fill-1" fill="#4A4A4A" fill-rule="evenodd" mask="url(#mask-2)"></path>
                </g>
            </g>
        </g>
    </g>
</svg>