<?xml version="1.0" encoding="UTF-8" standalone="no"?>
<svg width="122px" height="122px" viewBox="0 0 122 122" version="1.1" xmlns="http://www.w3.org/2000/svg" xmlns:xlink="http://www.w3.org/1999/xlink">
    <!-- Generator: Sketch 50.2 (55047) - http://www.bohemiancoding.com/sketch -->
    <title>Group 14</title>
    <desc>Created with Sketch.</desc>
    <defs>
        <polygon id="path-1" points="0 0 72 0 72 75 0 75"></polygon>
    </defs>
    <g id="Page-1" stroke="none" stroke-width="1" fill="none" fill-rule="evenodd">
        <g id="Home-Copy-8" transform="translate(-1049.000000, -953.000000)">
            <g id="Group-14" transform="translate(1049.000000, 953.000000)">
                <circle id="Oval-2-Copy-2" stroke="#FCBF02" stroke-width="6" cx="61" cy="61" r="58"></circle>
                <g id="Group-13" transform="translate(25.000000, 20.000000)">
                    <mask id="mask-2" fill="white">
                        <use xlink:href="#path-1"></use>
                    </mask>
                    <g id="Clip-2"></g>
                    <path d="M67.2068399,62.4016094 C65.7268404,65.7079767 61.8235718,67.2767751 58.6510914,65.7361051 C55.5117729,64.2120564 54.1091509,60.1334363 55.5879222,56.8296261 C57.0679218,53.5270945 60.832402,52.1014953 64.0036542,53.6408868 C67.2326324,55.2084066 68.6684163,59.1374347 67.2068399,62.4016094 Z M47.4301155,69.9886099 L39.7795618,66.2731021 C38.7306658,65.765512 38.2541183,64.3322415 38.7576866,63.2071049 C39.250201,62.1088181 40.5091218,61.6306351 41.5629306,62.1446179 L45.3888215,64.0010933 C46.4450868,64.5137976 47.7015511,64.0381717 48.1952937,62.9386064 L51.7583466,54.9821007 C50.5706623,57.6389573 50.4466126,60.6410263 51.407077,63.4359679 C52.0948776,65.4381996 53.2788773,67.1438044 54.8252005,68.409583 C53.0111263,70.516657 50.0179654,71.2428815 47.4301155,69.9886099 Z M36.000343,59.6808245 C34.2194307,57.6530215 31.2680291,56.8909972 28.6531585,58.1618901 L26.7395989,59.0888493 L21.3870362,47.1406658 L23.3005958,46.2124282 C26.4657069,44.6768724 27.8388517,40.7465658 26.363765,37.4517056 C25.9523128,36.534975 25.3627694,35.7627221 24.6577738,35.1579612 C27.5170592,34.5225147 29.6676644,31.8746081 29.6676644,28.71144 L29.6676644,26.5148665 L42.3330216,26.5148665 L42.3330216,28.71144 C42.3330216,31.8746081 44.4836268,34.5225147 47.341684,35.1579612 C46.6366884,35.7627221 46.047145,36.534975 45.636921,37.4517056 C44.1606061,40.7465658 45.5349792,44.6768724 48.7000903,46.2124282 L50.6124216,47.1406658 L45.2610871,59.0888493 L43.3475275,58.1618901 C40.732657,56.8909972 37.7812553,57.651743 36.000343,59.6808245 Z M32.2211242,66.2731021 L24.5693423,69.9886099 C21.9827206,71.2428815 18.9883315,70.516657 17.1754856,68.409583 C18.7218088,67.1438044 19.9058084,65.4381996 20.5948372,63.4359679 C21.5553017,60.6397478 21.4300237,57.6364002 20.2411112,54.978265 L23.8066205,62.9386064 C24.2979067,64.0368931 25.554371,64.5137976 26.6118645,64.0010933 L30.4377555,62.1446179 C31.4940207,61.6306351 32.7492568,62.106261 33.2429994,63.2071049 C33.7465678,64.3322415 33.268792,65.7642335 32.2211242,66.2731021 Z M13.3483664,65.7361051 C10.1783424,67.2754965 6.27507388,65.7105338 4.79261789,62.4016094 C3.33104156,59.1374347 4.76805358,55.2084066 7.99703187,53.6408868 C11.1731969,52.0989382 14.9352207,53.5334874 16.4115356,56.8309047 C17.8915351,60.1334363 16.4889132,64.2120564 13.3483664,65.7361051 Z M12.0808481,41.9612019 L19.73263,38.245694 C20.7901235,37.7329897 22.0441314,38.2086156 22.537874,39.3081809 C23.0303884,40.4103034 22.5734922,41.7157175 21.5159988,42.2297004 L17.691336,44.0861757 C16.6338426,44.59888 16.1769464,45.9068513 16.6694608,47.0064166 L20.2349701,54.9667579 C18.0892778,50.1836489 13.1248312,47.8349263 8.48831803,48.8654491 C8.10634304,46.0679504 9.49545466,43.2154734 12.0808481,41.9612019 Z M21.2249117,19.922589 C21.2249117,16.9524841 23.1212763,14.434991 25.7214083,13.6141527 C26.8046943,18.4803684 31.0002781,22.120441 36.000343,22.120441 C41.0004079,22.120441 45.1959917,18.4803684 46.2792777,13.6141527 C48.8781815,14.434991 50.7757743,16.9524841 50.7757743,19.922589 L50.7757743,28.71144 C50.7757743,29.9235189 49.8300484,30.909292 48.664472,30.909292 C47.501352,30.909292 46.554398,29.9235189 46.554398,28.71144 L46.554398,24.3170145 C46.554398,23.103657 45.6086721,22.120441 44.4443239,22.120441 L36.000343,22.120441 L27.5563621,22.120441 C26.3920139,22.120441 25.4462881,23.103657 25.4462881,24.3170145 L25.4462881,28.71144 C25.4462881,29.9235189 24.499334,30.909292 23.3349858,30.909292 C22.1718658,30.909292 21.2249117,29.9235189 21.2249117,28.71144 L21.2249117,19.922589 Z M36.000343,4.39442551 C39.4332051,4.39442551 42.3330216,7.48087974 42.3330216,11.1324594 C42.3330216,14.7686963 39.4921594,17.7260155 36.000343,17.7260155 C32.5085266,17.7260155 29.6676644,14.7686963 29.6676644,11.1324594 C29.6676644,7.48087974 32.567481,4.39442551 36.000343,4.39442551 Z M52.268056,38.245694 L59.9198379,41.9612019 C62.5052314,43.2154734 63.894343,46.0679504 63.512368,48.8654491 C58.8770831,47.8349263 53.9150929,50.1823703 51.7681723,54.9629223 L55.3312252,47.0076952 C55.8225114,45.9081299 55.3656152,44.59888 54.30935,44.0874543 L50.4846872,42.2297004 C49.428422,41.7169961 48.9702976,40.4077462 49.462812,39.3081809 C49.9553264,38.2086156 51.2117908,37.7329897 52.268056,38.245694 Z M67.4647652,50.673339 C68.7015781,45.7163452 66.4527157,40.2824469 61.7044349,37.9771955 L54.0514248,34.2629662 C53.6092672,34.0481674 53.1548275,33.8934611 52.6967032,33.7924545 C54.1005534,32.5816541 54.9983788,30.7545857 54.9983788,28.71144 L54.9983788,19.922589 C54.9983788,14.5526189 51.275658,10.0738081 46.3775349,9.12383487 C45.4858506,4.02108473 41.2092045,0 36.000343,0 C30.7951661,0 26.5148355,4.01724904 25.6219229,9.12383487 C20.7237999,10.0725296 17.0035354,14.5526189 17.0035354,19.922589 L17.0035354,28.71144 C17.0035354,30.7545857 17.8989044,32.5816541 19.3052111,33.7924545 C18.8458585,33.8934611 18.3914188,34.0481674 17.948033,34.2629662 L10.2962511,37.9771955 C5.54674214,40.2824469 3.29910796,45.7163452 4.53469265,50.673339 C0.409117121,53.7060935 -1.20475792,59.4110475 0.966726913,64.2580847 C3.14066817,69.1115148 8.41462511,71.6878219 13.3016942,70.3951934 C16.1978261,74.6246841 21.676895,76.2407894 26.352711,73.9713377 L34.0057212,70.2571084 C34.7831816,69.8786534 35.4525589,69.3454921 36.000343,68.7049314 C36.5468989,69.3454921 37.2175045,69.8786534 37.9949648,70.2571084 L45.6467468,73.9713377 C50.3262475,76.2420679 55.8040881,74.6234055 58.6989918,70.3951934 C63.5320194,71.6737577 68.8354535,69.1664931 71.0327309,64.2580847 C73.2054439,59.4110475 71.5903407,53.7060935 67.4647652,50.673339 Z" id="Fill-1" fill="#4A4A4A" mask="url(#mask-2)"></path>
                </g>
            </g>
        </g>
    </g>
</svg>