<?xml version="1.0" encoding="UTF-8" standalone="no"?>
<svg width="105px" height="105px" viewBox="0 0 105 105" version="1.1" xmlns="http://www.w3.org/2000/svg" xmlns:xlink="http://www.w3.org/1999/xlink">
    <!-- Generator: Sketch 50.2 (55047) - http://www.bohemiancoding.com/sketch -->
    <title>Group 3 Copy</title>
    <desc>Created with Sketch.</desc>
    <defs>
        <polygon id="path-1" points="0.0003 0.404238356 59.279 0.404238356 59.279 47 0.0003 47"></polygon>
    </defs>
    <g id="Page-1" stroke="none" stroke-width="1" fill="none" fill-rule="evenodd">
        <g id="Home-Copy-11" transform="translate(-57.000000, -235.000000)">
            <g id="Group-3-Copy" transform="translate(57.000000, 235.000000)">
                <g id="icon-random-copy-10">
                    <rect id="Rectangle" stroke="#FCBF02" stroke-width="5" x="2.5" y="2.5" width="100" height="100"></rect>
                    <g id="Group-3" stroke-width="1" fill-rule="evenodd" transform="translate(21.000000, 28.000000)">
                        <mask id="mask-2" fill="white">
                            <use xlink:href="#path-1"></use>
                        </mask>
                        <g id="Clip-2"></g>
                        <path d="M49.6143,43.1333 L26.4183,43.1333 C23.2203,43.1333 20.6193,40.5313 20.6193,37.3343 C20.6193,34.1373 23.2203,31.5353 26.4183,31.5353 L49.6143,31.5353 C52.8113,31.5353 55.4133,34.1373 55.4133,37.3343 C55.4133,40.5313 52.8113,43.1333 49.6143,43.1333 Z M28.3513,23.8033 L41.8823,23.8033 C42.9493,23.8033 43.8143,22.9383 43.8143,21.8703 L43.8143,14.1383 C43.8143,13.0713 42.9493,12.2053 41.8823,12.2053 L30.3883,12.2053 L31.2363,9.6603 C31.5003,8.8703 32.2373,8.3393 33.0703,8.3393 L45.7483,8.3393 C46.8143,8.3393 47.6813,9.2063 47.6813,10.2723 L47.6813,27.6693 L28.3513,27.6693 L28.3513,23.8033 Z M29.0993,16.0713 L39.9493,16.0713 L39.9493,19.9373 L28.3633,19.9373 C28.4243,18.5073 28.6843,17.3173 29.0993,16.0713 Z M15.3073,22.5143 L3.8653,36.3333 L3.8653,24.4473 C3.8653,23.3823 4.7323,22.5143 5.7993,22.5143 L15.3073,22.5143 Z M51.5473,27.8633 L51.5473,10.2723 C51.5473,7.0743 48.9453,4.4733 45.7483,4.4733 L33.0703,4.4733 C30.5703,4.4733 28.3593,6.0673 27.5683,8.4383 L26.8243,10.6743 L17.4653,1.9543 C13.7463,-1.4777 7.7323,1.1633 7.7323,6.2153 L7.7323,18.6483 L5.7993,18.6483 C2.6013,18.6483 0.0003,21.2493 0.0003,24.4473 L0.0003,41.6993 C0.0003,42.5143 0.5103,43.2413 1.2773,43.5183 C2.0473,43.7943 2.9033,43.5583 3.4223,42.9323 L18.3063,24.9543 L18.3273,24.9293 C19.2633,23.7583 19.4423,22.1913 18.7933,20.8403 C18.1423,19.4873 16.8083,18.6483 15.3083,18.6483 L11.5973,18.6483 L11.5973,6.2153 C11.5973,4.5303 13.6053,3.6543 14.8363,4.7893 L25.4803,14.7053 C24.8553,16.5803 24.4843,18.3373 24.4843,20.5143 L24.4843,27.8643 C20.0783,28.7623 16.7533,32.6673 16.7533,37.3343 C16.7533,42.6643 21.0893,47.0003 26.4183,47.0003 L49.6143,47.0003 C54.9433,47.0003 59.2793,42.6643 59.2793,37.3343 C59.2793,32.6663 55.9533,28.7613 51.5473,27.8633 Z" id="Fill-1" fill="#4A4A4A" mask="url(#mask-2)"></path>
                    </g>
                    <path d="M46.934,63 C48.001,63 48.868,63.865 48.868,64.933 C48.868,66 48.001,66.866 46.934,66.866 C45.866,66.866 45,66 45,64.933 C45,63.865 45.866,63 46.934,63" id="Fill-4" fill="#4A4A4A" fill-rule="evenodd"></path>
                    <path d="M54.934,63 C56.001,63 56.867,63.865 56.867,64.933 C56.867,66 56.001,66.866 54.934,66.866 C53.866,66.866 53,66 53,64.933 C53,63.865 53.866,63 54.934,63" id="Fill-6" fill="#4A4A4A" fill-rule="evenodd"></path>
                    <path d="M62.933,63 C64,63 64.866,63.865 64.866,64.933 C64.866,66 64,66.866 62.933,66.866 C61.866,66.866 61,66 61,64.933 C61,63.865 61.866,63 62.933,63" id="Fill-8" fill="#4A4A4A" fill-rule="evenodd"></path>
                    <path d="M70.933,63 C72,63 72.866,63.865 72.866,64.933 C72.866,66 72,66.866 70.933,66.866 C69.866,66.866 69,66 69,64.933 C69,63.865 69.866,63 70.933,63" id="Fill-10" fill="#4A4A4A" fill-rule="evenodd"></path>
                </g>
            </g>
        </g>
    </g>
</svg>