<?xml version="1.0" encoding="UTF-8" standalone="no"?>
<svg width="122px" height="122px" viewBox="0 0 122 122" version="1.1" xmlns="http://www.w3.org/2000/svg" xmlns:xlink="http://www.w3.org/1999/xlink">
    <!-- Generator: Sketch 50.2 (55047) - http://www.bohemiancoding.com/sketch -->
    <title>Group 10</title>
    <desc>Created with Sketch.</desc>
    <defs>
        <polygon id="path-1" points="0 0.0773261745 63.9225772 0.0773261745 63.9225772 64 0 64"></polygon>
        <polygon id="path-3" points="0.0971660777 0.0678829787 29.9235689 0.0678829787 29.9235689 30 0.0971660777 30"></polygon>
    </defs>
    <g id="Page-1" stroke="none" stroke-width="1" fill="none" fill-rule="evenodd">
        <g id="Home-Copy-8" transform="translate(-269.000000, -953.000000)">
            <g id="Group-10" transform="translate(269.000000, 953.000000)">
                <circle id="Oval-2" stroke="#FCBF02" stroke-width="6" cx="61" cy="61" r="58"></circle>
                <g id="Group-3" transform="translate(30.000000, 28.000000)">
                    <path d="M48.5,23 C49.8806821,23 51,24.1193179 51,25.5 C51,26.8806821 49.8806821,28 48.5,28 C47.1192104,28 46,26.8806821 46,25.5 C46,24.1193179 47.1192104,23 48.5,23" id="Fill-1" fill="#4A4A4A"></path>
                    <g id="Group-5">
                        <mask id="mask-2" fill="white">
                            <use xlink:href="#path-1"></use>
                        </mask>
                        <g id="Clip-4"></g>
                        <path d="M53.9347758,5.07125906 L50.6887087,5.07125906 L50.6887087,2.57429262 C50.6887087,1.19517852 49.570749,0.0773261745 48.1917423,0.0773261745 C46.8126282,0.0773261745 45.6947758,1.19517852 45.6947758,2.57429262 L45.6947758,5.07125906 L34.3334872,5.07125906 L34.3334872,2.57429262 C34.3334872,1.19517852 33.2155275,0.0773261745 31.8365208,0.0773261745 C30.4574067,0.0773261745 29.339447,1.19517852 29.339447,2.57429262 L29.339447,5.07125906 L18.1030443,5.07125906 L18.1030443,2.57429262 C18.1030443,1.19517852 16.9851919,0.0773261745 15.6060779,0.0773261745 C14.2270711,0.0773261745 13.1092188,1.19517852 13.1092188,2.57429262 L13.1092188,5.07125906 L9.9879302,5.07125906 C4.48060134,5.07125906 -4.29530201e-05,9.55190336 -4.29530201e-05,15.0592322 L-4.29530201e-05,54.0120376 C-4.29530201e-05,59.5193664 4.48060134,64.0000107 9.9879302,64.0000107 L29.0897826,64.0000107 C30.4688966,64.0000107 31.5868564,62.8821584 31.5868564,61.5030443 C31.5868564,60.1239302 30.4688966,59.0060779 29.0897826,59.0060779 L9.9879302,59.0060779 C7.23431946,59.0060779 4.99388993,56.7657557 4.99388993,54.0120376 L4.99388993,15.0592322 C4.99388993,12.3055141 7.23431946,10.0651919 9.9879302,10.0651919 L13.1092188,10.0651919 L13.1092188,12.5622658 C13.1092188,13.9412725 14.2270711,15.0592322 15.6060779,15.0592322 C16.9851919,15.0592322 18.1030443,13.9412725 18.1030443,12.5622658 L18.1030443,10.0651919 L29.339447,10.0651919 L29.339447,12.5622658 C29.339447,13.9412725 30.4574067,15.0592322 31.8365208,15.0592322 C33.2155275,15.0592322 34.3334872,13.9412725 34.3334872,12.5622658 L34.3334872,10.0651919 L45.6947758,10.0651919 L45.6947758,12.5622658 C45.6947758,13.9412725 46.8126282,15.0592322 48.1917423,15.0592322 C49.570749,15.0592322 50.6887087,13.9412725 50.6887087,12.5622658 L50.6887087,10.0651919 L53.9347758,10.0651919 C56.688494,10.0651919 58.9287087,12.3055141 58.9287087,15.0592322 L58.9287087,29.2920376 C58.9287087,30.6710443 60.0465611,31.789004 61.4256752,31.789004 C62.8047893,31.789004 63.9226416,30.6710443 63.9226416,29.2920376 L63.9226416,15.0592322 C63.9226416,9.55190336 59.4421047,5.07125906 53.9347758,5.07125906" id="Fill-3" fill="#4A4A4A" mask="url(#mask-2)"></path>
                    </g>
                    <g id="Group-8" transform="translate(34.000000, 34.000000)">
                        <mask id="mask-4" fill="white">
                            <use xlink:href="#path-3"></use>
                        </mask>
                        <g id="Clip-7"></g>
                        <path d="M15.0104523,25.0525638 C9.50571731,25.0525638 5.02713074,20.5583085 5.02713074,15.0338404 C5.02713074,9.50958511 9.50571731,5.0152234 15.0104523,5.0152234 C20.5151873,5.0152234 24.9936678,9.50958511 24.9936678,15.0338404 C24.9936678,20.5583085 20.5151873,25.0525638 15.0104523,25.0525638 M15.0104523,0.0678829787 C6.78716608,0.0678829787 0.0971660777,6.7815 0.0971660777,15.0338404 C0.0971660777,23.2862872 6.78716608,30.0000106 15.0104523,30.0000106 C23.2336325,30.0000106 29.9236325,23.2862872 29.9236325,15.0338404 C29.9236325,6.7815 23.2336325,0.0678829787 15.0104523,0.0678829787" id="Fill-6" fill="#4A4A4A" mask="url(#mask-4)"></path>
                    </g>
                    <path d="M53.3913417,46.5678623 L52.2174287,46.5678623 L52.2174287,43.7160104 C52.2174287,42.2160317 51.0495737,41 49.6087704,41 C48.1679672,41 47,42.2160317 47,43.7160104 L47,49.2838727 C47,50.7839683 48.1679672,52 49.6087704,52 L53.3913417,52 C54.832145,52 56,50.7839683 56,49.2838727 C56,47.7837772 54.832145,46.5678623 53.3913417,46.5678623" id="Fill-9" fill="#4A4A4A"></path>
                    <path d="M37.5,23 C38.8807896,23 40,24.1193179 40,25.5 C40,26.8806821 38.8807896,28 37.5,28 C36.1193179,28 35,26.8806821 35,25.5 C35,24.1193179 36.1193179,23 37.5,23" id="Fill-11" fill="#4A4A4A"></path>
                    <path d="M26.5000538,34 C27.8807061,34 29,35.1192104 29,36.5 C29,37.8806821 27.8807061,39 26.5000538,39 C25.1192939,39 24,37.8806821 24,36.5 C24,35.1192104 25.1192939,34 26.5000538,34" id="Fill-13" fill="#4A4A4A"></path>
                    <path d="M16.5,23 C17.8806821,23 19,24.1193179 19,25.5 C19,26.8806821 17.8806821,28 16.5,28 C15.1192104,28 14,26.8806821 14,25.5 C14,24.1193179 15.1192104,23 16.5,23" id="Fill-15" fill="#4A4A4A"></path>
                    <path d="M16.5,34 C17.8806821,34 19,35.1192104 19,36.5 C19,37.8806821 17.8806821,39 16.5,39 C15.1192104,39 14,37.8806821 14,36.5 C14,35.1192104 15.1192104,34 16.5,34" id="Fill-17" fill="#4A4A4A"></path>
                    <path d="M16.5,46 C17.8806821,46 19,47.1192939 19,48.5000538 C19,49.8807061 17.8806821,51 16.5,51 C15.1192104,51 14,49.8807061 14,48.5000538 C14,47.1192939 15.1192104,46 16.5,46" id="Fill-19" fill="#4A4A4A"></path>
                    <path d="M26.5000538,46 C27.8807061,46 29,47.1192939 29,48.5000538 C29,49.8807061 27.8807061,51 26.5000538,51 C25.1192939,51 24,49.8807061 24,48.5000538 C24,47.1192939 25.1192939,46 26.5000538,46" id="Fill-21" fill="#4A4A4A"></path>
                    <path d="M26.5000538,23 C27.8807061,23 29,24.1193179 29,25.5 C29,26.8806821 27.8807061,28 26.5000538,28 C25.1192939,28 24,26.8806821 24,25.5 C24,24.1193179 25.1192939,23 26.5000538,23" id="Fill-23" fill="#4A4A4A"></path>
                </g>
            </g>
        </g>
    </g>
</svg>