<?xml version="1.0" encoding="UTF-8" standalone="no"?>
<svg width="105px" height="105px" viewBox="0 0 105 105" version="1.1" xmlns="http://www.w3.org/2000/svg" xmlns:xlink="http://www.w3.org/1999/xlink">
    <!-- Generator: Sketch 50.2 (55047) - http://www.bohemiancoding.com/sketch -->
    <title>Group 3 Copy 2</title>
    <desc>Created with Sketch.</desc>
    <defs>
        <polygon id="path-1" points="23.0005364 26 78.0112364 26 78.0112364 77.4926943 23.0005364 77.4926943"></polygon>
    </defs>
    <g id="Page-1" stroke="none" stroke-width="1" fill="none" fill-rule="evenodd">
        <g id="Home-Copy-5" transform="translate(-57.000000, -235.000000)">
            <g id="Group-3-Copy-2" transform="translate(57.000000, 235.000000)">
                <g id="icon-random-copy-11">
                    <rect id="Rectangle" stroke="#FCBF02" stroke-width="5" x="2.5" y="2.5" width="100" height="100"></rect>
                    <mask id="mask-2" fill="white">
                        <use xlink:href="#path-1"></use>
                    </mask>
                    <g id="Clip-2"></g>
                    <path d="M59.1362364,72.596 C58.9462364,72.833 58.6492364,73.199 58.2432364,73.614 C58.0292364,73.818 57.8052364,74.039 57.5302364,74.248 C57.2702364,74.465 56.9552364,74.663 56.6332364,74.849 C56.3032364,75.031 55.9512364,75.187 55.5802364,75.303 C55.2122364,75.414 54.8302364,75.505 54.4552364,75.535 L53.8982364,75.575 L53.3562364,75.546 C53.0002364,75.542 52.6692364,75.448 52.3502364,75.394 C52.0322364,75.335 51.7432364,75.217 51.4662364,75.138 C51.1902364,75.063 50.9422364,74.926 50.7122364,74.836 C50.2472364,74.651 49.9152364,74.438 49.6642364,74.306 C49.4182364,74.17 49.2772364,74.093 49.2772364,74.093 C49.2772364,74.093 49.4352364,74.117 49.7132364,74.16 C49.9902364,74.197 50.3932364,74.284 50.8602364,74.293 C51.0952364,74.298 51.3362364,74.339 51.6042364,74.315 C51.8672364,74.294 52.1432364,74.307 52.4182364,74.258 C52.6922364,74.203 52.9752364,74.188 53.2392364,74.088 L53.6342364,73.967 L54.0002364,73.795 C54.9712364,73.326 55.4982364,72.499 55.8032364,71.809 C55.9542364,71.452 56.0632364,71.139 56.1452364,70.893 C56.2342364,70.634 56.2832364,70.486 56.2832364,70.486 L59.4222364,72.243 C59.4232364,72.243 59.3192364,72.371 59.1362364,72.596 M30.0532364,43.803 C29.9772364,43.834 29.8652364,43.88 29.7232364,43.939 C29.4532364,44.042 29.1312364,44.159 28.7722364,44.315 C28.6062364,44.395 28.4182364,44.483 28.2462364,44.59 C28.0702364,44.696 27.8932364,44.816 27.7352364,44.965 C27.5612364,45.105 27.4252364,45.285 27.2702364,45.473 C27.1542364,45.681 27.0042364,45.893 26.9232364,46.148 C26.8062364,46.389 26.7632364,46.667 26.6942364,46.94 C26.6392364,47.218 26.6292364,47.506 26.5952364,47.787 C26.5922364,48.357 26.6142364,48.904 26.6872364,49.369 C26.7252364,49.843 26.8452364,50.242 26.8932364,50.52 C26.9512364,50.798 26.9852364,50.957 26.9852364,50.957 C26.9852364,50.957 26.8992364,50.819 26.7492364,50.576 C26.6082364,50.328 26.3672364,50.007 26.1562364,49.552 C25.9112364,49.11 25.6852364,48.565 25.4692364,47.952 C25.3922364,47.636 25.2872364,47.308 25.2302364,46.956 C25.1902364,46.601 25.1212364,46.235 25.1492364,45.849 C25.1372364,45.464 25.2162364,45.075 25.2872364,44.681 C25.4012364,44.3 25.5242364,43.913 25.7082364,43.57 C25.8782364,43.219 26.0922364,42.901 26.3062364,42.623 C26.5212364,42.338 26.7422364,42.104 26.9512364,41.887 C27.3682364,41.476 27.7312364,41.176 27.9412364,40.992 C28.0622364,40.891 28.1122364,40.837 28.1662364,40.788 C28.2132364,40.744 28.2392364,40.72 28.2392364,40.72 L30.1762364,43.751 C30.1762364,43.751 30.1332364,43.769 30.0532364,43.803 M59.7542364,66.37 C54.1042364,61.829 52.5232364,64.061 49.9582364,66.625 C48.1682364,68.415 43.6392364,64.676 39.7282364,60.765 C35.8172364,56.853 32.0772364,52.324 33.8672364,50.534 C36.4312364,47.97 38.6642364,46.389 34.1202364,40.74 C29.5792364,35.088 26.5532364,39.427 24.0692364,41.911 C21.2012364,44.777 23.9172364,55.459 34.4752364,66.018 C45.0332364,76.575 55.7152364,79.29 58.5812364,76.425 C61.0652364,73.941 65.4052364,70.914 59.7542364,66.37 M53.4982364,26 C45.2112364,26 37.8782364,30.137 33.4382364,36.45 C34.3572364,37.049 35.2522364,37.871 36.1182364,38.928 C39.4312364,33.975 44.7852364,30.501 50.9812364,29.754 L53.4982364,34.013 L56.0142364,29.754 C65.5382364,30.903 73.1092364,38.472 74.2562364,47.995 L69.9972364,50.512 L74.2562364,53.03 C73.4902364,59.397 69.8422364,64.878 64.6692364,68.164 C64.9982364,68.915 65.1852364,69.684 65.2172364,70.475 C65.2412364,71.054 65.1812364,71.601 65.0632364,72.119 C72.7622364,67.982 78.0112364,59.85 78.0112364,50.513 C78.0112364,36.996 67.0152364,26 53.4982364,26 M68.3132364,45.409 C68.5952364,46.099 68.2642364,46.887 67.5742364,47.168 C67.5742364,47.168 54.3892364,52.552 54.3832364,52.554 C54.0972364,52.678 53.8002364,52.762 53.5002364,52.762 C52.7682364,52.762 52.0512364,52.405 51.6192364,51.747 L45.0762364,41.784 C44.3952364,40.746 44.6842364,39.353 45.7232364,38.671 C46.7612364,37.992 48.1542364,38.279 48.8362364,39.317 L55.3552364,49.244 L66.5552364,44.67 C67.2412364,44.388 68.0312364,44.719 68.3132364,45.409" id="Fill-1" fill="#4A4A4A" fill-rule="evenodd" mask="url(#mask-2)"></path>
                </g>
            </g>
        </g>
    </g>
</svg>