<?xml version="1.0" encoding="UTF-8" standalone="no"?>
<svg width="169px" height="43px" viewBox="0 0 169 43" version="1.1" xmlns="http://www.w3.org/2000/svg" xmlns:xlink="http://www.w3.org/1999/xlink">
    <!-- Generator: Sketch 50.2 (55047) - http://www.bohemiancoding.com/sketch -->
    <title>Logo - white</title>
    <desc>Created with Sketch.</desc>
    <defs></defs>
    <g id="Symbols" stroke="none" stroke-width="1" fill="none" fill-rule="evenodd">
        <g id="stopka" transform="translate(-149.000000, -35.000000)">
            <g id="Logo---white" transform="translate(150.000000, 36.000000)">
                <polygon id="Fill-1" fill="#FEFEFE" fill-rule="evenodd" points="10.8852532 10.922474 18.282987 10.922474 20.625813 10.922474 20.625813 7.62288493 7.59577884 7.62288493 7.59577884 33.3130767 10.8852532 33.3130767"></polygon>
                <polygon id="Stroke-2" stroke="#3C3C3B" stroke-width="0.5" points="10.8852532 10.922474 18.282987 10.922474 20.625813 10.922474 20.625813 7.62288493 7.59577884 7.62288493 7.59577884 33.3130767 10.8852532 33.3130767"></polygon>
                <polygon id="Fill-3" fill="#FEFEFE" fill-rule="evenodd" points="20.625985 19.8484521 20.625985 20.6970822 20.625985 23.1566712 21.8524423 21.9271644 25.1195549 18.6477123 26.2278962 17.5361507 26.2267495 17.5361507 30.4932614 13.2561781 30.4932614 33.3126164 33.7810157 33.3126164 33.7810157 7.49182192 31.5855481 7.49182192 20.625985 18.4894932"></polygon>
                <polygon id="Stroke-4" stroke="#3C3C3B" stroke-width="0.5" points="20.625985 19.8484521 20.625985 20.6970822 20.625985 23.1566712 21.8524423 21.9271644 25.1195549 18.6477123 26.2278962 17.5361507 26.2267495 17.5361507 30.4932614 13.2561781 30.4932614 33.3126164 33.7810157 33.3126164 33.7810157 7.49182192 31.5855481 7.49182192 20.625985 18.4894932"></polygon>
                <path d="M0,41.519589 L41.377884,41.519589 L41.377884,0 L0,0 L0,41.519589 Z M3.28832765,38.2194247 L38.0884096,38.2194247 L38.0884096,3.30131507 L3.28832765,3.30131507 L3.28832765,38.2194247 Z" id="Fill-5" fill="#FEFEFE" fill-rule="evenodd"></path>
                <path d="M3.28890102,38.2194247 L38.0889829,38.2194247 L38.0889829,3.30073973 L3.28890102,3.30073973 L3.28890102,38.2194247 Z M0,41.519589 L41.377884,41.519589 L41.377884,0 L0,0 L0,41.519589 Z" id="Stroke-6" stroke="#3C3C3B" stroke-width="0.5"></path>
                <polygon id="Fill-8" fill="#FEFEFE" fill-rule="evenodd" points="59.2752737 9.24 56.6715604 9.24 56.6715604 17.6630137 54.6515468 17.6630137 54.6515468 9.24 52.033499 9.24 52.033499 7.4570137 59.2752737 7.4570137"></polygon>
                <polygon id="Fill-9" fill="#FEFEFE" fill-rule="evenodd" points="74.0033693 7.45724384 74.0033693 17.6626685 71.9690212 17.6626685 71.9690212 10.342011 68.4565024 15.7036274 64.9852669 10.342011 64.9852669 17.6626685 62.9377311 17.6626685 62.9377311 7.45724384 65.1481065 7.45724384 68.4702635 12.4241753 71.8193693 7.45724384"></polygon>
                <g id="Group-38" stroke-width="1" fill-rule="evenodd" transform="translate(52.607509, 7.142877)" fill="#FEFEFE">
                    <path d="M34.5550198,2.57920274 C33.8262553,3.2736411 33.4615863,4.21432603 33.4615863,5.40068219 C33.4615863,6.5876137 33.8262553,7.52829863 34.5550198,8.22273699 C35.2837843,8.91717534 36.1983235,9.26410685 37.2986375,9.26410685 C37.8576819,9.26410685 38.3937911,9.14903836 38.9075386,8.91947671 L38.9075386,6.21479178 L36.7894771,6.21479178 L36.7894771,4.80750411 L40.3100232,4.80750411 L40.3100232,9.87166849 C39.3473201,10.4694493 38.3393201,10.7680521 37.2848765,10.7680521 C35.7900778,10.7680521 34.5343782,10.2761342 33.5166307,9.29172329 C32.4994567,8.30788767 31.9902962,7.01049041 31.9902962,5.40068219 C31.9902962,3.79087397 32.4965898,2.49405205 33.5103235,1.5096411 C34.5229106,0.525805479 35.7671427,0.0333123288 37.2430198,0.0333123288 C38.3249857,0.0333123288 39.3473201,0.332490411 40.3100232,0.930271233 L40.3100232,2.93073699 C39.9619823,2.49865479 39.5193338,2.1586274 38.9832246,1.90950411 C38.446542,1.66153151 37.8852041,1.53725753 37.2986375,1.53725753 C36.1983235,1.53725753 35.2837843,1.88476438 34.5550198,2.57920274" id="Fill-10"></path>
                    <path d="M49.0378812,4.69715342 C49.4684887,4.69715342 49.8354512,4.54296164 50.1376218,4.23515342 C50.4397925,3.92676986 50.5911645,3.55682466 50.5911645,3.12416712 C50.5911645,2.69208493 50.4397925,2.32386575 50.1376218,2.02008493 C49.8354512,1.71687945 49.4684887,1.56498904 49.0378812,1.56498904 L46.6858812,1.56498904 L46.6858812,4.69715342 L49.0378812,4.69715342 Z M52.3382498,10.5201945 L50.5636423,10.5201945 L48.1852669,5.99397534 L46.6858812,5.99397534 L46.6858812,10.5201945 L45.1050758,10.5201945 L45.1050758,0.171509589 L49.0785911,0.171509589 C49.8945092,0.171509589 50.5911645,0.460906849 51.1691304,1.04085205 C51.7465229,1.62022192 52.0355058,2.32846849 52.0355058,3.16559178 C52.0355058,3.84622192 51.8222089,4.4394 51.395615,4.94570137 C50.9695945,5.4514274 50.4311918,5.7684411 49.7798334,5.89731781 L52.3382498,10.5201945 Z" id="Fill-12"></path>
                    <path d="M57.4028478,9.6369863 C56.6190389,8.95635616 56.2268478,8.12786301 56.2268478,7.15323288 L56.2268478,0.171452055 L57.8082266,0.171452055 L57.8082266,6.87706849 C57.8082266,7.53928767 58.0467522,8.10254795 58.52323,8.56742466 C59.0002812,9.03230137 59.5822608,9.26416438 60.269742,9.26416438 C60.9577966,9.26416438 61.5397761,9.03230137 62.0162539,8.56742466 C62.4933051,8.10254795 62.7312573,7.53928767 62.7312573,6.87706849 L62.7312573,0.171452055 L64.3132096,0.171452055 L64.3132096,7.15323288 C64.3132096,8.12786301 63.9210184,8.95635616 63.1372096,9.6369863 C62.3534007,10.3176164 61.3975782,10.6576438 60.269742,10.6576438 C59.1424792,10.6576438 58.1866567,10.3176164 57.4028478,9.6369863" id="Fill-14"></path>
                    <path d="M74.1517597,4.33836986 C74.4636778,4.04436986 74.6190635,3.65371233 74.6190635,3.16524658 C74.6190635,2.69634247 74.4613843,2.31258904 74.1448792,2.01341096 C73.8289474,1.71423288 73.4505174,1.56521918 73.0107358,1.56521918 L70.7143536,1.56521918 L70.7143536,4.78023288 L73.0107358,4.78023288 C73.4596915,4.78023288 73.8398416,4.63294521 74.1517597,4.33836986 M75.2039099,1.04050685 C75.776142,1.61987671 76.0628314,2.32409589 76.0628314,3.15143836 C76.0628314,3.97935616 75.776142,4.67667123 75.2039099,5.24223288 C74.6305311,5.80779452 73.9315823,6.09086301 73.1070635,6.09086301 L70.7143536,6.09086301 L70.7143536,10.5198493 L69.1324014,10.5198493 L69.1324014,0.171164384 L73.1070635,0.171164384 C73.9315823,0.171164384 74.6305311,0.461136986 75.2039099,1.04050685" id="Fill-16"></path>
                    <path d="M85.3405024,7.11169315 L83.3325297,1.79955616 L81.3113693,7.11169315 L85.3405024,7.11169315 Z M85.848516,8.43670685 L80.8165433,8.43670685 L80.0195468,10.5200219 L78.2999836,10.5200219 L82.4386321,0.171336986 L84.2126662,0.171336986 L88.3518881,10.5200219 L86.6334717,10.5200219 L85.848516,8.43670685 Z" id="Fill-18"></path>
                    <path d="M5.33007235,24.2214 C5.632243,23.9130164 5.78361502,23.5430712 5.78361502,23.1104137 C5.78361502,22.6869616 5.632243,22.3216192 5.33007235,22.013811 C5.02732833,21.7054274 4.66093925,21.5512356 4.22975836,21.5512356 L1.64439317,21.5512356 L1.64439317,24.6834 L4.22975836,24.6834 C4.66093925,24.6834 5.02732833,24.5292082 5.33007235,24.2214 M4.57378567,17.5773452 C4.27104164,17.2741397 3.90866621,17.1222493 3.48723276,17.1222493 L1.64439317,17.1222493 L1.64439317,20.2544137 L3.48723276,20.2544137 C3.90866621,20.2544137 4.27104164,20.1002219 4.57378567,19.7924137 C4.87595631,19.4840301 5.02732833,19.1140849 5.02732833,18.6814274 C5.02732833,18.2487699 4.87595631,17.881126 4.57378567,17.5773452 M6.81512355,21.6547973 C7.18151263,22.0914822 7.36499386,22.6415096 7.36499386,23.3037288 C7.36499386,24.1316466 7.0874785,24.8007699 6.53359454,25.311674 C5.97856382,25.8220027 5.28420205,26.0774548 4.44993584,26.0774548 L0.0767754266,26.0774548 L0.0767754266,15.7287699 L3.66612696,15.7287699 C4.50039317,15.7287699 5.19934198,15.9882493 5.76297338,16.5077836 C6.32660478,17.0278932 6.60870717,17.7016192 6.60870717,18.529537 C6.60870717,19.5415644 6.19128737,20.2820301 5.35759454,20.7509342 C5.96250922,20.9166329 6.44816109,21.2181123 6.81512355,21.6547973" id="Fill-20"></path>
                    <path d="M12.8287782,25.1940164 C12.0449693,24.5133863 11.6527782,23.6854685 11.6527782,22.710263 L11.6527782,15.7284822 L13.234157,15.7284822 L13.234157,22.434674 C13.234157,23.0968932 13.4726826,23.6601534 13.9497338,24.1250301 C14.4262116,24.5893315 15.0081911,24.8217699 15.6956724,24.8217699 C16.3831536,24.8217699 16.9657065,24.5893315 17.4421843,24.1250301 C17.9186621,23.6601534 18.1571877,23.0968932 18.1571877,22.434674 L18.1571877,15.7284822 L19.7385666,15.7284822 L19.7385666,22.710263 C19.7385666,23.6854685 19.3463754,24.5133863 18.5625666,25.1940164 C17.7793311,25.8752219 16.8235085,26.2152493 15.6956724,26.2152493 C14.5678362,26.2152493 13.612587,25.8752219 12.8287782,25.1940164" id="Fill-22"></path>
                    <path d="M27.5972396,24.6835151 C28.5966389,24.6835151 29.4452396,24.3181726 30.1413215,23.5869123 C30.8379768,22.8550767 31.1865911,21.9609945 31.1865911,20.9029397 C31.1865911,19.8448849 30.8379768,18.9502274 30.1413215,18.2189671 C29.4452396,17.4877068 28.5966389,17.121789 27.5972396,17.121789 L26.1265229,17.121789 L26.1265229,24.6835151 L27.5972396,24.6835151 Z M24.5583317,15.7288849 L27.6110007,15.7288849 C29.0324068,15.7288849 30.2468232,16.234611 31.2553966,17.2466384 C32.26397,18.2580904 32.7685433,19.4772411 32.7685433,20.9029397 C32.7685433,22.3286384 32.26397,23.5472137 31.2553966,24.5592411 C30.2468232,25.5712685 29.0324068,26.0769945 27.6110007,26.0769945 L24.5583317,26.0769945 L24.5583317,15.7288849 Z" id="Fill-24"></path>
                    <path d="M44.3192601,23.6210877 C44.9752055,22.8944301 45.3026048,21.9888411 45.3026048,20.9031699 C45.3026048,19.8174986 44.9752055,18.9113342 44.3192601,18.1846767 C43.6638881,17.4580192 42.8135672,17.0944027 41.768871,17.0944027 C40.7236014,17.0944027 39.8704137,17.4580192 39.211028,18.1846767 C38.5504956,18.9113342 38.2208027,19.8174986 38.2208027,20.9031699 C38.2208027,21.9888411 38.5504956,22.8944301 39.211028,23.6210877 C39.8704137,24.3477452 40.7236014,24.7113616 41.768871,24.7113616 C42.8135672,24.7113616 43.6638881,24.3477452 44.3192601,23.6210877 M38.1657584,24.6768411 C37.2122294,23.6510055 36.7351782,22.3933068 36.7351782,20.9031699 C36.7351782,19.4130329 37.2122294,18.1547589 38.1657584,17.1289233 C39.1192874,16.103663 40.3193693,15.5904575 41.768871,15.5904575 C43.2080519,15.5904575 44.4058403,16.103663 45.3639563,17.1289233 C46.3226457,18.1547589 46.8014171,19.4130329 46.8014171,20.9031699 C46.8014171,22.3933068 46.3226457,23.6510055 45.3639563,24.6768411 C44.4058403,25.7021014 43.2080519,26.2153068 41.768871,26.2153068 C40.3193693,26.2153068 39.1192874,25.7021014 38.1657584,24.6768411" id="Fill-26"></path>
                    <polygon id="Fill-28" points="65.2677706 15.7286548 60.9083713 26.0773397 59.1893816 26.0773397 57.4159208 21.8687096 55.6550744 26.0773397 53.9504191 26.0773397 49.5778321 15.7286548 51.2824874 15.7286548 54.8586512 24.2005726 56.6315386 19.9925178 54.8443167 15.7286548 56.4669788 15.7286548 60.0007126 24.2143808 63.562542 15.7286548"></polygon>
                    <polygon id="Fill-30" points="68.9622225 15.7286548 70.5436014 15.7286548 70.5436014 24.6832849 74.2017584 24.6832849 74.2017584 26.0773397 68.9622225 26.0773397"></polygon>
                    <path d="M84.9592055,22.669011 L82.9512328,17.356874 L80.9306457,22.669011 L84.9592055,22.669011 Z M85.4683659,23.9934493 L80.4352464,23.9934493 L79.6376765,26.0773397 L77.9192601,26.0773397 L82.0573352,15.7286548 L83.8313693,15.7286548 L87.9711645,26.0773397 L86.2521747,26.0773397 L85.4683659,23.9934493 Z" id="Fill-32"></path>
                    <polygon id="Fill-34" points="100.832339 15.7286548 100.832339 26.0773397 99.2652942 26.0773397 93.4483659 18.1980247 93.4483659 26.0773397 91.8664137 26.0773397 91.8664137 15.7286548 93.4346048 15.7286548 99.2652942 23.6073945 99.2652942 15.7286548"></polygon>
                    <path d="M111.762373,22.669011 L109.7544,17.356874 L107.73324,22.669011 L111.762373,22.669011 Z M112.27096,23.9934493 L107.23784,23.9934493 L106.440844,26.0773397 L104.721854,26.0773397 L108.860502,15.7286548 L110.634537,15.7286548 L114.773758,26.0773397 L113.055342,26.0773397 L112.27096,23.9934493 Z" id="Fill-36"></path>
                </g>
            </g>
        </g>
    </g>
</svg>