<?xml version="1.0" encoding="UTF-8" standalone="no"?>
<svg width="200px" height="50px" viewBox="0 0 200 50" version="1.1" xmlns="http://www.w3.org/2000/svg" xmlns:xlink="http://www.w3.org/1999/xlink">
    <!-- Generator: Sketch 50.2 (55047) - http://www.bohemiancoding.com/sketch -->
    <title>Logo-black</title>
    <desc>Created with Sketch.</desc>
    <defs></defs>
    <g id="Page-1" stroke="none" stroke-width="1" fill="none" fill-rule="evenodd">
        <g id="Home-Copy-2" transform="translate(-21.000000, -20.000000)" fill="#1D1D1B">
            <g id="Group-2">
                <g id="Logo-black" transform="translate(21.000000, 20.000000)">
                    <polygon id="Fill-1" points="13.0030137 13.0029452 21.84 13.0029452 24.6386301 13.0029452 24.6386301 9.07486301 9.07356164 9.07486301 9.07356164 39.6584247 13.0030137 39.6584247"></polygon>
                    <polygon id="Fill-2" points="24.6388356 23.6291096 24.6388356 24.6393836 24.6388356 27.5674658 26.1039041 26.1037671 30.0066438 22.1996575 31.3306164 20.8763699 31.3292466 20.8763699 36.4258219 15.7811644 36.4258219 39.6578767 40.3532192 39.6578767 40.3532192 8.91883562 37.7306164 8.91883562 24.6388356 22.0113014"></polygon>
                    <path d="M0,49.4280822 L49.4280822,49.4280822 L49.4280822,0 L0,0 L0,49.4280822 Z M3.92876712,45.4993151 L45.4993151,45.4993151 L45.4993151,3.92945205 L3.92876712,3.92945205 L3.92876712,45.4993151 Z" id="Fill-3"></path>
                    <polygon id="Fill-4" points="70.8074658 11 67.6971918 11 67.6971918 21.0273973 65.2841781 21.0273973 65.2841781 11 62.1567808 11 62.1567808 8.87739726 70.8074658 8.87739726"></polygon>
                    <polygon id="Fill-5" points="88.4009589 8.87767123 88.4009589 21.0269863 85.9708219 21.0269863 85.9708219 12.3119178 81.7749315 18.6947945 77.6283562 12.3119178 77.6283562 21.0269863 75.1824658 21.0269863 75.1824658 8.87767123 77.8228767 8.87767123 81.7913699 14.7906849 85.7920548 8.87767123"></polygon>
                    <g id="Group-34" stroke-width="1" transform="translate(62.328767, 8.332192)">
                        <path d="M41.7915068,3.24171233 C40.9209589,4.06842466 40.4853425,5.18828767 40.4853425,6.60061644 C40.4853425,8.01363014 40.9209589,9.13349315 41.7915068,9.96020548 C42.6620548,10.7869178 43.7545205,11.1999315 45.0689041,11.1999315 C45.7367123,11.1999315 46.3771233,11.0629452 46.9908219,10.7896575 L46.9908219,7.56979452 L44.4606849,7.56979452 L44.4606849,5.89445205 L48.6661644,5.89445205 L48.6661644,11.9232192 C47.5161644,12.634863 46.3120548,12.9903425 45.0524658,12.9903425 C43.2668493,12.9903425 41.7668493,12.404726 40.5510959,11.2328082 C39.3360274,10.0615753 38.7278082,8.51705479 38.7278082,6.60061644 C38.7278082,4.68417808 39.3326027,3.14034247 40.5435616,1.96842466 C41.7531507,0.797191781 43.2394521,0.210890411 45.0024658,0.210890411 C46.2949315,0.210890411 47.5161644,0.567054795 48.6661644,1.27869863 L48.6661644,3.66020548 C48.250411,3.14582192 47.7216438,2.7410274 47.0812329,2.44445205 C46.440137,2.14924658 45.769589,2.00130137 45.0689041,2.00130137 C43.7545205,2.00130137 42.6620548,2.415 41.7915068,3.24171233" id="Fill-6"></path>
                        <path d="M59.0920548,5.76308219 C59.6064384,5.76308219 60.0447945,5.57952055 60.4057534,5.21308219 C60.7667123,4.8459589 60.9475342,4.40554795 60.9475342,3.89047945 C60.9475342,3.37609589 60.7667123,2.93773973 60.4057534,2.57609589 C60.0447945,2.21513699 59.6064384,2.03431507 59.0920548,2.03431507 L56.2824658,2.03431507 L56.2824658,5.76308219 L59.0920548,5.76308219 Z M63.0345205,12.695274 L60.9146575,12.695274 L58.0735616,7.30691781 L56.2824658,7.30691781 L56.2824658,12.695274 L54.3941096,12.695274 L54.3941096,0.375410959 L59.1406849,0.375410959 C60.1153425,0.375410959 60.9475342,0.719931507 61.6379452,1.41034247 C62.3276712,2.10006849 62.6728767,2.94321918 62.6728767,3.93979452 C62.6728767,4.75006849 62.4180822,5.45623288 61.9084932,6.0589726 C61.399589,6.6610274 60.7564384,7.03842466 59.9783562,7.19184932 L63.0345205,12.695274 Z" id="Fill-8"></path>
                        <path d="M69.0844521,11.6438356 C68.1481507,10.8335616 67.6796575,9.84726027 67.6796575,8.6869863 L67.6796575,0.375342466 L69.5686986,0.375342466 L69.5686986,8.35821918 C69.5686986,9.14657534 69.8536301,9.81712329 70.4228082,10.3705479 C70.9926712,10.9239726 71.6878767,11.2 72.5091096,11.2 C73.3310274,11.2 74.0262329,10.9239726 74.595411,10.3705479 C75.165274,9.81712329 75.4495205,9.14657534 75.4495205,8.35821918 L75.4495205,0.375342466 L77.3392466,0.375342466 L77.3392466,8.6869863 C77.3392466,9.84726027 76.8707534,10.8335616 75.9344521,11.6438356 C74.9981507,12.4541096 73.8563699,12.8589041 72.5091096,12.8589041 C71.1625342,12.8589041 70.0207534,12.4541096 69.0844521,11.6438356" id="Fill-10"></path>
                        <path d="M89.0919178,5.3359589 C89.4645205,4.9859589 89.650137,4.52089041 89.650137,3.93938356 C89.650137,3.38116438 89.4617808,2.92431507 89.0836986,2.56815068 C88.7063014,2.2119863 88.2542466,2.03458904 87.7289041,2.03458904 L84.9857534,2.03458904 L84.9857534,5.8619863 L87.7289041,5.8619863 C88.2652055,5.8619863 88.7193151,5.68664384 89.0919178,5.3359589 M90.3487671,1.40993151 C91.0330137,2.09965753 91.3754795,2.9380137 91.3754795,3.92294521 C91.3754795,4.90856164 91.0330137,5.73869863 90.3487671,6.4119863 C89.6645205,7.08527397 88.8289041,7.42226027 87.8439726,7.42226027 L84.9857534,7.42226027 L84.9857534,12.694863 L83.0960274,12.694863 L83.0960274,0.375 L87.8439726,0.375 C88.8289041,0.375 89.6645205,0.720205479 90.3487671,1.40993151" id="Fill-12"></path>
                        <path d="M102.457466,8.63753425 L100.058836,2.31356164 L97.6444521,8.63753425 L102.457466,8.63753425 Z M103.065,10.2149315 L97.0533562,10.2149315 L96.1013014,12.6950685 L94.0471918,12.6950685 L98.9910274,0.375205479 L101.110205,0.375205479 L106.054726,12.6950685 L104.001986,12.6950685 L103.065,10.2149315 Z" id="Fill-14"></path>
                        <path d="M6.88075342,29.0062329 C7.24171233,28.6391096 7.42253425,28.1986986 7.42253425,27.6836301 C7.42253425,27.1795205 7.24171233,26.744589 6.88075342,26.3781507 C6.51910959,26.0110274 6.08143836,25.8274658 5.56636986,25.8274658 L2.4780137,25.8274658 L2.4780137,29.5562329 L5.56636986,29.5562329 C6.08143836,29.5562329 6.51910959,29.3726712 6.88075342,29.0062329 M5.97732877,21.0966438 C5.61568493,20.7356849 5.18280822,20.554863 4.67938356,20.554863 L2.4780137,20.554863 L2.4780137,24.2836301 L4.67938356,24.2836301 C5.18280822,24.2836301 5.61568493,24.1000685 5.97732877,23.7336301 C6.33828767,23.3665068 6.51910959,22.9260959 6.51910959,22.4110274 C6.51910959,21.8959589 6.33828767,21.4582877 5.97732877,21.0966438 M8.65472603,25.9507534 C9.09239726,26.4706164 9.31157534,27.125411 9.31157534,27.9137671 C9.31157534,28.8993836 8.98006849,29.6959589 8.31842466,30.3041781 C7.65541096,30.9117123 6.8259589,31.2158219 5.82938356,31.2158219 L0.605410959,31.2158219 L0.605410959,18.8959589 L4.89308219,18.8959589 C5.88965753,18.8959589 6.72458904,19.204863 7.39787671,19.8233562 C8.07116438,20.4425342 8.40815068,21.244589 8.40815068,22.2302055 C8.40815068,23.435 7.90952055,24.3165068 6.91363014,24.874726 C7.63623288,25.0719863 8.21636986,25.4308904 8.65472603,25.9507534" id="Fill-16"></path>
                        <path d="M15.8383562,30.1641096 C14.9020548,29.3538356 14.4335616,28.3682192 14.4335616,27.2072603 L14.4335616,18.8956164 L16.3226027,18.8956164 L16.3226027,26.8791781 C16.3226027,27.6675342 16.6075342,28.3380822 17.1773973,28.8915068 C17.7465753,29.4442466 18.4417808,29.7209589 19.2630137,29.7209589 C20.0842466,29.7209589 20.780137,29.4442466 21.3493151,28.8915068 C21.9184932,28.3380822 22.2034247,27.6675342 22.2034247,26.8791781 L22.2034247,18.8956164 L24.0924658,18.8956164 L24.0924658,27.2072603 C24.0924658,28.3682192 23.6239726,29.3538356 22.6876712,30.1641096 C21.7520548,30.9750685 20.610274,31.379863 19.2630137,31.379863 C17.9157534,31.379863 16.7746575,30.9750685 15.8383562,30.1641096" id="Fill-18"></path>
                        <path d="M33.4800685,29.5563699 C34.6739041,29.5563699 35.6876027,29.1214384 36.5191096,28.2508904 C37.3513014,27.3796575 37.7677397,26.315274 37.7677397,25.0556849 C37.7677397,23.7960959 37.3513014,22.7310274 36.5191096,21.8604795 C35.6876027,20.9899315 34.6739041,20.5543151 33.4800685,20.5543151 L31.7232192,20.5543151 L31.7232192,29.5563699 L33.4800685,29.5563699 Z M29.8499315,18.8960959 L33.4965068,18.8960959 C35.1944521,18.8960959 36.645137,19.4981507 37.8499315,20.7029452 C39.054726,21.9070548 39.6574658,23.3584247 39.6574658,25.0556849 C39.6574658,26.7529452 39.054726,28.2036301 37.8499315,29.4084247 C36.645137,30.6132192 35.1944521,31.215274 33.4965068,31.215274 L29.8499315,31.215274 L29.8499315,18.8960959 Z" id="Fill-20"></path>
                        <path d="M53.455411,28.2915753 C54.2389726,27.4265068 54.6300685,26.3484247 54.6300685,25.0559589 C54.6300685,23.7634932 54.2389726,22.684726 53.455411,21.8196575 C52.6725342,20.954589 51.6567808,20.5217123 50.4088356,20.5217123 C49.1602055,20.5217123 48.1410274,20.954589 47.3533562,21.8196575 C46.5643151,22.684726 46.1704795,23.7634932 46.1704795,25.0559589 C46.1704795,26.3484247 46.5643151,27.4265068 47.3533562,28.2915753 C48.1410274,29.1566438 49.1602055,29.5895205 50.4088356,29.5895205 C51.6567808,29.5895205 52.6725342,29.1566438 53.455411,28.2915753 M46.104726,29.5484247 C44.9656849,28.3271918 44.3958219,26.8299315 44.3958219,25.0559589 C44.3958219,23.2819863 44.9656849,21.7840411 46.104726,20.5628082 C47.2437671,19.3422603 48.6773288,18.7313014 50.4088356,18.7313014 C52.1280137,18.7313014 53.5588356,19.3422603 54.7033562,20.5628082 C55.8485616,21.7840411 56.4204795,23.2819863 56.4204795,25.0559589 C56.4204795,26.8299315 55.8485616,28.3271918 54.7033562,29.5484247 C53.5588356,30.7689726 52.1280137,31.3799315 50.4088356,31.3799315 C48.6773288,31.3799315 47.2437671,30.7689726 46.104726,29.5484247" id="Fill-22"></path>
                        <polygon id="Fill-24" points="78.4795205 18.8958219 73.2719863 31.2156849 71.2185616 31.2156849 69.1000685 26.205411 66.9966438 31.2156849 64.9603425 31.2156849 59.7370548 18.8958219 61.7733562 18.8958219 66.045274 28.9814384 68.1630822 23.9718493 66.0281507 18.8958219 67.9665068 18.8958219 72.1877397 28.9978767 76.4425342 18.8958219"></polygon>
                        <polygon id="Fill-26" points="82.8927397 18.8958219 84.7817808 18.8958219 84.7817808 29.5560959 89.1516438 29.5560959 89.1516438 31.2156849 82.8927397 31.2156849"></polygon>
                        <path d="M102.001986,27.1581507 L99.6033562,20.8341781 L97.1896575,27.1581507 L102.001986,27.1581507 Z M102.610205,28.734863 L96.5978767,28.734863 L95.6458219,31.2156849 L93.5923973,31.2156849 L98.5355479,18.8958219 L100.654726,18.8958219 L105.599932,31.2156849 L103.546507,31.2156849 L102.610205,28.734863 Z" id="Fill-28"></path>
                        <polygon id="Fill-30" points="120.963973 18.8958219 120.963973 31.2156849 119.09137 31.2156849 112.14274 21.8355479 112.14274 31.2156849 110.253014 31.2156849 110.253014 18.8958219 112.126301 18.8958219 119.09137 28.275274 119.09137 18.8958219"></polygon>
                        <path d="M134.019795,27.1581507 L131.621164,20.8341781 L129.207466,27.1581507 L134.019795,27.1581507 Z M134.627329,28.734863 L128.615,28.734863 L127.662945,31.2156849 L125.609521,31.2156849 L130.553356,18.8958219 L132.672534,18.8958219 L137.617055,31.2156849 L135.564315,31.2156849 L134.627329,28.734863 Z" id="Fill-32"></path>
                    </g>
                </g>
            </g>
        </g>
    </g>
</svg>