<?xml version="1.0" encoding="UTF-8" standalone="no"?>
<svg width="42px" height="60px" viewBox="0 0 42 60" version="1.1" xmlns="http://www.w3.org/2000/svg" xmlns:xlink="http://www.w3.org/1999/xlink">
    <!-- Generator: Sketch 50.2 (55047) - http://www.bohemiancoding.com/sketch -->
    <title>Shape</title>
    <desc>Created with Sketch.</desc>
    <defs></defs>
    <g id="Page-1" stroke="none" stroke-width="1" fill="none" fill-rule="evenodd">
        <g id="Home-Copy-5" transform="translate(-1050.000000, -691.000000)" fill="#FCBF02">
            <g id="Group" transform="translate(833.000000, 588.000000)">
                <path d="M238,103 C226.39,103 217,112.39 217,124 C217,139.75 238,163 238,163 C238,163 259,139.75 259,124 C259,112.39 249.61,103 238,103 L238,103 Z M238,131.5 C233.86,131.5 230.5,128.14 230.5,124 C230.5,119.86 233.86,116.5 238,116.5 C242.14,116.5 245.5,119.86 245.5,124 C245.5,128.14 242.14,131.5 238,131.5 L238,131.5 Z" id="Shape"></path>
            </g>
        </g>
    </g>
</svg>