<?xml version="1.0" encoding="UTF-8" standalone="no"?>
<svg width="115px" height="14px" viewBox="0 0 115 14" version="1.1" xmlns="http://www.w3.org/2000/svg" xmlns:xlink="http://www.w3.org/1999/xlink">
    <!-- Generator: Sketch 50.2 (55047) - http://www.bohemiancoding.com/sketch -->
    <title>Group 15</title>
    <desc>Created with Sketch.</desc>
    <defs></defs>
    <g id="Page-1" stroke="none" stroke-width="1" fill="none" fill-rule="evenodd">
        <g id="Home-Copy-8" transform="translate(-373.000000, -1446.000000)" fill="#4A4A4A">
            <g id="Group-3-Copy-3" transform="translate(373.000000, 1446.000000)">
                <g id="Group-15">
                    <polygon id="Star" points="7.5 11.25 3.09161061 13.5676275 3.93353806 8.65881373 0.367076128 5.18237254 5.2958053 4.46618627 7.5 0 9.7041947 4.46618627 14.6329239 5.18237254 11.0664619 8.65881373 11.9083894 13.5676275"></polygon>
                    <polygon id="Star" points="32.5 11.25 28.0916106 13.5676275 28.9335381 8.65881373 25.3670761 5.18237254 30.2958053 4.46618627 32.5 0 34.7041947 4.46618627 39.6329239 5.18237254 36.0664619 8.65881373 36.9083894 13.5676275"></polygon>
                    <polygon id="Star-Copy" points="57.5 11.25 53.0916106 13.5676275 53.9335381 8.65881373 50.3670761 5.18237254 55.2958053 4.46618627 57.5 0 59.7041947 4.46618627 64.6329239 5.18237254 61.0664619 8.65881373 61.9083894 13.5676275"></polygon>
                    <polygon id="Star-Copy-2" points="82.5 11.25 78.0916106 13.5676275 78.9335381 8.65881373 75.3670761 5.18237254 80.2958053 4.46618627 82.5 0 84.7041947 4.46618627 89.6329239 5.18237254 86.0664619 8.65881373 86.9083894 13.5676275"></polygon>
                    <polygon id="Star-Copy-3" points="107.5 11.25 103.091611 13.5676275 103.933538 8.65881373 100.367076 5.18237254 105.295805 4.46618627 107.5 0 109.704195 4.46618627 114.632924 5.18237254 111.066462 8.65881373 111.908389 13.5676275"></polygon>
                </g>
            </g>
        </g>
    </g>
</svg>