<?xml version="1.0" encoding="UTF-8" standalone="no"?>
<svg width="6px" height="810px" viewBox="0 0 6 810" version="1.1" xmlns="http://www.w3.org/2000/svg" xmlns:xlink="http://www.w3.org/1999/xlink">
    <!-- Generator: Sketch 48.2 (47327) - http://www.bohemiancoding.com/sketch -->
    <title>Group 16</title>
    <desc>Created with Sketch.</desc>
    <defs>
        <polygon id="path-1" points="0.739940246 0.582950552 1.469 0.582950552 1.469 3.16601524 0.739940246 3.16601524"></polygon>
        <polygon id="path-3" points="0.8735 0.366026474 1.469 0.366026474 1.469 1.40443877 0.8735 1.40443877"></polygon>
        <polygon id="path-5" points="0.7607 0.834977809 1.469 0.834977809 1.469 4.64263752 0.7607 4.64263752"></polygon>
        <polygon id="path-7" points="0.5985 0.657399549 1.469 0.657399549 1.469 3.61616697 0.5985 3.61616697"></polygon>
        <polygon id="path-9" points="0.9091 0.0386289373 1.469 0.0386289373 1.469 2.89530115 0.9091 2.89530115"></polygon>
        <polygon id="path-11" points="0.9927 0.0693659411 1.469 0.0693659411 1.469 5.84676193 0.9927 5.84676193"></polygon>
        <polygon id="path-13" points="0.8633 0.671333547 1.469 0.671333547 1.469 3.18429129 0.8633 3.18429129"></polygon>
        <polygon id="path-15" points="0.5547 0.418791677 1.469 0.418791677 1.469 2.65657017 0.5547 2.65657017"></polygon>
        <polygon id="path-17" points="0.5625 0.966194069 1.469 0.966194069 1.469 2.00460636 0.5625 2.00460636"></polygon>
        <polygon id="path-19" points="0.5312 0.302281818 1.469 0.302281818 1.469 1.95854942 0.5312 1.95854942"></polygon>
        <polygon id="path-21" points="0.5 0.325222728 1.469 0.325222728 1.469 4.46849577 0.5 4.46849577"></polygon>
        <polygon id="path-23" points="0.5301 0.572476697 1.469 0.572476697 1.469 5.72092484 0.5301 5.72092484"></polygon>
        <polygon id="path-25" points="0.665 0.370609347 1.469 0.370609347 1.469 1.40902164 0.665 1.40902164"></polygon>
        <polygon id="path-27" points="0.5254 0.670502817 1.469 0.670502817 1.469 2.37246056 0.5254 2.37246056"></polygon>
        <polygon id="path-29" points="0.6409 0.0263756722 1.469 0.0263756722 1.469 1.24643988 0.6409 1.24643988"></polygon>
        <polygon id="path-31" points="0.6169 0.593764149 1.469 0.593764149 1.469 2.74743124 0.6169 2.74743124"></polygon>
        <polygon id="path-33" points="0.6183 0.87351242 1.469 0.87351242 1.469 3.75718335 0.6183 3.75718335"></polygon>
        <polygon id="path-35" points="0.9346 0.258564661 1.9346 0.258564661 1.9346 2.50174289 0.9346 2.50174289"></polygon>
    </defs>
    <g id="Desktop-HD-Copy-17" stroke="none" stroke-width="1" fill="none" fill-rule="evenodd" transform="translate(-715.000000, -2607.000000)" opacity="0.501982276">
        <g id="Group-16" transform="translate(715.000000, 2606.000000)">
            <g id="Page-1">
                <path d="M4.4595,809.795338 C4.4345,810.99055 4.7305,810.561686 4.7835,810.741331 C4.7185,808.741349 4.3825,809.84622 4.4595,809.795338" id="Fill-1" fill="#F7EFDC"></path>
                <polygon id="Fill-3" fill="#F7EFDC" points="3.7856 790.061455 3.9066 790.411399 3.6096 787.501768"></polygon>
                <path d="M3.791,771.608349 C3.285,773.352882 3.873,778.294686 3.693,781.582299 L3.578,782.125389 L3.984,783.608241 C3.92,779.611392 3.65,774.422446 3.791,771.608349" id="Fill-5" fill="#F7EFDC"></path>
                <g id="Group-9" transform="translate(4.000000, 760.897645)">
                    <mask id="mask-2" fill="white">
                        <use xlink:href="#path-1"></use>
                    </mask>
                    <g id="Clip-8"></g>
                    <path d="M0.8853,0.871124072 C0.6883,1.47859526 0.7163,-1.25762113 0.8233,3.16601524 C0.8503,2.94483342 0.8583,2.87941344 0.8733,2.75065032 C0.8763,2.35293841 0.8793,1.80361831 0.8853,0.871124072" id="Fill-7" fill="#F7EFDC" mask="url(#mask-2)"></path>
                </g>
                <g id="Group-12" transform="translate(4.000000, 762.974470)">
                    <mask id="mask-4" fill="white">
                        <use xlink:href="#path-3"></use>
                    </mask>
                    <g id="Clip-11"></g>
                    <path d="M0.8735,0.67330653 C0.8875,2.61617593 1.0395,-0.598748528 0.8735,0.67330653" id="Fill-10" fill="#F7EFDC" mask="url(#mask-4)"></path>
                </g>
                <g id="Group-15" transform="translate(4.000000, 752.590347)">
                    <mask id="mask-6" fill="white">
                        <use xlink:href="#path-5"></use>
                    </mask>
                    <g id="Clip-14"></g>
                    <path d="M0.7607,2.08295122 L0.9367,4.64263752 C1.0527,4.10785519 1.0787,1.8285402 1.1637,2.67588464 C1.0677,0.0497399488 0.9517,0.590752753 0.7607,2.08295122" id="Fill-13" fill="#F7EFDC" mask="url(#mask-6)"></path>
                </g>
                <path d="M4.3916,752.245594 L4.4656,753.572685 C4.5146,753.341119 4.5316,752.989097 4.3916,752.245594" id="Fill-16" fill="#F7EFDC"></path>
                <path d="M4.623,756.386055 L4.466,753.572997 C4.384,753.942671 4.22,753.983169 4.522,754.863743 C4.373,754.634254 4.517,755.189804 4.623,756.386055" id="Fill-18" fill="#F7EFDC"></path>
                <path d="M4.5459,757.978149 C4.4359,759.414273 4.3669,761.269916 4.1919,758.699846 C4.2609,763.596998 4.6169,762.875302 4.5459,757.978149" id="Fill-20" fill="#F7EFDC"></path>
                <path d="M3.2681,770.666197 L3.1201,772.586222 L3.2891,774.245605 C3.2051,773.416952 3.4261,770.54678 3.2681,770.666197" id="Fill-22" fill="#F7EFDC"></path>
                <g id="Group-26" transform="translate(4.000000, 738.052575)">
                    <mask id="mask-8" fill="white">
                        <use xlink:href="#path-7"></use>
                    </mask>
                    <g id="Clip-25"></g>
                    <path d="M1.0225,0.674344942 C0.9155,0.514429449 0.7355,1.53415032 0.5985,1.72625659 L0.7215,3.61616697 C0.7955,2.64421306 0.8635,0.803108067 1.0225,0.674344942" id="Fill-24" fill="#F7EFDC" mask="url(#mask-8)"></path>
                </g>
                <path d="M4.5981,739.77852 L4.4131,736.948846 C4.3911,739.475304 4.4791,739.937397 4.5981,739.77852" id="Fill-27" fill="#F7EFDC"></path>
                <polygon id="Fill-29" fill="#F7EFDC" points="3.8301 751.789212 4.2181 756.437145 3.8251 750.894101"></polygon>
                <g id="Group-33" transform="translate(4.000000, 726.630040)">
                    <mask id="mask-10" fill="white">
                        <use xlink:href="#path-9"></use>
                    </mask>
                    <g id="Clip-32"></g>
                    <polygon id="Fill-31" fill="#F7EFDC" mask="url(#mask-10)" points="1.0361 1.29095416 1.2851 2.89530115 0.9091 0.0386289373"></polygon>
                </g>
                <g id="Group-36" transform="translate(4.000000, 715.207504)">
                    <mask id="mask-12" fill="white">
                        <use xlink:href="#path-11"></use>
                    </mask>
                    <g id="Clip-35"></g>
                    <path d="M0.9927,5.54802919 C1.1997,6.73389603 1.3417,3.92083713 1.4687,5.17523918 C1.4317,3.22821613 1.2547,1.56571805 1.0957,0.0693659411 C1.1837,1.65917516 1.1607,3.35490243 0.9927,5.54802919" id="Fill-34" fill="#F7EFDC" mask="url(#mask-12)"></path>
                </g>
                <g id="Group-39" transform="translate(4.000000, 712.092268)">
                    <mask id="mask-14" fill="white">
                        <use xlink:href="#path-13"></use>
                    </mask>
                    <g id="Clip-38"></g>
                    <path d="M0.8633,0.671333547 C0.9123,1.46571895 1.0013,2.2891799 1.0953,3.18429129 C1.0473,2.33902369 0.9793,1.50829385 0.8633,0.671333547" id="Fill-37" fill="#F7EFDC" mask="url(#mask-14)"></path>
                </g>
                <path d="M4.4668,732.130406 C4.5318,731.911301 4.7018,731.490744 4.7748,729.903011 L4.4708,731.016189 C4.4698,731.35575 4.4678,731.739963 4.4668,732.130406" id="Fill-40" fill="#F7EFDC"></path>
                <path d="M4.4614,731.054403 L4.4714,731.015982 C4.4794,729.808308 4.4854,728.971348 4.4884,728.612057 C4.4844,728.920466 4.4764,729.655662 4.4614,731.054403" id="Fill-42" fill="#F7EFDC"></path>
                <path d="M4.4653,732.411296 C4.4653,732.307455 4.4653,732.231651 4.4663,732.129887 C4.4373,732.236843 4.4263,732.302263 4.4653,732.411296" id="Fill-44" fill="#F7EFDC"></path>
                <path d="M4.104,744.373287 C3.935,742.70975 3.753,739.245607 3.495,742.599678 C3.702,743.790737 3.849,741.871751 4.104,744.373287" id="Fill-46" fill="#F7EFDC"></path>
                <path d="M4.0869,733.792488 L4.0179,736.797654 C4.0969,736.738464 4.2139,736.195375 4.2979,737.018835 L4.0869,733.792488 Z" id="Fill-48" fill="#F7EFDC"></path>
                <polygon id="Fill-50" fill="#F7EFDC" points="3.9902 732.321058 4.0872 733.792488 4.1122 732.678272"></polygon>
                <path d="M4.5796,717.909972 C4.4486,716.612996 4.4366,715.192448 4.4156,713.589139 C4.3566,715.307711 4.3246,717.085473 4.3246,718.772893 C4.4196,719.011728 4.5906,719.752116 4.5796,717.909972" id="Fill-52" fill="#F7EFDC"></path>
                <path d="M4.4956,724.2987 C4.4906,724.208358 4.4836,724.094133 4.4786,724.010022 C4.4526,724.18759 4.4446,724.328814 4.4956,724.2987" id="Fill-54" fill="#F7EFDC"></path>
                <path d="M4.418,697.798938 C4.399,697.885126 4.382,697.963007 4.362,698.05231 C4.381,698.07204 4.397,698.084501 4.415,698.1115 L4.418,697.798938 Z" id="Fill-56" fill="#F7EFDC"></path>
                <path d="M4.2686,719.061987 C4.2096,720.352734 4.2836,721.125312 4.3776,721.860508 C4.3466,720.895823 4.3276,719.87091 4.3246,718.773308 C4.2816,718.665314 4.2536,718.646622 4.2686,719.061987" id="Fill-58" fill="#F7EFDC"></path>
                <g id="Group-62" transform="translate(4.000000, 707.938618)">
                    <mask id="mask-16" fill="white">
                        <use xlink:href="#path-15"></use>
                    </mask>
                    <g id="Clip-61"></g>
                    <path d="M0.7217,0.418791677 C0.6587,1.09168284 0.6047,1.85491588 0.5547,2.65657017 C0.6507,1.99925519 0.8007,0.656588092 0.7217,0.418791677" id="Fill-60" fill="#F7EFDC" mask="url(#mask-16)"></path>
                </g>
                <g id="Group-65" transform="translate(4.000000, 722.476391)">
                    <mask id="mask-18" fill="white">
                        <use xlink:href="#path-17"></use>
                    </mask>
                    <g id="Clip-64"></g>
                    <path d="M0.5625,1.09822484 C0.5665,1.1626064 0.5705,1.22075749 0.5755,1.29136953 C0.6415,0.867697311 0.6085,0.920656338 0.5625,1.09822484" id="Fill-63" fill="#F7EFDC" mask="url(#mask-18)"></path>
                </g>
                <path d="M4.5625,723.574615 C4.5185,722.908993 4.4435,722.385633 4.3775,721.861235 C4.4015,722.647313 4.4345,723.377317 4.4785,724.00971 C4.5005,723.849795 4.5325,723.688841 4.5625,723.574615" id="Fill-66" fill="#F7EFDC"></path>
                <path d="M2.4736,693.014453 C2.7546,693.242904 3.0146,696.63955 2.7126,699.572027 C2.9236,702.457775 3.8466,700.570979 4.3626,698.05283 C4.2406,697.962488 4.1266,697.962488 3.9606,694.992629 C3.8076,696.032079 3.6026,701.581355 3.3486,699.076704 C3.2046,695.143198 3.4486,695.852434 3.5966,693.941755 C3.2466,695.566871 3.0876,688.936608 2.5736,689.79226 L2.7546,693.242904 C2.6746,693.307285 2.5466,692.055999 2.4736,693.014453" id="Fill-68" fill="#F7EFDC"></path>
                <path d="M4.334,703.709892 L4.369,704.932103 C4.418,703.538554 4.53,702.541678 4.75,700.704727 C4.613,698.672554 4.508,698.250959 4.415,698.110773 L4.376,704.127334 L4.334,703.709892 Z" id="Fill-70" fill="#F7EFDC"></path>
                <path d="M4.3701,710.418035 C4.0641,709.463735 3.9341,706.53022 3.6041,708.326673 C3.6251,711.912311 3.8591,710.839631 3.9921,712.981875 C3.9161,707.194804 4.1621,714.644373 4.3351,710.462687 C4.3871,711.600787 4.4031,712.622585 4.4151,713.589347 C4.4531,712.546781 4.4991,711.541598 4.5551,710.595604 C4.5481,710.648563 4.5421,710.685946 4.5361,710.728521 L4.5371,710.755519 C4.5351,710.755519 4.5341,710.749289 4.5331,710.749289 C4.4941,711.000585 4.4711,711.081581 4.4941,710.800171 C4.4891,710.78148 4.4881,710.710868 4.4871,710.679715 C4.4441,710.641294 4.4071,710.533299 4.3711,710.418035 C4.4341,708.742038 4.4511,710.154279 4.4871,710.679715 C4.5021,710.699445 4.5161,710.743059 4.5331,710.749289 L4.5361,710.728521 L4.3691,704.932103 C4.3261,706.158468 4.3351,707.69428 4.3701,710.418035" id="Fill-72" fill="#F7EFDC"></path>
                <path d="M2.8384,739.506767 C2.8654,739.327122 2.8864,739.335429 2.9094,739.320892 C2.8714,738.947063 2.8464,738.804801 2.8384,739.506767" id="Fill-74" fill="#F7EFDC"></path>
                <path d="M3.0229,737.122677 C3.0649,737.544272 3.1879,737.895255 3.1559,739.264921 C3.0639,740.452865 3.0089,739.259729 2.9089,739.320996 C2.9899,740.146533 3.1279,742.210897 3.2769,739.622135 L3.2349,739.213001 C3.3399,736.879688 3.7209,733.879715 3.7629,734.28885 C3.4879,734.96901 3.2929,735.57025 3.0229,737.122677" id="Fill-76" fill="#F7EFDC"></path>
                <path d="M3.6182,723.604002 L3.4692,718.777462 L3.2042,721.235384 L3.3632,721.110775 C3.3012,723.855298 3.4962,723.262365 3.6182,723.604002" id="Fill-78" fill="#F7EFDC"></path>
                <polygon id="Fill-80" fill="#F7EFDC" points="4.5693 697.246191 4.8923 697.885853 4.4373 695.098754"></polygon>
                <g id="Group-84" transform="translate(4.000000, 689.247197)">
                    <mask id="mask-20" fill="white">
                        <use xlink:href="#path-19"></use>
                    </mask>
                    <g id="Clip-83"></g>
                    <polygon id="Fill-82" fill="#F7EFDC" mask="url(#mask-20)" points="0.5312 1.72594507 0.8112 1.95854942 0.6422 0.302281818"></polygon>
                </g>
                <path d="M1.0513,336.994695 L0.9713,335.576224 C0.9963,336.247038 1.0233,336.677979 1.0513,336.994695" id="Fill-85" fill="#F7EFDC"></path>
                <path d="M1.0322,347.263243 L1.1702,347.514538 C1.0942,347.038946 1.0382,346.843724 1.0322,347.263243" id="Fill-87" fill="#F7EFDC"></path>
                <g id="Group-91" transform="translate(4.000000, 532.446941)">
                    <mask id="mask-22" fill="white">
                        <use xlink:href="#path-21"></use>
                    </mask>
                    <g id="Clip-90"></g>
                    <path d="M0.5,4.46849577 C0.761,2.40205531 1.167,0.0936647887 0.852,0.343922151 L0.545,0.978392061 C0.6,2.42178515 0.565,3.52769424 0.5,4.46849577" id="Fill-89" fill="#F7EFDC" mask="url(#mask-22)"></path>
                </g>
                <path d="M2.6636,431.406102 C2.6336,431.602362 2.6016,431.807968 2.5706,432.011497 C2.6756,432.512011 2.7756,432.98345 2.8646,433.406084 C2.8046,432.804844 2.7356,432.121568 2.6636,431.406102" id="Fill-92" fill="#F7EFDC"></path>
                <path d="M1.3916,429.948379 L1.5896,427.224624 C1.5206,427.837287 1.4536,428.713707 1.3916,429.948379" id="Fill-94" fill="#F7EFDC"></path>
                <path d="M0.7251,280.912332 L0.4121,279.258141 C0.4131,281.846903 0.5711,280.707764 0.7251,280.912332" id="Fill-96" fill="#F7EFDC"></path>
                <path d="M4.418,626.728028 C4.538,624.945074 4.588,623.526602 4.604,622.279469 C4.427,624.427944 4.162,626.160016 4.418,626.728028" id="Fill-98" fill="#F7EFDC"></path>
                <path d="M4.314,341.035261 C4.258,340.167148 4.196,339.796435 4.127,339.822396 C4.18,340.71543 4.238,341.221137 4.314,341.035261" id="Fill-100" fill="#F7EFDC"></path>
                <g id="Group-104" transform="translate(4.000000, 616.558337)">
                    <mask id="mask-24" fill="white">
                        <use xlink:href="#path-23"></use>
                    </mask>
                    <g id="Clip-103"></g>
                    <path d="M0.6021,0.572476697 C0.5781,0.888154033 0.5551,1.19448566 0.5301,1.51431665 C0.5811,2.81856248 0.6231,4.1290388 0.6031,5.72092484 C0.7351,4.13526927 0.8161,2.31908617 0.6021,0.572476697" id="Fill-102" fill="#F7EFDC" mask="url(#mask-24)"></path>
                </g>
                <path d="M0.98,77.5209044 C0.992,77.371373 1.006,77.1958813 1.017,77.0608877 C0.975,77.0151976 0.973,77.2197648 0.98,77.5209044" id="Fill-105" fill="#F7EFDC"></path>
                <path d="M4.0825,18.2660876 C4.1015,18.8496753 4.1025,19.8018994 4.1065,20.6990876 C4.1265,20.261916 4.1245,19.5287969 4.0825,18.2660876" id="Fill-107" fill="#F7EFDC"></path>
                <g id="Group-111" transform="translate(4.000000, 665.363714)">
                    <mask id="mask-26" fill="white">
                        <use xlink:href="#path-25"></use>
                    </mask>
                    <g id="Clip-110"></g>
                    <path d="M0.665,0.370609347 C0.685,1.70081549 0.699,0.581407042 0.665,0.370609347" id="Fill-109" fill="#F7EFDC" mask="url(#mask-26)"></path>
                </g>
                <path d="M3.4492,672.204152 C3.4152,671.921703 3.3712,671.706752 3.2992,671.673523 C3.3742,671.782556 3.4212,671.967394 3.4492,672.204152" id="Fill-112" fill="#F7EFDC"></path>
                <path d="M2.689,603.878907 C2.689,603.839448 2.689,603.808295 2.69,603.763644 C2.629,604.160317 2.641,604.091782 2.689,603.878907" id="Fill-114" fill="#F7EFDC"></path>
                <g id="Group-118" transform="translate(4.000000, 665.363714)">
                    <mask id="mask-28" fill="white">
                        <use xlink:href="#path-27"></use>
                    </mask>
                    <g id="Clip-117"></g>
                    <path d="M0.5254,2.37246056 C0.5634,1.87298425 0.5944,1.29770384 0.6164,0.670502817 C0.5924,0.945682074 0.5634,1.46384981 0.5254,2.37246056" id="Fill-116" fill="#F7EFDC" mask="url(#mask-28)"></path>
                </g>
                <g id="Group-121" transform="translate(4.000000, 667.440539)">
                    <mask id="mask-30" fill="white">
                        <use xlink:href="#path-29"></use>
                    </mask>
                    <g id="Clip-120"></g>
                    <path d="M0.6709,0.0263756722 C0.6589,0.484315493 0.6499,0.845682971 0.6409,1.18939744 C0.6919,1.35658182 0.7249,1.20912727 0.6709,0.0263756722" id="Fill-119" fill="#F7EFDC" mask="url(#mask-30)"></path>
                </g>
                <g id="Group-124" transform="translate(4.000000, 663.286890)">
                    <mask id="mask-32" fill="white">
                        <use xlink:href="#path-31"></use>
                    </mask>
                    <g id="Clip-123"></g>
                    <path d="M0.6489,0.593764149 C0.6529,1.35492036 0.6389,2.06519437 0.6169,2.74743124 C0.6379,2.48678976 0.6549,2.37671805 0.6649,2.44733009 C0.6619,2.05688707 0.6569,1.50652855 0.6489,0.593764149" id="Fill-122" fill="#F7EFDC" mask="url(#mask-32)"></path>
                </g>
                <path d="M1.8032,186.498951 C1.8122,186.411725 1.8222,186.310999 1.8322,186.214427 C1.7042,184.871759 1.7242,185.460539 1.8032,186.498951" id="Fill-125" fill="#F7EFDC"></path>
                <path d="M1.3066,502.289371 C1.3126,502.351676 1.3156,502.384905 1.3216,502.44098 C1.3256,502.378675 1.3286,502.300794 1.3326,502.24472 L1.3066,502.289371 Z" id="Fill-127" fill="#F7EFDC"></path>
                <path d="M1.0776,497.511013 C1.4606,499.545263 1.4126,500.703093 1.3326,502.244097 L2.2186,500.663633 L1.0776,497.511013 Z" id="Fill-129" fill="#F7EFDC"></path>
                <path d="M4.104,172.289214 L4.015,173.165634 C3.916,171.18642 4.005,171.740932 4.104,172.289214 M4.238,655.652483 C4.287,656.10523 4.333,656.074078 4.381,655.88301 C4.295,655.56941 4.289,654.557996 4.313,653.407435 C4.224,653.727266 4.162,654.308777 4.238,655.652483 M4.387,651.152004 C4.38,651.110467 4.376,651.08243 4.37,651.048163 C4.503,648.880996 4.451,649.649421 4.387,651.152004 M2.007,438.789421 C1.894,438.066686 1.95,436.949355 2.079,435.688722 C2.107,436.603563 2.094,437.639899 2.007,438.789421 M1.184,362.55646 C1.112,361.584506 0.891,359.646828 1.092,358.936554 C1.484,360.043502 1.296,360.899154 1.184,362.55646 M0.963,312.407376 L0.687,315.763525 C0.232,311.712679 0.389,308.781241 0,311.932822 C0.963,312.407376 0.099,324.976319 1.061,325.442566 L0.858,327.654384 C0.867,327.020953 0.811,326.919188 0.82,326.293026 C0.359,330.595168 1.516,329.48822 1.379,335.032303 C1.305,336.96375 1.166,338.311609 1.051,336.994903 L1.29,341.299122 C1.271,342.551447 1.104,342.245115 1.122,340.997982 L1.199,347.563863 L1.17,347.515058 C1.321,348.451706 1.555,350.57422 1.654,351.609517 C1.516,353.278246 1.552,350.773595 1.432,351.200383 L1.665,354.834826 C1.416,356.31664 1.173,353.303168 1.209,350.792287 C0.249,354.187895 1.452,353.808875 0.891,361.134873 L0.768,357.703959 C0.223,359.915777 0.42,362.594881 0.08,366.475428 C0.257,365.554356 0.937,358.706027 1.178,362.650955 C1.104,363.764133 1.07,365.229333 1.264,367.358078 C0.922,367.37677 1.006,369.454633 1.025,372.055855 L0.571,371.878287 C0.703,374.690307 0.933,374.467049 1.138,376.121239 C1.093,379.255168 0.742,379.905214 0.446,380.642487 C0.374,385.661133 1.009,377.177305 1.094,383.115985 C0.921,387.289364 1.106,390.220802 1.377,395.213488 C1.221,398.134542 1.1,394.702589 0.971,395.749309 L1.332,398.339109 C1.323,398.97254 1.212,398.767973 1.156,398.664132 C1.296,400.845836 1.609,398.843777 1.732,402.274691 C2.231,403.198878 1.002,409.316165 1.57,413.561195 C1.441,414.606876 1.292,413.055488 1.116,413.375319 C1.488,419.199773 1.387,418.369044 1.888,423.150932 L1.59,427.224624 C1.93,424.231919 2.333,428.056392 2.664,431.40631 C2.828,430.345052 2.972,429.43748 3.041,428.828971 L3.284,434.174717 C3.209,434.820609 3.054,434.281673 2.864,433.406292 C2.905,433.769736 2.943,434.115528 2.973,434.385515 C2.806,436.297232 2.544,435.306586 2.291,433.936921 C2.385,433.286875 2.479,432.639944 2.57,432.010666 C2.295,430.689805 1.99,429.455133 1.725,429.730312 C1.777,430.077142 1.822,430.74588 1.847,431.482114 C1.772,431.136323 1.706,430.916179 1.66,431.076095 C1.612,431.257817 1.713,431.815444 1.829,432.689787 L1.323,433.90473 L1.524,434.199639 L1.208,441.194384 C1.717,446.199531 2.465,450.552556 2.674,458.495371 C2.303,456.524465 2.068,458.071699 1.629,457.963704 C2.094,455.796538 1.432,451.813188 1.526,447.695883 C1.478,449.844359 1.269,449.371881 1.195,448.825676 L1.618,456.167251 C1.259,456.001105 1.349,457.725908 1.2,459.643855 C1.91,458.194232 1.673,465.117327 1.891,468.104839 C1.653,468.289676 1.409,467.573172 1.467,463.929383 C0.932,467.950115 2.3,469.12456 1.846,473.071565 C1.84,472.181645 1.877,471.701899 1.756,471.350915 C1.968,473.428778 1.8,478.511807 1.592,477.315556 L1.587,476.427713 C1.503,482.335241 1.582,494.413014 2.185,495.294626 C2.107,495.352777 1.458,494.519971 1.336,494.162757 L3.365,504.704718 C2.847,503.776378 1.614,507.340209 1.321,502.44098 C1.248,503.848028 1.162,505.588407 1.344,508.554113 C1.418,507.59462 2.093,506.161611 2.14,507.473125 C1.564,511.073301 1.832,509.972584 1.341,514.40972 C1.452,512.971519 2.263,514.569635 2.237,516.84272 C2.116,516.487583 1.437,517.031711 1.352,516.199942 L2.148,521.859289 C2.005,520.44601 1.473,521.609032 1.248,522.874857 C1.404,522.288154 1.233,527.766817 1.312,529.274592 L1.497,526.876898 C1.376,533.26521 2.618,533.186291 2.576,539.523721 C2.411,538.757373 1.563,537.629657 1.462,540.852889 C1.871,542.329511 3.426,547.392809 3.74,553.000236 L3.506,554.074992 L3.772,558.377134 C3.158,555.699069 1.866,548.180964 1.363,544.07612 C1.178,546.465507 1.088,544.740704 1.109,548.32115 C0.891,549.585936 0.777,546.369973 0.765,545.317023 L0.623,553.65132 C1.1,553.280607 1.101,560.026133 1.498,559.707341 L1.004,550.654462 C1.48,550.287903 2.356,555.890137 2.272,561.795588 C2.083,563.29817 1.424,560.672026 1.266,560.794558 C1.43,561.561945 1.579,566.399908 1.462,566.942997 L1.208,564.437309 C1.029,567.724922 1.839,569.802785 1.385,573.753944 C1.354,575.117379 0.771,577.825558 1.053,578.062316 C1.597,575.838037 3.278,575.402942 3.687,576.884757 C3.65,577.363465 3.167,584.045648 2.898,585.602228 C2.472,587.848314 1.882,582.231542 1.517,584.143259 C1.646,584.225293 1.807,585.466196 1.858,585.983325 C1.748,587.415296 1.456,585.390392 1.514,588.502513 C1.998,589.020681 1.474,594.831636 1.923,589.972905 C2.061,593.01753 1.823,593.208598 1.844,596.782813 C2.156,595.644713 2.907,599.992545 3.044,603.041324 C2.921,602.862717 2.762,603.547031 2.689,603.879323 C2.645,610.118104 2.426,613.468022 2.421,619.286246 C2.305,619.823105 2.163,622.630972 1.955,621.434721 C2.041,622.271681 2.205,623.040106 2.216,624.835521 C1.798,628.307972 2.151,620.83348 1.649,623.481431 C1.93,623.707805 2.037,628.123134 2.212,630.678667 C2.646,629.892589 2.295,624.773216 2.12,622.21353 C2.718,622.202108 3.344,626.657935 3.621,632.738877 C3.769,637.571648 3.234,634.835431 3.319,635.67343 C3.215,644.752269 4.363,643.407525 3.932,650.947437 C3.551,653.938064 3.174,651.081392 2.899,651.744937 C2.755,647.807278 3.141,645.700339 3.125,643.03162 L2.945,646.317156 C2.819,645.064831 2.723,642.436609 2.833,641.003601 C2.491,643.511366 2.767,656.34095 2.451,663.346079 C2.579,664.591136 2.711,666.739611 2.864,665.723005 L2.811,663.505995 C3.119,661.46863 3.236,667.677297 3.379,664.871507 C3.596,667.84552 3.935,671.177785 3.761,675.362586 L3.327,676.149703 C3.454,676.059361 3.586,673.413487 3.453,672.236965 C3.646,673.981498 2.865,678.654353 3.434,680.567109 L3.735,677.631517 C3.954,680.616953 4.415,684.306431 4.278,688.01564 C4.707,686.327182 4.229,687.161027 4.73,684.525536 C4.106,686.810044 4.757,675.036525 4.101,678.707312 C4.683,676.003287 4.348,674.02615 4.845,670.490356 C4.701,670.600428 4.57,671.74372 4.641,668.629521 C4.599,668.489335 4.546,668.157044 4.515,667.946246 C4.52,667.850712 4.521,667.818521 4.525,667.736487 C4.52,667.798791 4.515,667.84552 4.508,667.907825 C4.487,667.772831 4.482,667.761408 4.503,667.972206 C4.44,668.713633 4.365,669.314873 4.285,669.5589 C3.956,668.012704 3.966,663.061554 3.795,661.386595 C3.864,659.53926 3.96,662.160213 4.113,661.150876 L3.858,658.650379 C4.177,658.402198 4.387,653.740766 4.573,658.09379 L4.588,654.17586 C4.766,651.869547 4.837,648.697197 4.703,646.73979 C4.772,644.892455 4.351,642.073165 4.6,643.682704 L4.403,637.539457 L4.482,637.482344 C4.522,631.420093 3.956,625.002706 4.53,618.072342 C4.45,616.031862 4.352,613.922846 4.441,610.508547 L4.717,609.842924 C4.621,607.22301 4.993,601.974875 4.706,600.849236 C5.447,598.021639 4.867,588.130762 4.999,583.522288 L4.639,583.348873 C4.66,580.176524 4.558,577.135014 4.414,573.198393 L4.096,573.440343 C3.835,570.044735 4.322,564.712488 4.289,559.342858 C4.411,559.707341 4.379,561.069738 4.305,562.033384 C5.023,555.618073 3.783,548.498718 4.306,542.680494 C4.19,541.230871 4.23,540.181036 4.31,539.165469 C4.311,539.299424 4.316,539.420918 4.326,539.523721 C4.328,539.375228 4.329,539.155085 4.331,538.928711 C4.384,538.28801 4.44,537.62758 4.5,536.915229 C4.422,537.521662 4.358,538.103173 4.329,538.60888 C4.323,537.49051 4.283,535.795821 4.204,534.132284 L4.545,533.425125 C4.541,533.290132 4.539,533.181099 4.535,533.040913 C4.661,531.409567 4.374,531.729398 4.117,532.599588 C4.061,531.762627 3.993,530.995241 3.911,530.40023 C4.462,529.075216 3.726,526.039937 4.313,524.231023 C4.026,523.111615 4.097,515.874919 3.495,514.989154 C3.573,514.932041 3.61,514.442949 3.616,515.340137 C3.684,513.486571 3.753,511.635082 3.583,509.972584 L4.017,509.186506 L3.434,505.139813 C3.698,502.680853 3.852,501.663209 4.185,504.103478 C3.672,498.209449 3.992,499.321589 3.483,494.309173 L3.764,494.5532 C3.753,492.761939 3.377,489.897997 3.609,488.81701 C4.142,484.808739 3.683,468.986451 4.178,458.697862 C3.352,460.69369 4.548,453.915973 3.908,453.507877 C4.104,452.908713 4.214,451.474666 4.384,453.141318 C4.191,447.891105 4.693,445.252499 4.153,441.627402 C4.35,441.0272 4.44,442.752003 4.556,442.21722 C4.514,441.795625 4.386,440.548492 4.503,440.002287 C4.619,439.467504 4.666,440.77175 4.752,441.60248 C4.719,436.239081 4.117,435.697029 3.552,435.306586 C3.819,432.588023 3.782,431.232895 3.411,429.269257 C3.596,428.323264 3.789,426.744877 3.855,430.077142 C3.882,428.202808 4.126,418.624493 3.673,418.433425 C3.789,417.845684 3.707,415.813511 3.655,415.319227 C3.682,411.112618 3.723,410.741905 3.68,406.611101 L3.606,407.75647 C3.059,406.126163 3.484,404.323479 3.418,400.992252 L3.475,401.087786 C3.868,393.451302 3.285,397.790827 3.735,390.257146 L3.396,390.667319 C2.664,389.965352 3.826,383.992405 3.547,379.620689 L3.353,381.199076 C3.103,378.810727 4.347,374.524161 4.438,372.125429 C4.502,371.603108 4.54,372.950967 4.588,373.680971 C5.019,367.40273 4.142,372.867894 4.039,368.188808 C4.279,367.325887 4.649,369.300948 4.694,366.151443 C4.889,364.58344 3.914,357.018607 4.375,352.722695 C4.19,353.668689 4.005,354.60949 3.866,352.435055 C3.8,349.104867 4.565,343.430982 3.982,340.422702 C4.033,339.999029 4.081,339.839114 4.127,339.821461 C3.977,337.275274 3.877,331.547392 3.561,330.013657 C4.735,327.660615 2.99,314.1841 4.072,314.241213 L4.015,306.409507 L4.125,306.614074 C4.197,301.607889 3.937,299.838434 3.677,298.078325 C3.751,296.920496 3.853,297.765763 3.909,297.861297 C4.127,290.546721 4.081,289.818794 3.542,283.686969 L3.893,283.049384 C3.689,281.386886 4.444,272.474193 4.034,265.299803 C4.074,265.370415 4.142,265.517869 4.191,266.087958 C3.779,258.016379 5.166,246.764143 3.887,243.806745 L3.572,238.47969 C3.472,245.371633 3.017,237.453739 2.804,240.288604 C2.729,237.578348 3.19,233.282437 3.255,236.612625 L3.191,237.133908 C3.858,238.357157 3.428,228.570122 3.882,228.755997 C3.849,215.195371 4.218,201.97846 4.247,189.277639 L3.728,190.740762 L3.758,186.309857 C3.879,185.146835 4.164,184.749123 4.142,187.909012 C4.436,186.247552 3.896,182.608955 3.783,182.518613 C3.993,176.329676 4.388,184.936037 4.4,183.037819 L4.361,180.46048 L4.301,181.041991 C4.089,178.952706 3.865,178.76683 3.89,174.968318 C3.994,172.564393 4.21,173.734684 4.23,172.78869 C4.267,172.794921 4.284,172.47509 4.245,171.33699 L4.289,165.755524 L3.88,167.987072 C3.678,165.513574 3.901,162.738936 3.437,165.314198 C4.152,161.533339 3.694,144.491955 3.916,142.170065 C3.618,138.704883 3.623,135.284353 3.659,131.046593 C3.574,132.100581 3.114,132.730898 3.17,129.076725 C4.12,130.413161 3.583,122.384157 4.265,119.429875 C3.812,122.070557 4.153,109.04056 3.511,113.182786 C3.587,110.132969 3.866,112.99691 4.089,110.683328 C3.721,103.425864 4.328,94.6886633 4.204,85.716781 C4.08,85.5765954 3.889,87.079178 3.703,85.155 L4.326,80.4177631 C4.265,78.6462318 3.607,78.7874558 4.04,75.5496863 C3.935,76.0065877 3.777,76.689863 3.737,75.5008809 C4.344,57.9257529 3.239,39.5873918 4.381,21.7391613 C4.139,24.1565851 4.115,22.5449693 4.106,20.6997106 C4.048,21.8990768 3.798,20.6716735 3.629,20.9073931 L4.099,13.4349782 C3.629,12.0725813 4.067,5.4236274 3.618,4.64377977 L3.699,7.01032138 C3.17,3.86289373 2.523,11.4142279 1.844,10.9531729 C2.446,14.4765058 0.954,20.244886 1.814,26.0257273 C1.676,27.3008976 1.596,24.9364328 1.438,25.6197081 C1.729,27.0849078 1.79,28.8543624 1.66,32.1347068 L1.587,31.7639936 C1.659,40.9767875 1.372,44.9279462 1.181,55.2778015 L1.517,54.5114533 C1.471,56.7357324 1.366,57.2040563 1.282,58.2455839 C1.791,60.7980013 1.311,51.9984955 1.872,54.3235006 C1.189,57.2746684 1.862,70.0087183 1.085,72.0024699 C1.082,75.4250768 1.474,71.000402 1.47,74.4198937 L1.26,75.3274661 L1.53,76.1924635 C1.485,78.4354341 1.223,79.5673035 1.045,79.6514149 C1.066,79.1072868 0.996,78.1041805 0.98,77.5205928 C0.732,80.4302241 1.064,85.7230115 0.984,86.7219641 L1.113,83.4343508 C1.31,92.7727926 1.034,104.17456 1.461,113.196286 L1.62,112.511972 C1.913,119.400799 1.446,118.029056 1.581,125.59389 L1.543,125.318711 C1.701,126.832716 1.781,128.853466 1.763,130.92406 C1.577,129.01442 1.402,134.518005 1.197,132.012316 C1.512,139.483693 1.444,135.708026 2.033,140.642561 L1.77,141.779622 C2.008,143.46185 2.133,143.602036 2.201,147.37978 C1.976,144.281157 1.801,149.790973 1.502,146.320599 C0.928,154.2468 2.083,158.091003 1.242,161.728561 C1.97,165.368196 1.646,154.867771 1.802,156.907213 C2.04,155.199024 2.346,159.911339 2.272,162.399375 C2.256,164.932063 1.342,166.705671 1.356,173.075292 C1.359,172.440822 1.305,172.398247 1.308,171.766892 C1.122,174.150049 1.559,176.437671 1.257,179.36184 C1.697,181.000455 1.232,183.158275 1.793,183.630753 L1.663,177.787607 C1.81,181.100142 2.466,184.207072 2.148,189.663928 C2.035,189.238179 1.886,187.615141 1.803,186.498848 C1.638,188.094887 1.913,189.572548 1.743,191.226739 C1.181,190.754261 1.62,184.123999 1.192,180.575744 C0.956,182.288086 1.6,187.289079 0.991,185.506125 C1.764,188.069965 0.894,191.782289 1.484,196.096892 L1.147,195.811329 C1.2,196.494604 1.359,197.908922 1.351,199.165401 L0.915,196.890239 C1.287,200.383458 0.59,203.623305 0.792,206.973223 C0.781,199.959786 1.197,205.39899 1.442,202.433284 C1.893,211.084297 0.563,207.408318 0.724,217.093589 C0.677,215.783113 0.926,212.171515 1.082,214.222379 C1.013,216.065561 0.883,218.500638 0.707,219.632507 C0.777,226.049895 1.053,218.647054 1.26,221.378078 C0.85,223.563936 1.427,224.529659 1.558,227.343757 L1.216,227.362448 C0.996,234.675986 1.928,229.302202 1.663,235.884698 L1.189,233.102791 L1.312,236.534744 L0.923,235.826547 C1.211,239.560677 1.137,240.723699 1.027,244.382026 C1.269,243.531566 1.648,244.859695 1.659,248.098503 C1.456,250.307206 1.333,246.861754 1.383,251.452575 C1.168,250.417278 0.9,249.281255 1.215,247.28335 C1.104,247.078782 1,246.260513 0.891,246.050754 C0.657,248.428718 0.837,252.028894 0.84,253.690353 C0.853,253.050691 0.872,252.28642 0.92,251.8939 L1.394,258.549085 C1.266,259.596843 1.162,258.765074 1.062,257.941613 C1.099,259.290511 1.256,260.223005 1.285,262.205334 C1.007,261.692359 0.72,261.814891 0.59,259.009101 L0.897,265.350685 C0.777,265.773319 0.566,268.605069 0.463,267.781608 C0.3,271.297672 1.002,276.405622 0.787,281.066017 C0.841,281.307967 0.893,281.793944 0.932,282.785627 C0.869,287.16565 0.528,291.046197 0.909,296.238259 L0.411,299.184234 C0.524,303.250657 1.039,295.196731 1.227,301.966141 C1.386,306.76049 0.802,303.756364 0.664,305.437553 C0.914,307.821748 1.425,311.966051 1.02,316.368919 C0.926,314.912027 1,313.768735 0.963,312.407376" id="Fill-131" fill="#F7EFDC"></path>
                <path d="M1.5391,430.145573 C1.5971,429.870394 1.6601,429.79459 1.7251,429.730209 C1.6671,429.347034 1.6011,429.339766 1.5391,430.145573" id="Fill-133" fill="#F7EFDC"></path>
                <path d="M0.7832,281.218559 L0.7872,281.066951 C0.7662,280.98284 0.7452,280.93715 0.7252,280.912228 L0.7832,281.218559 Z" id="Fill-135" fill="#F7EFDC"></path>
                <path d="M1.3398,585.930782 C1.3888,585.003479 1.4518,584.48635 1.5168,584.143674 C1.4328,584.092792 1.3618,584.514387 1.3398,585.930782" id="Fill-137" fill="#F7EFDC"></path>
                <g id="Group-141" transform="translate(4.000000, 675.747837)">
                    <mask id="mask-34" fill="white">
                        <use xlink:href="#path-33"></use>
                    </mask>
                    <g id="Clip-140"></g>
                    <path d="M0.8193,3.75718335 L0.7303,0.87351242 C0.7473,2.26810013 0.6733,2.76549962 0.6183,3.47058156 C0.6983,3.4062 0.8143,2.85584149 0.8193,3.75718335" id="Fill-139" fill="#F7EFDC" mask="url(#mask-34)"></path>
                </g>
                <path d="M2.7036,704.530342 C2.7456,704.950899 2.7086,705.423376 2.7506,705.838741 L2.9096,705.723477 C2.8996,703.929101 2.7716,702.674699 2.7036,704.530342" id="Fill-142" fill="#F7EFDC"></path>
                <path d="M3.6836,682.174052 C3.3956,682.402503 3.4936,684.211417 3.5466,686.23009 L3.5466,685.873915 C3.9496,686.468925 3.8156,684.316296 3.6836,682.174052" id="Fill-144" fill="#F7EFDC"></path>
                <path d="M3.5566,686.69883 C3.5696,687.321877 3.5776,687.957385 3.5636,688.565895 C3.7256,688.801614 3.5976,687.808892 3.5566,686.69883" id="Fill-146" fill="#F7EFDC"></path>
                <path d="M4.4292,661.361673 C4.3552,662.320128 4.7972,661.962914 4.6802,662.504965 C5.0462,663.57453 4.2372,656.119768 4.4292,661.361673" id="Fill-148" fill="#F7EFDC"></path>
                <polygon id="Fill-150" fill="#F7EFDC" points="2.7363 683.80872 3.0913 683.085986 2.8043 681.954116"></polygon>
                <path d="M2.9966,667.862861 L2.8986,671.090247 C2.9576,671.041441 2.9936,671.451614 3.0196,671.954206 C3.0316,669.965646 3.1016,667.787057 2.9966,667.862861" id="Fill-152" fill="#F7EFDC"></path>
                <path d="M3.0195,671.954206 C3.0125,672.990541 3.0195,673.975994 3.0785,674.551275 C3.0745,673.991571 3.0625,672.785974 3.0195,671.954206" id="Fill-154" fill="#F7EFDC"></path>
                <polygon id="Fill-156" fill="#F7EFDC" points="2.6294 679.39796 2.7034 678.44366 2.7304 676.164345"></polygon>
                <path d="M3.0654,633.172414 L2.9634,629.65012 C2.8414,629.291867 2.7674,630.25136 2.8154,631.562875 C2.9004,632.406066 2.9474,633.713427 3.0654,633.172414" id="Fill-158" fill="#F7EFDC"></path>
                <path d="M2.0933,643.823721 C2.1673,642.871497 2.2453,642.807115 2.3623,642.270256 L1.9233,642.163299 L2.0933,643.823721 Z" id="Fill-160" fill="#F7EFDC"></path>
                <path d="M1.9902,633.5532 C1.8682,633.202217 1.6392,628.441096 1.6672,632.905231 C1.7882,633.262445 1.8892,636.789931 1.9902,633.5532" id="Fill-162" fill="#F7EFDC"></path>
                <polygon id="Fill-164" fill="#F7EFDC" points="2.5469 580.48514 2.5529 581.380251 3.2749 581.251488"></polygon>
                <path d="M0.8203,533.71152 C0.6473,537.884899 1.2653,534.703203 1.0493,538.473678 C1.2203,539.45394 1.2263,535.391671 1.3733,536.395815 C1.1933,533.877666 1.2953,532.554728 0.8203,533.71152" id="Fill-166" fill="#F7EFDC"></path>
                <path d="M1.373,536.396231 C1.408,536.799135 1.444,537.225922 1.483,537.681785 C1.438,536.95282 1.403,536.609105 1.373,536.396231" id="Fill-168" fill="#F7EFDC"></path>
                <polygon id="Fill-170" fill="#F7EFDC" points="4.4702 8.43460768 4.6202 5.75031191 4.3782 7.48238361"></polygon>
                <g id="Group-174" transform="translate(3.000000, 0.779848)">
                    <mask id="mask-36" fill="white">
                        <use xlink:href="#path-35"></use>
                    </mask>
                    <g id="Clip-173"></g>
                    <path d="M0.9346,2.50174289 L1.3946,1.86934981 L0.9786,0.257733931 C0.9986,0.865205122 1.0386,2.04172625 0.9346,2.50174289" id="Fill-172" fill="#F7EFDC" mask="url(#mask-36)"></path>
                </g>
                <path d="M0.2568,370.011014 L0.3678,370.215581 C0.4868,369.800216 0.4958,369.171977 0.5148,367.913421 L0.2568,370.011014 Z" id="Fill-175" fill="#F7EFDC"></path>
                <polygon id="Fill-177" fill="#F7EFDC" points="0.6011 333.613313 0.5921 334.239476 1.0081 333.069185"></polygon>
                <path d="M0.0708,303.0653 C0.0528,304.312433 0.1458,305.776595 0.1288,307.029958 C0.0528,304.312433 0.5898,302.727816 0.0708,303.0653" id="Fill-179" fill="#F7EFDC"></path>
            </g>
        </g>
    </g>
</svg>