<?xml version="1.0" encoding="utf-8"?>
<!-- Generator: Adobe Illustrator 20.1.0, SVG Export Plug-In . SVG Version: 6.00 Build 0)  -->
<svg version="1.1" id="Warstwa_1" xmlns="http://www.w3.org/2000/svg" xmlns:xlink="http://www.w3.org/1999/xlink" x="0px" y="0px"
	 viewBox="0 0 337.4 97.7" style="enable-background:new 0 0 337.4 97.7;" xml:space="preserve">
<style type="text/css">
	.st0{fill:#001689;}
	.st1{fill:#E2000B;}
</style>
<g>
	<path class="st0" d="M298.2,57.4v-0.7l-5,0.2v25.5c0,0.8,0.2,1.5,0.7,2c0.4,0.5,1.1,0.7,1.8,0.7c0.8,0,1.4-0.3,1.8-0.7
		c0.4-0.5,0.7-1.1,0.7-2V65.2c0-1.5,0.3-2.7,0.8-3.8s1.3-1.9,2.2-2.4c1-0.6,2.1-0.9,3.5-0.9s2.5,0.3,3.5,0.9c1,0.6,1.7,1.4,2.2,2.4
		c0.5,1.1,0.8,2.3,0.8,3.8v17.1c0,0.8,0.2,1.5,0.7,2c0.4,0.5,1.1,0.7,1.8,0.7c0.8,0,1.4-0.3,1.8-0.7c0.4-0.5,0.7-1.1,0.7-2V65.2
		c0-1.5,0.3-2.7,0.8-3.8s1.3-1.9,2.2-2.4c1-0.6,2.1-0.9,3.5-0.9s2.5,0.3,3.5,0.9c1,0.6,1.7,1.4,2.2,2.4c0.5,1.1,0.8,2.3,0.8,3.8
		v17.1c0,0.8,0.2,1.5,0.7,2c0.4,0.5,1,0.7,1.8,0.7s1.4-0.3,1.8-0.7c0.4-0.5,0.7-1.1,0.7-2v-17c0-2.4-0.5-4.4-1.3-6.1
		c-0.9-1.7-2.1-3.1-3.7-4s-3.5-1.4-5.7-1.4c-1.3,0-2.5,0.2-3.6,0.5s-2,0.9-3,1.7c-0.9,0.8-1.8,1.8-2.7,3c-0.7-1.2-1.5-2.2-2.4-3
		c-0.3-0.3-0.7-0.6-1-0.8c-3.9,0.7-7.9,1.1-11.8,1.4c-0.3,0.3-0.5,0.6-0.8,0.9V57.4z"/>
	<path class="st0" d="M262.4,72.8c0,2.6,0.5,4.7,1.4,6.6c1,1.8,2.3,3.2,4.1,4.2c1.8,1,3.9,1.4,6.5,1.5c2.5,0,4.7-0.5,6.5-1.5
		s3.2-2.3,4.1-4.2c1-1.8,1.5-4,1.5-6.6c0-5.4,0.2-10.7,0-16.1l-5-0.4v16.3c0,2.7-0.6,4.7-1.8,6c-1.2,1.3-3,2-5.3,2s-4.1-0.7-5.3-2
		c-1.2-1.3-1.8-3.3-1.8-6V56.4c0-0.8-0.2-1.5-0.7-2c-0.4-0.5-1-0.7-1.8-0.7s-1.4,0.3-1.8,0.7c-0.4,0.5-0.7,1.1-0.7,2L262.4,72.8
		L262.4,72.8z"/>
	<path class="st0" d="M253.2,43.4c-0.6,0-1.1,0.1-1.5,0.4c-0.5,0.3-0.8,0.6-1.1,1.1s-0.4,1-0.4,1.6s0.1,1.1,0.4,1.6
		c0.3,0.5,0.6,0.8,1.1,1.1s1,0.4,1.5,0.4c0.6,0,1.1-0.1,1.6-0.4c0.5-0.3,0.8-0.6,1.1-1.1s0.4-1,0.4-1.6s-0.1-1.1-0.4-1.6
		c-0.3-0.5-0.6-0.8-1.1-1.1C254.3,43.6,253.8,43.4,253.2,43.4"/>
	<path class="st0" d="M255.7,56.4c0-0.8-0.2-1.5-0.7-2c-0.4-0.5-1.1-0.7-1.8-0.7c-0.8,0-1.4,0.3-1.8,0.7c-0.4,0.5-0.7,1.1-0.7,2
		v25.8c0,0.8,0.2,1.5,0.7,2c0.4,0.5,1,0.7,1.8,0.7s1.4-0.3,1.8-0.7c0.4-0.5,0.7-1.1,0.7-2V56.4z"/>
	<path class="st0" d="M237.6,59v-2.6c0-0.8-0.2-1.5-0.7-2c-0.4-0.5-1.1-0.7-1.8-0.7c-0.8,0-1.4,0.3-1.8,0.7c-0.4,0.5-0.7,1.1-0.7,2
		v25.8c0,0.8,0.2,1.5,0.7,2c0.4,0.5,1.1,0.7,1.8,0.7c0.8,0,1.4-0.3,1.8-0.7c0.4-0.5,0.7-1.1,0.7-2V67.8c0-2.4,0.6-4.3,1.7-5.8
		c1.1-1.5,2.8-2.4,5-2.9c1.1-0.2,1.9-0.5,2.4-1c0.5-0.4,0.8-1,0.8-1.8s-0.3-1.4-0.8-1.9s-1.2-0.7-2-0.7s-1.7,0.2-2.5,0.7
		c-0.8,0.4-1.6,1-2.4,1.8c-0.8,0.8-1.4,1.7-2,2.8C237.8,59,237.6,59,237.6,59z"/>
	<path class="st0" d="M213.9,53.8c-2,0-3.8,0.4-5.4,1.2c-1.6,0.8-3,1.9-4.2,3.3c-1.2,1.4-2.1,3.1-2.8,5c-0.7,1.9-1,4-1,6.3
		c0,2.2,0.3,4.3,1,6.2c0.7,1.9,1.6,3.5,2.8,4.9s2.6,2.5,4.2,3.2c1.6,0.8,3.4,1.2,5.4,1.2c1.9,0,3.7-0.4,5.4-1.2
		c1.6-0.8,3-1.8,4.2-3.2c1.2-1.4,2.1-3,2.8-4.9s1-4,1-6.3s-0.3-4.4-1-6.3c-0.7-1.9-1.6-3.5-2.8-4.9s-2.6-2.5-4.2-3.2
		C217.7,54.2,215.9,53.8,213.9,53.8 M213.9,58.1c1.7,0,3.2,0.5,4.4,1.4s2.2,2.2,2.9,3.9c0.7,1.7,1,3.7,1,5.9c0,2.3-0.4,4.3-1,5.9
		c-0.7,1.7-1.7,3-2.9,3.9c-1.3,0.9-2.7,1.4-4.4,1.4s-3.2-0.5-4.4-1.4c-1.3-0.9-2.2-2.2-2.9-3.9c-0.7-1.7-1-3.7-1-6s0.4-4.2,1-5.9
		c0.7-1.7,1.7-3,2.9-3.9C210.7,58.6,212.2,58.1,213.9,58.1z"/>
	<path class="st0" d="M188.9,54.1h-2.1c-0.8,0-1.4,0.2-1.8,0.6c-0.4,0.4-0.7,0.9-0.7,1.6c0,0.7,0.2,1.2,0.7,1.6
		c0.4,0.4,1,0.6,1.8,0.6h2.1v23.8c0,0.8,0.2,1.5,0.7,2c0.4,0.5,1.1,0.7,1.8,0.7c0.8,0,1.4-0.3,1.8-0.7c0.4-0.5,0.7-1.1,0.7-2V58.5
		h2.1c0.8,0,1.4-0.2,1.8-0.6c0.4-0.4,0.7-0.9,0.7-1.6c0-0.7-0.2-1.3-0.7-1.6c-0.4-0.4-1.1-0.6-1.8-0.6h-2.1v-6.6
		c0-0.8-0.2-1.5-0.7-2c-0.4-0.5-1.1-0.7-1.8-0.7c-0.8,0-1.4,0.3-1.8,0.7c-0.4,0.5-0.7,1.1-0.7,2V54.1z"/>
	<path class="st0" d="M175.9,57.9h-0.1c-0.9-1-1.8-1.8-2.7-2.4c-0.9-0.6-1.8-1-2.7-1.3s-1.9-0.4-3-0.4c-1.9,0-3.7,0.4-5.3,1.2
		s-3,1.8-4.2,3.2s-2.1,3-2.8,4.9c-0.7,1.9-1,4-1,6.3s0.3,4.3,1,6.2c0.7,1.9,1.6,3.5,2.8,4.9s2.6,2.5,4.2,3.3
		c1.6,0.8,3.4,1.2,5.3,1.2c1.2,0,2.3-0.2,3.2-0.5c1-0.3,1.9-0.8,2.8-1.5c0.8-0.7,1.7-1.5,2.5-2.6h0.1v2.1c0,0.7,0.2,1.3,0.7,1.8
		c0.4,0.5,1,0.7,1.7,0.7s1.3-0.2,1.7-0.7s0.7-1.1,0.7-1.8V56.3c0-0.7-0.2-1.3-0.7-1.8c-0.4-0.5-1-0.7-1.7-0.7s-1.2,0.2-1.7,0.7
		c-0.4,0.5-0.7,1.1-0.7,1.8v1.6H175.9z M167.5,58.1c1.7,0,3.2,0.5,4.4,1.4s2.2,2.2,2.9,3.9c0.7,1.7,1,3.7,1,5.9c0,2.3-0.4,4.3-1,5.9
		c-0.7,1.7-1.7,3-2.9,3.9c-1.3,0.9-2.7,1.4-4.4,1.4s-3.2-0.5-4.4-1.4c-1.3-0.9-2.2-2.2-2.9-3.9c-0.7-1.7-1-3.7-1-6s0.4-4.2,1-5.9
		c0.7-1.7,1.7-3,2.9-3.9C164.3,58.6,165.8,58.1,167.5,58.1z"/>
	<path class="st0" d="M148.7,43c0-0.8-0.2-1.5-0.7-2c-0.4-0.5-1.1-0.7-1.8-0.7c-0.8,0-1.4,0.3-1.8,0.7c-0.4,0.5-0.7,1.1-0.7,2v39.2
		c0,0.8,0.2,1.5,0.7,2c0.4,0.5,1,0.7,1.8,0.7s1.4-0.3,1.8-0.7c0.4-0.5,0.7-1.1,0.7-2V43z"/>
	<path class="st0" d="M112.8,72.8c0,2.6,0.5,4.7,1.4,6.6c1,1.8,2.3,3.2,4.1,4.2c1.8,1,3.9,1.4,6.5,1.5c2.5,0,4.7-0.5,6.5-1.5
		s3.2-2.3,4.1-4.2c1-1.8,1.4-4,1.5-6.6V56.4c0-0.8-0.2-1.5-0.7-2c-0.4-0.5-1-0.7-1.8-0.7s-1.4,0.3-1.8,0.7c-0.4,0.5-0.7,1.1-0.7,2
		v16.2c0,2.7-0.6,4.7-1.8,6s-3,2-5.3,2s-4.1-0.7-5.3-2c-1.2-1.3-1.8-3.3-1.8-6V56.4c0-0.8-0.2-1.5-0.7-2c-0.4-0.5-1.1-0.7-1.8-0.7
		c-0.8,0-1.4,0.3-1.8,0.7c-0.4,0.5-0.7,1.1-0.7,2v16.4H112.8z"/>
	<path class="st0" d="M86.2,80.7L86.2,80.7c0.9,1.5,2,2.5,3.3,3.2c1.3,0.7,2.9,1,4.8,1s3.7-0.4,5.3-1.2c1.6-0.8,3-1.8,4.2-3.2
		c1.2-1.4,2.1-3,2.7-4.9s1-4,1-6.3c0-2.2-0.3-4.3-1-6.2c-0.6-1.9-1.5-3.5-2.7-4.9s-2.5-2.5-4.1-3.3s-3.3-1.2-5.1-1.2
		c-1.7,0-3.2,0.3-4.6,1s-2.6,1.7-3.6,3.1h-0.1V43c0-0.8-0.2-1.5-0.7-2c-0.4-0.5-1.1-0.7-1.8-0.7c-0.8,0-1.4,0.3-1.8,0.7
		c-0.4,0.5-0.7,1.1-0.7,2v39.2c0,0.8,0.2,1.5,0.7,2c0.4,0.5,1.1,0.7,1.8,0.7c0.8,0,1.4-0.3,1.8-0.7c0.4-0.5,0.7-1.1,0.7-2v-1.5H86.2
		z M94,58.1c1.7,0,3.2,0.5,4.4,1.4c1.2,0.9,2.2,2.2,2.9,3.9c0.7,1.7,1,3.7,1,5.9c0,2.3-0.4,4.3-1,5.9c-0.7,1.7-1.7,3-2.9,3.9
		c-1.2,0.9-2.7,1.4-4.4,1.4c-1.7,0-3.2-0.5-4.5-1.4s-2.2-2.2-2.9-3.9c-0.7-1.7-1-3.7-1-6s0.4-4.2,1-5.9c0.7-1.7,1.7-3,2.9-3.9
		C90.9,58.6,92.4,58.1,94,58.1z"/>
	<path class="st0" d="M38.2,57.4v-0.9c0-0.8-0.2-1.5-0.7-2c-0.4-0.5-1.1-0.7-1.8-0.7c-0.8,0-1.4,0.3-1.8,0.7c-0.4,0.5-0.7,1.1-0.7,2
		v25.8c0,0.8,0.2,1.5,0.7,2c0.4,0.5,1.1,0.7,1.8,0.7c0.8,0,1.4-0.3,1.8-0.7c0.4-0.5,0.7-1.1,0.7-2V65.2c0-1.5,0.3-2.7,0.8-3.8
		s1.3-1.9,2.2-2.4c1-0.6,2.1-0.9,3.5-0.9s2.5,0.3,3.5,0.9c1,0.6,1.7,1.4,2.2,2.4c0.5,1.1,0.8,2.3,0.8,3.8v17.1c0,0.8,0.2,1.5,0.7,2
		c0.4,0.5,1.1,0.7,1.8,0.7c0.8,0,1.4-0.3,1.8-0.7c0.4-0.5,0.7-1.1,0.7-2V65.2c0-1.5,0.3-2.7,0.8-3.8s1.3-1.9,2.2-2.4
		c1-0.6,2.1-0.9,3.5-0.9c1.4,0,2.5,0.3,3.5,0.9c1,0.6,1.7,1.4,2.2,2.4c0.5,1.1,0.8,2.3,0.8,3.8v17.1c0,0.8,0.2,1.5,0.7,2
		c0.4,0.5,1.1,0.7,1.8,0.7c0.8,0,1.4-0.3,1.8-0.7c0.4-0.5,0.7-1.1,0.7-2v-17c0-2.4-0.5-4.4-1.3-6.1c-0.9-1.7-2.1-3.1-3.7-4
		s-3.5-1.4-5.7-1.4c-1.3,0-2.5,0.2-3.6,0.5C59,54.6,58,55.2,57,55.9c-0.9,0.8-1.8,1.8-2.7,3c-0.7-1.2-1.5-2.2-2.4-3
		c-0.8-0.8-1.8-1.3-2.8-1.7s-2.1-0.5-3.3-0.5c-1.1,0-2.1,0.1-3,0.4c-0.9,0.3-1.7,0.7-2.4,1.2c-0.7,0.6-1.5,1.3-2.2,2.2L38.2,57.4z"
		/>
	<path class="st0" d="M21.8,57.9h-0.1c-0.9-1-1.8-1.8-2.7-2.4c-0.9-0.6-1.8-1-2.7-1.3c-0.9-0.3-1.9-0.4-3-0.4
		c-1.9,0-3.7,0.4-5.3,1.2s-3,1.8-4.2,3.2s-2.1,3-2.8,4.9c-0.7,1.9-1,4-1,6.3s0.3,4.3,1,6.2c0.7,1.9,1.6,3.5,2.8,4.9
		C5,81.9,6.4,83,8,83.8c1.6,0.8,3.4,1.2,5.3,1.2c1.2,0,2.3-0.2,3.2-0.5c1-0.3,1.9-0.8,2.8-1.5c0.8-0.7,1.7-1.5,2.5-2.6h0.1v2.1
		c0,0.7,0.2,1.3,0.7,1.8c0.4,0.5,1,0.7,1.7,0.7s1.3-0.2,1.7-0.7c0.4-0.5,0.7-1.1,0.7-1.8V56.3c0-0.7-0.2-1.3-0.7-1.8
		c-0.4-0.5-1-0.7-1.7-0.7s-1.2,0.2-1.7,0.7c-0.4,0.5-0.7,1.1-0.7,1.8v1.6H21.8z M13.4,58.1c1.7,0,3.2,0.5,4.4,1.4
		c1.2,0.9,2.2,2.2,2.9,3.9c0.7,1.7,1,3.7,1,5.9c0,2.3-0.4,4.3-1,5.9c-0.7,1.7-1.7,3-2.9,3.9c-1.3,0.9-2.7,1.4-4.4,1.4
		S10.2,80,9,79.1c-1.3-0.9-2.2-2.2-2.9-3.9c-0.7-1.7-1-3.7-1-6s0.4-4.2,1-5.9c0.7-1.7,1.7-3,2.9-3.9C10.2,58.6,11.7,58.1,13.4,58.1z
		"/>
	<path class="st1" d="M285.9,41.2h-21.7c-1.2,0-2.2-1-2.2-2.2s1-2.2,2.2-2.2h21.7c1.2,0,2.2,1,2.2,2.2S287.1,41.2,285.9,41.2z"/>
	<path class="st1" d="M264,41c-1.2,0-2.2-1-2.2-2.2c0-4.6,10-14.4,18.4-21.8c2-1.8,4.2-4.5,3-7.5c-1.1-2.9-5-5-8.8-4.8
		c-2.3,0.1-6.5,1.1-8.3,7c-0.4,1.2-1.6,1.8-2.8,1.5c-1.2-0.4-1.8-1.6-1.5-2.8c1.9-6.1,6.5-9.9,12.4-10.2c5.7-0.2,11.2,3,13.1,7.6
		c1.7,4.1,0.1,8.7-4.2,12.5c-10.8,9.5-16.8,16.6-16.9,18.4C266.3,39.9,265.3,40.9,264,41L264,41z"/>
	<path class="st0" d="M317.8,31.3h-20.6c-1.4,0-2.5-1.1-2.5-2.5s1.1-2.5,2.5-2.5h20.6c1.4,0,2.5,1.1,2.5,2.5S319.1,31.3,317.8,31.3z
		"/>
	<path class="st0" d="M307.5,41.6c-1.4,0-2.5-1.1-2.5-2.5V18.6c0-1.4,1.1-2.5,2.5-2.5s2.5,1.1,2.5,2.5v20.6
		C310,40.5,308.8,41.6,307.5,41.6z"/>
	<path class="st0" d="M292.3,54.5c-9.9,0-19.8-1.3-29.5-3.8c-1.2-0.3-2-1.6-1.6-2.8c0.3-1.2,1.6-2,2.8-1.6c23,6,47.3,4.6,70.2-4.3
		c1.2-0.5,2.5,0.1,3,1.3s-0.1,2.5-1.3,3C321.6,51.8,306.9,54.5,292.3,54.5z"/>
	<path class="st1" d="M288.6,30.6c-0.3,0-0.7-0.1-1-0.2c-1.1-0.5-1.6-1.9-1-3C291.5,17.3,298,8.5,306,1.2c0.9-0.8,2.3-0.8,3.1,0.1
		c0.8,0.9,0.8,2.3-0.1,3.1c-7.5,6.9-13.7,15.3-18.4,24.9C290.2,30.1,289.4,30.6,288.6,30.6z"/>
</g>
</svg>
