<?xml version="1.0" encoding="utf-8"?>
<!-- Generator: Adobe Illustrator 20.1.0, SVG Export Plug-In . SVG Version: 6.00 Build 0)  -->
<svg version="1.1" id="Warstwa_1" xmlns="http://www.w3.org/2000/svg" xmlns:xlink="http://www.w3.org/1999/xlink" x="0px" y="0px"
	 viewBox="0 0 242.9 97.7" style="enable-background:new 0 0 242.9 97.7;" xml:space="preserve">
<style type="text/css">
	.st0{fill:#001689;}
	.st1{fill:#E2000B;}
</style>
<g>
	<path class="st0" d="M227.1,54.5c-1.5,0-2.8,0.2-4.1,0.7c-1.3,0.4-2.3,1-3.3,1.8c-0.9,0.8-1.6,1.7-2.2,2.7c-0.5,1-0.8,2.2-0.8,3.4
		c0,1.2,0.3,2.2,0.9,3.2c0.6,1,1.6,1.9,3,2.7c1.3,0.9,3.1,1.7,5.3,2.6c1.7,0.6,3.1,1.3,4.1,1.9c1,0.6,1.8,1.2,2.3,1.8
		c0.5,0.6,0.7,1.3,0.7,1.9c0,0.8-0.3,1.5-0.8,2.1c-0.5,0.6-1.2,1.1-2.1,1.5c-0.9,0.4-1.9,0.6-3,0.6c-0.8,0-1.6-0.1-2.3-0.2
		c-0.7-0.2-1.5-0.4-2.2-0.8s-1.5-0.8-2.3-1.4c-0.6-0.5-1.2-0.8-1.6-1c-0.4-0.2-0.8-0.3-1.1-0.3c-0.6,0-1.1,0.2-1.5,0.6
		c-0.4,0.4-0.6,0.9-0.6,1.6c0,0.8,0.3,1.5,1,2.2c0.6,0.7,1.5,1.3,2.6,1.9c1.1,0.6,2.3,1,3.6,1.3c1.4,0.3,2.8,0.5,4.2,0.5
		c2.2,0,4.1-0.4,5.8-1.2c1.7-0.8,3-1.8,3.9-3.2c0.9-1.4,1.4-2.9,1.4-4.7c0-1.3-0.3-2.5-1-3.6c-0.7-1.1-1.7-2-3.1-2.9
		c-1.4-0.9-3.3-1.7-5.5-2.5c-1.6-0.6-2.9-1.1-3.9-1.6c-1-0.5-1.7-1.1-2.1-1.6c-0.4-0.5-0.7-1.1-0.6-1.8c0-0.7,0.2-1.4,0.7-1.9
		c0.4-0.6,1.1-1,1.9-1.3c0.8-0.3,1.7-0.5,2.8-0.5c0.7,0,1.4,0.1,2,0.2c0.6,0.1,1.2,0.3,1.8,0.7c0.6,0.3,1.2,0.7,1.8,1.2
		c0.6,0.4,1,0.7,1.4,0.9c0.4,0.2,0.7,0.2,1.1,0.2c0.7,0,1.2-0.2,1.6-0.6c0.4-0.4,0.6-0.9,0.6-1.4c0-0.7-0.3-1.4-0.9-2
		c-0.6-0.7-1.3-1.2-2.3-1.7c-1-0.5-2.1-0.9-3.3-1.2C229.7,54.7,228.4,54.5,227.1,54.5"/>
	<path class="st0" d="M175.4,58.5L175.4,58.5c-1-1-1.9-1.8-2.8-2.4c-0.9-0.6-1.8-1-2.7-1.3c-0.9-0.3-1.9-0.4-3-0.4
		c-1.9,0-3.7,0.4-5.3,1.2c-1.6,0.8-3,1.8-4.2,3.2c-1.2,1.4-2.1,3-2.8,4.9c-0.7,1.9-1,4-1,6.3c0,2.3,0.3,4.3,1,6.2
		c0.7,1.9,1.6,3.5,2.8,4.9c1.2,1.4,2.6,2.5,4.2,3.3c1.6,0.8,3.4,1.2,5.3,1.2c1.2,0,2.3-0.2,3.2-0.5c1-0.3,1.9-0.8,2.8-1.5
		c0.8-0.7,1.7-1.5,2.5-2.6h0.1v2.1c0,0.7,0.2,1.3,0.7,1.8c0.4,0.5,1,0.7,1.7,0.7s1.3-0.2,1.7-0.7c0.4-0.5,0.7-1.1,0.7-1.8V56.9
		c0-0.2,0-0.3,0-0.4c-1.5-0.2-3-0.4-4.4-0.7c-0.1,0.3-0.2,0.7-0.2,1.1v1.6H175.4z M167,58.8c1.7,0,3.2,0.5,4.4,1.4
		c1.2,0.9,2.2,2.2,2.9,3.9c0.7,1.7,1,3.7,1,5.9c0,2.3-0.4,4.3-1,5.9c-0.7,1.7-1.7,3-2.9,3.9c-1.3,0.9-2.7,1.4-4.4,1.4
		s-3.2-0.5-4.4-1.4c-1.3-0.9-2.2-2.2-2.9-3.9c-0.7-1.7-1-3.7-1-6c0-2.3,0.4-4.2,1-5.9c0.7-1.7,1.7-3,2.9-3.9
		C163.9,59.2,165.3,58.8,167,58.8z"/>
	<path class="st0" d="M148.3,43.8c0-0.8-0.2-1.5-0.7-2c-0.4-0.5-1-0.7-1.8-0.7c-0.8,0-1.4,0.3-1.8,0.7c-0.4,0.5-0.7,1.1-0.7,2v39.1
		c0,0.8,0.2,1.5,0.7,2c0.4,0.5,1.1,0.7,1.8,0.7c0.8,0,1.4-0.3,1.8-0.7c0.4-0.5,0.7-1.1,0.7-2V43.8z"/>
	<path class="st0" d="M112.5,73.4c0,2.6,0.5,4.7,1.4,6.6c1,1.8,2.3,3.2,4.1,4.2c1.8,1,3.9,1.4,6.5,1.5c2.5,0,4.7-0.5,6.5-1.5
		c1.8-1,3.2-2.3,4.1-4.2c1-1.8,1.4-4,1.5-6.6V57.1c0-0.8-0.2-1.5-0.7-2c-0.4-0.5-1.1-0.7-1.8-0.7c-0.8,0-1.4,0.3-1.8,0.7
		c-0.4,0.5-0.7,1.1-0.7,2v16.2c0,2.7-0.6,4.7-1.8,6c-1.2,1.3-3,2-5.3,2c-2.3,0-4.1-0.7-5.3-2s-1.8-3.3-1.8-6V57.1
		c0-0.8-0.2-1.5-0.7-2c-0.4-0.5-1-0.7-1.8-0.7s-1.4,0.3-1.8,0.7c-0.4,0.5-0.7,1.1-0.7,2L112.5,73.4L112.5,73.4z"/>
	<path class="st0" d="M86,81.4L86,81.4c0.9,1.5,2,2.5,3.3,3.2c1.3,0.7,2.9,1,4.8,1c1.9,0,3.7-0.4,5.3-1.2c1.6-0.8,3-1.8,4.2-3.2
		s2.1-3,2.7-4.9c0.6-1.9,1-4,1-6.3c0-2.2-0.3-4.3-1-6.2c-0.6-1.9-1.5-3.5-2.7-4.9c-1.2-1.4-2.5-2.5-4.1-3.3
		c-1.6-0.8-3.3-1.2-5.1-1.2c-1.7,0-3.2,0.3-4.6,1.1c-1.4,0.7-2.6,1.7-3.6,3.1h-0.1V43.8c0-0.8-0.2-1.5-0.7-2
		c-0.4-0.5-1.1-0.7-1.8-0.7c-0.8,0-1.4,0.3-1.8,0.7c-0.4,0.5-0.7,1.1-0.7,2v39.1c0,0.8,0.2,1.5,0.7,2c0.4,0.5,1,0.7,1.8,0.7
		c0.8,0,1.4-0.3,1.8-0.7c0.4-0.5,0.7-1.1,0.7-2L86,81.4L86,81.4z M93.7,58.8c1.7,0,3.2,0.5,4.4,1.4c1.2,0.9,2.2,2.2,2.9,3.9
		c0.7,1.7,1,3.7,1,5.9c0,2.3-0.4,4.3-1,5.9c-0.7,1.7-1.7,3-2.9,3.9c-1.2,0.9-2.7,1.4-4.4,1.4c-1.7,0-3.2-0.5-4.5-1.4
		s-2.2-2.2-2.9-3.9c-0.7-1.7-1-3.7-1-6c0-2.3,0.4-4.2,1-5.9c0.7-1.7,1.7-3,2.9-3.9C90.7,59.2,92.1,58.8,93.7,58.8z"/>
	<path class="st0" d="M38.1,58v-0.9c0-0.8-0.2-1.5-0.7-2c-0.4-0.5-1.1-0.7-1.8-0.7c-0.8,0-1.4,0.3-1.8,0.7c-0.4,0.5-0.7,1.1-0.7,2
		v25.7c0,0.8,0.2,1.5,0.7,2c0.4,0.5,1.1,0.7,1.8,0.7c0.8,0,1.4-0.3,1.8-0.7c0.4-0.5,0.7-1.1,0.7-2v-17c0-1.5,0.3-2.7,0.8-3.8
		c0.5-1.1,1.3-1.9,2.2-2.4c1-0.6,2.1-0.9,3.5-0.9c1.4,0,2.5,0.3,3.5,0.9c1,0.6,1.7,1.4,2.2,2.4c0.5,1.1,0.8,2.3,0.8,3.8V83
		c0,0.8,0.2,1.5,0.7,2c0.4,0.5,1.1,0.7,1.8,0.7c0.8,0,1.4-0.3,1.8-0.7c0.4-0.5,0.7-1.1,0.7-2V65.9c0-1.5,0.3-2.7,0.8-3.8
		c0.5-1.1,1.3-1.9,2.2-2.4c1-0.6,2.1-0.9,3.5-0.9c1.4,0,2.5,0.3,3.5,0.9c1,0.6,1.7,1.4,2.2,2.4c0.5,1.1,0.8,2.3,0.8,3.8V83
		c0,0.8,0.2,1.5,0.7,2c0.4,0.5,1.1,0.7,1.8,0.7c0.8,0,1.4-0.3,1.8-0.7c0.4-0.5,0.7-1.1,0.7-2V66c0-2.4-0.5-4.4-1.3-6.1
		c-0.9-1.7-2.1-3.1-3.7-4c-1.6-0.9-3.5-1.4-5.7-1.4c-1.3,0-2.5,0.2-3.6,0.5c-0.9,0.3-1.9,0.8-2.9,1.6c-0.9,0.8-1.8,1.8-2.7,3
		c-0.7-1.2-1.5-2.2-2.4-3C51,55.9,50,55.4,49,55c-1-0.4-2.1-0.5-3.3-0.5c-1.1,0-2.1,0.1-3,0.4c-0.9,0.3-1.7,0.7-2.4,1.2
		c-0.7,0.6-1.5,1.3-2.2,2.2L38.1,58z"/>
	<path class="st0" d="M21.7,58.5L21.7,58.5c-1-1-1.9-1.8-2.8-2.4c-0.9-0.6-1.8-1-2.7-1.3c-0.9-0.3-1.9-0.4-3-0.4
		c-1.9,0-3.7,0.4-5.3,1.2c-1.6,0.8-3,1.8-4.2,3.2s-2.1,3-2.8,4.9c-0.7,1.9-1,4-1,6.3c0,2.3,0.3,4.3,1,6.2c0.7,1.9,1.6,3.5,2.8,4.9
		C5,82.6,6.4,83.7,8,84.4c1.6,0.8,3.4,1.2,5.3,1.2c1.2,0,2.3-0.2,3.2-0.5c1-0.3,1.9-0.8,2.8-1.5c0.8-0.7,1.7-1.5,2.5-2.6h0.1v2.1
		c0,0.7,0.2,1.3,0.7,1.8c0.4,0.5,1,0.7,1.7,0.7s1.3-0.2,1.7-0.7c0.4-0.5,0.7-1.1,0.7-1.8V56.9c0-0.7-0.2-1.3-0.7-1.8
		c-0.4-0.5-1-0.7-1.7-0.7s-1.2,0.2-1.7,0.7c-0.4,0.5-0.7,1.1-0.7,1.8L21.7,58.5L21.7,58.5z M13.4,58.8c1.7,0,3.2,0.5,4.4,1.4
		c1.2,0.9,2.2,2.2,2.9,3.9c0.7,1.7,1,3.7,1,5.9c0,2.3-0.4,4.3-1,5.9c-0.7,1.7-1.7,3-2.9,3.9c-1.3,0.9-2.7,1.4-4.4,1.4
		s-3.2-0.5-4.4-1.4c-1.3-0.9-2.2-2.2-2.9-3.9c-0.7-1.7-1-3.7-1-6c0-2.3,0.4-4.2,1-5.9c0.7-1.7,1.7-3,2.9-3.9S11.7,58.8,13.4,58.8z"
		/>
	<path class="st1" d="M191.6,40.9h-21.7c-1.2,0-2.2-1-2.2-2.2c0-1.2,1-2.2,2.2-2.2h21.7c1.2,0,2.2,1,2.2,2.2
		C193.8,39.9,192.8,40.9,191.6,40.9z"/>
	<path class="st1" d="M169.7,40.7c-1.2,0-2.2-1-2.2-2.2c0-4.6,10-14.4,18.3-21.7c2-1.8,4.2-4.5,3-7.5c-1.1-2.9-5-5-8.8-4.8
		c-2.3,0.1-6.5,1.1-8.3,7c-0.4,1.2-1.6,1.8-2.8,1.5c-1.2-0.4-1.8-1.6-1.5-2.8c2-6.2,6.6-10,12.5-10.2c5.7-0.2,11.2,3,13.1,7.6
		c1.7,4.1,0.1,8.7-4.2,12.5c-10.8,9.5-16.8,16.6-16.9,18.3C172,39.6,171,40.6,169.7,40.7L169.7,40.7z"/>
	<path class="st0" d="M223.4,31h-20.5c-1.4,0-2.5-1.1-2.5-2.5c0-1.4,1.1-2.5,2.5-2.5h20.5c1.4,0,2.5,1.1,2.5,2.5
		C225.9,29.9,224.7,31,223.4,31z"/>
	<path class="st0" d="M213.1,41.3c-1.4,0-2.5-1.1-2.5-2.5V18.4c0-1.4,1.1-2.5,2.5-2.5s2.5,1.1,2.5,2.5v20.5
		C215.6,40.2,214.4,41.3,213.1,41.3z"/>
	<path class="st0" d="M198,54.2c-9.9,0-19.7-1.3-29.4-3.8c-1.2-0.3-2-1.6-1.6-2.8c0.3-1.2,1.6-2,2.8-1.6c22.9,6,47.2,4.6,70-4.3
		c1.2-0.5,2.5,0.1,3,1.3c0.5,1.2-0.1,2.5-1.3,3C227.2,51.5,212.5,54.2,198,54.2z"/>
	<path class="st1" d="M194.3,30.3c-0.3,0-0.7-0.1-1-0.2c-1.1-0.5-1.6-1.9-1-3c4.9-10.1,11.4-18.9,19.3-26.1c0.9-0.8,2.3-0.8,3.1,0.1
		s0.8,2.3-0.1,3.1c-7.5,6.9-13.7,15.3-18.3,24.8C195.9,29.8,195.1,30.3,194.3,30.3z"/>
	<path class="st0" d="M191.7,58.3v-0.9c-1.7,0-3.3-0.1-5-0.2V83c0,0.8,0.2,1.5,0.7,2c0.4,0.5,1.1,0.7,1.8,0.7c0.8,0,1.4-0.3,1.8-0.7
		c0.4-0.5,0.7-1.1,0.7-2V66.3c0-1.5,0.3-2.8,0.9-3.9c0.6-1.1,1.4-2,2.5-2.6s2.3-0.9,3.7-1c1.4,0,2.7,0.3,3.7,1
		c1.1,0.6,1.9,1.5,2.5,2.6s0.9,2.4,0.9,3.9v16.6c0,0.8,0.2,1.5,0.7,2c0.4,0.5,1.1,0.7,1.8,0.7c0.8,0,1.4-0.3,1.8-0.7
		c0.4-0.5,0.7-1.1,0.7-2V66c0-2.3-0.5-4.4-1.3-6.1c-0.6-1.2-1.4-2.2-2.4-3.1c-4.7,0.6-9.5,0.8-14.3,0.6c-0.3,0.3-0.7,0.7-1,1.1
		L191.7,58.3z"/>
</g>
</svg>
