<?xml version="1.0" encoding="utf-8"?>
<!-- Generator: Adobe Illustrator 20.1.0, SVG Export Plug-In . SVG Version: 6.00 Build 0)  -->
<svg version="1.1" xmlns="http://www.w3.org/2000/svg" xmlns:xlink="http://www.w3.org/1999/xlink" x="0px" y="0px"
	 viewBox="0 0 36 51" style="enable-background:new 0 0 36 51;" xml:space="preserve">
<style type="text/css">
	.st0{fill:#E0201B;}
	.st1{fill:#FFFFFF;}
</style>
<g id="Inteligentny_obiekt_wektorowy_kopia_2_xA0_Obraz_1_">
</g>
<g id="Inteligentny_obiekt_wektorowy_xA0_Obraz_1_">
	<g>
		<path class="st0" d="M30.6,5.2c-7-7-18.3-7-25.2,0c-6.3,6.3-7,18.1-1.7,25.2L18,51l14.3-20.6C37.6,23.3,36.9,11.5,30.6,5.2z"/>
		<g>
			<path class="st1" d="M14.8,7.7l-0.9,3.8h8.5l-0.9-3.8H14.8z M19.1,10.1h-0.5v0.5c0,0.3-0.2,0.5-0.5,0.5s-0.5-0.2-0.5-0.5v-0.5
				h-0.5c-0.3,0-0.5-0.2-0.5-0.5c0-0.3,0.2-0.5,0.5-0.5h0.5V8.6c0-0.3,0.2-0.5,0.5-0.5s0.5,0.2,0.5,0.5v0.5h0.5
				c0.3,0,0.5,0.2,0.5,0.5C19.6,9.9,19.4,10.1,19.1,10.1z"/>
			<path class="st1" d="M27.7,23.6v-2c0-1.2-1-2.2-2.2-2.2H10.8c-1.2,0-2.2,1-2.2,2.2v2c0,1.2,1,2.2,2.2,2.2h14.7
				C26.7,25.8,27.7,24.8,27.7,23.6z M11.5,24.2c-0.9,0-1.6-0.7-1.6-1.6c0-0.9,0.7-1.6,1.6-1.6c0.9,0,1.6,0.7,1.6,1.6
				C13,23.5,12.3,24.2,11.5,24.2z M24.8,24.2c-0.9,0-1.6-0.7-1.6-1.6c0-0.9,0.7-1.6,1.6-1.6c0.9,0,1.6,0.7,1.6,1.6
				C26.4,23.5,25.7,24.2,24.8,24.2z"/>
			<path class="st1" d="M10.8,18.1h14.7c0.7,0,1.3,0.2,1.8,0.5l-0.8-6.2c0-0.4-0.4-0.7-0.8-0.7h-1.9l0.1,0.2c0,0.2,0,0.4-0.1,0.6
				c-0.1,0.2-0.3,0.3-0.5,0.3H13c-0.2,0-0.4-0.1-0.5-0.3c-0.1-0.2-0.2-0.4-0.1-0.6l0.1-0.2h-1.9c-0.4,0-0.8,0.3-0.8,0.7L9,18.7
				C9.5,18.3,10.1,18.1,10.8,18.1z"/>
			<path class="st1" d="M6.7,14.2c-0.5,0-0.8,0.4-0.8,0.8v3.7c0,0.5,0.4,0.8,0.8,0.8h0.8l0.7-5.4L6.7,14.2L6.7,14.2z"/>
			<path class="st1" d="M28.1,14.2l0.7,5.4h0.8c0.5,0,0.8-0.4,0.8-0.8V15c0-0.5-0.4-0.8-0.8-0.8L28.1,14.2L28.1,14.2z"/>
			<path class="st1" d="M27.9,26.2c-0.6,0.6-1.5,0.9-2.4,0.9h-3.1v0.6c0,1.2,1,2.1,2.2,2.1h1.2c1.2,0,2.2-0.9,2.2-2.1V26.2z"/>
			<path class="st1" d="M8.4,26.2v1.5c0,1.2,1,2.1,2.2,2.1h1.2c1.2,0,2.2-0.9,2.2-2.1v-0.6h-3.1C9.9,27.1,9,26.8,8.4,26.2z"/>
		</g>
	</g>
</g>
</svg>
