<?xml version="1.0" encoding="utf-8"?>
<!-- Generator: Adobe Illustrator 20.1.0, SVG Export Plug-In . SVG Version: 6.00 Build 0)  -->
<svg version="1.1" xmlns="http://www.w3.org/2000/svg" xmlns:xlink="http://www.w3.org/1999/xlink" x="0px" y="0px"
	 viewBox="0 0 34 40" style="enable-background:new 0 0 34 40;" xml:space="preserve">
<style type="text/css">
	.st0{enable-background:new    ;}
	.st1{fill-rule:evenodd;clip-rule:evenodd;fill:#2B3E60;}
</style>
<g id="Prostokąt_5_kopia_3_1_" class="st0">
	<path class="st1" d="M34,18c0-0.8-0.2-1.6-0.8-2.2l-14-14.9c-1.1-1.2-3.2-1.2-4.3,0l-14,14.9C0.2,16.4,0,17.2,0,18c0,0,0,0,0,0v19
		c0,1.7,1.3,3,3,3h28c1.7,0,3-1.3,3-3L34,18C34,18,34,18,34,18z M17,7.3L28,19v15H6V19L17,7.3z"/>
</g>
<g id="Prostokąt_zaokrąglony_4_1_" class="st0">
</g>
<g id="Prostokąt_zaokrąglony_4_kopia_1_" class="st0">
</g>
<g id="Prostokąt_zaokrąglony_5_1_" class="st0">
</g>
</svg>
