<?xml version="1.0" encoding="utf-8"?>
<!-- Generator: Adobe Illustrator 20.1.0, SVG Export Plug-In . SVG Version: 6.00 Build 0)  -->
<svg version="1.1" xmlns="http://www.w3.org/2000/svg" xmlns:xlink="http://www.w3.org/1999/xlink" x="0px" y="0px"
	 viewBox="0 0 36 51" style="enable-background:new 0 0 36 51;" xml:space="preserve">
<style type="text/css">
	.st0{fill:#E0201B;}
	.st1{fill:#FFFFFF;}
</style>
<g id="Inteligentny_obiekt_wektorowy_kopia_2_xA0_Obraz_1_">
</g>
<g id="Inteligentny_obiekt_wektorowy_xA0_Obraz_1_">
	<g>
		<path class="st0" d="M30.6,5.2c-7-7-18.3-7-25.2,0c-6.3,6.3-7,18.1-1.7,25.2L18,51l14.3-20.6C37.6,23.3,36.9,11.5,30.6,5.2z"/>
		<g>
			<g>
				<polygon class="st1" points="23.3,15.5 22.1,15.5 22.1,17 20.6,17 20.6,18.3 22.1,18.3 22.1,19.8 23.3,19.8 23.3,18.3 
					24.9,18.3 24.9,17 23.3,17 				"/>
				<path class="st1" d="M8.2,23.5c1.3,0,2.4,1.1,2.4,2.4c0,1.3-1.1,2.4-2.4,2.4c-1.3,0-2.4-1.1-2.4-2.4C5.8,24.5,6.9,23.5,8.2,23.5
					z"/>
				<path class="st1" d="M25.1,23.5c1.3,0,2.4,1.1,2.4,2.4c0,1.3-1.1,2.4-2.4,2.4c-1.3,0-2.4-1.1-2.4-2.4
					C22.7,24.5,23.8,23.5,25.1,23.5z"/>
				<path class="st1" d="M10.7,7.5c-0.1-0.1-0.3,0-0.4,0.1c-0.1,0.1,0,0.3,0.1,0.3l2.2,1c0,0,0.1,0,0.1,0c0.1,0,0.2-0.1,0.2-0.2
					c0.1-0.1,0-0.3-0.1-0.3L10.7,7.5z"/>
				<path class="st1" d="M14.4,8.1c0.1,0,0.1,0,0.2-0.1c0.1-0.1,0.1-0.3,0-0.4l-1.7-1.8c-0.1-0.1-0.3-0.1-0.4,0
					c-0.1,0.1-0.1,0.3,0,0.4L14.2,8C14.2,8,14.3,8.1,14.4,8.1z"/>
				<path class="st1" d="M17.4,5.8c-0.1-0.1-0.3-0.1-0.4,0l-1.7,1.8c-0.1,0.1-0.1,0.3,0,0.4c0.1,0,0.1,0.1,0.2,0.1
					c0.1,0,0.1,0,0.2-0.1l1.7-1.8C17.6,6.1,17.6,5.9,17.4,5.8z"/>
				<path class="st1" d="M16.7,9c0,0,0.1,0,0.1,0l2.2-1c0.1-0.1,0.2-0.2,0.1-0.3c-0.1-0.1-0.2-0.2-0.4-0.1l-2.2,1
					c-0.1,0.1-0.2,0.2-0.1,0.3C16.5,8.9,16.6,9,16.7,9z"/>
				<path class="st1" d="M28.8,10.2H16.4C16.2,9.5,15.5,9,14.7,9c-0.8,0-1.5,0.5-1.7,1.2c0,0-0.4,0-0.9,0c-0.5,0-0.9,0.7-0.9,1.5
					v1.5c0,0-0.5,0-1,0S8.5,14,7.7,14.9l-2.8,3.2c-0.8,0.9-1.4,2.5-1.4,3.7v1c0,1.2,0.4,2.1,1,2.1h1c0.4-1.2,1.5-2,2.8-2
					c1.3,0,2.4,0.8,2.8,2h0.2h1.4h9.8c0.4-1.2,1.5-2,2.8-2c1.3,0,2.4,0.8,2.8,2c0,0,0.7,0,1.5,0c0.8,0,1.5-0.9,1.5-2.1V12.3
					C30.9,11.2,30,10.2,28.8,10.2z M11.3,17.7c0,0.6-0.5,1.1-1.1,1.1H7.8c-0.6,0-0.7-0.3-0.3-0.8l1.7-1.7c0.4-0.4,1-0.8,1.4-0.8
					s0.7,0.5,0.7,1.1V17.7z M26.5,18.2L26.5,18.2l-3.7,3.6L19,18.2h0c-0.6-0.5-0.9-1.2-0.9-2c0-1.5,1.2-2.7,2.7-2.7
					c0.8,0,1.5,0.4,2,0.9c0.5-0.6,1.2-0.9,2-0.9c1.5,0,2.7,1.2,2.7,2.7C27.4,17,27,17.7,26.5,18.2z"/>
			</g>
		</g>
	</g>
</g>
</svg>
