<?xml version="1.0" encoding="utf-8"?>
<!-- Generator: Adobe Illustrator 20.1.0, SVG Export Plug-In . SVG Version: 6.00 Build 0)  -->
<svg version="1.1" id="Warstwa_1" xmlns="http://www.w3.org/2000/svg" xmlns:xlink="http://www.w3.org/1999/xlink" x="0px" y="0px"
	 viewBox="0 0 121.5 97.7" style="enable-background:new 0 0 121.5 97.7;" xml:space="preserve">
<style type="text/css">
	.st0{fill:#001689;}
	.st1{fill:#E2000B;}
</style>
<g>
	<path class="st0" d="M85.5,77.8c0-0.1,0.1-0.2,0.1-0.3c2.1-6.8,4.3-13.5,6.4-20.3c0.1-0.3,0.2-0.4,0.5-0.4c1.6-0.2,3.3-0.5,4.9-0.8
		c0.1,0,0.1,0,0.3,0c2.3,7.3,4.6,14.6,7,21.9h0.1c0.1-0.1,0.1-0.3,0.2-0.4c2.2-7,4.3-13.9,6.5-20.9c0.2-0.6,0.4-1.1,0.7-1.7
		c0.7-1.2,2.4-1.5,3.6-0.8c0.9,0.5,1.3,1.5,1,2.7c-0.4,1.5-0.9,2.9-1.4,4.4c-2.5,7.2-5,14.5-7.5,21.7c-0.2,0.5-0.4,1.1-0.7,1.6
		c-0.9,1.8-3.8,1.8-4.7,0c-0.3-0.6-0.6-1.2-0.8-1.9c-2.2-6.8-4.3-13.5-6.5-20.3c0-0.1-0.1-0.2-0.1-0.4H95c0,0.1-0.1,0.2-0.1,0.3
		c-2.2,6.9-4.4,13.7-6.6,20.6c-0.2,0.5-0.4,1.1-0.7,1.6c-0.9,1.8-3.8,1.8-4.7,0c-0.3-0.6-0.6-1.2-0.8-1.9
		c-2.8-8.1-5.6-16.3-8.4-24.4c0-0.2-0.1-0.3-0.1-0.5c0.1,0,0.1,0,0.2,0c1.6,0,3.2,0,4.8,0c0.3,0,0.5,0.1,0.6,0.4
		c2,6.4,4,12.9,6,19.3C85.2,77.5,85.3,77.7,85.5,77.8C85.4,77.8,85.4,77.8,85.5,77.8z"/>
	<path class="st0" d="M5.2,70.6c0,0.1,0,0.3,0,0.4c0,3.9,0,7.9,0,11.8c0,0.4,0,0.8-0.1,1.1c-0.3,1.2-1.2,1.9-2.5,1.8
		c-1.2,0-2.2-0.7-2.4-1.9C0,83.6,0,83.3,0,83c0-13.4,0-26.8,0-40.2c0-0.3,0-0.7,0.1-1c0.3-1.2,1.4-1.9,2.8-1.8
		c1.3,0.1,2.1,1,2.3,2.3c0,0.3,0,0.6,0,0.9c0,7.1,0,14.2,0,21.2c0,0.1,0,0.3,0,0.5c0.2-0.1,0.3-0.2,0.3-0.3
		c3.8-3.2,7.6-6.4,11.4-9.5c0.6-0.5,1.3-1,2.1-1.2c1.3-0.3,2.5,0.5,2.7,1.9c0.1,1-0.4,1.8-1.1,2.4c-1,0.8-2,1.6-3.1,2.4
		c-2.9,2.3-5.7,4.5-8.6,6.8c-0.1,0.1-0.2,0.2-0.3,0.3c0.1,0.1,0.3,0.1,0.3,0.2c4.4,4.3,8.8,8.7,13.2,13c0.3,0.3,0.6,0.7,0.9,1
		c0.5,0.6,0.6,1.3,0.5,2.1c-0.1,1-1,1.8-2,1.8c-0.8,0-1.6-0.2-2.2-0.7c-0.4-0.4-0.8-0.8-1.2-1.2c-4.3-4.3-8.5-8.7-12.6-13.1
		c-0.1-0.1-0.1-0.2-0.2-0.2C5.2,70.6,5.2,70.6,5.2,70.6z"/>
	<path class="st1" d="M52.2,36.4c0.2,0,0.4,0,0.5,0c5.9,0,11.9,0,17.8,0c0.5,0,1,0.1,1.4,0.4c0.8,0.5,1.1,1.5,0.9,2.3
		c-0.3,0.9-1,1.5-2,1.6c-0.1,0-0.3,0-0.4,0c-6.9,0-13.9,0-20.8,0c-1.8,0-3-1.4-2.6-3.2c0.2-1.2,0.8-2.3,1.5-3.4c1.4-2.1,3-4,4.7-5.9
		c3.7-4,7.7-7.8,11.8-11.4c0.9-0.8,1.7-1.6,2.4-2.6c0.5-0.8,0.9-1.6,1-2.6c0.2-1.3-0.2-2.5-0.9-3.5c-1.2-1.7-2.9-2.7-4.8-3.2
		c-2.7-0.8-5.3-0.6-7.7,1c-1.8,1.2-2.9,2.9-3.6,4.9c-0.1,0.2-0.1,0.4-0.2,0.6c-0.4,1.1-1.5,1.7-2.7,1.4c-1.1-0.3-1.8-1.5-1.5-2.6
		c1.3-4.3,3.7-7.6,8-9.3c5.1-2,11.5-0.6,15.2,3.4c3.2,3.4,3.6,7.9,1,12c-0.9,1.4-2,2.6-3.2,3.6c-4,3.6-8,7.2-11.6,11.2
		c-1.3,1.4-2.5,3-3.8,4.5C52.5,36,52.4,36.2,52.2,36.4z"/>
	<path class="st0" d="M49.2,71.8c0,1.1,0.1,2.2,0.4,3.2c1.1,3.6,3.9,5.9,7.6,6.3c3.5,0.3,6.6-0.5,9.3-2.7c0.5-0.4,1-0.7,1.5-1.1
		c1.4-1,2.8,0.1,2.9,1.4c0.1,0.7-0.1,1.3-0.5,1.9c-0.6,0.8-1.4,1.5-2.2,2c-3.2,2.1-6.7,3.1-10.5,3c-3.1-0.1-5.9-1-8.3-2.9
		c-2.2-1.8-3.7-4.2-4.5-7c-1.4-4.8-1.3-9.5,0.8-14c1.3-2.9,3.3-5.2,6.2-6.7c0.3-0.1,0.5-0.2,0.8-0.1c3.9,0.9,7.8,1.6,11.7,2
		c0.7,0.1,1.5,0.1,2.2,0.2c0.2,0,0.4,0.1,0.5,0.2c2.1,2.2,3.4,4.8,4.1,7.8c0.3,1.4,0.5,2.7,0.4,4.1c-0.1,1.6-0.8,2.3-2.4,2.4
		c-0.2,0-0.4,0-0.6,0c-6.3,0-12.6,0-18.9,0C49.6,71.8,49.4,71.8,49.2,71.8z M66.5,67.9c0-0.2,0-0.4,0-0.5c-0.1-1.3-0.3-2.5-0.8-3.7
		c-0.8-2.1-2.1-3.8-4.2-4.7c-1.5-0.7-3-0.8-4.6-0.7c-2.7,0.2-4.7,1.4-6.1,3.7c-0.8,1.4-1.2,2.8-1.5,4.4c-0.1,0.5-0.1,1-0.2,1.6
		C55,67.9,60.7,67.9,66.5,67.9z"/>
	<path class="st0" d="M77.1,54.1c-3.2-0.2-6.5-0.3-9.7-0.5c-6.6-0.5-13.1-1.7-19.4-3.3c-1.2-0.3-2-1.4-1.8-2.5
		c0.2-1.2,1.2-2.1,2.4-1.9c0.7,0.1,1.5,0.3,2.2,0.5c3.5,0.9,7,1.6,10.5,2c2.8,0.4,5.6,0.7,8.4,0.9c3.5,0.3,7.1,0.3,10.6,0.2
		c2.2-0.1,4.5-0.2,6.7-0.4c2.7-0.3,5.4-0.6,8.1-1c4.6-0.7,9.1-1.8,13.6-3.1c3.2-0.9,6.4-2,9.5-3.2c0.6-0.2,1.3-0.3,1.9-0.1
		c0.8,0.3,1.4,1.2,1.4,2.1c0,0.9-0.5,1.8-1.4,2.1c-1.4,0.5-2.8,1.1-4.3,1.6c-5.7,2-11.5,3.5-17.5,4.6c-3.2,0.6-6.5,1.1-9.7,1.4
		C84.7,53.9,80.9,54.1,77.1,54.1C77.1,54,77.1,54,77.1,54.1z"/>
	<path class="st0" d="M94.5,26.1c0.2,0,0.3,0,0.5,0c2.4,0,4.8,0,7.2,0c1.4,0,2.4,0.9,2.5,2.2c0.2,1.3-0.9,2.6-2.2,2.7
		c-0.6,0-1.2,0-1.7,0c-1.9,0-3.8,0-5.7,0c-0.2,0-0.3,0-0.5,0c0,0.2,0,0.3,0,0.4c0,2.4,0,4.8,0,7.3c0,1-0.5,1.8-1.5,2.3
		c-0.9,0.4-1.8,0.3-2.6-0.4c-0.6-0.5-0.8-1.1-0.8-1.9c0-2.4,0-4.8,0-7.1c0-0.5,0-0.5-0.5-0.5c-2.4,0-4.8,0-7.2,0
		c-1.4,0-2.5-1.1-2.5-2.5c0-1.3,1.1-2.4,2.5-2.4c2.4,0,4.8,0,7.2,0c0.3,0,0.4-0.1,0.4-0.4c0-2.4,0-4.9,0-7.3c0-1.1,0.5-1.8,1.5-2.2
		c1-0.4,1.8-0.2,2.6,0.5c0.5,0.5,0.8,1.1,0.8,1.9c0,2.4,0,4.8,0,7.1C94.5,25.7,94.5,25.9,94.5,26.1z"/>
	<path class="st0" d="M32.6,59.2c0.1-0.1,0.1-0.2,0.2-0.3c1-1.7,2.2-3.2,3.9-4.2c1-0.6,2.1-1,3.3-0.9c1.7,0.1,2.9,1.7,2.4,3.3
		c-0.2,0.7-0.6,1.2-1.2,1.4c-0.7,0.3-1.3,0.6-2,0.7c-3.6,0.7-6.1,3.3-6.6,6.9c-0.1,0.7-0.1,1.5-0.2,2.2c0,4.8,0,9.7,0,14.5
		c0,0.4,0,0.8-0.1,1.1c-0.3,1.2-1.3,1.9-2.6,1.8c-1.2,0-2.1-0.8-2.4-2c-0.1-0.3-0.1-0.5-0.1-0.8c0-8.8,0-17.6,0-26.5
		c0-0.3,0-0.7,0.1-1c0.3-1.3,1.3-1.9,2.8-1.8c1.2,0.1,2.1,0.9,2.2,2.1c0.1,0.9,0.1,1.8,0.1,2.7c0,0.2,0,0.3,0,0.5
		C32.5,59.1,32.6,59.1,32.6,59.2z"/>
	<path class="st1" d="M73.5,30.3c-1.8,0-2.8-1.7-2.1-3.1c0.8-1.5,1.5-3.1,2.4-4.6c4.4-8,10-15.1,16.7-21.3c1.3-1.2,3.2-0.7,3.6,0.9
		c0.3,0.9,0,1.7-0.7,2.3c-1.1,1.1-2.3,2.2-3.4,3.3c-6,6.2-10.8,13.3-14.6,21C75,29.7,74.4,30.2,73.5,30.3z"/>
</g>
</svg>
