<?xml version="1.0" encoding="utf-8"?>
<!-- Generator: Adobe Illustrator 20.1.0, SVG Export Plug-In . SVG Version: 6.00 Build 0)  -->
<svg version="1.1" id="Warstwa_1" xmlns="http://www.w3.org/2000/svg" xmlns:xlink="http://www.w3.org/1999/xlink" x="0px" y="0px"
	 viewBox="0 0 128.2 127.6" style="enable-background:new 0 0 128.2 127.6;" xml:space="preserve">
<style type="text/css">
	.st0{fill:#004996;}
	.st1{fill:#E2000B;}
</style>
<g>
	<path class="st0" d="M96.6,24v-8.1l0.2,0l0.2,0l0.2,0l0.2,0l0.2,0l0.2,0.1l0.2,0.1l0.2,0.1l0.2,0.1l0.2,0.1l0.2,0.1l0.2,0.1
		l0.2,0.1l0.2,0.1l0.1,0.1l0.1,0.1l0.1,0.1l0.1,0.1l0.1,0.2l0.1,0.2l0.1,0.2l0.1,0.2l0.1,0.2l0.1,0.2l0.1,0.2l0.1,0.2l0.1,0.2l0,0.2
		l0,0.2l0,0.2l0,0.2l0,0.2l0,0.2l0,0.2l0,0.2l0,0.2l0,0.2l-0.1,0.2l-0.1,0.2l-0.1,0.2l-0.1,0.2l-0.1,0.2L100,22l-0.1,0.2l-0.1,0.2
		l-0.1,0.2l-0.1,0.1l-0.1,0.1l-0.1,0.1L99.2,23L99,23.2l-0.2,0.1l-0.2,0.1l-0.2,0.1l-0.2,0.1l-0.2,0.1L98,23.7l-0.2,0.1l-0.2,0.1
		l-0.2,0l-0.2,0l-0.2,0l-0.2,0L96.6,24z M96.6,24H63.2v-8.1h33.3V24z M63.2,15.9V24L63,24l-0.2,0l-0.2,0l-0.2,0l-0.2,0L62,23.8
		l-0.2-0.1l-0.2-0.1l-0.2-0.1l-0.2-0.1l-0.2-0.1L61,23.3l-0.2-0.1L60.7,23l-0.1-0.1l-0.1-0.1l-0.1-0.1l-0.1-0.1L60,22.3l-0.1-0.2
		L59.8,22l-0.1-0.2l-0.1-0.2l-0.1-0.2l-0.1-0.2l-0.1-0.2l-0.1-0.2l0-0.2l0-0.2l0-0.2l0-0.2l0-0.2l0-0.2l0-0.2l0-0.2l0-0.2l0-0.2
		l0.1-0.2l0.1-0.2l0.1-0.2l0.1-0.2l0.1-0.2l0.1-0.2l0.1-0.2l0.1-0.2l0.1-0.2l0.1-0.1l0.1-0.1l0.1-0.1l0.1-0.1l0.2-0.1l0.2-0.1
		l0.2-0.1l0.2-0.1l0.2-0.1l0.2-0.1l0.2-0.1l0.2-0.1l0.2-0.1l0.2,0l0.2,0l0.2,0l0.2,0L63.2,15.9z"/>
	<path class="st0" d="M75.9,36.6h8.1l0,0.2l0,0.2l0,0.2l0,0.2l0,0.2l-0.1,0.2L83.7,38l-0.1,0.2l-0.1,0.2l-0.1,0.2l-0.1,0.2l-0.1,0.2
		L83.1,39L83,39.2l-0.1,0.1l-0.1,0.1l-0.1,0.1l-0.1,0.1l-0.2,0.1l-0.2,0.1L82,40.1l-0.2,0.1l-0.2,0.1l-0.2,0.1l-0.2,0.1l-0.2,0.1
		l-0.2,0.1l-0.2,0l-0.2,0l-0.2,0l-0.2,0l-0.2,0l-0.2,0l-0.2,0l-0.2,0l-0.2,0l-0.2,0l-0.2-0.1l-0.2-0.1l-0.2-0.1l-0.2-0.1L78,40.2
		l-0.2-0.1l-0.2-0.1l-0.2-0.1l-0.2-0.1l-0.1-0.1L77,39.5l-0.1-0.1l-0.1-0.1L76.7,39l-0.1-0.2l-0.1-0.2l-0.1-0.2l-0.1-0.2l-0.1-0.2
		L76.1,38L76,37.8L76,37.6l0-0.2l0-0.2l0-0.2l0-0.2L75.9,36.6z M75.9,36.6V3.2h8.1v33.3H75.9z M83.9,3.2h-8.1l0-0.2l0-0.2l0-0.2
		l0-0.2l0-0.2L76,2l0.1-0.2l0.1-0.2l0.1-0.2l0.1-0.2l0.1-0.2L76.5,1l0.1-0.2l0.1-0.2l0.1-0.1L77,0.4l0.1-0.1l0.1-0.1L77.5,0l0.2-0.1
		l0.2-0.1L78-0.3l0.2-0.1l0.2-0.1l0.2-0.1l0.2-0.1l0.2-0.1l0.2,0l0.2,0l0.2,0l0.2,0l0.2,0l0.2,0l0.2,0l0.2,0l0.2,0l0.2,0l0.2,0.1
		l0.2,0.1l0.2,0.1l0.2,0.1l0.2,0.1L82-0.2l0.2,0.1L82.3,0l0.2,0.1l0.1,0.1l0.1,0.1l0.1,0.1L83,0.7l0.1,0.2L83.3,1l0.1,0.2l0.1,0.2
		l0.1,0.2l0.1,0.2l0.1,0.2L83.8,2l0.1,0.2l0,0.2l0,0.2l0,0.2l0,0.2L83.9,3.2z"/>
	<path class="st1" d="M59.3,67.7c7.8,0,12.9,6.9,12.9,17.3c0,10.5-5.1,17.3-12.8,17.3c-7.9,0-12.9-6.8-12.9-17.4
		C46.5,74.6,51.6,67.7,59.3,67.7 M47.2,102.7h0.2c3,4.2,7.4,6.4,12.6,6.4C71.5,109.1,80,98.8,80,85c0-9.5-3.9-17.2-10.1-21.1
		c-6.7,0.5-13.3,0.7-20,0.5c-0.9,0.9-1.7,1.9-2.4,3.2h-0.2v-2.4c0-0.3,0-0.6-0.1-0.9c-2.5,0-5-0.2-7.5-0.4c-0.1,0.4-0.2,0.9-0.2,1.3
		v58.3c0,2.5,1.5,4.1,3.9,4.1c2.4,0,3.9-1.6,3.9-4.1V102.7z"/>
	<path class="st1" d="M99.1,61c-12.9,0-21.4,9.5-21.4,24.2c0,14.3,8.6,23.9,21.4,23.9c6.9,0,12.2-2.8,12.2-6.3c0-1.8-1.2-3.1-3-3.1
		c-0.8,0-1.4,0.2-2.8,0.9c-2.5,1.3-4.1,1.8-6.4,1.8c-8.1,0-13.6-7-13.6-17.3S90.9,67.7,99,67.7c2.2,0,3.5,0.4,6,1.5
		c1.6,0.8,2.4,1,3.2,1c1.8,0,3.3-1.5,3.3-3.3C111.5,63.5,106.2,61,99.1,61"/>
	<path class="st1" d="M20.6,66.6c7.8,0,12.9,6.9,12.9,17.3s-5.1,17.3-12.9,17.3c-7.8,0-12.9-6.8-12.9-17.4
		C7.7,73.5,12.8,66.6,20.6,66.6 M16.3,60.4C6.6,62.5,0,71.8,0,84.2C0,97.9,8.7,108,20.6,108c12,0,20.6-10.1,20.6-24.1
		c0-9.5-4-17.2-10.3-21.1C26,62.2,21.1,61.4,16.3,60.4z"/>
	<path class="st0" d="M9.3,47.3l-1.9,7.2l-0.2-0.1l-0.2-0.1l-0.2-0.1l-0.2-0.1l-0.2-0.1l-0.2-0.1L6.3,54l-0.1-0.1L6,53.7l-0.1-0.1
		l-0.1-0.1l-0.1-0.1l-0.1-0.1l-0.1-0.1l-0.1-0.1l-0.1-0.2l-0.1-0.2L5,52.5l-0.1-0.2l-0.1-0.2L4.8,52l0-0.2l0-0.2l0-0.2l0-0.2l0-0.2
		l0-0.2l0-0.2l0-0.2l0-0.2l0-0.2l0-0.2l0.1-0.2l0.1-0.2L5,49.4l0.1-0.2l0.1-0.2L5.2,49l0.1-0.2l0.1-0.1l0.1-0.1l0.1-0.1l0.1-0.1
		l0.1-0.1L6.1,48l0.1-0.1l0.1-0.1l0.2-0.1l0.2-0.1l0.2-0.1L7,47.5l0.2-0.1l0.2-0.1l0.2,0l0.2,0l0.2,0l0.2,0l0.2,0l0.2,0l0.2,0l0.2,0
		l0.2,0l0.2,0L9.3,47.3z M7.4,54.5l1.9-7.2l3.5,0.9l3.5,0.8l3.5,0.7l3.5,0.7l3.5,0.6l3.5,0.5l3.5,0.5l3.5,0.4l3.6,0.3l3.6,0.2
		l3.6,0.2l3.6,0.1l3.6,0l3.6,0l3.6-0.1L66,53l3.6-0.2l3.6-0.3l3.6-0.4l3.6-0.5L84,51l3.6-0.6l3.6-0.7l3.6-0.8l3.6-0.8l3.6-0.9l3.6-1
		l3.6-1l3.6-1.1l3.6-1.2l3.5-1.3l3.5-1.3l2.6,6.9l-3.7,1.4l-3.7,1.3l-3.7,1.2l-3.7,1.1l-3.7,1.1l-3.7,1l-3.7,0.9l-3.7,0.9L92.6,57
		l-3.7,0.7l-3.7,0.6l-3.7,0.5l-3.7,0.5l-3.7,0.4l-3.7,0.3l-3.7,0.3l-3.7,0.2L59,60.7l-3.7,0l-3.7,0l-3.7-0.1l-3.7-0.2l-3.7-0.3
		l-3.7-0.3l-3.7-0.4l-3.7-0.5l-3.7-0.5L22,57.7L18.4,57l-3.7-0.8l-3.6-0.8L7.4,54.5z M125.8,47.4l-2.6-6.9l0.2-0.1l0.2-0.1l0.2,0
		l0.2,0l0.2,0l0.2,0l0.2,0l0.2,0l0.2,0l0.2,0l0.2,0l0.2,0l0.2,0l0.2,0.1l0.2,0.1l0.2,0.1l0.2,0.1l0.2,0.1l0.2,0.1l0.1,0.1l0.1,0.1
		l0.1,0.1l0.1,0.1l0.1,0.1l0.1,0.1l0.1,0.1l0.1,0.1l0.1,0.2l0.1,0.2l0.1,0.2l0.1,0.2l0.1,0.2l0.1,0.2l0.1,0.2l0,0.2l0,0.2l0,0.2
		l0,0.2l0,0.2l0,0.2l0,0.2l0,0.2l0,0.2l0,0.2l0,0.2l-0.1,0.2l-0.1,0.2l-0.1,0.2l-0.1,0.2l-0.1,0.2l-0.1,0.2l-0.1,0.1l-0.1,0.1
		l-0.1,0.1l-0.1,0.1l-0.1,0.1l-0.1,0.1l-0.1,0.1l-0.1,0.1l-0.2,0.1l-0.2,0.1l-0.2,0.1l-0.2,0.1L125.8,47.4z"/>
</g>
</svg>
