<?xml version="1.0" encoding="utf-8"?>
<!-- Generator: Adobe Illustrator 20.1.0, SVG Export Plug-In . SVG Version: 6.00 Build 0)  -->
<svg version="1.1" xmlns="http://www.w3.org/2000/svg" xmlns:xlink="http://www.w3.org/1999/xlink" x="0px" y="0px"
	 viewBox="0 0 36 51" style="enable-background:new 0 0 36 51;" xml:space="preserve">
<style type="text/css">
	.st0{fill:#004796;}
	.st1{fill:#FFFFFF;}
</style>
<g id="Inteligentny_obiekt_wektorowy_kopia_2_xA0_Obraz_1_">
</g>
<g id="Inteligentny_obiekt_wektorowy_xA0_Obraz_1_">
	<g>
		<path class="st0" d="M30.6,5.2c-7-7-18.3-7-25.2,0c-6.3,6.3-7,18.1-1.7,25.2L18,51l14.3-20.6C37.6,23.3,36.9,11.5,30.6,5.2z"/>
		<g>
			<path class="st1" d="M12.4,26.4h11.1v-8c0-2.8-2.3-5.2-5.1-5.2h-0.9c-2.8,0-5.1,2.3-5.1,5.2V26.4z"/>
			<path class="st1" d="M24.1,27.4h-0.6H12.4h-0.6c-0.3,0-0.5,0.2-0.5,0.5v1.8c0,0.3,0.2,0.5,0.5,0.5h12.4c0.3,0,0.5-0.2,0.5-0.5
				v-1.8C24.6,27.6,24.4,27.4,24.1,27.4z"/>
			<path class="st1" d="M8.4,13.3l2.8,1.9c0.1,0.1,0.2,0.1,0.3,0.1c0.2,0,0.3-0.1,0.4-0.2l0.5-0.8c0.2-0.2,0.1-0.5-0.1-0.7l-2.8-1.9
				c-0.1-0.1-0.2-0.1-0.3-0.1c-0.2,0-0.3,0.1-0.4,0.2l-0.5,0.8C8.1,12.8,8.1,13.1,8.4,13.3z"/>
			<path class="st1" d="M24.1,15.1c0.1,0.1,0.2,0.2,0.4,0.2c0.1,0,0.2,0,0.3-0.1l2.9-1.9c0.2-0.1,0.3-0.5,0.1-0.7l-0.5-0.8
				c-0.1-0.1-0.2-0.2-0.4-0.2c-0.1,0-0.2,0-0.3,0.1l-2.9,1.9c-0.2,0.1-0.3,0.5-0.1,0.7L24.1,15.1z"/>
			<path class="st1" d="M17.2,11.8c0.1,0.1,0.2,0.1,0.3,0.1h0.9c0.1,0,0.2,0,0.3-0.1c0.1-0.1,0.2-0.2,0.2-0.4V8
				c0-0.3-0.2-0.5-0.5-0.5h-0.9C17.2,7.5,17,7.7,17,8l0,0v3.4l0,0C17,11.6,17.1,11.7,17.2,11.8z"/>
		</g>
	</g>
</g>
</svg>
