<?xml version="1.0" encoding="utf-8"?>
<!-- Generator: Adobe Illustrator 20.1.0, SVG Export Plug-In . SVG Version: 6.00 Build 0)  -->
<svg version="1.1" id="Warstwa_1" xmlns="http://www.w3.org/2000/svg" xmlns:xlink="http://www.w3.org/1999/xlink" x="0px" y="0px"
	 viewBox="0 0 359.2 97.7" style="enable-background:new 0 0 359.2 97.7;" xml:space="preserve">
<style type="text/css">
	.st0{fill:#001689;}
	.st1{fill:#E2000B;}
</style>
<g>
	<path class="st0" d="M216.5,58.5c6.1-5.4,10.9-5,16.1,1.4c0.4-0.5,0.8-0.9,1.1-1.3c4.3-5.6,13.2-4.4,16.4,0.2
		c1.6,2.3,2.2,4.9,2.2,7.6c0,5.6,0,11.1,0,16.7c0,1.1-0.3,2.2-1.5,2.6c-1.8,0.7-3.4-0.5-3.4-2.5c0-5.4,0-10.9,0-16.3
		c0-0.9,0-1.8-0.2-2.6c-0.6-3.4-3.3-5.4-6.7-5.1c-3.5,0.2-6,2.6-6,6.1c-0.1,5.8-0.1,11.7-0.1,17.5c0,1.2-0.1,2.3-1.3,2.9
		c-1.7,0.9-3.5-0.2-3.6-2.1c-0.1-1.4,0-2.7,0-4.1c0-4.5,0-9,0-13.6c0-2.6-0.9-4.9-3.5-6.1c-4.6-2.1-9.3,0.7-9.5,5.8
		c-0.1,5.7,0,11.4-0.1,17c0,0.6,0,1.2-0.2,1.8c-0.3,1-1.2,1.5-2.2,1.5s-1.9-0.4-2.2-1.5c-0.2-0.5-0.2-1.1-0.2-1.6
		c0-8.3,0-16.6,0-24.8c0-1.8,0.7-2.8,2-2.9c1.6-0.2,2.6,0.5,2.9,2.1C216.5,57.4,216.5,57.9,216.5,58.5z"/>
	<path class="st0" d="M11.6,77.9c0.6-1.8,1.2-3.7,1.8-5.5c1.5-4.8,3-9.5,4.5-14.3c0.2-0.6,0.4-1.1,0.6-1.7c0.4-1,1.1-1.5,2.2-1.5
		c1.2,0,1.9,0.5,2.3,1.6c1.1,3.3,2.2,6.7,3.3,10c1.1,3.5,2.3,7.1,3.4,10.6c0.1,0.3,0.2,0.6,0.5,1.2c0.7-2.3,1.4-4.3,2-6.3
		c1.5-4.8,3-9.5,4.5-14.3c0.1-0.3,0.2-0.7,0.4-1c0.6-1.5,1.9-2.1,3.3-1.6c1.2,0.4,1.8,1.5,1.3,3.1c-1.2,3.7-2.5,7.4-3.7,11.1
		c-1.6,4.6-3.2,9.3-4.8,13.9c-0.3,0.9-0.9,1.8-1.6,2.3c-1.4,1-3.2,0.2-3.9-1.8c-0.8-2.1-1.4-4.3-2.1-6.5c-1.4-4.4-2.8-8.8-4.2-13.2
		c-0.1-0.3-0.2-0.6-0.5-1.3c-0.9,2.8-1.7,5.3-2.5,7.8c-1.3,4.1-2.6,8.2-3.9,12.3c-0.5,1.5-1,2.9-2.9,3.1c-1.4,0.1-2.2-0.7-3-2.9
		c-2.7-8-5.4-15.9-8.2-23.9c-0.1-0.4-0.2-0.8-0.3-1.2c-0.3-1.4,0.2-2.4,1.2-2.8c1.3-0.5,2.6-0.1,3.1,1.2c0.7,1.8,1.3,3.6,1.9,5.4
		c1.6,5.1,3.2,10.3,4.8,15.5c0.1,0.2,0.2,0.4,0.3,0.7C11.4,77.9,11.5,77.9,11.6,77.9z"/>
	<path class="st0" d="M169,81.8c-3.6,6-14,4.9-18.3-1.4c-4-5.9-3.8-15.5,0.7-21.1c3.7-4.6,10.1-5.9,14.7-3c1,0.6,1.8,1.5,2.8,2.4
		c0-0.4,0.1-0.9,0.1-1.3c0-4.3,0-8.6,0-13c0-0.5,0-1,0.2-1.5c0.3-1.1,1.1-1.5,2.1-1.6c1.1,0,2,0.4,2.3,1.5c0.2,0.6,0.3,1.3,0.3,2
		c0,12.4,0,24.8,0,37.2c0,0.5,0,1-0.1,1.4c-0.2,1.5-1.2,2.2-2.5,2.2c-1.3-0.1-2.2-1-2.3-2.4C169,82.9,169,82.3,169,81.8z
		 M152.8,70.5c-0.1,2.2,0.3,4.6,1.5,6.8c1.4,2.7,3.7,4.2,6.7,4.2s5.4-1.4,6.7-4.1c0.8-1.6,1.3-3.4,1.6-5.1c0.5-3.5,0.1-6.9-1.9-9.9
		c-3.1-4.7-9.6-4.6-12.7,0.1C153.3,64.9,152.8,67.5,152.8,70.5z"/>
	<path class="st0" d="M286.1,56.2c1.8,0.4,3.3,0.7,4.8,1.1c0.3,0.1,0.6,0.7,0.7,1.1c2,6.2,3.9,12.4,5.8,18.6
		c0.1,0.3,0.3,0.6,0.5,1.2c0.3-0.8,0.5-1.3,0.7-1.9c1.7-5.3,3.4-10.6,5.1-16c0.3-1,0.7-1.3,1.8-1.1c1.3,0.2,2.7,0.3,4.1,0.3
		c0.8,0,1.2,0.3,1.5,1.1c1.7,5.4,3.4,10.8,5.1,16.2c0.1,0.4,0.3,0.7,0.5,1.4c0.2-0.6,0.4-0.9,0.5-1.3c1.7-5.6,3.5-11.1,5.2-16.7
		c0.2-0.7,0.6-1,1.3-1.1c1.4-0.1,2.8-0.2,4.4-0.4c-0.8,2.3-1.5,4.4-2.3,6.6c-2,5.7-3.9,11.4-5.9,17.1c-0.2,0.5-0.3,0.9-0.5,1.3
		c-0.5,1.2-1.3,2.1-2.7,2c-1.4,0-2.2-0.9-2.6-2.1c-1.3-3.8-2.5-7.7-3.7-11.5c-1-3.1-2-6.2-3.1-9.6c-0.3,0.7-0.4,1.1-0.6,1.6
		c-2,6.3-4,12.6-6,18.9c-0.4,1.3-1,2.6-2.7,2.7c-1.4,0.2-2.4-0.6-3.1-2.5c-1.1-3.2-2.2-6.4-3.3-9.6c-1.6-4.6-3.2-9.3-4.7-13.9
		C286.6,58.7,286.4,57.5,286.1,56.2z"/>
	<path class="st1" d="M288.9,36.8c0.8,0,1.3,0,1.8,0c5.4,0,10.8,0,16.2,0c0.5,0,1,0,1.4,0.1c1.1,0.3,1.6,1,1.5,2.1s-0.7,1.7-1.8,1.9
		c-0.3,0.1-0.6,0-1,0c-6.8,0-13.5-0.1-20.3,0c-2.7,0-3.7-1.9-2.8-3.9c0.9-2,2.1-3.9,3.4-5.6c4.1-5.1,9-9.5,13.8-13.9
		c1.2-1.1,2.4-2.3,3.3-3.7c1.5-2.3,1.1-4.6-0.8-6.6c-3.7-3.9-12.2-4.7-15.4,2.8c-0.2,0.5-0.4,1-0.6,1.5c-0.5,1.2-1.5,1.7-2.6,1.3
		c-1.2-0.4-1.8-1.4-1.5-2.6c1.6-5.5,5.7-9.6,11.6-10.1c4-0.3,7.7,0.8,10.8,3.5c4,3.5,4.8,8.7,1.7,13c-1.3,1.9-3.1,3.4-4.8,5
		c-4.6,4.3-9.4,8.6-13.3,13.7C289.6,35.8,289.4,36.1,288.9,36.8z"/>
	<path class="st0" d="M335,72.2c-0.4,5.9,4.5,10.1,10.5,9.3c2.2-0.3,4.1-1.1,5.9-2.4c0.5-0.4,1.1-0.8,1.7-1.2
		c0.7-0.5,1.4-0.7,2.1-0.1s1.1,1.5,0.6,2.4c-0.3,0.6-0.7,1.3-1.2,1.7c-3.9,3.6-12.2,5.5-17.8,2.1c-2.2-1.3-4-3.1-5-5.5
		c-2.6-6-2.4-11.9,0.8-17.6c0.3-0.5,0.6-0.9,1-1.4c1-1.3,2.1-2.1,3.8-2.4c2.6-0.4,5-1.2,7.6-1.7c0.8-0.2,1.8-0.2,2.5,0.1
		c6.7,2.4,9.4,9.3,8.9,14.9c-0.1,1.1-0.8,1.6-1.8,1.7c-0.4,0.1-0.9,0-1.3,0c-5.6,0-11.3,0-16.9,0C335.9,72.2,335.4,72.2,335,72.2z
		 M351.5,68.4c0-5.1-2.7-9.5-8.5-9.4c-4.9,0-8.4,4.1-8,9.4C340.5,68.4,346,68.4,351.5,68.4z"/>
	<path class="st0" d="M179.6,70.3c0.1-4.2,1-8,3.8-11.2c5.7-6.5,15.9-5.6,20.3,2c3.6,6.2,3.5,12.7-0.2,18.8
		c-5.2,8.4-17.2,7.8-21.9-0.9C180.2,76.2,179.6,73.3,179.6,70.3z M184.5,70.4c-0.1,2.3,0.3,4.7,1.5,6.9c2.9,5.4,10.2,5.7,13.3,0.4
		c2.8-4.8,2.8-10,0-14.9c-2.9-5.2-9.8-5.2-13-0.1C184.9,65,184.5,67.6,184.5,70.4z"/>
	<path class="st0" d="M271.2,54.8c5,0.1,8.8,2.4,11.2,6.9c2.8,5.3,2.9,10.9,0.4,16.3c-2.2,5-6.2,7.8-11.8,7.8
		c-5.7-0.1-9.7-3-11.8-8.3c-2.3-5.7-2-11.4,1.2-16.7C262.8,56.9,266.5,54.9,271.2,54.8z M262.8,70.3c-0.1,0-0.2,0-0.3,0.1
		c0.4,2,0.7,4,1.3,5.9c1.2,3.2,3.6,5.2,7.1,5.3c3.5,0.1,5.9-1.7,7.3-4.9c1.8-4.2,1.8-8.6,0-12.8c-1.3-3.1-3.7-4.8-7.1-4.8
		c-3.3,0-5.6,1.8-7.1,4.7C263.1,65.8,262.7,68,262.8,70.3z"/>
	<path class="st0" d="M312.6,54.4c-9.4-0.2-18.6-1.4-27.7-3.8c-1-0.3-1.8-0.8-1.9-1.9c-0.2-1.7,1-2.8,2.9-2.5
		c1.6,0.3,3.1,0.8,4.7,1.1c11.9,2.5,23.9,3.2,36,1.8c9.9-1.1,19.4-3.4,28.7-6.9c0.2-0.1,0.4-0.2,0.7-0.3c1.4-0.4,2.6,0.1,3.1,1.3
		c0.4,1.2-0.1,2.4-1.5,2.9c-6.3,2.4-12.8,4.3-19.4,5.7C329.6,53.7,321.2,54.6,312.6,54.4z"/>
	<path class="st0" d="M91.9,77.3c1.2-3.7,2.4-7.4,3.6-11.1c1-3,1.9-6,2.9-9c0.6-1.8,1.5-2.5,2.9-2.3c1.2,0.2,1.9,1,1.8,2.1
		s-0.4,2.1-0.8,3.1c-3.9,11.7-8,23.4-12.1,35.1c-0.4,1.2-0.9,2.3-2.5,2.5c-1.7,0.1-2.8-1.1-2.3-2.8c0.8-2.5,1.6-5,2.7-7.3
		c1-2.2,1-4.1,0.1-6.4c-2.7-7.3-5.1-14.6-7.7-21.9c-0.2-0.5-0.3-1.1-0.4-1.6c-0.3-1.2,0.2-2.2,1.1-2.6c1-0.5,2.3-0.1,3,0.8
		c0.3,0.5,0.5,1.1,0.7,1.6c2.1,6.2,4.1,12.4,6.2,18.6c0.1,0.4,0.3,0.8,0.4,1.2C91.7,77.3,91.8,77.3,91.9,77.3z"/>
	<path class="st0" d="M133.3,77.7c0.8-2.4,1.5-4.5,2.2-6.5c1.5-4.6,3-9.3,4.5-13.9c0.1-0.4,0.3-0.8,0.4-1.1c0.6-1.2,1.8-1.6,2.9-1.2
		c1.1,0.4,1.6,1.4,1.3,2.6c-0.8,2.6-1.7,5.2-2.6,7.9c-3.5,9.9-6.9,19.8-10.4,29.7c-0.2,0.4-0.3,0.9-0.6,1.3c-0.7,1.1-1.9,1.4-3,0.9
		c-1-0.5-1.5-1.5-1.1-2.7c1.1-3.1,2.3-6.2,3.4-9.3c0.2-0.6,0.2-1.4,0-2c-2.7-7.8-5.4-15.5-8.1-23.3c-0.3-0.8-0.5-1.6-0.7-2.4
		c-0.3-1.2,0.2-2.2,1.2-2.6c1-0.5,2.4-0.1,3,0.9c0.4,0.7,0.7,1.5,1,2.3c2,6,4,12,6,18.1C132.8,76.7,133,77,133.3,77.7z"/>
	<path class="st0" d="M61.4,81.2c2.1,0,3.9,0,5.6,0c2.5,0,5,0,7.4,0c0.6,0,1.1,0,1.7,0.1c1.1,0.2,1.6,1,1.6,2.1c0,1-0.7,1.8-1.8,1.9
		c-0.4,0.1-0.8,0-1.2,0c-5.7,0-11.4,0-17.2,0c-1,0-2,0.1-2.5-0.9c-0.6-1,0-2,0.5-2.8c4-6,8-12,12-18c0.9-1.3,1.8-2.7,2.8-4.3
		c-0.7,0-1.1,0-1.6,0c-3.5,0-7,0-10.4,0c-0.6,0-1.3-0.1-1.9-0.3c-1-0.4-1.2-1.3-1-2.3c0.2-1.1,1-1.5,2-1.6c1.6-0.1,3.1,0,4.7,0
		c4.1,0,8.2,0,12.2,0c2.7,0,3.5,1.4,2,3.7c-2,3.1-4.1,6.1-6.2,9.1c-2.7,4-5.4,7.9-8.1,11.9C61.9,80.2,61.7,80.6,61.4,81.2z"/>
	<path class="st0" d="M109.3,59.5c-1-0.1-1.8,0-2.7-0.2c-1.2-0.2-1.9-1-1.9-2.1s0.8-1.9,2.1-2c0.7-0.1,1.5,0,2.5,0
		c0-1.2,0-2.2,0-3.3c0-1.2-0.1-2.5,0.1-3.7c0.1-1.4,1-2.2,2.4-2.2c1.3,0,2.3,0.7,2.4,2.2c0.1,1.7,0.1,3.4,0.1,5c0,0.6,0,1.3,0,2.1
		c0.9,0,1.6,0,2.4,0c1.3,0.1,2.1,0.8,2.2,2s-0.6,2-1.9,2.2c-0.8,0.1-1.6,0-2.6,0c0,0.6,0,1,0,1.5c0,7.1,0,14.2,0,21.4
		c0,2.4-0.8,3.5-2.4,3.6c-1.7,0-2.5-1.1-2.5-3.6c0-7,0-14.1,0-21.1C109.3,60.6,109.3,60.1,109.3,59.5z"/>
	<path class="st0" d="M331.7,35.6c0,1.2,0,2.3,0,3.5c-0.1,1.4-1,2.3-2.3,2.4c-1.4,0-2.4-0.9-2.5-2.4c0-2.3,0-4.6,0-6.8
		c0-0.8-0.3-1.1-1.1-1.1c-2.2,0-4.3,0-6.5,0c-1.7,0-2.8-1-2.7-2.5c0-1.5,1-2.3,2.7-2.4c2.2,0,4.4,0,6.6,0c0.7,0,1-0.3,1-1
		c0-2.2,0-4.4,0-6.6c0-1.7,0.9-2.8,2.5-2.7c1.5,0,2.3,1,2.4,2.7c0,2.2,0,4.3,0,6.5c0,0.8,0.2,1.1,1.1,1.1c2.2,0,4.3,0,6.5,0
		c1.7,0,2.7,0.9,2.7,2.4s-1,2.5-2.7,2.5c-2.2,0-4.3,0-6.5,0c-0.8,0-1.2,0.2-1.1,1.1C331.8,33.4,331.7,34.5,331.7,35.6L331.7,35.6z"
		/>
	<path class="st1" d="M310.4,30.4c-1.6,0-2.7-1.6-1.9-3.1c1.6-3.1,3.3-6.1,5.1-9.1c3.8-6.2,8.5-11.7,13.8-16.7
		c1.2-1.1,2.5-1.2,3.4-0.2s0.7,2.2-0.4,3.4c-2,2-4.1,4.1-6,6.2c-4.8,5.4-8.7,11.5-11.9,17.9C312.1,29.7,311.5,30.4,310.4,30.4z"/>
	<path class="st0" d="M50.2,70.3c0,4.3,0,8.6,0,12.8c0,2-1.5,3.1-3.3,2.5c-1-0.3-1.4-1.1-1.5-2.1c-0.1-0.8,0-1.6,0-2.4
		c0-7.8,0-15.6,0-23.4c0-1.9,0.8-2.9,2.4-2.9c1.5,0,2.4,1,2.4,2.7C50.2,61.8,50.2,66,50.2,70.3z"/>
	<path class="st0" d="M47.8,44.6c1.7,0,3.1,1.3,3,3c0,1.6-1.4,2.9-3.1,2.9c-1.6,0-3-1.4-2.9-3C44.8,45.8,46.1,44.6,47.8,44.6z"/>
</g>
</svg>
