<?xml version="1.0" encoding="UTF-8" standalone="no"?>
<svg width="95px" height="94px" viewBox="0 0 95 94" version="1.1" xmlns="http://www.w3.org/2000/svg" xmlns:xlink="http://www.w3.org/1999/xlink">
    <!-- Generator: Sketch 49.3 (51167) - http://www.bohemiancoding.com/sketch -->
    <title>Page 1</title>
    <desc>Created with Sketch.</desc>
    <defs>
        <path d="M0.887,47.25 C0.887,73.069 21.757,94 47.5,94 C73.243,94 94.112,73.069 94.112,47.25 C94.112,21.431 73.243,0.5 47.5,0.5 C21.757,0.5 0.887,21.431 0.887,47.25 Z M3.712,47.25 C3.712,22.995 23.317,3.333 47.5,3.333 C71.683,3.333 91.288,22.995 91.288,47.25 C91.288,71.505 71.683,91.167 47.5,91.167 C23.317,91.167 3.712,71.505 3.712,47.25 Z" id="path-1"></path>
    </defs>
    <g id="Page-1" stroke="none" stroke-width="1" fill="none" fill-rule="evenodd">
        <g id="Home" transform="translate(-997.000000, -2333.000000)">
            <g id="Page-1" transform="translate(997.000000, 2332.000000)">
                <g id="Group-3" transform="translate(0.000000, 0.500000)">
                    <mask id="mask-2" fill="white">
                        <use xlink:href="#path-1"></use>
                    </mask>
                    <g id="Clip-2"></g>
                    <polygon id="Fill-1" fill="#FFFFFF" mask="url(#mask-2)" points="-4.112 99 99.113 99 99.113 -4.5 -4.112 -4.5"></polygon>
                </g>
                <g id="Group-12" transform="translate(17.000000, 19.500000)" fill="#F89F03">
                    <path d="M45.6792,11.1494 C45.5072,11.3034 45.3322,11.4604 45.1582,11.6154 C44.9842,11.4594 44.8092,11.3034 44.6372,11.1494 C43.7612,10.3694 42.8992,9.5974 42.0872,8.8294 L48.2302,8.8294 C47.4182,9.5974 46.5552,10.3694 45.6792,11.1494 Z M47.1632,15.8874 L43.1512,15.8874 C43.8012,15.2454 44.4732,14.6124 45.1572,13.9904 C45.8422,14.6124 46.5142,15.2454 47.1632,15.8874 Z M48.8362,17.6524 C49.3422,18.2264 49.8192,18.8134 50.2592,19.4174 L48.6872,19.4174 L48.6872,21.1824 L51.4012,21.1824 C51.7222,21.7534 52.0112,22.3404 52.2502,22.9464 L38.0662,22.9464 C38.3052,22.3404 38.5932,21.7534 38.9152,21.1824 L46.9222,21.1824 L46.9222,19.4174 L40.0572,19.4174 C40.4972,18.8134 40.9742,18.2264 41.4802,17.6524 L48.8362,17.6524 Z M53.0572,26.4764 L37.2592,26.4764 C37.3042,25.8694 37.3962,25.2834 37.5272,24.7114 L52.7882,24.7114 C52.9202,25.2834 53.0122,25.8694 53.0572,26.4764 Z M52.7872,30.0044 L41.6282,30.0044 L41.6282,31.7704 L52.2502,31.7704 C52.0112,32.3764 51.7222,32.9624 51.4012,33.5344 L38.9152,33.5344 C38.5932,32.9624 38.3052,32.3764 38.0662,31.7704 L39.8642,31.7704 L39.8642,30.0044 L37.5272,30.0044 C37.3962,29.4334 37.3042,28.8474 37.2592,28.2404 L53.0562,28.2404 C53.0112,28.8474 52.9192,29.4334 52.7872,30.0044 Z M48.8362,37.0644 L41.4792,37.0644 C40.9742,36.4904 40.4972,35.9034 40.0572,35.2994 L50.2592,35.2994 C49.8182,35.9034 49.3422,36.4904 48.8362,37.0644 Z M45.1582,40.7264 C44.4742,40.1044 43.8022,39.4724 43.1522,38.8294 L47.1642,38.8294 C46.5142,39.4724 45.8422,40.1044 45.1582,40.7264 Z M48.2292,45.8874 L42.0862,45.8874 C42.8982,45.1194 43.7602,44.3474 44.6372,43.5674 C44.8082,43.4134 44.9832,43.2564 45.1572,43.1014 C45.3322,43.2574 45.5062,43.4134 45.6782,43.5674 C46.5542,44.3474 47.4172,45.1194 48.2292,45.8874 Z M38.8792,5.2994 L51.4382,5.2994 C51.0132,5.8914 50.5232,6.4794 49.9842,7.0654 L40.3322,7.0654 C39.7932,6.4794 39.3032,5.8914 38.8792,5.2994 Z M54.8642,0.8874 L54.8642,0.0054 L53.0992,0.0054 L53.0992,0.8874 C53.0992,1.7954 52.8762,2.6724 52.4822,3.5354 L37.8342,3.5354 C37.4402,2.6724 37.2172,1.7954 37.2172,0.8874 L37.2172,0.0054 L35.4522,0.0054 L35.4522,0.8874 C35.4522,5.3244 39.3442,8.7944 43.4632,12.4674 C43.5882,12.5794 43.7142,12.6924 43.8412,12.8044 C39.5962,16.6874 35.4522,21.1664 35.4522,27.3584 C35.4522,33.5504 39.5962,38.0294 43.8402,41.9124 C43.7142,42.0244 43.5882,42.1374 43.4622,42.2494 C39.3442,45.9224 35.4522,49.3914 35.4522,53.8294 L35.4522,54.7114 L37.2172,54.7114 L37.2172,53.8294 C37.2172,52.9214 37.4402,52.0444 37.8342,51.1814 L46.9222,51.1814 L46.9222,49.4174 L38.8792,49.4174 C39.3042,48.8254 39.7932,48.2374 40.3322,47.6524 L49.9842,47.6524 C50.5232,48.2374 51.0132,48.8254 51.4382,49.4174 L48.6872,49.4174 L48.6872,51.1814 L52.4822,51.1814 C52.8762,52.0444 53.0992,52.9214 53.0992,53.8294 L53.0992,54.7114 L54.8642,54.7114 L54.8642,53.8294 C54.8642,49.3914 50.9722,45.9224 46.8532,42.2494 C46.7272,42.1374 46.6012,42.0244 46.4752,41.9124 C50.7192,38.0294 54.8642,33.5504 54.8642,27.3584 C54.8642,21.1664 50.7192,16.6874 46.4762,12.8044 C46.6022,12.6924 46.7272,12.5794 46.8542,12.4674 C50.9722,8.7944 54.8642,5.3244 54.8642,0.8874 Z" id="Fill-4"></path>
                    <path d="M28.3936,17.6523 L30.1586,17.6523 C31.1316,17.6523 31.9226,18.4443 31.9226,19.4173 C31.9226,20.3893 31.1316,21.1823 30.1586,21.1823 L28.3936,21.1823 L28.3936,17.6523 Z M26.6286,21.1823 L21.3346,21.1823 L21.3346,29.1233 L12.5116,29.1233 L12.5116,21.1823 L7.2176,21.1823 L7.2176,17.6523 L26.6286,17.6523 L26.6286,21.1823 Z M21.3346,48.5353 L17.8056,48.5353 L17.8056,32.6523 L16.0406,32.6523 L16.0406,48.5353 L12.5116,48.5353 L12.5116,30.8873 L21.3346,30.8873 L21.3346,48.5353 Z M5.4526,21.1823 L3.6876,21.1823 C2.7146,21.1823 1.9236,20.3893 1.9236,19.4173 C1.9236,18.4443 2.7146,17.6523 3.6876,17.6523 L5.4526,17.6523 L5.4526,21.1823 Z M12.5116,10.5933 C12.5116,8.1613 14.4906,6.1813 16.9226,6.1813 C19.3556,6.1813 21.3346,8.1613 21.3346,10.5933 C21.3346,13.0263 19.3556,15.0063 16.9226,15.0063 C14.4906,15.0063 12.5116,13.0263 12.5116,10.5933 Z M33.6876,19.4173 C33.6876,17.4703 32.1046,15.8873 30.1586,15.8873 L20.0886,15.8873 C21.8886,14.8063 23.0996,12.8423 23.0996,10.5933 C23.0996,7.1893 20.3296,4.4183 16.9226,4.4183 C13.5176,4.4183 10.7476,7.1893 10.7476,10.5933 C10.7476,12.8423 11.9586,14.8063 13.7586,15.8873 L3.6876,15.8873 C1.7416,15.8873 0.1586,17.4703 0.1586,19.4173 C0.1586,21.3643 1.7416,22.9463 3.6876,22.9463 L10.7476,22.9463 L10.7476,50.2983 L23.0996,50.2983 L23.0996,22.9463 L30.1586,22.9463 C32.1046,22.9463 33.6876,21.3643 33.6876,19.4173 Z" id="Fill-6"></path>
                    <polygon id="Fill-8" points="38.2847 39.1689 32.3737 46.7699 24.8647 46.7699 24.8647 48.5349 33.2367 48.5349 39.6787 40.2529"></polygon>
                    <polygon id="Fill-10" points="38.2847 13.7822 39.6787 12.6992 33.2367 4.4182 24.8647 4.4182 24.8647 6.1812 32.3737 6.1812"></polygon>
                </g>
            </g>
        </g>
    </g>
</svg>