<?xml version="1.0" encoding="UTF-8" standalone="no"?>
<svg width="95px" height="94px" viewBox="0 0 95 94" version="1.1" xmlns="http://www.w3.org/2000/svg" xmlns:xlink="http://www.w3.org/1999/xlink">
    <!-- Generator: Sketch 49.3 (51167) - http://www.bohemiancoding.com/sketch -->
    <title>Page 1</title>
    <desc>Created with Sketch.</desc>
    <defs>
        <path d="M0.887,47.25 C0.887,73.069 21.757,94 47.5,94 C73.243,94 94.112,73.069 94.112,47.25 C94.112,21.431 73.243,0.5 47.5,0.5 C21.757,0.5 0.887,21.431 0.887,47.25 Z M3.712,47.25 C3.712,22.995 23.317,3.333 47.5,3.333 C71.683,3.333 91.288,22.995 91.288,47.25 C91.288,71.505 71.683,91.167 47.5,91.167 C23.317,91.167 3.712,71.505 3.712,47.25 Z" id="path-1"></path>
        <polygon id="path-3" points="0 80.25 75 80.25 75 0.25 0 0.25"></polygon>
    </defs>
    <g id="Page-1" stroke="none" stroke-width="1" fill="none" fill-rule="evenodd">
        <g id="Home" transform="translate(-37.000000, -2331.000000)">
            <g id="Page-1" transform="translate(37.000000, 2330.000000)">
                <g id="Group-3" transform="translate(0.000000, 0.500000)">
                    <mask id="mask-2" fill="white">
                        <use xlink:href="#path-1"></use>
                    </mask>
                    <g id="Clip-2"></g>
                    <polygon id="Fill-1" fill="#FFFFFF" mask="url(#mask-2)" points="-4.112 99 99.113 99 99.113 -4.5 -4.112 -4.5"></polygon>
                </g>
                <g id="Group-19" transform="translate(10.000000, 7.500000)">
                    <path d="M42.5908,21.9912 C42.5908,23.4892 41.3728,24.7072 39.8758,24.7072 L38.0648,24.7072 C37.5648,24.7072 37.1598,25.1122 37.1598,25.6122 L37.1598,27.1772 L34.7228,24.9452 C34.5558,24.7932 34.3378,24.7072 34.1118,24.7072 L31.4478,24.7122 C31.0778,24.6202 29.9188,23.4742 29.9188,21.9912 L29.9188,18.3712 C29.9188,16.8742 31.1368,15.6552 32.6338,15.6552 L39.8758,15.6552 C41.3728,15.6552 42.5908,16.8742 42.5908,18.3712 L42.5908,21.9912 Z M39.8758,13.8452 L32.6338,13.8452 C30.1388,13.8452 28.1088,15.8752 28.1088,18.3712 L28.1088,21.9912 C28.1088,24.3222 29.9608,26.5172 31.3958,26.5172 L33.7588,26.5172 L37.4528,29.9002 C37.6238,30.0572 37.8438,30.1382 38.0648,30.1382 C38.1888,30.1382 38.3118,30.1122 38.4298,30.0612 C38.7588,29.9172 38.9708,29.5912 38.9708,29.2322 L38.9708,26.5172 L39.8758,26.5172 C42.3708,26.5172 44.4018,24.4872 44.4018,21.9912 L44.4018,18.3712 C44.4018,15.8752 42.3708,13.8452 39.8758,13.8452 Z" id="Fill-4" fill="#F89F03"></path>
                    <path d="M23.5825,27.4219 C23.5825,28.9199 22.3645,30.1389 20.8675,30.1389 L19.0565,30.1389 C18.5565,30.1389 18.1515,30.5429 18.1515,31.0429 L18.1515,33.3849 L15.1705,30.4029 C15.0015,30.2339 14.7715,30.1389 14.5305,30.1389 L13.6255,30.1389 C12.1285,30.1389 10.9105,28.9199 10.9105,27.4219 L10.9105,23.8029 C10.9105,22.3049 12.1285,21.0869 13.6255,21.0869 L20.8675,21.0869 C22.3645,21.0869 23.5825,22.3049 23.5825,23.8029 L23.5825,27.4219 Z M20.8675,19.2759 L13.6255,19.2759 C11.1305,19.2759 9.1005,21.3069 9.1005,23.8029 L9.1005,27.4219 C9.1005,29.9189 11.1305,31.9479 13.6255,31.9479 L14.1565,31.9479 L18.4165,36.2099 C18.5895,36.3819 18.8215,36.4749 19.0565,36.4749 C19.1735,36.4749 19.2905,36.4509 19.4035,36.4049 C19.7425,36.2649 19.9615,35.9349 19.9615,35.5679 L19.9615,31.9479 L20.8675,31.9479 C23.3625,31.9479 25.3935,29.9189 25.3935,27.4219 L25.3935,23.8029 C25.3935,21.3069 23.3625,19.2759 20.8675,19.2759 Z" id="Fill-6" fill="#F89F03"></path>
                    <path d="M61.5996,27.4219 C61.5996,28.9199 60.3816,30.1389 58.8836,30.1389 L57.9786,30.1389 C57.7036,30.1389 57.4436,30.2629 57.2716,30.4779 L54.8656,33.4869 L54.3406,30.8649 C54.2556,30.4419 53.8846,30.1389 53.4536,30.1389 L51.6426,30.1389 C50.1456,30.1389 48.9276,28.9199 48.9276,27.4219 L48.9276,23.8029 C48.9276,22.3049 50.1456,21.0869 51.6426,21.0869 L58.8836,21.0869 C60.3816,21.0869 61.5996,22.3049 61.5996,23.8029 L61.5996,27.4219 Z M58.8836,19.2759 L51.6426,19.2759 C49.1466,19.2759 47.1166,21.3069 47.1166,23.8029 L47.1166,27.4219 C47.1166,29.9189 49.1466,31.9479 51.6426,31.9479 L52.7116,31.9479 L53.4716,35.7459 C53.5396,36.0909 53.8026,36.3649 54.1446,36.4479 C54.2146,36.4669 54.2876,36.4749 54.3576,36.4749 C54.6296,36.4749 54.8916,36.3529 55.0646,36.1349 L58.4126,31.9479 L58.8836,31.9479 C61.3796,31.9479 63.4096,29.9189 63.4096,27.4219 L63.4096,23.8029 C63.4096,21.3069 61.3796,19.2759 58.8836,19.2759 Z" id="Fill-8" fill="#F89F03"></path>
                    <path d="M17.2466,26.5176 C16.7466,26.5176 16.3416,26.1116 16.3416,25.6126 C16.3416,25.1146 16.7466,24.7066 17.2466,24.7066 C17.7466,24.7066 18.1516,25.1146 18.1516,25.6126 C18.1516,26.1116 17.7466,26.5176 17.2466,26.5176 M17.2466,22.8966 C15.7496,22.8966 14.5306,24.1146 14.5306,25.6126 C14.5306,27.1096 15.7496,28.3286 17.2466,28.3286 C18.7436,28.3286 19.9616,27.1096 19.9616,25.6126 C19.9616,24.1146 18.7436,22.8966 17.2466,22.8966" id="Fill-10" fill="#F89F03"></path>
                    <mask id="mask-4" fill="white">
                        <use xlink:href="#path-3"></use>
                    </mask>
                    <g id="Clip-13"></g>
                    <path d="M35.35,21.087 L37.16,21.087 L37.16,19.276 L35.35,19.276 L35.35,21.087 Z M38.065,17.466 L34.445,17.466 C33.944,17.466 33.539,17.871 33.539,18.371 L33.539,21.991 C33.539,22.491 33.944,22.896 34.445,22.896 L38.065,22.896 C38.566,22.896 38.971,22.491 38.971,21.991 L38.971,18.371 C38.971,17.871 38.566,17.466 38.065,17.466 Z" id="Fill-12" fill="#F89F03" mask="url(#mask-4)"></path>
                    <path d="M54.3579,26.5176 L55.2629,25.3106 L56.1689,26.5176 L54.3579,26.5176 Z M58.7029,26.8796 L55.9869,23.2586 C55.6459,22.8026 54.8799,22.8026 54.5389,23.2586 L51.8239,26.8796 C51.6169,27.1536 51.5849,27.5206 51.7379,27.8276 C51.8909,28.1336 52.2049,28.3286 52.5479,28.3286 L57.9789,28.3286 C58.3219,28.3286 58.6349,28.1336 58.7889,27.8276 C58.9409,27.5206 58.9089,27.1536 58.7029,26.8796 Z" id="Fill-14" fill="#F89F03" mask="url(#mask-4)"></path>
                    <path d="M55.1372,51.1084 C54.9992,51.0164 54.8562,50.9354 54.7122,50.8554 C54.6582,50.8254 54.6062,50.7934 54.5512,50.7644 C54.4362,50.7064 54.3192,50.6534 54.2012,50.6024 C54.1062,50.5584 54.0122,50.5174 53.9152,50.4804 C53.8182,50.4434 53.7202,50.4104 53.6232,50.3784 C53.5002,50.3374 53.3762,50.3004 53.2512,50.2674 C53.1682,50.2474 53.0832,50.2254 52.9992,50.2074 C52.8552,50.1744 52.7122,50.1504 52.5652,50.1284 C52.4912,50.1184 52.4162,50.1064 52.3422,50.0974 C52.1842,50.0814 52.0242,50.0714 51.8642,50.0644 C51.7972,50.0624 51.7312,50.0574 51.6632,50.0564 C51.4902,50.0564 51.3152,50.0644 51.1402,50.0794 C51.0852,50.0834 51.0302,50.0834 50.9742,50.0884 C50.7452,50.1124 50.5152,50.1454 50.2842,50.1934 C50.0632,50.2394 49.8452,50.3014 49.6302,50.3744 C49.5622,50.3964 49.4962,50.4244 49.4292,50.4504 C49.2822,50.5044 49.1362,50.5634 48.9912,50.6304 C48.9132,50.6674 48.8382,50.7064 48.7622,50.7464 C48.6312,50.8134 48.5032,50.8854 48.3762,50.9624 C48.3002,51.0084 48.2232,51.0554 48.1492,51.1064 C48.1072,51.1344 48.0632,51.1574 48.0222,51.1864 C46.2292,50.7264 44.2622,50.9844 42.7342,51.8444 C41.8762,50.3624 40.3652,49.3744 38.6482,49.1864 C38.4482,49.1604 38.2552,49.1464 38.0652,49.1464 C35.0702,49.1464 32.6342,51.5824 32.6342,54.5774 C32.6342,54.7884 32.6492,54.9964 32.6732,55.2004 C32.6812,55.2734 32.6952,55.3434 32.7052,55.4154 C32.7262,55.5474 32.7512,55.6814 32.7822,55.8124 C32.7912,55.8514 32.7942,55.8914 32.8042,55.9304 C32.1902,56.2314 31.5162,56.3874 30.8242,56.3874 C29.4382,56.3874 28.1452,55.7604 27.2782,54.6704 C27.0612,54.3954 26.7022,54.2724 26.3602,54.3514 C21.0662,55.6074 16.3412,51.5324 16.3412,46.4314 C16.3412,42.6034 18.9472,39.3404 22.6792,38.4934 C22.9052,38.4424 23.1022,38.3074 23.2302,38.1154 C25.0602,35.3864 28.2372,33.7584 31.7292,33.7584 C34.2082,33.7584 36.5902,34.6024 38.4332,36.1344 C38.6252,36.2954 38.8792,36.3684 39.1262,36.3374 C39.3742,36.3044 39.5992,36.1704 39.7462,35.9674 C40.7432,34.5854 42.4832,33.7584 44.4012,33.7584 C45.3632,33.7584 46.2662,33.9704 47.0522,34.3374 C46.7842,35.5564 45.6992,36.4744 44.4012,36.4744 L44.4012,38.2844 C46.3092,38.2844 47.9372,37.0944 48.6012,35.4204 C49.3692,36.2004 49.8322,37.1984 49.8322,38.2844 C49.8322,38.6724 49.7672,39.0694 49.6372,39.4664 C49.5042,39.8734 49.6752,40.3174 50.0452,40.5314 C50.9292,41.0404 51.5132,41.9524 51.6082,42.9694 C51.6472,43.3794 51.9582,43.7134 52.3662,43.7804 C54.5692,44.1334 56.1682,46.0104 56.1682,48.2414 C56.1682,49.2924 55.7992,50.3024 55.1372,51.1084 M55.0342,59.3794 C53.4452,61.1724 52.5642,63.6424 52.5482,66.3444 L50.7372,66.3444 L50.7372,66.2734 C50.7372,64.1924 50.0622,62.0744 48.7832,60.1474 C48.5632,59.8154 48.1512,59.6644 47.7722,59.7804 C47.2622,59.9324 46.7372,60.0084 46.2112,60.0084 C44.2842,60.0084 42.5652,59.0224 41.9342,57.5544 C41.8192,57.2864 41.5792,57.0884 41.2942,57.0264 C41.0122,56.9634 40.7092,57.0464 40.4932,57.2424 C39.8192,57.8584 38.9552,58.1974 38.0652,58.1974 C36.3482,58.1974 34.9152,56.9944 34.5442,55.3904 C34.5382,55.3614 34.5242,55.3354 34.5182,55.3064 C34.4702,55.0704 34.4452,54.8274 34.4452,54.5774 C34.4452,52.5814 36.0682,50.9574 38.0652,50.9574 C38.2072,50.9574 38.3452,50.9734 38.4832,50.9914 C38.5922,51.0054 38.7032,51.0224 38.8272,51.0494 L38.8272,51.0474 C40.0632,51.3184 41.0902,52.2204 41.4922,53.4784 C41.5852,53.7654 41.8132,53.9874 42.1042,54.0724 C42.3942,54.1564 42.7072,54.0884 42.9372,53.8964 C44.1252,52.8974 45.9392,52.5314 47.5792,52.9524 L47.5772,52.9594 L47.7662,53.0034 C47.8192,53.0144 47.8712,53.0234 47.9212,53.0404 L47.9232,53.0404 C48.0972,53.0974 48.2792,53.0934 48.4502,53.0464 C48.5692,53.0124 48.6822,52.9624 48.7802,52.8804 C48.9202,52.7664 49.0672,52.6604 49.2172,52.5624 C49.6682,52.2724 50.1582,52.0684 50.6572,51.9634 C50.8322,51.9264 51.0092,51.9004 51.1842,51.8844 C51.2482,51.8794 51.3132,51.8794 51.3772,51.8774 C51.4882,51.8694 51.5992,51.8624 51.7092,51.8644 C51.7822,51.8654 51.8532,51.8744 51.9252,51.8794 C52.0272,51.8854 52.1292,51.8894 52.2302,51.9034 C52.2942,51.9124 52.3582,51.9264 52.4222,51.9374 C52.5312,51.9574 52.6392,51.9744 52.7462,52.0024 C52.7942,52.0144 52.8402,52.0314 52.8882,52.0444 C53.0112,52.0804 53.1332,52.1174 53.2542,52.1624 C53.2822,52.1724 53.3082,52.1854 53.3362,52.1984 C53.4742,52.2544 53.6112,52.3144 53.7442,52.3844 C53.7542,52.3884 53.7632,52.3944 53.7722,52.4004 C54.0752,52.5634 54.3622,52.7604 54.6282,52.9944 C54.6282,52.9954 54.6302,52.9954 54.6312,52.9964 C55.6072,53.8584 56.1682,55.0794 56.1682,56.3874 C56.1682,57.4914 55.7652,58.5534 55.0342,59.3794 M57.9792,48.2414 C57.9792,45.3404 56.0472,42.8664 53.3022,42.1304 C53.0452,41.0344 52.4192,40.0534 51.5342,39.3594 C51.6062,39.0004 51.6422,38.6404 51.6422,38.2844 C51.6422,34.7904 48.3942,31.9484 44.4012,31.9484 C42.2432,31.9484 40.2422,32.7734 38.8762,34.1924 C36.8252,32.7404 34.3212,31.9484 31.7292,31.9484 C27.7572,31.9484 24.1222,33.7604 21.9312,36.8144 C17.5552,37.9684 14.5312,41.8744 14.5312,46.4314 C14.5312,51.9214 18.9982,56.3874 24.4882,56.3874 C25.0622,56.3874 25.6472,56.3344 26.2352,56.2264 C27.4302,57.4854 29.0732,58.1974 30.8242,58.1974 C31.7742,58.1974 32.6992,57.9844 33.5442,57.5814 C34.5192,59.0424 36.1802,60.0084 38.0652,60.0084 C39.0402,60.0084 39.9902,59.7414 40.8242,59.2424 C41.9632,60.8174 43.9982,61.8194 46.2112,61.8194 C46.6802,61.8194 47.1462,61.7724 47.6082,61.6824 C48.4722,63.1614 48.9272,64.7354 48.9272,66.2734 L48.9272,67.2494 C48.9272,67.7494 49.3322,68.1544 49.8322,68.1544 L53.4532,68.1544 C53.9532,68.1544 54.3582,67.7494 54.3582,67.2494 L54.3582,66.4174 C54.3582,64.1294 55.0792,62.0584 56.3882,60.5814 C57.4142,59.4234 57.9792,57.9334 57.9792,56.3874 C57.9792,54.8744 57.4392,53.4424 56.4812,52.3094 C57.4372,51.1734 57.9792,49.7384 57.9792,48.2414" id="Fill-15" fill="#F89F03" mask="url(#mask-4)"></path>
                    <path d="M26.2983,40.0947 L24.4873,40.0947 C24.4873,41.1167 24.8413,42.0517 25.4163,42.8097 L25.3933,42.8097 C25.3933,44.8077 23.7693,46.4317 21.7723,46.4317 L21.7723,46.4537 C21.0133,45.8797 20.0793,45.5257 19.0563,45.5257 L19.0563,47.3357 C20.5543,47.3357 21.7723,48.5547 21.7723,50.0517 L23.5823,50.0517 C23.5823,49.3377 23.4023,48.6707 23.1053,48.0697 C25.0293,47.5807 26.5433,46.0667 27.0313,44.1437 C27.6323,44.4397 28.2993,44.6197 29.0133,44.6197 L29.0133,42.8097 C27.5163,42.8097 26.2983,41.5917 26.2983,40.0947" id="Fill-16" fill="#F89F03" mask="url(#mask-4)"></path>
                    <path d="M34.4482,38.3506 C35.3382,38.1866 36.1882,37.7816 36.8762,37.1326 L35.6352,35.8156 C34.4792,36.9046 32.6002,36.9046 31.4452,35.8156 L30.2042,37.1326 C30.8932,37.7836 31.7452,38.1906 32.6372,38.3526 C32.6752,43.3116 36.7182,47.3356 41.6852,47.3356 L41.6852,45.5256 C37.7162,45.5256 34.4842,42.3126 34.4482,38.3506" id="Fill-17" fill="#F89F03" mask="url(#mask-4)"></path>
                    <path d="M46.2114,41.9053 L44.4014,41.9053 C44.4014,44.9003 46.8374,47.3363 49.8324,47.3363 L49.8324,45.5253 C47.8354,45.5253 46.2114,43.9023 46.2114,41.9053" id="Fill-18" fill="#F89F03" mask="url(#mask-4)"></path>
                </g>
            </g>
        </g>
    </g>
</svg>