<?xml version="1.0" encoding="UTF-8" standalone="no"?>
<svg width="12px" height="11px" viewBox="0 0 12 11" version="1.1" xmlns="http://www.w3.org/2000/svg" xmlns:xlink="http://www.w3.org/1999/xlink">
    <!-- Generator: Sketch 50.2 (55047) - http://www.bohemiancoding.com/sketch -->
    <title>arrow-3</title>
    <desc>Created with Sketch.</desc>
    <defs>
        <linearGradient x1="100%" y1="50%" x2="-2.22044605e-14%" y2="50%" id="linearGradient-1">
            <stop stop-color="#32ADC9" offset="0%"></stop>
            <stop stop-color="#17EAA6" offset="100%"></stop>
        </linearGradient>
    </defs>
    <g id="Page-1" stroke="none" stroke-width="1" fill="none" fill-rule="evenodd">
        <g id="Test-2---Pytania" transform="translate(-443.000000, -1269.000000)" fill="url(#linearGradient-1)" fill-rule="nonzero">
            <g id="Group-23" transform="translate(427.000000, 1260.000000)">
                <g id="Group-19" transform="translate(16.000000, 4.000000)">
                    <g id="arrow-3" transform="translate(0.000000, 5.000000)">
                        <path d="M11.3176802,5.21564691 C11.3175399,5.21550869 11.3175399,5.21550869 11.3176802,5.21564691 L7.17140617,1.13302535 C6.88294408,0.848991652 6.41508805,0.848991652 6.12662596,1.13302535 C5.8380235,1.41705904 5.8380235,1.87773267 6.12662596,2.16176637 L9.01166797,5.00251797 L0.738771765,5.00251797 C0.330713714,5.00251797 0,5.32815466 0,5.72994831 C0,6.13174196 0.330713714,6.45737864 0.738771765,6.45737864 L9.01166797,6.45737864 L6.12662596,9.29813025 C5.8380235,9.58216394 5.8380235,10.0428376 6.12662596,10.3268713 C6.27092719,10.4689572 6.46000672,10.5400002 6.64894588,10.5400002 C6.83788504,10.5400002 7.02710494,10.4689572 7.1712658,10.3268713 L11.3173995,6.24438793 C11.3173995,6.24438793 11.3173995,6.24438793 11.3175399,6.24424971 L11.8400002,5.72994831 L11.3176802,5.21564691 Z" id="Shape" transform="translate(5.920000, 5.730000) scale(-1, 1) translate(-5.920000, -5.730000) "></path>
                    </g>
                </g>
            </g>
        </g>
    </g>
</svg>