<?xml version="1.0" encoding="UTF-8" standalone="no"?>
<svg width="16px" height="13px" viewBox="0 0 16 13" version="1.1" xmlns="http://www.w3.org/2000/svg" xmlns:xlink="http://www.w3.org/1999/xlink">
    <!-- Generator: Sketch 50.2 (55047) - http://www.bohemiancoding.com/sketch -->
    <title>arrow1</title>
    <desc>Created with Sketch.</desc>
    <defs>
        <linearGradient x1="100%" y1="50%" x2="-2.22044605e-14%" y2="50%" id="linearGradient-1">
            <stop stop-color="#14D5BA" offset="0%"></stop>
            <stop stop-color="#17EAA6" offset="100%"></stop>
        </linearGradient>
    </defs>
    <g id="Page-1" stroke="none" stroke-width="1" fill="none" fill-rule="evenodd">
        <g id="Home" transform="translate(-435.000000, -2778.000000)" fill="url(#linearGradient-1)">
            <g id="3-ARCHETYPY" transform="translate(0.000000, 2368.000000)">
                <g id="CONT" transform="translate(330.000000, 77.000000)">
                    <g id="Group-18" transform="translate(0.000000, 328.000000)">
                        <g id="arrow1" transform="translate(105.000000, 5.000000)">
                            <g id="arrow">
                                <g id="Group-6">
                                    <path d="M15.2941623,5.80492807 C15.2939726,5.80474129 15.2939726,5.80474129 15.2941623,5.80492807 L9.6910893,0.287871985 C9.30127567,-0.0959573284 8.6690378,-0.0959573284 8.27922417,0.287871985 C7.88922085,0.671701298 7.88922085,1.29423322 8.27922417,1.67806253 L12.1779295,5.516916 L0.99834021,5.516916 C0.446910419,5.516916 0,5.95696557 0,6.49992996 C0,7.04289434 0.446910419,7.48294391 0.99834021,7.48294391 L12.1779295,7.48294391 L8.27922417,11.3217974 C7.88922085,11.7056267 7.88922085,12.3281586 8.27922417,12.7119879 C8.47422583,12.903996 8.7297387,13 8.98506189,13 C9.24038507,13 9.49608764,12.903996 9.69089961,12.7119879 L15.2937829,7.19511862 C15.2937829,7.19511862 15.2937829,7.19511862 15.2939726,7.19493184 L16,6.49992996 L15.2941623,5.80492807 Z" id="Shape" fill-rule="nonzero"></path>
                                </g>
                            </g>
                        </g>
                    </g>
                </g>
            </g>
        </g>
    </g>
</svg>