<?xml version="1.0" encoding="UTF-8" standalone="no"?>
<svg width="18px" height="12px" viewBox="0 0 18 12" version="1.1" xmlns="http://www.w3.org/2000/svg" xmlns:xlink="http://www.w3.org/1999/xlink">
    <!-- Generator: Sketch 50.2 (55047) - http://www.bohemiancoding.com/sketch -->
    <title>cytat</title>
    <desc>Created with Sketch.</desc>
    <defs>
        <linearGradient x1="100%" y1="50%" x2="-2.22044605e-14%" y2="50%" id="linearGradient-1">
            <stop stop-color="#32ADC9" offset="0%"></stop>
            <stop stop-color="#17EAA6" offset="100%"></stop>
        </linearGradient>
    </defs>
    <g id="Page-1" stroke="none" stroke-width="1" fill="none" fill-rule="evenodd">
        <g id="Home" transform="translate(-551.000000, -8116.000000)" fill="url(#linearGradient-1)">
            <g id="Group-3" transform="translate(0.000000, 7907.000000)">
                <g id="7-MARKI-KTORYM-POMOGLISMY">
                    <g id="Group" transform="translate(405.000000, 171.000000)">
                        <g id="Group-3-Copy-4">
                            <g id="cytat" transform="translate(146.000000, 38.000000)">
                                <path d="M0,3.81456954 C0,1.58940397 1.69191919,0 3.83838384,0 C6.01010101,0 7.5,1.58940397 7.5,4.05298013 C7.5,7.20529801 5.07575758,11.0993377 1.66666667,12 C1.28787879,11.7086093 0.883838384,11.1788079 0.808080808,10.5960265 C2.02020202,10.0662252 2.9040404,8.92715232 2.9040404,7.89403974 C2.9040404,6.17218543 0,7.04635762 0,3.81456954 Z M10.5,3.81456954 C10.5,1.58940397 12.1919192,0 14.3383838,0 C16.510101,0 18,1.58940397 18,4.05298013 C18,7.20529801 15.5757576,11.0993377 12.1666667,12 C11.7878788,11.7086093 11.3838384,11.1788079 11.3080808,10.5960265 C12.520202,10.0662252 13.4040404,8.92715232 13.4040404,7.89403974 C13.4040404,6.17218543 10.5,7.04635762 10.5,3.81456954 Z" id="Combined-Shape"></path>
                            </g>
                        </g>
                    </g>
                </g>
            </g>
        </g>
    </g>
</svg>