<?xml version="1.0" encoding="UTF-8" standalone="no"?>
<svg width="16px" height="16px" viewBox="0 0 16 16" version="1.1" xmlns="http://www.w3.org/2000/svg" xmlns:xlink="http://www.w3.org/1999/xlink">
    <!-- Generator: Sketch 50.2 (55047) - http://www.bohemiancoding.com/sketch -->
    <title>Combined Shape Copy</title>
    <desc>Created with Sketch.</desc>
    <defs></defs>
    <g id="Symbols" stroke="none" stroke-width="1" fill="none" fill-rule="evenodd">
        <g id="error" fill="#FF454D">
            <path d="M8,16 C3.581722,16 0,12.418278 0,8 C0,3.581722 3.581722,0 8,0 C12.418278,0 16,3.581722 16,8 C16,12.418278 12.418278,16 8,16 Z M7.98242188,9.78942871 C7.59570119,9.78942871 7.25976705,9.9280992 6.97460938,10.2054443 C6.69335797,10.4788832 6.55273438,10.8148173 6.55273438,11.2132568 C6.55273438,11.4671644 6.61913996,11.701537 6.75195312,11.9163818 C6.88086002,12.1351329 7.05663951,12.3089593 7.27929688,12.4378662 C7.49804797,12.5667731 7.73242062,12.6312256 7.98242188,12.6312256 C8.39258018,12.6312256 8.74218605,12.4925551 9.03125,12.21521 C9.31640768,11.9417711 9.45898438,11.6116963 9.45898438,11.2249756 C9.45898438,10.8187236 9.31640768,10.4788832 9.03125,10.2054443 C8.74218605,9.9280992 8.39258018,9.78942871 7.98242188,9.78942871 Z M8.35742188,9.32653809 L9.17773438,5.76403809 L9.18945312,5.68786621 L9.20117188,5.61755371 C9.29492234,5.24255184 9.34179688,4.96325775 9.34179688,4.77966309 C9.34179688,4.50231795 9.28125061,4.25622666 9.16015625,4.04138184 C9.03906189,3.82263074 8.86914172,3.65271057 8.65039062,3.53161621 C8.4355458,3.41052186 8.19531383,3.34997559 7.9296875,3.34997559 C7.52734174,3.34997559 7.18945449,3.48083365 6.91601562,3.74255371 C6.63867049,4.00818004 6.5,4.32848934 6.5,4.70349121 C6.5,4.8206793 6.54101521,5.07653611 6.62304688,5.47106934 C6.697266,5.84607121 6.79101506,6.26598889 6.90429688,6.73083496 L7.56640625,9.32653809 L8.35742188,9.32653809 Z" id="Combined-Shape-Copy"></path>
        </g>
    </g>
</svg>