<?xml version="1.0" encoding="UTF-8" standalone="no"?>
<svg width="22px" height="18px" viewBox="0 0 22 18" version="1.1" xmlns="http://www.w3.org/2000/svg" xmlns:xlink="http://www.w3.org/1999/xlink">
    <!-- Generator: Sketch 50.2 (55047) - http://www.bohemiancoding.com/sketch -->
    <title>Combined Shape</title>
    <desc>Created with Sketch.</desc>
    <defs></defs>
    <g id="Page-1" stroke="none" stroke-width="1" fill="none" fill-rule="evenodd">
        <g id="Nova-Corps---Hello" transform="translate(-367.000000, -91.000000)" fill="#2D2D2D">
            <g id="Menu-belka" transform="translate(0.000000, 70.000000)">
                <g id="Hamburger" transform="translate(367.000000, 21.000000)">
                    <path d="M2.59127253,7.46469831 L20.0058246,7.46469831 C20.9170945,7.46469831 21.6558246,8.20342847 21.6558246,9.11469831 C21.6558246,10.0259681 20.9170945,10.7646983 20.0058246,10.7646983 L2.59127253,10.7646983 C1.68000269,10.7646983 0.941272531,10.0259681 0.941272531,9.11469831 C0.941272531,8.20342847 1.68000269,7.46469831 2.59127253,7.46469831 Z M2.59127253,14.4646983 L20.0058246,14.4646983 C20.9170945,14.4646983 21.6558246,15.2034285 21.6558246,16.1146983 C21.6558246,17.0259681 20.9170945,17.7646983 20.0058246,17.7646983 L2.59127253,17.7646983 C1.68000269,17.7646983 0.941272531,17.0259681 0.941272531,16.1146983 C0.941272531,15.2034285 1.68000269,14.4646983 2.59127253,14.4646983 Z M2.59127253,0.46469831 L20.0058246,0.46469831 C20.9170945,0.46469831 21.6558246,1.20342847 21.6558246,2.11469831 C21.6558246,3.02596815 20.9170945,3.76469831 20.0058246,3.76469831 L2.59127253,3.76469831 C1.68000269,3.76469831 0.941272531,3.02596815 0.941272531,2.11469831 C0.941272531,1.20342847 1.68000269,0.46469831 2.59127253,0.46469831 Z" id="Combined-Shape"></path>
                </g>
            </g>
        </g>
    </g>
</svg>