<?xml version="1.0" encoding="UTF-8" standalone="no"?>
<svg width="16px" height="16px" viewBox="0 0 16 16" version="1.1" xmlns="http://www.w3.org/2000/svg" xmlns:xlink="http://www.w3.org/1999/xlink">
    <!-- Generator: Sketch 50.2 (55047) - http://www.bohemiancoding.com/sketch -->
    <title>help</title>
    <desc>Created with Sketch.</desc>
    <defs></defs>
    <g id="help" stroke="none" stroke-width="1" fill="none" fill-rule="evenodd">
        <path d="M6.97753894,8.69921847 C7.1044927,8.36718558 7.33007637,8.05859493 7.65429672,7.77343728 C7.96679826,7.50781096 8.19726469,7.27246177 8.34570293,7.06738263 C8.49414116,6.86230349 8.56835916,6.63476672 8.56835916,6.38476548 C8.56835916,5.75194986 8.27734646,5.43554679 7.69531234,5.43554679 C7.43749857,5.43554679 7.22070387,5.51757721 7.04492175,5.68164052 C6.86913963,5.84570384 6.77929679,6.09179511 6.77539052,6.41992173 L5,6.41992173 C5.00781254,5.88085657 5.12890507,5.42968923 5.36328123,5.06640619 C5.59765739,4.70312314 5.91601356,4.43457116 6.3183593,4.26074217 C6.72070503,4.08691319 7.17968479,4 7.69531234,4 C8.25000258,4 8.72460718,4.08886629 9.11914038,4.26660155 C9.51367358,4.4443368 9.81640491,4.70507636 10.0273435,5.04882806 C10.238282,5.39257976 10.3437497,5.81054431 10.3437497,6.30273424 C10.3437497,6.61132951 10.2880862,6.88769392 10.1767575,7.13183575 C10.0654288,7.37597758 9.92285214,7.59374883 9.74902315,7.78515602 C9.57519417,7.97656322 9.33398566,8.21679518 9.02539039,8.50585911 L8.91406227,8.60546848 C8.69921746,8.79687567 8.55078145,8.99706897 8.46874979,9.20605438 C8.38671814,9.41503978 8.34179671,9.67773245 8.33398418,9.99414027 L6.78124989,9.99414027 C6.78515616,9.46288764 6.85058519,9.03125136 6.97753894,8.69921847 Z M8.09960919,10.9785152 C8.24804742,11.0605469 8.36328064,11.1718739 8.44531229,11.3124996 C8.52734395,11.4531253 8.56835916,11.6113268 8.56835916,11.7871089 C8.56835916,11.962891 8.52734395,12.1210926 8.44531229,12.2617183 C8.36328064,12.402344 8.24804742,12.513671 8.09960919,12.5957026 C7.95117096,12.6777343 7.77929769,12.7187495 7.58398422,12.7187495 C7.38867076,12.7187495 7.21679749,12.6777343 7.06835925,12.5957026 C6.91992102,12.513671 6.8046878,12.402344 6.72265615,12.2617183 C6.64062449,12.1210926 6.59960928,11.962891 6.59960928,11.7871089 C6.59960928,11.6113268 6.64062449,11.4531253 6.72265615,11.3124996 C6.8046878,11.1718739 6.91992102,11.0605469 7.06835925,10.9785152 C7.21679749,10.8964836 7.38867076,10.8554683 7.58398422,10.8554683 C7.77929769,10.8554683 7.95117096,10.8964836 8.09960919,10.9785152 Z" id="?" fill="#3C6289"></path>
        <circle id="Oval-10" stroke="#2E5378" stroke-width="1.5999999" cx="7.59999955" cy="7.59999955" r="6.79999959"></circle>
    </g>
</svg>