<?xml version="1.0" encoding="UTF-8" standalone="no"?>
<svg width="223px" height="45px" viewBox="0 0 223 45" version="1.1" xmlns="http://www.w3.org/2000/svg" xmlns:xlink="http://www.w3.org/1999/xlink">
    <!-- Generator: Sketch 50.2 (55047) - http://www.bohemiancoding.com/sketch -->
    <title>logoo</title>
    <desc>Created with Sketch.</desc>
    <defs>
        <linearGradient x1="100%" y1="50%" x2="-2.22044605e-14%" y2="50%" id="linearGradient-1">
            <stop stop-color="#FFFFFF" offset="0%"></stop>
            <stop stop-color="#F1F9FF" offset="100%"></stop>
        </linearGradient>
        <linearGradient x1="100%" y1="50%" x2="-2.22044605e-14%" y2="50%" id="linearGradient-2">
            <stop stop-color="#14D5BA" offset="0%"></stop>
            <stop stop-color="#17EAA6" offset="100%"></stop>
        </linearGradient>
        <polygon id="path-3" points="0.00141139241 0 0 45 0.00141139241 45 45.1659684 45 45.1659684 39.5530313 5.46886329 39.5530313 5.46886329 5.4466875 39.6996456 5.4466875 39.6996456 10.893375 45.1659684 10.893375 45.1659684 0"></polygon>
    </defs>
    <g id="Page-1" stroke="none" stroke-width="1" fill="none" fill-rule="evenodd">
        <g id="Home" transform="translate(-330.000000, -38.000000)">
            <g id="1-HEADER">
                <g id="1-NAV" transform="translate(330.000000, 38.000000)">
                    <g id="logo-white">
                        <g id="logo">
                            <path d="M22.7886523,18.6657187 C24.0035789,16.9875 25.7460839,16.14825 28.0127801,16.14825 C30.2822991,16.14825 32.2032042,17.0040938 33.7797295,18.7115625 C35.3565371,20.419875 36.1455054,22.6035 36.1455054,25.2545625 C36.1455054,27.9087187 35.3565371,30.0839063 33.7797295,31.782375 C32.2032042,33.4808438 30.2978244,34.3296562 28.0607675,34.3296562 C25.8231459,34.3296562 24.066527,33.3959062 22.7886523,31.5275625 L22.7886523,34.1063438 L17.32487,34.1063438 L17.32487,10.89675 L22.7886523,10.89675 L22.7886523,18.6657187 Z M45.1637384,16.341075 L45.1637384,19.6502625 C46.4438713,17.3172938 48.1457282,16.1481375 50.2777776,16.1481375 L50.2777776,21.689325 L48.9346966,21.689325 C47.6754523,21.689325 46.7360295,21.9871688 46.1054194,22.5811688 C45.479608,23.17545 45.1637384,24.2143875 45.1637384,25.7007937 L45.1637384,34.1062313 L39.6999561,34.1062313 L39.6999561,16.341075 L45.1637384,16.341075 Z M54.541961,31.7689875 C52.968823,30.0727687 52.1787256,27.89955 52.1787256,25.247925 C52.1787256,22.5977063 52.968823,20.4174563 54.541961,18.711675 C56.1170749,17.003925 58.0368509,16.15005 60.3027003,16.15005 C62.5693965,16.15005 64.3107724,16.9893 65.5242876,18.6635813 L65.5242876,16.3429875 L70.9829889,16.3429875 L70.9829889,34.0912687 L65.5242876,34.0912687 L65.5242876,31.5133313 C64.2043534,33.3799875 62.4372901,34.3134563 60.2242268,34.3134563 C58.0100344,34.3134563 56.1170749,33.464925 54.541961,31.7689875 Z M81.0886149,16.3429875 L81.0886149,18.9504562 C82.2146238,17.0840812 84.0135846,16.15005 86.481263,16.15005 C88.5263706,16.15005 90.179958,16.830675 91.4448478,18.1877062 C92.7117137,19.5444562 93.3437352,21.3888937 93.3437352,23.7215812 L93.3437352,34.0909875 L87.9189073,34.0909875 L87.9189073,24.4539562 C87.9189073,23.3081437 87.6160225,22.4222062 87.0096884,21.7972687 C86.4010959,21.1717687 85.566963,20.8587375 84.5039023,20.8587375 C83.438301,20.8587375 82.6038858,21.1717687 81.9955757,21.7972687 C81.3898061,22.4222062 81.0886149,23.3081437 81.0886149,24.4539562 L81.0886149,34.0909875 L75.6268086,34.0909875 L75.6268086,16.3429875 L81.0886149,16.3429875 Z M99.0631489,31.7689875 C97.4871881,30.0727687 96.700478,27.89955 96.700478,25.247925 C96.700478,22.5977062 97.4871881,20.4174563 99.0631489,18.711675 C100.636851,17.003925 102.559168,16.15005 104.825299,16.15005 C107.090584,16.15005 108.832243,16.9893 110.044064,18.6635812 L110.044064,10.8473625 L115.50333,10.8473625 L115.50333,34.0912687 L110.044064,34.0912687 L110.044064,31.5133312 C108.724977,33.3799875 106.958478,34.3134563 104.74485,34.3134563 C102.531787,34.3134563 100.636851,33.464925 99.0631489,31.7689875 Z M29.4027194,28.4880937 C30.1914054,27.7343437 30.5851839,26.6577188 30.5851839,25.2545625 C30.5851839,23.8542187 30.1914054,22.7719687 29.4027194,22.008375 C28.6148801,21.2442187 27.7104599,20.8611563 26.6877649,20.8611563 C25.6628118,20.8611563 24.7595206,21.2380312 23.9708346,21.9915 C23.1813016,22.74525 22.7886523,23.8232812 22.7886523,25.2233437 C22.7886523,26.6250937 23.1813016,27.7070625 23.9708346,28.4706563 C24.7595206,29.2362187 25.6628118,29.6170313 26.6877649,29.6170313 C27.7104599,29.6170313 28.6148801,29.241 29.4027194,28.4880937 Z M64.3435167,28.4606437 C65.1299446,27.6978937 65.5242876,26.6164875 65.5242876,25.216425 C65.5242876,23.816925 65.1299446,22.741425 64.3435167,21.9879562 C63.5539838,21.2356125 62.6495635,20.8587375 61.6294091,20.8587375 C60.607561,20.8587375 59.7039876,21.2409562 58.914737,22.0042687 C58.1266154,22.7664562 57.7348129,23.8487062 57.7348129,25.247925 C57.7348129,26.6471437 58.1266154,27.7234875 58.914737,28.4772375 C59.7039876,29.2307062 60.607561,29.6058937 61.6294091,29.6058937 C62.6495635,29.6058937 63.5539838,29.2242375 64.3435167,28.4606437 Z M108.862729,28.4606437 C109.64831,27.6978937 110.044064,26.6164875 110.044064,25.216425 C110.044064,23.816925 109.64831,22.741425 108.862729,21.9879562 C108.075736,21.2356125 107.171316,20.8587375 106.14975,20.8587375 C105.128467,20.8587375 104.224329,21.2409562 103.43536,22.0042687 C102.64865,22.7664562 102.253178,23.8487062 102.253178,25.247925 C102.253178,26.6471437 102.64865,27.7234875 103.43536,28.4772375 C104.224329,29.2307062 105.128467,29.6058937 106.14975,29.6058937 C107.171316,29.6058937 108.075736,29.2242375 108.862729,28.4606437 Z" id="Combined-Shape" fill="url(#linearGradient-1)"></path>
                            <path d="M220.94713,29.4785156 L222.895134,29.4785156 L222.895134,34.0910156 L220.117513,34.0910156 C218.115312,34.0910156 216.568991,33.6502969 215.472056,32.7708281 C214.376816,31.8907969 213.82722,30.3787969 213.82722,28.2384844 L213.82722,20.8587656 L212.169398,20.8587656 L212.169398,16.3430156 L213.82722,16.3430156 L213.82722,12.0159844 L219.28705,12.0159844 L219.28705,16.3430156 L222.861825,16.3430156 L222.861825,20.8587656 L219.28705,20.8587656 L219.28705,28.2384844 C219.28705,29.0647969 219.839751,29.4785156 220.94713,29.4785156 Z M204.898469,16.3430156 L204.898469,19.6491094 C206.176908,17.3189531 207.879047,16.1500781 210.007145,16.1500781 L210.007145,21.6862031 L208.664628,21.6862031 C207.410183,21.6862031 206.470196,21.9820781 205.840432,22.5755156 C205.213209,23.1700781 204.898469,24.2095781 204.898469,25.6926094 L204.898469,34.0910156 L199.439485,34.0910156 L199.439485,16.3430156 L204.898469,16.3430156 Z M189.250926,28.5233906 C189.973559,27.7600781 190.336004,26.6595469 190.336004,25.2164531 C190.336004,23.7742031 189.962832,22.6759219 189.218746,21.9244219 C188.473813,21.1717969 187.589999,20.7954844 186.568434,20.7954844 C185.545174,20.7954844 184.669828,21.1717969 183.935904,21.9244219 C183.200569,22.6759219 182.834736,23.7742031 182.834736,25.2164531 C182.834736,26.6595469 183.211013,27.7600781 183.965544,28.5233906 C184.72205,29.2867031 185.61038,29.6694844 186.634487,29.6694844 C187.654641,29.6694844 188.528011,29.2867031 189.250926,28.5233906 Z M179.977231,31.8005156 C178.177706,30.1267969 177.280907,27.9206719 177.280907,25.1843906 C177.280907,22.4489531 178.174318,20.2599844 179.961988,18.6155156 C181.748528,16.9730156 183.962156,16.1500781 186.600613,16.1500781 C189.240482,16.1500781 191.448182,16.9730156 193.227101,18.6155156 C195.000092,20.2599844 195.890963,22.4489531 195.890963,25.1843906 C195.890963,27.9206719 195.006866,30.1267969 193.242344,31.8005156 C191.474434,33.4756406 189.272379,34.3132031 186.634487,34.3132031 C183.993207,34.3132031 181.773651,33.4756406 179.977231,31.8005156 Z M168.16557,28.4769844 C168.952563,27.7235156 169.346906,26.6471719 169.346906,25.2479531 C169.346906,23.8484531 168.952563,22.7664844 168.16557,22.0042969 C167.37886,21.2409844 166.474158,20.8587656 165.452592,20.8587656 C164.42905,20.8587656 163.526041,21.2353594 162.73792,21.9879844 C161.951492,22.7414531 161.55602,23.8169531 161.55602,25.2164531 C161.55602,26.6165156 161.951492,27.6979219 162.73792,28.4606719 C163.526041,29.2242656 164.42905,29.6059219 165.452592,29.6059219 C166.474158,29.6059219 167.37886,29.2307344 168.16557,28.4769844 Z M161.55602,18.6636094 C162.768406,16.9893281 164.510628,16.1500781 166.775913,16.1500781 C169.042045,16.1500781 170.962385,17.0039531 172.539475,18.7117031 C174.113178,20.4174844 174.901582,22.5977344 174.901582,25.2479531 C174.901582,27.8995781 174.113178,30.0727969 172.539475,31.7690156 C170.962385,33.4649531 169.060675,34.3132031 166.82503,34.3132031 C164.590513,34.3132031 162.834459,33.3800156 161.55602,31.5133594 L161.55602,42.5512969 L156.096472,42.5512969 L156.096472,16.3430156 L161.55602,16.3430156 L161.55602,18.6636094 Z M144.811825,28.4606719 C145.598535,27.6979219 145.994007,26.6165156 145.994007,25.2164531 C145.994007,23.8169531 145.598535,22.7414531 144.811825,21.9879844 C144.025679,21.2353594 143.121259,20.8587656 142.099975,20.8587656 C141.076434,20.8587656 140.172578,21.2409844 139.385303,22.0042969 C138.597464,22.7664844 138.20425,23.8484531 138.20425,25.2479531 C138.20425,26.6471719 138.597464,27.7235156 139.385303,28.4769844 C140.172578,29.2307344 141.076434,29.6059219 142.099975,29.6059219 C143.121259,29.6059219 144.025679,29.2242656 144.811825,28.4606719 Z M135.01168,31.7690156 C133.437696,30.0727969 132.649009,27.8995781 132.649009,25.2479531 C132.649009,22.5977344 133.437696,20.4174844 135.01168,18.7117031 C136.58623,17.0039531 138.507699,16.1500781 140.773549,16.1500781 C143.041656,16.1500781 144.780774,16.9893281 145.994007,18.6636094 L145.994007,16.3430156 L151.453273,16.3430156 L151.453273,34.0910156 L145.994007,34.0910156 L145.994007,31.5133594 C144.675202,33.3800156 142.907009,34.3132031 140.693946,34.3132031 C138.480318,34.3132031 136.58623,33.4649531 135.01168,31.7690156 Z M125.607008,16.3430156 L125.607008,19.6491094 C126.884883,17.3189531 128.587022,16.1500781 130.716813,16.1500781 L130.716813,21.6862031 L129.374861,21.6862031 C128.119004,21.6862031 127.177323,21.9820781 126.549536,22.5755156 C125.923442,23.1700781 125.607008,24.2095781 125.607008,25.6926094 L125.607008,34.0910156 L120.149154,34.0910156 L120.149154,16.3430156 L125.607008,16.3430156 Z" id="Fill-11" fill="url(#linearGradient-2)"></path>
                            <mask id="mask-4" fill="white">
                                <use xlink:href="#path-3"></use>
                            </mask>
                            <g id="Clip-15"></g>
                            <polygon id="Fill-14" fill="url(#linearGradient-2)" mask="url(#mask-4)" points="0.00141139241 0 0 45 0.00141139241 45 45.1659684 45 45.1659684 39.5530313 5.46886329 39.5530313 5.46886329 5.4466875 39.6996456 5.4466875 39.6996456 10.893375 45.1659684 10.893375 45.1659684 0"></polygon>
                        </g>
                    </g>
                </g>
            </g>
        </g>
    </g>
</svg>