<?xml version="1.0" encoding="UTF-8" standalone="no"?>
<svg width="18px" height="18px" viewBox="0 0 18 18" version="1.1" xmlns="http://www.w3.org/2000/svg" xmlns:xlink="http://www.w3.org/1999/xlink">
    <!-- Generator: Sketch 50.2 (55047) - http://www.bohemiancoding.com/sketch -->
    <title>minus-2</title>
    <desc>Created with Sketch.</desc>
    <defs>
        <linearGradient x1="100%" y1="50%" x2="-2.22044605e-14%" y2="50%" id="linearGradient-1">
            <stop stop-color="#32ADC9" offset="0%"></stop>
            <stop stop-color="#17EAA6" offset="100%"></stop>
        </linearGradient>
    </defs>
    <g id="Page-1" stroke="none" stroke-width="1" fill="none" fill-rule="evenodd">
        <g id="Test-2---Pytania" transform="translate(-1354.000000, -592.000000)" fill="url(#linearGradient-1)" fill-rule="nonzero">
            <g id="1" transform="translate(427.000000, 568.000000)">
                <g id="+--copy" transform="translate(927.000000, 0.000000)">
                    <g id="minus-2" transform="translate(0.000000, 24.000000)">
                        <path d="M8.2826087,9.7173913 L9.7173913,9.7173913 L12.5869565,9.7173913 C12.9831608,9.7173913 13.3043478,9.39620424 13.3043478,9 C13.3043478,8.60379576 12.9831608,8.2826087 12.5869565,8.2826087 L9.7173913,8.2826087 L8.2826087,8.2826087 L5.41304348,8.2826087 C5.0168392,8.2826087 4.69565217,8.60379576 4.69565217,9 C4.69565217,9.39620424 5.0168392,9.7173913 5.41304348,9.7173913 L8.2826087,9.7173913 Z M9,0 C13.9705627,0 18,4.02943725 18,9 C18,13.9705627 13.9705627,18 9,18 C4.02943725,18 0,13.9705627 0,9 C2.45957101e-15,4.02943725 4.02943725,-2.45957101e-15 9,0 Z" id="Shape"></path>
                    </g>
                </g>
            </g>
        </g>
    </g>
</svg>