<?xml version="1.0" encoding="UTF-8" standalone="no"?>
<svg width="34px" height="42px" viewBox="0 0 34 42" version="1.1" xmlns="http://www.w3.org/2000/svg" xmlns:xlink="http://www.w3.org/1999/xlink">
    <!-- Generator: Sketch 50.2 (55047) - http://www.bohemiancoding.com/sketch -->
    <title>lokalizacja copy 2</title>
    <desc>Created with Sketch.</desc>
    <defs>
        <path d="M23.5416306,35 L16.6464466,41.895184 L9.75126266,35 L0,35 L0,0 L34,0 L34,35 L23.5416306,35 Z" id="path-1"></path>
    </defs>
    <g id="Page-1" stroke="none" stroke-width="1" fill="none" fill-rule="evenodd" opacity="0.900000036">
        <g id="Nova-Corps---Mobile" transform="translate(-190.000000, -3496.000000)">
            <g id="kontakt" transform="translate(0.000000, 2872.000000)">
                <g id="Mapa" transform="translate(25.000000, 548.000000)">
                    <g id="lokalizacja-copy-2" transform="translate(165.000000, 76.000000)">
                        <g id="Combined-Shape" stroke-linejoin="square">
                            <path stroke="#FFFFFF" stroke-width="3" d="M32.5,33.5 L32.5,1.5 L1.5,1.5 L1.5,33.5 L10.372583,33.5 L16.6464466,39.7738636 L22.9203102,33.5 L32.5,33.5 Z" fill="#202020" fill-rule="evenodd"></path>
                            <path stroke="#202020" stroke-width="2" d="M33,34 L33,1 L1,1 L1,34 L10.1654762,34 L16.6464466,40.4809704 L23.127417,34 L33,34 Z"></path>
                        </g>
                        <g id="Group-Copy-2" transform="translate(8.000000, 12.000000)" fill="#FFFFFF" fill-rule="nonzero">
                            <rect id="Rectangle-path" x="0" y="3" width="12" height="2"></rect>
                            <polygon id="Shape" points="1 6 1 11 2.6925964 11 2.6925964 8.60266034 4.41122344 11 6 11 6 6 4.30710091 6 4.30710091 8.39761563 2.58968461 6"></polygon>
                            <path d="M17.046291,5.32984676 C16.1679416,5.32984676 15.45325,4.50878099 15.45325,3.49969869 C15.45325,2.49061639 16.1679416,1.66985193 17.046291,1.66985193 C17.6416488,1.66985193 18.1806181,2.05281508 18.4531189,2.64548898 L19.9976396,2.64548898 C19.6593085,1.10399449 18.4418412,0 17.046291,0 C15.3667002,0 14,1.56981749 14,3.49969869 C14,5.4298812 15.3667002,7 17.046291,7 C18.4447261,7 19.6645539,5.89118457 20,4.34486915 L18.4570529,4.34486915 C18.1858635,4.94266529 17.6445338,5.32984676 17.046291,5.32984676 Z" id="Shape"></path>
                        </g>
                    </g>
                </g>
            </g>
        </g>
    </g>
</svg>