<?xml version="1.0" encoding="UTF-8" standalone="no"?>
<svg width="33px" height="33px" viewBox="0 0 33 33" version="1.1" xmlns="http://www.w3.org/2000/svg" xmlns:xlink="http://www.w3.org/1999/xlink">
    <!-- Generator: Sketch 50.2 (55047) - http://www.bohemiancoding.com/sketch -->
    <title>projektowanie-graficzne-ico</title>
    <desc>Created with Sketch.</desc>
    <defs>
        <linearGradient x1="50%" y1="100%" x2="50%" y2="-2.48949813e-15%" id="linearGradient-1">
            <stop stop-color="#32ADC9" offset="0%"></stop>
            <stop stop-color="#17EAA6" offset="100%"></stop>
        </linearGradient>
    </defs>
    <g id="Page-1" stroke="none" stroke-width="1" fill="none" fill-rule="evenodd">
        <g id="Home" transform="translate(-363.000000, -7309.000000)" fill="url(#linearGradient-1)" fill-rule="nonzero">
            <g id="Wdrozenia" transform="translate(0.000000, 7000.000000)">
                <g id="projektowanie-graficzne-ico" transform="translate(363.000000, 309.000000)">
                    <path d="M31.6281109,22.8155531 L25.3224392,16.5031097 L31.1673911,10.6582546 C33.6064887,8.22204567 33.6087977,4.26986165 31.1725484,1.83080448 C28.7362991,-0.608252684 24.7840496,-0.610561682 22.3449519,1.82564719 L16.5,7.67050224 L10.1874519,1.37524954 C8.35639349,-0.45390566 5.38964723,-0.45390566 3.5585888,1.37524954 L1.37188914,3.56191296 C-0.457296379,5.39294104 -0.457296379,8.35963813 1.37188914,10.1906662 L7.6775608,16.5031097 L4.99575933,19.1848667 C2.6677989,21.5006338 1.36291212,24.6513756 1.37188914,27.9349585 L1.37188914,30.2557098 C1.37188914,31.0152449 1.98762422,31.6309698 2.74717194,31.6309698 L5.06796168,31.6309698 C8.35159903,31.6399467 11.502393,30.3350815 13.8181985,28.0071597 L16.5,25.3254026 L22.8125481,31.6309698 C24.6451702,33.4563434 27.6087891,33.4563434 29.4414112,31.6309698 L31.6281109,29.4443064 C33.4572964,27.6132783 33.4572964,24.6465812 31.6281109,22.8155531 Z M24.3012917,3.78195456 C25.297049,2.78621879 26.7940782,2.48729472 28.0958918,3.02425571 C29.3977054,3.5612167 30.2486505,4.82861329 30.2528281,6.23679368 C30.2554735,7.16397463 29.883523,8.05292172 29.221366,8.70194725 L23.376414,14.5468023 L18.4460252,9.62680961 L24.3012917,3.78195456 Z M11.8721734,26.0611667 C10.0719984,27.8724338 7.6216598,28.8877165 5.06796168,28.8804498 L4.12241601,28.8804885 L4.12245475,27.9349585 C4.11518794,25.3813027 5.13048742,22.9310047 6.9417845,21.1308596 L9.62358597,18.4491026 L14.5539748,23.3794097 L11.8721734,26.0611667 Z M29.6889621,27.5051898 L27.5022624,29.6918532 C27.1387287,30.0588739 26.6435699,30.2653602 26.1269796,30.2653602 C25.6103894,30.2653602 25.1152306,30.0588739 24.7516968,29.6918532 L3.31103789,8.2515496 C2.94486372,7.88756672 2.73896452,7.39258661 2.73896452,6.87628958 C2.73896452,6.35999256 2.94486372,5.86501245 3.31103789,5.50102957 L5.49773755,3.31436615 C5.86217791,2.949046 6.35699709,2.74373665 6.87302036,2.74373665 C7.38904363,2.74373665 7.88386281,2.949046 8.24830316,3.31436615 L9.74048501,4.81339957 L7.27529058,7.27855314 C6.73791058,7.81592425 6.73791059,8.68717494 7.27529059,9.22454604 C7.8126706,9.76191714 8.68393574,9.76191715 9.22131575,9.22454605 L11.6865102,6.75939248 L13.8663334,8.9391796 L12.7764218,10.0290732 C12.2390418,10.5664443 12.2390418,11.437695 12.7764218,11.975066 C13.3138018,12.5124371 14.185067,12.5124372 14.722447,11.9750661 L15.8123586,10.8851725 L17.9921818,13.0649596 L15.5269874,15.5301132 C14.9896074,16.0674843 14.9896074,16.938735 15.5269874,17.4761061 C16.0643674,18.0134772 16.9356326,18.0134772 17.4730126,17.4761061 L19.938207,15.0109526 L22.1180303,17.1907397 L21.0281186,18.2806332 C20.4907386,18.8180043 20.4907386,19.689255 21.0281186,20.2266261 C21.5654987,20.7639973 22.4367638,20.7639973 22.9741438,20.2266261 L24.0640554,19.1367326 L26.2438787,21.3165197 L23.7786843,23.7816733 C23.2413042,24.3190444 23.2413042,25.1902951 23.7786843,25.7276662 C24.3160643,26.2650373 25.1873294,26.2650373 25.7247094,25.7276662 L28.1899038,23.2625126 L29.6889621,24.7546697 C30.0551363,25.1186526 30.2610355,25.6136327 30.2610355,26.1299297 C30.2610355,26.6462268 30.0551363,27.1412069 29.6889621,27.5051898 Z" id="Shape"></path>
                </g>
            </g>
        </g>
    </g>
</svg>