<?xml version="1.0" encoding="UTF-8" standalone="no"?>
<svg width="33px" height="25px" viewBox="0 0 33 25" version="1.1" xmlns="http://www.w3.org/2000/svg" xmlns:xlink="http://www.w3.org/1999/xlink">
    <!-- Generator: Sketch 50.2 (55047) - http://www.bohemiancoding.com/sketch -->
    <title>Group 16</title>
    <desc>Created with Sketch.</desc>
    <defs></defs>
    <g id="Page-1" stroke="none" stroke-width="1" fill="none" fill-rule="evenodd">
        <g id="Nova-Corps---Desktop" transform="translate(-903.000000, -2990.000000)">
            <g id="Opinie-klientow" transform="translate(0.000000, 2624.000000)">
                <g id="Opinia" transform="translate(442.000000, 194.000000)">
                    <g id="Group-16" transform="translate(461.000000, 172.000000)">
                        <g>
                            <polygon id="Path-12" fill="#FFFFFF" points="31.3023163 0.000137329102 3.17529297 0.000137329102 31.0319542 22.6873716"></polygon>
                            <path d="M1.02704693,22.9931837 L-0.580928679,24.2321997 L1.02943472,25.0231444 L1.02704693,22.9931837 Z M1.02702438,22.974013 L1.00117696,1 L1.98454552,1 L1.00001889,0.0154733722 L0.999999308,-0.00117627134 L0.991689169,0.00714364855 L0.98454552,0 L0.98454552,0.0142957049 L0,1 L0.98454552,1 L0.98454552,23.006722 L1.02702438,22.974013 Z M29.5617887,1.00202184 L29.8341177,0.792326362 L29.2180866,0.999982396 L29.5617887,1.00202184 Z M29.5667953,1.00205155 L32.4745974,1.01930572 L31.870167,-0.772797673 L29.5667953,1.00205155 Z" id="Path-4" stroke="#E1E1E1" stroke-width="2" transform="translate(16.240266, 12.512160) scale(-1, 1) translate(-16.240266, -12.512160) "></path>
                        </g>
                    </g>
                </g>
            </g>
        </g>
    </g>
</svg>