<?xml version="1.0" encoding="UTF-8" standalone="no"?>
<svg width="39px" height="31px" viewBox="0 0 39 31" version="1.1" xmlns="http://www.w3.org/2000/svg" xmlns:xlink="http://www.w3.org/1999/xlink">
    <!-- Generator: Sketch 50.2 (55047) - http://www.bohemiancoding.com/sketch -->
    <title>szkolenie-personelu-ico</title>
    <desc>Created with Sketch.</desc>
    <defs>
        <linearGradient x1="50%" y1="100%" x2="50%" y2="-2.48949813e-15%" id="linearGradient-1">
            <stop stop-color="#32ADC9" offset="0%"></stop>
            <stop stop-color="#17EAA6" offset="100%"></stop>
        </linearGradient>
    </defs>
    <g id="Page-1" stroke="none" stroke-width="1" fill="none" fill-rule="evenodd">
        <g id="Home" transform="translate(-948.000000, -7310.000000)" fill="url(#linearGradient-1)" fill-rule="nonzero">
            <g id="Wdrozenia" transform="translate(0.000000, 7000.000000)">
                <g id="Group-5-Copy-3" transform="translate(918.000000, 257.000000)">
                    <g id="szkolenie-personelu-ico" transform="translate(30.000000, 53.000000)">
                        <path d="M37.2788169,21.0736976 L37.2788169,9.9656925 C38.4389347,8.94155019 38.1189022,7.64167726 36.1987073,6.7750953 L23.2373913,0.787801779 C22.0772735,0.236340534 20.5171151,0 18.9969608,0 C17.4768065,0 15.9166481,0.275730623 14.7565303,0.787801779 L1.75521026,6.73570521 C-0.565025317,7.79923761 -0.605029378,9.57179161 1.75521026,10.635324 L6.03564485,12.6048285 L6.03564485,21.6251588 L6.07564891,21.9796696 C6.23566515,22.4917408 7.79582356,26.9034307 18.9569567,26.9034307 C30.1180899,26.9034307 31.7182524,22.4917408 31.8382646,21.9796696 L31.9182727,12.6048285 L34.5185367,11.4231258 L34.5185367,21.1130877 C33.9184758,21.9008895 32.758358,23.5946633 32.758358,25.6035578 C32.758358,28.321474 34.7985651,30.4485388 34.8785733,30.566709 C35.1185976,30.8424396 35.4786342,31 35.8786748,31 C36.2387113,31 36.5987479,30.8424396 36.8787763,30.566709 C36.9587845,30.4879288 38.9989916,28.360864 38.9989916,25.6035578 C39.0389957,23.5158831 37.8788779,21.8221093 37.2788169,21.0736976 Z M29.1979965,21.3494282 C28.83796,21.9402795 26.8777609,24.2249047 18.9969608,24.2249047 C10.9961485,24.2249047 9.11595759,21.8614994 8.7959251,21.3494282 L8.7959251,13.8653113 L14.7565303,16.5832274 C15.9166481,17.1346887 17.4768065,17.3710292 18.9969608,17.3710292 C20.5171151,17.3710292 22.0772735,17.0952986 23.2373913,16.5832274 L29.1979965,13.8653113 L29.1979965,21.3494282 Z M22.0772735,14.180432 C21.3171964,14.5349428 20.1570786,14.7318933 18.9969608,14.7318933 C17.836843,14.7318933 16.6767252,14.5349428 15.9166481,14.180432 L3.9954377,8.70520966 L15.9166481,3.22998729 C16.6767252,2.87547649 17.836843,2.67852605 18.9969608,2.67852605 C20.1570786,2.67852605 21.3171964,2.87547649 22.0772735,3.22998729 L33.9584798,8.70520966 L22.0772735,14.180432 Z M35.9186789,27.1791614 C35.7186585,26.7064803 35.5186382,26.1550191 35.5186382,25.6035578 C35.5186382,25.0520966 35.6786545,24.5006353 35.9186789,24.0279543 C36.1186992,24.5006353 36.3187195,25.0520966 36.3187195,25.6035578 C36.2787154,26.1550191 36.1186992,26.7064803 35.9186789,27.1791614 Z" id="Shape"></path>
                    </g>
                </g>
            </g>
        </g>
    </g>
</svg>