<?xml version="1.0" encoding="UTF-8" standalone="no"?>
<svg width="350px" height="77px" viewBox="0 0 350 77" version="1.1" xmlns="http://www.w3.org/2000/svg" xmlns:xlink="http://www.w3.org/1999/xlink">
    <!-- Generator: Sketch 50.2 (55047) - http://www.bohemiancoding.com/sketch -->
    <title>Wiz-logo</title>
    <desc>Created with Sketch.</desc>
    <defs>
        <polygon id="path-1" points="0 76.8687 349.997 76.8687 349.997 -0.0003 0 -0.0003"></polygon>
    </defs>
    <g id="Wiz-logo" stroke="none" stroke-width="1" fill="none" fill-rule="evenodd">
        <g id="Group">
            <path d="M126.2422,64.5953 L122.8452,64.5953 L122.8452,69.3623 L125.9592,69.3623 C126.8262,69.3623 127.4902,69.1683 127.9462,68.7783 C128.4032,68.3903 128.6312,67.8263 128.6312,67.0853 C128.6312,65.4253 127.8352,64.5953 126.2422,64.5953 Z M122.8452,58.4913 L122.8452,62.7493 L125.5742,62.7493 C126.3592,62.7493 126.9702,62.5683 127.4082,62.2063 C127.8462,61.8433 128.0652,61.3303 128.0652,60.6653 C128.0652,59.2153 127.1442,58.4913 125.3022,58.4913 L122.8452,58.4913 Z M125.9592,71.3433 L120.3652,71.3433 L120.3652,56.5093 L125.3022,56.5093 C126.9772,56.5093 128.2692,56.8493 129.1752,57.5283 C130.0812,58.2073 130.5342,59.2153 130.5342,60.5523 C130.5342,61.2253 130.3422,61.8243 129.9562,62.3533 C129.5712,62.8823 129.0342,63.2783 128.3482,63.5413 C129.2232,63.7383 129.9012,64.1553 130.3812,64.7923 C130.8602,65.4303 131.1002,66.1953 131.1002,67.0853 C131.1002,68.4683 130.6512,69.5223 129.7522,70.2513 C128.8532,70.9803 127.5902,71.3433 125.9592,71.3433 Z" id="Fill-1" fill="#3C3C3B"></path>
            <path d="M138.209,71.3433 L135.729,71.3433 L135.729,60.3153 L137.995,60.3153 L138.153,61.9103 C138.757,60.7113 139.625,60.1113 140.757,60.1113 C141.044,60.1113 141.3,60.1523 141.528,60.2343 L141.222,62.5453 L140.168,62.5113 C139.224,62.5113 138.572,62.8993 138.209,63.6773 L138.209,71.3433 Z" id="Fill-3" fill="#3C3C3B"></path>
            <path d="M147.3003,68.2188 L147.3113,68.2188 C147.3113,68.6488 147.4493,68.9848 147.7253,69.2258 C148.0003,69.4688 148.4173,69.5878 148.9773,69.5878 C149.5353,69.5878 150.0633,69.4378 150.5623,69.1358 C151.0593,68.8348 151.3963,68.4748 151.5693,68.0598 L151.5693,66.4298 L149.5993,66.4298 C148.9043,66.4298 148.3473,66.6018 147.9293,66.9448 C147.5093,67.2878 147.3003,67.7138 147.3003,68.2188 M148.3983,71.5818 C147.2593,71.5818 146.3793,71.2898 145.7603,70.7028 C145.1413,70.1188 144.8313,69.2968 144.8313,68.2358 C144.8313,67.1748 145.2503,66.3498 146.0893,65.7608 C146.9263,65.1718 148.1153,64.8788 149.6553,64.8788 L151.5813,64.8788 L151.5813,63.9048 C151.5813,63.3228 151.4113,62.8698 151.0713,62.5458 C150.7323,62.2198 150.2613,62.0578 149.6613,62.0578 C149.0613,62.0578 148.5933,62.1918 148.2573,62.4598 C147.9213,62.7288 147.7533,63.0818 147.7533,63.5188 L145.3643,63.5188 L145.3523,63.4628 C145.3073,62.5638 145.7033,61.7838 146.5423,61.1248 C147.3793,60.4638 148.4553,60.1328 149.7693,60.1328 C151.0823,60.1328 152.1243,60.4638 152.8953,61.1248 C153.6643,61.7838 154.0493,62.7188 154.0493,63.9268 L154.0493,68.8298 C154.0493,69.7368 154.1813,70.5818 154.4463,71.3668 L151.9323,71.3778 C151.7513,70.8038 151.6373,70.2638 151.5923,69.7588 C151.2303,70.3018 150.7733,70.7418 150.2213,71.0768 C149.6713,71.4128 149.0633,71.5818 148.3983,71.5818" id="Fill-5" fill="#3C3C3B"></path>
            <path d="M164.5562,60.1109 C165.7342,60.1109 166.6392,60.4649 167.2682,61.1739 C167.8982,61.8839 168.2142,62.9639 168.2142,64.4139 L168.2142,71.3429 L165.7342,71.3429 L165.7342,64.4369 C165.7342,63.6129 165.5662,63.0249 165.2302,62.6699 C164.8942,62.3159 164.3682,62.1379 163.6512,62.1379 C162.6992,62.1379 161.9552,62.5379 161.4202,63.3379 L161.4202,71.3429 L158.9402,71.3429 L158.9402,60.3149 L161.2042,60.3259 L161.3522,61.9219 C162.1142,60.7149 163.1822,60.1109 164.5562,60.1109" id="Fill-7" fill="#3C3C3B"></path>
            <path d="M175.1191,66.0098 L175.1191,66.2258 C175.1191,67.2818 175.3211,68.1038 175.7251,68.6898 C176.1281,69.2738 176.7421,69.5658 177.5651,69.5658 C178.5701,69.5658 179.3171,69.1328 179.8071,68.2628 L179.8071,63.4628 C179.3021,62.5938 178.5611,62.1598 177.5891,62.1598 C176.7651,62.1598 176.1481,62.5038 175.7371,63.1908 C175.3261,63.8778 175.1191,64.8178 175.1191,66.0098 M172.6501,66.2258 L172.6501,66.0098 C172.6501,64.2198 173.0301,62.7948 173.7891,61.7298 C174.5481,60.6658 175.6031,60.1328 176.9541,60.1328 C178.1241,60.1328 179.0711,60.6008 179.7951,61.5378 L179.7951,55.4678 L182.2651,55.4678 L182.2651,71.3668 L180.1921,71.3668 L179.9431,69.9958 C179.2191,71.0538 178.2021,71.5818 176.8911,71.5818 C175.5821,71.5818 174.5481,71.0968 173.7891,70.1258 C173.0301,69.1568 172.6501,67.8568 172.6501,66.2258" id="Fill-9" fill="#3C3C3B"></path>
            <mask id="mask-2" fill="white">
                <use xlink:href="#path-1"></use>
            </mask>
            <g id="Clip-12"></g>
            <path d="M187.415,71.3437 L189.883,71.3437 L189.883,60.3157 L187.415,60.3157 L187.415,71.3437 Z M187.415,57.6197 L189.883,57.6197 L189.883,55.4457 L187.415,55.4457 L187.415,57.6197 Z" id="Fill-11" fill="#3C3C3B" mask="url(#mask-2)"></path>
            <path d="M200.5703,60.1109 C201.7483,60.1109 202.6533,60.4649 203.2823,61.1739 C203.9133,61.8839 204.2283,62.9639 204.2283,64.4139 L204.2283,71.3429 L201.7483,71.3429 L201.7483,64.4369 C201.7483,63.6129 201.5803,63.0249 201.2443,62.6699 C200.9083,62.3159 200.3823,62.1379 199.6653,62.1379 C198.7133,62.1379 197.9693,62.5379 197.4343,63.3379 L197.4343,71.3429 L194.9543,71.3429 L194.9543,60.3149 L197.2193,60.3259 L197.3663,61.9219 C198.1293,60.7149 199.1963,60.1109 200.5703,60.1109" id="Fill-13" fill="#3C3C3B" mask="url(#mask-2)"></path>
            <path d="M211.144,66.4742 L211.144,66.6902 C211.144,67.7392 211.352,68.5582 211.767,69.1462 C212.182,69.7372 212.804,70.0292 213.636,70.0292 C214.655,70.0292 215.394,69.6042 215.855,68.7512 L215.855,63.9142 C215.372,63.0622 214.64,62.6362 213.658,62.6362 C212.828,62.6362 212.202,62.9822 211.779,63.6722 C211.356,64.3622 211.144,65.2962 211.144,66.4742 M209.842,62.2062 C210.612,61.1412 211.661,60.6082 212.99,60.6082 C214.319,60.6082 215.334,61.1572 216.036,62.2502 L216.286,60.8132 L218.347,60.8132 L218.347,71.8422 C218.347,73.2692 217.911,74.3682 217.038,75.1372 C216.167,75.9072 214.919,76.2932 213.296,76.2932 C212.751,76.2932 212.173,76.2172 211.558,76.0662 C210.942,75.9142 210.382,75.7112 209.876,75.4552 L210.409,73.5062 C211.269,73.9602 212.186,74.1862 213.159,74.1862 C214.133,74.1862 214.828,73.9962 215.243,73.6142 C215.659,73.2322 215.867,72.6432 215.867,71.8422 L215.867,70.7092 C215.149,71.6082 214.194,72.0572 213.001,72.0572 C211.657,72.0572 210.601,71.5702 209.83,70.5962 C209.061,69.6212 208.675,68.3212 208.675,66.6902 L208.687,66.4742 C208.687,64.6932 209.072,63.2692 209.842,62.2062" id="Fill-14" fill="#3C3C3B" mask="url(#mask-2)"></path>
            <path d="M233.4819,68.2188 L233.4939,68.2188 C233.4939,68.6488 233.6309,68.9848 233.9069,69.2258 C234.1829,69.4688 234.5989,69.5878 235.1589,69.5878 C235.7169,69.5878 236.2459,69.4378 236.7439,69.1358 C237.2419,68.8348 237.5779,68.4748 237.7509,68.0598 L237.7509,66.4298 L235.7809,66.4298 C235.0859,66.4298 234.5289,66.6018 234.1109,66.9448 C233.6909,67.2878 233.4819,67.7138 233.4819,68.2188 M234.5799,71.5818 C233.4409,71.5818 232.5609,71.2898 231.9409,70.7028 C231.3239,70.1188 231.0139,69.2968 231.0139,68.2358 C231.0139,67.1748 231.4319,66.3498 232.2709,65.7608 C233.1079,65.1718 234.2969,64.8788 235.8379,64.8788 L237.7629,64.8788 L237.7629,63.9048 C237.7629,63.3228 237.5929,62.8698 237.2529,62.5458 C236.9139,62.2198 236.4429,62.0578 235.8429,62.0578 C235.2439,62.0578 234.7749,62.1918 234.4389,62.4598 C234.1029,62.7288 233.9349,63.0818 233.9349,63.5188 L231.5459,63.5188 L231.5349,63.4628 C231.4889,62.5638 231.8849,61.7838 232.7239,61.1248 C233.5619,60.4638 234.6369,60.1328 235.9509,60.1328 C237.2639,60.1328 238.3059,60.4638 239.0769,61.1248 C239.8459,61.7838 240.2309,62.7188 240.2309,63.9268 L240.2309,68.8298 C240.2309,69.7368 240.3629,70.5818 240.6279,71.3668 L238.1139,71.3778 C237.9329,70.8038 237.8189,70.2638 237.7739,69.7588 C237.4119,70.3018 236.9549,70.7418 236.4029,71.0768 C235.8529,71.4128 235.2449,71.5818 234.5799,71.5818" id="Fill-15" fill="#3C3C3B" mask="url(#mask-2)"></path>
            <path d="M247.1709,66.4742 L247.1709,66.6902 C247.1709,67.7392 247.3789,68.5582 247.7939,69.1462 C248.2089,69.7372 248.8309,70.0292 249.6629,70.0292 C250.6819,70.0292 251.4209,69.6042 251.8819,68.7512 L251.8819,63.9142 C251.3979,63.0622 250.6669,62.6362 249.6849,62.6362 C248.8549,62.6362 248.2289,62.9822 247.8059,63.6722 C247.3829,64.3622 247.1709,65.2962 247.1709,66.4742 M245.8689,62.2062 C246.6389,61.1412 247.6889,60.6082 249.0169,60.6082 C250.3459,60.6082 251.3609,61.1572 252.0629,62.2502 L252.3129,60.8132 L254.3739,60.8132 L254.3739,71.8422 C254.3739,73.2692 253.9379,74.3682 253.0649,75.1372 C252.1939,75.9072 250.9459,76.2932 249.3229,76.2932 C248.7789,76.2932 248.1999,76.2172 247.5849,76.0662 C246.9689,75.9142 246.4089,75.7112 245.9029,75.4552 L246.4359,73.5062 C247.2959,73.9602 248.2129,74.1862 249.1859,74.1862 C250.1609,74.1862 250.8549,73.9962 251.2699,73.6142 C251.6849,73.2322 251.8939,72.6432 251.8939,71.8422 L251.8939,70.7092 C251.1759,71.6082 250.2209,72.0572 249.0279,72.0572 C247.6839,72.0572 246.6279,71.5702 245.8579,70.5962 C245.0879,69.6212 244.7029,68.3212 244.7029,66.6902 L244.7139,66.4742 C244.7139,64.6932 245.0989,63.2692 245.8689,62.2062" id="Fill-16" fill="#3C3C3B" mask="url(#mask-2)"></path>
            <path d="M265.8994,64.4932 C265.8994,63.7752 265.7154,63.2012 265.3494,62.7712 C264.9834,62.3422 264.4734,62.1262 263.8214,62.1262 C263.1684,62.1262 262.6414,62.3632 262.2404,62.8332 C261.8404,63.3052 261.5954,63.9272 261.5054,64.6972 L261.5164,64.7532 L265.8994,64.7532 L265.8994,64.4932 Z M268.0614,70.2802 C267.0574,71.1482 265.7434,71.5812 264.1214,71.5812 C262.4974,71.5812 261.2204,71.0762 260.2874,70.0642 C259.3554,69.0532 258.8894,67.7352 258.8894,66.1122 L258.8894,65.7042 C258.8894,64.0892 259.3474,62.7552 260.2644,61.7022 C261.1824,60.6482 262.3574,60.1242 263.7924,60.1272 C265.2264,60.1312 266.3424,60.5772 267.1384,61.4642 C267.9344,62.3502 268.3334,63.5642 268.3334,65.1042 L268.3334,66.5662 L261.4604,66.5662 L261.4374,66.6222 C261.4824,67.5202 261.7444,68.2422 262.2244,68.7852 C262.7024,69.3282 263.3504,69.5992 264.1664,69.5992 C264.8154,69.5992 265.3764,69.5242 265.8484,69.3732 C266.3194,69.2222 266.7894,68.9852 267.2574,68.6602 L268.0504,70.2802 L268.0614,70.2802 Z" id="Fill-17" fill="#3C3C3B" mask="url(#mask-2)"></path>
            <path d="M278.25,60.1109 C279.428,60.1109 280.333,60.4649 280.963,61.1739 C281.592,61.8839 281.908,62.9639 281.908,64.4139 L281.908,71.3429 L279.428,71.3429 L279.428,64.4369 C279.428,63.6129 279.26,63.0249 278.924,62.6699 C278.588,62.3159 278.062,62.1379 277.345,62.1379 C276.393,62.1379 275.649,62.5379 275.114,63.3379 L275.114,71.3429 L272.634,71.3429 L272.634,60.3149 L274.899,60.3259 L275.046,61.9219 C275.809,60.7149 276.877,60.1109 278.25,60.1109" id="Fill-18" fill="#3C3C3B" mask="url(#mask-2)"></path>
            <path d="M288.8027,66.0328 L288.7907,66.0328 C288.7907,68.4108 289.6447,69.5998 291.3507,69.5998 C291.9617,69.5998 292.4717,69.4228 292.8787,69.0678 C293.2857,68.7128 293.4897,68.2678 293.4897,67.7308 L295.7327,67.7308 L295.7547,67.7878 C295.7937,68.8238 295.3757,69.7138 294.5037,70.4608 C293.6317,71.2078 292.5807,71.5818 291.3507,71.5818 C289.7567,71.5818 288.5187,71.0718 287.6357,70.0538 C286.7527,69.0338 286.3107,67.6938 286.3107,66.0328 L286.3107,65.6818 C286.3107,64.0298 286.7527,62.6908 287.6357,61.6678 C288.5187,60.6448 289.7567,60.1328 291.3507,60.1328 C292.6787,60.1328 293.7567,60.5188 294.5827,61.2878 C295.4097,62.0578 295.8077,63.0398 295.7787,64.2328 L295.7547,64.2888 L293.5017,64.2888 C293.5017,63.6698 293.3027,63.1558 292.9067,62.7428 C292.5107,62.3318 291.9957,62.1258 291.3617,62.1258 C290.4707,62.1258 289.8217,62.4438 289.4137,63.0778 C289.0067,63.7108 288.8027,64.5798 288.8027,65.6818 L288.8027,66.0328 Z" id="Fill-19" fill="#3C3C3B" mask="url(#mask-2)"></path>
            <path d="M301.1313,76.293 C300.8303,76.293 300.3843,76.225 299.7953,76.089 L300.0663,74.175 C300.5503,74.206 300.7993,74.22 300.8153,74.22 C301.5473,74.22 302.1203,73.714 302.5363,72.703 L302.9433,71.706 L298.9343,60.813 L301.6413,60.813 L303.7473,67.415 L303.9963,68.513 L304.0533,68.513 L306.4763,60.813 L309.1833,60.813 L304.6193,73.506 C304.2873,74.382 303.8493,75.064 303.3053,75.556 C302.7623,76.048 302.0373,76.293 301.1313,76.293" id="Fill-20" fill="#3C3C3B" mask="url(#mask-2)"></path>
            <polygon id="Fill-23" fill="#3C3C3B" mask="url(#mask-2)" points="138.4399 8.8453 144.0839 29.6493 144.2049 29.6493 148.3689 8.8453 155.4899 8.8453 148.2249 40.5733 141.2729 40.5733 135.9449 21.0033 135.8009 21.0033 130.5219 40.5733 123.5929 40.5733 116.2789 8.8453 123.4239 8.8453 127.5889 29.6493 127.7339 29.6493 133.3289 8.8453"></polygon>
            <polygon id="Fill-24" fill="#3C3C3B" mask="url(#mask-2)" points="159.369 13.7857 166.756 13.7857 166.756 8.8457 159.369 8.8457"></polygon>
            <polygon id="Fill-25" fill="#3C3C3B" mask="url(#mask-2)" points="159.369 40.5727 166.756 40.5727 166.756 16.9807 159.369 16.9807"></polygon>
            <polygon id="Fill-26" fill="#3C3C3B" mask="url(#mask-2)" points="191.8779 34.9053 191.8779 40.5723 171.8489 40.5723 171.8489 36.4803 182.3109 22.6493 172.2839 22.6493 172.2839 16.9813 191.6589 16.9813 191.6589 20.9553 181.1489 34.9053"></polygon>
            <path d="M204.332,41.0801 C201.829,41.0801 199.901,40.2861 198.543,38.6961 C197.187,37.1041 196.51,34.6791 196.51,31.4181 L196.51,17.0311 L203.872,17.0311 L203.872,31.4661 C203.872,34.0981 204.832,35.4131 206.753,35.4131 C208.32,35.4131 209.529,34.9781 210.386,34.1061 L210.386,17.0311 L217.749,17.0311 L217.749,40.6211 L211.306,40.6211 L210.846,37.8351 C209.279,39.9991 207.109,41.0801 204.332,41.0801" id="Fill-27" fill="#3C3C3B" mask="url(#mask-2)"></path>
            <path d="M230.1182,31.3809 C229.5612,31.9229 229.2822,32.5919 229.2822,33.3909 C229.2822,34.1909 229.5122,34.7969 229.9722,35.2079 C230.4332,35.6189 231.0252,35.8249 231.7512,35.8249 C233.2222,35.8249 234.3842,35.3009 235.2402,34.2519 L235.2402,30.5689 L232.6242,30.5689 C231.5092,30.5689 230.6752,30.8399 230.1182,31.3809 M229.5012,41.0799 C227.2402,41.0799 225.4152,40.4349 224.0282,39.1429 C222.6372,37.8519 221.9442,36.1319 221.9442,33.9849 C221.9442,31.5949 222.8232,29.7749 224.5842,28.5229 C226.3432,27.2719 228.9992,26.6459 232.5532,26.6459 L235.2402,26.6459 L235.2402,24.9749 C235.2402,22.8929 234.2712,21.8509 232.3352,21.8509 C230.6532,21.8509 229.8152,22.6729 229.8152,24.3199 L222.6962,24.2969 L222.6472,24.1759 C222.5502,21.9809 223.4442,20.1679 225.3342,18.7369 C227.2232,17.3099 229.6912,16.5939 232.7332,16.5939 C235.7782,16.5939 238.1872,17.3299 239.9642,18.7979 C241.7402,20.2689 242.6272,22.3429 242.6272,25.0239 L242.6272,33.9119 C242.6272,36.2699 243.0482,38.5059 243.8872,40.6209 L236.6212,40.5959 C236.1852,39.7579 235.8612,38.8609 235.6512,37.9079 C234.1182,40.0239 232.0692,41.0799 229.5012,41.0799" id="Fill-28" fill="#3C3C3B" mask="url(#mask-2)"></path>
            <polygon id="Fill-29" fill="#3C3C3B" mask="url(#mask-2)" points="248.276 40.5727 255.662 40.5727 255.662 6.5687 248.276 6.5687"></polygon>
            <path d="M261.2856,16.981 L268.1876,16.981 L268.4776,20.3 C270.1096,17.798 272.3286,16.546 275.1396,16.546 C280.0476,16.546 282.4996,19.679 282.4996,25.944 L282.4996,40.573 L275.1396,40.573 L275.1396,25.919 C275.1396,24.595 274.8686,23.648 274.3276,23.074 C273.7866,22.501 272.9106,22.214 271.6996,22.214 C270.4876,22.214 269.4626,22.682 268.6236,23.619 L268.6236,40.573 L261.2856,40.573 L261.2856,16.981 Z" id="Fill-30" fill="#3C3C3B" mask="url(#mask-2)"></path>
            <polygon id="Fill-31" fill="#3C3C3B" mask="url(#mask-2)" points="288.076 13.7857 295.463 13.7857 295.463 8.8457 288.076 8.8457"></polygon>
            <polygon id="Fill-32" fill="#3C3C3B" mask="url(#mask-2)" points="288.076 40.5727 295.463 40.5727 295.463 16.9807 288.076 16.9807"></polygon>
            <polygon id="Fill-33" fill="#7CAB2B" mask="url(#mask-2)" points="302.081 40.5727 309.443 40.5727 309.443 34.3717 302.081 34.3717"></polygon>
            <path d="M326.8145,23.231 C325.1665,23.231 324.0025,23.829 323.3265,25.023 L323.3265,34.856 C323.9715,35.858 325.1425,36.358 326.8385,36.358 C329.2435,36.358 330.4465,34.332 330.4465,30.279 L330.4705,29.819 C330.4705,25.427 329.2505,23.231 326.8145,23.231 M328.6795,42.026 C326.4675,42.026 324.6895,41.178 323.3505,39.483 L323.3505,50.648 L315.9635,50.648 L315.9635,18 L322.8665,18 L323.1325,20.592 C324.5215,18.573 326.3465,17.564 328.6055,17.564 C331.5125,17.564 333.7725,18.67 335.3875,20.881 C337.0035,23.094 337.8105,26.073 337.8105,29.819 L337.8345,30.279 C337.8345,33.897 337.0295,36.757 335.4235,38.864 C333.8175,40.971 331.5685,42.026 328.6795,42.026" id="Fill-34" fill="#7CAB2B" mask="url(#mask-2)"></path>
            <polygon id="Fill-35" fill="#7CAB2B" mask="url(#mask-2)" points="342.61 40.5727 349.997 40.5727 349.997 6.5687 342.61 6.5687"></polygon>
            <g id="Sygnet" mask="url(#mask-2)">
                <path d="M46.4424,0 L46.4424,76.869 L48.4704,76.681 C53.7564,76.194 58.8264,74.721 63.5354,72.303 C64.5844,71.767 65.6504,71.175 66.7044,70.543 L67.6074,70.002 L67.6074,0 L46.4424,0 Z" id="Fill-21" fill="#7CAB2B"></path>
                <path d="M46.1675,0 L46.0975,1.785 C45.9085,6.649 45.3645,11.408 44.4805,15.93 C43.5935,20.436 42.3955,24.738 40.9185,28.712 C39.4415,32.653 37.6805,36.285 35.6845,39.506 C35.3005,40.123 34.9545,40.705 34.6245,41.261 C33.1845,43.677 32.1445,45.424 29.6035,47.572 C21.4775,54.446 13.2565,55.615 13.1795,55.625 L11.5595,55.835 L11.5595,76.854 L13.5745,76.683 C18.9465,76.225 24.1025,74.741 28.9455,72.262 L28.9455,72.439 L31.7535,70.764 C34.9925,68.834 38.1075,66.428 41.5595,63.198 C44.4445,60.511 47.0495,57.645 49.5205,54.436 C50.5555,53.092 51.4865,51.805 52.3665,50.5 C56.0005,45.136 58.7455,39.025 60.4945,34.895 C62.7665,29.524 64.5335,23.97 65.7495,18.388 C66.5255,14.83 67.0635,11.247 67.3485,7.741 C67.5105,5.771 67.5935,3.79 67.5935,1.858 L67.5935,0 L46.1675,0 Z" id="Fill-22" fill="#AECA37"></path>
                <path d="M11.5596,55.8355 L13.1796,55.6245 C13.2566,55.6145 21.4766,54.4455 29.6026,47.5715 C30.9516,46.4315 31.8726,45.4045 32.6606,44.3295 L32.6606,0.0005 L11.5596,0.0005 L-0.0004,15.3595 L11.5596,15.3595 L11.5596,55.8355 Z" id="Fill-36" fill="#7CAB2B"></path>
                <path d="M63.8921,72.1119 L63.8921,72.2169 L66.6761,70.5599 C65.7501,71.1149 64.8161,71.6319 63.8921,72.1119" id="Fill-37" fill="#AECA37"></path>
                <path d="M81.5508,0 L81.4798,1.784 C81.2848,6.681 80.7388,11.44 79.8588,15.931 C78.9728,20.443 77.7778,24.745 76.3028,28.712 C74.8298,32.647 73.0678,36.277 71.0658,39.499 C69.9838,41.244 68.8228,42.841 67.6078,44.303 L67.6078,69.971 C70.8028,67.987 73.8548,65.666 76.6758,63.031 C80.6878,59.287 84.3638,54.962 87.5968,50.175 C90.8338,45.379 93.6198,40.238 95.8788,34.894 C97.6138,30.784 99.0598,26.563 100.1758,22.347 C100.5268,21.023 100.8488,19.689 101.1278,18.39 C102.3528,12.812 102.9748,7.25 102.9748,1.858 L102.9748,0 L81.5508,0 Z" id="Fill-38" fill="#AECA37"></path>
            </g>
        </g>
    </g>
</svg>