<?xml version="1.0" encoding="UTF-8" standalone="no"?>
<svg width="122px" height="25px" viewBox="0 0 122 25" version="1.1" xmlns="http://www.w3.org/2000/svg" xmlns:xlink="http://www.w3.org/1999/xlink">
    <!-- Generator: Sketch 50.2 (55047) - http://www.bohemiancoding.com/sketch -->
    <title>wizualni-logo-2</title>
    <desc>Created with Sketch.</desc>
    <defs>
        <path d="M0.0327712766,0.318910256 L0.0327712766,17.4926282 L0.0327712766,24.6794872 C1.73655319,24.5246795 3.35694681,24.0637821 4.89589894,23.2836538 C5.24632447,23.1060897 5.59026064,22.9173077 5.92965426,22.7163462 L5.92965426,16.0528846 L5.92965426,2.23237179 L5.92965426,0.318910256 L0.0327712766,0.318910256 Z" id="path-1"></path>
        <linearGradient x1="50.0026224%" y1="100%" x2="50.0026043%" y2="0.000154200382%" id="linearGradient-3">
            <stop stop-color="#AECA38" offset="0%"></stop>
            <stop stop-color="#5F8522" offset="100%"></stop>
        </linearGradient>
        <path d="M0.249191489,0.318910256 L0.249191489,18.8833333 C0.249191489,18.8833333 3.18789894,18.5073718 6.12498404,16.0528846 L6.12498404,0.318910256 L0.249191489,0.318910256 Z" id="path-4"></path>
        <linearGradient x1="50.0040985%" y1="0.000202344573%" x2="50.0040847%" y2="100.000027%" id="linearGradient-6">
            <stop stop-color="#AECA38" offset="0%"></stop>
            <stop stop-color="#5F8522" offset="100%"></stop>
        </linearGradient>
        <polygon id="path-7" points="0.249418617 0.318942308 17.9303335 0.318942308 17.9303335 24.6794872 0.249418617 24.6794872"></polygon>
    </defs>
    <g id="Symbols" stroke="none" stroke-width="1" fill="none" fill-rule="evenodd">
        <g id="9-STOPKA" transform="translate(-1348.000000, -92.000000)">
            <g id="wizualni-logo-2">
                <g transform="translate(1348.000000, 92.000000)">
                    <g id="Group">
                        <g id="Group-25" transform="translate(0.000000, 0.001571)">
                            <path d="M39.476734,2.31355769 L41.7694255,2.31355769 L42.130234,9.43246795 C42.1409415,9.49689103 42.1467819,9.59945513 42.1467819,9.73983974 C42.1467819,9.88022436 42.1409415,9.98791667 42.130234,10.0635577 L42.0971383,10.4033013 L42.1626809,10.4033013 C42.1740372,10.3276603 42.2009681,10.2145192 42.2450957,10.0635577 C42.2885745,9.90137821 42.3593085,9.69144231 42.4579468,9.43246795 L45.389516,2.31355769 L47.8129681,2.31355769 L48.19,9.43246795 C48.2010319,9.49689103 48.2071968,9.59945513 48.2071968,9.73983974 C48.2071968,9.88022436 48.2010319,9.98791667 48.19,10.0635577 L48.1578777,10.4033013 L48.2227713,10.4033013 C48.2338032,10.3276603 48.2610585,10.2145192 48.3048617,10.0635577 C48.3486649,9.90137821 48.4193989,9.69144231 48.5177128,9.43246795 L51.433383,2.31355769 L53.7263989,2.31355769 L48.9271915,13.6391987 L46.4709681,13.6391987 L45.9956223,6.60073718 C45.9845904,6.51483974 45.9956223,6.28823718 46.0277447,5.92157051 L46.0614894,5.54945513 L45.9956223,5.54945513 C45.973234,5.68983974 45.9407872,5.81419872 45.8973085,5.92157051 C45.7879628,6.26676282 45.7113883,6.49336538 45.668234,6.60073718 L42.7035691,13.6391987 L40.2466968,13.6391987 L39.476734,2.31355769 Z" id="Fill-1" fill="#1D1D1B"></path>
                            <path d="M55.6263218,4.19842949 C55.4296941,3.99939103 55.3317048,3.75932692 55.3317048,3.47855769 C55.3317048,3.11189103 55.4838803,2.78560897 55.7901782,2.50003205 C56.0951782,2.21445513 56.4339229,2.07086538 56.8054388,2.07086538 C57.1003803,2.07086538 57.3434069,2.16798077 57.5341941,2.36221154 C57.7256303,2.55612179 57.8206995,2.79907051 57.8206995,3.09041667 C57.8206995,3.4461859 57.667875,3.76990385 57.3625505,4.06092949 C57.0559282,4.35227564 56.7233484,4.49810897 56.3631888,4.49810897 C56.0685718,4.49810897 55.822625,4.39842949 55.6263218,4.19842949 Z M53.5948271,13.6391346 L55.0370878,5.54939103 L57.3294548,5.54939103 L55.8878431,13.6391346 L53.5948271,13.6391346 Z" id="Fill-3" fill="#1D1D1B"></path>
                            <polygon id="Fill-5" fill="#1D1D1B" points="57.9844261 13.6391667 58.2469207 12.1019872 63.0130324 7.00583333 59.1638676 7.00583333 59.4257133 5.54942308 65.8952824 5.54942308 65.6168888 7.08660256 60.8501282 12.1824359 64.781708 12.1824359 64.5354367 13.6391667"></polygon>
                            <path d="M67.6721995,13.2023718 C67.2189176,12.8026923 66.9921144,12.2312179 66.9921144,11.4873077 C66.9921144,11.206859 67.0138537,10.9530128 67.0573324,10.7267308 L67.9914761,5.54948718 L70.284492,5.54948718 L69.3509973,10.7267308 C69.3182261,10.8994872 69.3020027,11.0558974 69.3020027,11.1959615 C69.3020027,11.5517308 69.3889601,11.8187179 69.5635239,11.9969231 C69.7380878,12.1744872 69.9833856,12.2635897 70.3010399,12.2635897 C70.6826144,12.2635897 71.0596463,12.1017308 71.4311622,11.7786538 C71.5943697,11.6273718 71.7423271,11.4661538 71.8730878,11.2927564 L72.9045718,5.54948718 L75.1975878,5.54948718 L73.7569495,13.6392308 L72.1190346,13.6392308 L72.1190346,12.6680769 L72.0366197,12.6680769 C71.8179282,12.9055769 71.6002101,13.094359 71.3818431,13.2344231 C70.8354388,13.6119872 70.2513963,13.8004487 69.6290665,13.8004487 C68.7773378,13.8004487 68.1251569,13.6014103 67.6721995,13.2023718" id="Fill-7" fill="#1D1D1B"></path>
                            <path d="M80.3850537,11.7785256 C80.5268463,11.6599359 80.6848622,11.4977564 80.8597505,11.2929487 L81.0560537,10.1605769 L79.9100324,10.1605769 C78.9817293,10.1605769 78.4521973,10.5384615 78.3214367,11.2929487 C78.3097559,11.3362179 78.3048888,11.4060897 78.3048888,11.5035256 C78.3048888,11.7301282 78.3898995,11.9134615 78.5582984,12.0532051 C78.7276707,12.1935897 78.9706973,12.2634615 79.2877027,12.2634615 C79.604059,12.2634615 79.9697346,12.1019231 80.3850537,11.7785256 M76.6585378,13.2589744 C76.2052559,12.8974359 75.9791016,12.4041667 75.9791016,11.7785256 C75.9791016,11.6166667 75.995325,11.4548077 76.0284207,11.2929487 C76.1698888,10.4842949 76.5822878,9.85032051 77.2649686,9.39198718 C77.9470005,8.93365385 78.9165112,8.70416667 80.1718782,8.70416667 L81.3185484,8.70416667 L81.3675431,8.46153846 C81.4003144,8.26762821 81.4171867,8.09519231 81.4171867,7.94391026 C81.4171867,7.55544872 81.3101122,7.27564103 81.0972612,7.10288462 C80.8847346,6.93012821 80.5541016,6.84391026 80.1069846,6.84391026 C79.6257984,6.84391026 79.1890644,6.95160256 78.796458,7.16730769 C78.5995059,7.26442308 78.4246176,7.37211538 78.2721176,7.49134615 L78.1082612,7.49134615 L77.6004686,6.19679487 C77.8954101,6.02371795 78.1738037,5.88910256 78.4356495,5.79198718 C79.167325,5.52307692 79.8607133,5.38782051 80.5164633,5.38782051 C81.5427559,5.38782051 82.3312133,5.61410256 82.8824846,6.06730769 C83.4340803,6.52051282 83.7095537,7.12403846 83.7095537,7.87884615 C83.7095537,8.07307692 83.6930059,8.26762821 83.660559,8.46153846 L82.7436122,13.6391026 L81.1056973,13.6391026 L81.1056973,12.6679487 L81.0236069,12.6679487 C80.8049154,12.9054487 80.5868729,13.0942308 80.3685059,13.2342949 C79.8224261,13.611859 79.2383835,13.800641 78.6160537,13.800641 C77.764325,13.800641 77.1114952,13.6205128 76.6585378,13.2589744" id="Fill-9" fill="#1D1D1B"></path>
                            <polygon id="Fill-11" fill="#1D1D1B" points="85.0835138 13.6391667 86.9835989 2.96128205 87.7535617 2.31352564 89.3908277 2.31352564 87.3758809 13.6391667"></polygon>
                            <path d="M91.2994138,5.54935897 L92.9370043,5.54935897 L92.9211053,6.52051282 L93.0022223,6.52051282 C93.1446638,6.35833333 93.3627064,6.16987179 93.6579723,5.95416667 C94.2144351,5.57660256 94.7988021,5.38782051 95.4101,5.38782051 C96.2618287,5.38782051 96.9140096,5.5875 97.3672915,5.98589744 C97.8205734,6.38525641 98.0467277,6.95737179 98.0467277,7.70128205 C98.0467277,7.98173077 98.0253128,8.23525641 97.9815096,8.46153846 L97.0645628,13.6391026 L94.7715468,13.6391026 L95.6884936,8.46153846 C95.7212649,8.27852564 95.7378128,8.12211538 95.7378128,7.99262821 C95.7378128,7.63653846 95.6505309,7.36987179 95.475967,7.19166667 C95.3014032,7.01378205 95.0548074,6.92467949 94.7387755,6.92467949 C94.3565521,6.92467949 93.9795202,7.08653846 93.6083287,7.4099359 C93.4447968,7.55032051 93.2968394,7.71217949 93.1664032,7.89551282 L92.1504936,13.6391026 L89.8578021,13.6391026 L91.2994138,5.54935897 Z" id="Fill-13" fill="#1D1D1B"></path>
                            <path d="M101.445077,4.19842949 C101.248773,3.99939103 101.151433,3.75932692 101.151433,3.47855769 C101.151433,3.11189103 101.303609,2.78560897 101.609906,2.50003205 C101.914906,2.21445513 102.253327,2.07086538 102.624518,2.07086538 C102.919784,2.07086538 103.162811,2.16798077 103.353598,2.36221154 C103.545034,2.55612179 103.640103,2.79907051 103.640103,3.09041667 C103.640103,3.4461859 103.487603,3.76990385 103.18163,4.06092949 C102.875981,4.35227564 102.542752,4.49810897 102.182593,4.49810897 C101.8883,4.49810897 101.642029,4.39842949 101.445077,4.19842949 Z M99.4142309,13.6391346 L100.856167,5.54939103 L103.148534,5.54939103 L101.707896,13.6391346 L99.4142309,13.6391346 Z" id="Fill-15" fill="#1D1D1B"></path>
                            <path d="M106.121019,11.6732051 C106.316997,11.8728846 106.414338,12.1129487 106.414338,12.3930769 C106.414338,12.7488462 106.261838,13.0722436 105.956189,13.3635897 C105.650864,13.6552564 105.31796,13.8004487 104.957476,13.8004487 C104.662535,13.8004487 104.416912,13.7010897 104.220609,13.5010897 C104.023657,13.3020513 103.924694,13.0623077 103.924694,12.7815385 C103.924694,12.4254487 104.078492,12.1017308 104.383816,11.8110256 C104.68979,11.5196795 105.022694,11.3735256 105.383178,11.3735256 C105.678444,11.3735256 105.924066,11.4735256 106.121019,11.6732051" id="Fill-17" fill="#AECA37"></path>
                            <path d="M113.317007,11.7135897 C113.660619,11.2930769 113.925385,10.5869872 114.110656,9.59403846 C114.18723,9.18442308 114.225842,8.81230769 114.225842,8.47769231 C114.225842,7.93891026 114.13272,7.545 113.947124,7.29692308 C113.761528,7.04884615 113.510065,6.92480769 113.194034,6.92480769 C112.811161,6.92480769 112.435103,7.08634615 112.063911,7.40974359 C111.900055,7.55044872 111.752746,7.71230769 111.621012,7.89532051 L110.917241,11.8591026 C110.993491,11.9562179 111.092129,12.0369872 111.211858,12.1017308 C111.462996,12.2635897 111.746581,12.344359 112.063911,12.344359 C112.555156,12.344359 112.972422,12.1341026 113.317007,11.7135897 Z M109.754672,5.54948718 L111.392262,5.54948718 L111.376363,6.52032051 L111.457805,6.52032051 C111.599597,6.35846154 111.818289,6.17 112.112906,5.95397436 C112.670018,5.57673077 113.25406,5.38762821 113.865034,5.38762821 C114.68464,5.38762821 115.331305,5.64147436 115.806002,6.14852564 C116.281347,6.65525641 116.519182,7.39916667 116.519182,8.38057692 C116.519182,8.7799359 116.479922,9.18442308 116.404321,9.59403846 C116.152858,10.9748077 115.656097,12.0212821 114.91339,12.733141 C114.171331,13.4446795 113.269959,13.8004487 112.21122,13.8004487 C111.774486,13.8004487 111.392262,13.72 111.064874,13.5578205 C110.889986,13.4828205 110.753385,13.4020513 110.655071,13.3155128 L110.131055,16.2270513 L109.361416,16.8748077 L107.723826,16.8748077 L109.754672,5.54948718 Z" id="Fill-19" fill="#AECA37"></path>
                            <polygon id="Fill-21" fill="#AECA37" points="117.671661 13.6391667 119.571421 2.96128205 120.341709 2.31352564 121.979299 2.31352564 119.964677 13.6391667"></polygon>
                            <polygon id="Fill-23" fill="#5F8522" points="0 3.94474359 4.14183511 3.94474359 4.14183511 0.319423077"></polygon>
                        </g>
                        <g id="Group-28" transform="translate(15.898936, 0.001571)">
                            <mask id="mask-2" fill="white">
                                <use xlink:href="#path-1"></use>
                            </mask>
                            <g id="Clip-27"></g>
                            <path d="M0.0327712766,0.318910256 L0.0327712766,17.4926282 L0.0327712766,24.6794872 C1.73655319,24.5246795 3.35694681,24.0637821 4.89589894,23.2836538 C5.24632447,23.1060897 5.59026064,22.9173077 5.92965426,22.7163462 L5.92965426,16.0528846 L5.92965426,2.23237179 L5.92965426,0.318910256 L0.0327712766,0.318910256 Z" id="Fill-26" fill="url(#linearGradient-3)" mask="url(#mask-2)"></path>
                        </g>
                        <path d="M27.7721319,0.320512821 C27.704967,1.98557692 27.5200202,3.59262821 27.2130734,5.13782051 C26.9061266,6.68429487 26.4956745,8.13942308 25.9830149,9.50288462 C25.4674351,10.863141 24.8584085,12.1009615 24.1585309,13.213141 C23.4576798,14.3298077 22.6825255,15.2753205 21.82885,16.0544872 L21.82885,22.7176282 C22.9820096,22.0400641 24.0709245,21.2317308 25.0933234,20.2884615 C26.4203979,19.0653846 27.6202809,17.6695513 28.6919989,16.1032051 C29.7630681,14.5349359 30.6783926,12.8698718 31.4324564,11.1073718 C32.0087117,9.76025641 32.4834085,8.39262821 32.8562223,7.00160256 C32.971084,6.57211538 33.0768606,6.14070513 33.1719298,5.70641026 C33.5804351,3.86826923 33.7812809,2.07179487 33.7812809,0.320512821 L32.8562223,0.320512821 L27.7721319,0.320512821 Z" id="Fill-29" fill="#AECA37"></path>
                        <g id="Group-33" transform="translate(3.893617, 0.001571)">
                            <mask id="mask-5" fill="white">
                                <use xlink:href="#path-4"></use>
                            </mask>
                            <g id="Clip-32"></g>
                            <path d="M0.249191489,0.318910256 L0.249191489,18.8833333 C0.249191489,18.8833333 3.18789894,18.5073718 6.12498404,16.0528846 L6.12498404,0.318910256 L0.249191489,0.318910256 Z" id="Fill-31" fill="url(#linearGradient-6)" mask="url(#mask-5)"></path>
                        </g>
                        <g id="Group-77" transform="translate(3.893617, 0.001571)">
                            <g id="Group-36">
                                <mask id="mask-8" fill="white">
                                    <use xlink:href="#path-7"></use>
                                </mask>
                                <g id="Clip-35"></g>
                                <path d="M17.8498654,0.318942308 L12.1025622,0.318942308 L11.921509,0.318942308 C11.8559665,1.98721154 11.6693973,3.59105769 11.3634239,5.13625 C11.0558282,6.68272436 10.6444027,8.13817308 10.1317431,9.5013141 C9.61551436,10.8615705 9.00746117,12.099391 8.30823245,13.2141346 C7.60835479,14.3282372 7.27285479,15.0945833 6.1248867,16.0529167 C3.1878016,18.5074038 0.249418617,18.8833654 0.249418617,18.8833654 L0.249418617,24.6795192 C2.3428867,24.5035577 4.30462074,23.8590064 6.1248867,22.7647756 L6.1248867,22.7891346 C7.28129096,22.1080449 8.30823245,21.2894551 9.33192926,20.3423397 C10.2803495,19.4699038 11.144408,18.5301603 11.9533069,17.4929808 C12.2742059,17.0808013 12.5879665,16.6548397 12.892642,16.2093269 C13.965658,14.6449038 14.8254984,12.8683013 15.5808601,11.1058013 C16.3358973,9.34330128 16.9163707,7.54490385 17.3216314,5.70483974 C17.5812059,4.53080128 17.7560941,3.37278846 17.8498654,2.23208333 C17.9034027,1.58945513 17.9303335,0.950673077 17.9303335,0.318942308 L17.8498654,0.318942308 Z" id="Fill-34" fill="#AECA37" mask="url(#mask-8)"></path>
                            </g>
                            <path d="M35.3540426,22.5986538 C35.1175053,22.4015385 34.9997234,22.1169231 34.9997234,21.7444872 C34.9997234,21.6249359 35.0175691,21.4797436 35.0516383,21.3085897 C35.1648777,20.7819872 35.3920053,20.3867949 35.7343191,20.1210897 C36.0763085,19.8557051 36.5227766,19.7236538 37.0724255,19.7236538 C37.2804096,19.7236538 37.454,19.7383974 37.5922234,19.7685256 C37.7310957,19.7983333 37.8625053,19.8451282 37.9887234,19.9095513 L37.8777553,20.4291026 C37.6788564,20.3182051 37.4192819,20.2624359 37.0987074,20.2624359 C36.7262181,20.2624359 36.4306277,20.3435256 36.2116117,20.5060256 C35.9932447,20.6688462 35.8446383,20.9361538 35.766766,21.3085897 C35.7320479,21.4710897 35.7148511,21.6057051 35.7148511,21.7127564 C35.7148511,21.9396795 35.7855851,22.1044231 35.9257553,22.2063462 C36.0668989,22.3095513 36.3014894,22.3608333 36.6311489,22.3608333 C36.9384202,22.3608333 37.2310904,22.303141 37.5078617,22.1877564 L37.3904043,22.7201282 C37.0789149,22.8355128 36.7320585,22.8932051 36.3514574,22.8932051 C35.9225106,22.8932051 35.5905798,22.7948077 35.3540426,22.5986538" id="Fill-37" fill="#1D1D1B"></path>
                            <path d="M39.3211516,19.7879167 L39.9707367,19.7879167 L39.9379654,20.1401603 C40.1070133,20.04625 40.3013697,19.9606731 40.5194122,19.8840705 C40.7381037,19.8068269 40.9493324,19.7536218 41.1527739,19.7234936 L41.0424548,20.2558654 C40.8477739,20.2904808 40.6342739,20.3436859 40.4026037,20.4161218 C40.1709335,20.4891987 39.9853378,20.5619551 39.8471144,20.634391 L39.3792314,22.8289423 L38.6715665,22.8289423 L39.3211516,19.7879167 Z" id="Fill-39" fill="#1D1D1B"></path>
                            <path d="M44.1482633,21.1286538 L44.1940133,20.9171154 C44.2115346,20.8485256 44.2206197,20.7757692 44.2206197,20.6988462 C44.2206197,20.5488462 44.1693537,20.4366667 44.0671463,20.3616667 C43.9659122,20.2866667 43.8004335,20.2498077 43.5710346,20.2498077 C43.2498112,20.2498077 43.0106782,20.3183974 42.8529867,20.4549359 C42.6946463,20.5914744 42.5833537,20.8161538 42.5181356,21.1286538 L44.1482633,21.1286538 Z M42.1213112,22.6049359 C41.8750399,22.4123077 41.7507686,22.1276923 41.7507686,21.7507692 C41.7507686,21.6228846 41.7686144,21.4735256 41.8033324,21.3020513 C41.9110559,20.7930769 42.1164441,20.4023718 42.4175505,20.1305769 C42.7183324,19.8594231 43.1326782,19.7235256 43.6615612,19.7235256 C44.0424867,19.7235256 44.3312633,19.8139103 44.5288644,19.9959615 C44.725492,20.1776923 44.8244548,20.4183974 44.8244548,20.7180769 C44.8244548,20.8036538 44.8140718,20.9042949 44.7916835,21.0196795 L44.674875,21.5844231 L42.4204707,21.5844231 C42.4162527,21.6228846 42.4143059,21.6741667 42.4143059,21.7379487 C42.4143059,21.9696795 42.4879601,22.1308974 42.6349441,22.2232051 C42.7822527,22.3151923 43.0405293,22.3610256 43.4081516,22.3610256 C43.5638963,22.3610256 43.7264548,22.345641 43.8958271,22.3158333 C44.0642261,22.2857051 44.2160771,22.2472436 44.3500824,22.2001282 L44.2397633,22.7139103 C43.9409282,22.8334615 43.5771995,22.8933974 43.1485771,22.8933974 C42.7102207,22.8933974 42.3688803,22.7972436 42.1213112,22.6049359 Z" id="Fill-41" fill="#1D1D1B"></path>
                            <path d="M48.1534,22.0465385 L48.478517,20.5375641 C48.3967511,20.4442949 48.3052511,20.3741026 48.2056394,20.3269872 C48.1060277,20.2795513 47.9827298,20.2561538 47.8354213,20.2561538 C47.5236074,20.2561538 47.2637085,20.3574359 47.0557245,20.5609615 C46.8480649,20.7641667 46.7027032,21.0558333 46.6209372,21.4369231 C46.5813521,21.6035897 46.5622085,21.7446154 46.5622085,21.86 C46.5622085,22.0487821 46.618666,22.1801923 46.7306074,22.2551923 C46.8438468,22.3298718 47.0320383,22.3673718 47.2958309,22.3673718 C47.6121872,22.3673718 47.8983681,22.2603205 48.1534,22.0465385 M45.8542191,21.8991026 C45.8542191,21.7705769 45.871416,21.6144872 45.9058096,21.4308333 C45.9752457,21.0833974 46.1017883,20.7811538 46.2857617,20.5221795 C46.4697351,20.2632051 46.6894,20.0654487 46.9454053,19.9289103 C47.2007617,19.7920513 47.4716926,19.7234615 47.7578734,19.7234615 C47.9437936,19.7234615 48.102134,19.7449359 48.2312723,19.7878846 C48.362033,19.8298718 48.4824106,19.9007051 48.5953255,19.9987821 L48.6410755,19.7878846 L49.3490649,19.7878846 L48.6994798,22.8289103 L48.0949957,22.8289103 L48.1086234,22.5279487 C47.9395755,22.6558333 47.7663096,22.7494231 47.5885011,22.8071154 C47.4113415,22.8648077 47.2124426,22.8933333 46.9908309,22.8933333 C46.2328734,22.8933333 45.8542191,22.5625641 45.8542191,21.8991026" id="Fill-43" fill="#1D1D1B"></path>
                            <path d="M50.7006691,22.7169872 C50.5663394,22.599359 50.4998234,22.4314103 50.4998234,22.213141 C50.4998234,22.1365385 50.5102064,22.0403846 50.5322702,21.9246795 L50.8765309,20.3333333 L50.4219511,20.3333333 L50.5381106,19.7878205 L50.9933394,19.7878205 L51.1425947,19.0878205 L51.8898447,18.8762821 L51.6951638,19.7878205 L52.5137968,19.7878205 L52.3509138,20.3333333 L51.5783553,20.3333333 L51.2467489,21.8858974 C51.2295521,21.9548077 51.2207915,22.0208333 51.2207915,22.0849359 C51.2207915,22.1919872 51.2542117,22.2644231 51.3213766,22.3028846 C51.388866,22.3416667 51.5043766,22.3608974 51.6692064,22.3608974 C51.7899085,22.3608974 51.9177489,22.3394231 52.0520787,22.2964744 L51.9485734,22.7903846 C51.7581106,22.8592949 51.5436372,22.8932692 51.3051532,22.8932692 C51.0364936,22.8932692 50.8353234,22.8349359 50.7006691,22.7169872" id="Fill-45" fill="#1D1D1B"></path>
                            <path d="M54.3686835,18.5748718 L55.1425399,18.5748718 L55.0185931,19.1521154 L54.2453856,19.1521154 L54.3686835,18.5748718 Z M54.0568697,20.3203846 L53.5896356,20.3203846 L53.7651729,19.7880128 L54.8758271,19.7880128 L54.226242,22.8290385 L53.5182527,22.8290385 L54.0568697,20.3203846 Z" id="Fill-47" fill="#1D1D1B"></path>
                            <polygon id="Fill-49" fill="#1D1D1B" points="56.087683 19.7879167 56.7963213 19.7879167 57.1535606 22.1491346 58.5244383 19.7879167 59.2781777 19.7879167 57.4196245 22.8289423 56.6535553 22.8289423"></polygon>
                            <path d="M62.2896309,21.1286538 L62.3350564,20.9171154 C62.3529021,20.8485256 62.3623117,20.7757692 62.3623117,20.6988462 C62.3623117,20.5488462 62.3100723,20.4366667 62.2085138,20.3616667 C62.1072798,20.2866667 61.9408277,20.2498077 61.7114287,20.2498077 C61.3908543,20.2498077 61.1517213,20.3183974 60.9937053,20.4549359 C60.8360138,20.5914744 60.7250457,20.8161538 60.6595032,21.1286538 L62.2896309,21.1286538 Z M60.2630032,22.6049359 C60.0157585,22.4123077 59.8924606,22.1276923 59.8924606,21.7507692 C59.8924606,21.6228846 59.9099819,21.4735256 59.9443755,21.3020513 C60.0527479,20.7930769 60.2568383,20.4023718 60.5582691,20.1305769 C60.8597,19.8594231 61.2740457,19.7235256 61.8026043,19.7235256 C62.1835298,19.7235256 62.4723064,19.8139103 62.6702319,19.9959615 C62.8668596,20.1776923 62.9658223,20.4183974 62.9658223,20.7180769 C62.9658223,20.8036538 62.9551149,20.9042949 62.9330511,21.0196795 L62.8159181,21.5844231 L60.5615138,21.5844231 C60.5576202,21.6228846 60.5553489,21.6741667 60.5553489,21.7379487 C60.5553489,21.9696795 60.6290032,22.1308974 60.7763117,22.2232051 C60.9232957,22.3151923 61.1812479,22.3610256 61.5488702,22.3610256 C61.7049394,22.3610256 61.8678223,22.345641 62.0368702,22.3158333 C62.2049447,22.2857051 62.3567957,22.2472436 62.4911255,22.2001282 L62.3804819,22.7139103 C62.0819713,22.8334615 61.7179181,22.8933974 61.2892957,22.8933974 C60.8519128,22.8933974 60.5099234,22.7972436 60.2630032,22.6049359 Z" id="Fill-51" fill="#1D1D1B"></path>
                            <path d="M69.357584,22.0465385 L69.6891904,20.5250641 C69.5289032,20.3462179 69.2930149,20.2561538 68.9815255,20.2561538 C68.6956691,20.2561538 68.453616,20.3436538 68.2563394,20.5186538 C68.0597117,20.6942949 67.9218128,20.9641667 67.8449138,21.3276282 C67.8053287,21.4942949 67.7855362,21.6417308 67.7855362,21.7705769 C67.7855362,21.9760256 67.8419936,22.1266667 67.954584,22.223141 C68.0671745,22.3196154 68.2488766,22.3673718 68.4996904,22.3673718 C68.8163713,22.3673718 69.1022277,22.2603205 69.357584,22.0465385 M67.3731372,22.6273077 C67.1716426,22.4497436 67.0713819,22.1811538 67.0713819,21.821859 C67.0713819,21.671859 67.0905255,21.5055128 67.1294617,21.3208974 C67.2465947,20.7866026 67.4587968,20.3866026 67.766717,20.1212179 C68.0739883,19.8558333 68.4549138,19.7234615 68.9094936,19.7234615 C69.28685,19.7234615 69.5853606,19.8112821 69.8066479,19.9859615 L70.1246266,18.5039103 L70.832616,18.5039103 L69.9039883,22.8289103 L69.2991798,22.8289103 L69.312483,22.5279487 C69.1437596,22.6558333 68.9701691,22.7494231 68.7923606,22.8071154 C68.61585,22.8648077 68.4163021,22.8933333 68.1953394,22.8933333 C67.8488074,22.8933333 67.5746319,22.8051923 67.3731372,22.6273077" id="Fill-53" fill="#1D1D1B"></path>
                            <path d="M73.8966654,21.1286538 L73.942091,20.9171154 C73.9592878,20.8485256 73.9677239,20.7757692 73.9677239,20.6988462 C73.9677239,20.5488462 73.9167824,20.4366667 73.8148995,20.3616667 C73.7136654,20.2866667 73.5478622,20.2498077 73.3184633,20.2498077 C72.9978888,20.2498077 72.7584314,20.3183974 72.6007399,20.4549359 C72.4423995,20.5914744 72.3307824,20.8161538 72.2655644,21.1286538 L73.8966654,21.1286538 Z M71.8693888,22.6049359 C71.6224686,22.4123077 71.4988463,22.1276923 71.4988463,21.7507692 C71.4988463,21.6228846 71.5160431,21.4735256 71.5510856,21.3020513 C71.659458,20.7930769 71.8638729,20.4023718 72.1649793,20.1305769 C72.4660856,19.8594231 72.8807559,19.7235256 73.4093144,19.7235256 C73.789591,19.7235256 74.0796654,19.8139103 74.2766176,19.9959615 C74.4738941,20.1776923 74.572208,20.4183974 74.572208,20.7180769 C74.572208,20.8036538 74.5615005,20.9042949 74.5394367,21.0196795 L74.4226282,21.5844231 L72.1685484,21.5844231 C72.1640059,21.6228846 72.1614101,21.6741667 72.1614101,21.7379487 C72.1614101,21.9696795 72.2353888,22.1308974 72.3826973,22.2232051 C72.5303303,22.3151923 72.7876335,22.3610256 73.1562293,22.3610256 C73.3116495,22.3610256 73.4745324,22.345641 73.6429314,22.3158333 C73.8119793,22.2857051 73.9638303,22.2472436 74.0975112,22.2001282 L73.9875165,22.7139103 C73.6886814,22.8334615 73.3246282,22.8933974 72.8960059,22.8933974 C72.4582984,22.8933974 72.116309,22.7972436 71.8693888,22.6049359 Z" id="Fill-55" fill="#1D1D1B"></path>
                            <path d="M75.9065181,22.8520192 C75.7205979,22.8241346 75.5661511,22.7869551 75.4454489,22.7395192 L75.5752362,22.1491346 C75.7053479,22.2045833 75.8549277,22.2472115 76.0233266,22.2773397 C76.1923745,22.3071474 76.3610979,22.3225321 76.5304702,22.3225321 C76.781284,22.3225321 76.9613638,22.3010577 77.0694117,22.258109 C77.1774596,22.2154808 77.2472202,22.1318269 77.2777202,22.008109 C77.2816138,21.9911218 77.2842096,21.9696474 77.2842096,21.9440064 C77.2842096,21.858109 77.2439755,21.7914423 77.1635074,21.7446474 C77.0836883,21.6975321 76.9334596,21.6353526 76.7121723,21.55875 L76.5369596,21.5010577 C76.2897149,21.4158013 76.1070394,21.3225321 75.9879596,21.2215705 C75.8685553,21.12125 75.8091777,20.9808654 75.8091777,20.8013782 C75.8091777,20.7674038 75.8179383,20.6988141 75.8351351,20.59625 C75.8997043,20.3055449 76.0476617,20.0869551 76.2770606,19.9411218 C76.5064596,19.79625 76.8510447,19.7234936 77.3098426,19.7234936 C77.6521564,19.7234936 77.9487202,19.7686859 78.199534,19.8577885 L78.0762362,20.4417628 C77.9681883,20.3946474 77.843917,20.35875 77.7024489,20.333109 C77.5626032,20.3077885 77.4269755,20.2946474 77.2971883,20.2946474 C77.0583798,20.2946474 76.8821936,20.3145192 76.7673319,20.3552244 C76.6531191,20.39625 76.5823851,20.471891 76.5561032,20.583109 C76.5518851,20.6000962 76.5496138,20.6215705 76.5496138,20.6472115 C76.5496138,20.7074679 76.5726511,20.7574679 76.6177521,20.7978526 C76.6635021,20.8385577 76.7391032,20.8786218 76.8452043,20.9170833 C76.9516298,20.9552244 77.0736298,20.9959295 77.2121777,21.0388782 C77.5029011,21.1327885 77.7092628,21.2324679 77.8332096,21.3372756 C77.9565074,21.4417628 78.0181564,21.5821474 78.0181564,21.7574679 C78.0181564,21.821891 78.0071245,21.9033013 77.9857096,22.0016987 C77.920167,22.309391 77.7712362,22.5347115 77.5372947,22.6786218 C77.3036777,22.821891 76.9574702,22.8933654 76.4976989,22.8933654 C76.2897149,22.8933654 76.0924383,22.8792628 75.9065181,22.8520192" id="Fill-57" fill="#1D1D1B"></path>
                            <path d="M80.2516649,18.5748718 L81.0255213,18.5748718 L80.9018989,19.1521154 L80.129016,19.1521154 L80.2516649,18.5748718 Z M79.9405,20.3203846 L79.4722926,20.3203846 L79.6484787,19.7880128 L80.759133,19.7880128 L80.1098723,22.8290385 L79.401234,22.8290385 L79.9405,20.3203846 Z" id="Fill-59" fill="#1D1D1B"></path>
                            <path d="M83.9887585,22.0338462 L84.2999234,20.5767949 C84.1357426,20.3633333 83.897583,20.2559615 83.5864181,20.2559615 C83.2999128,20.2559615 83.0594819,20.3533974 82.8644766,20.5482692 C82.6697957,20.7428205 82.535466,21.0152564 82.4624606,21.3662179 C82.4228755,21.5332051 82.4034074,21.6742308 82.4034074,21.7896154 C82.4034074,21.9867308 82.4611628,22.1210256 82.5757,22.1937821 C82.6908862,22.2665385 82.8839447,22.3030769 83.1571468,22.3030769 C83.4598755,22.3030769 83.7376202,22.2133333 83.9887585,22.0338462 M82.2116468,23.9396154 C82.0451947,23.9264744 81.9228702,23.9114103 81.8449979,23.8944231 L81.9682957,23.3360897 C82.0503862,23.3617308 82.1568117,23.3825641 82.28595,23.3973077 C82.4163862,23.4123718 82.5335191,23.4197436 82.6370245,23.4197436 C83.3349553,23.4197436 83.7288596,23.2142949 83.8197106,22.8033974 L83.87195,22.5729487 C83.5770085,22.7441026 83.2415085,22.8290385 82.8644766,22.8290385 C82.5007479,22.8290385 82.215216,22.7447436 82.0072319,22.5755128 C81.7989234,22.4069231 81.6954181,22.1514744 81.6954181,21.8091667 C81.6954181,21.6889744 81.7122904,21.5437821 81.7470085,21.3726282 C81.8557053,20.8511538 82.0653117,20.4453846 82.3771255,20.1566026 C82.6892638,19.8675 83.0659713,19.7235897 83.5078968,19.7235897 C83.7288596,19.7235897 83.9141309,19.7533974 84.0630617,19.8130128 C84.2126415,19.8729487 84.3459979,19.9646154 84.4628064,20.0889744 L84.57345,19.7880128 L85.1772851,19.7880128 L84.5539819,22.6947436 C84.4673489,23.0841667 84.2652053,23.391859 83.9462532,23.6187821 C83.62795,23.8453846 83.1915404,23.9585256 82.6370245,23.9585256 C82.5208649,23.9585256 82.3787479,23.9521154 82.2116468,23.9396154" id="Fill-61" fill="#1D1D1B"></path>
                            <path d="M86.6713309,19.7879167 L87.320267,19.7879167 L87.2881447,20.108109 C87.4614106,19.9924038 87.6518734,19.8997756 87.8601819,19.8289423 C88.067517,19.75875 88.2826394,19.7234936 88.5029532,19.7234936 C88.814767,19.7234936 89.0496819,19.7920833 89.2076979,19.9286218 C89.3660383,20.0654808 89.444884,20.2625962 89.444884,20.5186859 C89.444884,20.6215705 89.4319053,20.7350321 89.4059479,20.859391 L88.9838149,22.8289423 L88.2826394,22.8289423 L88.6979585,20.8917628 C88.7193734,20.7760577 88.7304053,20.6879167 88.7304053,20.6279808 C88.7304053,20.4911218 88.6856287,20.3946474 88.5970489,20.3395192 C88.5078202,20.28375 88.3556447,20.2558654 88.1395489,20.2558654 C87.9786128,20.2558654 87.8150809,20.2882372 87.6483043,20.3526603 C87.4818521,20.4161218 87.3335702,20.4994551 87.2041074,20.6023397 L86.7294106,22.8289423 L86.0214213,22.8289423 L86.6713309,19.7879167 Z" id="Fill-63" fill="#1D1D1B"></path>
                            <path d="M93.8951585,22.8520192 C93.7092383,22.8241346 93.5554404,22.7869551 93.4340894,22.7395192 L93.5642011,22.1491346 C93.6933394,22.2045833 93.8432436,22.2472115 94.011967,22.2773397 C94.1810149,22.3071474 94.3500628,22.3225321 94.5187862,22.3225321 C94.7699245,22.3225321 94.9496798,22.3010577 95.0580521,22.258109 C95.1664245,22.2154808 95.2358606,22.1318269 95.2660362,22.008109 C95.2702543,21.9911218 95.2725255,21.9696474 95.2725255,21.9440064 C95.2725255,21.858109 95.2322915,21.7914423 95.1527968,21.7446474 C95.0726532,21.6975321 94.9217755,21.6353526 94.7011372,21.55875 L94.5256,21.5010577 C94.2786798,21.4158013 94.0953553,21.3225321 93.9759511,21.2215705 C93.8575202,21.12125 93.7981426,20.9808654 93.7981426,20.8013782 C93.7981426,20.7674038 93.8065787,20.6988141 93.8234511,20.59625 C93.8883447,20.3055449 94.0356532,20.0869551 94.2653766,19.9411218 C94.4954245,19.79625 94.8393606,19.7234936 95.2988074,19.7234936 C95.6407968,19.7234936 95.9373606,19.7686859 96.18785,19.8577885 L96.0652011,20.4417628 C95.9565043,20.3946474 95.8325574,20.35875 95.6914138,20.333109 C95.5512436,20.3077885 95.415616,20.2946474 95.2855043,20.2946474 C95.0473447,20.2946474 94.870834,20.3145192 94.7556479,20.3552244 C94.6417596,20.39625 94.5707011,20.471891 94.5447436,20.583109 C94.5405255,20.6000962 94.5379298,20.6215705 94.5379298,20.6472115 C94.5379298,20.7074679 94.5612915,20.7574679 94.6063926,20.7978526 C94.6521426,20.8385577 94.7270947,20.8786218 94.8338447,20.9170833 C94.9402702,20.9552244 95.0625947,20.9959295 95.2011426,21.0388782 C95.491217,21.1327885 95.6982277,21.2324679 95.8215255,21.3372756 C95.9444989,21.4417628 96.0067968,21.5821474 96.0067968,21.7574679 C96.0067968,21.821891 95.9957649,21.9033013 95.97435,22.0016987 C95.9091319,22.309391 95.7598766,22.5347115 95.5256106,22.6786218 C95.2919936,22.821891 94.9454617,22.8933654 94.4863394,22.8933654 C94.2786798,22.8933654 94.0810787,22.8792628 93.8951585,22.8520192" id="Fill-65" fill="#1D1D1B"></path>
                            <path d="M97.6075277,22.7169872 C97.4738468,22.599359 97.4070064,22.4314103 97.4070064,22.213141 C97.4070064,22.1365385 97.4170649,22.0403846 97.4391287,21.9246795 L97.7830649,20.3333333 L97.3284851,20.3333333 L97.4459426,19.7878205 L97.9001979,19.7878205 L98.0494532,19.0878205 L98.7970277,18.8762821 L98.6016979,19.7878205 L99.4206553,19.7878205 L99.2584213,20.3333333 L98.4852138,20.3333333 L98.1536074,21.8858974 C98.1364106,21.9548077 98.1273255,22.0208333 98.1273255,22.0849359 C98.1273255,22.1919872 98.1610702,22.2644231 98.2285596,22.3028846 C98.2957245,22.3416667 98.4112351,22.3608974 98.5760649,22.3608974 C98.696767,22.3608974 98.8252564,22.3394231 98.9592617,22.2964744 L98.8551074,22.7903846 C98.6639957,22.8592949 98.4501713,22.8932692 98.2120117,22.8932692 C97.9433521,22.8932692 97.7418574,22.8349359 97.6075277,22.7169872" id="Fill-67" fill="#1D1D1B"></path>
                            <path d="M100.401944,22.6786218 C100.239386,22.5347115 100.158593,22.3266987 100.158593,22.0526603 C100.158593,21.9504167 100.171247,21.8347115 100.197205,21.7058654 L100.606684,19.7879167 L101.314673,19.7879167 L100.905519,21.7058654 C100.883779,21.8132372 100.873072,21.8988141 100.873072,21.9635577 C100.873072,22.1129167 100.918497,22.2177244 101.009348,22.2773397 C101.100524,22.3372756 101.246859,22.3674038 101.450625,22.3674038 C101.619673,22.3674038 101.784827,22.3366346 101.945114,22.2744551 C102.104753,22.2122756 102.25271,22.1257372 102.38704,22.0145192 L102.867577,19.7879167 L103.569077,19.7879167 L102.919816,22.8289423 L102.275747,22.8289423 L102.308843,22.5151603 C101.93246,22.7674038 101.522657,22.8933654 101.080731,22.8933654 C100.790332,22.8933654 100.564503,22.821891 100.401944,22.6786218" id="Fill-69" fill="#1D1D1B"></path>
                            <path d="M106.802921,22.0465385 L107.134203,20.5250641 C106.974564,20.3462179 106.738027,20.2561538 106.426213,20.2561538 C106.140357,20.2561538 105.899277,20.3436538 105.702001,20.5186538 C105.505048,20.6942949 105.367798,20.9641667 105.289602,21.3276282 C105.250665,21.4942949 105.231197,21.6417308 105.231197,21.7705769 C105.231197,21.9760256 105.28733,22.1266667 105.399596,22.223141 C105.512511,22.3196154 105.694213,22.3673718 105.945352,22.3673718 C106.261384,22.3673718 106.546915,22.2603205 106.802921,22.0465385 M104.818149,22.6273077 C104.617304,22.4497436 104.51607,22.1811538 104.51607,21.821859 C104.51607,21.671859 104.536187,21.5055128 104.574798,21.3208974 C104.691607,20.7866026 104.903809,20.3866026 105.211405,20.1212179 C105.519001,19.8558333 105.900575,19.7234615 106.35483,19.7234615 C106.731862,19.7234615 107.030697,19.8112821 107.251336,19.9859615 L107.569963,18.5039103 L108.277628,18.5039103 L107.349325,22.8289103 L106.744841,22.8289103 L106.75782,22.5279487 C106.588772,22.6558333 106.41583,22.7494231 106.237697,22.8071154 C106.059889,22.8648077 105.86099,22.8933333 105.640352,22.8933333 C105.293495,22.8933333 105.019969,22.8051923 104.818149,22.6273077" id="Fill-71" fill="#1D1D1B"></path>
                            <path d="M109.979788,18.5748718 L110.75332,18.5748718 L110.629697,19.1521154 L109.856814,19.1521154 L109.979788,18.5748718 Z M109.667974,20.3203846 L109.201064,20.3203846 L109.375953,19.7880128 L110.486607,19.7880128 L109.837346,22.8290385 L109.128708,22.8290385 L109.667974,20.3203846 Z" id="Fill-73" fill="#1D1D1B"></path>
                            <path d="M113.632585,22.0720192 C113.80293,21.9181731 113.928175,21.6633654 114.006047,21.3085577 C114.044659,21.14125 114.064452,20.9960577 114.064452,20.8720192 C114.064452,20.6755449 114.00767,20.5341987 113.895404,20.4486218 C113.782813,20.3630449 113.592675,20.3204167 113.323691,20.3204167 C113.002792,20.3204167 112.75717,20.3966987 112.586175,20.5508654 C112.41518,20.7050321 112.292207,20.9579167 112.219526,21.3085577 C112.18059,21.4755449 112.160473,21.6210577 112.160473,21.7447756 C112.160473,21.9415705 112.218553,22.0838782 112.33309,22.1716987 C112.448276,22.2591987 112.63517,22.303109 112.895069,22.303109 C113.215643,22.303109 113.460941,22.2258654 113.632585,22.0720192 M111.787335,22.6075962 C111.564425,22.4175321 111.452484,22.140609 111.452484,21.7765064 C111.452484,21.6143269 111.46968,21.4585577 111.504398,21.3085577 C111.617313,20.7819551 111.828218,20.3867628 112.138085,20.1210577 C112.448276,19.8556731 112.884037,19.7236218 113.447313,19.7236218 C113.884696,19.7236218 114.215005,19.8184936 114.43759,20.0091987 C114.660499,20.1992628 114.772441,20.4761859 114.772441,20.8399679 C114.772441,21.0027885 114.755244,21.1585577 114.720526,21.3085577 C114.607936,21.8345192 114.396382,22.2300321 114.08684,22.4957372 C113.776973,22.7608013 113.33667,22.8934936 112.764957,22.8934936 C112.33601,22.8934936 112.00992,22.7983013 111.787335,22.6075962" id="Fill-75" fill="#1D1D1B"></path>
                        </g>
                    </g>
                </g>
            </g>
        </g>
    </g>
</svg>