<?xml version="1.0" encoding="UTF-8" standalone="no"?>
<svg width="25px" height="22px" viewBox="0 0 25 22" version="1.1" xmlns="http://www.w3.org/2000/svg" xmlns:xlink="http://www.w3.org/1999/xlink">
    <!-- Generator: Sketch 47.1 (45422) - http://www.bohemiancoding.com/sketch -->
    <title>arrow</title>
    <desc>Created with Sketch.</desc>
    <defs></defs>
    <g id="Page-1" stroke="none" stroke-width="1" fill="none" fill-rule="evenodd">
        <g id="Desktop-HD-Copy-2" transform="translate(-1393.000000, -221.000000)" fill="#FFFFFF">
            <g id="Group-13">
                <g id="Group-6-Copy" transform="translate(1371.000000, 69.000000)">
                    <g id="Group-5">
                        <g id="Group-10">
                            <g id="Group-12">
                                <g id="arrow-copy-2" transform="translate(35.000000, 163.000000) scale(-1, 1) translate(-35.000000, -163.000000) translate(22.000000, 152.000000)">
                                    <g id="Page-1" transform="translate(13.000000, 11.000000) rotate(90.000000) translate(-13.000000, -11.000000) translate(2.000000, -2.000000)">
                                        <g id="Group-3" transform="translate(0.000000, 13.000000)">
                                            <path d="M10.4206336,11.7692378 C10.5706697,11.9169896 10.7742853,12.0000065 10.9865556,12.0000065 C11.1987598,12.0000065 11.4023093,11.9169896 11.5524114,11.7692378 L21.7386757,1.73785952 C22.0513664,1.43012458 22.0513664,0.93111253 21.7386757,0.62337759 C21.4263153,0.31557759 20.9192583,0.31557759 20.60703,0.62337759 L10.9865556,10.0973848 L1.36614715,0.62337759 C1.05365465,0.31557759 0.546795796,0.31557759 0.234369369,0.62337759 C-0.0781231231,0.93111253 -0.0781231231,1.43012458 0.234369369,1.73785952 L10.4206336,11.7692378 Z" id="Fill-1"></path>
                                        </g>
                                        <g id="Group-6" transform="translate(10.000000, 0.000000)">
                                            <path d="M0.983752,22.9838801 C1.518792,22.9838801 1.952872,22.624298 1.952872,22.1810012 L1.952872,0.846877233 C1.952872,0.403447839 1.518792,0.0438657061 0.983752,0.0438657061 C0.448712,0.0438657061 0.014632,0.403447839 0.014632,0.846877233 L0.014632,22.1810012 C0.014632,22.6244305 0.448552,22.9838801 0.983752,22.9838801" id="Fill-4"></path>
                                        </g>
                                    </g>
                                </g>
                            </g>
                        </g>
                    </g>
                </g>
            </g>
        </g>
    </g>
</svg>