<?xml version="1.0" encoding="UTF-8" standalone="no"?>
<svg width="60px" height="60px" viewBox="0 0 60 60" version="1.1" xmlns="http://www.w3.org/2000/svg" xmlns:xlink="http://www.w3.org/1999/xlink">
    <!-- Generator: Sketch 50 (54983) - http://www.bohemiancoding.com/sketch -->
    <title>Group 13</title>
    <desc>Created with Sketch.</desc>
    <defs></defs>
    <g id="Page-1" stroke="none" stroke-width="1" fill="none" fill-rule="evenodd">
        <g id="Group-13">
            <rect id="Rectangle-10-Copy" fill="#000000" x="0" y="0" width="60" height="60"></rect>
            <path d="M32.4765275,30.000271 L37.9022689,24.5745296 C38.0323547,24.4442771 38.0323547,24.233138 37.9022689,24.1028855 L35.8977816,22.0977311 C35.8352404,22.0351899 35.7501844,22 35.6619596,22 C35.573568,22 35.4886787,22.0351899 35.4261375,22.0977311 L30.0000625,27.523806 L24.5739875,22.0977311 C24.4489051,21.9726486 24.2274259,21.9726486 24.1023435,22.0977311 L22.0976894,24.1028855 C21.9674369,24.233138 21.9674369,24.4442771 22.0976894,24.5745296 L27.5235976,30.000271 L22.0976894,35.4261792 C21.9674369,35.5564317 21.9674369,35.7675708 22.0976894,35.8978233 L24.1023435,37.902811 C24.1648847,37.9653522 24.2497739,38.000542 24.3381655,38.000542 C24.4263903,38.000542 24.5114463,37.9653522 24.5739875,37.902811 L30.0000625,32.476736 L35.4261375,37.902811 C35.4886787,37.9653522 35.573568,38.000542 35.6619596,38.000542 C35.7501844,38.000542 35.8352404,37.9653522 35.8977816,37.902811 L37.9024357,35.8978233 C38.0325214,35.7675708 38.0325214,35.5562649 37.9024357,35.4261792 L32.4765275,30.000271 Z" id="Fill-1" fill="#F89F04"></path>
        </g>
    </g>
</svg>