<?xml version="1.0" encoding="UTF-8" standalone="no"?>
<svg width="188px" height="130px" viewBox="0 0 188 130" version="1.1" xmlns="http://www.w3.org/2000/svg" xmlns:xlink="http://www.w3.org/1999/xlink">
    <!-- Generator: Sketch 50.2 (55047) - http://www.bohemiancoding.com/sketch -->
    <title>M</title>
    <desc>Created with Sketch.</desc>
    <defs></defs>
    <g id="Page-1" stroke="none" stroke-width="1" fill="none" fill-rule="evenodd">
        <g id="Home-Copy-24" transform="translate(-976.000000, -6611.000000)">
            <g id="M" transform="translate(976.000000, 6611.000000)">
                <polygon id="Fill-1" fill="#5D5D5D" points="0 0 0 86.0218797 25.5454792 86.0218797 25.5454792 32.2214286 87.3984583 86.0218797 87.3984583 53.8033835 25.5454792 0"></polygon>
                <polygon id="Fill-2" fill="#5D5D5D" points="161.582475 0 99.7255792 53.8033835 99.7255792 86.0218797 161.582475 32.2214286 161.582475 86.0218797 187.126975 86.0218797 187.126975 0"></polygon>
                <polygon id="Fill-3" fill="#EE1A25" points="182.106396 129.535714 187.126583 129.535714 187.126583 108.085714 182.106396 108.085714"></polygon>
                <polygon id="Fill-4" fill="#EE1A25" points="17.2099313 108.086008 15.2378896 108.086008 10.8923479 122.025331 6.43224375 108.086008 3.66609792 108.086008 3.44186875 108.086008 9.79166667e-05 108.086008 9.79166667e-05 129.536008 3.66609792 129.536008 3.66609792 113.175556 8.86057708 129.536008 12.1897438 129.536008 17.2099313 113.175556 17.2099313 129.536008 21.8972021 129.536008 21.8972021 108.086008"></polygon>
                <polygon id="Fill-5" fill="#EE1A25" points="46.6516125 108.086008 44.6218 108.086008 41.9653208 108.086008 41.9653208 129.536008 44.6218 129.536008 46.6516125 129.536008 57.1492583 129.536008 57.1492583 125.563677 46.6516125 125.563677 46.6516125 120.278639 55.1762375 120.278639 55.1762375 116.554579 46.6516125 116.554579 46.6516125 112.054429 57.1492583 112.054429 57.1492583 108.086008"></polygon>
                <path d="M116.577038,108.086008 L109.689579,129.536008 L113.639538,129.536008 L115.265933,124.466985 L122.191579,124.466985 L123.684808,129.536008 L128.804871,129.536008 L122.483371,108.086008 L116.577038,108.086008 Z M118.878079,113.210744 L121.095892,120.753677 L116.455621,120.753677 L118.878079,113.210744 Z" id="Fill-6" fill="#EE1A25"></path>
                <g id="Group-11" stroke-width="1" transform="translate(75.395833, 108.031955)" fill="#EE1A25">
                    <path d="M9.97242083,9.30389474 L5.39579583,9.30389474 L5.39579583,3.85269173 L9.97242083,3.85269173 C9.97242083,3.85269173 12.4399208,3.78818045 12.4399208,6.57780451 C12.4399208,9.36742857 9.97242083,9.30389474 9.97242083,9.30389474 Z M13.93315,11.7778045 C15.8356708,11.0398346 17.71665,9.48863158 17.7274208,6.24840602 C17.7029417,-0.343473684 9.97242083,0.0543458647 9.97242083,0.0543458647 L5.39579583,0.0543458647 L0.374629167,0.0543458647 L0.374629167,21.5033684 L5.39579583,21.5033684 L5.39579583,12.4424662 L8.91981667,12.4424662 L12.6494625,21.5033684 L17.9369625,21.5033684 L13.93315,11.7778045 Z" id="Fill-7"></path>
                    <path d="M80.2381063,9.30389474 L75.6653979,9.30389474 L75.6653979,3.85269173 L80.2381063,3.85269173 C80.2381063,3.85269173 82.7065854,3.78818045 82.7065854,6.57780451 C82.7065854,9.36742857 80.2381063,9.30389474 80.2381063,9.30389474 Z M84.1958979,11.7778045 C86.1013563,11.0398346 87.9823354,9.48863158 87.9970229,6.24840602 C87.9647104,-0.343473684 80.2381063,0.0543458647 80.2381063,0.0543458647 L75.6653979,0.0543458647 L70.6403146,0.0543458647 L70.6403146,21.5033684 L75.6653979,21.5033684 L75.6653979,12.4424662 L79.1815854,12.4424662 L82.9151479,21.5033684 L88.2026479,21.5033684 L84.1958979,11.7778045 Z" id="Fill-9"></path>
                </g>
            </g>
        </g>
    </g>
</svg>