<?xml version="1.0" encoding="utf-8"?>
<!-- Generator: Adobe Illustrator 16.0.0, SVG Export Plug-In . SVG Version: 6.00 Build 0)  -->
<!DOCTYPE svg PUBLIC "-//W3C//DTD SVG 1.1//EN" "http://www.w3.org/Graphics/SVG/1.1/DTD/svg11.dtd">
<svg version="1.1" id="Warstwa_1" xmlns="http://www.w3.org/2000/svg" xmlns:xlink="http://www.w3.org/1999/xlink" x="0px" y="0px"
	 width="245.754px" height="245.754px" viewBox="0 0 245.754 245.754" enable-background="new 0 0 245.754 245.754"
	 xml:space="preserve">
<g>
	<g>
		<circle fill="#FFFFFF" cx="122.877" cy="122.877" r="113.877"/>
		<g>
			<g>
				<defs>
					<path id="SVGID_1_" d="M118.729,57.95c0-3.326,2.708-6.036,6.034-6.036c3.328,0,6.037,2.71,6.037,6.036
						c0,3.33-2.708,6.04-6.037,6.04C121.438,63.99,118.729,61.28,118.729,57.95 M112.082,57.95c0,5.329,3.416,10.116,8.494,11.911
						l0.87,0.307v129.608h6.646V70.167l0.865-0.305c5.082-1.797,8.491-6.583,8.491-11.913c0-6.993-5.689-12.679-12.686-12.679
						C117.773,45.271,112.082,50.958,112.082,57.95"/>
				</defs>
				<clipPath id="SVGID_2_">
					<use xlink:href="#SVGID_1_"  overflow="visible"/>
				</clipPath>
				
					<linearGradient id="SVGID_3_" gradientUnits="userSpaceOnUse" x1="1480.3418" y1="-8.8618" x2="1482.03" y2="-8.8618" gradientTransform="matrix(0 -93.0449 93.0449 0 949.2461 137939.4375)">
					<stop  offset="0" style="stop-color:#7E4B2F"/>
					<stop  offset="0.2274" style="stop-color:#9E5A2F"/>
					<stop  offset="0.542" style="stop-color:#D17130"/>
					<stop  offset="0.7521" style="stop-color:#BF6D3B"/>
					<stop  offset="0.9959" style="stop-color:#AE6A45"/>
					<stop  offset="1" style="stop-color:#AE6A45"/>
				</linearGradient>
				<rect x="112.082" y="45.271" clip-path="url(#SVGID_2_)" fill="url(#SVGID_3_)" width="25.366" height="154.504"/>
			</g>
		</g>
		<g>
			<g>
				<defs>
					<path id="SVGID_4_" d="M190.925,114.115c0-3.328,2.707-6.037,6.039-6.037c3.328,0,6.036,2.708,6.036,6.037
						c0,3.329-2.708,6.038-6.036,6.038C193.632,120.153,190.925,117.444,190.925,114.115 M154.609,86.034
						c0-3.33,2.712-6.037,6.042-6.037c3.325,0,6.033,2.707,6.033,6.037c0,3.328-2.708,6.038-6.033,6.038
						C157.321,92.071,154.609,89.361,154.609,86.034 M147.963,86.034c0,1.8,0.407,3.583,1.209,5.301l0.382,0.825l-9.112,9.112
						v98.503h6.646v-49.911l15.238-15.239h18.828l9.514-9.52l0.833,0.401c1.779,0.854,3.62,1.291,5.464,1.291
						c6.992,0,12.678-5.688,12.678-12.685c0-6.992-5.686-12.68-12.678-12.68c-6.996,0-12.685,5.688-12.685,12.68
						c0,1.845,0.436,3.682,1.291,5.464l0.397,0.829l-7.568,7.573h-18.827l-12.484,12.487v-36.443l7.104-7.106l0.841,0.419
						c1.827,0.915,3.72,1.381,5.62,1.381c6.989,0,12.68-5.69,12.68-12.685c0-6.994-5.69-12.683-12.68-12.683
						C153.657,73.351,147.963,79.04,147.963,86.034"/>
				</defs>
				<clipPath id="SVGID_5_">
					<use xlink:href="#SVGID_4_"  overflow="visible"/>
				</clipPath>
				
					<linearGradient id="SVGID_6_" gradientUnits="userSpaceOnUse" x1="1480.3408" y1="-8.6411" x2="1482.0295" y2="-8.6411" gradientTransform="matrix(0 -93.0452 93.0452 0 979.0898 137939.7812)">
					<stop  offset="0" style="stop-color:#7E4B2F"/>
					<stop  offset="0.2274" style="stop-color:#9E5A2F"/>
					<stop  offset="0.542" style="stop-color:#D17130"/>
					<stop  offset="0.7521" style="stop-color:#BF6D3B"/>
					<stop  offset="0.9959" style="stop-color:#AE6A45"/>
					<stop  offset="1" style="stop-color:#AE6A45"/>
				</linearGradient>
				<rect x="140.441" y="73.351" clip-path="url(#SVGID_5_)" fill="url(#SVGID_6_)" width="69.2" height="126.424"/>
			</g>
		</g>
		<g>
			<g>
				<defs>
					<path id="SVGID_7_" d="M46.536,114.115c0-3.328,2.708-6.037,6.036-6.037c3.327,0,6.035,2.708,6.035,6.037
						c0,3.329-2.708,6.038-6.035,6.038C49.244,120.153,46.536,117.444,46.536,114.115 M82.849,86.034
						c0-3.33,2.708-6.037,6.034-6.037c3.328,0,6.04,2.707,6.04,6.037c0,3.328-2.712,6.038-6.04,6.038
						C85.557,92.071,82.849,89.361,82.849,86.034 M76.204,86.034c0,6.993,5.689,12.685,12.679,12.685
						c1.904,0,3.792-0.466,5.616-1.379l0.837-0.42l7.108,7.106v36.445l-12.482-12.49H71.13l-7.567-7.573l0.398-0.829
						c0.859-1.782,1.291-3.619,1.291-5.464c0-6.992-5.689-12.68-12.68-12.68c-6.992,0-12.68,5.688-12.68,12.68
						c0,6.996,5.688,12.685,12.68,12.685c1.843,0,3.683-0.437,5.46-1.291l0.834-0.401l9.513,9.519h18.829l15.236,15.24v49.911h6.648
						v-98.503l-9.111-9.112l0.382-0.825c0.798-1.716,1.204-3.501,1.204-5.301c0-6.994-5.692-12.683-12.684-12.683
						C81.893,73.351,76.204,79.04,76.204,86.034"/>
				</defs>
				<clipPath id="SVGID_8_">
					<use xlink:href="#SVGID_7_"  overflow="visible"/>
				</clipPath>
				
					<linearGradient id="SVGID_9_" gradientUnits="userSpaceOnUse" x1="1480.3408" y1="-9.0806" x2="1482.0295" y2="-9.0806" gradientTransform="matrix(0 -93.0452 93.0452 0 919.4648 137939.7812)">
					<stop  offset="0" style="stop-color:#7E4B2F"/>
					<stop  offset="0.2274" style="stop-color:#9E5A2F"/>
					<stop  offset="0.542" style="stop-color:#D17130"/>
					<stop  offset="0.7521" style="stop-color:#BF6D3B"/>
					<stop  offset="0.9959" style="stop-color:#AE6A45"/>
					<stop  offset="1" style="stop-color:#AE6A45"/>
				</linearGradient>
				<rect x="39.892" y="73.351" clip-path="url(#SVGID_8_)" fill="url(#SVGID_9_)" width="69.201" height="126.424"/>
			</g>
		</g>
	</g>
	<g>
		<path fill="#E49461" d="M122.877,14.173c29.036,0,56.334,11.307,76.865,31.838c20.531,20.532,31.838,47.83,31.838,76.865
			s-11.307,56.333-31.838,76.865c-20.531,20.531-47.829,31.838-76.865,31.838s-56.334-11.307-76.865-31.838
			c-20.531-20.532-31.838-47.83-31.838-76.865S25.48,66.543,46.012,46.012C66.543,25.48,93.841,14.173,122.877,14.173 M122.877,0
			C55.014,0,0,55.014,0,122.877s55.014,122.877,122.877,122.877c67.863,0,122.877-55.015,122.877-122.877S190.74,0,122.877,0
			L122.877,0z"/>
	</g>
</g>
</svg>
