<?xml version="1.0" encoding="utf-8"?>
<!-- Generator: Adobe Illustrator 16.0.0, SVG Export Plug-In . SVG Version: 6.00 Build 0)  -->
<!DOCTYPE svg PUBLIC "-//W3C//DTD SVG 1.1//EN" "http://www.w3.org/Graphics/SVG/1.1/DTD/svg11.dtd" [
	<!ENTITY ns_flows "http://ns.adobe.com/Flows/1.0/">
	<!ENTITY ns_extend "http://ns.adobe.com/Extensibility/1.0/">
	<!ENTITY ns_ai "http://ns.adobe.com/AdobeIllustrator/10.0/">
	<!ENTITY ns_graphs "http://ns.adobe.com/Graphs/1.0/">
	<!ENTITY ns_vars "http://ns.adobe.com/Variables/1.0/">
	<!ENTITY ns_imrep "http://ns.adobe.com/ImageReplacement/1.0/">
	<!ENTITY ns_sfw "http://ns.adobe.com/SaveForWeb/1.0/">
	<!ENTITY ns_custom "http://ns.adobe.com/GenericCustomNamespace/1.0/">
	<!ENTITY ns_adobe_xpath "http://ns.adobe.com/XPath/1.0/">
]>
<svg version="1.1"
	 xmlns:x="&ns_extend;" xmlns:i="&ns_ai;" xmlns:graph="&ns_graphs;" i:viewOrigin="1352.4814 -549.0781" i:rulerOrigin="-1352.4814 582.79" i:pageBounds="1352.4814 -549.0781 1386.1924 -582.79"
	 xmlns="http://www.w3.org/2000/svg" xmlns:xlink="http://www.w3.org/1999/xlink" xmlns:a="http://ns.adobe.com/AdobeSVGViewerExtensions/3.0/"
	 x="0px" y="0px" width="33.711px" height="33.712px" viewBox="0 0 33.711 33.712" enable-background="new 0 0 33.711 33.712"
	 xml:space="preserve">
<metadata>
	<variableSets  xmlns="http://ns.adobe.com/Variables/1.0/">
		<variableSet  varSetName="binding1" locked="none">
			<variables></variables>
			<v:sampleDataSets  xmlns:v="http://ns.adobe.com/Variables/1.0/" xmlns="http://ns.adobe.com/GenericCustomNamespace/1.0/">
				</v:sampleDataSets>
		</variableSet>
	</variableSets>
</metadata>
<g id="Warstwa_1" i:knockout="Off" i:layer="yes" i:dimmedPercent="50" i:rgbTrio="#4F008000FFFF">
	<g i:knockout="Off">
		<g i:knockout="Off">
			<g i:knockout="Off">
				<circle fill="#585757" stroke="#FFFFFF" stroke-width="3.7497" stroke-miterlimit="10" cx="16.855" cy="16.856" r="14.98"/>
			</g>
		</g>
		<g i:knockout="Off">
			<path fill="#FFFFFF" d="M18.373,21.75c-0.245-0.057-0.498-0.09-0.761-0.09c-1.037,0-2.014,0.479-2.657,1.293
				c-0.645-0.813-1.621-1.293-2.657-1.293c-0.915,0-1.789,0.376-2.43,1.036c-0.64-0.66-1.515-1.036-2.43-1.036
				c-0.192,0-0.382,0.021-0.565,0.053c0.253-0.854,0.963-1.525,1.868-1.859c1.733-0.637,3.489-1.198,5.255-1.736
				c0.744-4.335,2.606-8.605,7.354-9.671c2.224-0.499,3.167,2.912,0.939,3.412c-2.966,0.666-4.155,3.293-4.697,6.015
				C18.798,18.644,19.209,20.514,18.373,21.75z M22.518,14.143c-1.675,0-3.031,1.357-3.031,3.032c0,1.674,1.356,3.031,3.031,3.031
				s3.031-1.357,3.031-3.031C25.549,15.5,24.191,14.143,22.518,14.143z"/>
		</g>
	</g>
</g>
</svg>
