<?xml version="1.0" encoding="utf-8"?>
<!-- Generator: Adobe Illustrator 16.0.0, SVG Export Plug-In . SVG Version: 6.00 Build 0)  -->
<!DOCTYPE svg PUBLIC "-//W3C//DTD SVG 1.1//EN" "http://www.w3.org/Graphics/SVG/1.1/DTD/svg11.dtd" [
	<!ENTITY ns_flows "http://ns.adobe.com/Flows/1.0/">
	<!ENTITY ns_extend "http://ns.adobe.com/Extensibility/1.0/">
	<!ENTITY ns_ai "http://ns.adobe.com/AdobeIllustrator/10.0/">
	<!ENTITY ns_graphs "http://ns.adobe.com/Graphs/1.0/">
	<!ENTITY ns_vars "http://ns.adobe.com/Variables/1.0/">
	<!ENTITY ns_imrep "http://ns.adobe.com/ImageReplacement/1.0/">
	<!ENTITY ns_sfw "http://ns.adobe.com/SaveForWeb/1.0/">
	<!ENTITY ns_custom "http://ns.adobe.com/GenericCustomNamespace/1.0/">
	<!ENTITY ns_adobe_xpath "http://ns.adobe.com/XPath/1.0/">
]>
<svg version="1.1"
	 xmlns:x="&ns_extend;" xmlns:i="&ns_ai;" xmlns:graph="&ns_graphs;" i:viewOrigin="1312.0859 -633.6211" i:rulerOrigin="-1312.0859 664.1211" i:pageBounds="1312.0859 -633.6211 1342.5859 -664.1211"
	 xmlns="http://www.w3.org/2000/svg" xmlns:xlink="http://www.w3.org/1999/xlink" xmlns:a="http://ns.adobe.com/AdobeSVGViewerExtensions/3.0/"
	 x="0px" y="0px" width="30.5px" height="30.5px" viewBox="0 0 30.5 30.5" enable-background="new 0 0 30.5 30.5"
	 xml:space="preserve">
<metadata>
	<variableSets  xmlns="&ns_vars;">
		<variableSet  varSetName="binding1" locked="none">
			<variables></variables>
			<v:sampleDataSets  xmlns:v="&ns_vars;" xmlns="&ns_custom;"></v:sampleDataSets>
		</variableSet>
	</variableSets>
</metadata>
<g id="Warstwa_1" i:layer="yes" i:dimmedPercent="50" i:rgbTrio="#4F008000FFFF">
	<g>
		<path i:knockout="Off" fill="#585757" stroke="#FFFFFF" stroke-width="3.75" stroke-miterlimit="10" d="M28.625,23.648
			c0,2.748-2.229,4.977-4.977,4.977H6.852c-2.748,0-4.977-2.229-4.977-4.977V6.852c0-2.748,2.229-4.977,4.977-4.977h16.797
			c2.748,0,4.977,2.229,4.977,4.977V23.648z"/>
		<g>
			<path i:knockout="Off" fill="#FFFFFF" d="M19.902,8.965l-0.57,0.559l1.59,1.621v8.383c0,0.137-0.031,0.234-0.09,0.293
				c-0.176,0.176-1.152,0.187-1.426-0.086c-0.086-0.09-0.09-0.184-0.086-0.207v-8.148h-1.402V7.375h-7.816v14.421H8.398v2.005
				h11.219v-2.005h-1.703v-9.612h0.602v7.312c-0.082,1.555,3.207,1.812,3.207,0.035v-8.715L19.902,8.965z M11.305,12.984V8.977
				h5.609v4.008H11.305z M11.305,12.984"/>
		</g>
	</g>
</g>
</svg>
