<?xml version="1.0" encoding="utf-8"?>
<!-- Generator: Adobe Illustrator 16.0.0, SVG Export Plug-In . SVG Version: 6.00 Build 0)  -->
<!DOCTYPE svg PUBLIC "-//W3C//DTD SVG 1.1//EN" "http://www.w3.org/Graphics/SVG/1.1/DTD/svg11.dtd" [
	<!ENTITY ns_flows "http://ns.adobe.com/Flows/1.0/">
	<!ENTITY ns_extend "http://ns.adobe.com/Extensibility/1.0/">
	<!ENTITY ns_ai "http://ns.adobe.com/AdobeIllustrator/10.0/">
	<!ENTITY ns_graphs "http://ns.adobe.com/Graphs/1.0/">
	<!ENTITY ns_vars "http://ns.adobe.com/Variables/1.0/">
	<!ENTITY ns_imrep "http://ns.adobe.com/ImageReplacement/1.0/">
	<!ENTITY ns_sfw "http://ns.adobe.com/SaveForWeb/1.0/">
	<!ENTITY ns_custom "http://ns.adobe.com/GenericCustomNamespace/1.0/">
	<!ENTITY ns_adobe_xpath "http://ns.adobe.com/XPath/1.0/">
]>
<svg version="1.1"
	 xmlns:x="&ns_extend;" xmlns:i="&ns_ai;" xmlns:graph="&ns_graphs;" i:viewOrigin="1526.707 -378.9609" i:rulerOrigin="-1526.707 412.6729" i:pageBounds="1526.707 -378.9609 1560.418 -412.6729"
	 xmlns="http://www.w3.org/2000/svg" xmlns:xlink="http://www.w3.org/1999/xlink" xmlns:a="http://ns.adobe.com/AdobeSVGViewerExtensions/3.0/"
	 x="0px" y="0px" width="33.711px" height="33.712px" viewBox="0 0 33.711 33.712" enable-background="new 0 0 33.711 33.712"
	 xml:space="preserve">
<metadata>
	<variableSets  xmlns="&ns_vars;">
		<variableSet  varSetName="binding1" locked="none">
			<variables></variables>
			<v:sampleDataSets  xmlns:v="&ns_vars;" xmlns="&ns_custom;"></v:sampleDataSets>
		</variableSet>
	</variableSets>
</metadata>
<g id="Warstwa_1" i:layer="yes" i:dimmedPercent="50" i:rgbTrio="#4F008000FFFF">
	<g>
		<g>
			<circle i:knockout="Off" fill="#585757" cx="16.855" cy="16.856" r="14.98"/>
			
				<circle i:knockout="Off" fill="none" stroke="#FFFFFF" stroke-width="3.7497" stroke-miterlimit="10" cx="16.855" cy="16.856" r="14.98"/>
		</g>
		<path i:knockout="Off" fill="#FFFFFF" d="M7.92,21.971l-0.563-1.879l0.563-6.266l0.528,6.266L7.92,21.971z M16.802,24.009
			c-1.541,0-6.177-3.4-6.177-4.506c0-0.125,0.038-0.247,0.111-0.368c-0.004,0.008-0.012,0.011-0.012,0.013l0.499-3.123l6.021,3.661
			l6.138-3.661l0.502,2.895c0.063,0.351,0.101,0.467,0.101,0.584C23.984,20.611,18.345,24.009,16.802,24.009z M17.293,19.039
			L7.858,13.32l9.458-3.017l9.438,2.973L17.293,19.039z"/>
	</g>
</g>
</svg>
