<?xml version="1.0" encoding="utf-8"?>
<!-- Generator: Adobe Illustrator 16.0.0, SVG Export Plug-In . SVG Version: 6.00 Build 0)  -->
<!DOCTYPE svg PUBLIC "-//W3C//DTD SVG 1.1//EN" "http://www.w3.org/Graphics/SVG/1.1/DTD/svg11.dtd" [
	<!ENTITY ns_flows "http://ns.adobe.com/Flows/1.0/">
	<!ENTITY ns_extend "http://ns.adobe.com/Extensibility/1.0/">
	<!ENTITY ns_ai "http://ns.adobe.com/AdobeIllustrator/10.0/">
	<!ENTITY ns_graphs "http://ns.adobe.com/Graphs/1.0/">
	<!ENTITY ns_vars "http://ns.adobe.com/Variables/1.0/">
	<!ENTITY ns_imrep "http://ns.adobe.com/ImageReplacement/1.0/">
	<!ENTITY ns_sfw "http://ns.adobe.com/SaveForWeb/1.0/">
	<!ENTITY ns_custom "http://ns.adobe.com/GenericCustomNamespace/1.0/">
	<!ENTITY ns_adobe_xpath "http://ns.adobe.com/XPath/1.0/">
]>
<svg version="1.1"
	 xmlns:x="&ns_extend;" xmlns:i="&ns_ai;" xmlns:graph="&ns_graphs;" i:viewOrigin="1526.1592 -549.0781" i:rulerOrigin="-1526.1592 582.79" i:pageBounds="1526.1592 -549.0781 1559.8701 -582.79"
	 xmlns="http://www.w3.org/2000/svg" xmlns:xlink="http://www.w3.org/1999/xlink" xmlns:a="http://ns.adobe.com/AdobeSVGViewerExtensions/3.0/"
	 x="0px" y="0px" width="33.711px" height="33.712px" viewBox="0 0 33.711 33.712" enable-background="new 0 0 33.711 33.712"
	 xml:space="preserve">
<metadata>
	<variableSets  xmlns="&ns_vars;">
		<variableSet  varSetName="binding1" locked="none">
			<variables></variables>
			<v:sampleDataSets  xmlns:v="&ns_vars;" xmlns="&ns_custom;"></v:sampleDataSets>
		</variableSet>
	</variableSets>
</metadata>
<g id="Warstwa_1" i:layer="yes" i:dimmedPercent="50" i:rgbTrio="#4F008000FFFF">
	<g>
		<g>
			
				<circle i:knockout="Off" fill="#585757" stroke="#FFFFFF" stroke-width="3.7497" stroke-miterlimit="10" cx="16.855" cy="16.856" r="14.98"/>
		</g>
		<g>
			<path i:knockout="Off" fill="#FFFFFF" d="M18.616,16.191v-3.549h1.181l-2.364-2.365V9.094h1.184V7.91h-1.184V6.729H16.25V7.91
				h-1.183v1.184h1.183v1.184l-2.366,2.365h1.184v3.549l-5.914,4.73h2.365v4.73h3.549v-2.957c0-0.98,0.793-1.773,1.773-1.773
				c0.979,0,1.775,0.793,1.775,1.773v2.957h3.547v-4.73h2.366L18.616,16.191z M17.433,15.007H16.25v-1.773
				c0-0.327,0.265-0.591,0.591-0.591c0.327,0,0.592,0.264,0.592,0.591V15.007z M17.433,15.007"/>
		</g>
	</g>
</g>
</svg>
