<?xml version="1.0" encoding="utf-8"?>
<!-- Generator: Adobe Illustrator 16.0.0, SVG Export Plug-In . SVG Version: 6.00 Build 0)  -->
<!DOCTYPE svg PUBLIC "-//W3C//DTD SVG 1.1//EN" "http://www.w3.org/Graphics/SVG/1.1/DTD/svg11.dtd" [
	<!ENTITY ns_flows "http://ns.adobe.com/Flows/1.0/">
	<!ENTITY ns_extend "http://ns.adobe.com/Extensibility/1.0/">
	<!ENTITY ns_ai "http://ns.adobe.com/AdobeIllustrator/10.0/">
	<!ENTITY ns_graphs "http://ns.adobe.com/Graphs/1.0/">
	<!ENTITY ns_vars "http://ns.adobe.com/Variables/1.0/">
	<!ENTITY ns_imrep "http://ns.adobe.com/ImageReplacement/1.0/">
	<!ENTITY ns_sfw "http://ns.adobe.com/SaveForWeb/1.0/">
	<!ENTITY ns_custom "http://ns.adobe.com/GenericCustomNamespace/1.0/">
	<!ENTITY ns_adobe_xpath "http://ns.adobe.com/XPath/1.0/">
]>
<svg version="1.1"
	 xmlns:x="&ns_extend;" xmlns:i="&ns_ai;" xmlns:graph="&ns_graphs;" i:viewOrigin="1381.6602 -672.79" i:rulerOrigin="-1381.6602 706.502" i:pageBounds="1381.6602 -672.79 1415.3711 -706.502"
	 xmlns="http://www.w3.org/2000/svg" xmlns:xlink="http://www.w3.org/1999/xlink" xmlns:a="http://ns.adobe.com/AdobeSVGViewerExtensions/3.0/"
	 x="0px" y="0px" width="33.711px" height="33.712px" viewBox="0 0 33.711 33.712" enable-background="new 0 0 33.711 33.712"
	 xml:space="preserve">
<metadata>
	<variableSets  xmlns="&ns_vars;">
		<variableSet  varSetName="binding1" locked="none">
			<variables></variables>
			<v:sampleDataSets  xmlns:v="&ns_vars;" xmlns="&ns_custom;"></v:sampleDataSets>
		</variableSet>
	</variableSets>
</metadata>
<g id="Warstwa_1" i:layer="yes" i:dimmedPercent="50" i:rgbTrio="#4F008000FFFF">
	<g>
		<g>
			
				<circle i:knockout="Off" fill="#E49461" stroke="#FFFFFF" stroke-width="3.7497" stroke-miterlimit="10" cx="16.855" cy="16.856" r="14.98"/>
		</g>
		<g>
			<path i:knockout="Off" fill="#FFFFFF" d="M23.059,25.62c0,0,0-5.124-0.003-5.633c0.003-0.466-0.011-11.639-0.011-11.639h-0.256
				c0,0-2.08,1.173-2.08,9.876c1.598,0.439,0.926,2.185,0.805,2.406c0,0.443,0.033,4.992,0.033,4.992h0.005
				c0,0.005-0.002,0.008-0.002,0.015c-0.003,0.419,0.34,0.756,0.754,0.753c0.417,0,0.755-0.337,0.755-0.753
				c0-0.003,0-0.01-0.003-0.012L23.059,25.62z M23.059,25.62"/>
			<path i:knockout="Off" fill="#FFFFFF" d="M19.371,8.671h-0.455l0.137,4.732H18.51V8.671h-0.396v4.763h-0.452V8.671h-0.437v4.763
				h-0.532l0.151-4.766h-0.411l-0.503,4.031c0,0-0.01,0.151-0.01,0.208c0,0.623,0.286,1.179,0.736,1.54
				c1.484,1.677,0.472,3.387,0.472,3.792c0.003,0.448,0.003,7.372,0.003,7.372c0,0.004-0.003,0.006-0.003,0.015
				c0,0.426,0.343,0.765,0.769,0.765c0.424,0,0.769-0.342,0.769-0.765c0-0.009-0.003-0.011-0.003-0.015h0.003c0,0,0-6.836,0-7.359
				c0-0.47-0.86-2.437,0.571-3.898c0.005,0,0.006-0.006,0.009-0.008c0.35-0.33,0.578-0.787,0.613-1.301
				c0.005-0.035,0.005-0.125,0.005-0.125L19.371,8.671z M19.371,8.671"/>
			<path i:knockout="Off" fill="#FFFFFF" d="M12.521,8.27h-0.042c-1.664,0.026-2.601,1.619-2.601,3.35
				c0,1.747,1.05,2.991,1.963,3.266c0.503,0.703,0.17,2.364-0.182,3.321v7.472c0,0.007,0,0.012,0,0.019
				c0,0.427,0.348,0.774,0.776,0.774h0.127c0.431,0,0.777-0.348,0.777-0.774c0-0.007,0-0.012,0-0.019v-7.472
				c-0.354-0.957-0.685-2.618-0.182-3.321c0.913-0.274,1.962-1.519,1.962-3.266C15.12,9.889,14.184,8.296,12.521,8.27L12.521,8.27z
				 M11.653,14.21c-0.104-0.079-0.236-0.208-0.374-0.376c-0.143-0.169-0.289-0.377-0.428-0.616
				c-0.064-0.122-0.129-0.249-0.186-0.386c-0.057-0.141-0.102-0.279-0.135-0.441c-0.059-0.312-0.047-0.608-0.014-0.885
				c0.03-0.272,0.088-0.522,0.153-0.729c0.061-0.21,0.134-0.376,0.195-0.491c0.058-0.117,0.107-0.175,0.107-0.175
				s-0.011,0.077-0.017,0.199c-0.002,0.125-0.012,0.3-0.016,0.512c-0.007,0.416-0.04,0.983,0.038,1.486
				c0.013,0.119,0.054,0.254,0.097,0.371c0.038,0.125,0.085,0.249,0.131,0.366c0.096,0.24,0.196,0.464,0.285,0.653
				c0.085,0.19,0.164,0.348,0.225,0.455c0.059,0.109,0.11,0.157,0.115,0.151C11.832,14.311,11.757,14.293,11.653,14.21L11.653,14.21
				z M11.653,14.21"/>
		</g>
	</g>
</g>
</svg>
