<?xml version="1.0" encoding="utf-8"?>
<!-- Generator: Adobe Illustrator 16.0.0, SVG Export Plug-In . SVG Version: 6.00 Build 0)  -->
<!DOCTYPE svg PUBLIC "-//W3C//DTD SVG 1.1//EN" "http://www.w3.org/Graphics/SVG/1.1/DTD/svg11.dtd" [
	<!ENTITY ns_flows "http://ns.adobe.com/Flows/1.0/">
	<!ENTITY ns_extend "http://ns.adobe.com/Extensibility/1.0/">
	<!ENTITY ns_ai "http://ns.adobe.com/AdobeIllustrator/10.0/">
	<!ENTITY ns_graphs "http://ns.adobe.com/Graphs/1.0/">
	<!ENTITY ns_vars "http://ns.adobe.com/Variables/1.0/">
	<!ENTITY ns_imrep "http://ns.adobe.com/ImageReplacement/1.0/">
	<!ENTITY ns_sfw "http://ns.adobe.com/SaveForWeb/1.0/">
	<!ENTITY ns_custom "http://ns.adobe.com/GenericCustomNamespace/1.0/">
	<!ENTITY ns_adobe_xpath "http://ns.adobe.com/XPath/1.0/">
]>
<svg version="1.1"
	 xmlns:x="&ns_extend;" xmlns:i="&ns_ai;" xmlns:graph="&ns_graphs;" i:viewOrigin="1331.2578 -716.5693" i:rulerOrigin="-1331.2578 750.2812" i:pageBounds="1331.2578 -716.5693 1364.9688 -750.2812"
	 xmlns="http://www.w3.org/2000/svg" xmlns:xlink="http://www.w3.org/1999/xlink" xmlns:a="http://ns.adobe.com/AdobeSVGViewerExtensions/3.0/"
	 x="0px" y="0px" width="33.711px" height="33.712px" viewBox="0 0 33.711 33.712" enable-background="new 0 0 33.711 33.712"
	 xml:space="preserve">
<metadata>
	<variableSets  xmlns="&ns_vars;">
		<variableSet  varSetName="binding1" locked="none">
			<variables></variables>
			<v:sampleDataSets  xmlns:v="&ns_vars;" xmlns="&ns_custom;"></v:sampleDataSets>
		</variableSet>
	</variableSets>
</metadata>
<g id="Warstwa_1" i:layer="yes" i:dimmedPercent="50" i:rgbTrio="#4F008000FFFF">
	<g>
		<g>
			
				<circle i:knockout="Off" fill="#E49461" stroke="#FFFFFF" stroke-width="3.7497" stroke-miterlimit="10" cx="16.855" cy="16.856" r="14.98"/>
		</g>
		<g>
			<path i:knockout="Off" fill="#FFFFFF" d="M26.437,13.439c-0.111-0.218-0.294-0.429-0.506-0.316
				c-0.01,0.003-0.061,0.028-0.141,0.07c-0.061,0.031-0.138,0.07-0.236,0.121l-8.083,4.143c0.01-0.039,0.013-0.074,0.025-0.112
				c0.15-0.361,2.449-9.878,2.449-9.878l-0.074-0.455l-3.422,8.381l0.499,1.188l-0.617,1.459l-6.322,3.243
				c-0.228,0.115-0.361,0.186-0.378,0.192c-0.211,0.108-0.147,0.381-0.038,0.595c0.112,0.218,1.22,2.276,1.37,2.57
				c0.364-0.144,0.388-0.364,0.269-0.595c-0.118-0.23-0.906-1.771-0.906-1.771s0.055-0.028,0.151-0.077l0.194-0.102l1.034,2.02
				l0.292-0.15l-1.034-2.017l0.246-0.125l1.034,2.017l0.291-0.15l-1.033-2.017l0.204-0.105l1.034,2.017l0.291-0.15l-1.033-2.017
				l0.246-0.125l1.034,2.017l0.291-0.15l-1.034-2.017l0.253-0.128l1.034,2.017l0.291-0.15l-1.033-2.017l0.243-0.125l1.027,2
				c-0.02,0.039-0.042,0.074-0.058,0.115c-0.477,1.021-0.272,2.196,0.493,2.859c0.138,0.121,0.294,0.221,0.461,0.297
				c0.541,0.253,1.155,0.25,1.734-0.006c0.563-0.247,1.021-0.708,1.297-1.297c0.403-0.87,0.316-1.85-0.192-2.532
				c-0.051-0.099-0.25-0.509-0.432-1.11l0.144-0.073l-0.329-0.647c-0.062-0.281-0.109-0.582-0.139-0.902l0.728,1.415l0.291-0.147
				l-1.034-2.017l0.243-0.128l1.034,2.02l0.295-0.15l-1.034-2.017l0.205-0.105l1.034,2.014l0.291-0.147l-1.034-2.017l0.246-0.125
				l1.034,2.017l0.291-0.15l-1.033-2.014l0.252-0.131l1.034,2.017l0.292-0.147L19.43,17.61l0.246-0.128l1.034,2.02l0.291-0.15
				l-1.033-2.017l0.236-0.125l1.034,2.017l0.294-0.146l-1.033-2.017l0.243-0.128l1.034,2.017l0.291-0.147l-1.034-2.017l0.253-0.132
				l1.034,2.017l0.294-0.15l-1.037-2.017l0.247-0.125l1.034,2.018l0.291-0.147l-1.034-2.017l0.259-0.135l1.034,2.017l0.292-0.15
				l-1.034-2.017l0.243-0.125l1.034,2.017l0.294-0.147l-1.033-2.02l0.204-0.105l1.034,2.02l0.291-0.15L23.7,15.421l0.246-0.128
				l1.034,2.017l0.291-0.147l-1.034-2.017l0.253-0.131l1.034,2.017l0.291-0.15l-1.033-2.017l0.243-0.125l1.034,2.017l0.291-0.15
				l-1.034-2.017l0.256-0.132l1.034,2.018l0.291-0.147l-1.033-2.017l0.159-0.084c0.097-0.048,0.151-0.076,0.151-0.076
				s0.79,1.539,0.908,1.77c0.119,0.23,0.308,0.343,0.641,0.129C27.569,15.754,26.546,13.654,26.437,13.439L26.437,13.439z
				 M16.983,15.207c0.135-0.157,0.372-0.177,0.529-0.039c0.156,0.135,0.176,0.371,0.038,0.528c-0.135,0.157-0.372,0.176-0.528,0.038
				C16.865,15.601,16.85,15.363,16.983,15.207L16.983,15.207z M15.71,19.516l-0.016,0.038l-0.01-0.025L15.71,19.516z M15.39,19.679
				l0.138,0.269l-0.138,0.33l-0.243-0.475L15.39,19.679z M14.855,19.954l0.368,0.717l-0.115,0.278l-0.458-0.89L14.855,19.954z
				 M14.356,20.21l0.582,1.136l-0.138,0.33l-0.688-1.341L14.356,20.21z M13.821,20.485l0.812,1.584l-0.118,0.278l-0.899-1.76
				L13.821,20.485z M17.631,24.409c-0.198,0.433-0.535,0.769-0.938,0.948c-0.387,0.169-0.793,0.176-1.146,0.01
				c-0.105-0.049-0.208-0.112-0.298-0.189c-0.525-0.458-0.653-1.287-0.313-2.023c0.201-0.432,0.534-0.768,0.94-0.947
				c0.388-0.17,0.794-0.173,1.146-0.01c0.109,0.049,0.205,0.112,0.298,0.189C17.845,22.841,17.974,23.674,17.631,24.409
				L17.631,24.409z M17.631,24.409"/>
			<g>
				<path i:knockout="Off" fill="#FFFFFF" d="M18.089,16.215l7.381-4.363l-0.483,0.01c0,0-3.716,1.514-6.469,2.653
					C18.354,15.168,18.207,15.754,18.089,16.215L18.089,16.215z M18.089,16.215"/>
				<path i:knockout="Off" fill="#FFFFFF" d="M10.585,19.649c0.003-0.003,0.007-0.006,0.01-0.01
					c-0.003,0.01-0.003,0.017-0.003,0.017l5.857-3.474h0.007l-0.288-0.685c-0.308,0.131-0.503,0.218-0.548,0.243
					c-2.308,0.947-4.744,0.093-4.917,0.028c-0.735-0.381-1.696-0.329-2.483,0.177c-0.548,0.349-0.944,0.864-1.114,1.456
					c-0.179,0.608-0.096,1.217,0.224,1.719c0.103,0.164,0.23,0.311,0.375,0.436C8.46,20.21,9.647,20.248,10.585,19.649
					L10.585,19.649z M8.168,19.016c-0.093-0.08-0.173-0.173-0.239-0.278c-0.209-0.326-0.26-0.729-0.142-1.137
					c0.125-0.426,0.413-0.8,0.813-1.056c0.676-0.433,1.514-0.42,2.035,0.031c0.094,0.08,0.174,0.173,0.24,0.279
					c0.209,0.326,0.26,0.729,0.141,1.136c-0.124,0.426-0.412,0.801-0.812,1.057C9.525,19.479,8.69,19.467,8.168,19.016L8.168,19.016
					z M8.168,19.016"/>
			</g>
		</g>
	</g>
</g>
</svg>
