<?xml version="1.0" encoding="UTF-8" standalone="no"?>
<svg width="38px" height="38px" viewBox="0 0 38 38" version="1.1" xmlns="http://www.w3.org/2000/svg" xmlns:xlink="http://www.w3.org/1999/xlink">
    <!-- Generator: Sketch 50.2 (55047) - http://www.bohemiancoding.com/sketch -->
    <title>3 copy</title>
    <desc>Created with Sketch.</desc>
    <defs></defs>
    <g id="Page-1" stroke="none" stroke-width="1" fill="none" fill-rule="evenodd">
        <g id="Home-Copy-17" transform="translate(-151.000000, -2858.000000)" fill-rule="nonzero">
            <g id="3-copy" transform="translate(151.000000, 2858.000000)">
                <g id="Group">
                    <g transform="translate(0.950000, 0.950000)" fill="#FFFFFF" id="Shape">
                        <path d="M35.42835,17.95405 C35.42835,27.608425 27.600825,35.430725 17.951675,35.430725 C8.300625,35.430725 0.475,27.608425 0.475,17.95405 C0.475,8.30015 8.300625,0.475 17.951675,0.475 C27.600825,0.475 35.42835,8.30015 35.42835,17.95405 Z"></path>
                        <path d="M17.951675,35.668225 C8.183775,35.668225 0.2375,27.721475 0.2375,17.95405 C0.2375,8.1852 8.183775,0.2375 17.951675,0.2375 C27.719575,0.2375 35.66585,8.1852 35.66585,17.95405 C35.66585,27.721475 27.7191,35.668225 17.951675,35.668225 Z M17.951675,0.7125 C8.445975,0.7125 0.7125,8.446925 0.7125,17.95405 C0.7125,27.45975 8.445975,35.193225 17.951675,35.193225 C27.457375,35.193225 35.19085,27.45975 35.19085,17.95405 C35.19085,8.446925 27.457375,0.7125 17.951675,0.7125 Z"></path>
                    </g>
                    <path d="M18.901675,37.568225 C8.610325,37.568225 0.2375,29.1954 0.2375,18.90405 C0.2375,8.611275 8.610325,0.2375 18.901675,0.2375 C29.193025,0.2375 37.56585,8.611275 37.56585,18.90405 C37.56585,29.1954 29.193025,37.568225 18.901675,37.568225 Z M18.901675,2.6125 C9.9199,2.6125 2.6125,9.92085 2.6125,18.90405 C2.6125,27.885825 9.9199,35.193225 18.901675,35.193225 C27.88345,35.193225 35.19085,27.885825 35.19085,18.90405 C35.19085,9.92085 27.88345,2.6125 18.901675,2.6125 Z" id="Shape" fill="#F79421"></path>
                    <g transform="translate(10.450000, 8.550000)" fill="#F79421" id="Shape">
                        <path d="M15.687825,20.577475 C15.687825,20.577475 15.687825,14.599125 15.684025,14.006325 C15.687825,13.461975 15.67215,0.42845 15.67215,0.42845 L15.374325,0.42845 C15.374325,0.42845 12.9466,1.7955 12.9466,11.9491 C14.8105,12.4621 14.027225,14.498425 13.885675,14.75635 C13.885675,15.27315 13.925575,20.580325 13.925575,20.580325 L13.930325,20.580325 C13.930325,20.58745 13.927475,20.58935 13.927475,20.598375 C13.925575,21.085725 14.324575,21.479975 14.808125,21.4757 C15.29405,21.4757 15.688775,21.083825 15.688775,20.598375 C15.688775,20.593625 15.688775,20.58745 15.684975,20.585075 L15.687825,20.577475 Z"></path>
                        <path d="M11.387175,0.805125 L10.85565,0.805125 L11.0143,6.325575 L10.3816,6.325575 L10.3816,0.805125 L9.918475,0.805125 L9.918475,6.3593 L9.3917,6.3593 L9.3917,0.805125 L8.8825,0.805125 L8.8825,6.3593 L8.260725,6.3593 L8.4379,0.7999 L7.95815,0.7999 L7.372,5.502875 C7.372,5.502875 7.359175,5.680525 7.359175,5.74655 C7.359175,6.4733 7.69405,7.120725 8.2194,7.54205 C9.95125,9.499525 8.76945,11.492625 8.76945,11.966675 C8.77325,12.4887 8.77325,20.566075 8.77325,20.566075 C8.77325,20.570825 8.76945,20.573675 8.76945,20.5846 C8.76945,21.080975 9.1694,21.475225 9.666725,21.475225 C10.1612,21.475225 10.56305,21.076225 10.56305,20.5846 C10.56305,20.573675 10.5602,20.570825 10.5602,20.566075 L10.56305,20.566075 C10.56305,20.566075 10.56305,12.5913 10.56305,11.980925 C10.56305,11.4342 9.559375,9.139475 11.229,7.4328 C11.23565,7.4328 11.2366,7.425675 11.239925,7.4233 C11.64795,7.038075 11.914425,6.505125 11.954325,5.90615 C11.960975,5.8653 11.960975,5.760325 11.960975,5.760325 L11.387175,0.805125 Z"></path>
                        <path d="M3.393875,0.33535 L3.344475,0.33535 C1.404575,0.367175 0.3116,2.224425 0.3116,4.243175 C0.3116,6.28235 1.53615,7.73395 2.60015,8.05315 C3.1882,8.873475 2.7987,10.812425 2.389725,11.92915 L2.389725,20.644925 C2.389725,20.65395 2.389725,20.658225 2.389725,20.66725 C2.389725,21.164575 2.795375,21.56975 3.295075,21.56975 L3.4428,21.56975 C3.944875,21.56975 4.35005,21.1641 4.35005,20.66725 C4.35005,20.658225 4.35005,20.65395 4.35005,20.644925 L4.35005,11.928675 C3.937275,10.811475 3.55015,8.872525 4.137725,8.052675 C5.203625,7.733475 6.426275,6.281875 6.426275,4.2427 C6.426275,2.224425 5.33425,0.367175 3.393875,0.33535 Z M2.3826,7.26655 C2.261,7.17345 2.1071,7.022875 1.94655,6.8267 C1.7803,6.631 1.609775,6.38685 1.447325,6.108975 C1.371325,5.965525 1.297225,5.817325 1.2312,5.657725 C1.165175,5.49385 1.11245,5.331875 1.07445,5.142825 C1.0051,4.780875 1.018875,4.4346 1.057825,4.11065 C1.092975,3.7943 1.1609,3.50265 1.2369,3.260875 C1.3072,3.014825 1.3927,2.821025 1.464425,2.6866 C1.53235,2.550275 1.590775,2.483775 1.590775,2.483775 C1.590775,2.483775 1.57795,2.573075 1.5713,2.71605 C1.5694,2.861875 1.556575,3.064225 1.552775,3.313125 C1.544225,3.798575 1.506225,4.4593 1.597425,5.046875 C1.6112,5.18605 1.65965,5.343275 1.710475,5.480075 C1.754175,5.6259 1.8088,5.768875 1.862475,5.905675 C1.973625,6.185925 2.091425,6.448125 2.1945,6.668525 C2.293775,6.889875 2.3864,7.074175 2.457175,7.199575 C2.5251,7.32735 2.5859,7.381975 2.59065,7.37485 C2.590175,7.382925 2.503725,7.3625 2.3826,7.26655 Z"></path>
                    </g>
                </g>
            </g>
        </g>
    </g>
</svg>