<?xml version="1.0" encoding="UTF-8" standalone="no"?>
<svg width="38px" height="38px" viewBox="0 0 38 38" version="1.1" xmlns="http://www.w3.org/2000/svg" xmlns:xlink="http://www.w3.org/1999/xlink">
    <!-- Generator: Sketch 50.2 (55047) - http://www.bohemiancoding.com/sketch -->
    <title>1 copy</title>
    <desc>Created with Sketch.</desc>
    <defs></defs>
    <g id="Page-1" stroke="none" stroke-width="1" fill="none" fill-rule="evenodd">
        <g id="Home-Copy-17" transform="translate(-151.000000, -2755.000000)" fill-rule="nonzero">
            <g id="1-copy" transform="translate(151.000000, 2755.000000)">
                <g id="Group">
                    <g transform="translate(0.950000, 0.950000)" fill="#FFFFFF" id="Shape">
                        <path d="M35.42835,17.953575 C35.42835,27.60795 27.600825,35.43025 17.9512,35.43025 C8.30015,35.430725 0.475,27.60795 0.475,17.953575 C0.475,8.299675 8.30015,0.475 17.9512,0.475 C27.600825,0.475 35.42835,8.299675 35.42835,17.953575 Z"></path>
                        <path d="M17.9512,35.668225 C8.183775,35.668225 0.2375,27.721475 0.2375,17.953575 C0.2375,8.184725 8.183775,0.2375 17.9512,0.2375 C27.718625,0.2375 35.66585,8.184725 35.66585,17.953575 C35.66585,27.721475 27.718625,35.668225 17.9512,35.668225 Z M17.9512,0.7125 C8.445975,0.7125 0.7125,8.446925 0.7125,17.953575 C0.7125,27.459275 8.445975,35.19275 17.9512,35.19275 C27.457375,35.19275 35.19085,27.459275 35.19085,17.953575 C35.19085,8.446925 27.457375,0.7125 17.9512,0.7125 Z"></path>
                    </g>
                    <path d="M18.9012,37.805725 C8.479225,37.805725 0,29.326025 0,18.903575 C0,8.480175 8.479225,0 18.9012,0 C29.32365,0 37.80335,8.480175 37.80335,18.903575 C37.80335,29.326025 29.32365,37.805725 18.9012,37.805725 Z M18.9012,2.85 C10.050525,2.85 2.85,10.05195 2.85,18.903575 C2.85,27.75425 10.050525,34.95525 18.9012,34.95525 C27.75235,34.95525 34.95335,27.75425 34.95335,18.903575 C34.95335,10.05195 27.75235,2.85 18.9012,2.85 Z" id="Shape" fill="#F79421"></path>
                    <g transform="translate(8.550000, 10.450000)" fill="#F79421" id="Shape">
                        <path d="M18.702175,2.620575 C18.51645,2.40635 18.2514,2.288075 17.9721,2.288075 L4.511075,2.288075 L4.325825,1.150925 C4.246025,0.67925 3.84275,0.337725 3.36585,0.337725 L1.17325,0.337725 C0.63555,0.337725 0.1995,0.7752 0.1995,1.3129 C0.1995,1.8506 0.63555,2.28855 1.17325,2.28855 L2.5384,2.28855 L4.35005,13.154175 C4.359075,13.197875 4.3776,13.234925 4.39375,13.2734 C4.411325,13.32565 4.42035,13.373625 4.444575,13.4216 C4.478775,13.487625 4.522475,13.539875 4.56475,13.596875 C4.59325,13.63535 4.620325,13.671925 4.655475,13.706125 C4.709625,13.758375 4.777075,13.79685 4.84405,13.833425 C4.880625,13.85195 4.911025,13.88235 4.95235,13.89755 C5.067775,13.938875 5.186525,13.96785 5.3086,13.96785 L16.02175,13.96785 C16.558025,13.96785 16.996925,13.5356 16.996925,12.992675 C16.996925,12.454975 16.558025,12.02415 16.02175,12.02415 L6.136525,12.02415 L5.977875,11.048975 L16.996925,11.048975 C17.481425,11.048975 17.8904,10.6913 17.9607,10.212975 L18.931125,3.3953 C18.972925,3.112675 18.8879,2.8329 18.702175,2.620575 Z M16.843975,4.231775 L16.569425,6.182125 L13.10145,6.182125 L13.10145,4.231775 L16.843975,4.231775 Z M12.128175,4.231775 L12.128175,6.182125 L9.204075,6.182125 L9.204075,4.231775 L12.128175,4.231775 Z M12.128175,7.154925 L12.128175,9.098625 L9.204075,9.098625 L9.204075,7.154925 L12.128175,7.154925 Z M8.236025,4.231775 L8.236025,6.182125 L5.30955,6.182125 C5.25825,6.182125 5.2155,6.195425 5.168475,6.2092 L4.8412,4.231775 L8.236025,4.231775 Z M5.324275,7.154925 L8.236025,7.154925 L8.236025,9.098625 L5.648225,9.098625 L5.324275,7.154925 Z M13.10145,9.098625 L13.10145,7.154925 L16.4293,7.154925 L16.14905,9.098625 L13.10145,9.098625 Z"></path>
                        <path d="M8.236025,16.40175 C8.236025,17.2102 7.5791,17.85905 6.771125,17.85905 C5.966475,17.85905 5.30955,17.2102 5.30955,16.40175 C5.30955,15.5971 5.966475,14.943025 6.771125,14.943025 C7.5791,14.943025 8.236025,15.5971 8.236025,16.40175 Z"></path>
                        <path d="M16.996925,16.40175 C16.996925,17.2102 16.34095,17.85905 15.536775,17.85905 C14.72785,17.85905 14.073775,17.2102 14.073775,16.40175 C14.073775,15.5971 14.72785,14.943025 15.536775,14.943025 C16.34095,14.943025 16.996925,15.5971 16.996925,16.40175 Z"></path>
                    </g>
                </g>
            </g>
        </g>
    </g>
</svg>