<?xml version="1.0" encoding="UTF-8" standalone="no"?>
<svg width="38px" height="38px" viewBox="0 0 38 38" version="1.1" xmlns="http://www.w3.org/2000/svg" xmlns:xlink="http://www.w3.org/1999/xlink">
    <!-- Generator: Sketch 50.2 (55047) - http://www.bohemiancoding.com/sketch -->
    <title>6 copy 3</title>
    <desc>Created with Sketch.</desc>
    <defs></defs>
    <g id="Page-1" stroke="none" stroke-width="1" fill="none" fill-rule="evenodd">
        <g id="Home-Copy-17" transform="translate(-151.000000, -3116.000000)" fill-rule="nonzero">
            <g id="6-copy-3" transform="translate(151.000000, 3116.000000)">
                <g id="Group">
                    <g fill="#B89557" id="Shape">
                        <g transform="translate(1.000000, 1.000000)">
                            <path d="M35.37835,17.903575 C35.37835,27.558425 27.550825,35.380725 17.901675,35.380725 C8.250625,35.380725 0.425,27.558425 0.425,17.903575 C0.425,8.249675 8.250625,0.425 17.901675,0.425 C27.550825,0.425 35.37835,8.249675 35.37835,17.903575 Z"></path>
                        </g>
                        <path d="M18.901675,37.568225 C8.610325,37.568225 0.2375,29.1954 0.2375,18.903575 C0.2375,8.6108 8.610325,0.2375 18.901675,0.2375 C29.193025,0.2375 37.56585,8.6108 37.56585,18.903575 C37.56585,29.1954 29.193025,37.568225 18.901675,37.568225 Z M18.901675,2.6125 C9.9199,2.6125 2.6125,9.92085 2.6125,18.903575 C2.6125,27.885825 9.9199,35.193225 18.901675,35.193225 C27.88345,35.193225 35.19085,27.885825 35.19085,18.903575 C35.19085,9.92085 27.88345,2.6125 18.901675,2.6125 Z"></path>
                    </g>
                    <path d="M8.477325,24.868625 L7.819925,22.6765 L8.477325,15.367675 L9.093875,22.6765 L8.477325,24.868625 Z M18.8385,27.247425 C17.0411,27.247425 11.63275,23.281175 11.63275,21.992025 C11.63275,21.8462 11.677875,21.7018 11.7629,21.560725 C11.75815,21.570225 11.749125,21.5745 11.749125,21.57735 L12.331475,17.93315 L19.3553,22.2034 L26.51545,17.93315 L27.10065,21.309925 C27.17475,21.71795 27.21845,21.854275 27.21845,21.992025 C27.218925,23.28355 20.639225,27.247425 18.8385,27.247425 Z M19.412775,21.4491 L8.4056,14.776775 L19.439375,11.259875 L30.448925,14.7269 L19.412775,21.4491 Z" id="Shape" fill="#FFFFFF"></path>
                </g>
            </g>
        </g>
    </g>
</svg>