<?xml version="1.0" encoding="UTF-8" standalone="no"?>
<svg width="38px" height="38px" viewBox="0 0 38 38" version="1.1" xmlns="http://www.w3.org/2000/svg" xmlns:xlink="http://www.w3.org/1999/xlink">
    <!-- Generator: Sketch 50.2 (55047) - http://www.bohemiancoding.com/sketch -->
    <title>8 copy</title>
    <desc>Created with Sketch.</desc>
    <defs></defs>
    <g id="Page-1" stroke="none" stroke-width="1" fill="none" fill-rule="evenodd">
        <g id="Home-Copy-17" transform="translate(-151.000000, -2964.000000)" fill-rule="nonzero">
            <g id="8-copy" transform="translate(151.000000, 2964.000000)">
                <g id="Group">
                    <g id="Shape">
                        <g fill="#FFFFFF">
                            <path d="M36.377875,18.90215 C36.377875,28.557 28.55035,36.37835 18.9012,36.37835 C9.250625,36.37835 1.425475,28.556525 1.425475,18.90215 C1.425475,9.24825 9.250625,1.426425 18.9012,1.426425 C28.55035,1.426425 36.377875,9.24825 36.377875,18.90215 Z"></path>
                            <path d="M18.9012,37.566325 C8.610325,37.566325 0.237975,29.1935 0.237975,18.902625 C0.237975,8.61175 8.610325,0.2394 18.9012,0.2394 C29.19255,0.2394 37.565375,8.61175 37.565375,18.902625 C37.565375,29.1935 29.19255,37.566325 18.9012,37.566325 Z M18.9012,2.613925 C9.9199,2.613925 2.612975,9.92085 2.612975,18.90215 C2.612975,27.883925 9.9199,35.19085 18.9012,35.19085 C27.882975,35.19085 35.190375,27.88345 35.190375,18.90215 C35.190375,9.92085 27.882975,2.613925 18.9012,2.613925 Z"></path>
                        </g>
                        <path d="M18.9012,37.566325 C8.610325,37.566325 0.237975,29.1935 0.237975,18.902625 C0.237975,8.61175 8.610325,0.2394 18.9012,0.2394 C29.19255,0.2394 37.565375,8.61175 37.565375,18.902625 C37.565375,29.1935 29.19255,37.566325 18.9012,37.566325 Z M18.9012,2.613925 C9.9199,2.613925 2.612975,9.92085 2.612975,18.90215 C2.612975,27.883925 9.9199,35.19085 18.9012,35.19085 C27.882975,35.19085 35.190375,27.88345 35.190375,18.90215 C35.190375,9.92085 27.882975,2.613925 18.9012,2.613925 Z" fill="#3E3E47"></path>
                    </g>
                    <polygon id="Shape" fill="#3E3E47" points="22.45515 10.42435 15.2095 10.42435 15.2095 15.30925 10.327925 15.30925 10.327925 22.5511 15.2095 22.5511 15.2095 27.435525 22.455625 27.435525 22.455625 22.5511 27.3353 22.5511 27.3353 15.30925 22.45515 15.30925"></polygon>
                </g>
            </g>
        </g>
    </g>
</svg>