<?xml version="1.0" encoding="UTF-8" standalone="no"?>
<svg width="34px" height="34px" viewBox="0 0 34 34" version="1.1" xmlns="http://www.w3.org/2000/svg" xmlns:xlink="http://www.w3.org/1999/xlink">
    <!-- Generator: Sketch 50.2 (55047) - http://www.bohemiancoding.com/sketch -->
    <title>4 copy</title>
    <desc>Created with Sketch.</desc>
    <defs></defs>
    <g id="Page-1" stroke="none" stroke-width="1" fill="none" fill-rule="evenodd">
        <g id="Home-Copy-17" transform="translate(-153.000000, -2913.000000)" fill-rule="nonzero">
            <g id="4-copy" transform="translate(151.000000, 2911.000000)">
                <g id="Group" transform="translate(1.900000, 1.900000)">
                    <path d="M32.60495,26.8014 C32.60495,30.007175 30.005275,32.60685 26.799975,32.60685 L7.203375,32.60685 C3.998075,32.60685 1.3984,30.007175 1.3984,26.8014 L1.3984,7.20575 C1.3984,3.99855 3.998075,1.3984 7.203375,1.3984 L26.799975,1.3984 C30.005275,1.3984 32.60495,3.998075 32.60495,7.20575 L32.60495,26.8014 Z" id="Shape" fill="#FFFFFF"></path>
                    <path d="M26.799975,33.79435 L7.203375,33.79435 C3.3478,33.79435 0.2109,30.65745 0.2109,26.8014 L0.2109,7.20575 C0.2109,3.34875 3.3478,0.2109 7.203375,0.2109 L26.799975,0.2109 C30.65555,0.2109 33.79245,3.34875 33.79245,7.20575 L33.79245,26.800925 C33.79245,30.656975 30.65555,33.79435 26.799975,33.79435 Z M7.203375,2.586375 C4.657375,2.586375 2.5859,4.6588 2.5859,7.206225 L2.5859,26.8014 C2.5859,29.3474 4.657375,31.41935 7.203375,31.41935 L26.799975,31.41935 C29.345975,31.41935 31.41745,29.347875 31.41745,26.8014 L31.41745,7.20575 C31.41745,4.658325 29.34645,2.5859 26.799975,2.5859 L7.203375,2.5859 L7.203375,2.586375 Z" id="Shape" fill="#3E3E47"></path>
                    <path d="M7.591925,13.14135 L8.231275,13.14135 L8.231275,16.982675 L7.591925,16.982675 C7.238525,16.982675 6.950675,16.69815 6.950675,16.34 L6.950675,13.7788 C6.95115,13.42825 7.238525,13.14135 7.591925,13.14135 Z M26.804725,13.14135 L26.162525,13.14135 L26.162525,16.982675 L26.804725,16.982675 C27.157175,16.982675 27.444075,16.69815 27.444075,16.34 L27.444075,13.7788 C27.4436,13.42825 27.159075,13.14135 26.804725,13.14135 Z M24.88335,11.858375 L24.88335,23.387575 C24.88335,24.096275 24.310025,24.6677 23.603225,24.6677 L23.603225,25.948775 C23.603225,26.657 23.02895,27.2289 22.3231,27.2289 L21.040125,27.2289 C20.333325,27.2289 19.76,26.654625 19.76,25.948775 L19.76,24.6677 L14.636175,24.6677 L14.636175,25.948775 C14.636175,26.657 14.06285,27.2289 13.3551,27.2289 L12.074975,27.2289 C11.367225,27.2289 10.79485,26.654625 10.79485,25.948775 L10.79485,24.6677 C10.0871,24.6677 9.514725,24.093425 9.514725,23.387575 L9.514725,11.858375 C9.511875,9.7394 11.2347,8.016575 13.355575,8.016575 L21.040125,8.016575 C23.160525,8.016575 24.88335,9.737025 24.88335,11.858375 Z M14.636175,10.57825 L19.75905,10.57825 L19.75905,9.29765 L14.636175,9.29765 L14.636175,10.57825 Z M13.3551,22.10745 C13.3551,21.39875 12.781775,20.827325 12.074975,20.827325 C11.367225,20.827325 10.79485,21.39875 10.79485,22.10745 C10.79485,22.8133 11.367225,23.387575 12.074975,23.387575 C12.781775,23.387575 13.3551,22.8133 13.3551,22.10745 Z M23.60275,22.10745 C23.60275,21.39875 23.028475,20.827325 22.322625,20.827325 C21.612975,20.827325 21.03965,21.39875 21.03965,22.10745 C21.03965,22.8133 21.612975,23.387575 22.322625,23.387575 C23.028475,23.387575 23.60275,22.8133 23.60275,22.10745 Z M23.60275,11.858375 L10.79295,11.858375 L10.79295,19.54435 L23.60275,19.54435 L23.60275,11.858375 Z" id="Shape" fill="#3E3E47"></path>
                </g>
            </g>
        </g>
    </g>
</svg>