<?xml version="1.0" encoding="UTF-8" standalone="no"?>
<svg width="38px" height="38px" viewBox="0 0 38 38" version="1.1" xmlns="http://www.w3.org/2000/svg" xmlns:xlink="http://www.w3.org/1999/xlink">
    <!-- Generator: Sketch 50.2 (55047) - http://www.bohemiancoding.com/sketch -->
    <title>5 copy</title>
    <desc>Created with Sketch.</desc>
    <defs></defs>
    <g id="Page-1" stroke="none" stroke-width="1" fill="none" fill-rule="evenodd">
        <g id="Home-Copy-17" transform="translate(-151.000000, -3015.000000)" fill-rule="nonzero">
            <g id="5-copy" transform="translate(151.000000, 3015.000000)">
                <g id="Group">
                    <g id="Shape">
                        <g fill="#FFFFFF">
                            <path d="M36.37835,18.902625 C36.37835,28.557 28.550825,36.378825 18.9012,36.378825 C9.250625,36.378825 1.425,28.557 1.425,18.902625 C1.425,9.247775 9.250625,1.4269 18.9012,1.4269 C28.550825,1.4269 36.37835,9.247775 36.37835,18.902625 Z"></path>
                            <path d="M18.9012,37.566325 C8.60985,37.566325 0.2375,29.193975 0.2375,18.902625 C0.2375,8.61175 8.60985,0.2394 18.9012,0.2394 C29.193025,0.2394 37.56585,8.61175 37.56585,18.902625 C37.56585,29.193975 29.193025,37.566325 18.9012,37.566325 Z M18.9012,2.6144 C9.919425,2.6144 2.6125,9.921325 2.6125,18.902625 C2.6125,27.8844 9.919425,35.191325 18.9012,35.191325 C27.88345,35.191325 35.19085,27.8844 35.19085,18.902625 C35.19085,9.921325 27.88345,2.6144 18.9012,2.6144 Z"></path>
                        </g>
                        <path d="M18.9012,37.566325 C8.60985,37.566325 0.2375,29.193975 0.2375,18.902625 C0.2375,8.61175 8.60985,0.2394 18.9012,0.2394 C29.193025,0.2394 37.56585,8.61175 37.56585,18.902625 C37.56585,29.193975 29.193025,37.566325 18.9012,37.566325 Z M18.9012,2.6144 C9.919425,2.6144 2.6125,9.921325 2.6125,18.902625 C2.6125,27.8844 9.919425,35.191325 18.9012,35.191325 C27.88345,35.191325 35.19085,27.8844 35.19085,18.902625 C35.19085,9.921325 27.88345,2.6144 18.9012,2.6144 Z" fill="#3E3E47"></path>
                    </g>
                    <path d="M26.104575,17.47145 C26.0794,17.125175 26.04995,16.768925 25.976325,16.427875 C25.732175,14.2804 23.804625,9.902325 18.268025,10.032 C13.505675,10.14125 12.465425,13.736525 12.2132,15.915825 C12.04505,16.460175 11.933425,17.018775 11.90635,17.6016 C5.7038,18.684125 6.375925,24.9831 10.16405,25.08475 C9.80875,21.80155 11.37055,19.82365 11.979975,19.191425 C12.5324,22.5853 15.460775,25.186875 19.0171,25.186875 C22.37345,25.186875 25.1902,22.848925 25.94735,19.715825 C26.528275,20.743725 27.502025,22.840375 27.267375,25.08475 C33.225775,25.0363 30.295975,18.2191 26.104575,17.47145 Z M19.017575,23.166225 C16.228375,23.166225 13.955025,20.917575 13.89755,18.1412 C14.90645,17.77925 15.6674,16.0094 15.6674,16.0094 C15.6674,16.0094 16.274925,16.225525 16.274925,18.207225 C17.3318,18.58105 19.1634,15.119725 19.1634,15.119725 L19.1634,17.841 C20.324775,18.1602 23.99225,17.737925 23.99225,17.737925 L24.123825,17.864275 C24.132375,17.91795 24.1414,17.973525 24.1414,18.027675 C24.1414,20.864375 21.8481,23.166225 19.017575,23.166225 Z" id="Shape" fill="#3E3E47"></path>
                    <path d="M21.946425,20.434025 C20.349,22.11125 17.654325,22.1654 16.00275,20.434025" id="Shape" fill="#3E3E47"></path>
                </g>
            </g>
        </g>
    </g>
</svg>