<?xml version="1.0" encoding="UTF-8" standalone="no"?>
<svg width="38px" height="38px" viewBox="0 0 38 38" version="1.1" xmlns="http://www.w3.org/2000/svg" xmlns:xlink="http://www.w3.org/1999/xlink">
    <!-- Generator: Sketch 50.2 (55047) - http://www.bohemiancoding.com/sketch -->
    <title>Group</title>
    <desc>Created with Sketch.</desc>
    <defs></defs>
    <g id="Page-1" stroke="none" stroke-width="1" fill="none" fill-rule="evenodd">
        <g id="Home-Copy-17" transform="translate(-151.000000, -2807.000000)" fill-rule="nonzero">
            <g id="2-copy" transform="translate(151.000000, 2807.000000)">
                <g id="Group">
                    <g transform="translate(0.950000, 0.950000)" fill="#FFFFFF" id="Shape">
                        <path d="M35.427875,17.952625 C35.427875,27.607 27.6013,35.428825 17.95215,35.428825 C8.30205,35.428825 0.475475,27.606525 0.475475,17.952625 C0.475475,8.298725 8.30205,0.476425 17.95215,0.476425 C27.6013,0.476425 35.427875,8.298725 35.427875,17.952625 Z"></path>
                        <path d="M17.95215,35.6668 C8.184725,35.6668 0.237975,27.720525 0.237975,17.9531 C0.237975,8.185675 8.18425,0.238925 17.95215,0.238925 C27.7191,0.238925 35.665375,8.1852 35.665375,17.952625 C35.665375,27.72005 27.7191,35.6668 17.95215,35.6668 Z M17.95215,0.713925 C8.44645,0.713925 0.712975,8.4474 0.712975,17.952625 C0.712975,27.458325 8.44645,35.191325 17.95215,35.191325 C27.457375,35.191325 35.190375,27.458325 35.190375,17.952625 C35.190375,8.4474 27.457375,0.713925 17.95215,0.713925 Z"></path>
                    </g>
                    <path d="M18.90215,37.5668 C8.6108,37.5668 0.237975,29.193975 0.237975,18.9031 C0.237975,8.61175 8.6108,0.2394 18.90215,0.2394 C29.193025,0.2394 37.565375,8.61175 37.565375,18.9031 C37.565375,29.193975 29.193025,37.5668 18.90215,37.5668 Z M18.90215,2.613925 C9.920375,2.613925 2.612975,9.92085 2.612975,18.902625 C2.612975,27.8844 9.920375,35.191325 18.90215,35.191325 C27.88345,35.191325 35.190375,27.883925 35.190375,18.902625 C35.190375,9.92085 27.88345,2.613925 18.90215,2.613925 Z" id="Shape" fill="#F79421"></path>
                    <g transform="translate(7.125000, 7.125000)" fill="#F79421" id="Shape">
                        <path d="M22.954375,7.792375 C22.8247,7.5373 22.61095,7.29125 22.364425,7.423775 C22.35255,7.425675 22.294125,7.4556 22.200075,7.505 C22.129775,7.54205 22.039525,7.587175 21.924575,7.64655 L12.4944,12.4792 C12.505325,12.4336 12.509125,12.39275 12.5248,12.347625 C12.700075,11.9263 15.38145,0.825075 15.38145,0.825075 L15.295,0.2945 L11.3031,10.071425 L11.884975,11.457 L11.164875,13.1594 L3.78955,16.9423 C3.524025,17.07625 3.368225,17.15795 3.34875,17.166975 C3.1027,17.29285 3.176325,17.61205 3.3041,17.86 C3.434725,18.11555 4.7272,20.51715 4.902475,20.8582 C5.3276,20.69195 5.3542,20.434025 5.215025,20.165175 C5.07775,19.897275 4.1572,18.09845 4.1572,18.09845 C4.1572,18.09845 4.222275,18.067575 4.334375,18.009625 L4.56095,17.89135 L5.767925,20.24735 L6.1085,20.072075 L4.902475,17.71845 L5.189375,17.571675 L6.39635,19.92625 L6.735975,19.7505 L5.52995,17.39735 L5.7684,17.27385 L6.975375,19.627475 L7.315,19.451725 L6.108975,17.098575 L6.39635,16.95275 L7.602375,19.306375 L7.942,19.1311 L6.735975,16.776525 L7.03095,16.6288 L8.236975,18.98005 L8.5766,18.8043 L7.371525,16.453525 L7.655575,16.3077 L8.854,18.6409 C8.829775,18.686025 8.8046,18.72735 8.786075,18.775325 C8.229375,19.966625 8.468775,21.33605 9.3613,22.1103 C9.52185,22.251375 9.704725,22.36775 9.899475,22.45705 C10.531225,22.7506 11.247525,22.74775 11.922975,22.44945 C12.5799,22.160175 13.114275,21.622475 13.435375,20.9361 C13.905625,19.9196 13.80445,18.778175 13.2107,17.981125 C13.152275,17.867125 12.920475,17.388325 12.707675,16.6858 L12.874875,16.6003 L12.49155,15.84505 C12.41935,15.5173 12.3633,15.1658 12.3291,14.792925 L13.177925,16.4426 L13.51755,16.272075 L12.310575,13.91845 L12.595575,13.77025 L13.8016,16.125775 L14.145975,15.9505 L12.939,13.59735 L13.1784,13.47385 L14.384425,15.8232 L14.72405,15.6522 L13.518025,13.29905 L13.804925,13.152275 L15.0119,15.506375 L15.351525,15.330625 L14.14645,12.98175 L14.440475,12.82975 L15.6465,15.180525 L15.987075,15.01 L14.78105,12.656375 L15.06795,12.508175 L16.273975,14.86465 L16.6136,14.689375 L15.408525,12.33575 L15.684975,12.188975 L16.891,14.54355 L17.234425,14.372075 L16.0284,12.01845 L16.31245,11.87025 L17.518475,14.22245 L17.8581,14.05145 L16.652075,11.697825 L16.94705,11.544875 L18.153075,13.8966 L18.4965,13.721325 L17.286675,11.3696 L17.575,11.223775 L18.781975,13.5774 L19.12065,13.404975 L17.914625,11.052775 L18.21625,10.89555 L19.423225,13.2468 L19.7638,13.071525 L18.556825,10.720275 L18.840875,10.573975 L20.04785,12.9257 L20.390325,12.7547 L19.18525,10.3987 L19.4237,10.27615 L20.628775,12.631675 L20.96935,12.4564 L19.764275,10.1023 L20.051175,9.9541 L21.25815,12.3063 L21.597775,12.1353 L20.3908,9.7812 L20.685775,9.628725 L21.89275,11.98235 L22.232375,11.807075 L21.02635,9.452975 L21.3104,9.30715 L22.517375,11.66125 L22.85605,11.4855 L21.650025,9.1314 L21.9488,8.978925 L23.154825,11.33255 L23.49445,11.15965 L22.290325,8.8084 L22.4751,8.710075 C22.58815,8.653075 22.652275,8.62125 22.652275,8.62125 C22.652275,8.62125 23.5733,10.416275 23.711525,10.6856 C23.84975,10.95445 24.070625,11.084125 24.459175,10.836175 C24.27535,10.49275 23.081675,8.043175 22.954375,7.792375 Z M11.92535,9.8553 C12.08305,9.670525 12.3595,9.647725 12.543325,9.809225 C12.72525,9.966925 12.748525,10.24195 12.587975,10.42435 C12.431225,10.609125 12.153825,10.629075 11.9719,10.470425 C11.788075,10.312725 11.7705,10.03675 11.92535,9.8553 Z M10.440025,14.881275 L10.4215,14.924975 L10.410575,14.895525 L10.440025,14.881275 Z M10.0662,15.0708 L10.2277,15.384775 L10.0662,15.770475 L9.7831,15.2171 L10.0662,15.0708 Z M9.443,15.391425 L9.87335,16.2279 L9.738925,16.554225 L9.20455,15.51445 L9.443,15.391425 Z M8.861125,15.6902 L9.540375,17.015925 L9.379825,17.40115 L8.5766,15.836025 L8.861125,15.6902 Z M8.236975,16.01225 L9.185075,17.859525 L9.04685,18.185375 L7.997575,16.1329 L8.236975,16.01225 Z M12.6806,20.589825 C12.44975,21.094275 12.0574,21.4871 11.586675,21.696575 C11.13495,21.89275 10.6609,21.901775 10.250025,21.7075 C10.127475,21.650975 10.007775,21.575925 9.902325,21.486625 C9.2891,20.9513 9.140425,19.98515 9.536575,19.125875 C9.771225,18.622375 10.159775,18.230025 10.6343,18.02055 C11.086025,17.82295 11.560075,17.817725 11.9719,18.009625 C12.0992,18.0671 12.21035,18.139775 12.31865,18.2305 C12.93045,18.759175 13.0815,19.73245 12.6806,20.589825 Z"></path>
                        <g transform="translate(0.000000, 5.700000)">
                            <path d="M13.215925,5.330925 L21.82625,0.24035 L21.26195,0.25175 C21.26195,0.25175 16.927575,2.0178 13.714675,3.346375 C13.5261,4.109225 13.3532,4.79275 13.215925,5.330925 Z"></path>
                            <path d="M4.4612,9.336125 C4.465,9.333275 4.46975,9.329475 4.473075,9.3252 C4.469275,9.336125 4.469275,9.345625 4.469275,9.345625 L11.3031,5.291975 L11.3107,5.291975 L10.974875,4.494925 C10.616725,4.6474 10.387775,4.747625 10.335525,4.77755 C7.643225,5.8824 4.800825,4.8868 4.599425,4.811275 C3.7411,4.36715 2.620575,4.426525 1.702875,5.01695 C1.062575,5.4245 0.600875,6.02585 0.402325,6.716975 C0.1938,7.425675 0.290225,8.136275 0.66405,8.72195 C0.78375,8.9129 0.93195,9.0839 1.10105,9.22925 C1.982175,9.9902 3.368225,10.0358 4.4612,9.336125 Z M1.6416,8.59845 C1.532825,8.50535 1.4402,8.395625 1.3623,8.272125 C1.11815,7.89165 1.059725,7.42235 1.197,6.9464 C1.343775,6.449075 1.6796,6.01445 2.14605,5.715675 C2.9336,5.2098 3.912575,5.226425 4.5201,5.752725 C4.62935,5.845825 4.7234,5.9527 4.80035,6.0781 C5.04545,6.458575 5.103875,6.92835 4.9647,7.4024 C4.819825,7.89925 4.484,8.336725 4.0166,8.6355 C3.22525,9.138525 2.251025,9.12475 1.6416,8.59845 Z"></path>
                        </g>
                    </g>
                </g>
            </g>
        </g>
    </g>
</svg>