<?xml version="1.0" encoding="UTF-8" standalone="no"?>
<svg width="128px" height="57px" viewBox="0 0 128 57" version="1.1" xmlns="http://www.w3.org/2000/svg" xmlns:xlink="http://www.w3.org/1999/xlink">
    <!-- Generator: Sketch 50.2 (55047) - http://www.bohemiancoding.com/sketch -->
    <title>Fill 1 Copy 3</title>
    <desc>Created with Sketch.</desc>
    <defs></defs>
    <g id="Page-1" stroke="none" stroke-width="1" fill="none" fill-rule="evenodd">
        <g id="Home-Copy-17" transform="translate(-871.000000, -558.000000)" fill="#FFFFFF">
            <path d="M871.465469,558 C879.944498,558.658588 888.764739,557.907876 896.060372,563.707764 C897.456778,564.817172 898.310795,566.602808 899.409381,568.082671 C899.886684,568.729499 900.204228,569.627217 900.839317,570.003553 C909.365682,575.082131 917.933465,580.092105 926.507165,585.090319 C926.812876,585.264766 927.307929,585.11384 927.923295,584.909991 C918.690838,580.817336 916.976887,571.522618 912.401091,563.890052 C924.329717,565.142545 929.771364,565.70509 933.927055,579.866695 C934.459583,581.677813 935.027613,583.535972 935.946716,585.164802 C937.443712,587.806995 939.116244,590.121854 942.757157,590.50603 C947.437487,590.992131 952.040895,592.158381 957.052575,593.101181 C952.230238,586.197766 947.768837,579.817693 943.346883,573.408219 C943.17529,573.159288 943.400136,572.639866 943.43761,572.243929 C954.421492,573.531704 968.59857,581.056466 968.229745,593.210946 C973.509661,592.424952 978.696878,591.803606 983.822953,590.847085 C988.86619,589.908205 993.848285,588.63415 999,587.771713 C997.073038,590.288461 994.045518,591.217541 991.254677,591.885929 C987.45006,592.797368 985.028044,594.25175 983.793368,598.305204 C981.767789,604.953808 975.923788,608.215388 970.071897,610.875221 C965.999045,612.729461 961.486363,613.6409 957.149219,614.905154 C956.486517,615.101162 955.71731,614.932595 953.837684,614.932595 C959.853277,608.191867 965.265339,602.135208 970.845049,595.8845 C968.085765,595.8845 965.468489,595.904101 962.851213,595.87666 C960.302968,595.851179 957.589047,596.321599 955.240007,595.615969 C950.2303,594.112585 946.995686,596.219675 944.039169,599.759586 C939.548183,605.141976 933.090789,606.225903 926.702425,607.1001 C923.381029,607.5568 919.945237,607.178503 915.505532,607.178503 C921.564517,599.875231 927.246787,593.618643 937.063053,592.575879 C931.128324,590.02189 925.641314,587.367936 919.919597,585.382371 C918.233258,584.796306 915.718543,585.758707 913.860612,586.607424 C908.785818,588.918362 903.904311,587.799155 899.007026,586.28009 C895.115628,585.074638 891.273537,583.704539 887.102068,581.599409 C890.202564,580.280273 893.204444,578.5848 896.433141,577.743924 C899.721008,576.887368 903.229776,576.869727 907.081728,576.434588 C903.253444,574.233414 900.563191,571.032597 895.470646,571.78527 C888.908718,572.755511 883.958181,568.476648 878.983975,564.960258 C876.242442,563.023695 873.656723,560.871523 871,558.819315 C871.155814,558.542943 871.309655,558.272452 871.465469,558" id="Fill-1-Copy-3" transform="translate(935.000000, 586.500000) scale(-1, 1) translate(-935.000000, -586.500000) "></path>
        </g>
    </g>
</svg>