<?xml version="1.0" encoding="utf-8"?>
<!-- Generator: Adobe Illustrator 16.0.0, SVG Export Plug-In . SVG Version: 6.00 Build 0)  -->
<!DOCTYPE svg PUBLIC "-//W3C//DTD SVG 1.1//EN" "http://www.w3.org/Graphics/SVG/1.1/DTD/svg11.dtd">
<svg version="1.1" id="Warstwa_1" xmlns="http://www.w3.org/2000/svg" xmlns:xlink="http://www.w3.org/1999/xlink" x="0px" y="0px"
	 width="786px" height="161px" viewBox="0 0 786 161" enable-background="new 0 0 786 161" xml:space="preserve">
<g>
	<path fill-rule="evenodd" clip-rule="evenodd" fill="#FFFFFF" d="M593.613,79.814c1.15,0.858,1.976,1.617,2.926,2.159
		c6.042,3.446,9.665,8.762,10.882,15.414c2.187,11.95,2.021,23.921-1.253,35.714c-2.94,10.587-10.409,16.87-20.842,17.865
		c-13.531,1.291-27.219,1.024-40.841,1.236c-3.199,0.048-4.994-2.059-5.188-5.313c-0.069-1.134-0.035-2.274-0.035-3.411
		c-0.002-40.778-0.004-81.555,0.001-122.331c0.001-7.601,1.102-8.741,8.717-8.725c10.233,0.02,20.495-0.338,30.692,0.303
		c17.022,1.068,24.879,7.893,27.363,24.692c1.217,8.226,0.574,16.816,0.001,25.189c-0.469,6.861-4.413,12.049-10.424,15.542
		C594.967,78.524,594.442,79.112,593.613,79.814z M562.655,111.099c0,4.213-0.076,8.429,0.016,12.64
		c0.209,9.716-2.247,9.477,9.921,9.055c4.986-0.175,9.896-1.415,11.626-7.001c2.852-9.203,2.755-18.615,0.083-27.758
		c-2.044-6.992-13.169-11.178-19.941-7.942c-0.917,0.437-1.589,2.29-1.624,3.508C562.568,99.429,562.661,105.266,562.655,111.099z
		 M562.658,51.615c0,5.196-0.083,10.393,0.059,15.586c0.037,1.31,0.391,3.211,1.284,3.799c5.542,3.643,18.055-0.782,18.898-7.385
		c1.03-8.058,0.63-16.383,0.024-24.531c-0.294-3.942-3.674-6.379-7.859-6.791c-2.899-0.284-5.818-0.371-8.73-0.537
		c-2.677-0.153-3.769,1.071-3.708,3.784C562.748,40.896,562.663,46.257,562.658,51.615z"/>
	<path fill-rule="evenodd" clip-rule="evenodd" fill="#FFFFFF" d="M368.58,82.191c0-20.64-0.011-41.278,0.007-61.918
		c0.005-6.366,1.364-7.851,7.659-7.833c10.557,0.032,21.157-0.312,31.662,0.508c18.416,1.438,29.218,12.309,30.084,30.812
		c0.797,17.028,0.416,34.115,0.469,51.174c0.025,8.125,0.167,16.265-0.289,24.367c-1.183,20.949-12.972,32.334-33.977,32.914
		c-9.581,0.263-19.174,0.133-28.762,0.063c-5.2-0.037-6.83-1.782-6.838-7.197C368.559,124.118,368.581,103.155,368.58,82.191z
		 M391.797,82.246c0,15.107-0.009,30.211,0.008,45.317c0.003,2.239-0.413,4.879,3.041,4.956c15.16,0.332,20.036-1.259,20.366-17.177
		c0.009-0.487,0.007-0.975,0.007-1.462c0-21.115,0.031-42.229-0.009-63.343c-0.03-15.282-3.106-18.123-18.181-18.299
		c-4.563-0.055-5.355,1.667-5.306,5.669C391.907,52.687,391.796,67.467,391.797,82.246z"/>
	<path fill-rule="evenodd" clip-rule="evenodd" fill="#FFFFFF" d="M196.886,82.105c0-20.635-0.012-41.268,0.008-61.903
		c0.005-6.374,1.32-7.684,7.684-7.783c2.762-0.044,5.526-0.069,8.285,0.008c5.634,0.161,7.186,1.692,7.205,7.409
		c0.054,15.109,0.219,30.223-0.093,45.328c-0.103,4.983,1.394,6.687,6.333,6.255c4.515-0.394,9.098-0.239,13.637-0.036
		c3.64,0.162,4.801-1.304,4.769-4.868c-0.139-15.272-0.072-30.544-0.052-45.817c0.008-7.084,1.177-8.245,8.162-8.289
		c2.275-0.015,4.549-0.017,6.824,0.001c6.783,0.052,8.055,1.261,8.091,7.902c0.042,7.637,0.012,15.272,0.012,22.909
		c0,33.308,0.004,66.613-0.003,99.921c-0.001,8.31-0.875,9.156-9.259,9.163c-13.833,0.011-13.833,0.011-13.833-13.857
		c0-13.646-0.166-27.299,0.093-40.94c0.088-4.58-1.473-6.061-5.908-5.746c-4.526,0.323-9.108,0.309-13.638,0.005
		c-4.186-0.283-5.228,1.454-5.184,5.37c0.174,15.432,0.077,30.868,0.066,46.303c-0.003,7.51-1.325,8.797-8.694,8.874
		c-15.51,0.166-14.566,0.403-14.519-14.645C196.931,119.149,196.886,100.627,196.886,82.105z"/>
	<path fill-rule="evenodd" clip-rule="evenodd" fill="#FFFFFF" d="M621.946,82.302c0-20.63-0.014-41.258,0.007-61.89
		c0.008-6.662,1.308-8.018,7.996-7.979c11.203,0.064,22.429-0.143,33.601,0.523c13.999,0.834,23.834,9.07,25.492,23.033
		c1.4,11.793,0.892,23.908,0.181,35.82c-0.43,7.212-4.814,13.079-11.219,16.798c-3.122,1.813-3.679,3.645-2.608,7.107
		c5.027,16.256,9.755,32.604,14.549,48.931c1.787,6.092,0.609,7.628-5.742,7.657c-15.408,0.069-14.575,0.993-18.555-14.136
		c-3.422-13.007-7.118-25.944-10.476-38.969c-0.982-3.803-2.78-5.525-6.8-5.081c-4.247,0.47-2.985,3.62-2.998,5.923
		c-0.097,14.62-0.037,29.24-0.056,43.86c-0.011,6.97-1.391,8.365-8.167,8.404c-2.434,0.014-4.871,0.016-7.308-0.001
		c-6.523-0.044-7.882-1.408-7.889-8.111C621.933,123.562,621.946,102.933,621.946,82.302z M645.323,53.411
		c0,4.049-0.07,8.101,0.014,12.148c0.231,11.101-2.106,9.991,10.085,9.862c7.098-0.075,10.602-2.854,11.514-9.887
		c0.807-6.223,1.175-12.598,0.824-18.855c-0.659-11.767-4.379-14.909-16.182-14.929c-0.487-0.001-0.977,0.049-1.457-0.007
		c-3.527-0.421-4.993,0.995-4.852,4.661C645.486,42.065,645.327,47.74,645.323,53.411z"/>
	<path fill-rule="evenodd" clip-rule="evenodd" fill="#FFFFFF" d="M704.176,81.689c0-13.155-0.239-26.316,0.062-39.465
		c0.365-15.995,10.664-28.163,25.762-31.115c18.764-3.668,34.602,2.963,41.143,17.782c1.85,4.193,3.03,9.047,3.079,13.612
		c0.286,26.472,0.295,52.949,0.086,79.421c-0.147,18.62-13.803,31.942-32.502,32.45c-15.317,0.417-28.088-4.059-34.565-19.083
		c-2.054-4.762-2.82-10.351-2.993-15.602c-0.416-12.654-0.134-25.331-0.134-38C704.135,81.689,704.156,81.689,704.176,81.689z
		 M750.961,82.734c0.018,0,0.036,0,0.053,0c0-13.322,0.131-26.646-0.048-39.965c-0.108-8.017-4.167-12.113-11.436-12.249
		c-7.35-0.135-11.901,3.834-11.964,11.698c-0.217,26.64-0.216,53.286,0.003,79.925c0.066,8.009,4.059,11.733,11.175,11.849
		c7.714,0.127,12.003-3.549,12.147-11.295C751.139,109.38,750.961,96.056,750.961,82.734z"/>
	<path fill-rule="evenodd" clip-rule="evenodd" fill="#FFFFFF" d="M283.441,81.925c0.002-12.341,0.041-24.684-0.006-37.025
		c-0.054-13.798,4.892-25.094,17.807-30.987c13.525-6.169,27.22-5.666,39.758,3.126c8.97,6.291,12.3,15.666,12.534,26.21
		c0.23,10.387,0.104,20.784,0.102,31.177c-0.004,15.591,0.176,31.184-0.124,46.769c-0.257,13.314-5.533,24.062-18.151,29.854
		c-15.191,6.972-41.746,4.889-49.565-17.33c-1.679-4.771-2.125-10.14-2.256-15.255C283.225,106.291,283.438,94.105,283.441,81.925z
		 M330.318,82.694c-0.058,0-0.116,0-0.175,0c0-13.649,0.311-27.305-0.119-40.941c-0.245-7.771-4.21-11.117-11.306-11.233
		c-7.027-0.114-10.827,3.267-11.914,10.755c-0.278,1.918-0.323,3.885-0.325,5.83c-0.02,23.399-0.033,46.801,0.016,70.203
		c0.005,2.584,0.22,5.2,0.66,7.746c1.055,6.128,4.73,8.948,11.323,8.95c6.75,0.002,10.269-2.706,11.284-8.931
		c0.389-2.392,0.521-4.847,0.531-7.276C330.347,106.096,330.318,94.395,330.318,82.694z"/>
	<path fill-rule="evenodd" clip-rule="evenodd" fill="#FFFFFF" d="M454.215,81.699c0-12.831-0.007-25.66,0.001-38.49
		c0.017-22.749,18.377-35.77,40.654-32.687c18.905,2.616,29.174,14.565,29.379,33.44c0.278,25.657,0.264,51.322-0.03,76.978
		c-0.159,13.902-5.757,25.31-19.327,30.499c-14.124,5.398-28.089,4.673-40.293-5.534c-6.558-5.486-9.957-12.89-10.14-21.337
		c-0.308-14.284-0.084-28.579-0.084-42.869C454.321,81.699,454.269,81.699,454.215,81.699z M501.023,82.215
		c-0.037,0-0.074,0-0.112,0c0-13.326,0.273-26.66-0.103-39.978c-0.224-8.01-4.208-11.589-11.411-11.719
		c-7.223-0.129-10.988,3.363-11.968,11.215c-0.22,1.768-0.237,3.567-0.238,5.352c-0.016,23.406-0.03,46.812,0.018,70.216
		c0.004,2.588,0.214,5.201,0.627,7.754c0.988,6.11,4.67,8.947,11.3,8.95c6.695,0.006,10.28-2.732,11.333-8.917
		c0.407-2.388,0.52-4.847,0.531-7.276C501.051,105.947,501.023,94.082,501.023,82.215z"/>
	<path fill-rule="evenodd" clip-rule="evenodd" fill="#FFFFFF" d="M112.818,81.924c0-12.674-0.044-25.351,0.013-38.028
		c0.059-13.08,5.19-23.563,17.094-29.513c12.551-6.275,25.468-6.248,37.729,1.021c9.484,5.622,13.219,14.887,13.979,25.412
		c0.422,5.822,0.161,11.695,0.176,17.545c0.01,4.168-1.969,6.336-6.274,6.24c-3.25-0.07-6.501-0.07-9.75-0.001
		c-4.5,0.099-6.572-2.179-6.602-6.531c-0.036-5.201,0.066-10.404-0.079-15.602c-0.211-7.603-3.605-11.444-10.159-11.784
		c-7.375-0.383-11.637,3.073-12.715,10.459c-0.303,2.08-0.391,4.206-0.393,6.311c-0.026,23.24-0.027,46.48,0,69.721
		c0.002,2.104,0.104,4.229,0.402,6.311c1.072,7.475,5.119,10.772,12.626,10.428c6.691-0.306,10.017-3.982,10.227-11.633
		c0.155-5.684,0.07-11.375,0.08-17.062c0.006-4.319,1.829-6.717,6.474-6.528c3.57,0.147,7.232-0.417,10.693,0.212
		c1.931,0.352,5.001,2.437,5.057,3.841c0.433,10.982,1.859,22.142-2.358,32.775c-4.206,10.603-12.431,16.226-23.373,18.394
		c-17.809,3.524-34.631-4.559-40.443-20.174c-1.76-4.729-2.2-10.129-2.335-15.247c-0.325-12.18-0.105-24.375-0.105-36.566
		C112.797,81.924,112.808,81.924,112.818,81.924z"/>
	<path fill-rule="evenodd" clip-rule="evenodd" fill="#FFFFFF" d="M90.371,52.864c3.978,0,7.22-0.015,10.461,0.004
		c4.243,0.025,5.577,2.564,5.547,6.367c-0.03,3.75-1.261,6.372-5.544,6.395c-0.325,0.001-0.65,0-0.975,0.007
		c-11.812,0.3-11.805,0.3-13.553,12.371c-0.815,5.629-1.583,11.267-2.532,16.872c-0.524,3.091,0.674,4.177,3.644,4.009
		c2.268-0.128,4.55-0.062,6.826-0.014c5.32,0.113,7.008,1.662,7.067,6.407c0.065,5.161-1.162,6.36-6.763,6.477
		c-2.764,0.056-5.538,0.166-8.29-0.021c-3.814-0.262-5.065,1.621-5.448,5.152c-1.015,9.354-2.196,18.696-3.536,28.008
		c-0.878,6.095-2.789,7.536-8.712,7.408c-5.07-0.109-6.771-1.853-6.117-7c1.208-9.51,2.519-19.012,4.09-28.466
		c0.611-3.681-0.357-5.004-4.115-5.122c-14.428-0.454-14.34-0.526-15.841,13.724c-0.73,6.94-1.734,13.858-2.836,20.751
		c-0.819,5.121-4.292,7.057-10.21,6.066c-4.694-0.787-4.798-4.145-4.294-7.772c1.295-9.332,2.514-18.678,4.008-27.979
		c0.56-3.489-0.487-4.921-3.98-4.753c-2.108,0.102-4.228-0.035-6.338,0.02c-4.376,0.113-6.613-1.66-6.534-6.358
		c0.078-4.55,2.217-6.448,6.566-6.567c4.013-0.112,9.307,1.027,11.669-1.062c2.357-2.083,1.842-7.482,2.458-11.449
		c0.846-5.448,1.447-10.938,2.398-16.368c0.581-3.308-0.585-4.506-3.816-4.357c-2.92,0.133-5.852,0.046-8.777,0.007
		c-4.412-0.059-5.291-3.021-5.296-6.605c-0.003-3.514,1.207-6.079,5.246-6.137c3.25-0.046,6.521-0.243,9.749,0.033
		c3.846,0.33,5.526-1.045,5.978-4.985c1.115-9.679,2.562-19.32,3.968-28.961c0.809-5.552,3.621-7.356,9.769-6.486
		c5.022,0.712,4.912,4.034,4.353,7.977c-1.297,9.154-2.243,18.358-3.497,27.519c-0.478,3.497,0.357,4.94,4.254,4.964
		c13.628,0.083,13.608,0.215,15.499-13.587c0.925-6.75,1.961-13.486,2.908-20.232c0.772-5.509,3.637-7.502,9.705-6.659
		c5.07,0.707,4.858,4.069,4.312,7.99c-1.3,9.322-2.344,18.678-3.447,28.025C90.246,49.704,90.371,50.966,90.371,52.864z
		 M50.341,98.832c5.974,0,10.978,0.17,15.951-0.138c1.029-0.065,2.62-1.797,2.811-2.95c1.448-8.786,2.599-17.622,3.872-26.438
		c0.355-2.456-0.537-3.702-3.119-3.671c-3.894,0.045-7.804-0.189-11.674,0.125c-1.251,0.103-3.287,1.411-3.45,2.413
		C53.126,78.069,51.839,88.016,50.341,98.832z"/>
</g>
</svg>
