<?xml version="1.0" encoding="utf-8"?>
<!-- Generator: Adobe Illustrator 16.0.0, SVG Export Plug-In . SVG Version: 6.00 Build 0)  -->
<!DOCTYPE svg PUBLIC "-//W3C//DTD SVG 1.1//EN" "http://www.w3.org/Graphics/SVG/1.1/DTD/svg11.dtd">
<svg version="1.1" id="Warstwa_1" xmlns="http://www.w3.org/2000/svg" xmlns:xlink="http://www.w3.org/1999/xlink" x="0px" y="0px"
	 width="172px" height="2837.022px" viewBox="0 0 172 2837.022" enable-background="new 0 0 172 2837.022" xml:space="preserve">
<path fill-rule="evenodd" clip-rule="evenodd" fill="#F8F1DE" d="M84.66,31.058c-5.192,2.391-9.048,4.34-13.039,5.954
	c-3.929,1.589-5.69,0.409-5.896-3.762c-0.147-2.99-0.661-6.173,0.133-8.942c0.887-3.092,2.389-6.729,4.812-8.521
	c6.664-4.932,13.893-9.118,21.027-13.385c1.934-1.156,4.275-1.896,6.517-2.221c5.934-0.86,8.336,1.314,8.34,7.389
	c0.027,42.628,0.027,85.257,0,127.885c-0.004,6.002-1.819,7.801-7.655,7.87c-15.008,0.178-14.299,0.48-14.262-14.026
	c0.077-30.473,0.023-60.945,0.023-91.418C84.66,35.958,84.66,34.036,84.66,31.058z"/>
<path fill-rule="evenodd" clip-rule="evenodd" fill="#F8F1DE" d="M77.298,301.709c11.125,0,21.09-0.01,31.056,0.003
	c7.622,0.01,8.695,1.082,8.723,8.597c0.045,12.24,0.045,12.24-12.089,12.24c-15.324,0-30.648-0.121-45.97,0.072
	c-4.594,0.058-6.041-1.608-6.058-6.144c-0.049-12.973,4.829-24.44,10.736-35.449c8.098-15.092,16.895-29.808,25.3-44.737
	c5.187-9.212,9.646-18.666,8.203-29.74c-0.866-6.645-4.836-10.087-11.451-9.817c-6.823,0.277-10.45,3.762-10.781,10.526
	c-0.163,3.324-0.031,6.663-0.159,9.989c-0.135,3.519-1.84,5.597-5.584,5.597c-15.437,0.001-16.132,1.738-15.986-12.776
	c0.21-20.888,15.665-35.162,36.22-33.245c19.85,1.851,32.307,18.588,29.074,38.867c-2.042,12.811-8.632,23.634-14.701,34.715
	c-7.906,14.435-15.78,28.887-23.568,43.386C79.123,295.916,78.54,298.337,77.298,301.709z"/>
<path fill-rule="evenodd" clip-rule="evenodd" fill="#F8F1DE" d="M103.252,427.167c12.914,6.927,15.236,17.713,14.602,29.918
	c-0.251,4.819,0.035,9.664-0.082,14.493c-0.534,22.149-18.037,36.108-39.89,31.862c-14.203-2.76-22.833-12.917-23.724-28.062
	c-0.195-3.322-0.049-6.663-0.097-9.995c-0.056-3.891,1.93-5.819,5.72-6.063c0.166-0.01,0.333-0.006,0.5,0
	c11.064,0.386,15.49-2.893,14.848,13.29c-0.296,7.451,3.415,11.214,9.62,11.516c7.039,0.343,11.197-3.047,11.661-10.657
	c0.495-8.131,0.498-16.328,0.086-24.465c-0.379-7.493-3.939-10.559-12.262-11.95c-7.01-1.172-7.169-1.401-7.12-10.288
	c0.035-6.408,0.781-7.249,7.314-8.241c8.577-1.303,11.269-4.301,11.327-12.792c0.046-6.665,0.13-13.333-0.056-19.993
	c-0.182-6.503-3.029-9.52-8.855-9.927c-6.141-0.429-9.781,2.231-11.023,8.35c-0.458,2.26-0.412,4.623-0.581,6.94
	c-0.096,1.326,0.249,2.866-0.307,3.948c-3.57,6.946-10.042,2.901-15.202,3.672c-3.415,0.51-5.195-2.067-5.344-5.261
	c-0.674-14.466,2.452-26.261,15.021-33.533c11.05-6.394,27.469-5.003,37.714,3.06c5.998,4.72,9.12,10.929,9.312,18.525
	c0.168,6.662-0.188,13.35,0.255,19.989C117.409,412.319,114.899,421.375,103.252,427.167z"/>
<path fill-rule="evenodd" clip-rule="evenodd" fill="#F8F1DE" d="M110.949,584.847c0,13.333,0.08,26.667-0.053,39.999
	c-0.036,3.558,0.538,5.796,4.834,5.507c4.622-0.312,6.684,2.258,6.546,6.775c-0.046,1.499-0.047,3.001,0.001,4.5
	c0.153,4.714-1.919,7.396-6.819,7.018c-3.61-0.279-4.638,1.285-4.555,4.65c0.164,6.663,0.107,13.333,0.021,19.998
	c-0.073,5.607-1.707,7.22-7.078,7.351c-14.129,0.345-14.129,0.345-14.129-13.807c0-4.167-0.243-8.351,0.066-12.495
	c0.317-4.268-0.959-5.927-5.536-5.754c-9.153,0.346-18.329,0.148-27.495,0.084c-5.7-0.04-7.45-1.432-6.959-7.12
	c0.535-6.192,1.043-12.732,3.383-18.365c10.845-26.114,22.433-51.918,33.481-77.949c2.36-5.561,5.71-7.88,11.771-7.749
	c12.514,0.272,12.52,0.04,12.52,12.357C110.948,561.514,110.948,573.18,110.949,584.847z M89.86,582.998
	c-0.475-0.116-0.95-0.231-1.425-0.346c-6.375,15.591-12.749,31.183-19.465,47.608c6.801,0,12.27,0.194,17.704-0.158
	c1.129-0.073,3.031-2.157,3.049-3.337C89.934,612.178,89.86,597.587,89.86,582.998z"/>
<path fill-rule="evenodd" clip-rule="evenodd" fill="#F8F1DE" d="M76.184,769.941c6.003-5.964,13.089-8.565,21.371-7.636
	c10.617,1.191,18.979,7.771,19.751,19.261c1.167,17.375,1.743,35.069-0.244,52.303c-2.265,19.632-17.68,28.842-37.581,25.325
	c-16.8-2.969-25.197-12.601-25.74-29.751c-0.463-14.624-0.149-13.986,15.066-13.646c3.53,0.078,5.354,2.179,5.403,5.846
	c0.042,3.151,0.062,6.346,0.586,9.438c1.076,6.357,4.386,8.939,10.622,8.772c5.868-0.156,9.924-3.424,10.451-9.313
	c0.534-5.956,0.414-11.978,0.444-17.972c0.037-7.329,0.019-14.661-0.142-21.988c-0.098-4.436-1.542-8.47-6.227-9.786
	c-4.822-1.354-9.154-0.208-12.457,4.035c-4.256,5.467-13.364,7.546-19.001,4.06c-1.482-0.917-2.76-3.545-2.712-5.351
	c0.551-20.982,1.352-41.959,2.145-62.936c0.167-4.413,2.523-6.604,7.05-6.587c14.829,0.055,29.658-0.033,44.486,0.054
	c4.804,0.027,6.261,1.885,5.688,6.556c-1.591,12.966-2.339,13.619-15.586,13.62c-6.164,0.001-12.336-0.145-18.488,0.13
	c-1.366,0.061-3.75,1.525-3.829,2.494c-0.877,10.749-1.393,21.527-2.006,32.298C75.551,769.425,75.867,769.684,76.184,769.941z"/>
<path fill-rule="evenodd" clip-rule="evenodd" fill="#F8F1DE" d="M75.214,958.757c6.004-2.43,11.246-5.816,16.842-6.574
	c14.896-2.018,26.064,7.008,26.823,22.072c0.686,13.596,0.467,27.344-0.73,40.902c-1.437,16.277-13.354,26.418-29.667,26.555
	c-4.943,0.043-10.059-0.26-14.809-1.5c-11.424-2.986-19.531-13.463-20.202-26.35c-0.649-12.467-0.667-24.977-0.662-37.467
	c0.007-17.49-0.399-35.021,0.622-52.463c1.472-25.133,26.986-38.348,49.111-26.078c11.033,6.119,18.312,22.881,14.307,34.6
	c-2.427,7.102-9.139,3.51-14.008,3.998c-3.779,0.379-5.67-2.115-5.778-5.947c-0.08-2.824-0.16-5.676-0.615-8.453
	c-0.942-5.754-4.467-8.416-10.549-8.305c-5.927,0.109-9.611,3.09-10.402,8.686c-0.324,2.295-0.266,4.654-0.272,6.984
	C75.199,939.374,75.214,949.331,75.214,958.757z M75.223,996.228c0.032,0,0.063,0,0.094,0c0,5.162-0.164,10.33,0.042,15.482
	c0.258,6.457,3.75,9.982,9.808,10.344c6.813,0.406,11.443-2.711,11.75-9.342c0.514-11.127,0.495-22.311,0.013-33.439
	c-0.275-6.361-4.814-9.693-10.711-9.279c-6.267,0.439-10.825,4.809-10.969,10.748C75.124,985.901,75.223,991.065,75.223,996.228z"/>
<path fill-rule="evenodd" clip-rule="evenodd" fill="#F8F1DE" d="M94.747,1095.416c-10.984,0-21.109,0.006-31.234-0.002
	c-8.399-0.006-9.346-0.975-9.355-9.525c-0.002-1.666,0.01-3.331,0.022-4.996c0.025-3.595,1.818-5.812,5.413-5.83
	c17.485-0.089,34.971-0.077,52.456,0.004c3.81,0.018,6.063,2.346,5.768,6.054c-0.406,5.101-0.746,10.383-2.33,15.187
	c-12.052,36.565-21.132,73.808-26.428,111.956c-0.229,1.649-0.301,3.377-0.882,4.902c-0.566,1.486-1.61,3.87-2.588,3.943
	c-5.994,0.447-12.046,0.589-18.031,0.158c-0.829-0.06-2.323-4.046-1.931-5.877c5.179-24.211,10.311-48.443,16.165-72.496
	c3.097-12.73,7.578-25.123,11.416-37.673C93.683,1099.663,94.046,1098.074,94.747,1095.416z"/>
<path fill-rule="evenodd" clip-rule="evenodd" fill="#F8F1DE" d="M106.669,1323.192c1.159,0.706,2.581,1.313,3.678,2.286
	c5.809,5.148,8.579,11.715,8.633,19.429c0.049,6.992,0.06,13.985,0.001,20.977c-0.189,22.399-17.738,36.68-39.789,32.411
	c-15.758-3.05-25.67-14.606-26.11-30.702c-0.2-7.32-0.039-14.649-0.075-21.975c-0.042-8.478,3.012-15.556,9.425-21.156
	c0.73-0.638,1.351-1.402,2.206-2.302c-0.993-1.087-2.105-1.912-2.694-3.017c-2.625-4.916-6.72-9.738-7.276-14.918
	c-1.02-9.491-0.936-19.365,0.511-28.801c2.896-18.892,19.07-26.618,35.845-24.177c17.33,2.521,26.653,13.954,26.943,31.604
	c0.052,3.162,0.036,6.326,0.036,9.489C118.004,1309.335,117.893,1309.649,106.669,1323.192z M97.01,1355.103c0.043,0,0.087,0,0.13,0
	c0-4.315,0.149-8.638-0.035-12.945c-0.268-6.286-4.716-10.493-10.87-10.568c-6.183-0.076-11.09,3.974-11.282,10.158
	c-0.284,9.117-0.249,18.263,0.14,27.375c0.287,6.718,4.383,9.986,11.211,9.9c6.463-0.081,10.221-3.414,10.648-9.983
	C97.252,1364.412,97.01,1359.75,97.01,1355.103z M96.839,1292.374c-0.105-0.003-0.21-0.006-0.315-0.01
	c0-3.484,0.024-6.97-0.017-10.453c-0.01-0.822-0.212-1.646-0.369-2.46c-1.032-5.354-4.764-8.679-9.856-8.795
	c-5.239-0.12-9.903,3.285-10.262,8.791c-0.56,8.579-0.583,17.235-0.149,25.824c0.272,5.388,4.879,8.684,10.369,8.631
	c5.154-0.049,9.289-3.434,9.906-8.623C96.652,1301.01,96.627,1296.678,96.839,1292.374z"/>
<path fill-rule="evenodd" clip-rule="evenodd" fill="#F8F1DE" d="M96.451,1513.558c-6.426,6.381-12.972,9.258-20.999,8.834
	c-11.818-0.626-21.196-7.353-21.948-19.093c-0.973-15.199-1.116-30.689,0.712-45.772c2.427-20.019,18.904-27.109,36.754-24.763
	c17.933,2.357,27.646,13.41,27.926,31.882c0.419,27.641,0.401,55.297-0.02,82.937c-0.194,12.802-4.631,24.249-17.393,29.68
	c-12.137,5.165-24.434,4.771-35.627-3.044c-8.805-6.148-14.53-22.594-10.837-32.311c2.703-7.111,9.545-3.181,14.53-3.783
	c3.547-0.43,5.274,2.289,5.384,5.789c0.063,1.998,0.003,4,0.104,5.994c0.343,6.836,3.385,10.23,9.435,10.604
	c7.053,0.435,11.474-2.32,11.812-9.146C96.881,1539.301,96.451,1527.187,96.451,1513.558z M74.892,1478.075
	c0,5.498-0.215,11.006,0.058,16.489c0.301,6.052,3.389,9.295,8.633,9.776c5.908,0.543,12.664-3.32,12.887-8.648
	c0.483-11.623,0.437-23.312-0.265-34.92c-0.363-6.025-5.214-8.92-11.467-8.559c-5.846,0.338-9.452,3.736-9.793,9.873
	C74.649,1467.4,74.883,1472.744,74.892,1478.075z"/>
<g>
	<path fill-rule="evenodd" clip-rule="evenodd" fill="#F8F1DE" d="M149.322,1688.979c0,12.826,0.213,25.657-0.064,38.478
		c-0.244,11.331-2.688,22.122-12.822,28.952c-11.908,8.025-24.935,7.885-37.669,2.521c-12.234-5.153-16.659-16.211-16.881-28.405
		c-0.509-27.974-0.453-55.967-0.019-83.943c0.193-12.462,4.714-23.661,17.06-28.834c13.076-5.479,26.476-5.485,38.449,3.336
		c9.619,7.086,11.734,17.801,11.931,28.919c0.229,12.989,0.054,25.984,0.054,38.978
		C149.348,1688.979,149.335,1688.979,149.322,1688.979z M126.65,1688.539c0.008,0,0.015,0,0.021,0c0-14.304,0.12-28.608-0.052-42.91
		c-0.084-7.007-4.223-11.114-10.662-11.309c-6.958-0.21-11.038,3.542-11.701,10.794c-0.106,1.157-0.14,2.325-0.14,3.487
		c-0.008,26.446-0.013,52.892,0,79.337c0.003,5.075,0.152,10.209,5.303,13.124c7.878,4.46,16.973-0.481,17.155-9.614
		C126.861,1717.15,126.65,1702.843,126.65,1688.539z"/>
	<path fill-rule="evenodd" clip-rule="evenodd" fill="#F8F1DE" d="M41.619,1647.943c-4.791,2.188-8.622,4.062-12.553,5.699
		c-4.438,1.85-6.196,0.665-6.386-4.139c-0.092-2.329,0.145-4.678-0.053-6.992c-0.438-5.135,1.892-8.4,6.235-10.919
		c6.183-3.585,12.124-7.586,18.191-11.371c1.548-0.966,3.094-2.053,4.794-2.635c7.994-2.735,11.693-0.058,11.693,8.328
		c0.005,41.641,0.005,83.28,0,124.921c-0.001,7.942-1.336,9.275-9.212,9.292c-12.711,0.025-12.711,0.025-12.711-12.602
		c0-31.147,0-62.294,0-93.44C41.619,1652.334,41.619,1650.582,41.619,1647.943z"/>
</g>
<g>
	<path fill-rule="evenodd" clip-rule="evenodd" fill="#F8F1DE" d="M112.18,1827.264c-4.925,2.279-8.626,4.119-12.426,5.721
		c-4.688,1.979-6.372,0.783-6.543-4.396c-0.017-0.498,0.064-1.01-0.015-1.496c-1.456-8.932,1.908-14.824,10.348-18.57
		c5.104-2.264,9.476-6.137,14.326-9.037c2.234-1.336,4.743-2.523,7.273-2.992c6.486-1.205,8.939,1.012,8.942,7.654
		c0.018,42.467,0.02,84.935-0.003,127.401c-0.004,6.241-1.768,7.899-8.026,7.993c-14.842,0.223-13.927,0.006-13.897-13.917
		c0.064-30.643,0.021-61.285,0.021-91.929C112.18,1831.918,112.18,1830.139,112.18,1827.264z"/>
	<path fill-rule="evenodd" clip-rule="evenodd" fill="#F8F1DE" d="M57.18,1827.246c-4.994,2.326-8.701,4.184-12.513,5.793
		c-4.442,1.877-6.219,0.691-6.45-4.049c-0.033-0.664,0.074-1.344-0.023-1.996c-1.292-8.633,1.632-14.604,10.003-18.281
		c5.113-2.246,9.558-6.002,14.346-9.01c1.679-1.055,3.391-2.213,5.252-2.793c7.916-2.461,11.298,0.09,11.299,8.336
		c0.006,41.637,0.005,83.272,0,124.908c0,8.006-1.337,9.365-9.137,9.383c-12.776,0.027-12.776,0.027-12.776-12.516
		c0-31.145,0-62.288,0-93.432C57.18,1831.828,57.18,1830.066,57.18,1827.246z"/>
</g>
<g>
	<path fill-rule="evenodd" clip-rule="evenodd" fill="#F8F1DE" d="M106.695,2097.571c2.528,0.119,4.289,0.27,6.049,0.274
		c8.828,0.025,17.656-0.038,26.483,0.032c5.413,0.043,6.905,1.551,7.052,6.71c0.401,14.109,0.401,14.109-13.685,14.109
		c-14.824,0-29.648-0.098-44.47,0.06c-4.251,0.045-6.625-1.432-5.785-5.767c1.601-8.26,2.076-17.176,5.664-24.527
		c9.25-18.95,19.893-37.224,30.083-55.711c5.197-9.427,9.798-18.957,8.309-30.195c-0.885-6.68-4.859-10.008-11.549-9.671
		c-6.777,0.341-10.355,3.883-10.677,10.655c-0.111,2.327-0.069,4.662-0.095,6.993c-0.011,0.999,0.024,2.001-0.031,2.998
		c-0.197,3.581-2.078,5.976-5.677,5.356c-5.235-0.9-13.414,3.904-15.135-3.923c-2.25-10.233-1.363-20.937,5.868-29.883
		c9.399-11.629,27.112-15.583,41.318-9.125c12.748,5.795,19.808,20.717,17.335,36.035c-2.012,12.469-8.345,23.036-14.25,33.828
		c-8.059,14.729-16.098,29.468-24.043,44.259C108.324,2092.19,107.767,2094.61,106.695,2097.571z"/>
	<path fill-rule="evenodd" clip-rule="evenodd" fill="#F8F1DE" d="M42.649,2006.535c-4.68,2.145-8.364,3.93-12.125,5.533
		c-4.898,2.089-6.451,1.098-6.649-4.12c-0.083-2.162,0.145-4.345-0.052-6.492c-0.504-5.52,1.973-8.999,6.722-11.65
		c5.945-3.319,11.572-7.205,17.362-10.806c1.687-1.049,3.357-2.273,5.211-2.881c7.923-2.595,11.312-0.105,11.313,8.134
		c0.007,41.803,0.007,83.605,0,125.408c-0.001,7.864-1.156,9.021-8.858,9.036c-12.924,0.026-12.924,0.026-12.924-12.97
		c0-30.811,0-61.621,0-92.433C42.649,2011.358,42.649,2009.422,42.649,2006.535z"/>
</g>
<g>
	<path fill-rule="evenodd" clip-rule="evenodd" fill="#F8F1DE" d="M133.471,2223.153c6.94,4.62,12.929,9.41,13.202,17.123
		c0.451,12.732,0.971,25.688-0.863,38.212c-1.786,12.199-14.473,20.643-27.503,21.492c-25.897,1.687-36.269-15.468-34.497-39.383
		c0.024-0.331,0.038-0.69,0.175-0.98c3.406-7.203,9.921-3.412,15.066-4.009c3.779-0.438,5.501,2.296,5.579,6.093
		c0.075,3.65,0.082,7.361,0.76,10.925c0.913,4.804,4.134,7.408,9.144,7.642c5.888,0.275,9.219-1.605,10.882-6.678
		c0.712-2.174,1.026-4.557,1.079-6.854c0.146-6.33,0.12-12.664,0.048-18.996c-0.108-9.356-3.22-12.971-12.327-14.534
		c-7.022-1.206-7.271-1.56-7.207-10.241c0.048-6.479,0.781-7.316,7.271-8.297c8.614-1.302,11.241-4.26,11.268-12.77
		c0.021-6.665,0.087-13.332-0.029-19.996c-0.111-6.447-2.916-9.523-8.752-9.953c-6.242-0.46-10.237,2.594-11.28,8.77
		c-0.304,1.795-0.283,3.646-0.384,5.475c-0.074,1.328,0.099,2.705-0.186,3.984c-1.696,7.629-7.889,4.15-12.309,4.746
		c-3.769,0.509-7.872,0.236-8.271-4.829c-1.075-13.618,2.032-26.962,15.398-34.292c11.757-6.446,29.014-4.406,38.827,4.601
		c5.021,4.608,7.714,10.38,7.836,17.22c0.122,6.831-0.282,13.69,0.203,20.49C147.366,2208.838,144.537,2217.545,133.471,2223.153z"
		/>
	<path fill-rule="evenodd" clip-rule="evenodd" fill="#F8F1DE" d="M44.243,2185.619c-4.942,2.279-8.645,4.109-12.443,5.709
		c-4.71,1.983-6.356,0.814-6.53-4.382c-0.006-0.167,0.021-0.337-0.006-0.499c-1.506-9.369,1.538-15.953,10.748-19.834
		c4.83-2.036,8.951-5.715,13.495-8.483c2.099-1.279,4.343-2.589,6.695-3.135c7.229-1.678,9.941,0.599,9.944,7.977
		c0.013,42.135,0.013,84.269-0.002,126.403c-0.002,6.939-1.578,8.469-8.501,8.506c-13.4,0.073-13.4,0.073-13.4-13.375
		c0-30.81,0-61.619,0-92.43C44.243,2190.299,44.243,2188.522,44.243,2185.619z"/>
</g>
<g>
	<path fill-rule="evenodd" clip-rule="evenodd" fill="#F8F1DE" d="M105.133,2753.617c6.105-2.144,12.055-5.605,18.254-6.136
		c14.357-1.227,24.635,7.887,25.197,22.249c0.527,13.441,0.337,26.993-0.764,40.396c-1.354,16.475-13.259,26.82-29.812,26.896
		c-5.251,0.023-10.77-0.329-15.709-1.923c-12.572-4.057-18.777-13.887-19.227-26.469c-0.783-21.964-0.625-43.965-0.631-65.951
		c-0.002-9.311-0.361-18.771,1.087-27.902c3.19-20.113,19.64-27.332,36.753-25.166c20.188,2.553,28.131,17.539,26.537,37.178
		c-0.026,0.33-0.014,0.693-0.145,0.984c-3.094,6.84-9.229,3.549-14.105,4.006c-3.69,0.348-5.783-1.914-5.852-5.854
		c-0.049-2.818-0.163-5.67-0.635-8.441c-0.98-5.766-4.119-8.305-9.933-8.418c-6.035-0.115-10.609,2.564-10.845,8.037
		C104.764,2729.634,105.133,2742.204,105.133,2753.617z M126.845,2791.321c-0.029,0-0.059,0-0.088,0
		c0-5.479,0.332-10.982-0.087-16.429c-0.489-6.353-4.604-9.817-10.457-9.614c-6.372,0.223-11.318,4.776-11.383,10.822
		c-0.106,9.962-0.115,19.928,0.039,29.888c0.117,7.574,3.828,11.348,10.779,11.437c6.917,0.087,10.867-3.74,11.159-11.161
		C127.003,2801.29,126.845,2796.302,126.845,2791.321z"/>
	<path fill-rule="evenodd" clip-rule="evenodd" fill="#F8F1DE" d="M42.062,2722.843c-4.827,2.219-8.655,4.117-12.592,5.752
		c-4.146,1.723-5.998,0.547-6.256-3.865c-0.156-2.654,0.066-5.33-0.064-7.988c-0.222-4.5,1.852-7.543,5.576-9.83
		c6.658-4.088,13.193-8.373,19.868-12.43c1.808-1.1,3.864-2.018,5.925-2.43c7.081-1.414,9.48,0.658,9.482,7.941
		c0.012,42.115,0.011,84.229,0.001,126.344c-0.002,7.299-1.401,8.656-8.76,8.68c-13.181,0.041-13.181,0.041-13.181-13.218
		c0-30.796,0-61.591,0-92.386C42.062,2727.603,42.062,2725.794,42.062,2722.843z"/>
</g>
<g>
	<path fill-rule="evenodd" clip-rule="evenodd" fill="#F8F1DE" d="M104.623,2566.259c1.81-1.275,2.848-1.965,3.84-2.713
		c15.275-11.527,36.249-4.482,38.295,14.305c1.878,17.24,1.902,35.07-0.267,52.262c-2.533,20.078-18.146,28.922-38.648,24.891
		c-18.724-3.682-29.592-20.562-24.342-38.961c2.16-7.568,9.347-3.475,14.297-4.084c3.682-0.451,5.758,1.934,5.834,5.85
		c0.062,3.148,0.082,6.342,0.614,9.432c1.092,6.328,4.427,8.896,10.668,8.707c5.856-0.18,9.891-3.457,10.399-9.365
		c0.527-6.121,0.413-12.307,0.436-18.465c0.027-7.326,0.002-14.656-0.197-21.979c-0.117-4.279-1.75-8.047-6.201-9.262
		c-4.604-1.254-8.838-0.326-12.122,3.682c-4.829,5.895-12.353,7.934-18.881,4.611c-1.7-0.865-3.261-3.975-3.21-6.012
		c0.519-20.643,1.338-41.277,2.186-61.91c0.223-5.447,2.002-7.072,7.482-7.098c14.656-0.066,29.313-0.072,43.97,0.008
		c5.107,0.027,6.591,1.932,5.797,6.844c-2.143,13.256-2.24,13.338-15.827,13.338c-5.996,0.002-11.998-0.141-17.983,0.115
		c-1.439,0.062-3.979,1.361-4.053,2.254C105.818,2543.569,105.294,2554.46,104.623,2566.259z"/>
	<path fill-rule="evenodd" clip-rule="evenodd" fill="#F8F1DE" d="M42.679,2541.349c-4.592,2.125-8.139,3.85-11.752,5.42
		c-5.244,2.279-6.906,1.16-7.05-4.67c-0.062-2.496,0.04-4.998-0.007-7.496c-0.075-4.084,1.895-6.936,5.24-9.029
		c6.908-4.326,13.755-8.754,20.735-12.961c1.8-1.084,3.95-1.811,6.03-2.16c6.403-1.074,8.707,0.895,8.711,7.322
		c0.024,42.648,0.024,85.297,0,127.945c-0.004,6.146-1.631,7.734-7.605,7.811c-14.303,0.186-14.303,0.186-14.303-14.145
		c0-30.32,0-60.641,0-90.961C42.679,2546.452,42.679,2544.478,42.679,2541.349z"/>
</g>
<g>
	<path fill-rule="evenodd" clip-rule="evenodd" fill="#F8F1DE" d="M138.575,2381.167c0.001,13.318,0.102,26.639-0.063,39.953
		c-0.046,3.742,0.899,5.596,5.005,5.334c4.317-0.273,6.445,2.066,6.342,6.414c-0.043,1.83-0.029,3.664-0.008,5.494
		c0.052,4.33-2.094,6.732-6.396,6.348c-4.28-0.383-5.037,1.648-4.932,5.289c0.188,6.486,0.132,12.984,0.02,19.475
		c-0.096,5.49-1.839,7.148-7.174,7.266c-14.089,0.307-14.089,0.307-14.089-13.836c0-4.162-0.234-8.34,0.063-12.48
		c0.306-4.262-0.998-5.91-5.553-5.738c-9.144,0.342-18.309,0.145-27.465,0.084c-5.693-0.039-7.496-1.43-7.019-7.088
		c0.521-6.184,1.107-12.699,3.443-18.332c11.01-26.551,22.658-52.836,34.005-79.246c1.95-4.541,5.068-6.479,10.066-6.486
		c13.754-0.027,13.754-0.162,13.754,13.59C138.575,2358.526,138.575,2369.847,138.575,2381.167z M96.488,2426.39
		c6.044,0,10.683-0.234,15.286,0.068c4.31,0.283,5.86-1.166,5.772-5.621c-0.25-12.799-0.076-25.605-0.106-38.408
		c-0.003-1.201-0.266-2.402-0.407-3.604c-0.325-0.049-0.65-0.096-0.975-0.145C109.69,2394.204,103.323,2409.726,96.488,2426.39z"/>
	<path fill-rule="evenodd" clip-rule="evenodd" fill="#F8F1DE" d="M40.954,2364.571c-4.773,2.189-8.461,3.992-12.237,5.584
		c-4.83,2.039-6.369,0.994-6.536-4.307c-0.084-2.662,0.08-5.334-0.031-7.994c-0.173-4.123,1.789-6.949,5.131-9.045
		c6.903-4.33,13.752-8.752,20.729-12.957c1.8-1.086,3.942-1.83,6.021-2.188c6.397-1.096,8.762,0.887,8.766,7.252
		c0.026,42.643,0.025,85.285,0.003,127.928c-0.004,6.428-1.519,7.846-8.012,7.895c-13.833,0.107-13.833,0.107-13.833-13.572
		c0-30.65,0-61.299,0-91.949C40.954,2369.302,40.954,2367.384,40.954,2364.571z"/>
</g>
</svg>
