<?xml version="1.0" encoding="utf-8"?>
<!-- Generator: Adobe Illustrator 16.0.0, SVG Export Plug-In . SVG Version: 6.00 Build 0)  -->
<!DOCTYPE svg PUBLIC "-//W3C//DTD SVG 1.1//EN" "http://www.w3.org/Graphics/SVG/1.1/DTD/svg11.dtd">
<svg version="1.1" id="Warstwa_1" xmlns="http://www.w3.org/2000/svg" xmlns:xlink="http://www.w3.org/1999/xlink" x="0px" y="0px"
	 width="602px" height="237px" viewBox="0 0 602 237" enable-background="new 0 0 602 237" xml:space="preserve">
<rect id="Rectangle_4_" x="15.052" y="214.775" fill="#F47821" width="125.059" height="11.116"/>
<g>
	<path fill-rule="evenodd" clip-rule="evenodd" fill="#F8F1DE" d="M206.013,75.083c0,1.758,0,3.518,0,5.275
		c0,23.492,0.01,46.984-0.007,70.479c-0.005,6.852-1.379,8.209-8.135,8.258c-13.383,0.096-13.383,0.096-13.384-13.113
		c0-40.152-0.003-80.307,0.003-120.461c0.001-8.797,1.015-9.812,9.673-9.834c11.708-0.027,11.787,0.047,15.69,11.023
		c8.021,22.559,16.06,45.109,24.104,67.658c0.321,0.9,0.766,1.754,2.044,2.602c0-1.684,0-3.369,0-5.053
		c0-22.492-0.007-44.986,0.004-67.479c0.004-7.396,1.305-8.68,8.72-8.75c12.828-0.123,12.961,0.01,12.961,13.053
		c0,40.152,0.011,80.307-0.018,120.461c-0.003,4.1,0.746,9.338-5.116,9.688c-9.375,0.559-13.945,1.57-16.817-6.363
		c-8.658-23.916-17.386-47.805-26.096-71.701c-0.731-2.006-1.527-3.988-2.293-5.982C206.902,74.923,206.458,75.003,206.013,75.083z"
		/>
	<path fill-rule="evenodd" clip-rule="evenodd" fill="#F8F1DE" d="M168.924,87.095c0,12.818-0.223,25.641,0.048,38.453
		c0.499,23.551-17.109,39.334-43.368,35.104c-17.817-2.871-28.116-14.648-28.411-32.596c-0.446-27.127-0.472-54.27-0.017-81.395
		c0.317-18.918,11.921-30.613,31.379-33.182c17.721-2.338,33.91,7.125,38.683,22.883c1.043,3.445,1.539,7.174,1.589,10.783
		c0.183,13.314,0.073,26.633,0.073,39.949C168.909,87.095,168.917,87.095,168.924,87.095z M145.015,87.526c-0.007,0-0.014,0-0.021,0
		c0-13.822,0.178-27.648-0.07-41.467c-0.137-7.654-4.244-11.555-11.364-11.801c-7.313-0.252-11.353,3.186-12.454,10.742
		c-0.263,1.801-0.252,3.652-0.253,5.48c-0.016,24.482-0.038,48.965,0.025,73.447c0.007,2.809,0.245,5.678,0.854,8.41
		c1.104,4.963,4.376,7.635,9.522,7.949c9.119,0.559,13.539-3.137,13.7-12.293C145.191,114.509,145.015,101.017,145.015,87.526z"/>
	<path fill-rule="evenodd" clip-rule="evenodd" fill="#F8F1DE" d="M41.117,72.64c6.253-15.025,12.508-30.051,18.755-45.08
		c0.765-1.84,1.485-3.699,2.223-5.551c1.658-4.16,4.654-6.348,9.203-6.311c3.332,0.027,6.667-0.098,9.996,0.02
		c5.106,0.182,6.188,1.893,4.122,6.693c-6.507,15.117-12.999,30.244-19.713,45.27c-1.684,3.77-1.749,7.125-0.495,11.035
		c7.764,24.221,15.33,48.502,22.925,72.777c1.803,5.762,0.415,7.596-5.756,7.59c-17.399-0.018-15.866,1.762-20.787-15.672
		C57.264,128.085,52.999,112.739,48,97.239c-3.11,7.01-8.535,12.893-8.478,21.158c0.075,10.83,0.051,21.658,0,32.488
		c-0.033,6.908-1.346,8.152-8.14,8.213c-16.685,0.152-15.487,0.67-15.472-15.412c0.039-39.818,0.009-79.637,0.017-119.455
		c0.001-7.248,1.218-8.477,8.328-8.541c2.333-0.02,4.665-0.014,6.998,0c6.958,0.041,8.241,1.225,8.267,8.096
		c0.054,14.496,0.018,28.99,0.019,43.484c0,1.729,0,3.457,0,5.186C40.064,72.519,40.591,72.579,41.117,72.64z"/>
	<path fill-rule="evenodd" clip-rule="evenodd" fill="#F8F1DE" d="M464.27,97.31c-3.289,7.389-8.355,13.998-8.142,22.857
		c0.253,10.486,0.101,20.984,0.04,31.477c-0.036,6.117-1.33,7.373-7.312,7.445c-3.164,0.037-6.33-0.035-9.493,0.012
		c-4.584,0.068-6.646-2.1-6.592-6.723c0.112-9.658,0.031-19.318,0.031-28.979c0-32.977-0.003-65.955,0.002-98.932
		c0.001-7.701,1.007-8.736,8.492-8.777c15.962-0.09,14.934-0.932,14.897,14.867c-0.029,12.658-0.006,25.316-0.006,37.975
		c0,1.57,0,3.141,0,4.713c0.403,0.086,0.805,0.174,1.208,0.26c3.011-7.084,6.057-14.152,9.024-21.254
		c4.099-9.811,8.294-19.586,12.14-29.494c1.982-5.109,5.382-7.303,10.69-7.086c2.66,0.109,5.33-0.021,7.993,0.027
		c6.049,0.111,7.097,1.68,4.644,7.379c-6.244,14.506-12.42,29.045-18.979,43.408c-2.102,4.602-2.185,8.713-0.669,13.428
		c7.679,23.889,15.166,47.838,22.658,71.787c1.728,5.521,0.302,7.355-5.53,7.387c-18.702,0.096-16.106,1.279-21.345-16.842
		c-4.289-14.836-8.322-29.746-12.469-44.623C465.124,97.519,464.697,97.413,464.27,97.31z"/>
	<path fill-rule="evenodd" clip-rule="evenodd" fill="#F8F1DE" d="M407.485,159.095c-10.544,0-11.07-0.453-12.559-10.941
		c-0.679-4.783-1.467-9.555-1.952-14.357c-0.321-3.17-1.4-4.791-4.947-4.623c-5.32,0.256-10.663,0.154-15.992,0.035
		c-2.662-0.059-3.884,0.898-4.227,3.635c-0.828,6.598-1.96,13.156-2.896,19.742c-0.655,4.607-3.303,6.646-7.864,6.521
		c-2.664-0.072-5.332,0.012-7.998-0.016c-5.992-0.062-7.491-1.742-6.494-7.543c2.988-17.375,6.01-34.746,9.067-52.111
		c4.355-24.738,8.777-49.467,13.121-74.209c1.528-8.699,2.433-9.529,11.377-9.539c3.499-0.004,6.999-0.035,10.498,0.01
		c6.308,0.078,7.857,1.367,8.968,7.631c4.037,22.771,8.045,45.549,12.055,68.326c3.375,19.166,6.751,38.334,10.099,57.506
		c1.563,8.955,0.726,9.93-8.257,9.934C408.818,159.097,408.152,159.095,407.485,159.095z M380.987,53.104
		c-0.315,0.002-0.631,0.004-0.947,0.006c-0.938,6.158-1.868,12.316-2.813,18.471c-1.666,10.85-3.422,21.684-4.908,32.557
		c-0.19,1.389,0.922,4.213,1.591,4.264c4.858,0.369,9.757,0.199,15.396,0.199C386.434,89.437,383.711,71.271,380.987,53.104z"/>
	<path fill-rule="evenodd" clip-rule="evenodd" fill="#F8F1DE" d="M295.096,97.235c0-18.152-0.112-36.307,0.083-54.457
		c0.046-4.271-1.077-6.123-5.603-5.748c-4.135,0.34-8.322,0.135-12.484,0.051c-5.616-0.113-7.087-1.621-7.206-7.123
		c-0.309-14.271-0.309-14.271,14.049-14.271c17.153,0,34.306-0.021,51.459,0.012c7.023,0.014,8.377,1.451,8.409,8.561
		c0.058,12.744-0.039,12.842-12.634,12.842c-12.378,0-12.378,0-12.378,12.357c0,33.473,0.005,66.947-0.004,100.42
		c-0.002,8.201-1.022,9.207-9.166,9.217c-14.524,0.02-14.524,0.02-14.524-14.396C295.096,128.876,295.096,113.056,295.096,97.235z"
		/>
	<path fill-rule="evenodd" clip-rule="evenodd" fill="#F8F1DE" d="M550.987,15.688c9.824,0.002,19.647-0.061,29.47,0.027
		c5.826,0.051,7.289,1.652,7.381,7.512c0.218,13.873,0.218,13.873-13.543,13.873c-11.383,0-11.383,0-11.383,11.344
		c0,33.965,0.006,67.93-0.005,101.896c-0.002,7.598-1.141,8.727-8.604,8.756c-15.159,0.057-15.098,1.338-15.051-14.855
		c0.098-33.467,0.033-66.934,0.026-100.398c-0.001-6.721-0.018-6.725-6.52-6.74c-3.829-0.008-7.66,0.057-11.488-0.018
		c-5.629-0.111-7.149-1.631-7.294-7.074c-0.381-14.324-0.381-14.324,14.033-14.324C535.669,15.687,543.328,15.687,550.987,15.688z"
		/>
</g>
</svg>
