<?xml version="1.0" encoding="utf-8"?>
<!-- Generator: Adobe Illustrator 16.0.0, SVG Export Plug-In . SVG Version: 6.00 Build 0)  -->
<!DOCTYPE svg PUBLIC "-//W3C//DTD SVG 1.1//EN" "http://www.w3.org/Graphics/SVG/1.1/DTD/svg11.dtd">
<svg version="1.1" id="Warstwa_1" xmlns="http://www.w3.org/2000/svg" xmlns:xlink="http://www.w3.org/1999/xlink" x="0px" y="0px"
	 width="742.834px" height="551.572px" viewBox="0 0 742.834 551.572" enable-background="new 0 0 742.834 551.572"
	 xml:space="preserve">
<g id="Page-1">
	<path id="Fill-1" fill="#F8F1DE" d="M78.536,17.627c3.7-1.434,5.965-1.077,8.945,1.559l3.46,3.108
		c2.266,2.033,3.933,2.152,6.44,0.358c5.963-4.187,11.931-5.979,16.224-5.979c5.368,0,9.423,2.869,10.734,7.416
		c0.719,2.273,1.671,2.629,3.46,1.075c7.276-6.219,14.672-8.491,19.446-8.491c6.912,0,11.092,4.543,11.092,11.002
		c0,4.066-1.67,9.447-4.531,16.628L128.275,107.7c-2.024,4.905-2.265,8.731,0.361,11.964c3.099,3.946,3.339,5.023,1.43,9.805
		l-0.355,0.836c-1.195,3.114-3.58,3.952-6.446,2.157c-10.735-6.339-13.121-16.389-8.342-28.232l22.303-55.261
		c2.622-6.819,5.246-12.681,5.246-15.197c0-1.791-0.6-3.346-3.341-3.346c-3.696,0-9.661,3.11-14.792,8.014
		c-1.669,1.434-3.22,3.827-4.055,5.741L95.948,104.59c-1.311,3.591-3.337,4.904-7.152,4.904h-4.18c-3.34,0-4.531-1.674-3.34-4.904
		l22.426-55.622c2.625-6.819,5.251-12.681,5.251-15.197c0-1.791-0.6-3.346-3.464-3.346c-3.58,0-9.422,2.989-14.668,7.774
		c-1.67,1.558-3.22,3.829-4.056,5.86l-24.336,60.53c-1.43,3.591-3.336,4.904-7.152,4.904h-4.179c-3.339,0-4.531-1.674-3.339-4.904
		l28.39-70.693c0.836-2.157-0.119-3.113-2.268-2.396c-15.387,5.865-33.879,10.766-33.879,23.086c0,3.71,1.671,6.459,4.18,7.897
		c4.771,2.99,5.007,3.466,5.007,8.73c0,3.35-2.026,4.905-5.247,4.308c-10.019-2.149-16.34-10.522-16.221-20.451
		C27.721,31.983,56.114,26.242,78.536,17.627"/>
	<path id="Fill-3" fill="#F8F1DE" d="M187.381,56.078c-7.323,0-13.211,10.905-15.738,16.537c-0.84,1.758,0.246,3.403,2.764,3.403
		c8.29,0,11.896-4.926,14.414-10.441C191.706,59.476,191.583,56.078,187.381,56.078 M210.566,74.958
		c2.165-3.634,7.807,0.353,5.649,3.991c-8.288,14.072-22.225,29.436-42.649,29.436c-13.693,0-20.788-6.8-20.788-18.766
		c0-16.42,13.461-45.153,35.564-45.153c12.374,0,20.179,9.617,12.976,24.63c-5.408,11.256-14.538,15.832-29.91,14.776
		c-2.647-0.233-4.208,1.056-4.566,3.519c-0.604,4.69,0,11.962,10.326,11.962C189.062,99.353,201.675,89.853,210.566,74.958"/>
	<path id="Fill-5" fill="#F8F1DE" d="M271.782,74.958c2.136-3.638,7.711,0.353,5.58,3.987c-9.5,16.303-20.298,29.44-33.004,29.44
		c-10.567,0-16.032-7.743-7.601-28.501l3.798-9.148c2.375-5.747,4.156-10.086,4.156-11.845c0-1.642-1.423-2.582-3.206-2.582
		c-2.493,0-6.765,1.761-11.04,5.63c-1.542,1.406-3.206,3.638-3.917,5.511l-14.25,34.602c-1.308,3.516-3.328,4.812-7.124,4.812
		h-4.154c-3.324,0-4.515-1.644-3.324-4.812l21.014-51.253c1.304-3.284,3.325-4.104,6.533-2.462l3.561,1.758
		c2.847,1.407,4.39,1.407,7.123-0.467c4.038-2.819,9.379-5.162,14.369-5.162c5.817,0,9.974,3.398,9.974,9.385
		c0,3.516-1.427,7.853-3.921,14.072L249.7,84.34c-5.58,13.607-2.605,15.014-0.597,15.014
		C254.685,99.353,263.589,88.914,271.782,74.958"/>
	<path id="Fill-7" fill="#F8F1DE" d="M335.685,74.141c2.139-3.727,7.737,0.361,5.592,4.084
		c-9.05,15.977-20.359,30.159-32.862,30.159c-5.125,0-9.414-2.044-11.077-6.85c-0.83-2.161-1.907-2.402-3.57-0.719
		c-4.527,4.443-9.528,7.569-15.361,7.569c-9.528,0-16.438-6.969-7.62-28.956l12.021-30.039c1.432-3.605,3.338-4.925,7.152-4.925
		h4.167c3.327,0,4.52,1.683,3.327,4.925L283.642,83.75c-4.885,12.014-3.215,13.94-0.833,13.94c5.484,0,11.91-8.894,17.027-17.9
		c1.073-1.808,2.505-4.809,3.219-6.613l9.522-23.789c1.431-3.604,3.34-4.925,7.151-4.925h4.167c3.335,0,4.528,1.683,3.335,4.925
		l-13.82,34.361c-4.994,12.616-3.33,15.381-0.351,15.381C318.649,99.132,327.349,88.439,335.685,74.141"/>
</g>
<rect id="Rectangle" x="109.314" y="510.934" fill="#F47821" width="125.059" height="11.115"/>
<g>
	<path fill="#F8F1DE" d="M535.245,188.419c0,12.979,0,25.958,0,38.937c0,12.83,0.027,25.66-0.016,38.49
		c-0.021,6.092-1.654,7.687-7.681,7.797c-14.009,0.265-14.009,0.265-14.009-13.953c0-40.32-0.002-80.646,0.002-120.969
		c0.001-8.538,1.186-9.69,9.854-9.706c11.475-0.018,11.591,0.175,15.478,11.25c7.929,22.592,15.976,45.143,23.985,67.708
		c0.269,0.758,0.654,1.476,2.056,2.196c0.079-1.634,0.226-3.269,0.226-4.901c0.017-22.494,0-44.988,0.02-67.482
		c0.005-7.289,1.479-8.73,8.75-8.77c12.659-0.069,12.716-0.012,12.716,12.793c0,40.656,0.011,81.313-0.018,121.967
		c-0.005,3.902,0.907,8.438-4.573,9.725c-8.708,2.045-14.832-0.02-17.102-6.047c-4.216-11.205-8.158-22.514-12.224-33.771
		c-5.46-15.129-10.928-30.253-16.392-45.379C535.958,188.341,535.603,188.38,535.245,188.419z"/>
	<path fill="#F8F1DE" d="M271.532,200.848c0-21.166-0.01-42.332,0.005-63.497c0.005-6.657,1.601-8.383,8.181-8.304
		c11.149,0.134,22.368-0.25,33.428,0.865c17.604,1.774,26.879,11.49,29.429,29.246c0.425,2.958,0.601,5.977,0.608,8.968
		c0.049,21.999,0.059,43.998-0.006,65.998c-0.01,3.488-0.161,7.026-0.755,10.455c-3.251,18.733-14.461,28.28-34.248,28.946
		c-9.656,0.324-19.331,0.142-28.996,0.101c-6.029-0.022-7.629-1.673-7.636-7.778C271.517,244.18,271.532,222.514,271.532,200.848z
		 M319.324,201.364c0-2.997,0.021-5.993-0.004-8.989c-0.091-10.15,0.206-20.324-0.423-30.441
		c-0.548-8.821-4.464-11.942-13.21-12.157c-1.331-0.033-2.688,0.134-3.99-0.067c-4.951-0.765-6.55,1.024-6.504,6.221
		c0.255,28.961,0.122,57.928,0.122,86.894c0,11.295,0,11.295,11.354,10.176c8.193-0.81,11.159-3.594,12.213-11.709
		c0.32-2.467,0.411-4.978,0.421-7.467C319.347,223.004,319.322,212.186,319.324,201.364z"/>
	<path fill="#F8F1DE" d="M650.716,201.566c0-21.315-0.013-42.631,0.007-63.946c0.007-6.939,1.62-8.582,8.476-8.595
		c14.986-0.03,29.975-0.031,44.963,0c6.585,0.014,8.193,1.682,8.245,8.274c0.095,12.752,0.095,12.752-12.464,12.752
		c-6.828,0-13.658,0.111-20.482-0.042c-3.605-0.082-5.076,1.221-5.011,4.95c0.171,9.822,0.127,19.65,0.021,29.475
		c-0.034,3.185,1.124,4.5,4.396,4.399c5.488-0.171,10.988-0.095,16.484-0.026c5.285,0.066,6.887,1.66,7.061,6.776
		c0.445,13.194,0.277,13.368-12.973,13.368c-14.937,0-14.937,0-14.937,14.838c0,7.826,0.136,15.656-0.056,23.479
		c-0.09,3.707,1.316,5.027,4.961,4.969c8.99-0.146,17.983-0.104,26.977-0.02c6.139,0.057,7.28,1.282,7.412,7.348
		c0.309,14.08,0.309,14.08-13.743,14.08c-12.989,0-25.979,0.002-38.968,0c-9.431-0.002-10.367-0.914-10.369-10.129
		C650.714,242.865,650.716,222.217,650.716,201.566z"/>
	<path fill="#F8F1DE" d="M193.495,201.266c0-21.33-0.01-42.662,0.006-63.993c0.005-6.625,1.586-8.23,8.238-8.245
		c15.165-0.035,30.331-0.039,45.496,0.002c6.007,0.017,7.74,1.782,7.87,7.687c0.295,13.336,0.295,13.336-12.941,13.337
		c-6.833,0-13.667,0.076-20.498-0.024c-3.201-0.048-4.442,1.256-4.405,4.469c0.116,9.998,0.123,19.999-0.003,29.996
		c-0.041,3.236,1.149,4.445,4.394,4.345c5.661-0.176,11.331-0.006,16.997-0.053c4.364-0.036,6.282,2.155,6.527,6.412
		c0.741,12.864-0.03,13.755-12.679,13.755c-3.666,0.001-7.334,0.079-10.998-0.018c-2.878-0.072-4.258,0.963-4.232,4.06
		c0.097,11.665,0.116,23.331-0.009,34.995c-0.037,3.439,1.628,4.247,4.62,4.223c8.999-0.072,17.999-0.068,26.997,0
		c6.395,0.053,7.602,1.318,7.685,7.602c0.182,13.834,0.182,13.834-13.529,13.834c-13.665,0-27.331,0.014-40.996-0.008
		c-7.123-0.012-8.531-1.396-8.535-8.379C193.487,243.928,193.495,222.598,193.495,201.266z"/>
	<path fill="#F8F1DE" d="M435.432,201.137c0-21.315-0.01-42.634,0.007-63.952c0.007-6.637,1.524-8.147,8.27-8.16
		c14.989-0.029,29.979-0.028,44.966,0c6.499,0.012,7.99,1.502,8.058,7.838c0.148,13.968,0.43,13.286-12.901,13.197
		c-6.661-0.044-13.326,0.1-19.984-0.048c-3.396-0.076-4.803,1.174-4.757,4.651c0.127,9.824,0.168,19.653-0.018,29.476
		c-0.073,3.84,1.513,4.857,5.067,4.709c5.486-0.227,10.99-0.033,16.485-0.059c4.12-0.02,6.179,2.068,6.237,6.104
		c0.196,13.657,0.694,14.277-12.754,14.104c-14.979-0.195-14.981-0.045-14.981,14.713c0,7.328,0.271,14.67-0.094,21.979
		c-0.246,4.934,1.16,6.869,6.383,6.607c8.14-0.402,16.314-0.129,24.477-0.098c7.393,0.025,8.502,1.129,8.554,8.285
		c0.094,13.158,0.094,13.158-13.241,13.158c-13.323,0-26.647,0.002-39.97-0.002c-8.974-0.002-9.8-0.809-9.802-9.553
		C435.431,243.105,435.432,222.121,435.432,201.137z"/>
	<path fill="#F8F1DE" d="M394.104,150.421c-7.043,0-13.308,0-19.571,0c-4.167,0-8.335,0.075-12.499-0.023
		c-3.765-0.088-5.843-2-5.871-5.915c-0.11-15.484-1.242-15.681,14.428-15.502c13.998,0.16,27.999,0.013,41.999,0.043
		c6.05,0.013,8.314,1.7,7.5,7.723c-1.011,7.474-2.659,15.042-5.323,22.081c-11.064,29.242-22.623,58.297-33.979,87.429
		c-0.646,1.657-1.121,3.382-1.923,5.832c2.395,0.166,4.121,0.384,5.849,0.39c9.167,0.037,18.333-0.023,27.499,0.037
		c5.524,0.039,6.976,1.389,7.081,6.683c0.309,15.335-0.053,14.562-13.958,14.471c-14.999-0.103-30-0.003-44.999-0.032
		c-6.545-0.012-8.392-1.494-7.938-7.848c0.374-5.229,1.086-10.672,2.952-15.52c11.951-31.039,24.268-61.938,36.44-92.895
		C392.555,155.42,393.123,153.385,394.104,150.421z"/>
	<path fill="#F8F1DE" d="M149.656,189.648c0-17.332-0.02-34.661,0.009-51.991c0.011-7.022,1.557-8.556,8.448-8.642
		c15.204-0.189,15.205-0.189,15.204,14.829c-0.001,31.828,0.031,63.655-0.026,95.483c-0.017,9.543-1.885,18.614-8.585,25.917
		c-10.032,10.934-22.708,12.958-36.19,8.972c-13.131-3.884-20.306-13.812-21.825-27.129c-1.053-9.225-0.677-18.622-0.758-27.942
		c-0.037-4.261,2.378-6.144,6.66-6.303c15.902-0.594,15.898-0.656,15.901,15.012c0,4.832-0.063,9.668,0.039,14.498
		c0.165,7.871,4.169,12.478,10.65,12.42c6.302-0.055,10.294-4.436,10.359-12.135c0.149-17.662,0.047-35.326,0.047-52.988
		C149.612,189.648,149.634,189.648,149.656,189.648z"/>
	<path fill="#F8F1DE" d="M630.539,201.307c0,21.149,0.006,42.301-0.003,63.451c-0.003,7.65-1.264,8.872-9.053,8.885
		c-2.665,0.006-5.329-0.011-7.994-0.002c-4.526,0.018-6.76-2.264-6.767-6.758c-0.009-6.662-0.008-13.324-0.008-19.984
		c0-36.14-0.003-72.277,0.002-108.417c0.001-8.077,1.416-9.451,9.646-9.465c14.174-0.025,14.174-0.025,14.174,14.334
		C630.539,162.668,630.539,181.987,630.539,201.307z"/>
</g>
<path fill="#F47821" d="M278.182,384.844c0-12.307,0.062-24.613-0.012-36.921c-0.197-32.585,28.232-40.34,48.892-33.707
	c13.293,4.271,21.584,15.403,21.797,30.294c0.39,27.029,0.478,54.075-0.014,81.102c-0.361,20.026-14.49,32.74-35.079,32.858
	c-20.436,0.117-34.266-11.979-35.237-31.876c-0.68-13.886-0.131-27.831-0.131-41.749
	C278.326,384.846,278.253,384.844,278.182,384.844z M325.33,385.176c-0.008,0-0.017,0-0.025,0c0-13.697,0.197-27.4-0.081-41.091
	c-0.146-7.181-4.198-10.976-10.818-11.274c-7.053-0.316-12.152,2.856-12.241,9.637c-0.38,28.585-0.338,57.185,0.085,85.77
	c0.096,6.426,4.629,9.393,11.115,9.512c7.479,0.136,11.755-3.873,11.899-12.062C325.508,412.173,325.33,398.672,325.33,385.176z"/>
<path fill="#F47821" d="M449.61,385.061c-0.002-20.586-0.026-41.173,0.011-61.759c0.015-7.769,1.058-8.798,8.659-8.804
	c9.688-0.008,19.384-0.195,29.062,0.141c18.915,0.656,31.654,12.049,32.242,30.871c0.831,26.611,0.853,53.291-0.049,79.897
	c-0.625,18.468-12.968,29.487-32.007,30.493c-10.469,0.555-20.984,0.113-31.479,0.222c-5.738,0.06-6.443-3.662-6.441-8.091
	C449.619,427.041,449.613,406.052,449.61,385.061z M472.947,385.098c0,14.936,0.174,29.873-0.101,44.808
	c-0.091,4.86,1.586,6.194,6.271,6.157c13.889-0.108,17.428-3.308,17.521-17.621c0.137-22.2,0.114-44.404,0.01-66.606
	c-0.067-14.058-3.672-17.209-17.747-17.312c-4.97-0.036-6.117,1.776-6.042,6.371C473.095,355.625,472.947,370.361,472.947,385.098z"
	/>
<path fill="#F47821" d="M363.401,385.186c0-12.508,0.062-25.013-0.012-37.518c-0.205-35.296,34.162-41.215,53.596-31.521
	c11.363,5.668,16.828,15.807,17.025,28.039c0.448,27.422,0.617,54.871-0.041,82.284c-0.472,19.644-14.886,32.039-35.246,32.005
	c-20.402-0.031-34.271-12.41-35.069-32.148c-0.555-13.692-0.106-27.426-0.106-41.141
	C363.499,385.186,363.451,385.186,363.401,385.186z M410.694,385.682c0.008,0,0.017,0,0.024,0c0-13.507,0.14-27.016-0.052-40.52
	c-0.113-8.119-4.383-12.355-11.732-12.366c-8.031-0.012-12.062,4.388-12.104,13.929c-0.11,25.603-0.049,51.205-0.006,76.81
	c0.005,1.792,0.364,3.595,0.666,5.374c0.95,5.613,4.553,8.269,9.993,8.761c7.992,0.724,12.992-3.604,13.146-12.072
	C410.869,412.295,410.694,398.987,410.694,385.682z"/>
<path fill="#F47821" d="M208.766,385.289c0-20.566-0.021-41.135,0.013-61.702c0.012-8.144,0.972-9.084,8.979-9.094
	c14.721-0.019,29.44-0.025,44.159,0.005c7.244,0.016,8.252,1.068,8.362,8.458c0.027,1.813,0.04,3.63-0.028,5.442
	c-0.165,4.307-2.04,6.634-6.75,6.535c-8.668-0.182-17.344,0.07-26.011-0.091c-3.858-0.071-5.448,1.304-5.376,5.271
	c0.172,9.474,0.131,18.954,0.02,28.43c-0.042,3.579,1.327,5.14,4.995,5.031c5.438-0.159,10.891,0.094,16.33-0.065
	c5.184-0.15,7.438,2.268,7.188,7.317c-0.05,1.006,0.003,2.017,0,3.022c-0.015,9.008-0.683,9.691-9.539,9.715
	c-4.235,0.012-8.484,0.231-12.698-0.056c-4.752-0.323-6.388,1.54-6.323,6.283c0.211,15.522,0.09,31.051,0.071,46.577
	c-0.013,9.086-0.657,9.724-9.521,9.738c-13.87,0.025-13.87,0.025-13.87-13.957C208.766,423.195,208.766,404.242,208.766,385.289z"/>
<path fill="#F47821" d="M114.275,469.525c-6.468-0.032-7.593-1.69-5.859-8.146c11.699-43.562,23.425-87.121,35.13-130.683
	c2.036-7.577,3.823-15.23,6.141-22.72c0.711-2.295,2.43-5.302,4.364-5.947c2.748-0.917,6.398-0.598,9.093,0.544
	c1.01,0.426,1.062,4.812,0.452,7.102c-13.56,50.982-27.286,101.92-40.931,152.878C121.408,467.24,119.036,470.17,114.275,469.525z"
	/>
</svg>
