<?xml version="1.0" encoding="UTF-8" standalone="no"?>
<svg width="113px" height="42px" viewBox="0 0 113 42" version="1.1" xmlns="http://www.w3.org/2000/svg" xmlns:xlink="http://www.w3.org/1999/xlink">
    <!-- Generator: Sketch 48.2 (47327) - http://www.bohemiancoding.com/sketch -->
    <title>Page 1</title>
    <desc>Created with Sketch.</desc>
    <defs></defs>
    <g id="Desktop-HD-Copy-16" stroke="none" stroke-width="1" fill="none" fill-rule="evenodd" transform="translate(-127.000000, -2448.000000)">
        <g id="Group-18" transform="translate(127.000000, 2448.000000)" fill="#F8F0DD">
            <g id="Page-1">
                <path d="M18.2851076,0.343206174 C19.6163597,-0.172954293 20.4315495,-0.0445897785 21.5040968,0.903956419 L22.7491139,2.0227545 C23.5643037,2.75375663 24.1639061,2.7969952 25.0666783,2.15111901 C27.2117728,0.644524981 29.3595621,0 30.9037068,0 C32.8359087,0 34.2951659,1.03232093 34.7667633,2.66863069 C35.0254681,3.48610996 35.3677131,3.61447447 36.0117804,3.05507543 C38.6298197,0.817479273 41.2909765,0 43.0089385,0 C45.496278,0 47,1.63495855 47,3.95903185 C47,5.42238731 46.3990502,7.35866466 45.3696204,9.94216941 L36.1829029,32.7545703 C35.4539481,34.5192446 35.3677131,35.8961229 36.3122553,37.0595108 C37.4279201,38.4796277 37.514155,38.8674236 36.8269702,40.5875081 L36.6989652,40.8888269 C36.2691379,42.0089762 35.4108306,42.310295 34.3800534,41.6644188 C30.5169969,39.3835841 29.6586896,35.7677584 31.377999,31.5060565 L39.4032395,11.6217177 C40.3464343,9.16792871 41.2909765,7.05869706 41.2909765,6.15338944 C41.2909765,5.50886446 41.0753891,4.94946542 40.0890769,4.94946542 C38.7591722,4.94946542 36.6127303,6.0682635 34.7667633,7.83293776 C34.1658134,8.34909823 33.6079811,9.20981608 33.3075061,9.89893083 L24.550616,31.6357723 C24.080366,32.9275246 23.3500638,33.4004465 21.9770416,33.4004465 L20.4733196,33.4004465 C19.2714199,33.4004465 18.84294,32.7978089 19.2714199,31.6357723 L27.3411252,11.6217177 C28.2856675,9.16792871 29.2302097,7.05869706 29.2302097,6.15338944 C29.2302097,5.50886446 29.0146223,4.94946542 27.9838451,4.94946542 C26.6957105,4.94946542 24.5937335,6.02502492 22.7059964,7.74646062 C22.1050466,8.30721086 21.5472142,9.12469013 21.2467393,9.85569226 L12.4898492,31.6357723 C11.9751343,32.9275246 11.2892969,33.4004465 9.91627477,33.4004465 L8.41255275,33.4004465 C7.21065308,33.4004465 6.78217315,32.7978089 7.21065308,31.6357723 L17.4268003,6.19797922 C17.7272752,5.42238731 17.3836829,5.07782993 16.6102631,5.33591016 C11.0737095,7.44649302 4.42014385,9.20981608 4.42014385,13.643121 C4.42014385,14.978112 5.02109369,15.9671943 5.92386587,16.484706 C7.64048043,17.5602655 7.72536796,17.7318686 7.72536796,19.6262586 C7.72536796,20.8315338 6.99641311,21.3909328 5.83763091,21.1760912 C2.23193188,20.4018505 -0.0425150417,17.3886624 0.000602435526,13.8160753 C0.000602435526,5.50886446 10.2167497,3.44287139 18.2851076,0.343206174" id="Fill-1"></path>
                <path d="M57.450538,14.1784459 C54.8152306,14.1784459 52.6969429,18.1025287 51.7877483,20.1294856 C51.4851358,20.7614193 51.8759538,21.3536087 52.7824344,21.3536087 C55.7651354,21.3536087 57.062434,19.5810149 57.9689146,17.5964518 C59.0070248,15.4012442 58.9622436,14.1784459 57.450538,14.1784459 M65.7934161,20.9720638 C66.5723381,19.6644779 68.6024204,21.0992454 67.8262124,22.4081562 C64.8435113,27.4715742 59.829371,33 52.4798218,33 C47.5525299,33 45,30.5530787 45,26.2474512 C45,20.3388054 49.8431575,10 57.7965747,10 C62.2489142,10 65.0579184,13.4603997 62.4660353,18.8629687 C60.5200875,22.9129082 57.2347739,24.5596452 51.7036139,24.1794251 C50.7509951,24.0959622 50.1891942,24.5596452 50.0602786,25.4459421 C49.8431575,27.1337481 50.0602786,29.7502448 53.7757634,29.7502448 C58.055763,29.7502448 62.593594,26.3322389 65.7934161,20.9720638" id="Fill-3"></path>
                <path d="M87.8204859,20.9720638 C88.5889827,19.663153 90.5953897,21.0992454 89.8282341,22.4068314 C86.4095633,28.2730833 82.5241614,33 77.9520748,33 C74.1498261,33 72.1836545,30.2139278 75.2174064,22.7446576 L76.58407,19.4525085 C77.4384024,17.3844825 78.079487,15.8238581 78.079487,15.1905996 C78.079487,14.599735 77.5671558,14.2619089 76.9260712,14.2619089 C76.028821,14.2619089 74.4918273,14.8951673 72.9534925,16.287541 C72.3982435,16.7936179 71.8000767,17.5964518 71.5439111,18.2707793 L66.4165755,30.7213294 C65.9458209,31.9865215 65.2189007,32.4515293 63.8535783,32.4515293 L62.3581612,32.4515293 C61.1618276,32.4515293 60.7339908,31.8606647 61.1618276,30.7213294 L68.7234071,12.2786706 C69.1928205,11.0969414 69.9197407,10.8015091 71.0744977,11.3923737 L72.3553257,12.0256322 C73.3799882,12.531709 73.9352372,12.531709 74.918323,11.8573815 C76.3708222,10.8425782 78.2927348,10 80.0885764,10 C82.1821602,10 83.6775772,11.2227982 83.6775772,13.3769368 C83.6775772,14.6421289 83.1639048,16.2027533 82.2666546,18.4403548 L79.8739874,24.3476758 C77.8662392,29.244168 78.9365018,29.7502448 79.6593984,29.7502448 C81.6684878,29.7502448 84.8725696,25.9944128 87.8204859,20.9720638" id="Fill-5"></path>
                <path d="M110.814505,20.6782321 C111.583922,19.3373458 113.598933,20.8085207 112.826826,22.1480498 C109.570255,27.8970319 105.501224,33 101.001749,33 C99.1575695,33 97.6147003,32.2644126 97.0161154,30.535375 C96.7174956,29.7577152 96.3300969,29.6708562 95.731512,30.2761551 C94.1025542,31.8749041 92.3027643,33 90.2043546,33 C86.7756068,33 84.2897984,30.4919455 87.4616254,22.5809878 L91.7875778,11.7724671 C92.3027643,10.4750103 92.9887829,10 94.36082,10 L95.8606449,10 C97.0578146,10 97.4869125,10.6052989 97.0578146,11.7724671 L92.0875428,24.1363073 C90.3294521,28.4589013 90.9307272,29.1524164 91.7875778,29.1524164 C93.7608901,29.1524164 96.0731762,25.9522039 97.9146652,22.7112763 C98.3007188,22.0611908 98.8159053,20.9808816 99.072826,20.3321532 L102.498883,11.7724671 C103.01407,10.4750103 103.701434,10 105.072126,10 L106.571951,10 C107.771811,10 108.200908,10.6052989 107.771811,11.7724671 L102.798848,24.1363073 C101.001749,28.6760489 101.600334,29.6708562 102.672406,29.6708562 C104.684727,29.6708562 107.814855,25.8232726 110.814505,20.6782321" id="Fill-7"></path>
            </g>
        </g>
    </g>
</svg>