<?xml version="1.0" encoding="utf-8"?>
<!-- Generator: Adobe Illustrator 16.0.0, SVG Export Plug-In . SVG Version: 6.00 Build 0)  -->
<!DOCTYPE svg PUBLIC "-//W3C//DTD SVG 1.1//EN" "http://www.w3.org/Graphics/SVG/1.1/DTD/svg11.dtd">
<svg version="1.1" id="Warstwa_1" xmlns="http://www.w3.org/2000/svg" xmlns:xlink="http://www.w3.org/1999/xlink" x="0px" y="0px"
	 width="1842.184px" height="285.029px" viewBox="0 0 1842.184 285.029" enable-background="new 0 0 1842.184 285.029"
	 xml:space="preserve">
<g>
	<path fill="#F4770F" d="M1549.569,113.108c18.342,10.183,15.596,26.953,15.088,42.969c-0.037,1.195-0.398,2.378-0.574,3.571
		c-2.393,16.19-9.959,24.479-26.016,25.945c-12.371,1.131-24.916,0.644-37.369,0.362c-1.814-0.041-3.988-2.667-5.197-4.598
		c-0.832-1.327-0.344-3.521-0.346-5.325c-0.012-40.224-0.014-80.447-0.006-120.671c0.002-9.606,0.6-10.194,10.277-10.189
		c9.855,0.005,19.715-0.163,29.562,0.111c15.717,0.438,25.428,9.354,27.584,24.916c0.221,1.595,0.492,3.188,0.584,4.79
		C1563.973,89.371,1565.334,103.948,1549.569,113.108z M1518.702,144.475c0,5.823-0.102,11.652,0.072,17.474
		c0.043,1.414,0.59,3.466,1.602,4.091c6.676,4.118,19.545-1.463,20.766-9.277c0.922-5.896,1.191-12.017,0.805-17.976
		c-0.811-12.472-6.713-17.184-19.082-15.507c-1.553,0.21-3.822,2.729-3.965,4.338
		C1518.409,133.198,1518.709,138.85,1518.702,144.475z M1540.655,86.547c0.271-18.106-4.24-23.345-17.691-21.664
		c-1.57,0.195-4.02,2.705-4.07,4.208c-0.354,10.425-0.301,20.869-0.037,31.3c0.035,1.451,1.691,3.782,3.018,4.134
		c10.215,2.709,16.881-1.979,18.221-12.462C1540.397,89.677,1540.581,87.277,1540.655,86.547z"/>
	<path fill="#F4770F" d="M862.625,115.565c0-20.308-0.015-40.613,0.006-60.919c0.01-8.387,1.073-9.461,9.281-9.47
		c9.249-0.007,18.502-0.152,27.744,0.106c19.397,0.546,32.053,11.405,32.77,30.653c0.988,26.494,0.953,53.079-0.023,79.573
		c-0.703,19.073-13.221,29.807-32.919,30.567c-9.437,0.365-18.896,0.146-28.346,0.118c-6.947-0.02-8.474-1.493-8.492-8.504
		C862.591,156.982,862.627,136.274,862.625,115.565z M886.19,115.308c0,14.876,0.134,29.754-0.082,44.627
		c-0.064,4.468,0.836,6.439,5.93,6.374c13.863-0.183,17.55-3.415,17.627-17.449c0.122-22.113,0.096-44.227,0.011-66.339
		c-0.055-14.295-3.702-17.523-18.129-17.432c-4.287,0.027-5.492,1.445-5.436,5.592C886.315,85.553,886.192,100.432,886.19,115.308z"
		/>
	<path fill="#F4770F" d="M1732.979,115.339c0-20.12-0.014-40.238,0.006-60.358c0.008-9,0.791-9.796,9.473-9.808
		c9.256-0.011,18.514-0.08,27.768,0.033c18.135,0.223,28.205,7.912,30.617,25.815c1.482,10.998,0.629,22.415-0.143,33.577
		c-0.521,7.518-4.801,13.64-11.475,17.515c-3.053,1.772-3.443,3.623-2.438,6.894c5.025,16.322,9.805,32.721,14.611,49.107
		c1.898,6.468,0.744,7.976-5.904,8.093c-14.543,0.256-14.586,0.269-18.393-13.604c-3.561-12.979-6.996-25.994-10.545-38.979
		c-0.469-1.719-0.836-3.972-2.061-4.85c-1.408-1.012-4.021-1.489-5.539-0.848c-1.268,0.536-2.393,3.015-2.414,4.646
		c-0.184,14.888-0.092,29.776-0.127,44.665c-0.02,7.889-1.137,8.938-9.15,8.971c-14.287,0.059-14.287,0.059-14.287-14.129
		C1732.979,153.167,1732.979,134.253,1732.979,115.339z M1756.438,86.654c0,5.623-0.115,11.248,0.072,16.865
		c0.057,1.647,0.467,3.963,1.586,4.782c5.293,3.877,18.242-0.762,19.496-7.396c1.25-6.627,1.465-13.544,1.33-20.317
		c-0.254-12.891-4.85-16.675-17.689-15.958c-3.646,0.204-4.949,1.611-4.842,5.158C1756.563,75.405,1756.438,81.031,1756.438,86.654z
		"/>
	<path fill="#F4770F" d="M949.155,115.282c0-20.32-0.02-40.64,0.01-60.96c0.012-8.166,0.979-9.129,8.912-9.147
		c9.254-0.02,18.51-0.07,27.764,0.021c18.605,0.182,28.648,7.582,31.146,25.905c1.574,11.55,0.383,23.589-0.574,35.327
		c-0.537,6.58-4.697,12.051-10.6,15.386c-3.627,2.05-3.836,4.271-2.713,7.897c4.938,15.927,9.602,31.938,14.361,47.92
		c2.105,7.066,0.994,8.523-6.566,8.575c-2.414,0.018-4.83-0.052-7.242,0.008c-4.756,0.118-7.34-2.199-8.541-6.772
		c-3.928-14.962-8.035-29.877-12.082-44.809c-0.314-1.163-0.326-2.732-1.098-3.38c-1.742-1.465-3.82-3.224-5.859-3.354
		c-1.074-0.067-3.344,3.021-3.373,4.718c-0.271,14.884-0.143,29.774-0.17,44.661c-0.016,7.724-1.158,8.875-8.553,8.93
		c-14.822,0.111-14.822,0.111-14.822-14.794C949.153,152.704,949.155,133.993,949.155,115.282z M972.545,86.147
		c0,5.834-0.119,11.671,0.076,17.499c0.055,1.621,0.547,3.938,1.672,4.692c5.664,3.793,18.236-0.805,19.486-7.523
		c1.238-6.643,1.488-13.562,1.365-20.343c-0.232-12.78-5.764-17.374-18.479-15.579c-1.547,0.218-3.791,2.755-3.932,4.374
		C972.247,74.855,972.545,80.514,972.545,86.147z"/>
	<path fill="#F4770F" d="M1361.991,115.798c-0.002,20.722,0.021,41.439-0.016,62.16c-0.014,6.783-1.416,8.139-8.088,8.248
		c-15.176,0.248-15.176,0.248-15.176-14.959c0-12.874-0.312-25.76,0.133-38.619c0.217-6.259-1.918-8.323-7.947-7.629
		c-3.771,0.435-7.648,0.279-11.455,0.029c-4.197-0.274-5.641,1.358-5.592,5.567c0.18,15.487,0.086,30.979,0.062,46.469
		c-0.014,8.121-1.002,9.098-8.938,9.143c-14.463,0.08-14.463,0.08-14.463-14.604c0-38.825-0.008-77.649,0.006-116.476
		c0.004-9.183,0.799-9.94,9.979-9.96c13.422-0.025,13.422-0.025,13.422,13.703c0.002,13.276,0.15,26.556-0.08,39.829
		c-0.078,4.469,1.365,6.215,5.875,5.875c4-0.301,8.076-0.4,12.057,0.015c5.883,0.613,7.119-2.151,7.027-7.392
		c-0.254-14.277-0.109-28.563-0.078-42.846c0.018-8.416,0.811-9.154,9.418-9.185c13.85-0.048,13.85-0.048,13.85,13.9
		C1361.991,77.979,1361.991,96.889,1361.991,115.798z"/>
	<path fill="#F4770F" d="M1114.692,104.589c0-17.09-0.023-34.181,0.012-51.271c0.014-7.068,1.033-8.048,8.002-8.148
		c15.463-0.223,15.463-0.223,15.463,15.249c0,29.355-0.008,58.71,0.014,88.066c0.002,3.012,0.027,6.042,0.336,9.032
		c0.709,6.818,4.297,10.102,10.984,10.318c7.07,0.231,11.096-2.984,12.016-9.885c0.371-2.776,0.365-5.614,0.367-8.424
		c0.023-31.567,0.006-63.134,0.021-94.702c0.004-8.879,0.791-9.636,9.611-9.658c13.811-0.035,13.816-0.035,13.811,13.855
		c-0.012,31.768,0.086,63.537-0.1,95.304c-0.082,14.237-5.754,25.656-19.504,31.162c-21.701,8.688-51.84-0.445-51.094-33.251
		C1114.993,136.364,1114.694,120.474,1114.692,104.589z"/>
	<path fill="#F4770F" d="M1256.042,176.981c-8.152,9.36-17.65,12.778-29.119,11.07c-13.561-2.021-21.604-9.929-24.889-22.874
		c-1.029-4.052-1.58-8.333-1.605-12.514c-0.146-24.739-0.059-49.48-0.082-74.222c-0.033-33.809,31.596-41.039,51.148-32.412
		c8.676,3.827,14.447,10.687,16.189,19.789c1.457,7.604,1.059,15.566,1.465,23.373c0.021,0.394,0,0.849-0.176,1.185
		c-3.889,7.397-10.74,3.029-16.221,3.914c-3.854,0.621-6.014-1.86-6.145-5.719c-0.164-4.823,0.041-9.662-0.229-14.478
		c-0.361-6.457-3.643-9.851-9.533-10.339c-6.785-0.562-10.924,2.218-12.52,8.585c-0.438,1.733-0.637,3.572-0.639,5.362
		c-0.039,25.143-0.1,50.287,0.012,75.429c0.045,9.969,4.645,14.729,13.078,14.157c5.926-0.405,10.092-3.641,10.654-9.54
		c0.666-6.982,0.684-14.062,0.373-21.073c-0.055-1.23-2.988-2.556-4.787-3.438c-2.664-1.306-7.371-1.708-7.885-3.466
		c-1.102-3.773-0.5-8.256,0.334-12.254c0.242-1.16,3.621-2.278,5.602-2.354c7.434-0.281,14.883-0.058,22.322-0.152
		c5.1-0.064,7.146,2.264,7.105,7.374c-0.146,18.505-0.078,37.011-0.037,55.517c0.008,3.552,0.1,7.304-4.35,8.056
		c-4.098,0.693-6.852-1.544-8.244-5.457C1257.542,179.59,1256.977,178.764,1256.042,176.981z"/>
	<path fill="#F4770F" d="M1067.323,45.168c0.803,0,1.605,0,2.41,0c10.625,0.004,11.369,0.771,13.156,11.078
		c6.861,39.559,13.818,79.1,20.727,118.649c0.346,1.979,0.764,3.981,0.75,5.972c-0.01,1.305-0.607,3.674-1.164,3.742
		c-5.443,0.668-10.996,1.566-16.371,1.006c-1.855-0.193-4.143-4.094-4.76-6.656c-1.359-5.638-1.855-11.492-2.562-17.274
		c-0.404-3.322-1.775-4.987-5.426-4.776c-5.803,0.335-13.254-1.825-16.971,1.027c-3.49,2.677-3.088,10.475-4.303,16.04
		c-0.514,2.352-0.174,5.116-1.322,7.037c-1.266,2.117-3.758,4.901-5.773,4.948c-16.254,0.381-17.617,2.258-14.58-14.487
		c6.986-38.521,13.529-77.122,20.279-115.686c1.793-10.245,2.303-10.616,12.896-10.62
		C1065.311,45.168,1066.317,45.168,1067.323,45.168z M1058.491,136.818c5.168,0,8.953-0.156,12.719,0.044
		c3.73,0.199,4.471-1.554,3.895-4.792c-0.629-3.545-1.014-7.133-1.533-10.698c-1.805-12.389-3.619-24.774-5.43-37.162
		c-0.58-0.011-1.16-0.02-1.742-0.029C1063.815,101.382,1061.229,118.584,1058.491,136.818z"/>
	<path fill="#F4770F" d="M1578.782,115.287c-0.002-20.323-0.021-40.646,0.01-60.97c0.012-8.045,1.094-9.128,8.967-9.141
		c14.688-0.022,29.379,0.106,44.066-0.061c5.455-0.062,7.781,2.321,7.568,7.61c-0.08,2.009-0.016,4.022-0.021,6.035
		c-0.02,4.701-2.229,6.953-7.078,6.872c-8.248-0.138-16.502,0.092-24.748-0.075c-3.803-0.077-5.43,1.131-5.332,5.181
		c0.225,9.251,0.186,18.513,0.018,27.766c-0.066,3.719,1.461,5.012,5.01,4.919c5.229-0.137,10.463,0.007,15.693-0.003
		c4.492-0.009,6.725,2.124,6.484,6.683c-0.021,0.401-0.002,0.806,0.006,1.208c0.217,11.454-0.094,11.767-11.672,11.76
		c-15.473-0.01-15.473-0.01-15.473,15.426c0.002,7.243,0.158,14.492-0.061,21.729c-0.111,3.67,1.162,4.984,4.84,4.908
		c8.648-0.181,17.305,0.052,25.955-0.082c5.561-0.085,8.316,2.229,7.893,7.955c-0.131,1.803-0.107,3.626-0.004,5.433
		c0.326,5.706-2.389,7.891-8,7.826c-15.291-0.177-30.584-0.031-45.877-0.073c-6.689-0.019-8.191-1.424-8.215-8.127
		C1578.739,157.14,1578.784,136.213,1578.782,115.287z"/>
	<path fill="#F4770F" d="M1655.86,115.168c-0.002-20.31-0.023-40.62,0.01-60.93c0.014-8.001,1.086-9.05,9.018-9.063
		c14.277-0.021,28.555-0.025,42.834,0.002c7.553,0.016,8.529,1.055,8.58,8.836c0.014,1.811,0.012,3.62-0.029,5.431
		c-0.092,4.181-2.182,6.2-6.432,6.166c-8.244-0.066-16.496,0.188-24.73-0.081c-4.537-0.147-5.979,1.546-5.844,5.973
		c0.268,8.64,0.25,17.296,0.006,25.937c-0.125,4.378,1.291,6.272,5.842,6.018c4.812-0.27,9.65,0.008,14.477-0.054
		c4.707-0.062,7.178,1.975,6.957,6.881c-0.102,2.207-0.066,4.423-0.041,6.634c0.051,4.349-2.344,6.157-6.41,6.178
		c-5.229,0.025-10.459,0.097-15.686-0.05c-3.445-0.096-5.168,0.978-5.111,4.786c0.154,10.856,0.172,21.72-0.012,32.576
		c-0.066,3.854,1.619,4.778,5.068,4.72c8.443-0.144,16.893-0.094,25.338-0.022c6.729,0.058,8.186,1.539,8.301,8.12
		c0.033,2.009-0.01,4.021-0.002,6.03c0.018,4.698-2.205,6.992-7.016,6.974c-15.885-0.065-31.773-0.162-47.656,0.047
		c-6.131,0.08-7.494-3.218-7.48-8.366C1655.893,156.997,1655.86,136.083,1655.86,115.168z"/>
	<path fill="#F4770F" d="M1397.866,125.142c0-17.706-0.125-35.415,0.088-53.12c0.051-4.398-1.156-6.286-5.76-5.955
		c-4.201,0.303-8.443,0.057-12.67,0.011c-4.168-0.045-6.289-2.184-6.346-6.354c-0.021-1.61-0.039-3.22-0.037-4.829
		c0.008-8.971,0.729-9.718,9.541-9.723c17.91-0.011,35.816-0.015,53.727,0.002c8.434,0.009,9.162,0.782,9.184,9.437
		c0.002,0.806,0.002,1.609-0.002,2.415c-0.039,8.021-1.057,9.054-8.977,9.106c-15.404,0.102-15.404,0.102-15.404,15.492
		c-0.002,31.592,0.006,63.184-0.006,94.773c-0.004,9.006-0.785,9.787-9.49,9.811c-13.844,0.037-13.846,0.037-13.846-13.979
		C1397.868,156.533,1397.868,140.838,1397.866,125.142z"/>
</g>
<g>
	<path fill="#F8F1DE" d="M204,135.389c2.664-17.605,5.326-35.209,7.991-52.812c1.414-9.345,2.923-18.677,4.21-28.04
		c0.659-4.791,2.984-7.288,7.959-7.022c1.404,0.073,2.816,0.001,4.225,0.007c7.909,0.031,9.045,0.96,10.199,8.61
		c3.568,23.657,7.104,47.319,10.667,70.978c0.349,2.316,0.797,4.62,2.509,6.968c1.339-9.42,2.736-18.834,4.005-28.265
		c2.253-16.735,4.583-33.461,6.558-50.23c0.708-6.014,3.413-8.237,9.441-8.162c14.228,0.18,14.149-0.011,11.825,13.59
		c-6.67,39.04-13.249,78.097-19.833,117.149c-1.638,9.713-9.896,14.272-18.742,9.781c-1.87-0.949-3.391-3.948-3.789-6.228
		c-4.082-23.362-7.895-46.774-11.795-70.173c-0.451-2.704-0.974-5.396-2.692-8.204c-1.334,7.419-2.753,14.825-3.985,22.261
		c-3.058,18.441-6.137,36.882-8.973,55.357c-0.867,5.652-3.619,7.873-9.302,7.802c-10.626-0.135-11.952-0.49-13.135-7.438
		c-7.221-42.42-14.346-84.855-21.355-127.311c-0.28-1.696,0.745-5.141,1.464-5.226c5.491-0.65,11.19-1.42,16.526-0.471
		c1.857,0.33,3.702,5.271,4.143,8.312c3.807,26.23,7.29,52.508,10.87,78.771C203.327,135.395,203.664,135.391,204,135.389z"/>
	<path fill="#F8F1DE" d="M595.354,107.118c0,5.979,0.002,11.958,0,17.936c0,18.307,0.027,36.611-0.018,54.917
		c-0.02,7.696-1.057,8.659-8.744,8.705c-1.207,0.009-2.414,0.009-3.621-0.001c-7.596-0.052-8.722-1.057-8.735-8.722
		c-0.054-29.771-0.024-59.544-0.025-89.315c0-11.668-0.052-23.334,0.022-35.002c0.046-6.942,1.216-8.021,8.084-8.113
		c13.011-0.177,12.93-0.147,17.139,11.807c7.139,20.273,14.383,40.509,21.607,60.751c0.663,1.858,1.504,3.654,3.487,5.495
		c0.12-1.989,0.342-3.979,0.345-5.967c0.026-21.122-0.009-42.243,0.032-63.365c0.017-7.816,0.935-8.675,8.617-8.722
		c1.81-0.012,3.627,0.1,5.43-0.019c4.886-0.321,7.009,2.035,7.005,6.791c-0.021,42.445-0.028,84.891,0.008,127.333
		c0.006,5.101-2.309,7.097-7.402,7.121c-11.268,0.062-11.771-0.128-15.63-10.77c-7.945-21.904-15.896-43.808-23.86-65.703
		c-0.667-1.832-1.458-3.62-2.193-5.428C596.388,106.938,595.871,107.028,595.354,107.118z"/>
	<path fill="#F8F1DE" d="M364.702,118.134c0.004,12.672,0.13,25.346-0.03,38.017c-0.166,13.122-4.612,24.407-16.873,30.502
		c-13.012,6.468-26.502,6.33-39.213-1.229c-8.264-4.913-12.639-12.771-13.928-22.229c-0.514-3.771-0.651-7.618-0.66-11.431
		c-0.053-23.533,0.092-47.068-0.044-70.603c-0.189-32.659,27.745-40.424,48.49-34.029c13.834,4.265,21.953,16.039,22.21,31.777
		C364.866,91.983,364.697,105.06,364.702,118.134z M341.007,117.977c0-13.454,0.157-26.912-0.061-40.362
		c-0.123-7.609-4.022-11.543-10.822-11.835c-7.449-0.321-12.335,3.243-12.42,10.793c-0.312,27.703-0.098,55.414-0.056,83.122
		c0.001,0.789,0.251,1.585,0.438,2.365c1.162,4.857,4.224,7.562,9.194,8.178c8.343,1.034,13.487-3.157,13.648-11.897
		C341.179,144.889,340.994,131.432,341.007,117.977z"/>
	<path fill="#F8F1DE" d="M550.319,188.675c-10.978,0.002-11.619-0.594-12.896-11.76c-0.183-1.594-0.403-3.195-0.772-4.754
		c-0.984-4.147-1.336-11.402-3.229-11.84c-6.479-1.497-13.516-0.721-20.324-0.441c-0.782,0.032-1.89,2.312-2.127,3.678
		c-1.034,5.932-1.858,11.899-2.648,17.87c-0.659,4.984-3.155,7.267-8.415,7.326c-15.201,0.181-15.276,0.312-12.714-14.272
		c6.983-39.773,14.126-79.52,20.972-119.315c0.984-5.729,3.592-8.074,9.246-7.688c3.402,0.231,6.834,0.036,10.252,0.044
		c8.576,0.02,9.437,0.679,10.949,9.229c7.171,40.559,14.314,81.12,21.439,121.687C561.678,187.691,560.698,188.675,550.319,188.675z
		 M514.714,139.248c4.878,0,8.282-0.204,11.65,0.05c4.438,0.334,5.594-1.523,4.934-5.697c-2.531-16.01-4.882-32.045-7.299-48.071
		c-0.408-0.032-0.814-0.064-1.222-0.098C520.137,103.049,517.498,120.667,514.714,139.248z"/>
	<path fill="#F8F1DE" d="M47.583,117.725c0-19.519-0.001-39.034,0-58.551c0.001-11.504,0.158-11.778,11.912-11.621
		c11.645,0.158,23.358-0.09,34.908,1.12c11.549,1.208,18.764,8.768,21.819,19.803c3.894,14.056,3.803,28.295,0.048,42.358
		c-3.262,12.222-12.127,19.313-25.339,20.688c-4.587,0.476-9.254,0.565-13.862,0.35c-4.459-0.21-5.963,1.395-5.887,5.9
		c0.238,14.081,0.108,28.167,0.076,42.251c-0.017,7.561-1.123,8.603-8.824,8.65c-14.851,0.096-14.851,0.096-14.851-14.814
		C47.583,155.149,47.583,136.436,47.583,117.725z M71.274,89.556c0,6.009-0.126,12.023,0.086,18.024
		c0.055,1.543,0.754,3.846,1.877,4.438c7.345,3.885,20.425-1.36,21.287-9.17c0.977-8.854,0.625-17.935,0.007-26.858
		c-0.37-5.34-4.274-8.428-9.82-8.795c-2.993-0.198-6.001-0.178-8.995-0.371c-3.439-0.222-4.563,1.435-4.484,4.702
		C71.378,77.534,71.274,83.546,71.274,89.556z"/>
	<path fill="#F8F1DE" d="M665.706,117.708c0-20.307-0.021-40.613,0.009-60.919c0.013-8.378,0.933-9.255,9.375-9.265
		c14.275-0.015,28.55-0.027,42.825,0.007c6.958,0.017,8.128,1.184,8.249,7.945c0.036,2.009,0.016,4.021-0.019,6.031
		c-0.075,4.406-2.158,6.584-6.742,6.518c-8.242-0.123-16.49,0.129-24.729-0.086c-4.154-0.108-5.734,1.343-5.626,5.568
		c0.228,8.841,0.251,17.697-0.007,26.536c-0.134,4.588,1.741,6.027,6.062,5.825c5.015-0.233,10.051-0.06,15.075-0.005
		c4.163,0.045,6.33,2.09,6.184,6.373c-0.048,1.406,0.013,2.813,0.003,4.222c-0.058,8.136-0.93,9.014-8.985,9.028
		c-4.424,0.009-8.85,0.123-13.269-0.026c-3.532-0.119-5.094,1.157-5.042,4.887c0.149,10.854,0.165,21.714-0.007,32.567
		c-0.062,3.858,1.692,4.771,5.115,4.72c8.644-0.127,17.291,0.062,25.936-0.064c5.263-0.076,7.626,2.088,7.721,7.531
		c0.229,13.202,0.021,13.574-13.049,13.574c-13.471,0.002-26.942,0.021-40.413-0.008c-7.428-0.016-8.633-1.189-8.65-8.833
		C665.674,159.125,665.706,138.417,665.706,117.708z"/>
	<path fill="#F8F1DE" d="M441.903,167.898c8.481,0,16.444-0.008,24.408,0.001c9.75,0.011,15.08,9.256,10.048,17.923
		c-0.872,1.501-3.591,2.696-5.476,2.723c-15.271,0.22-30.545,0.07-45.818,0.158c-4.31,0.025-6.27-2.064-6.515-6.133
		c-0.085-1.401-0.062-2.812-0.062-4.219c-0.003-40.193-0.008-80.389,0.001-120.581c0.002-9.712,0.547-10.236,10.202-10.251
		c13.21-0.02,13.21-0.02,13.21,13.271c0,32.959,0,65.917,0,98.876C441.903,162.051,441.903,164.437,441.903,167.898z"/>
	<path fill="#F8F1DE" d="M157.372,118.73c-0.001,20.525,0.024,41.054-0.015,61.581c-0.013,7.292-1.108,8.309-8.417,8.363
		c-14.801,0.114-14.802,0.114-14.802-14.794c0-38.839-0.008-77.68,0.006-116.519c0.003-9.193,0.686-9.83,10.025-9.844
		c13.204-0.019,13.205-0.019,13.205,13.254C157.374,80.092,157.374,99.412,157.372,118.73z"/>
	<path fill="#F4770F" d="M773.967,202.051c-6.576-0.036-7.742-1.578-6.128-7.615c12.905-48.271,25.855-96.529,38.794-144.791
		c0.884-3.295,1.247-6.886,2.854-9.782c1.271-2.293,3.853-4.856,6.251-5.345c7.213-1.473,9.235,1.107,7.307,8.284
		c-13.59,50.579-27.213,101.15-40.787,151.733C780.979,199.302,778.856,202.792,773.967,202.051z"/>
</g>
<rect id="Rectangle_1_" x="44.575" y="242.685" fill="#F47821" width="125.059" height="11.115"/>
</svg>
