<?xml version="1.0" encoding="utf-8"?>
<!-- Generator: Adobe Illustrator 16.0.0, SVG Export Plug-In . SVG Version: 6.00 Build 0)  -->
<!DOCTYPE svg PUBLIC "-//W3C//DTD SVG 1.1//EN" "http://www.w3.org/Graphics/SVG/1.1/DTD/svg11.dtd">
<svg version="1.1" id="Warstwa_1" xmlns="http://www.w3.org/2000/svg" xmlns:xlink="http://www.w3.org/1999/xlink" x="0px" y="0px"
	 width="362px" height="241px" viewBox="0 0 362 241" enable-background="new 0 0 362 241" xml:space="preserve">
<path fill-rule="evenodd" clip-rule="evenodd" fill="#F8F1DE" d="M206.567,72.903c-1.225,7.261-2.451,14.522-3.674,21.784
	c-3.288,19.526-6.622,39.045-9.826,58.584c-0.755,4.604-3.241,6.696-7.81,6.552c-1.332-0.043-2.666-0.004-4-0.005
	c-8.413-0.007-9.488-0.755-10.878-8.897c-7.136-41.823-14.218-83.657-21.271-125.496c-1.265-7.503,0.047-8.958,7.557-9.014
	c13.795-0.102,13.604-0.076,15.424,13.713c3.287,24.903,6.829,49.774,11.117,74.89c0.326-1.219,0.769-2.421,0.957-3.661
	c3.941-25.829,7.824-51.666,11.791-77.49c0.917-5.97,2.639-7.338,8.565-7.451c12.668-0.24,12.813-0.169,14.749,12.508
	c3.641,23.853,7.21,47.716,10.827,71.573c0.221,1.457,0.586,2.891,1.909,4.447c0.57-3.56,1.218-7.11,1.698-10.682
	c3.15-23.422,6.226-46.855,9.416-70.271c0.855-6.289,2.4-7.456,8.902-7.573c14.835-0.268,14.828-0.269,12.387,14.157
	c-6.859,40.518-13.691,81.04-20.588,121.55c-1.102,6.477-2.7,7.662-9.376,7.697c-1,0.006-2,0.002-3,0.001
	c-7.862-0.012-9.228-1.047-10.521-8.77c-3.791-22.655-7.483-45.327-11.245-67.987c-0.562-3.388-1.29-6.748-1.94-10.121
	C207.349,72.927,206.958,72.915,206.567,72.903z"/>
<path fill-rule="evenodd" clip-rule="evenodd" fill="#F8F1DE" d="M346.894,87.971c0,12.665-0.229,25.334,0.05,37.993
	c0.515,23.407-16.317,39.252-42.675,35.57c-18.105-2.527-28.838-14.733-29.113-33.113c-0.406-26.989-0.445-53.994,0.004-80.981
	c0.316-18.932,11.969-30.712,31.387-33.239c17.791-2.315,34.104,7.264,38.654,22.978c1.049,3.625,1.151,7.524,1.67,11.3
	c0.067,0.491,0.023,0.999,0.023,1.499C346.894,62.641,346.894,75.306,346.894,87.971z M322.987,88.031c0.014,0,0.027,0,0.041,0
	c0-13.155,0-26.311-0.002-39.465c-0.001-0.5-0.025-0.999-0.053-1.498c-0.426-7.719-4.113-11.708-11.159-12.074
	c-7.492-0.388-11.703,3.189-12.764,10.954c-0.225,1.641-0.212,3.322-0.212,4.985c-0.014,24.645-0.043,49.29,0.033,73.935
	c0.01,2.968,0.281,6.025,1.033,8.882c1.176,4.47,4.361,6.894,9.048,7.253c9.289,0.711,13.848-3.148,13.984-12.51
	C323.135,115.009,322.987,101.519,322.987,88.031z"/>
<path fill-rule="evenodd" clip-rule="evenodd" fill="#F8F1DE" d="M24.904,87.906c0-21.145-0.01-42.289,0.006-63.433
	c0.005-6.462,1.459-8.049,7.873-8.028c11.482,0.037,22.988-0.157,34.441,0.494c15.678,0.892,24.662,8.413,28.127,23.569
	c3.196,13.985,3.176,28.054-1.275,41.906c-3.885,12.083-12.811,17.803-24.797,19.304c-4.767,0.597-9.65,0.586-14.461,0.385
	c-4.393-0.184-6.154,1.027-6.05,5.856c0.317,14.645,0.136,29.3,0.104,43.95c-0.014,6.298-1.638,7.848-8.013,7.909
	c-17.221,0.168-16.02,0.684-15.969-15.971C24.948,125.2,24.904,106.553,24.904,87.906z M74.359,59.549
	c-0.158-0.022-0.316-0.044-0.476-0.066c0-1.495,0.044-2.991-0.007-4.484c-0.552-16.012-4.279-19.4-20.248-19.036
	c-3.744,0.085-4.871,1.45-4.805,5.048c0.18,9.629,0.06,19.264,0.06,28.896c-0.001,13.362-0.005,13.301,13.679,12.165
	c5.104-0.424,8.557-2.859,9.62-7.811C73.223,69.425,73.658,64.458,74.359,59.549z"/>
<path fill-rule="evenodd" clip-rule="evenodd" fill="#F8F1DE" d="M111.825,88.456c0.001-21.329-0.011-42.657,0.007-63.986
	c0.006-6.599,1.326-7.925,7.812-8.056c15.876-0.32,15.876-0.32,15.876,15.629c0,39.491,0.002,78.983-0.002,118.474
	c-0.001,8.07-1.214,9.22-9.186,9.316c-15.307,0.181-14.59,0.238-14.527-14.39C111.887,126.448,111.825,107.452,111.825,88.456z"/>
<rect id="Rectangle_1_" x="22.26" y="214.743" fill="#F47821" width="125.059" height="11.116"/>
</svg>
