<?xml version="1.0" encoding="utf-8"?>
<!-- Generator: Adobe Illustrator 16.0.0, SVG Export Plug-In . SVG Version: 6.00 Build 0)  -->
<!DOCTYPE svg PUBLIC "-//W3C//DTD SVG 1.1//EN" "http://www.w3.org/Graphics/SVG/1.1/DTD/svg11.dtd">
<svg version="1.1" id="Warstwa_1" xmlns="http://www.w3.org/2000/svg" xmlns:xlink="http://www.w3.org/1999/xlink" x="0px" y="0px"
	 width="858px" height="241px" viewBox="0 0 858 241" enable-background="new 0 0 858 241" xml:space="preserve">
<rect id="Rectangle_3_" x="14.26" y="218.77" fill="#F47821" width="125.059" height="11.116"/>
<g>
	<path fill-rule="evenodd" clip-rule="evenodd" fill="#F8F1DE" d="M527.494,62.409c-5.81,31.016-11.616,62.029-17.428,93.041
		c-1.201,6.404-3.161,8.166-8.973,8.102c-5.658-0.064-7.662-2.08-8.789-8.393c-5.368-30.027-10.781-60.047-16.209-90.064
		c-0.181-0.99-0.684-1.924-1.938-2.826c0,2.342,0,4.686,0,7.029c0,28.445,0.006,56.891-0.007,85.336
		c-0.003,7.758-1.153,8.889-8.868,8.92c-1.589,0.006-3.181,0.037-4.769-0.01c-5.498-0.164-7.167-1.803-7.192-7.457
		c-0.061-13.072-0.015-26.146-0.015-39.221c0-29.152-0.006-58.305,0.005-87.455c0.002-8.254,1.194-9.422,9.535-9.449
		c4.946-0.016,9.898,0.137,14.839-0.037c5.434-0.193,8.023,2.467,8.959,7.621c4.664,25.68,9.435,51.342,14.19,77.008
		c0.118,0.645,0.474,1.242,1.3,3.332c2.451-12.453,4.67-23.486,6.788-34.539c2.951-15.41,5.926-30.814,8.677-46.258
		c0.924-5.182,3.841-7.189,8.786-7.139c5.831,0.059,11.661,0.035,17.491,0.021c4.135-0.012,6.12,2.209,6.433,6.146
		c0.098,1.23,0.044,2.473,0.044,3.709c0.001,41.344,0.014,82.686-0.022,124.027c-0.003,3.438,0.861,8.273-3.493,8.955
		c-5.183,0.811-10.75,0.09-15.962-0.936c-1.112-0.221-1.984-4.59-1.994-7.053c-0.138-28.797-0.089-57.596-0.089-86.393
		c0-2.035,0-4.068,0-6.102C528.359,62.354,527.927,62.382,527.494,62.409z"/>
	<path fill-rule="evenodd" clip-rule="evenodd" fill="#F8F1DE" d="M301.244,79.024c0,24.906,0.002,49.812,0,74.719
		c-0.002,9.119-0.713,9.807-10.06,9.812c-1.413,0-2.829-0.045-4.241,0.002c-4.852,0.166-7.076-2.029-7.029-7.008
		c0.125-13.783,0.038-27.568,0.038-41.352c0-28.807-0.006-57.611,0.005-86.416c0.004-7.662,1.145-8.766,8.95-8.822
		c1.414-0.01,2.831,0.068,4.24-0.012c5.515-0.314,8.716,2.051,10.586,7.443c7.854,22.658,16.027,45.209,24.089,67.795
		c0.583,1.635,1.22,3.248,3.024,4.877c0.097-1.707,0.274-3.414,0.276-5.123c0.02-22.088,0.002-44.178,0.02-66.268
		c0.006-7.24,1.424-8.635,8.661-8.713c12.581-0.135,12.581-0.135,12.581,12.537c0,40.293,0.031,80.584-0.049,120.875
		c-0.009,3.945,1.654,9.582-4.728,9.977c-10.21,0.629-14.073,1.412-17.159-7.01c-3.762-10.264-7.379-20.578-11.095-30.857
		c-5.217-14.43-10.46-28.852-15.708-43.27c-0.406-1.117-0.938-2.191-1.412-3.283C301.904,78.96,301.574,78.991,301.244,79.024z"/>
	<path fill-rule="evenodd" clip-rule="evenodd" fill="#F8F1DE" d="M108.194,91.454c0-21.012-0.017-42.025,0.01-63.037
		c0.008-6.916,1.479-8.404,8.37-8.443c9.183-0.053,18.418-0.609,27.529,0.188c6.876,0.6,14.035,2.008,20.279,4.811
		c8.425,3.783,11.92,12.262,12.645,20.816c0.945,11.172,0.848,22.52,0.076,33.713c-0.551,7.973-4.534,14.844-12,18.873
		c-3.535,1.906-3.103,4.578-2.187,7.666c4.962,16.721,9.9,33.449,14.771,50.199c1.635,5.621,0.475,7.145-5.169,7.314
		c-15.526,0.465-15.578,0.48-19.723-14.486c-3.714-13.414-7.436-26.828-10.855-40.316c-0.993-3.92-2.946-5.152-6.726-4.779
		c-4.25,0.42-3.188,3.566-3.2,5.982c-0.077,15.184-0.013,30.371-0.053,45.555c-0.019,6.689-1.386,7.98-8.112,8.045
		c-16.49,0.16-15.757,0.723-15.677-15.418C108.267,129.241,108.194,110.349,108.194,91.454z M131.982,61.911
		c0,6.18-0.099,12.363,0.078,18.539c0.039,1.379,0.661,3.381,1.678,3.992c6.458,3.879,18.916-1.301,20.116-8.693
		c1.036-6.393,1.337-13.002,1.111-19.484c-0.459-13.273-4.952-16.992-18.27-16.506c-3.339,0.121-4.838,1.219-4.753,4.672
		C132.086,50.255,131.982,56.085,131.982,61.911z"/>
	<path fill-rule="evenodd" clip-rule="evenodd" fill="#F8F1DE" d="M227.736,19.958c0.176,0,0.352,0,0.529,0
		c13.576,0,13.5,0.188,15.745,13.279c6.321,36.855,12.87,73.674,19.313,110.51c0.791,4.521,1.502,9.055,2.222,13.586
		c0.629,3.963-1.013,6.098-5.101,6.205c-0.176,0.006-0.354,0.004-0.529,0.012c-16.06,0.814-15.896,0.582-18.276-15.385
		c-2.54-17.066,1.28-14.207-16.034-14.42c-9.611-0.119-9.634-0.025-11.21,9.545c-0.746,4.525-1.375,9.072-2.086,13.605
		c-0.702,4.463-2.996,6.994-7.858,6.689c-2.815-0.178-5.652,0.029-8.478-0.047c-5.413-0.146-6.985-1.898-6.062-7.305
		c2.788-16.346,5.73-32.664,8.592-48.998c4.502-25.711,8.913-51.439,13.519-77.135c1.747-9.744,2.473-10.139,12.534-10.143
		C225.616,19.958,226.677,19.958,227.736,19.958z M228.727,59.147c-0.535-0.053-1.068-0.105-1.604-0.158
		c-2.665,17.861-5.331,35.725-8.08,54.145c5.232,0,9.105-0.143,12.964,0.043c3.311,0.16,4.384-1.023,3.887-4.354
		C233.425,92.276,231.102,75.708,228.727,59.147z"/>
	<path fill-rule="evenodd" clip-rule="evenodd" fill="#F8F1DE" d="M610.063,126.782c-0.147-12.494-0.147-12.494,12.603-12.455
		c8.246,0.025,9.159,1.125,9.412,9.561c0.137,4.541,0.356,9.217,1.557,13.551c1.504,5.43,5.99,7.619,12.587,7.334
		c5.822-0.25,9.288-2.799,10.713-8.41c2.183-8.59-0.636-16.189-5.913-22.707c-4.538-5.602-9.807-10.629-14.922-15.74
		c-8.385-8.377-16.88-16.639-21.574-27.863c-4.254-10.176-4.91-20.576-1.485-31.062c4.972-15.225,20.753-23.92,37.766-21.043
		c18.11,3.066,26.838,14.139,27.898,35.402c0.597,11.961,0.267,12.314-11.493,12.312c-1.235,0-2.478-0.08-3.708,0.012
		c-4.88,0.363-7.054-1.545-6.942-6.74c0.094-4.354-0.484-8.822-1.484-13.07c-1.18-5.002-4.61-7.699-10.066-7.498
		c-5.4,0.199-9.109,2.754-10.544,7.924c-1.823,6.572-0.581,12.898,3.58,18.045c5.974,7.391,12.695,14.174,18.985,21.314
		c5.361,6.084,11.127,11.918,15.718,18.553c8.218,11.881,9.811,25.225,5.51,38.938c-4.921,15.684-20.423,24.727-37.594,22.533
		c-17.645-2.258-29.426-14.766-30.583-32.531C609.943,131.028,610.063,128.901,610.063,126.782z"/>
	<path fill-rule="evenodd" clip-rule="evenodd" fill="#F8F1DE" d="M368.604,127.271c-0.025-12.988-0.025-12.988,12.844-12.943
		c8.052,0.029,8.946,1.102,9.219,9.225c0.152,4.551,0.401,9.232,1.604,13.58c1.662,6.016,6.191,8.219,13.374,7.611
		c5.646-0.477,9.344-3.826,10.305-9.627c1.29-7.803-0.882-14.9-5.834-20.781c-5.446-6.467-11.677-12.264-17.375-18.525
		c-5.219-5.736-10.71-11.332-15.146-17.646c-8.439-12.014-10.073-25.562-5.747-39.424c5.17-16.568,21.152-22.955,37.335-20.762
		c15.98,2.168,24.514,11.162,27.165,27.283c0.199,1.219,0.446,2.439,0.526,3.67c1.291,19.41,1.17,16.551-16.716,16.678
		c-3.304,0.025-4.475-1.785-4.72-5.023c-0.394-5.242-0.848-10.557-2.11-15.635c-1.213-4.881-5.084-6.822-10.161-6.572
		c-5.033,0.246-8.262,2.572-9.783,7.371c-2.15,6.775-0.822,13.223,3.277,18.574c5.13,6.697,11.191,12.678,16.752,19.053
		c6.253,7.17,13.009,14.008,18.438,21.766c7.453,10.65,9.164,22.859,5.825,35.471c-4.517,17.068-18.932,26.635-37.347,25.139
		c-17.266-1.404-29.656-13.674-31.327-31.072C368.766,132.22,368.731,129.739,368.604,127.271z"/>
	<path fill-rule="evenodd" clip-rule="evenodd" fill="#F8F1DE" d="M777.49,91.46c0-20.84-0.011-41.68,0.006-62.52
		c0.005-7.568,1.382-8.959,8.933-8.973c14.657-0.027,29.316-0.037,43.975,0.006c6.961,0.02,8.377,1.49,8.422,8.357
		c0.081,12.516,0.081,12.516-12.486,12.516c-6.713,0-13.428,0.146-20.132-0.059c-3.584-0.109-5.156,1.031-5.1,4.787
		c0.145,9.713,0.118,19.428,0.009,29.141c-0.038,3.438,1.365,4.693,4.757,4.586c5.468-0.174,10.947,0.012,16.422-0.047
		c4.399-0.047,6.478,2.125,6.601,6.434c0.441,15.383-1.091,13.574-12.634,13.512c-3.531-0.02-7.07,0.129-10.593-0.037
		c-3.146-0.15-4.545,1.084-4.529,4.266c0.057,11.48,0.067,22.959-0.009,34.439c-0.022,3.43,1.471,4.629,4.835,4.578
		c9.181-0.141,18.367,0.074,27.548-0.094c4.712-0.084,6.631,1.861,6.778,6.568c0.462,14.637,0.563,14.635-14.259,14.635
		c-13.246,0-26.492,0.012-39.737-0.006c-7.535-0.01-8.803-1.326-8.805-9.041C777.488,133.493,777.49,112.478,777.49,91.46z"/>
	<path fill-rule="evenodd" clip-rule="evenodd" fill="#F8F1DE" d="M734.374,79.347c0-16.961-0.024-33.924,0.013-50.885
		c0.014-7.064,1.364-8.383,8.32-8.502c15.158-0.26,15.158-0.26,15.158,14.945c-0.002,30.918,0.268,61.84-0.202,92.752
		c-0.11,7.207-1.503,14.93-4.455,21.441c-5.714,12.609-20.083,18.801-34.3,16.42c-14.434-2.414-25.199-12.053-27.038-25.98
		c-1.333-10.09-1.142-20.416-1.125-30.635c0.009-5.143,2.704-5.91,14.771-5.637c4.408,0.102,7.672,1.043,7.542,6.461
		c-0.148,6.18-0.088,12.367,0.006,18.549c0.037,2.461,0.246,4.941,0.66,7.363c1.082,6.324,4.498,9.242,10.341,9.066
		c5.545-0.168,9.379-3.609,9.842-9.729c0.49-6.506,0.417-13.057,0.451-19.59C734.418,103.374,734.374,91.36,734.374,79.347z"/>
	<path fill-rule="evenodd" clip-rule="evenodd" fill="#F8F1DE" d="M48.398,100.946c0-17.842-0.146-35.686,0.094-53.523
		c0.065-4.867-1.385-6.688-6.341-6.236c-4.376,0.396-8.824,0.092-13.237-0.01c-3.614-0.082-5.269-1.973-5.527-5.658
		c-1.052-14.99-0.584-15.561,14.465-15.561c16.958,0,33.917-0.018,50.873,0.012c6.596,0.012,8.057,1.518,8.132,8.096
		c0.151,13.209,0.151,13.209-12.995,13.209c-11.755,0-11.755,0-11.755,11.824c0,33.738,0.001,67.479-0.001,101.219
		c0,7.99-1.214,9.215-9.113,9.238c-14.594,0.041-14.594,0.041-14.594-14.385C48.398,133.095,48.398,117.021,48.398,100.946z"/>
	<path fill-rule="evenodd" clip-rule="evenodd" fill="#F8F1DE" d="M593.731,91.614c0,21.01,0.012,42.018-0.005,63.025
		c-0.006,7.502-1.427,8.883-8.974,8.916c-14.82,0.064-14.82,0.064-14.82-14.66c0-39.721-0.003-79.443,0.003-119.164
		c0.001-8.668,1.087-9.744,9.719-9.771c14.077-0.049,14.077-0.049,14.079,13.926C593.733,53.13,593.733,72.372,593.731,91.614z"/>
</g>
</svg>
