<?xml version="1.0" encoding="UTF-8" standalone="no"?>
<svg width="35px" height="30px" viewBox="0 0 35 30" version="1.1" xmlns="http://www.w3.org/2000/svg" xmlns:xlink="http://www.w3.org/1999/xlink">
    <!-- Generator: Sketch 50.2 (55047) - http://www.bohemiancoding.com/sketch -->
    <title>Group 12</title>
    <desc>Created with Sketch.</desc>
    <defs></defs>
    <g id="Page-1" stroke="none" stroke-width="1" fill="none" fill-rule="evenodd">
        <g id="Desktop-HD-Copy-91" transform="translate(-1325.000000, -26.000000)">
            <g id="Group-12" transform="translate(1325.000000, 26.000000)">
                <path d="M13.3615787,0 L4.88541732,3.77697178 C3.46066531,4.83063872 2.27337196,6.93121043 1.32353728,10.0786869 C-0.101214738,14.7999016 -0.751443361,18.9051454 1.32353728,22.2099957 C3.39851792,25.514846 5.32694204,30 15.2278555,30 C21.8284644,30 26.8460156,29.1857749 30.2805089,27.5573246 L35,17.4786377 L32.150496,6.92782935 C31.2355634,5.56617692 28.565081,4.07112559 24.1390486,2.44267536 C19.7130162,0.814225118 16.1205262,0 13.3615787,0 Z" id="Path-6" fill="#FFFFFF"></path>
                <g id="Group-4" transform="translate(13.000000, 7.000000)" fill="#35153F">
                    <g id="Group-3">
                        <path d="M7.48167244,8.49287038 L5.2039797,8.49287038 L5.2039797,16.6111335 L1.82945299,16.6111335 L1.82945299,8.49287038 L0.224522678,8.49287038 L0.224522678,5.6236204 L1.82945299,5.6236204 L1.82945299,3.76774349 C1.82945299,2.43857246 2.4610489,0.361636993 5.23555949,0.361636993 L7.73600258,0.371223717 L7.73600258,3.15644888 L5.92072827,3.15644888 C5.62523161,3.15644888 5.20510755,3.30419721 5.20510755,3.93804882 L5.20510755,5.62418432 L7.77660517,5.62418432 L7.48167244,8.49287038 Z" id="Path"></path>
                    </g>
                </g>
            </g>
        </g>
    </g>
</svg>