<?xml version="1.0" encoding="UTF-8" standalone="no"?>
<svg width="127px" height="39px" viewBox="0 0 127 39" version="1.1" xmlns="http://www.w3.org/2000/svg" xmlns:xlink="http://www.w3.org/1999/xlink">
    <!-- Generator: Sketch 50.2 (55047) - http://www.bohemiancoding.com/sketch -->
    <title>Group 3</title>
    <desc>Created with Sketch.</desc>
    <defs></defs>
    <g id="Page-1" stroke="none" stroke-width="1" fill="none" fill-rule="evenodd">
        <g id="Desktop-HD-Copy-91" transform="translate(-187.000000, -19.000000)">
            <g id="Group-3" transform="translate(187.000000, 19.000000)">
                <path d="M49.6665368,32.7336672 L47.4769483,32.2699499 L48.0538939,34.6051753 L46.0606271,33.5178631 L46.0345845,35.9362827 L44.3858824,34.3063996 L43.758187,36.6271564 L42.5769177,34.5755147 L41.3949807,36.6271564 L40.7692886,34.3063996 L39.1199188,35.9362827 L39.0945438,33.5178631 L37.1006093,34.6051753 L37.6782226,32.2699499 L35.4879664,32.7336672 L36.6244957,30.6538119 L34.4008514,30.4613801 L36.0141621,28.7902615 L33.9193957,27.9547023 L35.888623,26.8160267 L34.0809939,25.3995548 L36.2605659,24.880857 L34.8722907,22.9869226 L37.1006093,23.124374 L36.235191,20.8962159 L38.3466515,21.6789649 L38.0681951,19.2793545 L39.9058735,20.6502504 L40.2357475,18.2600445 L41.6640884,20.117084 L42.5769177,17.9113523 L43.4904148,20.117084 L44.9187557,18.2600445 L45.2486297,20.6502504 L47.0863081,19.2793545 L46.8085195,21.6789649 L48.91998,20.8962159 L48.0545616,23.124374 L50.2822125,22.9869226 L48.894605,24.880857 L51.0735094,25.3995548 L49.2658802,26.8160267 L51.2357753,27.9547023 L49.1410089,28.7902615 L50.7543196,30.4613801 L48.5300075,30.6538119 L49.6665368,32.7336672 Z M40.9996661,13 C34.3721377,13 29,18.8199777 29,25.9992766 C29,33.1800223 34.3721377,39 40.9996661,39 C47.6265268,39 53,33.1800223 53,25.9992766 C53,18.8199777 47.6265268,13 40.9996661,13 Z" id="Fill-1" fill="#FEFEFE"></path>
                <path d="M49.6665368,32.7336672 L47.4769483,32.2699499 L48.0538939,34.6051753 L46.0606271,33.5178631 L46.0345845,35.9362827 L44.3858824,34.3063996 L43.758187,36.6271564 L42.5769177,34.5755147 L41.3949807,36.6271564 L40.7692886,34.3063996 L39.1199188,35.9362827 L39.0945438,33.5178631 L37.1006093,34.6051753 L37.6782226,32.2699499 L35.4879664,32.7336672 L36.6244957,30.6538119 L34.4008514,30.4613801 L36.0141621,28.7902615 L33.9193957,27.9547023 L35.888623,26.8160267 L34.0809939,25.3995548 L36.2605659,24.880857 L34.8722907,22.9869226 L37.1006093,23.124374 L36.235191,20.8962159 L38.3466515,21.6789649 L38.0681951,19.2793545 L39.9058735,20.6502504 L40.2357475,18.2600445 L41.6640884,20.117084 L42.5769177,17.9113523 L43.4904148,20.117084 L44.9187557,18.2600445 L45.2486297,20.6502504 L47.0863081,19.2793545 L46.8085195,21.6789649 L48.91998,20.8962159 L48.0545616,23.124374 L50.2822125,22.9869226 L48.894605,24.880857 L51.0735094,25.3995548 L49.2658802,26.8160267 L51.2357753,27.9547023 L49.1410089,28.7902615 L50.7543196,30.4613801 L48.5300075,30.6538119 L49.6665368,32.7336672 Z M40.9996661,13 C34.3721377,13 29,18.8199777 29,25.9992766 C29,33.1800223 34.3721377,39 40.9996661,39 C47.6265268,39 53,33.1800223 53,25.9992766 C53,18.8199777 47.6265268,13 40.9996661,13 Z" id="Stroke-3"></path>
                <path d="M45.0362297,30.7295287 C44.0424153,30.7295287 43.2365243,29.8229013 43.2365243,28.7048601 C43.2365243,27.5868189 44.0424153,26.6808542 45.0362297,26.6808542 C46.0300442,26.6808542 46.8353461,27.5868189 46.8353461,28.7048601 C46.8353461,29.8229013 46.0300442,30.7295287 45.0362297,30.7295287 M43.9994109,23 C41.7902798,23 40,25.0140648 40,27.4993373 C40,29.9846097 41.7902798,32 43.9994109,32 C46.2097202,32 48,29.9846097 48,27.4993373 C48,25.0140648 46.2097202,23 43.9994109,23" id="Fill-5" fill="#FEFEFE"></path>
                <path d="M45.0362297,30.7295287 C44.0424153,30.7295287 43.2365243,29.8229013 43.2365243,28.7048601 C43.2365243,27.5868189 44.0424153,26.6808542 45.0362297,26.6808542 C46.0300442,26.6808542 46.8353461,27.5868189 46.8353461,28.7048601 C46.8353461,29.8229013 46.0300442,30.7295287 45.0362297,30.7295287 Z M43.9994109,23 C41.7902798,23 40,25.0140648 40,27.4993373 C40,29.9846097 41.7902798,32 43.9994109,32 C46.2097202,32 48,29.9846097 48,27.4993373 C48,25.0140648 46.2097202,23 43.9994109,23 Z" id="Stroke-7"></path>
                <path d="M7.95670701,24.8114339 L7.59596046,24.8114339 L7.59596046,22.0705915 L17,22.0705915 L17,24.8114339 C15.5135504,24.851979 14.9108573,25.3023971 14.9108573,26.8158316 L14.9108573,36.3866646 L12.5392023,36.3866646 L11.6148798,34.013676 C10.5297426,35.9369837 8.72093915,37 6.55066473,37 C1.80807909,37 0,32.5009787 0,23.2567173 C0,12.9899845 2.05002557,8 7.19392364,8 C9.40403954,8 11.0129112,8.77772694 12.177007,10.4142708 L13.061488,8 L14.9108573,8 L14.9108573,18.8800681 L12.177007,18.8800681 L12.177007,17.9401612 C12.177007,13.563512 10.9317794,11.3541778 8.3993097,11.3541778 C5.22430544,11.3541778 5.02364922,15.5266275 5.02364922,24.9743512 C5.02364922,30.946262 5.18373956,33.7276494 7.55611897,33.7276494 C9.20338333,33.7276494 10.0871399,32.4596965 10.0871399,29.9650728 L10.0871399,26.8158316 C10.0871399,25.3429421 9.56557866,24.8114339 7.95670701,24.8114339" id="Fill-9" fill="#FEFEFE"></path>
                <path d="M7.95670701,24.8114339 L7.59596046,24.8114339 L7.59596046,22.0705915 L17,22.0705915 L17,24.8114339 C15.5135504,24.851979 14.9108573,25.3023971 14.9108573,26.8158316 L14.9108573,36.3866646 L12.5392023,36.3866646 L11.6148798,34.013676 C10.5297426,35.9369837 8.72093915,37 6.55066473,37 C1.80807909,37 0,32.5009787 0,23.2567173 C0,12.9899845 2.05002557,8 7.19392364,8 C9.40403954,8 11.0129112,8.77772694 12.177007,10.4142708 L13.061488,8 L14.9108573,8 L14.9108573,18.8800681 L12.177007,18.8800681 L12.177007,17.9401612 C12.177007,13.563512 10.9317794,11.3541778 8.3993097,11.3541778 C5.22430544,11.3541778 5.02364922,15.5266275 5.02364922,24.9743512 C5.02364922,30.946262 5.18373956,33.7276494 7.55611897,33.7276494 C9.20338333,33.7276494 10.0871399,32.4596965 10.0871399,29.9650728 L10.0871399,26.8158316 C10.0871399,25.3429421 9.56557866,24.8114339 7.95670701,24.8114339 Z" id="Stroke-11"></path>
                <path d="M25.9445164,16 C27.7055012,16 29,17.5734584 29,19.6969186 C29,21.8203787 28.1007186,23.0784367 26.735599,23.0784367 C25.6205678,23.0784367 24.9020497,22.1740524 24.9020497,20.7983395 C24.9020497,19.4608998 25.5486512,18.6351885 26.5192013,18.6351885 C26.6986689,18.6351885 26.9144187,18.6734618 27.1301685,18.7131527 C26.9863353,18.084478 26.5192013,17.7704951 25.9082342,17.7704951 C24.3267169,17.7704951 23.5719166,19.4608998 23.5719166,22.8424179 L23.5719166,32.9097168 C23.5719166,34.4045023 23.7513841,34.6412299 25.4054659,34.6412299 L25.4054659,37 L18,37 L18,34.6412299 C19.4733184,34.6412299 19.652786,34.3258294 19.652786,32.9097168 L19.652786,20.6799757 C19.652786,19.2638631 19.4733184,18.9888623 18,18.9888623 L18,16.5904013 L22.780834,16.5904013 L22.780834,18.4381518 C23.5,16.8654021 24.5781011,16 25.9445164,16" id="Fill-13" fill="#FEFEFE"></path>
                <path d="M25.9445164,16 C27.7055012,16 29,17.5734584 29,19.6969186 C29,21.8203787 28.1007186,23.0784367 26.735599,23.0784367 C25.6205678,23.0784367 24.9020497,22.1740524 24.9020497,20.7983395 C24.9020497,19.4608998 25.5486512,18.6351885 26.5192013,18.6351885 C26.6986689,18.6351885 26.9144187,18.6734618 27.1301685,18.7131527 C26.9863353,18.084478 26.5192013,17.7704951 25.9082342,17.7704951 C24.3267169,17.7704951 23.5719166,19.4608998 23.5719166,22.8424179 L23.5719166,32.9097168 C23.5719166,34.4045023 23.7513841,34.6412299 25.4054659,34.6412299 L25.4054659,37 L18,37 L18,34.6412299 C19.4733184,34.6412299 19.652786,34.3258294 19.652786,32.9097168 L19.652786,20.6799757 C19.652786,19.2638631 19.4733184,18.9888623 18,18.9888623 L18,16.5904013 L22.780834,16.5904013 L22.780834,18.4381518 C23.5,16.8654021 24.5781011,16 25.9445164,16 Z" id="Stroke-15"></path>
                <path d="M54,17.4504825 L54,15.058638 C55.9417886,14.9406008 56.7778616,13.3714829 57.2127884,10 L59.0200573,10 L59.0200573,15.058638 L61.3967727,15.058638 L61.3967727,17.4504825 L59.0200573,17.4504825 L59.0200573,31.922414 C59.0200573,32.8631779 59.2547127,33.3339133 59.7234203,33.3339133 C60.3930026,33.3339133 60.6270547,32.1959494 60.6270547,29.7645236 L60.6270547,29.294495 L62,29.294495 L62,31.1371483 C62,34.4704635 61.0957623,36 58.8197859,36 C56.3435379,36 55.372342,34.275384 55.372342,30.5886639 L55.372342,17.4504825 L54,17.4504825 Z" id="Fill-17" fill="#FEFEFE"></path>
                <path d="M54,17.4504825 L54,15.058638 C55.9417886,14.9406008 56.7778616,13.3714829 57.2127884,10 L59.0200573,10 L59.0200573,15.058638 L61.3967727,15.058638 L61.3967727,17.4504825 L59.0200573,17.4504825 L59.0200573,31.922414 C59.0200573,32.8631779 59.2547127,33.3339133 59.7234203,33.3339133 C60.3930026,33.3339133 60.6270547,32.1959494 60.6270547,29.7645236 L60.6270547,29.294495 L62,29.294495 L62,31.1371483 C62,34.4704635 61.0957623,36 58.8197859,36 C56.3435379,36 55.372342,34.275384 55.372342,30.5886639 L55.372342,17.4504825 L54,17.4504825 Z" id="Stroke-19"></path>
                <path d="M71.4617151,24.5077454 L71.4617151,22.1318204 C71.4617151,19.6405525 71.1112961,18.375925 69.7102514,18.375925 C68.4481116,18.375925 67.9581564,19.6018747 67.9581564,22.2084854 L67.9581564,24.5077454 L71.4617151,24.5077454 Z M67.9581564,27.9942773 C67.9581564,32.2868278 68.4481116,34.4327578 70.3410056,34.4327578 C71.9516703,34.4327578 72.5483297,32.5934879 72.5483297,28.7609275 L74.9652738,28.7609275 C74.9652738,29.0675876 75,29.3742477 75,29.6429206 C75,34.54741 73.2826312,37 69.9198714,37 C65.4004133,37 64,33.7047854 64,26.6536754 C64,19.5259003 65.7868213,16 69.8497876,16 C71.8121341,16 73.3533463,17.1112975 74.299162,19.2572274 C74.9652738,20.7525407 75,22.4771584 75,24.5837198 L75,26.8829798 L67.9581564,26.8829798 L67.9581564,27.9942773 Z" id="Fill-21" fill="#FEFEFE"></path>
                <path d="M71.4617151,24.5077454 L71.4617151,22.1318204 C71.4617151,19.6405525 71.1112961,18.375925 69.7102514,18.375925 C68.4481116,18.375925 67.9581564,19.6018747 67.9581564,22.2084854 L67.9581564,24.5077454 L71.4617151,24.5077454 Z M67.9581564,27.9942773 C67.9581564,32.2868278 68.4481116,34.4327578 70.3410056,34.4327578 C71.9516703,34.4327578 72.5483297,32.5934879 72.5483297,28.7609275 L74.9652738,28.7609275 C74.9652738,29.0675876 75,29.3742477 75,29.6429206 C75,34.54741 73.2826312,37 69.9198714,37 C65.4004133,37 64,33.7047854 64,26.6536754 C64,19.5259003 65.7868213,16 69.8497876,16 C71.8121341,16 73.3533463,17.1112975 74.299162,19.2572274 C74.9652738,20.7525407 75,22.4771584 75,24.5837198 L75,26.8829798 L67.9581564,26.8829798 L67.9581564,27.9942773 Z" id="Stroke-23"></path>
                <path d="M79.1068515,28.5703009 L81.2362037,28.5703009 C81.9457745,32.6321658 83.2958144,34.7014307 85.389976,34.7014307 C86.7035457,34.7014307 87.5909891,33.6667982 87.5909891,32.3255057 C87.5909891,30.9842131 86.740016,30.0262457 85.0355105,28.9902319 C83.1896028,27.8796251 81.8753932,27.1896399 81.2010131,26.6156882 C79.6391895,25.273705 79,24.1244203 79,21.8638382 C79,18.29926 80.9527593,16 83.8281525,16 C85.2831245,16 86.4546521,16.575333 87.6620101,17.8392699 L88.4074114,16.5366552 L90.0767262,16.5366552 L90.0767262,23.4724223 L88.0171154,23.4724223 C87.5909891,20.0625555 86.1001866,18.222595 84.4315116,18.222595 C83.1185817,18.222595 82.2656891,19.1805624 82.2656891,20.5598421 C82.2656891,21.8638382 82.9758998,22.6677849 84.4315116,23.5490873 C86.2774194,24.621707 87.5909891,25.273705 88.2653692,25.8103601 C90.1119168,27.2669956 91,28.5703009 91,31.0222003 C91,34.7014307 88.8693682,37 85.6382298,37 C84.0405758,37 82.7634764,36.3873705 81.7327113,35.0847558 L80.9885897,36.4253577 L79.1068515,36.4253577 L79.1068515,28.5703009 Z" id="Fill-25" fill="#FEFEFE"></path>
                <path d="M79.1068515,28.5703009 L81.2362037,28.5703009 C81.9457745,32.6321658 83.2958144,34.7014307 85.389976,34.7014307 C86.7035457,34.7014307 87.5909891,33.6667982 87.5909891,32.3255057 C87.5909891,30.9842131 86.740016,30.0262457 85.0355105,28.9902319 C83.1896028,27.8796251 81.8753932,27.1896399 81.2010131,26.6156882 C79.6391895,25.273705 79,24.1244203 79,21.8638382 C79,18.29926 80.9527593,16 83.8281525,16 C85.2831245,16 86.4546521,16.575333 87.6620101,17.8392699 L88.4074114,16.5366552 L90.0767262,16.5366552 L90.0767262,23.4724223 L88.0171154,23.4724223 C87.5909891,20.0625555 86.1001866,18.222595 84.4315116,18.222595 C83.1185817,18.222595 82.2656891,19.1805624 82.2656891,20.5598421 C82.2656891,21.8638382 82.9758998,22.6677849 84.4315116,23.5490873 C86.2774194,24.621707 87.5909891,25.273705 88.2653692,25.8103601 C90.1119168,27.2669956 91,28.5703009 91,31.0222003 C91,34.7014307 88.8693682,37 85.6382298,37 C84.0405758,37 82.7634764,36.3873705 81.7327113,35.0847558 L80.9885897,36.4253577 L79.1068515,36.4253577 L79.1068515,28.5703009 Z" id="Stroke-27"></path>
                <path d="M103.049831,19.282004 C103.15707,19.0733709 103.263667,18.737449 103.263667,18.4459652 C103.263667,17.944342 103.01387,17.8599849 102.337686,17.8599849 L101.838735,17.8599849 L101.838735,15.3119497 L108.287213,15.3119497 L108.287213,17.8599849 C106.897598,17.8599849 106.434608,18.3616082 105.757139,19.4492117 L103.584742,23.0848505 L107.39655,33.1979067 C107.717625,34.0753708 108.145297,34.4512116 109,34.4933901 L109,37 L102.408322,37 L102.408322,34.4933901 L102.514919,34.4933901 C103.049831,34.4933901 103.334946,34.2004 103.334946,33.6995299 C103.334946,33.5737475 103.298985,33.3643612 103.192388,33.0721243 L101.196584,27.0963302 L99.523781,29.8545048 L99.523781,32.6541049 C99.523781,34.1167961 99.6650542,34.4512116 101.01935,34.4933901 L101.01935,37 L94,37 L94,34.4933901 C95.460893,34.4933901 95.6394109,34.1589746 95.6394109,32.6541049 L95.6394109,12.3451419 C95.6394109,10.8410254 95.460893,10.5480352 94,10.5480352 L94,8 L99.523781,8 L99.523781,25.8008467 L103.049831,19.282004 Z" id="Fill-29" fill="#FEFEFE"></path>
                <path d="M103.049831,19.282004 C103.15707,19.0733709 103.263667,18.737449 103.263667,18.4459652 C103.263667,17.944342 103.01387,17.8599849 102.337686,17.8599849 L101.838735,17.8599849 L101.838735,15.3119497 L108.287213,15.3119497 L108.287213,17.8599849 C106.897598,17.8599849 106.434608,18.3616082 105.757139,19.4492117 L103.584742,23.0848505 L107.39655,33.1979067 C107.717625,34.0753708 108.145297,34.4512116 109,34.4933901 L109,37 L102.408322,37 L102.408322,34.4933901 L102.514919,34.4933901 C103.049831,34.4933901 103.334946,34.2004 103.334946,33.6995299 C103.334946,33.5737475 103.298985,33.3643612 103.192388,33.0721243 L101.196584,27.0963302 L99.523781,29.8545048 L99.523781,32.6541049 C99.523781,34.1167961 99.6650542,34.4512116 101.01935,34.4933901 L101.01935,37 L94,37 L94,34.4933901 C95.460893,34.4933901 95.6394109,34.1589746 95.6394109,32.6541049 L95.6394109,12.3451419 C95.6394109,10.8410254 95.460893,10.5480352 94,10.5480352 L94,8 L99.523781,8 L99.523781,25.8008467 L103.049831,19.282004 Z" id="Stroke-31"></path>
                <path d="M115.992603,31.5302518 C115.992603,32.678113 116.851379,33.6343193 117.97041,33.6343193 C119.612643,33.6343193 120.283793,32.2568859 120.283793,29.388267 L120.283793,26.0598142 C118.193679,28.3548472 115.992603,29.120088 115.992603,31.5302518 M116.254203,37 C113.642233,37 112,35.0875874 112,31.9507895 C112,30.2293424 112.485541,28.8912051 113.455952,27.9722268 C114.836584,26.6720068 116.36651,26.1370277 117.560188,25.448311 C119.537323,24.3011392 120.470074,23.229802 120.470074,21.4704376 C120.470074,19.4428942 119.351042,18.1799022 117.523874,18.1799022 C116.178884,18.1799022 115.172831,18.8693083 114.761937,20.0171695 C115.022865,19.939956 115.284465,19.939956 115.507734,19.939956 C116.664425,19.939956 117.297915,20.6665901 117.297915,22.0433341 C117.297915,23.3056367 116.441157,24.1474016 115.098184,24.1474016 C113.492939,24.1474016 112.485541,23.0760645 112.485541,21.2787827 C112.485541,18.3329503 114.798924,16 118.455279,16 C122.411567,16 124.314055,18.1040675 124.314055,22.3501198 L124.314055,33.5957126 C124.314055,34.2079052 124.351715,34.5519188 124.874243,34.5519188 C125.432414,34.5519188 125.582381,33.8252848 125.582381,32.3334099 C125.582381,31.9507895 125.544721,31.5688585 125.544721,31.1097141 L127,31.1097141 L127,32.4092446 C127,35.5460425 126.067249,37 123.792199,37 C122.036987,37 120.954943,36.1582351 120.470074,34.3988707 C119.388702,36.1968419 118.120377,37 116.254203,37" id="Fill-33" fill="#FEFEFE"></path>
                <path d="M115.992603,31.5302518 C115.992603,32.678113 116.851379,33.6343193 117.97041,33.6343193 C119.612643,33.6343193 120.283793,32.2568859 120.283793,29.388267 L120.283793,26.0598142 C118.193679,28.3548472 115.992603,29.120088 115.992603,31.5302518 Z M116.254203,37 C113.642233,37 112,35.0875874 112,31.9507895 C112,30.2293424 112.485541,28.8912051 113.455952,27.9722268 C114.836584,26.6720068 116.36651,26.1370277 117.560188,25.448311 C119.537323,24.3011392 120.470074,23.229802 120.470074,21.4704376 C120.470074,19.4428942 119.351042,18.1799022 117.523874,18.1799022 C116.178884,18.1799022 115.172831,18.8693083 114.761937,20.0171695 C115.022865,19.939956 115.284465,19.939956 115.507734,19.939956 C116.664425,19.939956 117.297915,20.6665901 117.297915,22.0433341 C117.297915,23.3056367 116.441157,24.1474016 115.098184,24.1474016 C113.492939,24.1474016 112.485541,23.0760645 112.485541,21.2787827 C112.485541,18.3329503 114.798924,16 118.455279,16 C122.411567,16 124.314055,18.1040675 124.314055,22.3501198 L124.314055,33.5957126 C124.314055,34.2079052 124.351715,34.5519188 124.874243,34.5519188 C125.432414,34.5519188 125.582381,33.8252848 125.582381,32.3334099 C125.582381,31.9507895 125.544721,31.5688585 125.544721,31.1097141 L127,31.1097141 L127,32.4092446 C127,35.5460425 126.067249,37 123.792199,37 C122.036987,37 120.954943,36.1582351 120.470074,34.3988707 C119.388702,36.1968419 118.120377,37 116.254203,37 Z" id="Stroke-35"></path>
                <polygon id="Fill-37" fill="#FEFEFE" points="20.0722419 7 20.0722419 1.49373377 18 1.49373377 18 0 24 0 24 1.49373377 21.9277581 1.49373377 21.9277581 7"></polygon>
                <polygon id="Fill-41" fill="#FEFEFE" points="26 7 26 0 30 0 30 1.41549057 27.4405063 1.41549057 27.4405063 2.73297956 29.835443 2.73297956 29.835443 4.14926047 27.4405063 4.14926047 27.4405063 5.58450943 30 5.58450943 30 7"></polygon>
                <path d="M34.6798817,4.16822852 L36.3463511,4.16822852 L35.5131164,1.9552896 L34.6798817,4.16822852 Z M37.4115385,7 L36.8696252,5.55526702 L34.1552268,5.55526702 L33.6146943,7 L32,7 L34.8607495,0 L36.1316568,0 L39,7 L37.4115385,7 Z" id="Fill-45" fill="#FEFEFE"></path>
                <polygon id="Fill-49" fill="#FEFEFE" points="42.071999 7 42.071999 1.49373377 40 1.49373377 40 0 46 0 46 1.49373377 43.9287865 1.49373377 43.9287865 7"></polygon>
                <path d="M51.7615894,2.71875353 C51.9353331,2.59625155 52.0233736,2.40736141 52.0233736,2.15287343 C52.0233736,1.88415942 51.9368913,1.69052727 51.7662641,1.5727673 C51.5948578,1.454217 51.3112583,1.39573219 50.9170238,1.39573219 L49.7740553,1.39573219 L49.7740553,2.89974032 L50.9170238,2.89974032 C51.3058044,2.89974032 51.5862875,2.83967483 51.7615894,2.71875353 Z M54,7 L52.071679,7 L51.1795871,4.67009145 C51.0759642,4.40849046 50.8344371,4.2772948 50.4526685,4.2772948 L49.7935333,4.2772948 L49.7935333,7 L48,7 L48,0 L51.2084145,0 C52.0420725,0 52.6684846,0.18098679 53.0899883,0.545331376 C53.5083755,0.908885627 53.7195169,1.42813594 53.7195169,2.10387264 C53.7195169,2.57570283 53.5956369,2.98351586 53.3455395,3.32731173 C53.0977795,3.67268827 52.7471757,3.91690189 52.2945072,4.05995258 C52.488508,4.09946935 52.6622517,4.19193858 52.8172965,4.33577961 C52.9731204,4.48041097 53.0962213,4.67404313 53.18582,4.9150954 L54,7 Z" id="Fill-53" fill="#FEFEFE"></path>
            </g>
        </g>
    </g>
</svg>