<?xml version="1.0" encoding="UTF-8" standalone="no"?>
<svg width="59px" height="71px" viewBox="0 0 59 71" version="1.1" xmlns="http://www.w3.org/2000/svg" xmlns:xlink="http://www.w3.org/1999/xlink">
    <!-- Generator: Sketch 50.2 (55047) - http://www.bohemiancoding.com/sketch -->
    <title>logo-krk</title>
    <desc>Created with Sketch.</desc>
    <defs>
        <polygon id="path-1" points="0.38581049 0.0833121387 7.06683846 0.0833121387 7.06683846 12.0363468 0.38581049 12.0363468"></polygon>
        <polygon id="path-3" points="0.108799301 0.0833121387 6.79023986 0.0833121387 6.79023986 12.0363468 0.108799301 12.0363468"></polygon>
        <polygon id="path-5" points="0 0.353071098 58.6233077 0.353071098 58.6233077 14.7745665 0 14.7745665"></polygon>
    </defs>
    <g id="Page-1" stroke="none" stroke-width="1" fill="none" fill-rule="evenodd">
        <g id="Desktop-HD-Copy-91" transform="translate(-1035.000000, -2447.000000)">
            <g id="logo-krk" transform="translate(1035.000000, 2447.000000)">
                <g id="Group-21">
                    <path d="M39.4458322,11.3716965 L39.4458322,1.04304335 C39.4582098,0.681066474 39.7606364,0.397887283 40.1233007,0.403222543 C43.6657762,0.616632948 46.883958,0.926898844 49.6350909,1.31267919 L49.644993,1.31473121 C49.9024476,1.34551156 50.1165804,1.52444798 50.1974476,1.76822832 L50.1986853,1.76781792 L50.2007483,1.77889884 C50.2094126,1.80516474 50.2151888,1.83184104 50.2197273,1.85933815 L50.2250909,1.8815 C50.2354056,1.9525 50.2481958,2.03376012 50.2622238,2.12774277 C50.600958,4.41574855 50.9533077,8.02813006 51.1393846,11.3048006 C51.1393846,11.3048006 51.1806434,12.0361416 50.4445874,12.0361416 L42.4094476,12.0361416 L40.1138112,12.0361416 C39.744958,12.0361416 39.4458322,11.7385983 39.4458322,11.3716965 Z M39.4474825,0.998309249 L39.4458322,1.04304335 L39.4458322,1.02211272 L39.4466573,0.998309249 L39.4474825,0.998309249 Z" id="Fill-1" fill="#FEFEFE"></path>
                    <path d="M18.0655937,44.2980491 L18.0655937,44.2972283 L18.0655937,44.2988699 L18.0655937,44.2980491 M18.0655937,44.2947659 L18.0655937,33.3033092 L18.0655937,33.9677543 C18.0655937,33.6008526 17.7664678,33.3033092 17.3976147,33.3033092 L15.1019783,33.3033092 L7.06683846,33.3033092 C6.33036993,33.3033092 6.37204126,34.0346503 6.37204126,34.0346503 C6.55811818,37.3113208 6.91046783,40.9237023 7.2492021,43.2121185 C7.26364266,43.3073324 7.27602028,43.3894133 7.28674755,43.4616445 L7.29128601,43.4817543 C7.29623706,43.508841 7.30201329,43.5359277 7.31026503,43.5617832 L7.31274056,43.5728642 L7.31397832,43.5728642 C7.39360769,43.8141821 7.60526503,43.9914769 7.85983147,44.0247197 C10.6155028,44.4117312 13.8415238,44.7228179 17.3926636,44.9370491 C17.7545028,44.9395116 18.0540413,44.655922 18.0655937,44.2947659" id="Fill-3" fill="#FEFEFE"></path>
                    <g id="Group-7" transform="translate(29.706294, 0.000000)">
                        <mask id="mask-2" fill="white">
                            <use xlink:href="#path-1"></use>
                        </mask>
                        <g id="Clip-6"></g>
                        <path d="M0.38581049,11.3037746 C0.38581049,11.3037746 0.38581049,12.0363468 1.12186643,12.0363468 L6.32995734,12.0363468 C6.32995734,12.0363468 7.06683846,12.0363468 7.06683846,11.3037746 L7.06683846,9.21768786 L7.06683846,0.96650289 C7.06683846,0.96650289 7.06683846,0.233930636 6.33078252,0.203971098 C4.92385944,0.146514451 2.68681049,0.0935722543 1.12186643,0.0833121387 C1.12186643,0.0833121387 0.38581049,0.0787976879 0.38581049,0.811369942 L0.38581049,9.37364162 L0.38581049,11.3037746" id="Fill-5" fill="#FEFEFE" mask="url(#mask-2)"></path>
                    </g>
                    <path d="M28.7556098,44.5332931 L28.7556098,33.5245994 L28.7556098,33.9678364 C28.7556098,33.6009347 28.4564839,33.3033913 28.0876308,33.3033913 L28.5328126,33.3033913 L28.0876308,33.3033913 L21.4746797,33.3033913 C21.4746797,33.3033913 20.7382112,33.3033913 20.7382112,34.0359636 L20.7382112,36.1220503 L20.7382112,44.3728249 C20.7382112,44.3728249 20.7382112,45.1062179 21.4738545,45.1357671 C23.2941902,45.2100503 25.981372,45.2658653 28.0191413,45.2658653 C28.0191413,45.2658653 28.7556098,45.2658653 28.7556098,44.5332931" id="Fill-8" fill="#FEFEFE"></path>
                    <g id="Group-12" transform="translate(20.629371, 0.000000)">
                        <mask id="mask-4" fill="white">
                            <use xlink:href="#path-3"></use>
                        </mask>
                        <g id="Clip-11"></g>
                        <path d="M0.108799301,11.3037746 C0.108799301,11.3037746 0.108799301,12.0363468 0.845267832,12.0363468 L6.05335874,12.0363468 C6.05335874,12.0363468 6.79023986,12.0363468 6.79023986,11.3037746 L6.79023986,0.810959538 C6.79023986,0.810959538 6.79023986,0.0783872832 6.05377133,0.0833121387 C4.4880021,0.0931618497 2.2526035,0.146924855 0.844855245,0.204381503 C0.844855245,0.204381503 0.108799301,0.23434104 0.108799301,0.966913295 L0.108799301,9.21768786 L0.108799301,11.3037746" id="Fill-10" fill="#FEFEFE" mask="url(#mask-4)"></path>
                    </g>
                    <path d="M15.2319021,30.6450775 L17.3290839,30.6450775 C17.3290839,30.6450775 18.0655524,30.6450775 18.0655524,29.9125052 L18.0655524,24.7315572 C18.0655524,24.7315572 18.0655524,23.998985 17.3290839,23.998985 L6.78046154,23.998985 C6.78046154,23.998985 6.04399301,23.998985 6.04853147,24.7315572 C6.05884615,26.2890428 6.11248252,28.512615 6.17024476,29.9129156 C6.17024476,29.9129156 6.20077622,30.6450775 6.93724476,30.6450775 L15.2319021,30.6450775" id="Fill-13" fill="#FEFEFE"></path>
                    <path d="M6.04898531,20.6080168 C6.04898531,20.6080168 6.04403427,21.340589 6.7805028,21.340589 L17.3291252,21.340589 C17.3291252,21.340589 18.0655937,21.340589 18.0655937,20.6080168 L18.0655937,15.4274792 C18.0655937,15.4274792 18.0655937,14.6944965 17.3291252,14.6944965 L15.2319434,14.6944965 L6.93687343,14.6944965 C6.93687343,14.6944965 6.2004049,14.6944965 6.17028601,15.4266584 C6.11252378,16.8265486 6.0593,19.051352 6.04898531,20.6080168" id="Fill-15" fill="#FEFEFE"></path>
                    <path d="M18.0655937,11.3716965 L18.0655937,1.04304335 C18.0528035,0.681066474 17.7507895,0.397887283 17.3881252,0.403222543 C13.8456497,0.616632948 10.6270552,0.926898844 7.87592238,1.31267919 L7.86643287,1.31473121 C7.60897832,1.34551156 7.39443287,1.52444798 7.31397832,1.76822832 L7.31274056,1.76781792 L7.31026503,1.77889884 C7.30201329,1.80516474 7.29623706,1.83184104 7.29128601,1.85933815 L7.28633497,1.8815 C7.27560769,1.9525 7.26323007,2.03376012 7.2492021,2.12774277 C6.91046783,4.41574855 6.55811818,8.02813006 6.37204126,11.3048006 C6.37204126,11.3048006 6.33036993,12.0361416 7.06683846,12.0361416 L15.1019783,12.0361416 L17.3976147,12.0361416 C17.7664678,12.0361416 18.0655937,11.7385983 18.0655937,11.3716965 Z M18.0639434,0.998309249 L18.0655937,1.04304335 L18.0655937,1.02211272 L18.0647685,0.998309249 L18.0639434,0.998309249 Z" id="Fill-17" fill="#FEFEFE"></path>
                    <path d="M39.4458322,30.6909607 C39.4458322,30.6909607 39.4458322,31.4235329 39.9665175,31.9414636 C39.9665175,31.9414636 39.4458322,31.4235329 49.8591259,41.7821457 C49.8591259,41.7821457 50.3802238,42.3000763 50.4734685,41.5732497 C50.9801259,37.625978 51.3691958,31.7621168 51.4446993,26.0607757 C51.4446993,26.0607757 51.4541888,25.3282035 50.7177203,25.3282035 L40.0391329,25.3282035 C40.0391329,25.3282035 39.4458322,25.3282035 39.4458322,25.9187757 L39.4458322,26.657504 L39.4458322,28.6512497 L39.4458322,29.8287006 L39.4458322,30.6909607" id="Fill-19" fill="#FEFEFE"></path>
                    <path d="M51.4708986,22.0167717 C51.4626469,19.4927832 51.4098357,17.0939682 51.3413462,15.4269046 C51.3413462,15.4269046 51.3108147,14.6947428 50.5743462,14.6947428 L40.1820944,14.6947428 C40.1820944,14.6947428 39.4456259,14.6947428 39.4456259,15.427315 L39.4456259,20.0115347 L39.4456259,21.9371532 C39.4456259,21.9371532 39.4456259,22.6697254 40.1820944,22.6697254 L50.8037448,22.6697254 C51.1688846,22.6697254 51.4642972,22.3783382 51.4708986,22.0167717" id="Fill-21" fill="#FEFEFE"></path>
                    <path d="M47.9695168,43.6615936 C40.7954469,36.5258884 38.5637615,34.3060098 37.8697895,33.6152988 C37.6490552,33.4043509 37.3982021,33.2890272 37.1832441,33.3038017 L37.1832441,33.3033913 L32.1645308,33.3033913 C32.1645308,33.3033913 31.4280622,33.3033913 31.4280622,34.0359636 L31.4280622,44.5156457 C31.4280622,44.5156457 31.4280622,45.2482179 32.1645308,45.2387786 C37.8966077,45.1636746 43.7904189,44.7762526 47.7595098,44.2722757 C47.7595098,44.2722757 48.4902021,44.1795243 47.9695168,43.6615936" id="Fill-23" fill="#FEFEFE"></path>
                    <g id="Group-27" transform="translate(0.000000, 56.225434)">
                        <mask id="mask-6" fill="white">
                            <use xlink:href="#path-5"></use>
                        </mask>
                        <g id="Clip-26"></g>
                        <path d="M9.93011259,14.5292676 C9.55383287,13.9214584 9.13918252,13.3099555 8.68657413,12.6959902 C8.23396573,12.0816145 7.76072797,11.4914526 7.26686084,10.923863 C6.77299371,10.3566838 6.27004965,9.82438902 5.75885385,9.32738902 C5.24724545,8.83038902 4.74471399,8.39453931 4.25043427,8.02025029 C4.69726643,7.58768382 5.15276294,7.13131387 5.61774895,6.65155087 C6.08190979,6.17219827 6.5435951,5.68956243 7.00239231,5.20405376 C7.46077692,4.71895549 7.90760909,4.23631965 8.34247622,3.75655665 C8.77775594,3.27720405 9.18910559,2.81549884 9.57735035,2.37062023 L6.9140986,2.37062023 C6.60795874,2.71002486 6.26716154,3.09005954 5.89088182,3.51113468 C5.5146021,3.93220983 5.11769301,4.36805954 4.70056713,4.81827341 C4.28302867,5.26889769 3.8626021,5.7133659 3.43928741,6.15167803 C3.01597273,6.59040058 2.6103993,7.00244682 2.22215455,7.38863757 L2.22215455,2.37062023 L-4.12587413e-05,2.37062023 L-4.12587413e-05,14.5292676 L2.22215455,14.5292676 L2.22215455,9.07293815 C2.68095175,9.38853931 3.14511259,9.76323873 3.61546224,10.1958052 C4.08581189,10.6283717 4.54172098,11.0847416 4.98277692,11.5640942 C5.42342028,12.0438572 5.84384685,12.5408572 6.24364406,13.0555046 C6.64344126,13.570152 6.9962035,14.0614064 7.30193077,14.5292676 L9.93011259,14.5292676 Z M16.4770497,5.47615202 C16.3714273,5.44085723 16.2303224,5.4031 16.053735,5.36205954 C15.8775601,5.32142948 15.6947839,5.28654509 15.5070566,5.25699595 C15.3189168,5.22785723 15.1303643,5.20405376 14.9426371,5.18681676 C14.7544972,5.16916936 14.5898748,5.16014046 14.4487699,5.16014046 C13.6962105,5.16014046 13.0113154,5.22785723 12.3940846,5.36205954 C11.7764413,5.49667225 11.2619448,5.63990347 10.8505951,5.79175318 L10.8505951,14.5292676 L12.9849098,14.5292676 L12.9849098,7.1781 C13.0905322,7.1428052 13.2757839,7.10217514 13.5402524,7.05497861 C13.8051336,7.00860289 14.054749,6.98479942 14.2899238,6.98479942 C14.7012734,6.98479942 15.0631126,7.01722139 15.3746161,7.08206532 C15.6861196,7.14608844 15.9303713,7.20723873 16.1065462,7.26551618 L16.4770497,5.47615202 Z M19.5075042,12.748522 C19.1898119,12.5556318 19.0309657,12.2076087 19.0309657,11.7044526 C19.0309657,11.4475393 19.0899657,11.2337185 19.2075531,11.0642214 C19.324728,10.8951347 19.480686,10.7629844 19.6750147,10.6694121 C19.8689308,10.5758399 20.0863643,10.5114064 20.327728,10.476522 C20.5682664,10.4412272 20.8063294,10.4235798 21.0419168,10.4235798 C21.3121615,10.4235798 21.5593014,10.4412272 21.7825112,10.476522 C22.005721,10.5114064 22.1765322,10.5467012 22.2941196,10.5815855 L22.2941196,12.9327936 C21.9529098,13.0029728 21.4532664,13.0378572 20.7947769,13.0378572 C20.2538748,13.0378572 19.8247839,12.9414121 19.5075042,12.748522 Z M18.9604133,5.26561445 C18.4430287,5.35918671 18.0490077,5.45275896 17.7787629,5.54633121 L18.0432315,7.26551618 C18.3019238,7.17235434 18.6369448,7.09027341 19.048707,7.02009422 C19.4600566,6.94991503 19.9130776,6.91503064 20.4069448,6.91503064 C20.7712594,6.91503064 21.0740986,6.96222717 21.3150497,7.05497861 C21.5560007,7.14896127 21.7503294,7.28070116 21.8972105,7.44978786 C22.0440916,7.61969538 22.1468259,7.81545838 22.2058259,8.03748728 C22.2648259,8.25992659 22.2941196,8.49385723 22.2941196,8.7401 L22.2941196,9.09017514 C21.9999448,9.01999595 21.7235112,8.9707474 21.4652315,8.94119827 C21.2065392,8.91205954 20.9593993,8.89728497 20.7242245,8.89728497 C20.2188049,8.89728497 19.7336021,8.94735434 19.2690287,9.04667225 C18.8044552,9.14599017 18.3959937,9.30974162 18.0432315,9.53792659 C17.6904692,9.76611156 17.4111476,10.0611925 17.205679,10.4235798 C16.9997979,10.7863775 16.8970636,11.2308457 16.8970636,11.7569844 C16.8970636,12.3069266 16.9878329,12.7690422 17.1701965,13.1433312 C17.3525601,13.5176202 17.6050636,13.8217301 17.9289448,14.0556607 C18.2520007,14.2895913 18.6431336,14.4590884 19.1015182,14.564152 C19.5603154,14.669626 20.065735,14.7221578 20.6186021,14.7221578 C21.4532664,14.7221578 22.2029378,14.6724988 22.8676161,14.5731809 C23.5314692,14.473863 24.0286371,14.3889092 24.3578818,14.3187301 L24.3578818,8.75733699 C24.3578818,8.21929653 24.2959937,7.72475896 24.1726301,7.27454509 C24.0492664,6.82433121 23.8433853,6.44101329 23.5553993,6.12541214 C23.2670007,5.80940058 22.8820566,5.56397861 22.4001545,5.38873584 C21.9178399,5.21308266 21.3241266,5.12525607 20.6186021,5.12525607 C20.0302524,5.12525607 19.4777979,5.1720422 18.9604133,5.26561445 Z M28.9384273,0.914504624 L26.8041126,1.26540058 L26.8041126,14.5292676 L28.9384273,14.5292676 L28.9384273,10.3185162 C29.255707,10.5528572 29.5791755,10.8360364 29.9084203,11.169285 C30.237665,11.5029439 30.5611336,11.8567127 30.8780007,12.2310017 C31.1961056,12.6057012 31.4927559,12.9914815 31.7691895,13.3887532 C32.0456231,13.7864353 32.2894622,14.1668803 32.5011196,14.5292676 L34.9704552,14.5292676 C34.7596231,14.1315855 34.4955671,13.6994295 34.1782874,13.2311578 C33.8618329,12.7632965 33.5214483,12.2954353 33.1579587,11.827574 C32.7940566,11.3597127 32.4186021,10.9181173 32.0315951,10.5027879 C31.6441755,10.0878688 31.2744972,9.7336896 30.9225601,9.4414815 C31.5798119,8.77498439 32.2337629,8.09083988 32.8848259,7.38863757 C33.5354762,6.68684566 34.1547699,6.00844682 34.7414692,5.35344104 L32.2184972,5.35344104 C32.0307699,5.57546994 31.804672,5.83566647 31.5402035,6.13403064 C31.2753224,6.4323948 30.9960007,6.74225029 30.7022385,7.06441792 C30.4080636,7.38576474 30.1081126,7.70752197 29.8027979,8.02886879 C29.496658,8.35062601 29.208672,8.65186301 28.9384273,8.93257977 L28.9384273,0.914504624 Z M43.9343294,7.9586896 C43.7164832,7.36811734 43.4140566,6.86208844 43.0258119,6.44101329 C42.6379797,6.01993815 42.1705182,5.69530809 41.6234273,5.46753353 C41.076749,5.23934855 40.479735,5.12525607 39.8332105,5.12525607 C39.186686,5.12525607 38.5925601,5.23934855 38.0520706,5.46753353 C37.5107559,5.69530809 37.043707,6.01993815 36.649686,6.44101329 C36.255665,6.86208844 35.9495252,7.36811734 35.7325042,7.9586896 C35.514658,8.54967225 35.4061476,9.20755087 35.4061476,9.93232543 C35.4061476,10.6579208 35.514658,11.3186723 35.7325042,11.9149902 C35.9495252,12.5117185 36.2527769,13.0206202 36.6410217,13.4416954 C37.0288538,13.8627705 37.4934273,14.1902734 38.0343294,14.4237936 C38.5748189,14.6577243 39.174721,14.7746896 39.8332105,14.7746896 C40.4917,14.7746896 41.0944902,14.6577243 41.6411685,14.4237936 C42.1878469,14.1902734 42.6553084,13.8627705 43.0435531,13.4416954 C43.4313853,13.0206202 43.7313364,12.5117185 43.9429937,11.9149902 C44.154651,11.3186723 44.260686,10.6579208 44.260686,9.93232543 C44.260686,9.20755087 44.1517629,8.54967225 43.9343294,7.9586896 Z M41.4823224,12.1259382 C41.0883014,12.6635682 40.538735,12.9327936 39.8332105,12.9327936 C39.127686,12.9327936 38.5781196,12.6635682 38.183686,12.1259382 C37.7900776,11.5878977 37.5932734,10.8565566 37.5932734,9.93232543 C37.5932734,9.01999595 37.7900776,8.29809422 38.183686,7.76620983 C38.5781196,7.23350462 39.127686,6.96756243 39.8332105,6.96756243 C40.538735,6.96756243 41.0883014,7.23350462 41.4823224,7.76620983 C41.8763434,8.29809422 42.0735601,9.01999595 42.0735601,9.93232543 C42.0735601,10.8565566 41.8763434,11.5878977 41.4823224,12.1259382 Z M40.7858748,0.353071098 L38.1931755,3.42330809 L39.2514622,4.37093237 L42.1263713,1.59864913 L40.7858748,0.353071098 Z M52.8717979,11.7660133 C53.1948538,12.7427763 53.5088329,13.6637243 53.8141476,14.5292676 L55.5490776,14.5292676 C55.7962175,13.9912272 56.0495462,13.3772618 56.308651,12.6869613 C56.5677559,11.9970711 56.8268608,11.2599844 57.0863783,10.476522 C57.3454832,9.69305954 57.6045881,8.86814624 57.863693,8.00260289 C58.1227979,7.13705954 58.3761266,6.25427919 58.623679,5.35344104 L56.4183993,5.35344104 C56.3119517,5.84469538 56.1877629,6.37411734 56.0454203,6.94129653 C55.9043154,7.50888613 55.7533084,8.08755665 55.5940497,8.6781289 C55.4343783,9.26870116 55.2718189,9.84490925 55.1063713,10.4063428 C54.9413364,10.9677763 54.781665,11.4824237 54.6281825,11.950285 C54.4520077,11.4122445 54.278721,10.8565566 54.108735,10.2832214 C53.938749,9.71029653 53.7803154,9.13737168 53.6338469,8.56403642 C53.4869657,7.99111156 53.3491615,7.43255087 53.2204343,6.88835434 C53.0912944,6.34456821 52.9741196,5.83361445 52.8684972,5.35344104 L51.2280497,5.35344104 C51.1220147,5.83361445 51.0011266,6.34456821 50.8657979,6.88835434 C50.7300566,7.43255087 50.585651,7.99111156 50.4325811,8.56403642 C50.2790986,9.13737168 50.1169517,9.71029653 49.9461406,10.2832214 C49.7753294,10.8565566 49.6016301,11.4122445 49.4246301,11.950285 C49.2595951,11.4824237 49.093735,10.9677763 48.9282874,10.4063428 C48.7632524,9.84490925 48.6035811,9.26870116 48.449686,8.6781289 C48.2957909,8.08755665 48.1480846,7.50888613 48.0065671,6.94129653 C47.8650497,6.37411734 47.7408608,5.84469538 47.6344133,5.35344104 L45.3759098,5.35344104 C45.6230497,6.25427919 45.8763783,7.13705954 46.1354832,8.00260289 C46.3945881,8.86814624 46.6541056,9.69305954 46.9132105,10.476522 C47.1719028,11.2599844 47.4314203,11.9970711 47.6905252,12.6869613 C47.9496301,13.3772618 48.1971825,13.9912272 48.4327699,14.5292676 L50.1850287,14.5292676 C50.4903434,13.6637243 50.7985462,12.7427763 51.1096371,11.7660133 C51.4211406,10.7896607 51.7120147,9.78622139 51.9822594,8.75733699 C52.2525042,9.78622139 52.548742,10.7896607 52.8717979,11.7660133 Z" id="Fill-25" fill="#FEFEFE" mask="url(#mask-6)"></path>
                    </g>
                </g>
            </g>
        </g>
    </g>
</svg>