<?xml version="1.0" encoding="UTF-8" standalone="no"?>
<svg width="363px" height="227px" viewBox="0 0 363 227" version="1.1" xmlns="http://www.w3.org/2000/svg" xmlns:xlink="http://www.w3.org/1999/xlink">
    <!-- Generator: Sketch 50.2 (55047) - http://www.bohemiancoding.com/sketch -->
    <title>Group 10</title>
    <desc>Created with Sketch.</desc>
    <defs></defs>
    <g id="Page-1" stroke="none" stroke-width="1" fill="none" fill-rule="evenodd">
        <g id="Desktop-HD-Copy-91" transform="translate(-581.000000, -446.000000)">
            <g id="Group-10" transform="translate(578.000000, 446.000000)">
                <g id="materia-logo_bw" transform="translate(8.000000, 0.000000)" fill="#FFFFFF">
                    <path d="M42.0124416,28.8506548 C40.8201737,29.9771673 39.5740232,31.0509395 38.4452273,32.2385196 C35.0565564,35.8040356 31.6729084,39.3764911 28.3764773,43.0285196 C27.3061304,44.2147117 26.7764365,44.0611174 25.7471865,42.9160996 C21.9320207,38.6732883 17.9912809,34.5470605 14.0505411,30.4231459 C13.5304365,29.8795516 12.7390921,29.6024342 12.0737783,29.2017936 C11.8555079,29.9447829 11.451388,30.6877722 11.4481916,31.4321495 C11.4084645,40.7560641 11.3792401,50.0813665 11.4673702,59.4048185 C11.4870054,61.4806548 10.9226074,62.3573452 8.75953852,62.1787687 C6.64350281,62.0043559 4.5009824,62.0783772 2.3739875,62.1579502 C0.62188801,62.2236441 0.00132423469,61.566242 0.00726045918,59.7249609 C0.0670793367,41.5388399 0.0460742347,23.3522562 0.0474441327,5.1656726 C0.0479007653,4.78076157 0.048357398,4.3953879 0.0488140306,4.01001423 C0.0497272959,2.89044128 -0.286810969,1.32396441 1.22509974,1.24115302 C2.41371454,1.17638434 4.03430383,1.6487331 4.80372985,2.49674021 C10.6687196,8.96019217 16.3716048,15.5744626 22.1251763,22.1415445 C23.3183574,23.504 24.5540054,24.8312954 25.6910207,26.2395516 C26.7083982,27.4997651 27.5266839,27.4386975 28.5792222,26.2358505 C33.2802554,20.8614377 38.0374543,15.5369893 42.7713651,10.1917224 C45.1129773,7.54777224 47.3623497,4.81222064 49.8391253,2.30659786 C50.545536,1.59229181 52.0104135,1.10560142 52.9245921,1.33645552 C53.5204977,1.48727402 54.0903753,3.12129537 54.0940283,4.09236299 C54.1625232,22.4330036 54.1456278,40.7736441 54.1442579,59.1142847 C54.1442579,62.0149964 54.0342094,62.1301922 51.2222656,62.1408327 C49.1687885,62.1496228 47.1080054,62.0330391 45.063661,62.1713665 C43.2302809,62.2958149 42.717939,61.557452 42.7307247,59.7864911 C42.7978497,50.4625765 42.7713651,41.1381993 42.7773013,31.8133594 C42.7777579,30.9903345 42.7773013,30.1673096 42.7773013,29.3438221 C42.5225003,29.1795872 42.2672426,29.0148897 42.0124416,28.8506548" id="Fill-1"></path>
                    <path d="M209.33397,129.78247 L209.33397,96.5441068 C209.102457,96.4626833 208.870945,96.3803345 208.639432,96.2984484 C207.446251,97.4818648 206.226128,98.6379858 205.065825,99.8533238 C201.759348,103.315673 198.451501,106.777096 195.201646,110.293573 C194.160524,111.420085 193.44635,111.639836 192.274631,110.348626 C188.656274,106.363502 184.909603,102.497737 181.199919,98.5986619 C180.442822,97.803395 179.629103,97.0636441 178.354184,95.8247117 C178.173358,97.385637 177.988878,98.2428968 177.987508,99.1001566 C177.97107,108.426384 177.937279,117.753537 178.024039,127.07884 C178.043674,129.17642 177.422197,130.016562 175.27922,129.834285 C173.239442,129.66126 171.171809,129.737594 169.120616,129.815779 C167.304131,129.885174 166.582195,129.256456 166.588587,127.274071 C166.648863,108.544819 166.610049,89.8146406 166.64384,71.0849253 C166.64521,70.3396228 167.012343,68.9984484 167.331072,68.9595872 C168.356669,68.8351388 169.746659,68.8277367 170.439371,69.4310107 C172.242613,71.000726 173.777355,72.8947473 175.369633,74.7041068 C181.030965,81.1351744 186.688187,87.5690178 192.302029,94.0417224 C193.257761,95.1432527 193.901156,95.3616157 194.967394,94.1351744 C201.485825,86.6368114 208.062705,79.1911886 214.627256,71.7335374 C215.37659,70.8827544 216.05332,69.8737509 216.982567,69.3047117 C217.732815,68.846242 218.878506,68.6815445 219.719623,68.8989822 C220.15936,69.0132527 220.539279,70.2225765 220.568503,70.9526121 C220.668962,73.4920071 220.603207,76.037879 220.603207,78.5814377 C220.603664,94.6135374 220.605947,110.6461 220.604121,126.677737 C220.603664,129.669587 220.470784,129.79126 217.508608,129.783858 C214.935026,129.777381 212.360988,129.78247 209.33397,129.78247" id="Fill-3"></path>
                    <path d="M237.407061,20.4496014 C237.407061,22.1400641 237.454094,23.8323772 237.393818,25.521452 C237.336739,27.1411317 237.984244,27.9896014 239.629492,27.9803488 C242.360155,27.9660071 245.097668,28.0881423 247.820568,27.9326975 C253.25404,27.6227331 256.119867,22.0785338 253.634872,17.094121 C252.541693,14.9003132 250.846673,13.6419502 248.604607,13.4740142 C245.511377,13.2426975 242.38801,13.4462562 239.279255,13.3879644 C237.849538,13.3611317 237.409801,14.1203132 237.406147,15.3777509 C237.401581,17.0682135 237.405234,18.7591388 237.407061,20.4496014 M267.950306,62.1078932 C264.04564,62.1078932 260.304905,62.3993523 256.655954,61.9381068 C255.49565,61.7909893 254.332607,59.7762206 253.599711,58.3841566 C250.583196,52.6572171 247.7539,46.8298861 244.809533,41.0640854 C243.788502,39.0636584 239.893426,37.8307402 238.163701,39.0474662 C237.649533,39.4087829 237.438112,40.5052242 237.431719,41.2671815 C237.37738,47.3545125 237.33126,53.4441566 237.450441,59.5300996 C237.491081,61.600847 236.752249,62.2758292 234.804255,62.1661851 C232.756714,62.0509893 230.691364,62.0329466 228.646563,62.1721993 C226.686239,62.3049751 226.004487,61.6720925 226.020012,59.5828399 C226.109969,47.0223416 226.064306,34.4609181 226.064762,21.8999573 C226.064762,16.1975374 226.157002,10.4928043 226.020012,4.79316014 C225.96476,2.49294662 226.829622,1.85590036 228.959357,1.8868968 C235.347191,1.98034875 241.743244,1.74486833 248.125142,1.96785765 C254.989701,2.20750178 261.035517,4.37308897 264.375329,11.1094947 C266.094551,14.5778577 266.669451,18.3168612 266.261678,22.2210249 C265.841119,26.2593523 264.769859,30.0200996 261.735992,32.8333737 C260.224994,34.2342278 258.489334,35.4791744 256.665086,36.4141566 C255.035364,37.24921 254.989244,38.1004555 255.771456,39.486968 C259.809002,46.6452954 263.825086,53.8156512 267.836604,60.9892456 C267.936607,61.1687473 267.888204,61.4338363 267.950306,62.1078932" id="Fill-5"></path>
                    <path d="M75.1051579,95.2114448 C78.6244258,95.2114448 81.7560125,94.9653238 84.8364564,95.2651103 C90.4041783,95.8068541 92.7960202,90.9612313 92.024311,86.4625836 C91.6169946,84.0897367 89.1046018,81.4309822 86.9255508,81.3574235 C83.5099385,81.2413025 80.0874768,81.2450036 76.6714079,81.3333665 C76.1398875,81.3467829 75.1850686,82.0666406 75.1736528,82.4806975 C75.0608645,86.6143274 75.1051579,90.752121 75.1051579,95.2114448 M105.51187,129.80995 C101.666566,129.80995 98.2418212,129.937637 94.8380814,129.7239 C93.9481043,129.667922 92.7900839,128.740804 92.3234054,127.892797 C90.0311094,123.72447 87.9438416,119.440947 85.7561145,115.212477 C84.4825661,112.75173 83.1893824,110.299772 81.8404895,107.880662 C81.1966375,106.727317 76.1298416,106.021801 75.4426094,107.032192 C75.0581247,107.59753 75.0531018,108.498278 75.0494487,109.248669 C75.0197676,115.182868 74.9435099,121.119381 75.0768467,127.050804 C75.1266196,129.255253 74.3083339,129.927922 72.284538,129.815964 C70.3127982,129.706783 68.3218798,129.682263 66.3547064,129.828918 C64.3263441,129.980662 63.7276987,129.179381 63.7441375,127.173865 C63.8254181,117.155537 63.7875176,107.135359 63.7879742,97.1161068 C63.7888875,88.7928683 63.8350074,80.4687046 63.7445941,72.1459288 C63.723589,70.2287758 64.2920967,69.6268897 66.1994513,69.6546477 C73.1964334,69.7568897 80.1956987,69.673153 87.1945074,69.7022989 C95.9289768,69.7393096 102.663852,76.0519431 103.732372,84.6694164 C104.546548,91.2318719 103.174824,96.9342918 98.3034666,101.50511 C97.3536707,102.396142 96.1403977,103.071125 94.9444768,103.607317 C92.7046936,104.611231 92.5001222,105.148811 93.7047191,107.317637 C97.5422599,114.226142 101.352403,121.148989 105.14565,128.082477 C105.373967,128.498847 105.359354,129.051694 105.51187,129.80995" id="Fill-7"></path>
                    <path d="M18.0436566,95.4143096 C18.0500495,95.3439893 18.0559857,95.2727438 18.0628352,95.2019609 C19.3519092,95.2019609 20.6555954,95.0770498 21.9286872,95.2250925 C25.8826694,95.6849502 28.1535036,92.2161246 28.5471209,89.2048434 C29.0274985,85.5333843 26.4635061,81.4631352 23.3520112,81.3187936 C19.945075,81.160573 16.526723,81.2683665 13.1138505,81.2295053 C11.8772893,81.2151637 11.3147179,81.7610712 11.3375495,83.0217473 C11.3699704,84.7885445 11.3160878,86.5571922 11.3549015,88.3239893 C11.4014781,90.463669 10.7051133,93.4342384 11.8014883,94.517726 C13.0152179,95.7168719 15.8915469,95.1899324 18.0436566,95.4143096 M0.0454806122,99.5516406 C0.043197449,90.380395 0.0906872449,81.2086868 0.00347040816,72.0383665 C-0.0138816327,70.1956975 0.55462602,69.6470142 2.33229694,69.6659822 C9.71011071,69.7446299 17.0943173,69.5424591 24.4671082,69.7538826 C30.4284474,69.9245943 36.4605648,73.7741673 38.5108454,80.0715338 C39.263376,82.3828505 40.0629398,84.7196121 40.4337255,87.1095765 C41.3479041,92.999363 36.7902536,101.933278 31.3184245,104.452317 C28.6603658,105.676445 25.6105163,106.231605 22.6789347,106.583669 C19.7537459,106.934808 16.7509296,106.741427 13.7896668,106.617441 C11.8658735,106.536943 11.2927995,107.306302 11.3188276,109.180431 C11.4019347,115.190964 11.2795571,121.204274 11.3854959,127.213883 C11.4215699,129.25826 10.757626,129.979505 8.74935561,129.821285 C6.78355204,129.666765 4.79217704,129.719043 2.81952398,129.820359 C0.824952551,129.922601 -0.0266673469,129.299434 0.000730612245,127.065377 C0.113518878,117.89552 0.0477637755,108.723349 0.0454806122,99.5516406" id="Fill-9"></path>
                    <path d="M93.4770421,28.8127189 C92.7628686,29.8402278 92.203037,30.4106548 91.920838,31.0981281 C91.2646569,32.6956014 90.7545982,34.3536797 90.1632589,35.9779858 C89.4093584,38.0482705 88.5970089,40.0977367 87.8773559,42.1800498 C87.1787079,44.2012954 87.7837462,45.0548541 89.8764936,45.0802989 C91.853713,45.1043559 93.831389,45.0895516 95.8086084,45.084 C98.3159783,45.0770605 98.9274094,44.2498719 98.1082105,41.908484 C96.6638814,37.7799431 95.1930676,33.6606548 93.4770421,28.8127189 M93.6199681,0.200690391 C101.835246,20.7642847 109.989335,41.1738221 118.34343,62.0843915 C114.12871,62.0843915 110.2898,62.216242 106.476004,61.9631815 C105.790142,61.9178434 104.927106,60.3744982 104.625728,59.3742847 C103.530723,55.7370605 103.607894,55.7139288 99.8580268,55.7143915 C95.4451288,55.7148541 91.0322309,55.7134662 86.6188763,55.7139288 C82.7964043,55.7143915 82.6087283,55.6625765 81.5908941,59.4001922 C80.970787,61.6777367 79.8278355,62.2675943 77.7022105,62.174605 C74.5464222,62.0358149 71.380588,62.1385196 68.1252538,62.1385196 C70.9869707,52.3163488 92.0199273,1.11346619 93.6199681,0.200690391" id="Fill-11"></path>
                    <path d="M332.949407,29.2455125 C332.649399,29.2691068 332.349391,29.2927011 332.048927,29.3162954 C330.326052,33.9805658 328.560254,38.6295694 326.962953,43.33779 C326.835552,43.7120605 327.849277,44.9694982 328.38582,45.0055836 C331.025613,45.1832349 333.685955,45.1610285 336.333511,45.0569359 C337.64359,45.005121 338.467812,44.4379324 337.764141,42.7974342 C337.049055,41.1287153 336.587399,39.349427 335.977794,37.6321317 C334.984162,34.8308861 333.960848,32.0402811 332.949407,29.2455125 M307.240532,62.1419893 C315.68093,41.0107438 323.867896,20.5114555 332.05532,0.0126298932 C332.327473,0.00892882562 332.599169,0.0043024911 332.871322,0.000138790036 C341.077924,20.5392135 349.284527,41.077363 357.69981,62.1382883 C353.329379,62.1382883 349.728373,62.4325231 346.227828,61.9597117 C345.170266,61.8162954 344.023205,59.6631993 343.577075,58.2211708 C342.987106,56.3128078 342.058771,55.6595694 340.179271,55.6868648 C335.005623,55.7618114 329.829692,55.7571851 324.656044,55.6859395 C322.755539,55.660032 321.820812,56.3165089 321.395687,58.3086085 C320.635851,61.8708861 320.099764,62.1438399 316.421588,62.142452 C313.620603,62.1410641 310.819618,62.1419893 307.240532,62.1419893" id="Fill-13"></path>
                    <path d="M267.865463,112.369548 C269.004305,112.369548 270.143604,112.390829 271.281989,112.364459 C273.45282,112.314957 273.81767,111.733427 273.084318,109.704779 C271.745928,106.003249 270.463703,102.2809 269.100198,98.589548 C268.901106,98.0505801 268.383285,97.6318968 268.012956,97.1576975 C267.628014,97.6411495 267.090101,98.065847 266.883703,98.6177687 C265.535723,102.219833 264.292769,105.861683 262.948899,109.465135 C262.110065,111.714922 262.480851,112.330687 264.904201,112.363996 C265.89144,112.378338 266.878223,112.36631 267.865463,112.369548 M242.76254,129.790011 C243.753433,127.337591 244.631994,125.208089 245.477678,123.064246 C248.465425,115.490011 251.420752,107.902822 254.429961,100.336915 C256.303068,95.627306 258.257456,90.9505445 260.161614,86.2538897 C262.434274,80.6472349 264.680451,75.0290142 266.975943,69.4316121 C267.19604,68.894032 267.680984,68.467484 268.043093,67.9895836 C268.39607,68.5026441 268.85453,68.9708292 269.086042,69.5347794 C272.502111,77.8492278 275.927769,86.1599751 279.269864,94.5049573 C282.165371,101.735918 284.926172,109.022395 287.810264,116.258445 C289.399803,120.24727 291.103956,124.190295 292.791213,128.138872 C293.246476,129.204317 293.037795,129.785847 291.847354,129.791399 C288.577864,129.808053 285.295588,129.960722 282.04893,129.688231 C281.186351,129.615135 280.07856,128.349833 279.690879,127.382466 C277.952022,123.039263 278.031019,123.015669 273.375193,123.028623 C269.573726,123.039263 265.772259,123.030011 261.970792,123.022146 C258.076172,123.014281 257.732785,123.084601 256.654675,126.767164 C255.938218,129.214957 254.726315,130.042146 252.243604,129.846452 C249.234851,129.609584 246.194591,129.790011 242.76254,129.790011" id="Fill-15"></path>
                    <path d="M208.273989,13.4016584 C203.093035,13.4016584 198.163229,13.5048256 193.241185,13.3549324 C191.012818,13.2873879 190.276726,14.0474947 190.416912,16.2598078 C190.576734,18.7918007 190.556185,21.3483132 190.418282,23.8830819 C190.320106,25.6896655 190.917382,26.3442918 192.711948,26.2957153 C196.436244,26.1953238 200.167389,26.3447544 203.889402,26.2142918 C205.645155,26.1532242 206.134665,26.7958221 206.076672,28.4765694 C205.974387,31.4707331 206.048361,34.4704484 206.048361,37.7990961 L190.487234,37.7990961 C190.487234,41.8753594 190.411433,45.6287046 190.58541,49.3700214 C190.606415,49.8289537 191.956678,50.5742562 192.704642,50.5922989 C197.417547,50.707032 202.135933,50.7315516 206.848382,50.6182064 C208.74432,50.5728683 209.407351,51.1826192 209.280864,53.1122633 C209.130175,55.4138648 209.196843,57.7344342 209.262142,60.0439004 C209.303239,61.4914804 208.789984,62.1548968 207.300448,62.1493452 C198.478305,62.1183488 189.656162,62.1044698 180.834019,62.1479573 C178.817073,62.1581352 178.983287,60.8669253 178.984201,59.5151103 C178.99653,41.8698078 178.994703,24.2254306 178.998813,6.58012811 C178.999726,1.90012811 179.002922,1.89827758 183.544134,1.89642705 C190.921035,1.89365125 198.298848,1.94130249 205.675292,1.86034164 C207.614611,1.8390605 208.43381,2.39190747 208.314172,4.49133808 C208.152524,7.32496797 208.273989,10.1752527 208.273989,13.4016584" id="Fill-17"></path>
                    <path d="M123.52137,13.3894911 C123.52137,9.95536299 123.461095,6.95194662 123.57297,3.95454448 C123.594888,3.37162633 124.167505,2.57127046 124.698112,2.30479359 C125.39813,1.95272954 126.307743,1.93607473 127.126942,1.9342242 C138.611709,1.91109253 150.096021,1.95689324 161.580332,1.87408185 C163.641115,1.85974021 164.487712,2.470879 164.387253,4.62906406 C164.256199,7.45159075 164.355289,10.2852206 164.355289,13.3862527 C160.209064,13.3862527 156.352345,13.3844021 152.496082,13.3867153 C149.706513,13.3885658 149.583679,13.5014484 149.582766,16.4155765 C149.578199,30.6707011 149.539842,44.9262883 149.626602,59.1804875 C149.640301,61.4423025 149.103758,62.451306 146.709633,62.1760391 C144.983105,61.9775694 143.215936,62.1418043 141.466577,62.1394911 C138.452345,62.13579 138.356908,62.0529786 138.355539,59.0500249 C138.350972,44.9489573 138.353712,30.8478897 138.354169,16.7468221 C138.354169,13.3871779 138.354625,13.3881032 135.103857,13.3890285 C131.320656,13.3899537 127.537454,13.3894911 123.52137,13.3894911" id="Fill-19"></path>
                    <path d="M293.253143,62.1177936 C289.727939,62.1177936 286.621923,62.2075445 283.529607,62.0372954 C282.95699,62.0058363 282.329577,60.9880427 281.940982,60.301032 C281.712209,59.8966904 281.903995,59.2480783 281.903995,58.709573 C281.905365,40.6960142 281.934589,22.6829181 281.869747,4.66982206 C281.862898,2.61619217 282.675704,1.88754448 284.529176,1.89957295 C286.58037,1.91298932 288.637957,1.99765125 290.681388,1.86718861 C292.678242,1.73950178 293.302459,2.49914591 293.288304,4.52686833 C293.20748,15.8424199 293.251773,27.1584342 293.252686,38.4744484 C293.253599,45.3255872 293.253143,52.176726 293.253143,59.0278648 L293.253143,62.1177936 Z" id="Fill-21"></path>
                    <path d="M139.226154,69.6880036 L139.226154,72.9958327 C139.226154,90.8645872 139.227068,108.732879 139.224784,126.601633 C139.224328,129.811384 139.218392,129.811384 136.06169,129.802594 C134.161185,129.797968 132.256114,129.705441 130.362001,129.813235 C128.636843,129.911776 128.029978,129.073484 128.029522,127.496829 C128.029065,125.494089 128.022216,123.491811 128.022216,121.489534 C128.024499,105.238146 128.025869,88.9872206 128.031805,72.7358327 C128.032718,69.7055836 128.085687,69.6699609 131.097636,69.6852278 C133.673501,69.6986441 136.248453,69.6880036 139.226154,69.6880036" id="Fill-23"></path>
                </g>
                <text id="2019" font-family="Lato-Black, Lato" font-size="120" font-weight="700" line-spacing="71" fill="#F89419">
                    <tspan x="0" y="273">2019</tspan>
                </text>
                <polygon id="Path-2" fill="#FFFFFF" points="99.9570312 22 88 46.6953125 116 46.6953125"></polygon>
                <polygon id="Path-3" fill="#FFFFFF" points="15.1484375 77.0546875 36.5390625 77.0546875 42.5390625 91.5273438 36.5390625 99.21875 15.1484375 99.21875"></polygon>
                <polygon id="Path-4" fill="#FFFFFF" points="244.941406 8.6796875 239.203125 17.984375 239.203125 35.6796875 262.941406 35.6796875 271.941406 17.984375 262.941406 8.6796875"></polygon>
                <path d="M242.328533,150.025961 C239.638429,149.807639 236.909408,150.966326 234.141468,153.502022 C229.989559,157.305566 230,164.913603 230,169.570501 C230,174.227398 235.092591,180.198022 243.955504,180.198022 C252.818416,180.198022 260.985547,180.377426 264.968495,171.112991 C268.951442,161.848556 260.425504,153.642508 255.947062,151.834234 C252.961433,150.628719 248.421923,150.025961 242.328533,150.025961 Z" id="Path-5-Copy-2" fill="#F89419"></path>
            </g>
        </g>
    </g>
</svg>