<?xml version="1.0" encoding="UTF-8" standalone="no"?>
<svg width="205px" height="73px" viewBox="0 0 205 73" version="1.1" xmlns="http://www.w3.org/2000/svg" xmlns:xlink="http://www.w3.org/1999/xlink">
    <!-- Generator: Sketch 50.2 (55047) - http://www.bohemiancoding.com/sketch -->
    <title>materia-logo_bw</title>
    <desc>Created with Sketch.</desc>
    <defs>
        <polygon id="path-1" points="0 72.4895105 204.530142 72.4895105 204.530142 0.288937063 0 0.288937063"></polygon>
    </defs>
    <g id="Page-1" stroke="none" stroke-width="1" fill="none" fill-rule="evenodd">
        <g id="Desktop-HD-Copy-91" transform="translate(-110.000000, -2449.000000)">
            <g id="materia-logo-white" transform="translate(110.000000, 2449.000000)">
                <g id="Group-2">
                    <polygon id="Fill-1" fill="#FEFEFE" points="29.4055814 0.985857343 15.8109561 15.5736056 2.2179199 0.985857343 0 0.985857343 0 34.7133888 6.98959948 34.7133888 6.98959948 16.1770042 15.8109561 25.0967874 24.6333721 16.1770042 24.585168 34.7133888 31.5747674 34.7133888 31.5747674 0.985857343"></polygon>
                    <path d="M53.1693721,0.289345455 L38.6593979,34.7131846 L46.4689974,34.7131846 L47.8187132,31.1361846 L59.243093,31.1361846 L60.6415426,34.7131846 L68.402938,34.7131846 L53.8924341,0.289345455 L53.1693721,0.289345455 Z M53.5550052,16.2702196 L56.6882739,24.9112755 L50.3253282,24.9112755 L53.5550052,16.2702196 Z" id="Fill-2" fill="#FEFEFE"></path>
                    <polygon id="Fill-3" fill="#FEFEFE" points="79.0548863 34.7132867 79.0548863 8.14026573 70.4745504 8.14026573 70.4745504 1.54320979 94.5289432 1.54320979 94.5289432 8.14026573 85.9486072 8.14026573 85.9486072 34.7132867"></polygon>
                    <polygon id="Fill-4" fill="#FEFEFE" points="102.144614 34.7132867 102.144614 1.49726573 119.402224 1.49726573 119.402224 8.14026573 109.038335 8.14026573 109.038335 14.7832657 118.100712 14.7832657 118.100712 21.4267762 109.038335 21.4267762 109.038335 28.0697762 119.980673 28.0697762 119.980673 34.7132867"></polygon>
                    <g id="Group-18">
                        <path d="M135.743266,15.5734014 L141.816987,15.5734014 C146.493318,15.5734014 146.493318,8.14016364 141.816987,8.14016364 L135.743266,8.14016364 L135.743266,15.5734014 Z M146.011276,34.7131846 L139.069351,22.0305832 L135.743266,22.0305832 L135.743266,34.7131846 L128.849545,34.7131846 L128.849545,1.49716364 L142.443641,1.49716364 C154.736225,1.49716364 155.941328,18.1748559 145.81846,21.0085832 L153.820346,34.7131846 L146.011276,34.7131846 Z" id="Fill-5" fill="#FEFEFE"></path>
                        <mask id="mask-2" fill="white">
                            <use xlink:href="#path-1"></use>
                        </mask>
                        <g id="Clip-8"></g>
                        <polygon id="Fill-7" fill="#FEFEFE" mask="url(#mask-2)" points="160.808463 34.7132867 167.702183 34.7132867 167.702183 1.49726573 160.808463 1.49726573"></polygon>
                        <path d="M192.816008,24.9110203 L189.682739,16.2699643 L186.452532,24.9110203 L192.816008,24.9110203 Z M189.296576,0.28909021 L190.020168,0.28909021 L204.530142,34.7134399 L196.769276,34.7134399 L195.370827,31.1359294 L183.946447,31.1359294 L182.596202,34.7134399 L174.787132,34.7134399 L189.296576,0.28909021 Z" id="Fill-9" fill="#FEFEFE" mask="url(#mask-2)"></path>
                        <path d="M12.967177,53.3496252 C17.5947739,53.3496252 17.5947739,45.9163874 12.967177,45.9163874 L6.89345607,45.9163874 L6.89345607,53.3496252 L12.967177,53.3496252 Z M0.000264857881,72.4894084 L0.000264857881,39.319842 L13.5461563,39.319842 C26.9474354,39.319842 26.8992313,59.806807 13.5461563,59.806807 L6.89345607,59.806807 L6.89345607,72.4894084 L0.000264857881,72.4894084 Z" id="Fill-10" fill="#FEFEFE" mask="url(#mask-2)"></path>
                        <path d="M43.1428592,53.3496252 L49.2165801,53.3496252 C53.8929109,53.3496252 53.8929109,45.9163874 49.2165801,45.9163874 L43.1428592,45.9163874 L43.1428592,53.3496252 Z M53.4108695,72.4894084 L46.4689444,59.806807 L43.1428592,59.806807 L43.1428592,72.4894084 L36.2491382,72.4894084 L36.2491382,39.2733874 L49.8432339,39.2733874 C62.1358178,39.2733874 63.3409212,55.9510797 53.218053,58.784807 L61.2199393,72.4894084 L53.4108695,72.4894084 Z" id="Fill-11" fill="#FEFEFE" mask="url(#mask-2)"></path>
                        <polygon id="Fill-12" fill="#FEFEFE" mask="url(#mask-2)" points="72.9805297 72.4895105 79.8742506 72.4895105 79.8742506 39.2734895 72.9805297 39.2734895"></polygon>
                        <polygon id="Fill-13" fill="#FEFEFE" mask="url(#mask-2)" points="124.221948 38.7622853 126.391664 38.7622853 126.391664 72.4893063 119.401535 72.4893063 119.449739 53.9534322 110.628382 62.8727049 101.806496 53.9534322 101.806496 72.4893063 94.8163669 72.4893063 94.8163669 38.7622853 97.0342868 38.7622853 110.628382 53.3495231"></polygon>
                        <path d="M156.277539,62.6874993 L153.14427,54.0459329 L149.914063,62.6874993 L156.277539,62.6874993 Z M152.758107,38.0655692 L153.481699,38.0655692 L167.991673,72.4894084 L160.230278,72.4894084 L158.832358,68.9118979 L147.407978,68.9118979 L146.057733,72.4894084 L138.248663,72.4894084 L152.758107,38.0655692 Z" id="Fill-14" fill="#FEFEFE" mask="url(#mask-2)"></path>
                        <polygon id="Fill-15" fill="#FEFEFE" mask="url(#mask-2)" points="4.08924677 41.3167238 5.14867829 56.1209196 15.2132778 55.0999406 18.3915724 48.9740664 14.683562 42.8481923"></polygon>
                        <polygon id="Fill-16" fill="#FEFEFE" mask="url(#mask-2)" points="52.8230969 10.6873531 46.9962235 28.0439965 58.6499703 24.9810594"></polygon>
                        <polygon id="Fill-17" fill="#FEFEFE" mask="url(#mask-2)" points="133.869609 6.60343706 133.339893 18.8551853 139.166766 19.8761643 147.642218 13.7502902 145.523355 7.62441608"></polygon>
                    </g>
                </g>
            </g>
        </g>
    </g>
</svg>