<?xml version="1.0" encoding="UTF-8" standalone="no"?>
<svg width="33px" height="29px" viewBox="0 0 33 29" version="1.1" xmlns="http://www.w3.org/2000/svg" xmlns:xlink="http://www.w3.org/1999/xlink">
    <!-- Generator: Sketch 50.2 (55047) - http://www.bohemiancoding.com/sketch -->
    <title>Group 19</title>
    <desc>Created with Sketch.</desc>
    <defs>
        <polygon id="path-1" points="0 0.0262918033 16.9852231 0.0262918033 16.9852231 8.99998033 0 8.99998033"></polygon>
    </defs>
    <g id="Page-1" stroke="none" stroke-width="1" fill="none" fill-rule="evenodd">
        <g id="Desktop-HD-Copy-91" transform="translate(-202.000000, -2662.000000)">
            <g id="Group-19" transform="translate(202.000000, 2662.000000)">
                <path d="M12.59806,0 L4.60625062,3.65107272 C3.262913,4.66961743 2.14346499,6.70017008 1.24790658,9.74273068 C-0.0954310387,14.3065716 -0.70850374,18.2749739 1.24790658,21.4696625 C3.2043169,24.6643511 5.02254535,29 14.3576923,29 C20.5811236,29 25.3119575,28.2129157 28.5501941,26.6387472 L33,16.8960165 L30.3133248,6.6969017 C29.4506741,5.38063769 26.9327906,3.93542141 22.7596744,2.36125284 C18.5865581,0.787084281 15.1993533,0 12.59806,0 Z" id="Path-6-Copy" fill="#FFFFFF" transform="translate(16.500000, 14.500000) scale(-1, -1) translate(-16.500000, -14.500000) "></path>
                <g id="Group" transform="translate(8.000000, 6.000000)">
                    <g id="Group-3" transform="translate(0.000000, 8.000000)">
                        <mask id="mask-2" fill="white">
                            <use xlink:href="#path-1"></use>
                        </mask>
                        <g id="Clip-2"></g>
                        <path d="M12.5665792,0.0263409836 C11.4976134,0.0263409836 10.5161177,0.414029508 9.7510208,1.05784918 L9.32849088,0.734340984 C8.72346524,0.271160656 8.00098946,0.0262918033 7.23913761,0.0262918033 C6.22703219,0.0262918033 5.31479573,0.467734426 4.67862764,1.17061967 L4.43917464,0.895947541 C3.95741111,0.343259016 3.26462479,0.0262918033 2.53837123,0.0262918033 C1.13875299,0.0262918033 -4.84330484e-06,1.18257049 -4.84330484e-06,2.60388197 L-4.84330484e-06,4.40043934 C-4.84330484e-06,4.8310623 0.345032194,5.18142295 0.769111966,5.18142295 L3.76053077,5.18142295 L3.76053077,6.30971803 C3.76053077,6.74034098 4.10556781,7.09070164 4.52964758,7.09070164 L8.14788689,7.09070164 L8.14788689,8.21899672 C8.14788689,8.64961967 8.49292393,8.99998033 8.91695527,8.99998033 L16.2162031,8.99998033 C16.6402345,8.99998033 16.9852231,8.64961967 16.9852231,8.21899672 L16.9852231,4.51316066 C16.9852231,2.03914426 15.0030521,0.0263409836 12.5665792,0.0263409836" id="Fill-1" fill="#35153F" mask="url(#mask-2)"></path>
                    </g>
                    <path d="M12.8568657,0 C11.1237194,0 9.71368337,1.34577895 9.71368337,3.00004591 C9.71368337,3.02437606 9.71498196,3.04843078 9.71555912,3.07266913 C9.46526653,1.99599088 8.45745892,1.1881379 7.2551503,1.1881379 C5.86521844,1.1881379 4.73442886,2.26743279 4.73442886,3.59406895 C4.73442886,3.64663127 4.73683367,3.69864271 4.74034469,3.75033282 C4.53463727,2.96212759 3.78693387,2.3762299 2.89830862,2.3762299 C1.85159118,2.3762299 1,3.18904072 1,4.188092 C1,5.18718918 1.85159118,6 2.89830862,6 C3.94507415,6 4.79666533,5.18718918 4.79666533,4.188092 C4.79666533,4.16376184 4.7957515,4.13966121 4.79469339,4.11546878 C5.04503407,5.19214702 6.05284168,6 7.2551503,6 C8.64493788,6 9.77563126,4.92098055 9.77587174,3.59452801 C10.0657475,4.96495846 11.3368337,6 12.8568176,6 C14.5899639,6 16,4.65422105 16,3 C16,1.34573304 14.5899639,0 12.8568657,0" id="Fill-4" fill="#35153F"></path>
                </g>
            </g>
        </g>
    </g>
</svg>