<?xml version="1.0" encoding="UTF-8" standalone="no"?>
<svg width="35px" height="32px" viewBox="0 0 35 32" version="1.1" xmlns="http://www.w3.org/2000/svg" xmlns:xlink="http://www.w3.org/1999/xlink">
    <!-- Generator: Sketch 50.2 (55047) - http://www.bohemiancoding.com/sketch -->
    <title>Group 18</title>
    <desc>Created with Sketch.</desc>
    <defs></defs>
    <g id="Page-1" stroke="none" stroke-width="1" fill="none" fill-rule="evenodd">
        <g id="Desktop-HD-Copy-91" transform="translate(-156.000000, -2661.000000)">
            <g id="Group-18" transform="translate(155.000000, 2660.000000)">
                <path d="M13.5522944,2.02665027 C11.0315674,1.80253052 8.47437263,2.99198926 5.88071001,5.5950265 C1.99021607,9.49958235 2.00000012,17.3096685 2.00000012,22.0902402 C2.00000012,26.870812 7.60139999,32.2685106 15.0768272,33 C23.7365436,30.9322546 30.7622274,28.817869 34.945744,23.4928157 C39.1292605,18.1677624 29.7160624,8.1079498 26.6731841,4.0580568 C26.5482887,3.99221854 26.4281765,3.93373368 26.3133636,3.88294648 C23.9762815,3.50772516 19.7225918,2.88895975 13.5522944,2.02665027 Z" id="Path-5-Copy" fill="#FFFFFF" transform="translate(19.000000, 17.500000) rotate(6.000000) translate(-19.000000, -17.500000) "></path>
                <polygon id="Triangle-2" fill="#35153F" transform="translate(19.000000, 17.000000) rotate(90.000000) translate(-19.000000, -17.000000) " points="19 12 27 22 11 22"></polygon>
            </g>
        </g>
    </g>
</svg>