<?xml version="1.0" encoding="UTF-8" standalone="no"?>
<svg width="35px" height="30px" viewBox="0 0 35 30" version="1.1" xmlns="http://www.w3.org/2000/svg" xmlns:xlink="http://www.w3.org/1999/xlink">
    <!-- Generator: Sketch 50.2 (55047) - http://www.bohemiancoding.com/sketch -->
    <title>Group 11</title>
    <desc>Created with Sketch.</desc>
    <defs></defs>
    <g id="Page-1" stroke="none" stroke-width="1" fill="none" fill-rule="evenodd">
        <g id="Desktop-HD-Copy-93" transform="translate(-1325.000000, -26.000000)">
            <g id="Group-11" transform="translate(1325.000000, 26.000000)">
                <path d="M13.3615787,0 L4.88541732,3.77697178 C3.46066531,4.83063872 2.27337196,6.93121043 1.32353728,10.0786869 C-0.101214738,14.7999016 -0.751443361,18.9051454 1.32353728,22.2099957 C3.39851792,25.514846 5.32694204,30 15.2278555,30 C21.8284644,30 26.8460156,29.1857749 30.2805089,27.5573246 L35,17.4786377 L32.150496,6.92782935 C31.2355634,5.56617692 28.565081,4.07112559 24.1390486,2.44267536 C19.7130162,0.814225118 16.1205262,0 13.3615787,0 Z" id="Path-6" fill="#FFFFFF"></path>
                <path d="M20.4816724,15.4928704 L18.2039797,15.4928704 L18.2039797,23.6111335 L14.829453,23.6111335 L14.829453,15.4928704 L13.2245227,15.4928704 L13.2245227,12.6236204 L14.829453,12.6236204 L14.829453,10.7677435 C14.829453,9.43857246 15.4610489,7.36163699 18.2355595,7.36163699 L20.7360026,7.37122372 L20.7360026,10.1564489 L18.9207283,10.1564489 C18.6252316,10.1564489 18.2051075,10.3041972 18.2051075,10.9380488 L18.2051075,12.6241843 L20.7766052,12.6241843 L20.4816724,15.4928704 Z" id="Path" fill="#35153F"></path>
            </g>
        </g>
    </g>
</svg>