<?xml version="1.0" encoding="UTF-8" standalone="no"?>
<svg width="88px" height="92px" viewBox="0 0 88 92" version="1.1" xmlns="http://www.w3.org/2000/svg" xmlns:xlink="http://www.w3.org/1999/xlink">
    <!-- Generator: Sketch 50.2 (55047) - http://www.bohemiancoding.com/sketch -->
    <title>logo-zle-3</title>
    <desc>Created with Sketch.</desc>
    <defs>
        <polygon id="path-1" points="0 0.163264975 9.73640426 0.163264975 9.73640426 11.1780467 0 11.1780467"></polygon>
        <polygon id="path-3" points="0.015587234 0.462101523 11.5958723 0.462101523 11.5958723 10.9384264 0.015587234 10.9384264"></polygon>
    </defs>
    <g id="Page-1" stroke="none" stroke-width="1" fill="none" fill-rule="evenodd">
        <g id="Desktop-HD-Copy-91" transform="translate(-574.000000, -2479.000000)">
            <g id="logo-zle-3" transform="translate(574.000000, 2479.000000)">
                <g id="Group">
                    <path d="M70.2310681,40.2193645 C70.8592383,38.8940041 71.3839617,37.510268 71.7935362,36.0784305 L71.7935362,36.0788975 C71.852983,35.8682782 71.9105574,35.6567249 71.9653234,35.4442376 C72.0140043,35.2574355 72.0603447,35.0706335 72.1043447,34.8824305 C72.1581745,34.6564 72.2096638,34.4299025 72.2578766,34.2020041 C72.3173234,33.918065 72.3748979,33.6336589 72.424983,33.3459838 C72.4460468,33.2268975 72.4643021,33.1073442 72.4844298,32.9873239 C72.5406,32.6398721 72.5934936,32.2919533 72.6365574,31.9398315 C72.6435787,31.8875269 72.6482596,31.8342883 72.6548128,31.7815168 C72.7020894,31.3747553 72.7423447,30.9661259 72.7727702,30.5537604 L47.388983,29.0705523 L55.7513234,34.8618822 C53.5134085,38.7104711 49.4387277,41.0725827 44.9380894,41.0725827 C38.0408553,41.0725827 32.4303872,35.4741259 32.4303872,28.5928061 C32.4303872,21.7124203 38.0408553,16.1144305 44.9380894,16.1144305 C51.5614936,16.1144305 57.046983,21.2748365 57.4256638,27.8624102 C57.4308128,27.9702883 57.4298766,28.3191411 57.4280043,28.8062274 L72.3692809,25.6179838 C72.2845574,24.8348162 72.1703447,24.0609888 72.0210255,23.2997706 C72.0130681,23.2558721 72.0037064,23.2129076 71.9957489,23.1699431 C71.9213234,22.7991411 71.8394085,22.4311411 71.7504723,22.0654761 C71.7397064,22.0248467 71.7303447,21.9837503 71.7205149,21.9421868 C71.5248553,21.1552832 71.2940894,20.3814558 71.0328979,19.6230396 C71.0034085,19.5394457 70.9734511,19.4567858 70.9430255,19.3731919 C70.8428553,19.0925218 70.7384723,18.8137198 70.6298766,18.5372528 C70.5868128,18.4293746 70.5446851,18.3214964 70.5006851,18.2145523 C70.3883447,17.9380853 70.2703872,17.6639533 70.1486851,17.3921563 C70.1112383,17.3094964 70.0766,17.2254355 70.0391532,17.1437096 C69.889834,16.8200751 69.7344298,16.5001766 69.5738766,16.1840142 C69.4980468,16.0350396 69.4194085,15.8884 69.3407702,15.7408264 C69.2480894,15.5656995 69.1530681,15.3905726 69.0571106,15.2173137 C68.9630255,15.0491919 68.8680043,14.8824711 68.7701745,14.7166843 C68.6859191,14.5719127 68.5983872,14.4299431 68.5113234,14.2875066 C68.112983,13.6360345 67.6884298,13.0023086 67.2395362,12.388197 C67.1721319,12.2957299 67.1042596,12.2023289 67.034983,12.1103289 C66.8912809,11.9188569 66.7443021,11.7292528 66.594983,11.5415168 C66.5725149,11.5120954 66.5486426,11.4836081 66.5247702,11.4537198 C65.7468128,10.4800142 64.9037915,9.56001421 64.0022596,8.70072487 C63.9924298,8.69138477 63.9821319,8.68157766 63.9723021,8.67223756 C63.0829404,7.82555736 62.1355362,7.03865381 61.138983,6.31572995 C61.0706426,6.2652934 60.9990255,6.21485685 60.9297489,6.1644203 C60.6086426,5.93652183 60.2814511,5.71562843 59.9514511,5.50080609 C59.8831106,5.45644061 59.8143021,5.41020711 59.7459617,5.36630863 C59.7394085,5.36257259 59.7337915,5.35883655 59.7286426,5.3546335 C59.5620043,5.24955736 59.3948979,5.14634924 59.2263872,5.04500914 C59.0967277,4.96608528 58.9661319,4.88949645 58.8341319,4.81290761 C58.5748128,4.66159797 58.3103447,4.51355736 58.0454085,4.3697198 C57.9246426,4.30480609 57.8029404,4.24035939 57.6812383,4.1763797 C57.6512809,4.16096853 57.6222596,4.14462335 57.591834,4.12921218 C57.4457915,4.05355736 57.300217,3.97883655 57.1532383,3.90598376 C56.9472809,3.80324264 56.7380468,3.70610558 56.5288128,3.60943553 C56.4628128,3.5790802 56.3977489,3.54685685 56.332217,3.51696853 C56.2020894,3.45765888 56.0705574,3.40068426 55.9390255,3.34417665 C55.7569404,3.26431878 55.5725149,3.18819695 55.3876213,3.11207513 C55.3366,3.0915269 55.2860468,3.06911066 55.2350255,3.04902944 C55.083366,2.98785178 54.9303021,2.92807513 54.7777064,2.86923249 C54.6096638,2.8057198 54.4406851,2.74500914 54.2703021,2.68383147 C54.1865149,2.65347614 54.1022596,2.62125279 54.0170681,2.59183147 C53.9075362,2.55353706 53.7970681,2.51524264 53.6861319,2.47834924 C53.4768979,2.40829848 53.2648553,2.34338477 53.0528128,2.27847107 C52.9367277,2.24251168 52.8225149,2.20421726 52.7064298,2.16965888 C52.6184298,2.14490761 52.5299617,2.12015635 52.4410255,2.09587208 C52.272983,2.04823756 52.1021319,2.0052731 51.9326851,1.96090761 C51.800217,1.92634924 51.6686851,1.88898883 51.5352809,1.85629848 C51.4655362,1.83901929 51.3962596,1.82080609 51.3274511,1.80399391 C51.0643872,1.74188223 50.798983,1.68817665 50.5340468,1.63307005 C50.4437064,1.61485685 50.353834,1.59337462 50.2634936,1.57516142 C50.1745574,1.55788223 50.0860894,1.54107005 49.996217,1.52472487 C49.7696638,1.48269442 49.5403021,1.44720203 49.3100043,1.40984162 C49.1719191,1.38789239 49.0347702,1.3612731 48.8948128,1.34119188 C48.8508128,1.33512081 48.8063447,1.32951675 48.7614085,1.32344569 C48.5245574,1.29075533 48.2848979,1.26553706 48.0471106,1.23891777 C47.9319617,1.22584162 47.8186851,1.20996345 47.7035362,1.19828832 C47.6361319,1.19175025 47.5682596,1.18427817 47.5003872,1.1777401 C47.1760043,1.14738477 46.8478766,1.12683655 46.5206851,1.10768934 C46.4663872,1.10488731 46.4134936,1.09928325 46.3596638,1.09648122 C46.2847702,1.09274518 46.2080043,1.08947614 46.1321745,1.08667411 C45.7352383,1.06939492 45.3383021,1.0581868 44.9380894,1.0581868 C29.7197064,1.0581868 17.3393234,13.4104711 17.3393234,28.5928061 C17.3393234,43.7760751 29.7197064,56.1274254 44.9380894,56.1274254 C45.3677915,56.1274254 45.7956213,56.1162173 46.2215787,56.0970701 C46.3559191,56.090999 46.4893234,56.0797909 46.6236638,56.0723188 C46.8066851,56.0611107 46.987834,56.0471005 47.1685149,56.0330904 C47.2757064,56.0246843 47.3824298,56.0190802 47.4896213,56.0097401 C47.6515787,55.9957299 47.8116638,55.9765827 47.9712809,55.9597706 C48.114983,55.9443594 48.2558766,55.9256792 48.3972383,55.908867 C48.5142596,55.8943898 48.6312809,55.8822477 48.747834,55.8663695 C48.9158766,55.8439533 49.082983,55.818735 49.2496213,55.7935168 C49.500983,55.7547553 49.7532809,55.7122579 50.0027702,55.6669584 C50.1666,55.636603 50.331834,55.6071817 50.4947277,55.5740244 C50.573366,55.5581462 50.6510681,55.5404 50.7287702,55.5235878 C50.9014936,55.4871614 51.0751532,55.449801 51.2469404,55.4105726 C51.4023447,55.3755472 51.5568128,55.3414558 51.7108128,55.3036284 C51.8287702,55.2746741 51.9457915,55.2405827 52.0628128,55.2097604 C52.2191532,55.1677299 52.3768979,55.1271005 52.5323021,55.083669 C52.6568128,55.0491107 52.7822596,55.0182883 52.9044298,54.9813949 C53.1946426,54.896867 53.4797064,54.802532 53.763834,54.708197 C53.8597915,54.6769076 53.9557489,54.6498213 54.0512383,54.617598 C54.1752809,54.5751005 54.296983,54.527933 54.4214936,54.4831005 C54.5492809,54.436867 54.6770681,54.3887655 54.8053234,54.340664 C54.9331106,54.2939635 55.0623021,54.248197 55.1891532,54.1986944 C55.3511106,54.1351817 55.5121319,54.066999 55.6726851,54.0006843 C55.8842596,53.9133543 56.095366,53.8250904 56.3046,53.7330904 C56.4801319,53.6555675 56.6537915,53.5752426 56.8274511,53.4935168 C57.0170255,53.4052528 57.2051957,53.3151208 57.3924298,53.2231208 C57.5717064,53.1348569 57.7491106,53.0447249 57.9265149,52.9527249 C58.102983,52.8607249 58.2775787,52.7659228 58.4521745,52.6701868 C58.6323872,52.5721157 58.8121319,52.4731107 58.9895362,52.3708365 C58.9923447,52.3689685 58.9951532,52.3671005 58.9988979,52.3656995 C59.158983,52.2727655 59.3162596,52.1760954 59.4749404,52.0803594 C59.6579617,51.9701462 59.8419191,51.860867 60.0216638,51.7464508 C60.1307277,51.677801 60.2365149,51.6058822 60.3427702,51.5344305 C60.3703872,51.5166843 60.3966,51.4989381 60.424217,51.4811919 C60.8417489,51.2042579 61.2541319,50.9175168 61.6566851,50.6195675 C61.7371957,50.5611919 61.8172383,50.5051513 61.8958766,50.4453746 C62.0971532,50.293131 62.2946851,50.1343492 62.4912809,49.9765015 C62.5998766,49.8901056 62.7098766,49.8041766 62.8166,49.7163797 C63.0094511,49.557598 63.1971532,49.3946132 63.3853234,49.2316284 C63.4915787,49.1386944 63.5983021,49.0462274 63.7036213,48.9518924 C63.8927277,48.7814355 64.0808979,48.6077096 64.2667277,48.4321157 C64.2915362,48.4087655 64.3149404,48.3844812 64.3397489,48.361131 C64.4099617,48.2943492 64.4806426,48.2271005 64.548983,48.1593848 C64.7376213,47.9763188 64.9239191,47.7909178 65.1060043,47.6031817 C65.1846426,47.5228569 65.2604723,47.440664 65.3372383,47.3598721 C65.5319617,47.1529888 65.7266851,46.9456386 65.9148553,46.7336183 C65.9504298,46.6943898 65.9846,46.6537604 66.0192383,46.614065 C66.936217,45.5712426 67.7754936,44.4597706 68.5277064,43.2880548 C68.5408128,43.2684406 68.5534511,43.2483594 68.5660894,43.2282782 C68.5843447,43.2016589 68.6021319,43.1745726 68.6194511,43.1474863 C68.7865574,42.8826944 68.9485149,42.6146335 69.1076638,42.3447046 C69.1137489,42.3325624 69.1203021,42.3204203 69.1277915,42.3087452 C69.1568128,42.2587756 69.1872383,42.2083391 69.2162596,42.1579025 C69.3726,41.8875066 69.5233234,41.6138416 69.669834,41.3373746 C69.6997915,41.280867 69.7292809,41.2238924 69.7592383,41.1673848 C69.9099617,40.8787756 70.0564723,40.5873645 70.197366,40.2936183 C70.2025149,40.2819431 70.2081319,40.270268 70.2128128,40.2585929 C70.219366,40.2459838 70.2254511,40.2324406 70.2310681,40.2193645" id="Fill-1" fill="#FEFEFE"></path>
                    <path d="M72.6336553,31.7790883 C72.6327191,31.7795553 72.6327191,31.7804893 72.6327191,31.7814234 L72.6299106,31.8080426 C72.5704638,32.3086721 72.4983787,32.8050985 72.4122511,33.2963878 C72.4094426,33.3132 72.4071021,33.3295452 72.4033574,33.3458904 L72.4033574,33.3472914 C72.2385915,34.2752305 72.0265489,35.1863574 71.7714426,36.0792711 L71.7714426,36.0788041 C71.3628043,37.5101746 70.8380809,38.8939107 70.2099106,40.2192711 C70.2038255,40.2323472 70.1982085,40.2458904 70.1916553,40.2589665 C70.1860383,40.2701746 70.1818255,40.2818497 70.1762085,40.2935249 C70.0353149,40.5872711 69.8883362,40.8786822 69.7376128,41.1672914 C69.7081234,41.223799 69.6791021,41.2807736 69.6486766,41.3372812 C69.5016979,41.6137482 69.3495702,41.8874132 69.194166,42.1582761 C69.1595277,42.2185198 69.1248894,42.2773624 69.0902511,42.3371391 C69.0883787,42.3399411 69.0865064,42.3422761 69.0855702,42.3446112 C68.9273574,42.6150071 68.7644638,42.882601 68.5973574,43.1473929 C68.5809745,43.1744792 68.561783,43.2015655 68.5454,43.2281848 C68.5407191,43.2356569 68.5360383,43.2426619 68.5313574,43.249667 C68.5234,43.2618091 68.5149745,43.2739513 68.5079532,43.2865604 C67.9893149,44.0940122 67.4262085,44.8711086 66.8275277,45.6187838 C66.5579106,45.9564284 66.2826766,46.2898701 65.9971447,46.6144386 C65.9625064,46.653667 65.9288043,46.6942964 65.894166,46.7335249 C65.7036553,46.9469462 65.5079957,47.1552305 65.3123362,47.3630477 C65.2374426,47.4424386 65.1625489,47.5218294 65.0867191,47.6007533 C64.9018255,47.7912914 64.7145915,47.9780934 64.5245489,48.1630274 C64.4314,48.2531594 64.337783,48.3432914 64.244634,48.4324893 C64.0592723,48.6085503 63.870634,48.7818091 63.6815277,48.952733 C63.5836979,49.0395959 63.4858681,49.1255249 63.3880383,49.2109868 C63.3791447,49.2175249 63.3716553,49.2245299 63.364166,49.231535 C63.1759957,49.3949868 62.9878255,49.5575046 62.7954426,49.7162863 C62.6896553,49.8031492 62.5815277,49.8867431 62.4757404,49.9726721 C62.2754,50.1323878 62.0769319,50.2925706 61.8733149,50.4466822 C61.7974851,50.5031898 61.7207191,50.5564284 61.6453574,50.612469 C61.2432723,50.9104183 60.8308894,51.1971594 60.4133574,51.4736264 C60.4086766,51.4764284 60.4049319,51.4787635 60.4021234,51.4810985 C60.3819957,51.4946416 60.3599957,51.5086518 60.3398681,51.5221949 C60.2265915,51.5973827 60.1151872,51.6735046 60.0009745,51.7463574 C59.8207617,51.8607736 59.6358681,51.9700528 59.4533149,52.080733 C59.2922936,52.1778701 59.1312723,52.2764081 58.9688468,52.3707431 C58.7905064,52.4730173 58.6102936,52.5720223 58.431017,52.6700934 C58.2554851,52.7658294 58.0808894,52.8610985 57.9044213,52.9526315 C57.7279532,53.0450985 57.5496128,53.1347635 57.3708043,53.2230274 C57.1840383,53.3154944 56.9949319,53.4056264 56.8058255,53.4938904 C56.6316979,53.5751492 56.4580383,53.6559411 56.2815702,53.733464 C56.0779532,53.8235959 55.8710596,53.9099919 55.6636979,53.9959208 C55.6608894,53.9968548 55.6580809,53.9977888 55.6557404,53.9991898 C55.6538681,54.0001239 55.6529319,54.0001239 55.6510596,54.0005909 C55.4909745,54.0673726 55.3299532,54.1350883 55.1675277,54.198601 C54.9203787,54.2957381 54.6699532,54.3858701 54.4195277,54.475535 C54.4120383,54.4783371 54.4059532,54.4806721 54.3994,54.4834741 C54.3081234,54.5166315 54.2163787,54.5497888 54.1260383,54.5824792 C54.0932723,54.5941543 54.0609745,54.6067635 54.0272723,54.6184386 C53.6495277,54.746865 53.2685064,54.8682863 52.8837404,54.9817685 C52.760166,55.0181949 52.6356553,55.0494843 52.5116128,55.0835756 C52.3552723,55.1274741 52.1979957,55.1676365 52.0407191,55.209667 C51.9354,55.2372203 51.8305489,55.2671086 51.7242936,55.2941949 C51.7125915,55.296997 51.7013574,55.300733 51.6905915,55.303535 L51.6896553,55.303535 L51.6887191,55.303535 C51.6072723,55.3240832 51.5248894,55.3418294 51.4429745,55.3605096 C51.3685489,55.3773218 51.2945915,55.394601 51.220634,55.4114132 C51.1092298,55.4375655 50.9964213,55.4599817 50.885017,55.484733 C50.824634,55.4973421 50.7661234,55.5108853 50.7066766,55.5234944 C50.6289745,55.5403066 50.5512723,55.5580528 50.472634,55.573931 C50.3083362,55.6070883 50.1407617,55.6374437 49.9755277,55.667799 C49.7274426,55.7130985 49.4798255,55.7546619 49.2303362,55.7934234 C49.0632298,55.8191086 48.8947191,55.8438599 48.7257404,55.8667431 C48.6096553,55.8821543 48.492634,55.8942964 48.3756128,55.9087736 C48.233783,55.9260528 48.0919532,55.944733 47.9496553,55.9596772 C47.7895702,55.9764893 47.6285489,55.9956365 47.4675277,56.0096467 C47.3608043,56.0189868 47.2536128,56.0245909 47.1468894,56.032997 C46.9657404,56.0470071 46.7836553,56.0614843 46.6020383,56.0722254 C46.4676979,56.0801645 46.3338255,56.0909056 46.1994851,56.0969766 C45.7735277,56.1161239 45.3456979,56.127799 44.9159957,56.127799 C29.6966766,56.127799 17.3153574,43.7759817 17.3153574,28.5931797 C17.3153574,13.4103777 29.6966766,1.0580934 44.9159957,1.0580934 C45.3110596,1.0580934 45.7042511,1.06930152 46.0955702,1.08611371 C46.099783,1.08611371 46.1035277,1.08611371 46.1082085,1.08658071 L46.1100809,1.08658071 C46.1859106,1.08938274 46.2617404,1.09265178 46.3375702,1.09638782 C46.3914,1.09965685 46.4447617,1.10479391 46.4976553,1.10759594 C46.517783,1.10946396 46.5360383,1.11133198 46.5552298,1.11179898 C46.859017,1.12954518 47.1632723,1.14869239 47.4647191,1.17624569 C47.5372723,1.18325076 47.6093574,1.19118985 47.6814426,1.19866193 C48.0236128,1.2327533 48.3643787,1.27198173 48.7028043,1.31914924 C48.7594426,1.32708832 48.8160809,1.33315939 48.8727191,1.34109848 C49.0126766,1.3616467 49.1498255,1.38779898 49.2888468,1.41021523 C49.3197404,1.41535228 49.3511021,1.42095635 49.3829319,1.4260934 C49.5729745,1.45738274 49.7644213,1.48540305 49.9535277,1.52089543 C50.0494851,1.53864162 50.1454426,1.55638782 50.2414,1.57553503 C50.3317404,1.59328122 50.4216128,1.61476345 50.5119532,1.63344365 C50.5320809,1.6376467 50.5512723,1.64184975 50.5704638,1.64605279 C50.8101234,1.69508832 51.049783,1.74365685 51.286634,1.79923046 C51.2908468,1.80063147 51.2964638,1.80249949 51.3020809,1.8034335 C51.303017,1.8034335 51.3039532,1.80390051 51.3058255,1.80390051 C51.374166,1.82071269 51.4434426,1.83892589 51.5131872,1.85620508 C51.8019957,1.92718985 52.0879957,2.00284467 52.3725915,2.08270254 C52.4765064,2.11118985 52.5808894,2.13967716 52.6843362,2.17003249 C53.0016979,2.26249949 53.3153149,2.36150457 53.6275277,2.4651797 C53.7511021,2.50580914 53.8728043,2.54924061 53.9954426,2.59173807 C54.2402511,2.6772 54.4836553,2.76593096 54.7247191,2.85793096 C54.7340809,2.8612 54.7429745,2.86493604 54.7514,2.86820508 C54.7532723,2.86867208 54.7542085,2.86913909 54.7560809,2.86960609 C54.9096128,2.92844873 55.0612723,2.98822538 55.2129319,3.04893604 C55.4334,3.13673299 55.6510596,3.22826599 55.867783,3.32166701 C55.884166,3.32867208 55.8986766,3.33567716 55.9150596,3.34268223 C55.9159957,3.34314924 55.9159957,3.34361624 55.9178681,3.34408325 C56.0484638,3.40059086 56.1814,3.45756548 56.3101234,3.51687513 C56.3770596,3.54676345 56.4407191,3.5789868 56.5067191,3.60934213 C56.5202936,3.6154132 56.5338681,3.62241827 56.5479106,3.62848934 C56.7281234,3.71208325 56.9078681,3.79521015 57.0862085,3.88300711 C57.2491021,3.96286497 57.4091872,4.04552487 57.5697404,4.12911878 C57.7087617,4.20057056 57.8468468,4.27389036 57.9849319,4.34767716 C58.1623362,4.4434132 58.3359957,4.54428629 58.5105915,4.64329137 C58.6112298,4.70026599 58.7137404,4.75490558 58.8134426,4.81281421 C58.8134426,4.81328122 58.8143787,4.81374822 58.8143787,4.81421523 C58.8214,4.81795127 58.827017,4.8207533 58.8335702,4.82448934 C58.9384213,4.88660102 59.0437404,4.94684467 59.1476553,5.00989036 C59.3353574,5.12243858 59.5216553,5.23778883 59.7065489,5.3545401 C59.7711447,5.39610355 59.8352723,5.43906802 59.9012723,5.48063147 C59.9092298,5.48623553 59.9176553,5.4923066 59.9260809,5.49791066 C59.927017,5.49884467 59.9284213,5.49977868 59.9302936,5.50071269 C60.2602936,5.71553503 60.587017,5.93642843 60.9076553,6.1643269 L60.9076553,6.16479391 C60.9142085,6.16946396 60.9207617,6.1732 60.9268468,6.17833706 C60.9745915,6.21196142 61.0218681,6.24558579 61.0705489,6.27967716 C61.0859957,6.29135228 61.1014426,6.30396142 61.1168894,6.31563655 L61.1178255,6.31610355 C61.1187617,6.31610355 61.1196979,6.31750457 61.120634,6.31797157 C62.1134426,7.03856041 63.0571021,7.82312893 63.9450596,8.6660731 C63.9464638,8.66840812 63.9483362,8.67027614 63.9511447,8.67214416 C64.8681234,9.54404264 65.7247191,10.4771188 66.5148468,11.4676365 C66.5064213,11.4564284 66.4984638,11.4456873 66.4909745,11.4344792 C66.5504213,11.508733 66.6070596,11.5862558 66.6655702,11.6609766 C66.7825915,11.8094843 66.8996128,11.9589259 67.0138255,12.1102355 C67.0156979,12.1135046 67.0185064,12.1167736 67.0213149,12.1200426 C67.0807617,12.1994335 67.1383362,12.2806924 67.197783,12.3605503 C67.2038681,12.3698904 67.2113574,12.3787635 67.2179106,12.3885706 C67.2230596,12.3960426 67.2286766,12.4035147 67.2333574,12.4109868 C67.4454,12.7005299 67.6508894,12.9952102 67.852166,13.2936264 C67.8666766,13.3151086 67.8807191,13.3375249 67.8952298,13.3585401 C68.0974426,13.6620934 68.2945064,13.9689157 68.485017,14.2808751 C68.4878255,14.2832102 68.4887617,14.2850782 68.4892298,14.2874132 C68.4911021,14.2902152 68.4929745,14.2934843 68.4948468,14.2958193 C68.5791021,14.4331188 68.6624213,14.5708853 68.7443362,14.7100528 C68.7462085,14.7119208 68.7471447,14.7137888 68.7480809,14.7165909 C68.8459106,14.8823777 68.9409319,15.0490985 69.0354851,15.2176873 C69.0354851,15.2181543 69.0359532,15.2186213 69.0359532,15.2200223 C69.1276979,15.3830071 69.2171021,15.5487939 69.3051021,15.7145807 C69.3093149,15.7234538 69.3149319,15.7323269 69.3196128,15.7412 C69.3973149,15.8883066 69.4768894,16.0354132 69.5527191,16.1839208 C69.5527191,16.1848548 69.5536553,16.1862558 69.5536553,16.1881239 C69.7198255,16.5131594 69.8789745,16.842398 70.0315702,17.1758396 C70.0638681,17.2477584 70.0947617,17.3206112 70.1270596,17.3920629 C70.1303362,17.400002 70.1331447,17.4079411 70.1368894,17.4163472 C70.277783,17.7311086 70.4121234,18.0491391 70.541783,18.3704386 C70.563783,18.4260122 70.5867191,18.4815858 70.6087191,18.5376264 C70.6087191,18.5394944 70.6096553,18.5418294 70.6105915,18.5441645 C70.7173149,18.8140934 70.8188894,19.0863574 70.9176553,19.3614234 C70.9195277,19.3651594 70.9204638,19.3688954 70.9214,19.3730985 C70.9513574,19.4566924 70.9827191,19.5398193 71.0108043,19.6229462 C71.0117404,19.6252812 71.0126766,19.6280832 71.0136128,19.6299513 C71.2780809,20.3935046 71.5083787,21.173403 71.7049745,21.9659107 C71.7129319,21.999068 71.7204213,22.0322254 71.7283787,22.0658497 C71.7293149,22.0691188 71.7302511,22.0737888 71.7311872,22.0775249 C72.0129745,23.2296264 72.2240809,24.4102152 72.3546766,25.6164893 L57.4063787,28.806134 C57.4082511,28.3190477 57.4091872,27.9701949 57.4035702,27.8623168 C57.0248894,21.2747431 51.5398681,16.1143371 44.9159957,16.1143371 C38.0192298,16.1143371 32.4073574,21.7123269 32.4073574,28.5931797 C32.4073574,35.4744995 38.0192298,41.0724893 44.9159957,41.0724893 C49.416634,41.0724893 53.4922511,38.7103777 55.730634,34.8617888 L47.3668894,29.0709259 L72.7506766,30.553667 C72.7211872,30.9650985 72.6814,31.3727939 72.6336553,31.7790883 Z M72.577017,29.7733015 L67.3742511,29.3978294 L73.1775702,26.3151289 C72.6682936,19.9633929 70.2028894,14.1010782 66.0739106,9.76633706 C65.4733574,9.1354132 64.2301234,7.91092589 63.5911872,7.31782944 C61.159017,5.05799188 58.2091447,3.37910863 55.0565915,2.17283452 C52.4531021,1.08611371 49.6516128,0.316022335 46.6970596,0.124550254 C45.8835277,0.0717786802 44.2531872,0.0115350254 43.437783,0.00219492386 C36.8115702,-0.0781299492 30.3131447,2.29378883 25.3022936,6.6145198 C24.7307617,7.10767716 23.6139106,8.12247919 23.0685915,8.64365685 C18.501017,13.0096873 15.7107617,18.9140325 14.8401234,25.1588244 C14.6542936,26.4897888 14.5602085,27.8497076 14.5602085,29.2016873 C14.5602085,45.3072914 27.6932723,58.4095858 43.8370596,58.4095858 C51.3540383,58.4095858 58.5442936,55.579535 64.0817404,50.4406112 C66.576166,48.127535 68.4803362,45.4936264 69.8134426,42.5781137 C71.9965915,38.8238599 73.2847617,34.6124081 73.5361234,30.2174234 L73.5440809,30.0656467 L73.5581234,29.8368142 L73.3273574,29.8246721 L72.577017,29.7733015 Z" id="Fill-3" fill="#231F20"></path>
                    <polygon id="Fill-5" fill="#FEFEFE" points="18.1346468 68.1733076 21.4650723 68.1733076 21.4650723 76.853531 23.4455404 76.853531 23.4455404 68.1733076 26.7754979 68.1733076 26.7754979 66.3772061 18.1346468 66.3772061"></polygon>
                    <polygon id="Fill-7" fill="#FEFEFE" points="28.9974979 76.8534843 36.8580511 76.8534843 36.8580511 74.9079411 30.9625191 74.9079411 30.9625191 72.5430274 36.6478809 72.5430274 36.6478809 70.7025604 30.9625191 70.7025604 30.9625191 68.2928142 36.8580511 68.2928142 36.8580511 66.3771594 28.9974979 66.3771594"></polygon>
                    <path d="M42.199417,73.0369787 L44.1499277,68.5770802 L46.1009064,73.0369787 L42.199417,73.0369787 Z M43.0700553,66.3774863 L38.3587787,76.8533442 L40.5040128,76.8533442 L41.4046085,74.8779127 L46.8952468,74.8779127 L47.7803957,76.8533442 L49.9406085,76.8533442 L45.2298,66.3774863 L43.0700553,66.3774863 Z" id="Fill-9" fill="#FEFEFE"></path>
                    <polygon id="Fill-11" fill="#FEFEFE" points="49.5520979 68.1733076 52.8815872 68.1733076 52.8815872 76.853531 54.8620553 76.853531 54.8620553 68.1733076 58.1924809 68.1733076 58.1924809 66.3772061 49.5520979 66.3772061"></polygon>
                    <path d="M62.4390894,71.5704893 L62.4390894,68.2178599 L65.4540255,68.2178599 C66.6996,68.2178599 67.2542809,69.056134 67.2542809,69.8944081 C67.2542809,70.7326822 66.7150468,71.5704893 65.4540255,71.5704893 L62.4390894,71.5704893 Z M66.5797702,73.1419614 C68.5742809,72.738002 69.2347489,71.2860832 69.2347489,69.8491086 C69.2347489,68.0385299 67.9292596,66.3918701 65.4540255,66.3773929 C63.7895149,66.3773929 62.1236,66.3619817 60.4590894,66.3619817 L60.4590894,76.8537178 L62.4390894,76.8537178 L62.4390894,73.3511797 L64.3441957,73.3511797 L67.4040681,76.8537178 L69.7594723,76.8537178 L69.7594723,76.7187533 L66.5797702,73.1419614 Z" id="Fill-13" fill="#FEFEFE"></path>
                    <g id="Group-17" transform="translate(0.000000, 80.662051)">
                        <mask id="mask-2" fill="white">
                            <use xlink:href="#path-1"></use>
                        </mask>
                        <g id="Clip-16"></g>
                        <path d="M5.23576596,6.64342741 L7.92070213,6.64342741 L7.92070213,8.49883858 C7.09640426,9.15778274 6.37602128,9.33711269 5.55031915,9.33711269 C2.94074468,9.33711269 1.93529787,7.55642234 1.93529787,5.83550863 C1.93529787,3.6802802 3.30023404,1.97384365 5.55031915,1.97384365 C6.4663617,1.97384365 7.51580851,2.34791472 8.22074468,3.02180305 L9.45134043,1.76462538 C8.37053191,0.701254822 6.96112766,0.163264975 5.55031915,0.163264975 C1.84495745,0.163264975 -0.000234042553,2.88683858 -0.000234042553,5.83550863 C-0.000234042553,8.58897056 1.60482979,11.1780467 5.55031915,11.1780467 C7.39504255,11.1780467 8.70146809,10.4747371 9.73640426,9.2918132 L9.73640426,4.87768122 L5.23576596,4.87768122 L5.23576596,6.64342741 Z" id="Fill-15" fill="#FEFEFE" mask="url(#mask-2)"></path>
                    </g>
                    <path d="M14.252817,86.3178558 L14.252817,82.9652264 L17.2682213,82.9652264 C18.5133277,82.9652264 19.0684766,83.8030335 19.0684766,84.6413076 C19.0684766,85.4795817 18.5287745,86.3178558 17.2682213,86.3178558 L14.252817,86.3178558 Z M21.0484766,84.5964751 C21.0484766,82.7858964 19.7434553,81.1392365 17.2682213,81.1242924 C15.6032426,81.1242924 13.9373277,81.1093482 12.272817,81.1093482 L12.272817,91.6006173 L14.252817,91.6006173 L14.252817,88.0985462 L16.1579234,88.0985462 L19.2182638,91.6006173 L21.5741362,91.6006173 L21.5741362,91.4656528 L18.3934979,87.8888609 C20.3880085,87.4849015 21.0484766,86.0334497 21.0484766,84.5964751 Z" id="Fill-18" fill="#FEFEFE"></path>
                    <path d="M28.3708255,90.0292853 C25.8951234,90.0292853 24.9650383,88.1883513 24.9201021,86.4674376 C24.875166,84.7012244 25.8951234,82.7108487 28.3708255,82.7108487 C30.8460596,82.7108487 31.8360596,84.6867472 31.8065702,86.4520264 C31.7756766,88.1734071 30.8460596,90.0292853 28.3708255,90.0292853 M28.3708255,80.9147472 C24.7398894,80.9147472 22.9695915,83.6836203 22.9695915,86.4370822 C22.9695915,89.1910112 24.6804426,91.839864 28.3708255,91.839864 C32.0612085,91.839864 33.7266553,89.1312345 33.7566128,86.4221381 C33.7861021,83.6836203 31.9863149,80.9147472 28.3708255,80.9147472" id="Fill-20" fill="#FEFEFE"></path>
                    <polygon id="Fill-22" fill="#FEFEFE" points="34.5912085 82.9206741 37.9221021 82.9206741 37.9221021 91.6004305 39.9021021 91.6004305 39.9021021 82.9206741 43.2329957 82.9206741 43.2329957 81.1241056 34.5912085 81.1241056"></polygon>
                    <polygon id="Fill-24" fill="#FEFEFE" points="45.012983 91.600664 52.8735362 91.600664 52.8735362 89.6546538 46.9775362 89.6546538 46.9775362 87.2906741 52.663366 87.2906741 52.663366 85.4502071 46.9775362 85.4502071 46.9775362 83.0395269 52.8735362 83.0395269 52.8735362 81.1243391 45.012983 81.1243391"></polygon>
                    <path d="M59.7046298,85.1950355 C58.4440766,85.0455939 57.3642043,84.7910761 57.3642043,83.8785482 C57.3642043,83.1000508 58.0691404,82.4864061 59.5389277,82.4864061 C60.6801191,82.4864061 61.6701191,83.0547513 62.0296085,83.6534518 L63.6047149,82.845066 C62.8103745,81.2292284 61.1154383,80.7654924 59.4799489,80.7654924 C57.544417,80.7804365 55.4141617,81.6635431 55.4141617,83.8183046 C55.4141617,86.1678071 57.3941617,86.7366193 59.5389277,86.9911371 C60.9342894,87.1405787 61.9692255,87.5450051 61.9692255,88.5327208 C61.9692255,89.6698782 60.7990128,90.1037259 59.5548426,90.1037259 C58.2793106,90.1037259 57.0641617,89.5951574 56.5988851,88.4430558 L54.9488851,89.2958071 C55.7287149,91.2114619 57.3787149,91.8699391 59.524417,91.8699391 C61.8639064,91.8699391 63.9347149,90.8672792 63.9347149,88.5327208 C63.9347149,86.0333096 61.8952681,85.4644975 59.7046298,85.1950355" id="Fill-26" fill="#FEFEFE"></path>
                    <polygon id="Fill-28" fill="#FEFEFE" points="74.7263234 81.1842558 74.7263234 81.1244792 72.2651319 81.1244792 68.2756426 85.5544893 68.2756426 81.1244792 66.2951745 81.1244792 66.2951745 91.6008041 68.2756426 91.6008041 68.2756426 86.9611086 72.6709617 91.6008041 75.1167064 91.6008041 75.1167064 91.4807838 70.0609191 86.1975553"></polygon>
                    <g id="Group-32" transform="translate(76.297872, 80.662051)">
                        <mask id="mask-4" fill="white">
                            <use xlink:href="#path-3"></use>
                        </mask>
                        <g id="Clip-31"></g>
                        <path d="M3.85528936,7.12252792 L5.80533191,2.66216244 L7.75537447,7.12252792 L3.85528936,7.12252792 Z M6.88520426,0.462101523 L4.72545957,0.462101523 L0.015587234,10.9384264 L2.16035319,10.9384264 L3.06001277,8.96299492 L8.55065106,8.96299492 L9.4358,10.9384264 L11.5960128,10.9384264 L6.88520426,0.462101523 Z" id="Fill-30" fill="#FEFEFE" mask="url(#mask-4)"></path>
                    </g>
                </g>
            </g>
        </g>
    </g>
</svg>