<?xml version="1.0" encoding="UTF-8" standalone="no"?>
<svg width="300px" height="191px" viewBox="0 0 300 191" version="1.1" xmlns="http://www.w3.org/2000/svg" xmlns:xlink="http://www.w3.org/1999/xlink">
    <!-- Generator: Sketch 50.2 (55047) - http://www.bohemiancoding.com/sketch -->
    <title>Group 10</title>
    <desc>Created with Sketch.</desc>
    <defs></defs>
    <g id="Page-1" stroke="none" stroke-width="1" fill="none" fill-rule="evenodd">
        <g id="iPhone-7-Copy-8" transform="translate(-57.000000, -176.000000)">
            <g id="Group-10" transform="translate(57.000000, 176.000000)">
                <g id="Group" transform="translate(35.691318, 115.755627)" fill="#F89419">
                    <path d="M27.7509329,0.518327974 C31.3706379,0.518327974 34.6299994,1.04501081 37.5291149,2.09839228 C40.4282305,3.15177376 42.8999827,4.61478163 44.9444457,6.48745981 C46.9889088,8.36013798 48.5557483,10.59227 49.6450114,13.1839228 C50.7342745,15.7755757 51.2788978,18.626351 51.2788978,21.7363344 C51.2788978,24.4115889 50.9018509,26.8861623 50.1477457,29.1601286 C49.3936405,31.434095 48.3630455,33.5993466 47.0559298,35.6559486 C45.7488141,37.7125505 44.2322475,39.7022412 42.5061844,41.6250804 C40.7801214,43.5479196 38.9451596,45.4958101 37.0012439,47.4688103 L22.6733166,62.1157556 C24.5166849,61.5807047 26.3348891,61.1543424 28.1279837,60.8366559 C29.9210783,60.5189695 31.6052213,60.3601286 33.1804633,60.3601286 L46.8548361,60.3601286 C48.5306254,60.3601286 49.8544791,60.8199311 50.826437,61.7395498 C51.7983948,62.6591686 52.2843664,63.8713751 52.2843664,65.3762058 L52.2843664,74.4051447 L0.804374868,74.4051447 L0.804374868,69.3890675 C0.804374868,68.4192878 1.00546657,67.3826422 1.40765602,66.2790997 C1.80984546,65.1755572 2.51366644,64.1723518 3.51914005,63.2694534 L24.6339803,42.0514469 C26.4438328,40.2456501 28.0190512,38.5234809 29.3596827,36.8848875 C30.7003142,35.2462941 31.8063185,33.6328054 32.677729,32.044373 C33.5491395,30.4559406 34.2026875,28.8675321 34.6383928,27.2790997 C35.074098,25.6906673 35.2919473,24.0102983 35.2919473,22.2379421 C35.2919473,19.3286028 34.5965052,17.0964708 33.2056,15.5414791 C31.8146949,13.9864874 29.6948531,13.2090032 26.8460112,13.2090032 C25.6729587,13.2090032 24.6004696,13.3762041 23.6285117,13.7106109 C22.6565539,14.0450177 21.7851565,14.4964602 21.0142934,15.0649518 C20.2434303,15.6334434 19.5815035,16.302247 19.028493,17.0713826 C18.4754825,17.8405183 18.031405,18.6765228 17.6962471,19.5794212 C17.1599945,21.0842519 16.48131,22.1710577 15.6601732,22.8398714 C14.8390364,23.508685 13.7246532,23.8430868 12.3169902,23.8430868 C11.9818323,23.8430868 11.621543,23.8263667 11.2361114,23.792926 C10.8506799,23.7594854 10.4568753,23.7093251 10.0546858,23.6424437 L1.80984345,22.1877814 C2.34609605,18.542747 3.37669104,15.3659299 4.90165935,12.6572347 C6.42662766,9.94853951 8.32024123,7.69132736 10.5825569,5.88553055 C12.8448725,4.07973374 15.4339282,2.73376649 18.3498017,1.84758842 C21.2656752,0.96141036 24.3993542,0.518327974 27.7509329,0.518327974 Z M112.109747,37.8379421 C112.109747,44.2251123 111.422684,49.7594621 110.048537,54.4411576 C108.674389,59.122853 106.772397,63.0019139 104.342502,66.0784566 C101.912608,69.1549993 99.0302934,71.4456516 95.6954726,72.9504823 C92.3606518,74.455313 88.7493799,75.207717 84.8615486,75.207717 C80.9737173,75.207717 77.379203,74.455313 74.077898,72.9504823 C70.776593,71.4456516 67.919415,69.1549993 65.5062783,66.0784566 C63.0931416,63.0019139 61.2079069,59.122853 59.8505175,54.4411576 C58.4931281,49.7594621 57.8144436,44.2251123 57.8144436,37.8379421 C57.8144436,31.4507719 58.4931281,25.9164221 59.8505175,21.2347267 C61.2079069,16.5530313 63.0931416,12.6739704 65.5062783,9.59742765 C67.919415,6.52088494 70.776593,4.23859265 74.077898,2.75048232 C77.379203,1.26237198 80.9737173,0.518327974 84.8615486,0.518327974 C88.7493799,0.518327974 92.3606518,1.26237198 95.6954726,2.75048232 C99.0302934,4.23859265 101.912608,6.52088494 104.342502,9.59742765 C106.772397,12.6739704 108.674389,16.5530313 110.048537,21.2347267 C111.422684,25.9164221 112.109747,31.4507719 112.109747,37.8379421 Z M96.0222499,37.8379421 C96.0222499,32.7883992 95.7038547,28.6501769 95.0670547,25.4231511 C94.4302548,22.1961253 93.5839938,19.6630317 92.5282465,17.8237942 C91.4724992,15.9845567 90.2743278,14.7221899 88.9336963,14.0366559 C87.5930649,13.351122 86.2356958,13.0083601 84.8615486,13.0083601 C83.4874013,13.0083601 82.1384111,13.351122 80.8145375,14.0366559 C79.4906639,14.7221899 78.317629,15.9845567 77.2953975,17.8237942 C76.273166,19.6630317 75.4520415,22.1961253 74.8319994,25.4231511 C74.2119574,28.6501769 73.901941,32.7883992 73.901941,37.8379421 C73.901941,42.9209257 74.2119574,47.0675081 74.8319994,50.2778135 C75.4520415,53.4881189 76.273166,56.0212126 77.2953975,57.8771704 C78.317629,59.7331283 79.4906639,61.0038551 80.8145375,61.6893891 C82.1384111,62.374923 83.4874013,62.7176849 84.8615486,62.7176849 C86.2356958,62.7176849 87.5930649,62.374923 88.9336963,61.6893891 C90.2743278,61.0038551 91.4724992,59.7331283 92.5282465,57.8771704 C93.5839938,56.0212126 94.4302548,53.4881189 95.0670547,50.2778135 C95.7038547,47.0675081 96.0222499,42.9209257 96.0222499,37.8379421 Z M126.789589,63.1691318 L140.866149,63.1691318 L140.866149,26.3009646 C140.866149,24.4951678 140.916422,22.6057976 141.016969,20.6327974 L132.721853,27.5048232 C132.185601,27.939552 131.649356,28.2488737 131.113103,28.4327974 C130.576851,28.6167212 130.057364,28.7086817 129.554627,28.7086817 C128.683217,28.7086817 127.903986,28.5164006 127.216913,28.1318328 C126.529839,27.747265 126.018731,27.3376228 125.683573,26.9028939 L120.756777,20.3819936 L143.580914,1.27073955 L156.450912,1.27073955 L156.450912,63.1691318 L168.516535,63.1691318 L168.516535,74.4051447 L126.789589,74.4051447 L126.789589,63.1691318 Z M198.177858,45.9138264 C195.798237,45.9138264 193.418652,45.4874641 191.039031,44.6347267 C188.65941,43.7819893 186.506053,42.4861823 184.578895,40.7472669 C182.651738,39.0083514 181.084898,36.8180196 179.87833,34.1762058 C178.671762,31.5343919 178.068486,28.4077351 178.068486,24.7961415 C178.068486,21.485514 178.68014,18.3588572 179.903467,15.4160772 C181.126793,12.4732972 182.869588,9.89840332 185.131903,7.69131833 C187.394219,5.48423334 190.100578,3.73698393 193.251062,2.44951768 C196.401546,1.16205144 199.920651,0.518327974 203.808482,0.518327974 C207.763345,0.518327974 211.299208,1.12025122 214.416176,2.32411576 C217.533144,3.5279803 220.172473,5.21670939 222.334241,7.3903537 C224.496009,9.56399801 226.155016,12.1472519 227.31131,15.1401929 C228.467605,18.1331339 229.045744,21.4353517 229.045744,25.0469453 C229.045744,27.4546744 228.853031,29.7118866 228.467599,31.8186495 C228.082168,33.9254125 227.545923,35.9401833 226.858849,37.8630225 C226.171776,39.7858617 225.342273,41.6250716 224.370315,43.3807074 C223.398357,45.1363432 222.30911,46.8668725 221.102542,48.5723473 L205.316685,70.9440514 C204.646369,71.9138312 203.590638,72.7331156 202.149459,73.4019293 C200.70828,74.0707429 199.082789,74.4051447 197.272936,74.4051447 L182.894736,74.4051447 L206.12106,46.7163987 C206.590281,46.1479071 207.034358,45.6045042 207.453306,45.0861736 C207.872253,44.5678431 208.282815,44.0411602 208.685005,43.5061093 C207.176794,44.3086857 205.534545,44.9106089 203.758209,45.3118971 C201.981872,45.7131853 200.121774,45.9138264 198.177858,45.9138264 Z M214.164809,23.6424437 C214.164809,21.8700876 213.905065,20.3067592 213.38557,18.9524116 C212.866076,17.598064 212.145497,16.4694579 211.223813,15.5665595 C210.302129,14.6636611 209.187746,13.9781374 207.88063,13.5099678 C206.573514,13.0417983 205.149115,12.807717 203.607388,12.807717 C202.032146,12.807717 200.632883,13.0835985 199.409557,13.6353698 C198.186231,14.187141 197.147257,14.9479051 196.292605,15.9176849 C195.437952,16.8874647 194.784404,18.0327908 194.331941,19.3536977 C193.879478,20.6746047 193.653249,22.1041724 193.653249,23.6424437 C193.653249,30.9325123 197.038293,34.577492 203.808482,34.577492 C207.126545,34.577492 209.682086,33.5826466 211.47518,31.592926 C213.268275,29.6032055 214.164809,26.9530712 214.164809,23.6424437 Z" id="2019"></path>
                    <path d="M200.531101,10.8898708 C198.277089,10.707351 195.990468,11.6760284 193.671237,13.7959028 C190.192392,16.9757145 190.201141,23.3361315 190.201141,27.2293574 C190.201141,31.1225833 194.468175,36.1141021 201.894325,36.1141021 C209.320475,36.1141021 216.163636,36.2640857 219.50091,28.5188992 C222.838183,20.7737127 215.694381,13.9133503 211.941937,12.4016106 C209.440307,11.393784 205.636695,10.8898708 200.531101,10.8898708 Z" id="Path-5-Copy-2"></path>
                </g>
                <g id="materia-logo_bw-copy" fill="#FFFFFF">
                    <path d="M35.2059566,24.1901644 C34.2068495,25.1347018 33.1625893,26.0350185 32.2166709,27.0307587 C29.3770026,30.0203068 26.5415434,33.0156733 23.7791709,36.0777587 C22.8822321,37.0723352 22.4383546,36.9435523 21.5758546,35.9834989 C18.3787883,32.4260648 15.0764923,28.9663815 11.7741964,25.5086377 C11.3383546,25.0528548 10.6752168,24.8205025 10.1176913,24.4845808 C9.93478316,25.1075488 9.5961352,25.7305167 9.59345663,26.3546484 C9.56016582,34.1723922 9.53567602,41.9912996 9.60952806,49.8086555 C9.62598214,51.5491644 9.15302296,52.2842356 7.34039541,52.134506 C5.56718112,51.9882676 3.77177296,52.0503317 1.989375,52.1170505 C0.521135204,52.1721324 0.00110969388,51.620926 0.00608418367,50.0770826 C0.0562117347,34.8287196 0.0386096939,19.5799687 0.0397576531,4.33121779 C0.0401403061,4.0084847 0.0405229592,3.6853637 0.0409056122,3.3622427 C0.0416709184,2.42352384 -0.240344388,1.11009324 1.0266199,1.04065907 C2.02266582,0.986353025 3.38070153,1.38239929 4.02547194,2.09342064 C8.94026786,7.51277651 13.7192219,13.0585879 18.5406505,18.5648335 C19.540523,19.7072 20.5759821,20.8200861 21.5287883,22.0008548 C22.3813393,23.0574954 23.0670536,23.0062925 23.9490689,21.9977516 C27.8884821,17.4915132 31.8749617,13.027168 35.841926,8.54536726 C37.8041709,6.32851673 39.6891199,4.03486192 41.7646301,1.93399359 C42.3565944,1.33507544 43.5841454,0.92700427 44.3502168,1.12056655 C44.8495791,1.24702206 45.3271301,2.61708612 45.3301913,3.43128897 C45.3875893,18.8092107 45.3734311,34.1871324 45.3722832,49.5650541 C45.3722832,51.9971893 45.2800638,52.0937765 42.9236862,52.1026982 C41.2028954,52.1100683 39.4759821,52.0123174 37.7628444,52.1282996 C36.2264923,52.2326448 35.7971556,51.6135559 35.8078699,50.1286733 C35.8641199,42.3109295 35.841926,34.4927979 35.8469005,26.6742783 C35.8472832,25.9842036 35.8469005,25.2941288 35.8469005,24.6036662 C35.6333801,24.4659616 35.419477,24.327869 35.2059566,24.1901644" id="Fill-1"></path>
                    <path d="M198.944464,17.1462043 C198.944464,18.5635922 198.983878,19.9825317 198.933367,21.3987559 C198.885536,22.756795 199.428138,23.4682043 200.806837,23.4604463 C203.095102,23.4484214 205.389107,23.550827 207.670867,23.4204925 C212.224056,23.1605993 214.625587,18.5120014 212.543189,14.332763 C211.627117,12.4933395 210.206709,11.4382505 208.327883,11.2974427 C205.735791,11.1034925 203.118444,11.2741687 200.513342,11.2252932 C199.315255,11.202795 198.94676,11.8393395 198.943699,12.8936527 C198.939872,14.3110406 198.942934,15.7288164 198.944464,17.1462043 M224.539362,52.0750797 C221.267296,52.0750797 218.132602,52.3194569 215.074821,51.9327203 C214.1025,51.809368 213.127883,50.1200619 212.513724,48.9528698 C209.985918,44.1510512 207.615,39.2650584 205.147653,34.4306562 C204.292041,32.7533751 201.02801,31.7196206 199.57852,32.7397986 C199.147653,33.0427488 198.970485,33.9620726 198.965128,34.6009445 C198.919592,39.7049374 198.880944,44.8108698 198.980816,49.9136989 C199.014872,51.6499409 198.39574,52.2158875 196.763342,52.1239552 C195.047526,52.027368 193.316786,52.0122399 191.603265,52.1289979 C189.960536,52.2403253 189.389235,51.7096776 189.402245,49.9579196 C189.477628,39.4264249 189.439362,28.8941544 189.439745,18.3622719 C189.439745,13.5810121 189.517041,8.79781281 189.402245,4.01888043 C189.355944,2.09023986 190.080689,1.55610107 191.865383,1.58209039 C197.218316,1.66044626 202.578138,1.46300498 207.926097,1.64997295 C213.67852,1.85090534 218.744847,3.6666669 221.543571,9.31488399 C222.98426,12.222973 223.46602,15.3579836 223.124311,18.6314747 C222.771888,22.0174569 221.874184,25.1706989 219.331837,27.529521 C218.065638,28.7040833 216.611173,29.7479231 215.082474,30.5318698 C213.716786,31.2320299 213.678138,31.9457665 214.333622,33.1083039 C217.717041,39.1102861 221.082474,45.1223537 224.444082,51.1371367 C224.527883,51.287642 224.487321,51.5099089 224.539362,52.0750797" id="Fill-5"></path>
                    <path d="M78.3327168,24.1583566 C77.7342474,25.0198833 77.2651148,25.4981644 77.0286352,26.0745843 C76.4787628,27.4140043 76.0513393,28.8042391 75.5558036,30.1661573 C74.9240434,31.9020114 74.2433036,33.62041 73.6402423,35.3663495 C73.0547832,37.0610861 73.5617985,37.7767623 75.3154974,37.7980968 C76.9723852,37.8182676 78.6296556,37.8058548 80.2865434,37.8012 C82.3876913,37.7953815 82.9000638,37.1018157 82.2135842,35.138652 C81.0032526,31.6770292 79.770727,28.2231644 78.3327168,24.1583566 M78.4524872,0.168271174 C85.3367985,17.4100541 92.1698342,34.5226662 99.1704719,52.0553744 C95.6385842,52.0553744 92.4216199,52.165926 89.2257015,51.9537445 C88.6509566,51.9157302 87.9277423,50.6216947 87.6751913,49.7830541 C86.7575893,46.7333815 86.8222577,46.7139865 83.6799107,46.7143744 C79.9819515,46.7147623 76.2839923,46.7135986 72.5856505,46.7139865 C69.3824617,46.7143744 69.2251913,46.6709295 68.3722577,49.8047765 C67.8526148,51.71441 66.8948342,52.2089829 65.1135842,52.1310149 C62.4690689,52.0146448 59.8161352,52.1007587 57.0882015,52.1007587 C59.4862883,43.8652463 77.1116709,0.933598577 78.4524872,0.168271174" id="Fill-11"></path>
                    <path d="M279.007883,24.5212374 C278.75648,24.5410203 278.505077,24.5608032 278.253291,24.5805861 C276.809541,28.4913975 275.329821,32.3894082 273.991301,36.3370701 C273.884541,36.6508815 274.734031,37.7051947 275.183648,37.7354509 C277.395765,37.8844046 279.625102,37.8657854 281.843724,37.7785078 C282.941556,37.735063 283.632245,37.2594972 283.042577,35.8840025 C282.443342,34.4848459 282.05648,32.9929811 281.545638,31.553095 C280.712985,29.2043584 279.855459,26.8645434 279.007883,24.5212374 M257.464133,52.103668 C264.537092,34.3859313 271.397679,17.1980665 278.258648,0.0105896797 C278.486709,0.00748647687 278.714388,0.00360747331 278.942449,0.000116370107 C285.81949,17.2213406 292.696531,34.441789 299.748444,52.1005648 C296.086071,52.1005648 293.068469,52.3472694 290.135051,51.9508352 C289.248827,51.8305861 288.287602,50.0252979 287.91375,48.8162125 C287.419362,47.2161235 286.641429,46.6684082 285.066429,46.6912943 C280.730969,46.7541342 276.393597,46.7502552 272.058138,46.6905185 C270.465536,46.6687961 269.682245,47.2192267 269.325995,48.8895256 C268.68926,51.8763584 268.240026,52.1052196 265.157755,52.1040559 C262.810561,52.1028922 260.463367,52.103668 257.464133,52.103668" id="Fill-13"></path>
                    <path d="M174.531276,11.2367751 C170.189694,11.2367751 166.058571,11.3232769 161.933954,11.1975972 C160.066607,11.1409637 159.44977,11.778284 159.567245,13.6332235 C159.701173,15.7562021 159.683954,17.8997395 159.568393,20.0250456 C159.486122,21.5397964 159.986633,22.0886754 161.490459,22.0479459 C164.611378,21.9637715 167.738036,22.0890633 170.857041,21.9796754 C172.328342,21.9284726 172.738546,22.4672662 172.689949,23.8765082 C172.604235,26.3869993 172.666224,28.9021452 172.666224,31.6930883 L159.626173,31.6930883 C159.626173,35.1108783 159.562653,38.2579139 159.708444,41.3948641 C159.726046,41.7796612 160.857551,42.4045687 161.484337,42.4196968 C165.433699,42.5158961 169.387653,42.5364548 173.336633,42.4414192 C174.925408,42.403405 175.48102,42.9146577 175.375026,44.53259 C175.24875,46.4623943 175.304617,48.4081025 175.359337,50.3445011 C175.393776,51.5582413 174.963673,52.1144904 173.715459,52.1098356 C166.322602,52.0838463 158.929745,52.0722093 151.536888,52.1086719 C149.846709,52.1172057 149.985995,51.0345758 149.98676,49.901131 C149.997092,35.1062235 149.995561,20.3120918 149.999005,5.51718434 C149.99977,1.59318434 150.002449,1.59163274 153.807934,1.59008114 C159.989694,1.58775374 166.172219,1.62770747 172.353597,1.55982491 C173.978724,1.54198149 174.665204,2.00552242 174.564949,3.76581423 C174.42949,6.14170391 174.531276,8.53155801 174.531276,11.2367751" id="Fill-17"></path>
                    <path d="M103.509528,11.2265733 C103.509528,8.34718897 103.459018,5.82893986 103.552768,3.31573345 C103.571135,2.826979 104.050982,2.15591139 104.495625,1.93248078 C105.082232,1.63728861 105.844477,1.6233242 106.530957,1.6217726 C116.155064,1.60237758 125.778788,1.64077972 135.402513,1.57134555 C137.129426,1.55932064 137.838865,2.07173701 137.754681,3.88129217 C137.64486,6.24787224 137.727895,8.62376192 137.727895,11.223858 C134.253406,11.223858 131.021518,11.2223064 127.790013,11.2242459 C125.452385,11.2257975 125.349452,11.3204452 125.348686,13.7638295 C125.34486,25.7162032 125.312717,37.6689648 125.385421,49.6205626 C125.396901,51.5170075 124.947283,52.3630181 122.941033,52.1322174 C121.494222,51.9658082 120.013355,52.1035128 118.547411,52.1015733 C116.021518,52.0984701 115.941543,52.0290359 115.940395,49.5111747 C115.936569,37.6879719 115.938865,25.864769 115.939247,14.0415662 C115.939247,11.2246338 115.93963,11.2254096 113.215523,11.2261854 C110.045242,11.2269612 106.874962,11.2265733 103.509528,11.2265733" id="Fill-19"></path>
                    <path d="M245.742857,52.0833808 C242.788776,52.0833808 240.185969,52.1586335 237.594643,52.0158861 C237.114796,51.9895089 236.589031,51.1361281 236.263393,50.5600961 C236.071684,50.2210712 236.232398,49.6772349 236.232398,49.2257189 C236.233546,34.1220427 236.258036,19.0187544 236.203699,3.91546619 C236.197959,2.19357651 236.879082,1.58263345 238.43227,1.59271886 C240.151148,1.60396797 241.875383,1.67495374 243.587755,1.56556584 C245.261097,1.45850534 245.784184,2.09543772 245.772321,3.79560498 C245.704592,13.2832598 245.741709,22.7713025 245.742474,32.2593452 C245.74324,38.0037616 245.742857,43.7481779 245.742857,49.4925943 L245.742857,52.0833808 Z" id="Fill-21"></path>
                    <g id="Group" stroke-width="1" transform="translate(27.168367, 56.633452)">
                        <path d="M175.419528,52.1841573 L175.419528,24.3150683 C175.225523,24.2467979 175.031518,24.1777516 174.837513,24.1090932 C173.83764,25.1013423 172.815191,26.0707053 171.84287,27.0897196 C169.072079,29.9927658 166.30014,32.8950363 163.576798,35.8434669 C162.704349,36.7880043 162.10588,36.9722569 161.123992,35.889627 C158.091849,32.5482534 154.952181,29.306958 151.843508,26.0377338 C151.209069,25.3709331 150.527181,24.7506804 149.458814,23.7118833 C149.307283,25.0206591 149.152691,25.7394384 149.151543,26.4582178 C149.137768,34.2779011 149.109452,42.0983601 149.182156,49.9172676 C149.19861,51.6760078 148.677819,52.3804349 146.882028,52.2276021 C145.172717,52.0825274 143.440064,52.146531 141.721186,52.2120861 C140.198992,52.2702712 139.594018,51.7431146 139.599375,50.0809616 C139.649885,34.3772036 139.61736,18.6726698 139.645676,2.96852384 C139.646824,2.34361637 139.954477,1.21909324 140.221569,1.18650961 C141.081008,1.08216441 142.245804,1.07595801 142.826288,1.58178007 C144.337385,2.89792598 145.623482,4.48599004 146.957793,6.00306833 C151.701926,11.3952712 156.442615,16.7898014 161.146952,22.2169153 C161.947844,23.140506 162.487003,23.323595 163.380497,22.2952712 C168.84287,16.0081822 174.354222,9.76531388 179.855242,3.51236014 C180.483176,2.79901139 181.050268,1.95300071 181.828967,1.47588327 C182.457666,1.09147402 183.417742,0.953381495 184.122589,1.13569466 C184.491084,1.23150605 184.809452,2.24547758 184.833941,2.85758434 C184.918125,4.9867694 184.863023,7.12138505 184.863023,9.25406121 C184.863406,22.6963601 184.865319,36.139047 184.863788,49.580958 C184.863406,52.0895096 184.752054,52.1915274 182.269783,52.185321 C180.113151,52.1798904 177.956135,52.1841573 175.419528,52.1841573" id="Fill-3"></path>
                        <path d="M62.9372832,23.1976826 C65.8863903,23.1976826 68.510625,22.9913196 71.0920026,23.242679 C75.7576913,23.6969103 77.7620281,19.634042 77.1153444,15.8620989 C76.7740179,13.872558 74.6686607,11.6432947 72.8426403,11.5816185 C69.9803954,11.4842555 67.1124107,11.4873587 64.2497832,11.5614477 C63.804375,11.5726968 63.0042474,12.1762698 62.9946811,12.5234406 C62.9001658,15.9893302 62.9372832,19.458711 62.9372832,23.1976826 M88.4177679,52.2071986 C85.1954464,52.2071986 82.3255485,52.3142591 79.4732526,52.1350491 C78.7274617,52.0881132 77.7570536,51.3107609 77.3659821,50.5997395 C75.4450638,47.1047573 73.6959566,43.5131879 71.8626658,39.9677786 C70.7954464,37.9045367 69.711773,35.8486648 68.5814158,33.8203338 C68.041875,32.8532982 63.7959566,32.2617502 63.2200638,33.1089246 C62.8978699,33.5829388 62.8936607,34.3381808 62.8905995,34.9673552 C62.865727,39.942953 62.801824,44.9204904 62.9135587,49.8937609 C62.9552679,51.742106 62.2695536,52.3061132 60.5736352,52.2122413 C58.9213393,52.1206968 57.2529719,52.1001381 55.6045026,52.2231025 C53.9047577,52.3503338 53.4030995,51.6784904 53.416875,49.9969423 C53.4849872,41.5969601 53.453227,33.1954263 53.4536097,24.7946683 C53.454375,17.815953 53.493023,10.8364619 53.4172577,3.85813452 C53.3996556,2.25067544 53.8760587,1.74601708 55.4744005,1.7692911 C61.3377934,1.85501708 67.2030995,1.78480712 73.068023,1.80924484 C80.3874107,1.84027687 86.0311607,7.13317722 86.9265689,14.3585972 C87.6088393,19.8609637 86.4593495,24.6422235 82.3772066,28.474679 C81.5812883,29.2217751 80.5645791,29.7877217 79.5624107,30.2372982 C77.6854974,31.079042 77.5140689,31.5297822 78.5235077,33.3482591 C81.739324,39.1407751 84.9321811,44.945316 88.1108801,50.7587786 C88.3022066,51.107889 88.2899617,51.5714299 88.4177679,52.2071986" id="Fill-7"></path>
                        <path d="M15.1203827,23.3677769 C15.1257398,23.308816 15.1307143,23.2490794 15.1364541,23.1897306 C16.2166837,23.1897306 17.3091582,23.0849975 18.3759949,23.2091256 C21.6893878,23.5946986 23.5923214,20.6862217 23.9221684,18.1613783 C24.3247194,15.0830011 22.1761224,11.6702537 19.5687245,11.5492288 C16.71375,11.4165669 13.8492092,11.5069477 10.9892602,11.4743641 C9.95303571,11.4623391 9.48160714,11.9200616 9.5007398,12.97709 C9.52790816,14.4584815 9.4827551,15.9414246 9.51528061,17.422816 C9.55431122,19.2168552 8.97076531,21.7075633 9.88951531,22.616026 C10.9066071,23.6214637 13.3169388,23.1796452 15.1203827,23.3677769 M0.0381122449,26.8367698 C0.0361989796,19.1470331 0.075994898,11.4569085 0.00290816327,3.76794769 C-0.0116326531,2.22294057 0.464770408,1.76289075 1.95443878,1.77879466 C8.13696429,1.84473772 14.3248469,1.67522527 20.5031633,1.85249573 C25.498699,1.99563096 30.5535459,5.22334982 32.2716582,10.5034495 C32.9022704,12.4413996 33.5722959,14.4006843 33.8830102,16.4045776 C34.6490816,21.342937 30.8298214,28.8336808 26.2444898,30.9457982 C24.0170663,31.9721826 21.4613265,32.437663 19.0046939,32.7328552 C16.5534184,33.0272715 14.0370918,32.8651292 11.5555867,32.7611719 C9.94346939,32.6936772 9.4632398,33.3387555 9.48505102,34.9101399 C9.55469388,39.9497413 9.45214286,44.9916701 9.54091837,50.0304957 C9.57114796,51.7446274 9.01477041,52.3493641 7.33186224,52.2167021 C5.68454082,52.0871434 4.01579082,52.1309762 2.36272959,52.2159263 C0.69130102,52.3016523 -0.0223469388,51.7791505 0.000612244898,49.9059797 C0.095127551,42.2174068 0.0400255102,34.5268943 0.0381122449,26.8367698" id="Fill-9"></path>
                        <path d="M224.468265,37.5840922 C225.422602,37.5840922 226.377321,37.6019356 227.331276,37.5798253 C229.150408,37.5383199 229.456148,37.0507292 228.841607,35.3497861 C227.720051,32.2461954 226.645561,29.1251491 225.502959,26.0300922 C225.336122,25.5781883 224.902194,25.2271384 224.591862,24.8295406 C224.269286,25.2348964 223.81852,25.590989 223.645561,26.0537541 C222.515969,29.0739463 221.474388,32.1274979 220.34824,35.1488537 C219.645306,37.0352132 219.95602,37.5515085 221.98676,37.5794374 C222.814056,37.5914623 223.640969,37.5813769 224.468265,37.5840922 M203.432296,52.1904801 C204.262653,50.1342203 204.998878,48.3487149 205.707551,46.5511847 C208.21125,40.2004801 210.687781,33.8389142 213.209464,27.4951918 C214.779107,23.5463662 216.416862,19.6250815 218.012526,15.6871171 C219.91699,10.9861527 221.79926,6.27549075 223.722857,1.58228434 C223.907296,1.13154413 224.313673,0.7739 224.617117,0.373198932 C224.912908,0.803380427 225.297092,1.19593559 225.491097,1.66878612 C228.353724,8.64013132 231.224388,15.6083733 234.025026,22.6053199 C236.451429,28.6682025 238.764949,34.7776331 241.181786,40.8447826 C242.513801,44.1892594 243.941862,47.4953342 245.355765,50.8060637 C245.73727,51.6993982 245.562398,52.186989 244.564821,52.1916438 C241.825026,52.2056082 239.074515,52.3336153 236.353852,52.105142 C235.63102,52.0438537 234.702704,50.9829463 234.377832,50.1718466 C232.920689,46.5302381 232.986888,46.5104552 229.085357,46.5213164 C225.89977,46.5302381 222.714184,46.5224801 219.528597,46.5158858 C216.264949,46.5092915 215.977194,46.5682523 215.07375,49.6559391 C214.473367,51.7083199 213.457806,52.4018858 211.377321,52.2378039 C208.85602,52.0391989 206.308316,52.1904801 203.432296,52.1904801" id="Fill-15"></path>
                        <path d="M116.669962,1.79725872 L116.669962,4.57074626 C116.669962,19.5530096 116.670727,34.5348851 116.668814,49.5171484 C116.668431,52.2084011 116.663457,52.2084011 114.018176,52.201031 C112.425574,52.197152 110.829145,52.1195719 109.241901,52.2099527 C107.796237,52.2925754 107.287691,51.5897 107.287309,50.2677356 C107.286926,48.5885149 107.281186,46.9096822 107.281186,45.2308495 C107.283099,31.6046858 107.284247,17.97891 107.289222,4.35274626 C107.289987,1.81199893 107.334375,1.7821306 109.858355,1.79493132 C112.016901,1.80618043 114.174681,1.79725872 116.669962,1.79725872" id="Fill-23"></path>
                    </g>
                    <polygon id="Path-5" points="76.7720125 20.3617382 64.7184411 42.7417705 89.3494898 42.7417705 82.2038923 20.3617382"></polygon>
                    <polygon id="Path-12" points="196.082789 6.8041662 196.082789 27.7507854 212.53687 27.7507854 219.233299 17.2774758 212.53687 6.8041662"></polygon>
                    <polygon id="Path-13" points="33.2908163 64.3316073 33.2908163 86.4502613 43.622449 86.4502613 55.1020408 80.4378058 57.2066327 72.0820382 53.2470703 64.3316073"></polygon>
                </g>
            </g>
        </g>
    </g>
</svg>