<?xml version="1.0" encoding="UTF-8" standalone="no"?>
<svg width="114px" height="118px" viewBox="0 0 114 118" version="1.1" xmlns="http://www.w3.org/2000/svg" xmlns:xlink="http://www.w3.org/1999/xlink">
    <!-- Generator: Sketch 49.3 (51167) - http://www.bohemiancoding.com/sketch -->
    <title>Page 1</title>
    <desc>Created with Sketch.</desc>
    <defs>
        <path d="M0.104609945,59.0011678 C0.104609945,91.4950751 25.4290055,117.836009 56.6717945,117.836009 C87.9145834,117.836009 113.239193,91.4950751 113.239193,59.0011678 C113.239193,26.504585 87.9145834,0.166103753 56.6717945,0.166103753 C25.4290055,0.166103753 0.104609945,26.504585 0.104609945,59.0011678 Z" id="path-1"></path>
        <linearGradient x1="0%" y1="0%" x2="101.999998%" y2="100.999999%" id="linearGradient-3">
            <stop stop-color="#3023AE" offset="0%"></stop>
            <stop stop-color="#C86DD7" offset="100%"></stop>
        </linearGradient>
        <polygon id="path-4" points="0 102 96 102 96 2.84217094e-14 0 2.84217094e-14"></polygon>
    </defs>
    <g id="Page-1" stroke="none" stroke-width="1" fill="none" fill-rule="evenodd">
        <g id="Customers" transform="translate(-858.000000, -864.000000)">
            <g id="Page-1" transform="translate(858.000000, 864.000000)">
                <g id="Group-3" transform="translate(0.300552, 0.081773)">
                    <mask id="mask-2" fill="white">
                        <use xlink:href="#path-1"></use>
                    </mask>
                    <g id="Clip-2"></g>
                    <polygon id="Fill-1" fill="url(#linearGradient-3)" mask="url(#mask-2)" points="-40.3005525 159.860927 153.644141 159.860927 153.644141 -41.8588146 -40.3005525 -41.8588146"></polygon>
                </g>
                <g id="Group-24" transform="translate(7.000000, 9.165658)">
                    <path d="M47.5276897,14.9082746 L42.1927969,14.9082746 C31.148945,14.9214291 22.1992212,24.229928 22.1867881,35.7162812 L22.1867881,38.0481996 L15.683608,50.3055417 C15.5753538,50.5108861 15.5183328,50.7412018 15.5181185,50.9755307 C15.5159748,51.0542349 15.5159748,51.133385 15.5181185,51.2118662 C15.5809273,53.4452371 17.3723726,55.2025925 19.5192345,55.1370428 C20.4894488,55.1932283 21.4200057,55.5555351 22.1867881,56.1760274 L22.1867881,60.685577 C22.1835726,60.7917051 22.1835726,60.8980561 22.1867881,61.0039611 C22.2712477,63.9806742 24.6596986,66.3226256 27.5216809,66.2345572 L35.5241273,66.2345572 C35.599798,66.2367868 35.6756831,66.2367868 35.7515682,66.2345572 C37.8986444,66.1692305 39.5880522,64.30597 39.5252433,62.0728221 L39.5252433,53.7497978 L36.8579041,53.7497978 L36.8579041,62.0728221 C36.8656212,62.1555395 36.8656212,62.2384799 36.8579041,62.3207514 C36.7918798,63.0186102 36.1948743,63.5285152 35.5241273,63.4602901 L27.5216809,63.4602901 C27.415356,63.4672018 27.3086024,63.4672018 27.2020632,63.4602901 C25.8172676,63.3684313 24.7660234,62.126332 24.8541273,60.6858 L24.8541273,55.5145108 C24.8543417,55.1171996 24.6907814,54.7388397 24.404819,54.4755263 C23.0671836,53.1937404 21.3364035,52.4450472 19.5192345,52.3627757 C19.5134466,52.3634446 19.5074444,52.3643364 19.5014422,52.3650053 C18.8585627,52.435683 18.2817074,51.9511951 18.2135394,51.282098 L24.6888522,39.0749214 C24.7971063,38.869577 24.8541273,38.6390384 24.8541273,38.4049325 L24.8541273,35.7162812 C24.8654886,25.7614269 32.6214157,17.6941355 42.1927969,17.6827647 L47.5118267,17.6827647 C47.5928566,17.6736234 47.6747439,17.6731775 47.7559881,17.6814269 C48.4299505,17.7469766 48.9251328,18.3688066 48.8614665,19.0697868 L48.8614665,26.005789 L51.5288057,26.005789 L51.5288057,19.0700097 C51.5311638,18.9910826 51.5311638,18.9123784 51.5288057,18.8334512 C51.4662113,16.6003033 49.674766,14.8429479 47.5276897,14.9082746" id="Fill-4" fill="#FFFFFF"></path>
                    <path d="M70.201145,56.5243547 L55.530029,56.5243547 L55.530029,59.2983989 L70.2009306,59.2983989 C70.2804599,59.2903724 70.3602035,59.2903724 70.4393041,59.2983989 C71.1102654,59.3672929 71.6007317,59.9880082 71.5347074,60.6858669 L71.5347074,63.3078536 C71.3426367,64.1359199 70.0568776,69.0088912 66.1998146,69.0088912 C65.4630433,69.0088912 64.8660378,69.6300523 64.8660378,70.3961362 L64.8660378,78.7193834 L39.5251361,78.7193834 L39.5251361,74.5578713 L36.8580113,74.5578713 L36.8580113,80.1068514 C36.8580113,80.8729353 37.4550168,81.4938735 38.1915737,81.4938735 L66.200029,81.4938735 C66.9365859,81.4938735 67.5338057,80.8729353 67.5338057,80.1068514 L67.5338057,71.6616461 C71.7029836,70.8416064 73.6903582,66.2662841 74.1756798,63.7379397 C74.1936864,63.646304 74.2024754,63.5533305 74.202261,63.460134 L74.202261,60.6860898 C74.204619,60.6071627 74.204619,60.5282355 74.202261,60.4493084 C74.1396665,58.2161605 72.3482212,56.4588051 70.201145,56.5243547" id="Fill-6" fill="#FFFFFF"></path>
                    <path d="M78.2035056,31.5545684 L74.8411962,31.5545684 C74.6999299,31.1425419 74.5385134,30.738319 74.3569465,30.3436832 L76.736394,27.8690717 C77.2568714,27.3275066 77.2568714,26.4492748 76.736394,25.9074868 L72.963362,21.982979 C72.4424559,21.4416369 71.5980736,21.4416369 71.0771675,21.982979 L68.6979344,24.4578135 C68.3182946,24.2698598 67.9296515,24.1024183 67.53372,23.9557119 L67.53372,20.457277 C67.53372,19.6909702 66.9365001,19.0698091 66.1997288,19.0698091 L60.864836,19.0698091 C60.1284935,19.0698091 59.5312736,19.6909702 59.5312736,20.457277 L59.5312736,23.955489 C58.8050062,24.2221468 58.1055344,24.5619349 57.4425045,24.9695022 L58.7977178,27.3584978 C59.5475653,26.8989812 60.35572,26.5513896 61.1983874,26.3248642 C61.7872471,26.166787 62.1983985,25.6145199 62.1986128,24.9819879 L62.1986128,21.8442991 L64.865952,21.8442991 L64.865952,24.9819879 C64.865309,25.6142969 65.2756029,26.1672329 65.8636051,26.3264249 C66.7062725,26.5527274 67.5144272,26.9007649 68.2644891,27.3600585 C68.7886106,27.6820099 69.4559277,27.5939415 69.8863719,27.1462417 L72.0203719,24.9264713 L73.9074239,26.8853808 L71.7736382,29.1049283 C71.3425509,29.5521821 71.2576625,30.2462506 71.5669907,30.7918289 C72.009225,31.5715132 72.3444913,32.4120651 72.5631432,33.2885132 C72.7149134,33.9005331 73.2454659,34.3283896 73.8529752,34.3290585 L76.8697288,34.3290585 L76.8697288,37.1019879 L73.8555476,37.1019879 C73.2478239,37.1028797 72.7177001,37.5307362 72.5657156,38.1427561 C72.3470636,39.0189812 72.0117973,39.8597561 71.5693487,40.6394404 C71.2600206,41.1847958 71.3451233,41.8790872 71.7759962,42.3263411 L73.9102106,44.5458885 L72.0240161,46.5072506 L69.8902305,44.2877031 C69.4597863,43.8402263 68.7924692,43.7521578 68.2683476,44.0741093 C67.5182857,44.5336258 66.710131,44.8812174 65.867678,45.1077428 C65.2788183,45.2658201 64.8674526,45.8180872 64.8674526,46.4506192 L64.8674526,49.5883079 L62.199899,49.5883079 L62.199899,46.451734 C62.199899,45.8194249 61.7883189,45.2671578 61.1996736,45.1090806 C60.3570062,44.8827781 59.5490659,44.5349636 58.7987896,44.07567 C58.2746681,43.7534956 57.6073509,43.8413411 57.1771211,44.2892638 L55.0433355,46.5083653 L53.1573554,44.5470033 L55.2913554,42.3274558 C55.7222283,41.8804249 55.807331,41.1861336 55.4980029,40.6405552 C55.0555543,39.8606479 54.720288,39.020096 54.5018504,38.1438709 C54.3498659,37.531851 53.8195277,37.1042174 53.2120183,37.1033256 L48.861488,37.1033256 L48.861488,39.8775927 L52.2250835,39.8775927 C52.3657067,40.2898422 52.526909,40.6938422 52.7076183,41.0887009 L50.3285996,43.5633124 C49.8079078,44.1048775 49.8079078,44.9831093 50.3285996,45.5248974 L54.1016316,49.4491821 C54.6223233,49.9907472 55.4667056,49.9907472 55.9876117,49.4491821 L58.3668449,46.9745706 C58.7464846,47.1625243 59.1351277,47.3299658 59.5312736,47.4766722 L59.5312736,50.9751071 C59.5312736,51.7414139 60.1284935,52.3623521 60.864836,52.3623521 L66.1999432,52.3623521 C66.9365001,52.3623521 67.5339344,51.7414139 67.5339344,50.9751071 L67.5339344,47.4780099 C67.9296515,47.3315265 68.318509,47.1636391 68.6981487,46.9759084 L71.0773819,49.4491821 C71.5980736,49.9907472 72.4424559,49.9907472 72.963362,49.4491821 L76.736394,45.5248974 C77.2570857,44.9831093 77.2570857,44.1051004 76.736394,43.5633124 L74.3558747,41.0887009 C74.5370128,40.6938422 74.6986438,40.2898422 74.8399101,39.8775927 L78.2035056,39.8775927 C78.9400625,39.8775927 79.5372824,39.2564316 79.5372824,38.4901247 L79.5372824,32.9420364 C79.5372824,32.1757296 78.9400625,31.5545684 78.2035056,31.5545684" id="Fill-8" fill="#FFFFFF"></path>
                    <path d="M63.5324968,38.4906598 C62.0591686,38.4906598 60.8649432,37.2485605 60.8649432,35.7163927 C60.8649432,34.184002 62.0591686,32.9419026 63.5324968,32.9419026 C65.0056106,32.9419026 66.199836,34.184002 66.199836,35.7163927 C66.2000504,37.2485605 65.005825,38.4906598 63.5324968,38.4906598 M63.5324968,30.1674126 C60.5860548,30.1674126 58.1973896,32.6520572 58.1973896,35.7163927 C58.1973896,38.7807283 60.5858404,41.2651499 63.5324968,41.2651499 C66.4787244,41.2651499 68.8673896,38.7807283 68.8673896,35.7163927 C68.8673896,32.6520572 66.4789388,30.1674126 63.5324968,30.1674126" id="Fill-10" fill="#FFFFFF"></path>
                    <path d="M35.5241059,37.1034817 L35.5241059,38.4907267 L31.5229898,38.4907267 L31.5229898,37.1034817 L28.8554362,37.1034817 L28.8554362,38.4907267 C28.8547931,38.5290755 28.8547931,38.5672013 28.8554362,38.6055501 C28.8860904,40.1060578 30.0803158,41.2966539 31.5229898,41.2649938 L35.5241059,41.2649938 C35.5609766,41.2658857 35.5976329,41.2658857 35.634718,41.2649938 C37.077392,41.2331108 38.2220992,39.9912344 38.1914451,38.4907267 L38.1914451,37.1034817 L35.5241059,37.1034817 Z" id="Fill-12" fill="#FFFFFF"></path>
                    <path d="M52.8626254,59.2984881 C52.1258541,59.2984881 51.5288486,58.6775499 51.5288486,57.911243 C51.5288486,57.1451592 52.1258541,56.524221 52.8626254,56.524221 C53.5993967,56.524221 54.1964022,57.1451592 54.1964022,57.911243 C54.1964022,58.6775499 53.5993967,59.2984881 52.8626254,59.2984881 M52.8626254,53.7497309 C50.6527403,53.7497309 48.8615094,55.6129914 48.8615094,57.911243 C48.8615094,60.2097177 50.6527403,62.0727552 52.8626254,62.0727552 C55.0725105,62.0727552 56.8637414,60.2097177 56.8637414,57.911243 C56.8637414,55.6129914 55.0725105,53.7497309 52.8626254,53.7497309" id="Fill-14" fill="#FFFFFF"></path>
                    <path d="M38.191638,52.3628426 C37.4548667,52.3628426 36.8578612,51.7414585 36.8578612,50.9753746 C36.8578612,50.2092907 37.4548667,49.5883525 38.191638,49.5883525 C38.9281949,49.5883525 39.5254148,50.2092907 39.5254148,50.9753746 C39.5252004,51.7414585 38.9281949,52.3628426 38.191638,52.3628426 M38.191638,46.8136395 C35.9817529,46.8136395 34.190522,48.677123 34.190522,50.9753746 C34.190522,53.2736263 35.9817529,55.1368868 38.191638,55.1368868 C40.4015231,55.1368868 42.192754,53.2736263 42.192754,50.9753746 C42.192754,48.677123 40.4015231,46.8136395 38.191638,46.8136395" id="Fill-16" fill="#FFFFFF"></path>
                    <path d="M50.1952004,30.1674126 C49.4584292,30.1674126 48.8614236,29.5464744 48.8614236,28.7803905 C48.8614236,28.0143066 49.4584292,27.3931455 50.1952004,27.3931455 C50.9317573,27.3931455 51.5287629,28.0143066 51.5287629,28.7803905 C51.5287629,29.5464744 50.9317573,30.1674126 50.1952004,30.1674126 M50.1952004,24.6186554 C47.9853154,24.6186554 46.1938701,26.4819159 46.1938701,28.7803905 C46.1938701,31.0786422 47.9853154,32.9419026 50.1952004,32.9419026 C52.4050855,32.9419026 54.1965308,31.0786422 54.1965308,28.7803905 C54.1965308,26.4819159 52.4050855,24.6186554 50.1952004,24.6186554" id="Fill-18" fill="#FFFFFF"></path>
                    <mask id="mask-5" fill="white">
                        <use xlink:href="#path-4"></use>
                    </mask>
                    <g id="Clip-21"></g>
                    <polygon id="Fill-20" fill="#FFFFFF" mask="url(#mask-5)" points="43.5266166 39.8777042 46.1939558 39.8777042 46.1939558 37.1034371 43.5266166 37.1034371"></polygon>
                    <polygon id="Fill-22" fill="#FFFFFF" mask="url(#mask-5)" points="43.5266166 45.4264614 46.1939558 45.4264614 46.1939558 42.6521943 43.5266166 42.6521943"></polygon>
                    <polygon id="Fill-23" fill="#FFFFFF" mask="url(#mask-5)" points="36.857947 71.7834481 39.5252862 71.7834481 39.5252862 69.0089581 36.857947 69.0089581"></polygon>
                </g>
            </g>
        </g>
    </g>
</svg>