<?xml version="1.0" encoding="UTF-8" standalone="no"?>
<svg width="113px" height="118px" viewBox="0 0 113 118" version="1.1" xmlns="http://www.w3.org/2000/svg" xmlns:xlink="http://www.w3.org/1999/xlink">
    <!-- Generator: Sketch 49.3 (51167) - http://www.bohemiancoding.com/sketch -->
    <title>Page 1</title>
    <desc>Created with Sketch.</desc>
    <defs>
        <path d="M0.00106805293,58.9973283 C0.00106805293,91.4638038 25.2532571,117.776245 56.395758,117.776245 C87.5369773,117.776245 112.790448,91.4638038 112.790448,58.9973283 C112.790448,26.5312981 87.5369773,0.218411321 56.395758,0.218411321 L56.395758,4.13712453 L56.395758,0.218411321 C25.2532571,0.218411321 0.00106805293,26.5312981 0.00106805293,58.9973283 Z M7.52037429,58.9973283 C7.52037429,30.8630113 29.4024291,8.05583774 56.395758,8.05583774 L56.395758,4.13712453 L56.395758,8.05583774 C83.3888733,8.05583774 105.270928,30.8630113 105.270928,58.9973283 C105.270928,87.1318679 83.3888733,109.939264 56.395758,109.939264 C29.4024291,109.939264 7.52037429,87.1318679 7.52037429,58.9973283 Z" id="path-1"></path>
        <linearGradient x1="0%" y1="0%" x2="101.999998%" y2="100.999999%" id="linearGradient-3">
            <stop stop-color="#3023AE" offset="0%"></stop>
            <stop stop-color="#C86DD7" offset="100%"></stop>
        </linearGradient>
    </defs>
    <g id="Page-1" stroke="none" stroke-width="1" fill="none" fill-rule="evenodd">
        <g id="Customers" transform="translate(-1150.000000, -1114.000000)">
            <g id="Page-1" transform="translate(1150.000000, 1114.000000)">
                <g id="Group-3" transform="translate(0.000000, 0.005121)">
                    <mask id="mask-2" fill="white">
                        <use xlink:href="#path-1"></use>
                    </mask>
                    <g id="Clip-2"></g>
                    <polygon id="Fill-1" fill="url(#linearGradient-3)" mask="url(#mask-2)" points="-37.5954631 156.962264 150.386979 156.962264 150.386979 -38.9673849 -37.5954631 -38.9673849"></polygon>
                </g>
                <g id="Group-38" transform="translate(27.128544, 26.944743)" fill="#554D85">
                    <path d="M50.6073597,38.6232925 C50.2228607,38.8904623 50.0410781,39.3802736 50.15301,39.8480434 C50.2277737,40.1579604 51.8992766,47.4585981 45.6744505,50.2387226 C45.1515318,50.4724962 44.8877227,51.0845377 45.0677964,51.6467075 C45.0754864,51.6709755 45.8128701,54.1106811 44.8176584,55.8325906 C44.2780781,56.7672396 43.2749628,57.3674811 41.838218,57.6172849 C41.5178021,57.6725 41.2379722,57.8742132 41.0739193,58.1660962 C40.2188361,59.6869604 37.3917,63.6099038 34.5630686,63.6099038 L34.5141518,63.6099038 C32.8129571,63.5825189 31.1912255,62.1190962 29.695097,59.2606019 C29.5030611,58.8945792 29.0937832,58.666817 28.6932633,58.666817 C28.2929571,58.666817 27.9251197,58.8943566 27.733511,59.2606019 C26.237596,62.1190962 24.6160781,63.5825189 22.9140289,63.6099038 C20.0821934,63.6573264 17.2146849,59.6956434 16.354475,58.1660962 C16.1904221,57.8742132 15.9097378,57.6725 15.59039,57.6172849 C14.1579174,57.3681491 13.1573654,56.7703566 12.6165034,55.8414962 C11.6091159,54.1104585 12.3546168,51.6676358 12.3612388,51.6462623 C12.540458,51.0838698 12.2775034,50.4720509 11.7543711,50.2385 C5.56244102,47.4724019 7.2044656,40.1555113 7.27623875,39.8478208 C7.38859792,39.3802736 7.2066017,38.8904623 6.82210265,38.6230698 C-1.33483119,32.9548396 3.83732193,24.5810698 4.06033138,24.2295189 C4.19490605,24.0189 4.25834839,23.767983 4.24125955,23.5159528 C3.88474348,18.3199453 4.75499301,14.4942962 6.82680208,12.1447604 C8.8189344,9.88628491 11.2301707,9.82817547 11.3248002,9.82661698 C11.7716735,9.82661698 12.173475,9.5429717 12.3398777,9.11037925 C13.5634391,5.92282075 15.5297246,5.46729623 16.5522784,5.46729623 C16.8812388,5.46729623 17.1130062,5.51494151 17.1896924,5.5336434 C17.5626565,5.63049245 17.9561272,5.51739057 18.2278399,5.23352264 C20.453235,2.91537925 22.7397227,2.02503585 25.0257832,2.5847566 C26.774613,3.01334151 27.9133711,4.16128113 27.9210611,4.16929623 C28.1259136,4.38303208 28.4044618,4.50325849 28.6939042,4.50325849 L28.7355582,4.50325849 C29.0256414,4.50325849 29.3037624,4.38303208 29.5088285,4.16929623 C29.5192955,4.15771887 30.6196036,3.04874151 32.3214391,2.60501698 C34.6339873,2.00299434 36.9495261,2.88576792 39.2014089,5.23352264 C39.4673541,5.51093396 39.8610384,5.62292264 40.2297302,5.53631509 C40.5561272,5.45816792 43.4721253,4.89599811 45.0900119,9.11060189 C45.2538512,9.53807358 45.6565072,9.82127358 46.0980403,9.82683962 C46.1995053,9.82862075 48.610528,9.88628491 50.6028739,12.144983 C52.6748966,14.4945189 53.5445053,18.3203906 53.1884164,23.5161755 C53.1713276,23.767983 53.2349836,24.0193453 53.3695582,24.2297415 C53.3836565,24.2513377 54.7629401,26.4356736 55.1098437,29.3297906 C55.5626981,33.1055679 54.0477718,36.2325679 50.6073597,38.6232925 M57.2809817,29.0461453 C56.9528758,26.3081 55.855131,24.1275491 55.3941594,23.3097868 C55.7278191,17.6128358 54.643959,13.3227566 52.1718437,10.5555453 C50.2448626,8.3983717 47.9938342,7.78811132 46.8501631,7.61578679 C45.1066735,3.77410755 42.1423994,3.03093019 40.3410214,3.21149245 C36.9674694,-0.0631188679 33.8474732,-0.140598113 31.7914713,0.393741509 C30.4352577,0.747073585 29.3740403,1.40920943 28.7152652,1.9083717 C28.0569174,1.40876415 26.9946319,0.747073585 25.6388456,0.393741509 C23.5826301,-0.141711321 20.4624202,-0.0635641509 17.0892955,3.21149245 C15.2859949,3.03026226 12.3227888,3.77410755 10.5801537,7.61578679 C9.43669622,7.7874434 7.18566786,8.39792642 5.25847316,10.5555453 C2.78571701,13.3227566 1.70271134,17.6128358 2.03615747,23.3097868 C1.57518582,24.1268811 0.477654631,26.3081 0.149335161,29.0461453 C-0.222133648,32.1488774 0.344788847,36.5242283 4.99957713,40.0746925 C4.4602104,43.3933868 4.97052609,49.1065906 10.0561669,51.9156585 C9.84511966,53.1230434 9.70520473,55.2169868 10.7388664,57.0072472 C11.5520819,58.4152321 12.8952652,59.3414208 14.735734,59.7646623 C15.6651537,61.2594774 18.8686716,65.8890849 22.8661802,65.8890849 C22.8913862,65.8890849 22.9172331,65.8890849 22.9424391,65.888417 C25.0855941,65.8563566 27.0221877,64.5360925 28.714838,61.9583491 C30.4081291,64.5356472 32.3447227,65.8563566 34.4868096,65.888417 C38.51401,65.9496434 41.7585412,61.2688283 42.693942,59.7646623 C44.5346244,59.3414208 45.878235,58.4152321 46.6910233,57.0072472 C47.7253257,55.2169868 47.5845563,53.1228208 47.3737227,51.9156585 C52.4600043,49.1065906 52.9705336,43.3933868 52.4309533,40.0746925 C57.0859552,36.5242283 57.6533049,32.1493226 57.2809817,29.0461453" id="Fill-4"></path>
                    <path d="M47.1019673,8.32710415 C46.9105722,7.72975698 46.2902471,7.40781736 45.7186251,7.60641358 C38.918973,9.96908528 38.8403643,15.8917947 38.8403643,16.1424891 C38.8403643,16.7687796 39.3254739,17.2741758 39.9261469,17.2777381 L39.9336233,17.2777381 C40.5310921,17.2777381 41.0189786,16.7730098 41.0270958,16.1500589 C41.0298728,15.9648211 41.1477858,11.5968174 46.409869,9.76870792 C46.9829862,9.56944377 47.2927216,8.92445132 47.1019673,8.32710415" id="Fill-6"></path>
                    <path d="M52.0419257,38.8796419 C51.6757972,38.3793664 50.9905344,38.2822947 50.5094834,38.6643475 C48.7275439,40.079457 47.1162792,40.5835174 45.7235382,40.165174 C43.2418104,39.4202155 41.9915476,36.0133551 41.9797991,35.978623 C41.7698198,35.3890683 41.1407367,35.0876117 40.5761639,35.3069136 C40.0100958,35.524657 39.7200127,36.1803362 39.9295647,36.7705589 C39.9947159,36.9542381 41.5632584,41.2779362 45.1051355,42.3515136 C45.6333945,42.5113702 46.1719068,42.5915211 46.7200316,42.5915211 C48.350094,42.5915211 50.0643189,41.8841891 51.8353643,40.4768721 C52.3155609,40.0957098 52.4078406,39.3799174 52.0419257,38.8796419" id="Fill-8"></path>
                    <path d="M33.5548053,39.8302098 C33.1286522,39.3851494 32.4354858,39.3851494 32.0089055,39.8302098 C31.5821115,40.2752702 31.5821115,40.9968513 32.0089055,41.4414664 C35.559327,45.1419909 34.8227977,48.7171683 34.7849887,48.8865985 C34.642724,49.4950777 34.9985992,50.1093457 35.5817561,50.2614098 C35.6701909,50.2841192 35.7594802,50.295474 35.8472741,50.295474 C36.3370832,50.295474 36.7835293,49.9494891 36.9074234,49.4316249 C36.9556994,49.2323608 38.027811,44.4925457 33.5548053,39.8302098" id="Fill-10"></path>
                    <path d="M50.5195231,29.1501634 C50.3136025,28.5597181 49.686869,28.254254 49.1197329,28.4670992 C48.8984323,28.5494766 43.6850524,30.4494992 40.9158047,26.6082653 C39.4777783,24.6131747 38.8595892,22.9046238 38.3629446,21.5322615 C37.7533,19.8484238 37.1782603,18.2576502 35.2666592,18.0933408 C34.6702584,18.04102 34.1366592,18.5078992 34.0873151,19.1355257 C34.0379711,19.7620389 34.4852716,20.3126313 35.0874399,20.3640615 C35.5449938,20.4030238 35.7171639,20.6797672 36.3165552,22.3359974 C36.8337064,23.7646879 37.5418255,25.7210389 39.1674021,27.97662 C41.0725949,30.6195974 43.7309786,31.2830691 45.9226233,31.2830691 C48.0446308,31.2830691 49.7289503,30.6603408 49.8677972,30.6084653 C50.4340788,30.3931709 50.7250164,29.7406087 50.5195231,29.1501634" id="Fill-12"></path>
                    <path d="M28.6947372,2.22358755 C28.0908601,2.22358755 27.6014783,2.73388189 27.6014783,3.36284415 L27.6014783,59.8049158 C27.6014783,60.4338781 28.0908601,60.9443951 28.6947372,60.9443951 C29.2979735,60.9443951 29.7877826,60.434546 29.7877826,59.8051385 L29.7877826,3.36284415 C29.7877826,2.73388189 29.2979735,2.22358755 28.6947372,2.22358755" id="Fill-14"></path>
                    <path d="M36.6892843,12.041566 C36.6807399,11.4126038 36.2022522,10.9020868 35.5802181,10.9183396 C34.9759138,10.9272453 34.4937947,11.4455547 34.5025527,12.074517 C34.5034072,12.1457623 34.5630045,19.2515887 31.1539932,23.7578528 C30.7801747,24.2523396 30.8609195,24.9688 31.3355622,25.3584226 C31.5361425,25.5238453 31.7743183,25.6035509 32.0118533,25.6035509 C32.3348325,25.6035509 32.6552484,25.4550491 32.8705679,25.1696226 C36.7555036,20.0348415 36.6937701,12.3659547 36.6892843,12.041566" id="Fill-16"></path>
                    <path d="M38.9121802,46.9508419 C34.0924845,46.9508419 31.8378248,53.8266796 31.7442633,54.1198985 C31.5535091,54.7163551 31.86239,55.3602343 32.43508,55.5601664 C32.5495752,55.6006872 32.6668474,55.6191664 32.7815563,55.6191664 C33.2384694,55.6191664 33.6650497,55.3183777 33.8188493,54.8410343 C34.3223295,53.28054 36.2196187,49.2295777 38.9126074,49.2295777 C39.5160573,49.2295777 40.0058664,48.7192834 40.0058664,48.0900985 C40.0058664,47.4613589 39.5156301,46.9508419 38.9121802,46.9508419" id="Fill-18"></path>
                    <path d="M40.1437733,3.03413623 C39.6603726,2.65854 38.9748962,2.76295887 38.6141079,3.26813245 L35.9909699,6.94194 C35.6306089,7.44600038 35.7312195,8.1600117 36.2154747,8.53627585 C36.411142,8.68856264 36.6399189,8.76203434 36.8672006,8.76203434 C37.2010739,8.76203434 37.5308887,8.60351358 37.7451401,8.30227962 L40.3682781,4.62847208 C40.7286391,4.12418906 40.6284558,3.41017774 40.1437733,3.03413623" id="Fill-20"></path>
                    <path d="M17.7588792,17.2377517 C16.5528338,17.2377517 15.571934,16.2153819 15.571934,14.9583479 C15.571934,13.701314 16.5528338,12.6789442 17.7588792,12.6789442 C18.9649246,12.6789442 19.946038,13.701314 19.946038,14.9583479 C19.9453972,16.2153819 18.9649246,17.2377517 17.7588792,17.2377517 M17.7588792,10.3999857 C15.3474293,10.3999857 13.3854161,12.4449479 13.3854161,14.9583479 C13.3854161,17.4719706 15.3474293,19.5167102 17.7588792,19.5167102 C20.1703291,19.5167102 22.132556,17.4719706 22.132556,14.9583479 C22.132556,12.4449479 20.1703291,10.3999857 17.7588792,10.3999857" id="Fill-22"></path>
                    <path d="M10.1047847,32.0529857 C8.89873932,32.0529857 7.91783951,31.0308385 7.91783951,29.7738045 C7.91783951,28.5165479 8.89873932,27.4941781 10.1047847,27.4941781 C11.3108301,27.4941781 12.2915163,28.5165479 12.2915163,29.7738045 C12.2915163,31.0308385 11.3108301,32.0529857 10.1047847,32.0529857 M10.1047847,25.2152196 C7.69333478,25.2152196 5.73110794,27.2604045 5.73110794,29.7738045 C5.73110794,32.2872045 7.69333478,34.3319442 10.1047847,34.3319442 C12.5162346,34.3319442 14.4784614,32.2872045 14.4784614,29.7738045 C14.4784614,27.2604045 12.5162346,25.2152196 10.1047847,25.2152196" id="Fill-24"></path>
                    <path d="M21.0391902,42.3099242 C19.8331448,42.3099242 18.852245,41.2875543 18.852245,40.030743 C18.852245,38.7734864 19.8331448,37.7511166 21.0391902,37.7511166 C22.2452355,37.7511166 23.2261353,38.7734864 23.2261353,40.030743 C23.2261353,41.2875543 22.2450219,42.3099242 21.0391902,42.3099242 M21.0391902,35.4719355 C18.6277403,35.4719355 16.6655134,37.5171204 16.6655134,40.030743 C16.6655134,42.544143 18.6277403,44.5888826 21.0391902,44.5888826 C23.4508537,44.5888826 25.4128669,42.544143 25.4128669,40.030743 C25.4128669,37.5171204 23.4508537,35.4719355 21.0391902,35.4719355" id="Fill-26"></path>
                    <path d="M21.0391902,54.8461328 C19.8331448,54.8461328 18.852245,53.823763 18.852245,52.5671743 C18.852245,51.3096951 19.8331448,50.2873253 21.0391902,50.2873253 C22.2452355,50.2873253 23.2261353,51.3096951 23.2261353,52.5671743 C23.2257081,53.823763 22.2450219,54.8461328 21.0391902,54.8461328 M21.0391902,48.0083668 C18.6277403,48.0083668 16.6655134,50.0535517 16.6655134,52.5669517 C16.6655134,55.0803517 18.6277403,57.125314 21.0391902,57.125314 C23.4508537,57.125314 25.4128669,55.0803517 25.4128669,52.5669517 C25.4128669,50.0535517 23.4508537,48.0083668 21.0391902,48.0083668" id="Fill-28"></path>
                    <path d="M17.7588792,17.2377517 C17.1552157,17.2377517 16.6656202,17.7482687 16.6656202,18.3772309 L16.6656202,29.7738045 C16.6656202,30.4027668 17.1552157,30.9132838 17.7588792,30.9132838 C18.3629699,30.9132838 18.8521382,30.4034347 18.8521382,29.7738045 L18.8521382,18.3772309 C18.8521382,17.7482687 18.3623291,17.2377517 17.7588792,17.2377517" id="Fill-30"></path>
                    <path d="M21.0391902,28.6340136 L13.3850957,28.6340136 C12.7814321,28.6340136 12.2916231,29.1445306 12.2916231,29.7737155 C12.2916231,30.4026777 12.7814321,30.9131947 13.3850957,30.9131947 L21.0387629,30.9131947 C21.6432809,30.9131947 22.1322355,30.4026777 22.1322355,29.7737155 C22.1324491,29.1445306 21.6426401,28.6340136 21.0391902,28.6340136" id="Fill-32"></path>
                    <path d="M21.0391902,28.6340136 C20.4357403,28.6340136 19.9461448,29.1445306 19.9461448,29.7737155 L19.9461448,36.6114815 C19.9461448,37.2406664 20.4357403,37.7511834 21.0391902,37.7511834 C21.6432809,37.7511834 22.1324491,37.2413343 22.1324491,36.6114815 L22.1324491,29.7737155 C22.1324491,29.1445306 21.6426401,28.6340136 21.0391902,28.6340136" id="Fill-34"></path>
                    <path d="M21.0391902,42.3099242 C20.4357403,42.3099242 19.9461448,42.8204411 19.9461448,43.4494034 L19.9461448,49.1479128 C19.9461448,49.7770977 20.4357403,50.2873921 21.0391902,50.2873921 C21.6432809,50.2873921 22.1324491,49.777543 22.1324491,49.1479128 L22.1324491,43.4494034 C22.1324491,42.8204411 21.6426401,42.3099242 21.0391902,42.3099242" id="Fill-36"></path>
                </g>
            </g>
        </g>
    </g>
</svg>