<?xml version="1.0" encoding="UTF-8" standalone="no"?>
<svg width="113px" height="118px" viewBox="0 0 113 118" version="1.1" xmlns="http://www.w3.org/2000/svg" xmlns:xlink="http://www.w3.org/1999/xlink">
    <!-- Generator: Sketch 49.3 (51167) - http://www.bohemiancoding.com/sketch -->
    <title>Page 1</title>
    <desc>Created with Sketch.</desc>
    <defs>
        <path d="M0.00106805293,58.9973283 C0.00106805293,91.4638038 25.2532571,117.776245 56.395758,117.776245 C87.5369773,117.776245 112.790448,91.4638038 112.790448,58.9973283 C112.790448,26.5312981 87.5369773,0.218411321 56.395758,0.218411321 L56.395758,4.13712453 L56.395758,0.218411321 C25.2532571,0.218411321 0.00106805293,26.5312981 0.00106805293,58.9973283 Z M7.52037429,58.9973283 C7.52037429,30.8630113 29.4024291,8.05583774 56.395758,8.05583774 L56.395758,4.13712453 L56.395758,8.05583774 C83.3888733,8.05583774 105.270928,30.8630113 105.270928,58.9973283 C105.270928,87.1318679 83.3888733,109.939264 56.395758,109.939264 C29.4024291,109.939264 7.52037429,87.1318679 7.52037429,58.9973283 Z" id="path-1"></path>
        <linearGradient x1="0%" y1="0%" x2="101.999998%" y2="100.999999%" id="linearGradient-3">
            <stop stop-color="#3023AE" offset="0%"></stop>
            <stop stop-color="#C86DD7" offset="100%"></stop>
        </linearGradient>
    </defs>
    <g id="Page-1" stroke="none" stroke-width="1" fill="none" fill-rule="evenodd">
        <g id="Customers" transform="translate(-858.000000, -1114.000000)">
            <g id="Page-1" transform="translate(858.000000, 1114.000000)">
                <g id="Group-3" transform="translate(0.000000, 0.005121)">
                    <mask id="mask-2" fill="white">
                        <use xlink:href="#path-1"></use>
                    </mask>
                    <g id="Clip-2"></g>
                    <polygon id="Fill-1" fill="url(#linearGradient-3)" mask="url(#mask-2)" points="-37.5954631 156.962264 150.386979 156.962264 150.386979 -38.9673849 -37.5954631 -38.9673849"></polygon>
                </g>
                <g id="Group-10" transform="translate(26.060491, 27.390026)" fill="#554D85">
                    <path d="M30.334583,45.5934634 C22.9376756,45.5934634 16.9202654,39.3216521 16.9202654,31.6117992 C16.9202654,23.9021691 22.9376756,17.6303577 30.334583,17.6303577 C37.731704,17.6303577 43.7491142,23.9021691 43.7491142,31.6117992 C43.7491142,39.3216521 37.731704,45.5934634 30.334583,45.5934634 M30.334583,15.3001917 C21.7047153,15.3001917 14.6844034,22.6170823 14.6844034,31.6117992 C14.6844034,40.6067389 21.7047153,47.9238521 30.334583,47.9238521 C38.9644507,47.9238521 45.9849762,40.6067389 45.9849762,31.6117992 C45.9849762,22.6170823 38.9644507,15.3001917 30.334583,15.3001917" id="Fill-4"></path>
                    <path d="M58.2812773,35.3636872 C58.2812773,35.8646306 57.8899427,36.2725098 57.4093189,36.2725098 L53.3940807,36.2725098 L53.1926459,37.1730947 C52.6103435,39.7795589 51.6288028,42.2528834 50.2717348,44.5260532 L49.8024323,45.3115325 L52.6406762,48.2697702 C52.9813851,48.625106 52.9813851,49.2017475 52.6406762,49.5559702 L47.5509767,54.8608494 C47.2111223,55.2150721 46.6578709,55.2175211 46.3167348,54.8608494 L43.4784909,51.9026117 L42.7253,52.3917551 C40.545404,53.8064192 38.1719767,54.8305702 35.6701696,55.4361551 L34.8063284,55.646106 L34.8063284,59.8310985 C34.8063284,60.3320419 34.4147802,60.7401438 33.9341563,60.7401438 L26.7350524,60.7401438 C26.2542149,60.7401438 25.863094,60.3320419 25.863094,59.8310985 L25.863094,55.6463287 L24.9988255,55.4361551 C22.4985136,54.829457 20.1250864,53.8064192 17.9443359,52.3917551 L17.1909314,51.9026117 L14.3526875,54.8608494 C14.0104834,55.2175211 13.4570183,55.2150721 13.1184456,54.8608494 L8.02874612,49.5559702 C7.68761002,49.2006343 7.68761002,48.6239928 8.02874612,48.2697702 L10.86699,45.3115325 L10.3974739,44.5260532 C9.04019225,42.2539966 8.05779716,39.7806721 7.47656276,37.1730947 L7.27534159,36.2725098 L3.25988979,36.2725098 C2.77926597,36.2725098 2.38814499,35.8646306 2.38814499,35.3636872 L2.38814499,27.860223 C2.38814499,27.359057 2.77926597,26.9514004 3.25988979,26.9514004 L7.27534159,26.9514004 L7.47656276,26.0505928 C8.05907883,23.4432381 9.04019225,20.9696909 10.3974739,18.697857 L10.86699,17.9123777 L8.02874612,14.95414 C7.68761002,14.5985815 7.68761002,14.02194 8.02874612,13.66794 L13.1184456,8.36306075 C13.4580864,8.00883811 14.0115514,8.00638906 14.3526875,8.36306075 L17.1909314,11.3212985 L17.9443359,10.8317098 C20.1240183,9.4172683 22.4972319,8.39311736 24.9988255,7.78753245 L25.863094,7.57758151 L25.863094,3.39236642 C25.863094,2.89142302 26.2542149,2.48376642 26.7350524,2.48376642 L33.9330883,2.48376642 C34.4147802,2.48376642 34.8063284,2.89142302 34.8063284,3.39236642 L34.8063284,7.57758151 L35.6701696,7.78753245 C38.1709087,8.39445321 40.5441223,9.4172683 42.7253,10.8317098 L43.4784909,11.3212985 L46.3167348,8.36306075 C46.6589389,8.00638906 47.212404,8.00883811 47.5509767,8.36306075 L52.6406762,13.66794 C52.9813851,14.0230532 52.9813851,14.5996947 52.6406762,14.95414 L49.8024323,17.9123777 L50.2717348,18.697857 C51.6288028,20.9685777 52.6114115,23.4419023 53.1926459,26.0505928 L53.3938671,26.9514004 L57.4093189,26.9514004 C57.8899427,26.9514004 58.2812773,27.359057 58.2812773,27.860223 L58.2812773,35.3636872 Z M57.4093189,24.6212343 L55.1533775,24.6212343 C54.577697,22.3934834 53.7315854,20.2612457 52.6272187,18.2630381 L54.2211809,16.6014645 C54.8079692,15.9898683 55.131162,15.1754457 55.131162,14.3109287 C55.131162,13.4452985 54.8079692,12.6319891 54.2211809,12.019057 L49.1314815,6.71417774 C47.9579049,5.49209849 45.9110883,5.48964943 44.7349484,6.71417774 L43.1407726,8.37575132 C41.2227631,7.22580792 39.1780826,6.34370226 37.0417631,5.74390604 L37.0417631,3.39236642 C37.0417631,1.60633623 35.6479541,0.153600377 33.9341563,0.153600377 L26.7350524,0.153600377 C25.0214682,0.153600377 23.6274456,1.60633623 23.6274456,3.39236642 L23.6274456,5.74390604 C21.4913397,6.34370226 19.4466592,7.22580792 17.5273681,8.37708717 L15.9331922,6.71551358 C14.758334,5.48964943 12.7104493,5.49209849 11.5366592,6.71551358 L6.44695974,12.0201702 C5.86017146,12.6319891 5.53697864,13.4464117 5.53697864,14.3120419 C5.53697864,15.1765589 5.86017146,15.9898683 6.44695974,16.6025777 L8.04113554,18.2641513 C6.93783686,20.2612457 6.09044367,22.3934834 5.51583119,24.6212343 L3.25988979,24.6212343 C1.54609206,24.6212343 0.152282987,26.0739702 0.152282987,27.860223 L0.152282987,35.3623513 C0.152282987,37.1497174 1.54609206,38.6026758 3.25988979,38.6026758 L5.51583119,38.6026758 C6.09151172,40.8293136 6.93783686,42.9602155 8.04220359,44.9606494 L6.4482414,46.622223 C5.86123951,47.2338192 5.5382603,48.0484645 5.5382603,48.9127589 C5.5382603,49.7786117 5.86123951,50.5916985 6.4482414,51.2046306 L11.5377272,56.5095098 C12.7115174,57.7340381 14.7594021,57.7351513 15.9342603,56.5095098 L17.5284361,54.8479362 C19.4477272,55.9981023 21.4921941,56.8810985 23.6285136,57.4811174 L23.6285136,59.8324343 C23.6285136,61.6184645 25.0225363,63.071423 26.7361204,63.071423 L33.9341563,63.071423 C35.6479541,63.071423 37.0417631,61.6184645 37.0417631,59.8324343 L37.0417631,57.4811174 C39.1780826,56.8810985 41.2227631,55.9992155 43.1420543,54.8479362 L44.7362301,56.5095098 C45.9121563,57.7351513 47.9579049,57.7329249 49.1327631,56.5095098 L54.222249,51.2046306 C54.8092509,50.5928117 55.1322301,49.7786117 55.1322301,48.9127589 C55.1322301,48.0484645 54.8092509,47.2349325 54.222249,46.622223 L52.6280732,44.9606494 C53.7315854,42.9602155 54.5789786,40.8293136 55.1544456,38.6026758 L57.4106006,38.6026758 C59.1239711,38.6026758 60.5182074,37.1497174 60.5182074,35.3636872 L60.5182074,27.860223 C60.5171393,26.0739702 59.122903,24.6212343 57.4093189,24.6212343 Z" id="Fill-6"></path>
                    <path d="M30.334583,40.9327751 C25.4038098,40.9327751 21.3917758,36.7513449 21.3917758,31.6118883 C21.3917758,26.4726543 25.4038098,22.2910015 30.334583,22.2910015 C35.2655698,22.2910015 39.2773902,26.4726543 39.2773902,31.6118883 C39.2773902,36.7513449 35.2655698,40.9327751 30.334583,40.9327751 M30.334583,19.9606128 C24.1708495,19.9606128 19.1559138,25.1873449 19.1559138,31.6118883 C19.1559138,38.0364317 24.1708495,43.2631638 30.334583,43.2631638 C36.4985301,43.2631638 41.5132522,38.0364317 41.5132522,31.6118883 C41.5132522,25.1873449 36.4985301,19.9606128 30.334583,19.9606128" id="Fill-8"></path>
                </g>
            </g>
        </g>
    </g>
</svg>