<?xml version="1.0" encoding="UTF-8" standalone="no"?>
<svg width="115px" height="119px" viewBox="0 0 115 119" version="1.1" xmlns="http://www.w3.org/2000/svg" xmlns:xlink="http://www.w3.org/1999/xlink">
    <!-- Generator: Sketch 49.3 (51167) - http://www.bohemiancoding.com/sketch -->
    <title>Page 1</title>
    <desc>Created with Sketch.</desc>
    <defs>
        <path d="M0.00107264472,59.1866621 C0.00107264472,91.7573288 25.3618263,118.154212 56.6382157,118.154212 C87.9133178,118.154212 113.275359,91.7573288 113.275359,59.1866621 C113.275359,26.6164422 87.9133178,0.219112245 56.6382157,0.219112245 L56.6382157,4.15040136 L56.6382157,0.219112245 C25.3618263,0.219112245 0.00107264472,26.6164422 0.00107264472,59.1866621 Z M7.55270602,59.1866621 C7.55270602,30.9620567 29.5288365,8.08169048 56.6382157,8.08169048 L56.6382157,4.15040136 L56.6382157,8.08169048 C83.7473802,8.08169048 105.723511,30.9620567 105.723511,59.1866621 C105.723511,87.4114909 83.7473802,110.29208 56.6382157,110.29208 C29.5288365,110.29208 7.55270602,87.4114909 7.55270602,59.1866621 Z" id="path-1"></path>
        <linearGradient x1="0%" y1="0%" x2="101.999998%" y2="100.999999%" id="linearGradient-3">
            <stop stop-color="#3023AE" offset="0%"></stop>
            <stop stop-color="#C86DD7" offset="100%"></stop>
        </linearGradient>
        <polygon id="path-4" points="0 110 104 110 104 4.26325641e-14 0 4.26325641e-14"></polygon>
        <linearGradient x1="50%" y1="0%" x2="50%" y2="100%" id="linearGradient-6">
            <stop stop-color="#8E85BB" offset="0%"></stop>
            <stop stop-color="#554D85" offset="100%"></stop>
        </linearGradient>
    </defs>
    <g id="Page-1" stroke="none" stroke-width="1" fill="none" fill-rule="evenodd">
        <g id="Customers" transform="translate(-562.000000, -1113.000000)">
            <g id="Page-1" transform="translate(562.000000, 1113.000000)">
                <g id="Group-3" transform="translate(0.757094, 0.315795)">
                    <mask id="mask-2" fill="white">
                        <use xlink:href="#path-1"></use>
                    </mask>
                    <g id="Clip-2"></g>
                    <polygon id="Fill-1" fill="url(#linearGradient-3)" mask="url(#mask-2)" points="0.00107264472 118.154212 113.275359 118.154212 113.275359 0.219112245 0.00107264472 0.219112245"></polygon>
                </g>
                <g id="Group-34" transform="translate(5.000000, 4.005137)">
                    <path d="M50.5412649,83.7913889 L42.9430788,83.7913889 C42.2437144,83.7913889 41.6767144,83.2008356 41.6767144,82.4731417 L41.6767144,77.1988129 C41.6767144,76.4706723 41.1097144,75.8803424 40.4101355,75.8803424 L34.0785283,75.8803424 C33.3789494,75.8803424 32.8119494,75.2897891 32.8119494,74.5620952 L32.8119494,66.6510488 C32.8119494,65.9229082 32.2449494,65.3323549 31.545585,65.3323549 L27.7464919,65.3323549 C27.0471276,65.3323549 26.4801276,64.7420249 26.4801276,64.0138844 L26.4801276,45.5555204 C26.4801276,44.8271565 27.0471276,44.2368265 27.7464919,44.2368265 L31.545585,44.2368265 C32.2449494,44.2368265 32.8119494,43.6464966 32.8119494,42.9181327 L32.8119494,35.0075329 C32.8119494,34.2793923 33.3789494,33.6890624 34.0785283,33.6890624 L40.4101355,33.6890624 C41.1097144,33.6890624 41.6767144,33.0987324 41.6767144,32.3703685 L41.6767144,27.0967098 C41.6767144,26.3685692 42.2437144,25.7782392 42.9430788,25.7782392 L50.5412649,25.7782392 C51.2406293,25.7782392 51.8078438,26.3685692 51.8078438,27.0967098 L54.3401435,27.0967098 C54.3401435,24.912288 52.6395725,23.1412982 50.5412649,23.1412982 L42.9430788,23.1412982 C40.8449857,23.1412982 39.1439857,24.912288 39.1439857,27.0967098 L39.1439857,31.0521213 L34.0785283,31.0521213 C31.9802207,31.0521213 30.2792207,32.8231111 30.2792207,35.0075329 L30.2792207,41.5998855 L27.7464919,41.5998855 C25.6483989,41.5998855 23.9476134,43.3708753 23.9476134,45.5555204 L23.9476134,64.0141077 C23.9476134,66.1983061 25.6483989,67.9695193 27.7464919,67.9695193 L30.2792207,67.9695193 L30.2792207,74.5620952 C30.2792207,76.746517 31.9802207,78.5175068 34.0785283,78.5175068 L39.1439857,78.5175068 L39.1439857,82.4731417 C39.1439857,84.6573401 40.8449857,86.4283299 42.9430788,86.4283299 L50.5412649,86.4283299 C52.6395725,86.4283299 54.3401435,84.6573401 54.3401435,82.4731417 L51.8078438,82.4731417 C51.8076293,83.2008356 51.2406293,83.7913889 50.5412649,83.7913889" id="Fill-4" fill="#554D85"></path>
                    <path d="M78.4013237,41.5997961 L75.8688095,41.5997961 L75.8688095,35.0074435 C75.8688095,32.8230218 74.1678095,31.052032 72.0695019,31.052032 L67.004259,31.052032 L67.004259,27.0966204 C67.004259,24.9121986 65.3030445,23.1412088 63.2049514,23.1412088 L55.6067653,23.1412088 C53.5084577,23.1412088 51.8076722,24.9121986 51.8076722,27.0966204 L51.8076722,35.0074435 L54.3401864,35.0074435 L54.3401864,27.0966204 C54.3401864,26.3687032 54.9071864,25.7781499 55.6067653,25.7781499 L63.2049514,25.7781499 C63.9043158,25.7781499 64.4713158,26.3687032 64.4713158,27.0966204 L64.4713158,32.3707259 C64.4713158,33.0988664 65.0383158,33.6891964 65.7376801,33.6891964 L72.0695019,33.6891964 C72.7690808,33.6891964 73.3358663,34.2797497 73.3358663,35.0074435 L73.3358663,42.91849 C73.3358663,43.6466306 73.9030808,44.2371839 74.6024452,44.2371839 L78.4015383,44.2371839 C79.1009026,44.2371839 79.6681171,44.8275138 79.6681171,45.5556544 L79.6681171,64.0142417 C79.6681171,64.7423823 79.1009026,65.3327122 78.4015383,65.3327122 L74.6024452,65.3327122 C73.9030808,65.3327122 73.3358663,65.9230422 73.3358663,66.6514061 L73.3358663,74.5622293 C73.3358663,75.2903698 72.7690808,75.8806998 72.0695019,75.8806998 L65.7376801,75.8806998 C65.0383158,75.8806998 64.4713158,76.4710297 64.4713158,77.1993937 L64.4713158,82.4730524 C64.4713158,83.2009696 63.9043158,83.7912995 63.2049514,83.7912995 L55.6067653,83.7912995 C54.9071864,83.7912995 54.3401864,83.2009696 54.3401864,82.4730524 L54.3401864,74.5620059 L51.8076722,74.5620059 L51.8076722,82.4730524 C51.8076722,84.6572508 53.5084577,86.4282406 55.6067653,86.4282406 L63.2049514,86.4282406 C65.3030445,86.4282406 67.004259,84.6572508 67.004259,82.4730524 L67.004259,78.5174175 L72.0695019,78.5174175 C74.1678095,78.5174175 75.8688095,76.7464277 75.8688095,74.5620059 L75.8688095,67.9698766 L78.4013237,67.9698766 C80.4994168,67.9698766 82.2004168,66.1986635 82.2004168,64.0142417 L82.2004168,45.5554311 C82.2004168,43.3710093 80.4994168,41.5997961 78.4013237,41.5997961" id="Fill-6" fill="#554D85"></path>
                    <path d="M60.6722012,42.9183337 L45.4756144,42.9183337 C43.3777359,42.9183337 41.6767359,44.6895468 41.6767359,46.8739686 L44.2094646,46.8739686 C44.2094646,46.1456046 44.7762501,45.5554981 45.4756144,45.5554981 L60.6722012,45.5554981 C61.3717801,45.5554981 61.9385656,46.1456046 61.9385656,46.8739686 L64.4712943,46.8739686 C64.4712943,44.6895468 62.7702943,42.9183337 60.6722012,42.9183337" id="Fill-8" fill="#554D85"></path>
                    <path d="M61.9386514,62.6955925 C61.9386514,63.4239565 61.3716514,64.014063 60.6722871,64.014063 L45.4757002,64.014063 C44.7763359,64.014063 44.2093359,63.4239565 44.2093359,62.6955925 L41.6766072,62.6955925 C41.6766072,64.8800143 43.3776072,66.6512274 45.4757002,66.6512274 L60.6722871,66.6512274 C62.7703801,66.6512274 64.4713801,64.8800143 64.4713801,62.6955925 L61.9386514,62.6955925 Z" id="Fill-10" fill="#554D85"></path>
                    <mask id="mask-5" fill="white">
                        <use xlink:href="#path-4"></use>
                    </mask>
                    <g id="Clip-13"></g>
                    <polygon id="Fill-12" fill="#554D85" mask="url(#mask-5)" points="51.8075006 70.606237 54.3402293 70.606237 54.3402293 65.3323549 51.8075006 65.3323549"></polygon>
                    <polygon id="Fill-14" fill="#554D85" mask="url(#mask-5)" points="56.8731725 70.606237 59.4056867 70.606237 59.4056867 65.3323549 56.8731725 65.3323549"></polygon>
                    <polygon id="Fill-15" fill="#554D85" mask="url(#mask-5)" points="46.7420431 70.606237 49.2747719 70.606237 49.2747719 65.3323549 46.7420431 65.3323549"></polygon>
                    <polygon id="Fill-16" fill="#554D85" mask="url(#mask-5)" points="51.8075006 44.2370499 54.3402293 44.2370499 54.3402293 38.9631678 51.8075006 38.9631678"></polygon>
                    <polygon id="Fill-17" fill="#554D85" mask="url(#mask-5)" points="56.8731725 44.2370499 59.4056867 44.2370499 59.4056867 38.9631678 56.8731725 38.9631678"></polygon>
                    <polygon id="Fill-18" fill="#554D85" mask="url(#mask-5)" points="46.7420431 44.2370499 49.2747719 44.2370499 49.2747719 38.9631678 46.7420431 38.9631678"></polygon>
                    <polygon id="Fill-19" fill="#554D85" mask="url(#mask-5)" points="37.8774926 56.1032846 42.9431646 56.1032846 42.9431646 53.4663435 37.8774926 53.4663435"></polygon>
                    <polygon id="Fill-20" fill="#554D85" mask="url(#mask-5)" points="37.8774926 61.3771667 42.9431646 61.3771667 42.9431646 58.740449 37.8774926 58.740449"></polygon>
                    <polygon id="Fill-21" fill="#554D85" mask="url(#mask-5)" points="37.8774926 50.8294025 42.9431646 50.8294025 42.9431646 48.1924615 37.8774926 48.1924615"></polygon>
                    <polygon id="Fill-22" fill="#554D85" mask="url(#mask-5)" points="63.2049943 56.1032846 68.2704518 56.1032846 68.2704518 53.4663435 63.2049943 53.4663435"></polygon>
                    <polygon id="Fill-23" fill="#554D85" mask="url(#mask-5)" points="63.2049943 61.3771667 68.2704518 61.3771667 68.2704518 58.740449 63.2049943 58.740449"></polygon>
                    <polygon id="Fill-24" fill="#554D85" mask="url(#mask-5)" points="63.2049943 50.8294025 68.2704518 50.8294025 68.2704518 48.1924615 63.2049943 48.1924615"></polygon>
                    <path d="M51.8076078,49.5108203 L49.2748791,49.5108203 C49.2399109,49.5099269 49.2049427,49.5099269 49.1699745,49.5108203 C47.8002072,49.5411967 46.713189,50.7214099 46.7421504,52.1477613 L46.7421504,60.0588078 L49.2748791,60.0588078 L49.2748791,52.1477613 L51.8076078,52.1477613 L51.8076078,60.0588078 L54.3403365,60.0588078 L54.3403365,52.1477613 C54.3409801,52.1113543 54.3409801,52.0747239 54.3403365,52.0383169 C54.3113751,50.6124121 53.1773751,49.4806672 51.8076078,49.5108203" id="Fill-25" fill="#554D85" mask="url(#mask-5)"></path>
                    <polygon id="Fill-26" fill="#554D85" mask="url(#mask-5)" points="56.8731725 60.0589195 59.4056867 60.0589195 59.4056867 49.510932 56.8731725 49.510932"></polygon>
                    <polygon id="Fill-27" fill="#554D85" mask="url(#mask-5)" points="48.008622 57.4217551 53.0740795 57.4217551 53.0740795 54.7848141 48.008622 54.7848141"></polygon>
                    <polygon id="Fill-28" fill="#554D85" mask="url(#mask-5)" points="39.143857 38.9631678 41.6765857 38.9631678 41.6765857 32.3705918 39.143857 32.3705918"></polygon>
                    <polygon id="Fill-29" fill="#554D85" mask="url(#mask-5)" points="64.4713587 77.1990363 67.0040874 77.1990363 67.0040874 70.6064603 64.4713587 70.6064603"></polygon>
                    <polygon id="Fill-30" fill="#554D85" mask="url(#mask-5)" points="73.3359092 49.510932 75.8688524 49.510932 75.8688524 42.918356 73.3359092 42.918356"></polygon>
                    <polygon id="Fill-31" fill="#554D85" mask="url(#mask-5)" points="30.2793065 66.6512721 32.8120352 66.6512721 32.8120352 60.0586961 30.2793065 60.0586961"></polygon>
                    <polygon id="Fill-32" fill="#554D85" mask="url(#mask-5)" points="30.2793065 57.4217551 32.8120352 57.4217551 32.8120352 54.7848141 30.2793065 54.7848141"></polygon>
                    <polygon id="Fill-33" fill="url(#linearGradient-6)" mask="url(#mask-5)" points="73.3359092 54.7848141 75.8688524 54.7848141 75.8688524 52.147873 73.3359092 52.147873"></polygon>
                </g>
            </g>
        </g>
    </g>
</svg>