<?xml version="1.0" encoding="utf-8"?>
<!-- Generator: Adobe Illustrator 16.0.0, SVG Export Plug-In . SVG Version: 6.00 Build 0)  -->
<!DOCTYPE svg PUBLIC "-//W3C//DTD SVG 1.1//EN" "http://www.w3.org/Graphics/SVG/1.1/DTD/svg11.dtd" [
	<!ENTITY ns_flows "http://ns.adobe.com/Flows/1.0/">
	<!ENTITY ns_extend "http://ns.adobe.com/Extensibility/1.0/">
	<!ENTITY ns_ai "http://ns.adobe.com/AdobeIllustrator/10.0/">
	<!ENTITY ns_graphs "http://ns.adobe.com/Graphs/1.0/">
	<!ENTITY ns_vars "http://ns.adobe.com/Variables/1.0/">
	<!ENTITY ns_imrep "http://ns.adobe.com/ImageReplacement/1.0/">
	<!ENTITY ns_sfw "http://ns.adobe.com/SaveForWeb/1.0/">
	<!ENTITY ns_custom "http://ns.adobe.com/GenericCustomNamespace/1.0/">
	<!ENTITY ns_adobe_xpath "http://ns.adobe.com/XPath/1.0/">
]>
<svg version="1.1"
	 xmlns:x="&ns_extend;" xmlns:i="&ns_ai;" xmlns:graph="&ns_graphs;" i:viewOrigin="-107 99.6992" i:rulerOrigin="107 438.8838" i:pageBounds="-107 99.6992 431.583 -438.8838"
	 xmlns="http://www.w3.org/2000/svg" xmlns:xlink="http://www.w3.org/1999/xlink" xmlns:a="http://ns.adobe.com/AdobeSVGViewerExtensions/3.0/"
	 x="0px" y="0px" width="538.583px" height="538.583px" viewBox="0 0 538.583 538.583" enable-background="new 0 0 538.583 538.583"
	 xml:space="preserve">
<metadata>
	<variableSets  xmlns="&ns_vars;">
		<variableSet  locked="none" varSetName="binding1">
			<variables></variables>
			<v:sampleDataSets  xmlns:v="&ns_vars;" xmlns="&ns_custom;"></v:sampleDataSets>
		</variableSet>
	</variableSets>
</metadata>
<g id="Warstwa_1" i:layer="yes" i:dimmedPercent="50" i:rgbTrio="#4F008000FFFF">
	<g>
		<g i:knockout="Off">
			<defs>
				<path id="SVGID_1_" i:knockout="Off" d="M269.292,22.885v17.601c-126.367,0-228.806,102.439-228.806,228.806
					c0,126.367,102.439,228.806,228.806,228.806c126.365,0,228.805-102.439,228.805-228.806
					c0-126.366-102.439-228.806-228.805-228.806V22.885z M269.292,22.885V5.285c145.785,0,264.006,118.185,264.006,264.007
					c0,145.824-118.221,264.007-264.006,264.007C123.5,533.299,5.285,415.115,5.285,269.292
					C5.285,123.469,123.5,5.285,269.292,5.285V22.885z"/>
			</defs>
			<linearGradient id="SVGID_2_" gradientUnits="userSpaceOnUse" x1="5.2847" y1="269.292" x2="533.2979" y2="269.292">
				<stop  offset="0" style="stop-color:#53479D"/>
				<stop  offset="1" style="stop-color:#9361A8"/>
				<a:midPointStop  offset="0" style="stop-color:#53479D"/>
				<a:midPointStop  offset="0.5" style="stop-color:#53479D"/>
				<a:midPointStop  offset="1" style="stop-color:#9361A8"/>
			</linearGradient>
			<use xlink:href="#SVGID_1_"  overflow="visible" fill="url(#SVGID_2_)"/>
			<clipPath id="SVGID_3_">
				<use xlink:href="#SVGID_1_"  overflow="visible"/>
			</clipPath>
			<linearGradient id="SVGID_4_" gradientUnits="userSpaceOnUse" x1="-170.7202" y1="269.291" x2="709.3037" y2="269.291">
				<stop  offset="0" style="stop-color:#53479D"/>
				<stop  offset="1" style="stop-color:#9361A8"/>
				<a:midPointStop  offset="0" style="stop-color:#53479D"/>
				<a:midPointStop  offset="0.5" style="stop-color:#53479D"/>
				<a:midPointStop  offset="1" style="stop-color:#9361A8"/>
			</linearGradient>
			
				<rect x="-170.72" y="-170.72" i:knockout="Off" clip-path="url(#SVGID_3_)" fill="url(#SVGID_4_)" width="880.024" height="880.023"/>
		</g>
		<g i:knockout="Off">
			<path fill="#564E86" d="M269.288,196.024c-40.4,0-73.264,32.864-73.264,73.265c0,40.401,32.864,73.266,73.264,73.266
				c40.4,0,73.266-32.865,73.266-73.266C342.554,228.888,309.688,196.024,269.288,196.024z M269.288,332.088
				c-34.627,0-62.797-28.17-62.797-62.799c0-34.628,28.17-62.798,62.797-62.798c34.629,0,62.799,28.17,62.799,62.798
				C332.087,303.918,303.917,332.088,269.288,332.088z"/>
			<path fill="#564E86" d="M396.036,237.89h-10.561c-2.695-10.006-6.656-19.583-11.826-28.558l7.463-7.463
				c2.746-2.747,4.26-6.405,4.26-10.288c0-3.889-1.514-7.541-4.26-10.294l-23.828-23.827c-5.494-5.489-15.076-5.5-20.582,0
				l-7.463,7.463c-8.979-5.165-18.551-9.127-28.551-11.821v-10.562c0-8.022-6.525-14.548-14.549-14.548h-33.701
				c-8.023,0-14.548,6.525-14.548,14.548v10.562c-10.001,2.694-19.572,6.656-28.558,11.827l-7.463-7.463
				c-5.5-5.506-15.087-5.495-20.582,0l-23.827,23.826c-2.747,2.748-4.26,6.405-4.26,10.294c0,3.883,1.513,7.536,4.26,10.288
				l7.463,7.463c-5.165,8.97-9.132,18.547-11.821,28.553h-10.562c-8.022,0-14.548,6.525-14.548,14.548v33.697
				c0,8.027,6.525,14.553,14.548,14.553h10.562c2.694,10.002,6.656,19.572,11.826,28.559l-7.462,7.463
				c-2.748,2.746-4.26,6.404-4.26,10.287c0,3.889,1.512,7.541,4.26,10.295l23.826,23.826c5.495,5.5,15.082,5.506,20.582,0
				l7.463-7.463c8.985,5.166,18.557,9.133,28.558,11.826v10.562c0,8.021,6.525,14.547,14.547,14.547h33.697
				c8.023,0,14.549-6.525,14.549-14.547V385.48c10-2.693,19.572-6.656,28.557-11.826l7.463,7.463c5.506,5.506,15.082,5.494,20.582,0
				l23.826-23.826c2.748-2.748,4.26-6.406,4.26-10.295c0-3.883-1.512-7.535-4.26-10.287l-7.463-7.463
				c5.166-8.986,9.133-18.557,11.828-28.559h10.561c8.021,0,14.549-6.525,14.549-14.547v-33.703
				C410.585,244.416,404.06,237.89,396.036,237.89z M400.118,286.141c0,2.25-1.832,4.082-4.082,4.082h-18.797l-0.943,4.045
				c-2.725,11.707-7.32,22.816-13.674,33.025l-2.197,3.527l13.287,13.287c1.596,1.598,1.596,4.188,0,5.777l-23.826,23.828
				c-1.592,1.59-4.182,1.602-5.777,0l-13.287-13.287l-3.527,2.197c-10.205,6.354-21.314,10.953-33.027,13.674l-4.045,0.941v18.799
				c0,2.25-1.832,4.082-4.082,4.082h-33.701c-2.252,0-4.082-1.832-4.082-4.082V377.24l-4.046-0.943
				c-11.705-2.727-22.816-7.32-33.025-13.674l-3.527-2.197l-13.287,13.287c-1.602,1.602-4.192,1.59-5.777,0l-23.827-23.828
				c-1.597-1.596-1.597-4.186,0-5.777l13.287-13.287l-2.198-3.527c-6.354-10.205-10.953-21.314-13.674-33.025l-0.942-4.045h-18.798
				c-2.25,0-4.081-1.832-4.081-4.082v-33.703c0-2.251,1.831-4.082,4.081-4.082h18.798l0.942-4.046
				c2.727-11.711,7.32-22.821,13.674-33.025l2.198-3.527l-13.287-13.287c-1.597-1.597-1.597-4.188,0-5.777l23.827-23.827
				c1.59-1.591,4.181-1.602,5.777,0l13.287,13.287l3.527-2.198c10.204-6.354,21.314-10.953,33.025-13.674l4.046-0.942v-18.798
				c0-2.25,1.83-4.081,4.082-4.081h33.695c2.256,0,4.088,1.831,4.088,4.081v18.798l4.045,0.942
				c11.707,2.727,22.816,7.32,33.027,13.674l3.527,2.198l13.287-13.287c1.602-1.602,4.191-1.591,5.777,0l23.826,23.827
				c1.596,1.596,1.596,4.186,0,5.777l-13.287,13.287l2.197,3.527c6.354,10.199,10.953,21.309,13.674,33.025l0.943,4.046h18.797
				c2.25,0,4.082,1.831,4.082,4.082V286.141z"/>
			<path fill="#564E86" d="M269.288,216.957c-28.855,0-52.332,23.477-52.332,52.332c0,28.856,23.477,52.333,52.332,52.333
				c28.857,0,52.332-23.477,52.332-52.333C321.62,240.433,298.146,216.957,269.288,216.957z M269.288,311.154
				c-23.083,0-41.865-18.781-41.865-41.866c0-23.083,18.782-41.865,41.865-41.865c23.084,0,41.865,18.782,41.865,41.865
				C311.153,292.373,292.372,311.154,269.288,311.154z"/>
		</g>
	</g>
</g>
</svg>
