<?xml version="1.0" encoding="utf-8"?>
<!-- Generator: Adobe Illustrator 16.0.0, SVG Export Plug-In . SVG Version: 6.00 Build 0)  -->
<!DOCTYPE svg PUBLIC "-//W3C//DTD SVG 1.1//EN" "http://www.w3.org/Graphics/SVG/1.1/DTD/svg11.dtd" [
	<!ENTITY ns_flows "http://ns.adobe.com/Flows/1.0/">
	<!ENTITY ns_extend "http://ns.adobe.com/Extensibility/1.0/">
	<!ENTITY ns_ai "http://ns.adobe.com/AdobeIllustrator/10.0/">
	<!ENTITY ns_graphs "http://ns.adobe.com/Graphs/1.0/">
	<!ENTITY ns_vars "http://ns.adobe.com/Variables/1.0/">
	<!ENTITY ns_imrep "http://ns.adobe.com/ImageReplacement/1.0/">
	<!ENTITY ns_sfw "http://ns.adobe.com/SaveForWeb/1.0/">
	<!ENTITY ns_custom "http://ns.adobe.com/GenericCustomNamespace/1.0/">
	<!ENTITY ns_adobe_xpath "http://ns.adobe.com/XPath/1.0/">
]>
<svg version="1.1"
	 xmlns:x="&ns_extend;" xmlns:i="&ns_ai;" xmlns:graph="&ns_graphs;" i:viewOrigin="-107 99.6992" i:rulerOrigin="107 438.8838" i:pageBounds="-107 99.6992 431.583 -438.8838"
	 xmlns="http://www.w3.org/2000/svg" xmlns:xlink="http://www.w3.org/1999/xlink" xmlns:a="http://ns.adobe.com/AdobeSVGViewerExtensions/3.0/"
	 x="0px" y="0px" width="538.583px" height="538.583px" viewBox="0 0 538.583 538.583" enable-background="new 0 0 538.583 538.583"
	 xml:space="preserve">
<metadata>
	<variableSets  xmlns="&ns_vars;">
		<variableSet  locked="none" varSetName="binding1">
			<variables></variables>
			<v:sampleDataSets  xmlns:v="&ns_vars;" xmlns="&ns_custom;"></v:sampleDataSets>
		</variableSet>
	</variableSets>
</metadata>
<g id="Warstwa_1" i:layer="yes" i:dimmedPercent="50" i:rgbTrio="#4F008000FFFF">
	<g>
		<g i:knockout="Off">
			<g>
				<defs>
					<path id="SVGID_1_" d="M269.291,22.885v17.601c-126.366,0-228.805,102.439-228.805,228.806
						c0,126.367,102.439,228.806,228.805,228.806c126.367,0,228.807-102.439,228.807-228.806
						c0-126.366-102.439-228.806-228.807-228.806V22.885z M269.291,22.885V5.285c145.787,0,264.008,118.185,264.008,264.007
						c0,145.824-118.221,264.007-264.008,264.007C123.5,533.299,5.285,415.115,5.285,269.292
						C5.285,123.469,123.5,5.285,269.291,5.285V22.885z"/>
				</defs>
				<linearGradient id="SVGID_2_" gradientUnits="userSpaceOnUse" x1="5.2847" y1="269.292" x2="533.2988" y2="269.292">
					<stop  offset="0" style="stop-color:#53479D"/>
					<stop  offset="1" style="stop-color:#9361A8"/>
					<a:midPointStop  offset="0" style="stop-color:#53479D"/>
					<a:midPointStop  offset="0.5" style="stop-color:#53479D"/>
					<a:midPointStop  offset="1" style="stop-color:#9361A8"/>
				</linearGradient>
				<use xlink:href="#SVGID_1_"  overflow="visible" fill="url(#SVGID_2_)"/>
				<clipPath id="SVGID_3_">
					<use xlink:href="#SVGID_1_"  overflow="visible"/>
				</clipPath>
				<linearGradient id="SVGID_4_" gradientUnits="userSpaceOnUse" x1="-170.7202" y1="269.291" x2="709.3047" y2="269.291">
					<stop  offset="0" style="stop-color:#53479D"/>
					<stop  offset="1" style="stop-color:#9361A8"/>
					<a:midPointStop  offset="0" style="stop-color:#53479D"/>
					<a:midPointStop  offset="0.5" style="stop-color:#53479D"/>
					<a:midPointStop  offset="1" style="stop-color:#9361A8"/>
				</linearGradient>
				
					<rect x="-170.72" y="-170.72" i:knockout="Off" clip-path="url(#SVGID_3_)" fill="url(#SVGID_4_)" width="880.025" height="880.023"/>
			</g>
		</g>
		<g i:knockout="Off">
			<g i:knockout="Off">
				<g i:knockout="Off">
					<path fill="#564E86" d="M400.436,255.765c-1.535-12.299-6.674-22.093-8.832-25.766c1.561-25.588-3.512-44.856-15.086-57.286
						c-9.021-9.688-19.559-12.43-24.912-13.204c-8.162-17.255-22.039-20.593-30.473-19.781
						c-15.793-14.708-30.398-15.057-40.023-12.656c-6.35,1.587-11.318,4.561-14.402,6.803c-3.082-2.244-8.055-5.216-14.4-6.803
						c-9.626-2.405-24.234-2.054-40.025,12.656c-8.441-0.814-22.313,2.526-30.472,19.781c-5.354,0.771-15.892,3.514-24.913,13.204
						c-11.576,12.43-16.646,31.698-15.085,57.286c-2.158,3.67-7.296,13.467-8.833,25.766c-1.739,13.936,0.915,33.588,22.706,49.534
						c-2.525,14.906-0.136,40.568,23.672,53.186c-0.988,5.422-1.644,14.828,3.196,22.869c3.807,6.322,10.095,10.482,18.711,12.385
						c4.351,6.713,19.348,27.508,38.062,27.508c0.118,0,0.239,0,0.357-0.004c10.034-0.143,19.098-6.074,27.022-17.652
						c7.928,11.576,16.994,17.51,27.021,17.652c18.854,0.275,34.043-20.748,38.422-27.504c8.617-1.902,14.906-6.061,18.711-12.385
						c4.842-8.041,4.184-17.447,3.197-22.869c23.811-12.617,26.199-38.279,23.674-53.186
						C399.523,289.354,402.18,269.703,400.436,255.765z M369.193,298.781c-1.799,1.199-2.65,3.4-2.127,5.5
						c0.35,1.393,8.176,34.184-20.965,46.67c-2.449,1.051-3.684,3.799-2.84,6.324c0.035,0.109,3.486,11.066-1.172,18.801
						c-2.525,4.199-7.223,6.895-13.947,8.016c-1.5,0.248-2.811,1.154-3.578,2.467c-4.004,6.83-17.238,24.449-30.48,24.449
						c-0.074,0-0.152,0-0.229,0c-7.965-0.121-15.557-6.695-22.561-19.533c-0.898-1.645-2.814-2.668-4.689-2.668
						s-3.596,1.021-4.494,2.668c-7.002,12.838-14.593,19.412-22.561,19.533c-13.258,0.215-26.682-17.58-30.708-24.449
						c-0.769-1.312-2.082-2.219-3.577-2.467c-6.706-1.117-11.391-3.803-13.922-7.975c-4.717-7.775-1.227-18.748-1.195-18.844
						c0.839-2.525-0.393-5.273-2.841-6.322c-28.987-12.424-21.301-45.289-20.964-46.67c0.525-2.1-0.326-4.301-2.126-5.502
						c-38.187-25.459-13.974-63.07-12.93-64.649c0.63-0.945,0.928-2.072,0.848-3.205c-1.669-23.338,2.404-40.521,12.104-51.073
						c9.326-10.145,20.614-10.405,21.057-10.412c2.093,0,3.974-1.274,4.752-3.217c5.729-14.317,14.934-16.363,19.721-16.363
						c1.54,0,2.625,0.214,2.983,0.298c1.746,0.435,3.589-0.073,4.86-1.348c10.418-10.412,21.122-14.411,31.824-11.897
						c8.188,1.925,13.518,7.081,13.555,7.117c0.959,0.96,2.262,1.5,3.617,1.5h0.195c1.357,0,2.66-0.54,3.619-1.5
						c0.051-0.052,5.201-5.033,13.168-7.026c10.826-2.704,21.666,1.262,32.209,11.807c1.244,1.246,3.088,1.749,4.812,1.359
						c1.529-0.351,15.18-2.876,22.754,16.055c0.768,1.92,2.652,3.191,4.719,3.217c0.475,0.008,11.762,0.267,21.09,10.412
						c9.699,10.553,13.77,27.736,12.104,51.074c-0.08,1.131,0.217,2.26,0.848,3.204c0.066,0.098,6.523,9.908,8.146,22.907
						C392.393,273.998,385.301,288.043,369.193,298.781z"/>
				</g>
			</g>
			<g i:knockout="Off">
				<g i:knockout="Off">
					<path fill="#564E86" d="M352.783,162.705c-0.895-2.683-3.799-4.129-6.475-3.237c-31.832,10.612-32.201,37.214-32.201,38.34
						c0,2.813,2.271,5.083,5.084,5.1c0.014,0,0.023,0,0.035,0c2.797,0,5.08-2.268,5.117-5.065
						c0.014-0.832,0.566-20.451,25.199-28.662C352.227,168.285,353.676,165.387,352.783,162.705z"/>
				</g>
			</g>
			<g i:knockout="Off">
				<g i:knockout="Off">
					<path fill="#564E86" d="M375.91,299.932c-1.715-2.246-4.922-2.682-7.174-0.967c-8.342,6.355-15.885,8.621-22.406,6.742
						c-11.617-3.348-17.471-18.648-17.525-18.805c-0.982-2.648-3.928-4.002-6.57-3.018c-2.65,0.979-4.008,3.924-3.027,6.574
						c0.305,0.824,7.648,20.246,24.229,25.066c2.473,0.719,4.994,1.078,7.561,1.078c7.631,0,15.656-3.176,23.947-9.498
						C377.191,305.395,377.623,302.18,375.91,299.932z"/>
				</g>
			</g>
			<g i:knockout="Off">
				<g i:knockout="Off">
					<path fill="#564E86" d="M289.363,304.201c-1.994-1.998-5.24-1.998-7.236,0c-1.998,2-1.998,5.24,0,7.238
						c16.621,16.621,13.172,32.678,12.996,33.439c-0.666,2.732,1,5.492,3.73,6.174c0.414,0.104,0.832,0.154,1.242,0.154
						c2.293,0,4.383-1.555,4.963-3.881C305.285,346.432,310.305,325.143,289.363,304.201z"/>
				</g>
			</g>
			<g i:knockout="Off">
				<g i:knockout="Off">
					<path fill="#564E86" d="M368.783,256.232c-0.965-2.652-3.898-4.024-6.553-3.068c-1.037,0.37-25.443,8.904-38.406-8.349
						c-6.732-8.961-9.627-16.635-11.951-22.799c-2.854-7.563-5.547-14.708-14.496-15.446c-2.791-0.235-5.289,1.862-5.52,4.681
						c-0.232,2.814,1.863,5.287,4.682,5.519c2.143,0.175,2.947,1.418,5.754,8.856c2.42,6.417,5.736,15.204,13.346,25.335
						c8.92,11.871,21.363,14.852,31.625,14.852c9.934,0,17.818-2.797,18.469-3.03C368.383,261.815,369.744,258.884,368.783,256.232z
						"/>
				</g>
			</g>
			<g i:knockout="Off">
				<g i:knockout="Off">
					<path fill="#564E86" d="M266.611,135.291c-2.826,0-5.117,2.292-5.117,5.117v253.51c0,2.826,2.291,5.119,5.117,5.119
						c2.824,0,5.117-2.291,5.117-5.117V140.408C271.729,137.583,269.436,135.291,266.611,135.291z"/>
				</g>
			</g>
			<g i:knockout="Off">
				<g i:knockout="Off">
					<path fill="#564E86" d="M304.037,179.388c-0.039-2.825-2.279-5.118-5.191-5.045c-2.83,0.04-5.086,2.368-5.045,5.193
						c0.004,0.319,0.283,32.235-15.676,52.476c-1.75,2.221-1.373,5.438,0.85,7.188c0.939,0.743,2.055,1.102,3.166,1.102
						c1.512,0,3.012-0.667,4.02-1.949C304.348,215.291,304.059,180.845,304.037,179.388z"/>
				</g>
			</g>
			<g i:knockout="Off">
				<g i:knockout="Off">
					<path fill="#564E86" d="M314.443,336.184c-22.562,0-33.117,30.883-33.555,32.201c-0.895,2.678,0.553,5.57,3.232,6.469
						c0.537,0.182,1.086,0.264,1.623,0.264c2.139,0,4.135-1.35,4.855-3.494c2.357-7.01,11.238-25.203,23.846-25.203
						c2.826,0,5.119-2.293,5.119-5.119C319.564,338.477,317.27,336.184,314.443,336.184z"/>
				</g>
			</g>
			<g i:knockout="Off">
				<g i:knockout="Off">
					<path fill="#564E86" d="M320.209,138.931c-2.262-1.688-5.471-1.218-7.16,1.051l-12.281,16.501
						c-1.686,2.265-1.215,5.472,1.053,7.161c0.916,0.685,1.986,1.014,3.051,1.014c1.562,0,3.105-0.712,4.109-2.064l12.279-16.501
						C322.947,143.828,322.479,140.621,320.209,138.931z"/>
				</g>
			</g>
			<g i:knockout="Off">
				<g i:knockout="Off">
					<path fill="#564E86" d="M215.417,172.015c-11.289,0-20.474,9.185-20.474,20.474c0,11.29,9.185,20.475,20.474,20.475
						s20.475-9.185,20.475-20.475C235.891,181.2,226.706,172.015,215.417,172.015z M215.417,202.727
						c-5.646,0-10.238-4.592-10.238-10.238c0-5.646,4.593-10.237,10.238-10.237c5.646,0,10.239,4.592,10.239,10.237
						C225.653,198.135,221.062,202.727,215.417,202.727z"/>
				</g>
			</g>
			<g i:knockout="Off">
				<g i:knockout="Off">
					<path fill="#564E86" d="M179.584,238.558c-11.289,0-20.475,9.186-20.475,20.475s9.186,20.473,20.475,20.473
						s20.475-9.184,20.475-20.473S190.874,238.558,179.584,238.558z M179.584,269.27c-5.646,0-10.238-4.591-10.238-10.237
						s4.593-10.238,10.238-10.238c5.646,0,10.237,4.592,10.237,10.238S185.231,269.27,179.584,269.27z"/>
				</g>
			</g>
			<g i:knockout="Off">
				<g i:knockout="Off">
					<path fill="#564E86" d="M230.773,284.627c-11.289,0-20.475,9.186-20.475,20.475s9.186,20.475,20.475,20.475
						c11.29,0,20.475-9.186,20.475-20.475S242.063,284.627,230.773,284.627z M230.773,315.34c-5.646,0-10.238-4.592-10.238-10.238
						s4.593-10.238,10.238-10.238s10.238,4.592,10.238,10.238S236.417,315.34,230.773,315.34z"/>
				</g>
			</g>
			<g i:knockout="Off">
				<g i:knockout="Off">
					<path fill="#564E86" d="M230.773,340.934c-11.289,0-20.475,9.186-20.475,20.475s9.186,20.475,20.475,20.475
						c11.29,0,20.475-9.186,20.475-20.475S242.063,340.934,230.773,340.934z M230.773,371.646c-5.646,0-10.238-4.592-10.238-10.236
						c0-5.648,4.593-10.24,10.238-10.24s10.238,4.592,10.238,10.24C241.009,367.055,236.417,371.646,230.773,371.646z"/>
				</g>
			</g>
			<g i:knockout="Off">
				<g i:knockout="Off">
					<path fill="#564E86" d="M215.417,202.727c-2.826,0-5.118,2.293-5.118,5.118v51.188c0,2.825,2.292,5.118,5.118,5.118
						c2.828,0,5.118-2.29,5.118-5.118v-51.188C220.535,205.02,218.242,202.727,215.417,202.727z"/>
				</g>
			</g>
			<g i:knockout="Off">
				<g i:knockout="Off">
					<path fill="#564E86" d="M230.773,253.914h-35.832c-2.826,0-5.119,2.293-5.119,5.119c0,2.825,2.293,5.118,5.119,5.118h35.83
						c2.83,0,5.119-2.293,5.119-5.118C235.891,256.207,233.598,253.914,230.773,253.914z"/>
				</g>
			</g>
			<g i:knockout="Off">
				<g i:knockout="Off">
					<path fill="#564E86" d="M230.773,253.914c-2.825,0-5.117,2.293-5.117,5.119v30.711c0,2.826,2.292,5.119,5.117,5.119
						c2.828,0,5.118-2.289,5.118-5.119v-30.711C235.891,256.207,233.598,253.914,230.773,253.914z"/>
				</g>
			</g>
			<g i:knockout="Off">
				<g i:knockout="Off">
					<path fill="#564E86" d="M230.773,315.34c-2.825,0-5.117,2.293-5.117,5.117v25.596c0,2.826,2.292,5.117,5.117,5.117
						c2.828,0,5.118-2.289,5.118-5.117v-25.596C235.891,317.633,233.598,315.34,230.773,315.34z"/>
				</g>
			</g>
		</g>
	</g>
</g>
</svg>
