<?xml version="1.0" encoding="UTF-8" standalone="no"?>
<svg width="113px" height="118px" viewBox="0 0 113 118" version="1.1" xmlns="http://www.w3.org/2000/svg" xmlns:xlink="http://www.w3.org/1999/xlink">
    <!-- Generator: Sketch 49.3 (51167) - http://www.bohemiancoding.com/sketch -->
    <title>Page 1</title>
    <desc>Created with Sketch.</desc>
    <defs>
        <path d="M0.104028355,58.9174 C0.104028355,91.3651736 25.3395558,117.668709 56.4724442,117.668709 C87.6053327,117.668709 112.840647,91.3651736 112.840647,58.9174 C112.840647,26.4671774 87.6053327,0.166090566 56.4724442,0.166090566 C25.3395558,0.166090566 0.104028355,26.4671774 0.104028355,58.9174 Z" id="path-1"></path>
        <linearGradient x1="0%" y1="0%" x2="101.999998%" y2="100.999999%" id="linearGradient-3">
            <stop stop-color="#3023AE" offset="0%"></stop>
            <stop stop-color="#C86DD7" offset="100%"></stop>
        </linearGradient>
    </defs>
    <g id="Page-1" stroke="none" stroke-width="1" fill="none" fill-rule="evenodd">
        <g id="Customers" transform="translate(-1150.000000, -864.000000)">
            <g id="Page-1" transform="translate(1150.000000, 864.000000)">
                <g id="Group-3" transform="translate(0.000000, 0.165200)">
                    <mask id="mask-2" fill="white">
                        <use xlink:href="#path-1"></use>
                    </mask>
                    <g id="Clip-2"></g>
                    <polygon id="Fill-1" fill="url(#linearGradient-3)" mask="url(#mask-2)" points="-40.1587902 159.633962 153.103679 159.633962 153.103679 -41.7991623 -40.1587902 -41.7991623"></polygon>
                </g>
                <g id="Group-8" transform="translate(24.565217, 25.768974)" fill="#FFFFFF">
                    <path d="M38.4726336,39.5912709 C39.9300987,37.9363766 40.8219229,35.7315577 40.8219229,33.3136709 C40.8219229,30.8951162 39.9300987,28.6907426 38.4726336,27.0358483 C42.7600117,28.8078521 46.1538567,31.8115087 47.681386,33.3136709 C46.1532159,34.8162785 42.7593709,37.8194898 38.4726336,39.5912709 M25.3417773,27.0358483 C23.8840987,28.6907426 22.9924881,30.8951162 22.9924881,33.3136709 C22.9924881,35.732003 23.8840987,37.9363766 25.3417773,39.5912709 C21.0541856,37.8190445 17.6605543,34.8156106 16.133025,33.3136709 C17.6609815,31.8110634 21.0548265,28.8078521 25.3417773,27.0358483 M31.9070987,39.8980709 C28.4239645,39.8980709 25.5897792,36.9440634 25.5897792,33.3136709 C25.5897792,29.6828332 28.4237509,26.7292709 31.9070987,26.7292709 C35.3904465,26.7292709 38.2246318,29.6828332 38.2246318,33.3136709 C38.2246318,36.9438408 35.3904465,39.8980709 31.9070987,39.8980709 M50.4820344,32.4023992 C50.1441025,32.0158936 42.092265,22.9298936 31.9073123,22.9298936 C21.7221459,22.9298936 13.6703085,32.0156709 13.3325902,32.4023992 C12.8814446,32.9189275 12.8814446,33.7081917 13.3325902,34.22472 C13.6705221,34.6114483 21.7221459,43.6972257 31.9073123,43.6972257 C42.092265,43.6972257 50.1443161,34.6114483 50.4820344,34.22472 C50.9327527,33.7081917 50.9327527,32.9189275 50.4820344,32.4023992" id="Fill-4"></path>
                    <path d="M59.4546616,43.446843 C58.3011645,46.8532581 56.6012514,49.946194 54.4798847,52.6345902 L51.0420359,49.6801374 C54.5578526,45.223077 56.6715293,39.52056 56.6715293,33.3135374 C56.6715293,19.5353675 46.2597221,8.24432604 33.2057656,7.53788453 L33.2057656,2.88823925 C36.0681474,3.02160151 38.8959244,3.59623925 41.6294991,4.60146566 C56.8189206,10.1893223 64.8154329,27.6152506 59.4546616,43.446843 M31.9070132,63.7700053 C28.6024575,63.7700053 25.3314386,63.1831223 22.184741,62.0251638 C14.8267108,59.3185109 8.92016446,53.7872053 5.55344802,46.4504996 C2.37428166,39.5221185 1.82060302,31.7668468 3.95564083,24.4666543 L8.15394329,26.0111185 C7.49730435,28.3277034 7.14292439,30.7783185 7.14292439,33.3135374 C7.14292439,47.5458958 18.2521701,59.1245902 31.9072268,59.1245902 C38.6733422,59.1245902 44.8131512,56.2812355 49.287225,51.6810166 L52.7400265,54.6486053 C47.3570397,60.3517902 39.9026711,63.7700053 31.9070132,63.7700053 M30.6082609,2.88868453 L30.6082609,7.53877509 C20.8597146,8.06643547 12.5857221,14.4974355 9.02034783,23.4592015 L4.82012287,21.9138468 C9.09511153,10.8786204 19.2080775,3.41812604 30.6082609,2.88868453 M31.9070132,10.2095826 C44.129811,10.2095826 54.0740246,20.5739902 54.0740246,33.3135374 C54.0740246,46.0533072 44.1300246,56.4174921 31.9070132,56.4174921 C19.6842155,56.4174921 9.7402155,46.0533072 9.7402155,33.3135374 C9.7402155,20.5739902 19.6842155,10.2095826 31.9070132,10.2095826 M60.6041002,19.0085977 C56.9381153,11.0195525 50.5063006,4.99620906 42.4939811,2.04888075 C39.068949,0.788729811 35.5069924,0.149971321 31.9070132,0.149971321 C18.4471966,0.149971321 6.39272401,9.04294113 1.91031947,22.2789789 C-0.917457467,30.6302619 -0.455844991,39.6294317 3.21013989,47.618477 C6.87633837,55.6079675 13.3081531,61.6310883 21.3204726,64.5784166 C24.7455047,65.8383449 28.3074612,66.4771034 31.9072268,66.4771034 C45.3672571,66.4771034 57.4219433,57.5841336 61.9039206,44.3478732 C64.7314839,35.9965902 64.2700851,26.9978657 60.6041002,19.0085977" id="Fill-6"></path>
                </g>
            </g>
        </g>
    </g>
</svg>