<?xml version="1.0" encoding="utf-8"?>
<!-- Generator: Adobe Illustrator 16.0.0, SVG Export Plug-In . SVG Version: 6.00 Build 0)  -->
<!DOCTYPE svg PUBLIC "-//W3C//DTD SVG 1.1//EN" "http://www.w3.org/Graphics/SVG/1.1/DTD/svg11.dtd" [
	<!ENTITY ns_flows "http://ns.adobe.com/Flows/1.0/">
	<!ENTITY ns_extend "http://ns.adobe.com/Extensibility/1.0/">
	<!ENTITY ns_ai "http://ns.adobe.com/AdobeIllustrator/10.0/">
	<!ENTITY ns_graphs "http://ns.adobe.com/Graphs/1.0/">
	<!ENTITY ns_vars "http://ns.adobe.com/Variables/1.0/">
	<!ENTITY ns_imrep "http://ns.adobe.com/ImageReplacement/1.0/">
	<!ENTITY ns_sfw "http://ns.adobe.com/SaveForWeb/1.0/">
	<!ENTITY ns_custom "http://ns.adobe.com/GenericCustomNamespace/1.0/">
	<!ENTITY ns_adobe_xpath "http://ns.adobe.com/XPath/1.0/">
]>
<svg version="1.1"
	 xmlns:x="&ns_extend;" xmlns:i="&ns_ai;" xmlns:graph="&ns_graphs;" i:viewOrigin="-107 99.6992" i:rulerOrigin="107 438.8838" i:pageBounds="-107 99.6992 431.583 -438.8838"
	 xmlns="http://www.w3.org/2000/svg" xmlns:xlink="http://www.w3.org/1999/xlink" xmlns:a="http://ns.adobe.com/AdobeSVGViewerExtensions/3.0/"
	 x="0px" y="0px" width="538.583px" height="538.583px" viewBox="0 0 538.583 538.583" enable-background="new 0 0 538.583 538.583"
	 xml:space="preserve">
<metadata>
	<variableSets  xmlns="&ns_vars;">
		<variableSet  locked="none" varSetName="binding1">
			<variables></variables>
			<v:sampleDataSets  xmlns:v="&ns_vars;" xmlns="&ns_custom;"></v:sampleDataSets>
		</variableSet>
	</variableSets>
</metadata>
<g id="Warstwa_1" i:layer="yes" i:dimmedPercent="50" i:rgbTrio="#4F008000FFFF">
	<g>
		<g i:knockout="Off">
			<defs>
				<path id="SVGID_1_" i:knockout="Off" d="M269.291,5.408c145.745,0,263.885,118.132,263.885,263.884
					c0,145.74-118.14,263.883-263.885,263.883c-145.746,0-263.883-118.143-263.883-263.883
					C5.408,123.54,123.545,5.408,269.291,5.408"/>
			</defs>
			<linearGradient id="SVGID_2_" gradientUnits="userSpaceOnUse" x1="5.4077" y1="269.2915" x2="533.1758" y2="269.2915">
				<stop  offset="0" style="stop-color:#53479D"/>
				<stop  offset="1" style="stop-color:#9361A8"/>
				<a:midPointStop  offset="0" style="stop-color:#53479D"/>
				<a:midPointStop  offset="0.5" style="stop-color:#53479D"/>
				<a:midPointStop  offset="1" style="stop-color:#9361A8"/>
			</linearGradient>
			<use xlink:href="#SVGID_1_"  overflow="visible" fill-rule="evenodd" clip-rule="evenodd" fill="url(#SVGID_2_)"/>
			<clipPath id="SVGID_3_">
				<use xlink:href="#SVGID_1_"  overflow="visible"/>
			</clipPath>
			<linearGradient id="SVGID_4_" gradientUnits="userSpaceOnUse" x1="-183.0801" y1="269.292" x2="721.6621" y2="269.292">
				<stop  offset="0" style="stop-color:#53479D"/>
				<stop  offset="1" style="stop-color:#9361A8"/>
				<a:midPointStop  offset="0" style="stop-color:#53479D"/>
				<a:midPointStop  offset="0.5" style="stop-color:#53479D"/>
				<a:midPointStop  offset="1" style="stop-color:#9361A8"/>
			</linearGradient>
			
				<rect x="-183.08" y="-183.08" i:knockout="Off" clip-path="url(#SVGID_3_)" fill="url(#SVGID_4_)" width="904.742" height="904.743"/>
		</g>
		<g>
			<g i:knockout="Off">
				<g i:knockout="Off">
					<path fill="#FFFFFF" d="M257.887,112.271H233c-51.519,0.059-93.269,41.809-93.327,93.327v10.459l-30.336,54.976
						c-0.505,0.921-0.771,1.954-0.772,3.005c-0.011,0.354-0.011,0.708,0,1.061c0.293,10.017,8.649,17.898,18.665,17.604
						c4.525,0.252,8.867,1.877,12.443,4.66v20.227c-0.014,0.476-0.014,0.952,0,1.428c0.395,13.351,11.536,23.854,24.887,23.46
						h37.331c0.354,0.01,0.708,0.01,1.061,0c10.016-0.293,17.897-8.65,17.604-18.666v-37.33h-12.443v37.33
						c0.036,0.371,0.036,0.743,0,1.112c-0.308,3.13-3.093,5.417-6.222,5.11H164.56c-0.496,0.031-0.994,0.031-1.491,0
						c-6.46-0.412-11.364-5.982-10.953-12.443v-23.194c0.001-1.782-0.763-3.479-2.096-4.66c-6.24-5.749-14.314-9.106-22.791-9.476
						c-0.027,0.003-0.056,0.007-0.083,0.01c-3,0.317-5.69-1.856-6.008-4.857l30.207-54.751c0.506-0.921,0.771-1.955,0.772-3.005
						v-12.059c0.052-44.649,36.234-80.832,80.883-80.883h24.813c0.379-0.041,0.76-0.043,1.14-0.007
						c3.144,0.295,5.453,3.084,5.157,6.228v31.109h12.442v-31.108c0.011-0.354,0.011-0.707,0-1.061
						C276.26,119.86,267.902,111.979,257.887,112.271z"/>
				</g>
			</g>
			<g i:knockout="Off">
				<g i:knockout="Off">
					<path fill="#FFFFFF" d="M363.657,298.926h-68.44v12.442h68.439c0.371-0.036,0.742-0.036,1.112,0
						c3.13,0.309,5.417,3.093,5.11,6.223v11.76c-0.896,3.714-6.895,25.57-24.888,25.57c-3.437,0-6.222,2.786-6.222,6.222v37.331
						H220.556v-18.665h-12.443v24.888c0,3.437,2.785,6.222,6.222,6.222h130.658l0,0c3.436,0,6.223-2.785,6.223-6.222v-37.878
						c19.449-3.678,28.719-24.198,30.982-35.539c0.084-0.41,0.126-0.827,0.125-1.245v-12.442c0.011-0.354,0.011-0.708,0-1.062
						C382.029,306.514,373.673,298.632,363.657,298.926z"/>
				</g>
			</g>
			<g i:knockout="Off">
				<g i:knockout="Off">
					<path fill="#FFFFFF" d="M400.988,186.933h-15.686c-0.658-1.848-1.412-3.661-2.259-5.431l11.1-11.1
						c2.429-2.429,2.429-6.368,0-8.798l-17.601-17.602c-2.431-2.429-6.369-2.429-8.799,0l-11.1,11.1
						c-1.771-0.843-3.584-1.594-5.432-2.252v-15.691c0-3.437-2.785-6.223-6.222-6.223h-24.888c-3.436,0-6.221,2.786-6.221,6.223
						v15.69c-3.388,1.196-6.651,2.72-9.744,4.548l6.322,10.715c3.498-2.061,7.268-3.62,11.199-4.636
						c2.746-0.709,4.665-3.186,4.666-6.022v-14.073h12.443v14.073c-0.004,2.836,1.91,5.315,4.653,6.029
						c3.931,1.016,7.701,2.576,11.2,4.636c2.444,1.444,5.559,1.05,7.565-0.959l9.955-9.955l8.804,8.785l-9.955,9.955
						c-2.011,2.006-2.406,5.119-0.964,7.566c2.063,3.497,3.628,7.267,4.647,11.198c0.709,2.745,3.183,4.664,6.017,4.667h14.073
						v12.437h-14.061c-2.836,0.004-5.309,1.923-6.018,4.668c-1.02,3.931-2.584,7.701-4.648,11.198
						c-1.442,2.446-1.045,5.56,0.965,7.566l9.955,9.954l-8.798,8.798l-9.954-9.955c-2.008-2.008-5.121-2.402-7.566-0.958
						c-3.498,2.061-7.269,3.62-11.199,4.636c-2.746,0.709-4.666,3.186-4.666,6.022v14.073h-12.443v-14.067
						c0-2.836-1.92-5.313-4.666-6.022c-3.932-1.015-7.701-2.575-11.2-4.635c-2.444-1.445-5.558-1.051-7.565,0.958l-9.953,9.953
						l-8.799-8.797l9.955-9.955c2.011-2.006,2.408-5.119,0.965-7.566c-2.064-3.498-3.629-7.268-4.648-11.198
						c-0.709-2.745-3.182-4.663-6.016-4.667h-20.295v12.443h15.69c0.656,1.849,1.407,3.661,2.251,5.432l-11.098,11.1
						c-2.43,2.429-2.43,6.367,0,8.798l17.602,17.601c2.428,2.43,6.367,2.43,8.797,0l11.1-11.099
						c1.771,0.843,3.584,1.594,5.432,2.252v15.69c0,3.438,2.785,6.223,6.221,6.223h24.889l0,0c3.436,0,6.223-2.785,6.223-6.223
						v-15.685c1.846-0.657,3.66-1.41,5.432-2.252l11.098,11.093c2.43,2.43,6.368,2.43,8.799,0l17.601-17.601
						c2.429-2.43,2.429-6.368,0-8.798l-11.104-11.1c0.846-1.771,1.599-3.583,2.258-5.432h15.691c3.436,0,6.221-2.786,6.221-6.223
						v-24.885C407.209,189.719,404.424,186.933,400.988,186.933z"/>
				</g>
			</g>
			<g i:knockout="Off">
				<g i:knockout="Off">
					<path fill="#FFFFFF" d="M332.549,180.711c-13.746,0-24.889,11.144-24.889,24.888s11.143,24.888,24.889,24.888
						c13.744,0,24.887-11.144,24.887-24.888S346.293,180.711,332.549,180.711z M332.549,218.042
						c-6.873,0-12.445-5.571-12.445-12.443c0-6.873,5.572-12.443,12.445-12.443c6.871,0,12.442,5.57,12.442,12.443
						C344.992,212.471,339.422,218.042,332.549,218.042z"/>
				</g>
			</g>
			<g i:knockout="Off">
				<g i:knockout="Off">
					<path fill="#FFFFFF" d="M201.891,211.82v6.222h-18.665v-6.222h-12.444v6.222c-0.003,0.172-0.003,0.344,0,0.516
						c0.143,6.729,5.714,12.069,12.444,11.928h18.665c0.172,0.004,0.343,0.004,0.516,0c6.73-0.143,12.07-5.713,11.927-12.443v-6.222
						H201.891z"/>
				</g>
			</g>
			<g i:knockout="Off">
				<g i:knockout="Off">
					<path fill="#FFFFFF" d="M282.773,286.481c-10.309,0-18.664,8.356-18.664,18.665s8.355,18.665,18.664,18.665
						s18.666-8.356,18.666-18.665S293.082,286.481,282.773,286.481z M282.773,311.368c-3.436,0-6.222-2.785-6.222-6.222
						s2.786-6.222,6.222-6.222c3.438,0,6.223,2.785,6.223,6.222S286.211,311.368,282.773,311.368z"/>
				</g>
			</g>
			<g i:knockout="Off">
				<g i:knockout="Off">
					<path fill="#FFFFFF" d="M214.334,255.372c-10.309,0-18.665,8.357-18.665,18.666c0,10.308,8.356,18.665,18.665,18.665
						S233,284.346,233,274.038C233,263.729,224.643,255.372,214.334,255.372z M214.334,280.261c-3.437,0-6.222-2.787-6.222-6.223
						c0-3.437,2.785-6.222,6.222-6.222c3.436,0,6.222,2.785,6.222,6.222C220.556,277.474,217.77,280.261,214.334,280.261z"/>
				</g>
			</g>
			<g i:knockout="Off">
				<g i:knockout="Off">
					<path fill="#FFFFFF" d="M270.33,155.824c-10.309,0-18.666,8.356-18.666,18.666c0,10.308,8.357,18.665,18.666,18.665
						s18.666-8.357,18.666-18.665C288.996,164.181,280.639,155.824,270.33,155.824z M270.33,180.711
						c-3.436,0-6.221-2.785-6.221-6.221c0-3.437,2.785-6.223,6.221-6.223s6.222,2.786,6.222,6.223
						C276.552,177.926,273.766,180.711,270.33,180.711z"/>
				</g>
			</g>
			<g i:knockout="Off">
				<g i:knockout="Off">
					<rect x="239.222" y="211.82" fill="#FFFFFF" width="12.442" height="12.443"/>
				</g>
			</g>
			<g i:knockout="Off">
				<g i:knockout="Off">
					<rect x="239.222" y="236.707" fill="#FFFFFF" width="12.442" height="12.443"/>
				</g>
			</g>
			<g i:knockout="Off">
				<g i:knockout="Off">
					<rect x="208.113" y="354.921" fill="#FFFFFF" width="12.443" height="12.444"/>
				</g>
			</g>
		</g>
	</g>
</g>
</svg>
