<svg xmlns="http://www.w3.org/2000/svg" viewBox="0 0 37.16 29.95"><defs><style>.cls-1{fill:#cca876;}</style></defs><title>bookline</title><g id="Warstwa_2" data-name="Warstwa 2"><g id="Warstwa_1-2" data-name="Warstwa 1"><path class="cls-1" d="M2.06,29.95H2a2,2,0,0,1-2-2V4A2,2,0,0,1,2,2L17.23,0h0a2,2,0,0,1,2.09,2V26.94a1.06,1.06,0,0,1-.36.81,2.62,2.62,0,0,1-2.06.25c-.2,0-.39,0-.54-.05ZM17.33,1.5,2.1,3.49A.54.54,0,0,0,1.5,4V27.94a.5.5,0,0,0,.46.5l14.37-2a6.91,6.91,0,0,1,.77.07c.2,0,.51.06.73.07V2A.5.5,0,0,0,17.33,1.5Z"/><path class="cls-1" d="M35.16,29.95h-.1l-14.27-2c-.15,0-.34,0-.54.05a2.62,2.62,0,0,1-2.06-.25,1.06,1.06,0,0,1-.36-.81V2a2,2,0,0,1,2-2L35.26,2h0a2,2,0,0,1,1.9,2V27.94A2,2,0,0,1,35.16,29.95Zm-14.33-3.5h.1l14.26,2a.5.5,0,0,0,.46-.5V4a.5.5,0,0,0-.5-.5l-15.42-2a.51.51,0,0,0-.41.51V26.58c.23,0,.54,0,.73-.07A6.93,6.93,0,0,1,20.83,26.45Z"/><path class="cls-1" d="M4.42,7a.7.7,0,0,1-.09-1.39L15.5,4.08a.7.7,0,1,1,.19,1.39L4.51,7Z"/><path class="cls-1" d="M4.42,12.76a.7.7,0,0,1-.09-1.39L15.5,9.87a.7.7,0,1,1,.19,1.39L4.51,12.75Z"/><path class="cls-1" d="M32.49,6.74h-.07L21.32,5.57a.7.7,0,0,1,.15-1.39L32.56,5.34a.7.7,0,0,1-.07,1.4Z"/><path class="cls-1" d="M32.49,12.53h-.07L21.32,11.36a.7.7,0,0,1-.62-.77.69.69,0,0,1,.77-.62l11.09,1.17a.7.7,0,0,1-.07,1.4Z"/><path class="cls-1" d="M4.42,18.61a.7.7,0,0,1-.09-1.39L15.5,15.73a.7.7,0,0,1,.19,1.39L4.51,18.61Z"/><path class="cls-1" d="M32.49,18.39h-.07L21.32,17.22a.7.7,0,0,1,.15-1.39L32.56,17a.7.7,0,0,1-.07,1.4Z"/><path class="cls-1" d="M4.42,24.22a.7.7,0,0,1-.09-1.39L15.5,21.33a.7.7,0,0,1,.19,1.39L4.51,24.21Z"/><path class="cls-1" d="M32.49,24h-.07L21.32,22.82a.7.7,0,0,1-.62-.77.69.69,0,0,1,.77-.62L32.56,22.6a.7.7,0,0,1-.07,1.4Z"/></g></g></svg>