<svg xmlns="http://www.w3.org/2000/svg" viewBox="0 0 36.53 41.92"><defs><style>.cls-1{fill:#cca876;}</style></defs><title>factoline</title><g id="Warstwa_2" data-name="Warstwa 2"><g id="Warstwa_1-2" data-name="Warstwa 1"><path class="cls-1" d="M35.39,41.92H.75A.75.75,0,0,1,0,41.17V29.41a.75.75,0,0,1,.19-.5l11.7-13.08a.75.75,0,0,1,1.31.5V26L23.26,14.43a.75.75,0,0,1,1.32.49V26.2h4.86V7.89a.75.75,0,0,1,.75-.75h5.2a.75.75,0,0,1,.75.75V41.17A.75.75,0,0,1,35.39,41.92ZM1.5,40.42H34.64V8.64h-3.7V27a.75.75,0,0,1-.75.75H23.82a.75.75,0,0,1-.75-.75v-10L13,28.53A.75.75,0,0,1,11.7,28V18.3L1.5,29.7Z"/><path class="cls-1" d="M31.13,33.34H17.93a.7.7,0,1,1,0-1.39h13.2a.7.7,0,0,1,0,1.39Z"/><path class="cls-1" d="M35.78,5.86H29.93a.75.75,0,0,1-.75-.75V.75A.75.75,0,0,1,29.93,0h5.85a.75.75,0,0,1,.75.75V5.11A.75.75,0,0,1,35.78,5.86Zm-5.1-1.5H35V1.5H30.68Z"/></g></g></svg>