<svg xmlns="http://www.w3.org/2000/svg" viewBox="0 0 34.7 16.93"><defs><style>.cls-1{fill:#fff;}.cls-2{fill:#cca876;}</style></defs><title>peepsline</title><g id="Warstwa_2" data-name="Warstwa 2"><g id="Warstwa_1-2" data-name="Warstwa 1"><ellipse class="cls-1" cx="23.98" cy="4.79" rx="4.09" ry="4.28"/><path class="cls-2" d="M24,9.59a4.71,4.71,0,0,1-4.6-4.79,4.61,4.61,0,1,1,9.21,0A4.71,4.71,0,0,1,24,9.59ZM24,1a3.69,3.69,0,0,0-3.59,3.77,3.59,3.59,0,1,0,7.17,0A3.69,3.69,0,0,0,24,1Z"/><path class="cls-1" d="M34.19,16.43H13.77c0-4.45,8.72-5.78,10.21-5.78S34.19,12,34.19,16.43Z"/><path class="cls-2" d="M34.7,16.93H13.26v-.51c0-5,9.39-6.29,10.72-6.29S34.7,11.39,34.7,16.42Zm-20.37-1h19.3C33,12.46,25.55,11.16,24,11.16S15,12.46,14.33,15.92Z"/><ellipse class="cls-1" cx="10.72" cy="4.79" rx="4.09" ry="4.28"/><path class="cls-2" d="M10.72,9.59a4.71,4.71,0,0,1-4.6-4.79A4.71,4.71,0,0,1,10.72,0a4.71,4.71,0,0,1,4.6,4.79A4.71,4.71,0,0,1,10.72,9.59Zm0-8.57A3.69,3.69,0,0,0,7.13,4.79a3.69,3.69,0,0,0,3.58,3.77A3.69,3.69,0,0,0,14.3,4.79,3.69,3.69,0,0,0,10.72,1Z"/><path class="cls-1" d="M20.93,16.43H.51c0-4.45,8.72-5.78,10.21-5.78S20.93,12,20.93,16.43Z"/><path class="cls-2" d="M21.44,16.93H0v-.51c0-5,9.39-6.29,10.72-6.29s10.72,1.25,10.72,6.29Zm-20.37-1h19.3c-.67-3.45-8.08-4.76-9.65-4.76S1.74,12.46,1.07,15.92Z"/><ellipse class="cls-1" cx="17.38" cy="4.79" rx="4.09" ry="4.28"/><path class="cls-2" d="M17.38,9.59a4.71,4.71,0,0,1-4.6-4.79A4.71,4.71,0,0,1,17.38,0,4.71,4.71,0,0,1,22,4.79,4.71,4.71,0,0,1,17.38,9.59Zm0-8.57A3.69,3.69,0,0,0,13.8,4.79a3.69,3.69,0,0,0,3.58,3.77A3.69,3.69,0,0,0,21,4.79,3.69,3.69,0,0,0,17.38,1Z"/><path class="cls-1" d="M27.59,16.43H7.17c0-4.45,8.72-5.78,10.21-5.78S27.59,12,27.59,16.43Z"/><path class="cls-2" d="M28.1,16.93H6.66v-.51c0-5,9.39-6.29,10.72-6.29S28.1,11.39,28.1,16.42Zm-20.37-1H27c-.67-3.45-8.08-4.76-9.65-4.76S8.4,12.46,7.73,15.92Z"/></g></g></svg>