<svg xmlns="http://www.w3.org/2000/svg" viewBox="0 0 33.94 26.66"><defs><style>.cls-1{fill:#57595b;}.cls-2{fill:#fff;}</style></defs><title>greyfloline</title><g id="Warstwa_2" data-name="Warstwa 2"><g id="Warstwa_1-2" data-name="Warstwa 1"><path class="cls-1" d="M33.44,17H.5A.5.5,0,0,1,0,16.33l2.37-6L.26,4.54a.5.5,0,0,1,.47-.67H32.94a.5.5,0,0,1,.48.64l-1.7,5.63,2.2,6.2a.5.5,0,0,1-.47.67ZM1.24,16H32.73l-2-5.69a.5.5,0,0,1,0-.31l1.56-5.15H1.45l2,5.33a.5.5,0,0,1,0,.36Z"/><polygon class="cls-2" points="28.5 10.17 30.48 19.67 29.02 19.67 28.5 19.68 5.44 19.68 4.92 19.67 3.46 19.67 5.44 10.17 5.53 9.69 5.44 9.34 3.46 0.5 5.34 0.55 5.44 0.55 16.97 0.56 28.5 0.55 28.6 0.55 30.48 0.5 28.5 9.34 28.43 9.7 28.5 10.17"/><path class="cls-1" d="M5.44,20.18h-2a.5.5,0,0,1-.49-.6L5,9.71,5,9.46,3,.61a.5.5,0,0,1,.1-.43A.53.53,0,0,1,3.47,0L5.35,0H17L30.47,0a.52.52,0,0,1,.4.18.5.5,0,0,1,.1.43l-2,9.1.06.37,2,9.49a.5.5,0,0,1-.49.6Zm-1.36-1H29.86L28,10.27v0l-.07-.48a.5.5,0,0,1,0-.17L28,9.24,29.85,1,28.5,1H5.33L4.09,1,6,9.57a.5.5,0,0,1,0,.21l-.09.48Z"/><path class="cls-1" d="M18.79,15.18h-3.1a.6.6,0,0,1,0-1.21h.86V5.73h-.86a.6.6,0,0,1,0-1.2h1.46a.6.6,0,0,1,.6.6V14h1a.6.6,0,0,1,0,1.21Z"/><path class="cls-2" d="M28.3,17v9l-3.46-2.9-3.62,3V17h0a3.55,3.55,0,0,1,3.56-3.46,3.5,3.5,0,0,1,3.46,2.89A3.2,3.2,0,0,1,28.3,17Z"/><path class="cls-1" d="M21.22,26.66a.5.5,0,0,1-.5-.5V17a4.06,4.06,0,0,1,4.06-4,4,4,0,0,1,4,3.3,3.71,3.71,0,0,1,.07.72v9a.5.5,0,0,1-.82.38l-3.14-2.63-3.3,2.76A.5.5,0,0,1,21.22,26.66ZM24.78,14a3.05,3.05,0,0,0-3.06,3v8.11l2.8-2.34a.5.5,0,0,1,.64,0L27.8,25V17a2.72,2.72,0,0,0-.05-.53A3,3,0,0,0,24.78,14Z"/></g></g></svg>