<svg xmlns="http://www.w3.org/2000/svg" viewBox="0 0 24.44 42.28"><defs><style>.cls-1{fill:#57595b;}</style></defs><title>greypenline</title><g id="Warstwa_2" data-name="Warstwa 2"><g id="Warstwa_1-2" data-name="Warstwa 1"><path class="cls-1" d="M.8,42.28a.46.46,0,0,1-.22-.05.53.53,0,0,1-.26-.66C1.76,38.85,0,33.74,0,33.69a.46.46,0,0,1,.1-.46,20.82,20.82,0,0,0,3.39-4.52c-.85-.57-.56-1.7-.28-2.24l.94-1.66c4.65-8.22,11.68-20.64,13.88-23A4.63,4.63,0,0,1,21.84,0a2.38,2.38,0,0,1,1.62.82,4.51,4.51,0,0,1,.8,4.22C23.49,8.22,17.14,21,12.94,29.46l-.85,1.7a2.26,2.26,0,0,1-1.16,1.08,1.25,1.25,0,0,1-.84,0c-.46.5-1.3,3.08-1.84,5.34a.46.46,0,0,1-.33.34c-.05,0-5.27,1.45-6.71,4.16a.46.46,0,0,1-.27.22ZM1,33.65A16.62,16.62,0,0,1,1.74,40a16.64,16.64,0,0,1,5.67-2.9c.51-2.09,1.44-5.35,2.35-5.76a.68.68,0,0,1,.61,0,.35.35,0,0,0,.29,0,1.37,1.37,0,0,0,.62-.62L12.11,29C16.3,20.63,22.63,7.91,23.36,4.85a3.64,3.64,0,0,0-.6-3.41,1.44,1.44,0,0,0-1-.51,3.79,3.79,0,0,0-3,1.46C16.61,4.71,9.61,17.08,5,25.26L4,26.91H4s-.42.82,0,1.07a.67.67,0,0,1,.35.49C4.6,29.45,2.42,32.05,1,33.65Zm6.81,3.78h0Z"/><path class="cls-1" d="M5.94,27.18a.47.47,0,0,1-.22-.06.46.46,0,0,1-.18-.63C10.41,17.8,18.76,3.18,20.11,2.93a.46.46,0,0,1,.17.9c-1.09.67-9.14,14.53-13.93,23.11A.46.46,0,0,1,5.94,27.18Z"/><circle class="cls-1" cx="4.57" cy="34.76" r="0.96"/></g></g></svg>