<svg xmlns="http://www.w3.org/2000/svg" viewBox="0 0 26.11 36.4"><defs><style>.cls-1{fill:#cca876;}</style></defs><title>docline</title><g id="Warstwa_2" data-name="Warstwa 2"><g id="Warstwa_1-2" data-name="Warstwa 1"><path class="cls-1" d="M22.63,36.4H3.48A3.48,3.48,0,0,1,0,32.92V2.5A2.5,2.5,0,0,1,2.5,0H22.63a3.48,3.48,0,0,1,3.48,3.48V32.92A3.48,3.48,0,0,1,22.63,36.4ZM2.5,1A1.5,1.5,0,0,0,1,2.5V32.92A2.48,2.48,0,0,0,3.48,35.4H22.63a2.48,2.48,0,0,0,2.48-2.48V3.48A2.48,2.48,0,0,0,22.63,1Z"/><path class="cls-1" d="M22.33,6.39H7.79a.5.5,0,0,1,0-1H22.33a.5.5,0,0,1,0,1Z"/><circle class="cls-1" cx="4.08" cy="5.88" r="1"/><path class="cls-1" d="M22.33,11.5H7.79a.5.5,0,0,1,0-1H22.33a.5.5,0,0,1,0,1Z"/><circle class="cls-1" cx="4.08" cy="10.99" r="1"/><path class="cls-1" d="M22.56,16.88H4a.5.5,0,0,1,0-1H22.56a.5.5,0,1,1,0,1Z"/><path class="cls-1" d="M22.56,21.48H4a.5.5,0,0,1,0-1H22.56a.5.5,0,0,1,0,1Z"/><path class="cls-1" d="M22.56,26.08H4a.5.5,0,0,1,0-1H22.56a.5.5,0,0,1,0,1Z"/><path class="cls-1" d="M22.56,30.46H4a.5.5,0,1,1,0-1H22.56a.5.5,0,0,1,0,1Z"/></g></g></svg>