<svg xmlns="http://www.w3.org/2000/svg" viewBox="0 0 16.71 34.5"><defs><style>.cls-1{fill:#57595b;}</style></defs><title>greyhourglassline</title><g id="Warstwa_2" data-name="Warstwa 2"><g id="Warstwa_1-2" data-name="Warstwa 1"><path class="cls-1" d="M16,.75c0,.09,0-.09,0,0Z"/><path class="cls-1" d="M16,33.75h0C16,33.84,16,33.66,16,33.75Z"/><path class="cls-1" d="M16,34.5H.75A.75.75,0,0,1,0,33.75V25.24a.75.75,0,0,1,.22-.53L5.63,19.3l1.06,1.06L1.5,25.55V33H15.21V25.55L.22,10.71A.75.75,0,0,1,0,10.18V.75A.75.75,0,0,1,.75,0H16a.75.75,0,0,1,.75.75v9.43a.75.75,0,0,1-.22.53l-5.34,5.4-1.07-1.05,5.12-5.18V1.5H1.5V9.87l15,14.84a.75.75,0,0,1,.22.53v8.51A.75.75,0,0,1,16,34.5Z"/><path class="cls-1" d="M12.79,9.79,8.37,14.21,4,9.87c1.2-.92,2.76-1,4.84,0A6.68,6.68,0,0,0,12.79,9.79Z"/><polygon class="cls-1" points="2.84 31.35 13.59 31.35 8.34 26.1 2.84 31.35"/></g></g></svg>