<?xml version="1.0" encoding="UTF-8" standalone="no"?>
<svg width="302px" height="73px" viewBox="0 0 302 73" version="1.1" xmlns="http://www.w3.org/2000/svg" xmlns:xlink="http://www.w3.org/1999/xlink">
    <!-- Generator: Sketch 50.2 (55047) - http://www.bohemiancoding.com/sketch -->
    <title>deco1</title>
    <desc>Created with Sketch.</desc>
    <defs>
        <linearGradient x1="103.682504%" y1="50%" x2="-0.937944523%" y2="50%" id="linearGradient-1">
            <stop stop-color="#E2B571" offset="0%"></stop>
            <stop stop-color="#FCDBB2" offset="36.9899093%"></stop>
            <stop stop-color="#FBFAE1" offset="69.4736205%"></stop>
            <stop stop-color="#DAB895" offset="100%"></stop>
        </linearGradient>
    </defs>
    <g id="Page-1" stroke="none" stroke-width="1" fill="none" fill-rule="evenodd">
        <g id="Strona-glowna-Copy" transform="translate(-803.000000, -296.000000)" fill="url(#linearGradient-1)">
            <g id="deco1" transform="translate(803.000000, 296.000000)">
                <g id="Group">
                    <path d="M80.9212308,39.647541 C80.9286154,39.6413934 80.6356923,39.3586066 80.2861538,38.6786885 C79.9526154,38.0184426 79.5563077,36.8061475 79.9870769,35.2631148 C80.3981538,33.7311475 81.6510769,32.1991803 83.2830769,31.1590164 C84.1003077,30.6278689 85.0147692,30.197541 85.9932308,29.8741803 C86.2381538,29.7954918 86.4867692,29.7204918 86.7403077,29.6553279 L86.9310769,29.607377 L87.2523077,29.5385246 C87.4738462,29.4954918 87.6966154,29.452459 87.9218462,29.4192623 C88.824,29.2717213 89.7261538,29.2311475 90.5987692,29.2311475 L92.4363077,29.2286885 C92.4018462,30.9979508 92.3907692,32.6983607 92.2221538,34.2991803 C92.0867692,35.2262295 91.8775385,36.1372951 91.512,37.0262295 C91.1526154,37.9090164 90.616,38.7389344 89.9686154,39.35 C89.3236923,39.9672131 88.6123077,40.3557377 87.9735385,40.5893443 C86.6861538,41.0467213 85.6769231,41.0221311 84.9987692,41 C84.3206154,40.9631148 83.9575385,40.8844262 83.9563077,40.8868852 L84.8387692,40.3618852 C85.3827692,40.0188525 86.1803077,39.507377 86.8510769,38.7758197 C87.5378462,38.0295082 87.8898462,37.172541 87.9723077,36.0278689 C88.0215385,35.4536885 88.0153846,34.7713115 87.9870769,34.0434426 C87.9169231,33.9795082 87.8615385,34.0004098 87.8381538,34.020082 L87.8246154,34.0336066 C87.8246154,34.0336066 87.8307692,34.0237705 87.8246154,34.0077869 L87.8196923,33.9942623 C87.8147692,33.9930328 87.8270769,33.9893443 87.8061538,33.9881148 L87.6646154,34.0090164 L87.1021538,34.1 C86.3624615,34.2303279 85.6584615,34.3938525 85.016,34.5991803 C83.7261538,35.004918 82.6984615,35.5606557 82.0375385,36.270082 C81.3606154,36.9696721 81.0763077,37.8782787 80.9889231,38.5520492 C80.8978462,39.2295082 80.9298462,39.6512295 80.9212308,39.647541 Z M93.2055385,50.5569672 C91.6301538,50.9713115 90.0966154,51.0918033 88.7932308,50.8717213 C87.4849231,50.6713115 86.4793846,50.0172131 86.0756923,49.4245902 C85.6584615,48.8381148 85.6498462,48.4581967 85.6338462,48.4668033 C85.6363077,48.4532787 85.9243077,48.7213115 86.4781538,48.8946721 C87.032,49.0729508 87.8024615,49.0397541 88.7058462,48.7213115 C89.6092308,48.4114754 90.6578462,47.8483607 91.7876923,47.1413934 L92.6467692,46.5844262 L93.0861538,46.2893443 L93.3064615,46.1368852 L93.4172308,46.0618852 C93.4492308,46.0372951 93.4295385,46.0434426 93.4356923,46.0336066 C93.4455385,45.945082 93.3963077,45.9131148 93.3692308,45.9057377 L93.3556923,45.9032787 C93.3556923,45.9032787 93.3655385,45.9032787 93.3778462,45.8909836 L93.3864615,45.879918 C93.3938462,45.879918 93.4012308,45.879918 93.3236923,45.7864754 L92.9876923,45.3930328 C92.5396923,44.8852459 92.088,44.4487705 91.6326154,44.0971311 C90.7304615,43.392623 89.7704615,43.0336066 88.7636923,42.9991803 C87.7667692,42.9610656 86.8350769,43.2131148 86.2024615,43.4172131 C85.5624615,43.627459 85.1993846,43.7860656 85.1981538,43.7811475 C85.2030769,43.7836066 85.3581538,43.4258197 85.7766154,42.8442623 C86.2024615,42.2762295 86.8953846,41.4352459 88.1938462,40.7897541 C88.84,40.4762295 89.6436923,40.2352459 90.5507692,40.1922131 C91.4553846,40.1467213 92.4424615,40.3065574 93.3778462,40.6643443 C94.3169231,41.0196721 95.2018462,41.5606557 95.9895385,42.2159836 C96.1852308,42.3807377 96.376,42.5528689 96.5618462,42.729918 C96.632,42.7963115 96.7883077,42.954918 96.936,43.1196721 C97.0849231,43.2770492 97.224,43.4430328 97.3655385,43.6065574 C97.9255385,44.2729508 98.408,44.9897541 98.8535385,45.7053279 L99.6830769,47.0258197 C99.0147692,47.5237705 98.3846154,47.9897541 97.7409231,48.4422131 C97.0910769,48.8934426 96.3895385,49.2967213 95.6978462,49.6459016 L95.4566154,49.7663934 L95.3052308,49.8327869 L95.0024615,49.9569672 L94.4006154,50.1856557 C93.9993846,50.3295082 93.6018462,50.4512295 93.2055385,50.5569672 Z M84.3858462,54.2270492 C84.5729231,53.6577869 84.7144615,53.1229508 84.7796923,52.6385246 C84.8781538,51.9733607 84.8227692,51.3696721 84.6738462,50.9418033 C84.5310769,50.5102459 84.3624615,50.2606557 84.3698462,50.2581967 C84.3673846,50.2680328 84.6566154,50.2409836 85.1686154,50.4278689 C85.6793846,50.604918 86.4043077,51.1004098 86.9667692,51.9770492 C87.5341538,52.8438525 87.9107692,54.0217213 87.9858462,55.3114754 C87.9944615,55.4860656 88.0043077,55.6065574 87.9956923,55.8290984 C87.9809231,56.0786885 87.9526154,56.3454918 87.9206154,56.6086066 C87.848,57.1385246 87.7323077,57.6770492 87.5796923,58.2057377 C87.256,59.2692623 86.7673846,60.1717213 86.2701538,61.1885246 L86.0215385,61.6704918 C84.9790769,61.0790984 83.9612308,60.4557377 83.0406154,59.8741803 C82.1298462,59.3061475 81.1784615,58.5758197 80.8966154,58.2057377 C80.0424615,57.2934426 79.3938462,56.1155738 79.2978462,55.027459 C79.1883077,53.9356557 79.5698462,53.1733607 79.8516923,52.7663934 C80.152,52.3508197 80.376,52.1934426 80.3686154,52.1872951 C80.376,52.1848361 80.4055385,52.4688525 80.5273846,52.8979508 C80.6504615,53.3270492 80.9150769,53.8704918 81.3643077,54.2381148 C81.8049231,54.6143443 82.408,54.8872951 83.1870769,55.2118852 C83.5070769,55.3655738 83.6215385,55.3717213 83.6756923,55.3446721 C83.7015385,55.3471311 83.7212308,55.3581967 83.7495385,55.3569672 C83.8910769,55.3508197 84.0215385,55.329918 84.1187692,55.2155738 C84.1987692,55.1209016 84.2184615,55.0127049 84.2123077,54.9069672 C84.2406154,54.867623 84.2738462,54.8344262 84.2861538,54.7778689 C84.3267692,54.5946721 84.3550769,54.4102459 84.3858462,54.2270492 Z M105.835692,23.4930328 C105.305231,22.6028689 104.975385,21.4090164 104.954462,20.1180328 C104.953231,19.9434426 104.948308,19.8217213 104.965538,19.5991803 C104.991385,19.3520492 105.030769,19.0877049 105.073846,18.8245902 C105.168615,18.2995902 105.306462,17.7659836 105.482462,17.2422131 C105.848,16.1946721 106.374769,15.3143443 106.913846,14.3196721 L107.182154,13.8463115 C108.198769,14.4807377 109.190769,15.1446721 110.086769,15.7655738 C110.972923,16.3704918 111.893538,17.1401639 112.159385,17.5213115 C112.974154,18.4668033 113.573538,19.6729508 113.622769,20.7622951 C113.689231,21.8590164 113.274462,22.6028689 112.975385,22.997541 C112.660308,23.4020492 112.428923,23.5508197 112.435077,23.5569672 C112.428923,23.5581967 112.411692,23.2729508 112.307077,22.8401639 C112.201231,22.4061475 111.96,21.8516393 111.526769,21.4655738 C111.100923,21.0709016 110.511385,20.7745902 109.745846,20.4168033 C109.225231,20.1401639 109.281846,20.0983607 109.225231,20.1401639 C109.183385,20.1967213 109.158769,20.445082 109.164923,20.4635246 L109.166154,20.4672131 C109.166154,20.4672131 109.144,20.4168033 109.082462,20.3946721 C109.052923,20.3836066 109.014769,20.3786885 108.968,20.3872951 C108.944615,20.3934426 108.918769,20.3959016 108.891692,20.4143443 C108.857231,20.4586066 108.805538,20.602459 108.766154,20.6909836 C108.428923,21.4987705 108.166769,22.2561475 108.047385,22.9213115 C107.921846,23.5827869 107.952615,24.1877049 108.083077,24.6217213 C108.207385,25.0581967 108.364923,25.3139344 108.358769,25.317623 C108.361231,25.3077869 108.072,25.322541 107.566154,25.1135246 C107.064,24.9168033 106.361231,24.3905738 105.835692,23.4930328 Z M68.1027692,36.8172131 C67.6190769,36.0487705 67.2412308,35.0528689 67.0763077,34.0151639 C66.8929231,33.0278689 66.8129231,31.9163934 66.92,30.7397541 C67.0246154,29.5668033 67.3187692,28.327459 67.8344615,27.127459 L67.9366154,26.9 L68.1126154,26.5483607 C68.2332308,26.302459 68.3723077,26.0663934 68.5076923,25.8278689 C68.7870769,25.3545082 69.096,24.9032787 69.4209231,24.4778689 C70.0781538,23.6368852 70.7649231,22.8684426 71.4824615,22.027459 L71.5156923,21.9905738 C72.3304615,22.7909836 73.1206154,23.5618852 73.8935385,24.3622951 C74.2763077,24.7692623 74.6529231,25.1786885 75.0110769,25.6004098 L75.2781538,25.9163934 L75.4406154,26.1192623 L75.7113846,26.4721311 C76.4190769,27.417623 77.0344615,28.397541 77.5378462,29.3959016 C78.5310769,31.3754098 79.128,33.5331967 78.7661538,35.4635246 C78.5876923,36.4163934 78.1372308,37.2278689 77.6203077,37.7516393 C77.1058462,38.2827869 76.5741538,38.5680328 76.1433846,38.7463115 C75.2744615,39.0893443 74.7809231,39.0930328 74.7833846,39.1077869 C74.7710769,39.1004098 75.1932308,38.8040984 75.7273846,38.1684426 C76.2689231,37.5377049 76.7587692,36.5086066 76.4867692,35.3663934 C76.2541538,34.2131148 75.4233846,32.8581967 74.2775385,31.4430328 C73.7052308,30.7348361 73.0566154,30.0081967 72.3563077,29.2692623 L72.0916923,28.9901639 C72.0584615,28.9557377 71.9772308,28.8696721 71.9821538,28.8782787 L71.9723077,28.8831967 C71.9587692,28.8856557 71.9501538,28.8905738 71.9452308,28.8967213 C71.9316923,28.9102459 71.9329231,28.9237705 71.9329231,28.9237705 C71.9329231,28.9237705 71.9316923,28.9114754 71.9181538,28.8991803 C71.912,28.8930328 71.9021538,28.8881148 71.8898462,28.8856557 L71.8689231,28.8844262 C71.8615385,28.8893443 71.8652308,28.8721311 71.8492308,28.8967213 L71.7667692,29.0393443 C71.3187692,29.817623 70.9704615,30.6180328 70.712,31.4307377 C70.4535385,32.2459016 70.2886154,33.0647541 70.1950769,33.870082 C70.0843077,34.629918 70.0966154,35.2913934 70.2061538,35.9295082 C70.4166154,37.1885246 71.0689231,38.1032787 71.7384615,38.5508197 C72.4055385,39.0081967 72.9335385,39.0930328 72.9212308,39.1077869 C72.92,39.0831967 72.4596923,39.3192623 71.4972308,39.2209016 C71.0196923,39.1655738 70.4178462,38.9897541 69.8061538,38.595082 C69.1932308,38.2053279 68.5901538,37.6004098 68.1027692,36.8172131 Z M51.1169231,38.1180328 C51.0246154,37.8229508 50.9421538,37.5229508 50.8769231,37.2217213 C50.5778462,35.9922131 50.6467692,34.8622951 50.6406154,33.6831967 L50.6430769,33.1815574 C51.8381538,32.9639344 52.904,32.6786885 54.1483077,32.6270492 C54.4547692,32.6172131 54.7587692,32.607377 55.0652308,32.6135246 C55.3618462,32.6122951 55.7310769,32.6295082 55.8443077,32.6405738 C56.1889231,32.6639344 56.5261538,32.7020492 56.8584615,32.745082 C58.184,32.9209016 59.4196923,33.2307377 60.5655385,33.6254098 C62.8510769,34.4196721 64.7981538,35.5790984 66.1261538,36.9721311 C66.7883077,37.6643443 67.2806154,38.4168033 67.5624615,39.1372951 C67.848,39.8565574 67.9193846,40.5254098 67.8886154,41.0393443 C67.8147692,42.0758197 67.4886154,42.5282787 67.5156923,42.5331967 C67.4947692,42.5430328 67.5255385,41.9688525 67.1944615,41.1438525 C66.872,40.317623 66.0707692,39.3979508 64.7390769,38.747541 C63.4233846,38.079918 61.6461538,37.6077869 59.64,37.3286885 C58.6381538,37.1922131 57.576,37.097541 56.4978462,37.0741803 L55.6904615,37.0704918 C55.496,37.0704918 55.5587692,37.0778689 55.5452308,37.0827869 L55.5403077,37.0987705 C55.5378462,37.1172131 55.5476923,37.1282787 55.5501538,37.1319672 L55.5513846,37.1319672 C55.5513846,37.1319672 55.5390769,37.1245902 55.5243077,37.1319672 L55.512,37.1405738 C55.5107692,37.1454918 55.5046154,37.1368852 55.5083077,37.1540984 L55.5538462,37.3102459 C55.6276923,37.5438525 55.7089231,37.7762295 55.7975385,38.007377 C56.1569231,38.9319672 56.6443077,39.8196721 57.1883077,40.6237705 C58.2824615,42.2344262 59.6043077,43.5081967 60.8892308,44.3012295 C62.1704615,45.1090164 63.4356923,45.4053279 64.3538462,45.4213115 C65.2769231,45.4409836 65.8196923,45.275 65.8184615,45.2909836 C65.8098462,45.275 65.4406154,45.6918033 64.5003077,46.1184426 C63.576,46.545082 61.9710769,46.8635246 60.0707692,46.4319672 C58.1815385,46.017623 56.0756923,44.9258197 54.2541538,43.1196721 C53.3446154,42.2159836 52.5003077,41.1352459 51.8295385,39.8430328 C51.6646154,39.5209016 51.5095385,39.1827869 51.368,38.8336066 L51.2596923,38.5508197 L51.1169231,38.1180328 Z M116.571692,37.995082 C116.000615,37.7577869 115.382769,37.5364754 114.761231,37.3557377 C114.715692,37.404918 114.726769,37.4491803 114.729231,37.4491803 C114.731692,37.4504098 114.715692,37.4258197 114.676308,37.4 C114.629538,37.3680328 114.556923,37.3483607 114.484308,37.397541 C114.446154,37.4221311 114.408,37.4639344 114.374769,37.5266393 C114.345231,37.5143443 114.385846,37.7565574 114.396923,37.8831967 L114.451077,38.3270492 C114.597538,39.4987705 114.780923,40.5229508 115.036923,41.3430328 C115.286769,42.1643443 115.638769,42.7643443 115.994462,43.1344262 C116.351385,43.4971311 116.655385,43.6372951 116.648,43.6434426 C116.648,43.6311475 116.351385,43.7565574 115.737231,43.6901639 C115.131692,43.625 114.228308,43.2536885 113.392615,42.4963115 C112.548308,41.7512295 111.752,40.6852459 111.104615,39.425 L110.867077,38.9430328 C110.784615,38.7561475 110.731692,38.6786885 110.616,38.3430328 C110.406769,37.7565574 110.218462,37.1319672 110.048615,36.4827869 C109.72,35.1807377 109.504615,33.8479508 109.258462,32.3995902 C110.099077,32.3454918 111.013538,32.3147541 111.889846,32.292623 C113.292923,32.2581967 114.942154,32.6528689 116.374769,33.2971311 C117.235077,33.7090164 117.985846,34.2032787 118.650462,34.7528689 C119.974769,35.8508197 120.896615,37.1786885 121.361846,38.4045082 C121.841846,39.6352459 121.850462,40.7122951 121.745846,41.3872951 C121.64,42.0709016 121.468923,42.4016393 121.476308,42.4040984 C121.466462,42.4311475 120.997538,40.8942623 119.460308,39.6672131 C118.705846,39.045082 117.718769,38.4745902 116.571692,37.995082 Z M107.201846,45.5307377 L107.066462,45.647541 L107.055385,45.6856557 C107.056615,45.7618852 107.115692,45.7643443 107.112,45.7655738 C107.121846,45.7594262 107.027077,45.7717213 106.912615,45.8553279 C106.772308,45.954918 106.718154,46.179918 106.960615,46.4221311 C106.990154,46.4504098 107.023385,46.479918 107.061538,46.5106557 L107.123077,46.5536885 L107.263385,46.5954918 C107.454154,46.6459016 107.643692,46.695082 107.825846,46.7307377 C108.191385,46.8094262 108.538462,46.8512295 108.867077,46.8684426 C110.184,46.9286885 111.137846,46.4614754 111.130462,46.4897541 C111.125538,46.4885246 111.060308,46.7209016 110.833846,47.1143443 C110.607385,47.5040984 110.191385,48.0672131 109.452923,48.5762295 C109.088615,48.8258197 108.646769,49.0643443 108.147077,49.2487705 C107.897231,49.3434426 107.635077,49.4221311 107.359385,49.4922131 L107.148923,49.5401639 C107.051692,49.557377 106.953231,49.5709016 106.851077,49.5819672 C106.648,49.6065574 106.437538,49.6262295 106.222154,49.6360656 C105.355692,49.6877049 104.405538,49.6090164 103.432,49.4516393 C102.467077,49.2819672 101.464,49.0581967 100.362462,48.792623 C100.409231,48.5540984 100.491692,48.2627049 100.585231,47.9516393 L100.852308,47.0651639 C101.034462,46.479918 101.203077,45.882377 101.555077,45.2627049 C102.139692,44.1733607 103.107077,43.0852459 104.225846,42.347541 L104.628308,42.0819672 C104.740308,42.0168033 104.825231,41.9762295 104.924923,41.9233607 C105.115692,41.820082 105.312615,41.7377049 105.505846,41.6516393 C105.894769,41.4918033 106.286154,41.3614754 106.673846,41.2692623 C108.229538,40.8868852 109.692923,41.0381148 110.778462,41.4229508 C111.875077,41.8065574 112.596308,42.3733607 113.019692,42.797541 C113.445538,43.2241803 113.606769,43.5131148 113.612923,43.5069672 C113.626462,43.5377049 112.243077,43.2536885 110.587692,43.6963115 C109.764308,43.9090164 108.895385,44.3036885 108.084308,44.8520492 C107.881231,44.9872951 107.683077,45.1372951 107.487385,45.2897541 C107.392615,45.3709016 107.291692,45.4446721 107.201846,45.5307377 Z M121.327385,22.6729508 C122.323077,20.7672131 123.633846,19.1233607 125.131692,17.8815574 C126.618462,16.6372951 128.325538,15.8491803 129.822154,15.6241803 C131.327385,15.3831967 132.517538,15.6721311 133.238769,15.9536885 C133.968615,16.2438525 134.300923,16.5045082 134.304615,16.4983607 C134.305846,16.5045082 133.873846,16.5192623 133.172308,16.6643443 C132.470769,16.8094262 131.521846,17.1266393 130.6,17.7709016 C128.732923,19.017623 127.014769,21.6290984 125.381538,24.7766393 C124.710769,26.0221311 124.328,27.6327869 123.994462,29.1954918 L123.141538,33.5430328 C122.639385,36.120082 122.038769,37.7319672 122.027692,37.7184426 C122.038769,37.704918 121.497231,36.1409836 120.857231,33.5836066 C120.553231,32.2963115 120.238154,30.7434426 120.149538,28.917623 C120.110154,28.0053279 120.127385,27.0241803 120.282462,25.9704918 C120.437538,24.9364754 120.746462,23.754918 121.327385,22.6729508 Z M116.699692,32.4561475 C115.500923,30.8872951 114.266462,28.6446721 114.016615,25.7504098 C113.957538,25.0151639 113.964923,24.3229508 114.005538,23.6098361 C114.049846,22.8942623 114.145846,22.1627049 114.293538,21.4286885 C114.587692,19.9569672 115.102154,18.4741803 115.806154,17.0811475 C117.220308,14.2803279 119.131692,12.1557377 120.741538,10.3766393 C122.371077,8.59877049 123.717538,7.10491803 124.449846,5.64795082 C125.205538,4.20696721 125.323692,2.77827869 125.259692,1.76639344 C125.201846,0.750819672 125.044308,0.168032787 125.059077,0.168032787 C125.046769,0.176639344 125.456615,0.604508197 125.948923,1.5795082 C126.436308,2.52868852 126.988923,4.20081967 126.634462,6.31311475 C126.308308,8.41803279 125.139077,10.617623 123.814769,12.7016393 C122.486769,14.8028689 121.009846,16.8881148 119.888615,19.1282787 C119.323692,20.2483607 118.875692,21.357377 118.540923,22.4639344 C118.373538,23.0172131 118.230769,23.5704918 118.121231,24.122541 C118.011692,24.6745902 117.919385,25.2315574 117.870154,25.7147541 C117.668308,27.727459 118.104,29.7131148 118.692308,31.3422131 C119.905846,34.629918 121.509538,36.4790984 121.476308,36.4778689 C121.48,36.4729508 120.932308,36.2491803 120.042462,35.6405738 C119.158769,35.0307377 117.920615,34.0397541 116.699692,32.4561475 Z M95.0393846,39.7459016 C94.3833846,39.0659836 93.8824615,38.1782787 93.6141538,37.2377049 C93.3421538,36.2946721 93.2990769,35.3233607 93.3913846,34.4098361 C93.4886154,33.495082 93.7212308,32.6319672 94.0264615,31.8204918 C94.1778462,31.4147541 94.3550769,31.0188525 94.5347692,30.6512295 C94.712,30.279918 94.9569231,29.8286885 95.2289231,29.4303279 C96.3230769,27.7963115 97.9243077,26.6381148 99.5378462,25.997541 C101.16,25.3459016 102.798154,25.1540984 104.292308,25.2168033 C107.299077,25.3581967 109.716308,26.4745902 111.449231,27.642623 C113.190769,28.8327869 114.293538,30.0930328 114.975385,30.9881148 C115.654769,31.8893443 115.934154,32.4413934 115.940308,32.4377049 C115.937846,32.4438525 115.434462,32.075 114.499077,31.5192623 C113.563692,30.9672131 112.180308,30.2368852 110.435077,29.6872951 C108.698462,29.142623 106.563077,28.7897541 104.401846,29.0663934 C102.248,29.3245902 100.127385,30.2959016 99.016,31.9827869 C98.8707692,32.1967213 98.7587692,32.3922131 98.6135385,32.6786885 C98.4633846,32.9651639 98.3341538,33.2295082 98.2209231,33.495082 C97.992,34.0237705 97.8196923,34.5364754 97.7212308,35.007377 C97.5366154,35.9602459 97.6190769,36.6696721 97.9796923,37.254918 C98.3316923,37.852459 99.0566154,38.3381148 99.8467692,38.5409836 C100.635692,38.7536885 101.451692,38.7032787 102.065846,38.4389344 C102.686154,38.1807377 103.125538,37.6840164 103.350769,37.0827869 C103.579692,36.4840164 103.609231,35.8409836 103.584615,35.3209016 C103.519385,34.2635246 103.32,33.6536885 103.336,33.6536885 C103.321231,33.6647541 103.766769,34.097541 104.276308,35.1438525 C104.516308,35.670082 104.782154,36.3721311 104.777231,37.3077869 C104.789538,38.2237705 104.383385,39.4372951 103.387692,40.2979508 C102.412923,41.1647541 101.032,41.6565574 99.5464615,41.6467213 C98.0744615,41.6381148 96.3661538,41.1266393 95.0393846,39.7459016 Z M210.431385,37.0262295 C210.065846,36.1372951 209.856615,35.2262295 209.721231,34.2991803 C209.551385,32.6983607 209.540308,30.9979508 209.507077,29.2286885 L211.344615,29.2311475 C212.217231,29.2311475 213.119385,29.2717213 214.021538,29.4192623 C214.246769,29.452459 214.469538,29.4954918 214.691077,29.5385246 L215.013538,29.607377 L215.203077,29.6553279 C215.456615,29.7204918 215.705231,29.7954918 215.950154,29.8741803 C216.928615,30.197541 217.843077,30.6278689 218.660308,31.1590164 C220.293538,32.1991803 221.545231,33.7311475 221.956308,35.2631148 C222.387077,36.8061475 221.992,38.0184426 221.657231,38.6786885 C221.307692,39.3586066 221.014769,39.6413934 221.022154,39.647541 C221.013538,39.6512295 221.045538,39.2295082 220.954462,38.5520492 C220.868308,37.8782787 220.582769,36.9696721 219.907077,36.270082 C219.243692,35.5606557 218.217231,35.004918 216.927385,34.5991803 C216.286154,34.3938525 215.580923,34.2303279 214.841231,34.1 L214.28,34.0090164 L214.137231,33.9881148 C214.116308,33.9893443 214.128615,33.9930328 214.123692,33.9942623 L214.118769,34.0077869 C214.112615,34.0237705 214.118769,34.0336066 214.12,34.0336066 L214.104,34.020082 C214.081846,34.0004098 214.026462,33.9795082 213.956308,34.0434426 C213.928,34.7713115 213.921846,35.4536885 213.972308,36.0278689 C214.053538,37.172541 214.405538,38.0295082 215.093538,38.7758197 C215.763077,39.507377 216.561846,40.0188525 217.104615,40.3618852 L217.987077,40.8868852 C217.985846,40.8844262 217.622769,40.9631148 216.944615,41 C216.267692,41.0221311 215.258462,41.0467213 213.969846,40.5893443 C213.332308,40.3557377 212.619692,39.9672131 211.974769,39.35 C211.328615,38.7389344 210.792,37.9090164 210.431385,37.0262295 Z M208.955692,45.3930328 L208.619692,45.7864754 C208.543385,45.879918 208.549538,45.879918 208.558154,45.879918 L208.565538,45.8909836 C208.577846,45.9032787 208.588923,45.9032787 208.588923,45.9032787 L208.574154,45.9057377 C208.547077,45.9131148 208.497846,45.945082 208.507692,46.0336066 C208.513846,46.0434426 208.494154,46.0372951 208.524923,46.0618852 L208.636923,46.1368852 L208.857231,46.2893443 L209.296615,46.5844262 L210.156923,47.1413934 C211.286769,47.8483607 212.334154,48.4114754 213.238769,48.7213115 C214.139692,49.0397541 214.911385,49.0729508 215.465231,48.8946721 C216.019077,48.7213115 216.308308,48.4532787 216.309538,48.4668033 C216.293538,48.4581967 216.286154,48.8381148 215.867692,49.4245902 C215.464,50.0172131 214.458462,50.6713115 213.150154,50.8717213 C211.848,51.0918033 210.313231,50.9713115 208.737846,50.5569672 C208.341538,50.4512295 207.944,50.3295082 207.542769,50.1856557 L206.940923,49.9569672 L206.638154,49.8327869 L206.486769,49.7663934 L206.245538,49.6459016 C205.553846,49.2967213 204.852308,48.8934426 204.202462,48.4422131 C203.557538,47.9897541 202.927385,47.5237705 202.260308,47.0258197 L203.089846,45.7053279 C203.535385,44.9897541 204.016615,44.2729508 204.577846,43.6065574 C204.719385,43.4430328 204.858462,43.2770492 205.007385,43.1196721 C205.155077,42.954918 205.311385,42.7963115 205.381538,42.729918 C205.567385,42.5528689 205.758154,42.3807377 205.955077,42.2159836 C206.741538,41.5606557 207.627692,41.0196721 208.565538,40.6643443 C209.500923,40.3065574 210.488,40.1467213 211.392615,40.1922131 C212.299692,40.2352459 213.104615,40.4762295 213.749538,40.7897541 C215.048,41.4352459 215.740923,42.2762295 216.166769,42.8442623 C216.585231,43.4258197 216.741538,43.7836066 216.745231,43.7811475 C216.744,43.7860656 216.379692,43.627459 215.740923,43.4172131 C215.109538,43.2131148 214.176615,42.9610656 213.179692,42.9991803 C212.174154,43.0336066 211.212923,43.392623 210.310769,44.0971311 C209.855385,44.4487705 209.403692,44.8852459 208.955692,45.3930328 Z M217.573538,50.2581967 C217.580923,50.2606557 217.412308,50.5102459 217.269538,50.9418033 C217.120615,51.3696721 217.065231,51.9733607 217.162462,52.6385246 C217.230154,53.1229508 217.370462,53.6577869 217.557538,54.2270492 C217.588308,54.4102459 217.616615,54.5946721 217.657231,54.7778689 C217.670769,54.8344262 217.704,54.867623 217.732308,54.9069672 C217.724923,55.0127049 217.745846,55.1209016 217.824615,55.2155738 C217.921846,55.329918 218.052308,55.3508197 218.193846,55.3569672 C218.222154,55.3581967 218.241846,55.3471311 218.267692,55.3446721 C218.323077,55.3717213 218.437538,55.3655738 218.756308,55.2118852 C219.535385,54.8872951 220.138462,54.6143443 220.577846,54.2381148 C221.028308,53.8704918 221.291692,53.3270492 221.417231,52.8979508 C221.539077,52.4688525 221.567385,52.1848361 221.574769,52.1872951 C221.567385,52.1934426 221.792615,52.3508197 222.091692,52.7663934 C222.373538,53.1733607 222.755077,53.9356557 222.645538,55.027459 C222.549538,56.1155738 221.900923,57.2934426 221.046769,58.2057377 C220.764923,58.5758197 219.813538,59.3061475 218.902769,59.8741803 C217.982154,60.4557377 216.964308,61.0790984 215.921846,61.6704918 L215.673231,61.1885246 C215.177231,60.1717213 214.687385,59.2692623 214.364923,58.2057377 C214.211077,57.6770492 214.095385,57.1385246 214.022769,56.6086066 C213.990769,56.3454918 213.962462,56.0786885 213.947692,55.8290984 C213.939077,55.6065574 213.948923,55.4860656 213.957538,55.3114754 C214.031385,54.0217213 214.410462,52.8438525 214.976615,51.9770492 C215.540308,51.1004098 216.262769,50.604918 216.774769,50.4278689 C217.286769,50.2409836 217.576,50.2680328 217.573538,50.2581967 Z M189.508308,23.5569672 C189.514462,23.5508197 189.284308,23.4020492 188.968,22.997541 C188.668923,22.6028689 188.255385,21.8590164 188.320615,20.7622951 C188.371077,19.6729508 188.969231,18.4668033 189.784,17.5213115 C190.051077,17.1401639 190.970462,16.3704918 191.856615,15.7655738 C192.752615,15.1446721 193.744615,14.4807377 194.762462,13.8463115 L195.029538,14.3196721 C195.568615,15.3143443 196.095385,16.1946721 196.462154,17.2422131 C196.638154,17.7659836 196.774769,18.2995902 196.870769,18.8245902 C196.913846,19.0877049 196.950769,19.3520492 196.977846,19.5991803 C196.995077,19.8217213 196.990154,19.9434426 196.988923,20.1180328 C196.968,21.4090164 196.638154,22.6028689 196.107692,23.4930328 C195.582154,24.3905738 194.879385,24.9168033 194.376,25.1135246 C193.871385,25.322541 193.582154,25.3077869 193.585846,25.317623 C193.577231,25.3139344 193.736,25.0581967 193.860308,24.6217213 C193.990769,24.1877049 194.022769,23.5827869 193.896,22.9213115 C193.776615,22.2561475 193.514462,21.4987705 193.177231,20.6909836 C193.137846,20.602459 193.087385,20.4586066 193.051692,20.4143443 C193.025846,20.3959016 193,20.3934426 192.975385,20.3872951 C192.928615,20.3786885 192.890462,20.3836066 192.859692,20.3946721 C192.799385,20.4168033 192.777231,20.4672131 192.778462,20.4672131 L192.778462,20.4635246 C192.784615,20.445082 192.76,20.1967213 192.718154,20.1401639 C192.662769,20.0983607 192.718154,20.1401639 192.197538,20.4168033 C191.433231,20.7745902 190.842462,21.0709016 190.416615,21.4655738 C189.983385,21.8516393 189.742154,22.4061475 189.636308,22.8401639 C189.531692,23.2729508 189.514462,23.5581967 189.508308,23.5569672 Z M224.321846,37.7516393 C223.807385,37.2278689 223.355692,36.4163934 223.177231,35.4635246 C222.815385,33.5331967 223.412308,31.3754098 224.406769,29.3959016 C224.908923,28.397541 225.523077,27.417623 226.232,26.4721311 L226.502769,26.1192623 L226.665231,25.9163934 L226.932308,25.6004098 C227.290462,25.1786885 227.667077,24.7692623 228.049846,24.3622951 C228.822769,23.5618852 229.612923,22.7909836 230.427692,21.9905738 L230.462154,22.027459 C231.178462,22.8684426 231.866462,23.6368852 232.522462,24.4778689 C232.847385,24.9032787 233.156308,25.3545082 233.434462,25.8278689 C233.571077,26.0663934 233.711385,26.302459 233.830769,26.5483607 L234.006769,26.9 L234.107692,27.127459 C234.624615,28.327459 234.918769,29.5668033 235.024615,30.7397541 C235.130462,31.9163934 235.050462,33.0278689 234.868308,34.0151639 C234.702154,35.0528689 234.324308,36.0487705 233.840615,36.8172131 C233.353231,37.6004098 232.750154,38.2053279 232.137231,38.595082 C231.525538,38.9897541 230.923692,39.1655738 230.447385,39.2209016 C229.483692,39.3192623 229.024615,39.0831967 229.023385,39.1077869 C229.009846,39.0930328 229.539077,39.0081967 230.204923,38.5508197 C230.874462,38.1032787 231.526769,37.1885246 231.737231,35.9295082 C231.846769,35.2913934 231.859077,34.629918 231.748308,33.870082 C231.654769,33.0647541 231.489846,32.2459016 231.232615,31.4307377 C230.972923,30.6180328 230.624615,29.817623 230.176615,29.0393443 L230.094154,28.8967213 C230.078154,28.8721311 230.081846,28.8893443 230.075692,28.8844262 L230.052308,28.8856557 C230.041231,28.8881148 230.032615,28.8930328 230.025231,28.8991803 C230.011692,28.9114754 230.011692,28.9237705 230.011692,28.9237705 C230.011692,28.9237705 230.011692,28.9102459 229.998154,28.8967213 C229.993231,28.8905738 229.984615,28.8856557 229.972308,28.8831967 L229.961231,28.8782787 C229.966154,28.8696721 229.884923,28.9557377 229.852923,28.9901639 L229.587077,29.2692623 C228.886769,30.0081967 228.238154,30.7348361 227.664615,31.4430328 C226.52,32.8581967 225.689231,34.2131148 225.456615,35.3663934 C225.184615,36.5086066 225.674462,37.5377049 226.216,38.1684426 C226.750154,38.8040984 227.172308,39.1004098 227.16,39.1077869 C227.162462,39.0930328 226.668923,39.0893443 225.798769,38.7463115 C225.370462,38.5680328 224.837538,38.2827869 224.321846,37.7516393 Z M234.054769,41.0393443 C234.024,40.5254098 234.096615,39.8565574 234.380923,39.1372951 C234.662769,38.4168033 235.155077,37.6643443 235.817231,36.9721311 C237.145231,35.5790984 239.093538,34.4196721 241.377846,33.6254098 C242.524923,33.2307377 243.759385,32.9209016 245.084923,32.745082 C245.417231,32.7020492 245.754462,32.6639344 246.099077,32.6405738 C246.212308,32.6295082 246.582769,32.6122951 246.878154,32.6135246 C247.183385,32.607377 247.488615,32.6172131 247.795077,32.6270492 C249.039385,32.6786885 250.106462,32.9639344 251.300308,33.1815574 L251.302769,33.6831967 C251.296615,34.8622951 251.365538,35.9922131 251.066462,37.2217213 C251.001231,37.5229508 250.92,37.8229508 250.826462,38.1180328 L250.683692,38.5508197 L250.575385,38.8336066 C250.433846,39.1827869 250.28,39.5209016 250.113846,39.8430328 C249.443077,41.1352459 248.598769,42.2159836 247.689231,43.1196721 C245.867692,44.9258197 243.761846,46.017623 241.872615,46.4319672 C239.972308,46.8635246 238.367385,46.545082 237.443077,46.1184426 C236.501538,45.6918033 236.133538,45.275 236.124923,45.2909836 C236.123692,45.275 236.666462,45.4409836 237.588308,45.4213115 C238.507692,45.4053279 239.772923,45.1090164 241.055385,44.3012295 C242.339077,43.5081967 243.662154,42.2344262 244.755077,40.6237705 C245.299077,39.8196721 245.786462,38.9319672 246.147077,38.007377 C246.235692,37.7762295 246.316923,37.5438525 246.389538,37.3102459 L246.436308,37.1540984 C246.438769,37.1368852 246.433846,37.1454918 246.431385,37.1405738 L246.419077,37.1319672 C246.403077,37.1245902 246.392,37.1319672 246.392,37.1319672 L246.393231,37.1319672 C246.395692,37.1282787 246.406769,37.1172131 246.403077,37.0987705 L246.398154,37.0827869 C246.384615,37.0778689 246.447385,37.0704918 246.254154,37.0704918 L245.445538,37.0741803 C244.367385,37.097541 243.306462,37.1922131 242.303385,37.3286885 C240.297231,37.6077869 238.52,38.079918 237.204308,38.747541 C235.873846,39.3979508 235.071385,40.317623 234.748923,41.1438525 C234.416615,41.9688525 234.448615,42.5430328 234.428923,42.5331967 C234.454769,42.5282787 234.128615,42.0758197 234.054769,41.0393443 Z M301.584615,71.2803279 C301.784,71.7868852 301.846769,72.057377 301.854154,72.054918 C301.820923,72.0868852 301.48,70.9237705 300.030154,69.3647541 C299.301538,68.602459 298.270154,67.7836066 296.890462,67.1356557 C295.516923,66.4790984 293.814769,65.9860656 291.854154,65.7352459 C287.939077,65.2348361 282.981538,65.6270492 277.614154,67.1639344 C276.260308,67.545082 274.975385,68.0368852 273.478769,68.5913934 C272.004308,69.1262295 270.458462,69.65 268.809231,70.102459 C267.150154,70.5413934 265.432,70.9618852 263.382769,71.0307377 C262.865846,71.0405738 262.326769,71.0270492 261.729846,70.9336066 C261.433231,70.8918033 261.119385,70.8204918 260.788308,70.7196721 C260.472,70.627459 260.016615,70.4331967 259.664615,70.2143443 C259.098462,69.8762295 258.617231,69.3954918 258.272615,68.827459 C258.000615,69.0266393 257.716308,69.2086066 257.408615,69.3647541 C256.772308,69.6819672 256.102769,69.8627049 255.456615,69.9303279 C254.156923,70.0618852 252.958154,69.7766393 251.983385,69.2959016 C249.998154,68.3344262 248.966769,66.5737705 248.780923,65.1561475 C248.576615,63.7114754 248.969231,62.6565574 249.232615,62.0122951 C249.439385,61.5389344 249.603077,61.2586066 249.678154,61.1356557 C249.696615,61.0852459 249.717538,61.0434426 249.738462,60.9942623 C249.766769,61.0102459 249.796308,61.025 249.828308,61.0336066 C249.636308,61.6065574 249.491077,62.4389344 249.726154,63.4606557 C249.982154,64.5770492 250.752615,66.0069672 252.256615,66.7090164 C252.996308,67.0471311 253.904615,67.1036885 254.739077,66.7348361 C255.558769,66.3758197 256.374769,65.6516393 256.876923,64.7811475 C257.025846,64.5229508 257.129231,64.2389344 257.209231,63.947541 C257.401231,63.2467213 257.404923,62.4721311 257.192,61.6938525 C256.899077,60.5885246 256.256615,59.4918033 255.404923,58.5204918 C255.176,58.2659836 254.936,58.0213115 254.683692,57.7877049 C253.974769,57.127459 253.171077,56.5717213 252.227077,56.2729508 C250.933538,55.8045082 249.494769,55.6459016 248.005538,55.7909836 C245.013538,56.082377 241.918154,57.4938525 238.923692,59.382377 C237.16,60.497541 235.418462,61.7934426 233.683077,63.2147541 C233.539077,63.4004098 233.395077,63.5860656 233.242462,63.7668033 C231.467692,65.8790984 229.204308,67.6790984 226.634462,69.0881148 C224.088,70.5008197 221.124308,71.5594262 218.009231,71.9971311 C214.897846,72.4545082 211.635077,72.4040984 208.357538,71.8459016 C205.082462,71.2827869 201.779077,70.2094262 198.657846,68.4930328 C197.385231,67.7934426 196.145846,66.9733607 194.965538,66.0413934 C194.936,66.1053279 194.908923,66.1717213 194.879385,66.2344262 C193.921846,68.2311475 192.528615,69.9094262 190.884308,71.0295082 C189.244923,72.1631148 187.396308,72.6868852 185.733538,72.7606557 C184.068308,72.8381148 182.549538,72.579918 181.246154,72.0696721 C179.942769,71.5618852 178.907692,70.7663934 178.198769,69.9057377 C176.766154,68.1413934 176.635692,66.35 176.664,65.2901639 C176.713231,64.1959016 176.901538,63.6684426 176.886769,63.6659836 C176.901538,63.6635246 176.777231,64.2352459 176.857231,65.3282787 C176.954462,66.3881148 177.323692,68.1020492 178.831385,69.5159836 C180.294769,70.9385246 182.934769,71.7106557 185.836923,71.2004098 C187.263385,70.9434426 188.705846,70.3090164 189.904615,69.2196721 C191.107077,68.1401639 192.067077,66.6364754 192.660308,64.8868852 C192.739077,64.6569672 192.793231,64.4135246 192.859692,64.175 C193.289231,62.6270492 193.466462,60.9327869 193.290462,59.2163934 C193.288,59.1905738 193.289231,59.1659836 193.285538,59.1401639 C193.073846,57.1532787 192.352615,55.0987705 191.022154,53.7364754 C187.996923,50.5422131 183.185846,48.5516393 178.138462,48.882377 C176.739077,48.9635246 175.477538,49.107377 174.136,49.3840164 C172.815385,49.6557377 171.493538,50.0368852 170.196308,50.5286885 C167.601846,51.5122951 165.096,52.9446721 162.897846,54.807377 C160.702154,56.667623 158.827692,58.9668033 157.540308,61.5918033 C156.252923,64.2143443 155.573538,67.1528689 155.612923,70.1983607 C153.472615,68.832377 151.868923,66.420082 151.176,63.947541 C150.632,66.1581967 149.109538,68.3872951 146.330462,70.1983607 C146.369846,67.1528689 145.690462,64.2143443 144.404308,61.5918033 C143.115692,58.9668033 141.241231,56.667623 139.045538,54.807377 C136.847385,52.9446721 134.341538,51.5122951 131.747077,50.5286885 C130.449846,50.0368852 129.129231,49.6557377 127.807385,49.3840164 C126.467077,49.107377 125.205538,48.9635246 123.804923,48.882377 C118.757538,48.5516393 113.947692,50.5422131 110.921231,53.7364754 C109.590769,55.0987705 108.870769,57.1532787 108.657846,59.1401639 C108.655385,59.1659836 108.655385,59.1905738 108.652923,59.2163934 C108.476923,60.9327869 108.655385,62.6270492 109.083692,64.175 C109.150154,64.4135246 109.205538,64.6569672 109.283077,64.8868852 C109.876308,66.6364754 110.837538,68.1401639 112.038769,69.2196721 C113.238769,70.3090164 114.678769,70.9434426 116.106462,71.2004098 C119.008615,71.7106557 121.649846,70.9385246 123.112,69.5159836 C124.619692,68.1020492 124.988923,66.3881148 125.086154,65.3282787 C125.166154,64.2352459 125.041846,63.6635246 125.057846,63.6659836 C125.041846,63.6684426 125.230154,64.1959016 125.280615,65.2901639 C125.307692,66.35 125.178462,68.1413934 123.744615,69.9057377 C123.035692,70.7663934 122.000615,71.5618852 120.698462,72.0696721 C119.393846,72.579918 117.876308,72.8381148 116.209846,72.7606557 C114.547077,72.6868852 112.699692,72.1631148 111.059077,71.0295082 C109.414769,69.9094262 108.022769,68.2311475 107.064,66.2344262 C107.034462,66.1717213 107.007385,66.1053279 106.977846,66.0413934 C105.798769,66.9733607 104.559385,67.7934426 103.285538,68.4930328 C100.164308,70.2094262 96.8596923,71.2827869 93.5858462,71.8459016 C90.3083077,72.4040984 87.0467692,72.4545082 83.9341538,71.9971311 C80.8203077,71.5594262 77.8553846,70.5008197 75.3101538,69.0881148 C72.7390769,67.6790984 70.4756923,65.8790984 68.6996923,63.7668033 C68.5483077,63.5860656 68.4055385,63.4004098 68.2603077,63.2147541 C66.5249231,61.7934426 64.7833846,60.497541 63.0209231,59.382377 C60.0264615,57.4938525 56.9298462,56.082377 53.9378462,55.7909836 C52.4473846,55.6459016 51.0098462,55.8045082 49.7163077,56.2729508 C48.7723077,56.5717213 47.9686154,57.127459 47.2596923,57.7877049 C47.0086154,58.0213115 46.7673846,58.2659836 46.5396923,58.5204918 C45.6867692,59.4918033 45.0443077,60.5885246 44.7513846,61.6938525 C44.5396923,62.4721311 44.5421538,63.2467213 44.7341538,63.947541 C44.8141538,64.2389344 44.9175385,64.5229508 45.0664615,64.7811475 C45.5686154,65.6516393 46.3858462,66.3758197 47.2055385,66.7348361 C48.04,67.1036885 48.9470769,67.0471311 49.6867692,66.7090164 C51.192,66.0069672 51.9612308,64.5770492 52.2172308,63.4606557 C52.4523077,62.4389344 52.3070769,61.6065574 52.1150769,61.0336066 C52.1470769,61.025 52.1766154,61.0102459 52.2049231,60.9942623 C52.2258462,61.0434426 52.2467692,61.0852459 52.2664615,61.1356557 C52.3403077,61.2586066 52.504,61.5389344 52.7095385,62.0122951 C52.9741538,62.6565574 53.3667692,63.7114754 53.1624615,65.1561475 C52.9778462,66.5737705 51.944,68.3344262 49.9612308,69.2959016 C48.984,69.7766393 47.7864615,70.0618852 46.4867692,69.9303279 C45.8406154,69.8627049 45.1710769,69.6819672 44.5347692,69.3647541 C44.2270769,69.2086066 43.944,69.0266393 43.672,68.827459 C43.3273846,69.3954918 42.8449231,69.8762295 42.28,70.2143443 C41.9267692,70.4331967 41.4726154,70.627459 41.1550769,70.7196721 C40.824,70.8204918 40.5101538,70.8918033 40.2147692,70.9336066 C39.6166154,71.0270492 39.0775385,71.0405738 38.5606154,71.0307377 C36.5126154,70.9618852 34.7944615,70.5413934 33.1341538,70.102459 C31.4849231,69.65 29.9390769,69.1262295 28.4646154,68.5913934 C26.968,68.0368852 25.6843077,67.545082 24.3304615,67.1639344 C18.9618462,65.6270492 14.0043077,65.2348361 10.0892308,65.7352459 C8.12861538,65.9860656 6.42646154,66.4790984 5.05292308,67.1356557 C3.67323077,67.7836066 2.64184615,68.602459 1.912,69.3647541 C0.463384615,70.9237705 0.122461538,72.0868852 0.0892307692,72.054918 C0.0966153846,72.057377 0.158153846,71.7868852 0.358769231,71.2803279 C0.556923077,70.7737705 0.892923077,70.022541 1.528,69.1422131 C2.16061538,68.2643443 3.11938462,67.2721311 4.47815385,66.3967213 C5.82953846,65.5163934 7.56861538,64.7713115 9.60430769,64.2610656 C13.6843077,63.2504098 18.9052308,63.0954918 24.8104615,64.2045082 C26.2738462,64.4713115 27.8553846,64.9090164 29.3052308,65.3221311 C30.7809231,65.7278689 32.2984615,66.1139344 33.8516923,66.422541 C35.3913846,66.722541 37.0184615,66.9659836 38.4596923,66.9143443 C38.8141538,66.8995902 39.1489231,66.8627049 39.4270769,66.8012295 C39.5612308,66.7692623 39.6843077,66.7336066 39.7790769,66.6967213 C39.8812308,66.65 39.8603077,66.6512295 39.8689231,66.6401639 C39.8775385,66.6192623 39.8689231,66.5946721 39.8615385,66.5811475 C39.8553846,66.5737705 41.16,65.9282787 41.1907692,65.907377 C41.1895385,65.902459 41.1883077,65.8729508 41.176,65.7881148 L41.3827692,66.1963115 C41.1870769,65.8397541 41.0147692,65.4647541 40.8621538,65.075 C39.9403077,65.1377049 39.0713846,65.0946721 38.2553846,65.0098361 C37.0332308,64.8721311 35.9095385,64.6385246 34.8461538,64.3864754 C30.6233846,63.3315574 27.2510769,62.0946721 24.3821538,61.55 C22.9581538,61.2647541 21.6793846,61.1344262 20.5803077,61.1922131 C19.4824615,61.247541 18.5716923,61.5020492 17.8972308,61.85 C17.2178462,62.1942623 16.7710769,62.6012295 16.4929231,62.8889344 C16.2147692,63.1803279 16.0929231,63.352459 16.0904615,63.35 C16.0941538,63.3512295 16.1753846,63.1668033 16.3932308,62.829918 C16.6110769,62.4967213 16.9753846,62.0061475 17.6166154,61.5094262 C18.2529231,61.0163934 19.1809231,60.5540984 20.3489231,60.2922131 C21.5132308,60.0229508 22.8929231,59.9405738 24.4190769,60.0045082 C27.4726154,60.1102459 31.1230769,60.8922131 35.2178462,61.4172131 C36.2381538,61.5377049 37.2843077,61.6311475 38.3243077,61.6360656 C38.9323077,61.6397541 39.5366154,61.6053279 40.1150769,61.5254098 C40.0744615,60.7397541 40.1003077,59.9356557 40.2098462,59.1278689 C40.4498462,57.3856557 41.0233846,55.5647541 42.2172308,53.902459 C42.5138462,53.4881148 42.8670769,53.0959016 43.2523077,52.7209016 C43.6461538,52.3741803 43.9833846,52.0668033 44.4190769,51.7471311 C45.2547692,51.127459 46.168,50.6295082 47.1255385,50.2127049 C49.0430769,49.3913934 51.1427692,48.8934426 53.3618462,48.7618852 C54.472,48.6942623 55.6141538,48.7286885 56.7772308,48.882377 C57.9292308,49.022541 59.1784615,49.3704918 60.2196923,49.7479508 C61.8184615,50.3159836 63.3766154,50.9602459 64.9470769,51.6672131 C65.0750769,50.8864754 65.2670769,50.1290984 65.5316923,49.4135246 C66.328,47.2053279 67.6916923,45.4040984 69.1206154,43.9778689 C70.5630769,42.5307377 72.2098462,41.3983607 73.9476923,40.7688525 C75.6806154,40.1307377 77.4763077,40.022541 79.0369231,40.3569672 C82.1815385,41.0258197 84.3021538,43.2463115 84.7932308,45.3586066 C84.9335385,45.9290984 84.9347692,46.479918 84.8510769,46.9815574 C84.8412308,47.532377 84.7132308,48.047541 84.5089231,48.4766393 C84.1298462,49.3028689 83.5193846,49.8610656 82.936,50.1856557 C82.344,50.5077869 81.7790769,50.6086066 81.3372308,50.6233607 C81.2276923,50.6258197 81.1476923,50.6147541 81.0516923,50.6110656 C81.0603077,50.5790984 81.0664615,50.5495902 81.0664615,50.5188525 C81.144,50.5151639 81.208,50.5188525 81.2953846,50.5127049 C81.7101538,50.4610656 82.2295385,50.3344262 82.744,50.002459 C83.0172308,49.8290984 83.2867692,49.5905738 83.5267692,49.3004098 C83.736,49.0446721 83.9230769,48.7520492 84.0633846,48.4114754 C84.0806154,48.3672131 84.0892308,48.3168033 84.1052308,48.2713115 C84.3538462,47.5680328 84.3993846,46.702459 84.024,45.9020492 C83.64,45.0659836 82.7870769,44.3098361 81.7667692,43.8696721 C79.6929231,42.9684426 76.7464615,43.5647541 74.4006154,45.3659836 C73.2264615,46.2856557 72.2270769,47.4536885 71.8233846,49.0016393 C71.3335385,50.5827869 71.1476923,52.320082 71.4750769,54.0327869 C71.5489231,54.4213115 71.6510769,54.804918 71.7778462,55.1860656 C71.9636923,55.7479508 72.2086154,56.297541 72.5052308,56.829918 C72.8941538,57.5270492 73.3692308,58.1934426 73.9390769,58.8069672 C74.5716923,59.4807377 75.3704615,60.207377 76.1126154,60.6463115 C76.9015385,61.1172131 77.832,61.4614754 78.8289231,61.6864754 C82.8547692,62.5655738 87.7015385,61.8536885 92.1261538,59.9258197 C94.3427692,58.9508197 96.4695385,57.6217213 98.2578462,55.9163934 C100.042462,54.2122951 101.446769,52.1110656 102.150769,49.7430328 L106.977846,50.4967213 C105.912,53.6172131 103.395077,56.8704918 101.146462,58.854918 C98.8892308,60.8504098 96.3538462,62.2754098 93.7913846,63.2946721 C91.2190769,64.3077869 88.6012308,64.9163934 86.0215385,65.1659836 C83.4406154,65.4081967 80.8818462,65.3061475 78.4461538,64.6729508 C77.2313846,64.3508197 76.0449231,63.8946721 74.9569231,63.2233607 C74.4203077,62.8938525 73.8836923,62.4868852 73.4455385,62.0651639 C73.032,61.6852459 72.6061538,61.254918 72.2270769,60.8147541 C71.6830769,60.1913934 71.2067692,59.520082 70.7993846,58.8192623 C70.0547692,57.5418033 69.5476923,56.1622951 69.3286154,54.7754098 C69.272,54.427459 69.2387692,54.0819672 69.2153846,53.7389344 C69.0947692,51.9561475 69.3950769,50.2434426 69.9267692,48.7385246 C70.0966154,48.2786885 70.2443077,47.8766393 70.4769231,47.4045082 C70.7033846,46.9557377 70.9716923,46.545082 71.2646154,46.1737705 C71.8504615,45.4262295 72.5286154,44.8213115 73.2338462,44.3147541 C74.6529231,43.3114754 76.1926154,42.7004098 77.704,42.4532787 C78.5532308,42.3131148 79.3987692,42.3057377 80.1975385,42.425 C78.8707692,41.3086066 76.1212308,41.220082 74.6849231,41.7930328 C73.1821538,42.3831967 71.752,43.4221311 70.4904615,44.7733607 C69.2276923,46.1381148 68.0855385,47.754918 67.4455385,49.6459016 C67.128,50.5692623 66.9347692,51.5553279 66.8793846,52.5659836 C66.824,53.6172131 66.9150769,54.6967213 67.1784615,55.770082 C67.3532308,56.5077869 67.6067692,57.2319672 67.9243077,57.942623 C68.3563077,58.9065574 68.9175385,59.8372951 69.5833846,60.725 C70.6541538,62.1438525 72.0006154,63.4422131 73.5526154,64.557377 C74.4227692,65.1819672 75.3532308,65.752459 76.3390769,66.2504098 C78.6836923,67.4467213 81.2424615,68.297541 84.0104615,68.607377 C86.7747692,68.9319672 89.7015385,68.8065574 92.616,68.2151639 C95.5267692,67.6262295 98.4363077,66.5713115 101.102154,64.9987705 C102.747692,64.0262295 104.297231,62.8459016 105.653538,61.4663934 C105.564923,60.804918 105.510769,60.127459 105.503385,59.4352459 C105.498462,56.9663934 105.978462,54.207377 107.748308,51.717623 C107.856615,51.5627049 107.979692,51.4151639 108.097846,51.2639344 L108.431385,50.8668033 C108.659077,50.604918 108.891692,50.3442623 109.136615,50.0922131 C109.624,49.5856557 110.145846,49.1 110.698462,48.6401639 C111.804923,47.7180328 113.038154,46.9004098 114.376,46.2168033 C116.876923,44.9368852 119.744615,44.1278689 122.783385,43.9360656 L122.777231,41.7278689 L122.785846,38.7008197 C122.790769,37.6963115 122.902769,36.6020492 123.200615,35.4561475 C123.344615,34.8831967 123.550154,34.3065574 123.771692,33.7348361 L124.152,32.8901639 L124.428923,32.3688525 C124.793231,31.7209016 125.206769,31.1122951 125.662154,30.5442623 C127.473846,28.2696721 129.972308,26.7204918 132.527385,26.0639344 C133.163692,25.8930328 133.806154,25.7836066 134.438769,25.7172131 C135.077538,25.6508197 135.667077,25.627459 136.339077,25.6569672 C136.924923,25.6889344 137.489846,25.779918 138.035077,25.9077869 C137.702769,25.5008197 137.381538,25.0545082 137.077538,24.5614754 C136.499077,23.6012295 136.041231,22.4602459 135.801231,21.2577869 C135.738462,20.9565574 135.688,20.6528689 135.648615,20.3479508 L135.619077,20.1180328 C135.608,20.0196721 135.594462,19.8745902 135.589538,19.7405738 L135.546462,18.9143443 C135.534154,17.8188525 135.580923,16.7467213 135.616615,15.6045082 L137.417231,16.1209016 C137.955077,16.2942623 138.489231,16.4331967 139.034462,16.6913934 C139.305231,16.8045082 139.573538,16.9237705 139.840615,17.070082 L140.152,17.2360656 C140.228308,17.2766393 140.302154,17.3221311 140.373538,17.3688525 C140.959385,17.7217213 141.493538,18.1311475 141.979692,18.5688525 C142.954462,19.4418033 143.716308,20.4413934 144.302154,21.4422131 C144.932308,22.5315574 145.359385,23.6135246 145.656,24.6401639 C145.807385,23.5901639 146.027692,22.5143443 146.342769,21.417623 L146.538462,20.7819672 C146.620923,20.5397541 146.643077,20.442623 146.815385,20.0061475 C147.097231,19.2758197 147.435692,18.5110656 147.816,17.829918 C148.156923,17.2065574 150.051077,13.5659836 150.971692,11.977459 C150.971692,11.977459 153.772923,17.1819672 154.128615,17.829918 C154.508923,18.5110656 154.846154,19.2758197 155.128,20.0061475 C155.300308,20.442623 155.322462,20.5397541 155.406154,20.7819672 L155.600615,21.417623 C155.916923,22.5143443 156.136,23.5901639 156.287385,24.6401639 C156.584,23.6135246 157.011077,22.5315574 157.642462,21.4422131 C158.227077,20.4413934 158.988923,19.4418033 159.964923,18.5688525 C160.449846,18.1311475 160.984,17.7217213 161.569846,17.3688525 C161.641231,17.3221311 161.715077,17.2766393 161.791385,17.2360656 L162.102769,17.070082 C162.368615,16.9237705 162.638154,16.8045082 162.908923,16.6913934 C163.452923,16.4331967 163.988308,16.2942623 164.526154,16.1209016 L166.326769,15.6045082 C166.362462,16.7467213 166.409231,17.8188525 166.398154,18.9143443 L166.355077,19.7405738 C166.350154,19.8745902 166.335385,20.0196721 166.324308,20.1180328 L166.294769,20.3479508 C166.256615,20.6528689 166.204923,20.9565574 166.142154,21.2577869 C165.902154,22.4602459 165.444308,23.6012295 164.865846,24.5614754 C164.563077,25.0545082 164.240615,25.5008197 163.909538,25.9077869 C164.454769,25.779918 165.018462,25.6889344 165.604308,25.6569672 C166.277538,25.627459 166.867077,25.6508197 167.505846,25.7172131 C168.137231,25.7836066 168.779692,25.8930328 169.416,26.0639344 C171.972308,26.7204918 174.469538,28.2696721 176.281231,30.5442623 C176.736615,31.1122951 177.150154,31.7209016 177.513231,32.3688525 L177.791385,32.8901639 L178.170462,33.7348361 C178.393231,34.3065574 178.598769,34.8831967 178.742769,35.4561475 C179.040615,36.6020492 179.152615,37.6963115 179.157538,38.7008197 L179.166154,41.7278689 L179.16,43.9360656 C182.2,44.1278689 185.066462,44.9368852 187.567385,46.2168033 C188.905231,46.9004098 190.139692,47.7180328 191.244923,48.6401639 C191.798769,49.1 192.318154,49.5856557 192.806769,50.0922131 C193.051692,50.3442623 193.284308,50.604918 193.512,50.8668033 L193.846769,51.2639344 C193.963692,51.4151639 194.086769,51.5627049 194.195077,51.717623 C195.966154,54.207377 196.443692,56.9663934 196.44,59.4352459 C196.432615,60.127459 196.378462,60.804918 196.289846,61.4663934 C197.646154,62.8459016 199.195692,64.0262295 200.841231,64.9987705 C203.507077,66.5713115 206.415385,67.6262295 209.329846,68.2151639 C212.243077,68.8065574 215.168615,68.9319672 217.932923,68.607377 C220.700923,68.297541 223.260923,67.4467213 225.604308,66.2504098 C226.590154,65.752459 227.520615,65.1819672 228.390769,64.557377 C229.944,63.4422131 231.289231,62.1438525 232.36,60.725 C233.025846,59.8372951 233.587077,58.9065574 234.019077,57.942623 C234.336615,57.2319672 234.591385,56.5077869 234.766154,55.770082 C235.028308,54.6967213 235.119385,53.6172131 235.064,52.5659836 C235.008615,51.5553279 234.815385,50.5692623 234.496615,49.6459016 C233.857846,47.754918 232.716923,46.1381148 231.452923,44.7733607 C230.192615,43.4221311 228.761231,42.3831967 227.258462,41.7930328 C225.823385,41.220082 223.072615,41.3086066 221.745846,42.425 C222.544615,42.3057377 223.390154,42.3131148 224.240615,42.4532787 C225.750769,42.7004098 227.290462,43.3114754 228.709538,44.3147541 C229.414769,44.8213115 230.092923,45.4262295 230.677538,46.1737705 C230.971692,46.545082 231.24,46.9557377 231.466462,47.4045082 C231.699077,47.8766393 231.848,48.2786885 232.016615,48.7385246 C232.548308,50.2434426 232.848615,51.9561475 232.728,53.7389344 C232.704615,54.0819672 232.671385,54.427459 232.616,54.7754098 C232.395692,56.1622951 231.888615,57.5418033 231.144,58.8192623 C230.736615,59.520082 230.260308,60.1913934 229.716308,60.8147541 C229.337231,61.254918 228.911385,61.6852459 228.497846,62.0651639 C228.059692,62.4868852 227.523077,62.8938525 226.986462,63.2233607 C225.898462,63.8946721 224.712,64.3508197 223.497231,64.6729508 C221.061538,65.3061475 218.502769,65.4081967 215.923077,65.1659836 C213.342154,64.9163934 210.724308,64.3077869 208.152,63.2946721 C205.589538,62.2754098 203.054154,60.8504098 200.798154,58.854918 C198.548308,56.8704918 196.031385,53.6172131 194.965538,50.4967213 L199.795077,49.7430328 C200.496615,52.1110656 201.900923,54.2122951 203.686769,55.9163934 C205.473846,57.6217213 207.601846,58.9508197 209.817231,59.9258197 C214.241846,61.8536885 219.088615,62.5655738 223.114462,61.6864754 C224.111385,61.4614754 225.041846,61.1172131 225.832,60.6463115 C226.572923,60.207377 227.372923,59.4807377 228.004308,58.8069672 C228.574154,58.1934426 229.050462,57.5270492 229.438154,56.829918 C229.734769,56.297541 229.979692,55.7479508 230.165538,55.1860656 C230.292308,54.804918 230.395692,54.4213115 230.468308,54.0327869 C230.796923,52.320082 230.608615,50.5827869 230.12,49.0016393 C229.717538,47.4536885 228.716923,46.2856557 227.542769,45.3659836 C225.196923,43.5647541 222.250462,42.9684426 220.176615,43.8696721 C219.157538,44.3098361 218.303385,45.0659836 217.919385,45.9020492 C217.544,46.702459 217.589538,47.5680328 217.838154,48.2713115 C217.855385,48.3168033 217.862769,48.3672131 217.88,48.4114754 C218.020308,48.7520492 218.207385,49.0446721 218.416615,49.3004098 C218.656615,49.5905738 218.926154,49.8290984 219.199385,50.002459 C219.713846,50.3344262 220.233231,50.4610656 220.648,50.5127049 C220.735385,50.5188525 220.798154,50.5151639 220.876923,50.5188525 C220.876923,50.5495902 220.884308,50.5790984 220.890462,50.6110656 C220.796923,50.6147541 220.715692,50.6258197 220.606154,50.6233607 C220.164308,50.6086066 219.599385,50.5077869 219.006154,50.1856557 C218.422769,49.8610656 217.814769,49.3028689 217.434462,48.4766393 C217.230154,48.047541 217.102154,47.532377 217.092308,46.9815574 C217.008615,46.479918 217.011077,45.9290984 217.151385,45.3586066 C217.641231,43.2463115 219.761846,41.0258197 222.906462,40.3569672 C224.467077,40.022541 226.262769,40.1307377 227.995692,40.7688525 C229.733538,41.3983607 231.381538,42.5307377 232.822769,43.9778689 C234.251692,45.4040984 235.614154,47.2053279 236.411692,49.4135246 C236.676308,50.1290984 236.868308,50.8864754 236.996308,51.6672131 C238.566769,50.9602459 240.124923,50.3159836 241.723692,49.7479508 C242.766154,49.3704918 244.014154,49.022541 245.166154,48.882377 C246.329231,48.7286885 247.471385,48.6942623 248.581538,48.7618852 C250.801846,48.8934426 252.900308,49.3913934 254.817846,50.2127049 C255.775385,50.6295082 256.689846,51.127459 257.524308,51.7471311 C257.958769,52.0668033 258.297231,52.3741803 258.691077,52.7209016 C259.075077,53.0959016 259.430769,53.4881148 259.726154,53.902459 C260.92,55.5647541 261.493538,57.3856557 261.733538,59.1278689 C261.843077,59.9356557 261.868923,60.7397541 261.828308,61.5254098 C262.406769,61.6053279 263.011077,61.6397541 263.620308,61.6360656 C264.659077,61.6311475 265.706462,61.5377049 266.725538,61.4172131 C270.819077,60.8922131 274.472,60.1102459 277.524308,60.0045082 C279.050462,59.9405738 280.431385,60.0229508 281.595692,60.2922131 C282.762462,60.5540984 283.690462,61.0163934 284.328,61.5094262 C284.968,62.0061475 285.332308,62.4967213 285.551385,62.829918 C285.768,63.1668033 285.850462,63.3512295 285.852923,63.35 C285.850462,63.352459 285.727385,63.1803279 285.450462,62.8889344 C285.172308,62.6012295 284.724308,62.1942623 284.047385,61.85 C283.371692,61.5020492 282.460923,61.247541 281.363077,61.1922131 C280.262769,61.1344262 278.985231,61.2647541 277.561231,61.55 C274.692308,62.0946721 271.32,63.3315574 267.097231,64.3864754 C266.033846,64.6385246 264.910154,64.8721311 263.689231,65.0098361 C262.872,65.0946721 262.003077,65.1377049 261.081231,65.075 C260.928615,65.4647541 260.756308,65.8397541 260.559385,66.1963115 L260.766154,65.7881148 C260.755077,65.8729508 260.755077,65.902459 260.752615,65.907377 C260.783385,65.9282787 262.086769,66.5737705 262.081846,66.5811475 C262.074462,66.5946721 262.065846,66.6192623 262.075692,66.6401639 C262.083077,66.6512295 262.062154,66.65 262.165538,66.6967213 C262.259077,66.7336066 262.380923,66.7692623 262.516308,66.8012295 C262.794462,66.8627049 263.129231,66.8995902 263.483692,66.9143443 C264.924923,66.9659836 266.552,66.722541 268.091692,66.422541 C269.644923,66.1139344 271.163692,65.7278689 272.639385,65.3221311 C274.088,64.9090164 275.669538,64.4713115 277.132923,64.2045082 C283.039385,63.0954918 288.259077,63.2504098 292.339077,64.2610656 C294.374769,64.7713115 296.113846,65.5163934 297.465231,66.3967213 C298.822769,67.2721311 299.782769,68.2643443 300.415385,69.1422131 C301.051692,70.022541 301.386462,70.7737705 301.584615,71.2803279 Z M187.492308,38.3270492 L187.546462,37.8831967 C187.557538,37.7565574 187.599385,37.5143443 187.569846,37.5266393 C187.536615,37.4639344 187.498462,37.4221311 187.459077,37.397541 C187.385231,37.3483607 187.313846,37.3680328 187.267077,37.4 C187.228923,37.4258197 187.211692,37.4504098 187.214154,37.4491803 C187.217846,37.4491803 187.228923,37.404918 187.182154,37.3557377 C186.561846,37.5364754 185.942769,37.7577869 185.371692,37.995082 C184.225846,38.4745902 183.237538,39.045082 182.484308,39.6672131 C180.945846,40.8942623 180.478154,42.4311475 180.467077,42.4040984 C180.474462,42.4016393 180.303385,42.0709016 180.197538,41.3872951 C180.094154,40.7122951 180.101538,39.6352459 180.581538,38.4045082 C181.046769,37.1786885 181.968615,35.8508197 183.292923,34.7528689 C183.957538,34.2032787 184.707077,33.7090164 185.568615,33.2971311 C187.001231,32.6528689 188.650462,32.2581967 190.053538,32.292623 C190.929846,32.3147541 191.844308,32.3454918 192.684923,32.3995902 C192.437538,33.8479508 192.223385,35.1807377 191.894769,36.4827869 C191.724923,37.1319672 191.536615,37.7565574 191.327385,38.3430328 C191.211692,38.6786885 191.158769,38.7561475 191.076308,38.9430328 L190.838769,39.425 C190.190154,40.6852459 189.395077,41.7512295 188.552,42.4963115 C187.715077,43.2536885 186.811692,43.625 186.206154,43.6901639 C185.592,43.7565574 185.295385,43.6311475 185.295385,43.6434426 C185.288,43.6372951 185.592,43.4971311 185.948923,43.1344262 C186.305846,42.7643443 186.657846,42.1643443 186.906462,41.3430328 C187.162462,40.5229508 187.345846,39.4987705 187.492308,38.3270492 Z M194.883077,46.5106557 C194.92,46.479918 194.953231,46.4504098 194.982769,46.4221311 C195.224,46.179918 195.171077,45.954918 195.030769,45.8553279 C194.916308,45.7717213 194.822769,45.7594262 194.831385,45.7655738 C194.828923,45.7643443 194.885538,45.7618852 194.888,45.6856557 L194.876923,45.647541 L194.742769,45.5307377 C194.651692,45.4446721 194.550769,45.3709016 194.456,45.2897541 C194.261538,45.1372951 194.063385,44.9872951 193.860308,44.8520492 C193.048,44.3036885 192.179077,43.9090164 191.355692,43.6963115 C189.700308,43.2536885 188.318154,43.5377049 188.330462,43.5069672 C188.336615,43.5131148 188.499077,43.2241803 188.923692,42.797541 C189.348308,42.3733607 190.068308,41.8065574 191.164923,41.4229508 C192.250462,41.0381148 193.713846,40.8868852 195.269538,41.2692623 C195.658462,41.3614754 196.048615,41.4918033 196.437538,41.6516393 C196.630769,41.7377049 196.827692,41.820082 197.018462,41.9233607 C197.116923,41.9762295 197.203077,42.0168033 197.315077,42.0819672 L197.717538,42.347541 C198.836308,43.0852459 199.803692,44.1733607 200.388308,45.2627049 C200.740308,45.882377 200.908923,46.479918 201.091077,47.0651639 L201.359385,47.9516393 C201.450462,48.2627049 201.534154,48.5540984 201.580923,48.792623 C200.479385,49.0581967 199.476308,49.2819672 198.511385,49.4516393 C197.537846,49.6090164 196.587692,49.6877049 195.721231,49.6360656 C195.505846,49.6262295 195.295385,49.6065574 195.092308,49.5819672 C194.990154,49.5709016 194.891692,49.557377 194.795692,49.5401639 L194.584,49.4922131 C194.309538,49.4221311 194.046154,49.3434426 193.796308,49.2487705 C193.296615,49.0643443 192.856,48.8258197 192.490462,48.5762295 C191.752,48.0672131 191.336,47.5040984 191.109538,47.1143443 C190.883077,46.7209016 190.817846,46.4885246 190.812923,46.4897541 C190.805538,46.4614754 191.759385,46.9286885 193.077538,46.8684426 C193.404923,46.8512295 193.752,46.8094262 194.118769,46.7307377 C194.299692,46.695082 194.489231,46.6459016 194.681231,46.5954918 L194.820308,46.5536885 L194.883077,46.5106557 Z M181.793846,28.917623 C181.705231,30.7434426 181.390154,32.2963115 181.086154,33.5836066 C180.446154,36.1409836 179.904615,37.704918 179.915692,37.7184426 C179.904615,37.7319672 179.305231,36.120082 178.803077,33.5430328 L177.948923,29.1954918 C177.615385,27.6327869 177.232615,26.0221311 176.561846,24.7766393 C174.928615,21.6290984 173.210462,19.017623 171.343385,17.7709016 C170.421538,17.1266393 169.472615,16.8094262 168.772308,16.6643443 C168.068308,16.5192623 167.636308,16.5045082 167.64,16.4983607 C167.642462,16.5045082 167.974769,16.2438525 168.704615,15.9536885 C169.425846,15.6721311 170.616,15.3831967 172.121231,15.6241803 C173.617846,15.8491803 175.324923,16.6372951 176.812923,17.8815574 C178.309538,19.1233607 179.620308,20.7672131 180.616,22.6729508 C181.198154,23.754918 181.507077,24.9364754 181.659692,25.9704918 C181.816,27.0241803 181.833231,28.0053279 181.793846,28.917623 Z M178.128615,12.7016393 C176.804308,10.617623 175.636308,8.41803279 175.308923,6.31311475 C174.954462,4.20081967 175.508308,2.52868852 175.994462,1.5795082 C176.486769,0.604508197 176.896615,0.176639344 176.884308,0.168032787 C176.899077,0.168032787 176.741538,0.750819672 176.683692,1.76639344 C176.619692,2.77827869 176.739077,4.20696721 177.493538,5.64795082 C178.225846,7.10491803 179.572308,8.59877049 181.201846,10.3766393 C182.811692,12.1557377 184.723077,14.2803279 186.137231,17.0811475 C186.841231,18.4741803 187.355692,19.9569672 187.649846,21.4286885 C187.796308,22.1627049 187.893538,22.8942623 187.937846,23.6098361 C187.978462,24.3229508 187.985846,25.0151639 187.926769,25.7504098 C187.676923,28.6446721 186.442462,30.8872951 185.243692,32.4561475 C184.022769,34.0397541 182.784615,35.0307377 181.900923,35.6405738 C181.011077,36.2491803 180.463385,36.4729508 180.467077,36.4778689 C180.433846,36.4790984 182.037538,34.629918 183.251077,31.3422131 C183.839385,29.7131148 184.275077,27.727459 184.072,25.7147541 C184.024,25.2315574 183.931692,24.6745902 183.822154,24.122541 C183.712615,23.5704918 183.569846,23.0172131 183.403692,22.4639344 C183.067692,21.357377 182.619692,20.2483607 182.054769,19.1282787 C180.933538,16.8881148 179.457846,14.8028689 178.128615,12.7016393 Z M186.968,30.9881148 C187.649846,30.0930328 188.752615,28.8327869 190.494154,27.642623 C192.227077,26.4745902 194.644308,25.3581967 197.652308,25.2168033 C199.145231,25.1540984 200.783385,25.3459016 202.405538,25.997541 C204.019077,26.6381148 205.620308,27.7963115 206.715692,29.4303279 C206.986462,29.8286885 207.232615,30.279918 207.408615,30.6512295 C207.588308,31.0188525 207.765538,31.4147541 207.918154,31.8204918 C208.223385,32.6319672 208.454769,33.495082 208.552,34.4098361 C208.645538,35.3233607 208.601231,36.2946721 208.328,37.2377049 C208.062154,38.1782787 207.56,39.0659836 206.904,39.7459016 C205.577231,41.1266393 203.868923,41.6381148 202.398154,41.6467213 C200.910154,41.6565574 199.530462,41.1647541 198.555692,40.2979508 C197.56,39.4372951 197.153846,38.2237705 197.166154,37.3077869 C197.161231,36.3721311 197.428308,35.670082 197.667077,35.1438525 C198.176615,34.097541 198.622154,33.6647541 198.607385,33.6536885 C198.624615,33.6536885 198.425231,34.2635246 198.358769,35.3209016 C198.334154,35.8409836 198.363692,36.4840164 198.592615,37.0827869 C198.819077,37.6840164 199.257231,38.1807377 199.878769,38.4389344 C200.491692,38.7032787 201.307692,38.7536885 202.096615,38.5409836 C202.886769,38.3381148 203.611692,37.852459 203.963692,37.254918 C204.324308,36.6696721 204.408,35.9602459 204.220923,35.007377 C204.123692,34.5364754 203.951385,34.0237705 203.721231,33.495082 C203.608,33.2295082 203.48,32.9651639 203.331077,32.6786885 C203.184615,32.3922131 203.072615,32.1967213 202.927385,31.9827869 C201.816,30.2959016 199.695385,29.3245902 197.541538,29.0663934 C195.380308,28.7897541 193.244923,29.142623 191.509538,29.6872951 C189.761846,30.2368852 188.379692,30.9672131 187.445538,31.5192623 C186.508923,32.075 186.006769,32.4438525 186.003077,32.4377049 C186.009231,32.4413934 186.289846,31.8893443 186.968,30.9881148 Z M221.135385,45.2848361 C218.752615,45.2848361 218.752615,48.9782787 221.135385,48.9782787 C223.519385,48.9782787 223.519385,45.2848361 221.135385,45.2848361 Z M253.054154,61.1663934 C254.062154,61.1663934 254.902769,62.007377 254.902769,63.0143443 C254.902769,64.0213115 254.062154,64.8598361 253.054154,64.8598361 L252.808,64.8598361 C251.8,64.8598361 250.959385,64.0213115 250.959385,63.0143443 C250.959385,62.007377 251.8,61.1663934 252.808,61.1663934 L253.054154,61.1663934 Z M201.109538,33.7114754 C202.117538,33.7114754 202.958154,34.552459 202.958154,35.5594262 C202.958154,36.5663934 202.117538,37.404918 201.109538,37.404918 L200.924923,37.404918 C199.916923,37.404918 199.076308,36.5663934 199.076308,35.5594262 C199.076308,34.552459 199.916923,33.7114754 200.924923,33.7114754 L201.109538,33.7114754 Z M239.190769,40.1762295 C237.521846,40.1762295 237.521846,42.7618852 239.190769,42.7618852 C240.859692,42.7618852 240.859692,40.1762295 239.190769,40.1762295 Z M228.838769,33.7114754 C227.169846,33.7114754 227.169846,36.2971311 228.838769,36.2971311 C230.506462,36.2971311 230.506462,33.7114754 228.838769,33.7114754 Z M216.822769,35.7438525 C215.153846,35.7438525 215.153846,38.3295082 216.822769,38.3295082 C218.491692,38.3295082 218.491692,35.7438525 216.822769,35.7438525 Z M212.385846,44.0540984 C213.091077,44.0540984 213.680615,44.6418033 213.680615,45.3463115 L213.680615,45.5307377 C213.680615,46.2352459 213.091077,46.8241803 212.385846,46.8241803 C211.680615,46.8241803 211.092308,46.2352459 211.092308,45.5307377 L211.092308,45.3463115 C211.092308,44.6418033 211.680615,44.0540984 212.385846,44.0540984 Z M219.040615,50.8864754 C217.371692,50.8864754 217.371692,53.4721311 219.040615,53.4721311 C220.709538,53.4721311 220.709538,50.8864754 219.040615,50.8864754 Z M184.102769,39.9905738 C182.433846,39.9905738 182.433846,42.5762295 184.102769,42.5762295 C185.771692,42.5762295 185.771692,39.9905738 184.102769,39.9905738 Z M191.681846,22.2622951 C190.012923,22.2622951 190.012923,24.8479508 191.681846,24.8479508 C193.350769,24.8479508 193.350769,22.2622951 191.681846,22.2622951 Z M178.741538,62.8901639 C177.072615,62.8901639 177.072615,65.4745902 178.741538,65.4745902 C180.409231,65.4745902 180.409231,62.8901639 178.741538,62.8901639 Z M80.9507692,45.2848361 C83.3335385,45.2848361 83.3335385,48.9782787 80.9507692,48.9782787 C78.5655385,48.9782787 78.5655385,45.2848361 80.9507692,45.2848361 Z M49.0307692,61.1663934 L49.2781538,61.1663934 C50.2849231,61.1663934 51.1255385,62.007377 51.1255385,63.0143443 C51.1255385,64.0213115 50.2849231,64.8598361 49.2781538,64.8598361 L49.0307692,64.8598361 C48.024,64.8598361 47.1821538,64.0213115 47.1821538,63.0143443 C47.1821538,62.007377 48.024,61.1663934 49.0307692,61.1663934 Z M100.976615,33.7114754 L101.161231,33.7114754 C102.169231,33.7114754 103.009846,34.552459 103.009846,35.5594262 C103.009846,36.5663934 102.169231,37.404918 101.161231,37.404918 L100.976615,37.404918 C99.9698462,37.404918 99.128,36.5663934 99.128,35.5594262 C99.128,34.552459 99.9698462,33.7114754 100.976615,33.7114754 Z M62.8953846,40.1762295 C64.5643077,40.1762295 64.5643077,42.7618852 62.8953846,42.7618852 C61.2276923,42.7618852 61.2276923,40.1762295 62.8953846,40.1762295 Z M73.2486154,33.7114754 C74.9163077,33.7114754 74.9163077,36.2971311 73.2486154,36.2971311 C71.5784615,36.2971311 71.5784615,33.7114754 73.2486154,33.7114754 Z M85.2633846,35.7438525 C86.9323077,35.7438525 86.9323077,38.3295082 85.2633846,38.3295082 C83.5944615,38.3295082 83.5944615,35.7438525 85.2633846,35.7438525 Z M89.7003077,44.0540984 C90.4067692,44.0540984 90.9950769,44.6418033 90.9950769,45.3463115 L90.9950769,45.5307377 C90.9950769,46.2352459 90.4067692,46.8241803 89.7003077,46.8241803 C88.9950769,46.8241803 88.4067692,46.2352459 88.4067692,45.5307377 L88.4067692,45.3463115 C88.4067692,44.6418033 88.9950769,44.0540984 89.7003077,44.0540984 Z M83.0455385,50.8864754 C84.7144615,50.8864754 84.7144615,53.4721311 83.0455385,53.4721311 C81.3766154,53.4721311 81.3766154,50.8864754 83.0455385,50.8864754 Z M117.983385,39.9905738 C119.652308,39.9905738 119.652308,42.5762295 117.983385,42.5762295 C116.314462,42.5762295 116.314462,39.9905738 117.983385,39.9905738 Z M110.404308,22.2622951 C112.073231,22.2622951 112.073231,24.8479508 110.404308,24.8479508 C108.736615,24.8479508 108.736615,22.2622951 110.404308,22.2622951 Z M123.344615,62.8901639 C125.013538,62.8901639 125.013538,65.4745902 123.344615,65.4745902 C121.675692,65.4745902 121.675692,62.8901639 123.344615,62.8901639 Z M259.273231,64.8045082 C259.686769,63.6155738 259.843077,62.2606557 259.726154,60.8651639 C259.680615,60.3229508 259.605538,59.7770492 259.476308,59.232377 C259.132923,57.8135246 258.491692,56.3860656 257.504615,55.3077869 C257.246154,55.0397541 257.013538,54.8061475 256.692308,54.577459 C256.368615,54.3278689 256.046154,54.0991803 255.712615,53.902459 C255.033231,53.4991803 254.273846,53.1635246 253.468923,52.8954918 C251.857846,52.3618852 250.063385,52.092623 248.249231,52.1233607 C247.342154,52.1442623 246.428923,52.2352459 245.540308,52.4295082 C245.094769,52.5266393 244.655385,52.6409836 244.244308,52.7860656 C243.812308,52.9348361 243.349538,53.1204918 242.885538,53.3159836 C241.019692,54.1127049 239.087385,55.0852459 237.16,56.1266393 C237.084923,56.1672131 237.009846,56.2151639 236.936,56.2557377 C236.906462,56.4057377 236.884308,56.5532787 236.851077,56.7032787 C236.763692,57.1028689 236.649231,57.4987705 236.526154,57.8909836 C236.945846,57.6364754 237.365538,57.3893443 237.786462,57.1508197 C241.104615,55.2856557 244.6,53.8852459 248.142154,53.7868852 C249.891077,53.7364754 251.649846,54.0758197 253.116923,54.7594262 C254.587692,55.395082 255.631385,56.4229508 256.485538,57.4877049 C256.565538,57.5872951 256.655385,57.6868852 256.732923,57.7877049 C257.610462,58.9790984 258.250462,60.2971311 258.470769,61.6815574 C258.634462,62.6258197 258.526154,63.5995902 258.201231,64.4467213 C258.051077,64.8377049 257.860308,65.2040984 257.619077,65.522541 C257.248615,66.0352459 256.805538,66.4520492 256.342769,66.7901639 C255.883692,67.1356557 255.365538,67.4086066 254.830154,67.5647541 C253.748308,67.8954918 252.104,67.8684426 251.306462,67.3840164 C250.913846,67.1430328 250.590154,66.8786885 250.320615,66.6032787 C250.778462,67.4147541 251.465231,68.157377 252.510154,68.5151639 C253.404923,68.8286885 254.453538,68.9344262 255.476308,68.6922131 C255.984615,68.5717213 256.481846,68.3602459 256.926154,68.0540984 C257.201846,67.8635246 257.48,67.6163934 257.740923,67.3471311 C257.891077,67.1934426 258.037538,67.0336066 258.170462,66.8688525 C258.399385,66.5848361 258.595077,66.270082 258.776,65.9418033 C258.971692,65.5864754 259.134154,65.2040984 259.273231,64.8045082 Z M164.502769,46.6729508 C168.888,44.6713115 173.516923,43.8020492 177.832,43.8770492 C177.500923,42.8368852 176.490462,40.7356557 173.555077,39.4877049 C173.256,39.3844262 172.971692,39.3069672 172.662769,39.2233607 L172.254154,39.1213115 L171.460308,38.9504098 C170.389538,38.745082 169.290462,38.6135246 168.209846,38.5409836 C167.129231,38.4709016 166.059692,38.457377 165.049231,38.5151639 C164.054769,38.5729508 163.051692,38.7106557 162.430154,38.9491803 C160.762462,39.5983607 159.499692,40.6606557 159.004923,41.9368852 C158.481846,43.1983607 158.773538,44.6491803 159.608,45.4606557 C160.422769,46.3040984 161.717538,46.4467213 162.817846,46.1430328 C163.931692,45.8479508 164.854769,45.2614754 165.561231,44.747541 C166.971692,43.6754098 167.626462,42.882377 167.64,42.9020492 C167.617846,42.8885246 167.215385,43.8118852 166.024,45.2430328 C165.631385,45.6893443 165.135385,46.1946721 164.502769,46.6729508 Z M136.382154,44.747541 C137.088615,45.2614754 138.012923,45.8479508 139.125538,46.1430328 C140.225846,46.4467213 141.520615,46.3040984 142.335385,45.4606557 C143.169846,44.6491803 143.460308,43.1983607 142.938462,41.9368852 C142.443692,40.6606557 141.182154,39.5983607 139.512,38.9491803 C138.892923,38.7106557 137.889846,38.5729508 136.895385,38.5151639 C135.883692,38.457377 134.814154,38.4709016 133.733538,38.5409836 C132.652923,38.6135246 131.553846,38.745082 130.484308,38.9504098 L129.690462,39.1213115 L129.281846,39.2233607 C128.971692,39.3069672 128.688615,39.3844262 128.388308,39.4877049 C125.452923,40.7356557 124.442462,42.8368852 124.111385,43.8770492 C128.426462,43.8020492 133.055385,44.6713115 137.440615,46.6729508 C136.808,46.1946721 136.312,45.6893443 135.918154,45.2430328 C134.729231,43.8118852 134.325538,42.8885246 134.304615,42.9020492 C134.316923,42.882377 134.971692,43.6754098 136.382154,44.747541 Z M138.540923,19.8352459 C138.539692,19.8413934 138.537231,19.8340164 138.537231,19.8758197 L138.547077,20.0614754 C138.561846,20.3098361 138.581538,20.5520492 138.609846,20.7905738 C138.714462,21.7446721 138.945846,22.6151639 139.281846,23.4303279 C139.96,25.0581967 141.043077,26.4622951 141.945231,27.642623 C142.005538,27.7188525 142.057231,27.7864754 142.117538,27.8614754 C143.168615,28.6741803 144.010462,29.6233607 144.649231,30.5860656 C145.121846,31.2967213 145.486154,32.0135246 145.771692,32.7180328 C145.604308,31.8069672 145.487385,30.8344262 145.430769,29.8114754 C145.244923,29.1315574 145.002462,28.3459016 144.687385,27.4803279 C144.142154,26.0344262 143.348308,24.3844262 142.165538,22.8709016 C141.576,22.1172131 140.888,21.4004098 140.099077,20.7930328 C139.704,20.4881148 139.288,20.2040984 138.843692,19.9594262 C138.790769,19.927459 138.734154,19.8967213 138.677538,19.8684426 L138.592615,19.8254098 L138.593846,19.8278689 C138.596308,19.8290984 138.595077,19.8315574 138.593846,19.8327869 C138.592615,19.8352459 138.592615,19.8364754 138.592615,19.8364754 L138.587692,19.8290984 C138.581538,19.8217213 138.569231,19.8168033 138.553231,19.8266393 L138.540923,19.8352459 Z M156.512615,29.8127049 C156.456,30.8344262 156.339077,31.8069672 156.172923,32.7168033 C156.458462,32.0135246 156.821538,31.2967213 157.294154,30.5860656 C157.932923,29.6233607 158.774769,28.6741803 159.827077,27.8614754 C159.886154,27.7864754 159.937846,27.7188525 159.998154,27.642623 C160.899077,26.4622951 161.982154,25.0581967 162.662769,23.4303279 C162.998769,22.6151639 163.228923,21.7446721 163.333538,20.7905738 C163.361846,20.5520492 163.382769,20.3098361 163.395077,20.0614754 L163.406154,19.8758197 C163.406154,19.8340164 163.403692,19.8413934 163.402462,19.8352459 L163.390154,19.8266393 C163.374154,19.8168033 163.361846,19.8217213 163.355692,19.8290984 L163.349538,19.8364754 C163.349538,19.8364754 163.349538,19.8352459 163.349538,19.8327869 C163.349538,19.8315574 163.347077,19.8290984 163.349538,19.8278689 L163.349538,19.8254098 L163.264615,19.8684426 C163.208,19.8967213 163.153846,19.927459 163.099692,19.9594262 C162.655385,20.2040984 162.239385,20.4881148 161.845538,20.7930328 C161.055385,21.4004098 160.367385,22.1172131 159.777846,22.8709016 C158.595077,24.3844262 157.801231,26.0344262 157.256,27.4803279 C156.940923,28.3459016 156.698462,29.1315574 156.512615,29.8127049 Z M64.1569231,57.1508197 C64.5790769,57.3893443 64.9975385,57.6364754 65.416,57.8909836 C65.2929231,57.4987705 65.1809231,57.1028689 65.0923077,56.7032787 C65.0590769,56.5532787 65.0369231,56.4057377 65.0073846,56.2557377 C64.9335385,56.2151639 64.8584615,56.1672131 64.7833846,56.1266393 C62.856,55.0852459 60.9236923,54.1127049 59.0578462,53.3159836 C58.5938462,53.1204918 58.1310769,52.9348361 57.6990769,52.7860656 C57.288,52.6409836 56.8486154,52.5266393 56.4030769,52.4295082 C55.5156923,52.2352459 54.6012308,52.1442623 53.6941538,52.1233607 C51.88,52.092623 50.0855385,52.3618852 48.4744615,52.8954918 C47.6695385,53.1635246 46.9101538,53.4991803 46.232,53.902459 C45.8972308,54.0991803 45.5747692,54.3278689 45.2523077,54.577459 C44.9298462,54.8061475 44.6972308,55.0397541 44.4387692,55.3077869 C43.4529231,56.3860656 42.8116923,57.8135246 42.4670769,59.232377 C42.3378462,59.7770492 42.264,60.3229508 42.2184615,60.8651639 C42.1015385,62.2606557 42.2566154,63.6155738 42.6689231,64.8045082 C42.8092308,65.2040984 42.9716923,65.5864754 43.1673846,65.9418033 C43.3483077,66.270082 43.544,66.5848361 43.7729231,66.8688525 C43.9070769,67.0336066 44.0523077,67.1934426 44.2024615,67.3471311 C44.4646154,67.6163934 44.7415385,67.8635246 45.0172308,68.0540984 C45.4627692,68.3602459 45.9587692,68.5717213 46.4670769,68.6922131 C47.4886154,68.9344262 48.5396923,68.8286885 49.4332308,68.5151639 C50.4781538,68.157377 51.1649231,67.4147541 51.6227692,66.6032787 C51.3544615,66.8786885 51.0307692,67.1430328 50.6381538,67.3840164 C49.8393846,67.8684426 48.1950769,67.8954918 47.1132308,67.5647541 C46.5778462,67.4086066 46.0596923,67.1356557 45.6006154,66.7901639 C45.1378462,66.4520492 44.6947692,66.0352459 44.3243077,65.522541 C44.0830769,65.2040984 43.8923077,64.8377049 43.7421538,64.4467213 C43.416,63.5995902 43.3101538,62.6258197 43.4726154,61.6815574 C43.6941538,60.2971311 44.3316923,58.9790984 45.2104615,57.7877049 C45.288,57.6868852 45.3778462,57.5872951 45.4590769,57.4877049 C46.312,56.4229508 47.3556923,55.395082 48.8264615,54.7594262 C50.2935385,54.0758197 52.0523077,53.7364754 53.8012308,53.7868852 C57.3433846,53.8852459 60.8387692,55.2856557 64.1569231,57.1508197 Z M159.292923,49.6987705 C160.245538,49.0090164 161.224,48.3930328 162.220923,47.8336066 C161.841846,47.9331967 161.433231,47.9983607 160.997538,48.0032787 C160.112615,48.0229508 159.110769,47.7721311 158.251692,47.1745902 C156.494154,46.0077869 155.526769,43.5069672 156.115077,41.1032787 C156.385846,39.9032787 157.017231,38.7672131 157.857846,37.8303279 C158.699692,36.8885246 159.737231,36.1372951 160.848615,35.5606557 C162.187692,34.8991803 163.396308,34.6901639 164.629538,34.4946721 C165.857846,34.322541 167.093538,34.2512295 168.355077,34.257377 C169.614154,34.2647541 170.897846,34.3508197 172.218462,34.5536885 C172.548308,34.6053279 172.880615,34.6643443 173.215385,34.7319672 L173.700308,34.8377049 C173.688,34.8327869 173.700308,34.8340164 173.697846,34.8315574 C173.705231,34.8254098 173.705231,34.8192623 173.704,34.8155738 L173.699077,34.8081967 C173.697846,34.8081967 173.713846,34.8241803 173.728615,34.8118852 C173.732308,34.8094262 173.736,34.8057377 173.739692,34.7983607 L173.742154,34.7872951 L173.592,34.4786885 C173.364308,34.0336066 173.102154,33.6069672 172.812923,33.202459 C171.653538,31.5807377 170.037538,30.3856557 168.291077,29.745082 C167.854154,29.5803279 167.407385,29.4561475 166.956923,29.3577869 C166.512615,29.2618852 166.022769,29.1905738 165.628923,29.1622951 C164.794462,29.1069672 163.947692,29.2151639 163.146462,29.4487705 C161.535385,29.9196721 160.139692,30.8762295 159.096,31.9901639 C156.974154,34.2512295 156.254154,36.9696721 155.977231,38.7856557 C155.712615,40.6422131 155.795077,41.7217213 155.774154,41.7168033 C155.796308,41.7131148 155.427077,40.7098361 155.263385,38.7610656 C155.203077,37.9286885 155.195692,36.9155738 155.358154,35.7598361 C154.735385,37.470082 153.924308,38.7696721 153.203077,39.572541 C152.815385,40.0053279 152.478154,40.3040984 152.217231,40.5094262 C152.001846,40.7627049 151.877538,40.8844262 151.881231,40.8868852 C151.877538,40.8881148 151.900923,40.8266393 151.941538,40.7159836 C151.774154,40.8315574 151.679385,40.8831967 151.685538,40.8868852 C151.675692,40.8844262 151.867692,40.6483607 152.126154,40.1811475 C152.475692,39.1237705 153.077538,36.9217213 153.163692,33.9131148 C153.236308,31.7651639 153.075077,29.2077869 152.496615,26.5262295 C152.206154,25.1897541 151.808615,23.8213115 151.258462,22.5327869 C151.091077,22.1467213 151.011077,21.9831967 150.971692,21.9192623 C150.932308,21.9831967 150.852308,22.1467213 150.684923,22.5327869 C150.134769,23.8213115 149.737231,25.1897541 149.446769,26.5262295 C148.868308,29.2077869 148.708308,31.7651639 148.779692,33.9131148 C148.865846,36.9217213 149.467692,39.1237705 149.816,40.1811475 C150.075692,40.6483607 150.267692,40.8844262 150.259077,40.8868852 C150.262769,40.8831967 150.169231,40.8315574 150.001846,40.7159836 C150.042462,40.8266393 150.067077,40.8881148 150.062154,40.8868852 C150.067077,40.8844262 149.942769,40.7627049 149.726154,40.5094262 C149.465231,40.3040984 149.128,40.0053279 148.741538,39.572541 C148.020308,38.7696721 147.209231,37.470082 146.586462,35.7598361 C146.747692,36.9168033 146.741538,37.9286885 146.68,38.7610656 C146.517538,40.7098361 146.147077,41.7131148 146.169231,41.7168033 C146.148308,41.7217213 146.232,40.6422131 145.966154,38.7856557 C145.689231,36.9696721 144.970462,34.2512295 142.848615,31.9901639 C141.803692,30.8762295 140.408,29.9196721 138.798154,29.4487705 C137.996923,29.2151639 137.148923,29.1069672 136.314462,29.1622951 C135.920615,29.1905738 135.430769,29.2618852 134.986462,29.3577869 C134.536,29.4561475 134.089231,29.5803279 133.653538,29.745082 C131.905846,30.3856557 130.288615,31.5807377 129.130462,33.202459 C128.841231,33.6069672 128.579077,34.0336066 128.351385,34.4786885 L128.201231,34.7872951 L128.204923,34.7983607 C128.207385,34.8057377 128.211077,34.8094262 128.214769,34.8118852 C128.229538,34.8241803 128.245538,34.8081967 128.244308,34.8081967 L128.240615,34.8155738 C128.238154,34.8192623 128.238154,34.8254098 128.245538,34.8315574 C128.243077,34.8340164 128.255385,34.8327869 128.243077,34.8377049 L128.728,34.7319672 C129.062769,34.6643443 129.395077,34.6053279 129.726154,34.5536885 C131.045538,34.3508197 132.328,34.2647541 133.589538,34.257377 C134.849846,34.2512295 136.085538,34.322541 137.313846,34.4946721 C138.547077,34.6901639 139.755692,34.8991803 141.094769,35.5606557 C142.206154,36.1372951 143.243692,36.8885246 144.084308,37.8303279 C144.924923,38.7672131 145.557538,39.9032787 145.829538,41.1032787 C146.417846,43.5069672 145.449231,46.0077869 143.692923,47.1745902 C142.832615,47.7721311 141.830769,48.0229508 140.945846,48.0032787 C140.508923,47.9983607 140.101538,47.9331967 139.723692,47.8336066 C140.719385,48.3930328 141.699077,49.0090164 142.650462,49.6987705 C143.003692,49.9532787 143.353231,50.2213115 143.697846,50.4967213 C143.728615,50.2053279 143.749538,49.9114754 143.801231,49.627459 C144.140923,47.6922131 145,46.0434426 145.948923,44.9516393 C146.897846,43.8413934 147.868923,43.2352459 148.539692,42.8786885 C149.217846,42.5270492 149.617846,42.4102459 149.615385,42.4028689 C149.620308,42.4065574 149.386462,42.7594262 149.035692,43.3913934 C148.689846,44.0233607 148.238154,44.9418033 147.945231,46.0594262 C147.643692,47.1795082 147.526769,48.4729508 147.646154,49.8979508 C147.759385,51.3254098 148.094154,52.9004098 148.527385,54.6204918 C148.633231,55.0360656 148.741538,55.4504098 148.849846,55.8622951 C149.390154,56.604918 149.899692,57.3770492 150.368615,58.1897541 C150.628308,58.6348361 150.842462,59.1081967 151.007385,59.5987705 C151.135385,59.0971311 151.323692,58.622541 151.576,58.1897541 C152.043692,57.3770492 152.553231,56.604918 153.093538,55.8622951 C153.201846,55.4504098 153.310154,55.0360656 153.416,54.6204918 C153.849231,52.9004098 154.184,51.3254098 154.297231,49.8979508 C154.415385,48.4729508 154.299692,47.1795082 153.998154,46.0594262 C153.705231,44.9418033 153.253538,44.0233607 152.906462,43.3913934 C152.556923,42.7594262 152.321846,42.4065574 152.328,42.4028689 C152.325538,42.4102459 152.725538,42.5270492 153.403692,42.8786885 C154.074462,43.2352459 155.045538,43.8413934 155.994462,44.9516393 C156.943385,46.0434426 157.802462,47.6922131 158.142154,49.627459 C158.193846,49.9114754 158.213538,50.2053279 158.245538,50.4967213 C158.590154,50.2213115 158.939692,49.9532787 159.292923,49.6987705 Z M150.52,47.6245902 C148.136,47.6245902 148.136,51.3180328 150.52,51.3180328 C152.904,51.3180328 152.904,47.6245902 150.52,47.6245902 Z M162.104,40.7295082 C159.72,40.7295082 159.72,44.4229508 162.104,44.4229508 C164.488,44.4229508 164.488,40.7295082 162.104,40.7295082 Z M139.982154,40.7295082 C142.366154,40.7295082 142.366154,44.4229508 139.982154,44.4229508 C137.598154,44.4229508 137.598154,40.7295082 139.982154,40.7295082 Z" id="Combined-Shape"></path>
                </g>
            </g>
        </g>
    </g>
</svg>