<?xml version="1.0" encoding="UTF-8" standalone="no"?>
<svg width="125px" height="126px" viewBox="0 0 125 126" version="1.1" xmlns="http://www.w3.org/2000/svg" xmlns:xlink="http://www.w3.org/1999/xlink">
    <!-- Generator: Sketch 50.2 (55047) - http://www.bohemiancoding.com/sketch -->
    <title>deco</title>
    <desc>Created with Sketch.</desc>
    <defs>
        <linearGradient x1="63.1277323%" y1="100%" x2="63.1277323%" y2="0%" id="linearGradient-1">
            <stop stop-color="#284333" offset="0%"></stop>
            <stop stop-color="#0E2B1D" offset="100%"></stop>
        </linearGradient>
    </defs>
    <g id="Page-1" stroke="none" stroke-width="1" fill="none" fill-rule="evenodd">
        <g id="deco" fill="url(#linearGradient-1)">
            <path d="M103.158436,111.125149 C101.786697,108.695459 101.262387,106.447234 101.217272,104.92 C101.162403,103.383023 101.447725,102.580433 101.424557,102.580433 C101.444067,102.575562 101.422119,103.43052 101.840347,104.812825 C102.246382,106.198784 103.188919,108.062156 104.820374,109.985204 C106.444513,111.919213 108.711235,113.937257 111.482758,115.744606 C112.870348,116.64219 114.376213,117.493495 115.983281,118.202307 C116.783158,118.554278 117.606201,118.86484 118.43778,119.116943 L118.679206,119.183927 L118.681644,119.180273 L118.684083,119.174184 C118.684083,119.17053 118.682864,119.168094 118.682864,119.168094 C118.682864,119.168094 118.685302,119.17053 118.687741,119.17053 L118.695057,119.169312 C118.697496,119.169312 118.697496,119.165658 118.699934,119.168094 L118.702373,119.174184 L118.682864,119.041434 C118.552396,118.229101 118.321944,117.407025 118.04028,116.609307 C117.468417,115.015089 116.67098,113.501252 115.800383,112.123819 C114.043337,109.357991 111.979023,107.114637 110.058588,105.454653 C106.182358,102.084752 102.871895,101.160374 102.912132,101.13358 C102.909694,101.144541 103.738834,101.138452 105.22275,101.442924 C106.692035,101.753486 108.831948,102.424543 111.218165,103.803195 C113.598284,105.17941 116.241778,107.236426 118.568247,110.139876 C119.720508,111.596472 120.805706,113.26011 121.631188,115.197773 C122.037223,116.168431 122.389608,117.203638 122.610305,118.318007 L122.650543,118.545752 L122.707851,118.912337 C122.741992,119.158351 122.761501,119.397057 122.790765,119.641853 C122.83588,120.125356 122.849293,120.603986 122.833441,121.070438 C122.778572,121.988727 122.679807,122.848557 122.596893,123.800947 L122.594454,123.821652 C121.629969,123.726656 120.747179,123.66089 119.818054,123.535447 C119.348614,123.468463 118.873078,123.371032 118.398761,123.255333 L117.689115,123.059252 L117.231869,122.917977 C116.196663,122.572096 115.227301,122.149489 114.315247,121.681819 C112.497235,120.745262 110.891386,119.647943 109.464777,118.487294 C106.621315,116.150163 104.505788,113.549968 103.158436,111.125149 Z M99.6467836,101.285816 C101.609895,101.285816 101.609895,98.2447451 99.6467836,98.2447451 C97.6836725,98.2447451 97.6836725,101.285816 99.6467836,101.285816 Z M110.395121,108.180291 C107.647985,108.180291 107.647985,112.44047 110.395121,112.44047 C113.143477,112.44047 113.143477,108.180291 110.395121,108.180291 Z M87.6974122,90.8375385 L87.6376653,90.4283275 C87.4974431,89.3029972 87.4937851,88.1922816 87.4535474,87.0206715 L87.5449967,87.0486829 C88.7106701,87.4359719 89.8617116,87.8244788 90.9127685,88.2117678 C91.231012,88.3323389 91.2871009,88.3676577 91.4480516,88.4370775 C91.5894931,88.5004077 91.7248381,88.5710453 91.8638409,88.641683 C92.1357501,88.7793045 92.4015627,88.9351944 92.6564013,89.1069169 C93.1660786,89.4430545 93.6257636,89.8498298 93.989122,90.3065385 C94.3488225,90.765683 94.5914679,91.2771968 94.7109616,91.7485202 C94.9450717,92.7082174 94.7585152,93.432862 94.6170737,93.8786097 C94.4707548,94.3353184 94.3329713,94.5581923 94.3366292,94.560628 C94.3341906,94.5618459 94.3049268,94.2987817 94.2073809,93.8579055 C94.1012998,93.4316441 93.9159626,92.8068665 93.4989539,92.2880454 C93.0856032,91.7655706 92.4674061,91.3941142 91.6138796,91.0811165 C91.3992787,91.0068252 91.1724845,90.9337518 90.933497,90.8631142 L90.5701386,90.7535041 C90.4616188,90.7242747 90.2494565,90.6609445 90.2957908,90.687738 C90.2640884,90.7133137 90.2811589,90.7413252 90.2835975,90.7413252 C90.2811589,90.7388894 90.2567724,90.7133137 90.2238507,90.7340179 L90.2104381,90.743761 C90.2079995,90.7608114 90.1970256,90.7303642 90.2055608,90.8156165 L90.232386,91.1907266 C90.2506758,91.4343046 90.2762816,91.6681394 90.3067647,91.8934491 C90.4384516,92.7861624 90.6762197,93.4913207 91.0859125,93.9650799 C91.4858506,94.4510179 92.0723453,94.6921601 92.4942313,94.8090776 C92.9222138,94.925995 93.1868071,94.9613138 93.1855877,94.9649675 C93.1819298,94.9613138 92.9612322,95.091628 92.4954506,95.2231602 C92.0430815,95.3364239 91.2675917,95.4776992 90.3409058,95.0526556 C89.8848787,94.8443964 89.4325097,94.494862 89.0654933,94.0466785 C88.6911609,93.5997129 88.3936459,93.0711486 88.1668518,92.5084835 C88.0558933,92.2271509 87.9546894,91.9360752 87.8742141,91.6389101 C87.8339764,91.4891096 87.7973967,91.3356555 87.7632556,91.1870729 C87.7449658,91.1371394 87.7181407,90.9629812 87.6974122,90.8375385 Z M88.4058392,100.42355 L88.088815,100.259135 C87.2328499,99.8121694 86.4549214,99.2592474 85.6209041,98.7075433 L85.6806509,98.6612634 C86.5341774,98.0413575 87.3669755,97.4275409 88.1570972,96.8867978 C88.3973039,96.7260363 88.4485155,96.6980249 88.5802025,96.6237336 C88.6911609,96.5604033 88.808216,96.4982909 88.9228324,96.4349606 C89.1557232,96.3168253 89.3947106,96.2084331 89.6385754,96.1110019 C90.1250855,95.9210111 90.6372014,95.7992221 91.1371241,95.7760822 C91.6358274,95.7517244 92.1113636,95.8308872 92.4954506,95.9843414 C93.277037,96.2936854 93.6928264,96.7784056 93.9391297,97.0962749 C94.1842138,97.4238873 94.2695664,97.6284928 94.2732244,97.6272749 C94.2732244,97.6297107 94.0732553,97.5225363 93.7196515,97.3739538 C93.3648283,97.2338964 92.8392998,97.0609561 92.274753,97.095057 C91.7077675,97.1206327 91.140782,97.3703001 90.5018565,97.8172657 C90.3470024,97.92444 90.1823937,98.0486648 90.0129077,98.1765432 L89.7568497,98.3799309 C89.6873483,98.4383896 89.5410295,98.5565249 89.5824865,98.5358208 C89.5849251,98.5711396 89.6129696,98.5735754 89.6117502,98.5711396 C89.6117502,98.5711396 89.5812671,98.5760111 89.5800478,98.6101121 L89.5800478,98.6247267 C89.5885831,98.6344699 89.5629773,98.6259446 89.6276014,98.6636992 L89.8995106,98.8293322 C90.0811898,98.9328529 90.2518951,99.031502 90.4262584,99.1204079 C91.1151763,99.4699423 91.7211801,99.6538437 92.2528052,99.6039102 C92.7880882,99.5637199 93.2489926,99.2677726 93.5367529,99.0375914 C93.8293906,98.798885 93.9842447,98.6271625 93.9842447,98.6308162 C93.9805867,98.6295983 93.9659549,98.8500364 93.8245133,99.2348896 C93.6855104,99.6099997 93.401408,100.217727 92.647866,100.658603 C92.2759723,100.875387 91.8053134,101.013009 91.3127067,101.048328 C90.8188806,101.094608 90.3031067,101.034931 89.7983067,100.918013 C89.5507841,100.860773 89.2983841,100.780392 89.0520807,100.693922 C88.9240517,100.650078 88.8021194,100.603798 88.676529,100.546557 C88.6362913,100.531942 88.4997271,100.468612 88.4058392,100.42355 Z M96.3155915,93.7397702 C96.0131992,93.4840133 95.5510756,93.0553161 95.2596572,92.2661234 C95.115777,91.8812702 95.040179,91.4038573 95.0670041,90.9069582 C95.0926099,90.4124949 95.2169809,89.9058527 95.3962215,89.427222 C95.4913287,89.1872976 95.5949712,88.9546807 95.7144649,88.7257174 C95.7717731,88.6148894 95.8303007,88.4991898 95.8924862,88.3907976 C95.9693036,88.2617013 95.9900321,88.2117678 96.1461055,87.9767151 C96.6667567,87.2082265 97.2593479,86.3995476 97.8580358,85.576254 L97.9019315,85.5165774 C98.4262406,86.3666646 98.9444532,87.158293 99.3748744,88.0205591 L99.5236319,88.3457357 C99.5724048,88.441949 99.6309324,88.5783527 99.6455642,88.6197609 C99.6931179,88.740332 99.7370135,88.8682105 99.7833478,88.9912174 C99.8674811,89.2408848 99.9357633,89.492988 99.9906328,89.747527 C100.105249,90.2529513 100.152803,90.7681188 100.112565,91.2589284 C100.075985,91.7485202 99.9357633,92.2113184 99.7260396,92.569378 C99.305373,93.3049835 98.717659,93.5692656 98.3628358,93.7007977 C97.9897228,93.8225867 97.7824378,93.831112 97.7836571,93.8347656 C97.7799991,93.8335477 97.9397305,93.6922725 98.1701827,93.4060684 C98.3957575,93.1223 98.676202,92.680206 98.717659,92.1479881 C98.7749672,91.6218596 98.6042619,91.0068252 98.2713865,90.3077564 C98.1848146,90.1384697 98.0945846,89.9594399 97.9909421,89.7743206 L97.8385266,89.4990775 C97.8031663,89.4345293 97.8104822,89.460105 97.8019469,89.4503619 L97.7885344,89.449144 C97.7556126,89.449144 97.7507353,89.4808091 97.7507353,89.482027 C97.7507353,89.482027 97.7507353,89.4527977 97.711717,89.449144 C97.7348841,89.4101715 97.621487,89.5502288 97.5653982,89.6245201 L97.3703064,89.8729697 C97.248374,90.0312954 97.127661,90.1920568 97.0227992,90.3479468 C96.5923779,90.9629812 96.3521712,91.5207748 96.3216881,92.082222 C96.287547,92.6497587 96.4460591,93.1795408 96.5826233,93.531511 C96.7228455,93.8871349 96.8252687,94.0893046 96.8203914,94.0893046 C96.8228301,94.0868688 96.6277383,93.9943092 96.3155915,93.7397702 Z M78.2549701,115.32078 C78.0464658,115.106431 77.8355228,114.8933 77.6270185,114.671644 C77.2148871,114.227115 76.8234842,113.769188 76.4540291,113.30639 C75.7431635,112.380794 75.1456949,111.489298 74.4689703,110.530819 L75.5724582,110.182502 L77.1953779,109.685603 C77.7513895,109.532149 78.356174,109.401835 78.9694937,109.303186 C79.5889101,109.200883 80.2193005,109.129027 80.8533487,109.092491 C81.5276347,109.055954 81.7373583,109.066915 82.1226646,109.074222 C83.533422,109.113195 84.9039418,109.344594 86.1610644,109.76233 C88.7009155,110.585624 90.6384207,112.246826 91.694355,113.85444 C92.7771143,115.474234 93.1660786,116.952752 93.3660476,117.936807 C93.5587008,118.935477 93.5684554,119.494489 93.574552,119.493271 C93.5696747,119.498142 93.3111781,118.998807 92.783211,118.17186 C92.2503665,117.360745 91.4273231,116.215929 90.1848323,115.197773 C88.9508768,114.173528 87.297474,113.362413 85.3197311,113.059158 C84.3332983,112.90814 83.2712675,112.867949 82.1641216,112.933716 C81.9202569,112.947112 81.491055,112.978777 81.528854,112.987303 C81.5227574,112.999482 81.5215381,113.008007 81.5227574,113.015314 C81.5239767,113.029929 81.53617,113.036018 81.53617,113.036018 L81.532512,113.0348 C81.5227574,113.032365 81.5044675,113.028711 81.487397,113.038454 C81.4800811,113.043326 81.4727651,113.051851 81.4678878,113.065248 C81.4654492,113.071337 81.4630105,113.082298 81.4630105,113.093259 L81.4630105,113.109092 C81.4605719,113.111527 81.4544753,113.111527 81.5178801,113.178511 C82.278738,114.01033 83.0530085,114.775165 83.830937,115.45353 C85.3831359,116.810259 86.9597214,117.807711 88.4143744,118.422745 C89.8665889,119.052395 91.1798004,119.304498 92.108925,119.401929 C93.0380496,119.507885 93.5757713,119.479874 93.574552,119.493271 C93.5721133,119.479874 93.1026737,119.744156 92.1601366,120.010874 C91.2188188,120.276374 89.7605077,120.530913 87.9327416,120.319 C86.1122915,120.120484 83.9675012,119.420197 81.8909931,118.15481 C80.8509101,117.530032 79.8254589,116.768851 78.8463421,115.887099 L78.5793102,115.634995 L78.2549701,115.32078 Z M87.7949581,114.540112 C85.873304,114.954195 86.5134489,117.924628 88.4290063,117.516635 C90.349441,117.104989 89.7105154,114.133337 87.7949581,114.540112 Z M71.6620873,119.940236 C73.6203211,119.940236 73.6203211,116.899165 71.6620873,116.899165 C69.6989763,116.899165 69.6989763,119.940236 71.6620873,119.940236 Z M66.7396779,107.41911 C63.9974191,107.41911 63.9974191,111.680507 66.7396779,111.680507 C69.4880333,111.680507 69.4880333,107.41911 66.7396779,107.41911 Z M58.0617518,112.953202 C58.0715064,110.795101 60.8613188,99.6355754 74.9164621,100.351695 C75.4810089,100.379706 76.0443364,100.42964 76.6101026,100.496624 C76.5820581,100.412589 76.551575,100.327337 76.5259692,100.237213 C76.0760388,98.7891419 75.9309393,97.2424217 76.2113837,96.0318391 C76.4893895,94.7956808 77.1453856,94.2208367 77.5502011,94.0198849 C77.9659904,93.8031005 78.2086358,93.8091899 78.2074165,93.7994468 C78.2122938,93.8043184 78.0184213,94.0089239 77.7830919,94.4412748 C77.5441044,94.8638826 77.3209682,95.5507725 77.4038822,96.3472726 C77.470945,97.1437726 77.8001624,98.0864194 78.3013044,99.0485524 C78.5524851,99.5210937 78.8426841,100.004596 79.1609276,100.460087 C79.3048077,100.662257 79.4499073,100.857119 79.6011034,101.034931 C83.3858839,101.952002 87.2462624,103.77153 90.8018101,106.682287 C89.6958836,106.05142 88.3631629,105.69336 87.2840615,105.135566 C85.5599379,104.257468 83.7419264,103.58641 81.8617294,103.2113 C83.0054549,104.200227 84.1101621,105.036917 85.0051456,105.665348 C86.3268924,106.598252 88.8630855,107.810053 88.8630855,107.816142 C88.8679628,107.806399 86.3268924,107.431289 84.7442104,107.249823 C84.5649698,107.227901 84.3759746,107.192582 84.1869795,107.154828 L80.112,106.852791 C76.465003,106.925865 74.045865,107.763773 72.7094863,109.01211 C72.1681066,109.517534 71.6803772,109.908477 71.5352777,110.43217 C71.3950555,110.954644 71.4340738,111.344369 71.4243192,111.337062 C71.4377318,111.33219 71.2414207,111.054511 71.1646033,110.355443 C71.0682767,109.656374 71.3218961,108.551748 71.9498477,107.676085 C72.5570709,106.788243 73.4374225,106.031933 74.460435,105.448564 C75.4907635,104.867631 76.6454629,104.42919 77.9806223,104.294004 C78.2549701,104.269647 78.5317566,104.25625 78.812201,104.247725 C78.6988039,104.133243 78.5976,104.027286 78.480545,103.90428 C78.3439807,103.745954 78.2086358,103.579103 78.0891421,103.418342 C77.9416039,103.221043 77.8111363,103.017656 77.681888,102.81305 C67.4298151,102.574344 64.5790365,106.398518 62.8427197,108.006133 C60.5186888,110.155709 60.9039951,113.290557 60.9003371,113.372156 C60.5699004,117.873477 63.3231332,121.137422 63.3048433,121.143512 C63.4779873,121.333502 63.6438153,121.521057 63.8303718,121.689126 C64.8887447,122.652477 66.1617185,123.212707 67.4224991,123.440452 C69.9855174,123.893507 72.3168641,123.209053 73.6081278,121.952191 C74.9384099,120.698982 75.2688466,119.185145 75.3529799,118.252241 C75.421262,117.284018 75.3139616,116.779812 75.3285934,116.78103 C75.3139616,116.783466 75.4822282,117.251135 75.5261239,118.21814 C75.5505103,119.152262 75.4310166,120.735518 74.166578,122.298071 C73.5422844,123.054381 72.625353,123.759539 71.4779695,124.208941 C70.32327,124.660778 68.9844527,124.889741 67.5127291,124.817886 C66.0471021,124.753337 64.4119891,124.290539 62.9670907,123.286998 C62.3854733,122.896055 61.8465323,122.41986 61.3490482,121.885207 C60.1053381,120.398163 59.2371797,118.430053 58.5860609,116.56181 C58.243431,115.396289 58.0385846,112.949548 58.0617518,112.953202 Z M44.6467534,119.501796 C48.5046933,120.528477 51.7517521,121.899821 54.5379065,122.785227 C60.0894869,124.671739 63.849881,124.481748 63.8303718,124.521938 C63.8291525,124.512195 62.9280723,124.670521 61.257599,124.697314 C59.5932222,124.726544 57.1570136,124.535335 54.2428302,123.869149 C51.3188922,123.228539 47.960875,122.120259 44.2126742,121.339592 C40.4766666,120.545528 36.2968253,120.236184 31.9340854,120.729429 C30.4038343,120.895062 28.9126015,121.150819 27.4445359,121.445548 C27.4274653,121.47356 27.4128335,121.497918 27.3969822,121.524711 C27.3482093,121.542979 27.2909011,121.55394 27.2421281,121.568555 C27.2543214,121.538108 27.2665146,121.505225 27.2774885,121.475996 C24.6315563,122.014303 22.0831699,122.684142 19.6225749,123.201746 C17.6936049,123.612174 15.8146273,123.912993 14.0356341,124.025039 C12.2542023,124.148046 10.5788517,124.074973 9.07786429,123.870367 C6.06735429,123.448977 3.7957544,122.530688 2.28867042,121.845016 C0.779147788,121.137422 0.00365797084,120.646612 0,120.65392 C0.00121932361,120.645395 0.844991263,121.011979 2.41182211,121.514968 C3.97743362,122.00456 6.29049052,122.631773 9.18272612,122.752344 C10.621528,122.819328 12.1981134,122.743819 13.8759027,122.502677 C15.5488147,122.266406 17.3204919,121.864502 19.189715,121.365168 C22.1575487,120.574757 25.4168007,119.550512 28.9638131,118.908684 C29.4600778,118.382555 30.0685203,117.844248 30.8379135,117.347349 C32.0352893,116.567899 33.5704177,115.912674 35.3677007,115.460837 C38.9695826,114.56447 43.5798452,114.430502 48.793673,115.413339 C50.0849367,115.648392 51.4859395,116.033245 52.7662293,116.394959 C54.0684669,116.75789 55.4072843,117.096463 56.7826813,117.368053 C57.3130871,117.475227 57.8532474,117.561697 58.3921885,117.634771 C58.8616281,118.944002 59.490799,120.199647 60.2577536,121.391961 C58.7470116,121.275044 57.4216069,120.958392 56.1461944,120.623473 C54.6878833,120.220351 53.3246795,119.761207 52.0224419,119.287447 C50.7019144,118.799073 49.5655048,118.361851 48.3742257,118.025713 C43.6298375,116.668984 39.2524657,116.31945 35.7981219,116.762762 C34.0642438,116.985635 32.5608177,117.417986 31.3463714,118.002573 C30.8793705,118.221794 30.474555,118.46659 30.0941261,118.719911 C30.6196546,118.635876 31.1512796,118.565239 31.695098,118.509216 C36.3077992,117.980651 40.8010067,118.456846 44.6467534,119.501796 Z M42.6885197,113.327094 C42.0898318,113.63522 41.6984289,113.99328 41.4533448,114.247819 C41.2082608,114.503576 41.096083,114.658248 41.0936444,114.655812 C41.096083,114.65703 41.1741197,114.492615 41.3606763,114.19545 C41.5545487,113.901938 41.8764501,113.465933 42.4458743,113.026275 C43.0067631,112.593924 43.8261486,112.182277 44.8552577,111.952096 C45.8843669,111.712172 47.1049098,111.641534 48.4498237,111.696339 C51.0030874,111.78281 54.0331066,112.408805 57.4155103,112.869167 C57.4130716,112.880128 57.4094136,112.888654 57.4094136,112.900833 C57.4094136,113.333183 57.4386774,113.759445 57.4874503,114.178399 C57.4911083,114.211282 57.4886697,114.246601 57.493547,114.280702 C57.4947663,114.289227 57.4984243,114.294099 57.5008629,114.302624 C57.5630484,114.742282 57.6471817,115.172197 57.7520436,115.589933 C57.7215605,115.582626 57.6886387,115.576537 57.6581557,115.569229 C53.9258061,114.641197 50.9530951,113.543878 48.4193406,113.060376 C47.1609987,112.808273 46.0331243,112.696227 45.0625427,112.746161 C44.0919611,112.793658 43.2872076,113.018968 42.6885197,113.327094 Z M67.9492469,113.873927 C66.9506209,115.071112 63.6060162,115.967479 61.9538327,116.38278 C61.9538327,116.38278 61.4039178,114.538894 61.6672917,113.11031 C62.256225,113.065248 62.8256491,112.984867 63.3365457,112.825323 C63.7279486,112.707188 64.0608239,112.55008 64.347365,112.358872 C64.8375331,112.951984 65.5837591,113.356323 66.5909204,113.356323 C67.8492624,113.356323 68.699131,112.726674 69.1527193,111.877805 C68.8625203,112.578092 68.4735561,113.255238 67.9492469,113.873927 Z M64.2254326,120.719686 C64.1498346,120.768401 64.0778945,120.80981 64.0010771,120.85 C63.1865689,120.046193 62.052598,117.475227 62.0379661,117.368053 L66.7396779,116.029592 C66.0019871,116.722571 66.016619,117.470356 65.9690654,117.872259 C65.9324857,118.266856 65.850791,118.650491 65.6971562,119.010986 C65.4057379,119.725888 64.8753321,120.331179 64.2254326,120.719686 Z M51.5810468,102.837408 L51.5712922,102.849587 C51.5530023,102.884906 51.5749502,102.90561 51.5761695,102.906828 C51.5761695,102.906828 51.5530023,102.889777 51.5286159,102.917789 C51.5078874,102.87638 51.5566603,103.057846 51.5810468,103.154059 L51.6688381,103.473147 C51.724927,103.685059 51.7834545,103.884793 51.8444207,104.067477 C52.0919434,104.821351 52.4040902,105.373055 52.8528013,105.746947 C53.2978544,106.117186 53.8343568,106.298651 54.2062505,106.394865 C54.5878988,106.497167 54.818351,106.527615 54.8171316,106.531268 C54.814693,106.526397 54.6171626,106.637225 54.2184437,106.760231 C53.8209442,106.867406 53.1856766,107.01477 52.3528786,106.789461 C51.9480632,106.672543 51.506668,106.454541 51.1116072,106.124493 C50.7202043,105.801752 50.3751357,105.384016 50.0922526,104.93705 C49.9532497,104.710523 49.8215628,104.474252 49.7069464,104.23311 C49.6508575,104.108885 49.5911106,103.989532 49.5386797,103.864089 C49.4813715,103.726468 49.4533271,103.676534 49.3557812,103.396419 C49.0375377,102.467169 48.7302682,101.457539 48.4181213,100.427204 L48.3961735,100.351695 C49.419186,100.410153 50.3922062,100.438165 51.3615685,100.591619 L51.7237076,100.651296 C51.8297888,100.673218 51.9809849,100.700011 52.0236612,100.713408 C52.1516902,100.745073 52.2858158,100.780392 52.4126255,100.825454 C52.67478,100.902181 52.9235221,100.992305 53.1661675,101.099479 C53.6526776,101.307738 54.1087046,101.57811 54.4927916,101.917901 C54.8707819,102.247949 55.1670775,102.652289 55.3402215,103.050539 C55.6828514,103.871397 55.5475065,104.546108 55.4328901,104.939486 C55.3133963,105.337736 55.187806,105.528945 55.191464,105.531381 C55.1890253,105.533816 55.1682968,105.301199 55.0756282,104.929743 C54.9793017,104.557069 54.7854292,104.03703 54.3708592,103.677752 C53.9697017,103.308731 53.3576013,103.083422 52.5784535,102.954325 C52.3821424,102.92266 52.1833926,102.895867 51.9712303,102.872727 L51.6456709,102.834972 C51.5688535,102.826447 51.5944593,102.83619 51.5810468,102.837408 Z M58.7384764,105.936938 C58.9506387,105.690924 59.2152319,105.293892 59.2627855,104.826222 C59.3176551,104.362206 59.1786522,103.82877 58.8860145,103.222261 C58.8091971,103.067589 58.7299411,102.915353 58.6445885,102.754591 L58.5043662,102.513449 C58.4738831,102.456208 58.4799798,102.479348 58.4714445,102.470823 L58.4592513,102.469605 C58.4299875,102.470823 58.4251102,102.497617 58.4251102,102.498835 C58.4251102,102.498835 58.4251102,102.474477 58.3946271,102.470823 C58.412917,102.435504 58.3117131,102.559729 58.2531856,102.625495 L58.0751643,102.838626 C57.9544513,102.984773 57.8471508,103.126048 57.7435083,103.260016 C57.3435702,103.803195 57.113118,104.294004 57.075319,104.78725 C57.0289847,105.281713 57.1704262,105.746947 57.2887006,106.055073 C57.4045363,106.366853 57.4947663,106.542229 57.4911083,106.544665 C57.493547,106.541011 57.3216223,106.461848 57.0399586,106.240192 C56.7631721,106.018537 56.3522601,105.642209 56.1010794,104.957754 C55.9754891,104.611874 55.9157422,104.199009 55.9486639,103.763004 C55.9803664,103.327 56.103518,102.887341 56.2815393,102.465952 C56.3668919,102.254039 56.4656572,102.046997 56.5802736,101.852135 C56.6339238,101.747397 56.6900127,101.651183 56.7473209,101.550098 C56.8216997,101.442924 56.8424282,101.397862 56.9875277,101.190821 C57.4789151,100.511238 58.0300494,99.8024263 58.5982542,99.0765639 L58.6397112,99.0181052 C59.1030541,99.761018 59.5590812,100.453997 59.9358522,101.209089 L60.0675391,101.489204 C60.1053381,101.57202 60.1626464,101.693809 60.1748396,101.729128 C60.2162966,101.841174 60.2540956,101.94713 60.289456,102.054305 C60.3650541,102.273525 60.4248009,102.496399 60.4699159,102.718055 C60.5601459,103.163803 60.5942869,103.60955 60.5503913,104.040683 C60.5064956,104.473034 60.376028,104.874938 60.1772782,105.196461 C59.7736821,105.839507 59.2359604,106.075777 58.910401,106.190259 C58.5653324,106.302305 58.3763373,106.31083 58.3775566,106.314484 C58.3751179,106.313266 58.5214368,106.182952 58.7384764,105.936938 Z M46.8415359,109.428628 L46.8939668,109.392092 C47.6279996,108.886667 48.3498392,108.393422 49.0290024,107.953764 C49.2375068,107.823449 49.2826218,107.805181 49.3972382,107.746722 C49.4923454,107.689482 49.5898913,107.639548 49.6935338,107.59205 C49.8959415,107.498273 50.0983493,107.408149 50.3105116,107.335076 C50.7336169,107.185275 51.17867,107.091498 51.6078719,107.080537 C52.0419511,107.069576 52.4589598,107.146303 52.7930544,107.281488 C53.477095,107.553078 53.8380148,107.963507 54.0538351,108.233878 C54.2696553,108.517647 54.3464727,108.684498 54.3489114,108.682062 C54.347692,108.685715 54.1733288,108.591938 53.8648399,108.461624 C53.5612283,108.339835 53.100324,108.182727 52.6089366,108.200995 C52.1151105,108.213174 51.6225038,108.41169 51.0750275,108.775839 C50.9396825,108.86231 50.7970217,108.958523 50.6555801,109.068133 L50.4336633,109.228894 C50.3666005,109.281264 50.2422294,109.372605 50.2775898,109.356773 C50.2800285,109.386002 50.3044149,109.38722 50.3044149,109.38722 C50.3031956,109.38722 50.2775898,109.389656 50.2751512,109.417667 L50.2751512,109.431064 C50.2836864,109.438371 50.2617386,109.431064 50.3178275,109.463947 L50.5555956,109.607658 C50.7141077,109.697782 50.8640845,109.78547 51.0152806,109.862197 C51.6139685,110.167888 52.143155,110.332303 52.6052786,110.298202 C53.0722795,110.268972 53.4709984,110.040009 53.722179,109.846365 C53.9757983,109.65272 54.102608,109.517534 54.1038273,109.51997 C54.1001694,109.51997 54.0879761,109.697782 53.9733597,110.022959 C53.850208,110.329867 53.605124,110.834073 52.9564438,111.184826 C52.6345424,111.360202 52.2321656,111.467376 51.8017443,111.489298 C51.3713231,111.512438 50.92627,111.458851 50.4860942,111.352894 C50.2641773,111.293218 50.0459183,111.227452 49.8288787,111.149507 C49.7215783,111.110534 49.6167164,111.070344 49.5069773,111.02041 C49.4716169,111.007014 49.3533425,110.950991 49.2692092,110.912018 L48.9924227,110.768307 C48.2486353,110.378582 47.5731301,109.906041 46.8415359,109.428628 Z M56.4473673,107.167007 C54.4903529,107.167007 54.4903529,110.209296 56.4473673,110.209296 C58.4116976,110.209296 58.4116976,107.167007 56.4473673,107.167007 Z M110.484132,124.032347 C112.336284,124.243041 113.897019,124.139521 114.966365,124.034782 C116.03937,123.925172 116.635619,123.815562 116.636839,123.821652 C116.6344,123.815562 116.097898,124.095677 115.063911,124.472005 C114.029925,124.834936 112.482603,125.312349 110.459745,125.464585 C108.452739,125.61195 105.934835,125.38664 103.388888,124.273489 C101.733046,123.564677 100.116223,122.484408 98.6749826,121.109411 C97.9872841,120.449314 97.3471392,119.722234 96.7630832,118.936695 C96.6838272,118.838046 96.6045712,118.745486 96.5326311,118.63953 C95.6071644,117.351002 94.8731316,115.980876 94.3317519,114.583956 C93.7842756,113.184601 93.4672515,111.775502 93.2709404,110.450438 C92.8917308,107.788131 93.0331723,105.342608 93.4770061,103.370844 C93.9196206,101.389337 94.6792592,99.9071648 95.3194041,99.0022726 C95.9644263,98.0925088 96.4448398,97.7125272 96.4326465,97.7040019 C96.4460591,97.7100914 96.0936746,98.2142978 95.7156842,99.2129676 C95.3279393,100.205548 94.9597036,101.698681 94.8914215,103.557181 C94.825578,105.415681 95.0438369,107.632241 95.6376475,109.986422 C95.9388205,111.167775 96.3241267,112.369833 96.8557518,113.528046 C97.3885962,114.702092 98.0616629,115.863959 98.8566619,116.975892 C99.1492995,117.385103 99.4577884,117.777264 99.7772512,118.153592 C100.394229,118.887979 101.044128,119.56269 101.731827,120.16311 C102.599985,120.925509 103.514478,121.585606 104.453357,122.110516 C106.505479,123.276037 108.639295,123.831395 110.484132,124.032347 Z M95.9802775,119.587048 C96.0705074,119.554165 96.1656147,119.527372 96.2631605,119.495707 C96.8472166,120.280028 97.4922387,121.002236 98.1738406,121.661115 C97.7763411,121.810915 97.3703064,121.963152 96.9593943,122.139746 C95.8254234,122.620812 94.6402408,123.190785 93.4209172,123.77659 L91.6016864,124.654688 C91.313926,124.787438 90.9639801,124.959161 90.6225695,125.094347 C90.2762816,125.238058 89.9324323,125.361064 89.5873638,125.464585 C88.1961155,125.888411 86.8060866,126.038211 85.496533,125.991931 C82.8676713,125.903025 80.5814396,124.979865 79.060943,123.742489 C77.5038668,122.505113 76.7917818,121.025376 76.5259692,120.025489 C76.2528407,119.010986 76.2979557,118.433706 76.2821045,118.436073 C76.2942977,118.428835 76.43452,118.99759 76.9332233,119.850112 C77.4258301,120.695328 78.3634899,121.795083 79.8498454,122.551392 C81.3154724,123.322317 83.3066278,123.748578 85.462392,123.580509 C86.5353968,123.496475 87.6437619,123.267512 88.7167667,122.869262 C88.9850179,122.766959 89.2520498,122.659785 89.5142043,122.534342 C89.7775782,122.416207 90.021443,122.285892 90.3409058,122.122695 C90.9383743,121.815787 91.5480361,121.502789 92.1796458,121.200752 C93.4367684,120.599115 94.6951104,120.042539 95.9802775,119.587048 Z M102.445131,119.952415 C101.758652,119.353213 101.107533,118.67972 100.488117,117.944115 C100.661261,117.913667 100.835624,117.879567 100.997794,117.852773 C101.620868,117.751688 102.167125,117.672525 102.776787,117.595798 C103.409616,117.522725 104.024155,117.519071 104.608211,117.561697 C105.786078,117.649385 106.840793,117.951422 107.736996,118.354544 C109.540375,119.163223 110.615819,120.403035 111.130373,121.309145 C111.651025,122.22378 111.722965,122.798624 111.737597,122.790099 C111.726623,122.804713 111.468126,122.274931 110.771892,121.580734 C110.087852,120.887755 108.896572,120.074204 107.267556,119.703966 C106.459145,119.521282 105.547091,119.433594 104.597237,119.518846 C104.122921,119.557819 103.646165,119.63211 103.163313,119.761207 L102.445131,119.952415 Z M114.118936,78.3517309 L114.440837,78.6635107 L114.699334,78.9253571 C115.596756,79.8838365 116.379561,80.8910314 117.033119,81.9189305 C118.342673,83.9649856 119.091337,86.0938572 119.331544,87.9097311 C119.582725,89.7316944 119.358369,91.1955981 119.114504,92.1418986 C118.868201,93.0906349 118.619459,93.565612 118.627994,93.5680477 C118.619459,93.5692656 118.630433,93.0297404 118.510939,92.0992725 C118.386568,91.1773298 118.106124,89.8717518 117.44525,88.4334238 C116.79657,86.9938779 115.765022,85.4386324 114.367678,83.91627 C113.679979,83.1538709 112.897173,82.3999971 112.042427,81.65952 C111.974145,81.592536 111.974145,81.5974076 111.971707,81.5998434 L111.958294,81.6010613 C111.948539,81.6022791 111.941224,81.603497 111.935127,81.6059328 C111.921714,81.6108044 111.914398,81.6193296 111.909521,81.6266369 C111.899767,81.6473411 111.903425,81.6680452 111.905863,81.6765704 L111.908302,81.681442 C111.908302,81.681442 111.900986,81.670481 111.887573,81.6680452 C111.879038,81.6668273 111.870503,81.6692631 111.859529,81.6741347 C111.848555,81.6315085 111.824168,82.0614237 111.813195,82.3050016 C111.771738,83.4144994 111.841239,84.4801531 112.014383,85.4569008 C112.359452,87.4274467 113.206881,89.0679444 114.257938,90.2736555 C115.304118,91.4927633 116.47223,92.2892633 117.295274,92.8044307 C118.128072,93.3159445 118.632872,93.5619583 118.627994,93.5680477 C118.629214,93.5607404 118.075641,93.5643941 117.072137,93.3926716 C116.078389,93.2148597 114.590814,92.8592358 112.953262,91.8106326 C111.323026,90.7912587 109.614754,88.8974398 108.735622,86.3764077 C108.290569,85.1280705 108.028414,83.7640338 107.952816,82.3524993 C107.935745,81.968864 107.921114,81.759387 107.943061,81.0798044 C107.968667,80.4513732 108.028414,79.8144167 108.112547,79.1969465 C108.1979,78.5819121 108.314955,77.9754029 108.456397,77.4151736 L108.917301,75.7819832 L109.235544,74.6651781 C110.214661,75.3277102 111.120619,75.8989006 112.061937,76.5955336 C112.530157,76.9475038 112.998377,77.3360107 113.451966,77.7330428 C113.67876,77.9364305 113.900677,78.141036 114.118936,78.3517309 Z M113.549511,87.8987701 C113.920186,85.9708503 116.90509,86.5432586 116.539293,88.4675247 C116.174715,90.3966624 113.184934,89.8242541 113.549511,87.8987701 Z M105.961661,67.0131756 C105.894598,64.2729233 110.154914,64.1730563 110.214661,66.920616 C110.275627,69.6681757 106.021407,69.7607353 105.961661,67.0131756 Z M117.539138,44.6588059 C116.410045,40.8382852 115.829647,36.3503608 116.25641,31.7284685 C116.301525,31.1901612 116.361272,30.6567254 116.430773,30.129379 C116.189347,30.516668 115.952798,30.9258791 115.743075,31.3972025 C115.190721,32.6236176 114.785906,34.1374548 114.601788,35.8753837 C114.238429,39.3366269 114.68714,43.7051981 116.146671,48.4172143 C116.513687,49.6010033 116.974591,50.7275515 117.494023,52.038001 C117.996385,53.3289644 118.490211,54.6808222 118.918193,56.1288933 C119.287648,57.3967167 119.629059,58.7144736 119.783913,60.2234393 C118.574344,59.4829622 117.306247,58.8801067 115.986939,58.4392305 C115.89549,57.903359 115.796725,57.3650516 115.684547,56.8364874 C115.376058,55.4675791 115.007822,54.1376433 114.617639,52.8430263 C114.227455,51.5715492 113.806789,50.1868083 113.542195,48.895845 C112.447243,43.7051981 112.478945,39.0942668 113.289795,35.4734801 C113.703146,33.6661314 114.325001,32.1169754 115.076105,30.903957 C115.556518,30.1245075 116.080827,29.5046015 116.59782,28.9955235 C117.155051,25.4368491 118.108562,22.1558537 118.832841,19.1659339 C119.291306,17.2928192 119.654665,15.5122641 119.854634,13.8291402 C120.058261,12.1521057 120.093621,10.5761562 119.994856,9.1329566 C119.809519,6.25021113 119.132794,3.95205283 118.608485,2.39802528 C118.070763,0.840344053 117.681799,0.00121788993 117.690334,0 C117.683018,0.0036536698 118.190257,0.767270657 118.930386,2.26040371 C119.654665,3.75353677 120.622808,6.01028682 121.110537,9.00386027 C121.353183,10.4994291 121.458044,12.1728099 121.380008,13.9545828 C121.306848,15.7375737 121.044694,17.6216494 120.678897,19.5641839 C120.215554,22.0291931 119.60833,24.5904156 119.127917,27.2539409 C119.155961,27.241762 119.184006,27.2295831 119.21205,27.2161863 C119.198638,27.2661198 119.190102,27.3160533 119.179129,27.3659868 C119.152303,27.3830372 119.127917,27.3976519 119.099872,27.4159203 C118.837718,28.8895671 118.614582,30.3924433 118.488991,31.9257667 C118.089053,36.2906842 118.49143,40.4692646 119.366904,44.1862646 C120.231405,47.9142257 121.417807,51.2475905 122.123795,54.1510401 C122.859047,57.0471823 123.102912,59.4841801 123.111447,61.1441641 C123.119982,62.8138912 122.982199,63.7187834 122.990734,63.7200013 C122.952935,63.7419233 123.054139,59.9822971 121.05201,54.4689093 C120.098499,51.7018634 118.652381,48.4927234 117.539138,44.6588059 Z M111.327904,42.842932 C111.02795,43.4421339 110.825542,44.2508128 110.797498,45.222689 C110.765796,46.1945651 110.908456,47.3198954 111.187682,48.5718863 C111.726623,51.0941363 112.888638,54.0475194 113.905554,57.7523406 C113.91287,57.7827878 113.920186,57.814453 113.926282,57.847336 C113.501958,57.7499048 113.070317,57.6743956 112.633799,57.6268979 C112.626483,57.62568 112.620387,57.6208085 112.611852,57.6208085 C112.572833,57.6183727 112.537473,57.6195906 112.503332,57.6171548 C112.088762,57.5720929 111.663218,57.5513888 111.225481,57.5611319 C111.213287,57.5611319 111.203533,57.5660034 111.193778,57.5672213 C110.659714,54.1973199 109.967139,51.1818244 109.824478,48.6327808 C109.734248,47.2882303 109.78424,46.0666867 109.995183,45.033916 C110.203687,43.9987096 110.597529,43.1717623 111.016976,42.6017898 C111.44374,42.0281637 111.872941,41.6908082 112.161921,41.4959458 C112.453339,41.2974297 112.619167,41.217049 112.617948,41.2146132 C112.619167,41.217049 112.467971,41.3315306 112.215571,41.582416 C111.96561,41.8345192 111.618103,42.2327692 111.327904,42.842932 Z M112.43505,68.0800472 C111.832704,68.6183546 111.159637,69.0166046 110.467061,69.322295 C111.304737,68.8521894 111.915618,67.9874876 111.887573,66.7294073 C111.864406,65.7234302 111.444959,64.9853889 110.841394,64.5140655 C111.025512,64.2181183 111.176708,63.8819806 111.285227,63.4934737 C111.433985,62.9807421 111.502267,62.4010265 111.527873,61.8140035 C112.95692,61.5192742 114.812731,62.0283522 114.812731,62.0283522 C114.432302,63.6883361 113.615355,67.053366 112.43505,68.0800472 Z M119.198638,64.1974141 C118.824305,64.862382 118.235372,65.4055609 117.523287,65.7124692 C117.166025,65.8732307 116.784377,65.9633545 116.390535,66.0096343 C115.989378,66.0644394 115.240713,66.0680931 114.563989,66.8256206 L115.799163,62.0892467 C115.901587,62.1026434 118.503623,63.1743866 119.324228,63.9708866 C119.28521,64.0524852 119.244972,64.1267765 119.198638,64.1974141 Z M101.035593,51.961274 C101.034374,51.9771065 101.0234,51.9490951 101.034374,52.0306937 L101.078269,52.3509987 C101.106314,52.5641295 101.136797,52.7675171 101.174596,52.95629 C101.325792,53.7320859 101.557464,54.339813 101.936673,54.7307557 C102.304909,55.1399667 102.829218,55.3263039 103.202331,55.4103383 C103.576664,55.4943727 103.809554,55.5089873 103.807116,55.512641 C103.805896,55.5089873 103.618121,55.6380837 103.220621,55.76718 C102.829218,55.8901869 102.163468,56.0399874 101.335547,55.7148107 C100.928293,55.5503956 100.517381,55.2629736 100.178409,54.892735 C99.836998,54.516407 99.5565536,54.0718772 99.3321981,53.5908107 C99.218801,53.3496685 99.1224744,53.0987832 99.0407797,52.8418084 C98.9932261,52.7114942 98.9554271,52.5848336 98.921286,52.4508657 C98.9066541,52.4094575 98.876171,52.2633107 98.8517846,52.1524827 L98.7847218,51.7980767 C98.6091392,50.8262006 98.5603662,49.8543244 98.4737943,48.8337326 L98.5542696,48.8532189 C99.591914,49.1430767 100.60883,49.4341524 101.537954,49.7288817 C101.822057,49.8165698 101.878146,49.8445813 102.015929,49.8981684 C102.143958,49.9529735 102.263452,50.0053427 102.389042,50.0589299 C102.632907,50.1673221 102.871895,50.2939827 103.095031,50.4279505 C103.554716,50.7068473 103.98026,51.0368955 104.310696,51.4205308 C104.64601,51.8090377 104.878901,52.2450423 105.003272,52.6481639 C105.247137,53.4702396 105.114231,54.1120676 105.015465,54.5066639 C104.905726,54.9134392 104.794768,55.1131731 104.799645,55.1156089 C104.795987,55.1168268 104.759407,54.8878635 104.653326,54.5066639 C104.546026,54.1388612 104.350934,53.6066433 103.971724,53.1706387 C103.587637,52.7297625 103.030407,52.4301616 102.270768,52.1975446 C102.080553,52.1403038 101.884242,52.0867166 101.673299,52.0367831 L101.350179,51.9551845 C101.253852,51.9332625 101.069734,51.8882006 101.114849,51.9089047 C101.088024,51.9332625 101.103875,51.9551845 101.103875,51.9551845 C101.102656,51.9539666 101.080708,51.9332625 101.046567,51.9515309 L101.035593,51.961274 Z M104.291187,59.0481755 C104.537491,58.8265195 104.66552,58.6767191 104.666739,58.6791548 C104.663081,58.6779369 104.655765,58.8691457 104.550903,59.2150264 C104.446041,59.5438567 104.222905,60.0858177 103.581541,60.503554 C103.270613,60.7081595 102.871895,60.8482168 102.440254,60.9005861 C102.011052,60.9602627 101.557464,60.9359049 101.116069,60.8506526 C100.892932,60.8104622 100.669796,60.7568751 100.449099,60.6898911 C100.340579,60.6509186 100.228401,60.6168177 100.1211,60.5766274 C100.08574,60.5656663 99.9625884,60.514515 99.8784551,60.4816319 L99.595572,60.3500998 C98.8334947,59.994476 98.1287257,59.5487283 97.376403,59.1017626 L97.4276146,59.0591365 C98.1421382,58.4806388 98.8444686,57.91432 99.5077807,57.4088956 C99.7101884,57.2530057 99.7553034,57.2310837 99.8662618,57.161664 C99.9613691,57.0995516 100.062573,57.0374392 100.158899,56.9801984 C100.357649,56.8681525 100.560057,56.7597603 100.764903,56.6696365 C101.183131,56.4808635 101.626965,56.354203 102.056167,56.3079231 C102.491466,56.265297 102.912132,56.3188841 103.253543,56.4333658 C103.949777,56.6708543 104.327767,57.0715401 104.557,57.3443475 C104.785013,57.6208085 104.869147,57.7913131 104.871585,57.7888773 C104.870366,57.792531 104.697222,57.7060608 104.37654,57.5915791 C104.065612,57.4844048 103.599831,57.36018 103.106005,57.4125493 C102.618275,57.460047 102.132984,57.7011892 101.597701,58.1140539 C101.461137,58.2187924 101.328231,58.3308383 101.18557,58.4550631 L100.96975,58.6426181 C100.910003,58.6949874 100.783193,58.7997259 100.823431,58.7814576 C100.827089,58.8119048 100.851475,58.8119048 100.852695,58.8119048 C100.850256,58.810687 100.823431,58.8155585 100.823431,58.8460058 L100.82465,58.8569668 C100.834405,58.8667099 100.811238,58.8594025 100.869765,58.8959392 L101.112411,59.0238177 C101.270923,59.1066342 101.429435,59.1882328 101.583069,59.2564347 C102.198828,59.5341136 102.73533,59.6692994 103.198673,59.5974438 C103.664455,59.5389851 104.048542,59.2661778 104.291187,59.0481755 Z M107.521175,47.0726638 C108.016221,47.7948725 108.502731,48.464712 108.908766,49.2003175 L109.058743,49.4743427 C109.1002,49.5559414 109.156288,49.6740767 109.17214,49.7093955 C109.217255,49.8129161 109.264808,49.9164368 109.307485,50.0284826 C109.390399,50.2440492 109.461119,50.4608336 109.525743,50.6751822 C109.641579,51.1136226 109.704984,51.5618061 109.689133,51.9917212 C109.678159,52.4179827 109.579394,52.8271937 109.412346,53.1487167 C109.074594,53.8112488 108.57711,54.0657878 108.273498,54.1912304 C107.950377,54.317891 107.771137,54.3337236 107.772356,54.3373772 C107.769917,54.3361593 107.901604,54.2009736 108.0906,53.941563 C108.278375,53.6882419 108.50395,53.2899919 108.518582,52.8223222 C108.54053,52.359524 108.364947,51.8346134 108.046704,51.2439368 C107.961351,51.0929184 107.875999,50.9394643 107.782111,50.788446 L107.633353,50.5533932 C107.599212,50.4985882 107.607747,50.5205102 107.597993,50.5132028 L107.5858,50.511985 C107.557755,50.5156386 107.555317,50.5412143 107.556536,50.5424322 C107.556536,50.5424322 107.555317,50.5180744 107.524833,50.5156386 C107.540685,50.4803198 107.445577,50.6069804 107.400462,50.6703106 L107.244389,50.8944024 C107.139527,51.0442029 107.04442,51.1830423 106.960287,51.3255354 C106.609121,51.8808932 106.421346,52.3777923 106.420126,52.8722556 C106.41281,53.3630653 106.579858,53.819774 106.712764,54.1218107 C106.846889,54.4275011 106.945655,54.6004415 106.940777,54.6004415 C106.941997,54.5980057 106.772511,54.5188428 106.489628,54.3166731 C106.214061,54.1047603 105.792175,53.7479185 105.504414,53.0768611 C105.362973,52.7455951 105.276401,52.3302946 105.278839,51.8967258 C105.280059,51.4619391 105.362973,51.0198451 105.504414,50.5935836 C105.571477,50.3804528 105.653172,50.1709758 105.748279,49.9712418 C105.793394,49.8652854 105.840948,49.7678542 105.888501,49.6692051 C105.951906,49.5547235 105.968976,49.5108794 106.094567,49.3001845 C106.517672,48.6047693 106.996866,47.8728175 107.487034,47.1335583 L107.521175,47.0726638 Z M105.47637,56.7329667 C105.432474,54.7697282 108.46859,54.7027442 108.518582,56.6647649 C108.561258,58.621914 105.519046,58.6949874 105.47637,56.7329667 Z M123.549184,110.371275 C123.301662,108.531043 122.705412,106.40339 121.489747,104.379257 C120.944709,103.457314 120.270423,102.557293 119.48274,101.705988 C118.866982,101.033713 118.178064,100.397974 117.430618,99.7999905 C117.046532,99.4857749 116.647813,99.186174 116.233243,98.9024056 C115.10293,98.1326992 113.926282,97.4859996 112.7411,96.9805753 C111.570549,96.475151 110.36098,96.1183093 109.173359,95.844284 C106.806652,95.302323 104.580167,95.1330363 102.726795,95.2450822 C100.870984,95.3473849 99.3858483,95.7541602 98.4018542,96.1597175 C97.4117634,96.564057 96.9154987,96.9257703 96.9094021,96.9135914 C96.9179373,96.9245524 97.2861731,96.4300891 98.1811566,95.7724285 C99.0737015,95.1062427 100.533232,94.3146143 102.506097,93.8298941 C104.472866,93.3427381 106.907856,93.1466578 109.58549,93.4681808 C110.914553,93.6289422 112.322872,93.9175821 113.742165,94.4364033 C115.151703,94.9466991 116.536854,95.645768 117.843969,96.5433528 C117.947612,96.6139905 118.047596,96.6894996 118.147581,96.7662267 C118.946238,97.3325455 119.687586,97.9561052 120.361872,98.6295983 C121.767753,100.035043 122.89075,101.632915 123.633318,103.266105 C124.798991,105.787137 125.083093,108.305734 124.98067,110.315252 C124.879466,112.339385 124.435633,113.897066 124.090564,114.93958 C123.735741,115.979658 123.472367,116.522837 123.477244,116.524055 C123.472367,116.524055 123.563816,115.926071 123.655265,114.845803 C123.732083,113.772842 123.800365,112.213943 123.549184,110.371275 Z M118.78041,95.9685088 C119.202296,94.6702381 119.731482,93.3999789 120.310661,92.1345913 C120.598421,91.4976349 120.891059,90.8813825 121.187354,90.2712197 C121.345867,89.9533504 121.46658,89.7073366 121.586073,89.4406188 C121.69947,89.1775545 121.806771,88.9084009 121.89822,88.6380293 C122.272553,87.556543 122.47618,86.4360843 122.533488,85.3631233 C122.657859,83.2098939 122.181103,81.2283869 121.382446,79.7754443 C120.589886,78.3115406 119.469328,77.399341 118.614582,76.9243639 C117.751301,76.4445153 117.178218,76.3178547 117.190412,76.3056758 C117.186754,76.3202905 117.758617,76.259396 118.78041,76.5066277 C119.787571,76.7526414 121.282462,77.4358777 122.552997,78.9606759 C123.823532,80.4586805 124.797772,82.7239558 124.948968,85.343637 C125.024566,86.6516508 124.905072,88.0510063 124.51245,89.4442724 C124.416123,89.7913711 124.300288,90.1445591 124.16982,90.4880041 C124.036914,90.8326669 123.878402,91.1907266 123.745495,91.4757128 L122.913917,93.3135087 C122.354247,94.5508849 121.811648,95.7492886 121.354402,96.8928873 C121.187354,97.3081877 121.041036,97.7100914 120.902033,98.1168666 C120.227747,97.4445914 119.486398,96.8222496 118.68896,96.2547129 C118.719444,96.1560638 118.748707,96.0622863 118.78041,95.9685088 Z M119.293745,102.424543 L119.112066,103.145534 C118.998669,103.625383 118.929167,104.108885 118.901123,104.58508 C118.842595,105.53747 118.943799,106.446016 119.149865,107.249823 C119.557119,108.869617 120.396013,110.042445 121.103221,110.712284 C121.820183,111.393085 122.350589,111.639099 122.339615,111.65006 C122.346931,111.635445 121.767753,111.575768 120.839847,111.076433 C119.922916,110.58197 118.659697,109.533367 117.811047,107.749158 C117.384284,106.862534 117.063602,105.812713 116.950205,104.638667 C116.888019,104.055298 116.878265,103.441481 116.939231,102.806961 C117.007513,102.19558 117.069699,101.648747 117.155051,101.02397 C117.178218,100.860773 117.214798,100.685397 117.242843,100.512456 C117.990288,101.114094 118.673109,101.75105 119.293745,102.424543 Z M111.291324,58.2151388 C111.288885,58.1956525 113.742165,58.3417993 114.917592,58.6584507 C116.800228,59.2673957 118.787726,60.0906893 120.300906,61.3024898 C120.848383,61.7872099 121.336112,62.3169921 121.738489,62.8833109 C122.773695,64.3118958 123.271179,65.9304715 123.374821,67.3992468 C123.473586,68.8692399 123.274837,70.2125725 122.852951,71.3707858 C122.427407,72.5338707 121.743366,73.4643386 120.995921,74.1049487 C119.46567,75.4044373 117.885426,75.5578914 116.952644,75.5542377 C115.982062,75.5310978 115.511403,75.37399 115.510184,75.3873868 C115.507745,75.3752079 116.013764,75.4702033 116.981907,75.3800795 C117.912251,75.2765588 119.419335,74.9124097 120.642317,73.5544625 C121.871395,72.2367056 122.498127,69.8922674 121.989669,67.3395701 C121.733611,66.0851435 121.145897,64.8246274 120.159465,63.7882031 C119.98754,63.6043017 119.796106,63.4362329 119.602234,63.2742536 C119.597357,63.291304 116.272261,60.6119462 111.772957,61.0406434 C111.697359,61.0467329 108.553943,60.734953 106.456706,63.1061847 C104.886217,64.8757788 101.1307,67.8096757 101.601359,78.0533479 C101.802548,78.1775727 102.008613,78.3042332 102.209802,78.4467263 C102.379288,78.5636438 102.542677,78.693958 102.703628,78.8327974 C102.829218,78.9411896 102.942615,79.0398387 103.053574,79.1518846 C103.054793,78.8766415 103.063328,78.5989626 103.081618,78.3237195 C103.187699,76.9816047 103.599831,75.817302 104.16072,74.7747882 C104.720389,73.7395817 105.456861,72.8432148 106.331116,72.2160014 C107.187081,71.5705198 108.291788,71.291623 108.988022,71.3671322 C109.687914,71.4341161 109.969577,71.6180175 109.974455,71.6046207 C109.981771,71.6155817 109.597684,71.5826987 109.078252,71.7422423 C108.557601,71.8920427 108.172294,72.3877239 107.678468,72.9406459 C106.465241,74.3095542 105.687313,76.7453341 105.693409,80.3941323 L106.086032,84.4594489 C106.12505,84.647004 106.159191,84.8369948 106.186016,85.0148067 C106.406714,86.5931921 106.838354,89.1251853 106.849328,89.1190958 C106.840793,89.1190958 105.573916,86.6114604 104.611869,85.3095361 C103.964408,84.4302196 103.098689,83.3438618 102.085431,82.2246209 C102.507317,84.0928641 103.218182,85.8953412 104.135114,87.6003871 C104.715512,88.6660408 105.102037,89.991105 105.762911,91.0823344 C102.768252,87.5942976 100.863669,83.7786485 99.8638232,80.010497 C99.6772667,79.8692218 99.4785169,79.723075 99.2797672,79.5842355 C98.8176435,79.2748915 98.3274754,78.9947768 97.8434039,78.7548525 C96.8703837,78.2750039 95.9205306,77.9729672 95.1243123,77.9218158 C94.324436,77.8584855 93.6477114,78.0947561 93.2246061,78.3444236 C92.7990622,78.5928731 92.5978738,78.7865176 92.5929965,78.7804282 C92.6039704,78.782864 92.5917771,78.5405039 92.7990622,78.1191139 C92.9917153,77.7111208 93.5526042,77.044935 94.780463,76.7380268 C95.9875934,76.4311185 97.5349151,76.5419465 98.9932261,76.9535933 C99.0846754,76.9779511 99.1688087,77.0059625 99.2541614,77.0327561 C99.1761247,76.4676552 99.1127198,75.9062079 99.0724821,75.3496322 C98.043373,61.3134508 109.134341,58.2699438 111.291324,58.2151388 Z M118.588976,71.6496826 C118.632872,73.6104854 115.590659,73.6774694 115.547983,71.7203202 C115.504087,69.7582996 118.5463,69.6913156 118.588976,71.6496826 Z" id="Combined-Shape"></path>
        </g>
    </g>
</svg>