<?xml version="1.0" encoding="UTF-8" standalone="no"?>
<svg width="191px" height="55px" viewBox="0 0 191 55" version="1.1" xmlns="http://www.w3.org/2000/svg" xmlns:xlink="http://www.w3.org/1999/xlink">
    <!-- Generator: Sketch 50.2 (55047) - http://www.bohemiancoding.com/sketch -->
    <title>deco2</title>
    <desc>Created with Sketch.</desc>
    <defs>
        <linearGradient x1="103.682504%" y1="50%" x2="-0.937944523%" y2="50%" id="linearGradient-1">
            <stop stop-color="#E2B571" offset="0%"></stop>
            <stop stop-color="#FCDBB2" offset="36.9899093%"></stop>
            <stop stop-color="#FBFAE1" offset="69.4736205%"></stop>
            <stop stop-color="#DAB895" offset="100%"></stop>
        </linearGradient>
    </defs>
    <g id="Page-1" stroke="none" stroke-width="1" fill="none" fill-rule="evenodd">
        <g id="deco2" fill="url(#linearGradient-1)">
            <g id="Group">
                <path d="M141.156,16.982 C140.503,17.717 139.703,18.314 138.933,18.677 C138.154,19.048 137.374,19.223 136.694,19.221 C136.012,19.224 135.448,19.06 135.045,18.862 C134.236,18.454 133.991,18.038 133.978,18.056 C133.977,18.038 134.435,18.237 135.192,18.212 C135.945,18.195 136.921,17.804 137.723,16.915 C138.131,16.465 138.474,15.951 138.77,15.295 C139.103,14.611 139.385,13.882 139.593,13.109 C139.799,12.338 139.93,11.529 139.969,10.69 L139.975,10.535 C139.975,10.509 139.969,10.524 139.966,10.516 L139.949,10.507 C139.938,10.502 139.928,10.501 139.919,10.502 C139.904,10.505 139.896,10.516 139.896,10.516 C139.896,10.516 139.904,10.504 139.9,10.488 C139.898,10.481 139.894,10.472 139.885,10.463 L139.88,10.455 C139.889,10.449 139.78,10.477 139.737,10.487 L139.388,10.573 C138.463,10.805 137.585,11.051 136.776,11.321 C135.16,11.86 133.82,12.511 133.053,13.304 C132.263,14.07 132.129,15.127 132.238,15.9 C132.34,16.67 132.521,17.118 132.509,17.116 C132.518,17.106 132.131,16.854 131.618,16.147 C131.37,15.788 131.095,15.294 130.956,14.615 C130.814,13.942 130.867,13.075 131.207,12.233 C131.896,10.526 133.456,9.124 135.238,8.062 C136.138,7.527 137.118,7.064 138.153,6.674 L138.545,6.532 L138.776,6.453 L139.146,6.339 C139.64,6.188 140.145,6.053 140.652,5.924 C141.665,5.683 142.676,5.473 143.724,5.251 L143.73,5.298 C143.872,6.323 144.027,7.275 144.121,8.27 C144.161,8.771 144.177,9.283 144.159,9.797 C144.145,10.054 144.136,10.309 144.108,10.564 L144.069,10.932 L144.033,11.162 C143.835,12.37 143.441,13.496 142.933,14.475 C142.838,14.655 141.336,16.859 141.156,16.982 Z M190.576,15.596 C190.727,16.444 190.693,17.32 190.469,18.118 C190.246,18.918 189.83,19.62 189.341,20.186 C188.85,20.752 188.285,21.202 187.728,21.56 C187.168,21.935 186.567,22.223 185.967,22.419 C183.523,23.221 181.185,22.301 180.196,20.915 C179.673,20.22 179.551,19.37 179.793,18.771 C180.025,18.161 180.469,17.802 180.812,17.581 C181.526,17.146 181.955,17.079 181.947,17.063 C181.957,17.078 181.517,17.189 180.849,17.689 C180.528,17.943 180.148,18.322 180.003,18.901 C179.852,19.48 180.062,20.186 180.584,20.744 C181.614,21.89 183.81,22.474 185.857,21.534 C186.368,21.305 186.856,21 187.333,20.611 C187.813,20.233 188.248,19.796 188.595,19.286 C189.301,18.27 189.513,16.944 189.104,15.624 C188.713,14.299 187.811,13.018 186.656,11.907 C185.492,10.799 184.056,9.832 182.445,9.167 C179.188,7.818 175.155,7.591 170.939,7.951 C168.831,8.145 166.665,8.517 164.518,9.117 C163.432,9.426 162.408,9.776 161.335,10.231 C160.259,10.68 159.163,11.179 158.057,11.702 C155.844,12.749 153.583,13.891 151.303,15.112 C150.164,15.723 149.018,16.353 147.885,17.013 C147.32,17.342 146.756,17.678 146.209,18.023 C145.856,18.246 143.737,17.79 141.662,18.205 C141.87,17.582 144.86,14.675 145.414,13.769 C145.608,13.664 145.803,13.558 145.998,13.455 C147.235,12.805 148.461,12.197 149.676,11.612 C152.105,10.447 154.489,9.376 156.846,8.397 C158.027,7.91 159.198,7.445 160.392,7.022 C161.591,6.591 162.848,6.242 164.045,5.983 C166.464,5.456 168.829,5.206 171.113,5.136 C173.398,5.072 175.606,5.196 177.719,5.54 C178.776,5.716 179.809,5.942 180.81,6.26 C181.318,6.414 181.799,6.61 182.248,6.779 C182.735,6.968 183.203,7.181 183.653,7.414 C185.446,8.349 186.956,9.561 188.163,10.935 C189.355,12.311 190.275,13.885 190.576,15.596 Z M43.619,16.978 C42.466,16.308 41.302,15.668 40.145,15.048 C37.83,13.811 35.54,12.656 33.302,11.601 C32.184,11.077 31.074,10.575 29.99,10.129 C28.915,9.684 27.869,9.337 26.772,9.04 C24.601,8.449 22.416,8.098 20.297,7.919 C16.056,7.586 12.035,7.873 8.815,9.292 C7.222,10 5.81,10.992 4.683,12.124 C3.562,13.255 2.71,14.556 2.387,15.88 C2.049,17.201 2.351,18.499 3.101,19.476 C3.472,19.968 3.917,20.384 4.405,20.75 C4.879,21.121 5.377,21.402 5.886,21.613 C7.938,22.468 10.081,21.822 11.049,20.665 C11.545,20.105 11.714,19.398 11.545,18.837 C11.381,18.277 11.008,17.912 10.69,17.667 C10.033,17.185 9.607,17.074 9.618,17.06 C9.608,17.078 10.052,17.145 10.78,17.598 C11.128,17.829 11.582,18.205 11.794,18.838 C12.022,19.461 11.848,20.327 11.297,21.012 C10.756,21.699 9.907,22.261 8.865,22.536 C7.828,22.817 6.589,22.787 5.38,22.347 C4.779,22.13 4.179,21.81 3.627,21.423 C3.068,21.042 2.51,20.566 2.039,19.965 C1.568,19.366 1.189,18.627 1.015,17.806 C0.837,16.988 0.858,16.107 1.05,15.265 C1.435,13.565 2.404,12.02 3.636,10.668 C4.884,9.319 6.422,8.133 8.249,7.24 C8.695,7.022 9.207,6.809 9.652,6.648 C10.105,6.464 10.619,6.293 11.116,6.145 C12.122,5.854 13.155,5.637 14.212,5.479 C16.324,5.163 18.526,5.061 20.801,5.144 C23.075,5.23 25.425,5.505 27.825,6.047 C29.009,6.317 30.262,6.679 31.436,7.112 C32.611,7.537 33.77,8 34.934,8.485 C37.263,9.457 39.615,10.517 42.009,11.668 C43.206,12.246 44.412,12.846 45.63,13.488 C46.24,13.81 47.002,13.96 47.47,14.499 C48.651,15.86 50.574,18.619 50.574,18.619 C49.507,18.418 45.873,18.35 45.324,18.002 C44.769,17.653 44.194,17.312 43.619,16.978 Z M63.215,14.003 C62.619,13.652 61.695,12.892 61.257,11.46 C60.809,10.042 61.022,8.202 61.785,6.558 C62.162,5.726 62.665,4.925 63.274,4.177 C63.428,3.992 63.586,3.807 63.753,3.627 L63.878,3.494 L64.099,3.277 C64.251,3.132 64.405,2.985 64.565,2.846 C65.203,2.275 65.894,1.789 66.582,1.349 L68.03,0.421 C68.895,1.835 69.745,3.181 70.419,4.53 C70.78,5.33 71.075,6.156 71.235,7.042 C71.396,7.919 71.392,8.846 71.19,9.655 C70.993,10.466 70.628,11.131 70.243,11.637 C69.458,12.647 68.649,13.137 68.104,13.461 C67.551,13.775 67.224,13.895 67.225,13.898 L67.656,13.039 C67.911,12.495 68.283,11.688 68.441,10.773 C68.607,9.836 68.452,8.983 67.939,8.038 C67.689,7.559 67.34,7.024 66.951,6.463 C66.862,6.449 66.829,6.493 66.821,6.521 L66.818,6.538 C66.818,6.538 66.817,6.527 66.805,6.517 L66.794,6.51 C66.789,6.511 66.797,6.502 66.78,6.512 L66.679,6.6 L66.28,6.954 C65.763,7.429 65.29,7.914 64.887,8.398 C64.075,9.371 63.545,10.326 63.381,11.221 C63.201,12.114 63.435,12.976 63.706,13.551 C63.976,14.131 64.213,14.447 64.206,14.449 C64.208,14.44 63.834,14.366 63.215,14.003 Z M80.156,15.97 C79.913,16.284 79.66,16.582 79.401,16.864 C78.367,17.988 77.218,18.856 76.079,19.34 C74.946,19.843 73.821,19.834 73.205,19.569 C72.578,19.316 72.38,19.021 72.371,19.036 C72.366,19.023 72.73,19.091 73.254,18.948 C73.781,18.809 74.373,18.395 74.923,17.687 C75.48,16.985 76.023,16.012 76.557,14.884 L76.955,14.01 L77.151,13.557 L77.298,13.209 C77.306,13.183 77.297,13.191 77.297,13.183 C77.259,13.108 77.204,13.108 77.179,13.116 L77.166,13.121 C77.166,13.121 77.175,13.115 77.178,13.1 C77.179,13.095 77.178,13.09 77.185,13.087 L77.191,13.081 L77.083,13.043 L76.622,12.905 C76.011,12.727 75.435,12.611 74.899,12.564 C73.83,12.46 72.894,12.664 72.081,13.142 C71.278,13.616 70.668,14.284 70.272,14.763 C69.876,15.251 69.67,15.561 69.664,15.557 C69.673,15.558 69.612,15.196 69.648,14.526 C69.697,13.863 69.821,12.849 70.518,11.685 C70.869,11.111 71.384,10.52 72.075,10.025 C72.766,9.537 73.624,9.161 74.542,8.974 C75.461,8.781 76.433,8.761 77.384,8.884 C77.624,8.911 77.857,8.957 78.096,8.999 L78.281,9.04 L78.581,9.119 C78.786,9.168 78.977,9.23 79.169,9.292 C79.954,9.526 80.683,9.859 81.409,10.19 L82.729,10.803 C82.453,11.534 82.191,12.218 81.912,12.901 C81.628,13.585 81.278,14.258 80.909,14.884 L80.776,15.105 L80.691,15.233 L80.516,15.485 L80.156,15.97 Z M73.845,25.593 C74.393,25.527 74.293,25.425 74.315,25.363 C74.317,25.297 74.278,25.257 74.267,25.247 L74.263,25.244 C74.263,25.245 74.307,25.272 74.364,25.255 C74.394,25.248 74.427,25.23 74.457,25.198 C74.472,25.182 74.491,25.166 74.501,25.138 C74.504,25.085 74.467,24.946 74.449,24.858 C74.274,24.056 74.069,23.335 73.803,22.76 C73.543,22.183 73.197,21.735 72.863,21.472 C72.533,21.204 72.274,21.093 72.279,21.086 C72.283,21.096 72.495,20.929 72.995,20.817 C73.486,20.7 74.308,20.726 75.193,21.135 C76.078,21.533 76.971,22.273 77.679,23.253 C77.775,23.387 77.844,23.478 77.949,23.656 C78.063,23.861 78.176,24.085 78.283,24.31 C78.492,24.764 78.673,25.247 78.819,25.743 C79.102,26.744 79.17,27.704 79.291,28.756 L79.339,29.262 C78.219,29.321 77.102,29.343 76.081,29.348 C75.077,29.358 73.958,29.26 73.549,29.111 C72.415,28.821 71.311,28.218 70.685,27.408 C70.048,26.603 69.964,25.808 69.981,25.344 C70.007,24.864 70.104,24.628 70.097,24.627 C70.102,24.622 70.267,24.831 70.58,25.107 C70.894,25.385 71.377,25.68 71.916,25.744 C72.455,25.818 73.066,25.731 73.845,25.593 Z M47.495,10.564 C47.466,10.309 47.456,10.054 47.443,9.797 C47.425,9.283 47.441,8.771 47.481,8.27 C47.575,7.275 47.73,6.323 47.872,5.298 L47.878,5.251 C48.926,5.473 49.938,5.683 50.95,5.924 C51.457,6.053 51.962,6.188 52.456,6.339 L52.826,6.453 L53.058,6.532 L53.449,6.674 C54.484,7.064 55.464,7.527 56.364,8.062 C58.146,9.124 59.706,10.526 60.395,12.233 C60.735,13.075 60.789,13.942 60.646,14.615 C60.507,15.294 60.233,15.788 59.984,16.147 C59.471,16.854 59.083,17.106 59.093,17.116 C59.081,17.118 59.262,16.67 59.364,15.9 C59.473,15.127 59.338,14.07 58.549,13.304 C57.783,12.511 56.442,11.86 54.826,11.321 C54.017,11.051 53.139,10.805 52.214,10.573 L51.865,10.487 C51.822,10.477 51.713,10.449 51.723,10.455 L51.716,10.463 C51.708,10.472 51.704,10.481 51.702,10.488 C51.699,10.504 51.707,10.516 51.707,10.516 C51.707,10.516 51.698,10.505 51.683,10.502 C51.674,10.501 51.664,10.502 51.653,10.507 L51.636,10.516 C51.633,10.524 51.628,10.509 51.627,10.535 L51.633,10.69 C51.672,11.529 51.803,12.338 52.009,13.109 C52.216,13.882 52.498,14.611 52.832,15.295 C53.128,15.951 53.471,16.465 53.879,16.915 C54.681,17.804 55.657,18.195 56.41,18.212 C57.167,18.237 57.626,18.038 57.623,18.056 C57.611,18.038 57.366,18.454 56.558,18.862 C56.154,19.06 55.591,19.224 54.909,19.221 C54.229,19.223 53.448,19.048 52.67,18.677 C51.9,18.314 51.1,17.717 50.446,16.982 C49.803,16.295 49.178,15.457 48.67,14.475 C48.161,13.496 47.768,12.37 47.569,11.162 L47.534,10.932 L47.495,10.564 Z M50.756,28.22 C52.174,28.211 53.322,27.808 54.054,27.357 C54.791,26.908 55.136,26.504 55.143,26.516 C55.128,26.509 55.048,27.023 54.521,27.834 C54.008,28.637 52.902,29.697 51.186,30.314 C49.487,30.94 47.275,31.138 44.927,30.632 C43.755,30.375 42.542,29.948 41.363,29.267 C41.068,29.095 40.777,28.908 40.489,28.703 L40.261,28.535 L39.93,28.264 C39.708,28.079 39.492,27.882 39.289,27.678 C38.433,26.858 37.917,25.932 37.317,25.003 L37.066,24.606 C37.898,23.832 38.596,23.07 39.55,22.402 C39.786,22.239 40.022,22.079 40.267,21.929 C40.499,21.778 40.8,21.606 40.895,21.558 C41.179,21.402 41.464,21.261 41.747,21.128 C42.881,20.599 44.012,20.222 45.115,19.956 C47.318,19.431 49.438,19.364 51.188,19.794 C52.059,20.007 52.828,20.353 53.413,20.779 C54.001,21.204 54.395,21.694 54.63,22.116 C55.095,22.972 55.066,23.493 55.089,23.484 C55.078,23.502 54.813,23.034 54.136,22.549 C53.465,22.059 52.368,21.738 50.99,21.895 C49.615,22.031 47.977,22.554 46.254,23.345 C45.394,23.742 44.509,24.205 43.647,24.728 L43.007,25.132 C42.855,25.23 42.908,25.205 42.9,25.215 L42.904,25.23 C42.911,25.247 42.925,25.25 42.928,25.25 L42.929,25.251 C42.929,25.25 42.916,25.251 42.908,25.265 L42.903,25.277 C42.904,25.282 42.895,25.278 42.907,25.29 L43.021,25.391 C43.197,25.537 43.379,25.68 43.566,25.818 C44.316,26.366 45.147,26.822 45.982,27.182 C47.658,27.902 49.342,28.242 50.756,28.22 Z M133.662,20.33 C134.248,21.464 134.665,22.718 134.931,24.023 C135.196,25.306 135.345,26.743 135.19,28.196 C134.91,31.111 133.5,34.01 131.355,36.273 C129.215,38.551 126.402,40.267 123.298,41.261 C120.189,42.257 116.938,42.484 113.907,42.043 C110.859,41.607 108.094,40.506 105.706,39.14 C100.967,36.417 97.629,32.592 95.801,28.928 C93.973,32.592 90.635,36.417 85.896,39.14 C83.508,40.506 80.743,41.607 77.695,42.043 C74.664,42.484 71.413,42.257 68.304,41.261 C65.2,40.267 62.387,38.551 60.247,36.273 C58.102,34.01 56.692,31.111 56.412,28.196 C56.258,26.743 56.406,25.306 56.671,24.023 C56.936,22.718 57.354,21.464 57.94,20.33 C59.09,18.045 61.046,16.328 63.125,15.643 C65.199,14.933 67.278,15.131 68.815,15.882 C69.483,16.207 70.041,16.646 70.466,17.144 C71.047,17.653 71.435,18.296 71.604,18.923 C71.819,19.696 71.769,20.433 71.586,21.033 C71.204,22.259 70.358,22.858 69.821,23.12 C69.258,23.38 68.936,23.409 68.94,23.419 C68.934,23.411 69.248,23.31 69.724,22.963 C69.919,22.818 70.141,22.608 70.343,22.339 C70.415,22.206 70.515,22.005 70.632,21.723 C70.745,21.438 70.88,21.055 70.952,20.601 C70.979,19.637 70.484,18.46 69.381,17.989 C68.817,17.741 67.998,17.648 67.267,17.771 C66.517,17.892 65.769,18.237 65.089,18.772 C63.736,19.838 62.627,21.666 62.292,23.638 C62.211,24.126 62.186,24.62 62.228,25.083 C62.25,25.315 62.287,25.537 62.344,25.749 C62.413,26.017 62.49,26.28 62.575,26.542 C62.923,27.584 63.445,28.546 64.154,29.369 C65.556,31.019 67.845,32.081 70.427,32.703 C71.489,32.947 72.768,32.935 74.063,32.734 C75.364,32.531 76.695,32.147 77.997,31.625 C83.216,29.52 87.427,25.449 88.678,20.908 C89.001,19.781 89.151,18.622 89.159,17.501 C89.161,16.427 88.964,15.334 88.649,14.309 C88.011,12.25 86.906,10.454 85.614,9.094 C84.322,7.724 82.838,6.782 81.412,6.222 C79.984,5.656 78.629,5.45 77.517,5.394 C75.274,5.308 74.012,5.658 74.014,5.625 C74.022,5.659 75.163,5.051 77.491,4.727 C78.651,4.582 80.126,4.548 81.807,4.929 C83.479,5.3 85.344,6.122 87.06,7.517 C88.773,8.907 90.338,10.85 91.387,13.287 C91.907,14.507 92.301,15.853 92.438,17.334 C92.561,18.765 92.494,20.252 92.186,21.75 C91.582,24.75 89.989,27.654 87.774,30.022 C85.555,32.398 82.758,34.308 79.594,35.591 C78.007,36.226 76.36,36.69 74.66,36.918 C72.962,37.138 71.194,37.147 69.405,36.665 C67.837,36.213 66.369,35.641 64.958,34.813 C63.56,33.998 62.281,32.902 61.323,31.602 C60.362,30.304 59.741,28.839 59.411,27.421 C59.33,27.065 59.262,26.712 59.206,26.362 C59.143,25.956 59.117,25.554 59.123,25.166 C59.132,24.39 59.255,23.663 59.443,22.983 C60.23,20.287 61.88,18.22 63.9,16.996 C64.133,16.858 64.373,16.738 64.616,16.627 C64.29,16.718 63.964,16.827 63.643,16.971 C61.977,17.7 60.529,19.193 59.699,21.168 C59.277,22.152 58.99,23.244 58.828,24.399 C58.662,25.576 58.616,26.731 58.799,27.899 C59.149,30.236 60.364,32.529 62.213,34.382 C64.058,36.243 66.486,37.686 69.175,38.547 C71.867,39.409 74.685,39.651 77.342,39.339 C79.997,39.035 82.508,38.161 84.751,37.025 C89.251,34.736 92.631,31.4 94.623,28.11 C94.787,27.844 94.926,27.58 95.073,27.314 C93.824,24.169 93.66,21.333 93.806,19.401 C93.993,17.142 94.431,15.968 94.405,15.965 C94.43,15.964 94.167,17.196 94.25,19.407 C94.326,21.093 94.706,23.386 95.801,25.858 C96.895,23.386 97.276,21.093 97.351,19.407 C97.435,17.196 97.173,15.964 97.198,15.965 C97.171,15.968 97.609,17.142 97.796,19.401 C97.942,21.333 97.777,24.169 96.53,27.314 C96.676,27.58 96.815,27.844 96.979,28.11 C98.971,31.4 102.351,34.736 106.851,37.025 C109.094,38.161 111.605,39.035 114.26,39.339 C116.918,39.651 119.735,39.409 122.427,38.547 C125.116,37.686 127.544,36.243 129.389,34.382 C131.238,32.529 132.454,30.236 132.803,27.899 C132.986,26.731 132.94,25.576 132.774,24.399 C132.612,23.244 132.325,22.152 131.903,21.168 C131.073,19.193 129.624,17.7 127.959,16.971 C127.639,16.827 127.313,16.718 126.986,16.627 C127.229,16.738 127.469,16.858 127.702,16.996 C129.722,18.22 131.372,20.287 132.16,22.983 C132.347,23.663 132.47,24.39 132.48,25.166 C132.485,25.554 132.46,25.956 132.396,26.362 C132.34,26.712 132.273,27.065 132.191,27.421 C131.861,28.839 131.24,30.304 130.279,31.602 C129.321,32.902 128.042,33.998 126.644,34.813 C125.233,35.641 123.765,36.213 122.197,36.665 C120.408,37.147 118.641,37.138 116.943,36.918 C115.242,36.69 113.595,36.226 112.009,35.591 C108.844,34.308 106.047,32.398 103.829,30.022 C101.613,27.654 100.02,24.75 99.417,21.75 C99.108,20.252 99.04,18.765 99.164,17.334 C99.301,15.853 99.695,14.507 100.214,13.287 C101.265,10.85 102.829,8.907 104.543,7.517 C106.258,6.122 108.123,5.3 109.795,4.929 C111.476,4.548 112.951,4.582 114.111,4.727 C116.439,5.051 117.581,5.659 117.588,5.625 C117.591,5.658 116.328,5.308 114.085,5.394 C112.973,5.45 111.618,5.656 110.19,6.222 C108.765,6.782 107.28,7.724 105.988,9.094 C104.696,10.454 103.591,12.25 102.953,14.309 C102.638,15.334 102.441,16.427 102.443,17.501 C102.451,18.622 102.601,19.781 102.924,20.908 C104.175,25.449 108.385,29.52 113.605,31.625 C114.907,32.147 116.238,32.531 117.539,32.734 C118.834,32.935 120.113,32.947 121.175,32.703 C123.757,32.081 126.045,31.019 127.448,29.369 C128.157,28.546 128.68,27.584 129.027,26.542 C129.112,26.28 129.19,26.017 129.258,25.749 C129.314,25.537 129.352,25.315 129.374,25.083 C129.417,24.62 129.391,24.126 129.31,23.638 C128.975,21.666 127.866,19.838 126.513,18.772 C125.833,18.237 125.086,17.892 124.335,17.771 C123.605,17.648 122.785,17.741 122.221,17.989 C121.118,18.46 120.623,19.637 120.651,20.601 C120.722,21.055 120.857,21.438 120.97,21.723 C121.087,22.005 121.188,22.206 121.259,22.339 C121.461,22.608 121.683,22.818 121.878,22.963 C122.354,23.31 122.668,23.411 122.662,23.419 C122.665,23.409 122.344,23.38 121.782,23.12 C121.243,22.858 120.398,22.259 120.016,21.033 C119.833,20.433 119.783,19.696 119.998,18.923 C120.167,18.296 120.555,17.653 121.136,17.144 C121.561,16.646 122.12,16.207 122.787,15.882 C124.324,15.131 126.404,14.933 128.477,15.643 C130.556,16.328 132.512,18.045 133.662,20.33 Z M121.359,11.637 C120.975,11.131 120.609,10.466 120.411,9.655 C120.21,8.846 120.206,7.919 120.367,7.042 C120.527,6.156 120.822,5.33 121.184,4.53 C121.857,3.181 122.706,1.835 123.572,0.421 L125.02,1.349 C125.708,1.789 126.399,2.275 127.037,2.846 C127.197,2.985 127.352,3.132 127.504,3.277 L127.724,3.494 L127.849,3.627 C128.016,3.807 128.174,3.992 128.328,4.177 C128.937,4.925 129.44,5.726 129.817,6.558 C130.58,8.202 130.794,10.042 130.346,11.46 C129.907,12.892 128.983,13.652 128.387,14.003 C127.768,14.366 127.394,14.44 127.396,14.449 C127.389,14.447 127.626,14.131 127.896,13.551 C128.167,12.976 128.401,12.114 128.221,11.221 C128.058,10.326 127.527,9.371 126.715,8.398 C126.312,7.914 125.84,7.429 125.322,6.954 L124.924,6.6 L124.822,6.512 C124.805,6.502 124.813,6.511 124.808,6.51 L124.798,6.517 C124.786,6.527 124.784,6.538 124.784,6.538 L124.781,6.521 C124.774,6.493 124.74,6.449 124.651,6.463 C124.262,7.024 123.913,7.559 123.663,8.038 C123.15,8.983 122.995,9.836 123.161,10.773 C123.319,11.688 123.692,12.495 123.947,13.039 L124.377,13.898 C124.378,13.895 124.051,13.775 123.499,13.461 C122.954,13.137 122.144,12.647 121.359,11.637 Z M114.219,8.884 C115.169,8.761 116.142,8.781 117.06,8.974 C117.977,9.161 118.837,9.537 119.527,10.025 C120.218,10.52 120.733,11.111 121.084,11.685 C121.781,12.849 121.905,13.863 121.954,14.526 C121.99,15.196 121.929,15.558 121.938,15.557 C121.932,15.561 121.727,15.251 121.33,14.763 C120.934,14.284 120.325,13.616 119.521,13.142 C118.708,12.664 117.772,12.46 116.703,12.564 C116.167,12.611 115.591,12.727 114.98,12.905 L114.519,13.043 L114.411,13.081 L114.417,13.087 C114.424,13.09 114.423,13.095 114.424,13.1 C114.427,13.115 114.436,13.121 114.436,13.121 L114.423,13.116 C114.398,13.108 114.343,13.108 114.306,13.183 C114.305,13.191 114.297,13.183 114.304,13.209 L114.451,13.557 L114.647,14.01 L115.045,14.884 C115.58,16.012 116.122,16.985 116.678,17.687 C117.229,18.395 117.821,18.809 118.348,18.948 C118.873,19.091 119.236,19.023 119.23,19.036 C119.222,19.021 119.024,19.316 118.397,19.569 C117.781,19.834 116.656,19.843 115.524,19.34 C114.384,18.856 113.235,17.988 112.201,16.864 C111.942,16.582 111.689,16.284 111.446,15.97 L111.086,15.485 L110.911,15.233 L110.825,15.105 L110.693,14.884 C110.324,14.258 109.974,13.585 109.69,12.901 C109.411,12.218 109.149,11.534 108.873,10.803 L110.193,10.19 C110.919,9.859 111.649,9.526 112.433,9.292 C112.626,9.23 112.817,9.168 113.021,9.119 L113.321,9.04 L113.506,8.999 C113.745,8.957 113.977,8.911 114.219,8.884 Z M117.799,22.76 C117.533,23.335 117.329,24.056 117.153,24.858 C117.135,24.946 117.098,25.085 117.101,25.138 C117.111,25.166 117.13,25.182 117.145,25.198 C117.175,25.23 117.207,25.248 117.238,25.255 C117.295,25.272 117.339,25.245 117.339,25.244 L117.335,25.247 C117.323,25.257 117.285,25.297 117.287,25.363 C117.309,25.425 117.209,25.527 117.757,25.593 C118.535,25.731 119.147,25.818 119.685,25.744 C120.225,25.68 120.708,25.385 121.022,25.107 C121.335,24.831 121.501,24.622 121.505,24.627 C121.498,24.628 121.595,24.864 121.62,25.344 C121.638,25.808 121.554,26.603 120.917,27.408 C120.292,28.218 119.186,28.821 118.053,29.111 C117.644,29.26 116.525,29.358 115.521,29.348 C114.5,29.343 113.383,29.321 112.264,29.262 L112.311,28.756 C112.432,27.704 112.5,26.744 112.784,25.743 C112.929,25.247 113.109,24.764 113.319,24.31 C113.427,24.085 113.54,23.861 113.653,23.656 C113.758,23.478 113.827,23.387 113.923,23.253 C114.631,22.273 115.524,21.533 116.409,21.135 C117.294,20.726 118.116,20.7 118.607,20.817 C119.107,20.929 119.32,21.096 119.323,21.086 C119.328,21.093 119.068,21.204 118.739,21.472 C118.405,21.735 118.059,22.183 117.799,22.76 Z M151.335,21.929 C151.58,22.079 151.816,22.239 152.051,22.402 C153.006,23.07 153.704,23.832 154.536,24.606 L154.285,25.003 C153.685,25.932 153.17,26.858 152.313,27.678 C152.11,27.882 151.894,28.079 151.672,28.264 L151.342,28.535 L151.113,28.703 C150.825,28.908 150.534,29.095 150.239,29.267 C149.06,29.948 147.848,30.375 146.675,30.632 C144.327,31.138 142.115,30.94 140.416,30.314 C138.7,29.697 137.594,28.637 137.081,27.834 C136.554,27.023 136.474,26.509 136.459,26.516 C136.466,26.504 136.811,26.908 137.548,27.357 C138.281,27.808 139.428,28.211 140.846,28.22 C142.26,28.242 143.944,27.902 145.62,27.182 C146.455,26.822 147.286,26.366 148.037,25.818 C148.223,25.68 148.405,25.537 148.581,25.391 L148.695,25.29 C148.706,25.278 148.698,25.282 148.699,25.277 L148.694,25.265 C148.685,25.251 148.674,25.25 148.674,25.251 L148.674,25.25 C148.677,25.25 148.691,25.247 148.698,25.23 L148.702,25.215 C148.694,25.205 148.747,25.23 148.595,25.132 L147.956,24.728 C147.093,24.205 146.208,23.742 145.348,23.345 C143.625,22.554 141.987,22.031 140.612,21.895 C139.235,21.738 138.137,22.059 137.467,22.549 C136.789,23.034 136.524,23.502 136.513,23.484 C136.536,23.493 136.507,22.972 136.972,22.116 C137.207,21.694 137.601,21.204 138.189,20.779 C138.774,20.353 139.543,20.007 140.414,19.794 C142.163,19.364 144.285,19.431 146.487,19.956 C147.59,20.222 148.721,20.599 149.855,21.128 C150.138,21.261 150.423,21.402 150.707,21.558 C150.802,21.606 151.103,21.778 151.335,21.929 Z M67.277,19.242 C68.069,19.242 68.729,19.902 68.729,20.694 L68.729,20.902 C68.729,21.694 68.069,22.354 67.277,22.354 C66.485,22.354 65.825,21.694 65.825,20.902 L65.825,20.694 C65.825,19.902 66.485,19.242 67.277,19.242 Z M7.313,17.582 C5.439,17.582 5.439,20.487 7.313,20.487 C9.186,20.487 9.186,17.582 7.313,17.582 Z M50.056,23.807 C48.183,23.807 48.183,26.712 50.056,26.712 C51.929,26.712 51.929,23.807 50.056,23.807 Z M55.658,13.432 C56.223,13.432 56.695,13.904 56.695,14.47 L56.695,14.677 C56.695,15.243 56.223,15.714 55.658,15.714 C55.092,15.714 54.62,15.243 54.62,14.677 L54.62,14.47 C54.62,13.904 55.092,13.432 55.658,13.432 Z M66.24,9.905 C66.806,9.905 67.277,10.376 67.277,10.943 C67.277,11.508 66.806,11.98 66.24,11.98 L66.032,11.98 C65.466,11.98 64.995,11.508 64.995,10.943 C64.995,10.376 65.466,9.905 66.032,9.905 L66.24,9.905 Z M73.709,14.055 C72.371,14.055 72.371,16.13 73.709,16.13 C75.047,16.13 75.047,14.055 73.709,14.055 Z M72.049,22.77 C70.711,22.77 70.711,24.844 72.049,24.844 C73.388,24.844 73.388,22.77 72.049,22.77 Z M124.558,19.242 C125.35,19.242 126.01,19.902 126.01,20.694 L126.01,20.902 C126.01,21.694 125.35,22.354 124.558,22.354 C123.766,22.354 123.106,21.694 123.106,20.902 L123.106,20.694 C123.106,19.902 123.766,19.242 124.558,19.242 Z M184.522,17.582 C186.396,17.582 186.396,20.487 184.522,20.487 C182.649,20.487 182.649,17.582 184.522,17.582 Z M141.78,23.807 C143.653,23.807 143.653,26.712 141.78,26.712 C139.907,26.712 139.907,23.807 141.78,23.807 Z M136.177,13.432 C136.743,13.432 137.215,13.904 137.215,14.47 L137.215,14.677 C137.215,15.243 136.743,15.714 136.177,15.714 C135.612,15.714 135.14,15.243 135.14,14.677 L135.14,14.47 C135.14,13.904 135.612,13.432 136.177,13.432 Z M125.596,9.905 L125.803,9.905 C126.369,9.905 126.84,10.376 126.84,10.943 C126.84,11.508 126.369,11.98 125.803,11.98 L125.596,11.98 C125.029,11.98 124.558,11.508 124.558,10.943 C124.558,10.376 125.029,9.905 125.596,9.905 Z M118.126,14.055 C119.464,14.055 119.464,16.13 118.126,16.13 C116.788,16.13 116.788,14.055 118.126,14.055 Z M119.786,22.77 C121.124,22.77 121.124,24.844 119.786,24.844 C118.448,24.844 118.448,22.77 119.786,22.77 Z M95.703,18.205 C94.365,18.205 94.365,20.279 95.703,20.279 C97.041,20.279 97.041,18.205 95.703,18.205 Z M94.54,35.098 C95.49,34.63 96.059,34.602 96.053,34.585 C96.066,34.593 95.57,34.901 94.95,35.625 C94.331,36.345 93.711,37.532 93.573,39.087 C93.418,40.637 93.681,42.532 94.323,44.528 C94.644,45.523 95.055,46.548 95.557,47.537 L95.75,47.906 C95.794,47.982 95.79,47.959 95.801,47.968 C95.814,47.968 95.823,47.965 95.83,47.959 C95.842,47.95 95.844,47.936 95.844,47.936 L95.844,47.937 C95.844,47.94 95.846,47.955 95.861,47.965 C95.872,47.964 95.872,47.983 95.901,47.959 C95.914,47.944 95.905,47.965 95.936,47.918 L96.053,47.738 L96.281,47.379 C96.878,46.425 97.374,45.484 97.739,44.567 C98.482,42.74 98.63,40.985 98.318,39.457 C98.016,37.928 97.36,36.691 96.874,35.864 C96.379,35.035 96.047,34.587 96.053,34.585 C96.05,34.59 96.545,34.827 97.36,35.42 C98.161,36.02 99.336,36.988 100.29,38.705 C100.761,39.558 101.146,40.606 101.315,41.785 C101.491,42.964 101.444,44.257 101.182,45.544 C100.922,46.834 100.456,48.117 99.847,49.345 L99.612,49.804 L99.49,50.032 L99.277,50.396 C98.975,50.913 98.62,51.462 98.267,51.972 C97.546,53.002 96.797,53.97 96.023,55 L95.718,54.681 C94.89,53.786 94.116,53.093 93.388,52.087 C93.03,51.594 92.704,51.045 92.412,50.484 C92.266,50.216 92.123,49.902 92.025,49.695 L91.819,49.199 C91.298,47.879 90.974,46.566 90.797,45.295 C90.447,42.759 90.722,40.356 91.513,38.516 C92.29,36.652 93.604,35.547 94.54,35.098 Z M95.703,41.527 C93.83,41.527 93.83,38.623 95.703,38.623 C97.577,38.623 97.577,41.527 95.703,41.527 Z" id="Combined-Shape"></path>
            </g>
        </g>
    </g>
</svg>