<?xml version="1.0" encoding="UTF-8" standalone="no"?>
<svg width="102px" height="101px" viewBox="0 0 102 101" version="1.1" xmlns="http://www.w3.org/2000/svg" xmlns:xlink="http://www.w3.org/1999/xlink">
    <!-- Generator: Sketch 50.2 (55047) - http://www.bohemiancoding.com/sketch -->
    <title>logo_poprawne</title>
    <desc>Created with Sketch.</desc>
    <defs>
        <linearGradient x1="100%" y1="-5.55111512e-15%" x2="1.11022302e-14%" y2="100%" id="linearGradient-1">
            <stop stop-color="#01130B" offset="0%"></stop>
            <stop stop-color="#03190E" offset="100%"></stop>
        </linearGradient>
        <polygon id="path-2" points="0 100.577406 101.947095 100.577406 101.947095 0.117481172 0 0.117481172"></polygon>
        <path d="M0.0554439834,1.11269038 C0.0554439834,1.19298326 0.071526971,1.27031799 0.0943817427,1.34258159 L0.0926887967,1.34258159 C1.69082988,7.37722594 8.23448963,10.6007741 8.23448963,10.6007741 C8.28697095,10.6269749 8.34580083,10.6443013 8.40843983,10.6443013 C8.61963485,10.6443013 8.79273859,10.4706151 8.79273859,10.259318 C8.79273859,10.1456402 8.74237344,10.0442176 8.66492116,9.97448954 L8.66111203,9.97237657 L8.60270539,9.92969456 C3.32325311,6.19184937 1.87578423,1.99337657 1.59856432,1.01507113 C1.59009959,0.941117155 1.5740166,0.870121339 1.54523651,0.804619247 L1.54523651,0.80292887 C1.42461411,0.528665272 1.15120332,0.336384937 0.832082988,0.336384937 C0.403344398,0.336384937 0.0554439834,0.68460251 0.0554439834,1.11269038" id="path-4"></path>
        <linearGradient x1="-0.00068106956%" y1="49.9987668%" x2="99.9971619%" y2="49.9987668%" id="linearGradient-6">
            <stop stop-color="#E9CBAB" offset="0%"></stop>
            <stop stop-color="#FDF7EA" offset="100%"></stop>
        </linearGradient>
        <path d="M0.308962656,1.18748954 C0.308962656,1.31130962 0.336896266,1.42879079 0.385991701,1.53528452 L0.384298755,1.53528452 C2.7760083,7.30580753 8.98912033,11.2883347 9.51393361,11.6158452 C9.57699585,11.6627531 9.65529461,11.6910669 9.74036515,11.6910669 C9.95367635,11.6910669 10.1259336,11.5178033 10.1259336,11.3069289 C10.1259336,11.1421172 10.019278,11.0018159 9.8719917,10.9477238 C4.80585062,7.60796234 2.48058921,2.28623431 1.98709544,1.03028452 C1.96974274,0.936891213 1.93376763,0.849414226 1.88763485,0.770389121 L1.88424896,0.758979079 L1.88255602,0.759824268 C1.73526971,0.511338912 1.46693776,0.342301255 1.15628216,0.342301255 C0.689029046,0.342301255 0.308962656,0.71925523 0.308962656,1.18748954" id="path-7"></path>
        <linearGradient x1="-0.00218926493%" y1="49.9974545%" x2="99.999158%" y2="49.9974545%" id="linearGradient-9">
            <stop stop-color="#E9CBAB" offset="0%"></stop>
            <stop stop-color="#FDF7EA" offset="100%"></stop>
        </linearGradient>
        <path d="M3.47815768,0.566276151 C3.06423237,0.619523013 2.70109544,0.777573222 2.37351037,0.922523013 C2.21141079,0.99267364 2.05523651,1.05986611 1.90583402,1.12367782 C1.76785892,1.21580335 1.63580913,1.30285774 1.51010788,1.38653138 C1.26674689,1.55725941 1.04116183,1.69122176 0.884987552,1.84251046 C0.736008299,2.00140586 0.609883817,2.13705858 0.506190871,2.24651046 C0.300497925,2.46625941 0.192149378,2.5824728 0.192149378,2.5824728 C0.192149378,2.5824728 0.330970954,2.5034477 0.59253112,2.35511715 C0.723311203,2.28031799 0.884987552,2.18861506 1.07502075,2.08043096 C1.27013278,1.98746025 1.50714523,1.92702929 1.75219917,1.83279079 C1.87282158,1.79053138 2.000639,1.74531381 2.13565145,1.69629289 C2.28209129,1.67431799 2.43360996,1.6519205 2.59190041,1.62783264 C2.90636515,1.58346025 3.23141079,1.49725105 3.59708714,1.53401674 C4.29119502,1.49725105 5.15882988,1.6662887 5.89991701,1.95999163 C6.69644813,2.2722887 7.49678838,2.76925941 8.27427386,3.41413808 C8.66195851,3.73488703 9.04921992,4.08521757 9.41955187,4.47823013 C9.60577593,4.67262343 9.79369295,4.86828452 9.9833029,5.06605858 C10.1818008,5.27608787 10.427278,5.525841 10.6477842,5.73587029 C11.5463154,6.59796234 12.5104481,7.43554393 13.5710788,8.18691632 C14.632556,8.93490795 15.7482075,9.65162762 16.9239585,10.2686151 C18.1018257,10.8796862 19.340639,11.3842636 20.5849544,11.80559 C21.2155768,11.9953347 21.8373112,12.2007155 22.4692033,12.3338326 C23.107444,12.4441297 23.7363734,12.553159 24.3568382,12.6609205 C24.9781494,12.7450167 25.6028465,12.7598075 26.2063817,12.7855858 C26.5094191,12.7898117 26.8069544,12.8164351 27.101527,12.8020669 C27.3969461,12.7762887 27.6877095,12.7496653 27.9755104,12.7251548 C28.5477261,12.6630335 29.1063983,12.6448619 29.6358672,12.5468201 C30.1585643,12.4137029 30.6630622,12.2860795 31.1472448,12.162682 C32.1244979,11.9813891 32.9349959,11.5216067 33.6684647,11.2211423 C34.0273693,11.0483013 34.3833112,10.9401172 34.6702656,10.7440335 C34.9576432,10.5559791 35.2225892,10.3827155 35.4625643,10.2272008 C36.4089212,9.59922594 36.9206141,9.22861088 36.9206141,9.22861088 C36.9206141,9.22861088 36.2916846,9.41624268 35.245444,9.76657322 C34.7252863,9.95251464 34.100166,10.171841 33.345112,10.2981967 C32.5955602,10.4275105 31.7901411,10.6920544 30.8645228,10.7199456 C30.41039,10.7600921 29.9384813,10.8010837 29.4483734,10.8429205 C28.9595353,10.8564435 28.4516515,10.8230586 27.9365726,10.8150293 C27.6775519,10.8086904 27.4168382,10.8010837 27.1531618,10.7943222 C26.8882158,10.7761506 26.6224232,10.7178326 26.3545145,10.6810669 C25.8212365,10.5796444 25.2689129,10.560205 24.7195519,10.4363849 C24.1744232,10.3011548 23.6208299,10.1633891 23.0587718,10.0252008 C22.5064481,9.85616318 21.9562407,9.64106276 21.3924896,9.46948954 C20.281917,9.06337657 19.1726141,8.57992887 18.1107137,8.0005523 C17.0246888,7.46470293 15.9843734,6.82869874 14.9889212,6.16311297 C14.0074357,5.47893305 13.023834,4.80912134 12.1617012,4.06958159 C11.9373859,3.88364017 11.7570871,3.72474477 11.5386971,3.52612552 C11.3071867,3.31525105 11.071444,3.12043515 10.8386639,2.92519665 C10.3726805,2.53767782 9.88257261,2.18396653 9.38950207,1.86702092 C8.41436515,1.21453556 7.34357676,0.766585774 6.31087967,0.553598326 C5.8000332,0.443723849 5.32812448,0.394702929 4.88457261,0.394702929 C4.38515353,0.394702929 3.92170954,0.456824268 3.47815768,0.566276151" id="path-10"></path>
        <linearGradient x1="0.000117077668%" y1="49.9988566%" x2="100.000432%" y2="49.9988566%" id="linearGradient-12">
            <stop stop-color="#E9CBAB" offset="0%"></stop>
            <stop stop-color="#FDF7EA" offset="100%"></stop>
        </linearGradient>
        <path d="M7.50144398,0.80292887 L7.50144398,0.804619247 C7.47308714,0.870121339 7.45742739,0.941117155 7.44811618,1.01507113 C7.1713195,1.99337657 5.72342739,6.19184937 0.445244813,9.92969456 L0.385991701,9.97237657 L0.382605809,9.97448954 C0.30473029,10.0442176 0.255211618,10.1456402 0.255211618,10.259318 C0.255211618,10.4706151 0.427045643,10.6443013 0.639510373,10.6443013 C0.701726141,10.6443013 0.76013278,10.6269749 0.812190871,10.6007741 C0.812190871,10.6007741 7.35585062,7.37722594 8.95441494,1.34258159 L8.95272199,1.34258159 C8.976,1.27031799 8.99165975,1.19298326 8.99165975,1.11269038 C8.99165975,0.68460251 8.64375934,0.336384937 8.21459751,0.336384937 C7.89547718,0.336384937 7.62248963,0.528665272 7.50144398,0.80292887" id="path-13"></path>
        <linearGradient x1="-0.00223282628%" y1="49.9987668%" x2="100.000568%" y2="49.9987668%" id="linearGradient-15">
            <stop stop-color="#E9CBAB" offset="0%"></stop>
            <stop stop-color="#FDF7EA" offset="100%"></stop>
        </linearGradient>
        <path d="M8.43425726,0.759824268 L8.43171784,0.758979079 L8.42875519,0.770389121 C8.38219917,0.849414226 8.34749378,0.936891213 8.32887137,1.03028452 C7.8366473,2.28623431 5.51011618,7.60796234 0.443975104,10.9477238 C0.29753527,11.0018159 0.190879668,11.1421172 0.190879668,11.3069289 C0.190879668,11.5178033 0.363136929,11.6910669 0.576448133,11.6910669 C0.661518672,11.6910669 0.739394191,11.6627531 0.802456432,11.6158452 C1.32726971,11.2883347 7.54080498,7.30580753 9.93209129,1.53528452 L9.93082158,1.53528452 C9.97949378,1.42879079 10.0082739,1.31130962 10.0082739,1.18748954 C10.0082739,0.71925523 9.62778423,0.342301255 9.16053112,0.342301255 C8.84945228,0.342301255 8.58154357,0.511338912 8.43425726,0.759824268" id="path-16"></path>
        <linearGradient x1="0.000741076048%" y1="49.9974545%" x2="99.9977772%" y2="49.9974545%" id="linearGradient-18">
            <stop stop-color="#E9CBAB" offset="0%"></stop>
            <stop stop-color="#FDF7EA" offset="100%"></stop>
        </linearGradient>
        <path d="M35.6314357,0.117481172 L33.126722,2.36864017 C32.3818257,3.21087029 31.6153444,4.04676151 30.882722,4.91434728 C30.2317842,5.8360251 29.5457178,6.74206695 28.9189046,7.68656485 C28.3661577,8.67543515 27.7706639,9.64782427 27.2513527,10.661205 C26.8090705,11.7083933 26.33039,12.7467071 25.931278,13.8146025 C25.609195,14.9070084 25.240556,15.9926527 24.9565643,17.0998494 C24.941751,17.1788745 24.9260913,17.2566318 24.9108548,17.3360795 C24.1676515,17.1611255 23.4125975,17.0254728 22.6571203,16.9101046 L21.4233859,16.8260084 L20.8075768,16.7879749 L20.7288548,16.7850167 L20.6907635,16.7807908 L20.5760664,16.783749 L20.4334357,16.7879749 L20.1481743,16.7985397 C19.3867718,16.8276987 18.6511867,16.8298117 17.7611203,16.9785649 C16.0271203,17.1598577 14.4992365,17.6792259 12.9383402,18.2725481 L12.0106058,18.6249916 L11.9699751,19.5589247 L11.8815187,21.5801925 C11.8222656,22.2533849 11.9208797,22.9236192 11.9725145,23.5938536 C12.0415021,24.2632427 12.059278,24.9389707 12.2425394,25.5889205 L12.6970954,27.5497573 C12.8960166,28.1882971 13.150805,28.8090879 13.3772365,29.4370628 L13.5533029,29.9048745 L13.6400664,30.1389916 L13.6853527,30.2560502 L13.707361,30.313523 L13.7564564,30.4200167 L13.7695768,30.445795 L14.2182075,31.2706987 C14.5356349,31.8221841 14.7734938,32.362682 15.1560996,32.9255774 L16.3437012,34.5965146 C16.7326556,35.1589874 17.2350373,35.5853849 17.6739336,36.0810879 L18.3544979,36.7969623 L19.1125145,37.4287406 C19.6297095,37.8361213 20.0999253,38.2954812 20.6619834,38.638205 L22.321917,39.6718703 C22.8818589,39.9989582 23.4955519,40.2351883 24.080888,40.5060711 C24.6581826,40.7955481 25.2778008,40.9861381 25.8944564,41.1678536 C26.5140747,41.3432301 27.1049129,41.5879121 27.7452697,41.670318 L29.3565311,41.9348619 C29.6705726,42.404364 29.9867303,42.8717531 30.2956929,43.3454812 C31.0046141,44.2561715 31.7567054,45.13559 32.4876349,46.0314895 L34.0845062,47.6149498 C33.008639,48.9410502 31.8548963,49.9983808 30.6998838,50.8461046 C29.2388714,48.3553347 28.1397261,47.1027657 28.1397261,47.1027657 C25.9118091,43.8356904 20.4838008,44.913728 20.4838008,44.913728 C16.7610124,46.127841 13.6811203,40.2981548 13.6811203,40.2981548 C13.5672697,40.0762929 13.338722,39.9207782 13.0716598,39.9207782 C12.6941328,39.9207782 12.3881328,40.2275816 12.3881328,40.6053808 C12.3881328,40.6751088 12.4004066,40.7393431 12.4211452,40.801887 L12.4198755,40.8035774 C12.4198755,40.8035774 14.1157842,47.4315439 20.8308548,46.4075983 C20.8308548,46.4075983 24.9032365,45.6135439 26.7121494,48.6777741 C26.7121494,48.6777741 27.6072946,49.9810544 28.7830456,52.075431 C24.9227054,54.2133347 21.5160747,54.2353096 21.5160747,54.2353096 C6.5013361,53.5490167 2.15046473,39.1470084 1.796639,37.8813389 C1.72892116,37.5187531 1.41234025,37.2423766 1.02846473,37.2423766 C0.596340249,37.2423766 0.247593361,37.5922845 0.247593361,38.0229079 C0.247593361,38.1382762 0.274257261,38.2473054 0.319543568,38.3466151 C0.890489627,40.7330042 5.08391701,55.5652134 21.3772531,56.4577322 C21.3772531,56.4577322 25.5499419,56.6085983 29.9850373,54.324477 C31.8756349,58.0580962 33.9503402,63.1448619 34.2973942,68.0173724 C34.2973942,68.0173724 34.3291369,68.0756904 34.3833112,68.172887 L34.3905062,68.172887 L36.8719419,68.172887 L36.8787137,68.172887 C36.9345809,68.0756904 36.9654772,68.0173724 36.9654772,68.0173724 C37.3125311,63.1448619 39.3872365,58.0580962 41.277834,54.324477 C45.7133527,56.6085983 49.8860415,56.4577322 49.8860415,56.4577322 C66.1785311,55.5652134 70.3719585,40.7330042 70.9429046,38.3466151 C70.9886141,38.2473054 71.015278,38.1382762 71.015278,38.0229079 C71.015278,37.5922845 70.6661079,37.2423766 70.2348299,37.2423766 C69.8509544,37.2423766 69.5339502,37.5187531 69.4666556,37.8813389 C69.1132531,39.1470084 64.761112,53.5490167 49.7467967,54.2353096 C49.7467967,54.2353096 46.340166,54.2133347 42.478556,52.075431 C43.6551535,49.9810544 44.5502988,48.6777741 44.5502988,48.6777741 C46.3596349,45.6135439 50.4315934,46.4075983 50.4315934,46.4075983 C57.1462407,47.4315439 58.8429959,40.8035774 58.8429959,40.8035774 L58.8421494,40.801887 C58.861195,40.7393431 58.8747386,40.6751088 58.8747386,40.6053808 C58.8747386,40.2275816 58.5687386,39.9207782 58.1907884,39.9207782 C57.9233029,39.9207782 57.6951784,40.0762929 57.5821743,40.2981548 L57.5809046,40.2981548 C57.5809046,40.2981548 54.5018589,46.127841 50.7786473,44.913728 C50.7786473,44.913728 45.350639,43.8356904 43.1235685,47.1027657 C43.1235685,47.1027657 42.024,48.3553347 40.5634108,50.8461046 C39.4075519,49.9983808 38.2542324,48.9410502 37.1783651,47.6149498 L38.7752365,46.0314895 C39.5065892,45.1368577 40.2574108,44.2561715 40.9680249,43.3454812 C41.2816432,42.866682 41.6011867,42.3925314 41.9181909,41.9166904 L43.5091369,41.6386234 C44.1456846,41.551569 44.7335602,41.3005481 45.3493693,41.1213682 C45.9617925,40.9333138 46.5784481,40.7380753 47.1498174,40.444795 C47.7292282,40.166728 48.3420747,39.9343013 48.8960913,39.60341 L50.5429046,38.5634059 C51.0960747,38.2160335 51.5675602,37.76259 52.0792531,37.354364 L52.8304979,36.721318 L53.5025975,36.0058661 C53.9381079,35.5110084 54.4324481,35.0799623 54.8197095,34.5246736 L55.9929212,32.8659916 C56.3704481,32.3081674 56.6074606,31.7617531 56.9215021,31.2094226 L57.3659004,30.3840962 L57.3798672,30.3578954 L57.4234606,30.259431 L57.4467386,30.2023808 L57.4911784,30.0857448 L57.5800581,29.853318 L57.7573942,29.3897322 C57.9817095,28.7659833 58.2335353,28.1481506 58.4290705,27.5129916 L58.8730456,25.5652552 C59.0567303,24.9191088 59.0660415,24.2476067 59.143917,23.5845565 C59.2031701,22.9181255 59.294166,22.2508494 59.2357593,21.582728 L59.1519585,19.5754059 L59.1159834,18.7014812 L58.2690871,18.4027071 C57.4530871,18.1153431 56.6574025,17.7502218 55.8062739,17.5672385 L54.5433361,17.2473347 L53.2067552,17.0550544 L52.5393112,16.9663096 L51.9353527,16.9422218 L50.7312448,16.896159 L50.5835353,16.8932008 L50.5014274,16.8970042 L50.3401743,16.9071464 L50.0159751,16.925318 L49.368,16.9654644 C48.9362988,16.9916653 48.503751,17.0081464 48.0792448,17.0939331 C47.5032199,17.1788745 46.9326971,17.2802971 46.3685228,17.4138368 C46.3490539,17.3103013 46.3291618,17.2059205 46.3101162,17.1023849 C46.0235851,15.9909623 45.6553693,14.9086987 45.3311701,13.8133347 C44.9341743,12.7467071 44.4542241,11.7067029 44.0132116,10.6607824 C43.4939004,9.64697908 42.8979834,8.67458996 42.3456598,7.68529707 C41.7188465,6.74122176 41.0310871,5.83475732 40.3809959,4.91392469 C39.6509129,4.04887448 38.8857012,3.21636402 38.1412282,2.37286611 L35.6314357,0.117481172 L37.9139502,2.5824728 C38.5885892,3.47245607 39.2873527,4.34046444 39.9442158,5.23636402 C40.5210871,6.18804603 41.1305477,7.11606276 41.6773693,8.07619665 C42.1484315,9.08028033 42.6618174,10.0598536 43.0956349,11.0732343 C43.460888,12.1145063 43.883278,13.1333808 44.2134025,14.1818368 C44.4698838,15.2505774 44.7733444,16.3104435 44.9938506,17.3774937 C45.0099336,17.5118787 45.0294025,17.643728 45.0488714,17.7768452 C44.3877759,17.9788452 43.7516515,18.2484603 43.1087552,18.4939874 C41.5487054,19.2153556 40.0280166,20.0415272 38.7041328,21.1330879 C38.0053693,21.6300586 37.4187635,22.2593013 36.7877178,22.8340293 C36.4216183,23.2553556 36.036473,23.6606234 35.6758755,24.0870209 C35.565834,23.9534812 35.4557925,23.8241674 35.3364398,23.6986569 C34.3067054,22.439749 33.0450373,21.3972092 31.7473942,20.4146778 C30.3900747,19.5187782 28.9705394,18.6811967 27.4253029,18.1246402 C27.03,17.962364 26.6279253,17.818682 26.221195,17.690636 C26.2355851,17.5883682 26.2508216,17.4835649 26.2639419,17.3796067 C26.4857178,16.3074854 26.788332,15.2505774 27.0469295,14.1814142 C27.375361,13.1325356 27.7985975,12.1136611 28.1630041,11.0715439 C28.597668,10.059431 29.1114772,9.07943515 29.5833859,8.07450628 C30.1302075,7.11564017 30.739668,6.18677824 31.3178091,5.23509623 C31.9708631,4.34257741 32.6679336,3.47668201 33.3434191,2.58627615 L35.6314357,0.117481172 Z M42.8658174,40.444795 C43.3897842,39.4153556 43.9628465,38.4087364 44.439834,37.3581674 C44.8465643,36.2780167 45.2973112,35.2130795 45.6600249,34.1198285 C45.9495187,33.0033347 46.2826058,31.8978285 46.5301992,30.773728 C46.6994938,29.6344142 46.9013776,28.4989038 47.038083,27.3583222 L47.1671701,23.9129121 L46.9229627,20.5173682 C46.9026473,20.3821381 46.8785228,20.2464854 46.857361,20.1116778 C47.3775187,20.0056067 47.9014855,19.9248912 48.4305311,19.8729121 C48.7966307,19.8031841 49.1699253,19.8019163 49.5406805,19.7888159 L50.5869212,19.7503598 L51.7914523,19.8238912 L52.3916017,19.8623473 L52.9155685,19.9548954 L53.9643485,20.1222427 L55.0393693,20.3914351 C55.4816515,20.4772218 55.9036183,20.6335816 56.3234689,20.7916318 L56.3793361,21.6448494 C56.4555187,22.2238033 56.3725643,22.8019121 56.3552116,23.3825565 C56.3137344,23.9615105 56.3437842,24.5510293 56.2053859,25.1202636 L55.8998091,26.8436025 C55.7537925,27.4086109 55.5536017,27.9600962 55.3843071,28.5229916 L55.2581826,28.9434728 L55.1942739,29.1547699 L55.1629544,29.260841 L55.1477178,29.3140879 L55.1430622,29.3271883 C55.1396763,29.3352176 55.1506805,29.3115523 55.1616846,29.287887 C55.1756515,29.2570377 55.1896183,29.2266109 55.173112,29.262954 L55.1697261,29.2705607 L55.1578755,29.2971841 L54.7714606,30.1512469 C54.5065145,30.704 54.2779668,31.3298619 53.981278,31.8226067 L53.0848631,33.2906987 C52.8046805,33.7948536 52.3784813,34.2330837 52.0318506,34.7123054 L51.4820664,35.419728 L50.8527137,36.0536192 C50.4167801,36.4601548 50.0367137,36.9385314 49.5643817,37.3087238 L48.1520415,38.4412762 C47.6665892,38.8009038 47.1375436,39.0971423 46.6292365,39.4369079 C46.1277012,39.7931548 45.577917,40.0547406 45.0222075,40.314636 C44.4643817,40.5656569 43.9268714,40.8906318 43.3330705,41.0567113 L42.219112,41.4585983 C42.439195,41.1230586 42.6563154,40.786251 42.8658174,40.444795 Z M16.2463568,29.2591506 L16.2306971,29.206749 L16.1989544,29.1023682 L16.1346224,28.8931841 L16.0059585,28.4756611 C15.840473,27.916569 15.643668,27.3693096 15.5006141,26.8085272 L15.2039253,25.0953305 C15.0651037,24.5320126 15.1053112,23.9458745 15.0553693,23.3719916 C15.0291286,22.796841 14.9529461,22.2229582 15.0291286,21.6473849 L15.0769544,20.8884059 C16.0931452,20.5423013 17.143195,20.244795 18.1411867,20.1061841 C18.7531867,19.9646151 19.5425228,19.9316527 20.3030788,19.8843222 C20.6734108,19.8492469 21.0928382,19.8695314 21.5164979,19.8898159 C21.8000664,19.9033389 22.085751,19.9172845 22.3595851,19.9143264 C23.03761,19.9848996 23.717751,20.0727992 24.3919668,20.197887 C24.3758838,20.2925481 24.3589544,20.3859414 24.345834,20.4806025 L24.0986639,23.9572845 L24.2230954,27.3152176 C24.3559917,28.4587573 24.5621079,29.6175105 24.732249,30.7707699 C24.982805,31.898251 25.3141992,33.0012218 25.6036929,34.1198285 C25.9672531,35.2126569 26.418,36.2775941 26.8247303,37.3581674 C27.3017178,38.4078912 27.870971,39.4162008 28.3979004,40.4439498 C28.6010539,40.7761088 28.8126722,41.1053096 29.0255602,41.4307071 L27.9382656,41.0258619 C27.3474274,40.8534435 26.8141494,40.5225523 26.2601328,40.2668828 C25.7073859,40.0023389 25.1622573,39.7369498 24.6653776,39.3760544 C24.1634191,39.028682 23.6352199,38.7366695 23.1535768,38.3723933 L21.756473,37.2347699 C21.2921826,36.8586611 20.9108465,36.387046 20.4799917,35.9792427 L19.8586805,35.3445063 L19.3169378,34.6366611 C18.9741162,34.1582845 18.5563817,33.716251 18.2783154,33.2201255 L17.3945975,31.7647113 C17.103834,31.2740795 16.876556,30.6439916 16.6133029,30.0912385 L16.2366224,29.245205 C16.2425477,29.2570377 16.2472033,29.2671799 16.2493195,29.2714059 L16.2463568,29.2591506 Z M39.3195187,41.7654017 L39.6352531,40.6108745 L39.8375602,39.430569 C40.0060083,38.6458117 40.0026224,37.8428828 40.0707635,37.0458703 L40.0902324,36.7475188 L40.0804979,36.4119791 L40.062722,35.8418996 C40.0453693,35.4581841 40.0479087,35.0888368 40.0132033,34.6932887 C39.8862324,33.8899372 39.8460249,33.0358745 39.629751,32.2692887 L39.3491452,31.0948996 C39.2437593,30.7065356 39.0930871,30.3321172 38.9669627,29.9492469 C38.7329129,29.1758996 38.3655436,28.454954 38.0290705,27.7200628 C37.7323817,27.1250502 37.3916763,26.5507448 37.04039,25.9827782 C37.2261909,25.74359 37.4276515,25.5145439 37.6430788,25.2985983 C37.9050622,25.0277155 38.155195,24.7445774 38.4247967,24.482569 C39.0029378,23.9999665 39.5324066,23.4603138 40.1659917,23.0508201 C41.3574025,22.1308326 42.7181079,21.4635565 44.0953195,20.8981255 C44.5337925,20.7396527 44.9798838,20.5947029 45.4272448,20.4653891 C45.4327469,20.5097615 45.438249,20.5532887 45.4441743,20.5976611 L45.5669129,23.9129121 L45.327361,27.1782971 C45.1644149,28.2563347 44.9544896,29.3254979 44.7733444,30.3980418 C44.5143237,31.453682 44.1753112,32.4915732 43.883278,33.5370711 C43.5192946,34.5601715 43.0693942,35.5528452 42.6685892,36.5607322 C42.1924481,37.5352343 41.6562075,38.4814226 41.1572116,39.4453598 C40.5837261,40.3653473 39.951834,41.2511046 39.3538008,42.157569 C39.2763485,42.2564561 39.1942407,42.3523849 39.1146722,42.4495816 C39.1874689,42.2226485 39.2573029,41.9948703 39.3195187,41.7654017 Z M31.9069544,42.1579916 C31.3097676,41.2515272 30.6774523,40.3657699 30.1039668,39.4453598 C29.6062407,38.4814226 29.0666141,37.5369247 28.5908963,36.5624226 C28.1909378,35.5545356 27.7406141,34.5614393 27.375361,33.5379163 C27.0845975,32.4932636 26.7451618,31.4519916 26.4874108,30.4014226 C26.3079585,29.3428243 26.1022656,28.2964812 25.9338174,27.2214017 L25.6921494,23.8698075 L25.8127718,20.6335816 C25.8161577,20.601887 25.82039,20.5710377 25.8246224,20.5380753 C26.0413195,20.601887 26.2601328,20.6703473 26.4751369,20.7472594 C27.8278008,21.1504142 29.0733859,21.8392427 30.2893444,22.5606109 C31.4439336,23.371569 32.5976763,24.2260544 33.5338755,25.3036695 C33.785278,25.5453933 34.0083237,25.8107824 34.2233278,26.0842008 C33.6028631,27.0768745 33.0886307,28.1358954 32.6154523,29.2008326 C32.3543154,30.00841 32.0009129,30.7851381 31.8388133,31.6210293 L31.5442407,32.8558494 L31.3664813,34.1443389 L31.2814108,34.7871046 L31.258556,35.3901464 L31.2158091,36.5936946 C31.2204647,37.098272 31.2636349,37.4591674 31.2864896,37.8965523 C31.3169627,38.3166109 31.3271203,38.7379372 31.4147303,39.1516569 C31.5463568,39.9837448 31.6792531,40.8137197 31.9336183,41.6179163 C32.0026058,41.9209163 32.0969876,42.2184226 32.1964481,42.5117029 C32.1003734,42.392954 32.0009129,42.2767406 31.9069544,42.1579916 Z M33.182166,38.9319079 C33.1127552,38.5553766 33.1191037,38.1716611 33.1042905,37.7900586 C33.0954025,37.426205 33.0683154,36.9845941 33.0721245,36.6875105 L33.1525394,35.4856527 L33.1944398,34.8872594 L33.2900913,34.3395774 L33.4763154,33.2480167 L33.7785062,32.1496946 C33.9422988,31.4067741 34.2906224,30.7230167 34.5390622,30.0096778 C34.86961,29.3339498 35.2124315,28.6607573 35.5941909,28.0133431 C35.7469793,28.2588703 35.8959585,28.5069331 36.0339336,28.7592218 C36.3509378,29.3994519 36.7043402,30.0236234 36.9337344,30.704 C37.0573195,31.0399623 37.2071452,31.3674728 37.3121079,31.7085063 L37.5977925,32.7468201 C37.8229544,33.4407197 37.8614689,34.1219414 38.0104481,34.8120377 C38.0578506,35.1725105 38.0684315,35.5663682 38.099751,35.9412092 L38.1386888,36.5104435 C38.1441909,36.5831297 38.155195,36.7475188 38.155195,36.746251 L38.1463071,37.0158661 C38.1073693,37.7351213 38.1441909,38.463251 38.0125643,39.1761674 L37.8690871,40.2512469 L37.6210705,41.3077322 C37.2917925,42.720887 36.7326971,44.0727657 36.0601743,45.3621004 C35.9116183,45.6101632 35.7694108,45.8620293 35.6225477,46.1117824 C34.2906224,43.9282385 33.4280664,41.4755021 33.182166,38.9319079 Z M31.9530871,53.1445941 C33.2388797,52.2563013 34.4958921,51.1283975 35.6314357,49.7017197 C36.7674025,51.1283975 38.0239917,52.2563013 39.3097842,53.1445941 C38.0663154,55.5973305 36.727195,58.797636 35.6314357,62.7391715 C34.5352531,58.797636 33.196556,55.5973305 31.9530871,53.1445941 Z M16.2497427,29.2726736 C16.2510124,29.2752092 16.2510124,29.2747866 16.2493195,29.2714059 L16.2497427,29.2726736 Z" id="path-19"></path>
        <linearGradient x1="-2.33843283e-05%" y1="50.0001965%" x2="100.000009%" y2="50.0001965%" id="linearGradient-21">
            <stop stop-color="#E9CBAB" offset="0%"></stop>
            <stop stop-color="#FDF7EA" offset="100%"></stop>
        </linearGradient>
        <path d="M30.6694108,0.553598326 C29.6375602,0.766585774 28.5663485,1.21453556 27.5912116,1.86702092 C27.0985643,2.18396653 26.6080332,2.53767782 26.1416266,2.92519665 C25.9092697,3.12043515 25.6726805,3.31525105 25.4420166,3.52612552 C25.2240498,3.72474477 25.0433278,3.88364017 24.8185892,4.06958159 C23.9573029,4.80912134 22.973278,5.47893305 21.9917925,6.16311297 C20.995917,6.82869874 19.9551784,7.46470293 18.87,8.0005523 C17.8076763,8.57992887 16.6987967,9.06337657 15.5886473,9.46948954 C15.024473,9.64106276 14.4738423,9.85616318 13.9210954,10.0252008 C13.3607303,10.1633891 12.8062905,10.3011548 12.2603154,10.4363849 C11.7118008,10.560205 11.1594772,10.5796444 10.6257759,10.6810669 C10.3587137,10.7178326 10.0920747,10.7761506 9.82755187,10.7943222 C9.56345228,10.8010837 9.30316183,10.8086904 9.04414108,10.8150293 C8.52906224,10.8230586 8.02075519,10.8564435 7.53276349,10.8429205 C7.04223237,10.8010837 6.56947718,10.7600921 6.11619087,10.7199456 C5.19057261,10.6920544 4.38473029,10.4275105 3.6360249,10.2981967 C2.88054772,10.171841 2.25542739,9.95251464 1.73526971,9.76657322 C0.689029046,9.41624268 0.0600995851,9.22861088 0.0600995851,9.22861088 C0.0600995851,9.22861088 0.571792531,9.59922594 1.51814938,10.2272008 C1.75812448,10.3827155 2.0226473,10.5559791 2.31044813,10.7440335 C2.59697925,10.9401172 2.95376763,11.0483013 3.31224896,11.2211423 C4.04614108,11.5216067 4.85579253,11.9813891 5.83431535,12.162682 C6.31765145,12.2860795 6.82214938,12.4137029 7.34569295,12.5468201 C7.87473859,12.6448619 8.43341079,12.6630335 9.00478008,12.7251548 C9.29300415,12.7496653 9.58376763,12.7762887 9.87876349,12.8020669 C10.1737593,12.8164351 10.4712946,12.7898117 10.774332,12.7855858 C11.3782905,12.7598075 12.0021411,12.7450167 12.623029,12.6609205 C13.2430705,12.553159 13.8736929,12.4441297 14.5110871,12.3338326 C15.1438257,12.2007155 15.7651369,11.9953347 16.3961826,11.80559 C17.6400747,11.3842636 18.8793112,10.8796862 20.0571784,10.2686151 C21.2325062,9.65162762 22.3477344,8.93490795 23.4096349,8.18691632 C24.4702656,7.43554393 25.4352448,6.59796234 26.332083,5.73587029 C26.5530124,5.525841 26.7993361,5.27608787 26.9969876,5.06605858 C27.1861743,4.86828452 27.3745145,4.67262343 27.5611618,4.47823013 C27.9314938,4.08521757 28.318332,3.73488703 28.7068631,3.41413808 C29.4839253,2.76925941 30.2842656,2.2722887 31.0799502,1.95999163 C31.8227303,1.6662887 32.6890954,1.49725105 33.3836266,1.53401674 C33.7493029,1.49725105 34.0743485,1.58346025 34.3888133,1.62783264 C34.5471037,1.6519205 34.6990456,1.67431799 34.8454855,1.69629289 C34.9792282,1.74531381 35.1083154,1.79053138 35.229361,1.83279079 C35.472722,1.92702929 35.7101577,1.98746025 35.9056929,2.08043096 C36.0957261,2.18861506 36.2574025,2.28031799 36.3873361,2.35511715 C36.6497427,2.5034477 36.7885643,2.5824728 36.7885643,2.5824728 C36.7885643,2.5824728 36.6793693,2.46625941 36.4740996,2.24651046 C36.3712531,2.13705858 36.2451286,2.00140586 36.0957261,1.84251046 C35.9395519,1.69122176 35.7139668,1.55725941 35.4701826,1.38653138 C35.3453278,1.30285774 35.2128548,1.21580335 35.0744564,1.12367782 C34.9250539,1.05986611 34.7688797,0.99267364 34.6076266,0.922523013 C34.279195,0.777573222 33.9164813,0.619523013 33.5012863,0.566276151 C33.0581577,0.456824268 32.5947137,0.394702929 32.0952946,0.394702929 C31.6517427,0.394702929 31.1802573,0.443723849 30.6694108,0.553598326" id="path-22"></path>
        <linearGradient x1="0.00066616732%" y1="49.9988566%" x2="99.999856%" y2="49.9988566%" id="linearGradient-24">
            <stop stop-color="#E9CBAB" offset="0%"></stop>
            <stop stop-color="#FDF7EA" offset="100%"></stop>
        </linearGradient>
    </defs>
    <g id="Symbols" stroke="none" stroke-width="1" fill="none" fill-rule="evenodd">
        <g id="3-menu-_-podstrony" transform="translate(-909.000000, -17.000000)">
            <g id="Menu">
                <g id="Group-5">
                    <g id="Group-4">
                        <g id="logo_poprawne" transform="translate(909.000000, 17.000000)">
                            <g id="Group">
                                <polygon id="Fill-1" fill="#FEFEFE" points="30.7598564 74.9398025 28.4997734 74.9398025 28.4997734 80.8523172 26.7839726 80.8523172 26.7839726 74.9398025 24.513732 74.9398025 24.513732 73.4353674 30.7598564 73.4353674"></polygon>
                                <g id="Group-34" transform="translate(0.000000, 0.305113)">
                                    <path d="M38.4215378,80.5471197 L36.7010813,80.5471197 L36.7010813,77.8712536 C36.7010813,77.4013289 36.4657618,77.202287 36.1487577,77.202287 C35.9227494,77.202287 35.5151726,77.4642954 35.3518033,77.880128 L35.3518033,80.5471197 L33.6317701,80.5471197 L33.6317701,73.9478895 L35.3518033,73.9478895 L35.3518033,76.4969774 C35.6870066,75.9818351 36.2575295,75.7016552 36.9275129,75.7016552 C38.2674797,75.7016552 38.4215378,76.7230653 38.4215378,77.4195004 L38.4215378,80.5471197 Z" id="Fill-2" fill="#FEFEFE"></path>
                                    <path d="M44.4948124,79.2273159 C44.6302481,79.1368808 44.7208207,79.0101025 44.7208207,78.8930439 L44.7208207,78.5406004 C44.5214763,78.4679142 44.2501817,78.4133996 44.0601485,78.4133996 C43.6432606,78.4133996 43.3266797,78.6487845 43.3266797,78.9560105 C43.3266797,79.2184414 43.5619992,79.4081862 43.8878913,79.4081862 C44.0965469,79.4081862 44.3314432,79.3359226 44.4948124,79.2273159 M41.7056838,79.1102573 C41.7056838,78.1518138 42.5572357,77.4824247 43.7613436,77.4824247 C44.132522,77.4824247 44.4766133,77.5458138 44.7208207,77.663295 L44.7208207,77.5187678 C44.7208207,77.0754665 44.4766133,76.8590983 43.8972025,76.8590983 C43.3626548,76.8590983 42.9284141,77.039546 42.4213768,77.3742406 L41.9232274,76.3071904 C42.5572357,75.9002322 43.253883,75.701613 44.0690365,75.701613 C45.5808373,75.701613 46.4412772,76.388751 46.4412772,77.7266841 L46.4412772,78.6487845 C46.4412772,78.974182 46.5407378,79.0827887 46.8577419,79.1009603 L46.8577419,80.5470774 C46.5407378,80.6104665 46.260132,80.6379351 46.0430116,80.6379351 C45.4272025,80.6379351 45.1195095,80.4118473 45.0289369,79.9774205 L44.9925386,79.8058473 C44.5671859,80.3480356 43.9966631,80.6379351 43.371966,80.6379351 C42.4213768,80.6379351 41.7056838,79.9867176 41.7056838,79.1102573" id="Fill-4" fill="#FEFEFE"></path>
                                    <mask id="mask-3" fill="white">
                                        <use xlink:href="#path-2"></use>
                                    </mask>
                                    <g id="Clip-7"></g>
                                    <path d="M50.1895021,80.5472887 L51.9095353,80.5472887 L51.9095353,75.7922594 L50.1895021,75.7922594 L50.1895021,80.5472887 Z M50.1895021,75.3941757 L51.9095353,75.3941757 L51.9095353,73.947636 L50.1895021,73.947636 L50.1895021,75.3941757 Z" id="Fill-6" fill="#FEFEFE" mask="url(#mask-3)"></path>
                                    <path d="M60.0069809,77.4758745 L58.0296199,77.4758745 L58.0296199,79.0952552 L59.933761,79.0952552 C60.3730805,79.0952552 60.7078606,78.7715481 60.7078606,78.3012008 C60.7078606,77.8414184 60.4149809,77.4758745 60.0069809,77.4758745 Z M58.0296199,74.5929372 L58.0296199,76.1286444 L59.7141012,76.1286444 C60.0903585,76.1286444 60.4361427,75.878046 60.4361427,75.3552971 C60.4361427,74.8646653 60.1428398,74.5929372 59.7767402,74.5929372 L58.0296199,74.5929372 Z M59.933761,80.5472887 L56.3138191,80.5472887 L56.3138191,73.1303389 L60.4463004,73.1303389 C61.4925411,73.1303389 62.1413627,74.0917406 62.1413627,75.03159 C62.1413627,75.7318285 61.7752631,76.4316444 61.0739602,76.7452092 C61.9212797,76.9953849 62.4549809,77.6432218 62.4549809,78.6464603 C62.4549809,79.9205816 61.3147817,80.5472887 59.933761,80.5472887 Z" id="Fill-8" fill="#FEFEFE" mask="url(#mask-3)"></path>
                                    <path d="M67.806722,79.2273159 C67.9421577,79.1368808 68.0327303,79.0101025 68.0327303,78.8930439 L68.0327303,78.5406004 C67.8333859,78.4679142 67.5620913,78.4133996 67.3720581,78.4133996 C66.9551701,78.4133996 66.6385892,78.6487845 66.6385892,78.9560105 C66.6385892,79.2184414 66.8739087,79.4081862 67.1998008,79.4081862 C67.4084564,79.4081862 67.6433527,79.3359226 67.806722,79.2273159 M65.0175934,79.1102573 C65.0175934,78.1518138 65.8691452,77.4824247 67.0732531,77.4824247 C67.4444315,77.4824247 67.7885228,77.5458138 68.0327303,77.663295 L68.0327303,77.5187678 C68.0327303,77.0754665 67.7885228,76.8590983 67.209112,76.8590983 C66.6745643,76.8590983 66.2403237,77.039546 65.7332863,77.3742406 L65.2351369,76.3071904 C65.8691452,75.9002322 66.5657925,75.701613 67.3809461,75.701613 C68.8927469,75.701613 69.7531867,76.388751 69.7531867,77.7266841 L69.7531867,78.6487845 C69.7531867,78.974182 69.8526473,79.0827887 70.1696515,79.1009603 L70.1696515,80.5470774 C69.8526473,80.6104665 69.5720415,80.6379351 69.3549212,80.6379351 C68.739112,80.6379351 68.4314191,80.4118473 68.3408465,79.9774205 L68.3044481,79.8058473 C67.8790954,80.3480356 67.3085726,80.6379351 66.6838755,80.6379351 C65.7332863,80.6379351 65.0175934,79.9867176 65.0175934,79.1102573" id="Fill-9" fill="#FEFEFE" mask="url(#mask-3)"></path>
                                    <path d="M73.0066481,73.947805 L74.7266813,73.947805 L74.7266813,78.5405582 C74.7266813,78.8930017 74.8811627,79.0827464 75.1706564,79.0827464 C75.3154033,79.0827464 75.4965485,79.0282318 75.6417187,78.9470937 L75.858839,80.3306669 C75.4512622,80.5204117 74.8900506,80.6378929 74.4371876,80.6378929 C73.5229967,80.6378929 73.0066481,80.1493741 73.0066481,79.2636167 L73.0066481,73.947805 Z" id="Fill-10" fill="#FEFEFE" mask="url(#mask-3)"></path>
                                    <path d="M78.5395768,80.5472887 L80.25961,80.5472887 L80.25961,75.7922594 L78.5395768,75.7922594 L78.5395768,80.5472887 Z M78.5395768,75.3941757 L80.25961,75.3941757 L80.25961,73.947636 L78.5395768,73.947636 L78.5395768,75.3941757 Z" id="Fill-11" fill="#FEFEFE" mask="url(#mask-3)"></path>
                                    <polygon id="Fill-12" fill="#FEFEFE" mask="url(#mask-3)" points="40.6027718 94.2359582 40.6036183 94.2359582 40.6036183 88.1700418 40.6027718 88.1700418"></polygon>
                                    <path d="M48.4142788,90.156995 C48.4142788,91.3613883 48.033366,92.3557523 47.2072083,93.1168444 C46.424644,93.8563841 45.7466191,94.2582711 44.6250423,94.827928 C45.5350008,96.7731289 46.9321046,97.745518 48.8375154,97.745518 C46.9321046,97.745518 45.5358473,96.7731289 44.6250423,94.827928 C45.7474656,94.2582711 46.424644,93.8563841 47.2080548,93.1168444 C48.0342124,92.3557523 48.4142788,91.3613883 48.4142788,90.156995 C48.4142788,87.0289531 45.599756,85.4645096 39.9677477,85.4645096 C45.5989095,85.4645096 48.4142788,87.0289531 48.4142788,90.156995" id="Fill-13" fill="#FEFEFE" mask="url(#mask-3)"></path>
                                    <polygon id="Fill-14" fill="#FEFEFE" mask="url(#mask-3)" points="58.6116548 88.2544762 58.6108083 88.2544762 58.6108083 97.0900745"></polygon>
                                    <path d="M63.3317154,86.0565218 C62.0835909,85.6973167 60.4532838,85.46489 59.3736075,85.4010782 C58.8445618,85.3803711 58.3146697,85.3592414 57.7856241,85.3592414 L57.7852008,85.3592414 C58.3146697,85.3592414 58.8437154,85.3803711 59.372761,85.4010782 C60.4524373,85.46489 62.0827444,85.6973167 63.3317154,86.0565218 C64.6022714,86.416572 66.0201137,87.1138523 66.9309187,88.0224297 C67.8616158,88.9314297 68.4964705,90.3048607 68.4964705,91.9745301 C68.4964705,98.9076096 58.3354083,100.239204 56.0914083,100.345697 L55.6482797,100.365982 L56.0922548,100.345697 C58.3354083,100.239204 68.497317,98.9076096 68.497317,91.9745301 C68.497317,90.3048607 67.8624622,88.9314297 66.9309187,88.0224297 C66.0209602,87.1138523 64.6031178,86.416572 63.3317154,86.0565218" id="Fill-15" fill="#FEFEFE" mask="url(#mask-3)"></path>
                                    <path d="M53.9750564,88.8262325 L53.8057618,88.8888715 L53.9759029,88.8262325 C54.2082598,88.7204234 54.8850149,88.5511288 55.6472639,88.4453197 C54.8850149,88.5511288 54.2074133,88.7204234 53.9750564,88.8262325" id="Fill-16" fill="#FEFEFE" mask="url(#mask-3)"></path>
                                    <polygon id="Fill-17" fill="#FEFEFE" mask="url(#mask-3)" points="84.0116017 88.2544762 84.0116017 88.2544762 84.0116017 85.5701582"></polygon>
                                    <polygon id="Fill-18" fill="#FEFEFE" mask="url(#mask-3)" points="77.8721328 93.4123222 77.8729793 93.4123222 77.8729793 88.2545607 77.8721328 88.2545607"></polygon>
                                    <path d="M98.9827892,94.1947552 L98.9827892,94.19391 C96.9300921,90.1141862 93.8815195,87.1560272 89.8391876,85.3591569 C93.8815195,87.1564498 96.9300921,90.1150314 98.9827892,94.1947552" id="Fill-19" fill="#FEFEFE" mask="url(#mask-3)"></path>
                                    <path d="M7.38843983,90.8544444 L7.38843983,93.5387623 L10.3087718,93.5387623 L10.3087718,97.1320803 L9.90627386,97.0686912 C8.38304564,96.7732979 3.0693112,95.3990218 3.0693112,91.4676285 C3.0693112,89.1632226 4.76225726,88.1701264 8.63656432,88.1701264 L8.63741079,88.1701264 C10.0759917,88.1701264 11.3677095,88.2757749 12.53161,88.4667874 L12.53161,85.5703272 L12.129112,85.5280678 C11.6000664,85.4646787 10.3295104,85.3805824 9.20878008,85.3805824 C3.07015768,85.3805824 0,87.3464904 0,91.2554862 C0,93.3908544 1.14316183,95.3140803 2.60459751,96.5620008 C3.34441494,97.1743397 4.21247303,97.7241347 5.22908714,98.2308251 C6.26686307,98.7383607 7.19756017,99.119118 8.02329461,99.3946494 C8.86976763,99.6684904 9.75941079,99.9013397 10.6693693,100.112637 C11.5793278,100.302382 12.1938672,100.428737 12.5112946,100.471842 C12.8278755,100.535231 13.0813942,100.556783 13.2722739,100.57749 L13.2722739,90.8544444 L7.38843983,90.8544444 Z" id="Fill-20" fill="#FEFEFE" mask="url(#mask-3)"></path>
                                    <path d="M27.4045643,96.2441678 C26.4522822,95.8849628 25.4365145,95.6943728 24.313668,95.652536 L25.7323568,92.3558791 L25.7332033,92.3558791 L27.4054108,96.2441678 L27.4045643,96.2441678 Z M20.9485145,95.9272222 C19.678805,96.1816238 18.6198672,96.518854 17.7733942,96.9211636 L18.3240249,99.1190757 L18.4713112,99.0561092 C18.6621909,98.9504607 19.19039,98.7180339 19.7621826,98.5485736 L19.763029,98.5485736 L18.9381411,100.366151 L22.3024481,100.366151 L23.3398008,97.9138372 C23.5522656,97.8931301 23.8696929,97.8931301 24.2929295,97.8931301 C25.7539419,97.8931301 27.0879834,98.0617452 28.3153693,98.379536 L29.1618423,100.366151 L32.5485809,100.366151 L25.7323568,85.3589879 L20.9485145,95.9272222 Z" id="Fill-21" fill="#FEFEFE" mask="url(#mask-3)"></path>
                                    <path d="M41.0902979,88.1702954 L41.0894515,88.1702954 C43.9264058,88.1702954 45.3450946,88.8675757 45.3450946,90.2418519 C45.3450946,91.171559 44.5828456,91.9960402 43.7571112,92.4401866 C43.3546133,92.6717682 42.8264141,92.946877 42.1691278,93.3065046 C41.512688,93.6450025 41.0060739,93.9615255 40.6035759,94.2362117 C41.0060739,93.9619481 41.5135344,93.6450025 42.1699743,93.3065046 C42.8264141,92.946877 43.3554598,92.6717682 43.7579577,92.4401866 C44.5836921,91.9960402 45.3450946,91.171559 45.3450946,90.2418519 C45.3450946,88.8675757 43.9264058,88.1702954 41.0902979,88.1702954" id="Fill-22" fill="#FEFEFE" mask="url(#mask-3)"></path>
                                    <path d="M39.9677477,85.4647209 C38.4013494,85.4647209 36.9826606,85.5496623 35.691366,85.7394071 L35.691366,88.6350222 L35.691366,85.7394071 C36.9826606,85.5496623 38.4013494,85.4647209 39.9677477,85.4647209" id="Fill-23" fill="#FEFEFE" mask="url(#mask-3)"></path>
                                    <path d="M43.757873,92.4399753 C43.3553751,92.6719795 42.8263295,92.9466657 42.1698896,93.3067159 C41.5134498,93.6452138 41.0059892,93.9621594 40.6034913,94.2360004 L40.6026448,94.2360004 L40.6026448,88.1700841 L40.6034913,88.1700841 L41.0893668,88.1700841 L41.0902133,88.1700841 C43.9263212,88.1700841 45.34501,88.867787 45.34501,90.2420632 C45.34501,91.1713477 44.5836075,91.9958289 43.757873,92.4399753 Z M50.1504373,97.6184439 L48.8375577,97.7456448 C46.9321469,97.7456448 45.5350432,96.7732556 44.6250846,94.8276322 C45.7466614,94.2583979 46.4246863,93.8565109 47.2072506,93.1169711 C48.0334083,92.3558791 48.4143212,91.3610925 48.4143212,90.1571218 C48.4143212,87.0286573 45.5989519,85.4646364 39.96779,85.4646364 C38.4013917,85.4646364 36.9827029,85.5495778 35.6914083,85.7397452 L35.6914083,88.6349377 L37.6391427,88.3813812 L37.6399892,88.3813812 L37.6399892,100.366151 L40.6026448,100.366151 L40.6026448,98.5058916 C40.6026448,97.5550548 41.1532755,96.7517033 42.2541137,96.054423 L42.2541137,96.0548456 L42.2541137,96.054423 C42.7412589,97.068649 43.2914664,97.8931301 44.3085037,98.8862264 C45.3234249,99.8797452 46.8906697,100.493352 48.6682631,100.493352 C49.1973087,100.493352 49.7056158,100.450247 50.1504373,100.366151 L50.1504373,97.6184439 Z" id="Fill-24" fill="#FEFEFE" mask="url(#mask-3)"></path>
                                    <path d="M57.7849892,85.3590724 C55.9439104,85.3590724 54.6098689,85.4862732 53.8057195,85.7394071 L53.8057195,88.8885787 L53.8057195,85.7394071 C54.6107154,85.4862732 55.9439104,85.3590724 57.7849892,85.3590724" id="Fill-25" fill="#FEFEFE" mask="url(#mask-3)"></path>
                                    <polygon id="Fill-26" fill="#FEFEFE" mask="url(#mask-3)" points="55.6471369 100.366109 55.6479834 100.366109 55.6479834 88.4451506 55.6471369 88.4451506"></polygon>
                                    <path d="M63.6912971,89.2903389 C64.6435793,89.8185816 65.4274133,90.8759121 65.4274133,92.228636 C65.4908988,94.215251 63.9245004,95.4204895 62.4423261,96.1177699 C61.490044,96.6041757 60.1771643,96.8573096 59.4995627,96.9629582 C59.1829817,97.0276151 58.8867162,97.0686067 58.6116124,97.090159 C58.8867162,97.0686067 59.1829817,97.0276151 59.5004091,96.9629582 C60.1780108,96.8573096 61.4908905,96.6041757 62.4431726,96.1177699 C63.9245004,95.4204895 65.4908988,94.215251 65.4282598,92.228636 C65.4282598,90.8759121 64.6444257,89.8185816 63.6921436,89.2903389 C63.2054216,89.0156527 62.6340523,88.8043556 61.9560274,88.6564477 C60.6228324,88.318795 59.7331892,88.2545607 58.6331975,88.2545607 L58.632351,88.2545607 C59.7331892,88.2545607 60.6219859,88.318795 61.9551809,88.6564477 C62.6332058,88.8043556 63.2045751,89.0156527 63.6912971,89.2903389" id="Fill-27" fill="#FEFEFE" mask="url(#mask-3)"></path>
                                    <path d="M58.6108083,88.2544762 L58.6116548,88.2544762 L58.6323934,88.2544762 L58.6332398,88.2544762 C59.7332315,88.2544762 60.6228747,88.3187105 61.9560697,88.6563632 C62.6340946,88.8042711 63.2050407,89.0155682 63.6921859,89.2902544 C64.644468,89.8184971 65.4278788,90.8758276 65.4278788,92.2285515 C65.4909411,94.2151665 63.9245427,95.420405 62.4432149,96.1176854 C61.4909328,96.6040912 60.1780531,96.8572251 59.5004515,96.9628736 C59.1830241,97.0275305 58.8867585,97.0685222 58.6116548,97.0900745 L58.6108083,97.0900745 L58.6108083,88.2544762 Z M68.4963436,91.9745724 C68.4963436,90.3049029 67.8614888,88.931472 66.9307917,88.022472 C66.0199867,87.1138946 64.6021444,86.4161916 63.3315884,86.056564 C62.0826174,85.697359 60.4527336,85.4645096 59.3730573,85.4011205 C58.8440116,85.3804134 58.314966,85.3588611 57.7850739,85.3588611 C55.943995,85.3588611 54.6108,85.4860619 53.8053809,85.7396184 L53.8053809,88.8883674 L53.9750988,88.8258234 C54.2074556,88.7201749 54.8850573,88.5507146 55.6473062,88.4450661 L55.6481527,100.366024 L56.0912813,100.345317 C58.3357046,100.238823 68.4963436,98.9076519 68.4963436,91.9745724 Z" id="Fill-28" fill="#FEFEFE" mask="url(#mask-3)"></path>
                                    <polygon id="Fill-29" fill="#FEFEFE" mask="url(#mask-3)" points="74.9086307 93.4123222 74.9094772 93.4123222 74.9094772 85.5702427 74.9086307 85.5702427"></polygon>
                                    <polygon id="Fill-30" fill="#FEFEFE" mask="url(#mask-3)" points="74.9095618 85.5703695 74.9095618 93.412449 74.9087154 93.412449 72.982566 93.412449 72.982566 96.0122481 74.9087154 96.0122481 74.9095618 96.0122481 74.9095618 100.366236 84.0116863 100.366236 84.0116863 97.6810724 77.8730639 97.6810724 77.8722174 97.6810724 77.8722174 96.0122481 77.8730639 96.0122481 81.3863502 96.0122481 81.9369809 93.412449 77.8730639 93.412449 77.8722174 93.412449 77.8722174 88.2546874 77.8730639 88.2546874 84.0116863 88.2546874 84.0116863 85.5703695"></polygon>
                                    <path d="M98.9835934,85.5703695 L98.9827469,85.5703695 L98.9827469,94.1938255 C98.9827469,94.1938255 98.9827469,94.1942481 98.9835934,94.1946707 L98.9835934,85.5703695 Z" id="Fill-31" fill="#FEFEFE" mask="url(#mask-3)"></path>
                                    <path d="M88.3993793,88.0010887 L89.8392299,85.3590301 L89.8383834,85.3590301 L88.3985328,88.0010887 C88.8010307,88.1282895 89.2881759,88.3188795 89.8599685,88.5927205 L89.8599685,100.366193 L89.8599685,88.5927205 C89.2881759,88.3188795 88.8010307,88.1282895 88.3993793,88.0010887" id="Fill-32" fill="#FEFEFE" mask="url(#mask-3)"></path>
                                    <path d="M98.9835934,85.5703695 L98.9835934,94.1946707 C98.9827469,94.1942481 98.9827469,94.1938255 98.9827469,94.1938255 L98.9827469,94.1946707 C96.9300498,90.1149469 93.8814772,87.1563653 89.8395685,85.3590724 L88.3992946,88.001131 C88.8009461,88.1283318 89.2880913,88.3189218 89.8598838,88.5927628 L89.8598838,100.366236 L92.8225394,100.366236 L92.8225394,90.4952816 L92.8233859,90.4952816 C93.691444,91.2348213 94.5171784,92.0808548 95.2578423,93.0532439 C95.9985062,94.0040808 96.5923071,94.8708213 97.0155436,95.6521979 C97.4379336,96.4141351 97.8196929,97.2166414 98.1587054,98.0411226 C98.4968714,98.8656038 98.7084896,99.4153987 98.7935602,99.6900849 L98.9835934,100.366236 L101.947095,100.366236 L101.947095,85.5703695 L98.9835934,85.5703695 Z" id="Fill-33" fill="#FEFEFE" mask="url(#mask-3)"></path>
                                </g>
                                <g id="Group-37" transform="translate(23.278008, 38.338586)">
                                    <mask id="mask-5" fill="white">
                                        <use xlink:href="#path-4"></use>
                                    </mask>
                                    <g id="Clip-36"></g>
                                    <path d="M0.0554439834,1.11269038 C0.0554439834,1.19298326 0.071526971,1.27031799 0.0943817427,1.34258159 L0.0926887967,1.34258159 C1.69082988,7.37722594 8.23448963,10.6007741 8.23448963,10.6007741 C8.28697095,10.6269749 8.34580083,10.6443013 8.40843983,10.6443013 C8.61963485,10.6443013 8.79273859,10.4706151 8.79273859,10.259318 C8.79273859,10.1456402 8.74237344,10.0442176 8.66492116,9.97448954 L8.66111203,9.97237657 L8.60270539,9.92969456 C3.32325311,6.19184937 1.87578423,1.99337657 1.59856432,1.01507113 C1.59009959,0.941117155 1.5740166,0.870121339 1.54523651,0.804619247 L1.54523651,0.80292887 C1.42461411,0.528665272 1.15120332,0.336384937 0.832082988,0.336384937 C0.403344398,0.336384937 0.0554439834,0.68460251 0.0554439834,1.11269038" id="Fill-35" fill="url(#linearGradient-6)" mask="url(#mask-5)"></path>
                                </g>
                                <g id="Group-40" transform="translate(19.045643, 37.915992)">
                                    <mask id="mask-8" fill="white">
                                        <use xlink:href="#path-7"></use>
                                    </mask>
                                    <g id="Clip-39"></g>
                                    <path d="M0.308962656,1.18748954 C0.308962656,1.31130962 0.336896266,1.42879079 0.385991701,1.53528452 L0.384298755,1.53528452 C2.7760083,7.30580753 8.98912033,11.2883347 9.51393361,11.6158452 C9.57699585,11.6627531 9.65529461,11.6910669 9.74036515,11.6910669 C9.95367635,11.6910669 10.1259336,11.5178033 10.1259336,11.3069289 C10.1259336,11.1421172 10.019278,11.0018159 9.8719917,10.9477238 C4.80585062,7.60796234 2.48058921,2.28623431 1.98709544,1.03028452 C1.96974274,0.936891213 1.93376763,0.849414226 1.88763485,0.770389121 L1.88424896,0.758979079 L1.88255602,0.759824268 C1.73526971,0.511338912 1.46693776,0.342301255 1.15628216,0.342301255 C0.689029046,0.342301255 0.308962656,0.71925523 0.308962656,1.18748954" id="Fill-38" fill="url(#linearGradient-9)" mask="url(#mask-8)"></path>
                                </g>
                                <g id="Group-43" transform="translate(8.041494, 49.748628)">
                                    <mask id="mask-11" fill="white">
                                        <use xlink:href="#path-10"></use>
                                    </mask>
                                    <g id="Clip-42"></g>
                                    <path d="M3.47815768,0.566276151 C3.06423237,0.619523013 2.70109544,0.777573222 2.37351037,0.922523013 C2.21141079,0.99267364 2.05523651,1.05986611 1.90583402,1.12367782 C1.76785892,1.21580335 1.63580913,1.30285774 1.51010788,1.38653138 C1.26674689,1.55725941 1.04116183,1.69122176 0.884987552,1.84251046 C0.736008299,2.00140586 0.609883817,2.13705858 0.506190871,2.24651046 C0.300497925,2.46625941 0.192149378,2.5824728 0.192149378,2.5824728 C0.192149378,2.5824728 0.330970954,2.5034477 0.59253112,2.35511715 C0.723311203,2.28031799 0.884987552,2.18861506 1.07502075,2.08043096 C1.27013278,1.98746025 1.50714523,1.92702929 1.75219917,1.83279079 C1.87282158,1.79053138 2.000639,1.74531381 2.13565145,1.69629289 C2.28209129,1.67431799 2.43360996,1.6519205 2.59190041,1.62783264 C2.90636515,1.58346025 3.23141079,1.49725105 3.59708714,1.53401674 C4.29119502,1.49725105 5.15882988,1.6662887 5.89991701,1.95999163 C6.69644813,2.2722887 7.49678838,2.76925941 8.27427386,3.41413808 C8.66195851,3.73488703 9.04921992,4.08521757 9.41955187,4.47823013 C9.60577593,4.67262343 9.79369295,4.86828452 9.9833029,5.06605858 C10.1818008,5.27608787 10.427278,5.525841 10.6477842,5.73587029 C11.5463154,6.59796234 12.5104481,7.43554393 13.5710788,8.18691632 C14.632556,8.93490795 15.7482075,9.65162762 16.9239585,10.2686151 C18.1018257,10.8796862 19.340639,11.3842636 20.5849544,11.80559 C21.2155768,11.9953347 21.8373112,12.2007155 22.4692033,12.3338326 C23.107444,12.4441297 23.7363734,12.553159 24.3568382,12.6609205 C24.9781494,12.7450167 25.6028465,12.7598075 26.2063817,12.7855858 C26.5094191,12.7898117 26.8069544,12.8164351 27.101527,12.8020669 C27.3969461,12.7762887 27.6877095,12.7496653 27.9755104,12.7251548 C28.5477261,12.6630335 29.1063983,12.6448619 29.6358672,12.5468201 C30.1585643,12.4137029 30.6630622,12.2860795 31.1472448,12.162682 C32.1244979,11.9813891 32.9349959,11.5216067 33.6684647,11.2211423 C34.0273693,11.0483013 34.3833112,10.9401172 34.6702656,10.7440335 C34.9576432,10.5559791 35.2225892,10.3827155 35.4625643,10.2272008 C36.4089212,9.59922594 36.9206141,9.22861088 36.9206141,9.22861088 C36.9206141,9.22861088 36.2916846,9.41624268 35.245444,9.76657322 C34.7252863,9.95251464 34.100166,10.171841 33.345112,10.2981967 C32.5955602,10.4275105 31.7901411,10.6920544 30.8645228,10.7199456 C30.41039,10.7600921 29.9384813,10.8010837 29.4483734,10.8429205 C28.9595353,10.8564435 28.4516515,10.8230586 27.9365726,10.8150293 C27.6775519,10.8086904 27.4168382,10.8010837 27.1531618,10.7943222 C26.8882158,10.7761506 26.6224232,10.7178326 26.3545145,10.6810669 C25.8212365,10.5796444 25.2689129,10.560205 24.7195519,10.4363849 C24.1744232,10.3011548 23.6208299,10.1633891 23.0587718,10.0252008 C22.5064481,9.85616318 21.9562407,9.64106276 21.3924896,9.46948954 C20.281917,9.06337657 19.1726141,8.57992887 18.1107137,8.0005523 C17.0246888,7.46470293 15.9843734,6.82869874 14.9889212,6.16311297 C14.0074357,5.47893305 13.023834,4.80912134 12.1617012,4.06958159 C11.9373859,3.88364017 11.7570871,3.72474477 11.5386971,3.52612552 C11.3071867,3.31525105 11.071444,3.12043515 10.8386639,2.92519665 C10.3726805,2.53767782 9.88257261,2.18396653 9.38950207,1.86702092 C8.41436515,1.21453556 7.34357676,0.766585774 6.31087967,0.553598326 C5.8000332,0.443723849 5.32812448,0.394702929 4.88457261,0.394702929 C4.38515353,0.394702929 3.92170954,0.456824268 3.47815768,0.566276151" id="Fill-41" fill="url(#linearGradient-12)" mask="url(#mask-11)"></path>
                                </g>
                                <g id="Group-46" transform="translate(69.410788, 38.338586)">
                                    <mask id="mask-14" fill="white">
                                        <use xlink:href="#path-13"></use>
                                    </mask>
                                    <g id="Clip-45"></g>
                                    <path d="M7.50144398,0.80292887 L7.50144398,0.804619247 C7.47308714,0.870121339 7.45742739,0.941117155 7.44811618,1.01507113 C7.1713195,1.99337657 5.72342739,6.19184937 0.445244813,9.92969456 L0.385991701,9.97237657 L0.382605809,9.97448954 C0.30473029,10.0442176 0.255211618,10.1456402 0.255211618,10.259318 C0.255211618,10.4706151 0.427045643,10.6443013 0.639510373,10.6443013 C0.701726141,10.6443013 0.76013278,10.6269749 0.812190871,10.6007741 C0.812190871,10.6007741 7.35585062,7.37722594 8.95441494,1.34258159 L8.95272199,1.34258159 C8.976,1.27031799 8.99165975,1.19298326 8.99165975,1.11269038 C8.99165975,0.68460251 8.64375934,0.336384937 8.21459751,0.336384937 C7.89547718,0.336384937 7.62248963,0.528665272 7.50144398,0.80292887" id="Fill-44" fill="url(#linearGradient-15)" mask="url(#mask-14)"></path>
                                </g>
                                <g id="Group-49" transform="translate(72.373444, 37.915992)">
                                    <mask id="mask-17" fill="white">
                                        <use xlink:href="#path-16"></use>
                                    </mask>
                                    <g id="Clip-48"></g>
                                    <path d="M8.43425726,0.759824268 L8.43171784,0.758979079 L8.42875519,0.770389121 C8.38219917,0.849414226 8.34749378,0.936891213 8.32887137,1.03028452 C7.8366473,2.28623431 5.51011618,7.60796234 0.443975104,10.9477238 C0.29753527,11.0018159 0.190879668,11.1421172 0.190879668,11.3069289 C0.190879668,11.5178033 0.363136929,11.6910669 0.576448133,11.6910669 C0.661518672,11.6910669 0.739394191,11.6627531 0.802456432,11.6158452 C1.32726971,11.2883347 7.54080498,7.30580753 9.93209129,1.53528452 L9.93082158,1.53528452 C9.97949378,1.42879079 10.0082739,1.31130962 10.0082739,1.18748954 C10.0082739,0.71925523 9.62778423,0.342301255 9.16053112,0.342301255 C8.84945228,0.342301255 8.58154357,0.511338912 8.43425726,0.759824268" id="Fill-47" fill="url(#linearGradient-18)" mask="url(#mask-17)"></path>
                                </g>
                                <g id="Group-52" transform="translate(15.236515, 0.305113)">
                                    <mask id="mask-20" fill="white">
                                        <use xlink:href="#path-19"></use>
                                    </mask>
                                    <g id="Clip-51"></g>
                                    <path d="M35.6314357,0.117481172 L33.126722,2.36864017 C32.3818257,3.21087029 31.6153444,4.04676151 30.882722,4.91434728 C30.2317842,5.8360251 29.5457178,6.74206695 28.9189046,7.68656485 C28.3661577,8.67543515 27.7706639,9.64782427 27.2513527,10.661205 C26.8090705,11.7083933 26.33039,12.7467071 25.931278,13.8146025 C25.609195,14.9070084 25.240556,15.9926527 24.9565643,17.0998494 C24.941751,17.1788745 24.9260913,17.2566318 24.9108548,17.3360795 C24.1676515,17.1611255 23.4125975,17.0254728 22.6571203,16.9101046 L21.4233859,16.8260084 L20.8075768,16.7879749 L20.7288548,16.7850167 L20.6907635,16.7807908 L20.5760664,16.783749 L20.4334357,16.7879749 L20.1481743,16.7985397 C19.3867718,16.8276987 18.6511867,16.8298117 17.7611203,16.9785649 C16.0271203,17.1598577 14.4992365,17.6792259 12.9383402,18.2725481 L12.0106058,18.6249916 L11.9699751,19.5589247 L11.8815187,21.5801925 C11.8222656,22.2533849 11.9208797,22.9236192 11.9725145,23.5938536 C12.0415021,24.2632427 12.059278,24.9389707 12.2425394,25.5889205 L12.6970954,27.5497573 C12.8960166,28.1882971 13.150805,28.8090879 13.3772365,29.4370628 L13.5533029,29.9048745 L13.6400664,30.1389916 L13.6853527,30.2560502 L13.707361,30.313523 L13.7564564,30.4200167 L13.7695768,30.445795 L14.2182075,31.2706987 C14.5356349,31.8221841 14.7734938,32.362682 15.1560996,32.9255774 L16.3437012,34.5965146 C16.7326556,35.1589874 17.2350373,35.5853849 17.6739336,36.0810879 L18.3544979,36.7969623 L19.1125145,37.4287406 C19.6297095,37.8361213 20.0999253,38.2954812 20.6619834,38.638205 L22.321917,39.6718703 C22.8818589,39.9989582 23.4955519,40.2351883 24.080888,40.5060711 C24.6581826,40.7955481 25.2778008,40.9861381 25.8944564,41.1678536 C26.5140747,41.3432301 27.1049129,41.5879121 27.7452697,41.670318 L29.3565311,41.9348619 C29.6705726,42.404364 29.9867303,42.8717531 30.2956929,43.3454812 C31.0046141,44.2561715 31.7567054,45.13559 32.4876349,46.0314895 L34.0845062,47.6149498 C33.008639,48.9410502 31.8548963,49.9983808 30.6998838,50.8461046 C29.2388714,48.3553347 28.1397261,47.1027657 28.1397261,47.1027657 C25.9118091,43.8356904 20.4838008,44.913728 20.4838008,44.913728 C16.7610124,46.127841 13.6811203,40.2981548 13.6811203,40.2981548 C13.5672697,40.0762929 13.338722,39.9207782 13.0716598,39.9207782 C12.6941328,39.9207782 12.3881328,40.2275816 12.3881328,40.6053808 C12.3881328,40.6751088 12.4004066,40.7393431 12.4211452,40.801887 L12.4198755,40.8035774 C12.4198755,40.8035774 14.1157842,47.4315439 20.8308548,46.4075983 C20.8308548,46.4075983 24.9032365,45.6135439 26.7121494,48.6777741 C26.7121494,48.6777741 27.6072946,49.9810544 28.7830456,52.075431 C24.9227054,54.2133347 21.5160747,54.2353096 21.5160747,54.2353096 C6.5013361,53.5490167 2.15046473,39.1470084 1.796639,37.8813389 C1.72892116,37.5187531 1.41234025,37.2423766 1.02846473,37.2423766 C0.596340249,37.2423766 0.247593361,37.5922845 0.247593361,38.0229079 C0.247593361,38.1382762 0.274257261,38.2473054 0.319543568,38.3466151 C0.890489627,40.7330042 5.08391701,55.5652134 21.3772531,56.4577322 C21.3772531,56.4577322 25.5499419,56.6085983 29.9850373,54.324477 C31.8756349,58.0580962 33.9503402,63.1448619 34.2973942,68.0173724 C34.2973942,68.0173724 34.3291369,68.0756904 34.3833112,68.172887 L34.3905062,68.172887 L36.8719419,68.172887 L36.8787137,68.172887 C36.9345809,68.0756904 36.9654772,68.0173724 36.9654772,68.0173724 C37.3125311,63.1448619 39.3872365,58.0580962 41.277834,54.324477 C45.7133527,56.6085983 49.8860415,56.4577322 49.8860415,56.4577322 C66.1785311,55.5652134 70.3719585,40.7330042 70.9429046,38.3466151 C70.9886141,38.2473054 71.015278,38.1382762 71.015278,38.0229079 C71.015278,37.5922845 70.6661079,37.2423766 70.2348299,37.2423766 C69.8509544,37.2423766 69.5339502,37.5187531 69.4666556,37.8813389 C69.1132531,39.1470084 64.761112,53.5490167 49.7467967,54.2353096 C49.7467967,54.2353096 46.340166,54.2133347 42.478556,52.075431 C43.6551535,49.9810544 44.5502988,48.6777741 44.5502988,48.6777741 C46.3596349,45.6135439 50.4315934,46.4075983 50.4315934,46.4075983 C57.1462407,47.4315439 58.8429959,40.8035774 58.8429959,40.8035774 L58.8421494,40.801887 C58.861195,40.7393431 58.8747386,40.6751088 58.8747386,40.6053808 C58.8747386,40.2275816 58.5687386,39.9207782 58.1907884,39.9207782 C57.9233029,39.9207782 57.6951784,40.0762929 57.5821743,40.2981548 L57.5809046,40.2981548 C57.5809046,40.2981548 54.5018589,46.127841 50.7786473,44.913728 C50.7786473,44.913728 45.350639,43.8356904 43.1235685,47.1027657 C43.1235685,47.1027657 42.024,48.3553347 40.5634108,50.8461046 C39.4075519,49.9983808 38.2542324,48.9410502 37.1783651,47.6149498 L38.7752365,46.0314895 C39.5065892,45.1368577 40.2574108,44.2561715 40.9680249,43.3454812 C41.2816432,42.866682 41.6011867,42.3925314 41.9181909,41.9166904 L43.5091369,41.6386234 C44.1456846,41.551569 44.7335602,41.3005481 45.3493693,41.1213682 C45.9617925,40.9333138 46.5784481,40.7380753 47.1498174,40.444795 C47.7292282,40.166728 48.3420747,39.9343013 48.8960913,39.60341 L50.5429046,38.5634059 C51.0960747,38.2160335 51.5675602,37.76259 52.0792531,37.354364 L52.8304979,36.721318 L53.5025975,36.0058661 C53.9381079,35.5110084 54.4324481,35.0799623 54.8197095,34.5246736 L55.9929212,32.8659916 C56.3704481,32.3081674 56.6074606,31.7617531 56.9215021,31.2094226 L57.3659004,30.3840962 L57.3798672,30.3578954 L57.4234606,30.259431 L57.4467386,30.2023808 L57.4911784,30.0857448 L57.5800581,29.853318 L57.7573942,29.3897322 C57.9817095,28.7659833 58.2335353,28.1481506 58.4290705,27.5129916 L58.8730456,25.5652552 C59.0567303,24.9191088 59.0660415,24.2476067 59.143917,23.5845565 C59.2031701,22.9181255 59.294166,22.2508494 59.2357593,21.582728 L59.1519585,19.5754059 L59.1159834,18.7014812 L58.2690871,18.4027071 C57.4530871,18.1153431 56.6574025,17.7502218 55.8062739,17.5672385 L54.5433361,17.2473347 L53.2067552,17.0550544 L52.5393112,16.9663096 L51.9353527,16.9422218 L50.7312448,16.896159 L50.5835353,16.8932008 L50.5014274,16.8970042 L50.3401743,16.9071464 L50.0159751,16.925318 L49.368,16.9654644 C48.9362988,16.9916653 48.503751,17.0081464 48.0792448,17.0939331 C47.5032199,17.1788745 46.9326971,17.2802971 46.3685228,17.4138368 C46.3490539,17.3103013 46.3291618,17.2059205 46.3101162,17.1023849 C46.0235851,15.9909623 45.6553693,14.9086987 45.3311701,13.8133347 C44.9341743,12.7467071 44.4542241,11.7067029 44.0132116,10.6607824 C43.4939004,9.64697908 42.8979834,8.67458996 42.3456598,7.68529707 C41.7188465,6.74122176 41.0310871,5.83475732 40.3809959,4.91392469 C39.6509129,4.04887448 38.8857012,3.21636402 38.1412282,2.37286611 L35.6314357,0.117481172 L37.9139502,2.5824728 C38.5885892,3.47245607 39.2873527,4.34046444 39.9442158,5.23636402 C40.5210871,6.18804603 41.1305477,7.11606276 41.6773693,8.07619665 C42.1484315,9.08028033 42.6618174,10.0598536 43.0956349,11.0732343 C43.460888,12.1145063 43.883278,13.1333808 44.2134025,14.1818368 C44.4698838,15.2505774 44.7733444,16.3104435 44.9938506,17.3774937 C45.0099336,17.5118787 45.0294025,17.643728 45.0488714,17.7768452 C44.3877759,17.9788452 43.7516515,18.2484603 43.1087552,18.4939874 C41.5487054,19.2153556 40.0280166,20.0415272 38.7041328,21.1330879 C38.0053693,21.6300586 37.4187635,22.2593013 36.7877178,22.8340293 C36.4216183,23.2553556 36.036473,23.6606234 35.6758755,24.0870209 C35.565834,23.9534812 35.4557925,23.8241674 35.3364398,23.6986569 C34.3067054,22.439749 33.0450373,21.3972092 31.7473942,20.4146778 C30.3900747,19.5187782 28.9705394,18.6811967 27.4253029,18.1246402 C27.03,17.962364 26.6279253,17.818682 26.221195,17.690636 C26.2355851,17.5883682 26.2508216,17.4835649 26.2639419,17.3796067 C26.4857178,16.3074854 26.788332,15.2505774 27.0469295,14.1814142 C27.375361,13.1325356 27.7985975,12.1136611 28.1630041,11.0715439 C28.597668,10.059431 29.1114772,9.07943515 29.5833859,8.07450628 C30.1302075,7.11564017 30.739668,6.18677824 31.3178091,5.23509623 C31.9708631,4.34257741 32.6679336,3.47668201 33.3434191,2.58627615 L35.6314357,0.117481172 Z M42.8658174,40.444795 C43.3897842,39.4153556 43.9628465,38.4087364 44.439834,37.3581674 C44.8465643,36.2780167 45.2973112,35.2130795 45.6600249,34.1198285 C45.9495187,33.0033347 46.2826058,31.8978285 46.5301992,30.773728 C46.6994938,29.6344142 46.9013776,28.4989038 47.038083,27.3583222 L47.1671701,23.9129121 L46.9229627,20.5173682 C46.9026473,20.3821381 46.8785228,20.2464854 46.857361,20.1116778 C47.3775187,20.0056067 47.9014855,19.9248912 48.4305311,19.8729121 C48.7966307,19.8031841 49.1699253,19.8019163 49.5406805,19.7888159 L50.5869212,19.7503598 L51.7914523,19.8238912 L52.3916017,19.8623473 L52.9155685,19.9548954 L53.9643485,20.1222427 L55.0393693,20.3914351 C55.4816515,20.4772218 55.9036183,20.6335816 56.3234689,20.7916318 L56.3793361,21.6448494 C56.4555187,22.2238033 56.3725643,22.8019121 56.3552116,23.3825565 C56.3137344,23.9615105 56.3437842,24.5510293 56.2053859,25.1202636 L55.8998091,26.8436025 C55.7537925,27.4086109 55.5536017,27.9600962 55.3843071,28.5229916 L55.2581826,28.9434728 L55.1942739,29.1547699 L55.1629544,29.260841 L55.1477178,29.3140879 L55.1430622,29.3271883 C55.1396763,29.3352176 55.1506805,29.3115523 55.1616846,29.287887 C55.1756515,29.2570377 55.1896183,29.2266109 55.173112,29.262954 L55.1697261,29.2705607 L55.1578755,29.2971841 L54.7714606,30.1512469 C54.5065145,30.704 54.2779668,31.3298619 53.981278,31.8226067 L53.0848631,33.2906987 C52.8046805,33.7948536 52.3784813,34.2330837 52.0318506,34.7123054 L51.4820664,35.419728 L50.8527137,36.0536192 C50.4167801,36.4601548 50.0367137,36.9385314 49.5643817,37.3087238 L48.1520415,38.4412762 C47.6665892,38.8009038 47.1375436,39.0971423 46.6292365,39.4369079 C46.1277012,39.7931548 45.577917,40.0547406 45.0222075,40.314636 C44.4643817,40.5656569 43.9268714,40.8906318 43.3330705,41.0567113 L42.219112,41.4585983 C42.439195,41.1230586 42.6563154,40.786251 42.8658174,40.444795 Z M16.2463568,29.2591506 L16.2306971,29.206749 L16.1989544,29.1023682 L16.1346224,28.8931841 L16.0059585,28.4756611 C15.840473,27.916569 15.643668,27.3693096 15.5006141,26.8085272 L15.2039253,25.0953305 C15.0651037,24.5320126 15.1053112,23.9458745 15.0553693,23.3719916 C15.0291286,22.796841 14.9529461,22.2229582 15.0291286,21.6473849 L15.0769544,20.8884059 C16.0931452,20.5423013 17.143195,20.244795 18.1411867,20.1061841 C18.7531867,19.9646151 19.5425228,19.9316527 20.3030788,19.8843222 C20.6734108,19.8492469 21.0928382,19.8695314 21.5164979,19.8898159 C21.8000664,19.9033389 22.085751,19.9172845 22.3595851,19.9143264 C23.03761,19.9848996 23.717751,20.0727992 24.3919668,20.197887 C24.3758838,20.2925481 24.3589544,20.3859414 24.345834,20.4806025 L24.0986639,23.9572845 L24.2230954,27.3152176 C24.3559917,28.4587573 24.5621079,29.6175105 24.732249,30.7707699 C24.982805,31.898251 25.3141992,33.0012218 25.6036929,34.1198285 C25.9672531,35.2126569 26.418,36.2775941 26.8247303,37.3581674 C27.3017178,38.4078912 27.870971,39.4162008 28.3979004,40.4439498 C28.6010539,40.7761088 28.8126722,41.1053096 29.0255602,41.4307071 L27.9382656,41.0258619 C27.3474274,40.8534435 26.8141494,40.5225523 26.2601328,40.2668828 C25.7073859,40.0023389 25.1622573,39.7369498 24.6653776,39.3760544 C24.1634191,39.028682 23.6352199,38.7366695 23.1535768,38.3723933 L21.756473,37.2347699 C21.2921826,36.8586611 20.9108465,36.387046 20.4799917,35.9792427 L19.8586805,35.3445063 L19.3169378,34.6366611 C18.9741162,34.1582845 18.5563817,33.716251 18.2783154,33.2201255 L17.3945975,31.7647113 C17.103834,31.2740795 16.876556,30.6439916 16.6133029,30.0912385 L16.2366224,29.245205 C16.2425477,29.2570377 16.2472033,29.2671799 16.2493195,29.2714059 L16.2463568,29.2591506 Z M39.3195187,41.7654017 L39.6352531,40.6108745 L39.8375602,39.430569 C40.0060083,38.6458117 40.0026224,37.8428828 40.0707635,37.0458703 L40.0902324,36.7475188 L40.0804979,36.4119791 L40.062722,35.8418996 C40.0453693,35.4581841 40.0479087,35.0888368 40.0132033,34.6932887 C39.8862324,33.8899372 39.8460249,33.0358745 39.629751,32.2692887 L39.3491452,31.0948996 C39.2437593,30.7065356 39.0930871,30.3321172 38.9669627,29.9492469 C38.7329129,29.1758996 38.3655436,28.454954 38.0290705,27.7200628 C37.7323817,27.1250502 37.3916763,26.5507448 37.04039,25.9827782 C37.2261909,25.74359 37.4276515,25.5145439 37.6430788,25.2985983 C37.9050622,25.0277155 38.155195,24.7445774 38.4247967,24.482569 C39.0029378,23.9999665 39.5324066,23.4603138 40.1659917,23.0508201 C41.3574025,22.1308326 42.7181079,21.4635565 44.0953195,20.8981255 C44.5337925,20.7396527 44.9798838,20.5947029 45.4272448,20.4653891 C45.4327469,20.5097615 45.438249,20.5532887 45.4441743,20.5976611 L45.5669129,23.9129121 L45.327361,27.1782971 C45.1644149,28.2563347 44.9544896,29.3254979 44.7733444,30.3980418 C44.5143237,31.453682 44.1753112,32.4915732 43.883278,33.5370711 C43.5192946,34.5601715 43.0693942,35.5528452 42.6685892,36.5607322 C42.1924481,37.5352343 41.6562075,38.4814226 41.1572116,39.4453598 C40.5837261,40.3653473 39.951834,41.2511046 39.3538008,42.157569 C39.2763485,42.2564561 39.1942407,42.3523849 39.1146722,42.4495816 C39.1874689,42.2226485 39.2573029,41.9948703 39.3195187,41.7654017 Z M31.9069544,42.1579916 C31.3097676,41.2515272 30.6774523,40.3657699 30.1039668,39.4453598 C29.6062407,38.4814226 29.0666141,37.5369247 28.5908963,36.5624226 C28.1909378,35.5545356 27.7406141,34.5614393 27.375361,33.5379163 C27.0845975,32.4932636 26.7451618,31.4519916 26.4874108,30.4014226 C26.3079585,29.3428243 26.1022656,28.2964812 25.9338174,27.2214017 L25.6921494,23.8698075 L25.8127718,20.6335816 C25.8161577,20.601887 25.82039,20.5710377 25.8246224,20.5380753 C26.0413195,20.601887 26.2601328,20.6703473 26.4751369,20.7472594 C27.8278008,21.1504142 29.0733859,21.8392427 30.2893444,22.5606109 C31.4439336,23.371569 32.5976763,24.2260544 33.5338755,25.3036695 C33.785278,25.5453933 34.0083237,25.8107824 34.2233278,26.0842008 C33.6028631,27.0768745 33.0886307,28.1358954 32.6154523,29.2008326 C32.3543154,30.00841 32.0009129,30.7851381 31.8388133,31.6210293 L31.5442407,32.8558494 L31.3664813,34.1443389 L31.2814108,34.7871046 L31.258556,35.3901464 L31.2158091,36.5936946 C31.2204647,37.098272 31.2636349,37.4591674 31.2864896,37.8965523 C31.3169627,38.3166109 31.3271203,38.7379372 31.4147303,39.1516569 C31.5463568,39.9837448 31.6792531,40.8137197 31.9336183,41.6179163 C32.0026058,41.9209163 32.0969876,42.2184226 32.1964481,42.5117029 C32.1003734,42.392954 32.0009129,42.2767406 31.9069544,42.1579916 Z M33.182166,38.9319079 C33.1127552,38.5553766 33.1191037,38.1716611 33.1042905,37.7900586 C33.0954025,37.426205 33.0683154,36.9845941 33.0721245,36.6875105 L33.1525394,35.4856527 L33.1944398,34.8872594 L33.2900913,34.3395774 L33.4763154,33.2480167 L33.7785062,32.1496946 C33.9422988,31.4067741 34.2906224,30.7230167 34.5390622,30.0096778 C34.86961,29.3339498 35.2124315,28.6607573 35.5941909,28.0133431 C35.7469793,28.2588703 35.8959585,28.5069331 36.0339336,28.7592218 C36.3509378,29.3994519 36.7043402,30.0236234 36.9337344,30.704 C37.0573195,31.0399623 37.2071452,31.3674728 37.3121079,31.7085063 L37.5977925,32.7468201 C37.8229544,33.4407197 37.8614689,34.1219414 38.0104481,34.8120377 C38.0578506,35.1725105 38.0684315,35.5663682 38.099751,35.9412092 L38.1386888,36.5104435 C38.1441909,36.5831297 38.155195,36.7475188 38.155195,36.746251 L38.1463071,37.0158661 C38.1073693,37.7351213 38.1441909,38.463251 38.0125643,39.1761674 L37.8690871,40.2512469 L37.6210705,41.3077322 C37.2917925,42.720887 36.7326971,44.0727657 36.0601743,45.3621004 C35.9116183,45.6101632 35.7694108,45.8620293 35.6225477,46.1117824 C34.2906224,43.9282385 33.4280664,41.4755021 33.182166,38.9319079 Z M31.9530871,53.1445941 C33.2388797,52.2563013 34.4958921,51.1283975 35.6314357,49.7017197 C36.7674025,51.1283975 38.0239917,52.2563013 39.3097842,53.1445941 C38.0663154,55.5973305 36.727195,58.797636 35.6314357,62.7391715 C34.5352531,58.797636 33.196556,55.5973305 31.9530871,53.1445941 Z M16.2497427,29.2726736 C16.2510124,29.2752092 16.2510124,29.2747866 16.2493195,29.2714059 L16.2497427,29.2726736 Z" id="Fill-50" fill="url(#linearGradient-21)" mask="url(#mask-20)"></path>
                                </g>
                                <g id="Group-55" transform="translate(56.713693, 49.748628)">
                                    <mask id="mask-23" fill="white">
                                        <use xlink:href="#path-22"></use>
                                    </mask>
                                    <g id="Clip-54"></g>
                                    <path d="M30.6694108,0.553598326 C29.6375602,0.766585774 28.5663485,1.21453556 27.5912116,1.86702092 C27.0985643,2.18396653 26.6080332,2.53767782 26.1416266,2.92519665 C25.9092697,3.12043515 25.6726805,3.31525105 25.4420166,3.52612552 C25.2240498,3.72474477 25.0433278,3.88364017 24.8185892,4.06958159 C23.9573029,4.80912134 22.973278,5.47893305 21.9917925,6.16311297 C20.995917,6.82869874 19.9551784,7.46470293 18.87,8.0005523 C17.8076763,8.57992887 16.6987967,9.06337657 15.5886473,9.46948954 C15.024473,9.64106276 14.4738423,9.85616318 13.9210954,10.0252008 C13.3607303,10.1633891 12.8062905,10.3011548 12.2603154,10.4363849 C11.7118008,10.560205 11.1594772,10.5796444 10.6257759,10.6810669 C10.3587137,10.7178326 10.0920747,10.7761506 9.82755187,10.7943222 C9.56345228,10.8010837 9.30316183,10.8086904 9.04414108,10.8150293 C8.52906224,10.8230586 8.02075519,10.8564435 7.53276349,10.8429205 C7.04223237,10.8010837 6.56947718,10.7600921 6.11619087,10.7199456 C5.19057261,10.6920544 4.38473029,10.4275105 3.6360249,10.2981967 C2.88054772,10.171841 2.25542739,9.95251464 1.73526971,9.76657322 C0.689029046,9.41624268 0.0600995851,9.22861088 0.0600995851,9.22861088 C0.0600995851,9.22861088 0.571792531,9.59922594 1.51814938,10.2272008 C1.75812448,10.3827155 2.0226473,10.5559791 2.31044813,10.7440335 C2.59697925,10.9401172 2.95376763,11.0483013 3.31224896,11.2211423 C4.04614108,11.5216067 4.85579253,11.9813891 5.83431535,12.162682 C6.31765145,12.2860795 6.82214938,12.4137029 7.34569295,12.5468201 C7.87473859,12.6448619 8.43341079,12.6630335 9.00478008,12.7251548 C9.29300415,12.7496653 9.58376763,12.7762887 9.87876349,12.8020669 C10.1737593,12.8164351 10.4712946,12.7898117 10.774332,12.7855858 C11.3782905,12.7598075 12.0021411,12.7450167 12.623029,12.6609205 C13.2430705,12.553159 13.8736929,12.4441297 14.5110871,12.3338326 C15.1438257,12.2007155 15.7651369,11.9953347 16.3961826,11.80559 C17.6400747,11.3842636 18.8793112,10.8796862 20.0571784,10.2686151 C21.2325062,9.65162762 22.3477344,8.93490795 23.4096349,8.18691632 C24.4702656,7.43554393 25.4352448,6.59796234 26.332083,5.73587029 C26.5530124,5.525841 26.7993361,5.27608787 26.9969876,5.06605858 C27.1861743,4.86828452 27.3745145,4.67262343 27.5611618,4.47823013 C27.9314938,4.08521757 28.318332,3.73488703 28.7068631,3.41413808 C29.4839253,2.76925941 30.2842656,2.2722887 31.0799502,1.95999163 C31.8227303,1.6662887 32.6890954,1.49725105 33.3836266,1.53401674 C33.7493029,1.49725105 34.0743485,1.58346025 34.3888133,1.62783264 C34.5471037,1.6519205 34.6990456,1.67431799 34.8454855,1.69629289 C34.9792282,1.74531381 35.1083154,1.79053138 35.229361,1.83279079 C35.472722,1.92702929 35.7101577,1.98746025 35.9056929,2.08043096 C36.0957261,2.18861506 36.2574025,2.28031799 36.3873361,2.35511715 C36.6497427,2.5034477 36.7885643,2.5824728 36.7885643,2.5824728 C36.7885643,2.5824728 36.6793693,2.46625941 36.4740996,2.24651046 C36.3712531,2.13705858 36.2451286,2.00140586 36.0957261,1.84251046 C35.9395519,1.69122176 35.7139668,1.55725941 35.4701826,1.38653138 C35.3453278,1.30285774 35.2128548,1.21580335 35.0744564,1.12367782 C34.9250539,1.05986611 34.7688797,0.99267364 34.6076266,0.922523013 C34.279195,0.777573222 33.9164813,0.619523013 33.5012863,0.566276151 C33.0581577,0.456824268 32.5947137,0.394702929 32.0952946,0.394702929 C31.6517427,0.394702929 31.1802573,0.443723849 30.6694108,0.553598326" id="Fill-53" fill="url(#linearGradient-24)" mask="url(#mask-23)"></path>
                                </g>
                            </g>
                        </g>
                    </g>
                </g>
            </g>
        </g>
    </g>
</svg>