<?xml version="1.0" encoding="UTF-8" standalone="no"?>
<svg width="53px" height="53px" viewBox="0 0 53 53" version="1.1" xmlns="http://www.w3.org/2000/svg" xmlns:xlink="http://www.w3.org/1999/xlink">
    <!-- Generator: Sketch 50.2 (55047) - http://www.bohemiancoding.com/sketch -->
    <title>player-hover</title>
    <desc>Created with Sketch.</desc>
    <defs>
        <linearGradient x1="-0.937944523%" y1="50%" x2="100%" y2="50%" id="linearGradient-1">
            <stop stop-color="#EACBAB" offset="0%"></stop>
            <stop stop-color="#FDF7EA" offset="100%"></stop>
        </linearGradient>
    </defs>
    <g id="player-hover" stroke="none" stroke-width="1" fill="none" fill-rule="evenodd">
        <g id="player" fill="url(#linearGradient-1)">
            <g id="player-hover">
                <path d="M26.5,53 C11.8644541,53 0,41.1355459 0,26.5 C0,11.8644541 11.8644541,0 26.5,0 C41.1355459,0 53,11.8644541 53,26.5 C53,41.1355459 41.1355459,53 26.5,53 Z M20.273,19 C20.223,19 20.173,19.015 20.13,19.042 C20.05,19.091 20,19.179 20,19.272 L20,34.193 C20,34.288 20.05,34.375 20.13,34.424 C20.173,34.45 20.223,34.465 20.273,34.465 C20.314,34.465 20.355,34.455 20.394,34.436 L35.31,26.976 C35.403,26.929 35.46,26.835 35.46,26.733 C35.46,26.631 35.402,26.536 35.31,26.49 L20.394,19.029 C20.355,19.01 20.314,19 20.273,19 Z" id="Combined-Shape"></path>
            </g>
        </g>
    </g>
</svg>