<?xml version="1.0" encoding="UTF-8" standalone="no"?>
<svg width="46px" height="45px" viewBox="0 0 46 45" version="1.1" xmlns="http://www.w3.org/2000/svg" xmlns:xlink="http://www.w3.org/1999/xlink">
    <!-- Generator: Sketch 47.1 (45422) - http://www.bohemiancoding.com/sketch -->
    <title>icon-random</title>
    <desc>Created with Sketch.</desc>
    <defs>
        <polygon id="path-1" points="0 45 0 0 44.1596939 0 44.1596939 45"></polygon>
    </defs>
    <g id="Page-1" stroke="none" stroke-width="1" fill="none" fill-rule="evenodd">
        <g id="Desktop-HD-Copy-14" transform="translate(-254.000000, -1022.000000)">
            <g id="Group-5" transform="translate(252.000000, 1018.000000)">
                <g id="icon-random-copy-11" transform="translate(0.000000, 4.000000)">
                    <g id="Page-1" transform="translate(2.500000, 0.000000)">
                        <g id="Group-3">
                            <mask id="mask-2" fill="white">
                                <use xlink:href="#path-1"></use>
                            </mask>
                            <g id="Clip-2"></g>
                        </g>
                        <path d="M20.2504964,28.3650521 L20.249732,28.3650521 C19.9332905,28.3650521 19.6359578,28.2428125 19.4120028,28.0217249 C19.4066523,28.0164429 19.4005375,28.0156883 19.395187,28.0104064 C19.3921296,28.0073881 19.3913653,28.0036153 19.3883079,28.000597 L14.6791382,23.3517193 C14.6692016,23.3404009 14.6653799,23.3260641 14.6546789,23.3155002 C14.1930106,22.8582335 14.1930106,22.1157412 14.6554433,21.6584745 C14.8793983,21.4366323 15.1774954,21.3143927 15.4947013,21.3143927 L15.4954656,21.3143927 C15.8119071,21.3143927 16.1100042,21.4358777 16.3354879,21.6577199 C16.3416027,21.6637565 16.3492463,21.6652656 16.3553611,21.6705475 L19.6634744,24.9385705 C19.812523,25.0857107 20.008197,25.1596581 20.2038709,25.1596581 C20.3995449,25.1596581 20.5952189,25.0857107 20.7442675,24.9385705 C20.7480892,24.9347976 20.7496179,24.9287611 20.7534397,24.9249883 L28.877732,16.8994303 C28.880025,16.8971666 28.8807894,16.8933937 28.8838468,16.89113 C28.9029556,16.8752842 28.9266504,16.8684931 28.9449949,16.8503835 C29.4051345,16.3953805 30.1587851,16.394626 30.6219821,16.8511381 C30.8482302,17.0729803 30.9712908,17.3665063 30.9728195,17.6796509 C30.9728195,17.992041 30.8497589,18.2870761 30.6258039,18.5089183 C30.6166316,18.5179731 30.6135742,18.5308007 30.604402,18.5406101 C30.5937011,18.5496649 30.5799428,18.5534377 30.5700062,18.5632471 L21.1791835,27.9243859 C21.1631321,27.9402318 21.1570173,27.9613596 21.143259,27.9787146 C21.1272076,27.9945605 21.1050414,28.0028607 21.0905187,28.0202157 C20.8657994,28.242058 20.5677023,28.363543 20.2504964,28.3650521 M31.7012465,15.7826734 C30.643384,14.7383548 28.9205356,14.7391094 27.8626731,15.7849371 C27.8603801,15.7872008 27.8596157,15.7902191 27.8573227,15.7932373 C27.8382139,15.8083286 27.814519,15.8151197 27.7969389,15.8324747 L20.2015779,23.3358735 L17.4025226,20.5703911 C17.3849426,20.5530361 17.362012,20.5469996 17.3436676,20.5319083 C16.8384312,20.0663414 16.1887324,19.8052618 15.4954656,19.8052618 L15.4939369,19.8052618 C14.767803,19.8052618 14.0860014,20.0852056 13.5738859,20.5922735 C12.5450688,21.6079186 12.5251956,23.2385345 13.4966864,24.2888896 C13.5180882,24.3175631 13.5295535,24.350764 13.5555415,24.3764192 L18.3075148,29.0675526 C18.3128653,29.0720799 18.3189801,29.0735891 18.3243306,29.078871 C18.327388,29.0818893 18.3281523,29.0856621 18.3312097,29.0886804 C18.8433252,29.5949938 19.5251268,29.8726739 20.249732,29.8726739 L20.2512607,29.8726739 C20.9766303,29.8726739 21.6576675,29.5942392 22.1705474,29.0871713 C22.2041789,29.0547249 22.2339886,29.0215241 22.2637983,28.9883232 C22.2645626,28.9875686 22.265327,28.9875686 22.2660913,28.9868141 L31.6569141,19.6256752 C31.6660863,19.6166204 31.6691437,19.6037928 31.6775516,19.594738 C31.6867238,19.5856832 31.6989534,19.5834195 31.7081256,19.5743648 C32.2210055,19.0665422 32.5015225,18.3919607 32.4999938,17.6766327 C32.4999938,16.9613046 32.2164194,16.2882323 31.7012465,15.7826734" id="Fill-6" fill="#FF4A04"></path>
                    </g>
                    <g id="Oval" transform="translate(2.500000, 0.000000)" fill="#FF4A04">
                        <path d="M22.5,43.125 C33.890873,43.125 43.125,33.890873 43.125,22.5 C43.125,11.109127 33.890873,1.875 22.5,1.875 C11.109127,1.875 1.875,11.109127 1.875,22.5 C1.875,33.890873 11.109127,43.125 22.5,43.125 Z M22.5,45 C10.0735931,45 0,34.9264069 0,22.5 C0,10.0735931 10.0735931,0 22.5,0 C34.9264069,0 45,10.0735931 45,22.5 C45,34.9264069 34.9264069,45 22.5,45 Z" fill-rule="nonzero"></path>
                        <path d="M22.5,38.125 C31.1294492,38.125 38.125,31.1294492 38.125,22.5 C38.125,13.8705508 31.1294492,6.875 22.5,6.875 C13.8705508,6.875 6.875,13.8705508 6.875,22.5 C6.875,31.1294492 13.8705508,38.125 22.5,38.125 Z M22.5,40 C12.8350169,40 5,32.1649831 5,22.5 C5,12.8350169 12.8350169,5 22.5,5 C32.1649831,5 40,12.8350169 40,22.5 C40,32.1649831 32.1649831,40 22.5,40 Z" fill-rule="nonzero"></path>
                    </g>
                </g>
            </g>
        </g>
    </g>
</svg>