<?xml version="1.0" encoding="UTF-8" standalone="no"?>
<svg width="26px" height="26px" viewBox="0 0 26 26" version="1.1" xmlns="http://www.w3.org/2000/svg" xmlns:xlink="http://www.w3.org/1999/xlink">
    <!-- Generator: Sketch 47.1 (45422) - http://www.bohemiancoding.com/sketch -->
    <title>Fill 1 Copy 3</title>
    <desc>Created with Sketch.</desc>
    <defs></defs>
    <g id="Page-1" stroke="none" stroke-width="1" fill="none" fill-rule="evenodd">
        <g id="Desktop-HD-Copy-27" transform="translate(-112.000000, -402.000000)" fill="#6BC905">
            <path d="M130.626367,412.336068 L123.817823,419.144493 C123.613316,419.348693 123.343905,419.451703 123.077074,419.451703 C122.808118,419.451703 122.541136,419.348768 122.336097,419.144493 L119.374923,416.183447 C118.965606,415.773605 118.965606,415.110905 119.374923,414.701595 C119.784317,414.292285 120.447028,414.292285 120.856497,414.701595 L123.077074,416.922892 L129.14578,410.853989 C129.554262,410.445134 130.216898,410.445134 130.626367,410.853989 C131.03576,411.263982 131.03576,411.926758 130.626367,412.336068 M125,402 C117.83262,402 112,407.831379 112,414.999545 C112,422.167634 117.83224,428 125,428 C132.168898,428 138,422.16809 138,414.999545 C138,407.831379 132.169278,402 125,402" id="Fill-1-Copy-3"></path>
        </g>
    </g>
</svg>