<?xml version="1.0" encoding="UTF-8" standalone="no"?>
<svg width="80px" height="80px" viewBox="0 0 80 80" version="1.1" xmlns="http://www.w3.org/2000/svg" xmlns:xlink="http://www.w3.org/1999/xlink">
    <!-- Generator: Sketch 47.1 (45422) - http://www.bohemiancoding.com/sketch -->
    <title>loupe</title>
    <desc>Created with Sketch.</desc>
    <defs></defs>
    <g id="Page-1" stroke="none" stroke-width="1" fill="none" fill-rule="evenodd">
        <g id="Desktop-HD-Copy-10" transform="translate(-973.000000, -1158.000000)" fill="#FFFFFF">
            <g id="loupe" transform="translate(973.000000, 1158.000000)">
                <g id="Group-3">
                    <path d="M68.5065772,46.6701208 C58.8083221,56.3687785 43.0283221,56.3687785 33.3300671,46.6701208 C28.6319463,41.9721342 26.0445638,35.7258255 26.0445638,29.0816644 C26.0445638,22.4376376 28.6319463,16.1914631 33.3300671,11.4934765 C38.1791946,6.64434899 44.5487248,4.21965101 50.9183893,4.21965101 C57.2879195,4.21965101 63.6577181,6.64408054 68.5068456,11.4934765 C73.2048322,16.1914631 75.7922148,22.4377718 75.7922148,29.0816644 C75.7922148,35.7256913 73.204698,41.9721342 68.5065772,46.6701208 L68.5065772,46.6701208 Z M24.7091275,62.3267651 L17.6732886,55.2909262 L20.5969128,52.3671678 L27.6327517,59.4031409 L24.7091275,62.3267651 Z M12.6041611,74.4313289 C11.6645638,75.3710604 10.4154362,75.8886443 9.08630872,75.8886443 C7.75744966,75.8886443 6.50805369,75.3709262 5.56832215,74.4311946 C4.62885906,73.4917315 4.11127517,72.2423356 4.11127517,70.9136107 C4.11127517,69.5850201 4.62885906,68.3353557 5.56845638,67.3956242 L14.765906,58.198443 L21.801745,65.2340134 L12.6041611,74.4313289 Z M71.4138255,8.58595973 C60.1124832,-2.71524832 41.7240268,-2.71524832 30.4226846,8.58595973 C24.9479195,14.0605906 21.9330201,21.3395168 21.9330201,29.0816644 C21.9330201,36.1345503 24.4362416,42.8022013 29.0202685,48.0725369 L25.5683221,51.5244832 L22.0504698,48.0064966 C21.6649664,47.6209933 21.1421477,47.4044832 20.5969128,47.4044832 C20.0518121,47.4044832 19.5288591,47.6209933 19.1433557,48.0064966 L2.66161074,64.4883758 C0.945234899,66.2044832 0,68.4862282 0,70.9134765 C0,73.3404564 0.945234899,75.6224698 2.66120805,77.338443 C4.37758389,79.054953 6.65932886,80.0000537 9.08630872,80.0000537 C11.5131544,80.0000537 13.795302,79.0548188 15.5114094,77.3385772 L31.9934228,60.8569664 C32.3787919,60.4715973 32.5954362,59.9486443 32.5954362,59.4034094 C32.5954362,58.858443 32.3787919,58.3353557 31.9934228,57.9499866 L28.4754362,54.432 L31.9283221,50.9791141 C37.358255,55.6942819 44.1375839,58.0534765 50.918255,58.0534765 C58.3406711,58.0534765 65.7633557,55.2281074 71.4138255,49.5775034 C76.8881879,44.1028725 79.9032215,36.8242148 79.9032215,29.0820671 C79.9032215,21.3393826 76.8884564,14.0605906 71.4138255,8.58595973 L71.4138255,8.58595973 Z" id="Fill-1"></path>
                </g>
                <path d="M62.2510985,40.2513937 C56.0470373,46.4553133 45.9526951,46.4553133 39.7487677,40.2515275 C33.5447066,34.0474742 33.5447066,23.9530108 39.7486339,17.7489574 C42.8507983,14.6465294 46.9246299,13.0961181 50.9999331,13.0961181 C55.074166,13.0961181 59.1494693,14.6474659 62.2510985,17.7489574 C68.4551596,23.952877 68.4551596,34.0473404 62.2510985,40.2513937 M65.1487084,14.8512174 C57.3470085,7.04979487 44.6528577,7.04939352 36.8511579,14.8512174 C29.0495918,22.6530413 29.0495918,35.3470423 36.8512916,43.1487324 C40.7521416,47.0493099 45.8759036,49 50.9999331,49 C56.1240964,49 61.2479922,47.0493099 65.1488421,43.1487324 L65.1488421,43.1485986 C72.9504082,35.3471761 72.9504082,22.6530413 65.1487084,14.8512174" id="Fill-4"></path>
                <path d="M59.380258,21.3196123 C55.0348785,16.8934626 47.9651215,16.8934626 43.619742,21.3196123 C42.7934193,22.1615154 42.7934193,23.5263528 43.619742,24.3686782 C44.4462029,25.2104406 45.7860063,25.2104406 46.6128817,24.3686782 C49.3074122,21.6233787 53.692726,21.6233787 56.3875328,24.3686782 C56.8008323,24.7897002 57.3423639,25 57.8838954,25 C58.4254269,25 58.9672348,24.7895594 59.380258,24.3686782 C60.2065807,23.5267751 60.2065807,22.1616562 59.380258,21.3196123" id="Fill-6"></path>
            </g>
        </g>
    </g>
</svg>