<?xml version="1.0" encoding="UTF-8" standalone="no"?>
<svg width="28px" height="29px" viewBox="0 0 28 29" version="1.1" xmlns="http://www.w3.org/2000/svg" xmlns:xlink="http://www.w3.org/1999/xlink">
    <!-- Generator: Sketch 50.2 (55047) - http://www.bohemiancoding.com/sketch -->
    <title>icon-random copy 2</title>
    <desc>Created with Sketch.</desc>
    <defs></defs>
    <g id="Symbols" stroke="none" stroke-width="1" fill="none" fill-rule="evenodd">
        <g id="Footer" transform="translate(-1127.000000, -165.000000)">
            <g id="icon-random-copy-2" transform="translate(1125.000000, 165.000000)">
                <path d="M15.9767526,0.816765679 C23.4693506,0.816765679 29.5425567,6.93304858 29.5425567,14.4767768 C29.5425567,22.0212263 23.4693506,28.1364271 15.9767526,28.1364271 C8.48433373,28.1364271 2.4111276,22.0212263 2.4111276,14.4767768 C2.4111276,6.93304858 8.48433373,0.816765679 15.9767526,0.816765679" id="Fill-1" fill="#FFFFFF"></path>
                <path d="M17.4080008,9.42481418 L19.156405,9.42481418 L19.156405,6.82439303 L17.1011972,6.82439303 L17.1011972,6.83377106 C14.6109481,6.92250171 14.1006834,8.33209265 14.0555494,9.81237955 L14.0505346,9.81237955 L14.0505346,11.1110572 L12.3547867,11.1110572 L12.3547867,13.657735 L14.0505346,13.657735 L14.0505346,20.4842238 L16.6059772,20.4842238 L16.6059772,13.657735 L18.6993339,13.657735 L19.1037487,11.1110572 L16.6066936,11.1110572 L16.6066936,10.3265484 C16.6066936,9.82608591 16.937497,9.42481418 17.4080008,9.42481418" id="Fill-4" fill="#000000"></path>
            </g>
        </g>
    </g>
</svg>