<?xml version="1.0" encoding="UTF-8" standalone="no"?>
<svg width="37px" height="38px" viewBox="0 0 37 38" version="1.1" xmlns="http://www.w3.org/2000/svg" xmlns:xlink="http://www.w3.org/1999/xlink">
    <!-- Generator: Sketch 50.2 (55047) - http://www.bohemiancoding.com/sketch -->
    <title>1</title>
    <desc>Created with Sketch.</desc>
    <defs>
        <linearGradient x1="49.9998641%" y1="99.9995923%" x2="49.9998641%" y2="0.000407664085%" id="linearGradient-1">
            <stop stop-color="#ADB536" offset="0%"></stop>
            <stop stop-color="#99B340" offset="19.97%"></stop>
            <stop stop-color="#5FAE57" offset="73.82%"></stop>
            <stop stop-color="#3CAC5F" offset="100%"></stop>
        </linearGradient>
    </defs>
    <g id="Page-1" stroke="none" stroke-width="1" fill="none" fill-rule="evenodd">
        <g id="Home-Copy-9" transform="translate(-740.000000, -3005.000000)">
            <g id="1" transform="translate(740.000000, 3005.000000)">
                <g id="Group">
                    <g transform="translate(0.000000, 0.500000)" fill-rule="nonzero">
                        <path d="M36.68476,18.4755 C36.68476,28.638 28.5561067,36.8715 18.53404,36.8715 C8.51049333,36.8715 0.382826667,28.638 0.382826667,18.4755 C0.382826667,8.313 8.51,0.0765 18.5335467,0.0765 C28.5561067,0.0765 36.68476,8.3125 36.68476,18.4755 Z" id="Shape" fill="url(#linearGradient-1)"></path>
                        <path d="M7.70685333,24.754 L7.02408,22.447 L7.70685333,14.753 L8.3472,22.447 L7.70685333,24.754 Z M18.46892,27.2585 C16.6016533,27.2585 10.98456,23.083 10.98456,21.726 C10.98456,21.5725 11.0314267,21.4205 11.1197333,21.272 C11.1148,21.282 11.1054267,21.2865 11.1054267,21.2895 L11.7107467,17.4535 L19.0051733,21.9485 L26.44168,17.4535 L27.0494667,21.008 C27.1264267,21.4375 27.1718133,21.581 27.1718133,21.726 C27.1718133,23.085 20.33816,27.2585 18.46892,27.2585 Z M19.0643733,21.1545 L7.63285333,14.1315 L19.0924933,10.429 L30.5269733,14.079 L19.0643733,21.1545 Z" id="Shape" fill="#FFFFFF"></path>
                    </g>
                </g>
            </g>
        </g>
    </g>
</svg>