<?xml version="1.0" encoding="UTF-8" standalone="no"?>
<svg width="37px" height="38px" viewBox="0 0 37 38" version="1.1" xmlns="http://www.w3.org/2000/svg" xmlns:xlink="http://www.w3.org/1999/xlink">
    <!-- Generator: Sketch 50.2 (55047) - http://www.bohemiancoding.com/sketch -->
    <title>2</title>
    <desc>Created with Sketch.</desc>
    <defs>
        <linearGradient x1="50.0005436%" y1="99.9994564%" x2="50.0005436%" y2="0.000135899109%" id="linearGradient-1">
            <stop stop-color="#ADB536" offset="0%"></stop>
            <stop stop-color="#99B340" offset="19.97%"></stop>
            <stop stop-color="#5FAE57" offset="73.82%"></stop>
            <stop stop-color="#3CAC5F" offset="100%"></stop>
        </linearGradient>
    </defs>
    <g id="Page-1" stroke="none" stroke-width="1" fill="none" fill-rule="evenodd">
        <g id="Home-Copy-9" transform="translate(-740.000000, -3057.000000)">
            <g id="2" transform="translate(740.000000, 3057.000000)">
                <g id="Group">
                    <g transform="translate(0.493333, 0.000000)" fill-rule="nonzero">
                        <path d="M36.36508,18.684 C36.36508,28.846 28.2359333,37.0805 18.2138667,37.0805 C8.19130667,37.0805 0.0631466667,28.846 0.0631466667,18.684 C0.0631466667,8.522 8.19130667,0.2885 18.2138667,0.2885 C28.2364267,0.2885 36.36508,8.5215 36.36508,18.684 Z" id="Shape" fill="url(#linearGradient-1)"></path>
                        <path d="M25.69576,17.177 C25.6686267,16.8125 25.63804,16.4385 25.5620667,16.0795 C25.3089867,13.818 23.3060533,9.2095 17.5562533,9.346 C12.6100933,9.462 11.53068,13.2465 11.2677333,15.5395 C11.0930933,16.1125 10.97716,16.7005 10.94904,17.315 C4.50709333,18.4535 5.20516,25.0835 9.13949333,25.191 C8.77048,21.735 10.39256,19.653 11.0255067,18.989 C11.5992533,22.5605 14.6406533,25.2995 18.3347333,25.2995 C21.8201333,25.2995 24.7456,22.8385 25.5319733,19.5395 C26.1348267,20.6215 27.1466533,22.8285 26.9024533,25.191 C33.0918133,25.14 30.04844,17.964 25.69576,17.177 Z M18.33572,23.171 C15.4383733,23.171 13.0767867,20.804 13.01808,17.883 C14.06592,17.501 14.85624,15.638 14.85624,15.638 C14.85624,15.638 15.48672,15.8655 15.48672,17.9515 C16.5843867,18.346 18.48668,14.7025 18.48668,14.7025 L18.48668,17.566 C19.6923867,17.902 23.5014133,17.4585 23.5014133,17.4585 L23.63856,17.5905 C23.6469467,17.648 23.65632,17.7055 23.65632,17.7625 C23.65632,20.7485 21.275,23.171 18.33572,23.171 Z" id="Shape" fill="#FFFFFF"></path>
                        <path d="M21.3766267,20.295 C19.7175467,22.0605 16.91936,22.118 15.20404,20.295" id="Shape" fill="#FFFFFF"></path>
                    </g>
                </g>
            </g>
        </g>
    </g>
</svg>