<?xml version="1.0" encoding="UTF-8" standalone="no"?>
<svg width="33px" height="34px" viewBox="0 0 33 34" version="1.1" xmlns="http://www.w3.org/2000/svg" xmlns:xlink="http://www.w3.org/1999/xlink">
    <!-- Generator: Sketch 50.2 (55047) - http://www.bohemiancoding.com/sketch -->
    <title>3</title>
    <desc>Created with Sketch.</desc>
    <defs>
        <linearGradient x1="50.0001522%" y1="100%" x2="50.0001522%" y2="0.00197863079%" id="linearGradient-1">
            <stop stop-color="#ADB536" offset="0%"></stop>
            <stop stop-color="#99B340" offset="19.97%"></stop>
            <stop stop-color="#5FAE57" offset="73.82%"></stop>
            <stop stop-color="#3CAC5F" offset="100%"></stop>
        </linearGradient>
    </defs>
    <g id="Page-1" stroke="none" stroke-width="1" fill="none" fill-rule="evenodd">
        <g id="Home-Copy-9" transform="translate(-742.000000, -3110.000000)">
            <g id="3" transform="translate(740.000000, 3108.000000)">
                <g id="Group">
                    <g transform="translate(1.973333, 2.000000)" fill-rule="nonzero">
                        <path d="M32.8421867,27.191 C32.8421867,30.566 30.1421733,33.3025 26.81316,33.3025 L6.46118667,33.3025 C3.13118667,33.3025 0.431666667,30.566 0.431666667,27.191 L0.431666667,6.5645 C0.431666667,3.188 3.13118667,0.4515 6.46118667,0.4515 L26.81316,0.4515 C30.1421733,0.4515 32.8421867,3.188 32.8421867,6.5645 L32.8421867,27.191 Z" id="Shape" fill="url(#linearGradient-1)"></path>
                        <path d="M6.86424,12.8125 L7.52777333,12.8125 L7.52777333,16.8565 L6.86424,16.8565 C6.49670667,16.8565 6.19774667,16.5565 6.19774667,16.1795 L6.19774667,13.484 C6.19774667,13.114 6.49670667,12.8125 6.86424,12.8125 Z M26.8180933,12.8125 L26.1511067,12.8125 L26.1511067,16.8565 L26.8180933,16.8565 C27.1841467,16.8565 27.48212,16.5565 27.48212,16.1795 L27.48212,13.484 C27.48212,13.114 27.18612,12.8125 26.8180933,12.8125 Z M24.82256,11.4615 L24.82256,23.598 C24.82256,24.344 24.2271067,24.9455 23.4930267,24.9455 L23.4930267,26.2935 C23.4930267,27.039 22.8965867,27.6415 22.1634933,27.6415 L20.831,27.6415 C20.09692,27.6415 19.5014667,27.037 19.5014667,26.2935 L19.5014667,24.9455 L14.1803733,24.9455 L14.1803733,26.2935 C14.1803733,27.039 13.58492,27.6415 12.8503467,27.6415 L11.52032,27.6415 C10.78476,27.6415 10.1907867,27.037 10.1907867,26.2935 L10.1907867,24.9455 C9.45522667,24.9455 8.86076,24.341 8.86076,23.598 L8.86076,11.4615 C8.85829333,9.231 10.6476133,7.4175 12.85084,7.4175 L20.831,7.4175 C23.03324,7.4175 24.82256,9.229 24.82256,11.4615 Z M14.1803733,10.114 L19.5009733,10.114 L19.5009733,8.7665 L14.1803733,8.7665 L14.1803733,10.114 Z M12.8503467,22.2505 C12.8503467,21.5045 12.2544,20.9025 11.52032,20.9025 C10.78476,20.9025 10.1907867,21.5045 10.1907867,22.2505 C10.1907867,22.9935 10.78476,23.598 11.52032,23.598 C12.2544,23.5985 12.8503467,22.994 12.8503467,22.2505 Z M23.4930267,22.2505 C23.4930267,21.5045 22.8965867,20.9025 22.1634933,20.9025 C21.4264533,20.9025 20.831,21.5045 20.831,22.2505 C20.831,22.9935 21.4264533,23.598 22.1634933,23.598 C22.8965867,23.5985 23.4930267,22.994 23.4930267,22.2505 Z M23.4930267,11.4615 L10.18832,11.4615 L10.18832,19.552 L23.4925333,19.552 L23.4925333,11.4615 L23.4930267,11.4615 Z" id="Shape" fill="#FFFFFF"></path>
                    </g>
                </g>
            </g>
        </g>
    </g>
</svg>