<?xml version="1.0" encoding="UTF-8" standalone="no"?>
<svg width="37px" height="38px" viewBox="0 0 37 38" version="1.1" xmlns="http://www.w3.org/2000/svg" xmlns:xlink="http://www.w3.org/1999/xlink">
    <!-- Generator: Sketch 50.2 (55047) - http://www.bohemiancoding.com/sketch -->
    <title>5</title>
    <desc>Created with Sketch.</desc>
    <defs>
        <linearGradient x1="50.0002718%" y1="99.9995923%" x2="50.0002718%" y2="0.000135900955%" id="linearGradient-1">
            <stop stop-color="#ADB536" offset="0%"></stop>
            <stop stop-color="#99B340" offset="19.97%"></stop>
            <stop stop-color="#5FAE57" offset="73.82%"></stop>
            <stop stop-color="#3CAC5F" offset="100%"></stop>
        </linearGradient>
    </defs>
    <g id="Page-1" stroke="none" stroke-width="1" fill="none" fill-rule="evenodd">
        <g id="Home-Copy-9" transform="translate(-740.000000, -3212.000000)">
            <g id="5" transform="translate(740.000000, 3212.000000)">
                <g id="Group">
                    <g transform="translate(0.000000, 0.500000)" fill-rule="nonzero">
                        <path d="M36.38876,18.6425 C36.38876,28.8045 28.25912,37.0385 18.2375467,37.0385 C8.21449333,37.0385 0.08732,28.8045 0.08732,18.6425 C0.08732,8.48 8.21449333,0.247 18.2375467,0.247 C28.2596133,0.247 36.38876,8.4795 36.38876,18.6425 Z" id="Shape" fill="url(#linearGradient-1)"></path>
                        <polygon id="Shape" fill="#FFFFFF" points="21.92916 9.7175 14.4028667 9.7175 14.4028667 14.8595 9.33337333 14.8595 9.33337333 22.482 14.4028667 22.482 14.4028667 27.625 21.9286667 27.625 21.9286667 22.482 26.99668 22.482 26.99668 14.8595 21.92916 14.8595"></polygon>
                    </g>
                </g>
            </g>
        </g>
    </g>
</svg>