<?xml version="1.0" encoding="UTF-8" standalone="no"?>
<svg width="37px" height="38px" viewBox="0 0 37 38" version="1.1" xmlns="http://www.w3.org/2000/svg" xmlns:xlink="http://www.w3.org/1999/xlink">
    <!-- Generator: Sketch 50.2 (55047) - http://www.bohemiancoding.com/sketch -->
    <title>6</title>
    <desc>Created with Sketch.</desc>
    <defs>
        <linearGradient x1="50.0006795%" y1="100%" x2="50.0006795%" y2="0.00081532817%" id="linearGradient-1">
            <stop stop-color="#ADB536" offset="0%"></stop>
            <stop stop-color="#99B340" offset="19.97%"></stop>
            <stop stop-color="#5FAE57" offset="73.82%"></stop>
            <stop stop-color="#3CAC5F" offset="100%"></stop>
        </linearGradient>
    </defs>
    <g id="Page-1" stroke="none" stroke-width="1" fill="none" fill-rule="evenodd">
        <g id="Home-Copy-9" transform="translate(-1030.000000, -3005.000000)">
            <g id="6" transform="translate(1030.000000, 3005.000000)">
                <g id="Group">
                    <g fill-rule="nonzero">
                        <path d="M36.4351333,18.656 C36.4351333,28.818 28.30648,37.0525 18.2844133,37.0525 C8.26086667,37.0525 0.1332,28.818 0.1332,18.656 C0.1332,8.494 8.26086667,0.2575 18.2844133,0.2575 C28.30648,0.2575 36.4351333,8.494 36.4351333,18.656 Z" id="Shape" fill="url(#linearGradient-1)"></path>
                        <path d="M20.4170933,17.8375 L20.4170933,13.48 L21.84776,13.48 L18.9829733,10.5755 L18.9829733,9.1215 L20.4166,9.1215 L20.4166,7.6685 L18.9834667,7.6685 L18.9834667,6.218 L17.5508267,6.218 L17.5508267,7.6685 L16.1181867,7.6685 L16.1181867,9.1215 L17.5508267,9.1215 L17.5508267,10.5755 L14.6835733,13.48 L16.1181867,13.48 L16.1181867,17.8375 L8.95202667,23.647 L11.8178,23.647 L11.8178,29.456 L16.1181867,29.456 L16.1181867,25.825 C16.1181867,24.621 17.0787067,23.6475 18.2666533,23.6475 C19.4526267,23.6475 20.4170933,24.621 20.4170933,25.825 L20.4170933,29.4565 L24.7155067,29.4565 L24.7155067,23.647 L27.5822667,23.647 L20.4170933,17.8375 Z M18.9834667,16.3845 L17.5508267,16.3845 L17.5508267,14.207 C17.5508267,13.804 17.871,13.4805 18.2666533,13.4805 C18.6628,13.4805 18.9834667,13.804 18.9834667,14.207 L18.9834667,16.3845 Z" id="Shape" fill="#FFFFFF"></path>
                    </g>
                </g>
            </g>
        </g>
    </g>
</svg>