<?xml version="1.0" encoding="UTF-8" standalone="no"?>
<svg width="36px" height="36px" viewBox="0 0 36 36" version="1.1" xmlns="http://www.w3.org/2000/svg" xmlns:xlink="http://www.w3.org/1999/xlink">
    <!-- Generator: Sketch 50.2 (55047) - http://www.bohemiancoding.com/sketch -->
    <title>7</title>
    <desc>Created with Sketch.</desc>
    <defs></defs>
    <g id="Page-1" stroke="none" stroke-width="1" fill="none" fill-rule="evenodd">
        <g id="Home-Copy-9" transform="translate(-1030.000000, -3056.000000)" fill="#8B8A8A">
            <g id="7" transform="translate(1031.000000, 3057.000000)">
                <g id="Group">
                    <g fill-rule="nonzero">
                        <path d="M31.551674,16.7857105 C31.551674,8.39456397 24.8609906,1.59158026 16.61,1.59158026 C8.35853819,1.59158026 1.668766,8.39414831 1.668766,16.7857105 C1.668766,25.1767928 8.35806608,31.9776039 16.61,31.9776039 C24.86118,31.9776039 31.551674,25.1762174 31.551674,16.7857105 Z M34.046166,16.7857105 C34.046166,26.5770543 26.2387555,34.5138697 16.61,34.5138697 C6.98043812,34.5138697 -0.825726,26.5775764 -0.825726,16.7857105 C-0.825726,6.99347134 6.9808054,-0.944685526 16.61,-0.944685526 C26.2386815,-0.944685526 34.046166,6.99384436 34.046166,16.7857105 Z" id="Shape"></path>
                        <g transform="translate(7.040000, 8.947368)" id="Shape">
                            <path d="M17.30652,2.34421053 C17.1336,2.14289474 16.88808,2.0315 16.62936,2.0315 L4.16064,2.0315 L3.98948,0.960052632 C3.91512,0.516263158 3.54156,0.194157895 3.10024,0.194157895 L1.0692,0.194157895 C0.57068,0.194157895 0.16676,0.606184211 0.16676,1.11260526 C0.16676,1.61902632 0.57068,2.0315 1.0692,2.0315 L2.33332,2.0315 L4.01148,12.2650526 C4.02028,12.3062105 4.037,12.3411053 4.05196,12.3773421 C4.06824,12.4265526 4.07704,12.4717368 4.09904,12.5169211 C4.13116,12.5791053 4.1712,12.6283158 4.21036,12.682 C4.23676,12.7182368 4.26184,12.7526842 4.2944,12.7848947 C4.34456,12.8341053 4.40704,12.8703421 4.46908,12.9047895 C4.50296,12.9222368 4.53112,12.9508684 4.56984,12.9651842 C4.67632,13.0041053 4.78632,13.0313947 4.8994,13.0313947 L14.82228,13.0313947 C15.31904,13.0313947 15.7256,12.6242895 15.7256,12.1129474 C15.7256,11.6065263 15.31904,11.2007632 14.82228,11.2007632 L5.66588,11.2007632 L5.51892,10.2823158 L15.7256,10.2823158 C16.1744,10.2823158 16.55324,9.94544737 16.6188,9.49494737 L17.51728,3.07386842 C17.55732,2.80768421 17.47768,2.54418421 17.30652,2.34421053 Z M15.58392,3.86168421 L15.3296,5.69813158 L12.1176,5.69813158 L12.1176,3.86168421 L15.58392,3.86168421 Z M11.21604,3.86168421 L11.21604,5.69813158 L8.50784,5.69813158 L8.50784,3.86168421 L11.21604,3.86168421 Z M11.21604,6.61523684 L11.21604,8.44586842 L8.50784,8.44586842 L8.50784,6.61523684 L11.21604,6.61523684 Z M7.61068,3.86168421 L7.61068,5.69813158 L4.89984,5.69813158 C4.85232,5.69813158 4.81316,5.71110526 4.76916,5.72407895 L4.466,3.86168421 L7.61068,3.86168421 Z M4.91392,6.61523684 L7.61068,6.61523684 L7.61068,8.44586842 L5.214,8.44586842 L4.91392,6.61523684 Z M12.11804,8.44542105 L12.11804,6.61478947 L15.20024,6.61478947 L14.94108,8.44542105 L12.11804,8.44542105 Z"></path>
                            <path d="M7.61068,15.3237105 C7.61068,16.0851316 7.00216,16.6962368 6.25372,16.6962368 C5.50836,16.6962368 4.89984,16.0851316 4.89984,15.3237105 C4.89984,14.5658684 5.50836,13.9498421 6.25372,13.9498421 C7.0026,13.9498421 7.61068,14.5658684 7.61068,15.3237105 Z"></path>
                            <path d="M15.72604,15.3237105 C15.72604,16.0851316 15.1184,16.6962368 14.37348,16.6962368 C13.62416,16.6962368 13.01828,16.0851316 13.01828,15.3237105 C13.01828,14.5658684 13.62416,13.9498421 14.37348,13.9498421 C15.1184,13.9498421 15.72604,14.5658684 15.72604,15.3237105 Z"></path>
                        </g>
                    </g>
                </g>
            </g>
        </g>
    </g>
</svg>