<?xml version="1.0" encoding="UTF-8" standalone="no"?>
<svg width="35px" height="36px" viewBox="0 0 35 36" version="1.1" xmlns="http://www.w3.org/2000/svg" xmlns:xlink="http://www.w3.org/1999/xlink">
    <!-- Generator: Sketch 50.2 (55047) - http://www.bohemiancoding.com/sketch -->
    <title>8</title>
    <desc>Created with Sketch.</desc>
    <defs></defs>
    <g id="Page-1" stroke="none" stroke-width="1" fill="none" fill-rule="evenodd">
        <g id="Home-Copy-9" transform="translate(-1030.000000, -3107.000000)" fill="#8B8A8A">
            <g id="8" transform="translate(1031.000000, 3108.000000)">
                <g id="Group">
                    <g transform="translate(0.000000, 0.447368)" fill-rule="nonzero">
                        <path d="M31.479954,16.6747632 C31.479954,8.28370216 24.7893414,1.48104584 16.53784,1.48063289 C8.28628378,1.48063289 1.596166,8.28329692 1.596166,16.6747632 C1.596166,25.065366 8.28587444,31.8662092 16.53784,31.8662092 C24.7894917,31.8662092 31.479954,25.065238 31.479954,16.6747632 Z M33.974446,16.6747632 C33.974446,26.4661068 26.1670358,34.402475 16.53784,34.402475 C6.90827793,34.402475 -0.898326,26.4661815 -0.898326,16.6747632 C-0.898326,6.88259864 6.90857195,-1.05563289 16.5379014,-1.05563289 C26.1670587,-1.05515101 33.974446,6.88298205 33.974446,16.6747632 Z" id="Shape"></path>
                        <g transform="translate(8.800000, 7.157895)" id="Shape">
                            <path d="M14.44124,19.1455789 C14.44124,19.1455789 14.44124,13.515 14.4386,12.9566842 C14.44124,12.444 14.42716,0.169105263 14.42716,0.169105263 L14.15084,0.169105263 C14.15084,0.169105263 11.90244,1.45663158 11.90244,11.0195789 C13.62856,11.5018421 12.903,13.4206053 12.77232,13.6626316 C12.77232,14.1502632 12.80884,19.1482632 12.80884,19.1482632 L12.81368,19.1482632 C12.81368,19.1554211 12.81148,19.1572105 12.81148,19.1657105 C12.80884,19.6242632 13.17844,19.9955789 13.62636,19.9915526 C14.07692,19.9915526 14.44212,19.6229211 14.44212,19.1657105 C14.44212,19.1612368 14.44212,19.1554211 14.43948,19.1527368 L14.44124,19.1455789 Z"></path>
                            <path d="M10.45704,0.523421053 L9.96512,0.523421053 L10.11252,5.72318421 L9.526,5.72318421 L9.526,0.523421053 L9.09656,0.523421053 L9.09656,5.75494737 L8.60904,5.75494737 L8.60904,0.523421053 L8.13692,0.523421053 L8.13692,5.75494737 L7.56184,5.75494737 L7.72552,0.518947368 L7.28112,0.518947368 L6.73772,4.94789474 C6.73772,4.94789474 6.72672,5.11565789 6.72672,5.17784211 C6.72672,5.86231579 7.03604,6.47207895 7.52356,6.86844737 C9.1278,8.71205263 8.03264,10.5896579 8.03264,11.0361316 C8.03616,11.5282368 8.03616,19.1352895 8.03616,19.1352895 C8.03616,19.1397632 8.03264,19.1424474 8.03264,19.1527368 C8.03264,19.6202368 8.40356,19.9915526 8.86336,19.9915526 C9.3214,19.9915526 9.69364,19.6157632 9.69364,19.1527368 C9.69364,19.1424474 9.691,19.1397632 9.691,19.1352895 L9.69364,19.1352895 C9.69364,19.1352895 9.69364,11.6244211 9.69364,11.0495526 C9.69364,10.5341842 8.76392,8.37339474 10.3114,6.766 C10.31668,6.766 10.31756,6.75928947 10.32064,6.75705263 C10.6986,6.39423684 10.94544,5.89228947 10.98284,5.32815789 C10.98856,5.28968421 10.98856,5.19081579 10.98856,5.19081579 L10.45704,0.523421053 Z"></path>
                            <path d="M3.05316,0.0814210526 L3.00784,0.0814210526 C1.21,0.110947368 0.19756,1.86060526 0.19756,3.76192105 C0.19756,5.68247368 1.33188,7.04918421 2.31836,7.35026316 C2.8622,8.12286842 2.50184,9.94902632 2.12256,11.0003421 L2.12256,19.2095526 C2.12256,19.2185 2.12256,19.2225263 2.12256,19.2305789 C2.12256,19.6989737 2.49832,20.0805789 2.96164,20.0805789 L3.09848,20.0805789 C3.56356,20.0805789 3.93844,19.6985263 3.93844,19.2305789 C3.93844,19.2225263 3.93844,19.2185 3.93844,19.2095526 L3.93844,11.0003421 C3.55652,9.94902632 3.19836,8.12286842 3.7422,7.35026316 C4.72912,7.04918421 5.86168,5.68247368 5.86168,3.76192105 C5.86212,1.86015789 4.85056,0.110947368 3.05316,0.0814210526 Z M2.1164,6.60897368 C2.00376,6.52128947 1.86076,6.37947368 1.71204,6.19471053 C1.55848,6.01039474 1.40008,5.78044737 1.25004,5.51873684 C1.18008,5.38363158 1.11056,5.24405263 1.0494,5.09373684 C0.98824,4.93939474 0.9394,4.78684211 0.9042,4.60878947 C0.83996,4.26789474 0.85316,3.94176316 0.88924,3.63621053 C0.9218,3.33826316 0.98428,3.06402632 1.05468,2.83631579 C1.1198,2.60457895 1.199,2.42160526 1.26544,2.295 C1.3288,2.16660526 1.38292,2.10442105 1.38292,2.10442105 C1.38292,2.10442105 1.3706,2.18852632 1.36444,2.32318421 C1.36268,2.46052632 1.35124,2.65110526 1.34728,2.88552632 C1.3398,3.34273684 1.30416,3.96502632 1.38908,4.51842105 C1.40228,4.6495 1.44716,4.79713158 1.49336,4.92642105 C1.53428,5.06376316 1.58532,5.19842105 1.63416,5.32726316 C1.73712,5.59121053 1.84668,5.83815789 1.94216,6.04573684 C2.03368,6.25421053 2.11948,6.42778947 2.18504,6.54589474 C2.2484,6.66623684 2.30472,6.71723684 2.30956,6.71097368 C2.30956,6.71857895 2.2286,6.69978947 2.1164,6.60897368 Z"></path>
                        </g>
                    </g>
                </g>
            </g>
        </g>
    </g>
</svg>