<?xml version="1.0" encoding="UTF-8" standalone="no"?>
<svg width="36px" height="36px" viewBox="0 0 36 36" version="1.1" xmlns="http://www.w3.org/2000/svg" xmlns:xlink="http://www.w3.org/1999/xlink">
    <!-- Generator: Sketch 50.2 (55047) - http://www.bohemiancoding.com/sketch -->
    <title>9</title>
    <desc>Created with Sketch.</desc>
    <defs></defs>
    <g id="Page-1" stroke="none" stroke-width="1" fill="none" fill-rule="evenodd">
        <g id="Home-Copy-9" transform="translate(-1030.000000, -3159.000000)" fill="#8B8A8A">
            <g id="9" transform="translate(1031.000000, 3160.000000)">
                <g transform="translate(-0.880000, -0.894737)" id="Group">
                    <g fill-rule="nonzero">
                        <path d="M32.488874,17.969 C32.488874,9.57789633 25.7991264,2.77714099 17.54764,2.77755395 C9.29601996,2.77755395 2.606406,9.57804575 2.606406,17.969 C2.606406,26.3597627 9.29627165,33.1608934 17.54764,33.1608934 C25.7987256,33.1608934 32.488874,26.3596029 32.488874,17.969 Z M34.983366,17.969 C34.983366,27.7604184 27.1763221,35.6971592 17.54764,35.6971592 C7.91866466,35.6971592 0.111914,27.7605676 0.111914,17.969 C0.111914,8.17720889 7.91844442,0.241288158 17.5475786,0.241288159 C27.1766651,0.240806257 34.983366,8.17704932 34.983366,17.969 Z" id="Shape"></path>
                        <g transform="translate(6.600000, 6.710526)" id="Shape">
                            <path d="M21.30172,7.50460526 C21.1816,7.26436842 20.98404,7.03263158 20.75524,7.15789474 C20.74424,7.15968421 20.68968,7.18786842 20.60256,7.23439474 C20.53744,7.26928947 20.45428,7.31178947 20.34736,7.36771053 L11.61248,11.9187895 C11.6226,11.8762895 11.62612,11.8373684 11.6402,11.7953158 C11.80256,11.3980526 14.2868,0.943052632 14.2868,0.943052632 L14.20672,0.442894737 L10.50896,9.65107895 L11.04796,10.9560526 L10.38092,12.5594211 L3.54904,16.1218158 C3.30308,16.2484211 3.15832,16.3253684 3.14072,16.3338684 C2.91236,16.4524211 2.981,16.7530526 3.09892,16.9861316 C3.22036,17.2272632 4.4176,19.4887105 4.57952,19.8099211 C4.97376,19.6537895 4.9984,19.4108684 4.86948,19.1576579 C4.74188,18.9053421 3.8896,17.2111579 3.8896,17.2111579 C3.8896,17.2111579 3.94944,17.1816316 4.05372,17.1275 L4.2636,17.0161053 L5.38164,19.2346053 L5.69712,19.0695263 L4.57952,16.8532632 L4.84528,16.7150263 L5.96376,18.9321842 L6.27836,18.7671053 L5.1612,16.5503947 L5.38208,16.4340789 L6.50012,18.6512368 L6.81428,18.4857105 L5.69756,16.269 L5.96376,16.1316579 L7.08092,18.3483684 L7.39552,18.1832895 L6.27836,15.9661316 L6.5516,15.8265526 L7.66876,18.0414737 L7.98292,17.8759474 L6.86708,15.6614737 L7.12976,15.5241316 L8.23988,17.7216053 C8.21788,17.7645526 8.19412,17.8030263 8.1774,17.8482105 C7.66172,18.9702105 7.88304,20.2599737 8.7098,20.9896316 C8.85896,21.1220526 9.0288,21.2321053 9.20832,21.3157632 C9.79352,21.5926842 10.45704,21.59 11.08316,21.3090526 C11.69212,21.0366053 12.18668,20.5301842 12.48456,19.8837368 C12.91972,18.9263684 12.826,17.8513421 12.276,17.1002105 C12.22188,16.9928421 12.00672,16.5423421 11.81004,15.8806842 L11.96492,15.7997105 L11.6094,15.0888421 C11.54296,14.7801579 11.49104,14.4486579 11.45936,14.0974737 L12.2452,15.6511842 L12.5598,15.4905789 L11.44264,13.2738684 L11.70576,13.1342895 L12.82292,15.3532368 L13.14192,15.1881579 L12.02432,12.9736842 L12.24564,12.8573684 L13.36324,15.0700526 L13.67828,14.909 L12.56024,12.6922895 L12.826,12.5545 L13.94404,14.7716579 L14.25864,14.6061316 L13.14192,12.3938947 L13.41428,12.2502895 L14.53144,14.4643158 L14.84736,14.3037105 L13.7302,12.0874474 L13.99596,11.9478684 L15.11312,14.1668158 L15.42772,14.0017368 L14.31144,11.7854737 L14.56752,11.6472368 L15.68424,13.8643947 L16.0028,13.7028947 L14.88564,11.4866316 L15.14876,11.3470526 L16.26592,13.5624211 L16.58052,13.4009211 L15.46336,11.1842105 L15.73616,11.0401579 L16.85376,13.2546316 L17.17188,13.09 L16.05076,10.8750789 L16.3174,10.7368421 L17.435,12.9535526 L17.74916,12.7911579 L16.63156,10.5762368 L16.9114,10.4281579 L18.029,12.6430789 L18.34492,12.478 L17.22688,10.2635263 L17.49,10.1257368 L18.60804,12.3406579 L18.92484,12.1796053 L17.809,9.96065789 L18.02944,9.84523684 L19.14616,12.0641842 L19.4612,11.8986579 L18.34536,9.68194737 L18.61112,9.54236842 L19.72872,11.7572895 L20.04332,11.5966842 L18.92528,9.37952632 L19.19896,9.23592105 L20.317,11.4526316 L20.6316,11.2875526 L19.514,9.07039474 L19.77756,8.93305263 L20.8956,11.1502105 L21.20976,10.9846842 L20.09216,8.76752632 L20.36892,8.62392105 L21.48608,10.8406316 L21.80068,10.6777895 L20.68484,8.46331579 L20.85644,8.37071053 C20.96072,8.31702632 21.02012,8.28705263 21.02012,8.28705263 C21.02012,8.28705263 21.87372,9.97765789 22.00132,10.2313158 C22.1298,10.4845263 22.33396,10.6066579 22.69388,10.3731316 C22.52536,10.0478947 21.41964,7.74081579 21.30172,7.50460526 Z M11.0858,9.44752632 C11.23144,9.2735 11.48796,9.25202632 11.65824,9.40413158 C11.82676,9.55265789 11.84832,9.81168421 11.6996,9.98347368 C11.55396,10.1575 11.29744,10.1762895 11.12848,10.0268684 C10.95864,9.87878947 10.94192,9.61842105 11.0858,9.44752632 Z M9.70992,14.1815789 L9.69276,14.2222895 L9.68308,14.1945526 L9.70992,14.1815789 Z M9.36364,14.3591842 L9.51324,14.6553421 L9.36364,15.0181579 L9.10096,14.4974211 L9.36364,14.3591842 Z M8.78592,14.6616053 L9.18456,15.4498684 L9.06004,15.7567632 L8.5646,14.7779211 L8.78592,14.6616053 Z M8.24736,14.9434474 L8.87656,16.1920526 L8.7274,16.5548684 L7.98336,15.0807895 L8.24736,14.9434474 Z M7.66876,15.2463158 L8.54656,16.9861316 L8.41896,17.2934737 L7.447,15.3603947 L7.66876,15.2463158 Z M11.78584,19.5571579 C11.57156,20.0327105 11.20812,20.4026842 10.77164,20.5995263 C10.3532,20.7847368 9.91452,20.7932368 9.53392,20.6102632 C9.41996,20.5565789 9.30952,20.4858947 9.21184,20.4022368 C8.6438,19.8976053 8.50608,18.9881053 8.8726,18.1788158 C9.0904,17.7046053 9.44988,17.3350789 9.88944,17.1377895 C10.30832,16.9512368 10.74744,16.9467632 11.12848,17.1275 C11.24684,17.1811842 11.3498,17.2500789 11.45012,17.3355263 C12.0164,17.8334474 12.15588,18.7501053 11.78584,19.5571579 Z"></path>
                            <g transform="translate(0.000000, 5.368421)">
                                <path d="M12.28084,5.18634211 L20.25716,0.391894737 L19.73444,0.402631579 C19.73444,0.402631579 15.719,2.06594737 12.74328,3.31723684 C12.56772,4.03571053 12.40844,4.67947368 12.28084,5.18634211 Z"></path>
                                <path d="M4.1712,8.95855263 C4.17472,8.95631579 4.17868,8.95273684 4.1822,8.94826316 C4.17824,8.95855263 4.17824,8.9675 4.17824,8.9675 L10.50896,5.14965789 L10.51644,5.14965789 L10.20492,4.39897368 C9.87272,4.54257895 9.66152,4.63697368 9.61224,4.66515789 C7.11876,5.70573684 4.4858,4.76805263 4.29924,4.69692105 C3.50416,4.27863158 2.4662,4.33455263 1.61568,4.89063158 C1.023,5.27447368 0.59532,5.84084211 0.41096,6.49131579 C0.21824,7.15878947 0.30756,7.82805263 0.65384,8.38010526 C0.76428,8.55994737 0.902,8.721 1.05864,8.85789474 C1.87484,9.57502632 3.15832,9.61797368 4.1712,8.95855263 Z M1.55892,8.26378947 C1.4586,8.17565789 1.3728,8.07231579 1.30108,7.956 C1.07448,7.59765789 1.01992,7.15565789 1.14752,6.70739474 C1.28304,6.23944737 1.59412,5.82965789 2.02664,5.54826316 C2.75616,5.07181579 3.66256,5.08747368 4.22576,5.58315789 C4.32696,5.67084211 4.41364,5.7715 4.48536,5.88960526 C4.71196,6.24839474 4.76652,6.68994737 4.6376,7.13642105 C4.5034,7.60481579 4.19232,8.01684211 3.75936,8.29778947 C3.02588,8.77244737 2.12432,8.75947368 1.55892,8.26378947 Z"></path>
                            </g>
                        </g>
                    </g>
                </g>
            </g>
        </g>
    </g>
</svg>