<?xml version="1.0" encoding="UTF-8" standalone="no"?>
<svg width="89px" height="89px" viewBox="0 0 89 89" version="1.1" xmlns="http://www.w3.org/2000/svg" xmlns:xlink="http://www.w3.org/1999/xlink">
    <!-- Generator: Sketch 50.2 (55047) - http://www.bohemiancoding.com/sketch -->
    <title>Group 18</title>
    <desc>Created with Sketch.</desc>
    <defs>
        <linearGradient x1="50%" y1="0%" x2="50%" y2="100%" id="linearGradient-1">
            <stop stop-color="#BDAE36" offset="0%"></stop>
            <stop stop-color="#2FAB66" offset="100%"></stop>
        </linearGradient>
        <polygon id="path-2" points="0 0.0717484375 37.2366876 0.0717484375 37.2366876 46.9999633 0 46.9999633"></polygon>
    </defs>
    <g id="Page-1" stroke="none" stroke-width="1" fill="none" fill-rule="evenodd">
        <g id="Home-Copy-9" transform="translate(-676.000000, -4046.000000)">
            <g id="Group-18" transform="translate(676.000000, 4046.000000)">
                <circle id="Oval-2-Copy-2" fill="url(#linearGradient-1)" cx="44.5" cy="44.5" r="44.5"></circle>
                <g id="icon-6" transform="translate(18.000000, 20.000000)">
                    <g id="Group-3" stroke-width="1">
                        <mask id="mask-3" fill="white">
                            <use xlink:href="#path-2"></use>
                        </mask>
                        <g id="Clip-2"></g>
                        <path d="M36.3521205,45.2076293 L5.09925805,45.2076293 C3.26289564,45.2076293 1.76901644,43.6940824 1.76901644,41.8334516 L1.76901644,5.23816836 C1.76901644,3.3775375 3.26289564,1.86389883 5.09925805,1.86389883 L11.0626339,1.86389883 C11.5511708,1.86389883 11.9471104,1.46274648 11.9471104,0.967777734 C11.9471104,0.472992578 11.5511708,0.0717484375 11.0626339,0.0717484375 L5.09925805,0.0717484375 C2.28745268,0.0717484375 -2.71812081e-05,2.38943594 -2.71812081e-05,5.23816836 L-2.71812081e-05,41.8334516 C-2.71812081e-05,44.6822758 2.28745268,46.9999633 5.09925805,46.9999633 L36.3522111,46.9999633 C36.8408386,46.9999633 37.2366876,46.5987191 37.2366876,46.103934 C37.2366876,45.6089652 36.840748,45.2076293 36.3521205,45.2076293" id="Fill-1" fill="#FFFFFF" mask="url(#mask-3)"></path>
                    </g>
                    <path d="M48.8354799,0.0716291016 L14.3291174,0.0716291016 C13.8405805,0.0716291016 13.4447315,0.472781445 13.4447315,0.967750195 C13.4447315,1.46262715 13.8405805,1.86387129 14.3291174,1.86387129 L48.8355705,1.86387129 C50.6719329,1.86387129 52.1659027,3.37760176 52.1659027,5.23814082 L52.1659027,41.833424 C52.1659027,43.6940549 50.6719329,45.2076018 48.8355705,45.2076018 L39.8901443,45.2076018 C39.4015168,45.2076018 39.0056678,45.6088459 39.0056678,46.1037229 C39.0056678,46.5986916 39.4015168,46.9998439 39.8901443,46.9998439 L48.8355705,46.9998439 C51.6473758,46.9998439 53.9348557,44.6822482 53.9348557,41.833424 L53.9348557,5.23814082 C53.9346745,2.3894084 51.6472852,0.0716291016 48.8354799,0.0716291016" id="Fill-4" fill="#FFFFFF"></path>
                    <path d="M48.2006356,20.2268723 C46.5744745,20.1394816 44.9483134,20.239632 43.3531389,20.5318215 C41.5930651,20.8543957 39.8304544,21.4147238 38.1141423,22.1972922 C36.564904,22.9034855 35.0187463,23.8069504 33.5183436,24.8823508 C32.8275785,25.3773195 32.1391691,25.9150656 31.4577362,26.4898977 C30.4371725,25.8686164 29.3664141,25.4237688 28.2596859,25.1553547 C27.8632027,22.5849504 25.9153973,20.4817004 23.4086557,19.9207297 C22.7162597,16.7502492 19.9236624,14.4358664 16.6572966,14.4358664 C15.7653906,14.4358664 14.8838134,14.6111066 14.0631221,14.9477258 C12.9663604,12.7871027 10.7617832,11.393718 8.30641409,11.393718 C7.40571946,11.393718 6.53691745,11.5771281 5.73389396,11.9304543 L5.73389396,7.70238203 L5.73407517,7.70238203 C5.73407517,6.69839961 6.5402698,5.88149922 7.53129664,5.88149922 L46.4033235,5.88149922 C47.3943503,5.88149922 48.2004544,6.69839961 48.2004544,7.70238203 L48.2004544,20.2268723 L48.2006356,20.2268723 Z M48.2006356,39.3693664 C48.2006356,40.3734406 47.3944409,41.190341 46.4035047,41.190341 L22.0347362,41.190341 C22.556706,40.2360207 23.1523369,39.3052004 23.7357362,38.3967785 C24.1289577,37.7844016 24.5356792,37.1510949 24.9169409,36.5150344 C25.1702698,36.0920344 25.0373537,35.5407023 24.6198503,35.2838547 C24.202347,35.0271906 23.6583604,35.1617648 23.4045785,35.5848566 C23.0378134,36.19705 22.6387933,36.818423 22.2529107,37.4192336 C21.4795148,38.6237004 20.6835584,39.8645188 20.0352866,41.1904328 L8.84559866,41.1904328 C11.9776893,33.8556789 17.9523906,28.6284895 22.4816859,27.1709387 C25.1871221,26.3004289 27.7274779,26.4927434 30.0497497,27.7404465 C29.8800483,27.8990715 29.7109812,28.0595324 29.5426389,28.2226555 C28.410904,29.3191691 27.2931221,30.5339172 26.2203705,31.8334855 C26.0982362,31.9814621 25.9768268,32.130173 25.8563235,32.2796184 C25.5473638,32.6628703 25.6035383,33.2274211 25.9817195,33.5404484 C26.348394,33.8441125 26.919743,33.7936242 27.2262564,33.4134016 C27.3423201,33.2694641 27.4591993,33.1262609 27.5771658,32.983425 C28.608149,31.7346203 29.6807195,30.5687082 30.7651591,29.518093 C31.9950181,28.3265695 33.2649242,27.2592473 34.5399946,26.3453176 C35.9477094,25.3364699 37.3942933,24.4907453 38.8399711,23.8316438 C40.4251792,23.108927 42.0496188,22.5921105 43.6679879,22.2955148 C45.1589678,22.0223273 46.6802094,21.9314484 48.2004544,22.0207668 L48.2004544,39.3693664 L48.2006356,39.3693664 Z M5.73407517,13.960175 C6.49777651,13.4524465 7.37890067,13.1859602 8.3065047,13.1859602 C10.337847,13.1859602 12.1329846,14.4979211 12.7734644,16.4508078 C12.857545,16.7073801 13.0515282,16.9116281 13.3013235,17.0068215 C13.550847,17.101923 13.8298168,17.0780559 14.0600416,16.9414621 C14.8461221,16.474675 15.7442799,16.2280168 16.6574779,16.2280168 C19.256998,16.2280168 21.4532396,18.1973352 21.7659141,20.8085891 C21.8153839,21.2225012 22.1402899,21.5471867 22.5495483,21.5917082 C24.3856389,21.79155 25.8929275,23.1314172 26.390706,24.8731711 C24.9453,24.7831184 23.4547732,24.9775441 21.9463067,25.462966 C20.1649409,26.0361457 18.4404745,26.9803684 16.8218336,28.1760227 C16.1044309,27.9659914 14.6299409,27.6227629 12.8089812,27.6833488 C10.8659779,27.7480656 8.20847114,28.2994895 5.73407517,30.3570246 L5.73416577,13.960175 L5.73407517,13.960175 Z M6.96601812,41.0967082 C6.25133356,40.8558332 5.73416577,40.1732316 5.73416577,39.3693664 L5.73416577,32.8242492 C7.64192416,30.7139309 10.0167463,29.5862063 12.8011893,29.4767844 C13.6559477,29.4430031 14.4277128,29.5148801 15.053696,29.6154895 C11.4738403,32.8093781 8.57079664,37.137509 6.96601812,41.0967082 Z M46.4035953,4.08907344 L7.53129664,4.08907344 C5.56473624,4.08907344 3.96503154,5.70983906 3.96503154,7.70229023 L3.96503154,13.4731008 C3.96475973,13.485218 3.96494094,13.4970598 3.96503154,13.5090852 L3.96503154,39.3693664 C3.96503154,41.3575949 5.55821275,42.9755148 7.5190651,42.9823996 C7.52305168,42.9823996 7.52712886,42.9829504 7.53129664,42.9829504 C7.53238389,42.9829504 7.53319933,42.9828586 7.53428658,42.9828586 L20.588696,42.9828586 C20.590055,42.9828586 20.5913235,42.9829504 20.5925013,42.9829504 C20.5925013,42.9829504 20.5944946,42.9828586 20.5953101,42.9828586 L46.4035953,42.9828586 C48.3698839,42.9827668 49.9696792,41.3619094 49.9696792,39.36955 L49.9696792,21.1883527 L49.9696792,21.1869758 L49.9696792,7.70229023 C49.9696792,5.70983906 48.3698839,4.08907344 46.4035953,4.08907344 Z" id="Fill-6" fill="#FFFFFF"></path>
                    <path d="M35.883444,18.0057275 C34.2840111,18.0057275 32.982756,16.6873408 32.982756,15.0668506 C32.9828466,13.4462686 34.2841017,12.1279736 35.883444,12.1279736 C37.4829674,12.1279736 38.7841319,13.4462686 38.7841319,15.0668506 C38.7841319,16.6873408 37.4829674,18.0057275 35.883444,18.0057275 M35.883444,10.3356396 C33.3086587,10.3356396 31.2138936,12.4580752 31.2138936,15.066667 C31.2138936,17.6753506 33.3086587,19.7977861 35.883444,19.7977861 C38.4582292,19.7977861 40.5529943,17.6753506 40.5529943,15.066667 C40.5530849,12.4580752 38.4583198,10.3356396 35.883444,10.3356396" id="Fill-8" fill="#FFFFFF"></path>
                </g>
            </g>
        </g>
    </g>
</svg>