<?xml version="1.0" encoding="UTF-8" standalone="no"?>
<svg width="89px" height="89px" viewBox="0 0 89 89" version="1.1" xmlns="http://www.w3.org/2000/svg" xmlns:xlink="http://www.w3.org/1999/xlink">
    <!-- Generator: Sketch 50.2 (55047) - http://www.bohemiancoding.com/sketch -->
    <title>Group 22</title>
    <desc>Created with Sketch.</desc>
    <defs>
        <linearGradient x1="50%" y1="0%" x2="50%" y2="100%" id="linearGradient-1">
            <stop stop-color="#BDAE36" offset="0%"></stop>
            <stop stop-color="#2FAB66" offset="100%"></stop>
        </linearGradient>
        <polygon id="path-2" points="4.7435444e-05 0.0651442953 50.9831526 0.0651442953 50.9831526 54 4.7435444e-05 54"></polygon>
    </defs>
    <g id="Page-1" stroke="none" stroke-width="1" fill="none" fill-rule="evenodd">
        <g id="Home-Copy-9" transform="translate(-676.000000, -6285.000000)">
            <g id="Group-22" transform="translate(676.000000, 6285.000000)">
                <circle id="Oval-2-Copy-5" fill="url(#linearGradient-1)" cx="44.5" cy="44.5" r="44.5"></circle>
                <g id="icon-8" transform="translate(19.000000, 17.000000)">
                    <path d="M25.4915946,11.3740762 C24.5219537,11.3740762 23.7334223,10.5937943 23.7334223,9.63420705 C23.7334223,8.6747104 24.5219537,7.89442852 25.4915946,7.89442852 C26.4612355,7.89442852 27.249767,8.6747104 27.249767,9.63420705 C27.249767,10.5937943 26.4612355,11.3740762 25.4915946,11.3740762 M25.4915946,6.1545594 C23.5522212,6.1545594 21.9751583,7.71512315 21.9751583,9.63420705 C21.9751583,11.5532909 23.5522212,13.1138547 25.4915946,13.1138547 C27.430968,13.1138547 29.0080309,11.5532909 29.0080309,9.63420705 C29.0080309,7.71512315 27.430968,6.1545594 25.4915946,6.1545594" id="Fill-1" fill="#FFFFFF"></path>
                    <g id="Group-5" stroke-width="1">
                        <mask id="mask-3" fill="white">
                            <use xlink:href="#path-2"></use>
                        </mask>
                        <g id="Clip-4"></g>
                        <path d="M49.1405968,12.0447634 C48.924419,12.68325 48.3432754,13.1381728 47.624972,13.2313138 L46.7028517,13.3513641 L46.8751713,14.2551393 C47.0008858,14.914646 46.7274819,15.5670856 46.1613544,15.959401 C45.5890007,16.3578775 44.8066039,16.4056258 44.1745519,16.0785453 L43.3816255,15.6697399 L42.9824154,16.4613473 C42.671288,17.0798104 42.0320941,17.4635185 41.3156219,17.4635185 C40.5991497,17.4635185 39.9600474,17.0798104 39.6488284,16.4621628 L39.2498014,15.670646 L38.4566919,16.0793607 C37.8255555,16.4065319 37.0448984,16.3595084 36.469981,15.959401 C35.9038535,15.567901 35.6312736,14.915552 35.7560725,14.2560453 L35.9283921,13.3522701 L35.0062718,13.2321292 C34.9078427,13.2191728 34.8163724,13.1792164 34.7214226,13.1522164 C34.8198517,12.9747232 34.9165411,12.7955084 34.9833813,12.5998037 C35.3236255,11.599354 35.1600959,10.5059446 34.5781282,9.63505872 C35.1600959,8.76435403 35.3236255,7.67085403 34.9833813,6.67049497 C34.9165411,6.47388423 34.8198517,6.2954849 34.7214226,6.11799161 C34.8163724,6.09108221 34.9078427,6.05103523 35.0071874,6.03798826 L35.9293077,5.91793792 L35.7569882,5.01407215 C35.6312736,4.35556208 35.9046776,3.70230705 36.470805,3.30999161 C37.0448984,2.91242114 37.8264711,2.86539765 38.4576075,3.19075671 L39.2505339,3.59965268 L39.649744,2.8080453 C39.9600474,2.18867617 40.5991497,1.80496812 41.3156219,1.80496812 C42.0320941,1.80496812 42.671288,2.18867617 42.9824154,2.80623322 L43.3816255,3.5978406 L44.1745519,3.18903523 C44.8066039,2.86367617 45.5880851,2.91069966 46.1612628,3.30817953 C46.7274819,3.70049497 46.9999702,4.3538406 46.8751713,5.01235067 L46.7028517,5.91612584 L47.624972,6.03626678 C48.3423598,6.12931711 48.924419,6.58423993 49.1405968,7.22281711 C49.3533867,7.84997819 49.1696219,8.52851174 48.6597135,8.99485067 L47.9608212,9.63424329 L48.6597135,10.2727299 C49.1696219,10.7390688 49.3533867,11.4175117 49.1405968,12.0447634 Z M26.3706991,24.932552 L26.3706991,19.0919446 C27.1258104,18.9092869 27.7992485,18.501297 28.2906614,17.9114648 C29.3297978,18.1888943 30.4480438,18.0079581 31.3482808,17.3843305 C32.2335016,16.7701258 32.7697799,15.7957701 32.8322251,14.7632466 C33.0317386,14.6910352 33.2145878,14.5910084 33.3947817,14.488354 C33.5803777,14.5953574 33.7737566,14.6884983 33.9750097,14.7614346 C34.0163041,15.4574547 34.2897996,16.1176862 34.7240779,16.6683775 L26.3706991,24.932552 Z M25.4916129,17.4635185 C24.7751408,17.4635185 24.1359469,17.0798104 23.8248194,16.4621628 L23.4256093,15.670646 L22.6326829,16.0793607 C22.0006309,16.4065319 21.2199738,16.3595084 20.645972,15.959401 C20.079753,15.567901 19.8072646,14.915552 19.9320636,14.2560453 L20.1043831,13.3522701 L19.1822628,13.2321292 C18.464875,13.1390789 17.8829074,12.684156 17.6666381,12.0456695 C17.4539397,11.4184178 17.6376129,10.7398842 18.1475214,10.2736359 L18.8464136,9.63424329 L18.1475214,8.99575671 C17.6376129,8.52941779 17.4539397,7.85088423 17.6666381,7.22372315 C17.8837314,6.58423993 18.464875,6.13022315 19.1822628,6.03626678 L20.1043831,5.91612584 L19.9320636,5.01235067 C19.806349,4.3538406 20.079753,3.70049497 20.645972,3.30817953 C21.2191497,2.91069966 22.0006309,2.86367617 22.6326829,3.18903523 L23.4256093,3.5978406 L23.8248194,2.80623322 C24.1359469,2.18867617 24.7751408,1.80496812 25.4916129,1.80496812 C26.2080851,1.80496812 26.8471874,2.18867617 27.1584065,2.80623322 L27.557525,3.5978406 L28.3504513,3.18903523 C28.9835106,2.86367617 29.7631605,2.91069966 30.3372539,3.30817953 C30.9033813,3.70049497 31.1759612,4.3538406 31.0511623,5.01235067 L30.8788427,5.91612584 L31.800963,6.03626678 C32.5183508,6.12931711 33.1003185,6.58423993 33.3165878,7.22281711 C33.5292862,7.84997819 33.3456129,8.52851174 32.8357045,8.99485067 L32.1368122,9.63424329 L32.8357045,10.2727299 C33.3456129,10.7390688 33.5292862,11.4175117 33.3165878,12.0447634 C33.1003185,12.68325 32.5192664,13.1381728 31.800963,13.2313138 L30.8788427,13.3513641 L31.0511623,14.2551393 C31.1768768,14.914646 30.9033813,15.5670856 30.3372539,15.959401 C29.7640761,16.3578775 28.9835106,16.4056258 28.3504513,16.0785453 L27.557525,15.6697399 L27.1584065,16.4613473 C26.8471874,17.0798104 26.2080851,17.4635185 25.4916129,17.4635185 Z M28.128963,33.9918674 L28.128963,34.8618473 C28.128963,36.3006393 26.9457081,37.4716057 25.4916129,37.4716057 C24.0375178,37.4716057 22.8542628,36.3006393 22.8542628,34.8618473 L22.8542628,33.9918674 L24.6124352,33.9918674 L28.128963,33.9918674 Z M32.5244855,27.0325721 L38.6159181,27.0325721 C38.1886901,29.9798305 35.6198284,32.2519983 32.5244855,32.2519983 L29.8872269,32.2519983 L28.128963,32.2519983 L26.4331443,32.2519983 C26.861288,29.3047399 29.4291425,27.0325721 32.5244855,27.0325721 Z M42.1947996,33.9918674 L42.1947996,34.8618473 C42.1947996,36.3006393 41.0114531,37.4716057 39.5574496,37.4716057 C38.1033544,37.4716057 36.9200079,36.3006393 36.9200079,34.8618473 L36.9200079,33.9918674 L42.1947996,33.9918674 Z M29.8872269,34.8618473 L29.8872269,33.9918674 L32.5244855,33.9918674 L35.1618355,33.9918674 L35.1618355,34.8618473 C35.1618355,36.3006393 33.978489,37.4716057 32.5244855,37.4716057 C31.0704819,37.4716057 29.8872269,36.3006393 29.8872269,34.8618473 Z M38.8127763,47.0406594 L36.9200079,47.0406594 L36.9200079,48.7804379 L38.5200528,48.7804379 L37.9336901,52.2600856 L13.0495357,52.2600856 L12.4631731,48.7804379 L35.1618355,48.7804379 L35.1618355,47.0406594 L12.1704496,47.0406594 L10.8420689,39.1530352 C11.0345321,39.1784044 11.2262628,39.2113842 11.4258679,39.2113842 C12.8684262,39.2113842 14.1404962,38.5102903 14.9423041,37.4446057 C15.7440205,38.5102903 17.0160905,39.2113842 18.4586488,39.2113842 C19.9012987,39.2113842 21.1734603,38.5102903 21.9751767,37.4446057 C22.776893,38.5102903 24.048963,39.2113842 25.4916129,39.2113842 C26.9342628,39.2113842 28.2062413,38.5102903 29.0080492,37.4446057 C29.8097655,38.5102903 31.0819271,39.2113842 32.5244855,39.2113842 C33.9671354,39.2113842 35.2392054,38.5102903 36.0410133,37.4446057 C36.8427296,38.5102903 38.1147996,39.2113842 39.5574496,39.2113842 C39.756963,39.2113842 39.9486022,39.1784044 40.1411569,39.1530352 L38.8127763,47.0406594 Z M8.78842621,34.8618473 L8.78842621,33.9918674 L14.0631264,33.9918674 L14.0631264,34.8618473 C14.0631264,36.3006393 12.8798715,37.4716057 11.4258679,37.4716057 C9.97177271,37.4716057 8.78842621,36.3006393 8.78842621,34.8618473 Z M15.8213903,33.9918674 L21.0960905,33.9918674 L21.0960905,34.8618473 C21.0960905,36.3006393 19.912744,37.4716057 18.4586488,37.4716057 C17.0046452,37.4716057 15.8213903,36.3006393 15.8213903,34.8618473 L15.8213903,33.9918674 Z M22.707489,23.0482601 L16.2591479,16.6683775 C16.6934262,16.1176862 16.9668302,15.4574547 17.0081246,14.7614346 C17.2102934,14.6884983 17.4037637,14.5953574 17.5883526,14.488354 C17.7686381,14.5910084 17.9523113,14.6910352 18.1510007,14.7632466 C18.213446,15.7957701 18.7506399,16.7701258 19.6349451,17.3834245 C20.5342664,18.0088641 21.6543436,18.1907064 22.6925645,17.9114648 C23.1839774,18.501297 23.8573239,18.9092869 24.6124352,19.0919446 L24.6124352,24.7315923 C24.0744172,24.0730822 23.4309199,23.505901 22.707489,23.0482601 Z M18.4586488,28.7723507 C15.3633975,28.7723507 12.7954513,26.5001829 12.3673077,23.5529245 L18.4586488,23.5529245 C19.602349,23.5529245 20.6740815,23.865146 21.592814,24.4054178 L23.7386596,26.5288138 C24.1473921,27.2047198 24.4314172,27.9616258 24.5491659,28.7723507 L18.4586488,28.7723507 Z M15.2279774,14.2544144 C15.3536919,14.9137399 15.080288,15.5661795 14.5140689,15.958495 C13.9408912,16.3578775 13.1611497,16.4048104 12.5264424,16.0777299 L11.733516,15.670646 L11.3352215,16.4613473 C11.0231785,17.0798104 10.3840761,17.4635185 9.66760395,17.4635185 C8.95104022,17.4635185 8.31202944,17.0798104 8.00071885,16.4621628 L7.60251598,15.6713708 L6.80958959,16.0785453 C6.17488223,16.4056258 5.39504919,16.3578775 4.82196302,15.960307 C4.25574399,15.567901 3.98325566,14.914646 4.10805458,14.2560453 L4.28037415,13.3522701 L3.3581623,13.2321292 C2.64077451,13.1390789 2.05889838,12.684156 1.84262908,12.0456695 C1.62983914,11.4184178 1.81360395,10.7398842 2.32351239,10.2736359 L3.02231311,9.63424329 L2.32351239,8.99575671 C1.81360395,8.52941779 1.62901508,7.85088423 1.84262908,7.22372315 C2.05889838,6.58514597 2.63995045,6.13022315 3.3581623,6.03708221 L4.28037415,5.91703188 L4.10805458,5.01325671 C3.98234004,4.35474664 4.25574399,3.70140101 4.8210474,3.30908557 C5.39422513,2.9115151 6.1766219,2.86458221 6.80784991,3.18994128 L7.6007763,3.59874664 L7.99989479,2.80713926 C8.31202944,2.18867617 8.95104022,1.80496812 9.66760395,1.80496812 C10.3840761,1.80496812 11.0231785,2.18867617 11.3343975,2.80623322 L11.733516,3.5978406 L12.5264424,3.18903523 C13.158586,2.86367617 13.9400671,2.91069966 14.5132449,3.30817953 C15.0793724,3.70049497 15.3519522,4.3538406 15.2270618,5.01235067 L15.0547422,5.91612584 L15.976954,6.03626678 C16.0754747,6.04931376 16.1668535,6.08936074 16.2627189,6.11627013 C16.1642898,6.29367282 16.0675088,6.47297819 16.0007601,6.66868289 C15.660516,7.66904195 15.8240456,8.76254195 16.4059217,9.63333725 C15.8240456,10.5041326 15.660516,11.5975419 16.0007601,12.5979916 C16.0675088,12.7946023 16.1642898,12.9729111 16.2627189,13.1504044 C16.1677691,13.1783104 16.0762987,13.2182668 15.9778697,13.2304983 L15.0556578,13.3504581 L15.2279774,14.2544144 Z M50.8073903,6.66958893 C50.4611031,5.65174329 49.6690007,4.87055537 48.6562341,4.50514933 C48.5937889,3.47344128 48.0566865,2.49917617 47.1722898,1.88497148 C46.2729684,1.25953188 45.1529828,1.0776896 44.1146704,1.35693121 C43.4387601,0.545300336 42.4241623,0.0650989933 41.3156219,0.0650989933 C40.2070815,0.0650989933 39.1925752,0.545300336 38.5165734,1.35611577 C37.4756973,1.07687416 36.359191,1.25953188 35.458954,1.88406544 C34.5737332,2.49836074 34.0365393,3.47262584 33.9750097,4.50605537 C33.7728409,4.57917282 33.5794621,4.67222315 33.3938661,4.77922651 C33.2137637,4.67657215 33.0309145,4.5765453 32.8313095,4.50433389 C32.7688643,3.47262584 32.2317619,2.49836074 31.3473652,1.88406544 C30.4480438,1.25862584 29.3271425,1.07687416 28.2897458,1.35611577 C27.6146596,0.545300336 26.6001533,0.0650989933 25.4916129,0.0650989933 C24.382981,0.0650989933 23.3684747,0.545300336 22.6925645,1.35611577 C21.6499487,1.07687416 20.5342664,1.25953188 19.6349451,1.88406544 C18.7497242,2.49836074 18.213446,3.47262584 18.1510007,4.50433389 C17.9514873,4.5765453 17.7694621,4.67657215 17.5883526,4.77922651 C17.4037637,4.67312919 17.2102934,4.57998826 17.0081246,4.50605537 C16.9466865,3.47262584 16.4094926,2.49836074 15.5241803,1.88406544 C14.6248589,1.25862584 13.5049648,1.07687416 12.4666524,1.35611577 C11.7906506,0.545300336 10.7761443,0.0650989933 9.66760395,0.0650989933 C8.55897199,0.0650989933 7.54455727,0.545300336 6.86846391,1.35611577 C5.82758779,1.07687416 4.71117307,1.25953188 3.81176014,1.88497148 C2.92653932,2.49917617 2.39026104,3.47344128 2.32699174,4.50514933 C1.31422513,4.87055537 0.521298743,5.65174329 0.175835548,6.66868289 C-0.164408618,7.66904195 -0.000878994614,8.76344799 0.580997127,9.63424329 C-0.000878994614,10.5050386 -0.164408618,11.598448 0.175835548,12.5988977 C0.522214363,13.6167433 1.31422513,14.3979312 2.32699174,14.7632466 C2.38934542,15.7950453 2.92663088,16.7693104 3.81093609,17.3834245 C4.70842621,18.0079581 5.82410844,18.1881695 6.86846391,17.9114648 C7.54364165,18.7221896 8.55897199,19.203297 9.66760395,19.203297 C10.7761443,19.203297 11.7915662,18.7221896 12.4666524,17.9123708 C13.264981,18.12375 14.1053364,18.0628641 14.8596237,17.7443909 L19.0002377,21.8408708 C18.8200438,21.8279144 18.641498,21.8130554 18.4586488,21.8130554 L10.5466901,21.8130554 L10.5466901,22.6829446 C10.5466901,27.0003171 14.0957224,30.5122198 18.4586488,30.5122198 L24.6124352,30.5122198 L24.6124352,32.2519983 L22.8542628,32.2519983 L21.0960905,32.2519983 L15.8213903,32.2519983 L14.0631264,32.2519983 L7.03025386,32.2519983 L7.03025386,34.8618473 C7.03025386,36.3467567 7.78893609,37.6577064 8.93959497,38.4432433 L11.5602808,54.0000453 L39.4219379,54.0000453 L42.0426237,38.4432433 C43.1942898,37.6577064 43.952972,36.3467567 43.952972,34.8618473 L43.952972,32.2519983 L37.4871425,32.2519983 C39.28313,30.8158339 40.4364442,28.6210419 40.4364442,26.1625923 L40.4364442,25.292703 L32.5244855,25.292703 C30.0401354,25.292703 27.822139,26.4340419 26.3706991,28.2113305 L26.3706991,27.3927232 L36.1245178,17.7435755 C36.8805447,18.0637701 37.7218158,18.1254715 38.517489,17.9114648 C39.1925752,18.7230956 40.2070815,19.203297 41.3156219,19.203297 C42.4241623,19.203297 43.4387601,18.7230956 44.1146704,17.9123708 C45.1547224,18.1898003 46.2711372,18.0088641 47.1722898,17.385146 C48.0576022,16.7710319 48.5937889,15.7966762 48.6562341,14.7641527 C49.6690007,14.3987466 50.4619271,13.6175587 50.8073903,12.5998037 C51.1476345,11.599354 50.9841048,10.5059446 50.4021372,9.63505872 C50.9841048,8.76344799 51.1476345,7.66994799 50.8073903,6.66958893 Z" id="Fill-3" fill="#FFFFFF" mask="url(#mask-3)"></path>
                    </g>
                    <path d="M41.3156219,11.3740762 C40.345981,11.3740762 39.5574496,10.5937943 39.5574496,9.63420705 C39.5574496,8.6747104 40.345981,7.89442852 41.3156219,7.89442852 C42.2852628,7.89442852 43.0738858,8.6747104 43.0738858,9.63420705 C43.0738858,10.5937943 42.2852628,11.3740762 41.3156219,11.3740762 M41.3156219,6.1545594 C39.3762485,6.1545594 37.7991856,7.71512315 37.7991856,9.63420705 C37.7991856,11.5532909 39.3762485,13.1138547 41.3156219,13.1138547 C43.2549953,13.1138547 44.8320582,11.5532909 44.8320582,9.63420705 C44.8320582,7.71512315 43.2549953,6.1545594 41.3156219,6.1545594" id="Fill-6" fill="#FFFFFF"></path>
                    <path d="M9.66756732,11.3740762 C8.69792639,11.3740762 7.90939497,10.5937943 7.90939497,9.63420705 C7.90939497,8.6747104 8.69792639,7.89442852 9.66756732,7.89442852 C10.6372998,7.89442852 11.4258312,8.6747104 11.4258312,9.63420705 C11.4258312,10.5937943 10.6372998,11.3740762 9.66756732,11.3740762 M9.66756732,6.1545594 C7.7281939,6.1545594 6.15113106,7.71512315 6.15113106,9.63420705 C6.15113106,11.5532909 7.7281939,13.1138547 9.66756732,13.1138547 C11.6069408,13.1138547 13.1840036,11.5532909 13.1840036,9.63420705 C13.1840036,7.71512315 11.6069408,6.1545594 9.66756732,6.1545594" id="Fill-8" fill="#FFFFFF"></path>
                </g>
            </g>
        </g>
    </g>
</svg>