<?xml version="1.0" encoding="UTF-8" standalone="no"?>
<svg width="89px" height="89px" viewBox="0 0 89 89" version="1.1" xmlns="http://www.w3.org/2000/svg" xmlns:xlink="http://www.w3.org/1999/xlink">
    <!-- Generator: Sketch 50.2 (55047) - http://www.bohemiancoding.com/sketch -->
    <title>Group 24</title>
    <desc>Created with Sketch.</desc>
    <defs>
        <linearGradient x1="50%" y1="0%" x2="50%" y2="100%" id="linearGradient-1">
            <stop stop-color="#BDAE36" offset="0%"></stop>
            <stop stop-color="#2FAB66" offset="100%"></stop>
        </linearGradient>
        <polygon id="path-2" points="1.38506233e-05 0.00439865772 17.3790003 0.00439865772 17.3790003 25.1073826 1.38506233e-05 25.1073826"></polygon>
        <polygon id="path-4" points="0.0338507114 0.00439865772 17.4128369 0.00439865772 17.4128369 25.1073826 0.0338507114 25.1073826"></polygon>
        <polygon id="path-6" points="0.0676775573 0.00439865772 17.4466141 0.00439865772 17.4466141 25.1073826 0.0676775573 25.1073826"></polygon>
        <polygon id="path-8" points="0 57.9295436 57.9298356 57.9295436 57.9298356 0 0 0"></polygon>
    </defs>
    <g id="Page-1" stroke="none" stroke-width="1" fill="none" fill-rule="evenodd">
        <g id="Home-Copy-9" transform="translate(-163.000000, -8830.000000)">
            <g id="Group-24" transform="translate(163.000000, 8830.000000)">
                <circle id="Oval-2-Copy-9" fill="url(#linearGradient-1)" cx="44.5" cy="44.5" r="44.5"></circle>
                <g id="icon-11" transform="translate(16.000000, 11.000000)">
                    <g id="Group-3" stroke-width="1" fill-rule="evenodd" transform="translate(0.000000, 32.822161)">
                        <mask id="mask-3" fill="white">
                            <use xlink:href="#path-2"></use>
                        </mask>
                        <g id="Clip-2"></g>
                        <path d="M15.4479691,23.1763718 L1.93104966,23.1763718 L1.93104966,17.6729893 C1.93104966,15.9134289 3.35749933,14.4868819 5.11715705,14.4868819 L7.26052953,14.4868819 L5.86152282,17.9907242 C5.71846913,18.3492342 5.8027443,18.7586403 6.07581141,19.0315128 L8.00684161,20.9624456 C8.38384161,21.3393483 8.99498255,21.3393483 9.37207987,20.9624456 L11.3030128,19.0315128 C11.5761772,18.7586403 11.6604523,18.3492342 11.5173987,17.9907242 L10.1154725,14.4868819 L12.2618617,14.4868819 C14.0214221,14.4868819 15.4479691,15.9134289 15.4479691,17.6729893 L15.4479691,23.1763718 Z M9.48691208,18.1151906 L8.6895094,18.9146369 L7.89191208,18.1161638 L8.6895094,16.1205161 L9.48691208,18.1151906 Z M3.99618054,8.64367383 C5.64918054,8.50762685 8.63053624,8.0074255 10.0208819,6.17682483 L13.4715899,8.24789195 C13.0844691,10.6123651 10.1715262,12.5558517 8.6895094,12.5558517 C6.53601611,12.1891671 4.74473087,10.6958617 3.99618054,8.64367383 Z M3.91219732,6.70690201 C4.17378121,3.47057987 5.69637852,1.93533154 8.6895094,1.93533154 C11.4295228,1.93533154 12.9376201,3.23108658 13.3693114,5.9345094 L10.1521604,4.00347919 C9.69497248,3.72914698 9.1018349,3.87755302 8.8276,4.33483826 C8.79139866,4.39517383 8.76191208,4.45911007 8.73962685,4.52586846 C8.25110336,5.99143893 5.61336846,6.54565034 3.91219732,6.70690201 Z M15.0993852,13.4161201 C14.4404624,12.9779087 13.6883114,12.6996839 12.9029758,12.6032443 C14.4095161,11.4171638 15.3361537,9.64261678 15.4479691,7.72842215 C15.4479691,1.34452953 11.7722678,0.00439865772 8.6895094,0.00439865772 C5.60665369,0.00439865772 1.93104966,1.34452953 1.93104966,7.72842215 C2.04305973,9.64281141 2.96989195,11.4173584 4.47701611,12.6032443 C1.91771745,12.9185463 -0.00377583893,15.0943248 1.94630872e-05,17.6729893 L1.94630872e-05,24.1419356 C1.94630872e-05,24.6750295 0.432294631,25.107402 0.965485906,25.107402 L16.4134356,25.107402 C16.9466268,25.107402 17.3789993,24.6750295 17.3789993,24.1419356 L17.3789993,17.6729893 C17.3800698,15.9617946 16.5242779,14.3637779 15.0993852,13.4161201 Z" id="Fill-1" fill="#FFFFFF" mask="url(#mask-3)"></path>
                    </g>
                    <g id="Group-6" stroke-width="1" fill-rule="evenodd" transform="translate(20.241611, 32.822161)">
                        <mask id="mask-5" fill="white">
                            <use xlink:href="#path-4"></use>
                        </mask>
                        <g id="Clip-5"></g>
                        <path d="M15.4818057,23.1763718 L1.96488624,23.1763718 L1.96488624,17.6729893 C1.96488624,15.9134289 3.39143322,14.4868819 5.15099362,14.4868819 L7.29436611,14.4868819 L5.89253725,17.9907242 C5.74948356,18.3492342 5.83366141,18.7586403 6.10682584,19.0315128 L8.03785604,20.9624456 C8.41485604,21.3393483 9.02599698,21.3393483 9.40299698,20.9624456 L11.3340272,19.0315128 C11.6071916,18.7586403 11.6913695,18.3492342 11.5484131,17.9907242 L10.1493091,14.4868819 L12.2956983,14.4868819 C14.055356,14.4868819 15.4818057,15.9134289 15.4818057,17.6729893 L15.4818057,23.1763718 Z M9.52084597,18.1151906 L8.72334597,18.9146369 L7.92574866,18.1161638 L8.72334597,16.1205161 L9.52084597,18.1151906 Z M4.03001711,8.64367383 C5.68301711,8.50762685 8.66437282,8.0074255 10.0547185,6.17682483 L13.5054265,8.24789195 C13.1183057,10.6123651 10.2053628,12.5558517 8.72334597,12.5558517 C6.56995,12.1891671 4.77856745,10.6958617 4.03001711,8.64367383 Z M3.94603389,6.70690201 C4.20761779,3.47057987 5.73031242,1.93533154 8.72334597,1.93533154 C11.4634567,1.93533154 12.971554,3.23108658 13.403148,5.9345094 L10.1860943,4.00347919 C9.72880906,3.72914698 9.13567148,3.87755302 8.86143658,4.33483826 C8.82523523,4.39517383 8.79574866,4.45911007 8.77346342,4.52586846 C8.28503725,5.99143893 5.64720503,6.54565034 3.94603389,6.70690201 Z M15.1333191,13.4161201 C14.474299,12.9779087 13.7222453,12.6996839 12.9368124,12.6032443 C14.44345,11.4171638 15.3699903,9.64261678 15.4818057,7.72842215 C15.4818057,1.34452953 11.8061044,0.00439865772 8.72334597,0.00439865772 C5.64049027,0.00439865772 1.96488624,1.34452953 1.96488624,7.72842215 C2.07699362,9.64281141 3.00382584,11.4173584 4.51095,12.6032443 C1.95155403,12.9185463 0.0301580537,15.0943248 0.0338560403,17.6729893 L0.0338560403,24.1419356 C0.0338560403,24.6750295 0.466131208,25.107402 0.999419799,25.107402 L16.4473695,25.107402 C16.9804634,25.107402 17.4128359,24.6750295 17.4128359,24.1419356 L17.4128359,17.6729893 C17.4139064,15.9617946 16.5581144,14.3637779 15.1333191,13.4161201 Z" id="Fill-4" fill="#FFFFFF" mask="url(#mask-5)"></path>
                    </g>
                    <g id="Group-9" stroke-width="1" fill-rule="evenodd" transform="translate(40.483221, 32.822161)">
                        <mask id="mask-7" fill="white">
                            <use xlink:href="#path-6"></use>
                        </mask>
                        <g id="Clip-8"></g>
                        <path d="M15.5157299,23.1763718 L1.99871309,23.1763718 L1.99871309,17.6729893 C1.99871309,15.9134289 3.42526007,14.4868819 5.18491779,14.4868819 L7.32829027,14.4868819 L5.92636409,17.9907242 C5.7833104,18.3492342 5.86758557,18.7586403 6.14065268,19.0315128 L8.07168289,20.9624456 C8.4487802,21.3393483 9.05982383,21.3393483 9.43692114,20.9624456 L11.3679513,19.0315128 C11.6410185,18.7586403 11.7252936,18.3492342 11.5822399,17.9907242 L10.1832332,14.4868819 L12.3295252,14.4868819 C14.0891829,14.4868819 15.5157299,15.9134289 15.5157299,17.6729893 L15.5157299,23.1763718 Z M9.55467282,18.1151906 L8.75727013,18.9146369 L7.95967282,18.1161638 L8.75727013,16.1205161 L9.55467282,18.1151906 Z M4.06384396,8.64367383 C5.71684396,8.50762685 8.69829698,8.0074255 10.0885453,6.17682483 L13.5392534,8.24789195 C13.1521326,10.6123651 10.2391896,12.5558517 8.75727013,12.5558517 C6.60377685,12.1891671 4.8123943,10.6958617 4.06384396,8.64367383 Z M3.97986074,6.70690201 C4.24154195,3.47057987 5.76413926,1.93533154 8.75727013,1.93533154 C11.4972836,1.93533154 13.0053809,3.23108658 13.4369748,5.9345094 L10.2199211,4.00347919 C9.76263591,3.72914698 9.16959564,3.87755302 8.89526342,4.33483826 C8.85906208,4.39517383 8.8295755,4.45911007 8.80738758,4.52586846 C8.31886409,5.99143893 5.68103188,6.54565034 3.97986074,6.70690201 Z M15.167146,13.4161201 C14.5081258,12.9779087 13.7560721,12.6996839 12.9706393,12.6032443 C14.4772768,11.4171638 15.4038171,9.64261678 15.5157299,7.72842215 C15.5157299,1.34452953 11.8400285,0.00439865772 8.75727013,0.00439865772 C5.67431711,0.00439865772 1.99871309,1.34452953 1.99871309,7.72842215 C2.11082047,9.64281141 3.03765268,11.4173584 4.54477685,12.6032443 C1.98547819,12.9185463 0.0639848993,15.0943248 0.0676828859,17.6729893 L0.0676828859,24.1419356 C0.0676828859,24.6750295 0.499958054,25.107402 1.03324664,25.107402 L16.4811963,25.107402 C17.0143876,25.107402 17.4466628,24.6750295 17.4466628,24.1419356 L17.4466628,17.6729893 C17.4478305,15.9617946 16.5920386,14.3637779 15.167146,13.4161201 Z" id="Fill-7" fill="#FFFFFF" mask="url(#mask-7)"></path>
                    </g>
                    <path d="M42.4818956,18.3440181 L40.5508654,18.3440181 L40.5508654,20.2750483 L42.4818956,20.2750483 L42.4818956,21.2406121 L40.5508654,21.2406121 L40.5508654,23.171545 L42.4818956,23.171545 L42.4818956,28.9645383 L41.5164292,28.9645383 L41.5164292,25.1024779 C41.5164292,24.5693839 41.084154,24.1370114 40.5508654,24.1370114 L36.6889997,24.1370114 C36.1557111,24.1370114 35.7234359,24.5693839 35.7234359,25.1024779 L35.7234359,28.9645383 L34.7579695,28.9645383 L34.7579695,23.171545 L36.6889997,23.171545 L36.6889997,21.2406121 L34.7579695,21.2406121 L34.7579695,20.2750483 L36.6889997,20.2750483 L36.6889997,18.3440181 L34.7579695,18.3440181 L34.7579695,17.3785517 L42.4818956,17.3785517 L42.4818956,18.3440181 Z M37.6543688,28.9645383 L39.585399,28.9645383 L39.585399,26.0680416 L37.6543688,26.0680416 L37.6543688,28.9645383 Z M32.8269393,28.9645383 L26.0684795,28.9645383 L26.0684795,24.1418772 L26.8930332,22.8470953 C28.2475668,20.7211423 28.9665332,18.252347 28.9649762,15.7313906 L28.9649762,15.4475215 C28.9626406,14.7959946 28.8782681,14.1470953 28.7139023,13.5165886 L32.8269393,13.5165886 L32.8269393,28.9645383 Z M21.2409527,28.1322966 L17.2186138,21.8101993 C16.0610466,19.994196 15.446597,17.8850785 15.4479594,15.7313906 C15.3933654,12.5302966 17.8670265,9.85285705 21.0623789,9.65452819 L21.2409527,9.65452819 C24.4403923,9.65452819 27.033946,12.2480819 27.033946,15.4475215 L27.033946,15.7313906 C27.0359896,17.8864409 26.4216372,19.9968235 25.2631943,21.8139946 L21.2409527,28.1322966 Z M24.1374493,28.9645383 L23.0001238,28.9645383 L24.1374493,27.1774376 L24.1374493,28.9645383 Z M44.4129258,28.9645383 L44.4129258,16.4129879 C44.4129258,15.879894 43.9805534,15.4475215 43.4474594,15.4475215 L34.7579695,15.4475215 L34.7579695,12.5511221 C34.7579695,12.0178336 34.325597,11.5855584 33.7924057,11.5855584 L27.927107,11.5855584 C26.5092211,9.11919597 23.8479359,7.63445436 21.0044762,7.72349799 C16.7686272,7.96085034 13.4695366,11.4893134 13.5169292,15.7313906 C13.5154695,18.252347 14.2343386,20.7211423 15.5888721,22.8470953 L19.4817815,28.9645383 L18.344456,28.9645383 L18.344456,30.8955685 L45.3784896,30.8955685 L45.3784896,28.9645383 L44.4129258,28.9645383 Z" id="Fill-10" fill="#FFFFFF" fill-rule="evenodd"></path>
                    <mask id="mask-9" fill="white">
                        <use xlink:href="#path-8"></use>
                    </mask>
                    <g id="Clip-13"></g>
                    <polygon id="Fill-12" fill="#FFFFFF" fill-rule="evenodd" mask="url(#mask-9)" points="29.9304329 16.4130268 31.8614631 16.4130268 31.8614631 14.4819966 29.9304329 14.4819966"></polygon>
                    <polygon id="Fill-14" fill="#FFFFFF" fill-rule="evenodd" mask="url(#mask-9)" points="37.6544564 20.2750872 39.5854866 20.2750872 39.5854866 18.344057 37.6544564 18.344057"></polygon>
                    <polygon id="Fill-15" fill="#FFFFFF" fill-rule="evenodd" mask="url(#mask-9)" points="37.6544564 23.1715839 39.5854866 23.1715839 39.5854866 21.2405537 37.6544564 21.2405537"></polygon>
                    <polygon id="Fill-16" fill="#FFFFFF" fill-rule="evenodd" mask="url(#mask-9)" points="29.9304329 19.3096208 31.8614631 19.3096208 31.8614631 17.3785906 29.9304329 17.3785906"></polygon>
                    <polygon id="Fill-17" fill="#FFFFFF" fill-rule="evenodd" mask="url(#mask-9)" points="29.9304329 22.2060201 31.8614631 22.2060201 31.8614631 20.2749899 29.9304329 20.2749899"></polygon>
                    <polygon id="Fill-18" fill="#FFFFFF" fill-rule="evenodd" mask="url(#mask-9)" points="27.0339362 25.1025168 28.9649664 25.1025168 28.9649664 23.1715839 27.0339362 23.1715839"></polygon>
                    <polygon id="Fill-19" fill="#FFFFFF" fill-rule="evenodd" mask="url(#mask-9)" points="29.9304329 25.1025168 31.8614631 25.1025168 31.8614631 23.1715839 29.9304329 23.1715839"></polygon>
                    <polygon id="Fill-20" fill="#FFFFFF" fill-rule="evenodd" mask="url(#mask-9)" points="27.0339362 27.9991107 28.9649664 27.9991107 28.9649664 26.0680805 27.0339362 26.0680805"></polygon>
                    <polygon id="Fill-21" fill="#FFFFFF" fill-rule="evenodd" mask="url(#mask-9)" points="29.9304329 27.9991107 31.8614631 27.9991107 31.8614631 26.0680805 29.9304329 26.0680805"></polygon>
                    <path d="M53.5784245,20.1447332 L51.6850554,20.5261124 C51.8038775,21.1159413 51.9004144,21.7194916 51.9747634,22.319052 L53.88925,22.0911393 C53.8111057,21.4403909 53.7067836,20.7858473 53.5784245,20.1447332" id="Fill-22" fill="#FFFFFF" fill-rule="evenodd" mask="url(#mask-9)"></path>
                    <path d="M4.34469631,20.1910164 C4.21439094,20.8360232 4.1120151,21.4896909 4.0357198,22.1346003 L5.95322315,22.3605668 C6.02270638,21.7657748 6.11924329,21.161446 6.23709228,20.5647077 L4.34469631,20.1910164 Z" id="Fill-23" fill="#FFFFFF" fill-rule="evenodd" mask="url(#mask-9)"></path>
                    <path d="M50.8470332,12.7914329 L49.1651305,13.7395772 C49.4615534,14.2638154 49.7444493,14.8074195 49.9954258,15.3567651 L51.7458386,14.5418456 C51.4697547,13.9481242 51.1666171,13.3591711 50.8470332,12.7914329" id="Fill-24" fill="#FFFFFF" fill-rule="evenodd" mask="url(#mask-9)"></path>
                    <path d="M48.6533487,9.52613993 L47.1375634,10.7252607 C47.5112547,11.1954889 47.8723923,11.6908245 48.2112446,12.193848 L49.8119862,11.115301 C49.445107,10.5708211 49.0550668,10.0358782 48.6533487,9.52613993" id="Fill-25" fill="#FFFFFF" fill-rule="evenodd" mask="url(#mask-9)"></path>
                    <path d="M9.25617718,9.55797181 C8.8496906,10.0697537 8.45965034,10.6055725 8.0956906,11.1482034 L9.70032483,12.2227604 C10.0353819,11.7216832 10.3955463,11.2273208 10.7701134,10.7532973 L9.25617718,9.55797181 Z" id="Fill-26" fill="#FFFFFF" fill-rule="evenodd" mask="url(#mask-9)"></path>
                    <path d="M45.9769795,6.64317013 L44.667795,8.06241846 C45.1148621,8.47571711 45.5484023,8.90731107 45.9547916,9.3456198 L47.3712178,8.03351577 C46.9309628,7.55842181 46.4617077,7.09023725 45.9769795,6.64317013" id="Fill-27" fill="#FFFFFF" fill-rule="evenodd" mask="url(#mask-9)"></path>
                    <path d="M7.06449732,12.8233621 C6.74598389,13.3900299 6.44372215,13.9810265 6.16754094,14.5785433 L7.91902416,15.3895701 C8.17486644,14.837305 8.4538698,14.291852 8.7464,13.7714091 L7.06449732,12.8233621 Z" id="Fill-28" fill="#FFFFFF" fill-rule="evenodd" mask="url(#mask-9)"></path>
                    <path d="M5.41259698,16.4004634 C5.18371107,17.0184164 4.97905671,17.6488258 4.80330503,18.2745641 L6.6609594,18.7988023 C6.82415738,18.2194836 7.01333859,17.6401648 7.22480503,17.0686312 L5.41259698,16.4004634 Z" id="Fill-29" fill="#FFFFFF" fill-rule="evenodd" mask="url(#mask-9)"></path>
                    <path d="M11.9267463,6.6663604 C11.4440617,7.1095349 10.9786993,7.57771946 10.5344544,8.05865235 L11.9529242,9.36881007 C12.3584376,8.92660872 12.7948,8.49598792 13.2370013,8.08463557 L11.9267463,6.6663604 Z" id="Fill-30" fill="#FFFFFF" fill-rule="evenodd" mask="url(#mask-9)"></path>
                    <path d="M52.5048114,16.3609339 L50.6944523,17.0320211 C50.9059188,17.6006352 51.0960732,18.181803 51.2602443,18.7601487 L53.1178987,18.2321151 C52.9392275,17.6054037 52.7316537,16.9769406 52.5048114,16.3609339" id="Fill-31" fill="#FFFFFF" fill-rule="evenodd" mask="url(#mask-9)"></path>
                    <path d="M22.1359336,0.940904027 C21.5026047,1.12054832 20.8721953,1.32714899 20.2647523,1.55019597 L20.9338933,3.36045772 C21.4949168,3.15385705 22.077155,2.96457852 22.6621181,2.79855839 L22.1359336,0.940904027 Z" id="Fill-32" fill="#FFFFFF" fill-rule="evenodd" mask="url(#mask-9)"></path>
                    <path d="M25.997955,0.174350336 C25.3530456,0.250548322 24.6984047,0.353897315 24.0534953,0.480407383 L24.4270893,2.3756255 C25.0237302,2.25787383 25.6281564,2.16133691 26.2239215,2.09175638 L25.997955,0.174350336 Z" id="Fill-33" fill="#FFFFFF" fill-rule="evenodd" mask="url(#mask-9)"></path>
                    <path d="M27.9607977,0.0188791946 L28.0341735,1.9499094 C28.6366534,1.92859732 29.2507138,1.92665101 29.8531936,1.9499094 L29.9303648,0.0188791946 C29.276697,-0.00720134228 28.6144654,-0.00525503356 27.9607977,0.0188791946" id="Fill-34" fill="#FFFFFF" fill-rule="evenodd" mask="url(#mask-9)"></path>
                    <path d="M18.4458393,2.30322282 C17.8539668,2.57648456 17.2631648,2.88254161 16.6924097,3.19920604 L17.638705,4.88305503 C18.1658628,4.58663221 18.7094668,4.30383356 19.2568661,4.05567919 L18.4458393,2.30322282 Z" id="Fill-35" fill="#FFFFFF" fill-rule="evenodd" mask="url(#mask-9)"></path>
                    <path d="M31.8894315,0.168560067 L31.6683309,2.08596611 C32.2621497,2.15457349 32.8664785,2.24916409 33.4650658,2.36603993 L33.8348644,0.470724497 C33.1870356,0.344311745 32.5372604,0.24290906 31.8894315,0.168560067" id="Fill-36" fill="#FFFFFF" fill-rule="evenodd" mask="url(#mask-9)"></path>
                    <path d="M42.8826503,4.20723826 L41.8118886,5.81381879 C42.3100463,6.14595638 42.8044087,6.50505034 43.283298,6.88156376 L44.4766772,5.36392953 C43.9581805,4.95637248 43.4223617,4.56633221 42.8826503,4.20723826" id="Fill-37" fill="#FFFFFF" fill-rule="evenodd" mask="url(#mask-9)"></path>
                    <path d="M35.7504993,0.928360067 L35.2320027,2.78786342 C35.8113215,2.95008826 36.390543,3.13742047 36.9602275,3.34596745 L37.6254758,1.5337594 C37.0114154,1.30691711 36.381006,1.10411174 35.7504993,0.928360067" id="Fill-38" fill="#FFFFFF" fill-rule="evenodd" mask="url(#mask-9)"></path>
                    <path d="M15.0144191,4.23033121 C14.467993,4.59818356 13.9321742,4.98725067 13.4242849,5.38896879 L14.6195131,6.90475403 C15.0888654,6.53407953 15.5850768,6.1739151 16.0910198,5.83311644 L15.0144191,4.23033121 Z" id="Fill-39" fill="#FFFFFF" fill-rule="evenodd" mask="url(#mask-9)"></path>
                    <path d="M39.4463936,2.28583255 L38.6392594,4.03926208 C39.1848097,4.29121174 39.7312359,4.56924195 40.2613131,4.86371846 L41.2026453,3.17802047 C40.6290681,2.85940973 40.0392393,2.55812114 39.4463936,2.28583255" id="Fill-40" fill="#FFFFFF" fill-rule="evenodd" mask="url(#mask-9)"></path>
                    <path d="M21.2409916,17.3785614 C20.1744144,17.3785614 19.3099614,16.5140111 19.3099614,15.4475312 C19.3099614,14.3810513 20.1744144,13.516501 21.2409916,13.516501 C22.3074715,13.516501 23.1720218,14.3810513 23.1720218,15.4475312 C23.1720218,16.5140111 22.3074715,17.3785614 21.2409916,17.3785614 M21.2409916,11.5855681 C19.1080319,11.5855681 17.3789312,13.3145715 17.3789312,15.4475312 C17.3789312,17.5803936 19.1080319,19.3095916 21.2409916,19.3095916 C23.373854,19.3095916 25.1029547,17.5803936 25.1029547,15.4475312 C25.1029547,13.3145715 23.373854,11.5855681 21.2409916,11.5855681" id="Fill-41" fill="#FFFFFF" fill-rule="evenodd" mask="url(#mask-9)"></path>
                </g>
            </g>
        </g>
    </g>
</svg>