<?xml version="1.0" encoding="UTF-8" standalone="no"?>
<svg width="89px" height="89px" viewBox="0 0 89 89" version="1.1" xmlns="http://www.w3.org/2000/svg" xmlns:xlink="http://www.w3.org/1999/xlink">
    <!-- Generator: Sketch 50.2 (55047) - http://www.bohemiancoding.com/sketch -->
    <title>Group 25</title>
    <desc>Created with Sketch.</desc>
    <defs>
        <linearGradient x1="50%" y1="0%" x2="50%" y2="100%" id="linearGradient-1">
            <stop stop-color="#BDAE36" offset="0%"></stop>
            <stop stop-color="#2FAB66" offset="100%"></stop>
        </linearGradient>
        <polygon id="path-2" points="3.2885906e-05 0.0591288591 48.9407232 0.0591288591 48.9407232 49 3.2885906e-05 49"></polygon>
    </defs>
    <g id="Page-1" stroke="none" stroke-width="1" fill="none" fill-rule="evenodd">
        <g id="Home-Copy-9" transform="translate(-163.000000, -9908.000000)">
            <g id="Group-25" transform="translate(163.000000, 9908.000000)">
                <circle id="Oval-2-Copy-10" fill="url(#linearGradient-1)" cx="44.5" cy="44.5" r="44.5"></circle>
                <g id="icon-12" transform="translate(21.000000, 17.000000)">
                    <g id="Group-3" stroke-width="1">
                        <mask id="mask-3" fill="white">
                            <use xlink:href="#path-2"></use>
                        </mask>
                        <g id="Clip-2"></g>
                        <path d="M47.0290161,44.2206255 C47.0290161,45.3303604 46.3948936,46.2941641 45.4703886,46.7706809 C45.450246,46.7460164 45.4286235,46.7220097 45.4056034,46.6989896 L32.7496268,34.0430953 L42.4407745,24.3520299 L42.4407745,32.2883856 C42.4407745,32.8162866 42.8688668,33.2442144 43.3966856,33.2442144 C43.9245044,33.2442144 44.3525966,32.8162866 44.3525966,32.2883856 L44.3525966,22.4402899 L47.0290161,19.7637883 L47.0290161,44.2206255 Z M5.84961342,47.0881943 L9.0996453,43.8382446 L24.4703534,43.8382446 C24.9981721,43.8382446 25.4262644,43.4103168 25.4262644,42.8824158 C25.4262644,42.3544326 24.9981721,41.9265047 24.4703534,41.9265047 L11.0113852,41.9265047 L13.6878047,39.250003 L20.7590144,39.250003 C21.2869154,39.250003 21.7149255,38.8220752 21.7149255,38.2941742 C21.7149255,37.7661909 21.2869154,37.3382631 20.7590144,37.3382631 L15.5996268,37.3382631 L20.2738651,32.6640248 C22.5877997,30.3499258 26.352907,30.3499258 28.6667594,32.6640248 L43.0911755,47.0881943 L5.84961342,47.0881943 Z M3.53510336,46.6990718 C3.51200101,46.7220919 3.49054295,46.7460164 3.47031812,46.7707631 C2.54581309,46.2941641 1.91177282,45.3303604 1.91177282,44.2206255 L1.91177282,19.7637883 L16.1910799,34.0431775 L3.53510336,46.6990718 Z M1.91177282,9.61815738 C1.91177282,5.4014443 5.34234832,1.97078658 9.55897919,1.97078658 L17.5877443,1.97078658 C21.8045396,1.97078658 25.2351151,5.4014443 25.2351151,9.61815738 C25.2351151,13.2171087 22.6827577,16.3647832 19.1662678,17.1021674 C18.7236235,17.1949879 18.4066034,17.5853436 18.4066034,18.0376893 L18.4066034,19.9484426 L16.003548,17.5453872 C15.8241554,17.3661591 15.5811285,17.265446 15.3275782,17.265446 L9.55897919,17.265446 C5.34234832,17.265446 1.91177282,13.8348705 1.91177282,9.61815738 Z M26.2632107,2.5744896 L46.5245463,17.5645433 L31.3978517,32.6913201 L30.018699,31.312003 C26.9593232,28.2527916 21.9814658,28.2527916 18.9220899,31.312003 L17.5429372,32.6913201 L2.41624262,17.5646255 L3.34617383,16.8766523 C5.01825772,18.3100668 7.18913859,19.1772681 9.55897919,19.1772681 L14.9316319,19.1772681 L18.6865446,22.9320987 C18.8693081,23.1149443 19.113897,23.2120399 19.3625144,23.2120399 C19.4856721,23.2120399 19.6099809,23.1881977 19.7282057,23.1391977 C20.0852644,22.9912111 20.3182611,22.6427027 20.3182611,22.2560466 L20.3182611,18.7804174 C22.1322477,18.2388688 23.7656084,17.1570869 24.9776185,15.6815785 C26.3765027,13.9787463 27.146855,11.8254594 27.146855,9.61815738 C27.146855,6.58952987 25.7307879,3.88573289 23.5263634,2.13316074 C24.4377141,1.82987047 25.4550396,1.97662383 26.2632107,2.5744896 Z M48.5533601,16.6875584 L27.4001587,1.03764899 C25.6821168,-0.233555705 23.3850362,-0.257480201 21.6443852,0.963902349 C20.4123148,0.384041611 19.037355,0.0591288591 17.5877443,0.0591288591 L9.55897919,0.0591288591 C4.28810839,0.0591288591 3.2885906e-05,4.34728658 3.2885906e-05,9.61815738 C3.2885906e-05,11.8266926 0.753202349,13.8624946 2.0157745,15.4828654 L0.387428859,16.6875584 C0.143744295,16.8679376 3.2885906e-05,17.1530584 3.2885906e-05,17.4560198 L3.2885906e-05,44.2206255 C3.2885906e-05,46.8559376 2.14402953,49.0000164 4.77934161,49.0000164 L44.1613651,49.0000164 C46.7967594,49.0000164 48.940756,46.8559376 48.940756,44.2206255 L48.940756,17.4560198 C48.940756,17.1530584 48.7970446,16.8679376 48.5533601,16.6875584 Z" id="Fill-1" fill="#FFFFFF" mask="url(#mask-3)"></path>
                    </g>
                    <path d="M29.4790495,42.20652 C29.3013834,42.0287716 29.0547391,41.9264965 28.8033263,41.9264965 C28.5519958,41.9264965 28.3053515,42.0287716 28.1276032,42.20652 C27.9496904,42.3843505 27.8474975,42.6309126 27.8474975,42.8824076 C27.8474975,43.1337381 27.9496082,43.3803002 28.1276032,43.5581307 C28.3054337,43.7359612 28.5519958,43.8382364 28.8033263,43.8382364 C29.0547391,43.8382364 29.3013834,43.7359612 29.4790495,43.5581307 C29.65688,43.3803002 29.7592374,43.1337381 29.7592374,42.8824076 C29.7592374,42.6309126 29.6569622,42.3843505 29.4790495,42.20652" id="Fill-4" fill="#FFFFFF"></path>
                    <path d="M44.0724169,35.5240052 C43.8947508,35.3462569 43.6481065,35.2439817 43.3966938,35.2439817 C43.1453633,35.2439817 42.898719,35.3462569 42.7209706,35.5240052 C42.5430579,35.7018357 42.4407827,35.9483978 42.4407827,36.1998928 C42.4407827,36.4512233 42.5429757,36.6977854 42.7209706,36.8756159 C42.898719,37.0534465 43.1453633,37.1557216 43.3966938,37.1557216 C43.6481065,37.1557216 43.8947508,37.0534465 44.0724169,36.8756159 C44.2501653,36.6977854 44.3526049,36.4512233 44.3526049,36.1998928 C44.3526049,35.9483978 44.2503297,35.7018357 44.0724169,35.5240052" id="Fill-6" fill="#FFFFFF"></path>
                    <path d="M14.2282106,8.92488138 C14.0493935,8.74705084 13.8039002,8.64477567 13.5515008,8.64477567 C13.3000059,8.64477567 13.0534438,8.74705084 12.8756955,8.92488138 C12.6979471,9.1026297 12.5955898,9.34927399 12.5955898,9.60068674 C12.5955898,9.85201728 12.6978649,10.0986616 12.8756955,10.2764099 C13.0534438,10.4543227 13.3000059,10.5565978 13.5515008,10.5565978 C13.8039002,10.5565978 14.0493935,10.4543227 14.2282106,10.2764099 C14.4059589,10.0986616 14.5073297,9.85201728 14.5073297,9.60068674 C14.5073297,9.34927399 14.4059589,9.1026297 14.2282106,8.92488138" id="Fill-8" fill="#FFFFFF"></path>
                    <path d="M11.0088284,8.92488138 C10.8309978,8.74705084 10.5843535,8.64477567 10.3329408,8.64477567 C10.0806237,8.64477567 9.83504815,8.74705084 9.65623104,8.92488138 C9.47856493,9.1026297 9.37711191,9.34927399 9.37711191,9.60068674 C9.37711191,9.85300386 9.47856493,10.0986616 9.65623104,10.2764099 C9.83504815,10.4543227 10.0806237,10.5565978 10.3329408,10.5565978 C10.5843535,10.5565978 10.8300112,10.4543227 11.0088284,10.2764099 C11.1865767,10.0986616 11.2888518,9.85201728 11.2888518,9.60068674 C11.2888518,9.34927399 11.1866589,9.1026297 11.0088284,8.92488138" id="Fill-10" fill="#FFFFFF"></path>
                    <path d="M17.4465487,8.92488138 C17.2688003,8.74705084 17.0222383,8.64477567 16.7708255,8.64477567 C16.5193305,8.64477567 16.2728507,8.74705084 16.0950201,8.92488138 C15.9171896,9.1026297 15.8149144,9.34927399 15.8149144,9.60068674 C15.8149144,9.85201728 15.9171074,10.0986616 16.0950201,10.2764099 C16.2728507,10.4543227 16.5193305,10.5565978 16.7708255,10.5565978 C17.0222383,10.5565978 17.2688003,10.4543227 17.4465487,10.2764099 C17.624297,10.0986616 17.7266544,9.85201728 17.7266544,9.60068674 C17.7266544,9.34927399 17.6243792,9.1026297 17.4465487,8.92488138" id="Fill-12" fill="#FFFFFF"></path>
                </g>
            </g>
        </g>
    </g>
</svg>