<?xml version="1.0" encoding="UTF-8" standalone="no"?>
<svg width="89px" height="89px" viewBox="0 0 89 89" version="1.1" xmlns="http://www.w3.org/2000/svg" xmlns:xlink="http://www.w3.org/1999/xlink">
    <!-- Generator: Sketch 50.2 (55047) - http://www.bohemiancoding.com/sketch -->
    <title>Group 19</title>
    <desc>Created with Sketch.</desc>
    <defs>
        <linearGradient x1="50%" y1="0%" x2="50%" y2="100%" id="linearGradient-1">
            <stop stop-color="#BDAE36" offset="0%"></stop>
            <stop stop-color="#2FAB66" offset="100%"></stop>
        </linearGradient>
        <polygon id="path-2" points="1.04026846e-05 0.102853469 61.9249966 0.102853469 61.9249966 50.9152984 1.04026846e-05 50.9152984"></polygon>
    </defs>
    <g id="Page-1" stroke="none" stroke-width="1" fill="none" fill-rule="evenodd">
        <g id="Home-Copy-9" transform="translate(-1189.000000, -2403.000000)">
            <g id="Group-19" transform="translate(1189.000000, 2403.000000)">
                <circle id="Oval-2-Copy" fill="url(#linearGradient-1)" cx="44.5" cy="44.5" r="44.5"></circle>
                <g id="icon-03" transform="translate(13.000000, 16.000000)">
                    <g id="Group-3">
                        <mask id="mask-3" fill="white">
                            <use xlink:href="#path-2"></use>
                        </mask>
                        <g id="Clip-2"></g>
                        <path d="M47.0196245,49.0694106 L39.8754768,49.0694106 L39.8754768,47.9939351 C39.8754768,46.0475045 41.608252,45.9238555 41.9555977,45.9189637 L41.949252,44.9959678 L41.949252,44.0729718 C41.3147923,44.0729718 40.5558124,44.2428331 39.8754768,44.6330351 L39.8754768,41.9981045 L38.0304567,41.9981045 L38.0304567,44.6330351 C37.3500171,44.2428331 36.5910372,44.0729718 35.9566815,44.0729718 L35.9566815,45.9189637 C36.1688963,45.9189637 38.0304567,45.9772494 38.0304567,47.9939351 L38.0304567,49.0694106 L31.8851748,49.0694106 L31.8851748,39.923029 L31.9613225,39.923029 C34.8635674,39.923029 37.5851178,38.6605188 39.4544802,36.4946841 C41.3250909,38.6606229 44.0436245,39.923029 46.9433728,39.923029 L47.0196245,39.923029 L47.0196245,49.0694106 Z M34.3053594,29.3534351 L31.8851748,31.7751024 L31.8851748,27.3902473 L35.6100641,23.6635004 L34.3054634,22.3581086 L31.8852789,24.7797759 L31.8852789,20.3952331 L35.6101681,16.668382 L34.3055674,15.3630943 L31.8853829,17.7847616 L31.8853829,13.0179269 L30.0402587,13.0179269 L30.0402587,17.7847616 L27.6200742,15.3630943 L26.3155775,16.668382 L30.0403628,20.3952331 L30.0403628,24.7797759 L27.6201782,22.3581086 L26.3156815,23.6635004 L30.0404668,27.3902473 L30.0404668,31.7749984 L27.6202822,29.353331 L26.3157856,30.6586188 L30.0406748,34.3854698 L30.0406748,38.0767249 L29.9645272,38.0767249 C27.449054,38.0767249 25.100544,36.9108024 23.5789433,34.932731 C24.4407017,33.437182 24.8942587,31.7471045 24.8942587,30.0058188 L24.8942587,10.0196473 C24.8942587,8.27773714 24.4403896,6.58745143 23.5789433,5.0927351 C25.0999198,3.11487184 27.4481178,1.94884531 29.963695,1.94884531 L31.9613225,1.94884531 C34.4767956,1.94884531 36.8250977,3.11487184 38.3469064,5.09283918 C37.485148,6.58859633 37.0314869,8.27846571 37.0314869,10.0196473 L37.0314869,30.0060269 C37.0314869,31.7480412 37.4854601,33.4382229 38.3469064,34.9329392 C36.8250977,36.9110106 34.4768997,38.0769331 31.9613225,38.0769331 L31.8851748,38.0769331 L31.8851748,34.385678 L35.6100641,30.658931 L34.3053594,29.3534351 Z M30.0401547,49.0693065 L23.8945607,49.0693065 L23.8945607,47.9939351 C23.8945607,46.0475045 25.6273359,45.9238555 25.9748896,45.9189637 L25.968648,44.9959678 L25.968648,44.0729718 C25.3340842,44.0729718 24.5752084,44.2428331 23.8946648,44.6330351 L23.8946648,41.9980004 L22.0496446,41.9980004 L22.0496446,44.632931 C21.369205,44.2426249 20.6103292,44.0728678 19.9758695,44.0728678 L19.9758695,45.9188596 C20.1881883,45.9188596 22.0496446,45.9771453 22.0496446,47.993831 L22.0496446,49.0693065 L14.905497,49.0693065 L14.905497,39.9229249 L14.9818527,39.9229249 C17.8819131,39.9229249 20.6009668,38.6602065 22.4708493,36.4948922 C24.3401077,38.6605188 27.0616581,39.9229249 29.963903,39.9229249 L30.0401547,39.9229249 L30.0401547,49.0693065 Z M56.8548426,49.0693065 L56.8548426,47.9939351 C56.8548426,46.0475045 58.5876178,45.9238555 58.9350674,45.9189637 L58.9285138,44.9959678 L58.9285138,44.0729718 C58.2941581,44.0729718 57.5351782,44.2428331 56.8548426,44.6330351 L56.8548426,41.9981045 L55.0098225,41.9981045 L55.0098225,44.6330351 C54.3293829,44.2428331 53.570403,44.0729718 52.9360473,44.0729718 L52.9360473,45.9189637 C53.1482621,45.9189637 55.0098225,45.9772494 55.0098225,47.9939351 L55.0098225,49.0694106 L48.8644366,49.0694106 L48.8644366,39.923029 L48.9407923,39.923029 C54.4061547,39.923029 58.8525742,35.4744759 58.8525742,30.0062351 L58.8525742,27.0080596 L57.007554,27.0080596 L57.007554,30.0062351 C57.007554,34.4564535 53.3887721,38.0770371 48.9407923,38.0770371 L48.8644366,38.0770371 L48.8644366,34.3858861 L52.5894299,30.6590351 L51.2848292,29.3536433 L48.8645406,31.7754147 L48.8645406,27.3903514 L52.5895339,23.6636045 L51.2849332,22.3582127 L48.8646446,24.7799841 L48.8646446,20.3953371 L52.5896379,16.6684861 L51.2850372,15.3631984 L48.8647487,17.7848657 L48.8647487,13.018031 L47.0197285,13.018031 L47.0197285,17.7848657 L44.5994399,15.3631984 L43.2948393,16.6684861 L47.0198326,20.3953371 L47.0198326,24.7799841 L44.5990238,22.3582127 L43.2945272,23.6636045 L47.0195205,27.3903514 L47.0195205,31.7751024 L44.5992319,29.3534351 L43.2946312,30.6588269 L47.0196245,34.3855739 L47.0196245,38.076829 L46.9434768,38.076829 C44.2412755,38.076829 41.7317319,36.7289718 40.2292721,34.4692555 C39.3445238,33.1460657 38.8769232,31.6027433 38.8769232,30.0059229 L38.8769232,10.0196473 C38.8769232,8.4230351 39.3445238,6.87950449 40.2305205,5.55444122 C41.7318359,3.29670245 44.2413795,1.94884531 46.9435809,1.94884531 L48.9412084,1.94884531 C53.3890842,1.94884531 57.0078661,5.56953306 57.0078661,10.0196473 L57.0078661,24.0101963 L58.8528862,24.0101963 L58.8528862,10.0196473 C58.8528862,4.55140653 54.4064668,0.102853469 48.9412084,0.102853469 L46.9435809,0.102853469 C44.0434164,0.102853469 41.3244668,1.36546776 39.4545842,3.5309902 C37.5853258,1.36525959 34.8637755,0.102853469 31.9616346,0.102853469 L29.9641111,0.102853469 C27.0616581,0.102853469 24.3402117,1.36536367 22.4709534,3.53109429 C20.6003426,1.36494735 17.8818091,0.102853469 14.9820607,0.102853469 L12.9845372,0.102853469 C7.51917483,0.102853469 3.07275537,4.55140653 3.07275537,10.0196473 L3.07275537,14.0170065 L4.9177755,14.0170065 L4.9177755,10.0196473 C4.9177755,5.56953306 8.53655738,1.94884531 12.9845372,1.94884531 L14.9820607,1.94884531 C17.6843661,1.94884531 20.1939097,3.29670245 21.6962654,5.55641878 C22.5810138,6.87950449 23.0486144,8.42313918 23.0486144,10.0197514 L23.0486144,30.0062351 C23.0486144,31.6030555 22.5810138,33.146482 21.6950171,34.4713371 C20.1939097,36.72918 17.6843661,38.0770371 14.9820607,38.0770371 L14.9059131,38.0770371 L14.9059131,34.3858861 L18.6309064,30.6590351 L17.3264097,29.3536433 L14.9060171,31.7754147 L14.9060171,27.3903514 L18.6310104,23.6636045 L17.3265138,22.3582127 L14.9061211,24.7799841 L14.9061211,20.3953371 L18.6311144,16.6684861 L17.3265138,15.3631984 L14.9063292,17.7848657 L14.9063292,13.018031 L13.0613091,13.018031 L13.0613091,17.7848657 L10.6409164,15.3630943 L9.3364198,16.668382 L13.0614131,20.3952331 L13.0614131,24.7797759 L10.6401883,22.3581086 L9.33569161,23.6635004 L13.0606849,27.3902473 L13.0606849,31.7749984 L10.6402923,29.353331 L9.33579564,30.6586188 L13.0607889,34.3854698 L13.0607889,38.0767249 L12.9845372,38.0767249 C8.53655738,38.0767249 4.9177755,34.4560371 4.9177755,30.0058188 L4.9177755,17.0149739 L3.07275537,17.0149739 L3.07275537,30.0063392 C3.07275537,35.47458 7.51917483,39.9231331 12.9845372,39.9231331 L13.0607889,39.9231331 L13.0607889,49.0696188 L6.91519497,49.0696188 L6.91519497,47.9940392 C6.91519497,46.0476086 8.64807416,45.9239596 8.99562785,45.9191718 L8.98917819,44.9959678 L8.98917819,44.0729718 C8.35461443,44.0729718 7.59563456,44.2428331 6.91519497,44.6330351 L6.91519497,41.9980004 L5.07017483,41.9980004 L5.07017483,44.632931 C4.38973523,44.2426249 3.63075537,44.0728678 2.99650369,44.0728678 L2.99650369,45.9188596 C3.20871846,45.9188596 5.07017483,45.9771453 5.07017483,47.993831 L5.07017483,49.0693065 L1.04026846e-05,49.0693065 L1.04026846e-05,50.9152984 L61.925007,50.9152984 L61.925007,49.0693065 L56.8548426,49.0693065 Z" id="Fill-1" fill="#FFFFFF" mask="url(#mask-3)"></path>
                    </g>
                </g>
            </g>
        </g>
    </g>
</svg>