<?xml version="1.0" encoding="UTF-8" standalone="no"?>
<svg width="89px" height="89px" viewBox="0 0 89 89" version="1.1" xmlns="http://www.w3.org/2000/svg" xmlns:xlink="http://www.w3.org/1999/xlink">
    <!-- Generator: Sketch 50.2 (55047) - http://www.bohemiancoding.com/sketch -->
    <title>Group 15</title>
    <desc>Created with Sketch.</desc>
    <defs>
        <linearGradient x1="50%" y1="0%" x2="50%" y2="100%" id="linearGradient-1">
            <stop stop-color="#BDAE36" offset="0%"></stop>
            <stop stop-color="#2FAB66" offset="100%"></stop>
        </linearGradient>
        <polygon id="path-2" points="1.72096113e-05 52.9360799 52.9358125 52.9360799 52.9358125 1.77852349e-05 1.72096113e-05 1.77852349e-05"></polygon>
    </defs>
    <g id="Page-1" stroke="none" stroke-width="1" fill="none" fill-rule="evenodd">
        <g id="Home-Copy-9" transform="translate(-153.000000, -864.000000)">
            <g id="Group-15" transform="translate(153.000000, 864.000000)">
                <circle id="Oval-2" fill="url(#linearGradient-1)" cx="44.5" cy="44.5" r="44.5"></circle>
                <g id="icon1" transform="translate(18.000000, 14.000000)">
                    <path d="M38.7785165,14.674295 C38.5863471,14.4820366 38.3195686,14.3714124 38.0476323,14.3714124 C37.775785,14.3714124 37.5090065,14.4820366 37.3167481,14.674295 C37.1243118,14.8666423 37.0136877,15.1323537 37.0136877,15.405357 C37.0136877,15.6772044 37.1242229,15.943894 37.3167481,16.1362413 C37.5090954,16.3285886 37.775785,16.4392128 38.0476323,16.4392128 C38.3195686,16.4392128 38.5863471,16.3285886 38.7785165,16.1362413 C38.9707749,15.943894 39.081488,15.6772044 39.081488,15.405357 C39.081488,15.1333319 38.9709528,14.8666423 38.7785165,14.674295" id="Fill-1" fill="#FFFFFF" fill-rule="evenodd"></path>
                    <mask id="mask-3" fill="white">
                        <use xlink:href="#path-2"></use>
                    </mask>
                    <g id="Clip-4"></g>
                    <path d="M8.27112963,37.4275329 L14.4746196,37.4275329 L14.4746196,31.224043 L8.27112963,31.224043 L8.27112963,37.4275329 Z M15.5084753,29.1562426 L7.23736285,29.1562426 C6.66645681,29.1562426 6.20341822,29.6191034 6.20341822,30.1901872 L6.20341822,38.4613886 C6.20341822,39.0323836 6.66645681,39.4952443 7.23736285,39.4952443 L15.5084753,39.4952443 C16.0794702,39.4952443 16.5424199,39.0323836 16.5424199,38.4613886 L16.5424199,30.1901872 C16.5424199,29.6191034 16.0795592,29.1562426 15.5084753,29.1562426 Z" id="Fill-3" fill="#FFFFFF" fill-rule="evenodd" mask="url(#mask-3)"></path>
                    <path d="M50.8680477,50.8681995 L25.138593,50.8681995 L29.0840696,46.922723 L30.0710612,47.9096257 C30.2730125,48.1116659 30.5375679,48.2125971 30.8022122,48.2125971 C31.0666786,48.2125971 31.3313229,48.1116659 31.5331853,47.9096257 C31.9369102,47.5059008 31.9369102,46.8513153 31.5331853,46.4474126 L30.5462826,45.460421 L33.1781417,42.8286508 L34.1650444,43.8153757 C34.3669068,44.0174159 34.6315511,44.1183471 34.8961065,44.1183471 C35.1606618,44.1183471 35.4253061,44.0172381 35.6271686,43.8153757 C36.0308934,43.4116508 36.0308934,42.7570653 35.6271686,42.3533404 L34.6402659,41.3662599 L37.2721249,38.7344898 L38.2591165,39.7213924 C38.460979,39.9233438 38.7256232,40.024275 38.9901786,40.024275 C39.254734,40.024275 39.5192894,39.9233438 39.7212407,39.7213924 C40.1249655,39.3176676 40.1249655,38.6629931 39.7212407,38.2591794 L38.734338,37.2721878 L41.3660192,34.6404176 L42.3530108,35.6273203 C42.5549622,35.8292716 42.8195175,35.9302029 43.0841618,35.9302029 C43.3486283,35.9302029 43.6132726,35.8292716 43.815135,35.6273203 C44.2189488,35.2235955 44.2189488,34.568921 43.815135,34.1651072 L42.8282323,33.1781156 L45.4601803,30.5462565 L46.4469941,31.5330703 C46.6489454,31.7350216 46.9135008,31.8359529 47.1780561,31.8359529 C47.4426115,31.8359529 47.7072558,31.7349327 47.9092071,31.5330703 C48.312932,31.1293455 48.312932,30.474671 47.9092071,30.0709461 L46.9222155,29.0839545 L50.8680477,25.1386559 L50.8680477,50.8681995 Z M52.2976249,21.687431 C51.9112407,21.527275 51.466432,21.6159344 51.1708414,21.9114361 L40.6356686,32.4467867 C40.6355796,32.4469646 40.6353128,32.4470535 40.635135,32.4473203 C40.6348682,32.4474982 40.6347793,32.4474982 40.6346904,32.4477649 L28.353541,44.7289143 C28.3532743,44.7290921 28.3531853,44.72927 28.3530964,44.7294478 C28.3528296,44.7296257 28.3527407,44.7297146 28.3525628,44.7299814 L21.9114622,51.171082 C21.6158716,51.4666727 21.52739,51.9114814 21.6872793,52.2977767 C21.8472575,52.6841609 22.2243045,52.9360888 22.6425243,52.9360888 L51.9019924,52.9360888 C52.4728984,52.9360888 52.9358481,52.4731391 52.9358481,51.9021441 L52.9358481,22.642676 C52.9358481,22.2245451 52.6840092,21.8474092 52.2976249,21.687431 Z" id="Fill-5" fill="#FFFFFF" fill-rule="evenodd" mask="url(#mask-3)"></path>
                    <path d="M45.6985202,45.698672 L37.6190437,45.698672 L45.6985202,37.6191065 L45.6985202,45.698672 Z M47.1280974,34.1677928 C46.7417132,34.0076367 46.2969045,34.0962072 46.0013139,34.3918867 L34.3918239,46.0015545 C34.0961444,46.2972341 34.0075739,46.7418649 34.167641,47.1282492 C34.3277081,47.5146334 34.7045773,47.7665612 35.1227971,47.7665612 L46.7324649,47.7665612 C47.3033709,47.7665612 47.7663206,47.3037005 47.7663206,46.7326166 L47.7663206,35.1229488 C47.7663206,34.7049069 47.5144816,34.3278599 47.1280974,34.1677928 Z" id="Fill-6" fill="#FFFFFF" fill-rule="evenodd" mask="url(#mask-3)"></path>
                    <path d="M44.1565493,21.3161376 L41.9917305,19.1513188 L45.4075627,17.9003943 L44.1565493,21.3161376 Z M22.7657137,43.5542617 L22.1145962,44.2053792 C21.7122942,44.6077701 21.1775811,44.8292852 20.6085425,44.8292852 C20.0396818,44.8292852 19.5047909,44.6077701 19.1026667,44.2053792 C18.7001868,43.8031661 18.4787607,43.2682752 18.4787607,42.6995034 C18.4787607,42.1305537 18.7000979,41.5956628 19.1024889,41.1933607 L19.7536952,40.5422433 L22.7657137,43.5542617 Z M47.8758865,15.4321594 C47.5913227,15.1476846 47.1675895,15.0539564 46.7892976,15.1924144 L39.7297154,17.7776762 C39.5885895,17.8293423 39.4604469,17.9111544 39.3540912,18.0174211 L37.3690811,20.0025201 L24.4074687,7.04072987 C24.2135207,6.84687081 23.950566,6.73784732 23.6764066,6.73784732 C23.4021583,6.73784732 23.1391147,6.84687081 22.9453446,7.04072987 L7.34333617,22.6426493 L3.53009288,22.6426493 L23.6764066,2.49615772 L34.7318865,13.5516376 C35.1357003,13.9553624 35.790108,13.9553624 36.1940996,13.5516376 C36.5978244,13.1479128 36.5978244,12.4931493 36.1940996,12.0893356 L24.4075576,0.302793624 C24.0037439,-0.100931208 23.3493362,-0.100931208 22.9453446,0.302793624 L0.302873082,22.945354 C0.00719355189,23.2410336 -0.0812879917,23.6856644 0.0786901962,24.0720487 C0.23875731,24.4586107 0.615715364,24.7104497 1.03384624,24.7104497 L2.06779087,24.7104497 L2.06779087,51.9021174 C2.06779087,52.4731124 2.53074053,52.9360621 3.1017355,52.9360621 L19.5393831,52.9360621 C20.1102892,52.9360621 20.5732389,52.4731124 20.5732389,51.9021174 C20.5732389,51.3310336 20.1102892,50.8681728 19.5393831,50.8681728 L4.1355912,50.8681728 L4.1355912,24.7104497 L7.77169355,24.7104497 C8.04585295,24.7104497 8.30880765,24.6014262 8.50275563,24.407656 L23.6764066,9.23391611 L35.9067791,21.4644664 L20.5746617,36.7967617 L20.5746617,27.5020201 L27.8120073,27.5020201 C28.3829134,27.5020201 28.845863,27.0390705 28.845863,26.4680755 C28.845863,25.8970805 28.3829134,25.4342198 27.8120073,25.4342198 L19.540717,25.4342198 C18.9698999,25.4342198 18.5069503,25.8970805 18.5069503,26.4680755 L18.5069503,38.4613708 C18.5069503,38.5820436 18.5286482,38.697203 18.5665308,38.8048037 L17.6401868,39.7311477 C16.0035895,41.367745 16.0035895,44.030995 17.6401868,45.6675923 C18.4587523,46.4859799 19.5334251,46.895307 20.6084536,46.8952181 C21.6833043,46.8952181 22.7585107,46.4858909 23.5767204,45.6676812 L32.2958429,36.9485587 C32.6995677,36.5448339 32.6995677,35.8901594 32.2958429,35.4864346 C31.892118,35.0827097 31.2376214,35.0827097 30.8336298,35.4864346 L24.2278378,42.0922265 L21.2156415,39.0802081 L40.1057842,20.1899765 L43.1178915,23.2020839 L35.899665,30.4203993 C35.4959402,30.8241242 35.4959402,31.4787987 35.899665,31.8825235 C36.3034788,32.2862483 36.9580644,32.2862483 37.361967,31.8825235 L45.2905358,23.9539547 C45.3967137,23.8476879 45.4786147,23.7193674 45.5301919,23.5783305 L48.1156315,16.5188372 C48.2540006,16.1408121 48.1605392,15.7168121 47.8758865,15.4321594 Z" id="Fill-7" fill="#FFFFFF" fill-rule="evenodd" mask="url(#mask-3)"></path>
                    <path d="M34.810355,32.9713711 C34.6181855,32.7790238 34.351407,32.6683997 34.0794707,32.6683997 C33.8076234,32.6683997 33.5408449,32.7790238 33.3485865,32.9713711 C33.1562392,33.1646966 33.045615,33.4304081 33.045615,33.7023443 C33.045615,33.9752587 33.1560613,34.2409701 33.3485865,34.4342956 C33.5408449,34.626643 33.8065563,34.7362889 34.0794707,34.7362889 C34.351407,34.7362889 34.6181855,34.626643 34.810355,34.4342956 C35.0027023,34.2409701 35.1134154,33.9741916 35.1134154,33.7023443 C35.1134154,33.4304081 35.0027912,33.1646966 34.810355,32.9713711" id="Fill-8" fill="#FFFFFF" fill-rule="evenodd" mask="url(#mask-3)"></path>
                    <path d="M23.6764333,21.4019336 C22.6502253,21.4019336 21.8153863,20.5670946 21.8153863,19.5408866 C21.8153863,18.5147674 22.6502253,17.6799285 23.6764333,17.6799285 C24.7025524,17.6799285 25.5373914,18.5147674 25.5373914,19.5408866 C25.5373914,20.5670057 24.7025524,21.4019336 23.6764333,21.4019336 M23.6764333,15.6121282 C21.5101028,15.6121282 19.7474971,17.374556 19.7474971,19.5408866 C19.7474971,21.707306 21.5101028,23.4697339 23.6764333,23.4697339 C25.8426749,23.4697339 27.6052806,21.707306 27.6052806,19.5408866 C27.6052806,17.374556 25.8426749,15.6121282 23.6764333,15.6121282" id="Fill-9" fill="#FFFFFF" fill-rule="evenodd" mask="url(#mask-3)"></path>
                </g>
            </g>
        </g>
    </g>
</svg>