<?xml version="1.0" encoding="UTF-8" standalone="no"?>
<svg width="89px" height="89px" viewBox="0 0 89 89" version="1.1" xmlns="http://www.w3.org/2000/svg" xmlns:xlink="http://www.w3.org/1999/xlink">
    <!-- Generator: Sketch 50.2 (55047) - http://www.bohemiancoding.com/sketch -->
    <title>Group 23</title>
    <desc>Created with Sketch.</desc>
    <defs>
        <linearGradient x1="50%" y1="0%" x2="50%" y2="100%" id="linearGradient-1">
            <stop stop-color="#BDAE36" offset="0%"></stop>
            <stop stop-color="#2FAB66" offset="100%"></stop>
        </linearGradient>
        <polygon id="path-2" points="0 0.012912605 34.6244552 0.012912605 34.6244552 34.6957983 0 34.6957983"></polygon>
        <polygon id="path-4" points="0 51.9934454 51.937094 51.9934454 51.937094 -1.13686838e-13 0 -1.13686838e-13"></polygon>
    </defs>
    <g id="Page-1" stroke="none" stroke-width="1" fill="none" fill-rule="evenodd">
        <g id="Home-Copy-9" transform="translate(-163.000000, -7714.000000)">
            <g id="Group-23" transform="translate(163.000000, 7714.000000)">
                <circle id="Oval-2-Copy-7" fill="url(#linearGradient-1)" cx="44.5" cy="44.5" r="44.5"></circle>
                <g id="icon-10" transform="translate(17.000000, 17.000000)">
                    <path d="M7.5739047,8.6395684 C5.78112617,8.6395684 4.32783087,10.0953936 4.32783087,11.8911852 L4.32783087,20.5619012 L6.49185101,20.5619012 L6.49185101,11.8911852 C6.49185101,11.2925297 6.97625369,10.8073129 7.5739047,10.8073129 L33.5426698,10.8073129 L33.5426698,8.6395684 L7.5739047,8.6395684 Z" id="Fill-1" fill="#FFFFFF" fill-rule="evenodd"></path>
                    <path d="M7.5739047,41.1550198 C6.97625369,41.1550198 6.49185101,40.6697156 6.49185101,40.071235 L6.49185101,29.2326871 L4.32783087,29.2326871 L4.32783087,40.071235 C4.32783087,41.8669392 5.78112617,43.3227644 7.5739047,43.3227644 L18.3942671,43.3227644 L18.3942671,41.1550198 L7.5739047,41.1550198 Z" id="Fill-3" fill="#FFFFFF" fill-rule="evenodd"></path>
                    <g id="Group-7" stroke-width="1" fill-rule="evenodd" transform="translate(0.000000, 17.297647)">
                        <mask id="mask-3" fill="white">
                            <use xlink:href="#path-2"></use>
                        </mask>
                        <g id="Clip-6"></g>
                        <path d="M27.3599309,32.0794992 L2.6117698,7.28965714 L7.26454832,2.62914622 L32.0126221,27.4189882 L27.3599309,32.0794992 Z M34.3076893,26.6526218 L8.02945436,0.330221849 C7.60699799,-0.0928571429 6.92209866,-0.0928571429 6.49946779,0.330221849 L0.316789933,6.52337815 C-0.105666443,6.94663193 -0.105666443,7.63268235 0.316789933,8.05602353 L26.5949376,34.3783361 C26.7978772,34.5816168 27.0730584,34.695842 27.3599309,34.695842 C27.6468906,34.6957546 27.9219846,34.5815294 28.1249242,34.3783361 L34.307602,28.1851798 C34.7300584,27.7619261 34.7300584,27.0757882 34.3076893,26.6526218 Z" id="Fill-5" fill="#FFFFFF" mask="url(#mask-3)"></path>
                    </g>
                    <path d="M47.609045,47.6581748 L45.4449376,47.6581748 L45.4449376,43.3227731 L47.609045,43.3227731 C48.8041725,43.3227731 49.7730651,44.2932067 49.7730651,45.4903429 C49.7730651,46.6877412 48.8041725,47.6581748 47.609045,47.6581748 M47.609045,41.1550286 L31.3785886,41.1550286 L31.3785886,43.3227731 L43.2809174,43.3227731 L43.2809174,48.7418723 C43.2809174,49.3405277 43.7653201,49.8258319 44.3629711,49.8258319 L47.609045,49.8258319 C49.9993,49.8258319 51.9370852,47.8848773 51.9370852,45.4903429 C51.9370852,43.0960706 49.9993,41.1550286 47.609045,41.1550286" id="Fill-8" fill="#FFFFFF" fill-rule="evenodd"></path>
                    <path d="M47.609045,8.6395684 L42.1988638,8.6395684 L42.1988638,10.8073129 L47.609045,10.8073129 C48.8041725,10.8073129 49.7730651,11.7777466 49.7730651,12.9748827 L49.7730651,45.4903516 L51.936998,45.4903516 L51.936998,12.9748827 C51.9370852,10.5806104 49.9993,8.6395684 47.609045,8.6395684" id="Fill-10" fill="#FFFFFF" fill-rule="evenodd"></path>
                    <polygon id="Fill-12" fill="#FFFFFF" fill-rule="evenodd" points="16.5473597 33.8857082 19.7936953 30.6339166 21.3238564 32.1666494 18.0775208 35.418441"></polygon>
                    <polygon id="Fill-14" fill="#FFFFFF" fill-rule="evenodd" points="12.2193631 29.5502629 15.4656987 26.2984713 16.9958597 27.831204 13.7495242 31.083083"></polygon>
                    <polygon id="Fill-16" fill="#FFFFFF" fill-rule="evenodd" points="20.8731403 38.2211449 24.1194758 34.9693533 25.6496369 36.5020861 22.4033013 39.7538776"></polygon>
                    <polygon id="Fill-18" fill="#FFFFFF" fill-rule="evenodd" points="25.2031785 42.5587139 28.4495141 39.3069224 29.9796752 40.8396551 26.7333396 44.0914467"></polygon>
                    <polygon id="Fill-20" fill="#FFFFFF" fill-rule="evenodd" points="7.88821678 25.2149136 11.1346396 21.9630346 12.6648007 23.4958548 9.4184651 26.7476464"></polygon>
                    <path d="M45.1430846,5.4010958 L29.453655,21.1168067 L26.4964604,18.154642 L42.1858899,2.43989244 C42.5944738,2.04888739 43.2380174,2.04888739 43.6466886,2.43989244 L45.1430846,3.93679328 C45.1431718,3.93696807 45.1434336,3.93705546 45.1436081,3.93723025 C45.546957,4.34160672 45.5466953,4.99698151 45.1430846,5.4010958 M46.6719369,2.40528403 L45.1765879,0.907421849 C43.9113128,-0.30247395 41.9200443,-0.30247395 40.6548564,0.907421849 L24.2014805,17.388363 C23.7791114,17.8116168 23.7791114,18.4976672 24.2014805,18.9210084 L28.6886617,23.4157311 C28.8910779,23.6197983 29.1666081,23.7340235 29.453655,23.7333244 C29.7406148,23.733237 30.0157087,23.6189244 30.2185611,23.4157311 L46.6719369,6.93470252 L46.6735074,6.93312941 C47.9213329,5.68242017 47.9206349,3.65511933 46.6719369,2.40528403" id="Fill-22" fill="#FFFFFF" fill-rule="evenodd"></path>
                    <path d="M29.1063456,21.6219059 L24.4363792,23.1837412 L25.995594,18.4983227 L23.9395872,17.8121849 L21.6955604,24.5547933 C21.6588289,24.6653479 21.6400705,24.7810588 21.6400705,24.8974689 C21.6401577,25.4961244 22.1246477,25.9813412 22.7222987,25.981079 C22.8368557,25.981516 22.9507148,25.9639496 23.0598624,25.929079 L29.7911577,23.6811059 L29.1063456,21.6219059 Z" id="Fill-24" fill="#FFFFFF" fill-rule="evenodd"></path>
                    <polygon id="Fill-26" fill="#FFFFFF" fill-rule="evenodd" points="37.6624745 5.43582655 39.1927228 3.90309378 43.6800785 8.39799126 42.1498302 9.93072403"></polygon>
                    <mask id="mask-5" fill="white">
                        <use xlink:href="#path-4"></use>
                    </mask>
                    <g id="Clip-29"></g>
                    <polygon id="Fill-28" fill="#FFFFFF" fill-rule="evenodd" mask="url(#mask-5)" points="22.7224295 25.9811227 38.9527987 25.9811227 38.9527987 23.8134655 22.7224295 23.8134655"></polygon>
                    <polygon id="Fill-30" fill="#FFFFFF" fill-rule="evenodd" mask="url(#mask-5)" points="41.1168188 25.9811227 43.2809262 25.9811227 43.2809262 23.8134655 41.1168188 23.8134655"></polygon>
                    <polygon id="Fill-31" fill="#FFFFFF" fill-rule="evenodd" mask="url(#mask-5)" points="45.4449463 25.9811227 47.6090537 25.9811227 47.6090537 23.8134655 45.4449463 23.8134655"></polygon>
                </g>
            </g>
        </g>
    </g>
</svg>