<?xml version="1.0" encoding="UTF-8" standalone="no"?>
<svg width="89px" height="89px" viewBox="0 0 89 89" version="1.1" xmlns="http://www.w3.org/2000/svg" xmlns:xlink="http://www.w3.org/1999/xlink">
    <!-- Generator: Sketch 50.2 (55047) - http://www.bohemiancoding.com/sketch -->
    <title>Group 17</title>
    <desc>Created with Sketch.</desc>
    <defs>
        <linearGradient x1="50%" y1="0%" x2="50%" y2="100%" id="linearGradient-1">
            <stop stop-color="#BDAE36" offset="0%"></stop>
            <stop stop-color="#2FAB66" offset="100%"></stop>
        </linearGradient>
    </defs>
    <g id="Page-1" stroke="none" stroke-width="1" fill="none" fill-rule="evenodd">
        <g id="Home-Copy-9" transform="translate(-164.000000, -2937.000000)">
            <g id="Group-17" transform="translate(164.000000, 2937.000000)">
                <circle id="Oval-2-Copy" fill="url(#linearGradient-1)" cx="44.5" cy="44.5" r="44.5"></circle>
                <g id="icon-5" transform="translate(15.000000, 16.000000)" fill="#FFFFFF">
                    <path d="M13.1403087,42.080671 L13.1403087,40.3695097 L13.1403087,40.3684452 L13.1403087,36.6883161 L15.663698,34.1792516 C16.1055101,33.7398968 16.1055101,33.0273484 15.663698,32.5879935 C15.2218859,32.1486387 14.5056443,32.1486387 14.063443,32.5879935 L13.1403087,33.5060903 L13.1403087,27.2664774 C13.1403087,26.6449935 12.6336846,26.1412839 12.0088221,26.1412839 C11.384057,26.1412839 10.8774329,26.6449935 10.8774329,27.2664774 L10.8774329,30.8647355 C10.4505101,30.6420581 9.91079866,30.7091226 9.55189933,31.065929 C9.11008725,31.5052839 9.11008725,32.2177355 9.55189933,32.6570903 L10.8774329,33.9750581 L10.8774329,37.6527677 L10.0600805,36.8399613 C9.61836577,36.4006065 8.90212416,36.4006065 8.4598255,36.8399613 C8.01801342,37.2793161 8.01801342,37.9917677 8.4598255,38.4311226 L10.8773356,40.8352839 L10.8773356,42.080671 L3.0910302,42.080671 L6.66883221,35.9182839 C6.87085906,35.5702839 6.87085906,35.1412839 6.66883221,34.7931871 C6.46670805,34.4450903 6.09311409,34.2306387 5.68896309,34.2306387 L5.30622148,34.2306387 L9.22375168,27.4829613 C9.42577852,27.1348645 9.42577852,26.7059613 9.22375168,26.3577677 C9.02162752,26.009671 8.64803356,25.7952194 8.24388255,25.7952194 L7.08329866,25.7952194 L12.0087248,17.3112194 L16.9343456,25.7952194 L15.7736644,25.7952194 C15.3694161,25.7952194 14.9958221,26.009671 14.7937953,26.3577677 C14.5917685,26.7059613 14.5917685,27.1348645 14.7937953,27.4829613 L18.7113255,34.2306387 L18.3284866,34.2306387 C17.9244329,34.2306387 17.5507416,34.4450903 17.3487148,34.7931871 C17.1466879,35.1412839 17.1466879,35.5702839 17.3487148,35.9182839 L20.9266141,42.080671 L13.1403087,42.080671 Z M23.8661242,42.6432194 L20.2882248,36.4808323 L20.6709664,36.4808323 C21.0751174,36.4808323 21.4487114,36.2663806 21.6508356,35.9181871 C21.8528624,35.5701871 21.8528624,35.1411871 21.6508356,34.7930903 L17.7333054,28.0454129 L18.8940839,28.0454129 C19.2981376,28.0454129 19.6718289,27.8309613 19.8738557,27.4827677 C20.0759799,27.1347677 20.0759799,26.7057677 19.8738557,26.357671 L14.9640973,17.9009613 L14.6019866,17.2771548 L14.6019866,16.3564452 C14.721198,14.004929 15.3538456,11.7802839 16.4825101,9.74386452 C16.7840906,9.19960645 16.5849832,8.51521935 16.0376812,8.21531613 C15.4902819,7.91521935 14.8022617,8.11321935 14.5006812,8.65757419 C13.5694698,10.337671 12.9223221,12.1865419 12.5865839,14.0945419 C12.4145302,13.9927355 12.2158121,13.9356387 12.0086275,13.9356387 C11.6044765,13.9356387 11.2308826,14.1501871 11.0288557,14.4981871 L4.14369128,26.3577677 C3.94156711,26.7059613 3.94156711,27.1348645 4.14369128,27.4829613 C4.34571812,27.8310581 4.71931208,28.0455097 5.12346309,28.0455097 L6.28424161,28.0455097 L2.36671141,34.7931871 C2.16468456,35.1412839 2.16468456,35.5702839 2.36671141,35.9182839 C2.56873826,36.2664774 2.94233221,36.480929 3.34648322,36.480929 L3.72932215,36.480929 L0.151520134,42.6432194 C-0.0505067114,42.9914129 -0.0505067114,43.4203161 0.151520134,43.7684129 C0.35354698,44.1165097 0.727238255,44.3309613 1.13138926,44.3309613 L22.8861577,44.3309613 C23.290406,44.3309613 23.664,44.1165097 23.8661242,43.7684129 C24.068151,43.4203161 24.068151,42.9914129 23.8661242,42.6432194 Z" id="Fill-1"></path>
                    <path d="M7.73911711,48.7190613 L1.13139899,48.7190613 C0.506633893,48.7190613 9.73154373e-06,49.222771 9.73154373e-06,49.8442548 C9.73154373e-06,50.4656419 0.506633893,50.9693516 1.13139899,50.9693516 L7.73911711,50.9693516 C8.36397953,50.9693516 8.87060369,50.4656419 8.87060369,49.8442548 C8.87060369,49.222771 8.36397953,48.7190613 7.73911711,48.7190613" id="Fill-3"></path>
                    <path d="M20.0038983,48.7190613 L13.3961802,48.7190613 C12.7714151,48.7190613 12.2646936,49.222771 12.2646936,49.8442548 C12.2646936,50.4656419 12.7714151,50.9693516 13.3961802,50.9693516 L20.0038983,50.9693516 C20.6286634,50.9693516 21.1352876,50.4656419 21.1352876,49.8442548 C21.1352876,49.222771 20.6286634,48.7190613 20.0038983,48.7190613" id="Fill-5"></path>
                    <path d="M32.2688742,48.7190613 L25.6610587,48.7190613 C25.0361963,48.7190613 24.5295721,49.222771 24.5295721,49.8442548 C24.5295721,50.4656419 25.0361963,50.9693516 25.6610587,50.9693516 L32.2688742,50.9693516 C32.8936393,50.9693516 33.4002634,50.4656419 33.4002634,49.8442548 C33.4002634,49.222771 32.8937366,48.7190613 32.2688742,48.7190613" id="Fill-7"></path>
                    <path d="M44.5335678,48.7190613 L37.9258497,48.7190613 C37.3010846,48.7190613 36.7944604,49.222771 36.7944604,49.8442548 C36.7944604,50.4656419 37.3010846,50.9693516 37.9258497,50.9693516 L44.5335678,50.9693516 C45.1583329,50.9693516 45.6650544,50.4656419 45.6650544,49.8442548 C45.6650544,49.222771 45.1583329,48.7190613 44.5335678,48.7190613" id="Fill-9"></path>
                    <path d="M56.7984463,48.7190613 L50.1907282,48.7190613 C49.5659631,48.7190613 49.0592416,49.222771 49.0592416,49.8442548 C49.0592416,50.4656419 49.5659631,50.9693516 50.1907282,50.9693516 L56.7984463,50.9693516 C57.4232114,50.9693516 57.9298356,50.4656419 57.9298356,49.8442548 C57.9298356,49.222771 57.4232114,48.7190613 56.7984463,48.7190613" id="Fill-11"></path>
                    <path d="M19.0674319,4.76127097 C18.6292205,4.31852903 17.9127842,4.31291613 17.4673715,4.74888387 L17.4289319,4.78662581 C16.9871198,5.22598065 16.9871198,5.93843226 17.4289319,6.37788387 C17.6500326,6.59765806 17.939546,6.7074 18.2291567,6.7074 C18.5187674,6.7074 18.8081836,6.59765806 19.0290896,6.37788387 L19.0549755,6.35243226 C19.5002909,5.91656129 19.5058379,5.20410968 19.0674319,4.76127097" id="Fill-13"></path>
                    <path d="M57.8659674,42.8333226 L53.8675681,31.5042581 L56.2313601,31.5042581 C56.6380413,31.5042581 57.0132896,31.2872903 57.2145379,30.936 C57.4155916,30.5846129 57.4118936,30.1529032 57.2044171,29.8050968 L52.1773936,21.3779032 L54.1829674,21.3779032 C54.5825446,21.3779032 54.9525379,21.1683871 55.1562191,20.8266774 C55.3599977,20.4847742 55.3673936,20.0616774 55.1757795,19.713 L45.5257862,2.16067742 C45.3272628,1.7996129 44.9465648,1.57519355 44.5329742,1.57519355 C44.1193836,1.57519355 43.7385883,1.79970968 43.5402594,2.16077419 L41.4975111,5.8766129 C38.44385,2.27758065 33.957803,0 28.9649372,0 C26.1038634,0 23.2815211,0.760741935 20.8031889,2.19987097 C20.2636721,2.51322581 20.081595,3.20225806 20.3967023,3.73887097 C20.7118097,4.2753871 21.404501,4.45645161 21.944407,4.14309677 C24.0766856,2.90477419 26.5043164,2.25029032 28.9649372,2.25029032 C36.8958534,2.25029032 43.3479641,8.93583871 43.3479641,17.1535161 C43.3479641,20.5810645 42.1968198,23.928 40.1064842,26.5775806 C40.0922762,26.5956774 40.0787493,26.6139677 40.0657091,26.6328387 L28.9647426,41.3324516 L25.9881554,37.3926774 C25.6126151,36.8959355 24.9033802,36.7955806 24.4037628,37.169129 C23.9043399,37.5422903 23.8035211,38.2475806 24.1789641,38.7444194 L28.060293,43.8815806 C28.2741923,44.1644516 28.6092493,44.331 28.9650346,44.3309032 C29.3210144,44.3309032 29.6558768,44.1643548 29.8695815,43.8813871 L41.9025379,27.9477097 C41.9069171,27.9418065 41.9113936,27.936 41.9156755,27.93 C44.2990279,24.8917742 45.6109372,21.0666774 45.6109372,17.1534194 C45.6109372,13.7439677 44.6404104,10.5636774 42.969407,7.8903871 L44.5329742,5.04580645 L52.2749037,19.1276129 L50.190699,19.1276129 C49.7840178,19.1276129 49.4087695,19.3444839 49.2075211,19.695871 C49.0063701,20.0472581 49.0101654,20.4789677 49.2176419,20.8267742 L54.2445681,29.2539677 L52.2714003,29.2539677 C51.9046185,29.2539677 51.5605111,29.430871 51.3483634,29.7284516 C51.1362158,30.0260323 51.082303,30.4075161 51.20385,30.7516452 L55.2023466,42.0807097 L45.9696419,42.0807097 L51.1657023,36.9134516 C51.6075144,36.4740968 51.6075144,35.7616452 51.1657023,35.3221935 C50.723793,34.8827419 50.0076487,34.8827419 49.5655446,35.3221935 L45.6653366,39.2006129 L45.66485,34.7833548 L48.3172795,32.1457742 C48.7590916,31.7064194 48.7590916,30.9939677 48.3172795,30.5545161 C47.8752728,30.1151613 47.1591285,30.1151613 46.7171218,30.5545161 L45.6645581,31.6012258 L45.6642661,28.8035806 C45.6641688,28.1821935 45.1575446,27.6784839 44.5327795,27.6785806 C43.9079171,27.6786774 43.401293,28.1823871 43.4013903,28.803871 L43.4019742,35.406 L41.9862292,33.9979355 C41.5445144,33.5585806 40.8283701,33.5585806 40.3860715,33.9979355 C39.9441621,34.4372903 39.9441621,35.1498387 40.3860715,35.5891935 L43.4023634,38.5887097 L43.40285,42.0807097 L38.1672795,42.0807097 C37.5425144,42.0807097 37.035793,42.5844194 37.035793,43.2059032 C37.035793,43.8272903 37.5425144,44.331 38.1672795,44.331 L56.7984171,44.331 C57.1652963,44.331 57.5093064,44.1540968 57.7215513,43.8565161 C57.9336017,43.5589355 57.9876117,43.1775484 57.8659674,42.8333226" id="Fill-15"></path>
                    <path d="M28.9648983,22.8755323 C25.5960326,22.8755323 22.8551433,20.1498871 22.8551433,16.7997581 C22.8551433,13.4495323 25.5960326,10.7239839 28.9648983,10.7239839 C32.3337641,10.7239839 35.0746534,13.4495323 35.0746534,16.7997581 C35.0746534,20.1499839 32.3337641,22.8755323 28.9648983,22.8755323 M28.9648983,8.47369355 C24.348254,8.47369355 20.5922674,12.2085968 20.5922674,16.7997581 C20.5922674,21.3908226 24.348254,25.1259194 28.9648983,25.1259194 C33.5816399,25.1259194 37.3375292,21.3907258 37.3375292,16.7997581 C37.3375292,12.2085968 33.5816399,8.47369355 28.9648983,8.47369355" id="Fill-17"></path>
                    <path d="M35.0824678,42.4103129 C34.8721691,42.2010871 34.5803201,42.0807 34.2826322,42.0807 C33.9838738,42.0807 33.6932899,42.2010871 33.4827966,42.4103129 C33.2723034,42.6196355 33.151243,42.9099581 33.151243,43.2058935 C33.151243,43.5017323 33.2721087,43.7920548 33.4827966,44.0012806 C33.6933872,44.2106032 33.9851389,44.3309903 34.2826322,44.3309903 C34.5803201,44.3309903 34.8721691,44.2106032 35.0824678,44.0012806 C35.2929611,43.7920548 35.4141188,43.5017323 35.4141188,43.2058935 C35.4141188,42.9099581 35.2930584,42.6196355 35.0824678,42.4103129" id="Fill-19"></path>
                </g>
            </g>
        </g>
    </g>
</svg>