<?xml version="1.0" encoding="UTF-8" standalone="no"?>
<svg width="89px" height="89px" viewBox="0 0 89 89" version="1.1" xmlns="http://www.w3.org/2000/svg" xmlns:xlink="http://www.w3.org/1999/xlink">
    <!-- Generator: Sketch 50.2 (55047) - http://www.bohemiancoding.com/sketch -->
    <title>Group 20</title>
    <desc>Created with Sketch.</desc>
    <defs>
        <linearGradient x1="50%" y1="0%" x2="50%" y2="100%" id="linearGradient-1">
            <stop stop-color="#BDAE36" offset="0%"></stop>
            <stop stop-color="#2FAB66" offset="100%"></stop>
        </linearGradient>
    </defs>
    <g id="Page-1" stroke="none" stroke-width="1" fill="none" fill-rule="evenodd">
        <g id="Home-Copy-9" transform="translate(-163.000000, -4796.000000)">
            <g id="Group-20" transform="translate(163.000000, 4796.000000)">
                <circle id="Oval-2-Copy-4" fill="url(#linearGradient-1)" cx="44.5" cy="44.5" r="44.5"></circle>
                <g id="icon-7" transform="translate(17.000000, 13.000000)" fill="#FFFFFF">
                    <path d="M14.3825738,25.7149603 L23.3716711,25.7149603 L23.3716711,24.8083862 L14.3825738,24.8083862 L14.3825738,25.7149603 Z M14.3825738,30.2480138 L23.3716711,30.2480138 L23.3716711,27.5281086 L14.3825738,27.5281086 L14.3825738,30.2480138 Z M12.5847181,32.0612534 L25.1694362,32.0612534 L25.1694362,22.9951466 L12.5847181,22.9951466 L12.5847181,32.0612534 Z" id="Fill-1"></path>
                    <path d="M19.7760503,40.2206948 L23.3716711,40.2206948 L23.3716711,37.5007897 L19.7760503,37.5007897 L19.7760503,40.2206948 Z M19.7761409,44.7537483 L23.3717617,44.7537483 L23.3717617,42.0339345 L19.7761409,42.0339345 L19.7761409,44.7537483 Z M14.3825738,44.7537483 L17.9782852,44.7537483 L17.9782852,42.0339345 L14.3825738,42.0339345 L14.3825738,44.7537483 Z M14.3825738,40.2206948 L17.9782852,40.2206948 L17.9782852,37.5007897 L14.3825738,37.5007897 L14.3825738,40.2206948 Z M12.5847181,46.5668966 L25.1694362,46.5668966 L25.1694362,35.6876414 L12.5847181,35.6876414 L12.5847181,46.5668966 Z" id="Fill-2"></path>
                    <path d="M30.5630034,27.5281086 L39.5521007,27.5281086 L39.5521007,24.8082948 L30.5630034,24.8082948 L30.5630034,27.5281086 Z M30.5630034,30.2480138 L39.5521007,30.2480138 L39.5521007,29.3413483 L30.5630034,29.3413483 L30.5630034,30.2480138 Z M28.7651477,32.0612534 L41.3498658,32.0612534 L41.3498658,22.9951466 L28.7651477,22.9951466 L28.7651477,32.0612534 Z" id="Fill-3"></path>
                    <path d="M51.2380268,49.2867103 L52.137,49.2867103 L52.137,46.5668966 L51.2380268,46.5668966 L51.2380268,49.2867103 Z M48.5412886,49.2867103 L49.4401711,49.2867103 L49.4401711,46.5668966 L48.5412886,46.5668966 L48.5412886,49.2867103 Z M46.7434329,51.0998586 L41.3499564,51.0998586 L41.3499564,35.6876414 L28.7651477,35.6876414 L28.7651477,51.0998586 L7.19124161,51.0998586 L7.19124161,25.1791121 L26.9673826,9.80399483 L46.7434329,25.1791121 L46.7434329,51.0998586 Z M30.5630034,51.0998586 L39.5521007,51.0998586 L39.5521007,37.5007897 L30.5630034,37.5007897 L30.5630034,51.0998586 Z M4.49450336,49.2867103 L5.39338591,49.2867103 L5.39338591,46.5668966 L4.49450336,46.5668966 L4.49450336,49.2867103 Z M1.7978557,49.2867103 L2.69673826,49.2867103 L2.69673826,46.5668966 L1.7978557,46.5668966 L1.7978557,49.2867103 Z M2.61764094,24.3668414 C2.27153356,23.9905414 2.10346309,23.5019362 2.14387248,22.9905776 C2.18428188,22.479219 2.42610403,22.0232362 2.82793289,21.7067897 L25.7447718,3.62008276 L26.968198,2.47327241 L28.2482517,3.66906207 L51.1076477,21.7067897 C51.5085705,22.0232362 51.7512987,22.479219 51.7917081,22.9905776 C51.8322081,23.5019362 51.6632315,23.9914552 51.3179396,24.3668414 C50.6815369,25.057669 49.6452081,25.1446621 48.9035235,24.5690638 L48.5412886,24.2878897 L26.9673826,7.51576552 L5.74402349,24.0160362 L5.74311745,24.01695 L5.03205705,24.5690638 C4.28964765,25.1446621 3.25404362,25.057669 2.61764094,24.3668414 Z M53.0357919,42.9404172 C52.5387383,42.9404172 52.1369094,43.3466897 52.1369094,43.8470828 L52.1369094,44.7536569 L51.2380268,44.7536569 L51.2380268,43.8470828 C51.2380268,43.3466897 50.836198,42.9404172 50.3391443,42.9404172 C49.8419094,42.9404172 49.4401711,43.3466897 49.4401711,43.8470828 L49.4401711,44.7536569 L48.5412886,44.7536569 L48.5412886,26.4365828 C49.0096208,26.6487655 49.5057685,26.765731 50.0029128,26.765731 C50.9673926,26.765731 51.9256208,26.3704241 52.6340537,25.6015586 C53.3172081,24.8600155 53.6632248,23.8563966 53.5841275,22.8473862 C53.5041242,21.8392897 53.0052584,20.9027431 52.2160973,20.2788966 L29.4142349,2.29106207 L26.9673826,0 L24.5789698,2.24116897 L1.71957383,20.2788966 C0.929506711,20.9027431 0.430550336,21.8392897 0.35145302,22.8473862 C0.272355705,23.8563966 0.618372483,24.8600155 1.30161745,25.6015586 C2.37491275,26.7674672 4.01720134,27.0612517 5.39438255,26.4374966 L5.39438255,44.7545707 L4.49450336,44.7545707 L4.49450336,43.8479966 C4.49450336,43.3476034 4.0927651,42.941331 3.59571141,42.941331 C3.09847651,42.941331 2.69673826,43.3476034 2.69673826,43.8479966 L2.69673826,44.7545707 L1.7978557,44.7545707 L1.7978557,43.8479966 C1.7978557,43.3476034 1.39593624,42.941331 0.89888255,42.941331 C0.401828859,42.941331 0,43.3476034 0,43.8479966 L0,52.0074379 C0,52.5079224 0.401828859,52.9140121 0.89888255,52.9140121 C1.39593624,52.9140121 1.7978557,52.5079224 1.7978557,52.0074379 L1.7978557,51.1007724 L2.69673826,51.1007724 L2.69673826,52.0074379 C2.69673826,52.5079224 3.09847651,52.9140121 3.59571141,52.9140121 C4.0927651,52.9140121 4.49450336,52.5079224 4.49450336,52.0074379 L4.49450336,51.1007724 L5.39338591,51.1007724 L5.39338591,52.9140121 L28.7651477,52.9140121 L41.3499564,52.9140121 L48.5412886,52.9140121 L48.5412886,51.1007724 L49.4401711,51.1007724 L49.4401711,52.0074379 C49.4401711,52.5079224 49.8419094,52.9140121 50.3391443,52.9140121 C50.836198,52.9140121 51.2380268,52.5079224 51.2380268,52.0074379 L51.2380268,51.1007724 L52.1369094,51.1007724 L52.1369094,52.0074379 C52.1369094,52.5079224 52.5387383,52.9140121 53.0357919,52.9140121 C53.5329362,52.9140121 53.9346745,52.5079224 53.9346745,52.0074379 L53.9346745,43.8479966 C53.9346745,43.3466897 53.5329362,42.9404172 53.0357919,42.9404172 Z" id="Fill-4"></path>
                </g>
            </g>
        </g>
    </g>
</svg>