<?xml version="1.0" encoding="UTF-8" standalone="no"?>
<svg width="89px" height="89px" viewBox="0 0 89 89" version="1.1" xmlns="http://www.w3.org/2000/svg" xmlns:xlink="http://www.w3.org/1999/xlink">
    <!-- Generator: Sketch 50.2 (55047) - http://www.bohemiancoding.com/sketch -->
    <title>Group 16</title>
    <desc>Created with Sketch.</desc>
    <defs>
        <linearGradient x1="50%" y1="0%" x2="50%" y2="100%" id="linearGradient-1">
            <stop stop-color="#BDAE36" offset="0%"></stop>
            <stop stop-color="#2FAB66" offset="100%"></stop>
        </linearGradient>
        <polygon id="path-2" points="2.66778524e-05 0.0639379195 52.9358842 0.0639379195 52.9358842 52.9999644 2.66778524e-05 52.9999644"></polygon>
    </defs>
    <g id="Page-1" stroke="none" stroke-width="1" fill="none" fill-rule="evenodd">
        <g id="Home-Copy-9" transform="translate(-676.000000, -1392.000000)">
            <g id="Group-16" transform="translate(676.000000, 1392.000000)">
                <circle id="Oval-2" fill="url(#linearGradient-1)" cx="44.5" cy="44.5" r="44.5"></circle>
                <g id="icon2" transform="translate(18.000000, 14.000000)">
                    <g id="Group-7">
                        <g id="Group-3">
                            <mask id="mask-3" fill="white">
                                <use xlink:href="#path-2"></use>
                            </mask>
                            <g id="Clip-2"></g>
                            <path d="M50.8681995,40.6260651 C49.7114478,39.5492581 48.162176,38.8887144 46.4608404,38.8887144 C45.1560267,38.8887144 43.9562347,39.3449946 43.0105938,40.1050466 L43.0105938,15.3074493 C43.0105938,13.4048738 44.5584428,11.8569359 46.4608404,11.8569359 C48.8911039,11.8569359 50.8681995,13.8341205 50.8681995,16.264206 L50.8681995,40.6260651 Z M45.2998203,50.9321641 L42.5136743,50.9321641 L29.0249965,37.4435752 L40.9427935,25.5257782 L40.9427935,44.4070282 C40.9427935,47.0148772 43.0643941,49.1365668 45.6722431,49.1365668 C47.9218086,49.1365668 49.7519092,47.3064661 49.7519092,45.0569007 C49.7519092,44.4858168 49.2889596,44.022956 48.7179646,44.022956 C48.1470586,44.022956 47.6841089,44.4858168 47.6841089,45.0569007 C47.6841089,46.1661658 46.7815971,47.0687664 45.6722431,47.0687664 C44.2046055,47.0687664 43.0105938,45.8746658 43.0105938,44.4070282 C43.0105938,42.5043638 44.5584428,40.9565148 46.4608404,40.9565148 C48.8911039,40.9565148 50.8681995,42.9336104 50.8681995,45.3637849 C50.8681995,48.4342279 48.3701743,50.9321641 45.2998203,50.9321641 Z M34.6504663,50.9321641 L31.1451743,47.4268721 C30.7413606,47.0230584 30.0869529,47.0230584 29.6828723,47.4268721 C29.2791475,47.830597 29.2791475,48.4851826 29.6828723,48.8889074 L31.726218,50.9321641 L7.63611728,50.9321641 C4.56567433,50.9321641 2.06782701,48.4342279 2.06782701,45.3637849 C2.06782701,42.9336104 4.04492265,40.9565148 6.47509715,40.9565148 C8.37767265,40.9565148 9.92552164,42.5043638 9.92552164,44.4070282 C9.92552164,45.8746658 8.73142097,47.0687664 7.26369446,47.0687664 C6.15442936,47.0687664 5.25173977,46.1662547 5.25173977,45.0569007 C5.25173977,44.4858168 4.7887901,44.022956 4.21788406,44.022956 C3.64697802,44.022956 3.18393943,44.4858168 3.18393943,45.0569007 C3.18393943,47.3064661 5.0140401,49.1365668 7.26369446,49.1365668 C9.87154346,49.1365668 11.993322,47.0148772 11.993322,44.4070282 L11.993322,39.5592178 L20.3531827,39.5592178 L24.5608136,43.7668487 C24.7627649,43.9687111 25.0273203,44.0697312 25.2918757,44.0697312 C25.556431,44.0697312 25.8210753,43.9687111 26.0229378,43.7668487 C26.4266626,43.3631238 26.4266626,42.7084493 26.0229378,42.3046356 L21.5125133,37.7940332 C21.3185653,37.600352 21.0556995,37.4913285 20.7814512,37.4913285 L11.993322,37.4913285 L11.993322,34.3950081 L24.6919797,34.3950081 C25.2628857,34.3950081 25.7258354,33.9321473 25.7258354,33.3611523 C25.7258354,32.7900685 25.2628857,32.3272077 24.6919797,32.3272077 L11.993322,32.3272077 L11.993322,21.2590114 L18.0108673,21.2590114 L25.6529159,31.0496943 C25.8489092,31.300644 26.1495686,31.4474611 26.4680133,31.4473721 C26.7864579,31.4471943 27.0871173,31.300555 27.2831995,31.0494275 L34.9216022,21.2590114 L40.9427935,21.2590114 L40.9427935,22.601352 L26.8318102,36.7125131 C26.4279965,37.1162379 26.4279965,37.7710013 26.8318102,38.1748151 L39.5891592,50.9321641 L34.6504663,50.9321641 Z M2.06782701,16.264206 C2.06782701,13.8341205 4.04492265,11.8569359 6.47509715,11.8569359 C8.37767265,11.8569359 9.92552164,13.4048738 9.92552164,15.3074493 L9.92552164,40.1051356 C8.97970285,39.3450836 7.77999983,38.8888034 6.47509715,38.8888034 C4.77376158,38.8888034 3.22457869,39.5494359 2.06782701,40.626154 L2.06782701,16.264206 Z M16.335676,12.2640399 C16.335676,6.67707517 20.8810485,2.13170268 26.4679243,2.13170268 C32.0548002,2.13170268 36.6002616,6.67698624 36.6002616,12.2640399 C36.6002616,14.5891926 35.7925451,16.860545 34.3259747,18.6599661 C34.3137029,18.6751725 34.3017867,18.6906456 34.2902263,18.7063856 L26.4677465,28.7329896 L18.7298354,18.8194997 C18.7065367,18.7826842 18.6806592,18.7470248 18.6524696,18.7127883 C17.1585099,16.9043856 16.335676,14.6141809 16.335676,12.2640399 Z M46.4608404,9.78913557 C43.4181424,9.78913557 40.9427935,12.2646624 40.9427935,15.3074493 L40.9427935,19.1912111 L36.508223,19.1912111 C37.9056978,17.1644057 38.6680619,14.7398336 38.6680619,12.2640399 C38.6680619,5.53695268 33.1951005,0.063902349 26.4679243,0.063902349 C19.7408371,0.063902349 14.2678757,5.53695268 14.2678757,12.2640399 C14.2678757,14.7421456 15.0295284,17.1643168 16.4270921,19.1912111 L11.993322,19.1912111 L11.993322,15.3073604 C11.993322,12.2644846 9.51788406,9.78904664 6.47509715,9.78904664 C2.90480017,9.78913557 2.66778524e-05,12.693998 2.66778524e-05,16.264206 L2.66778524e-05,45.3637849 C2.66778524e-05,49.5744393 3.42546292,52.9999644 7.63611728,52.9999644 L45.2997314,52.9999644 C49.5103857,52.9999644 52.9359109,49.5744393 52.9359109,45.3637849 L52.9359109,16.264206 C52.9360888,12.693998 50.0313153,9.78913557 46.4608404,9.78913557 Z" id="Fill-1" fill="#FFFFFF" mask="url(#mask-3)"></path>
                        </g>
                        <path d="M26.4340168,17.7196963 C23.5408926,17.7196963 21.1869279,15.3657315 21.1869279,12.4726074 C21.1869279,9.5793943 23.5408926,7.22551846 26.4340168,7.22551846 C29.3271409,7.22551846 31.6811057,9.5793943 31.6811057,12.4726074 C31.6811057,15.3657315 29.3271409,17.7196963 26.4340168,17.7196963 M26.4340168,5.15771812 C22.4005923,5.15771812 19.1191275,8.43918289 19.1191275,12.4726074 C19.1191275,16.5061208 22.4005923,19.7874966 26.4340168,19.7874966 C30.4674413,19.7874966 33.748906,16.5061208 33.748906,12.4726074 C33.748906,8.43918289 30.4674413,5.15771812 26.4340168,5.15771812" id="Fill-8" fill="#FFFFFF"></path>
                        <path d="M28.6204446,44.9439111 C28.4282752,44.7515638 28.1614966,44.6409396 27.8895604,44.6409396 C27.6177131,44.6409396 27.3509346,44.7515638 27.1586762,44.9439111 C26.9663289,45.1361695 26.8557047,45.402948 26.8557047,45.6748842 C26.8557047,45.9467315 26.966151,46.2135101 27.1586762,46.4057685 C27.3511124,46.5982047 27.6177131,46.7088289 27.8895604,46.7088289 C28.1614966,46.7088289 28.4282752,46.5982047 28.6204446,46.4057685 C28.8127919,46.2135101 28.923505,45.9467315 28.923505,45.6748842 C28.923505,45.402948 28.8128809,45.1361695 28.6204446,44.9439111" id="Fill-10" fill="#FFFFFF"></path>
                        <path d="M6.01372148,17.9630872 C5.44281544,17.9630872 4.97986577,18.425948 4.97986577,18.9970319 L4.97986577,26.5882148 C4.97986577,27.1592987 5.44281544,27.6221594 6.01372148,27.6221594 C6.58471644,27.6221594 7.04766611,27.1592987 7.04766611,26.5882148 L7.04766611,18.9970319 C7.04766611,18.425948 6.58471644,17.9630872 6.01372148,17.9630872" id="Fill-4" fill="#FFFFFF"></path>
                        <path d="M6.7446057,29.8264614 C6.55243624,29.6341141 6.28565772,29.5234899 6.01372148,29.5234899 C5.74187416,29.5234899 5.47509564,29.6341141 5.28283725,29.8264614 C5.09048993,30.0187198 4.97986577,30.2854983 4.97986577,30.5574346 C4.97986577,30.830349 5.09031208,31.0960604 5.28283725,31.2883188 C5.47509564,31.4815554 5.74187416,31.5912903 6.01372148,31.5912903 C6.28565772,31.5912903 6.55243624,31.4816443 6.7446057,31.2883188 C6.93695302,31.0960604 7.04766611,30.8292819 7.04766611,30.5574346 C7.04766611,30.2854983 6.93704195,30.0187198 6.7446057,29.8264614" id="Fill-6" fill="#FFFFFF"></path>
                    </g>
                </g>
            </g>
        </g>
    </g>
</svg>