<?xml version="1.0" encoding="UTF-8" standalone="no"?>
<svg width="89px" height="89px" viewBox="0 0 89 89" version="1.1" xmlns="http://www.w3.org/2000/svg" xmlns:xlink="http://www.w3.org/1999/xlink">
    <!-- Generator: Sketch 50.2 (55047) - http://www.bohemiancoding.com/sketch -->
    <title>Group 21</title>
    <desc>Created with Sketch.</desc>
    <defs>
        <linearGradient x1="50%" y1="0%" x2="50%" y2="100%" id="linearGradient-1">
            <stop stop-color="#BDAE36" offset="0%"></stop>
            <stop stop-color="#2FAB66" offset="100%"></stop>
        </linearGradient>
        <polygon id="path-2" points="0 0.0265253751 48.9408054 0.0265253751 48.9408054 48.9999918 0 48.9999918"></polygon>
    </defs>
    <g id="Page-1" stroke="none" stroke-width="1" fill="none" fill-rule="evenodd">
        <g id="Home-Copy-9" transform="translate(-676.000000, -5738.000000)">
            <g id="Group-21" transform="translate(676.000000, 5738.000000)">
                <circle id="Oval-2-Copy-5" fill="url(#linearGradient-1)" cx="44.5" cy="44.5" r="44.5"></circle>
                <g id="icon-9" transform="translate(20.000000, 18.000000)">
                    <g id="Group-3" stroke-width="1">
                        <mask id="mask-3" fill="white">
                            <use xlink:href="#path-2"></use>
                        </mask>
                        <g id="Clip-2"></g>
                        <path d="M47.2836846,35.5664976 C47.2096913,35.9608859 46.9710218,36.3048741 46.627693,36.5116624 L31.3380487,45.8344271 C30.5713138,46.30178 29.6909581,46.5490035 28.7934195,46.5489212 L8.7470755,46.5489212 C8.89210235,46.1565094 8.96839765,45.7419447 8.97250839,45.3234271 L8.97250839,30.6164271 C8.96650671,30.4795565 8.95277685,30.3430976 8.93131879,30.2078741 L10.4394664,30.2078741 C11.9444077,30.2097682 13.4042131,30.7227447 14.5807886,31.6628859 C16.0465134,32.8345212 17.8656795,33.4737447 19.7408339,33.4761329 L24.0072047,33.4761329 C25.152703,33.4794271 26.2135201,34.0815094 26.8051376,35.0638976 L26.877651,35.1839682 C27.3229262,35.9275329 27.2751594,36.8669329 26.7567953,37.5613329 L21.7989983,37.5613329 C20.1886577,37.5596859 18.6138339,38.0374153 17.2749664,38.9337447 L16.6771829,39.3326624 C16.4332517,39.4939094 16.2938977,39.77358 16.3123138,40.0657682 C16.3305654,40.3579565 16.5035453,40.6180271 16.7658104,40.7473212 C17.0279933,40.87678 17.3391762,40.85578 17.5817919,40.6922271 L18.1794933,40.2932271 C19.2508339,39.5760976 20.510693,39.1940624 21.7990805,39.19538 L29.0494362,39.19538 C29.4878054,39.19538 29.9232148,39.1246388 30.339057,38.9858741 L40.7461309,35.5109918 C40.7594497,35.5116506 40.7706309,35.5186506 40.7839497,35.5186506 C40.9669597,35.5153565 41.143146,35.4493094 41.2834044,35.3315447 L45.4379631,33.9443918 C46.0193859,33.7498741 46.6597567,33.9515565 47.025448,34.4442741 C47.2676527,34.7642153 47.3614597,35.1726859 47.2836846,35.5664976 Z M14.6822416,26.1224271 C15.1647601,26.1253918 15.6405369,26.23698 16.0742198,26.4487918 C16.4299631,26.6178624 16.8555067,26.5086624 17.0862013,26.1891329 C18.3413742,24.4318035 20.7491158,23.9642859 22.5689396,25.1242271 C22.7756275,25.2556624 23.0304111,25.2869565 23.26275,25.2095447 C23.4950889,25.1322153 23.6804832,24.9544153 23.7677131,24.7252271 C23.9972567,24.1151565 24.5705403,23.7032271 25.2211057,23.6810741 C25.2429748,23.6827212 25.2650906,23.68758 25.2867131,23.68758 C25.3071846,23.68758 25.3255185,23.6786859 25.3458255,23.6772035 C26.2068607,23.7033094 26.8973826,24.39878 26.9189228,25.2613447 C26.9157987,25.2841565 26.9073305,25.3615682 26.9058507,25.3842153 C26.8914631,25.6375329 26.9953826,25.8831094 27.1870252,26.0489682 C27.3786678,26.2147447 27.6363289,26.2820271 27.884453,26.2308859 C28.2372366,26.1586624 28.5964329,26.1223447 28.9566158,26.1223447 C30.9483507,26.1195447 32.7721208,27.2392153 33.6739346,29.0179565 C33.8416527,29.3467094 34.2088238,29.5216271 34.5693356,29.4444624 C35.2841107,29.2977918 36.0270034,29.4766624 36.5971628,29.9328153 C37.1673221,30.3888859 37.5057181,31.0751329 37.5209279,31.8059329 C37.5189547,31.8329447 37.5173926,31.8605329 37.5173926,31.8825212 C37.5174748,32.2890976 37.8160789,32.6337447 38.2179446,32.6911447 C38.9856661,32.8047094 39.622995,33.3439565 39.8633087,34.0830741 L29.8233238,37.43558 C29.573802,37.5189212 29.3125235,37.5613329 29.0494362,37.5612506 L28.5808121,37.5612506 C28.9682903,36.4970859 28.8563138,35.3146624 28.2759597,34.3424859 L28.2035285,34.2224153 C27.3159379,32.7491212 25.7250822,31.8466153 24.0072047,31.8418388 L19.7408339,31.8418388 C18.2358926,31.8399447 16.776005,31.3270506 15.5995117,30.3868271 C14.4197299,29.4466859 13.0061292,28.8467447 11.5111359,28.6517329 C11.8539715,27.1734976 13.1672701,26.1259682 14.6822416,26.1224271 Z M7.34112081,45.3233447 C7.33972315,46.4508388 6.42763255,47.3645447 5.30194799,47.3658624 L3.67047819,47.3658624 C2.54487584,47.3645447 1.63262081,46.4508388 1.63138758,45.3233447 L1.63138758,30.6163447 C1.63270302,29.4887682 2.54487584,28.5750624 3.67047819,28.5737447 L5.30194799,28.5737447 C6.42763255,28.5750624 7.33980537,29.4887682 7.34112081,30.6163447 L7.34112081,45.3233447 Z M28.0231493,9.20334471 C27.9917433,9.94369765 28.0515134,10.6852035 28.2013909,11.4110624 C27.5278876,11.4058741 26.8875168,11.1172271 26.4371443,10.6156153 C25.3618574,9.12066235 24.5234312,7.46849765 23.9514631,5.71734471 C25.5665721,5.62329765 27.1864497,5.77507412 28.7562584,6.16732118 C28.3195336,7.12278 28.0706695,8.15350941 28.0231493,9.20334471 Z M29.6525638,9.28355647 C29.7018926,7.57061529 30.4663255,5.95699176 31.7598104,4.83526235 C34.882656,2.19428588 40.1885503,1.67356824 43.887146,1.67356824 C45.210146,1.67356824 46.3276913,1.74019176 47.0657332,1.80006235 C46.3117416,4.29832118 44.0745956,11.1885447 41.3400503,14.7923094 C40.3401544,16.0956271 38.8158104,16.8892624 37.1763658,16.9599212 C35.1339044,17.0679682 33.1440604,16.2890741 31.7159899,14.8222859 C31.6121527,14.7154741 31.5190856,14.5983682 31.4223188,14.4846388 C33.1313171,12.9321212 35.0266963,11.5987447 37.0645537,10.5152271 C37.4692148,10.3167565 37.6366862,9.82733294 37.4386309,9.42199176 C37.2405755,9.01665059 36.7518909,8.84889765 36.3473121,9.04728588 C34.2343104,10.1465329 32.2669933,11.5065094 30.4912366,13.0952624 C29.884656,11.9196741 29.5955067,10.6056506 29.6525638,9.28355647 Z M44.9217366,32.3940976 L41.416099,33.56458 C41.0513121,32.4692859 40.1976762,31.6067212 39.107344,31.2318506 C38.7910638,29.1456035 36.9417248,27.6431565 34.8385067,27.7638035 C33.4774413,25.5748624 31.018151,24.3210388 28.4505017,24.5066624 C28.1722869,23.4172976 27.3556477,22.5469094 26.287349,22.2011918 C27.0500554,19.71578 28.4116963,17.4566741 30.2520738,15.6229212 C30.3504027,15.7357447 30.4425654,15.8544153 30.5466493,15.9614741 C32.188807,17.6404035 34.4325302,18.5923212 36.7790218,18.6058271 C36.9441913,18.6058271 37.1103473,18.6009682 37.2756812,18.5906741 C39.3901628,18.4945682 41.353698,17.4657329 42.6384681,15.7808741 C46.1895705,11.1019094 48.8022735,1.69901529 48.9114547,1.30092118 C48.9741846,1.07296824 48.9354614,0.829038824 48.8049866,0.632050588 C48.6745117,0.43498 48.4652752,0.304203529 48.2311275,0.273568235 C47.7504178,0.209744706 36.387844,-1.21891412 30.7075436,3.58654471 C30.3062534,3.92575647 29.9422886,4.30688588 29.6218154,4.72350941 C27.3853272,4.10602706 25.0525654,3.91678 22.745948,4.16540353 C22.5051409,4.19315647 22.2891628,4.32681529 22.1565503,4.53006235 C22.0238557,4.73322706 21.9881745,4.98489765 22.0592903,5.21713294 C22.1139631,5.39427412 23.4098322,9.57813294 25.1929883,11.6733565 C25.9832366,12.5711682 27.1283238,13.0744271 28.3230688,13.04898 C28.4401426,13.04898 28.5586141,13.0400035 28.6770856,13.0310271 C28.8457081,13.4542388 29.0454077,13.8643565 29.2746225,14.2580859 C27.0557282,16.4151565 25.4508138,19.1258035 24.6254597,22.1108506 C23.8535453,22.2747329 23.1660654,22.7109565 22.6885621,23.3402976 C20.444099,22.3471212 17.8170084,22.9072859 16.1707399,24.7297565 C15.6906879,24.5704035 15.1881913,24.4888741 14.6823238,24.48838 C12.2966158,24.4924153 10.2610604,26.2177094 9.86198993,28.5737447 L8.35104698,28.5737447 C7.67080201,27.5532271 6.52694799,26.9402741 5.30194799,26.9396153 L3.67047819,26.9396153 C1.6442953,26.9417565 0.00213758389,28.5866741 0,30.6163447 L0,45.3233447 C0.00213758389,47.3529329 1.6442953,48.9978506 3.67047819,48.9999918 L5.30194799,48.9999918 C6.13239933,48.9964506 6.93645973,48.7080506 7.5805302,48.1829682 L28.7934195,48.1829682 C29.9902198,48.1830506 31.1640822,47.8533094 32.1863406,47.2298976 L47.475656,37.9075447 C48.8012047,37.0975212 49.3088809,35.4200741 48.6554379,34.0092035 C48.0018305,32.5982506 46.3952718,31.9031918 44.9217366,32.3940976 Z" id="Fill-1" fill="#FFFFFF" mask="url(#mask-3)"></path>
                    </g>
                    <path d="M18.6388272,29.3743471 C19.0802383,29.4641941 19.510797,29.1786765 19.6007399,28.7365235 C19.7184715,28.1667235 20.2190772,27.7577588 20.7999245,27.7566059 C21.0645738,27.7557824 21.3223171,27.8416765 21.5336091,28.0011118 C21.8937919,28.2702412 22.4032768,28.1967824 22.6730235,27.8370647 C22.9429346,27.4773471 22.8714899,26.9666765 22.5133624,26.6950765 C22.0200738,26.3218529 21.4182617,26.1207471 20.7999245,26.1225588 C19.4440386,26.1256059 18.2761779,27.0808176 18.0019916,28.4109824 C17.9123775,28.8531353 18.1974161,29.2843353 18.6388272,29.3743471" id="Fill-4" fill="#FFFFFF"></path>
                    <path d="M27.3688431,29.6442424 C27.6301216,29.77436 27.940729,29.7549247 28.1835914,29.5929365 C28.6690696,29.2738188 29.3114958,29.3393718 29.7229807,29.7497365 C29.9107592,29.9366776 30.0323549,30.1801129 30.0691049,30.4427365 C30.1263263,30.8449482 30.4699841,31.1438894 30.8756317,31.1444659 C30.9146015,31.1443835 30.9534069,31.1417482 30.9919656,31.1364776 C31.4379807,31.0726541 31.7480126,30.6589129 31.684625,30.2121482 C31.5460109,29.2416188 30.9208498,28.4098541 30.0280797,28.0079718 C29.1352273,27.6060894 28.0992391,27.6902541 27.2827643,28.2309835 C27.0393263,28.3919012 26.9003012,28.6709129 26.9180596,28.9626071 C26.9355713,29.2542188 27.1075646,29.5141247 27.3688431,29.6442424" id="Fill-6" fill="#FFFFFF"></path>
                </g>
            </g>
        </g>
    </g>
</svg>