<?xml version="1.0" encoding="UTF-8" standalone="no"?>
<svg width="128px" height="57px" viewBox="0 0 128 57" version="1.1" xmlns="http://www.w3.org/2000/svg" xmlns:xlink="http://www.w3.org/1999/xlink">
    <!-- Generator: Sketch 50.2 (55047) - http://www.bohemiancoding.com/sketch -->
    <title>Fill 1 Copy 2</title>
    <desc>Created with Sketch.</desc>
    <defs></defs>
    <g id="Page-1" stroke="none" stroke-width="1" fill="none" fill-rule="evenodd">
        <g id="Home-Copy-17" transform="translate(-433.000000, -558.000000)" fill="#FFFFFF">
            <path d="M433.465469,558 C441.944498,558.658588 450.764739,557.907876 458.060372,563.707764 C459.456778,564.817172 460.310795,566.602808 461.409381,568.082671 C461.886684,568.729499 462.204228,569.627217 462.839317,570.003553 C471.365682,575.082131 479.933465,580.092105 488.507165,585.090319 C488.812876,585.264766 489.307929,585.11384 489.923295,584.909991 C480.690838,580.817336 478.976887,571.522618 474.401091,563.890052 C486.329717,565.142545 491.771364,565.70509 495.927055,579.866695 C496.459583,581.677813 497.027613,583.535972 497.946716,585.164802 C499.443712,587.806995 501.116244,590.121854 504.757157,590.50603 C509.437487,590.992131 514.040895,592.158381 519.052575,593.101181 C514.230238,586.197766 509.768837,579.817693 505.346883,573.408219 C505.17529,573.159288 505.400136,572.639866 505.43761,572.243929 C516.421492,573.531704 530.59857,581.056466 530.229745,593.210946 C535.509661,592.424952 540.696878,591.803606 545.822953,590.847085 C550.86619,589.908205 555.848285,588.63415 561,587.771713 C559.073038,590.288461 556.045518,591.217541 553.254677,591.885929 C549.45006,592.797368 547.028044,594.25175 545.793368,598.305204 C543.767789,604.953808 537.923788,608.215388 532.071897,610.875221 C527.999045,612.729461 523.486363,613.6409 519.149219,614.905154 C518.486517,615.101162 517.71731,614.932595 515.837684,614.932595 C521.853277,608.191867 527.265339,602.135208 532.845049,595.8845 C530.085765,595.8845 527.468489,595.904101 524.851213,595.87666 C522.302968,595.851179 519.589047,596.321599 517.240007,595.615969 C512.2303,594.112585 508.995686,596.219675 506.039169,599.759586 C501.548183,605.141976 495.090789,606.225903 488.702425,607.1001 C485.381029,607.5568 481.945237,607.178503 477.505532,607.178503 C483.564517,599.875231 489.246787,593.618643 499.063053,592.575879 C493.128324,590.02189 487.641314,587.367936 481.919597,585.382371 C480.233258,584.796306 477.718543,585.758707 475.860612,586.607424 C470.785818,588.918362 465.904311,587.799155 461.007026,586.28009 C457.115628,585.074638 453.273537,583.704539 449.102068,581.599409 C452.202564,580.280273 455.204444,578.5848 458.433141,577.743924 C461.721008,576.887368 465.229776,576.869727 469.081728,576.434588 C465.253444,574.233414 462.563191,571.032597 457.470646,571.78527 C450.908718,572.755511 445.958181,568.476648 440.983975,564.960258 C438.242442,563.023695 435.656723,560.871523 433,558.819315 C433.155814,558.542943 433.309655,558.272452 433.465469,558" id="Fill-1-Copy-2"></path>
        </g>
    </g>
</svg>