<?xml version="1.0" encoding="UTF-8" standalone="no"?>
<svg width="197px" height="46px" viewBox="0 0 197 46" version="1.1" xmlns="http://www.w3.org/2000/svg" xmlns:xlink="http://www.w3.org/1999/xlink">
    <!-- Generator: Sketch 50.2 (55047) - http://www.bohemiancoding.com/sketch -->
    <title>Group 6</title>
    <desc>Created with Sketch.</desc>
    <defs></defs>
    <g id="Page-1" stroke="none" stroke-width="1" fill="none" fill-rule="evenodd">
        <g id="Home-Copy-9" transform="translate(-22.000000, -21.000000)">
            <g id="Group-6" transform="translate(22.000000, 21.000000)">
                <path d="M0,0 L0,10.1644974 L0,35.1532664 L0,46 L5.25079634,46 L7.80530253,46 L15.777776,46 L18.3318032,46 L23.5936165,46 L23.5936165,43.424112 L23.5936165,37.6683181 L23.5936165,26.9702956 L35.2816918,16.1013519 L46.9697671,26.9702956 L46.9697671,37.6683181 L46.9697671,43.4260433 L46.9697671,46 L47.0037761,46 L49.5582823,46 L60,46 L60,0 L0,0 Z M47.416674,2.57492233 L57.4464518,2.57492233 L57.4464518,11.8964019 L47.416674,2.57492233 Z M44.5905749,10.3581115 L36.2205315,2.57492233 L46.9994651,2.57492233 L47.0056921,12.1653371 L47.0037761,12.1653371 L47.0037761,13.0551894 L44.5905749,15.2974431 L44.5905749,10.3581115 Z M18.924805,2.57492233 L29.4120277,2.57492233 L24.1679373,7.44955496 L18.924805,2.57492233 Z M2.55402719,2.57492233 L15.776339,2.57492233 L15.779692,8.38575867 L15.777776,8.38575867 L15.777776,10.6212528 L13.0575359,13.148858 L13.0575359,10.1644974 L6.52876793,4.0943824 L2.55402719,7.78994878 L2.55402719,2.57492233 Z M28.8554299,11.806113 L26.0523228,9.2002897 L32.8167586,2.91048787 L42.0365477,11.485998 L42.0365477,17.6719918 L41.3879819,18.2760097 L35.2816918,12.5993996 L28.8568669,18.5743975 L28.8554299,11.806113 Z M18.3318032,11.7496221 L18.3332402,11.7476908 L18.3318032,5.52645058 L26.3009237,12.9339995 L26.3033187,20.9479805 L21.0395893,25.8414434 L21.0395893,27.0316147 L21.0395893,34.0142749 L18.3318032,36.5312579 L18.3318032,11.7496221 Z M2.55402719,34.0258628 L2.55402719,11.2923839 L6.52876793,7.59585188 L10.5035087,11.2923839 L10.5035087,15.5234067 L5.25319134,20.4023848 L5.25079634,30.2511126 L9.90859086,34.5767697 L6.52493593,37.7180494 L2.55402719,34.0258628 Z M49.5582823,14.182593 L49.5597193,14.1811445 L49.5582823,8.06612646 L57.3980728,15.3534512 L57.3995098,29.241519 L49.5582823,36.5302922 L49.5582823,14.182593 Z M7.80530253,29.1212948 L7.80769753,21.5307541 L15.777776,14.1232051 L15.777776,36.5312579 L7.80530253,29.1212948 Z M43.2723673,20.0272273 L47.0037761,16.5581073 L47.0037761,23.4982786 L43.2723673,20.0272273 Z M49.5582823,40.030796 L57.4464518,32.7019481 L57.4464518,43.4260433 L49.5582823,43.4260433 L49.5582823,40.030796 Z M7.80530253,40.030796 L11.7929763,36.3279872 L15.777776,40.033693 L15.777776,43.4260433 L7.80530253,43.4260433 L7.80530253,40.030796 Z M18.3318032,40.033693 L21.0395893,37.5167101 L21.0395893,43.4260433 L18.3318032,43.4260433 L18.3318032,40.033693 Z M2.55402719,37.5268494 L5.25079634,40.0356243 L5.25079634,43.4260433 L2.55402719,43.4260433 L2.55402719,37.5268494 Z" id="Fill-1" fill="#2FAB66"></path>
                <g id="Group-38" transform="translate(71.000000, 8.000000)" fill="#3C3C3B">
                    <path d="M6.40147072,7.26499459 C6.42398783,6.90304865 6.43500684,6.40196757 6.43500684,5.76077838 C6.43500684,5.12007568 6.41248973,4.60731892 6.36841369,4.22153514 C6.32337947,3.83672432 6.21702205,3.48499459 6.04982053,3.16829189 C5.88213992,2.85012973 5.63397262,2.63267027 5.30483954,2.51299459 C4.97522738,2.39331892 4.53207148,2.33445405 3.97345551,2.33445405 L2.44995741,2.33445405 L2.44995741,9.81564324 L3.97345551,9.81564324 C4.81090038,9.81564324 5.41886236,9.60061622 5.79877871,9.17007568 C6.12264183,8.81834595 6.32337947,8.18348108 6.40147072,7.26499459 M3.97345551,11.8564541 L0.139318631,11.8564541 L0.139318631,0.294616216 L3.97345551,0.294616216 C4.95558479,0.294616216 5.76524259,0.398724324 6.40147072,0.608886486 C7.03769886,0.819048649 7.53163802,1.16445405 7.8837673,1.64607568 C8.23445932,2.12818378 8.47783574,2.69445405 8.61150114,3.34634595 C8.74564563,3.99775135 8.81271787,4.84472432 8.81271787,5.88775135 C8.81271787,6.93126486 8.75091559,7.79477838 8.6282692,8.4816973 C8.50562281,9.16715676 8.27374449,9.77915676 7.9335924,10.3167243 C7.59296122,10.8557514 7.09902205,11.247373 6.4517749,11.4906162 C5.80404867,11.7343459 4.9781019,11.8564541 3.97345551,11.8564541" id="Fill-2"></path>
                    <path d="M13.9176342,9.12682703 C14.2467673,9.72228649 14.8633529,10.0200162 15.76787,10.0200162 C16.671908,10.0200162 17.2884935,9.72228649 17.6181057,9.12682703 C17.9472388,8.53185405 18.1120449,7.53552973 18.1120449,6.13444865 C18.1120449,4.73531351 17.9443643,3.7170973 17.6094821,3.08320541 C17.2746,2.44785405 16.660889,2.13017838 15.76787,2.13017838 C14.8743719,2.13017838 14.2606608,2.44785405 13.9257787,3.08320541 C13.5908966,3.7170973 13.4236951,4.73531351 13.4236951,6.13444865 C13.4236951,7.53552973 13.5885011,8.53185405 13.9176342,9.12682703 M19.4266608,10.6232595 C18.7176114,11.5811514 17.4983338,12.0593676 15.76787,12.0593676 C14.0374061,12.0593676 12.8181285,11.5811514 12.1095582,10.6232595 C11.4000297,9.66536757 11.0464631,8.16601622 11.0464631,6.12666486 C11.0464631,4.08585405 11.4000297,2.56996216 12.1095582,1.57801622 C12.8181285,0.585583784 14.0374061,0.0903405405 15.76787,0.0903405405 C17.4983338,0.0903405405 18.7176114,0.585583784 19.4266608,1.57801622 C20.1357103,2.56996216 20.4892768,4.08585405 20.4892768,6.12666486 C20.4892768,8.16601622 20.1357103,9.66536757 19.4266608,10.6232595" id="Fill-4"></path>
                    <polygon id="Fill-6" points="23.1101247 11.8562108 23.1101247 0.294372973 27.04487 0.294372973 29.0536837 8.72761622 31.0639346 0.294372973 34.9982008 0.294372973 34.9982008 11.8562108 32.687562 11.8562108 32.687562 2.91215676 32.4369992 2.91215676 30.2092426 11.346373 27.8986038 11.346373 25.6718053 2.91215676 25.4207635 2.91215676 25.4207635 11.8562108"></polygon>
                    <polygon id="Fill-8" points="42.9010357 11.8562108 40.590397 11.8562108 40.590397 7.1801027 37.0738951 0.294372973 39.6360548 0.294372973 41.7287087 4.90237297 43.8223209 0.294372973 46.3840015 0.294372973 42.9010357 7.1801027"></polygon>
                    <path d="M55.3666517,9.12682703 C55.6957848,9.72228649 56.3128494,10.0200162 57.2168875,10.0200162 C58.1214046,10.0200162 58.737511,9.72228649 59.0671232,9.12682703 C59.3957772,8.53185405 59.5610624,7.53552973 59.5610624,6.13444865 C59.5610624,4.73531351 59.3933817,3.7170973 59.0589787,3.08320541 C58.7236175,2.44785405 58.1099065,2.13017838 57.2168875,2.13017838 C56.3233894,2.13017838 55.7101574,2.44785405 55.3752753,3.08320541 C55.0399141,3.7170973 54.8727125,4.73531351 54.8727125,6.13444865 C54.8727125,7.53552973 55.0375186,8.53185405 55.3666517,9.12682703 M60.8751992,10.6232595 C60.1661498,11.5811514 58.9468722,12.0593676 57.2168875,12.0593676 C55.4864236,12.0593676 54.2666669,11.5811514 53.5585757,10.6232595 C52.8490471,9.66536757 52.4950015,8.16601622 52.4950015,6.12666486 C52.4950015,4.08585405 52.8490471,2.56996216 53.5585757,1.57801622 C54.2666669,0.585583784 55.4864236,0.0903405405 57.2168875,0.0903405405 C58.9468722,0.0903405405 60.1661498,0.585583784 60.8751992,1.57801622 C61.5847278,2.56996216 61.9382943,4.08585405 61.9382943,6.12666486 C61.9382943,8.16601622 61.5847278,9.66536757 60.8751992,10.6232595" id="Fill-10"></path>
                    <polygon id="Fill-12" points="63.6178312 2.36875135 63.6178312 0.294372973 71.9903635 0.294372973 71.9903635 2.36875135 68.9764243 2.36875135 68.9764243 11.8562108 66.6653065 11.8562108 66.6653065 2.36875135"></polygon>
                    <path d="M76.4249886,7.99613514 C76.4249886,9.34564865 77.1005019,10.0199189 78.4510494,10.0199189 C79.801597,10.0199189 80.4771103,9.34564865 80.4771103,7.99613514 L80.4771103,0.294567568 L82.78727,0.294567568 L82.78727,7.94554054 C82.78727,9.36316216 82.4274753,10.4018108 81.7074068,11.0658649 C80.9873384,11.7284595 79.9022053,12.0597568 78.4510494,12.0597568 C76.9998935,12.0597568 75.9142814,11.7284595 75.1942129,11.0658649 C74.4746236,10.4018108 74.1143498,9.36316216 74.1143498,7.94554054 L74.1143498,0.294567568 L76.4249886,0.294567568 L76.4249886,7.99613514 Z" id="Fill-14"></path>
                    <polygon id="Fill-16" points="92.2465643 11.8562108 85.7664274 11.8562108 85.7664274 0.294372973 88.0770662 0.294372973 88.0770662 9.78183243 92.2465643 9.78183243"></polygon>
                    <path d="M96.7988053,9.12682703 C97.1279384,9.72228649 97.745003,10.0200162 98.6490411,10.0200162 C99.5535582,10.0200162 100.170144,9.72228649 100.499277,9.12682703 C100.827931,8.53185405 100.993216,7.53552973 100.993216,6.13444865 C100.993216,4.73531351 100.826014,3.7170973 100.491132,3.08320541 C100.155771,2.44785405 99.5425392,2.13017838 98.6490411,2.13017838 C97.7560221,2.13017838 97.142311,2.44785405 96.8074289,3.08320541 C96.4720677,3.7170973 96.3048662,4.73531351 96.3048662,6.13444865 C96.3048662,7.53552973 96.4696722,8.53185405 96.7988053,9.12682703 M102.307353,10.6232595 C101.598783,11.5811514 100.379505,12.0593676 98.6490411,12.0593676 C96.9190563,12.0593676 95.6992996,11.5811514 94.9907293,10.6232595 C94.2816798,9.66536757 93.9276342,8.16601622 93.9276342,6.12666486 C93.9276342,4.08585405 94.2816798,2.56996216 94.9907293,1.57801622 C95.6992996,0.585583784 96.9190563,0.0903405405 98.6490411,0.0903405405 C100.379505,0.0903405405 101.598783,0.585583784 102.307353,1.57801622 C103.016881,2.56996216 103.370927,4.08585405 103.370927,6.12666486 C103.370927,8.16601622 103.016881,9.66536757 102.307353,10.6232595" id="Fill-18"></path>
                    <polygon id="Fill-20" points="105.991296 11.8562108 105.991296 0.294372973 109.892505 0.294372973 112.638634 9.81588649 112.806315 9.81588649 112.806315 0.294372973 115.116475 0.294372973 115.116475 11.8562108 111.315874 11.8562108 108.469136 2.3346973 108.301456 2.3346973 108.301456 11.8562108"></polygon>
                    <polygon id="Fill-22" points="118.165483 11.8562108 118.165483 0.294372973 125.53289 0.294372973 125.53289 2.3346973 120.476122 2.3346973 120.476122 5.03761622 124.528243 5.03761622 124.528243 7.04388649 120.476122 7.04388649 120.476122 9.81588649 125.53289 9.81588649 125.53289 11.8562108"></polygon>
                    <path d="M2.44995741,26.4902108 L4.30833764,26.4902108 C5.45814753,26.4902108 6.03305247,25.764373 6.03305247,24.3136703 C6.03305247,23.5995081 5.89315894,23.0867514 5.61433004,22.7749135 C5.33502205,22.4630757 4.90001065,22.3069135 4.30833764,22.3069135 L2.44995741,22.3069135 L2.44995741,26.4902108 Z M4.3251057,28.4964811 L2.44995741,28.4964811 L2.44995741,31.8624811 L0.139318631,31.8624811 L0.139318631,20.3006432 L4.3251057,20.3006432 C7.02667985,20.3006432 8.37722738,21.6384811 8.37722738,24.3136703 C8.37722738,25.6631838 8.03420076,26.6974541 7.34766844,27.4159946 C6.66113612,28.1364811 5.65361521,28.4964811 4.3251057,28.4964811 Z" id="Fill-24"></path>
                    <path d="M12.9028312,28.0033784 C12.9028312,29.3519189 13.5783445,30.0261892 14.928892,30.0261892 C16.2799186,30.0261892 16.9549529,29.3519189 16.9549529,28.0033784 L16.9549529,20.3008378 L19.2655916,20.3008378 L19.2655916,27.9522973 C19.2655916,29.3694324 18.9053179,30.4090541 18.1852494,31.0721351 C17.465181,31.7357027 16.3800479,32.067 14.928892,32.067 C13.4777361,32.067 12.392124,31.7357027 11.6725346,31.0721351 C10.9524662,30.4090541 10.5926715,29.3694324 10.5926715,27.9522973 L10.5926715,20.3008378 L12.9028312,20.3008378 L12.9028312,28.0033784 Z" id="Fill-26"></path>
                    <path d="M25.7385422,22.1375189 C24.5221392,22.1375189 23.913219,22.5451946 23.913219,23.3620054 C23.913219,23.7244378 24.0646106,24.0022216 24.3654776,24.1943838 C24.6673027,24.3870324 25.3729985,24.6648162 26.4840023,25.0277351 C27.594527,25.3906541 28.3730441,25.8012486 28.8200327,26.2609784 C29.2660631,26.7192486 29.4893179,27.4246541 29.4893179,28.3767081 C29.4893179,29.5904919 29.1261696,30.5084919 28.4013103,31.1316811 C27.6754928,31.7558432 26.7268996,32.0667081 25.5545726,32.0667081 C24.6840707,32.0667081 23.6176221,31.9304919 22.3561848,31.6590324 L21.7539719,31.5398432 L21.9882456,29.7208703 C23.4839567,29.9251946 24.6280175,30.0263838 25.4209072,30.0263838 C26.6037741,30.0263838 27.1954471,29.5277351 27.1954471,28.5309243 C27.1954471,28.1680054 27.0584281,27.8843838 26.7853483,27.6800595 C26.5113103,27.4767081 25.967546,27.2553568 25.1526183,27.0169784 C23.8576449,26.6428703 22.9449833,26.1987081 22.4151125,25.6820595 C21.8847627,25.1668703 21.6198274,24.4493027 21.6198274,23.5313027 C21.6198274,22.3749243 21.9652494,21.5138432 22.6575308,20.947573 C23.3502913,20.3803297 24.2988844,20.0967081 25.5047475,20.0967081 C26.3297361,20.0967081 27.3798958,20.2100595 28.651873,20.4377351 L29.2550441,20.5559514 L29.0710745,22.4099514 C27.4967932,22.2284919 26.3862684,22.1375189 25.7385422,22.1375189" id="Fill-28"></path>
                    <polygon id="Fill-30" points="31.5287932 22.3417946 31.5287932 20.3009838 39.0638806 20.3009838 39.0638806 22.3417946 34.3084586 29.5160108 34.3084586 29.8229838 39.0638806 29.8229838 39.0638806 31.8623351 31.5287932 31.8623351 31.5287932 29.8390378 36.2842152 22.6473081 36.2842152 22.3417946"></polygon>
                    <path d="M48.7399141,31.6753297 C47.5565681,31.9360865 46.4905985,32.0669514 45.5415262,32.0669514 C44.5929331,32.0669514 43.8340586,31.9477622 43.2644236,31.7098703 C42.6952677,31.4719784 42.2487582,31.0920324 41.9248951,30.5705189 C41.601511,30.0490054 41.3777772,29.4370054 41.2551308,28.7340324 C41.1324844,28.0315459 41.0711612,27.1476 41.0711612,26.0821946 C41.0711612,23.8487351 41.3806517,22.2929514 42.0005909,21.4143568 C42.62053,20.5367351 43.7612373,20.0964649 45.4246289,20.0964649 C46.3842411,20.0964649 47.4947658,20.2506811 48.756203,20.5561946 L48.690089,22.4267351 C47.5848342,22.2569514 46.6664236,22.1718162 45.9353361,22.1718162 C45.2037696,22.1718162 44.6820433,22.2710595 44.3696783,22.468573 C44.0573133,22.6670595 43.825435,23.044573 43.6750015,23.5991676 C43.5236099,24.1552216 43.4488722,25.1014378 43.4488722,26.4392757 C43.4488722,27.7761405 43.6017011,28.7038703 43.9087962,29.2190595 C44.2163703,29.7352216 44.8300814,29.992573 45.7508875,29.992573 C46.6721726,29.992573 47.6514274,29.9137622 48.690089,29.7541946 L48.7399141,31.6753297 Z" id="Fill-32"></path>
                    <polygon id="Fill-34" points="50.8662958 22.3417946 50.8662958 20.3009838 58.4013833 20.3009838 58.4013833 22.3417946 53.6459612 29.5160108 53.6459612 29.8229838 58.4013833 29.8229838 58.4013833 31.8623351 50.8662958 31.8623351 50.8662958 29.8390378 55.6217179 22.6473081 55.6217179 22.3417946"></polygon>
                    <path d="M64.7037308,22.2396324 L63.548651,27.7315784 L66.6627194,27.7315784 L65.5076395,22.2396324 L64.7037308,22.2396324 Z M69.5597612,31.8623351 C68.934073,32.3955243 68.621708,32.8518486 68.621708,33.2322811 C68.621708,33.6112541 68.8004076,33.8014703 69.1578068,33.8014703 L69.8606281,33.7333622 L70.0618449,35.3480108 C69.4030996,35.4730378 68.8200502,35.5353081 68.3122175,35.5353081 C67.8039057,35.5353081 67.3799133,35.3879027 67.0392821,35.0930919 C66.698651,34.7977946 66.529054,34.4017946 66.529054,33.9036324 C66.529054,33.1320649 66.8969932,32.4514703 67.6333506,31.8623351 L67.5495103,31.8623351 L67.0982099,29.7709297 L63.1131605,29.7709297 L62.6604228,31.8623351 L60.349784,31.8623351 L62.9124228,20.3009838 L67.2989475,20.3009838 L69.8606281,31.8623351 L69.5597612,31.8623351 Z" id="Fill-36"></path>
                </g>
            </g>
        </g>
    </g>
</svg>