<?xml version="1.0" encoding="UTF-8" standalone="no"?>
<svg width="194px" height="45px" viewBox="0 0 194 45" version="1.1" xmlns="http://www.w3.org/2000/svg" xmlns:xlink="http://www.w3.org/1999/xlink">
    <!-- Generator: Sketch 50.2 (55047) - http://www.bohemiancoding.com/sketch -->
    <title>logo-bw</title>
    <desc>Created with Sketch.</desc>
    <defs></defs>
    <g id="Symbols" stroke="none" stroke-width="1" fill="none" fill-rule="evenodd">
        <g id="Footer" transform="translate(-150.000000, -70.000000)">
            <g id="logo-bw" transform="translate(150.000000, 70.000000)">
                <path d="M0.117812621,0.223875 L0.117812621,10.092 L0.117812621,34.3521563 L0.117812621,44.882625 L5.27953107,44.882625 L7.79070097,44.882625 L15.6279243,44.882625 L18.1386233,44.882625 L23.3111718,44.882625 L23.3111718,42.3818437 L23.3111718,36.793875 L23.3111718,26.4077812 L34.8009631,15.85575 L46.2907544,26.4077812 L46.2907544,36.793875 L46.2907544,42.3837187 L46.2907544,44.882625 L46.3237155,44.882625 L48.8353563,44.882625 L59.0994631,44.882625 L59.0994631,0.223875 L0.117812621,0.223875 Z M46.7296087,2.72371875 L56.589235,2.72371875 L56.589235,11.7734062 L46.7296087,2.72371875 Z M43.9519243,10.2799687 L35.7238757,2.72371875 L46.3199485,2.72371875 L46.3260699,12.0345 L46.3237155,12.0345 L46.3237155,12.8984062 L43.9519243,15.0752812 L43.9519243,10.2799687 Z M18.7210942,2.72371875 L29.0308757,2.72371875 L23.8757495,7.45621875 L18.7210942,2.72371875 Z M2.62851165,2.72371875 L15.6265117,2.72371875 L15.6293369,8.365125 L15.6279243,8.365125 L15.6279243,10.5354375 L12.9533612,12.9893437 L12.9533612,10.092 L6.5362932,4.19934375 L2.62851165,7.7866875 L2.62851165,2.72371875 Z M28.4837204,11.68575 L25.728167,9.15590625 L32.3773757,3.0495 L41.4412252,11.3749687 L41.4412252,17.3805937 L40.8036621,17.967 L34.8009631,12.4559062 L28.485133,18.2566875 L28.4837204,11.68575 Z M18.1386233,11.6309063 L18.139565,11.6290312 L18.1386233,5.5891875 L25.9725505,12.78075 L25.9749049,20.5610625 L20.8000019,25.3118438 L20.8000019,26.4673125 L20.8000019,33.246375 L18.1386233,35.6899687 L18.1386233,11.6309063 Z M2.62851165,33.257625 L2.62851165,11.187 L6.5362932,7.59825 L10.443133,11.187 L10.443133,15.295125 L5.28188544,20.031375 L5.27953107,29.5929375 L9.85830777,33.7924687 L6.53205534,36.8421562 L2.62851165,33.257625 Z M48.8353563,13.9929375 L48.8367689,13.9915312 L48.8353563,8.0548125 L56.5421476,15.1296562 L56.5430893,28.61325 L48.8353563,35.6890312 L48.8353563,13.9929375 Z M7.79070097,28.4960625 L7.79305534,21.1273125 L15.6279243,13.9352812 L15.6279243,35.6899687 L7.79070097,28.4960625 Z M42.6560796,19.6671562 L46.3237155,16.2991875 L46.3237155,23.0374687 L42.6560796,19.6671562 Z M48.8353563,39.0874687 L56.589235,31.9723125 L56.589235,42.3837187 L48.8353563,42.3837187 L48.8353563,39.0874687 Z M7.79070097,39.0874687 L11.7107252,35.492625 L15.6279243,39.0902812 L15.6279243,42.3837187 L7.79070097,42.3837187 L7.79070097,39.0874687 Z M18.1386233,39.0902812 L20.8000019,36.6466875 L20.8000019,42.3837187 L18.1386233,42.3837187 L18.1386233,39.0902812 Z M2.62851165,36.657 L5.27953107,39.0921562 L5.27953107,42.3837187 L2.62851165,42.3837187 L2.62851165,36.657 Z" id="Fill-1" fill="#FEFEFE"></path>
                <g id="Group-76" stroke-width="1">
                    <path d="M56.589235,11.7736875 L46.7300796,2.72353125 L56.589235,2.72353125 L56.589235,11.7736875 Z M48.8353563,8.054625 L56.5421476,15.1294688 L56.5435602,28.6130625 L48.8353563,35.6893125 L48.8353563,13.99275 L48.8367689,13.9913437 L48.8353563,8.054625 Z M56.589235,42.3835313 L48.8353563,42.3835313 L48.8353563,39.08775 L56.589235,31.9725938 L56.589235,42.3835313 Z M46.3237155,12.0347812 L46.3237155,12.8982187 L43.9519243,15.0750937 L43.9519243,10.2797813 L35.7238757,2.72353125 L46.3194777,2.72353125 L46.3260699,12.0347812 L46.3237155,12.0347812 Z M46.3237155,23.0372813 L42.6560796,19.6674375 L46.3237155,16.299 L46.3237155,23.0372813 Z M41.4412252,17.380875 L40.804133,17.9672812 L34.8009631,12.4557188 L28.485133,18.2565 L28.4837204,11.6860313 L25.728167,9.15571875 L32.3773757,3.04978125 L41.4412252,11.3747813 L41.4412252,17.380875 Z M20.8000019,25.312125 L20.8000019,26.4675937 L20.8000019,33.2466563 L18.1386233,35.6897813 L18.1386233,11.6307187 L18.1400359,11.6288437 L18.1386233,5.58946875 L25.9725505,12.7805625 L25.974434,20.5613437 L20.8000019,25.312125 Z M20.8000019,42.3835313 L18.1386233,42.3835313 L18.1386233,39.0900937 L20.8000019,36.6469687 L20.8000019,42.3835313 Z M29.0313466,2.72353125 L23.8757495,7.45603125 L18.721565,2.72353125 L29.0313466,2.72353125 Z M15.6279243,8.36540625 L15.6279243,10.53525 L12.953832,12.989625 L12.953832,10.0918125 L6.53582233,4.19915625 L2.62804078,7.78696875 L2.62804078,2.72353125 L15.6260408,2.72353125 L15.6293369,8.36540625 L15.6279243,8.36540625 Z M15.6279243,35.6897813 L7.79070097,28.4963438 L7.79305534,21.127125 L15.6279243,13.9350938 L15.6279243,35.6897813 Z M15.6279243,42.3835313 L7.79070097,42.3835313 L7.79070097,39.08775 L11.7102544,35.4929063 L15.6279243,39.0900938 L15.6279243,42.3835313 Z M6.53158447,36.8419687 L2.62804078,33.2574375 L2.62804078,11.1872812 L6.53582233,7.59853125 L10.443133,11.1872812 L10.443133,15.2949375 L5.28188544,20.0311875 L5.27953107,29.59275 L9.85830777,33.79275 L6.53158447,36.8419687 Z M5.27953107,42.3835313 L2.62804078,42.3835313 L2.62804078,36.6568125 L5.27953107,39.0919688 L5.27953107,42.3835313 Z M0.117812621,0.2236875 L0.117812621,10.0918125 L0.117812621,34.3524375 L0.117812621,44.8829062 L5.27953107,44.8829062 L7.79070097,44.8829062 L15.6279243,44.8829062 L18.1386233,44.8829062 L23.3111718,44.8829062 L23.3111718,42.382125 L23.3111718,36.7941563 L23.3111718,26.4080625 L34.8009631,15.8555625 L46.2902835,26.4080625 L46.2902835,36.7941563 L46.2902835,42.3835312 L46.2902835,44.8829062 L46.3237155,44.8829062 L48.8353563,44.8829062 L59.099934,44.8829062 L59.099934,0.2236875 L0.117812621,0.2236875 Z" id="Stroke-2" stroke="#3C3C3B" stroke-width="0.5"></path>
                    <path d="M76.569634,14.3829375 C76.591765,14.0341875 76.6025951,13.551375 76.6025951,12.9335625 C76.6025951,12.3162187 76.5804641,11.8221563 76.5371437,11.4504375 C76.4928816,11.0796563 76.3883476,10.74075 76.2240126,10.4355937 C76.0592068,10.1290312 75.8152942,9.9195 75.4918039,9.8041875 C75.1678427,9.688875 74.7322845,9.63215625 74.1832456,9.63215625 L72.685867,9.63215625 L72.685867,16.8405938 L74.1832456,16.8405938 C75.006333,16.8405938 75.6038718,16.6334063 75.9772748,16.2185625 C76.2955854,15.8796563 76.4928816,15.2679375 76.569634,14.3829375 M74.1832456,18.807 L70.4148427,18.807 L70.4148427,7.6666875 L74.1832456,7.6666875 C75.1485369,7.6666875 75.9443136,7.767 76.569634,7.9695 C77.1949544,8.172 77.6804252,8.5048125 78.0265175,8.968875 C78.3711971,9.43340625 78.610401,9.97903125 78.7417748,10.6071563 C78.8736194,11.2348125 78.9395417,12.0509063 78.9395417,13.0559062 C78.9395417,14.061375 78.878799,14.8934063 78.7582553,15.5552813 C78.6377117,16.21575 78.4098087,16.8054375 78.0754883,17.3234063 C77.7406971,17.8427813 77.2552262,18.220125 76.6190757,18.4545 C75.9824544,18.6893437 75.170668,18.807 74.1832456,18.807" id="Fill-4" fill="#FEFEFE"></path>
                    <path d="M76.569634,14.3829375 C76.591765,14.0341875 76.6025951,13.551375 76.6025951,12.9335625 C76.6025951,12.3162187 76.5804641,11.8221563 76.5371437,11.4504375 C76.4928816,11.0796563 76.3883476,10.74075 76.2240126,10.4355937 C76.0592068,10.1290312 75.8152942,9.9195 75.4918039,9.8041875 C75.1678427,9.688875 74.7322845,9.63215625 74.1832456,9.63215625 L72.685867,9.63215625 L72.685867,16.8405938 L74.1832456,16.8405938 C75.006333,16.8405938 75.6038718,16.6334063 75.9772748,16.2185625 C76.2955854,15.8796563 76.4928816,15.2679375 76.569634,14.3829375 Z M74.1832456,18.807 L70.4148427,18.807 L70.4148427,7.6666875 L74.1832456,7.6666875 C75.1485369,7.6666875 75.9443136,7.767 76.569634,7.9695 C77.1949544,8.172 77.6804252,8.5048125 78.0265175,8.968875 C78.3711971,9.43340625 78.610401,9.97903125 78.7417748,10.6071563 C78.8736194,11.2348125 78.9395417,12.0509063 78.9395417,13.0559062 C78.9395417,14.061375 78.878799,14.8934063 78.7582553,15.5552813 C78.6377117,16.21575 78.4098087,16.8054375 78.0754883,17.3234063 C77.7406971,17.8427813 77.2552262,18.220125 76.6190757,18.4545 C75.9824544,18.6893437 75.170668,18.807 74.1832456,18.807 Z" id="Stroke-6" stroke="#3C3C3B" stroke-width="0.5"></path>
                    <path d="M83.9569374,16.1768906 C84.2804277,16.7506406 84.8864422,17.0375156 85.7754519,17.0375156 C86.6639908,17.0375156 87.2700053,16.7506406 87.5939665,16.1768906 C87.9174568,15.6036094 88.0794374,14.6436094 88.0794374,13.2936094 C88.0794374,11.9454844 87.9146316,10.9643906 87.5854908,10.3536094 C87.25635,9.74142188 86.6531607,9.43532812 85.7754519,9.43532812 C84.8972723,9.43532812 84.294083,9.74142188 83.9649422,10.3536094 C83.6358015,10.9643906 83.4714665,11.9454844 83.4714665,13.2936094 C83.4714665,14.6436094 83.6334471,15.6036094 83.9569374,16.1768906 M89.371515,17.6187656 C88.6746218,18.5417344 87.4762481,19.0025156 85.7754519,19.0025156 C84.0746558,19.0025156 82.876282,18.5417344 82.1798597,17.6187656 C81.4824956,16.6957969 81.1349908,15.2511094 81.1349908,13.2861094 C81.1349908,11.3197031 81.4824956,9.85907813 82.1798597,8.90329688 C82.876282,7.94704688 84.0746558,7.46985938 85.7754519,7.46985938 C87.4762481,7.46985938 88.6746218,7.94704688 89.371515,8.90329688 C90.0684083,9.85907813 90.4159131,11.3197031 90.4159131,13.2861094 C90.4159131,15.2511094 90.0684083,16.6957969 89.371515,17.6187656" id="Fill-8" fill="#FEFEFE"></path>
                    <path d="M83.9569374,16.1768906 C84.2804277,16.7506406 84.8864422,17.0375156 85.7754519,17.0375156 C86.6639908,17.0375156 87.2700053,16.7506406 87.5939665,16.1768906 C87.9174568,15.6036094 88.0794374,14.6436094 88.0794374,13.2936094 C88.0794374,11.9454844 87.9146316,10.9643906 87.5854908,10.3536094 C87.25635,9.74142188 86.6531607,9.43532812 85.7754519,9.43532812 C84.8972723,9.43532812 84.294083,9.74142188 83.9649422,10.3536094 C83.6358015,10.9643906 83.4714665,11.9454844 83.4714665,13.2936094 C83.4714665,14.6436094 83.6334471,15.6036094 83.9569374,16.1768906 Z M89.371515,17.6187656 C88.6746218,18.5417344 87.4762481,19.0025156 85.7754519,19.0025156 C84.0746558,19.0025156 82.876282,18.5417344 82.1798597,17.6187656 C81.4824956,16.6957969 81.1349908,15.2511094 81.1349908,13.2861094 C81.1349908,11.3197031 81.4824956,9.85907813 82.1798597,8.90329688 C82.876282,7.94704688 84.0746558,7.46985938 85.7754519,7.46985938 C87.4762481,7.46985938 88.6746218,7.94704688 89.371515,8.90329688 C90.0684083,9.85907813 90.4159131,11.3197031 90.4159131,13.2861094 C90.4159131,15.2511094 90.0684083,16.6957969 89.371515,17.6187656 Z" id="Stroke-10" stroke="#3C3C3B" stroke-width="0.5"></path>
                    <polygon id="Fill-12" fill="#FEFEFE" points="92.9918282 18.8067656 92.9918282 7.66645312 96.8591146 7.66645312 98.8334883 15.7922344 100.809275 7.66645312 104.67609 7.66645312 104.67609 18.8067656 102.405066 18.8067656 102.405066 10.1887969 102.158799 10.1887969 99.9692359 18.3155156 97.6982117 18.3155156 95.5095903 10.1887969 95.2628524 10.1887969 95.2628524 18.8067656"></polygon>
                    <polygon id="Stroke-14" stroke="#3C3C3B" stroke-width="0.5" points="92.9918282 18.8067656 92.9918282 7.66645312 96.8591146 7.66645312 98.8334883 15.7922344 100.809275 7.66645312 104.67609 7.66645312 104.67609 18.8067656 102.405066 18.8067656 102.405066 10.1887969 102.158799 10.1887969 99.9692359 18.3155156 97.6982117 18.3155156 95.5095903 10.1887969 95.2628524 10.1887969 95.2628524 18.8067656"></polygon>
                    <polygon id="Fill-16" fill="#FEFEFE" points="112.443436 18.8067656 110.172412 18.8067656 110.172412 14.3011406 106.716198 7.66645312 109.234431 7.66645312 111.291208 12.1064531 113.348926 7.66645312 115.866688 7.66645312 112.443436 14.3011406"></polygon>
                    <polygon id="Stroke-18" stroke="#3C3C3B" stroke-width="0.5" points="112.443436 18.8067656 110.172412 18.8067656 110.172412 14.3011406 106.716198 7.66645312 109.234431 7.66645312 111.291208 12.1064531 113.348926 7.66645312 115.866688 7.66645312 112.443436 14.3011406"></polygon>
                    <path d="M124.695336,16.1768906 C125.018827,16.7506406 125.625312,17.0375156 126.513851,17.0375156 C127.402861,17.0375156 128.008404,16.7506406 128.332366,16.1768906 C128.655385,15.6036094 128.817836,14.6436094 128.817836,13.2936094 C128.817836,11.9454844 128.653031,10.9643906 128.324361,10.3536094 C127.994749,9.74142188 127.39156,9.43532812 126.513851,9.43532812 C125.635671,9.43532812 125.032953,9.74142188 124.703812,10.3536094 C124.3742,10.9643906 124.209866,11.9454844 124.209866,13.2936094 C124.209866,14.6436094 124.371846,15.6036094 124.695336,16.1768906 M130.109443,17.6187656 C129.41255,18.5417344 128.214176,19.0025156 126.513851,19.0025156 C124.813055,19.0025156 123.61421,18.5417344 122.918259,17.6187656 C122.220895,16.6957969 121.872919,15.2511094 121.872919,13.2861094 C121.872919,11.3197031 122.220895,9.85907813 122.918259,8.90329688 C123.61421,7.94704688 124.813055,7.46985938 126.513851,7.46985938 C128.214176,7.46985938 129.41255,7.94704688 130.109443,8.90329688 C130.806807,9.85907813 131.154312,11.3197031 131.154312,13.2861094 C131.154312,15.2511094 130.806807,16.6957969 130.109443,17.6187656" id="Fill-20" fill="#FEFEFE"></path>
                    <path d="M124.695336,16.1768906 C125.018827,16.7506406 125.625312,17.0375156 126.513851,17.0375156 C127.402861,17.0375156 128.008404,16.7506406 128.332366,16.1768906 C128.655385,15.6036094 128.817836,14.6436094 128.817836,13.2936094 C128.817836,11.9454844 128.653031,10.9643906 128.324361,10.3536094 C127.994749,9.74142188 127.39156,9.43532812 126.513851,9.43532812 C125.635671,9.43532812 125.032953,9.74142188 124.703812,10.3536094 C124.3742,10.9643906 124.209866,11.9454844 124.209866,13.2936094 C124.209866,14.6436094 124.371846,15.6036094 124.695336,16.1768906 Z M130.109443,17.6187656 C129.41255,18.5417344 128.214176,19.0025156 126.513851,19.0025156 C124.813055,19.0025156 123.61421,18.5417344 122.918259,17.6187656 C122.220895,16.6957969 121.872919,15.2511094 121.872919,13.2861094 C121.872919,11.3197031 122.220895,9.85907813 122.918259,8.90329688 C123.61421,7.94704688 124.813055,7.46985938 126.513851,7.46985938 C128.214176,7.46985938 129.41255,7.94704688 130.109443,8.90329688 C130.806807,9.85907813 131.154312,11.3197031 131.154312,13.2861094 C131.154312,15.2511094 130.806807,16.6957969 130.109443,17.6187656 Z" id="Stroke-22" stroke="#3C3C3B" stroke-width="0.5"></path>
                    <polygon id="Fill-24" fill="#FEFEFE" points="132.805054 9.66520313 132.805054 7.66645313 141.034045 7.66645313 141.034045 9.66520313 138.071778 9.66520313 138.071778 18.8067656 135.800283 18.8067656 135.800283 9.66520313"></polygon>
                    <polygon id="Stroke-26" stroke="#3C3C3B" stroke-width="0.5" points="132.805054 9.66520313 132.805054 7.66645313 141.034045 7.66645313 141.034045 9.66520313 138.071778 9.66520313 138.071778 18.8067656 135.800283 18.8067656 135.800283 9.66520313"></polygon>
                    <path d="M145.392641,15.0874219 C145.392641,16.3877344 146.056573,17.0374219 147.383966,17.0374219 C148.711359,17.0374219 149.375291,16.3877344 149.375291,15.0874219 L149.375291,7.66664062 L151.645845,7.66664062 L151.645845,15.0386719 C151.645845,16.4046094 151.292218,17.4053906 150.584495,18.0452344 C149.876772,18.6836719 148.810243,19.0028906 147.383966,19.0028906 C145.957689,19.0028906 144.890689,18.6836719 144.182966,18.0452344 C143.475714,17.4053906 143.121617,16.4046094 143.121617,15.0386719 L143.121617,7.66664062 L145.392641,7.66664062 L145.392641,15.0874219 Z" id="Fill-28" fill="#FEFEFE"></path>
                    <path d="M145.392641,15.0874219 C145.392641,16.3877344 146.056573,17.0374219 147.383966,17.0374219 C148.711359,17.0374219 149.375291,16.3877344 149.375291,15.0874219 L149.375291,7.66664062 L151.645845,7.66664062 L151.645845,15.0386719 C151.645845,16.4046094 151.292218,17.4053906 150.584495,18.0452344 C149.876772,18.6836719 148.810243,19.0028906 147.383966,19.0028906 C145.957689,19.0028906 144.890689,18.6836719 144.182966,18.0452344 C143.475714,17.4053906 143.121617,16.4046094 143.121617,15.0386719 L143.121617,7.66664062 L145.392641,7.66664062 L145.392641,15.0874219 Z" id="Stroke-30" stroke="#3C3C3B" stroke-width="0.5"></path>
                    <polygon id="Fill-32" fill="#FEFEFE" points="160.942965 18.8067656 154.573926 18.8067656 154.573926 7.66645312 156.84495 7.66645312 156.84495 16.8080156 160.942965 16.8080156"></polygon>
                    <polygon id="Stroke-34" stroke="#3C3C3B" stroke-width="0.5" points="160.942965 18.8067656 154.573926 18.8067656 154.573926 7.66645312 156.84495 7.66645312 156.84495 16.8080156 160.942965 16.8080156"></polygon>
                    <path d="M165.417161,16.1768906 C165.740651,16.7506406 166.347136,17.0375156 167.235675,17.0375156 C168.124685,17.0375156 168.7307,16.7506406 169.05419,16.1768906 C169.377209,15.6036094 169.539661,14.6436094 169.539661,13.2936094 C169.539661,11.9454844 169.375326,10.9643906 169.046185,10.3536094 C168.716573,9.74142188 168.113855,9.43532812 167.235675,9.43532812 C166.357967,9.43532812 165.754777,9.74142188 165.425636,10.3536094 C165.096025,10.9643906 164.93169,11.9454844 164.93169,13.2936094 C164.93169,14.6436094 165.09367,15.6036094 165.417161,16.1768906 M170.831267,17.6187656 C170.134845,18.5417344 168.936471,19.0025156 167.235675,19.0025156 C165.53535,19.0025156 164.336505,18.5417344 163.640083,17.6187656 C162.94319,16.6957969 162.595214,15.2511094 162.595214,13.2861094 C162.595214,11.3197031 162.94319,9.85907813 163.640083,8.90329688 C164.336505,7.94704688 165.53535,7.46985938 167.235675,7.46985938 C168.936471,7.46985938 170.134845,7.94704688 170.831267,8.90329688 C171.528632,9.85907813 171.876607,11.3197031 171.876607,13.2861094 C171.876607,15.2511094 171.528632,16.6957969 170.831267,17.6187656" id="Fill-36" fill="#FEFEFE"></path>
                    <path d="M165.417161,16.1768906 C165.740651,16.7506406 166.347136,17.0375156 167.235675,17.0375156 C168.124685,17.0375156 168.7307,16.7506406 169.05419,16.1768906 C169.377209,15.6036094 169.539661,14.6436094 169.539661,13.2936094 C169.539661,11.9454844 169.375326,10.9643906 169.046185,10.3536094 C168.716573,9.74142188 168.113855,9.43532812 167.235675,9.43532812 C166.357967,9.43532812 165.754777,9.74142188 165.425636,10.3536094 C165.096025,10.9643906 164.93169,11.9454844 164.93169,13.2936094 C164.93169,14.6436094 165.09367,15.6036094 165.417161,16.1768906 Z M170.831267,17.6187656 C170.134845,18.5417344 168.936471,19.0025156 167.235675,19.0025156 C165.53535,19.0025156 164.336505,18.5417344 163.640083,17.6187656 C162.94319,16.6957969 162.595214,15.2511094 162.595214,13.2861094 C162.595214,11.3197031 162.94319,9.85907813 163.640083,8.90329688 C164.336505,7.94704688 165.53535,7.46985938 167.235675,7.46985938 C168.936471,7.46985938 170.134845,7.94704688 170.831267,8.90329688 C171.528632,9.85907813 171.876607,11.3197031 171.876607,13.2861094 C171.876607,15.2511094 171.528632,16.6957969 170.831267,17.6187656 Z" id="Stroke-38" stroke="#3C3C3B" stroke-width="0.5"></path>
                    <polygon id="Fill-40" fill="#FEFEFE" points="174.452051 18.8067656 174.452051 7.66645312 178.286377 7.66645312 180.985425 16.8408281 181.150231 16.8408281 181.150231 7.66645312 183.420784 7.66645312 183.420784 18.8067656 179.685343 18.8067656 176.887411 9.63239062 176.722605 9.63239062 176.722605 18.8067656"></polygon>
                    <polygon id="Stroke-42" stroke="#3C3C3B" stroke-width="0.5" points="174.452051 18.8067656 174.452051 7.66645312 178.286377 7.66645312 180.985425 16.8408281 181.150231 16.8408281 181.150231 7.66645312 183.420784 7.66645312 183.420784 18.8067656 179.685343 18.8067656 176.887411 9.63239062 176.722605 9.63239062 176.722605 18.8067656"></polygon>
                    <polygon id="Fill-44" fill="#FEFEFE" points="186.417519 18.8067656 186.417519 7.66645312 193.658617 7.66645312 193.658617 9.63239062 188.688544 9.63239062 188.688544 12.2367656 192.671194 12.2367656 192.671194 14.1698906 188.688544 14.1698906 188.688544 16.8408281 193.658617 16.8408281 193.658617 18.8067656"></polygon>
                    <polygon id="Stroke-46" stroke="#3C3C3B" stroke-width="0.5" points="186.417519 18.8067656 186.417519 7.66645312 193.658617 7.66645312 193.658617 9.63239062 188.688544 9.63239062 188.688544 12.2367656 192.671194 12.2367656 192.671194 14.1698906 188.688544 14.1698906 188.688544 16.8408281 193.658617 16.8408281 193.658617 18.8067656"></polygon>
                    <path d="M72.685867,32.9072344 L74.5123864,32.9072344 C75.6424835,32.9072344 76.207532,32.2078594 76.207532,30.8100469 C76.207532,30.1219219 76.0700369,29.6278594 75.7959883,29.3273906 C75.5214689,29.0269219 75.0939155,28.8764531 74.5123864,28.8764531 L72.685867,28.8764531 L72.685867,32.9072344 Z M74.528867,34.8403594 L72.685867,34.8403594 L72.685867,38.0836406 L70.4148427,38.0836406 L70.4148427,26.9433281 L74.528867,26.9433281 C77.1841243,26.9433281 78.5115175,28.2323906 78.5115175,30.8100469 C78.5115175,32.1103594 78.1743718,33.1069219 77.4996097,33.7992656 C76.8248476,34.4934844 75.8346,34.8403594 74.528867,34.8403594 Z" id="Fill-48" fill="#FEFEFE"></path>
                    <path d="M72.685867,32.9072344 L74.5123864,32.9072344 C75.6424835,32.9072344 76.207532,32.2078594 76.207532,30.8100469 C76.207532,30.1219219 76.0700369,29.6278594 75.7959883,29.3273906 C75.5214689,29.0269219 75.0939155,28.8764531 74.5123864,28.8764531 L72.685867,28.8764531 L72.685867,32.9072344 Z M74.528867,34.8403594 L72.685867,34.8403594 L72.685867,38.0836406 L70.4148427,38.0836406 L70.4148427,26.9433281 L74.528867,26.9433281 C77.1841243,26.9433281 78.5115175,28.2323906 78.5115175,30.8100469 C78.5115175,32.1103594 78.1743718,33.1069219 77.4996097,33.7992656 C76.8248476,34.4934844 75.8346,34.8403594 74.528867,34.8403594 Z" id="Stroke-50" stroke="#3C3C3B" stroke-width="0.5"></path>
                    <path d="M82.9595325,34.3652344 C82.9595325,35.6646094 83.6234646,36.3142969 84.9508578,36.3142969 C86.2787218,36.3142969 86.942183,35.6646094 86.942183,34.3652344 L86.942183,26.9435156 L89.2132073,26.9435156 L89.2132073,34.3160156 C89.2132073,35.6814844 88.8591102,36.6832031 88.1513869,37.3221094 C87.4436636,37.9614844 86.3771345,38.2807031 84.9508578,38.2807031 C83.5245811,38.2807031 82.4575811,37.9614844 81.7503286,37.3221094 C81.0426053,36.6832031 80.6889791,35.6814844 80.6889791,34.3160156 L80.6889791,26.9435156 L82.9595325,26.9435156 L82.9595325,34.3652344 Z" id="Fill-52" fill="#FEFEFE"></path>
                    <path d="M82.9595325,34.3652344 C82.9595325,35.6646094 83.6234646,36.3142969 84.9508578,36.3142969 C86.2787218,36.3142969 86.942183,35.6646094 86.942183,34.3652344 L86.942183,26.9435156 L89.2132073,26.9435156 L89.2132073,34.3160156 C89.2132073,35.6814844 88.8591102,36.6832031 88.1513869,37.3221094 C87.4436636,37.9614844 86.3771345,38.2807031 84.9508578,38.2807031 C83.5245811,38.2807031 82.4575811,37.9614844 81.7503286,37.3221094 C81.0426053,36.6832031 80.6889791,35.6814844 80.6889791,34.3160156 L80.6889791,26.9435156 L82.9595325,26.9435156 L82.9595325,34.3652344 Z" id="Stroke-54" stroke="#3C3C3B" stroke-width="0.5"></path>
                    <path d="M95.575183,28.7132344 C94.3796345,28.7132344 93.7811539,29.1060469 93.7811539,29.8930781 C93.7811539,30.2422969 93.92995,30.5099531 94.2256587,30.6951094 C94.5223092,30.8807344 95.2159063,31.1483906 96.3078626,31.4980781 C97.3993481,31.8477656 98.164518,32.2433906 98.6038432,32.6863594 C99.0422267,33.1279219 99.2616539,33.8076094 99.2616539,34.7249531 C99.2616539,35.8944844 98.9047316,36.7790156 98.1922995,37.3794844 C97.4789257,37.9808906 96.5465956,38.2804219 95.3943675,38.2804219 C94.5387898,38.2804219 93.4906248,38.1491719 92.2508141,37.8876094 L91.6589257,37.7727656 L91.889183,36.0201094 C93.359251,36.2169844 94.4836976,36.3144844 95.2629937,36.3144844 C96.4255811,36.3144844 97.0071102,35.8340156 97.0071102,34.8735469 C97.0071102,34.5238594 96.8724403,34.2505781 96.6040422,34.0537031 C96.3347024,33.8577656 95.8002607,33.6444844 94.9993044,33.4147969 C93.7265325,33.0543281 92.829518,32.6263594 92.3087316,32.1285469 C91.7874743,31.6321406 91.5270811,30.9407344 91.5270811,30.0562031 C91.5270811,28.9419844 91.8665811,28.1122969 92.5469937,27.5666719 C93.2278772,27.0201094 94.1602073,26.7468281 95.3453966,26.7468281 C96.1562413,26.7468281 97.1883966,26.8560469 98.4385665,27.0754219 L99.0313966,27.1893281 L98.8505811,28.9757344 C97.3032898,28.8008906 96.2118044,28.7132344 95.575183,28.7132344" id="Fill-56" fill="#FEFEFE"></path>
                    <path d="M95.575183,28.7132344 C94.3796345,28.7132344 93.7811539,29.1060469 93.7811539,29.8930781 C93.7811539,30.2422969 93.92995,30.5099531 94.2256587,30.6951094 C94.5223092,30.8807344 95.2159063,31.1483906 96.3078626,31.4980781 C97.3993481,31.8477656 98.164518,32.2433906 98.6038432,32.6863594 C99.0422267,33.1279219 99.2616539,33.8076094 99.2616539,34.7249531 C99.2616539,35.8944844 98.9047316,36.7790156 98.1922995,37.3794844 C97.4789257,37.9808906 96.5465956,38.2804219 95.3943675,38.2804219 C94.5387898,38.2804219 93.4906248,38.1491719 92.2508141,37.8876094 L91.6589257,37.7727656 L91.889183,36.0201094 C93.359251,36.2169844 94.4836976,36.3144844 95.2629937,36.3144844 C96.4255811,36.3144844 97.0071102,35.8340156 97.0071102,34.8735469 C97.0071102,34.5238594 96.8724403,34.2505781 96.6040422,34.0537031 C96.3347024,33.8577656 95.8002607,33.6444844 94.9993044,33.4147969 C93.7265325,33.0543281 92.829518,32.6263594 92.3087316,32.1285469 C91.7874743,31.6321406 91.5270811,30.9407344 91.5270811,30.0562031 C91.5270811,28.9419844 91.8665811,28.1122969 92.5469937,27.5666719 C93.2278772,27.0201094 94.1602073,26.7468281 95.3453966,26.7468281 C96.1562413,26.7468281 97.1883966,26.8560469 98.4385665,27.0754219 L99.0313966,27.1893281 L98.8505811,28.9757344 C97.3032898,28.8008906 96.2118044,28.7132344 95.575183,28.7132344 Z" id="Stroke-58" stroke="#3C3C3B" stroke-width="0.5"></path>
                    <polygon id="Fill-60" fill="#FEFEFE" points="101.266164 28.9100625 101.266164 26.9436563 108.672067 26.9436563 108.672067 28.9100625 103.998173 35.8227187 103.998173 36.1185 108.672067 36.1185 108.672067 38.0835 101.266164 38.0835 101.266164 36.1339688 105.940057 29.2044375 105.940057 28.9100625"></polygon>
                    <polygon id="Stroke-62" stroke="#3C3C3B" stroke-width="0.5" points="101.266164 28.9100625 101.266164 26.9436563 108.672067 26.9436563 108.672067 28.9100625 103.998173 35.8227187 103.998173 36.1185 108.672067 36.1185 108.672067 38.0835 101.266164 38.0835 101.266164 36.1339688 105.940057 29.2044375 105.940057 28.9100625"></polygon>
                    <path d="M118.18221,37.9033125 C117.019152,38.1545625 115.971458,38.2806562 115.038657,38.2806562 C114.106327,38.2806562 113.360463,38.1658125 112.800594,37.9365938 C112.241196,37.707375 111.802341,37.3412813 111.484031,36.8387812 C111.166191,36.3362812 110.946293,35.7465938 110.825749,35.06925 C110.705205,34.392375 110.644933,33.5406562 110.644933,32.5140938 C110.644933,30.3620625 110.949118,28.863 111.558429,28.0164375 C112.167739,27.1708125 113.28889,26.7465937 114.923764,26.7465937 C115.866924,26.7465937 116.958409,26.8951875 118.19822,27.1895625 L118.133239,28.9919063 C117.046933,28.8283125 116.144268,28.7462813 115.425715,28.7462813 C114.706691,28.7462813 114.193909,28.8419062 113.8869,29.0322188 C113.57989,29.2234688 113.351987,29.5872187 113.204133,30.1215937 C113.055336,30.657375 112.98188,31.5690938 112.98188,32.8581563 C112.98188,34.1462813 113.132089,35.0401875 113.433919,35.5365938 C113.73622,36.0339375 114.339409,36.2819062 115.244429,36.2819062 C116.149919,36.2819062 117.112385,36.2059687 118.133239,36.0522188 L118.18221,37.9033125 Z" id="Fill-64" fill="#FEFEFE"></path>
                    <path d="M118.18221,37.9033125 C117.019152,38.1545625 115.971458,38.2806562 115.038657,38.2806562 C114.106327,38.2806562 113.360463,38.1658125 112.800594,37.9365938 C112.241196,37.707375 111.802341,37.3412813 111.484031,36.8387812 C111.166191,36.3362812 110.946293,35.7465938 110.825749,35.06925 C110.705205,34.392375 110.644933,33.5406562 110.644933,32.5140938 C110.644933,30.3620625 110.949118,28.863 111.558429,28.0164375 C112.167739,27.1708125 113.28889,26.7465937 114.923764,26.7465937 C115.866924,26.7465937 116.958409,26.8951875 118.19822,27.1895625 L118.133239,28.9919063 C117.046933,28.8283125 116.144268,28.7462813 115.425715,28.7462813 C114.706691,28.7462813 114.193909,28.8419062 113.8869,29.0322188 C113.57989,29.2234688 113.351987,29.5872187 113.204133,30.1215937 C113.055336,30.657375 112.98188,31.5690938 112.98188,32.8581563 C112.98188,34.1462813 113.132089,35.0401875 113.433919,35.5365938 C113.73622,36.0339375 114.339409,36.2819062 115.244429,36.2819062 C116.149919,36.2819062 117.112385,36.2059687 118.133239,36.0522188 L118.18221,37.9033125 Z" id="Stroke-66" stroke="#3C3C3B" stroke-width="0.5"></path>
                    <polygon id="Fill-68" fill="#FEFEFE" points="120.272136 28.9100625 120.272136 26.9436563 127.678039 26.9436563 127.678039 28.9100625 123.004146 35.8227187 123.004146 36.1185 127.678039 36.1185 127.678039 38.0835 120.272136 38.0835 120.272136 36.1339688 124.94603 29.2044375 124.94603 28.9100625"></polygon>
                    <polygon id="Stroke-70" stroke="#3C3C3B" stroke-width="0.5" points="120.272136 28.9100625 120.272136 26.9436563 127.678039 26.9436563 127.678039 28.9100625 123.004146 35.8227187 123.004146 36.1185 127.678039 36.1185 127.678039 38.0835 120.272136 38.0835 120.272136 36.1339688 124.94603 29.2044375 124.94603 28.9100625"></polygon>
                    <path d="M133.872337,28.811625 L132.73706,34.1033438 L135.79774,34.1033438 L134.662463,28.811625 L133.872337,28.811625 Z M138.645114,38.0835 C138.030152,38.59725 137.723143,39.0369375 137.723143,39.4035 C137.723143,39.7686562 137.898779,39.9519375 138.25005,39.9519375 L138.940822,39.8863125 L139.138589,41.4420937 C138.491138,41.5625625 137.918084,41.6225625 137.418958,41.6225625 C136.919361,41.6225625 136.502638,41.4805312 136.167847,41.1964688 C135.833055,40.9119375 135.666366,40.530375 135.666366,40.050375 C135.666366,39.3069375 136.027997,38.6511562 136.75173,38.0835 L136.669327,38.0835 L136.225764,36.0683437 L132.309036,36.0683437 L131.86406,38.0835 L129.593036,38.0835 L132.11174,26.9436563 L136.42306,26.9436563 L138.940822,38.0835 L138.645114,38.0835 Z" id="Fill-72" fill="#FEFEFE"></path>
                    <path d="M133.872337,28.811625 L132.73706,34.1033438 L135.79774,34.1033438 L134.662463,28.811625 L133.872337,28.811625 Z M138.645114,38.0835 C138.030152,38.59725 137.723143,39.0369375 137.723143,39.4035 C137.723143,39.7686562 137.898779,39.9519375 138.25005,39.9519375 L138.940822,39.8863125 L139.138589,41.4420937 C138.491138,41.5625625 137.918084,41.6225625 137.418958,41.6225625 C136.919361,41.6225625 136.502638,41.4805312 136.167847,41.1964688 C135.833055,40.9119375 135.666366,40.530375 135.666366,40.050375 C135.666366,39.3069375 136.027997,38.6511562 136.75173,38.0835 L136.669327,38.0835 L136.225764,36.0683437 L132.309036,36.0683437 L131.86406,38.0835 L129.593036,38.0835 L132.11174,26.9436563 L136.42306,26.9436563 L138.940822,38.0835 L138.645114,38.0835 Z" id="Stroke-74" stroke="#3C3C3B" stroke-width="0.5"></path>
                </g>
            </g>
        </g>
    </g>
</svg>