<?xml version="1.0" encoding="UTF-8" standalone="no"?>
<svg width="28px" height="29px" viewBox="0 0 28 29" version="1.1" xmlns="http://www.w3.org/2000/svg" xmlns:xlink="http://www.w3.org/1999/xlink">
    <!-- Generator: Sketch 50.2 (55047) - http://www.bohemiancoding.com/sketch -->
    <title>icon-random copy 2</title>
    <desc>Created with Sketch.</desc>
    <defs></defs>
    <g id="Page-1" stroke="none" stroke-width="1" fill="none" fill-rule="evenodd">
        <g id="Home-Copy-9" transform="translate(-1404.000000, -172.000000)">
            <g id="icon-random-copy-17" transform="translate(1402.000000, 172.000000)">
                <path d="M15.9767526,0.816765679 C23.4693506,0.816765679 29.5425567,6.93304858 29.5425567,14.4767768 C29.5425567,22.0212263 23.4693506,28.1364271 15.9767526,28.1364271 C8.48433373,28.1364271 2.4111276,22.0212263 2.4111276,14.4767768 C2.4111276,6.93304858 8.48433373,0.816765679 15.9767526,0.816765679" id="Fill-1" fill="#FFFFFF"></path>
                <path d="M23.1629587,17.2417228 C23.1269056,17.1315818 22.8959214,16.9697545 22.4712283,16.756241 C22.3563472,16.6891719 22.1919696,16.5968749 21.9799286,16.4811961 C21.7678875,16.3642867 21.5741786,16.2572223 21.401857,16.1600028 C21.2283134,16.0621681 21.0657689,15.9674099 20.9142238,15.8757283 C20.8903921,15.8572689 20.8146195,15.804352 20.686906,15.715747 C20.5591925,15.6265266 20.4516443,15.5613035 20.3636504,15.5182316 C20.2756564,15.475775 20.1894956,15.4542391 20.1039459,15.4542391 C19.9829542,15.4542391 19.831409,15.5409982 19.6493104,15.715747 C19.4672117,15.8898805 19.3003898,16.0787816 19.1488447,16.2836807 C18.9972995,16.4885799 18.8359772,16.6780962 18.666711,16.8522297 C18.4962227,17.0263633 18.3568989,17.1131224 18.2475175,17.1131224 C18.1925213,17.1131224 18.1240815,17.0983549 18.0428093,17.0675892 C17.9603149,17.0374389 17.8985969,17.0109805 17.855211,16.9900598 C17.8136583,16.9685239 17.7409411,16.925452 17.6370593,16.8614594 C17.5337886,16.7968516 17.4763481,16.7623941 17.4641267,16.756241 C16.6324614,16.2910645 15.9193436,15.7600495 15.3247732,15.1607349 C14.7302028,14.5620355 14.2022389,13.8439655 13.7408816,13.0065247 C13.734771,12.9942185 13.69994,12.9357638 13.6357777,12.8323912 C13.5722265,12.7284033 13.5294517,12.6551811 13.5086753,12.6121092 C13.4872879,12.5696526 13.461623,12.5068907 13.4310695,12.4244388 C13.4005161,12.3419869 13.3858504,12.2730719 13.3858504,12.2176937 C13.3858504,12.108168 13.4726222,11.9672614 13.6455548,11.7962044 C13.8184874,11.6251475 14.0066968,11.4633202 14.2095718,11.3101073 C14.4130578,11.1575098 14.6012672,10.9895294 14.7741998,10.8067815 C14.9471324,10.6228029 15.0332931,10.4702054 15.0332931,10.3483734 C15.0332931,10.2628449 15.0125168,10.1754705 14.9697419,10.0868655 C14.9269671,9.99826044 14.8621938,9.88996538 14.7741998,9.76136501 C14.6862058,9.63276463 14.6330428,9.55646584 14.6147107,9.53246865 C14.5236614,9.37987107 14.4295567,9.21619786 14.3323967,9.04206434 C14.2352367,8.86793082 14.1295217,8.67349197 14.0134185,8.45997843 C13.8985375,8.24584957 13.8074882,8.08033043 13.7408816,7.96465162 C13.5282295,7.53700923 13.3675183,7.3050363 13.2581369,7.26811753 C13.2159731,7.24965815 13.1518109,7.24042845 13.0674833,7.24042845 C12.9031057,7.24042845 12.6892314,7.27119409 12.4252495,7.33211006 C12.1612676,7.39302603 11.953504,7.45763387 11.8013478,7.52470297 C11.4982574,7.65330335 11.176835,8.02556759 10.8364694,8.64272633 C10.5272684,9.21742849 10.3720568,9.78597752 10.3720568,10.3477581 C10.3720568,10.5126619 10.383056,10.6732586 10.4044435,10.829548 C10.4252198,10.9852222 10.4631061,11.1605863 10.5181023,11.3568711 C10.5724875,11.5519253 10.6164845,11.6971391 10.6494822,11.7918973 C10.683091,11.8866554 10.7454201,12.0558665 10.8364694,12.3007609 C10.9275187,12.5450401 10.9819039,12.6945611 11.000236,12.7499393 C11.2128881,13.3486386 11.4646486,13.8833455 11.7561287,14.3540598 C12.235207,15.1361223 12.8896622,15.9452587 13.717661,16.7790075 C14.5462709,17.6133717 15.3486049,18.2717564 16.125885,18.7547769 C16.593353,19.0482811 17.1243722,19.30179 17.7195536,19.5153036 C17.7739388,19.5337629 17.9224286,19.5885258 18.1650231,19.6808227 C18.4082287,19.771889 18.5762728,19.8352662 18.6703774,19.8691084 C18.7644821,19.9023353 18.9086944,19.9466378 19.1024034,20.0014007 C19.2973345,20.0561635 19.4714892,20.0949282 19.6267008,20.1164642 C19.7813013,20.1373848 19.9407904,20.1484604 20.1039459,20.1484604 C20.6624632,20.1484604 21.2270912,19.9927863 21.7978299,19.6808227 C22.4107324,19.3387088 22.7804293,19.0144389 22.9081428,18.7092438 C22.9747493,18.5566462 23.0389116,18.3468245 23.0994075,18.0810094 C23.1599033,17.8151943 23.1904568,17.5998348 23.1904568,17.4343157 C23.1904568,17.3487872 23.1812907,17.2847946 23.1629587,17.2417228" id="Fill-1" fill="#2FAB66"></path>
            </g>
        </g>
    </g>
</svg>