<?xml version="1.0" encoding="UTF-8" standalone="no"?>
<svg width="42px" height="60px" viewBox="0 0 42 60" version="1.1" xmlns="http://www.w3.org/2000/svg" xmlns:xlink="http://www.w3.org/1999/xlink">
    <!-- Generator: Sketch 50.2 (55047) - http://www.bohemiancoding.com/sketch -->
    <title>Shape</title>
    <desc>Created with Sketch.</desc>
    <defs>
        <linearGradient x1="50%" y1="0%" x2="50%" y2="100%" id="linearGradient-1">
            <stop stop-color="#C8B525" offset="0%"></stop>
            <stop stop-color="#2FAB66" offset="100%"></stop>
        </linearGradient>
    </defs>
    <g id="Page-1" stroke="none" stroke-width="1" fill="none" fill-rule="evenodd">
        <g id="Home-Copy-9" transform="translate(-993.000000, -10373.000000)" fill="url(#linearGradient-1)">
            <g id="Group" transform="translate(736.000000, 10267.000000)">
                <path d="M278,106 C266.39,106 257,115.39 257,127 C257,142.75 278,166 278,166 C278,166 299,142.75 299,127 C299,115.39 289.61,106 278,106 L278,106 Z M278,134.5 C273.86,134.5 270.5,131.14 270.5,127 C270.5,122.86 273.86,119.5 278,119.5 C282.14,119.5 285.5,122.86 285.5,127 C285.5,131.14 282.14,134.5 278,134.5 L278,134.5 Z" id="Shape"></path>
            </g>
        </g>
    </g>
</svg>