<?xml version="1.0" encoding="UTF-8" standalone="no"?>
<svg width="62px" height="62px" viewBox="0 0 62 62" version="1.1" xmlns="http://www.w3.org/2000/svg" xmlns:xlink="http://www.w3.org/1999/xlink">
    <!-- Generator: Sketch 50.2 (55047) - http://www.bohemiancoding.com/sketch -->
    <title>icon-random copy 13</title>
    <desc>Created with Sketch.</desc>
    <defs>
        <linearGradient x1="50%" y1="0%" x2="50%" y2="100%" id="linearGradient-1">
            <stop stop-color="#C8B525" offset="0%"></stop>
            <stop stop-color="#2FAB66" offset="100%"></stop>
        </linearGradient>
        <polygon id="path-2" points="0 0.0815566038 31.9254189 0.0815566038 31.9254189 35 0 35"></polygon>
    </defs>
    <g id="Page-1" stroke="none" stroke-width="1" fill="none" fill-rule="evenodd">
        <g id="Home-Copy-9" transform="translate(-153.000000, -7876.000000)">
            <g id="Group-14" transform="translate(150.000000, 7876.000000)">
                <g id="beton">
                    <circle id="Oval" fill="url(#linearGradient-1)" cx="34" cy="31" r="31"></circle>
                    <g id="Group" stroke-width="1" transform="translate(18.000000, 14.000000)">
                        <g id="Group-113">
                            <mask id="mask-3" fill="white">
                                <use xlink:href="#path-2"></use>
                            </mask>
                            <g id="Clip-112"></g>
                            <path d="M29.2648906,26.2703066 C28.7595321,26.2703066 28.2916075,25.7983019 27.9948528,25.0859198 C27.791683,24.5987264 27.6688151,23.9986085 27.6688151,23.3603538 C27.6688151,23.0166274 27.7042868,22.6839623 27.7690415,22.3740802 C27.9995321,21.2682783 28.5990792,20.4517217 29.2635321,20.450566 L29.2650415,20.450566 C29.8411925,20.450566 30.3682868,21.0640566 30.6490415,21.9474764 C30.7832302,22.3692925 30.8612679,22.8525236 30.8612679,23.3603538 C30.8612679,24.9317217 30.1163623,26.2703066 29.2648906,26.2703066 Z M15.4307774,33.8359198 L1.06413585,33.8359198 L1.06413585,1.2454717 L15.4306264,1.2454717 L15.4306264,19.2866509 L13.8342491,19.2866509 C12.3444377,19.2866509 11.1738717,21.0908019 11.1738717,23.3605189 C11.1738717,25.6300708 12.3444377,27.4342217 13.8342491,27.4342217 L15.4306264,27.4342217 L15.4306264,33.8359198 L15.4307774,33.8359198 Z M13.8342491,26.2703066 C13.3288906,26.2703066 12.8608151,25.7983019 12.5640604,25.0859198 C12.3610415,24.5987264 12.2380226,23.9986085 12.2380226,23.3603538 C12.2380226,23.0166274 12.2736453,22.6839623 12.3382491,22.3740802 C12.5690415,21.2674528 13.1690415,20.4504009 13.8342491,20.4504009 L15.9611925,20.4504009 C15.9616453,20.4504009 15.9620981,20.450566 15.9627019,20.450566 L27.3909283,20.450566 C26.9033811,21.1868868 26.6045132,22.2141038 26.6045132,23.3605189 C26.6045132,24.5067689 26.9033811,25.5338208 27.3909283,26.2703066 L13.8342491,26.2703066 Z M16.4947774,1.2454717 L30.8612679,1.2454717 L30.8612679,20.0853774 C30.7159094,19.920283 30.5586264,19.7781368 30.3919849,19.6607547 C30.3675321,19.6434198 30.3432302,19.6264151 30.3183245,19.6102358 C30.3029283,19.6004953 30.2872302,19.59125 30.271834,19.5816745 C30.2510038,19.5689623 30.2303245,19.55625 30.2091925,19.5443632 C30.1894189,19.5329717 30.1694943,19.5225708 30.1494189,19.5120047 C30.1337208,19.50375 30.1180226,19.4956604 30.1021736,19.4877358 C30.0781736,19.4760142 30.0541736,19.4644575 30.0297208,19.4535613 C30.0199094,19.4492689 30.0100981,19.4451415 30.0002868,19.4410142 C29.8762113,19.3876887 29.7480604,19.3477358 29.6165887,19.3219811 C29.6034566,19.3191745 29.5903245,19.3166981 29.5770415,19.3143868 C29.5536453,19.3104245 29.5302491,19.3066274 29.5065509,19.3034906 C29.485117,19.3005189 29.463683,19.2985377 29.4424,19.2962264 C29.4244377,19.2944104 29.4064755,19.2924292 29.3883623,19.2912736 C29.3473057,19.288467 29.3060981,19.2866509 29.2648906,19.2866509 L16.4947774,19.2866509 L16.4947774,1.2454717 Z M31.9254189,0.663514151 C31.9254189,0.314174528 31.7125887,0.0815566038 31.3934943,0.0815566038 L15.9627019,0.0815566038 L0.532060377,0.0815566038 C0.212815094,0.0815566038 -1.50943396e-05,0.314174528 -1.50943396e-05,0.663514151 L-1.50943396e-05,34.4180425 C-1.50943396e-05,34.767217 0.212815094,35 0.532060377,35 L15.9627019,35 C16.2819472,35 16.4947774,34.7670519 16.4946264,34.4178774 L16.4946264,27.4342217 L29.2648906,27.4342217 C30.7548528,27.4342217 31.9254189,25.6300708 31.9254189,23.3605189 L31.9254189,23.3603538 L31.9254189,0.663514151 Z" id="Fill-111" fill="#FFFFFF" mask="url(#mask-3)"></path>
                        </g>
                        <path d="M17.4999291,0 C17.2499645,0 17,0.249929078 17,0.5 C17,0.8 17.2000284,1 17.4999291,1 C17.7999716,1 18,0.8 18,0.5 C18,0.2 17.7999716,0 17.4999291,0" id="Fill-107" fill="#FFFFFF"></path>
                        <path d="M31.5000709,16 C31.2499645,16 31,16.2499291 31,16.4998582 C31,16.8 31.2000284,17 31.5000709,17 C31.7999716,17 32,16.8 32,16.4998582 C32,16.2 31.7999716,16 31.5000709,16" id="Fill-3" fill="#FFFFFF"></path>
                        <path d="M31.5000709,13 C31.2499645,13 31,13.2500709 31,13.5 C31,13.8 31.2000284,14 31.5000709,14 C31.7999716,14 32,13.8 32,13.5 C32,13.2 31.7999716,13 31.5000709,13" id="Fill-25" fill="#FFFFFF"></path>
                        <path d="M31.5000709,9 C31.2499645,9 31,9.24992908 31,9.5 C31,9.8 31.2000284,10 31.5000709,10 C31.7999716,10 32,9.8 32,9.5 C32,9.2 31.7999716,9 31.5000709,9" id="Fill-53" fill="#FFFFFF"></path>
                        <path d="M31.5000709,6 C31.2499645,6 31,6.25007092 31,6.5 C31,6.8 31.2000284,7 31.5000709,7 C31.7999716,7 32,6.8 32,6.5 C32,6.2 31.7999716,6 31.5000709,6" id="Fill-57" fill="#FFFFFF"></path>
                        <path d="M31.5000709,1 C31.2499645,1 31,1.25007092 31,1.5 C31,1.8 31.2000284,2 31.5000709,2 C31.7999716,2 32,1.8 32,1.5 C32,1.2 31.7999716,1 31.5000709,1" id="Fill-85" fill="#FFFFFF"></path>
                        <path d="M17.4999291,18 C17.2499645,18 17,18.2500709 17,18.4998582 C17,18.8 17.2000284,19 17.4999291,19 C17.7999716,19 18,18.8 18,18.4998582 C18,18.2 17.7999716,18 17.4999291,18" id="Fill-17" fill="#FFFFFF"></path>
                        <path d="M29.4999291,18 C29.2499645,18 29,18.2500709 29,18.4998582 C29,18.8 29.2000284,19 29.4999291,19 C29.7999716,19 30,18.8 30,18.4998582 C30,18.2 29.7999716,18 29.4999291,18" id="Fill-1" fill="#FFFFFF"></path>
                        <path d="M28.5000709,16 C28.2499645,16 28,16.2499291 28,16.4998582 C28,16.8 28.2000284,17 28.5000709,17 C28.8001135,17 29,16.8 29,16.4998582 C29,16.2 28.8001135,16 28.5000709,16" id="Fill-5" fill="#FFFFFF"></path>
                        <path d="M26.4999291,18 C26.2499645,18 26,18.2500709 26,18.4998582 C26,18.8 26.1998865,19 26.4999291,19 C26.7999716,19 27,18.8 27,18.4998582 C27,18.2 26.7999716,18 26.4999291,18" id="Fill-7" fill="#FFFFFF"></path>
                        <path d="M23.4999291,18 C23.2498227,18 23,18.2500709 23,18.4998582 C23,18.8 23.1998865,19 23.4999291,19 C23.7999716,19 24,18.8 24,18.4998582 C24,18.2 23.7999716,18 23.4999291,18" id="Fill-9" fill="#FFFFFF"></path>
                        <path d="M25.4999291,16 C25.2499645,16 25,16.2499291 25,16.4998582 C25,16.8 25.2000284,17 25.4999291,17 C25.7999716,17 26,16.8 26,16.4998582 C26,16.2 25.7999716,16 25.4999291,16" id="Fill-11" fill="#FFFFFF"></path>
                        <path d="M21.4999291,16 C21.2499645,16 21,16.2499291 21,16.4998582 C21,16.8 21.2000284,17 21.4999291,17 C21.7999716,17 22,16.8 22,16.4998582 C22,16.2 21.7999716,16 21.4999291,16" id="Fill-13" fill="#FFFFFF"></path>
                        <path d="M20.5000709,18 C20.2499645,18 20,18.2500709 20,18.4998582 C20,18.8 20.2000284,19 20.5000709,19 C20.7999716,19 21,18.8 21,18.4998582 C21,18.2 20.8001135,18 20.5000709,18" id="Fill-15" fill="#FFFFFF"></path>
                        <path d="M18.5,16 C18.2498581,16 18,16.2499291 18,16.4998582 C18,16.8 18.1999149,17 18.5,17 C18.8000851,17 19,16.8 19,16.4998582 C19,16.2 18.8000851,16 18.5,16" id="Fill-19" fill="#FFFFFF"></path>
                        <path d="M29.4999291,14 C29.2499645,14 29,14.2499291 29,14.4998582 C29,14.8 29.2000284,15 29.4999291,15 C29.7999716,15 30,14.8 30,14.4998582 C30,14.2 29.7999716,14 29.4999291,14" id="Fill-21" fill="#FFFFFF"></path>
                        <path d="M29.4999291,11 C29.2499645,11 29,11.2499291 29,11.5 C29,11.8 29.2000284,12 29.4999291,12 C29.7999716,12 30,11.8 30,11.5 C30,11.2 29.7999716,11 29.4999291,11" id="Fill-23" fill="#FFFFFF"></path>
                        <path d="M28.5000709,13 C28.2499645,13 28,13.2500709 28,13.5 C28,13.8 28.2000284,14 28.5000709,14 C28.8001135,14 29,13.8 29,13.5 C29,13.2 28.8001135,13 28.5000709,13" id="Fill-27" fill="#FFFFFF"></path>
                        <path d="M26.4999291,14 C26.2499645,14 26,14.2499291 26,14.4998582 C26,14.8 26.1998865,15 26.4999291,15 C26.7999716,15 27,14.8 27,14.4998582 C27,14.2 26.7999716,14 26.4999291,14" id="Fill-29" fill="#FFFFFF"></path>
                        <path d="M23.4999291,14 C23.2498227,14 23,14.2499291 23,14.4998582 C23,14.8 23.1998865,15 23.4999291,15 C23.7999716,15 24,14.8 24,14.4998582 C24,14.2 23.7999716,14 23.4999291,14" id="Fill-31" fill="#FFFFFF"></path>
                        <path d="M26.4999291,11 C26.2499645,11 26,11.2499291 26,11.5 C26,11.8 26.1998865,12 26.4999291,12 C26.7999716,12 27,11.8 27,11.5 C27,11.2 26.7999716,11 26.4999291,11" id="Fill-33" fill="#FFFFFF"></path>
                        <path d="M23.4999291,11 C23.2498227,11 23,11.2499291 23,11.5 C23,11.8 23.1998865,12 23.4999291,12 C23.7999716,12 24,11.8 24,11.5 C24,11.2 23.7999716,11 23.4999291,11" id="Fill-35" fill="#FFFFFF"></path>
                        <path d="M25.4999291,13 C25.2499645,13 25,13.2500709 25,13.5 C25,13.8 25.2000284,14 25.4999291,14 C25.7999716,14 26,13.8 26,13.5 C26,13.2 25.7999716,13 25.4999291,13" id="Fill-37" fill="#FFFFFF"></path>
                        <path d="M21.4999291,13 C21.2499645,13 21,13.2500709 21,13.5 C21,13.8 21.2000284,14 21.4999291,14 C21.7999716,14 22,13.8 22,13.5 C22,13.2 21.7999716,13 21.4999291,13" id="Fill-39" fill="#FFFFFF"></path>
                        <path d="M20.5000709,14 C20.2499645,14 20,14.2499291 20,14.4998582 C20,14.8 20.2000284,15 20.5000709,15 C20.7999716,15 20.9999999,14.8 20.9999999,14.4998582 C21.0001418,14.2 20.8001134,14 20.5000709,14" id="Fill-41" fill="#FFFFFF"></path>
                        <path d="M17.4999291,14 C17.2499645,14 17,14.2499291 17,14.4998582 C17,14.8 17.2000284,15 17.4999291,15 C17.7999716,15 18,14.8 18,14.4998582 C18,14.2 17.7999716,14 17.4999291,14" id="Fill-43" fill="#FFFFFF"></path>
                        <path d="M20.5000709,11 C20.2499645,11 20,11.2499291 20,11.5 C20,11.8 20.2000284,12 20.5000709,12 C20.7999716,12 21,11.8 21,11.5 C21,11.2 20.8001135,11 20.5000709,11" id="Fill-45" fill="#FFFFFF"></path>
                        <path d="M17.4999291,11 C17.2499645,11 17,11.2499291 17,11.5 C17,11.8 17.2000284,12 17.4999291,12 C17.7999716,12 18,11.8 18,11.5 C18,11.2 17.7999716,11 17.4999291,11" id="Fill-47" fill="#FFFFFF"></path>
                        <path d="M18.5,13 C18.2498581,13 18,13.2500709 18,13.5 C18,13.8 18.1999149,14 18.5,14 C18.8000851,14 19,13.8 19,13.5 C19,13.2 18.8000851,13 18.5,13" id="Fill-49" fill="#FFFFFF"></path>
                        <path d="M29.4999291,8 C29.2499645,8 29,8.25007092 29,8.5 C29,8.8 29.2000284,9 29.4999291,9 C29.7999716,9 30,8.8 30,8.5 C30,8.2 29.7999716,8 29.4999291,8" id="Fill-51" fill="#FFFFFF"></path>
                        <path d="M28.5000709,9 C28.2499645,9 28,9.24992908 28,9.5 C28,9.8 28.2000284,10 28.5000709,10 C28.8001135,10 29,9.8 29,9.5 C29,9.2 28.8001135,9 28.5000709,9" id="Fill-55" fill="#FFFFFF"></path>
                        <path d="M28.5000709,6 C28.2499645,6 28,6.25007092 28,6.5 C28,6.8 28.2000284,7 28.5000709,7 C28.8001135,7 29,6.8 29,6.5 C29,6.2 28.8001135,6 28.5000709,6" id="Fill-59" fill="#FFFFFF"></path>
                        <path d="M26.4999291,8 C26.2499645,8 26,8.25007092 26,8.5 C26,8.8 26.1998865,9 26.4999291,9 C26.7999716,9 27,8.8 27,8.5 C27,8.2 26.7999716,8 26.4999291,8" id="Fill-61" fill="#FFFFFF"></path>
                        <path d="M23.4999291,8 C23.2498227,8 23,8.25007092 23,8.5 C23,8.8 23.1998865,9 23.4999291,9 C23.7999716,9 24,8.8 24,8.5 C24,8.2 23.7999716,8 23.4999291,8" id="Fill-63" fill="#FFFFFF"></path>
                        <path d="M25.4999291,9 C25.2499645,9 25,9.24992908 25,9.5 C25,9.8 25.2000284,10 25.4999291,10 C25.7999716,10 26,9.8 26,9.5 C26,9.2 25.7999716,9 25.4999291,9" id="Fill-65" fill="#FFFFFF"></path>
                        <path d="M21.4999291,9 C21.2499645,9 21,9.24992908 21,9.5 C21,9.8 21.2000284,10 21.4999291,10 C21.7999716,10 22,9.8 22,9.5 C22,9.2 21.7999716,9 21.4999291,9" id="Fill-67" fill="#FFFFFF"></path>
                        <path d="M25.4999291,6 C25.2499645,6 25,6.25007092 25,6.5 C25,6.8 25.2000284,7 25.4999291,7 C25.7999716,7 26,6.8 26,6.5 C26,6.2 25.7999716,6 25.4999291,6" id="Fill-69" fill="#FFFFFF"></path>
                        <path d="M21.4999291,6 C21.2499645,6 21,6.25007092 21,6.5 C21,6.8 21.2000284,7 21.4999291,7 C21.7999716,7 22,6.8 22,6.5 C22,6.2 21.7999716,6 21.4999291,6" id="Fill-71" fill="#FFFFFF"></path>
                        <path d="M20.5000709,8 C20.2499645,8 20,8.25007092 20,8.5 C20,8.8 20.2000284,9 20.5000709,9 C20.7999716,9 21,8.8 21,8.5 C21,8.2 20.8001135,8 20.5000709,8" id="Fill-73" fill="#FFFFFF"></path>
                        <path d="M17.4999291,8 C17.2499645,8 17,8.25007092 17,8.5 C17,8.8 17.2000284,9 17.4999291,9 C17.7999716,9 18,8.8 18,8.5 C18,8.2 17.7999716,8 17.4999291,8" id="Fill-75" fill="#FFFFFF"></path>
                        <path d="M18.5,9 C18.2498581,9 18,9.24992908 18,9.5 C18,9.8 18.1999149,10 18.5,10 C18.8000851,10 19,9.8 19,9.5 C19,9.2 18.8000851,9 18.5,9" id="Fill-77" fill="#FFFFFF"></path>
                        <path d="M18.5,6 C18.2498581,6 18,6.25007092 18,6.5 C18,6.8 18.1999149,7 18.5,7 C18.8000851,7 19,6.8 19,6.5 C19,6.2 18.8000851,6 18.5,6" id="Fill-79" fill="#FFFFFF"></path>
                        <path d="M29.4999291,3 C29.2499645,3 29,3.25007092 29,3.5 C29,3.8 29.2000284,4 29.4999291,4 C29.7999716,4 30,3.8 30,3.5 C30,3.2 29.7999716,3 29.4999291,3" id="Fill-81" fill="#FFFFFF"></path>
                        <path d="M29.4999291,0 C29.2499645,0 29,0.249929078 29,0.5 C29,0.8 29.2000284,1 29.4999291,1 C29.7999716,1 30,0.8 30,0.5 C30,0.2 29.7999716,0 29.4999291,0" id="Fill-83" fill="#FFFFFF"></path>
                        <path d="M28.5000709,1 C28.2499645,1 28,1.25007092 28,1.5 C28,1.8 28.2000284,2 28.5000709,2 C28.8001135,2 29,1.8 29,1.5 C29,1.2 28.8001135,1 28.5000709,1" id="Fill-87" fill="#FFFFFF"></path>
                        <path d="M26.4999291,3 C26.2499645,3 26,3.25007092 26,3.5 C26,3.8 26.1998865,4 26.4999291,4 C26.7999716,4 27,3.8 27,3.5 C27,3.2 26.7999716,3 26.4999291,3" id="Fill-89" fill="#FFFFFF"></path>
                        <path d="M23.4999291,3 C23.2498227,3 23,3.25007092 23,3.5 C23,3.8 23.1998865,4 23.4999291,4 C23.7999716,4 24,3.8 24,3.5 C24,3.2 23.7999716,3 23.4999291,3" id="Fill-91" fill="#FFFFFF"></path>
                        <path d="M26.4999291,0 C26.2499645,0 26,0.249929078 26,0.5 C26,0.8 26.1998865,1 26.4999291,1 C26.7999716,1 27,0.8 27,0.5 C27,0.2 26.7999716,0 26.4999291,0" id="Fill-93" fill="#FFFFFF"></path>
                        <path d="M23.4999291,0 C23.2498227,0 23,0.249929078 23,0.5 C23,0.8 23.1998865,1 23.4999291,1 C23.7999716,1 24,0.8 24,0.5 C24,0.2 23.7999716,0 23.4999291,0" id="Fill-95" fill="#FFFFFF"></path>
                        <path d="M25.4999291,1 C25.2499645,1 25,1.25007092 25,1.5 C25,1.8 25.2000284,2 25.4999291,2 C25.7999716,2 26,1.8 26,1.5 C26,1.2 25.7999716,1 25.4999291,1" id="Fill-97" fill="#FFFFFF"></path>
                        <path d="M21.4999291,1 C21.2499645,1 21,1.25007092 21,1.5 C21,1.8 21.2000284,2 21.4999291,2 C21.7999716,2 22,1.8 22,1.5 C22,1.2 21.7999716,1 21.4999291,1" id="Fill-99" fill="#FFFFFF"></path>
                        <path d="M20.5000709,3 C20.2499645,3 20,3.25007092 20,3.5 C20,3.8 20.2000284,4 20.5000709,4 C20.7999716,4 21,3.8 21,3.5 C21,3.2 20.8001135,3 20.5000709,3" id="Fill-101" fill="#FFFFFF"></path>
                        <path d="M17.4999291,3 C17.2499645,3 17,3.25007092 17,3.5 C17,3.8 17.2000284,4 17.4999291,4 C17.7999716,4 18,3.8 18,3.5 C18,3.2 17.7999716,3 17.4999291,3" id="Fill-103" fill="#FFFFFF"></path>
                        <path d="M20.5000709,0 C20.2499645,0 20,0.249929078 20,0.5 C20,0.8 20.2000284,1 20.5000709,1 C20.7999716,1 20.9999999,0.8 20.9999999,0.5 C21.0001418,0.2 20.8001134,0 20.5000709,0" id="Fill-105" fill="#FFFFFF"></path>
                        <path d="M18.5,1 C18.2498581,1 18,1.25007092 18,1.5 C18,1.8 18.1999149,2 18.5,2 C18.8000851,2 19,1.8 19,1.5 C19,1.2 18.8000851,1 18.5,1" id="Fill-109" fill="#FFFFFF"></path>
                    </g>
                </g>
            </g>
        </g>
    </g>
</svg>