<?xml version="1.0" encoding="UTF-8" standalone="no"?>
<svg width="62px" height="62px" viewBox="0 0 62 62" version="1.1" xmlns="http://www.w3.org/2000/svg" xmlns:xlink="http://www.w3.org/1999/xlink">
    <!-- Generator: Sketch 50.2 (55047) - http://www.bohemiancoding.com/sketch -->
    <title>icon-random copy 3</title>
    <desc>Created with Sketch.</desc>
    <defs>
        <linearGradient x1="50%" y1="0%" x2="50%" y2="100%" id="linearGradient-1">
            <stop stop-color="#C8B525" offset="0%"></stop>
            <stop stop-color="#2FAB66" offset="100%"></stop>
        </linearGradient>
    </defs>
    <g id="Page-1" stroke="none" stroke-width="1" fill="none" fill-rule="evenodd">
        <g id="Home-Copy-9" transform="translate(-723.000000, -7876.000000)">
            <g id="Group-9" transform="translate(720.000000, 7876.000000)">
                <g id="calasciana">
                    <circle id="Oval" fill="url(#linearGradient-1)" cx="34" cy="31" r="31"></circle>
                    <g id="Group" stroke-width="1" transform="translate(17.000000, 13.000000)" fill="#FFFFFF">
                        <path d="M17.6993611,8.26275081 L32.6451071,8.26275081 L32.6451071,1.35394014 L17.6993611,1.35394014 L17.6993611,8.26275081 Z M25.7591638,16.3225535 L32.6451071,16.3225535 L32.6451071,9.61764376 L25.7591638,9.61764376 L25.7591638,16.3225535 Z M32.6451071,32.6460599 L25.7591638,32.6460599 L25.7591638,25.7820312 L27.9715839,25.7820312 C28.3460374,25.7820312 28.6490304,25.4790382 28.6490304,25.1055375 C28.6490304,24.731084 28.3460374,24.428091 27.9715839,24.428091 L17.6993611,24.428091 L17.6993611,17.6774465 L32.6451071,17.6774465 L32.6451071,32.6460599 Z M9.59477637,32.6460599 L24.4042708,32.6460599 L24.4042708,25.7820312 L9.59477637,25.7820312 L9.59477637,32.6460599 Z M1.35394014,32.6460599 L8.23988342,32.6460599 L8.23988342,25.7820312 L1.35394014,25.7820312 L1.35394014,32.6460599 Z M1.35489295,24.4271382 L16.3444681,24.4271382 L16.3444681,17.6774465 L1.35489295,17.6774465 L1.35489295,24.4271382 Z M1.35489295,16.3225535 L8.24083623,16.3225535 L8.24083623,9.61764376 L1.35489295,9.61764376 L1.35489295,16.3225535 Z M9.59477637,16.3225535 L24.4042708,16.3225535 L24.4042708,9.61764376 L9.59477637,9.61764376 L9.59477637,16.3225535 Z M1.35489295,8.26275081 L16.3444681,8.26275081 L16.3444681,1.35394014 L1.35489295,1.35394014 L1.35489295,8.26275081 Z M33.3225535,0 L0.677446475,0 C0.302992938,0 0,0.302992938 0,0.676493667 L0,33.3235063 C0,33.6979599 0.302992938,34 0.677446475,34 L33.3225535,34 C33.6960543,34 34,33.6979599 34,33.3235063 L34,0.676493667 C34,0.302992938 33.6960543,0 33.3225535,0 Z" id="Fill-1"></path>
                        <path d="M30.2320173,24 L29.7690644,24 C29.346133,24 29,24.2236287 29,24.5 C29,24.7763713 29.346133,25 29.7690644,25 L30.2320173,25 C30.657112,25 31,24.7763713 31,24.5 C31,24.2236287 30.657112,24 30.2320173,24" id="Fill-3"></path>
                    </g>
                </g>
            </g>
        </g>
    </g>
</svg>