<?xml version="1.0" encoding="UTF-8" standalone="no"?>
<svg width="62px" height="62px" viewBox="0 0 62 62" version="1.1" xmlns="http://www.w3.org/2000/svg" xmlns:xlink="http://www.w3.org/1999/xlink">
    <!-- Generator: Sketch 50.2 (55047) - http://www.bohemiancoding.com/sketch -->
    <title>icon-random copy 5</title>
    <desc>Created with Sketch.</desc>
    <defs>
        <linearGradient x1="50%" y1="0%" x2="50%" y2="100%" id="linearGradient-1">
            <stop stop-color="#C8B525" offset="0%"></stop>
            <stop stop-color="#2FAB66" offset="100%"></stop>
        </linearGradient>
        <polygon id="path-2" points="0 0.316 35.6836 0.316 35.6836 35.9995 0 35.9995"></polygon>
        <polygon id="path-4" points="0 36 35.684 36 35.684 0.316 0 0.316"></polygon>
    </defs>
    <g id="Page-1" stroke="none" stroke-width="1" fill="none" fill-rule="evenodd">
        <g id="Home-Copy-9" transform="translate(-153.000000, -8172.000000)">
            <g id="plan" transform="translate(150.000000, 8172.000000)">
                <circle id="Oval" fill="url(#linearGradient-1)" cx="34" cy="31" r="31"></circle>
                <g id="Group" stroke-width="1" transform="translate(16.000000, 11.000000)">
                    <g id="Group-3">
                        <mask id="mask-3" fill="white">
                            <use xlink:href="#path-2"></use>
                        </mask>
                        <g id="Clip-2"></g>
                        <path d="M34.4746,34.7905 L4.1976,34.7905 C2.5496,34.7905 1.2086,33.4505 1.2086,31.7665 C1.2086,30.0995 2.5666,28.7425 4.2336,28.7425 C5.9006,28.7425 7.2576,30.0995 7.2576,31.7665 L8.4666,31.7665 L8.4666,5.7595 L34.4746,5.7595 L34.4746,34.7905 Z M1.2086,4.5495 C1.2086,3.0855 2.2556,1.8615 3.6406,1.5855 C3.6716,1.8905 3.9196,2.1305 4.2336,2.1305 C4.5456,2.1305 4.7946,1.8905 4.8266,1.5855 C6.2106,1.8615 7.2576,3.0855 7.2576,4.5495 L7.2576,28.8065 C6.4886,28.0205 5.4166,27.5325 4.2336,27.5325 C4.0856,27.5325 3.9416,27.5405 3.7986,27.5555 C3.7346,27.5625 3.6716,27.5745 3.6076,27.5845 C3.5306,27.5955 3.4526,27.6045 3.3756,27.6205 C3.2926,27.6375 3.2126,27.6625 3.1306,27.6835 C3.0786,27.6985 3.0236,27.7085 2.9706,27.7255 C2.8706,27.7565 2.7716,27.7945 2.6736,27.8345 C2.6446,27.8465 2.6136,27.8565 2.5826,27.8685 C2.4626,27.9185 2.3456,27.9775 2.2316,28.0395 C2.2266,28.0415 2.2206,28.0435 2.2156,28.0465 C1.8436,28.2485 1.5036,28.5055 1.2086,28.8065 L1.2086,4.5495 Z M8.4666,4.5495 C8.4666,2.2155 6.5676,0.3155 4.2336,0.3155 C1.8996,0.3155 -0.0004,2.2155 -0.0004,4.5495 L-0.0004,31.7665 L0.0016,31.7665 C0.0016,31.7785 -0.0004,31.7905 -0.0004,31.8025 C-0.0004,34.1175 1.8826,35.9995 4.1976,35.9995 L35.6836,35.9995 L35.6836,4.5495 L8.4666,4.5495 Z" id="Fill-1" fill="#FFFFFF" mask="url(#mask-3)"></path>
                    </g>
                    <path d="M27.832,13.0176 C27.937,13.0926 28.06,13.1286 28.18,13.1286 C28.37,13.1286 28.557,13.0396 28.675,12.8726 C28.867,12.5996 28.803,12.2226 28.529,12.0286 L27.541,11.3316 C27.268,11.1396 26.891,11.2046 26.697,11.4766 C26.505,11.7496 26.57,12.1266 26.843,12.3206 L27.832,13.0176 Z" id="Fill-4" fill="#FFFFFF"></path>
                    <path d="M30.7969,15.1104 C30.9029,15.1854 31.0249,15.2214 31.1449,15.2214 C31.3349,15.2214 31.5219,15.1314 31.6399,14.9644 C31.8319,14.6924 31.7669,14.3144 31.4939,14.1214 L30.5049,13.4244 C30.2329,13.2324 29.8559,13.2974 29.6619,13.5704 C29.4699,13.8424 29.5349,14.2194 29.8079,14.4134 L30.7969,15.1104 Z" id="Fill-6" fill="#FFFFFF"></path>
                    <path d="M22.3779,25.1138 C22.3779,25.4478 22.6489,25.7188 22.9819,25.7188 L24.1919,25.7188 C24.5269,25.7188 24.7979,25.4478 24.7979,25.1138 C24.7979,24.7788 24.5269,24.5088 24.1919,24.5088 L22.9819,24.5088 C22.6489,24.5088 22.3779,24.7788 22.3779,25.1138" id="Fill-8" fill="#FFFFFF"></path>
                    <path d="M30.8457,16.8774 L30.8457,18.0874 C30.8457,18.4214 31.1157,18.6924 31.4507,18.6924 C31.7847,18.6924 32.0547,18.4214 32.0547,18.0874 L32.0547,16.8774 C32.0547,16.5434 31.7847,16.2734 31.4507,16.2734 C31.1157,16.2734 30.8457,16.5434 30.8457,16.8774" id="Fill-10" fill="#FFFFFF"></path>
                    <path d="M24.8672,10.9248 C24.9732,10.9998 25.0952,11.0358 25.2152,11.0358 C25.4052,11.0358 25.5922,10.9468 25.7102,10.7798 C25.9022,10.5068 25.8382,10.1298 25.5642,9.9368 L24.5762,9.2388 C24.3032,9.0468 23.9272,9.1118 23.7322,9.3838 C23.5412,9.6568 23.6052,10.0338 23.8782,10.2278 L24.8672,10.9248 Z" id="Fill-12" fill="#FFFFFF"></path>
                    <path d="M26.0068,25.1138 C26.0068,25.4478 26.2778,25.7188 26.6108,25.7188 L27.8208,25.7188 C28.1558,25.7188 28.4258,25.4478 28.4258,25.1138 C28.4258,24.7788 28.1558,24.5088 27.8208,24.5088 L26.6108,24.5088 C26.2778,24.5088 26.0068,24.7788 26.0068,25.1138" id="Fill-14" fill="#FFFFFF"></path>
                    <path d="M17.5391,25.1138 C17.5391,24.7788 17.2691,24.5088 16.9351,24.5088 L15.7251,24.5088 C15.3911,24.5088 15.1201,24.7788 15.1201,25.1138 C15.1201,25.4478 15.3911,25.7188 15.7251,25.7188 L16.9351,25.7188 C17.2691,25.7188 17.5391,25.4478 17.5391,25.1138" id="Fill-16" fill="#FFFFFF"></path>
                    <path d="M31.4512,22.3213 C31.7852,22.3213 32.0552,22.0503 32.0552,21.7163 L32.0552,20.5073 C32.0552,20.1723 31.7852,19.9023 31.4512,19.9023 C31.1152,19.9023 30.8462,20.1723 30.8462,20.5073 L30.8462,21.7163 C30.8462,22.0503 31.1152,22.3213 31.4512,22.3213" id="Fill-18" fill="#FFFFFF"></path>
                    <path d="M21.9023,8.832 C22.0073,8.907 22.1303,8.943 22.2503,8.943 C22.4403,8.943 22.6273,8.854 22.7453,8.687 C22.9373,8.415 22.8733,8.037 22.5993,7.844 L21.6113,7.146 C21.3383,6.955 20.9613,7.02 20.7683,7.291 C20.5763,7.564 20.6403,7.941 20.9133,8.135 L21.9023,8.832 Z" id="Fill-20" fill="#FFFFFF"></path>
                    <path d="M30.8457,24.5088 L30.2407,24.5088 C29.9067,24.5088 29.6357,24.7788 29.6357,25.1138 C29.6357,25.4478 29.9067,25.7188 30.2407,25.7188 L32.0547,25.7188 L32.0547,24.1358 C32.0547,23.8008 31.7847,23.5308 31.4507,23.5308 C31.1157,23.5308 30.8457,23.8008 30.8457,24.1358 L30.8457,24.5088 Z" id="Fill-22" fill="#FFFFFF"></path>
                    <path d="M12.0957,25.7188 L13.3057,25.7188 C13.6397,25.7188 13.9097,25.4478 13.9097,25.1138 C13.9097,24.7788 13.6397,24.5088 13.3057,24.5088 L12.0957,24.5088 C11.7617,24.5088 11.4917,24.7788 11.4917,25.1138 C11.4917,25.4478 11.7617,25.7188 12.0957,25.7188" id="Fill-24" fill="#FFFFFF"></path>
                    <path d="M10.8867,17.251 C11.2207,17.251 11.4907,16.98 11.4907,16.646 L11.4907,15.437 C11.4907,15.102 11.2207,14.832 10.8867,14.832 C10.5517,14.832 10.2817,15.102 10.2817,15.437 L10.2817,16.646 C10.2817,16.98 10.5517,17.251 10.8867,17.251" id="Fill-26" fill="#FFFFFF"></path>
                    <path d="M12.3691,14.3901 C12.4901,14.3901 12.6111,14.3531 12.7181,14.2791 L13.7061,13.5821 C13.9781,13.3891 14.0441,13.0121 13.8511,12.7381 C13.6591,12.4661 13.2821,12.4011 13.0081,12.5931 L12.0191,13.2901 C11.7461,13.4831 11.6821,13.8611 11.8741,14.1341 C11.9921,14.3011 12.1801,14.3901 12.3691,14.3901" id="Fill-28" fill="#FFFFFF"></path>
                    <path d="M15.334,12.2974 C15.455,12.2974 15.576,12.2614 15.683,12.1864 L16.671,11.4894 C16.943,11.2964 17.009,10.9194 16.816,10.6454 C16.623,10.3744 16.247,10.3084 15.973,10.5004 L14.984,11.1974 C14.711,11.3904 14.647,11.7684 14.839,12.0414 C14.957,12.2084 15.144,12.2974 15.334,12.2974" id="Fill-30" fill="#FFFFFF"></path>
                    <path d="M10.8867,20.8799 C11.2207,20.8799 11.4907,20.6089 11.4907,20.2749 L11.4907,19.0659 C11.4907,18.7319 11.2207,18.4609 10.8867,18.4609 C10.5517,18.4609 10.2817,18.7319 10.2817,19.0659 L10.2817,20.2749 C10.2817,20.6089 10.5517,20.8799 10.8867,20.8799" id="Fill-32" fill="#FFFFFF"></path>
                    <path d="M18.2988,10.2046 C18.4198,10.2046 18.5408,10.1686 18.6478,10.0946 L19.6358,9.3966 C19.9078,9.2046 19.9748,8.8266 19.7808,8.5526 C19.5878,8.2816 19.2128,8.2146 18.9378,8.4076 L17.9488,9.1046 C17.6758,9.2976 17.6118,9.6756 17.8038,9.9486 C17.9218,10.1156 18.1088,10.2046 18.2988,10.2046" id="Fill-34" fill="#FFFFFF"></path>
                    <path d="M18.749,25.1138 C18.749,25.4478 19.02,25.7188 19.353,25.7188 L20.563,25.7188 C20.897,25.7188 21.168,25.4478 21.168,25.1138 C21.168,24.7788 20.897,24.5088 20.563,24.5088 L19.353,24.5088 C19.02,24.5088 18.749,24.7788 18.749,25.1138" id="Fill-36" fill="#FFFFFF"></path>
                    <path d="M10.8867,24.5088 C11.2207,24.5088 11.4907,24.2378 11.4907,23.9048 L11.4907,22.6948 C11.4907,22.3598 11.2207,22.0898 10.8867,22.0898 C10.5517,22.0898 10.2817,22.3598 10.2817,22.6948 L10.2817,23.9048 C10.2817,24.2378 10.5517,24.5088 10.8867,24.5088" id="Fill-38" fill="#FFFFFF"></path>
                    <mask id="mask-5" fill="white">
                        <use xlink:href="#path-4"></use>
                    </mask>
                    <g id="Clip-41"></g>
                    <path d="M26.007,31.767 L31.451,31.767 L31.451,29.348 L26.007,29.348 L26.007,31.767 Z M24.798,32.977 L32.66,32.977 L32.66,28.138 L24.798,28.138 L24.798,32.977 Z" id="Fill-40" fill="#FFFFFF" mask="url(#mask-5)"></path>
                    <path d="M13.3057,18.4604 L13.3057,19.6694 C13.3057,20.0044 13.5767,20.2744 13.9097,20.2744 C14.2447,20.2744 14.5157,20.0044 14.5157,19.6694 L14.5157,18.4604 C14.5157,18.1264 14.2447,17.8554 13.9097,17.8554 C13.5767,17.8554 13.3057,18.1264 13.3057,18.4604" id="Fill-42" fill="#FFFFFF" mask="url(#mask-5)"></path>
                    <path d="M18.749,16.646 C18.414,16.646 18.145,16.917 18.145,17.251 L18.145,18.46 C18.145,18.795 18.414,19.065 18.749,19.065 C19.084,19.065 19.353,18.795 19.353,18.46 L19.353,17.251 C19.353,16.917 19.084,16.646 18.749,16.646" id="Fill-43" fill="#FFFFFF" mask="url(#mask-5)"></path>
                    <path d="M15.1201,17.8555 L16.3301,17.8555 C16.6641,17.8555 16.9341,17.5845 16.9341,17.2515 C16.9341,16.9165 16.6641,16.6465 16.3301,16.6465 L15.1201,16.6465 C14.7851,16.6465 14.5161,16.9165 14.5161,17.2515 C14.5161,17.5845 14.7851,17.8555 15.1201,17.8555" id="Fill-44" fill="#FFFFFF" mask="url(#mask-5)"></path>
                    <path d="M15.7246,22.0894 C15.7246,21.7554 15.4546,21.4844 15.1206,21.4844 L13.9106,21.4844 C13.5766,21.4844 13.3056,21.7554 13.3056,22.0894 C13.3056,22.4234 13.5766,22.6944 13.9106,22.6944 L15.1206,22.6944 C15.4546,22.6944 15.7246,22.4234 15.7246,22.0894" id="Fill-45" fill="#FFFFFF" mask="url(#mask-5)"></path>
                    <path d="M17.5391,22.6943 L18.7491,22.6943 C19.0841,22.6943 19.3531,22.4233 19.3531,22.0893 L19.3531,20.8803 C19.3531,20.5453 19.0841,20.2753 18.7491,20.2753 C18.4141,20.2753 18.1441,20.5453 18.1441,20.8803 L18.1441,21.4843 L17.5391,21.4843 C17.2051,21.4843 16.9351,21.7553 16.9351,22.0893 C16.9351,22.4233 17.2051,22.6943 17.5391,22.6943" id="Fill-46" fill="#FFFFFF" mask="url(#mask-5)"></path>
                    <path d="M24.1924,17.251 C24.1924,17.585 24.4634,17.855 24.7974,17.855 L26.0064,17.855 C26.3414,17.855 26.6114,17.585 26.6114,17.251 C26.6114,16.917 26.3414,16.646 26.0064,16.646 L24.7974,16.646 C24.4634,16.646 24.1924,16.917 24.1924,17.251" id="Fill-47" fill="#FFFFFF" mask="url(#mask-5)"></path>
                    <path d="M27.8213,17.251 L27.8213,18.46 C27.8213,18.795 28.0923,19.065 28.4253,19.065 C28.7603,19.065 29.0313,18.795 29.0313,18.46 L29.0313,17.251 C29.0313,16.917 28.7603,16.646 28.4253,16.646 C28.0923,16.646 27.8213,16.917 27.8213,17.251" id="Fill-48" fill="#FFFFFF" mask="url(#mask-5)"></path>
                    <path d="M28.4258,22.6943 C28.7608,22.6943 29.0308,22.4233 29.0308,22.0893 L29.0308,20.8803 C29.0308,20.5453 28.7608,20.2753 28.4258,20.2753 C28.0918,20.2753 27.8218,20.5453 27.8218,20.8803 L27.8218,21.4843 L27.2168,21.4843 C26.8818,21.4843 26.6118,21.7553 26.6118,22.0893 C26.6118,22.4233 26.8818,22.6943 27.2168,22.6943 L28.4258,22.6943 Z" id="Fill-49" fill="#FFFFFF" mask="url(#mask-5)"></path>
                    <path d="M23.5879,20.2749 C23.9219,20.2749 24.1919,20.0049 24.1919,19.6699 L24.1919,18.4609 C24.1919,18.1259 23.9219,17.8559 23.5879,17.8559 C23.2529,17.8559 22.9829,18.1259 22.9829,18.4609 L22.9829,19.6699 C22.9829,20.0049 23.2529,20.2749 23.5879,20.2749" id="Fill-50" fill="#FFFFFF" mask="url(#mask-5)"></path>
                    <path d="M23.5879,22.6943 L24.7979,22.6943 C25.1319,22.6943 25.4019,22.4233 25.4019,22.0893 C25.4019,21.7553 25.1319,21.4843 24.7979,21.4843 L23.5879,21.4843 C23.2529,21.4843 22.9829,21.7553 22.9829,22.0893 C22.9829,22.4233 23.2529,22.6943 23.5879,22.6943" id="Fill-51" fill="#FFFFFF" mask="url(#mask-5)"></path>
                    <path d="M22.9824,28.1377 L19.9594,28.1377 C19.6244,28.1377 19.3534,28.4087 19.3534,28.7417 C19.3534,29.0767 19.6244,29.3477 19.9594,29.3477 L22.9824,29.3477 C23.3174,29.3477 23.5874,29.0767 23.5874,28.7417 C23.5874,28.4087 23.3174,28.1377 22.9824,28.1377" id="Fill-52" fill="#FFFFFF" mask="url(#mask-5)"></path>
                    <path d="M22.9824,29.9521 L18.7494,29.9521 C18.4144,29.9521 18.1444,30.2231 18.1444,30.5571 C18.1444,30.8911 18.4144,31.1621 18.7494,31.1621 L22.9824,31.1621 C23.3174,31.1621 23.5874,30.8911 23.5874,30.5571 C23.5874,30.2231 23.3174,29.9521 22.9824,29.9521" id="Fill-53" fill="#FFFFFF" mask="url(#mask-5)"></path>
                    <path d="M22.9824,31.7666 L16.9344,31.7666 C16.5994,31.7666 16.3304,32.0366 16.3304,32.3716 C16.3304,32.7056 16.5994,32.9766 16.9344,32.9766 L22.9824,32.9766 C23.3174,32.9766 23.5874,32.7056 23.5874,32.3716 C23.5874,32.0366 23.3174,31.7666 22.9824,31.7666" id="Fill-54" fill="#FFFFFF" mask="url(#mask-5)"></path>
                    <path d="M2.4189,2.7354 C2.7529,2.7354 3.0229,3.0064 3.0229,3.3394 C3.0229,3.6734 2.7529,3.9444 2.4189,3.9444 C2.0849,3.9444 1.8149,3.6734 1.8149,3.3394 C1.8149,3.0064 2.0849,2.7354 2.4189,2.7354" id="Fill-55" fill="#FFFFFF" mask="url(#mask-5)"></path>
                    <path d="M6.0479,2.7354 C6.3819,2.7354 6.6519,3.0064 6.6519,3.3394 C6.6519,3.6734 6.3819,3.9444 6.0479,3.9444 C5.7139,3.9444 5.4439,3.6734 5.4439,3.3394 C5.4439,3.0064 5.7139,2.7354 6.0479,2.7354" id="Fill-56" fill="#FFFFFF" mask="url(#mask-5)"></path>
                    <path d="M4.2334,4.5498 C4.5674,4.5498 4.8374,4.8208 4.8374,5.1538 C4.8374,5.4888 4.5674,5.7588 4.2334,5.7588 C3.8994,5.7588 3.6294,5.4888 3.6294,5.1538 C3.6294,4.8208 3.8994,4.5498 4.2334,4.5498" id="Fill-57" fill="#FFFFFF" mask="url(#mask-5)"></path>
                    <path d="M2.4189,6.3643 C2.7529,6.3643 3.0229,6.6353 3.0229,6.9683 C3.0229,7.3023 2.7529,7.5733 2.4189,7.5733 C2.0849,7.5733 1.8149,7.3023 1.8149,6.9683 C1.8149,6.6353 2.0849,6.3643 2.4189,6.3643" id="Fill-58" fill="#FFFFFF" mask="url(#mask-5)"></path>
                    <path d="M6.0479,6.3643 C6.3819,6.3643 6.6519,6.6353 6.6519,6.9683 C6.6519,7.3023 6.3819,7.5733 6.0479,7.5733 C5.7139,7.5733 5.4439,7.3023 5.4439,6.9683 C5.4439,6.6353 5.7139,6.3643 6.0479,6.3643" id="Fill-59" fill="#FFFFFF" mask="url(#mask-5)"></path>
                    <path d="M2.4189,9.9932 C2.7529,9.9932 3.0229,10.2642 3.0229,10.5972 C3.0229,10.9312 2.7529,11.2022 2.4189,11.2022 C2.0849,11.2022 1.8149,10.9312 1.8149,10.5972 C1.8149,10.2642 2.0849,9.9932 2.4189,9.9932" id="Fill-60" fill="#FFFFFF" mask="url(#mask-5)"></path>
                    <path d="M6.0479,9.9932 C6.3819,9.9932 6.6519,10.2642 6.6519,10.5972 C6.6519,10.9312 6.3819,11.2022 6.0479,11.2022 C5.7139,11.2022 5.4439,10.9312 5.4439,10.5972 C5.4439,10.2642 5.7139,9.9932 6.0479,9.9932" id="Fill-61" fill="#FFFFFF" mask="url(#mask-5)"></path>
                    <path d="M4.2334,8.1787 C4.5674,8.1787 4.8374,8.4497 4.8374,8.7827 C4.8374,9.1167 4.5674,9.3877 4.2334,9.3877 C3.8994,9.3877 3.6294,9.1167 3.6294,8.7827 C3.6294,8.4497 3.8994,8.1787 4.2334,8.1787" id="Fill-62" fill="#FFFFFF" mask="url(#mask-5)"></path>
                    <path d="M4.2334,11.8076 C4.5674,11.8076 4.8374,12.0786 4.8374,12.4116 C4.8374,12.7466 4.5674,13.0166 4.2334,13.0166 C3.8994,13.0166 3.6294,12.7466 3.6294,12.4116 C3.6294,12.0786 3.8994,11.8076 4.2334,11.8076" id="Fill-63" fill="#FFFFFF" mask="url(#mask-5)"></path>
                    <path d="M2.4189,13.6221 C2.7529,13.6221 3.0229,13.8931 3.0229,14.2261 C3.0229,14.5601 2.7529,14.8311 2.4189,14.8311 C2.0849,14.8311 1.8149,14.5601 1.8149,14.2261 C1.8149,13.8931 2.0849,13.6221 2.4189,13.6221" id="Fill-64" fill="#FFFFFF" mask="url(#mask-5)"></path>
                    <path d="M6.0479,13.6221 C6.3819,13.6221 6.6519,13.8931 6.6519,14.2261 C6.6519,14.5601 6.3819,14.8311 6.0479,14.8311 C5.7139,14.8311 5.4439,14.5601 5.4439,14.2261 C5.4439,13.8931 5.7139,13.6221 6.0479,13.6221" id="Fill-65" fill="#FFFFFF" mask="url(#mask-5)"></path>
                    <path d="M2.4189,17.251 C2.7529,17.251 3.0229,17.522 3.0229,17.855 C3.0229,18.189 2.7529,18.46 2.4189,18.46 C2.0849,18.46 1.8149,18.189 1.8149,17.855 C1.8149,17.522 2.0849,17.251 2.4189,17.251" id="Fill-66" fill="#FFFFFF" mask="url(#mask-5)"></path>
                    <path d="M6.0479,17.251 C6.3819,17.251 6.6519,17.522 6.6519,17.855 C6.6519,18.189 6.3819,18.46 6.0479,18.46 C5.7139,18.46 5.4439,18.189 5.4439,17.855 C5.4439,17.522 5.7139,17.251 6.0479,17.251" id="Fill-67" fill="#FFFFFF" mask="url(#mask-5)"></path>
                    <path d="M4.2334,15.4365 C4.5674,15.4365 4.8374,15.7075 4.8374,16.0405 C4.8374,16.3745 4.5674,16.6455 4.2334,16.6455 C3.8994,16.6455 3.6294,16.3745 3.6294,16.0405 C3.6294,15.7075 3.8994,15.4365 4.2334,15.4365" id="Fill-68" fill="#FFFFFF" mask="url(#mask-5)"></path>
                    <path d="M4.2334,19.0654 C4.5674,19.0654 4.8374,19.3364 4.8374,19.6694 C4.8374,20.0044 4.5674,20.2744 4.2334,20.2744 C3.8994,20.2744 3.6294,20.0044 3.6294,19.6694 C3.6294,19.3364 3.8994,19.0654 4.2334,19.0654" id="Fill-69" fill="#FFFFFF" mask="url(#mask-5)"></path>
                    <path d="M2.4189,20.8799 C2.7529,20.8799 3.0229,21.1509 3.0229,21.4839 C3.0229,21.8179 2.7529,22.0889 2.4189,22.0889 C2.0849,22.0889 1.8149,21.8179 1.8149,21.4839 C1.8149,21.1509 2.0849,20.8799 2.4189,20.8799" id="Fill-70" fill="#FFFFFF" mask="url(#mask-5)"></path>
                    <path d="M6.0479,20.8799 C6.3819,20.8799 6.6519,21.1509 6.6519,21.4839 C6.6519,21.8179 6.3819,22.0889 6.0479,22.0889 C5.7139,22.0889 5.4439,21.8179 5.4439,21.4839 C5.4439,21.1509 5.7139,20.8799 6.0479,20.8799" id="Fill-71" fill="#FFFFFF" mask="url(#mask-5)"></path>
                    <path d="M2.4189,24.5088 C2.7529,24.5088 3.0229,24.7798 3.0229,25.1138 C3.0229,25.4478 2.7529,25.7188 2.4189,25.7188 C2.0849,25.7188 1.8149,25.4478 1.8149,25.1138 C1.8149,24.7798 2.0849,24.5088 2.4189,24.5088" id="Fill-72" fill="#FFFFFF" mask="url(#mask-5)"></path>
                    <path d="M6.0479,24.5088 C6.3819,24.5088 6.6519,24.7798 6.6519,25.1138 C6.6519,25.4478 6.3819,25.7188 6.0479,25.7188 C5.7139,25.7188 5.4439,25.4478 5.4439,25.1138 C5.4439,24.7798 5.7139,24.5088 6.0479,24.5088" id="Fill-73" fill="#FFFFFF" mask="url(#mask-5)"></path>
                    <path d="M4.2334,22.6943 C4.5674,22.6943 4.8374,22.9653 4.8374,23.2993 C4.8374,23.6323 4.5674,23.9043 4.2334,23.9043 C3.8994,23.9043 3.6294,23.6323 3.6294,23.2993 C3.6294,22.9653 3.8994,22.6943 4.2334,22.6943" id="Fill-74" fill="#FFFFFF" mask="url(#mask-5)"></path>
                    <path d="M4.2334,26.3232 C4.5674,26.3232 4.8374,26.5942 4.8374,26.9272 C4.8374,27.2622 4.5674,27.5322 4.2334,27.5322 C3.8994,27.5322 3.6294,27.2622 3.6294,26.9272 C3.6294,26.5942 3.8994,26.3232 4.2334,26.3232" id="Fill-75" fill="#FFFFFF" mask="url(#mask-5)"></path>
                </g>
            </g>
        </g>
    </g>
</svg>