<?xml version="1.0" encoding="UTF-8" standalone="no"?>
<svg width="62px" height="62px" viewBox="0 0 62 62" version="1.1" xmlns="http://www.w3.org/2000/svg" xmlns:xlink="http://www.w3.org/1999/xlink">
    <!-- Generator: Sketch 50.2 (55047) - http://www.bohemiancoding.com/sketch -->
    <title>icon-random copy 11</title>
    <desc>Created with Sketch.</desc>
    <defs>
        <linearGradient x1="50%" y1="0%" x2="50%" y2="100%" id="linearGradient-1">
            <stop stop-color="#C8B525" offset="0%"></stop>
            <stop stop-color="#2FAB66" offset="100%"></stop>
        </linearGradient>
    </defs>
    <g id="Page-1" stroke="none" stroke-width="1" fill="none" fill-rule="evenodd">
        <g id="Home-Copy-9" transform="translate(-737.000000, -8172.000000)">
            <g id="dach" transform="translate(734.000000, 8172.000000)">
                <circle id="Oval" fill="url(#linearGradient-1)" cx="34" cy="31" r="31"></circle>
                <path d="M48.2823544,24.2773303 C48.2823544,26.7295298 46.2873129,28.7245713 43.8360483,28.7245713 C41.3838488,28.7245713 39.3888073,26.7295298 39.3888073,24.2773303 L39.3888073,15.9680854 L48.2823544,15.9680854 L48.2823544,24.2773303 Z M48.2823544,33.2512773 L48.2823544,33.2886727 C48.2823544,35.7408722 46.2873129,37.7359137 43.8360483,37.7359137 C41.3838488,37.7359137 39.3888073,35.7408722 39.3888073,33.2886727 L39.3888073,33.2512773 L39.3888073,27.9589016 C40.4489652,29.2378223 42.048551,30.0539757 43.8360483,30.0539757 C45.6226107,30.0539757 47.2221965,29.2378223 48.2823544,27.9589016 L48.2823544,33.2512773 Z M48.2823544,42.2242895 C48.2823544,44.676489 46.2873129,46.6715305 43.8360483,46.6715305 C41.3838488,46.6715305 39.3888073,44.676489 39.3888073,42.2242895 L39.3888073,36.970244 C40.4489652,38.2491647 42.048551,39.0643832 43.8360483,39.0643832 C45.6226107,39.0643832 47.2221965,38.2491647 48.2823544,36.970244 L48.2823544,42.2242895 Z M38.0594029,24.2773303 C38.0594029,26.7295298 36.0643615,28.7245713 33.6130968,28.7245713 C31.1608973,28.7245713 29.1658558,26.7295298 29.1658558,24.2773303 L29.1658558,15.9680854 L38.0594029,15.9680854 L38.0594029,24.2773303 Z M38.0594029,33.2512773 L38.0594029,33.2886727 C38.0594029,35.7408722 36.0643615,37.7359137 33.6130968,37.7359137 C31.1608973,37.7359137 29.1658558,35.7408722 29.1658558,33.2886727 L29.1658558,33.2512773 L29.1658558,27.9589016 C30.2260138,29.2378223 31.8255995,30.0539757 33.6130968,30.0539757 C35.3996593,30.0539757 36.999245,29.2378223 38.0594029,27.9589016 L38.0594029,33.2512773 Z M38.0594029,42.2242895 C38.0594029,44.676489 36.0643615,46.6715305 33.6130968,46.6715305 C31.1608973,46.6715305 29.1658558,44.676489 29.1658558,42.2242895 L29.1658558,36.970244 C30.2260138,38.2491647 31.8255995,39.0643832 33.6130968,39.0643832 C35.3996593,39.0643832 36.999245,38.2491647 38.0594029,36.970244 L38.0594029,42.2242895 Z M27.8364515,24.2773303 C27.8364515,26.7295298 25.84141,28.7245713 23.3901454,28.7245713 C20.9379459,28.7245713 18.9429044,26.7295298 18.9429044,24.2773303 L18.9429044,15.9680854 L27.8364515,15.9680854 L27.8364515,24.2773303 Z M27.8364515,33.2512773 L27.8364515,33.2886727 C27.8364515,35.7408722 25.84141,37.7359137 23.3901454,37.7359137 C20.9379459,37.7359137 18.9429044,35.7408722 18.9429044,33.2886727 L18.9429044,33.2512773 L18.9429044,27.9589016 C20.0030623,29.2378223 21.602648,30.0539757 23.3901454,30.0539757 C25.1767078,30.0539757 26.7762935,29.2378223 27.8364515,27.9589016 L27.8364515,33.2512773 Z M27.8364515,42.2242895 C27.8364515,44.676489 25.84141,46.6715305 23.3901454,46.6715305 C20.9379459,46.6715305 18.9429044,44.676489 18.9429044,42.2242895 L18.9429044,36.970244 C20.0030623,38.2491647 21.602648,39.0643832 23.3901454,39.0643832 C25.1767078,39.0643832 26.7762935,38.2491647 27.8364515,36.970244 L27.8364515,42.2242895 Z M48.9470566,14.6396159 L18.2782022,14.6396159 C17.9117278,14.6396159 17.6135,14.9369089 17.6135,15.3033832 L17.6135,42.2242895 C17.6135,45.4094377 20.2049972,48 23.3901454,48 C25.6048845,48 27.5326143,46.7463212 28.5011537,44.9111448 C29.469693,46.7463212 31.3974228,48 33.6130968,48 C35.8278359,48 37.7555658,46.7463212 38.7241051,44.9111448 C39.6926445,46.7463212 41.6203743,48 43.8360483,48 C47.0202616,48 49.6117588,45.4094377 49.6117588,42.2242895 L49.6117588,15.3033832 C49.6117588,14.9369089 49.3144658,14.6396159 48.9470566,14.6396159 Z" id="Fill-1" fill="#FFFFFF"></path>
            </g>
        </g>
    </g>
</svg>