<?xml version="1.0" encoding="UTF-8" standalone="no"?>
<svg width="62px" height="62px" viewBox="0 0 62 62" version="1.1" xmlns="http://www.w3.org/2000/svg" xmlns:xlink="http://www.w3.org/1999/xlink">
    <!-- Generator: Sketch 50.2 (55047) - http://www.bohemiancoding.com/sketch -->
    <title>icon-random copy 12</title>
    <desc>Created with Sketch.</desc>
    <defs>
        <linearGradient x1="50%" y1="0%" x2="50%" y2="100%" id="linearGradient-1">
            <stop stop-color="#C8B525" offset="0%"></stop>
            <stop stop-color="#2FAB66" offset="100%"></stop>
        </linearGradient>
    </defs>
    <g id="Page-1" stroke="none" stroke-width="1" fill="none" fill-rule="evenodd">
        <g id="Home-Copy-9" transform="translate(-154.000000, -8437.000000)">
            <g id="Group-12" transform="translate(151.000000, 8437.000000)">
                <g id="okno">
                    <circle id="Oval" fill="url(#linearGradient-1)" cx="34" cy="31" r="31"></circle>
                    <g id="Group" stroke-width="1" transform="translate(18.000000, 12.000000)" fill="#FFFFFF">
                        <path d="M31.996,32.656 C31.996,32.706 31.955,32.746 31.905,32.746 L1.135,32.746 C1.086,32.746 1.045,32.706 1.045,32.656 L1.045,30.101 C1.045,30.052 1.086,30.012 1.135,30.012 L31.905,30.012 C31.955,30.012 31.996,30.052 31.996,30.101 L31.996,32.656 Z M31.007,34.55 C31.007,34.599 30.967,34.639 30.917,34.639 L2.124,34.639 C2.074,34.639 2.034,34.599 2.034,34.55 L2.034,33.792 L31.007,33.792 L31.007,34.55 Z M6.584,18.086 L9.828,18.086 C10.117,18.086 10.351,17.852 10.351,17.563 C10.351,17.274 10.117,17.041 9.828,17.041 L6.584,17.041 L6.584,15.741 L26.457,15.741 L26.457,17.041 L12.396,17.041 C12.108,17.041 11.875,17.274 11.875,17.563 C11.875,17.852 12.108,18.086 12.396,18.086 L26.457,18.086 L26.457,28.966 L6.584,28.966 L6.584,18.086 Z M31.905,28.966 L29.758,28.966 L29.758,25.08 C29.758,24.791 29.523,24.557 29.235,24.557 C28.946,24.557 28.713,24.791 28.713,25.08 L28.713,28.966 L27.502,28.966 L27.502,2.868 C27.502,2.58 27.268,2.345 26.979,2.345 L24.361,2.345 C24.073,2.345 23.84,2.58 23.84,2.868 C23.84,3.157 24.073,3.391 24.361,3.391 L26.457,3.391 L26.457,14.696 L6.584,14.696 L6.584,3.391 L22.015,3.391 C22.304,3.391 22.537,3.157 22.537,2.868 C22.537,2.58 22.304,2.345 22.015,2.345 L6.061,2.345 C5.772,2.345 5.539,2.58 5.539,2.868 L5.539,28.966 L4.328,28.966 L4.328,1.135 C4.328,1.086 4.369,1.046 4.418,1.046 L28.623,1.046 C28.672,1.046 28.713,1.086 28.713,1.135 L28.713,22.732 C28.713,23.021 28.946,23.256 29.235,23.256 C29.523,23.256 29.758,23.021 29.758,22.732 L29.758,1.135 C29.758,0.51 29.248,0 28.623,0 L4.418,0 C3.793,0 3.283,0.51 3.283,1.135 L3.283,28.966 L1.135,28.966 C0.51,28.966 0,29.475 0,30.101 L0,32.656 C0,33.233 0.432,33.709 0.988,33.781 L0.988,34.55 C0.988,35.176 1.498,35.684 2.124,35.684 L30.917,35.684 C31.543,35.684 32.053,35.176 32.053,34.55 L32.053,33.781 C32.609,33.709 33.041,33.233 33.041,32.656 L33.041,30.101 C33.041,29.475 32.532,28.966 31.905,28.966 Z" id="Fill-1"></path>
                    </g>
                </g>
            </g>
        </g>
    </g>
</svg>