<?xml version="1.0" encoding="UTF-8" standalone="no"?>
<svg width="62px" height="62px" viewBox="0 0 62 62" version="1.1" xmlns="http://www.w3.org/2000/svg" xmlns:xlink="http://www.w3.org/1999/xlink">
    <!-- Generator: Sketch 50.2 (55047) - http://www.bohemiancoding.com/sketch -->
    <title>icon-random copy 5</title>
    <desc>Created with Sketch.</desc>
    <defs>
        <linearGradient x1="50%" y1="0%" x2="50%" y2="100%" id="linearGradient-1">
            <stop stop-color="#C8B525" offset="0%"></stop>
            <stop stop-color="#2FAB66" offset="100%"></stop>
        </linearGradient>
        <polygon id="path-2" points="0.110645833 0.0298979592 29.9197917 0.0298979592 29.9197917 19.8415306 0.110645833 19.8415306"></polygon>
    </defs>
    <g id="Page-1" stroke="none" stroke-width="1" fill="none" fill-rule="evenodd">
        <g id="Home-Copy-9" transform="translate(-738.000000, -8437.000000)">
            <g id="Group-10" transform="translate(735.000000, 8437.000000)">
                <g id="plan-copy">
                    <circle id="Oval" fill="url(#linearGradient-1)" cx="34" cy="31" r="31"></circle>
                    <path d="M25.9662595,36.2272811 L25.9662595,35.6351871 C25.9662595,35.3477748 25.7331225,35.1146379 25.4457102,35.1146379 C25.1580924,35.1146379 24.925161,35.3477748 24.925161,35.6351871 L24.925161,36.2272811 L20.438199,36.2272811 C20.4184625,36.2272811 20.4026322,36.2114508 20.4026322,36.1915087 L20.4026322,33.9660167 C20.4026322,33.9462802 20.4184625,33.9302444 20.438199,33.9302444 L30.4532214,33.9302444 C30.4729579,33.9302444 30.4889938,33.9462802 30.4889938,33.9660167 L30.4889938,36.1915087 C30.4889938,36.2114508 30.4729579,36.2272811 30.4532214,36.2272811 L25.9662595,36.2272811 Z M21.5152755,42.9039627 L24.925161,42.9039627 L24.925161,40.6067204 L21.5152755,40.6067204 L21.5152755,42.9039627 Z M27.6712022,39.5654163 L24.2972947,39.5654163 L24.2972947,38.9733223 C24.2972947,38.6859101 24.0641577,38.4527731 23.7767454,38.4527731 C23.4891275,38.4527731 23.2559905,38.6859101 23.2559905,38.9733223 L23.2559905,39.5654163 L21.5152755,39.5654163 L21.5152755,37.2683796 L29.376145,37.2683796 L29.376145,42.9039627 L25.9662595,42.9039627 L25.9662595,40.6067204 L27.6712022,40.6067204 C27.9588201,40.6067204 28.1917515,40.3735834 28.1917515,40.0861711 C28.1917515,39.7985533 27.9588201,39.5654163 27.6712022,39.5654163 Z M29.3763506,46.2423035 L21.5152755,46.2423035 L21.5152755,43.9450612 L26.5943314,43.9450612 L26.5943314,44.5371552 C26.5943314,44.8245674 26.8274684,45.0577044 27.1148806,45.0577044 C27.4022929,45.0577044 27.6354299,44.8245674 27.6354299,44.5371552 L27.6354299,43.9450612 L29.3763506,43.9450612 L29.3763506,46.2423035 Z M30.4532214,37.2683796 C31.0471657,37.2683796 31.5300923,36.785453 31.5300923,36.1915087 L31.5300923,33.9660167 C31.5300923,33.3720725 31.0471657,32.8891458 30.4532214,32.8891458 L20.438199,32.8891458 C19.8444603,32.8891458 19.3613281,33.3720725 19.3613281,33.9660167 L19.3613281,36.1913031 C19.3613281,36.7852474 19.8444603,37.268174 20.438199,37.268174 L20.4741769,37.268174 L20.4741769,46.2423035 L19.8818774,46.2423035 C19.5944651,46.2423035 19.3613281,46.4752349 19.3613281,46.7626472 C19.3613281,47.050265 19.5944651,47.2831965 19.8818774,47.2831965 L31.009543,47.2831965 C31.2969553,47.2831965 31.5300923,47.050265 31.5300923,46.7626472 C31.5300923,46.4752349 31.2969553,46.2423035 31.009543,46.2423035 L30.4172435,46.2423035 L30.4172435,37.2683796 L30.4532214,37.2683796 Z" id="Fill-1" fill="#FFFFFF"></path>
                    <g id="Group-5" stroke-width="1" transform="translate(22.000000, 12.000000)">
                        <mask id="mask-3" fill="white">
                            <use xlink:href="#path-2"></use>
                        </mask>
                        <g id="Clip-4"></g>
                        <path d="M19.8077292,0.0298979592 C17.6900208,0.0298979592 15.6741875,0.665612245 13.9518958,1.87132653 C13.9371042,1.87785714 13.9229375,1.88520408 13.9087708,1.89316327 C12.9437708,1.39581633 11.8718958,1.13438776 10.7866875,1.13438776 C7.07627083,1.13438776 4.0573125,4.09153061 4.0573125,7.72642857 C4.0573125,7.78316327 4.05814583,7.84010204 4.0598125,7.89744898 C2.0991875,8.37928571 0.674604167,10.1270408 0.674604167,12.1447959 C0.674604167,12.7172449 0.785854167,13.2713265 1.00585417,13.7964286 C0.4329375,14.4011224 0.110645833,15.1888776 0.110645833,16.0111224 C0.110645833,17.8186735 1.61189583,19.2892857 3.4573125,19.2892857 C4.40522917,19.2892857 5.31252083,18.8929592 5.9466875,18.2021429 C6.14147917,17.9896939 6.12377083,17.6629592 5.90710417,17.4723469 C5.6904375,17.2815306 5.35689583,17.2988776 5.16210417,17.5111224 C4.72772917,17.9845918 4.10647917,18.2560204 3.4573125,18.2560204 C2.19377083,18.2560204 1.16585417,17.2488776 1.16585417,16.0111224 C1.16585417,15.3611224 1.46377083,14.7405102 1.9835625,14.3082653 C2.17085417,14.152551 2.2235625,13.8909184 2.1110625,13.6772449 C1.8579375,13.1968367 1.72960417,12.6813265 1.72960417,12.1447959 C1.72960417,10.4788776 3.00064583,9.05397959 4.68627083,8.83030612 C4.96710417,8.79295918 5.16772917,8.545 5.1404375,8.26846939 C5.12147917,8.0772449 5.1123125,7.89989796 5.1123125,7.72642857 C5.1123125,4.66132653 7.6579375,2.16806122 10.7866875,2.16806122 C11.5466875,2.16806122 12.2991875,2.3205102 12.9991875,2.61295918 C12.6796042,2.89826531 12.3777292,3.20295918 12.0977292,3.52581633 C11.9091875,3.74336735 11.9362708,4.0694898 12.1581458,4.25418367 C12.2575208,4.33683673 12.3787708,4.37704082 12.4996042,4.37704082 C12.6489792,4.37704082 12.7975208,4.31520408 12.9018958,4.19479592 C13.2923125,3.74459184 13.7287708,3.33336735 14.2018958,2.96765306 C14.2285625,2.95377551 14.2543958,2.93826531 14.2787708,2.91989796 C15.8821042,1.70540816 17.7939792,1.06336735 19.8077292,1.06336735 C24.8018958,1.06336735 28.8650208,5.04336735 28.8650208,9.93581633 C28.8650208,14.8280612 24.8018958,18.8082653 19.8077292,18.8082653 C16.2573125,18.8082653 13.0175208,16.7541837 11.5539792,13.5752041 C11.4652292,13.3821429 11.2641875,13.2617347 11.0491875,13.2715306 C11.0104375,13.2733673 10.9723125,13.2756122 10.9339792,13.2782653 C10.8808542,13.2817347 10.8306458,13.2852041 10.7866875,13.2852041 C10.1871042,13.2852041 9.58897917,13.190102 9.00897917,13.002551 C8.9910625,12.9968367 8.9729375,12.9921429 8.95460417,12.9882653 C8.44585417,12.8184694 7.9648125,12.5792857 7.52210417,12.2735714 C7.28397917,12.1090816 6.9548125,12.165 6.78689583,12.3982653 C6.6191875,12.6317347 6.67627083,12.9539796 6.9141875,13.1184694 C7.2954375,13.3815306 7.70085417,13.6033673 8.12522917,13.7823469 C7.69085417,14.5376531 6.96772917,15.1111224 6.11147917,15.3570408 C5.83189583,15.4372449 5.6716875,15.7243878 5.75377083,15.9982653 C5.83585417,16.2721429 6.12877083,16.4288776 6.40835417,16.3486735 C7.5941875,16.0080612 8.58627083,15.1892857 9.14022917,14.1158163 C9.6679375,14.2472449 10.2060625,14.3152041 10.7458542,14.3184694 C12.4448125,17.6852041 15.9629375,19.8415306 19.8075208,19.8415306 C25.3835625,19.8415306 29.9198125,15.3978571 29.9198125,9.93561224 C29.9198125,4.47357143 25.3837708,0.0298979592 19.8077292,0.0298979592" id="Fill-3" fill="#FFFFFF" mask="url(#mask-3)"></path>
                    </g>
                </g>
            </g>
        </g>
    </g>
</svg>