<?xml version="1.0" encoding="UTF-8" standalone="no"?>
<svg width="199px" height="186px" viewBox="0 0 199 186" version="1.1" xmlns="http://www.w3.org/2000/svg" xmlns:xlink="http://www.w3.org/1999/xlink">
    <!-- Generator: Sketch 49.3 (51167) - http://www.bohemiancoding.com/sketch -->
    <title>1</title>
    <desc>Created with Sketch.</desc>
    <defs>
        <path d="M0.35,68 C0.35,105.463 30.637,135.833 68,135.833 C105.363,135.833 135.65,105.463 135.65,68 C135.65,30.537 105.363,0.167 68,0.167 C30.637,0.167 0.35,30.537 0.35,68 Z M4.45,68 C4.45,32.807 32.903,4.278 68,4.278 C103.098,4.278 131.55,32.807 131.55,68 C131.55,103.192 103.098,131.723 68,131.723 C32.903,131.723 4.45,103.192 4.45,68 Z" id="path-1"></path>
        <polygon id="path-3" points="0 148 164 148 164 0 0 0"></polygon>
    </defs>
    <g id="Page-1" stroke="none" stroke-width="1" fill="none" fill-rule="evenodd">
        <g id="1" transform="translate(-23.000000, -36.000000)">
            <g id="Group" transform="translate(20.000000, 80.000000)">
                <path d="M100.8,23.39 C100.8,34.8500573 99.5700123,44.779958 97.11,53.18 C94.6499877,61.580042 91.2450218,68.5399724 86.895,74.06 C82.5449783,79.5800276 77.3850299,83.6899865 71.415,86.39 C65.4449702,89.0900135 58.9800348,90.44 52.02,90.44 C45.0599652,90.44 38.6250295,89.0900135 32.715,86.39 C26.8049704,83.6899865 21.6900216,79.5800276 17.37,74.06 C13.0499784,68.5399724 9.67501215,61.580042 7.245,53.18 C4.81498785,44.779958 3.6,34.8500573 3.6,23.39 C3.6,11.9299427 4.81498785,2.000042 7.245,-6.4 C9.67501215,-14.800042 13.0499784,-21.7599724 17.37,-27.28 C21.6900216,-32.8000276 26.8049704,-36.8949866 32.715,-39.565 C38.6250295,-42.2350134 45.0599652,-43.57 52.02,-43.57 C58.9800348,-43.57 65.4449702,-42.2350134 71.415,-39.565 C77.3850299,-36.8949866 82.5449783,-32.8000276 86.895,-27.28 C91.2450218,-21.7599724 94.6499877,-14.800042 97.11,-6.4 C99.5700123,2.000042 100.8,11.9299427 100.8,23.39 Z M72,23.39 C72,14.3299547 71.4300057,6.90502895 70.29,1.115 C69.1499943,-4.67502895 67.6350095,-9.2199835 65.745,-12.52 C63.8549906,-15.8200165 61.710012,-18.0849938 59.31,-19.315 C56.909988,-20.5450062 54.4800123,-21.16 52.02,-21.16 C49.5599877,-21.16 47.1450119,-20.5450062 44.775,-19.315 C42.4049882,-18.0849938 40.3050092,-15.8200165 38.475,-12.52 C36.6449909,-9.2199835 35.1750055,-4.67502895 34.065,1.115 C32.9549945,6.90502895 32.4,14.3299547 32.4,23.39 C32.4,32.5100456 32.9549945,39.9499712 34.065,45.71 C35.1750055,51.4700288 36.6449909,56.0149833 38.475,59.345 C40.3050092,62.6750167 42.4049882,64.9549939 44.775,66.185 C47.1450119,67.4150061 49.5599877,68.03 52.02,68.03 C54.4800123,68.03 56.909988,67.4150061 59.31,66.185 C61.710012,64.9549939 63.8549906,62.6750167 65.745,59.345 C67.6350095,56.0149833 69.1499943,51.4700288 70.29,45.71 C71.4300057,39.9499712 72,32.5100456 72,23.39 Z M127.08,68.84 L152.28,68.84 L152.28,2.69 C152.28,-0.5500162 152.369999,-3.9399823 152.55,-7.48 L137.7,4.85 C136.739995,5.6300039 135.780005,6.18499835 134.82,6.515 C133.859995,6.84500165 132.930005,7.01 132.03,7.01 C130.469992,7.01 129.075006,6.66500345 127.845,5.975 C126.614994,5.28499655 125.700003,4.5500039 125.1,3.77 L116.28,-7.93 L157.14,-42.22 L180.18,-42.22 L180.18,68.84 L201.78,68.84 L201.78,89 L127.08,89 L127.08,68.84 Z" id="01" fill="#FFFFFF" opacity="0.1"></path>
                <g id="Page-1" transform="translate(26.000000, 0.000000)">
                    <g id="Group-3" transform="translate(14.000000, 6.000000)">
                        <mask id="mask-2" fill="white">
                            <use xlink:href="#path-1"></use>
                        </mask>
                        <g id="Clip-2"></g>
                        <polygon id="Fill-1" fill="#FFFFFF" mask="url(#mask-2)" points="-4.65 140.833 140.65 140.833 140.65 -4.833 -4.65 -4.833"></polygon>
                    </g>
                    <g id="Group-21">
                        <path d="M74.5791,100.1318 L69.3581,100.1318 L69.3581,89.3468 L72.0081,91.3238 C72.1791,91.4508 72.3821,91.5158 72.5881,91.5158 C72.7201,91.5158 72.8531,91.4888 72.9791,91.4338 C73.2991,91.2918 73.5171,90.9888 73.5521,90.6418 L73.9121,86.9438 C74.3351,87.6548 74.5791,88.4858 74.5791,89.3708 L74.5791,100.1318 Z M57.7351,89.3708 C57.7351,86.9988 59.4781,85.0268 61.7511,84.6678 L63.2521,90.7778 C63.3301,91.0948 63.5601,91.3498 63.8661,91.4588 C63.9721,91.4968 64.0831,91.5158 64.1931,91.5158 C64.3981,91.5158 64.6021,91.4498 64.7721,91.3238 L67.4211,89.3468 L67.4211,100.1318 L62.5171,100.1318 L62.5171,90.5298 C62.5171,89.9958 62.0831,89.5618 61.5481,89.5618 C61.0141,89.5618 60.5801,89.9958 60.5801,90.5298 L60.5801,100.1318 L57.7351,100.1318 L57.7351,89.3708 Z M58.2451,74.7608 C58.2451,70.3988 61.7941,66.8488 66.1571,66.8488 C70.5191,66.8488 74.0681,70.3988 74.0681,74.7608 C74.0681,79.1228 70.5191,82.6728 66.1571,82.6728 C61.7941,82.6728 58.2451,79.1228 58.2451,74.7608 Z M71.7741,85.0308 C71.8971,85.0868 72.0171,85.1478 72.1351,85.2138 L71.7901,88.7438 L69.8101,87.2678 L71.7741,85.0308 Z M64.6361,84.6098 L66.9701,87.2678 L64.7851,88.8978 L63.7311,84.6098 L64.6361,84.6098 Z M68.3901,85.9488 L67.2141,84.6098 L69.5671,84.6098 L68.3901,85.9488 Z M71.6521,82.9298 C74.2771,81.1588 76.0061,78.1578 76.0061,74.7608 C76.0061,69.3298 71.5881,64.9108 66.1571,64.9108 C60.7261,64.9108 56.3081,69.3298 56.3081,74.7608 C56.3081,78.1578 58.0371,81.1588 60.6621,82.9298 C57.8571,83.7298 55.7971,86.3138 55.7971,89.3708 L55.7971,101.0998 C55.7971,101.6358 56.2311,102.0688 56.7661,102.0688 L75.5481,102.0688 C76.0821,102.0688 76.5161,101.6358 76.5161,101.0998 L76.5161,89.3708 C76.5161,86.3138 74.4561,83.7298 71.6521,82.9298 Z" id="Fill-4" fill="#F89F03"></path>
                        <path d="M65.8105,72.958 C65.6595,72.601 65.3065,72.36 64.9165,72.36 C64.5275,72.36 64.1705,72.601 64.0215,72.958 C63.8635,73.34 63.9725,73.797 64.2875,74.064 C64.6075,74.337 65.0795,74.371 65.4345,74.146 C65.8255,73.897 65.9915,73.387 65.8105,72.958 C65.7865,72.899 65.8345,73.016 65.8105,72.958" id="Fill-6" fill="#F89F03"></path>
                        <path d="M70.3564,73.6992 C70.5104,74.0642 70.8774,74.3072 71.2744,74.2962 C71.7044,74.2852 72.0864,73.9802 72.1894,73.5632 C72.2834,73.1902 72.1404,72.7882 71.8354,72.5552 C71.5004,72.3022 71.0224,72.2972 70.6824,72.5442 C70.3224,72.8062 70.1874,73.2882 70.3564,73.6992 C70.3804,73.7572 70.3314,73.6392 70.3564,73.6992" id="Fill-8" fill="#F89F03"></path>
                        <path d="M78.9668,58.2119 L78.9668,48.0859 C78.9668,47.4949 79.4478,47.0149 80.0388,47.0149 L97.8138,47.0149 C98.4048,47.0149 98.8858,47.4949 98.8858,48.0859 L98.8858,58.2119 C98.8858,58.8039 98.4048,59.2829 97.8138,59.2829 L95.8608,59.2829 C95.3248,59.2829 94.8918,59.7179 94.8918,60.2529 L94.8918,61.7079 L91.3238,59.4359 C91.1688,59.3359 90.9878,59.2829 90.8038,59.2829 L80.0388,59.2829 C79.4478,59.2839 78.9668,58.8039 78.9668,58.2119 Z M74.0058,55.8759 C73.8208,55.8759 73.6408,55.9289 73.4848,56.0269 L69.9188,58.2999 L69.9188,56.8439 C69.9188,56.3099 69.4848,55.8759 68.9498,55.8759 L66.9958,55.8759 C66.4048,55.8759 65.9238,55.3949 65.9238,54.8039 L65.9238,44.6789 C65.9238,44.0879 66.4048,43.6079 66.9958,43.6079 L84.7718,43.6079 C85.3628,43.6079 85.8428,44.0879 85.8428,44.6789 L85.8428,45.0769 L80.0388,45.0769 C78.7278,45.0769 77.6098,45.9219 77.1988,47.0949 L69.8078,47.0949 C69.2728,47.0949 68.8388,47.5279 68.8388,48.0639 C68.8388,48.5989 69.2728,49.0319 69.8078,49.0319 L77.0298,49.0319 L77.0298,50.6509 L69.8078,50.6509 C69.2728,50.6509 68.8388,51.0859 68.8388,51.6199 C68.8388,52.1549 69.2728,52.5889 69.8078,52.5889 L77.0298,52.5889 L77.0298,55.8759 L74.0058,55.8759 Z M95.3408,64.2909 C95.4988,64.3919 95.6788,64.4419 95.8608,64.4419 C96.0208,64.4419 96.1808,64.4029 96.3258,64.3229 C96.6358,64.1529 96.8288,63.8279 96.8288,63.4739 L96.8288,61.2219 L97.8148,61.2219 C99.4738,61.2219 100.8228,59.8719 100.8228,58.2119 L100.8228,48.0859 C100.8228,46.4279 99.4738,45.0769 97.8148,45.0769 L87.7798,45.0769 L87.7798,44.6789 C87.7798,43.0199 86.4298,41.6699 84.7718,41.6699 L66.9958,41.6699 C65.3368,41.6699 63.9868,43.0199 63.9868,44.6789 L63.9868,54.8039 C63.9868,56.4629 65.3368,57.8129 66.9958,57.8129 L67.9818,57.8129 L67.9818,60.0659 C67.9818,60.4199 68.1738,60.7449 68.4838,60.9149 C68.6298,60.9949 68.7898,61.0339 68.9488,61.0339 C69.1308,61.0339 69.3118,60.9839 69.4698,60.8829 L74.2878,57.8129 L77.0298,57.8129 L77.0298,58.2119 C77.0298,59.8719 78.3798,61.2219 80.0388,61.2219 L90.5208,61.2219 L95.3408,64.2909 Z" id="Fill-10" fill="#F89F03"></path>
                        <path d="M82.8516,52.4404 L95.0016,52.4404 C95.5366,52.4404 95.9706,52.0054 95.9706,51.4714 C95.9706,50.9374 95.5366,50.5024 95.0016,50.5024 L82.8516,50.5024 C82.3166,50.5024 81.8826,50.9374 81.8826,51.4714 C81.8826,52.0054 82.3166,52.4404 82.8516,52.4404" id="Fill-12" fill="#F89F03"></path>
                        <path d="M95.9702,55.0273 C95.9702,54.4933 95.5362,54.0593 95.0022,54.0593 L82.8512,54.0593 C82.3162,54.0593 81.8832,54.4933 81.8832,55.0273 C81.8832,55.5633 82.3162,55.9973 82.8512,55.9973 L95.0022,55.9973 C95.5362,55.9973 95.9702,55.5633 95.9702,55.0273" id="Fill-14" fill="#F89F03"></path>
                        <mask id="mask-4" fill="white">
                            <use xlink:href="#path-3"></use>
                        </mask>
                        <g id="Clip-17"></g>
                        <path d="M102.872,100.132 L106.265,100.132 L106.265,94.746 L102.872,94.746 L102.872,100.132 Z M89.42,89.371 C89.42,87.384 90.644,85.678 92.377,84.966 C93.352,87.06 95.477,88.451 97.843,88.451 C100.208,88.451 102.333,87.059 103.308,84.965 C105.041,85.678 106.265,87.384 106.265,89.371 L106.265,92.809 L102.872,92.809 L102.872,90.53 C102.872,89.996 102.438,89.562 101.903,89.562 C101.369,89.562 100.935,89.996 100.935,90.53 L100.935,100.132 L89.42,100.132 L89.42,89.371 Z M89.931,74.761 C89.931,70.398 93.48,66.849 97.843,66.849 C102.205,66.849 105.754,70.398 105.754,74.761 C105.754,79.123 102.205,82.673 97.843,82.673 C93.48,82.673 89.931,79.123 89.931,74.761 Z M101.296,84.609 C100.56,85.769 99.267,86.514 97.842,86.514 C96.418,86.514 95.125,85.769 94.389,84.609 L101.296,84.609 Z M103.338,82.93 C105.962,81.159 107.691,78.158 107.691,74.761 C107.691,69.33 103.273,64.911 97.843,64.911 C92.412,64.911 87.994,69.33 87.994,74.761 C87.994,78.158 89.723,81.159 92.347,82.93 C89.543,83.729 87.483,86.313 87.483,89.371 L87.483,101.1 C87.483,101.636 87.917,102.068 88.452,102.068 L107.233,102.068 C107.769,102.068 108.202,101.636 108.202,101.1 L108.202,89.371 C108.202,86.313 106.142,83.729 103.338,82.93 Z" id="Fill-16" fill="#F89F03" mask="url(#mask-4)"></path>
                        <path d="M98.188,73.6992 C98.359,74.1022 98.789,74.3522 99.225,74.2862 C99.608,74.2282 99.926,73.9412 100.022,73.5662 C100.123,73.1732 99.957,72.7482 99.62,72.5222 C99.239,72.2662 98.723,72.3262 98.397,72.6422 C98.127,72.9222 98.04,73.3382 98.188,73.6992 C98.213,73.7572 98.164,73.6392 98.188,73.6992" id="Fill-18" fill="#F89F03" mask="url(#mask-4)"></path>
                        <path d="M93.6982,73.1387 C93.6752,73.0147 93.6222,72.8967 93.5552,72.7897 C93.0662,72.0747 91.9202,72.3267 91.7912,73.1867 C91.6732,73.9667 92.5382,74.5627 93.2262,74.1697 C93.5842,73.9657 93.7812,73.5447 93.6982,73.1387 C93.6862,73.0757 93.7112,73.2017 93.6982,73.1387" id="Fill-19" fill="#F89F03" mask="url(#mask-4)"></path>
                        <path d="M98.0332,76.6475 C97.7312,76.3445 97.2392,76.3445 96.9372,76.6475 C96.6792,76.9065 96.3342,77.0485 95.9682,77.0485 C95.6022,77.0485 95.2582,76.9065 94.9992,76.6475 C94.6972,76.3445 94.2062,76.3445 93.9042,76.6475 C93.6012,76.9495 93.6012,77.4395 93.9042,77.7425 C94.4722,78.3115 95.2202,78.5965 95.9682,78.5965 C96.7162,78.5965 97.4642,78.3115 98.0332,77.7425 C98.3362,77.4395 98.3362,76.9495 98.0332,76.6475" id="Fill-20" fill="#F89F03" mask="url(#mask-4)"></path>
                    </g>
                </g>
            </g>
        </g>
    </g>
</svg>