<?xml version="1.0" encoding="UTF-8" standalone="no"?>
<svg width="200px" height="186px" viewBox="0 0 200 186" version="1.1" xmlns="http://www.w3.org/2000/svg" xmlns:xlink="http://www.w3.org/1999/xlink">
    <!-- Generator: Sketch 49.3 (51167) - http://www.bohemiancoding.com/sketch -->
    <title>2</title>
    <desc>Created with Sketch.</desc>
    <defs>
        <path d="M0.35,68 C0.35,105.463 30.637,135.833 68,135.833 C105.363,135.833 135.65,105.463 135.65,68 C135.65,30.537 105.363,0.167 68,0.167 C30.637,0.167 0.35,30.537 0.35,68 Z M4.45,68 C4.45,32.807 32.903,4.278 68,4.278 C103.098,4.278 131.55,32.807 131.55,68 C131.55,103.192 103.098,131.723 68,131.723 C32.903,131.723 4.45,103.192 4.45,68 Z" id="path-1"></path>
        <polygon id="path-3" points="0 148 164 148 164 0 0 0"></polygon>
    </defs>
    <g id="Page-1" stroke="none" stroke-width="1" fill="none" fill-rule="evenodd">
        <g id="2" transform="translate(-21.000000, -36.000000)">
            <g id="Group" transform="translate(18.000000, 80.000000)">
                <path d="M100.8,23.39 C100.8,34.8500573 99.5700123,44.779958 97.11,53.18 C94.6499877,61.580042 91.2450218,68.5399724 86.895,74.06 C82.5449783,79.5800276 77.3850299,83.6899865 71.415,86.39 C65.4449702,89.0900135 58.9800348,90.44 52.02,90.44 C45.0599652,90.44 38.6250295,89.0900135 32.715,86.39 C26.8049704,83.6899865 21.6900216,79.5800276 17.37,74.06 C13.0499784,68.5399724 9.67501215,61.580042 7.245,53.18 C4.81498785,44.779958 3.6,34.8500573 3.6,23.39 C3.6,11.9299427 4.81498785,2.000042 7.245,-6.4 C9.67501215,-14.800042 13.0499784,-21.7599724 17.37,-27.28 C21.6900216,-32.8000276 26.8049704,-36.8949866 32.715,-39.565 C38.6250295,-42.2350134 45.0599652,-43.57 52.02,-43.57 C58.9800348,-43.57 65.4449702,-42.2350134 71.415,-39.565 C77.3850299,-36.8949866 82.5449783,-32.8000276 86.895,-27.28 C91.2450218,-21.7599724 94.6499877,-14.800042 97.11,-6.4 C99.5700123,2.000042 100.8,11.9299427 100.8,23.39 Z M72,23.39 C72,14.3299547 71.4300057,6.90502895 70.29,1.115 C69.1499943,-4.67502895 67.6350095,-9.2199835 65.745,-12.52 C63.8549906,-15.8200165 61.710012,-18.0849938 59.31,-19.315 C56.909988,-20.5450062 54.4800123,-21.16 52.02,-21.16 C49.5599877,-21.16 47.1450119,-20.5450062 44.775,-19.315 C42.4049882,-18.0849938 40.3050092,-15.8200165 38.475,-12.52 C36.6449909,-9.2199835 35.1750055,-4.67502895 34.065,1.115 C32.9549945,6.90502895 32.4,14.3299547 32.4,23.39 C32.4,32.5100456 32.9549945,39.9499712 34.065,45.71 C35.1750055,51.4700288 36.6449909,56.0149833 38.475,59.345 C40.3050092,62.6750167 42.4049882,64.9549939 44.775,66.185 C47.1450119,67.4150061 49.5599877,68.03 52.02,68.03 C54.4800123,68.03 56.909988,67.4150061 59.31,66.185 C61.710012,64.9549939 63.8549906,62.6750167 65.745,59.345 C67.6350095,56.0149833 69.1499943,51.4700288 70.29,45.71 C71.4300057,39.9499712 72,32.5100456 72,23.39 Z M158.58,-43.57 C165.060032,-43.57 170.894974,-42.6250094 176.085,-40.735 C181.275026,-38.8449905 185.699982,-36.2200168 189.36,-32.86 C193.020018,-29.4999832 195.82499,-25.4950232 197.775,-20.845 C199.72501,-16.1949768 200.7,-11.0800279 200.7,-5.5 C200.7,-0.699976 200.025007,3.7399796 198.675,7.82 C197.324993,11.9000204 195.480012,15.7849815 193.14,19.475 C190.799988,23.1650185 188.085015,26.7349828 184.995,30.185 C181.904985,33.6350173 178.620017,37.1299823 175.14,40.67 L149.49,66.95 C152.790017,65.9899952 156.044984,65.2250029 159.255,64.655 C162.465016,64.0849971 165.479986,63.8 168.3,63.8 L192.78,63.8 C195.780015,63.8 198.149991,64.6249917 199.89,66.275 C201.630009,67.9250083 202.5,70.0999865 202.5,72.8 L202.5,89 L110.34,89 L110.34,80 C110.34,78.2599913 110.699996,76.4000099 111.42,74.42 C112.140004,72.4399901 113.399991,70.6400081 115.2,69.02 L153,30.95 C156.240016,27.7099838 159.059988,24.6200147 161.46,21.68 C163.860012,18.7399853 165.839992,15.8450143 167.4,12.995 C168.960008,10.1449858 170.129996,7.29501425 170.91,4.445 C171.690004,1.59498575 172.08,-1.4199841 172.08,-4.6 C172.08,-9.8200261 170.835012,-13.8249861 168.345,-16.615 C165.854988,-19.405014 162.060026,-20.8 156.96,-20.8 C154.85999,-20.8 152.940009,-20.500003 151.2,-19.9 C149.459991,-19.299997 147.900007,-18.4900051 146.52,-17.47 C145.139993,-16.4499949 143.955005,-15.2500069 142.965,-13.87 C141.974995,-12.4899931 141.180003,-10.9900081 140.58,-9.37 C139.619995,-6.6699865 138.405007,-4.720006 136.935,-3.52 C135.464993,-2.319994 133.470013,-1.72 130.95,-1.72 C130.349997,-1.72 129.705003,-1.7499997 129.015,-1.81 C128.324997,-1.8700003 127.620004,-1.9599994 126.9,-2.08 L112.14,-4.69 C113.100005,-11.2300327 114.944986,-16.9299757 117.675,-21.79 C120.405014,-26.6500243 123.79498,-30.6999838 127.845,-33.94 C131.89502,-37.1800162 136.529974,-39.5949921 141.75,-41.185 C146.970026,-42.775008 152.57997,-43.57 158.58,-43.57 Z" id="02" fill="#FFFFFF" opacity="0.139832428"></path>
                <g id="Page-1" transform="translate(28.000000, 0.000000)">
                    <g id="Group-3" transform="translate(14.000000, 6.000000)">
                        <mask id="mask-2" fill="white">
                            <use xlink:href="#path-1"></use>
                        </mask>
                        <g id="Clip-2"></g>
                        <polygon id="Fill-1" fill="#FFFFFF" mask="url(#mask-2)" points="-4.65 140.833 140.65 140.833 140.65 -4.833 -4.65 -4.833"></polygon>
                    </g>
                    <g id="Group-12">
                        <path d="M102.082,94.8398 L75.485,94.8398 C76.022,94.1238 76.394,93.2988 76.573,92.4228 L105.503,92.4228 C104.991,93.8718 103.62,94.8398 102.082,94.8398 Z M74.276,91.2128 C74.276,93.2168 72.652,94.8398 70.649,94.8398 L70.649,91.2128 L71.374,91.2128 C71.817,91.2148 72.226,90.9728 72.438,90.5838 C75.013,85.8458 76.694,82.4468 76.694,78.4938 C76.687,72.5528 72.739,67.3368 67.022,65.7158 L67.022,50.1088 L92.411,50.1088 C93.078,50.1088 93.619,49.5688 93.619,48.9008 C93.619,46.8988 95.243,45.2728 97.246,45.2728 C99.249,45.2728 100.873,46.8988 100.873,48.9008 L100.873,90.0048 L75.485,90.0048 C74.817,90.0048 74.276,90.5458 74.276,91.2128 Z M59.769,76.7058 C59.769,77.3748 59.227,77.9148 58.56,77.9148 C57.892,77.9148 57.351,77.3748 57.351,76.7058 C57.351,76.0388 57.893,75.4968 58.56,75.4968 C59.228,75.4968 59.769,76.0388 59.769,76.7058 Z M67.022,76.7058 C67.022,76.0388 67.564,75.4968 68.231,75.4968 C68.899,75.4968 69.44,76.0388 69.44,76.7058 C69.44,77.3748 68.899,77.9148 68.231,77.9148 C67.564,77.9148 67.022,77.3748 67.022,76.7058 Z M69.44,88.7958 L64.604,88.7958 L64.604,80.3318 L68.231,80.3318 C70.234,80.3318 71.858,78.7078 71.858,76.7058 C71.858,74.7028 70.234,73.0788 68.231,73.0788 C66.228,73.0788 64.604,74.7028 64.604,76.7058 C64.608,77.1178 64.681,77.5268 64.821,77.9148 L61.969,77.9148 C62.11,77.5268 62.183,77.1178 62.186,76.7058 C62.186,74.7028 60.563,73.0788 58.56,73.0788 C56.557,73.0788 54.933,74.7028 54.933,76.7058 C54.933,78.7078 56.557,80.3318 58.56,80.3318 L62.186,80.3318 L62.186,88.7958 L56.142,88.7958 C53.941,84.7088 52.515,81.7098 52.515,78.5198 C52.515,72.5098 57.387,67.6378 63.395,67.6378 C69.404,67.6378 74.276,72.5098 74.276,78.5198 C74.276,81.7098 72.849,84.7088 70.649,88.7958 L69.44,88.7958 Z M58.56,93.6318 L68.231,93.6318 L68.231,91.2128 L58.56,91.2128 L58.56,93.6318 Z M58.56,98.4678 L68.231,98.4678 L68.231,96.0488 L58.56,96.0488 L58.56,98.4678 Z M62.392,47.6918 C62.905,46.2398 64.276,45.2728 65.813,45.2738 L92.411,45.2737992 C91.873,45.9878 91.501,46.8148 91.323,47.6918 L62.392,47.6918 Z M106.917,90.0048 L103.291,90.0048 L103.291,48.9008 C103.291,45.5628 100.585,42.8558 97.246,42.8558 L65.813,42.8558 C62.475,42.8558 59.769,45.5628 59.769,48.9008 C59.769,49.5688 60.31,50.1088 60.978,50.1088 L64.604,50.1088 L64.604,65.2808 C64.205,65.2808 63.807,65.2218 63.395,65.2218 C56.051,65.2218 50.097,71.1748 50.097,78.5198 C50.097,82.4468 51.778,85.8458 54.353,90.6088 C54.571,90.9868 54.979,91.2198 55.416,91.2128 L56.142,91.2128 L56.142,99.6758 C56.142,100.3438 56.683,100.8848 57.351,100.8848 L69.44,100.8848 C70.107,100.8848 70.649,100.3438 70.649,99.6758 L70.649,97.2578 L102.082,97.2578 C105.42,97.2578 108.126,94.5508 108.126,91.2128 C108.126,90.5458 107.585,90.0048 106.917,90.0048 Z" id="Fill-4" fill="#F89F03"></path>
                        <mask id="mask-4" fill="white">
                            <use xlink:href="#path-3"></use>
                        </mask>
                        <g id="Clip-7"></g>
                        <path d="M91.201,62.198 L96.037,62.198 L96.037,57.362 L91.201,57.362 L91.201,62.198 Z M89.992,64.617 L97.246,64.617 C97.914,64.617 98.455,64.076 98.455,63.407 L98.455,56.153 C98.455,55.485 97.914,54.944 97.246,54.944 L89.992,54.944 C89.325,54.944 88.784,55.485 88.784,56.153 L88.784,63.407 C88.784,64.076 89.325,64.617 89.992,64.617 Z" id="Fill-6" fill="#F89F03" mask="url(#mask-4)"></path>
                        <path d="M91.201,75.497 L96.037,75.497 L96.037,70.661 L91.201,70.661 L91.201,75.497 Z M89.992,77.915 L97.246,77.915 C97.914,77.915 98.455,77.375 98.455,76.706 L98.455,69.452 C98.455,68.784 97.914,68.243 97.246,68.243 L89.992,68.243 C89.325,68.243 88.784,68.784 88.784,69.452 L88.784,76.706 C88.784,77.375 89.325,77.915 89.992,77.915 Z" id="Fill-8" fill="#F89F03" mask="url(#mask-4)"></path>
                        <polygon id="Fill-9" fill="#F89F03" mask="url(#mask-4)" points="74.276 57.362 83.947 57.362 83.947 54.944 74.276 54.944"></polygon>
                        <polygon id="Fill-10" fill="#F89F03" mask="url(#mask-4)" points="74.276 64.617 83.947 64.617 83.947 62.198 74.276 62.198"></polygon>
                        <polygon id="Fill-11" fill="#F89F03" mask="url(#mask-4)" points="88.784 85.168 98.455 85.168 98.455 82.75 88.784 82.75"></polygon>
                    </g>
                </g>
            </g>
        </g>
    </g>
</svg>