<?xml version="1.0" encoding="UTF-8" standalone="no"?>
<svg width="202px" height="192px" viewBox="0 0 202 192" version="1.1" xmlns="http://www.w3.org/2000/svg" xmlns:xlink="http://www.w3.org/1999/xlink">
    <!-- Generator: Sketch 49.3 (51167) - http://www.bohemiancoding.com/sketch -->
    <title>3</title>
    <desc>Created with Sketch.</desc>
    <defs>
        <path d="M0.35,68 C0.35,105.463 30.637,135.833 68,135.833 C105.363,135.833 135.65,105.463 135.65,68 C135.65,30.537 105.363,0.167 68,0.167 C30.637,0.167 0.35,30.537 0.35,68 Z M4.45,68 C4.45,32.807 32.903,4.278 68,4.278 C103.098,4.278 131.55,32.807 131.55,68 C131.55,103.192 103.098,131.723 68,131.723 C32.903,131.723 4.45,103.192 4.45,68 Z" id="path-1"></path>
    </defs>
    <g id="Page-1" stroke="none" stroke-width="1" fill="none" fill-rule="evenodd">
        <g id="3" transform="translate(-23.000000, -30.000000)">
            <g id="Group" transform="translate(20.000000, 86.000000)">
                <path d="M100.8,11.39 C100.8,22.8500573 99.5700123,32.779958 97.11,41.18 C94.6499877,49.580042 91.2450218,56.5399724 86.895,62.06 C82.5449783,67.5800276 77.3850299,71.6899865 71.415,74.39 C65.4449702,77.0900135 58.9800348,78.44 52.02,78.44 C45.0599652,78.44 38.6250295,77.0900135 32.715,74.39 C26.8049704,71.6899865 21.6900216,67.5800276 17.37,62.06 C13.0499784,56.5399724 9.67501215,49.580042 7.245,41.18 C4.81498785,32.779958 3.6,22.8500573 3.6,11.39 C3.6,-0.0700573 4.81498785,-9.999958 7.245,-18.4 C9.67501215,-26.800042 13.0499784,-33.7599724 17.37,-39.28 C21.6900216,-44.8000276 26.8049704,-48.8949866 32.715,-51.565 C38.6250295,-54.2350134 45.0599652,-55.57 52.02,-55.57 C58.9800348,-55.57 65.4449702,-54.2350134 71.415,-51.565 C77.3850299,-48.8949866 82.5449783,-44.8000276 86.895,-39.28 C91.2450218,-33.7599724 94.6499877,-26.800042 97.11,-18.4 C99.5700123,-9.999958 100.8,-0.0700573 100.8,11.39 Z M72,11.39 C72,2.3299547 71.4300057,-5.09497105 70.29,-10.885 C69.1499943,-16.6750289 67.6350095,-21.2199835 65.745,-24.52 C63.8549906,-27.8200165 61.710012,-30.0849938 59.31,-31.315 C56.909988,-32.5450062 54.4800123,-33.16 52.02,-33.16 C49.5599877,-33.16 47.1450119,-32.5450062 44.775,-31.315 C42.4049882,-30.0849938 40.3050092,-27.8200165 38.475,-24.52 C36.6449909,-21.2199835 35.1750055,-16.6750289 34.065,-10.885 C32.9549945,-5.09497105 32.4,2.3299547 32.4,11.39 C32.4,20.5100456 32.9549945,27.9499712 34.065,33.71 C35.1750055,39.4700288 36.6449909,44.0149833 38.475,47.345 C40.3050092,50.6750167 42.4049882,52.9549939 44.775,54.185 C47.1450119,55.4150061 49.5599877,56.03 52.02,56.03 C54.4800123,56.03 56.909988,55.4150061 59.31,54.185 C61.710012,52.9549939 63.8549906,50.6750167 65.745,47.345 C67.6350095,44.0149833 69.1499943,39.4700288 70.29,33.71 C71.4300057,27.9499712 72,20.5100456 72,11.39 Z M161.1,-55.57 C167.580032,-55.57 173.339975,-54.6550092 178.38,-52.825 C183.420025,-50.9949908 187.679983,-48.5200156 191.16,-45.4 C194.640017,-42.2799844 197.279991,-38.6650206 199.08,-34.555 C200.880009,-30.4449795 201.78,-26.1100228 201.78,-21.55 C201.78,-17.4099793 201.360004,-13.7650158 200.52,-10.615 C199.679996,-7.46498425 198.435008,-4.73501155 196.785,-2.425 C195.134992,-0.11498845 193.095012,1.8499919 190.665,3.47 C188.234988,5.0900081 185.460016,6.4399946 182.34,7.52 C196.860073,12.5600252 204.12,22.4299265 204.12,37.13 C204.12,44.0900348 202.860013,50.1499742 200.34,55.31 C197.819987,60.4700258 194.445021,64.7599829 190.215,68.18 C185.984979,71.6000171 181.080028,74.1649915 175.5,75.875 C169.919972,77.5850085 164.10003,78.44 158.04,78.44 C151.799969,78.44 146.250024,77.7650067 141.39,76.415 C136.529976,75.0649932 132.210019,72.9650142 128.43,70.115 C124.649981,67.2649857 121.335014,63.6200222 118.485,59.18 C115.634986,54.7399778 113.16001,49.4600306 111.06,43.34 L123.48,38.3 C124.560005,37.8199976 125.624995,37.4900009 126.675,37.31 C127.725005,37.1299991 128.759995,37.04 129.78,37.04 C131.70001,37.04 133.424992,37.4149962 134.955,38.165 C136.485008,38.9150037 137.639996,40.0099928 138.42,41.45 C141.120013,46.4300249 143.984985,50.0449888 147.015,52.295 C150.045015,54.5450113 153.59998,55.67 157.68,55.67 C160.800016,55.67 163.514988,55.1450052 165.825,54.095 C168.135012,53.0449948 170.054992,51.6950083 171.585,50.045 C173.115008,48.3949917 174.269996,46.5200105 175.05,44.42 C175.830004,42.3199895 176.22,40.1900108 176.22,38.03 C176.22,35.2099859 176.025002,32.6750113 175.635,30.425 C175.244998,28.1749888 174.150009,26.2400081 172.35,24.62 C170.549991,22.9999919 167.835018,21.7550044 164.205,20.885 C160.574982,20.0149957 155.520032,19.58 149.04,19.58 L149.04,0.32 C154.500027,0.32 158.909983,-0.0999958 162.27,-0.94 C165.630017,-1.7800042 168.224991,-2.93499265 170.055,-4.405 C171.885009,-5.87500735 173.099997,-7.6599895 173.7,-9.76 C174.300003,-11.8600105 174.6,-14.1699874 174.6,-16.69 C174.6,-21.8500258 173.355012,-25.8249861 170.865,-28.615 C168.374988,-31.405014 164.580026,-32.8 159.48,-32.8 C157.379989,-32.8 155.460009,-32.500003 153.72,-31.9 C151.979991,-31.299997 150.420007,-30.4900051 149.04,-29.47 C147.659993,-28.4499949 146.475005,-27.2500069 145.485,-25.87 C144.494995,-24.4899931 143.700003,-22.9900081 143.1,-21.37 C142.139995,-18.6699865 140.925007,-16.720006 139.455,-15.52 C137.984993,-14.319994 135.990013,-13.72 133.47,-13.72 C132.869997,-13.72 132.225003,-13.7499997 131.535,-13.81 C130.844997,-13.8700003 130.140004,-13.9599994 129.42,-14.08 L114.66,-16.69 C115.620005,-23.2300327 117.464986,-28.9299757 120.195,-33.79 C122.925014,-38.6500243 126.31498,-42.6999838 130.365,-45.94 C134.41502,-49.1800162 139.049974,-51.5949921 144.27,-53.185 C149.490026,-54.775008 155.09997,-55.57 161.1,-55.57 Z" id="03" fill="#FFFFFF" opacity="0.1"></path>
                <g id="Page-1" transform="translate(40.000000, 0.000000)">
                    <g id="Group-3">
                        <mask id="mask-2" fill="white">
                            <use xlink:href="#path-1"></use>
                        </mask>
                        <g id="Clip-2"></g>
                        <polygon id="Fill-1" fill="#FFFFFF" mask="url(#mask-2)" points="-4.65 140.833 140.65 140.833 140.65 -4.833 -4.65 -4.833"></polygon>
                    </g>
                    <g id="Group-42" transform="translate(37.000000, 45.000000)" fill="#F89F03">
                        <path d="M10.0269,8.1875 C9.3089,8.1875 8.7259,8.7705 8.7259,9.4895 L8.7259,35.5105 C8.7259,36.2295 9.3089,36.8125 10.0269,36.8125 C10.7449,36.8125 11.3279,36.2295 11.3279,35.5105 L11.3279,9.4895 C11.3279,8.7705 10.7449,8.1875 10.0269,8.1875" id="Fill-4"></path>
                        <path d="M15.2314,8.1875 C14.5124,8.1875 13.9304,8.7705 13.9304,9.4895 L13.9304,30.3065 C13.9304,31.0245 14.5124,31.6085 15.2314,31.6085 C15.9494,31.6085 16.5324,31.0245 16.5324,30.3065 L16.5324,9.4895 C16.5324,8.7705 15.9494,8.1875 15.2314,8.1875" id="Fill-6"></path>
                        <path d="M20.4355,8.1875 C19.7175,8.1875 19.1345,8.7705 19.1345,9.4895 L19.1345,30.3065 C19.1345,31.0245 19.7175,31.6085 20.4355,31.6085 C21.1535,31.6085 21.7365,31.0245 21.7365,30.3065 L21.7365,9.4895 C21.7365,8.7705 21.1535,8.1875 20.4355,8.1875" id="Fill-8"></path>
                        <path d="M25.6401,8.1875 C24.9221,8.1875 24.3391,8.7705 24.3391,9.4895 L24.3391,30.3065 C24.3391,31.0245 24.9221,31.6085 25.6401,31.6085 C26.3581,31.6085 26.9411,31.0245 26.9411,30.3065 L26.9411,9.4895 C26.9411,8.7705 26.3581,8.1875 25.6401,8.1875" id="Fill-10"></path>
                        <path d="M30.8447,8.1875 C30.1267,8.1875 29.5437,8.7705 29.5437,9.4895 L29.5437,35.5105 C29.5437,36.2295 30.1267,36.8125 30.8447,36.8125 C31.5627,36.8125 32.1457,36.2295 32.1457,35.5105 L32.1457,9.4895 C32.1457,8.7705 31.5627,8.1875 30.8447,8.1875" id="Fill-12"></path>
                        <path d="M36.0493,8.1875 C35.3313,8.1875 34.7483,8.7705 34.7483,9.4895 L34.7483,30.3065 C34.7483,31.0245 35.3313,31.6085 36.0493,31.6085 C36.7673,31.6085 37.3503,31.0245 37.3503,30.3065 L37.3503,9.4895 C37.3503,8.7705 36.7673,8.1875 36.0493,8.1875" id="Fill-14"></path>
                        <path d="M41.2539,8.1875 C40.5359,8.1875 39.9529,8.7705 39.9529,9.4895 L39.9529,30.3065 C39.9529,31.0245 40.5359,31.6085 41.2539,31.6085 C41.9719,31.6085 42.5549,31.0245 42.5549,30.3065 L42.5549,9.4895 C42.5549,8.7705 41.9719,8.1875 41.2539,8.1875" id="Fill-16"></path>
                        <path d="M46.458,8.1875 C45.74,8.1875 45.157,8.7705 45.157,9.4895 L45.157,30.3065 C45.157,31.0245 45.74,31.6085 46.458,31.6085 C47.176,31.6085 47.759,31.0245 47.759,30.3065 L47.759,9.4895 C47.759,8.7705 47.176,8.1875 46.458,8.1875" id="Fill-18"></path>
                        <path d="M51.6626,8.1875 C50.9446,8.1875 50.3616,8.7705 50.3616,9.4895 L50.3616,35.5105 C50.3616,36.2295 50.9446,36.8125 51.6626,36.8125 C52.3806,36.8125 52.9636,36.2295 52.9636,35.5105 L52.9636,9.4895 C52.9636,8.7705 52.3806,8.1875 51.6626,8.1875" id="Fill-20"></path>
                        <path d="M16.1421,34.6006 C15.6731,34.1066 14.7891,34.1066 14.3201,34.6006 C14.0601,34.8346 13.9301,35.1726 13.9301,35.5106 C13.9301,35.8496 14.0601,36.1886 14.3201,36.4216 C14.5551,36.6816 14.8931,36.8126 15.2311,36.8126 C15.5701,36.8126 15.9081,36.6816 16.1421,36.4216 C16.4021,36.1886 16.5331,35.8496 16.5331,35.5106 C16.5331,35.1726 16.4021,34.8346 16.1421,34.6006" id="Fill-22"></path>
                        <path d="M21.3462,34.6006 C20.8782,34.1066 20.0452,34.0796 19.4992,34.6006 C19.2642,34.8346 19.1352,35.1726 19.1352,35.5106 C19.1352,35.8496 19.2642,36.1886 19.5252,36.4486 C19.7852,36.6816 20.0972,36.8126 20.4352,36.8126 C20.7742,36.8126 21.1122,36.6816 21.3462,36.4216 C21.6072,36.1886 21.7372,35.8496 21.7372,35.5106 C21.7372,35.1726 21.6072,34.8346 21.3462,34.6006" id="Fill-24"></path>
                        <path d="M26.5508,34.6006 C26.0828,34.1066 25.1978,34.1066 24.7038,34.6006 C24.4688,34.8346 24.3388,35.1726 24.3388,35.5106 C24.3388,35.8496 24.4688,36.1886 24.7298,36.4216 C24.9638,36.6816 25.3018,36.8126 25.6398,36.8126 C25.9788,36.8126 26.3168,36.6816 26.5508,36.4216 C26.8118,36.1886 26.9418,35.8496 26.9418,35.5106 C26.9418,35.1726 26.8118,34.8346 26.5508,34.6006" id="Fill-26"></path>
                        <path d="M36.96,34.6006 C36.491,34.1066 35.659,34.0796 35.112,34.6006 C34.878,34.8346 34.748,35.1726 34.748,35.5106 C34.748,35.8496 34.878,36.1886 35.139,36.4486 C35.398,36.6816 35.711,36.8126 36.049,36.8126 C36.388,36.8126 36.726,36.6816 36.96,36.4216 C37.22,36.1886 37.35,35.8496 37.35,35.5106 C37.35,35.1726 37.22,34.8346 36.96,34.6006" id="Fill-28"></path>
                        <path d="M42.1646,34.6006 C41.6956,34.1066 40.8116,34.1066 40.3436,34.6006 C40.0826,34.8346 39.9526,35.1726 39.9526,35.5106 C39.9526,35.8496 40.0826,36.1886 40.3436,36.4216 C40.5776,36.6816 40.9156,36.8126 41.2536,36.8126 C41.5926,36.8126 41.9306,36.6816 42.1646,36.4216 C42.4246,36.1886 42.5546,35.8496 42.5546,35.5106 C42.5546,35.1726 42.4246,34.8346 42.1646,34.6006" id="Fill-30"></path>
                        <path d="M47.3691,34.6006 C46.9001,34.1066 46.0671,34.0796 45.5211,34.6006 C45.2871,34.8346 45.1571,35.1726 45.1571,35.5106 C45.1571,35.8496 45.2871,36.1626 45.5471,36.4486 C45.8071,36.6816 46.1191,36.8126 46.4581,36.8126 C46.7961,36.8126 47.1351,36.6816 47.3691,36.4216 C47.6291,36.1886 47.7591,35.8496 47.7591,35.5106 C47.7591,35.1726 47.6291,34.8346 47.3691,34.6006" id="Fill-32"></path>
                        <path d="M10.0269,0.3809 L2.2199,0.3809 C1.5019,0.3809 0.9189,0.9639 0.9189,1.6829 L0.9189,9.4889 C0.9189,10.2069 1.5019,10.7899 2.2199,10.7899 C2.9389,10.7899 3.5209,10.2069 3.5209,9.4889 L3.5209,2.9839 L10.0269,2.9839 C10.7449,2.9839 11.3279,2.4009 11.3279,1.6819 C11.3279,0.9639 10.7449,0.3809 10.0269,0.3809" id="Fill-34"></path>
                        <path d="M10.0269,42.0166 L3.5209,42.0166 L3.5209,35.5106 C3.5209,34.7926 2.9389,34.2096 2.2199,34.2096 C1.5019,34.2096 0.9189,34.7926 0.9189,35.5106 L0.9189,43.3186 C0.9189,44.0366 1.5019,44.6196 2.2199,44.6196 L10.0269,44.6196 C10.7449,44.6196 11.3279,44.0366 11.3279,43.3186 C11.3279,42.5996 10.7449,42.0166 10.0269,42.0166" id="Fill-36"></path>
                        <path d="M59.4692,0.3809 L51.6622,0.3809 C50.9452,0.3809 50.3612,0.9639 50.3612,1.6829 C50.3612,2.4009 50.9452,2.9839 51.6622,2.9839 L58.1682,2.9839 L58.1682,9.4889 C58.1682,10.2069 58.7512,10.7899 59.4692,10.7899 C60.1872,10.7899 60.7702,10.2069 60.7702,9.4889 L60.7702,1.6819 C60.7702,0.9639 60.1872,0.3809 59.4692,0.3809" id="Fill-38"></path>
                        <path d="M59.4692,34.21 C58.7512,34.21 58.1682,34.793 58.1682,35.511 L58.1682,42.017 L51.6622,42.017 C50.9452,42.017 50.3612,42.6 50.3612,43.318 C50.3612,44.036 50.9452,44.619 51.6622,44.619 L59.4692,44.619 C60.1872,44.619 60.7702,44.036 60.7702,43.318 L60.7702,35.511 C60.7702,34.793 60.1872,34.21 59.4692,34.21" id="Fill-40"></path>
                    </g>
                </g>
            </g>
        </g>
    </g>
</svg>