<?xml version="1.0" encoding="UTF-8" standalone="no"?>
<svg width="203px" height="198px" viewBox="0 0 203 198" version="1.1" xmlns="http://www.w3.org/2000/svg" xmlns:xlink="http://www.w3.org/1999/xlink">
    <!-- Generator: Sketch 49.3 (51167) - http://www.bohemiancoding.com/sketch -->
    <title>4</title>
    <desc>Created with Sketch.</desc>
    <defs>
        <path d="M0.35,68 C0.35,105.463 30.637,135.833 68,135.833 C105.363,135.833 135.65,105.463 135.65,68 C135.65,30.537 105.363,0.167 68,0.167 C30.637,0.167 0.35,30.537 0.35,68 Z M4.45,68 C4.45,32.807 32.903,4.278 68,4.278 C103.098,4.278 131.55,32.807 131.55,68 C131.55,103.192 103.098,131.723 68,131.723 C32.903,131.723 4.45,103.192 4.45,68 Z" id="path-1"></path>
        <polygon id="path-3" points="0 148 164 148 164 0 0 0"></polygon>
    </defs>
    <g id="Page-1" stroke="none" stroke-width="1" fill="none" fill-rule="evenodd">
        <g id="4" transform="translate(-21.000000, -24.000000)">
            <g id="Group" transform="translate(18.000000, 80.000000)">
                <path d="M100.8,11.39 C100.8,22.8500573 99.5700123,32.779958 97.11,41.18 C94.6499877,49.580042 91.2450218,56.5399724 86.895,62.06 C82.5449783,67.5800276 77.3850299,71.6899865 71.415,74.39 C65.4449702,77.0900135 58.9800348,78.44 52.02,78.44 C45.0599652,78.44 38.6250295,77.0900135 32.715,74.39 C26.8049704,71.6899865 21.6900216,67.5800276 17.37,62.06 C13.0499784,56.5399724 9.67501215,49.580042 7.245,41.18 C4.81498785,32.779958 3.6,22.8500573 3.6,11.39 C3.6,-0.0700573 4.81498785,-9.999958 7.245,-18.4 C9.67501215,-26.800042 13.0499784,-33.7599724 17.37,-39.28 C21.6900216,-44.8000276 26.8049704,-48.8949866 32.715,-51.565 C38.6250295,-54.2350134 45.0599652,-55.57 52.02,-55.57 C58.9800348,-55.57 65.4449702,-54.2350134 71.415,-51.565 C77.3850299,-48.8949866 82.5449783,-44.8000276 86.895,-39.28 C91.2450218,-33.7599724 94.6499877,-26.800042 97.11,-18.4 C99.5700123,-9.999958 100.8,-0.0700573 100.8,11.39 Z M72,11.39 C72,2.3299547 71.4300057,-5.09497105 70.29,-10.885 C69.1499943,-16.6750289 67.6350095,-21.2199835 65.745,-24.52 C63.8549906,-27.8200165 61.710012,-30.0849938 59.31,-31.315 C56.909988,-32.5450062 54.4800123,-33.16 52.02,-33.16 C49.5599877,-33.16 47.1450119,-32.5450062 44.775,-31.315 C42.4049882,-30.0849938 40.3050092,-27.8200165 38.475,-24.52 C36.6449909,-21.2199835 35.1750055,-16.6750289 34.065,-10.885 C32.9549945,-5.09497105 32.4,2.3299547 32.4,11.39 C32.4,20.5100456 32.9549945,27.9499712 34.065,33.71 C35.1750055,39.4700288 36.6449909,44.0149833 38.475,47.345 C40.3050092,50.6750167 42.4049882,52.9549939 44.775,54.185 C47.1450119,55.4150061 49.5599877,56.03 52.02,56.03 C54.4800123,56.03 56.909988,55.4150061 59.31,54.185 C61.710012,52.9549939 63.8549906,50.6750167 65.745,47.345 C67.6350095,44.0149833 69.1499943,39.4700288 70.29,33.71 C71.4300057,27.9499712 72,20.5100456 72,11.39 Z M192.24,26.06 L205.74,26.06 L205.74,41.72 C205.74,43.1000069 205.275005,44.2999949 204.345,45.32 C203.414995,46.3400051 202.080009,46.85 200.34,46.85 L192.24,46.85 L192.24,77 L167.94,77 L167.94,46.85 L115.2,46.85 C113.459991,46.85 111.885007,46.3100054 110.475,45.23 C109.064993,44.1499946 108.180002,42.8000081 107.82,41.18 L104.94,27.41 L165.6,-54.13 L192.24,-54.13 L192.24,26.06 Z M167.94,-8.14 C167.94,-10.2400105 168.014999,-12.5049878 168.165,-14.935 C168.315001,-17.3650121 168.539999,-19.8699871 168.84,-22.45 L134.19,26.06 L167.94,26.06 L167.94,-8.14 Z" id="04" fill="#FFFFFF" opacity="0.139832428"></path>
                <g id="Page-1" transform="translate(28.000000, 0.000000)">
                    <g id="Group-3" transform="translate(14.000000, 6.000000)">
                        <mask id="mask-2" fill="white">
                            <use xlink:href="#path-1"></use>
                        </mask>
                        <g id="Clip-2"></g>
                        <polygon id="Fill-1" fill="#FFFFFF" mask="url(#mask-2)" points="-4.65 140.833 140.65 140.833 140.65 -4.833 -4.65 -4.833"></polygon>
                    </g>
                    <g id="Group-26">
                        <path d="M64.6138,64.8809 L63.0598,60.8009 L66.1688,60.8009 L64.6138,64.8809 Z M74.2298,63.7149 L74.2298,65.6579 L85.8848,65.6579 C86.4678,65.6579 86.8568,65.2689 86.8568,64.6869 L86.8568,59.8299 C86.8568,59.2469 86.4678,58.8599 85.8848,58.8599 L59.6608,58.8599 C55.8728,58.8599 52.8618,61.8699 52.8618,65.6579 L52.8618,79.2559 L54.8038,79.2559 L54.8038,65.6579 C54.8038,62.9379 56.9408,60.8009 59.6608,60.8009 L60.9238,60.8009 L63.6428,67.9879 C63.7398,68.2799 64.1288,68.5709 64.5168,68.5709 C64.9058,68.5709 65.2938,68.2799 65.5858,67.9879 L68.3048,60.8009 L84.9138,60.8009 L84.9138,63.7149 L74.2298,63.7149 Z" id="Fill-4" fill="#F89F03"></path>
                        <path d="M69.373,98.6807 L65.489,98.6807 L65.489,80.2277 L63.545,80.2277 L63.545,98.6807 L59.661,98.6807 L59.661,66.6287 L57.718,66.6287 L57.718,99.6527 C57.718,100.2357 58.106,100.6237 58.689,100.6237 L64.517,100.6237 L70.345,100.6237 C70.928,100.6237 71.316,100.2357 71.316,99.6527 L71.316,66.6287 L69.373,66.6287 L69.373,98.6807 Z" id="Fill-6" fill="#F89F03"></path>
                        <mask id="mask-4" fill="white">
                            <use xlink:href="#path-3"></use>
                        </mask>
                        <g id="Clip-9"></g>
                        <polygon id="Fill-8" fill="#F89F03" mask="url(#mask-4)" points="63.545 72.456 65.488 72.456 65.488 70.515 63.545 70.515"></polygon>
                        <polygon id="Fill-10" fill="#F89F03" mask="url(#mask-4)" points="63.545 76.341 65.488 76.341 65.488 74.399 63.545 74.399"></polygon>
                        <path d="M60.6318,50.1172 C60.6318,48.4662 61.8948,47.2032 63.5458,47.2032 L65.4888,47.2032 C67.1398,47.2032 68.4028,48.4662 68.4028,50.1172 L68.4028,53.0312 C68.4028,54.6822 67.1398,55.9452 65.4888,55.9452 L63.5458,55.9452 C61.8948,55.9452 60.6318,54.6822 60.6318,53.0312 L60.6318,50.1172 Z M63.5458,57.8872 L65.4888,57.8872 C68.2078,57.8872 70.3448,55.7502 70.3448,53.0312 L70.3448,50.1172 C70.3448,47.3972 68.2078,45.2612 65.4888,45.2612 L63.5458,45.2612 C60.8268,45.2612 58.6898,47.3972 58.6898,50.1172 L58.6898,53.0312 C58.6898,55.7502 60.8268,57.8872 63.5458,57.8872 Z" id="Fill-11" fill="#F89F03" mask="url(#mask-4)"></path>
                        <path d="M82.971,54.003 L102.397,54.003 L102.397,44.29 L82.971,44.29 L82.971,54.003 Z M82,55.945 L103.368,55.945 C103.951,55.945 104.339,55.556 104.339,54.974 L104.339,43.318 C104.339,42.735 103.951,42.347 103.368,42.347 L82,42.347 C81.417,42.347 81.029,42.735 81.029,43.318 L81.029,54.974 C81.029,55.556 81.417,55.945 82,55.945 Z" id="Fill-12" fill="#F89F03" mask="url(#mask-4)"></path>
                        <path d="M77.143,86.055 L88.799,86.055 L88.799,80.228 L77.143,80.228 L77.143,86.055 Z M77.143,98.681 L88.799,98.681 L88.799,92.854 L77.143,92.854 L77.143,98.681 Z M89.77,78.283 L76.172,78.283 C75.589,78.283 75.201,78.673 75.201,79.256 L75.201,87.025 C75.201,87.608 75.589,87.997 76.172,87.997 L82,87.997 L82,90.911 L76.172,90.911 C75.589,90.911 75.201,91.299 75.201,91.882 L75.201,99.652 C75.201,100.235 75.589,100.624 76.172,100.624 L89.77,100.624 C90.353,100.624 90.741,100.235 90.741,99.652 L90.741,91.882 C90.741,91.299 90.353,90.911 89.77,90.911 L83.942,90.911 L83.942,87.997 L89.77,87.997 C90.353,87.997 90.741,87.608 90.741,87.025 L90.741,79.256 C90.741,78.673 90.353,78.283 89.77,78.283 Z" id="Fill-13" fill="#F89F03" mask="url(#mask-4)"></path>
                        <path d="M97.541,86.055 L109.196,86.055 L109.196,80.228 L97.541,80.228 L97.541,86.055 Z M97.541,98.681 L109.196,98.681 L109.196,92.854 L97.541,92.854 L97.541,98.681 Z M110.167,87.997 C110.75,87.997 111.138,87.608 111.138,87.025 L111.138,79.256 C111.138,78.673 110.75,78.283 110.167,78.283 L96.569,78.283 C95.986,78.283 95.598,78.673 95.598,79.256 L95.598,87.025 C95.598,87.608 95.986,87.997 96.569,87.997 L102.397,87.997 L102.397,90.911 L96.569,90.911 C95.986,90.911 95.598,91.299 95.598,91.882 L95.598,99.652 C95.598,100.235 95.986,100.624 96.569,100.624 L110.167,100.624 C110.75,100.624 111.138,100.235 111.138,99.652 L111.138,91.882 C111.138,91.299 110.75,90.911 110.167,90.911 L104.339,90.911 L104.339,87.997 L110.167,87.997 Z" id="Fill-14" fill="#F89F03" mask="url(#mask-4)"></path>
                        <path d="M104.3389,76.3418 L104.3389,73.4278 C104.3389,72.8458 103.9509,72.4558 103.3679,72.4558 L93.6549,72.4558 L93.6549,57.8868 L91.7129,57.8868 L91.7129,72.4558 L82.9709,72.4558 C82.3879,72.4558 81.9999,72.8458 81.9999,73.4278 L81.9999,76.3418 L83.9429,76.3418 L83.9429,74.3998 L102.3969,74.3998 L102.3969,76.3418 L104.3389,76.3418 Z" id="Fill-15" fill="#F89F03" mask="url(#mask-4)"></path>
                        <polygon id="Fill-16" fill="#F89F03" mask="url(#mask-4)" points="84.914 48.174 96.57 48.174 96.57 46.231 84.914 46.231"></polygon>
                        <polygon id="Fill-17" fill="#F89F03" mask="url(#mask-4)" points="84.914 52.059 100.455 52.059 100.455 50.117 84.914 50.117"></polygon>
                        <polygon id="Fill-18" fill="#F89F03" mask="url(#mask-4)" points="80.058 84.111 82 84.111 82 82.17 80.058 82.17"></polygon>
                        <polygon id="Fill-19" fill="#F89F03" mask="url(#mask-4)" points="83.942 84.111 85.885 84.111 85.885 82.17 83.942 82.17"></polygon>
                        <polygon id="Fill-20" fill="#F89F03" mask="url(#mask-4)" points="80.058 96.739 82 96.739 82 94.796 80.058 94.796"></polygon>
                        <polygon id="Fill-21" fill="#F89F03" mask="url(#mask-4)" points="83.942 96.739 85.885 96.739 85.885 94.796 83.942 94.796"></polygon>
                        <polygon id="Fill-22" fill="#F89F03" mask="url(#mask-4)" points="100.455 96.739 102.397 96.739 102.397 94.796 100.455 94.796"></polygon>
                        <polygon id="Fill-23" fill="#F89F03" mask="url(#mask-4)" points="104.339 96.739 106.282 96.739 106.282 94.796 104.339 94.796"></polygon>
                        <polygon id="Fill-24" fill="#F89F03" mask="url(#mask-4)" points="100.455 84.111 102.397 84.111 102.397 82.17 100.455 82.17"></polygon>
                        <polygon id="Fill-25" fill="#F89F03" mask="url(#mask-4)" points="104.339 84.111 106.282 84.111 106.282 82.17 104.339 82.17"></polygon>
                    </g>
                </g>
            </g>
        </g>
    </g>
</svg>