<?xml version="1.0" encoding="UTF-8" standalone="no"?>
<svg width="197px" height="199px" viewBox="0 0 197 199" version="1.1" xmlns="http://www.w3.org/2000/svg" xmlns:xlink="http://www.w3.org/1999/xlink">
    <!-- Generator: Sketch 49.3 (51167) - http://www.bohemiancoding.com/sketch -->
    <title>5</title>
    <desc>Created with Sketch.</desc>
    <defs>
        <path d="M0.35,68 C0.35,105.463 30.637,135.833 68,135.833 C105.363,135.833 135.65,105.463 135.65,68 C135.65,30.537 105.363,0.167 68,0.167 C30.637,0.167 0.35,30.537 0.35,68 Z M4.45,68 C4.45,32.807 32.903,4.278 68,4.278 C103.098,4.278 131.55,32.807 131.55,68 C131.55,103.192 103.098,131.723 68,131.723 C32.903,131.723 4.45,103.192 4.45,68 Z" id="path-1"></path>
    </defs>
    <g id="Page-1" stroke="none" stroke-width="1" fill="none" fill-rule="evenodd">
        <g id="5" transform="translate(-23.000000, -23.000000)">
            <g id="Group" transform="translate(20.000000, 86.000000)">
                <path d="M100.8,4.39 C100.8,15.8500573 99.5700123,25.779958 97.11,34.18 C94.6499877,42.580042 91.2450218,49.5399724 86.895,55.06 C82.5449783,60.5800276 77.3850299,64.6899865 71.415,67.39 C65.4449702,70.0900135 58.9800348,71.44 52.02,71.44 C45.0599652,71.44 38.6250295,70.0900135 32.715,67.39 C26.8049704,64.6899865 21.6900216,60.5800276 17.37,55.06 C13.0499784,49.5399724 9.67501215,42.580042 7.245,34.18 C4.81498785,25.779958 3.6,15.8500573 3.6,4.39 C3.6,-7.0700573 4.81498785,-16.999958 7.245,-25.4 C9.67501215,-33.800042 13.0499784,-40.7599724 17.37,-46.28 C21.6900216,-51.8000276 26.8049704,-55.8949866 32.715,-58.565 C38.6250295,-61.2350134 45.0599652,-62.57 52.02,-62.57 C58.9800348,-62.57 65.4449702,-61.2350134 71.415,-58.565 C77.3850299,-55.8949866 82.5449783,-51.8000276 86.895,-46.28 C91.2450218,-40.7599724 94.6499877,-33.800042 97.11,-25.4 C99.5700123,-16.999958 100.8,-7.0700573 100.8,4.39 Z M72,4.39 C72,-4.6700453 71.4300057,-12.094971 70.29,-17.885 C69.1499943,-23.6750289 67.6350095,-28.2199835 65.745,-31.52 C63.8549906,-34.8200165 61.710012,-37.0849938 59.31,-38.315 C56.909988,-39.5450062 54.4800123,-40.16 52.02,-40.16 C49.5599877,-40.16 47.1450119,-39.5450062 44.775,-38.315 C42.4049882,-37.0849938 40.3050092,-34.8200165 38.475,-31.52 C36.6449909,-28.2199835 35.1750055,-23.6750289 34.065,-17.885 C32.9549945,-12.094971 32.4,-4.6700453 32.4,4.39 C32.4,13.5100456 32.9549945,20.9499712 34.065,26.71 C35.1750055,32.4700288 36.6449909,37.0149833 38.475,40.345 C40.3050092,43.6750167 42.4049882,45.9549939 44.775,47.185 C47.1450119,48.4150061 49.5599877,49.03 52.02,49.03 C54.4800123,49.03 56.909988,48.4150061 59.31,47.185 C61.710012,45.9549939 63.8549906,43.6750167 65.745,40.345 C67.6350095,37.0149833 69.1499943,32.4700288 70.29,26.71 C71.4300057,20.9499712 72,13.5100456 72,4.39 Z M194.22,-49.61 C194.22,-47.6899904 193.920003,-45.9500078 193.32,-44.39 C192.719997,-42.8299922 191.775006,-41.4650059 190.485,-40.295 C189.194994,-39.1249942 187.500011,-38.2250031 185.4,-37.595 C183.29999,-36.9649968 180.780015,-36.65 177.84,-36.65 L146.52,-36.65 L142.83,-14.96 C145.290012,-15.3800021 147.659989,-15.694999 149.94,-15.905 C152.220011,-16.115001 154.439989,-16.22 156.6,-16.22 C163.500034,-16.22 169.589974,-15.1700105 174.87,-13.07 C180.150026,-10.9699895 184.589982,-8.10501815 188.19,-4.475 C191.790018,-0.84498185 194.504991,3.41497555 196.335,8.305 C198.165009,13.1950245 199.08,18.4299721 199.08,24.01 C199.08,31.0300351 197.835012,37.4349711 195.345,43.225 C192.854988,49.015029 189.390022,54.009979 184.95,58.21 C180.509978,62.410021 175.215031,65.6649885 169.065,67.975 C162.914969,70.2850115 156.180037,71.44 148.86,71.44 C144.599979,71.44 140.535019,70.9900045 136.665,70.09 C132.794981,69.1899955 129.165017,67.9750077 125.775,66.445 C122.384983,64.9149924 119.250014,63.14501 116.37,61.135 C113.489986,59.1249899 110.880012,56.9800114 108.54,54.7 L117.18,43.18 C118.080004,41.979994 119.129994,41.0650031 120.33,40.435 C121.530006,39.8049969 122.819993,39.49 124.2,39.49 C126.000009,39.49 127.694992,39.9849951 129.285,40.975 C130.875008,41.965005 132.614991,43.0449942 134.505,44.215 C136.395009,45.3850058 138.599987,46.4499952 141.12,47.41 C143.640013,48.3700048 146.759981,48.85 150.48,48.85 C154.200019,48.85 157.379987,48.2350062 160.02,47.005 C162.660013,45.7749939 164.804992,44.0950107 166.455,41.965 C168.105008,39.8349894 169.304996,37.3450142 170.055,34.495 C170.805004,31.6449858 171.18,28.6000162 171.18,25.36 C171.18,18.9999682 169.380018,14.1550166 165.78,10.825 C162.179982,7.49498335 157.080033,5.83 150.48,5.83 C144.599971,5.83 138.840028,6.9399889 133.2,9.16 L115.92,4.48 L127.08,-61.13 L194.22,-61.13 L194.22,-49.61 Z" id="05" fill="#FFFFFF" opacity="0.1"></path>
                <g id="Page-1" transform="translate(40.000000, 0.000000)">
                    <g id="Group-3">
                        <mask id="mask-2" fill="white">
                            <use xlink:href="#path-1"></use>
                        </mask>
                        <g id="Clip-2"></g>
                        <polygon id="Fill-1" fill="#FFFFFF" mask="url(#mask-2)" points="-4.65 140.833 140.65 140.833 140.65 -4.833 -4.65 -4.833"></polygon>
                    </g>
                    <g id="Group-18" transform="translate(43.000000, 31.000000)" fill="#F89F03">
                        <path d="M45.9526,55.6777 C45.9526,57.2057 44.7086,58.4497 43.1806,58.4497 L13.7336,58.4497 C14.0366,57.9057 14.2116,57.2807 14.2116,56.6147 L14.2116,33.2577 L17.4756,33.2577 C19.2736,33.2577 20.8896,32.2587 21.6926,30.6517 L22.4306,29.1767 C22.9036,28.2307 23.8526,27.6437 24.9096,27.6437 L34.3176,27.6437 C35.3746,27.6437 36.3246,28.2307 36.7976,29.1767 L37.5356,30.6517 C38.3386,32.2587 39.9546,33.2577 41.7506,33.2577 L43.1806,33.2577 C44.7086,33.2577 45.9526,34.5007 45.9526,36.0297 L45.9526,55.6777 Z M2.0476,55.6777 L2.0476,36.0297 C2.0476,34.5007 3.2906,33.2577 4.8196,33.2577 L12.2686,33.2577 L12.2686,35.0597 C10.2026,35.0777 8.5266,36.7647 8.5266,38.8367 L8.5266,58.4497 L4.8196,58.4497 C3.2906,58.4497 2.0476,57.2057 2.0476,55.6777 Z M8.5616,30.4507 L10.4326,30.4507 C10.9176,30.4507 11.3126,30.8367 11.3316,31.3157 L7.6636,31.3157 C7.6826,30.8367 8.0776,30.4507 8.5616,30.4507 Z M10.4686,58.4487 L10.4686,38.8367 C10.4686,37.8357 11.2726,37.0217 12.2686,37.0027 L12.2686,56.6147 C12.2686,57.6137 11.4646,58.4287 10.4686,58.4487 Z M28.2456,25.7027 L30.9806,25.7027 L30.9806,23.9017 L28.2456,23.9017 L28.2456,25.7027 Z M22.0116,17.8597 L20.8866,12.2387 C20.8796,12.2027 20.8746,12.1667 20.8686,12.1307 C21.4656,12.4757 22.1596,12.6737 22.8976,12.6737 L36.3296,12.6737 C37.0686,12.6737 37.7616,12.4757 38.3596,12.1307 C38.3526,12.1667 38.3476,12.2027 38.3406,12.2387 L37.2166,17.8597 C36.9776,19.0527 35.9836,19.9427 34.7956,20.0707 L34.7956,17.5167 C34.7956,15.8387 33.4306,14.4737 31.7516,14.4737 L27.4746,14.4737 C25.7976,14.4737 24.4316,15.8387 24.4316,17.5167 L24.4316,20.0707 C23.2446,19.9427 22.2496,19.0527 22.0116,17.8597 Z M20.7606,4.5177 C20.7606,3.3407 21.7196,2.3807 22.8976,2.3807 L36.3296,2.3807 C37.5086,2.3807 38.4666,3.3407 38.4666,4.5177 L38.4666,7.9597 L38.4666,8.5947 C38.4666,9.7727 37.5086,10.7307 36.3296,10.7307 L22.8976,10.7307 C21.7196,10.7307 20.7606,9.7727 20.7606,8.5947 L20.7606,4.5177 Z M27.4746,21.9587 C26.8686,21.9587 26.3746,21.4657 26.3746,20.8587 L26.3746,20.1587 L32.8526,20.1587 L32.8526,20.8587 C32.8526,21.4657 32.3596,21.9587 31.7516,21.9587 L27.4746,21.9587 Z M32.8536,18.2167 L26.3746,18.2167 L26.3746,17.5167 C26.3746,16.9097 26.8686,16.4157 27.4746,16.4157 L31.7526,16.4157 C32.3596,16.4157 32.8536,16.9097 32.8536,17.5167 L32.8536,18.2167 Z M43.1806,31.3157 L41.7506,31.3157 C40.6946,31.3157 39.7446,30.7297 39.2716,29.7837 L38.5346,28.3077 C37.7306,26.6997 36.1156,25.7017 34.3176,25.7017 L32.9246,25.7017 L32.9246,23.6667 C33.6606,23.3577 34.2526,22.7667 34.5606,22.0287 C36.7736,21.9997 38.6856,20.4167 39.1206,18.2407 L40.2446,12.6197 C40.3536,12.0747 40.4096,11.5177 40.4096,10.9617 L40.4096,8.5947 L40.4096,7.9597 L40.4096,4.5177 C40.4096,2.2697 38.5786,0.4397 36.3296,0.4397 L22.8976,0.4397 C20.6476,0.4397 18.8186,2.2697 18.8186,4.5177 L18.8186,8.5947 C18.8186,8.6617 18.8206,8.7297 18.8236,8.7957 C18.8196,8.8287 18.8186,8.8617 18.8186,8.8957 L18.8186,10.9617 C18.8186,11.5177 18.8736,12.0747 18.9826,12.6197 L20.1066,18.2407 C20.5416,20.4167 22.4536,21.9997 24.6666,22.0287 C24.9746,22.7667 25.5666,23.3577 26.3036,23.6667 L26.3036,25.7017 L24.9096,25.7017 C23.1126,25.7017 21.4976,26.6997 20.6936,28.3077 L19.9546,29.7837 C19.4826,30.7277 18.5336,31.3157 17.4766,31.3157 L13.2746,31.3157 C13.2556,29.7647 11.9886,28.5087 10.4326,28.5087 L8.5616,28.5087 C7.0066,28.5087 5.7396,29.7647 5.7206,31.3157 L4.8196,31.3157 C2.2206,31.3157 0.1056,33.4297 0.1056,36.0297 L0.1056,55.6767 C0.1056,58.2777 2.2206,60.3917 4.8196,60.3917 L9.5616,60.3917 L10.4326,60.3917 L43.1806,60.3917 C45.7796,60.3917 47.8946,58.2777 47.8946,55.6767 L47.8946,36.0297 C47.8946,33.4307 45.7796,31.3157 43.1806,31.3157 Z" id="Fill-4"></path>
                        <path d="M25.4033,30.4512 L33.8233,30.4512 C34.3613,30.4512 34.7953,30.0162 34.7953,29.4802 C34.7953,28.9442 34.3613,28.5092 33.8233,28.5092 L25.4033,28.5092 C24.8663,28.5092 24.4323,28.9442 24.4323,29.4802 C24.4323,30.0162 24.8663,30.4512 25.4033,30.4512" id="Fill-6"></path>
                        <path d="M29.6133,50.9648 C25.7643,50.9648 22.6323,47.8328 22.6323,43.9828 C22.6323,40.1318 25.7643,37.0008 29.6133,37.0008 C33.4643,37.0008 36.5953,40.1318 36.5953,43.9828 C36.5953,47.8328 33.4643,50.9648 29.6133,50.9648 M29.6133,35.0588 C24.6933,35.0588 20.6903,39.0618 20.6903,43.9828 C20.6903,48.9028 24.6933,52.9058 29.6133,52.9058 C34.5343,52.9058 38.5383,48.9028 38.5383,43.9828 C38.5383,39.0618 34.5343,35.0588 29.6133,35.0588" id="Fill-8"></path>
                        <path d="M29.6133,46.2861 C28.3433,46.2861 27.3103,45.2531 27.3103,43.9821 C27.3103,42.7131 28.3433,41.6791 29.6133,41.6791 C30.8843,41.6791 31.9183,42.7131 31.9183,43.9821 C31.9183,45.2531 30.8843,46.2861 29.6133,46.2861 M29.6133,39.7351 C27.2723,39.7351 25.3683,41.6401 25.3683,43.9821 C25.3683,46.3231 27.2723,48.2281 29.6133,48.2281 C31.9553,48.2281 33.8603,46.3231 33.8603,43.9821 C33.8603,41.6401 31.9553,39.7351 29.6133,39.7351" id="Fill-10"></path>
                        <path d="M41.3091,38.7998 C41.2611,38.7998 41.2131,38.7958 41.1651,38.7868 C40.9691,38.3508 40.7481,37.9298 40.5051,37.5238 C40.6491,37.2108 40.9571,37.0008 41.3091,37.0008 C41.8061,37.0008 42.2091,37.4038 42.2091,37.9018 C42.2091,38.3968 41.8061,38.7998 41.3091,38.7998 M29.6131,54.7068 C23.7001,54.7068 18.8901,49.8958 18.8901,43.9828 C18.8901,38.0698 23.7001,33.2578 29.6131,33.2578 C35.5271,33.2578 40.3381,38.0688 40.3381,43.9828 C40.3381,49.8958 35.5281,54.7068 29.6131,54.7068 M41.3091,35.0588 C40.5491,35.0588 39.8471,35.3628 39.3311,35.8678 C37.0061,33.0868 33.5131,31.3158 29.6131,31.3158 C22.6291,31.3158 16.9471,36.9978 16.9471,43.9828 C16.9471,50.9668 22.6291,56.6498 29.6131,56.6498 C36.5981,56.6498 42.2811,50.9668 42.2811,43.9828 C42.2811,42.8438 42.1291,41.7408 41.8461,40.6928 C43.1581,40.4408 44.1511,39.2848 44.1511,37.9018 C44.1511,36.3328 42.8761,35.0588 41.3091,35.0588" id="Fill-12"></path>
                        <path d="M23.5322,6.124 L35.6962,6.124 C36.2322,6.124 36.6662,5.689 36.6662,5.153 C36.6662,4.616 36.2322,4.182 35.6962,4.182 L23.5322,4.182 C22.9962,4.182 22.5612,4.616 22.5612,5.153 C22.5612,5.689 22.9962,6.124 23.5322,6.124" id="Fill-14"></path>
                        <path d="M23.5322,8.9307 L35.6962,8.9307 C36.2322,8.9307 36.6662,8.4947 36.6662,7.9597 C36.6662,7.4237 36.2322,6.9897 35.6962,6.9897 L23.5322,6.9897 C22.9962,6.9897 22.5612,7.4237 22.5612,7.9597 C22.5612,8.4947 22.9962,8.9307 23.5322,8.9307" id="Fill-16"></path>
                    </g>
                </g>
            </g>
        </g>
    </g>
</svg>