<?xml version="1.0" encoding="UTF-8" standalone="no"?>
<svg width="20px" height="14px" viewBox="0 0 20 14" version="1.1" xmlns="http://www.w3.org/2000/svg" xmlns:xlink="http://www.w3.org/1999/xlink">
    <!-- Generator: Sketch 49.3 (51167) - http://www.bohemiancoding.com/sketch -->
    <title>Page 1</title>
    <desc>Created with Sketch.</desc>
    <defs>
        <polygon id="path-1" points="0 0 20 0 20 14 0 14"></polygon>
    </defs>
    <g id="Page-1" stroke="none" stroke-width="1" fill="none" fill-rule="evenodd">
        <g id="Portert_biznesowy" transform="translate(-200.000000, -1148.000000)">
            <g id="Group-3" transform="translate(150.000000, 1148.000000)">
                <g id="Page-1" transform="translate(50.000000, 0.000000)">
                    <mask id="mask-2" fill="white">
                        <use xlink:href="#path-1"></use>
                    </mask>
                    <g id="Clip-2"></g>
                    <path d="M13.4677746,0.210543102 C13.1952972,-0.0701810341 12.7418289,-0.0701810341 12.4598098,0.210543102 C12.187366,0.481801621 12.187366,0.933241353 12.4598098,1.20386437 L17.5706591,6.29181793 L0.705585409,6.29181793 C0.312458659,6.29248687 0,6.60358126 0,6.99494944 C0,7.38631762 0.312458659,7.70754657 0.705585409,7.70754657 L17.5706591,7.70754657 L12.4598098,12.7860345 C12.187366,13.0667586 12.187366,13.5188339 12.4598098,13.7894569 C12.7418289,14.070181 13.1959355,14.070181 13.4677746,13.7894569 L19.7885108,7.49699511 C20.0704964,7.22570314 20.0704964,6.77426341 19.7885108,6.50364039 L13.4677746,0.210543102 Z" id="Fill-1" fill="#F89F03" mask="url(#mask-2)"></path>
                </g>
            </g>
        </g>
    </g>
</svg>