<?xml version="1.0" encoding="UTF-8" standalone="no"?>
<svg width="26px" height="27px" viewBox="0 0 26 27" version="1.1" xmlns="http://www.w3.org/2000/svg" xmlns:xlink="http://www.w3.org/1999/xlink">
    <!-- Generator: Sketch 49.3 (51167) - http://www.bohemiancoding.com/sketch -->
    <title>icon-random copy 2</title>
    <desc>Created with Sketch.</desc>
    <defs>
        <polygon id="path-1" points="0.00048 0.288711111 23.7136 0.288711111 23.7136 24.1666667 0.00048 24.1666667"></polygon>
    </defs>
    <g id="Page-1" stroke="none" stroke-width="1" fill="none" fill-rule="evenodd">
        <g id="Home" transform="translate(-1384.000000, -30.000000)">
            <g id="icon-random-copy-16" transform="translate(1381.000000, 29.000000)">
                <g id="Page-1" stroke-width="1" fill-rule="evenodd" transform="translate(4.800000, 1.611111)">
                    <g id="Group-3" transform="translate(0.000000, 1.323206)">
                        <mask id="mask-2" fill="white">
                            <use xlink:href="#path-1"></use>
                        </mask>
                        <g id="Clip-2"></g>
                    </g>
                    <g id="Group" transform="translate(4.800000, 3.222222)" fill="#F89F03">
                        <path d="M6.40073327,13.3636572 C4.37690192,13.3636572 2.72850596,11.7052908 2.72850596,9.66740503 C2.72850596,7.62804257 4.37543538,5.96819941 6.40073327,5.96819941 C8.42456462,5.96819941 10.0729606,7.62804257 10.0729606,9.66740503 C10.0729606,11.7052908 8.42456462,13.3636572 6.40073327,13.3636572 M6.40073327,4.02777778 C3.31219065,4.02777778 0.8,6.55889093 0.8,9.66740503 C0.8,12.7773959 3.31219065,15.3055556 6.40073327,15.3055556 C9.48780935,15.3055556 12,12.7773959 12,9.66740503 C12,6.55889093 9.48780935,4.02777778 6.40073327,4.02777778" id="Fill-4"></path>
                        <path d="M12.9608301,0.805555556 C12.5394718,0.805555556 12.128067,0.977607857 11.8294667,1.27661137 C11.5325252,1.57561488 11.3600006,1.99154715 11.3600006,2.41750187 C11.3600006,2.84011578 11.5325252,3.25604804 11.8294667,3.55505155 C12.128067,3.85405507 12.5394718,4.02944819 12.9608301,4.02944819 C13.3821883,4.02944819 13.7935931,3.85405507 14.0921935,3.55505155 C14.3891349,3.25604804 14.5600006,2.84011578 14.5600006,2.41750187 C14.5600006,1.99154715 14.3891349,1.57561488 14.0921935,1.27661137 C13.795252,0.977607857 13.3821883,0.805555556 12.9608301,0.805555556" id="Fill-6"></path>
                    </g>
                </g>
                <path d="M9.6,2.57777778 C6.59557096,2.57777778 4.16,5.03026243 4.16,8.05555556 L4.16,20.9444444 C4.16,23.9697376 6.59557096,26.4222222 9.6,26.4222222 L22.4,26.4222222 C25.404429,26.4222222 27.84,23.9697376 27.84,20.9444444 L27.84,8.05555556 C27.84,5.03026243 25.404429,2.57777778 22.4,2.57777778 L9.6,2.57777778 Z M9.6,1.61111111 L22.4,1.61111111 C25.9346224,1.61111111 28.8,4.49638717 28.8,8.05555556 L28.8,20.9444444 C28.8,24.5036128 25.9346224,27.3888889 22.4,27.3888889 L9.6,27.3888889 C6.0653776,27.3888889 3.2,24.5036128 3.2,20.9444444 L3.2,8.05555556 C3.2,4.49638717 6.0653776,1.61111111 9.6,1.61111111 Z" id="Rectangle-2" fill="#FFFFFF" fill-rule="nonzero"></path>
            </g>
        </g>
    </g>
</svg>